<svg width="24" height="24" viewBox="0 0 24 24" fill="none" xmlns="http://www.w3.org/2000/svg">
<path d="M10 7C13.866 7 17 10.134 17 14C17 17.866 13.866 21 10 21C6.13401 21 3 17.866 3 14C3 10.134 6.13401 7 10 7ZM13.0918 15.502C12.8506 15.3411 12.5251 15.4063 12.3643 15.6475C11.1721 17.4357 8.82993 17.4356 7.6377 15.6475C7.47686 15.4062 7.15043 15.3411 6.90918 15.502C6.66828 15.6628 6.60312 15.9884 6.76367 16.2295C8.37148 18.6412 11.6295 18.6412 13.2373 16.2295C13.3981 15.9883 13.333 15.6628 13.0918 15.502ZM8.07031 11.375C7.6863 11.375 7.375 11.6886 7.375 12.0752C7.3751 12.4617 7.68636 12.7754 8.07031 12.7754H8.08008C8.46385 12.7752 8.77529 12.4616 8.77539 12.0752C8.77539 11.6887 8.46391 11.3752 8.08008 11.375H8.07031ZM12.2695 11.375C11.8856 11.3751 11.5742 11.6887 11.5742 12.0752C11.5743 12.4616 11.8856 12.7753 12.2695 12.7754H12.2793C12.6631 12.7752 12.9745 12.4616 12.9746 12.0752C12.9746 11.6887 12.6632 11.3752 12.2793 11.375H12.2695Z" fill="#C8C8C8"/>
<path d="M19.25 4.75H23V7.25H19.25V11H16.75V7.25H13V4.75H16.75V1H19.25V4.75Z" fill="#C8C8C8"/>
</svg>
