<svg width="24" height="24" viewBox="0 0 24 24" fill="none" xmlns="http://www.w3.org/2000/svg">
<path d="M19 1C21.2091 1 23 2.79086 23 5C23 7.20914 21.2091 9 19 9C16.7909 9 15 7.20914 15 5C15 2.79086 16.7909 1 19 1ZM20.7666 5.85938C20.6288 5.76758 20.4425 5.80457 20.3506 5.94238C19.6693 6.96389 18.3316 6.96397 17.6504 5.94238C17.5585 5.80452 17.3722 5.76747 17.2344 5.85938C17.0966 5.95129 17.0595 6.13755 17.1514 6.27539C18.0702 7.65307 19.9319 7.65329 20.8506 6.27539C20.9425 6.13753 20.9045 5.95128 20.7666 5.85938ZM17.8975 3.5C17.678 3.5 17.5 3.67948 17.5 3.90039C17.5002 4.12113 17.6781 4.2998 17.8975 4.2998H17.9023C18.1217 4.2998 18.2996 4.12112 18.2998 3.90039C18.2998 3.67948 18.1218 3.5 17.9023 3.5H17.8975ZM20.2969 3.5C20.0774 3.5 19.8994 3.67948 19.8994 3.90039C19.8996 4.12113 20.0776 4.2998 20.2969 4.2998H20.3018C20.5211 4.2998 20.699 4.12112 20.6992 3.90039C20.6992 3.67948 20.5212 3.5 20.3018 3.5H20.2969Z" fill="#C8C8C8"/>
<path d="M14 10H20V14H14V20H10V14H4V10H10V4H14V10Z" fill="#C8C8C8"/>
</svg>
