<svg width="24" height="24" viewBox="0 0 24 24" fill="none" xmlns="http://www.w3.org/2000/svg">
<path d="M14 7.5C14 9.98528 11.9853 12 9.5 12C7.01472 12 5 9.98528 5 7.5C5 5.01472 7.01472 3 9.5 3C11.9853 3 14 5.01472 14 7.5Z" fill="#C8C8C8"/>
<path d="M2 20.5789C2 16.3932 5.18113 13 9.10526 13H9.89474C13.8189 13 17 16.3932 17 20.5789C17 20.8115 16.8233 21 16.6053 21H2.39474C2.17673 21 2 20.8115 2 20.5789Z" fill="#C8C8C8"/>
<path d="M19.75 10.25H22V11.75H19.75V14H18.25V11.75H16V10.25H18.25V8H19.75V10.25Z" fill="#C8C8C8"/>
</svg>
