<svg width="24" height="24" viewBox="0 0 24 24" fill="none" xmlns="http://www.w3.org/2000/svg">
<path d="M10 6C14.4183 6 18 9.58171 18 14C18 18.4183 14.4183 22 10 22C5.58173 22 2 18.4183 2 14C2 9.58171 5.58173 6 10 6ZM13.5335 15.7166C13.2578 15.5327 12.8858 15.6072 12.7021 15.8829C11.3395 17.9265 8.66278 17.9264 7.30023 15.8829C7.11641 15.6071 6.74335 15.5327 6.46763 15.7166C6.19232 15.9003 6.11785 16.2725 6.30134 16.548C8.13883 19.3042 11.8623 19.3042 13.6998 16.548C13.8835 16.2723 13.8091 15.9003 13.5335 15.7166ZM7.79464 11C7.35577 11 7 11.3584 7 11.8002C7.00011 12.2419 7.35584 12.6005 7.79464 12.6005H7.80581C8.2444 12.6002 8.60033 12.2418 8.60045 11.8002C8.60045 11.3585 8.24447 11.0002 7.80581 11H7.79464ZM12.5937 11C12.155 11.0001 11.7991 11.3585 11.7991 11.8002C11.7992 12.2418 12.155 12.6003 12.5937 12.6005H12.6049C13.0435 12.6002 13.3994 12.2418 13.3995 11.8002C13.3995 11.3585 13.0437 11.0002 12.6049 11H12.5937Z" fill="#DCDCDC"/>
<path d="M18.375 1.5V5.625H22.5V9.375H18.375V13.5H14.625V9.375H10.5V5.625H14.625V1.5H18.375Z" fill="#DCDCDC" stroke="#0A0A0A"/>
</svg>
