<svg width="24" height="24" viewBox="0 0 24 24" fill="none" xmlns="http://www.w3.org/2000/svg">
<g clip-path="url(#clip0_3031_42660)">
<path d="M14.9949 12.8013C15.3099 13.0802 15.4949 13.4168 15.5272 13.8353C15.5444 14.3192 15.4651 14.6586 15.1582 15.0362C14.8919 15.318 14.5483 15.4963 14.1601 15.5233C13.667 15.5304 13.326 15.4617 12.9412 15.1428C12.6243 14.8248 12.4735 14.4403 12.4541 13.9962C12.4677 13.5298 12.6472 13.1825 12.9703 12.8549C13.5529 12.3221 14.369 12.3551 14.9949 12.8013Z" fill="#C8C8C8"/>
<path d="M14.9305 8.75115C15.2345 8.99899 15.3934 9.28794 15.5161 9.65606C15.5532 10.211 15.505 10.6244 15.1451 11.0586C14.8271 11.3755 14.4426 11.5263 13.9985 11.5457C13.5321 11.5321 13.1847 11.3526 12.8572 11.0295C12.5619 10.7067 12.4521 10.3461 12.4593 9.91186C12.4961 9.48363 12.6755 9.09245 13.002 8.81011C13.5832 8.38263 14.3217 8.33962 14.9305 8.75115Z" fill="#C8C8C8"/>
<path d="M10.6367 8.57304C11.0472 8.78826 11.309 9.08682 11.4755 9.51969C11.5904 9.9176 11.5531 10.3091 11.3907 10.6868C11.1454 11.1053 10.8062 11.3815 10.3419 11.5159C9.84152 11.5755 9.41603 11.4866 9.00194 11.1896C8.6761 10.9137 8.50971 10.5775 8.46965 10.1556C8.45354 9.67608 8.53821 9.335 8.8419 8.96122C9.29403 8.48195 10.0213 8.32595 10.6367 8.57304Z" fill="#C8C8C8"/>
<path d="M10.8872 12.7392C11.2274 13.0175 11.4782 13.3328 11.5317 13.7821C11.5724 14.2794 11.4332 14.7128 11.1099 15.0946C10.7926 15.4012 10.4506 15.521 10.0142 15.537C9.54937 15.5235 9.19445 15.3835 8.8573 15.0615C8.51046 14.6527 8.44525 14.209 8.48486 13.6884C8.58549 13.2669 8.81651 12.9186 9.18213 12.6864C9.72837 12.386 10.3669 12.3685 10.8872 12.7392Z" fill="#C8C8C8"/>
<path d="M18.6913 17.191C18.9214 17.4211 19.0215 17.6671 19.0429 17.9879C19.0383 18.2644 18.9599 18.4796 18.7822 18.691C18.4914 18.9344 18.2939 19.0468 17.9133 19.0411C17.6389 19.0133 17.3976 18.8973 17.2031 18.7028C17.0045 18.4157 16.9333 18.1603 16.9687 17.8121C17.035 17.5472 17.1444 17.3082 17.3752 17.1486C17.8235 16.8803 18.2583 16.9155 18.6913 17.191Z" fill="#C8C8C8"/>
<path d="M6.69133 17.191C6.92135 17.4211 7.02151 17.6671 7.0429 17.9879C7.03826 18.2644 6.95993 18.4796 6.78215 18.691C6.49145 18.9344 6.29385 19.0468 5.91332 19.0411C5.63894 19.0133 5.39762 18.8973 5.20305 18.7028C5.00452 18.4157 4.93329 18.1603 4.96868 17.8121C5.03504 17.5472 5.14436 17.3082 5.37517 17.1486C5.82351 16.8803 6.25831 16.9155 6.69133 17.191Z" fill="#C8C8C8"/>
<path d="M18.6913 5.19104C18.9214 5.42106 19.0215 5.66712 19.0429 5.98792C19.0383 6.26436 18.9599 6.47963 18.7822 6.69104C18.4914 6.93443 18.2939 7.04681 17.9133 7.04114C17.6389 7.01326 17.3976 6.89733 17.2031 6.70276C17.0045 6.4157 16.9333 6.1603 16.9687 5.81214C17.035 5.54719 17.1444 5.30819 17.3752 5.14856C17.8235 4.88033 18.2583 4.91548 18.6913 5.19104Z" fill="#C8C8C8"/>
<path d="M6.69133 5.19104C6.92135 5.42106 7.02151 5.66712 7.0429 5.98792C7.03826 6.26436 6.95993 6.47963 6.78215 6.69104C6.49145 6.93443 6.29385 7.04681 5.91332 7.04114C5.63894 7.01326 5.39762 6.89733 5.20305 6.70276C5.00452 6.4157 4.93329 6.1603 4.96868 5.81214C5.03504 5.54719 5.14436 5.30819 5.37517 5.14856C5.82351 4.88033 6.25831 4.91548 6.69133 5.19104Z" fill="#C8C8C8"/>
<path d="M14.5256 17.0929C14.7403 17.2291 14.9065 17.4348 14.9996 17.6714C15.0401 18.0174 15.0525 18.3409 14.835 18.627C14.5966 18.8854 14.3831 19.0127 14.027 19.0483C13.7499 19.0393 13.4805 18.9487 13.27 18.766C13.019 18.4855 12.962 18.2315 12.9694 17.8592C12.9985 17.5791 13.1062 17.41 13.3004 17.2114C13.6996 16.9427 14.0851 16.8791 14.5256 17.0929Z" fill="#C8C8C8"/>
<path d="M10.6404 17.1562C10.8591 17.3461 10.9965 17.56 11.0311 17.8514C11.0352 18.1619 11.0177 18.4027 10.8279 18.6562C10.5818 18.9078 10.3312 19.0135 9.98704 19.0517C9.72337 19.0393 9.48351 18.9437 9.28886 18.7648C9.02266 18.4636 8.97569 18.2388 8.98197 17.8353C9.01432 17.5375 9.15627 17.3594 9.3718 17.162C9.78419 16.8759 10.2175 16.9144 10.6404 17.1562Z" fill="#C8C8C8"/>
<path d="M18.4893 13.0604C18.7545 13.2178 18.912 13.442 19.0074 13.7311C19.0805 14.0284 19.0379 14.2552 18.9066 14.5258C18.7704 14.7405 18.5647 14.9067 18.3281 14.9998C17.9821 15.0403 17.6586 15.0527 17.3725 14.8352C17.1141 14.5968 16.9868 14.3833 16.9512 14.0272C16.9602 13.7501 17.0508 13.4807 17.2335 13.2702C17.5808 12.9594 18.0535 12.8615 18.4893 13.0604Z" fill="#C8C8C8"/>
<path d="M6.48926 13.0604C6.7545 13.2178 6.91199 13.442 7.00745 13.7311C7.08051 14.0284 7.03788 14.2552 6.90656 14.5258C6.7704 14.7405 6.56468 14.9067 6.32812 14.9998C5.98209 15.0403 5.65856 15.0527 5.3725 14.8352C5.11407 14.5968 4.98679 14.3833 4.95117 14.0272C4.96019 13.7501 5.05079 13.4807 5.23352 13.2702C5.58076 12.9594 6.05348 12.8615 6.48926 13.0604Z" fill="#C8C8C8"/>
<path d="M18.4462 9.04167C18.6947 9.1894 18.8785 9.38547 18.999 9.64939C19.0801 10.0181 19.0312 10.3119 18.8438 10.6396C18.6538 10.8584 18.4399 10.9958 18.1485 11.0304C17.838 11.0344 17.5973 11.017 17.3438 10.8271C17.0921 10.5811 16.9865 10.3304 16.9482 9.98631C16.9607 9.72264 17.0563 9.48278 17.2352 9.28813C17.5811 8.98239 17.994 8.87832 18.4462 9.04167Z" fill="#C8C8C8"/>
<path d="M6.44623 9.04167C6.69468 9.1894 6.87854 9.38547 6.99902 9.64939C7.08013 10.0181 7.03119 10.3119 6.84375 10.6396C6.65382 10.8584 6.43989 10.9958 6.1485 11.0304C5.83802 11.0344 5.59729 11.017 5.34375 10.8271C5.09211 10.5811 4.98648 10.3304 4.94824 9.98631C4.96067 9.72264 5.05629 9.48278 5.23517 9.28813C5.58107 8.98239 5.99404 8.87832 6.44623 9.04167Z" fill="#C8C8C8"/>
<path d="M14.5256 5.09292C14.7403 5.22908 14.9065 5.43479 14.9996 5.67135C15.0401 6.01738 15.0525 6.34092 14.835 6.62698C14.5966 6.8854 14.3831 7.01269 14.027 7.0483C13.7499 7.03928 13.4805 6.94869 13.27 6.76596C13.019 6.48551 12.962 6.23152 12.9694 5.85922C12.9985 5.57912 13.1062 5.40998 13.3004 5.21139C13.6996 4.94268 14.0851 4.87914 14.5256 5.09292Z" fill="#C8C8C8"/>
<path d="M10.6404 5.15619C10.8591 5.34612 10.9965 5.56005 11.0311 5.85144C11.0352 6.16192 11.0177 6.40265 10.8279 6.65619C10.5818 6.90783 10.3312 7.01346 9.98704 7.0517C9.72337 7.03927 9.48351 6.94365 9.28886 6.76477C9.02266 6.46361 8.97569 6.23876 8.98197 5.83533C9.01432 5.53751 9.15627 5.35938 9.3718 5.16205C9.78419 4.8759 10.2175 4.91435 10.6404 5.15619Z" fill="#C8C8C8"/>
<path d="M14.2027 20.4856C14.3631 20.5761 14.4587 20.6418 14.5165 20.8213C14.5441 20.9969 14.5436 21.111 14.4751 21.2767C14.3247 21.4531 14.2596 21.5105 14.021 21.5374C13.821 21.5303 13.7009 21.4575 13.5464 21.3294C13.4597 21.156 13.4775 20.9562 13.4995 20.7669C13.6646 20.488 13.8897 20.4355 14.2027 20.4856Z" fill="#C8C8C8"/>
<path d="M10.172 20.4857C10.34 20.5624 10.3966 20.6118 10.5001 20.7669C10.5257 20.9259 10.5257 21.0767 10.5001 21.2357C10.3974 21.3681 10.3206 21.4426 10.172 21.5169C9.9407 21.5401 9.8406 21.5415 9.63584 21.4261C9.48126 21.2414 9.4498 21.0988 9.46885 20.8607C9.60472 20.5317 9.82502 20.434 10.172 20.4857Z" fill="#C8C8C8"/>
<path d="M21.2346 13.4983C21.367 13.601 21.4416 13.6779 21.5159 13.8264C21.539 14.0577 21.5405 14.1578 21.4251 14.3626C21.2403 14.5172 21.0977 14.5486 20.8596 14.5296C20.6869 14.4582 20.5704 14.3685 20.4846 14.2014C20.4607 13.9502 20.4631 13.7963 20.6253 13.5921C20.8233 13.46 21.002 13.4608 21.2346 13.4983Z" fill="#C8C8C8"/>
<path d="M3.23463 13.4983C3.36702 13.601 3.44159 13.6779 3.51588 13.8264C3.53901 14.0577 3.54047 14.1578 3.42506 14.3626C3.24032 14.5172 3.09771 14.5486 2.85963 14.5296C2.68689 14.4582 2.57042 14.3685 2.48463 14.2014C2.4607 13.9502 2.46309 13.7963 2.62526 13.5921C2.82334 13.46 3.00196 13.4608 3.23463 13.4983Z" fill="#C8C8C8"/>
<path d="M21.281 9.5172C21.4179 9.63182 21.4964 9.71325 21.5359 9.89056C21.5504 10.1276 21.481 10.27 21.3278 10.4547C21.1544 10.5414 20.9546 10.5236 20.7653 10.5016C20.5986 10.4029 20.5453 10.357 20.4841 10.1735C20.4622 9.95122 20.4495 9.8151 20.5925 9.63732C20.8036 9.43606 21.0105 9.44142 21.281 9.5172Z" fill="#C8C8C8"/>
<path d="M3.28097 9.5172C3.41795 9.63182 3.49637 9.71325 3.53585 9.89056C3.55041 10.1276 3.48097 10.27 3.32784 10.4547C3.15441 10.5414 2.95464 10.5236 2.76534 10.5016C2.59862 10.4029 2.54528 10.357 2.48409 10.1735C2.46224 9.95122 2.4495 9.8151 2.59249 9.63732C2.80357 9.43606 3.01051 9.44142 3.28097 9.5172Z" fill="#C8C8C8"/>
<path d="M14.2027 2.48564C14.3631 2.57606 14.4587 2.6418 14.5165 2.82127C14.5441 2.99686 14.5436 3.11101 14.4751 3.27666C14.3247 3.45307 14.2596 3.51047 14.021 3.5374C13.821 3.5303 13.7009 3.45747 13.5464 3.32939C13.4597 3.15596 13.4775 2.95619 13.4995 2.76689C13.6646 2.48803 13.8897 2.43546 14.2027 2.48564Z" fill="#C8C8C8"/>
<path d="M10.172 2.48569C10.34 2.56241 10.3966 2.61177 10.5001 2.76694C10.5257 2.92589 10.5257 3.07672 10.5001 3.23569C10.3974 3.36807 10.3206 3.44264 10.172 3.51694C9.9407 3.54006 9.8406 3.54153 9.63584 3.42612C9.48126 3.24138 9.4498 3.09876 9.46885 2.86069C9.60472 2.53172 9.82502 2.43395 10.172 2.48569Z" fill="#C8C8C8"/>
</g>
<defs>
<clipPath id="clip0_3031_42660">
<rect width="24" height="24" fill="white"/>
</clipPath>
</defs>
</svg>
