<svg width="24" height="24" viewBox="0 0 24 24" fill="none" xmlns="http://www.w3.org/2000/svg">
<path d="M13.5 4C13.2239 4 13 4.22386 13 4.5V9.5L18 4.5C18 4.22386 17.7761 4 17.5 4H13.5Z" fill="#D9D9D9"/>
<path d="M17.5 20C17.7761 20 18 19.7761 18 19.5V7.5L13 12.5V19.5C13 19.7761 13.2239 20 13.5 20H17.5Z" fill="#D9D9D9"/>
<path d="M6.5 4C6.2239 4 6 4.22386 6 4.5V16.5L11 11.5V4.5C11 4.22386 10.7761 4 10.5 4H6.5Z" fill="#D9D9D9"/>
<path d="M10.5 20C10.7761 20 11 19.7761 11 19.5V14.5L6 19.5C6 19.7761 6.2239 20 6.5 20H10.5Z" fill="#D9D9D9"/>
<path d="M3 21L21 3" stroke="#DCDCDC" stroke-linecap="square"/>
</svg>
