<svg width="24" height="25" viewBox="0 0 24 25" fill="none" xmlns="http://www.w3.org/2000/svg">
<path fill-rule="evenodd" clip-rule="evenodd" d="M14.8768 7.5H2.5C2.22386 7.5 2 7.72386 2 8V17C2 17.2761 2.22386 17.5 2.5 17.5H4.87684L14.8768 7.5ZM9.11948 17.5H16.5C16.7761 17.5 17 17.2761 17 17V9.61948L9.11948 17.5ZM18.2931 10.094L21.2931 8.73041C21.6241 8.57993 22 8.82195 22 9.18559V15.8144C22 16.1781 21.6241 16.4201 21.2931 16.2696L18.2931 14.906C18.1146 14.8248 18 14.6468 18 14.4508V10.5492C18 10.3532 18.1146 10.1752 18.2931 10.094Z" fill="#D32A20"/>
<path fill-rule="evenodd" clip-rule="evenodd" d="M21.3536 3.14645C21.5488 3.34171 21.5488 3.65829 21.3536 3.85355L3.35355 21.8536C3.15829 22.0488 2.84171 22.0488 2.64645 21.8536C2.45118 21.6583 2.45118 21.3417 2.64645 21.1464L20.6464 3.14645C20.8417 2.95118 21.1583 2.95118 21.3536 3.14645Z" fill="#D32A20"/>
</svg>
