<svg width="24" height="24" viewBox="0 0 24 24" fill="none" xmlns="http://www.w3.org/2000/svg">
<path fill-rule="evenodd" clip-rule="evenodd" d="M14.8787 7H2.5C2.22386 7 2 7.22386 2 7.5V16.5C2 16.7761 2.22386 17 2.5 17H4.87868L14.8787 7ZM9.12132 17H16.5C16.7761 17 17 16.7761 17 16.5V9.12132L9.12132 17ZM18.2931 9.59405L21.2931 8.23041C21.6241 8.07993 22 8.32195 22 8.68559V15.3144C22 15.6781 21.6241 15.9201 21.2931 15.7696L18.2931 14.406C18.1146 14.3248 18 14.1468 18 13.9508V10.0492C18 9.85316 18.1146 9.67518 18.2931 9.59405Z" fill="#C8C8C8"/>
<path d="M3 21L21 3" stroke="#C8C8C8" stroke-linecap="square"/>
</svg>
