<svg width="24" height="24" viewBox="0 0 24 24" fill="none" xmlns="http://www.w3.org/2000/svg">
<path d="M2 16.5V7.5C2 7.22386 2.22386 7 2.5 7H16.5C16.7761 7 17 7.22386 17 7.5V16.5C17 16.7761 16.7761 17 16.5 17H2.5C2.22386 17 2 16.7761 2 16.5Z" fill="#C5BDB3"/>
<path d="M21.2931 8.23041L18.2931 9.59405C18.1146 9.67518 18 9.85316 18 10.0492V13.9508C18 14.1468 18.1146 14.3248 18.2931 14.406L21.2931 15.7696C21.6241 15.9201 22 15.6781 22 15.3144V8.68559C22 8.32195 21.6241 8.07993 21.2931 8.23041Z" fill="#C5BDB3"/>
</svg>
