<svg width="24" height="24" viewBox="0 0 24 24" fill="none" xmlns="http://www.w3.org/2000/svg">
<path d="M2 16.5V7.5C2 7.22386 2.22386 7 2.5 7H16.5C16.7761 7 17 7.22386 17 7.5V16.5C17 16.7761 16.7761 17 16.5 17H2.5C2.22386 17 2 16.7761 2 16.5Z" fill="#C8C8C8"/>
<path d="M21.2931 8.22899L18.2931 9.59263C18.1146 9.67376 18 9.85174 18 10.0478V13.9494C18 14.1454 18.1146 14.3234 18.2931 14.4046L21.2931 15.7682C21.6241 15.9187 22 15.6767 22 15.313V8.68417C22 8.32053 21.6241 8.07851 21.2931 8.22899Z" fill="#C8C8C8"/>
</svg>
