<svg width="24" height="24" viewBox="0 0 24 24" fill="none" xmlns="http://www.w3.org/2000/svg">
<path d="M20.3721 6H3.62789C2.73027 6 2 6.73027 2 7.62789V16.9303C2 17.8279 2.73027 18.5581 3.62789 18.5581H20.3721C21.2697 18.5581 22 17.8279 22 16.9303V7.62789C22 6.73027 21.2698 6 20.3721 6ZM20.6047 16.9303C20.6047 17.0585 20.5003 17.1628 20.3721 17.1628H3.62789C3.49965 17.1628 3.39535 17.0585 3.39535 16.9303V10.6512H20.6047V16.9303ZM20.6047 9.25583H3.39535V7.62789C3.39535 7.49965 3.49969 7.39535 3.62789 7.39535H20.3721C20.5004 7.39535 20.6046 7.49969 20.6046 7.62789L20.6047 9.25583Z" fill="#C8C8C8"/>
<path d="M6.1861 13.4414C5.67317 13.4414 5.25586 13.8587 5.25586 14.3716C5.25586 14.8846 5.67317 15.3019 6.1861 15.3019C6.69903 15.3019 7.11633 14.8846 7.11633 14.3716C7.11633 13.8587 6.69903 13.4414 6.1861 13.4414Z" fill="#C8C8C8"/>
<path d="M8.04645 13.4414C7.53352 13.4414 7.11621 13.8587 7.11621 14.3716C7.11621 14.8846 7.53352 15.3019 8.04645 15.3019C8.55938 15.3019 8.97668 14.8846 8.97668 14.3716C8.97668 13.8587 8.55938 13.4414 8.04645 13.4414Z" fill="#C8C8C8"/>
</svg>
