<svg width="24" height="24" viewBox="0 0 24 24" fill="none" xmlns="http://www.w3.org/2000/svg">
<path d="M2.5 4.5C2.22386 4.5 2 4.72386 2 5V8.875H9.5C9.66576 8.875 9.82473 8.94085 9.94194 9.05806C10.0592 9.17527 10.125 9.33424 10.125 9.5C10.125 9.81625 10.225 10.305 10.5075 10.6975C10.7663 11.0575 11.2037 11.375 12 11.375C12.7963 11.375 13.2338 11.0575 13.4925 10.6975C13.775 10.305 13.875 9.81625 13.875 9.5C13.875 9.33424 13.9408 9.17527 14.0581 9.05806C14.1753 8.94085 14.3342 8.875 14.5 8.875H22V5C22 4.72386 21.7761 4.5 21.5 4.5H2.5Z" fill="#C8C8C8"/>
<path d="M22 10.125H15.0612C14.9708 10.5934 14.7821 11.0374 14.5075 11.4275C14.0162 12.11 13.2037 12.625 12 12.625C10.7962 12.625 9.98375 12.11 9.4925 11.4275C9.21793 11.0374 9.0292 10.5934 8.93875 10.125H2V19C2 19.2761 2.22386 19.5 2.5 19.5H21.5C21.7761 19.5 22 19.2761 22 19V10.125Z" fill="#C8C8C8"/>
</svg>
