<svg width="24" height="24" viewBox="0 0 24 24" fill="none" xmlns="http://www.w3.org/2000/svg">
<path d="M11.4815 7.11836C12.2028 6.39716 13.1617 5.99996 14.1816 6C14.6335 6 14.9998 6.36633 14.9998 6.81819C14.9997 7.27009 14.6335 7.63638 14.1816 7.63638C13.5988 7.63638 13.0508 7.86328 12.6387 8.27545C12.2266 8.68759 11.9996 9.2355 11.9996 9.81829C11.9997 10.2701 11.6334 10.6365 11.1815 10.6365C10.7298 10.6365 10.3633 10.2703 10.3633 9.81839C10.3632 8.79847 10.7603 7.83955 11.4815 7.11836Z" fill="#0A0A0A"/>
<path d="M3.23967 19.6033L8.81848 14.0245C7.90719 12.8651 7.36308 11.4041 7.36308 9.81845C7.36311 6.05877 10.4218 3 14.1816 3C14.1815 3 14.1817 3 14.1816 3C16.0028 3 17.7152 3.70928 19.0029 4.99702C20.2908 6.28489 21 7.99714 21 9.81845C21 13.5782 17.9413 16.6369 14.1816 16.6369C12.5959 16.6369 11.1349 16.0928 9.97554 15.1816L4.39677 20.7604C4.23702 20.9201 4.02759 21 3.8182 21C3.60881 21 3.39939 20.9202 3.23971 20.7603C2.9201 20.4409 2.9201 19.9228 3.23967 19.6033ZM14.1816 15.0006C17.0389 15.0006 19.3636 12.6759 19.3636 9.81845C19.3636 8.43424 18.8246 7.1329 17.8459 6.15415C16.8671 5.17533 15.5658 4.63638 14.1816 4.63638C11.3241 4.63638 8.99946 6.96105 8.99946 9.81848C8.99946 12.6759 11.3241 15.0006 14.1816 15.0006Z" fill="#0A0A0A"/>
</svg>
