<svg width="24" height="24" viewBox="0 0 24 24" fill="none" xmlns="http://www.w3.org/2000/svg">
<path d="M11.4817 7.11836C12.203 6.39716 13.1619 5.99996 14.1818 6C14.6337 6 15 6.36633 15 6.81819C14.9999 7.27009 14.6337 7.63638 14.1818 7.63638C13.599 7.63638 13.051 7.86328 12.6389 8.27545C12.2268 8.68759 11.9998 9.2355 11.9998 9.81829C11.9999 10.2701 11.6336 10.6365 11.1817 10.6365C11.1816 10.6365 11.1816 10.6365 11.1816 10.6365C10.7299 10.6365 10.3635 10.2703 10.3635 9.81839C10.3634 8.79847 10.7605 7.83955 11.4817 7.11836Z" fill="#C8C8C8"/>
<path d="M3.23966 19.6033L8.81847 14.0245C7.90718 12.8651 7.36307 11.4041 7.36307 9.81845C7.3631 6.05877 10.4218 3 14.1816 3C14.1817 3 14.1816 3 14.1817 3C16.0029 3 17.7152 3.70928 19.0029 4.99702C20.2908 6.28489 21 7.99714 21 9.81845C21 13.5782 17.9413 16.6369 14.1816 16.6369C12.5959 16.6369 11.1349 16.0928 9.97553 15.1816L4.39676 20.7604C4.23701 20.9201 4.02758 21 3.81819 21C3.6088 21 3.39938 20.9202 3.2397 20.7603C2.92009 20.4409 2.92009 19.9228 3.23966 19.6033ZM14.1816 15.0006C17.0389 15.0006 19.3636 12.6759 19.3636 9.81845C19.3636 8.43424 18.8246 7.1329 17.8459 6.15415C16.8671 5.17533 15.5658 4.63638 14.1816 4.63638C11.3241 4.63638 8.99945 6.96105 8.99945 9.81848C8.99945 12.6759 11.3241 15.0006 14.1816 15.0006Z" fill="#C8C8C8"/>
</svg>
