<svg width="24" height="24" viewBox="0 0 24 24" fill="none" xmlns="http://www.w3.org/2000/svg">
<path d="M12 3C16.4183 3 20 6.58172 20 11V15.0596C20 15.1922 19.9473 15.3193 19.8535 15.4131L16.2666 19H16.2637V20.2002C16.2636 20.6419 15.9056 21 15.4639 21C15.0222 20.9999 14.6642 20.6419 14.6641 20.2002V19H14.0059V20.2002C14.0058 20.6419 13.6478 21 13.2061 21C12.7644 20.9999 12.4064 20.6419 12.4062 20.2002V19H11.6074V20.2002C11.6073 20.6419 11.2494 21 10.8076 21C10.3659 20.9999 10.0079 20.6419 10.0078 20.2002V19H9.33398V20.2002C9.33388 20.6419 8.97594 21 8.53418 21C8.09251 20.9999 7.73448 20.6419 7.73438 20.2002V19L4.14648 15.4131C4.05272 15.3193 4 15.1922 4 15.0596V11C4 6.58172 7.58172 3 12 3ZM12.1748 15.0918C12.1009 14.9449 11.8911 14.9448 11.8174 15.0918L11.0742 16.5781C11.0078 16.711 11.1045 16.8679 11.2529 16.8682H12.7393C12.8879 16.8682 12.9845 16.7111 12.918 16.5781L12.1748 15.0918ZM8.5332 10.4688C7.20772 10.4688 6.13281 11.5437 6.13281 12.8691C6.13302 14.1944 7.20785 15.2686 8.5332 15.2686C9.85838 15.2683 10.9324 14.1943 10.9326 12.8691C10.9326 11.5438 9.85851 10.469 8.5332 10.4688ZM15.4707 10.4688C14.1452 10.4688 13.0703 11.5437 13.0703 12.8691C13.0705 14.1944 14.1453 15.2686 15.4707 15.2686C16.7959 15.2683 17.8699 14.1943 17.8701 12.8691C17.8701 11.5438 16.796 10.469 15.4707 10.4688Z" fill="#C8C8C8"/>
</svg>
