<svg width="24" height="24" viewBox="0 0 24 24" fill="none" xmlns="http://www.w3.org/2000/svg">
<path d="M19 21.4746C19 21.7646 18.7909 22 18.5332 22H5.4668C5.20906 22 5 21.7646 5 21.4746V6.25H3.47363C3.21205 6.24997 3 6.02612 3 5.75V5.25C3 4.97388 3.21205 4.75003 3.47363 4.75H7.75V3.25C7.75 2.55964 8.30964 2 9 2H15C15.6904 2 16.25 2.55964 16.25 3.25V4.75H20.5264C20.788 4.75003 21 4.97388 21 5.25V5.75C21 6.02612 20.788 6.24997 20.5264 6.25H19V21.4746ZM9 18H10.5V9H9V18ZM13.5 18H15V9H13.5V18ZM9.25 4.75H14.75V3.5H9.25V4.75Z" fill="#C8C8C8"/>
</svg>
