<svg width="24" height="24" viewBox="0 0 24 24" fill="none" xmlns="http://www.w3.org/2000/svg">
<path d="M3.10938 13.3307C3.10938 14.0671 3.70656 14.6641 4.44323 14.6641H6.2217C6.95837 14.6641 7.55556 14.0671 7.55556 13.3307L7.55556 6.21962C7.55556 5.48324 6.95837 4.88629 6.2217 4.88629H4.44323C3.70656 4.88629 3.10937 5.48324 3.10937 6.21962L3.10938 13.3307Z" fill="#C8C8C8"/>
<path d="M15.9251 4H13.1014C12.3971 4 11.7085 4.20778 11.1224 4.59715L9.74256 5.5139C9.49442 5.67875 9.34538 5.95629 9.34538 6.2535V13.5417C9.34538 13.6964 9.38589 13.8484 9.4629 13.9827L12.785 19.7766C12.8643 19.9148 13.0114 20 13.1708 20H13.9365C15.6575 20 16.7298 18.1395 15.8626 16.6581L14.697 14.6667H19.1018C20.2623 14.6667 21.6317 13.2295 20.4162 11.5557C20.9652 10.681 20.8365 9.5131 19.8558 8.83546C20.084 7.82069 19.8558 7.05862 18.7643 6.47305C19.0423 4.72827 17.5622 4 15.9251 4Z" fill="#C8C8C8"/>
</svg>
