<svg width="24" height="24" viewBox="0 0 24 24" fill="none" xmlns="http://www.w3.org/2000/svg">
<path d="M16.594 15.4966C16.9412 15.4574 17.3551 15.5929 17.625 15.8113C18.7764 16.7434 18.3932 19.0294 16.7948 19.192C16.4126 19.1986 15.9908 19.116 15.6904 18.8617C14.7999 18.1081 14.8198 16.2331 15.9244 15.6713C16.1498 15.5569 16.3456 15.5217 16.594 15.4966Z" fill="white"/>
<path d="M10.8135 15.4968C11.2211 15.5 11.5472 15.5527 11.8871 15.8068C12.7177 16.4279 12.749 17.7844 12.1562 18.5742C11.86 18.9686 11.5007 19.1259 11.0217 19.1888C10.5841 19.2083 10.1506 19.109 9.81423 18.8126C8.94798 18.0494 8.98329 16.2347 10.065 15.6713C10.3081 15.5449 10.5442 15.5129 10.8135 15.4968Z" fill="white"/>
<path fill-rule="evenodd" clip-rule="evenodd" d="M16.7008 10.2865C17.1688 10.2859 17.9617 10.2651 18.4013 10.3432C19.0743 10.4613 19.697 10.7782 20.1878 11.2534C20.6907 11.7432 21.1892 12.6412 21.1992 13.3514C21.2406 13.5768 21.2283 14.3923 21.2283 14.6697V19.5916C21.2289 19.85 21.2447 20.7164 21.1992 20.9391C21.1901 21.627 20.7509 22.4413 20.2921 22.9343C19.7254 23.5432 18.8383 23.9794 17.9992 23.9887C17.0558 23.9991 16.1099 23.9962 15.1661 23.9964H7.12554C6.60492 23.9964 5.79894 24.0224 5.30533 23.935C4.66209 23.8203 4.06606 23.5196 3.59255 23.0694C2.82111 22.3378 2.52883 21.4554 2.52436 20.4219C2.51856 19.074 2.51966 17.7241 2.51976 16.3763V14.659C2.52002 14.1362 2.50676 13.4691 2.61798 12.9646C2.75369 12.3584 3.05109 11.8003 3.47744 11.3485C4.18242 10.6113 5.02735 10.2963 6.02973 10.2926C6.99409 10.2891 7.95851 10.2882 8.92273 10.288L16.7008 10.2865ZM16.5658 14.55C15.8363 14.6433 15.5575 14.8496 15.0464 15.3404C15.0713 15.1232 15.066 14.8663 15.0679 14.6451C14.7528 14.6476 14.4201 14.6452 14.1071 14.6605C14.1212 15.5325 14.1045 16.4334 14.1025 17.3064L14.0994 21.9291C14.4193 21.9244 14.7403 21.9241 15.0602 21.9275C15.0648 21.332 15.0653 20.7353 15.0617 20.1395C15.0609 19.9125 15.0713 19.4995 15.051 19.2878C15.5555 19.8148 16.0434 20.0467 16.7837 20.0597C17.4056 20.0738 18.007 19.8346 18.4489 19.3967C20.013 17.8582 19.2781 14.2858 16.5658 14.55ZM10.5757 14.5515C8.86678 14.7522 8.10764 16.1248 8.28888 17.7545C8.44381 19.1473 9.75084 20.2458 11.1589 20.0459L11.1849 20.0413C14.3407 19.5425 14.2543 14.901 11.1834 14.55C11.0447 14.5341 10.7177 14.529 10.5757 14.5515ZM5.64297 12.9569C5.66628 13.0798 5.66235 13.2258 5.66139 13.3514C5.65809 13.7824 5.6694 14.2176 5.65985 14.6482C5.37708 14.6492 5.09055 14.6482 4.80807 14.6528C4.81629 14.8855 4.81646 15.2838 4.80039 15.5107L5.65985 15.5077C5.67714 16.4279 5.65001 17.3527 5.66139 18.2733C5.66456 18.5301 5.6766 18.7714 5.73813 19.0222C5.98605 20.0324 6.99022 19.9475 7.8085 19.9477C7.8068 19.6546 7.8074 19.3614 7.81003 19.0683C7.72463 19.0697 7.63916 19.0708 7.55373 19.0714C6.87286 19.0756 6.62784 19.0442 6.60986 18.2718C6.60357 18.0009 6.60576 17.7182 6.60526 17.4461L6.60219 15.5123L7.88984 15.5107L7.89138 14.6498C7.52178 14.6779 7.01306 14.6334 6.60065 14.6605C6.60345 14.106 6.59714 13.5077 6.61754 12.9569C6.29974 12.9636 5.96224 12.9574 5.64297 12.9569Z" fill="white"/>
<path fill-rule="evenodd" clip-rule="evenodd" d="M7.64721 1.75614C8.66474 1.83142 9.51779 2.24439 9.73753 3.31698C9.80593 3.65155 9.79387 4.14854 9.79432 4.4926V5.93987C9.79386 6.1709 9.75673 6.51915 9.92017 6.67961C10.0767 6.83314 10.2421 6.80851 10.4466 6.8116C10.4536 7.12849 10.4555 7.44618 10.4543 7.76315C10.1373 7.7662 9.71473 7.75623 9.42138 7.6465C9.09476 7.52424 8.98931 7.3332 8.85659 7.04181C8.14637 7.91356 7.30345 8.04052 6.2245 7.78003C5.76018 7.6679 5.35314 7.38804 5.11334 6.96968C4.79127 6.30051 4.82925 5.48418 5.38806 4.93768C5.96774 4.3709 6.82082 4.36146 7.58428 4.35754C7.971 4.35589 8.35795 4.35898 8.74455 4.36828C8.75307 4.03126 8.72303 3.4278 8.52815 3.14816C8.16185 2.62284 7.15849 2.57964 6.65269 2.91948C6.28708 3.16549 6.23601 3.45841 6.14929 3.84647L5.10567 3.84493C5.12894 3.72485 5.14899 3.60389 5.17473 3.48427C5.39063 2.48098 6.15906 1.88749 7.15609 1.76382C7.25236 1.74929 7.54772 1.7488 7.64721 1.75614ZM8.77064 5.33671C8.33737 5.33116 7.24051 5.29616 6.83379 5.34131C6.56176 5.38445 6.27239 5.47506 6.10325 5.70505C5.85241 6.04616 5.96908 6.5004 6.31505 6.72105C6.75679 7.00267 7.37451 7.0132 7.83598 6.78244C8.49763 6.45271 8.65602 6.03526 8.77064 5.33671Z" fill="white"/>
<path fill-rule="evenodd" clip-rule="evenodd" d="M17.9259 1.76275C18.561 1.66547 19.5073 1.88123 19.9917 2.3214C20.6304 2.90216 20.5852 3.72795 20.581 4.51762C20.578 5.07233 20.5757 5.63106 20.5825 6.18589C20.5858 6.38375 20.6323 6.65077 20.7928 6.78598C20.8738 6.85406 21.1205 6.81155 21.2379 6.79979C21.2329 7.11696 21.2363 7.44409 21.2363 7.76208C20.4689 7.74302 20.0297 7.80892 19.651 7.04689C18.9166 7.92061 18.1164 8.04008 17.0112 7.77129C16.5184 7.65138 16.1454 7.38846 15.8939 6.94559C15.5366 6.25855 15.6949 5.31016 16.3175 4.82457C16.969 4.31508 17.8059 4.36134 18.5858 4.35647C18.8861 4.35459 19.2525 4.33512 19.5481 4.37029C19.5501 3.97996 19.5385 3.44289 19.298 3.12407C18.9162 2.61796 17.913 2.57475 17.4179 2.93376C17.0594 3.19397 17.0227 3.45574 16.9513 3.8454L15.8908 3.83773C16.0689 2.65914 16.73 1.9359 17.9259 1.76275ZM18.0364 5.3249C17.6542 5.33491 17.2495 5.35182 16.9559 5.63799C16.6723 5.91444 16.6981 6.36646 16.9912 6.62637C17.3401 6.93125 17.8312 6.98447 18.2712 6.91029C19.1623 6.65868 19.4136 6.20423 19.5819 5.33411C19.0716 5.3286 18.5451 5.3176 18.0364 5.3249Z" fill="white"/>
<path d="M14.693 1.89004C15.0639 1.90164 15.4556 1.89597 15.8281 1.89633C15.6898 2.20027 15.5625 2.53484 15.4379 2.8466L13.475 7.76722C13.2412 7.73912 12.5556 7.75456 12.2847 7.75544C12.1818 7.45058 12.0593 7.13344 11.9371 6.83537C11.2653 5.19699 10.6371 3.5326 9.95605 1.89883C10.3337 1.89494 10.7114 1.89472 11.0891 1.89816C11.1741 2.08645 11.2659 2.31817 11.3366 2.51401C11.8099 3.82582 12.4546 5.14388 12.8837 6.4628C13.0026 6.08833 13.25 5.53883 13.3982 5.15451C13.8186 4.06431 14.2878 2.98641 14.693 1.89004Z" fill="white"/>
<path d="M2.50101 0C3.01163 0.0100528 3.55397 -0.00719788 3.92882 0.398712C4.40729 0.916852 4.34965 1.65267 4.34786 2.30313L4.34569 3.57717C4.345 4.95858 4.36571 6.38937 4.34589 7.76624C4.02792 7.75914 3.67137 7.74384 3.35676 7.75761L3.3262 7.75217C3.28118 7.69591 3.29932 6.10749 3.29897 5.93129C3.30653 4.45357 3.29994 2.97582 3.27923 1.49824C3.23031 1.28094 3.20904 1.17066 3.04906 1.00707C2.82398 0.941421 2.73845 0.948196 2.5 0.953605L2.50101 0Z" fill="white"/>
</svg>
