<svg width="80" height="80" viewBox="0 0 80 80" fill="none" xmlns="http://www.w3.org/2000/svg">
<path d="M40.8586 46.5882H35.4383C35.1228 46.5896 34.8214 46.471 34.6092 46.2618C34.3969 46.0525 34.2938 45.7724 34.3253 45.4911L34.8039 40.6039C34.8504 40.0844 35.3354 39.6846 35.9169 39.6863H41.3372C41.6527 39.6849 41.9541 39.8035 42.1663 40.0127C42.3786 40.222 42.4818 40.5021 42.4502 40.7834L41.9716 45.6706C41.9251 46.1901 41.4401 46.5899 40.8586 46.5882ZM41.7274 37.0196H36.2063C35.5964 37.0196 35.102 36.5436 35.102 35.9564L36.6038 19.4454C36.6712 18.9086 37.1464 18.5059 37.708 18.5098H43.2291C43.839 18.5098 44.3333 18.9858 44.3333 19.573L42.7874 36.0947C42.7173 36.6115 42.2684 37.0031 41.7274 37.0196ZM74.1908 17.7655C74.7784 18.4477 75.0654 19.3359 74.9874 20.2305L72.8294 44.7595C72.7602 45.5619 72.4022 46.3125 71.821 46.8738L54.174 63.9078C53.544 64.5137 52.7011 64.8516 51.8244 64.8497H33.0379L16.5001 80L17.7808 64.8397H9.37071C8.42614 64.8404 7.52467 64.447 6.88614 63.7554C6.24762 63.0637 5.93072 62.1374 6.01273 61.2024L11.1455 3.00602C11.3216 1.29571 12.7733 -0.00377492 14.5035 8.23912e-06H57.3303C58.3156 -0.000274507 59.2515 0.428127 59.8916 1.17235L74.1908 17.7655ZM61.1118 40.0802L62.4832 24.9399C62.5364 24.0423 62.2239 23.1611 61.616 22.495L53.5488 13.2365C52.9095 12.505 51.9826 12.0847 51.0076 12.0842H25.5959C23.8657 12.0804 22.414 13.3799 22.2379 15.0902L19.2127 49.1583C19.1431 50.0905 19.4642 51.0097 20.1001 51.6985C20.736 52.3873 21.6301 52.7843 22.5707 52.7956H47.5589C48.4258 52.7977 49.2602 52.4675 49.8883 51.8737L60.1034 42.2044C60.6868 41.6406 61.045 40.886 61.1118 40.0802Z" fill="url(#paint0_linear_3185_43668)"/>
<defs>
<linearGradient id="paint0_linear_3185_43668" x1="66.1648" y1="-4.61286e-07" x2="4.70255" y2="71.2606" gradientUnits="userSpaceOnUse">
<stop stop-color="#F59C07"/>
<stop offset="1" stop-color="#F57507"/>
</linearGradient>
</defs>
</svg>
