<svg width="24" height="24" viewBox="0 0 24 24" fill="none" xmlns="http://www.w3.org/2000/svg">
<g clip-path="url(#clip0_3398_42286)">
<path d="M12 0C18.6274 0 24 5.37258 24 12C24 18.6274 18.6274 24 12 24C5.37258 24 0 18.6274 0 12C0 5.37258 5.37258 0 12 0ZM15.7832 8.96973C14.2079 8.94008 12.4228 8.86291 10.8525 8.91895C9.56477 8.93366 8.27663 8.95892 6.98926 8.99414C6.3837 9.00917 5.73663 9.00795 5.14941 9.06934C4.72754 9.11345 4.41187 9.35848 4.43066 9.78809C4.44441 10.1025 4.56254 10.1959 4.78125 10.4102C5.55929 11.1028 6.44578 11.6935 7.24609 12.3584C7.5587 12.6181 8.19998 12.9556 8.20312 13.3828C8.20576 13.757 8.05289 14.1634 7.9502 14.5205C7.79496 15.1602 7.02326 17.3973 7.05566 17.9326C7.06683 18.0999 7.14086 18.257 7.2627 18.3721C7.38615 18.4884 7.57408 18.5782 7.74609 18.5732C8.17704 18.5608 9.902 17.2772 10.376 16.957C12.7579 15.3257 15.0927 13.6258 17.377 11.8604C18.0595 11.3293 18.785 10.8271 19.4023 10.2236C19.629 10.002 19.6031 9.61476 19.4336 9.36523C19.2765 9.13428 19.0889 9.11891 18.833 9.07227C18.4939 9.02498 18.0928 9.02027 17.7451 9.00977C17.0913 8.99191 16.4373 8.97901 15.7832 8.96973ZM13.6836 15.3193C13.298 15.599 12.8793 15.8789 12.5039 16.1641C13.2047 16.6646 13.9123 17.1188 14.6133 17.6074C15.0217 17.8827 15.488 18.2045 15.8564 18.4141C16.4714 18.7637 17.0381 18.2956 16.9561 17.7793C16.8921 17.3787 15.892 13.8728 15.792 13.7803L13.6836 15.3193ZM11.9141 4.05957C11.5813 4.15963 11.4379 4.28396 11.3037 4.60742C11.1908 4.87952 11.0891 5.15546 10.9873 5.43164C10.7642 6.04605 10.545 6.66231 10.3291 7.2793C10.2115 7.61247 10.0798 8.02003 9.93945 8.33691C10.6614 8.34783 11.3835 8.35011 12.1055 8.34277C12.7448 8.34519 13.4075 8.35669 14.0449 8.34766C13.6746 7.11487 13.1624 5.87716 12.7305 4.66113C12.5858 4.25384 12.3712 4.04176 11.9141 4.05957Z" fill="white"/>
</g>
<defs>
<clipPath id="clip0_3398_42286">
<rect width="24" height="24" fill="white"/>
</clipPath>
</defs>
</svg>
