<svg width="24" height="24" viewBox="0 0 24 24" fill="none" xmlns="http://www.w3.org/2000/svg">
<mask id="path-1-outside-1_3127_43252" maskUnits="userSpaceOnUse" x="2" y="2" width="20" height="20" fill="black">
<rect fill="white" x="2" y="2" width="20" height="20"/>
<path d="M11.4846 3.02349C11.2731 3.03522 11.0432 3.05364 10.9727 3.06369C10.9022 3.07374 10.7931 3.09049 10.7276 3.09886C10.5195 3.12566 10.2208 3.17926 10.0731 3.21443C10.0361 3.2228 9.9388 3.24625 9.85488 3.26635C9.77264 3.28645 9.68201 3.3099 9.65347 3.3166C9.62662 3.32497 9.54606 3.34842 9.47724 3.36852C9.21374 3.44221 8.96869 3.52763 8.62127 3.6633C8.41315 3.74537 7.76361 4.05522 7.61423 4.14566C7.56388 4.17581 7.49507 4.21601 7.46318 4.23443C6.74315 4.64143 5.88885 5.33315 5.32324 5.97128C5.24267 6.0634 5.15204 6.16557 5.12351 6.19739C5.09497 6.22922 5.02952 6.30793 4.97917 6.37326C4.92881 6.4369 4.8835 6.49385 4.87846 6.49887C4.84825 6.52399 4.67034 6.77355 4.46894 7.07671C4.192 7.4904 3.91003 8.00962 3.72205 8.45848C3.67338 8.57405 3.62303 8.69129 3.6096 8.72144C3.59618 8.74991 3.5861 8.78006 3.5861 8.79011C3.5861 8.79848 3.57436 8.82863 3.56093 8.85376C3.5475 8.88055 3.53575 8.91405 3.53575 8.92745C3.53575 8.94252 3.52904 8.96095 3.52065 8.96932C3.50722 8.98607 3.44009 9.18371 3.39309 9.34617C3.38134 9.38804 3.35281 9.48519 3.32931 9.56391C3.28064 9.73307 3.24371 9.87711 3.20847 10.0496C3.19336 10.1183 3.1749 10.202 3.16651 10.2339C3.12455 10.3946 3.04734 10.9641 3.01545 11.356C2.98021 11.7814 3.00874 12.8132 3.0658 13.1565C3.0742 13.2118 3.09098 13.314 3.10105 13.3826C3.13294 13.6054 3.14805 13.6908 3.16483 13.7595C3.17322 13.7963 3.19336 13.8834 3.20847 13.9521C3.24539 14.1263 3.28064 14.2703 3.32931 14.4378C3.35281 14.5165 3.37631 14.602 3.3847 14.6304C3.3998 14.6924 3.49715 14.9872 3.51729 15.0324C3.52568 15.0508 3.54582 15.1027 3.56093 15.1496C3.57771 15.1949 3.59953 15.2552 3.61128 15.2836C3.89157 15.9603 4.1769 16.4996 4.53104 17.0255C4.65692 17.2114 4.85497 17.4827 4.87846 17.5028C4.8835 17.5079 4.92378 17.5581 4.96742 17.6151C5.01106 17.672 5.05637 17.729 5.06812 17.7407C5.07819 17.7524 5.13022 17.8127 5.18057 17.8713C5.35345 18.0757 5.71933 18.4525 5.93752 18.6501C6.09026 18.7908 6.55517 19.1744 6.60552 19.2012C6.62063 19.2096 6.68944 19.2598 6.75826 19.3117C6.82707 19.3636 6.95295 19.4507 7.03519 19.5027C7.11911 19.5563 7.20639 19.6149 7.23156 19.6316C7.25674 19.6484 7.39604 19.7304 7.54206 19.8142C7.86935 20.0018 8.2067 20.1676 8.54574 20.3083C8.62966 20.3434 8.72029 20.382 8.7505 20.3937C8.77903 20.4071 8.81428 20.4171 8.82771 20.4171C8.84281 20.4171 8.85792 20.4238 8.86295 20.4322C8.86799 20.4406 8.89316 20.4523 8.91834 20.4573C8.94519 20.464 9.01401 20.4875 9.07443 20.5093C9.28759 20.5863 9.68368 20.6985 10.0143 20.7772C10.1771 20.8158 10.5044 20.8727 10.7276 20.9029C10.8015 20.9129 10.9005 20.928 10.9492 20.9364C10.9979 20.9447 11.253 20.9648 11.5165 20.9799C11.9663 21.0067 12.0234 21.0067 12.4732 20.9799C12.7367 20.9648 12.9918 20.9447 13.0405 20.9364C13.0891 20.928 13.1882 20.9129 13.262 20.9029C13.3845 20.8878 13.5305 20.8627 13.7739 20.8208C13.8243 20.8107 13.8964 20.7957 13.9334 20.7873C13.9703 20.7772 14.0693 20.7538 14.1516 20.7354C14.2355 20.7153 14.3261 20.6935 14.353 20.6851C14.3815 20.6767 14.4604 20.6533 14.5292 20.6332C14.7726 20.5645 15.271 20.392 15.3936 20.3334C15.412 20.325 15.4607 20.3032 15.5027 20.2865C15.7057 20.2011 15.7829 20.1642 16.0297 20.0436C16.3368 19.8912 16.6372 19.7187 16.7413 19.6316C16.9259 19.4775 17.0636 19.1777 17.0636 18.9265C17.0636 18.816 17.0266 18.6367 16.988 18.5647C16.9746 18.5379 16.9628 18.5095 16.9628 18.5028C16.9628 18.4827 16.8638 18.342 16.8051 18.2766C16.7329 18.1979 16.5433 18.0757 16.4358 18.0371C16.3116 17.9936 16.0901 17.9785 15.9474 18.0036C15.8199 18.0254 15.7141 18.0723 15.511 18.1912C15.3785 18.2683 14.927 18.4944 14.8128 18.5396C14.7826 18.5513 14.734 18.5714 14.7054 18.5831C14.4285 18.7021 13.9266 18.8612 13.6061 18.9332C13.0136 19.0672 12.6762 19.1024 11.9948 19.1024C11.3621 19.1024 11.1137 19.0789 10.5598 18.97C10.2762 18.9148 9.70215 18.7523 9.56955 18.692C9.55109 18.682 9.48731 18.6568 9.42689 18.6351C9.11303 18.5178 8.65316 18.2951 8.34433 18.1092C8.11439 17.9701 7.51857 17.5497 7.46318 17.4861C7.45814 17.4811 7.37255 17.404 7.27016 17.3169C7.08218 17.1528 6.80357 16.8731 6.6458 16.6905C6.59881 16.6353 6.54342 16.5716 6.52328 16.5482C6.50314 16.5247 6.45111 16.4611 6.40915 16.4058C6.36719 16.3505 6.32691 16.302 6.32188 16.2969C6.31181 16.2886 6.22117 16.1596 6.08354 15.962C5.85528 15.6303 5.51457 14.9939 5.40715 14.6974C5.39037 14.6505 5.37023 14.6053 5.36519 14.5969C5.35848 14.5869 5.33666 14.5316 5.31652 14.4713C5.29638 14.411 5.27456 14.3474 5.26617 14.3289C5.2326 14.2519 5.18896 14.1146 5.13861 13.927C4.9456 13.1984 4.88182 12.7227 4.88014 12.0092C4.87846 11.2522 4.96406 10.6693 5.18729 9.90726C5.21582 9.80676 5.3417 9.45169 5.36519 9.40479C5.37359 9.38637 5.40044 9.3244 5.42394 9.26745C5.58842 8.8638 5.86535 8.35129 6.09529 8.02301C6.25642 7.79188 6.31348 7.71316 6.32188 7.70479C6.32691 7.69976 6.37223 7.64282 6.42258 7.57917C6.47293 7.51385 6.5216 7.45355 6.53167 7.4435C6.54007 7.43346 6.59042 7.37651 6.64077 7.31789C6.90763 7.00804 7.32219 6.62114 7.68473 6.34311C7.87103 6.20074 8.29062 5.92104 8.44504 5.83729C8.51049 5.80212 8.57091 5.76862 8.57931 5.76192C8.6263 5.72675 9.21206 5.4437 9.23556 5.4437C9.24059 5.4437 9.27584 5.4303 9.31444 5.41187C9.35304 5.39512 9.45375 5.3566 9.53599 5.32645C9.61991 5.29631 9.70215 5.26616 9.72061 5.25778C9.75082 5.24438 9.89684 5.20084 10.1402 5.13217C10.4272 5.0501 10.825 4.97473 11.2144 4.92951C11.5652 4.88763 12.4631 4.88763 12.834 4.92951C13.361 4.98813 13.5591 5.02665 14.1683 5.18409C14.3261 5.22429 14.7994 5.39177 14.9572 5.46044C15.5631 5.72675 15.9726 5.96458 16.4409 6.31966C16.5382 6.39335 16.6272 6.46202 16.6372 6.47207C16.649 6.48212 16.6977 6.52399 16.7463 6.56419C16.9024 6.69148 17.3841 7.18557 17.5251 7.36144C17.599 7.45355 17.6678 7.5373 17.6778 7.54902C17.703 7.57415 17.9145 7.87897 18.0135 8.03139C18.2418 8.37976 18.5053 8.91238 18.658 9.3378C18.6882 9.41987 18.7184 9.50361 18.7252 9.52203C18.7487 9.57898 18.7772 9.66942 18.8007 9.75652C18.8124 9.80174 18.8359 9.88213 18.8494 9.93238C18.9635 10.3226 19.0558 10.8619 19.0961 11.3812C19.1229 11.7161 19.1061 12.5234 19.0692 12.7378C19.0088 13.0946 18.9232 13.3877 18.8124 13.6171C18.7721 13.6992 18.6396 13.9186 18.601 13.9688C18.5137 14.0777 18.3039 14.2686 18.2116 14.3222C17.7685 14.5852 17.1273 14.612 16.6977 14.3842C16.2395 14.1414 15.986 13.6322 15.9222 12.8299C15.9139 12.7093 15.9071 11.7212 15.9055 10.5119C15.9055 8.18715 15.9105 8.31947 15.7997 8.09001C15.7645 8.01966 15.7057 7.94094 15.6285 7.8639C15.172 7.40498 14.3983 7.53562 14.1197 8.11848C14.0693 8.22233 14.0257 8.39986 14.0257 8.49868C14.0257 8.6109 14.0039 8.61592 13.8763 8.53888C13.6866 8.42164 13.3191 8.24242 13.1445 8.18213C13.0992 8.16705 13.0455 8.14696 13.027 8.14026C13.0086 8.13188 12.9364 8.11011 12.8676 8.09001C12.7988 8.07159 12.7149 8.04814 12.683 8.03809C12.6259 8.02301 12.542 8.00459 12.3725 7.97444C11.9008 7.88902 11.3856 7.89237 10.8703 7.98449C10.1872 8.10676 9.49738 8.42499 8.95862 8.86883C8.8596 8.94922 8.58602 9.20046 8.57427 9.22055C8.56756 9.23228 8.52392 9.28253 8.4786 9.33277C8.19663 9.62923 7.85592 10.1752 7.69983 10.5772C7.67969 10.6325 7.65619 10.6928 7.6478 10.7112C7.58067 10.8787 7.52864 11.0763 7.44807 11.4699C7.39436 11.7346 7.38429 12.4665 7.42961 12.7378C7.48668 13.0594 7.51857 13.2118 7.55717 13.3357C7.61927 13.5384 7.6864 13.7277 7.69983 13.7427C7.70822 13.7511 7.71494 13.7679 7.71494 13.7796C7.71494 13.7913 7.7569 13.8851 7.80725 13.9889C8.10097 14.5936 8.47021 15.0575 9.01569 15.5064C9.09961 15.5751 9.42186 15.7911 9.54438 15.8598C9.91698 16.0708 10.3601 16.24 10.7528 16.3187C10.8216 16.3321 10.9207 16.3522 10.971 16.3639C11.1623 16.4024 11.6239 16.4209 11.9394 16.4008C12.1039 16.3907 12.2801 16.374 12.3305 16.3639C12.6444 16.2986 12.7467 16.2752 12.7837 16.2634C12.8072 16.2551 12.8827 16.2333 12.9515 16.2132C13.0203 16.1914 13.0841 16.1696 13.0942 16.1613C13.1026 16.1529 13.1193 16.1462 13.1328 16.1462C13.1445 16.1462 13.1898 16.1311 13.2335 16.111C13.2771 16.0926 13.3392 16.0658 13.3711 16.0507C13.8142 15.8548 14.222 15.5801 14.603 15.22C14.65 15.1764 14.7037 15.1413 14.7222 15.1413C14.744 15.1413 14.7793 15.1748 14.8229 15.2351C14.927 15.3824 15.2073 15.6605 15.3516 15.761C15.3835 15.7844 15.4137 15.8062 15.4187 15.8112C15.4523 15.8481 15.6688 15.9754 15.8333 16.0541C15.9424 16.106 16.0431 16.1546 16.0565 16.1613C16.0767 16.1713 16.3016 16.2433 16.5349 16.3137C16.5634 16.3221 16.6305 16.3371 16.6859 16.3455C16.7413 16.3556 16.8303 16.3706 16.8856 16.379C17.1676 16.4276 17.7584 16.4158 18.0538 16.3556C18.3274 16.3003 18.5506 16.2383 18.5825 16.2115C18.5909 16.2031 18.6077 16.1964 18.6211 16.1964C18.6765 16.1964 19.0944 15.9904 19.2622 15.8816C19.947 15.4377 20.4304 14.7912 20.7157 13.9437C20.7896 13.7226 20.8802 13.3625 20.9071 13.1817C20.9154 13.1214 20.9306 13.0242 20.9389 12.9639C21.0195 12.4162 21.0212 11.5955 20.9389 10.8954C20.8819 10.3946 20.8064 9.99603 20.6754 9.49691C20.6167 9.27415 20.4388 8.72646 20.4186 8.70134C20.4103 8.69297 20.4035 8.67622 20.4035 8.66282C20.4035 8.64942 20.3935 8.61592 20.38 8.58745C20.3683 8.5573 20.3414 8.49198 20.3213 8.44173C20.3012 8.39149 20.2777 8.33454 20.2693 8.31612C20.2609 8.29769 20.2374 8.2441 20.2189 8.19888C20.1467 8.03474 19.9437 7.62774 19.8715 7.50715C19.8312 7.43848 19.7993 7.37986 19.7993 7.37483C19.7993 7.35809 19.5962 7.03483 19.4653 6.84222C18.9215 6.04163 18.2518 5.33985 17.4915 4.77709C17.3908 4.70172 17.3002 4.63473 17.2901 4.62635C17.2331 4.58448 16.8638 4.34665 16.7379 4.27128C16.4241 4.08369 15.892 3.81739 15.6285 3.71689C15.5832 3.69847 15.5295 3.6767 15.511 3.66832C15.4489 3.63817 15.2442 3.56448 14.9991 3.48408C14.6467 3.36852 14.6131 3.36014 14.3362 3.29147C13.9837 3.20605 13.9736 3.20438 13.7571 3.16586C13.4114 3.10556 13.3644 3.09886 13.2033 3.08211C13.116 3.07206 13.0321 3.06034 13.0186 3.05699C12.9867 3.04694 12.0284 2.99837 11.9361 3.00004C11.8992 3.00172 11.6961 3.01177 11.4846 3.02349ZM12.1677 9.84696C12.6561 9.9709 13.0019 10.1635 13.3308 10.4918C13.5238 10.6844 13.7689 11.0378 13.8176 11.1919C13.8226 11.2137 13.8343 11.2371 13.841 11.2472C13.8645 11.2773 13.9434 11.5302 13.9787 11.691C14.0307 11.9154 14.0307 12.3961 13.9804 12.6289C13.9418 12.8098 13.8763 13.0058 13.8041 13.1632C13.7555 13.2671 13.6161 13.5066 13.5809 13.5451C13.5725 13.5551 13.5457 13.5886 13.5222 13.6205C13.2872 13.932 12.9314 14.2 12.5235 14.3691C12.2818 14.4713 11.9344 14.5383 11.6508 14.5383C11.1523 14.5383 10.6437 14.3691 10.2443 14.0727C9.39836 13.4413 9.06772 12.3827 9.40507 11.3895C9.59977 10.8184 10.0278 10.331 10.5883 10.0429C10.7965 9.93573 11.0784 9.84696 11.3319 9.80844C11.3604 9.80509 11.5299 9.80341 11.7095 9.80676C11.9663 9.81179 12.0653 9.82016 12.1677 9.84696Z"/>
</mask>
<path d="M11.4846 3.02349C11.2731 3.03522 11.0432 3.05364 10.9727 3.06369C10.9022 3.07374 10.7931 3.09049 10.7276 3.09886C10.5195 3.12566 10.2208 3.17926 10.0731 3.21443C10.0361 3.2228 9.9388 3.24625 9.85488 3.26635C9.77264 3.28645 9.68201 3.3099 9.65347 3.3166C9.62662 3.32497 9.54606 3.34842 9.47724 3.36852C9.21374 3.44221 8.96869 3.52763 8.62127 3.6633C8.41315 3.74537 7.76361 4.05522 7.61423 4.14566C7.56388 4.17581 7.49507 4.21601 7.46318 4.23443C6.74315 4.64143 5.88885 5.33315 5.32324 5.97128C5.24267 6.0634 5.15204 6.16557 5.12351 6.19739C5.09497 6.22922 5.02952 6.30793 4.97917 6.37326C4.92881 6.4369 4.8835 6.49385 4.87846 6.49887C4.84825 6.52399 4.67034 6.77355 4.46894 7.07671C4.192 7.4904 3.91003 8.00962 3.72205 8.45848C3.67338 8.57405 3.62303 8.69129 3.6096 8.72144C3.59618 8.74991 3.5861 8.78006 3.5861 8.79011C3.5861 8.79848 3.57436 8.82863 3.56093 8.85376C3.5475 8.88055 3.53575 8.91405 3.53575 8.92745C3.53575 8.94252 3.52904 8.96095 3.52065 8.96932C3.50722 8.98607 3.44009 9.18371 3.39309 9.34617C3.38134 9.38804 3.35281 9.48519 3.32931 9.56391C3.28064 9.73307 3.24371 9.87711 3.20847 10.0496C3.19336 10.1183 3.1749 10.202 3.16651 10.2339C3.12455 10.3946 3.04734 10.9641 3.01545 11.356C2.98021 11.7814 3.00874 12.8132 3.0658 13.1565C3.0742 13.2118 3.09098 13.314 3.10105 13.3826C3.13294 13.6054 3.14805 13.6908 3.16483 13.7595C3.17322 13.7963 3.19336 13.8834 3.20847 13.9521C3.24539 14.1263 3.28064 14.2703 3.32931 14.4378C3.35281 14.5165 3.37631 14.602 3.3847 14.6304C3.3998 14.6924 3.49715 14.9872 3.51729 15.0324C3.52568 15.0508 3.54582 15.1027 3.56093 15.1496C3.57771 15.1949 3.59953 15.2552 3.61128 15.2836C3.89157 15.9603 4.1769 16.4996 4.53104 17.0255C4.65692 17.2114 4.85497 17.4827 4.87846 17.5028C4.8835 17.5079 4.92378 17.5581 4.96742 17.6151C5.01106 17.672 5.05637 17.729 5.06812 17.7407C5.07819 17.7524 5.13022 17.8127 5.18057 17.8713C5.35345 18.0757 5.71933 18.4525 5.93752 18.6501C6.09026 18.7908 6.55517 19.1744 6.60552 19.2012C6.62063 19.2096 6.68944 19.2598 6.75826 19.3117C6.82707 19.3636 6.95295 19.4507 7.03519 19.5027C7.11911 19.5563 7.20639 19.6149 7.23156 19.6316C7.25674 19.6484 7.39604 19.7304 7.54206 19.8142C7.86935 20.0018 8.2067 20.1676 8.54574 20.3083C8.62966 20.3434 8.72029 20.382 8.7505 20.3937C8.77903 20.4071 8.81428 20.4171 8.82771 20.4171C8.84281 20.4171 8.85792 20.4238 8.86295 20.4322C8.86799 20.4406 8.89316 20.4523 8.91834 20.4573C8.94519 20.464 9.01401 20.4875 9.07443 20.5093C9.28759 20.5863 9.68368 20.6985 10.0143 20.7772C10.1771 20.8158 10.5044 20.8727 10.7276 20.9029C10.8015 20.9129 10.9005 20.928 10.9492 20.9364C10.9979 20.9447 11.253 20.9648 11.5165 20.9799C11.9663 21.0067 12.0234 21.0067 12.4732 20.9799C12.7367 20.9648 12.9918 20.9447 13.0405 20.9364C13.0891 20.928 13.1882 20.9129 13.262 20.9029C13.3845 20.8878 13.5305 20.8627 13.7739 20.8208C13.8243 20.8107 13.8964 20.7957 13.9334 20.7873C13.9703 20.7772 14.0693 20.7538 14.1516 20.7354C14.2355 20.7153 14.3261 20.6935 14.353 20.6851C14.3815 20.6767 14.4604 20.6533 14.5292 20.6332C14.7726 20.5645 15.271 20.392 15.3936 20.3334C15.412 20.325 15.4607 20.3032 15.5027 20.2865C15.7057 20.2011 15.7829 20.1642 16.0297 20.0436C16.3368 19.8912 16.6372 19.7187 16.7413 19.6316C16.9259 19.4775 17.0636 19.1777 17.0636 18.9265C17.0636 18.816 17.0266 18.6367 16.988 18.5647C16.9746 18.5379 16.9628 18.5095 16.9628 18.5028C16.9628 18.4827 16.8638 18.342 16.8051 18.2766C16.7329 18.1979 16.5433 18.0757 16.4358 18.0371C16.3116 17.9936 16.0901 17.9785 15.9474 18.0036C15.8199 18.0254 15.7141 18.0723 15.511 18.1912C15.3785 18.2683 14.927 18.4944 14.8128 18.5396C14.7826 18.5513 14.734 18.5714 14.7054 18.5831C14.4285 18.7021 13.9266 18.8612 13.6061 18.9332C13.0136 19.0672 12.6762 19.1024 11.9948 19.1024C11.3621 19.1024 11.1137 19.0789 10.5598 18.97C10.2762 18.9148 9.70215 18.7523 9.56955 18.692C9.55109 18.682 9.48731 18.6568 9.42689 18.6351C9.11303 18.5178 8.65316 18.2951 8.34433 18.1092C8.11439 17.9701 7.51857 17.5497 7.46318 17.4861C7.45814 17.4811 7.37255 17.404 7.27016 17.3169C7.08218 17.1528 6.80357 16.8731 6.6458 16.6905C6.59881 16.6353 6.54342 16.5716 6.52328 16.5482C6.50314 16.5247 6.45111 16.4611 6.40915 16.4058C6.36719 16.3505 6.32691 16.302 6.32188 16.2969C6.31181 16.2886 6.22117 16.1596 6.08354 15.962C5.85528 15.6303 5.51457 14.9939 5.40715 14.6974C5.39037 14.6505 5.37023 14.6053 5.36519 14.5969C5.35848 14.5869 5.33666 14.5316 5.31652 14.4713C5.29638 14.411 5.27456 14.3474 5.26617 14.3289C5.2326 14.2519 5.18896 14.1146 5.13861 13.927C4.9456 13.1984 4.88182 12.7227 4.88014 12.0092C4.87846 11.2522 4.96406 10.6693 5.18729 9.90726C5.21582 9.80676 5.3417 9.45169 5.36519 9.40479C5.37359 9.38637 5.40044 9.3244 5.42394 9.26745C5.58842 8.8638 5.86535 8.35129 6.09529 8.02301C6.25642 7.79188 6.31348 7.71316 6.32188 7.70479C6.32691 7.69976 6.37223 7.64282 6.42258 7.57917C6.47293 7.51385 6.5216 7.45355 6.53167 7.4435C6.54007 7.43346 6.59042 7.37651 6.64077 7.31789C6.90763 7.00804 7.32219 6.62114 7.68473 6.34311C7.87103 6.20074 8.29062 5.92104 8.44504 5.83729C8.51049 5.80212 8.57091 5.76862 8.57931 5.76192C8.6263 5.72675 9.21206 5.4437 9.23556 5.4437C9.24059 5.4437 9.27584 5.4303 9.31444 5.41187C9.35304 5.39512 9.45375 5.3566 9.53599 5.32645C9.61991 5.29631 9.70215 5.26616 9.72061 5.25778C9.75082 5.24438 9.89684 5.20084 10.1402 5.13217C10.4272 5.0501 10.825 4.97473 11.2144 4.92951C11.5652 4.88763 12.4631 4.88763 12.834 4.92951C13.361 4.98813 13.5591 5.02665 14.1683 5.18409C14.3261 5.22429 14.7994 5.39177 14.9572 5.46044C15.5631 5.72675 15.9726 5.96458 16.4409 6.31966C16.5382 6.39335 16.6272 6.46202 16.6372 6.47207C16.649 6.48212 16.6977 6.52399 16.7463 6.56419C16.9024 6.69148 17.3841 7.18557 17.5251 7.36144C17.599 7.45355 17.6678 7.5373 17.6778 7.54902C17.703 7.57415 17.9145 7.87897 18.0135 8.03139C18.2418 8.37976 18.5053 8.91238 18.658 9.3378C18.6882 9.41987 18.7184 9.50361 18.7252 9.52203C18.7487 9.57898 18.7772 9.66942 18.8007 9.75652C18.8124 9.80174 18.8359 9.88213 18.8494 9.93238C18.9635 10.3226 19.0558 10.8619 19.0961 11.3812C19.1229 11.7161 19.1061 12.5234 19.0692 12.7378C19.0088 13.0946 18.9232 13.3877 18.8124 13.6171C18.7721 13.6992 18.6396 13.9186 18.601 13.9688C18.5137 14.0777 18.3039 14.2686 18.2116 14.3222C17.7685 14.5852 17.1273 14.612 16.6977 14.3842C16.2395 14.1414 15.986 13.6322 15.9222 12.8299C15.9139 12.7093 15.9071 11.7212 15.9055 10.5119C15.9055 8.18715 15.9105 8.31947 15.7997 8.09001C15.7645 8.01966 15.7057 7.94094 15.6285 7.8639C15.172 7.40498 14.3983 7.53562 14.1197 8.11848C14.0693 8.22233 14.0257 8.39986 14.0257 8.49868C14.0257 8.6109 14.0039 8.61592 13.8763 8.53888C13.6866 8.42164 13.3191 8.24242 13.1445 8.18213C13.0992 8.16705 13.0455 8.14696 13.027 8.14026C13.0086 8.13188 12.9364 8.11011 12.8676 8.09001C12.7988 8.07159 12.7149 8.04814 12.683 8.03809C12.6259 8.02301 12.542 8.00459 12.3725 7.97444C11.9008 7.88902 11.3856 7.89237 10.8703 7.98449C10.1872 8.10676 9.49738 8.42499 8.95862 8.86883C8.8596 8.94922 8.58602 9.20046 8.57427 9.22055C8.56756 9.23228 8.52392 9.28253 8.4786 9.33277C8.19663 9.62923 7.85592 10.1752 7.69983 10.5772C7.67969 10.6325 7.65619 10.6928 7.6478 10.7112C7.58067 10.8787 7.52864 11.0763 7.44807 11.4699C7.39436 11.7346 7.38429 12.4665 7.42961 12.7378C7.48668 13.0594 7.51857 13.2118 7.55717 13.3357C7.61927 13.5384 7.6864 13.7277 7.69983 13.7427C7.70822 13.7511 7.71494 13.7679 7.71494 13.7796C7.71494 13.7913 7.7569 13.8851 7.80725 13.9889C8.10097 14.5936 8.47021 15.0575 9.01569 15.5064C9.09961 15.5751 9.42186 15.7911 9.54438 15.8598C9.91698 16.0708 10.3601 16.24 10.7528 16.3187C10.8216 16.3321 10.9207 16.3522 10.971 16.3639C11.1623 16.4024 11.6239 16.4209 11.9394 16.4008C12.1039 16.3907 12.2801 16.374 12.3305 16.3639C12.6444 16.2986 12.7467 16.2752 12.7837 16.2634C12.8072 16.2551 12.8827 16.2333 12.9515 16.2132C13.0203 16.1914 13.0841 16.1696 13.0942 16.1613C13.1026 16.1529 13.1193 16.1462 13.1328 16.1462C13.1445 16.1462 13.1898 16.1311 13.2335 16.111C13.2771 16.0926 13.3392 16.0658 13.3711 16.0507C13.8142 15.8548 14.222 15.5801 14.603 15.22C14.65 15.1764 14.7037 15.1413 14.7222 15.1413C14.744 15.1413 14.7793 15.1748 14.8229 15.2351C14.927 15.3824 15.2073 15.6605 15.3516 15.761C15.3835 15.7844 15.4137 15.8062 15.4187 15.8112C15.4523 15.8481 15.6688 15.9754 15.8333 16.0541C15.9424 16.106 16.0431 16.1546 16.0565 16.1613C16.0767 16.1713 16.3016 16.2433 16.5349 16.3137C16.5634 16.3221 16.6305 16.3371 16.6859 16.3455C16.7413 16.3556 16.8303 16.3706 16.8856 16.379C17.1676 16.4276 17.7584 16.4158 18.0538 16.3556C18.3274 16.3003 18.5506 16.2383 18.5825 16.2115C18.5909 16.2031 18.6077 16.1964 18.6211 16.1964C18.6765 16.1964 19.0944 15.9904 19.2622 15.8816C19.947 15.4377 20.4304 14.7912 20.7157 13.9437C20.7896 13.7226 20.8802 13.3625 20.9071 13.1817C20.9154 13.1214 20.9306 13.0242 20.9389 12.9639C21.0195 12.4162 21.0212 11.5955 20.9389 10.8954C20.8819 10.3946 20.8064 9.99603 20.6754 9.49691C20.6167 9.27415 20.4388 8.72646 20.4186 8.70134C20.4103 8.69297 20.4035 8.67622 20.4035 8.66282C20.4035 8.64942 20.3935 8.61592 20.38 8.58745C20.3683 8.5573 20.3414 8.49198 20.3213 8.44173C20.3012 8.39149 20.2777 8.33454 20.2693 8.31612C20.2609 8.29769 20.2374 8.2441 20.2189 8.19888C20.1467 8.03474 19.9437 7.62774 19.8715 7.50715C19.8312 7.43848 19.7993 7.37986 19.7993 7.37483C19.7993 7.35809 19.5962 7.03483 19.4653 6.84222C18.9215 6.04163 18.2518 5.33985 17.4915 4.77709C17.3908 4.70172 17.3002 4.63473 17.2901 4.62635C17.2331 4.58448 16.8638 4.34665 16.7379 4.27128C16.4241 4.08369 15.892 3.81739 15.6285 3.71689C15.5832 3.69847 15.5295 3.6767 15.511 3.66832C15.4489 3.63817 15.2442 3.56448 14.9991 3.48408C14.6467 3.36852 14.6131 3.36014 14.3362 3.29147C13.9837 3.20605 13.9736 3.20438 13.7571 3.16586C13.4114 3.10556 13.3644 3.09886 13.2033 3.08211C13.116 3.07206 13.0321 3.06034 13.0186 3.05699C12.9867 3.04694 12.0284 2.99837 11.9361 3.00004C11.8992 3.00172 11.6961 3.01177 11.4846 3.02349ZM12.1677 9.84696C12.6561 9.9709 13.0019 10.1635 13.3308 10.4918C13.5238 10.6844 13.7689 11.0378 13.8176 11.1919C13.8226 11.2137 13.8343 11.2371 13.841 11.2472C13.8645 11.2773 13.9434 11.5302 13.9787 11.691C14.0307 11.9154 14.0307 12.3961 13.9804 12.6289C13.9418 12.8098 13.8763 13.0058 13.8041 13.1632C13.7555 13.2671 13.6161 13.5066 13.5809 13.5451C13.5725 13.5551 13.5457 13.5886 13.5222 13.6205C13.2872 13.932 12.9314 14.2 12.5235 14.3691C12.2818 14.4713 11.9344 14.5383 11.6508 14.5383C11.1523 14.5383 10.6437 14.3691 10.2443 14.0727C9.39836 13.4413 9.06772 12.3827 9.40507 11.3895C9.59977 10.8184 10.0278 10.331 10.5883 10.0429C10.7965 9.93573 11.0784 9.84696 11.3319 9.80844C11.3604 9.80509 11.5299 9.80341 11.7095 9.80676C11.9663 9.81179 12.0653 9.82016 12.1677 9.84696Z" fill="#DCDCDC"/>
<path d="M11.4846 3.02349C11.2731 3.03522 11.0432 3.05364 10.9727 3.06369C10.9022 3.07374 10.7931 3.09049 10.7276 3.09886C10.5195 3.12566 10.2208 3.17926 10.0731 3.21443C10.0361 3.2228 9.9388 3.24625 9.85488 3.26635C9.77264 3.28645 9.68201 3.3099 9.65347 3.3166C9.62662 3.32497 9.54606 3.34842 9.47724 3.36852C9.21374 3.44221 8.96869 3.52763 8.62127 3.6633C8.41315 3.74537 7.76361 4.05522 7.61423 4.14566C7.56388 4.17581 7.49507 4.21601 7.46318 4.23443C6.74315 4.64143 5.88885 5.33315 5.32324 5.97128C5.24267 6.0634 5.15204 6.16557 5.12351 6.19739C5.09497 6.22922 5.02952 6.30793 4.97917 6.37326C4.92881 6.4369 4.8835 6.49385 4.87846 6.49887C4.84825 6.52399 4.67034 6.77355 4.46894 7.07671C4.192 7.4904 3.91003 8.00962 3.72205 8.45848C3.67338 8.57405 3.62303 8.69129 3.6096 8.72144C3.59618 8.74991 3.5861 8.78006 3.5861 8.79011C3.5861 8.79848 3.57436 8.82863 3.56093 8.85376C3.5475 8.88055 3.53575 8.91405 3.53575 8.92745C3.53575 8.94252 3.52904 8.96095 3.52065 8.96932C3.50722 8.98607 3.44009 9.18371 3.39309 9.34617C3.38134 9.38804 3.35281 9.48519 3.32931 9.56391C3.28064 9.73307 3.24371 9.87711 3.20847 10.0496C3.19336 10.1183 3.1749 10.202 3.16651 10.2339C3.12455 10.3946 3.04734 10.9641 3.01545 11.356C2.98021 11.7814 3.00874 12.8132 3.0658 13.1565C3.0742 13.2118 3.09098 13.314 3.10105 13.3826C3.13294 13.6054 3.14805 13.6908 3.16483 13.7595C3.17322 13.7963 3.19336 13.8834 3.20847 13.9521C3.24539 14.1263 3.28064 14.2703 3.32931 14.4378C3.35281 14.5165 3.37631 14.602 3.3847 14.6304C3.3998 14.6924 3.49715 14.9872 3.51729 15.0324C3.52568 15.0508 3.54582 15.1027 3.56093 15.1496C3.57771 15.1949 3.59953 15.2552 3.61128 15.2836C3.89157 15.9603 4.1769 16.4996 4.53104 17.0255C4.65692 17.2114 4.85497 17.4827 4.87846 17.5028C4.8835 17.5079 4.92378 17.5581 4.96742 17.6151C5.01106 17.672 5.05637 17.729 5.06812 17.7407C5.07819 17.7524 5.13022 17.8127 5.18057 17.8713C5.35345 18.0757 5.71933 18.4525 5.93752 18.6501C6.09026 18.7908 6.55517 19.1744 6.60552 19.2012C6.62063 19.2096 6.68944 19.2598 6.75826 19.3117C6.82707 19.3636 6.95295 19.4507 7.03519 19.5027C7.11911 19.5563 7.20639 19.6149 7.23156 19.6316C7.25674 19.6484 7.39604 19.7304 7.54206 19.8142C7.86935 20.0018 8.2067 20.1676 8.54574 20.3083C8.62966 20.3434 8.72029 20.382 8.7505 20.3937C8.77903 20.4071 8.81428 20.4171 8.82771 20.4171C8.84281 20.4171 8.85792 20.4238 8.86295 20.4322C8.86799 20.4406 8.89316 20.4523 8.91834 20.4573C8.94519 20.464 9.01401 20.4875 9.07443 20.5093C9.28759 20.5863 9.68368 20.6985 10.0143 20.7772C10.1771 20.8158 10.5044 20.8727 10.7276 20.9029C10.8015 20.9129 10.9005 20.928 10.9492 20.9364C10.9979 20.9447 11.253 20.9648 11.5165 20.9799C11.9663 21.0067 12.0234 21.0067 12.4732 20.9799C12.7367 20.9648 12.9918 20.9447 13.0405 20.9364C13.0891 20.928 13.1882 20.9129 13.262 20.9029C13.3845 20.8878 13.5305 20.8627 13.7739 20.8208C13.8243 20.8107 13.8964 20.7957 13.9334 20.7873C13.9703 20.7772 14.0693 20.7538 14.1516 20.7354C14.2355 20.7153 14.3261 20.6935 14.353 20.6851C14.3815 20.6767 14.4604 20.6533 14.5292 20.6332C14.7726 20.5645 15.271 20.392 15.3936 20.3334C15.412 20.325 15.4607 20.3032 15.5027 20.2865C15.7057 20.2011 15.7829 20.1642 16.0297 20.0436C16.3368 19.8912 16.6372 19.7187 16.7413 19.6316C16.9259 19.4775 17.0636 19.1777 17.0636 18.9265C17.0636 18.816 17.0266 18.6367 16.988 18.5647C16.9746 18.5379 16.9628 18.5095 16.9628 18.5028C16.9628 18.4827 16.8638 18.342 16.8051 18.2766C16.7329 18.1979 16.5433 18.0757 16.4358 18.0371C16.3116 17.9936 16.0901 17.9785 15.9474 18.0036C15.8199 18.0254 15.7141 18.0723 15.511 18.1912C15.3785 18.2683 14.927 18.4944 14.8128 18.5396C14.7826 18.5513 14.734 18.5714 14.7054 18.5831C14.4285 18.7021 13.9266 18.8612 13.6061 18.9332C13.0136 19.0672 12.6762 19.1024 11.9948 19.1024C11.3621 19.1024 11.1137 19.0789 10.5598 18.97C10.2762 18.9148 9.70215 18.7523 9.56955 18.692C9.55109 18.682 9.48731 18.6568 9.42689 18.6351C9.11303 18.5178 8.65316 18.2951 8.34433 18.1092C8.11439 17.9701 7.51857 17.5497 7.46318 17.4861C7.45814 17.4811 7.37255 17.404 7.27016 17.3169C7.08218 17.1528 6.80357 16.8731 6.6458 16.6905C6.59881 16.6353 6.54342 16.5716 6.52328 16.5482C6.50314 16.5247 6.45111 16.4611 6.40915 16.4058C6.36719 16.3505 6.32691 16.302 6.32188 16.2969C6.31181 16.2886 6.22117 16.1596 6.08354 15.962C5.85528 15.6303 5.51457 14.9939 5.40715 14.6974C5.39037 14.6505 5.37023 14.6053 5.36519 14.5969C5.35848 14.5869 5.33666 14.5316 5.31652 14.4713C5.29638 14.411 5.27456 14.3474 5.26617 14.3289C5.2326 14.2519 5.18896 14.1146 5.13861 13.927C4.9456 13.1984 4.88182 12.7227 4.88014 12.0092C4.87846 11.2522 4.96406 10.6693 5.18729 9.90726C5.21582 9.80676 5.3417 9.45169 5.36519 9.40479C5.37359 9.38637 5.40044 9.3244 5.42394 9.26745C5.58842 8.8638 5.86535 8.35129 6.09529 8.02301C6.25642 7.79188 6.31348 7.71316 6.32188 7.70479C6.32691 7.69976 6.37223 7.64282 6.42258 7.57917C6.47293 7.51385 6.5216 7.45355 6.53167 7.4435C6.54007 7.43346 6.59042 7.37651 6.64077 7.31789C6.90763 7.00804 7.32219 6.62114 7.68473 6.34311C7.87103 6.20074 8.29062 5.92104 8.44504 5.83729C8.51049 5.80212 8.57091 5.76862 8.57931 5.76192C8.6263 5.72675 9.21206 5.4437 9.23556 5.4437C9.24059 5.4437 9.27584 5.4303 9.31444 5.41187C9.35304 5.39512 9.45375 5.3566 9.53599 5.32645C9.61991 5.29631 9.70215 5.26616 9.72061 5.25778C9.75082 5.24438 9.89684 5.20084 10.1402 5.13217C10.4272 5.0501 10.825 4.97473 11.2144 4.92951C11.5652 4.88763 12.4631 4.88763 12.834 4.92951C13.361 4.98813 13.5591 5.02665 14.1683 5.18409C14.3261 5.22429 14.7994 5.39177 14.9572 5.46044C15.5631 5.72675 15.9726 5.96458 16.4409 6.31966C16.5382 6.39335 16.6272 6.46202 16.6372 6.47207C16.649 6.48212 16.6977 6.52399 16.7463 6.56419C16.9024 6.69148 17.3841 7.18557 17.5251 7.36144C17.599 7.45355 17.6678 7.5373 17.6778 7.54902C17.703 7.57415 17.9145 7.87897 18.0135 8.03139C18.2418 8.37976 18.5053 8.91238 18.658 9.3378C18.6882 9.41987 18.7184 9.50361 18.7252 9.52203C18.7487 9.57898 18.7772 9.66942 18.8007 9.75652C18.8124 9.80174 18.8359 9.88213 18.8494 9.93238C18.9635 10.3226 19.0558 10.8619 19.0961 11.3812C19.1229 11.7161 19.1061 12.5234 19.0692 12.7378C19.0088 13.0946 18.9232 13.3877 18.8124 13.6171C18.7721 13.6992 18.6396 13.9186 18.601 13.9688C18.5137 14.0777 18.3039 14.2686 18.2116 14.3222C17.7685 14.5852 17.1273 14.612 16.6977 14.3842C16.2395 14.1414 15.986 13.6322 15.9222 12.8299C15.9139 12.7093 15.9071 11.7212 15.9055 10.5119C15.9055 8.18715 15.9105 8.31947 15.7997 8.09001C15.7645 8.01966 15.7057 7.94094 15.6285 7.8639C15.172 7.40498 14.3983 7.53562 14.1197 8.11848C14.0693 8.22233 14.0257 8.39986 14.0257 8.49868C14.0257 8.6109 14.0039 8.61592 13.8763 8.53888C13.6866 8.42164 13.3191 8.24242 13.1445 8.18213C13.0992 8.16705 13.0455 8.14696 13.027 8.14026C13.0086 8.13188 12.9364 8.11011 12.8676 8.09001C12.7988 8.07159 12.7149 8.04814 12.683 8.03809C12.6259 8.02301 12.542 8.00459 12.3725 7.97444C11.9008 7.88902 11.3856 7.89237 10.8703 7.98449C10.1872 8.10676 9.49738 8.42499 8.95862 8.86883C8.8596 8.94922 8.58602 9.20046 8.57427 9.22055C8.56756 9.23228 8.52392 9.28253 8.4786 9.33277C8.19663 9.62923 7.85592 10.1752 7.69983 10.5772C7.67969 10.6325 7.65619 10.6928 7.6478 10.7112C7.58067 10.8787 7.52864 11.0763 7.44807 11.4699C7.39436 11.7346 7.38429 12.4665 7.42961 12.7378C7.48668 13.0594 7.51857 13.2118 7.55717 13.3357C7.61927 13.5384 7.6864 13.7277 7.69983 13.7427C7.70822 13.7511 7.71494 13.7679 7.71494 13.7796C7.71494 13.7913 7.7569 13.8851 7.80725 13.9889C8.10097 14.5936 8.47021 15.0575 9.01569 15.5064C9.09961 15.5751 9.42186 15.7911 9.54438 15.8598C9.91698 16.0708 10.3601 16.24 10.7528 16.3187C10.8216 16.3321 10.9207 16.3522 10.971 16.3639C11.1623 16.4024 11.6239 16.4209 11.9394 16.4008C12.1039 16.3907 12.2801 16.374 12.3305 16.3639C12.6444 16.2986 12.7467 16.2752 12.7837 16.2634C12.8072 16.2551 12.8827 16.2333 12.9515 16.2132C13.0203 16.1914 13.0841 16.1696 13.0942 16.1613C13.1026 16.1529 13.1193 16.1462 13.1328 16.1462C13.1445 16.1462 13.1898 16.1311 13.2335 16.111C13.2771 16.0926 13.3392 16.0658 13.3711 16.0507C13.8142 15.8548 14.222 15.5801 14.603 15.22C14.65 15.1764 14.7037 15.1413 14.7222 15.1413C14.744 15.1413 14.7793 15.1748 14.8229 15.2351C14.927 15.3824 15.2073 15.6605 15.3516 15.761C15.3835 15.7844 15.4137 15.8062 15.4187 15.8112C15.4523 15.8481 15.6688 15.9754 15.8333 16.0541C15.9424 16.106 16.0431 16.1546 16.0565 16.1613C16.0767 16.1713 16.3016 16.2433 16.5349 16.3137C16.5634 16.3221 16.6305 16.3371 16.6859 16.3455C16.7413 16.3556 16.8303 16.3706 16.8856 16.379C17.1676 16.4276 17.7584 16.4158 18.0538 16.3556C18.3274 16.3003 18.5506 16.2383 18.5825 16.2115C18.5909 16.2031 18.6077 16.1964 18.6211 16.1964C18.6765 16.1964 19.0944 15.9904 19.2622 15.8816C19.947 15.4377 20.4304 14.7912 20.7157 13.9437C20.7896 13.7226 20.8802 13.3625 20.9071 13.1817C20.9154 13.1214 20.9306 13.0242 20.9389 12.9639C21.0195 12.4162 21.0212 11.5955 20.9389 10.8954C20.8819 10.3946 20.8064 9.99603 20.6754 9.49691C20.6167 9.27415 20.4388 8.72646 20.4186 8.70134C20.4103 8.69297 20.4035 8.67622 20.4035 8.66282C20.4035 8.64942 20.3935 8.61592 20.38 8.58745C20.3683 8.5573 20.3414 8.49198 20.3213 8.44173C20.3012 8.39149 20.2777 8.33454 20.2693 8.31612C20.2609 8.29769 20.2374 8.2441 20.2189 8.19888C20.1467 8.03474 19.9437 7.62774 19.8715 7.50715C19.8312 7.43848 19.7993 7.37986 19.7993 7.37483C19.7993 7.35809 19.5962 7.03483 19.4653 6.84222C18.9215 6.04163 18.2518 5.33985 17.4915 4.77709C17.3908 4.70172 17.3002 4.63473 17.2901 4.62635C17.2331 4.58448 16.8638 4.34665 16.7379 4.27128C16.4241 4.08369 15.892 3.81739 15.6285 3.71689C15.5832 3.69847 15.5295 3.6767 15.511 3.66832C15.4489 3.63817 15.2442 3.56448 14.9991 3.48408C14.6467 3.36852 14.6131 3.36014 14.3362 3.29147C13.9837 3.20605 13.9736 3.20438 13.7571 3.16586C13.4114 3.10556 13.3644 3.09886 13.2033 3.08211C13.116 3.07206 13.0321 3.06034 13.0186 3.05699C12.9867 3.04694 12.0284 2.99837 11.9361 3.00004C11.8992 3.00172 11.6961 3.01177 11.4846 3.02349ZM12.1677 9.84696C12.6561 9.9709 13.0019 10.1635 13.3308 10.4918C13.5238 10.6844 13.7689 11.0378 13.8176 11.1919C13.8226 11.2137 13.8343 11.2371 13.841 11.2472C13.8645 11.2773 13.9434 11.5302 13.9787 11.691C14.0307 11.9154 14.0307 12.3961 13.9804 12.6289C13.9418 12.8098 13.8763 13.0058 13.8041 13.1632C13.7555 13.2671 13.6161 13.5066 13.5809 13.5451C13.5725 13.5551 13.5457 13.5886 13.5222 13.6205C13.2872 13.932 12.9314 14.2 12.5235 14.3691C12.2818 14.4713 11.9344 14.5383 11.6508 14.5383C11.1523 14.5383 10.6437 14.3691 10.2443 14.0727C9.39836 13.4413 9.06772 12.3827 9.40507 11.3895C9.59977 10.8184 10.0278 10.331 10.5883 10.0429C10.7965 9.93573 11.0784 9.84696 11.3319 9.80844C11.3604 9.80509 11.5299 9.80341 11.7095 9.80676C11.9663 9.81179 12.0653 9.82016 12.1677 9.84696Z" stroke="#DCDCDC" stroke-width="0.5" mask="url(#path-1-outside-1_3127_43252)"/>
</svg>
