<svg width="24" height="24" viewBox="0 0 24 24" fill="none" xmlns="http://www.w3.org/2000/svg">
<path d="M19.0056 7.41943L20.8744 5.55059C21.0419 5.38318 21.0419 5.11175 20.8744 4.94433L19.0557 3.12556C18.8883 2.95815 18.6168 2.95815 18.4494 3.12556L16.5806 4.9944C16.7941 5.53858 17.1187 6.03862 17.54 6.45998C17.9614 6.88133 18.4614 7.20592 19.0056 7.41943Z" fill="#DCDCDC"/>
<path d="M15.9293 5.64453L8.73221 12.8416C8.67727 12.8965 8.63829 12.9653 8.61945 13.0407L8.01319 15.4657C7.9347 15.7797 8.21909 16.0641 8.53305 15.9856L10.9581 15.3794C11.0335 15.3605 11.1023 15.3215 11.1572 15.2666L18.3543 8.06956C17.8321 7.82015 17.3508 7.48211 16.9338 7.06507C16.5167 6.64804 16.1787 6.16677 15.9293 5.64453Z" fill="#DCDCDC"/>
<path fill-rule="evenodd" clip-rule="evenodd" d="M4.5 4.5H12V3H4.25C3.55965 3 3 3.55964 3 4.25V19.75C3 20.4404 3.55964 21 4.25 21H19.75C20.4404 21 21 20.4404 21 19.75V12H19.5V19.5H4.5V4.5Z" fill="#DCDCDC"/>
</svg>
