<svg width="24" height="24" viewBox="0 0 24 24" fill="none" xmlns="http://www.w3.org/2000/svg">
<path d="M12 2C17.5228 2 22 6.47715 22 12C22 17.5228 17.5228 22 12 22C6.47715 22 2 17.5228 2 12C2 6.47715 6.47715 2 12 2ZM16.416 14.126C16.0714 13.8963 15.6057 13.9894 15.376 14.334C13.6728 16.8887 10.3272 16.8887 8.62402 14.334C8.39424 13.9894 7.9286 13.8962 7.58398 14.126C7.23938 14.3557 7.14629 14.8214 7.37598 15.166C9.67284 18.6113 14.3272 18.6113 16.624 15.166C16.8538 14.8214 16.7607 14.3557 16.416 14.126ZM9.24316 8.25C8.69463 8.25012 8.25 8.69779 8.25 9.25C8.25 9.80221 8.69463 10.2499 9.24316 10.25H9.25684C9.80537 10.2499 10.25 9.80221 10.25 9.25C10.25 8.69779 9.80537 8.25012 9.25684 8.25H9.24316ZM15.2432 8.25C14.6946 8.25012 14.25 8.69779 14.25 9.25C14.25 9.80221 14.6946 10.2499 15.2432 10.25H15.2568C15.8054 10.2499 16.25 9.80221 16.25 9.25C16.25 8.69779 15.8054 8.25012 15.2568 8.25H15.2432Z" fill="#DCDCDC"/>
</svg>
