<svg width="24" height="24" viewBox="0 0 24 24" fill="none" xmlns="http://www.w3.org/2000/svg">
<path d="M19 7.5C19 9.98528 16.9853 12 14.5 12C12.0147 12 10 9.98528 10 7.5C10 5.01472 12.0147 3 14.5 3C16.9853 3 19 5.01472 19 7.5Z" fill="#C8C8C8"/>
<path d="M7.5 6C8.09977 6 8.64928 6.21235 9.08008 6.56445C9.02796 6.86855 9 7.18103 9 7.5C9 8.36678 9.20046 9.18675 9.55762 9.91602C9.10671 10.57 8.35442 11 7.5 11C6.11929 11 5 9.88071 5 8.5C5 7.11929 6.11929 6 7.5 6Z" fill="#C8C8C8"/>
<path d="M7 20.5748C7 16.4326 10.3579 13 14.5 13C18.6421 13 22 16.4326 22 20.5748C22 20.8073 21.8115 21 21.5789 21H7.42105C7.18851 21 7 20.8073 7 20.5748Z" fill="#C8C8C8"/>
<path d="M7.5 12C8.65196 12 9.7209 12.3546 10.6045 12.96C8.61206 14.0053 7.0824 15.8225 6.39648 18H2.31543C2.14131 17.9998 2.00019 17.8587 2 17.6846V17.5C2 14.4624 4.46243 12 7.5 12Z" fill="#C8C8C8"/>
</svg>
