<svg width="24" height="24" viewBox="0 0 24 24" fill="none" xmlns="http://www.w3.org/2000/svg">
<path d="M22.002 3.5127H21.127V6.85547H19.4561V18.2812L12.0059 22.001L4.55469 18.2812V6.85547H2.88281V3.5127H2V2H22.002V3.5127ZM10.9717 13.2012L8.69531 13.5352L10.3398 15.1807L9.95117 17.5283L12.0049 16.4248L14.0586 17.5283L13.6699 15.1807L15.3154 13.5352L13.0381 13.2012L12.0049 11.0312L10.9717 13.2012ZM12.0195 14.5801L12.1162 14.5947L12.0508 14.6602L12.0635 14.7393L12.0049 14.708L11.9463 14.7393L11.96 14.6602L11.8936 14.5947L11.9912 14.5801L12.0049 14.5508L12.0195 14.5801ZM11.9863 8.69531C10.7083 8.7151 9.45159 9.02665 8.3125 9.60645L8.99902 10.9551C9.92908 10.4817 10.9547 10.2259 11.998 10.208C13.0416 10.2259 14.0678 10.4816 14.998 10.9551L15.6846 9.60645C14.5453 9.02654 13.288 8.71503 12.0098 8.69531H11.9863ZM4.39551 5.34277H19.6143V3.5127H4.39551V5.34277Z" fill="#C8C8C8"/>
</svg>
