<svg width="24" height="24" viewBox="0 0 24 24" fill="none" xmlns="http://www.w3.org/2000/svg">
<path d="M9.34497 8.31457L11.5755 4.68995C11.8394 4.26118 12.3068 4 12.8102 4C13.6988 4 14.3783 4.79201 14.2431 5.67022L14.0001 7.25C13.7372 8.95887 15.0594 10.5 16.7883 10.5H17.4781C20.0151 10.5 21.6652 13.1699 20.5306 15.439L19.3821 17.7361C18.5351 19.43 16.8038 20.5 14.9099 20.5H12.0001C10.6522 20.5 9.46003 19.8333 8.73534 18.8117C8.7451 18.7091 8.75009 18.6051 8.75009 18.5V10.5C8.75009 10.169 8.70061 9.84955 8.60864 9.54866C8.78586 9.22312 9.02182 8.83968 9.34497 8.31457Z" fill="#00CD9B"/>
<path d="M7.25 18.5C7.25 19.4665 6.4665 20.25 5.5 20.25C4.5335 20.25 3.75 19.4665 3.75 18.5V10.5C3.75 9.5335 4.5335 8.75 5.5 8.75C6.4665 8.75 7.25 9.5335 7.25 10.5V18.5Z" fill="#00CD9B"/>
</svg>
