<svg width="24" height="24" viewBox="0 0 24 24" fill="none" xmlns="http://www.w3.org/2000/svg">
<path d="M11.991 11.3884C11.085 11.3882 10.2 11.6613 9.45168 12.1719C8.70332 12.6826 8.12637 13.407 7.7962 14.2507C7.46602 15.0944 7.39797 16.018 7.60094 16.901C7.80391 17.784 8.26846 18.5852 8.93391 19.2C9.59935 19.8148 10.4348 20.2146 11.331 20.3472C12.2272 20.4798 13.1426 20.339 13.9576 19.9433C14.7725 19.5475 15.4492 18.9151 15.8991 18.1288C16.3491 17.3424 16.5514 16.4386 16.4797 15.5355C16.3875 14.4074 15.875 13.3551 15.0437 12.587C14.2123 11.819 13.1228 11.3912 11.991 11.3884ZM13.3834 17.2844L12.2575 18.4103C12.1862 18.4799 12.0906 18.5188 11.991 18.5188C11.8914 18.5188 11.7958 18.4799 11.7245 18.4103L10.5986 17.2844C10.5636 17.2494 10.5359 17.2079 10.5169 17.1622C10.498 17.1164 10.4883 17.0674 10.4883 17.0179C10.4883 16.9685 10.498 16.9195 10.5169 16.8737C10.5359 16.828 10.5636 16.7865 10.5986 16.7515C10.6693 16.6808 10.7652 16.6411 10.8651 16.6411C10.9146 16.6411 10.9636 16.6509 11.0093 16.6698C11.055 16.6887 11.0966 16.7165 11.1316 16.7515L11.6157 17.2394V13.6402C11.6172 13.5417 11.6574 13.4477 11.7277 13.3786C11.7979 13.3094 11.8925 13.2707 11.991 13.2707C12.0896 13.2707 12.1842 13.3094 12.2544 13.3786C12.3246 13.4477 12.3648 13.5417 12.3663 13.6402V17.2394L12.8504 16.7515C12.9216 16.6831 13.0167 16.6453 13.1154 16.6463C13.2141 16.6472 13.3084 16.6869 13.3782 16.7566C13.448 16.8264 13.4876 16.9208 13.4886 17.0195C13.4896 17.1182 13.4518 17.2133 13.3834 17.2844ZM22.4996 11.212C22.4981 12.5582 21.9625 13.8489 21.0106 14.8008C20.0586 15.7528 18.768 16.2883 17.4217 16.2899H17.2266C17.2519 16.019 17.2519 15.7463 17.2266 15.4755C17.1171 14.0913 16.4641 12.8068 15.4102 11.9029C14.3562 10.9989 12.9872 10.5491 11.6026 10.6518C10.2179 10.7545 8.93027 11.4014 8.02123 12.4509C7.1122 13.5004 6.65576 14.8672 6.75174 16.2523L5.29552 16.2448C0.965452 16.1646 0.0287881 10.2117 4.11712 8.80622C4.47056 7.91127 5.1352 7.17398 5.98883 6.72993C6.84247 6.28588 7.82771 6.16492 8.7634 6.38929C9.01627 5.59279 9.51266 4.8957 10.1826 4.39622C10.8526 3.89674 11.6624 3.62005 12.498 3.60513C13.3335 3.59021 14.1527 3.8378 14.8401 4.31304C15.5275 4.78828 16.0484 5.4672 16.3296 6.25416C17.0709 6.09435 17.8386 6.10202 18.5766 6.27661C19.3146 6.45119 20.0044 6.78829 20.5956 7.26332C21.1867 7.73835 21.6645 8.33933 21.9939 9.02244C22.3233 9.70556 22.496 10.4536 22.4996 11.212Z" fill="white"/>
</svg>
