<svg width="24" height="24" viewBox="0 0 24 24" fill="none" xmlns="http://www.w3.org/2000/svg">
<path d="M14.8274 1C16.258 1 17.4181 2.1608 17.4182 3.59277C17.4182 4.16559 17.8821 4.62984 18.4544 4.62988H19.0647C20.7069 4.62988 22.1521 5.90598 22.0852 7.6543C21.9995 9.89575 21.5638 13.491 19.8196 16.6729C19.4059 17.4276 18.8711 18.1711 18.2864 18.874L17.9817 19.2314C16.9998 20.3671 16.1812 21.3145 15.3011 21.96C14.3557 22.6532 13.3464 22.998 12.0061 22.999L12.0071 23C12.0058 23 12.0045 22.999 12.0032 22.999L12.0003 23V22.999C10.6606 22.9978 9.65145 22.653 8.70633 21.96C7.82622 21.3145 7.00755 20.3671 6.02567 19.2314L5.72098 18.874C5.13629 18.1711 4.60153 17.4276 4.18778 16.6729C2.44356 13.491 2.00794 9.89575 1.92215 7.6543C1.85528 5.90598 3.30047 4.62988 4.94266 4.62988H5.55301C6.12526 4.62985 6.58915 4.16559 6.58915 3.59277C6.58928 2.1608 7.74935 1 9.17997 1H14.8274ZM10.2561 11.707C8.6568 11.7073 7.36071 13.0041 7.36063 14.6035C7.36063 16.203 8.65676 17.4997 10.2561 17.5H13.9153C15.5148 17.4999 16.8118 16.2031 16.8118 14.6035C16.8117 13.004 15.5148 11.7071 13.9153 11.707H10.2561ZM12.0862 5C10.4866 5 9.18973 6.29688 9.18973 7.89648C9.18981 9.49602 10.4867 10.793 12.0862 10.793C13.6856 10.7928 14.9826 9.49591 14.9827 7.89648C14.9827 6.29699 13.6857 5.00018 12.0862 5Z" fill="white"/>
</svg>
