<svg width="24" height="24" viewBox="0 0 24 24" fill="none" xmlns="http://www.w3.org/2000/svg">
<path d="M16 9H15.25C15.25 10.7949 13.7949 12.25 12 12.25V13V13.75C14.6234 13.75 16.75 11.6234 16.75 9H16ZM12 13V12.25C10.2051 12.25 8.75 10.7949 8.75 9H8H7.25C7.25 11.6234 9.37665 13.75 12 13.75V13ZM8 9H8.75C8.75 7.20507 10.2051 5.75 12 5.75V5V4.25C9.37665 4.25 7.25 6.37665 7.25 9H8ZM12 5V5.75C13.7949 5.75 15.25 7.20507 15.25 9H16H16.75C16.75 6.37665 14.6234 4.25 12 4.25V5ZM9 16V16.75H15V16V15.25H9V16ZM2 12H2.75C2.75 6.89137 6.89137 2.75 12 2.75V2V1.25C6.06294 1.25 1.25 6.06294 1.25 12H2ZM12 2V2.75C17.1086 2.75 21.25 6.89137 21.25 12H22H22.75C22.75 6.06294 17.9371 1.25 12 1.25V2ZM22 12H21.25C21.25 14.6233 20.159 16.9905 18.4039 18.6748L18.9232 19.2159L19.4425 19.7571C21.4801 17.8016 22.75 15.0485 22.75 12H22ZM18.9232 19.2159L18.4039 18.6748C16.7412 20.2705 14.4858 21.25 12 21.25V22V22.75C14.8882 22.75 17.5117 21.61 19.4425 19.7571L18.9232 19.2159ZM15 16V16.75C16.576 16.75 17.8915 17.8726 18.1876 19.3621L18.9232 19.2159L19.6588 19.0697C19.226 16.8918 17.3055 15.25 15 15.25V16ZM12 22V21.25C9.51425 21.25 7.25884 20.2705 5.59612 18.6748L5.07681 19.2159L4.55751 19.7571C6.48833 21.61 9.11182 22.75 12 22.75V22ZM5.07681 19.2159L5.59612 18.6748C3.84103 16.9905 2.75 14.6233 2.75 12H2H1.25C1.25 15.0485 2.51989 17.8016 4.55751 19.7571L5.07681 19.2159ZM9 16V15.25C6.69445 15.25 4.77403 16.8918 4.3412 19.0697L5.07681 19.2159L5.81243 19.3621C6.10846 17.8726 7.42396 16.75 9 16.75V16Z" fill="white"/>
<path d="M14.9994 16H8.99936C7.05857 16 5.44061 17.3822 5.07617 19.2159C6.87294 20.9403 9.31239 22 11.9994 22C14.6863 22 17.1258 20.9403 18.9225 19.2159C18.5581 17.3822 16.9402 16 14.9994 16Z" fill="white"/>
<path d="M18.9225 19.2159L19.4419 19.7571L19.7382 19.4726L19.6582 19.0697L18.9225 19.2159ZM5.07617 19.2159L4.34056 19.0697L4.26049 19.4726L4.55686 19.7571L5.07617 19.2159ZM8.99936 16V16.75H14.9994V16V15.25H8.99936V16ZM18.9225 19.2159L18.4032 18.6748C16.7405 20.2705 14.4851 21.25 11.9994 21.25V22V22.75C14.8875 22.75 17.511 21.61 19.4419 19.7571L18.9225 19.2159ZM14.9994 16V16.75C16.5754 16.75 17.8909 17.8726 18.1869 19.3621L18.9225 19.2159L19.6582 19.0697C19.2253 16.8918 17.3049 15.25 14.9994 15.25V16ZM11.9994 22V21.25C9.51361 21.25 7.2582 20.2705 5.59548 18.6748L5.07617 19.2159L4.55686 19.7571C6.48769 21.61 9.11118 22.75 11.9994 22.75V22ZM8.99936 16V15.25C6.69381 15.25 4.77339 16.8918 4.34056 19.0697L5.07617 19.2159L5.81179 19.3621C6.10782 17.8726 7.42332 16.75 8.99936 16.75V16Z" fill="white"/>
<path d="M16 9C16 11.2091 14.2091 13 12 13C9.79086 13 8 11.2091 8 9C8 6.79086 9.79086 5 12 5C14.2091 5 16 6.79086 16 9Z" fill="white"/>
<path d="M16 9H15.25C15.25 10.7949 13.7949 12.25 12 12.25V13V13.75C14.6234 13.75 16.75 11.6234 16.75 9H16ZM12 13V12.25C10.2051 12.25 8.75 10.7949 8.75 9H8H7.25C7.25 11.6234 9.37665 13.75 12 13.75V13ZM8 9H8.75C8.75 7.20507 10.2051 5.75 12 5.75V5V4.25C9.37665 4.25 7.25 6.37665 7.25 9H8ZM12 5V5.75C13.7949 5.75 15.25 7.20507 15.25 9H16H16.75C16.75 6.37665 14.6234 4.25 12 4.25V5Z" fill="white"/>
</svg>
