<svg width="24" height="24" viewBox="0 0 24 24" fill="none" xmlns="http://www.w3.org/2000/svg">
<path d="M10.4775 5.51852C11.6074 4.9646 12.8618 4.80949 14.0762 5.08005C15.2887 5.35023 16.3883 6.02848 17.2441 7.0068C17.5164 7.31856 17.4844 7.79183 17.1729 8.06442C16.8611 8.33714 16.387 8.30585 16.1143 7.99411C15.4512 7.23621 14.6262 6.73917 13.75 6.54391C12.8756 6.34911 11.9692 6.45817 11.1387 6.8652C10.3055 7.27364 9.5747 7.97003 9.05371 8.88473C8.95019 9.06651 8.85876 9.25612 8.77441 9.45016H12.8994L12.9756 9.45407C13.3539 9.49234 13.6494 9.81173 13.6494 10.2002C13.6494 10.5886 13.3539 10.908 12.9756 10.9463L12.8994 10.9502H8.33789C8.28218 11.2941 8.25001 11.6451 8.25 12C8.25 12.3548 8.28222 12.7058 8.33789 13.0498H12.8994C13.3134 13.0499 13.6492 13.3858 13.6494 13.7998C13.6494 14.2139 13.3135 14.5497 12.8994 14.5498H8.77344C8.85791 14.7442 8.94998 14.9341 9.05371 15.1162C9.57469 16.0308 10.3056 16.7263 11.1387 17.1347C11.9693 17.5418 12.8756 17.6508 13.75 17.456C14.6261 17.2608 15.4512 16.7645 16.1143 16.0068C16.3869 15.6951 16.8611 15.663 17.1729 15.9355C17.4846 16.2082 17.5167 16.6824 17.2441 16.9941C16.3883 17.9725 15.2887 18.6507 14.0762 18.9209C12.8618 19.1914 11.6074 19.0353 10.4775 18.4814C9.35039 17.9287 8.40689 17.0098 7.75098 15.8584C7.51519 15.4444 7.32087 15.0053 7.16699 14.5498H5.69922C5.28501 14.5498 4.94923 14.214 4.94922 13.7998C4.94943 13.3857 5.28514 13.0498 5.69922 13.0498H6.81934C6.77389 12.7032 6.75 12.3524 6.75 12C6.75001 11.6475 6.77387 11.2967 6.81934 10.9502H5.69922C5.28501 10.9502 4.94923 10.6144 4.94922 10.2002C4.94922 9.78595 5.28501 9.45016 5.69922 9.45016H7.16699C7.32084 8.99501 7.51532 8.55631 7.75098 8.14255C8.40692 6.99089 9.35022 6.07125 10.4775 5.51852Z" fill="white"/>
</svg>
