<svg width="24" height="24" viewBox="0 0 24 24" fill="none" xmlns="http://www.w3.org/2000/svg">
<path d="M22.8694 5.11127V4.86101C22.8694 4.63143 22.6833 4.44531 22.4537 4.44531H3.66011C3.33561 4.44531 3.04928 4.65104 2.94748 4.95857L2.25606 7.0286C2.01851 7.74123 1.35254 8.22269 0.599609 8.22269V9.4804C1.80642 9.4804 2.63146 10.6999 2.18183 11.8198L1.33133 14.6279C0.899376 16.0482 0.65699 17.5189 0.608638 19.0011C0.59879 19.303 0.837017 19.5548 1.13905 19.5548H6.46193C6.7147 19.5548 6.93232 19.3764 6.98187 19.1285L7.95287 14.2716C8.07164 13.682 8.58703 13.2599 9.18725 13.2599H11.9339C13.3123 13.2599 14.4865 12.1514 14.4518 10.7735C14.4339 10.0623 15.0052 9.4804 15.7112 9.4804H22.4537C22.6827 9.4804 22.8694 9.29588 22.8694 9.06469V7.65639C23.1622 7.65639 23.3996 7.419 23.3996 7.12616V5.64151C23.3996 5.34867 23.1622 5.11127 22.8694 5.11127ZM9.41419 12.0001C8.71854 12.0001 8.15436 11.4359 8.15436 10.7402V9.4804C8.85003 9.4804 9.41419 10.0446 9.41419 10.7402C9.41419 11.0881 9.55417 11.402 9.78323 11.631C10.0123 11.8601 10.3262 12.0001 10.674 12.0001H9.41419ZM11.9339 12.0001C11.2382 12.0001 10.674 11.4359 10.674 10.7402V9.4804H11.9339C12.6295 9.4804 13.1937 10.0446 13.1937 10.7402C13.1937 11.4359 12.6295 12.0001 11.9339 12.0001Z" fill="white"/>
</svg>
