<svg width="170" height="48" viewBox="0 0 170 48" fill="none" xmlns="http://www.w3.org/2000/svg">
<path d="M27.7165 0.253266C28.8101 -0.430726 30.2139 0.350979 30.2139 1.63754V46.3739C30.2139 47.6279 28.8428 48.4096 27.7491 47.7744L21.1546 43.8822C20.2732 43.3773 19.6856 42.7259 18.0043 43.6868L10.9038 47.7093C10.3978 48.0024 9.77749 47.9861 9.2878 47.7093L1.22423 43.0516C0.473368 42.6119 0 41.8139 0 40.9345V20.545C0 19.6656 0.473368 18.8676 1.22423 18.4279L8.87973 14.0145C9.63059 13.5748 10.561 13.5748 11.3119 14.0145L18.3308 17.9882C19.1469 18.4605 19.1632 19.633 18.3308 20.1053L2.56271 29.1926C2.00773 29.5183 1.66495 30.1046 1.66495 30.7397C1.66495 31.3749 2.00773 31.9612 2.56271 32.2869L17.2371 40.7554C18.9837 41.7162 20.2079 40.7554 20.2079 39.1757V6.32776C20.2079 5.4972 20.6323 4.7155 21.3505 4.2595L27.7165 0.236979V0.253266Z" fill="white"/>
<path d="M63.8634 22.2851V33.1802C63.8634 34.0759 63.1289 34.8087 62.2311 34.8087H46.4304C45.5327 34.8087 44.7981 34.0759 44.7981 33.1802V28.2945C44.7981 27.3988 45.5327 26.6659 46.4304 26.6659H53.2535C53.7105 26.6659 54.0696 26.3077 54.0696 25.8517V22.4317C54.0696 21.9757 53.7105 21.6174 53.2535 21.6174H44.2595C43.8024 21.6174 43.4433 21.9757 43.4433 22.4317V39.043C43.4433 39.499 43.8024 39.8572 44.2595 39.8572H55.0163C55.4571 39.8572 55.8652 40.0364 56.1753 40.3295L61.7741 45.9155C62.5413 46.6809 62.0026 48 60.909 48H42.8557C42.2028 48 41.5825 47.7394 41.1255 47.2834L34.384 40.5738C33.927 40.1178 33.6658 39.499 33.6658 38.8475V22.6271C33.6658 21.9757 33.927 21.3569 34.384 20.9009L41.1091 14.1913C41.5662 13.7353 42.1864 13.4747 42.8394 13.4747H54.6899C55.3428 13.4747 55.9631 13.7353 56.4201 14.1913L63.4064 21.1452C63.7165 21.4546 63.8798 21.8617 63.8798 22.3014L63.8634 22.2851Z" fill="white"/>
<path d="M88.6821 21.6174H77.9252C77.4682 21.6174 77.1091 21.9757 77.1091 22.4317V39.0429C77.1091 39.4989 77.4682 39.8572 77.9252 39.8572H88.6821C89.1228 39.8572 89.5309 40.0364 89.841 40.3295L95.4398 45.9154C96.207 46.6809 95.6684 48 94.5747 48H76.5214C75.8685 48 75.2483 47.7394 74.7912 47.2834L68.0498 40.5738C67.5927 40.1178 67.3316 39.4989 67.3316 38.8475V22.6271C67.3316 21.9757 67.5927 21.3568 68.0498 20.9009L74.7749 14.1912C75.2319 13.7352 75.8522 13.4747 76.5051 13.4747H94.5747C95.6684 13.4747 96.207 14.7938 95.4398 15.5592L89.841 21.1451C89.5309 21.4546 89.1228 21.6174 88.6821 21.6174Z" fill="white"/>
<path d="M126.429 22.2851V33.1802C126.429 34.0759 125.694 34.8087 124.797 34.8087H108.996C108.098 34.8087 107.364 34.0759 107.364 33.1802V28.2945C107.364 27.3988 108.098 26.6659 108.996 26.6659H115.819C116.276 26.6659 116.635 26.3076 116.635 25.8516V22.4317C116.635 21.9757 116.276 21.6174 115.819 21.6174H106.825C106.368 21.6174 106.009 21.9757 106.009 22.4317V39.0429C106.009 39.4989 106.368 39.8572 106.825 39.8572H117.582C118.023 39.8572 118.431 40.0364 118.741 40.3295L124.34 45.9154C125.107 46.6809 124.568 48 123.474 48H105.421C104.768 48 104.148 47.7394 103.691 47.2834L96.9495 40.5738C96.4925 40.1178 96.2313 39.4989 96.2313 38.8475V22.6271C96.2313 21.9757 96.4925 21.3568 96.9495 20.9009L103.675 14.1912C104.132 13.7352 104.752 13.4747 105.405 13.4747H117.255C117.908 13.4747 118.529 13.7352 118.986 14.1912L125.972 21.1451C126.282 21.4546 126.445 21.8617 126.445 22.3014L126.429 22.2851Z" fill="white"/>
<path d="M139.691 7.87124V3.16472C139.691 2.87159 139.528 2.61102 139.283 2.46445L135.202 0.119333C135 0.000890777 134.631 -0.0272366 134.386 0.119333L130.305 2.46445C130.06 2.61102 129.897 2.87159 129.897 3.16472V7.87124C129.897 8.16438 130.06 8.42495 130.305 8.57152L134.386 10.9166C134.631 11.0632 134.957 11.0632 135.202 10.9166L139.283 8.57152C139.528 8.42495 139.691 8.16438 139.691 7.87124Z" fill="#00CD9B"/>
<path d="M138.059 13.4694H131.529C130.628 13.4694 129.897 14.1985 129.897 15.0979V46.3661C129.897 47.2656 130.628 47.9947 131.529 47.9947H138.059C138.96 47.9947 139.691 47.2656 139.691 46.3661V15.0979C139.691 14.1985 138.96 13.4694 138.059 13.4694Z" fill="white"/>
<path d="M165.395 21.6865C165.845 21.6865 166.205 21.3262 166.205 20.8765V14.3565C166.205 13.9068 165.845 13.5465 165.395 13.5465H159.097C158.64 13.5465 158.281 13.1825 158.281 12.7265V1.64011C158.281 0.35355 156.861 -0.428155 155.783 0.255837L149.417 4.27836C148.715 4.71807 148.275 5.49977 148.275 6.34662V12.7265C148.275 13.1825 147.916 13.5465 147.459 13.5465H144.104C143.647 13.5465 143.284 13.9005 143.284 14.3565V20.8765C143.284 21.3325 143.647 21.6865 144.104 21.6865H147.459C147.916 21.6865 148.275 22.0505 148.275 22.5065V38.846C148.275 39.4974 148.536 40.1163 148.993 40.5723L155.718 47.2819C156.175 47.7379 156.795 47.9985 157.448 47.9985H167.855C168.524 47.9985 169.075 47.4448 169.075 46.7771V41.0771C169.075 40.4094 168.524 39.8557 167.855 39.8557H159.097C158.64 39.8557 158.281 39.4974 158.281 39.0414V22.5065C158.281 22.0505 158.64 21.6865 159.097 21.6865H165.395Z" fill="white"/>
</svg>
