<svg width="167" height="62" viewBox="0 0 167 62" fill="none" xmlns="http://www.w3.org/2000/svg">
<g clip-path="url(#clip0_1861_72104)">
<path d="M27.6913 0.253635C28.784 -0.431354 30.1865 0.35149 30.1865 1.63992V46.4414C30.1865 47.6972 28.8166 48.4801 27.724 47.844L21.1354 43.9461C20.2548 43.4405 19.6677 42.7881 17.988 43.7504L10.8939 47.7787C10.3883 48.0723 9.76862 48.056 9.27937 47.7787L1.22312 43.1143C0.472938 42.674 0 41.8749 0 40.9941V20.575C0 19.6942 0.472938 18.8951 1.22312 18.4548L8.87167 14.035C9.62184 13.5946 10.5514 13.5946 11.3016 14.035L18.3141 18.0144C19.1295 18.4874 19.1458 19.6616 18.3141 20.1346L2.56039 29.2351C2.00591 29.5614 1.66344 30.1485 1.66344 30.7845C1.66344 31.4206 2.00591 32.0077 2.56039 32.3339L17.2215 40.8147C18.9664 41.7769 20.1896 40.8147 20.1896 39.2327V6.33698C20.1896 5.50521 20.6136 4.72237 21.3311 4.26571L27.6913 0.237325V0.253635Z" fill="white"/>
<path d="M64.6676 22.3176V33.2285C64.6676 34.1256 63.9337 34.8594 63.0368 34.8594H46.9129C46.1986 34.8594 45.6196 34.2804 45.6196 33.5661V32.3352C45.6196 31.9065 45.7898 31.4955 46.0927 31.1924L50.1031 27.1788C50.4063 26.8753 50.8176 26.7048 51.2466 26.7048H54.0673C54.5239 26.7048 54.8827 26.346 54.8827 25.8894V22.4645C54.8827 22.0078 54.5239 21.649 54.0673 21.649H45.0814C44.6248 21.649 44.266 22.0078 44.266 22.4645V39.0999C44.266 39.5565 44.6248 39.9154 45.0814 39.9154H55.8286C56.2689 39.9154 56.6766 40.0948 56.9864 40.3883L62.5802 45.9823C63.3466 46.7489 62.8085 48.07 61.7158 48.07H43.6789C43.0266 48.07 42.4069 47.809 41.9503 47.3523L35.215 40.6329C34.7584 40.1763 34.4974 39.5565 34.4974 38.9042V22.6602C34.4974 22.0078 34.7584 21.388 35.215 20.9314L41.934 14.2119C42.3906 13.7553 43.0103 13.4944 43.6626 13.4944H55.5024C56.1547 13.4944 56.7744 13.7553 57.2311 14.2119L64.211 21.176C64.5208 21.4859 64.6839 21.8936 64.6839 22.3339L64.6676 22.3176Z" fill="white"/>
<path d="M90.326 21.649H79.5789C79.1222 21.649 78.7635 22.0078 78.7635 22.4645V39.0999C78.7635 39.5565 79.1222 39.9154 79.5789 39.9154H90.326C90.7663 39.9154 91.174 40.0948 91.4839 40.3883L97.0776 45.9823C97.8441 46.7489 97.3059 48.07 96.2132 48.07H78.1764C77.524 48.07 76.9043 47.809 76.4477 47.3523L69.7124 40.6329C69.2558 40.1763 68.9949 39.5565 68.9949 38.9042V22.6602C68.9949 22.0078 69.2558 21.388 69.7124 20.9314L76.4314 14.2119C76.888 13.7553 77.5077 13.4944 78.1601 13.4944H96.2132C97.3059 13.4944 97.8441 14.8154 97.0776 15.5819L91.4839 21.176C91.174 21.4859 90.7663 21.649 90.326 21.649Z" fill="white"/>
<path d="M128.47 22.3176V33.2285C128.47 34.1256 127.736 34.8594 126.839 34.8594H110.715C110.001 34.8594 109.422 34.2804 109.422 33.5661V32.3351C109.422 31.9066 109.592 31.4955 109.895 31.1924L113.905 27.1788C114.208 26.8753 114.62 26.7048 115.049 26.7048H117.869C118.326 26.7048 118.685 26.346 118.685 25.8894V22.4645C118.685 22.0078 118.326 21.649 117.869 21.649H108.883C108.427 21.649 108.068 22.0078 108.068 22.4645V39.0999C108.068 39.5565 108.427 39.9154 108.883 39.9154H119.631C120.071 39.9154 120.479 40.0948 120.788 40.3883L126.382 45.9823C127.149 46.7489 126.61 48.07 125.518 48.07H107.481C106.829 48.07 106.209 47.809 105.752 47.3523L99.017 40.6329C98.5604 40.1763 98.2994 39.5565 98.2994 38.9042V22.6602C98.2994 22.0078 98.5604 21.388 99.017 20.9314L105.736 14.2119C106.193 13.7553 106.812 13.4944 107.465 13.4944H119.304C119.957 13.4944 120.576 13.7553 121.033 14.2119L128.013 21.176C128.323 21.4859 128.486 21.8936 128.486 22.3339L128.47 22.3176Z" fill="white"/>
<path d="M142.574 7.89333V3.18784C142.574 2.89476 142.411 2.63424 142.167 2.48772L138.096 0.143106C137.852 -0.00343125 137.527 -0.00343125 137.282 0.143106L133.212 2.48772C132.968 2.63424 132.805 2.89476 132.805 3.18784V7.89333C132.805 8.18641 132.968 8.44691 133.212 8.59345L137.282 10.938C137.527 11.0845 137.852 11.0845 138.096 10.938L142.167 8.59345C142.411 8.44691 142.574 8.18641 142.574 7.89333Z" fill="#00CD9B"/>
<path d="M142.574 15.1099C142.574 14.217 141.85 13.4944 140.957 13.4944H139.688C139.145 13.4944 138.625 13.7101 138.241 14.0941L133.279 19.0558C132.975 19.3591 132.805 19.7701 132.805 20.1989V46.4565C132.805 47.3494 133.529 48.07 134.422 48.07H140.957C141.85 48.07 142.574 47.3461 142.574 46.4533V15.1099Z" fill="white"/>
<path d="M160.057 21.5638C160.477 21.5638 160.911 21.3806 161.259 21.0558L166.637 15.5236C167.373 14.7338 166.813 13.4092 165.744 13.4092H157.599C157.143 13.4092 156.784 13.0503 156.784 12.5937V3.95008C156.784 3.08674 156.207 2.18007 155 2.18007C155 2.18007 154.201 2.18003 152.92 2.18007C151.818 2.18011 151.5 2.7215 151.2 3.00006C150.9 3.27862 147.929 6.21006 147.929 6.21006C147 6.99696 146.787 7.38745 146.787 8.28006C146.787 19.129 146.787 27.9884 146.787 38.8373C146.787 39.4897 147.048 40.1095 147.505 40.5661L154.224 47.2855C154.68 47.7421 155.3 48.0031 155.952 48.0031H165.777C166.446 48.0031 167 47.4486 167 46.7799V41.0717C167 40.403 166.446 39.8484 165.777 39.8484H157.599C157.143 39.8484 156.784 39.4897 156.784 39.033V22.3792C156.784 21.9226 157.143 21.5638 157.599 21.5638H160.057Z" fill="white"/>
</g>
<defs>
<clipPath id="clip0_1861_72104">
<rect width="167" height="61.5" fill="white"/>
</clipPath>
</defs>
</svg>
