<svg width="24" height="24" viewBox="0 0 24 24" fill="none" xmlns="http://www.w3.org/2000/svg">
<path d="M23.7615 5.66605C24.1252 5.23509 24.0663 4.5946 23.6299 4.23545C23.1934 3.87632 22.5448 3.93455 22.1813 4.36551L14.7883 13.1265C13.3032 14.8863 12.2586 16.1205 11.3525 16.9285C10.4675 17.7177 9.85683 17.9685 9.25711 17.9685C8.65746 17.9685 8.04672 17.7177 7.16175 16.9285C6.25565 16.1205 5.21098 14.8863 3.72597 13.1265L1.81876 10.8664C1.4551 10.4354 0.806522 10.3772 0.370121 10.7363C-0.066279 11.0954 -0.125236 11.7358 0.238424 12.1669L2.19856 14.4897C3.61835 16.1722 4.75538 17.5198 5.78307 18.4361C6.84462 19.3828 7.92979 20 9.25711 20C10.5845 20 11.6696 19.3828 12.7312 18.4361C13.7589 17.5198 14.8958 16.1724 16.3157 14.4897L23.7615 5.66605Z" fill="white"/>
</svg>
