<svg width="24" height="24" viewBox="0 0 24 24" fill="none" xmlns="http://www.w3.org/2000/svg">
<path d="M13.75 13C15.1462 13 16.4014 13.6025 17.2705 14.5615C16.9809 14.9094 16.813 15.3243 16.7656 15.75H14C12.7574 15.7501 11.75 16.7574 11.75 18C11.7501 19.2425 12.7575 20.2499 14 20.25H16.7656C16.8005 20.5627 16.9002 20.8697 17.0654 21.1484C16.2094 21.9837 15.0406 22.5 13.75 22.5H7.75C5.12665 22.5 3 20.3734 3 17.75C3 15.1266 5.12665 13 7.75 13H13.75Z" fill="white"/>
<path d="M18.4697 15.4697C18.7626 15.1768 19.2374 15.1768 19.5303 15.4697L21.5303 17.4697C21.8232 17.7626 21.8232 18.2374 21.5303 18.5303L19.5303 20.5303C19.2374 20.8231 18.7626 20.8231 18.4697 20.5303C18.1769 20.2374 18.1769 19.7626 18.4697 19.4697L19.1895 18.75H14C13.9406 18.75 13.8835 18.7406 13.8281 18.7275C13.799 18.7207 13.7708 18.7123 13.7432 18.7021C13.7251 18.6955 13.7069 18.6896 13.6895 18.6816C13.6638 18.6699 13.6402 18.655 13.6162 18.6406C13.6023 18.6323 13.5875 18.6254 13.5742 18.6162C13.4994 18.5644 13.4345 18.4997 13.3828 18.4248C13.3736 18.4115 13.3667 18.3968 13.3584 18.3828C13.344 18.3588 13.329 18.3352 13.3174 18.3096C13.3095 18.2921 13.3035 18.274 13.2969 18.2559C13.2868 18.2282 13.2783 18.2 13.2715 18.1709C13.2586 18.1159 13.25 18.0589 13.25 18C13.25 17.974 13.2513 17.9482 13.2539 17.9229C13.2899 17.5703 13.5703 17.29 13.9229 17.2539C13.9482 17.2513 13.974 17.25 14 17.25H19.1895L18.4697 16.5303C18.1769 16.2374 18.1769 15.7626 18.4697 15.4697Z" fill="white"/>
<path d="M10.75 2C13.3734 2 15.5 4.12665 15.5 6.75C15.5 9.37335 13.3734 11.5 10.75 11.5C8.12665 11.5 6 9.37335 6 6.75C6 4.12665 8.12665 2 10.75 2Z" fill="white"/>
</svg>
