<svg width="24" height="24" viewBox="0 0 24 24" fill="none" xmlns="http://www.w3.org/2000/svg">
<path d="M12 1.5C6.2328 1.5 1.5 6.19178 1.5 11.959C1.5 17.7263 6.2328 22.5 12 22.5C17.7672 22.5 22.5 17.7263 22.5 11.959C22.5 6.19178 17.7672 1.5 12 1.5ZM13.8457 8.26758C13.8457 7.9278 14.1212 7.65234 14.4609 7.65234C14.8007 7.65234 15.0762 7.9278 15.0762 8.26758V9.49804C15.0762 9.83782 14.8007 10.1133 14.4609 10.1133C14.1212 10.1133 13.8457 9.83782 13.8457 9.49804V8.26758ZM8.92383 8.26758C8.92383 7.9278 9.19927 7.65234 9.53907 7.65234C9.87885 7.65234 10.1543 7.9278 10.1543 8.26758V9.49804C10.1543 9.83782 9.87885 10.1133 9.53907 10.1133C9.19927 10.1133 8.92383 9.83782 8.92383 9.49804V8.26758ZM12 18.7266C8.47555 18.7266 5.57171 16.0183 5.2601 12.5737C5.2295 12.2353 5.50786 11.959 5.84766 11.959C6.18744 11.959 6.4593 12.2355 6.49673 12.5732C6.80324 15.3385 9.15425 17.4961 12 17.4961C14.8458 17.4961 17.1967 15.3349 17.5033 12.5691C17.5407 12.2314 17.8125 11.9549 18.1524 11.9549C18.4921 11.9549 18.7706 12.2312 18.74 12.5696C18.4283 16.0147 15.5244 18.7266 12 18.7266Z" fill="white"/>
</svg>
