<svg width="24" height="24" viewBox="0 0 24 24" fill="none" xmlns="http://www.w3.org/2000/svg">
<g clip-path="url(#clip0_236_4129)">
<path d="M12 0C18.6274 0 24 5.37258 24 12C24 18.6274 18.6274 24 12 24C5.37258 24 0 18.6274 0 12C0 5.37258 5.37258 0 12 0ZM8.58594 7.46484C6.46279 7.89777 4.92188 9.78744 4.92188 11.958C4.92188 14.4864 6.97657 16.5439 9.50195 16.5439H10.2178L9.93066 17.6934C9.88773 17.8642 9.95739 18.044 10.1045 18.1416C10.2522 18.2396 10.444 18.2331 10.584 18.1279L13.915 15.626C14.1371 15.4595 14.137 15.1252 13.915 14.959L10.584 12.458C10.4437 12.3528 10.2507 12.3468 10.1045 12.4443C9.95733 12.542 9.88763 12.7216 9.93066 12.8926L10.2178 14.042H9.50195C8.35414 14.042 7.41995 13.1072 7.41992 11.958C7.41992 11.077 7.9783 10.2869 8.80859 9.99219C8.97463 9.93304 9.08594 9.77611 9.08594 9.59961V7.87305C9.08589 7.60534 8.83693 7.41052 8.58594 7.46484ZM13.8955 5.8584C13.7484 5.76123 13.5562 5.76644 13.416 5.87207L10.085 8.37305C9.86275 8.53948 9.86308 8.8738 10.085 9.04004L13.416 11.542C13.5562 11.6475 13.7485 11.6532 13.8955 11.5557C14.0426 11.458 14.1122 11.2783 14.0693 11.1074L13.7822 9.95703H14.498C15.6459 9.95703 16.5801 10.8928 16.5801 12.042C16.58 12.9228 16.0216 13.7122 15.1914 14.0068C15.0252 14.0659 14.9141 14.2238 14.9141 14.4004V16.127C14.9143 16.3935 15.1606 16.5881 15.4141 16.5352C17.5372 16.1023 19.0781 14.2125 19.0781 12.042C19.0781 9.51351 17.0234 7.45605 14.498 7.45605H13.7822L14.0693 6.30664C14.1124 6.13567 14.0427 5.95607 13.8955 5.8584Z" fill="white"/>
</g>
<defs>
<clipPath id="clip0_236_4129">
<rect width="24" height="24" fill="white"/>
</clipPath>
</defs>
</svg>
