<svg width="24" height="24" viewBox="0 0 24 24" fill="none" xmlns="http://www.w3.org/2000/svg">
<path d="M21.5314 3.41423C21.8548 3.15559 22.3273 3.20821 22.5861 3.53142C22.8448 3.85485 22.7923 4.32735 22.4689 4.58611L2.4688 20.5862C2.14535 20.845 1.67286 20.7925 1.4141 20.469C1.15557 20.1456 1.20793 19.673 1.53129 19.4143L2.65727 18.513C-0.45828 14.0665 -0.0334852 7.89565 3.93853 3.924C4.25601 3.60849 4.76842 3.60866 5.086 3.924C5.40167 4.24156 5.40162 4.75388 5.086 5.07147C5.07804 5.07941 5.0705 5.08792 5.06256 5.09588C1.69325 8.47692 1.31436 13.7064 3.91705 17.5052L5.20221 16.4768C3.11699 13.3172 3.46236 9.02604 6.24323 6.24433C6.54789 5.98358 6.99707 5.98376 7.30183 6.24433C7.64336 6.5368 7.68311 7.05122 7.3907 7.39278C7.38914 7.39433 7.38738 7.39609 7.38582 7.39766C5.19879 9.58725 4.89655 12.9449 6.47468 15.4592L7.76473 14.427C6.6961 12.5618 6.95603 10.1429 8.54793 8.54903C8.85269 8.28815 9.30175 8.28821 9.60653 8.54903C9.948 8.8415 9.98776 9.35496 9.6954 9.6965L9.69345 9.69943C8.69436 10.6996 8.48154 12.1875 9.0538 13.3957L10.4034 12.3157C10.3835 12.214 10.3722 12.1088 10.3722 12.0012C10.3723 11.102 11.1009 10.3724 12.0001 10.3723C12.2344 10.3723 12.457 10.4228 12.6583 10.5119L14.0763 9.37716C13.9525 9.06324 14.0332 8.6921 14.3038 8.46017C14.5891 8.2159 14.9939 8.20495 15.2902 8.40645L16.59 7.36641C16.3498 7.0624 16.3546 6.62976 16.6085 6.3332C16.901 5.9918 17.4154 5.95207 17.757 6.24433C17.7918 6.27918 17.8245 6.31643 17.8585 6.35175L19.1398 5.32635C19.065 5.24658 18.9903 5.16583 18.9123 5.08807C18.5968 4.77047 18.5966 4.25713 18.9123 3.93963C19.2342 3.62874 19.7477 3.63629 20.0607 3.95623C20.1781 4.07364 20.2925 4.19429 20.4035 4.3156L21.5314 3.41423ZM22.1261 6.77949C24.3476 11.0715 23.6604 16.479 20.0607 20.0784C19.9071 20.2307 19.6989 20.3159 19.4826 20.3147C19.2691 20.3138 19.0639 20.2287 18.9123 20.0784C18.5968 19.7608 18.5966 19.2475 18.9123 18.93C18.9202 18.922 18.9287 18.9145 18.9367 18.9065C21.9319 15.9008 22.5628 11.4337 20.838 7.80977L22.1261 6.77949ZM19.5138 8.86935C20.7434 11.8234 20.1592 15.3537 17.757 17.7571C17.4394 18.0728 16.9261 18.0728 16.6085 17.7571C16.2933 17.4395 16.293 16.9271 16.6085 16.6096C16.6101 16.6081 16.6118 16.6063 16.6134 16.6048C18.4164 14.7997 18.9378 12.2007 18.1818 9.93479L19.5138 8.86935ZM16.7872 11.051C17.0918 12.5945 16.6473 14.2567 15.4523 15.4534C15.1347 15.7691 14.6214 15.7691 14.3038 15.4534C13.9884 15.1358 13.9882 14.6224 14.3038 14.3049L14.3068 14.303C14.8697 13.7394 15.1813 13.0204 15.2452 12.2844L16.7872 11.051Z" fill="white"/>
</svg>
