<svg width="28" height="28" viewBox="0 0 28 28" fill="none" xmlns="http://www.w3.org/2000/svg">
<mask id="path-1-outside-1_1674_339472" maskUnits="userSpaceOnUse" x="0" y="0" width="28" height="28" fill="black">
<rect fill="white" width="28" height="28"/>
<path d="M1 14C1 6.8203 6.8203 1 14 1V1C21.1797 1 27 6.8203 27 14V14C27 21.1797 21.1797 27 14 27V27C6.8203 27 1 21.1797 1 14V14Z"/>
</mask>
<path d="M1 14M27 14M27 14M1 14M14 1M27 14M14 27M1 14M14 27V26C7.37258 26 2 20.6274 2 14H1H0C0 21.732 6.26801 28 14 28V27ZM27 14H26C26 20.6274 20.6274 26 14 26V27V28C21.732 28 28 21.732 28 14H27ZM14 1V2C20.6274 2 26 7.37258 26 14H27H28C28 6.26801 21.732 0 14 0V1ZM14 1V0C6.26801 0 0 6.26801 0 14H1H2C2 7.37258 7.37258 2 14 2V1Z" fill="url(#paint0_linear_1674_339472)" mask="url(#path-1-outside-1_1674_339472)"/>
<path fill-rule="evenodd" clip-rule="evenodd" d="M14.0003 24.8334C19.9834 24.8334 24.8337 19.9831 24.8337 14C24.8337 8.01694 19.9834 3.16669 14.0003 3.16669C8.01724 3.16669 3.16699 8.01694 3.16699 14C3.16699 19.9831 8.01724 24.8334 14.0003 24.8334ZM20.0223 11.292C20.3216 10.9577 20.2933 10.444 19.959 10.1447C19.6246 9.84536 19.111 9.87374 18.8117 10.2081L15.1617 14.2848C14.4221 15.1109 13.9241 15.6643 13.4982 16.0222C13.0926 16.3632 12.8543 16.4375 12.6462 16.4375C12.438 16.4375 12.1998 16.3632 11.7941 16.0222C11.3683 15.6643 10.8702 15.1109 10.1306 14.2848L9.189 13.2331C8.88968 12.8988 8.37602 12.8704 8.0417 13.1697C7.70738 13.4691 7.679 13.9827 7.97832 14.317L8.96015 15.4137C9.64899 16.1831 10.2235 16.8249 10.7485 17.2662C11.3039 17.733 11.9029 18.0625 12.6462 18.0625C13.3894 18.0625 13.9884 17.733 14.5438 17.2662C15.0688 16.8249 15.6433 16.1831 16.3322 15.4137L20.0223 11.292Z" fill="#00CD9B"/>
<defs>
<linearGradient id="paint0_linear_1674_339472" x1="27" y1="1" x2="-2.37499" y2="5.6418" gradientUnits="userSpaceOnUse">
<stop stop-color="#2C2D46"/>
<stop offset="1" stop-color="#007B5D"/>
</linearGradient>
</defs>
</svg>
