<svg width="24" height="24" viewBox="0 0 24 24" fill="none" xmlns="http://www.w3.org/2000/svg">
<path d="M12.9056 10.0632C12.5274 9.84482 12.4063 9.3617 12.6357 8.98942L13.2633 7.97076C13.4927 7.59892 13.9264 7.45608 14.2282 7.65417C14.529 7.85202 14.9628 7.70961 15.1922 7.33734L15.9182 6.15915C16.1476 5.78687 16.036 5.28645 15.6711 5.04668L9.99239 1.31705C9.62747 1.07728 9.14054 1.18547 8.91106 1.55731L8.18497 2.7355C7.95505 3.10743 8.0144 3.57345 8.31522 3.7713C8.61604 3.96915 8.67495 4.43526 8.4459 4.807L5.23841 10.0097C5.00946 10.3819 4.57527 10.5244 4.27401 10.3266C3.97275 10.1289 3.539 10.2713 3.30961 10.6435L2.58406 11.8221C2.35467 12.1944 2.46578 12.6944 2.83123 12.9346L8.50981 16.6637C8.87527 16.9038 9.36131 16.7959 9.59114 16.4235L10.3173 15.2457C10.5463 14.8736 10.4875 14.4079 10.1871 14.2099C9.88538 14.0123 9.82701 13.5465 10.056 13.1743L10.6835 12.1557C10.9129 11.7834 11.3885 11.6925 11.7401 11.9531L21.1527 18.928C21.5047 19.1886 21.9803 19.0976 22.2092 18.7254L23.2839 16.9823C23.5129 16.6101 23.3913 16.1271 23.0136 15.9086L12.9056 10.0632Z" fill="white"/>
<path d="M0.599609 22.005C0.599609 22.4481 0.951466 22.8108 1.38241 22.8108H9.68142C10.1124 22.8108 10.4642 22.4481 10.4642 22.005V19.9586C10.4642 19.5155 10.1124 19.1524 9.68142 19.1524H1.38241C0.951466 19.1524 0.599609 19.5155 0.599609 19.9586V22.005Z" fill="white"/>
</svg>
