<svg width="115" height="32" viewBox="0 0 115 32" fill="none" xmlns="http://www.w3.org/2000/svg">
<path d="M29.2448 9.46485C31.9368 9.36371 35.6488 9.38939 38.3515 9.45808C38.9889 9.96542 40.4864 11.5452 41.1178 12.1914C41.9302 13.0228 43.4651 14.4658 44.1461 15.3221C44.2116 16.8368 44.1845 18.4563 44.1832 19.9806L31.4739 19.9936C31.4675 19.3951 31.4282 18.7683 31.4966 18.1732C31.5288 17.8909 31.5859 17.6865 31.8446 17.5379C32.7425 17.0215 36.5271 18.0192 37.278 17.2625C37.4444 17.0948 37.4978 16.8538 37.484 16.6244C37.4678 16.3573 37.3535 16.0157 37.1095 15.8746C36.6682 15.6197 31.3692 15.6803 30.7433 15.8694C30.5803 15.9187 30.3227 16.0214 30.2555 16.1855C30.0623 16.6563 30.1096 24.5993 30.2926 25.165C30.9827 25.71 33.8753 25.4039 34.8815 25.4545C36.015 25.5114 37.1931 25.3778 38.3698 25.5255C39.4836 26.5784 41.4915 29.5234 42.2163 30.8854C42.9159 32.1998 37.8427 31.8002 37.3417 31.7988L29.2495 31.7676C28.6122 31.2574 27.1353 29.723 26.4951 29.0749C25.6459 28.2151 24.0818 26.7593 23.3663 25.8639C23.2269 22.7612 23.3374 18.5305 23.356 15.3516C23.8017 14.7739 25.233 13.3869 25.8155 12.8188C26.8731 11.7871 28.1479 10.4085 29.2448 9.46485Z" fill="white"/>
<path d="M71.5625 9.46663C74.3158 9.3612 77.9262 9.42096 80.698 9.4693C81.8007 10.4972 82.933 11.6731 84.0068 12.7435C84.7393 13.4738 85.8218 14.5029 86.4622 15.2663C86.5146 16.7712 86.477 18.4625 86.4756 19.9813L73.7233 19.992C73.6573 16.9348 73.7443 17.4649 76.6626 17.4926C77.4869 17.5004 78.3238 17.6117 79.1523 17.4847C79.9705 17.3593 79.9838 16.0246 79.2384 15.8061C77.9294 15.775 73.5169 15.4605 72.54 16.0626C72.302 16.6076 72.3673 19.3625 72.4105 20.139C72.4768 21.3294 72.1752 24.2313 72.5439 25.1837C73.4211 25.7485 79.1207 25.3344 80.6176 25.5062C81.7181 26.5942 83.85 29.5955 84.4541 31.0449C84.9068 32.1304 80.316 31.7938 79.752 31.7929L71.54 31.7692C70.8358 31.1972 69.5885 29.89 68.8884 29.1805C67.9552 28.2347 66.4697 26.857 65.6694 25.8607C65.6193 23.4514 65.7051 21.0096 65.6551 18.5949C65.6328 17.5226 65.6182 16.373 65.6886 15.3082C66.0928 14.7855 67.4738 13.446 68.0164 12.9197C69.1069 11.8622 70.4227 10.4244 71.5625 9.46663Z" fill="white"/>
<path d="M17.9612 1.42108C18.082 1.43874 18.0187 1.41466 18.1361 1.52526C18.2088 2.49089 18.153 3.80813 18.1533 4.80194L18.1571 11.2789L18.1478 31.0904C17.1183 30.4994 14.3452 28.8304 13.395 28.5318C11.6457 29.0345 8.71657 31.3914 6.89346 31.9993C5.98343 31.6861 0.779873 28.7332 0.0651494 28.1322C-0.0739783 25.3848 0.110634 22.4353 0.0383951 19.5987C0.010748 18.5177 -0.10448 13.123 0.270272 12.274C0.39406 11.9934 4.32424 9.82363 4.93747 9.46631C5.36038 9.21442 6.71902 8.28644 7.31227 8.60433C9.00446 9.52536 11.0693 10.4858 12.5849 11.6366C13.7139 12.4938 10.5793 14.0447 10.1139 14.3134L4.62515 17.4835C3.75399 17.9884 2.74764 18.4663 1.95639 19.0837C1.67546 19.3031 1.41219 19.583 1.29357 19.9253C1.2183 20.1428 1.21563 20.3931 1.32996 20.5984C1.5069 20.9165 1.90431 21.1757 2.20682 21.3721C3.23369 22.0389 11.7692 26.9855 12.3879 27.1302C12.7117 27.206 13.0035 27.1992 13.288 27.014C13.5504 26.8433 13.7271 26.6027 13.7956 26.2965C14.0448 25.1818 13.8595 22.637 13.8611 21.378L13.845 8.8778C13.8012 3.27064 13.1804 4.37362 17.9612 1.42108Z" fill="white"/>
<path d="M63.346 9.41632C64.0486 9.40241 64.8919 9.2927 65.0676 10.1727C64.9256 11.0267 62.5601 15.1412 61.9631 15.7679C60.2443 15.8669 55.3798 15.5007 54.117 15.9124C53.9474 15.9677 53.7781 16.0564 53.6985 16.2216C53.5064 16.6215 53.5387 23.3686 53.6019 24.1847C53.6254 24.4908 53.6718 24.7438 53.7875 25.0282C53.9971 25.2467 54.2442 25.4042 54.5551 25.4208C56.8542 25.5437 59.1896 25.3255 61.4936 25.414C61.9738 25.4324 62.3542 25.6821 62.6032 26.0762C63.5648 27.597 64.4656 29.1786 65.3392 30.7513C65.5941 31.2113 65.2181 31.5514 64.8837 31.7842C64.1809 31.8068 63.4303 31.7977 62.7261 31.7891C59.193 31.7467 55.6354 31.8512 52.105 31.7745C51.5494 31.3699 51.4006 31.2288 50.9609 30.7204L50.97 10.335C51.3972 9.9028 51.5392 9.76561 52.0652 9.44897C55.7867 9.38885 59.6163 9.42471 63.346 9.41632Z" fill="white"/>
<path d="M106.594 3.10897C107.007 3.09666 107.61 3.21083 107.667 3.69284C107.822 4.99544 107.743 6.49232 107.736 7.79903L107.734 18.9411C107.735 19.7706 107.447 25.2948 108.326 25.4058C110.091 25.6288 112.701 25.1141 114.464 25.6004C115.053 25.7629 114.96 27.2322 114.939 27.6635C114.665 31.4868 116.15 31.8555 111.761 31.7667L106.083 31.759C105.164 31.0024 104.071 29.8565 103.246 28.9804C103.405 21.2411 103.243 13.0362 103.266 5.25072C104.366 4.52307 105.476 3.80897 106.594 3.10897Z" fill="white"/>
<path d="M89.0422 9.47072C90.1299 9.42737 94.3672 9.23809 95.0825 9.77648C95.3745 10.7846 95.2389 14.0188 95.2418 15.2028L95.266 24.2266L95.2683 28.7212C95.2687 29.484 95.291 30.3402 95.2238 31.1007C95.1952 31.4225 94.9382 31.5826 94.686 31.759C93.7674 31.8036 89.5159 31.8953 88.8612 31.6211C88.2955 30.8322 88.4702 28.2682 88.4727 27.194L88.4714 21.4038L88.493 15.2111C88.4844 13.7895 88.4429 12.3398 88.4746 10.9203C88.49 10.2314 88.5456 9.91527 89.0422 9.47072Z" fill="white"/>
<path d="M101.919 6.07294C102.125 6.27951 102.05 25.5856 102.063 27.9809C101.344 27.3023 100.713 26.7068 100.041 25.9772L100.025 25.0927L100.034 19.3009C100.036 18.359 100.089 17.3793 99.9753 16.444C99.7407 14.9414 97.5832 16.3687 97.1187 15.4886C96.4485 14.2188 96.9314 11.5392 96.8579 10.0639C96.8367 9.63735 97.3695 9.41365 97.7126 9.42953C100.066 9.53906 99.9433 9.53781 100.132 7.40355C100.564 6.94919 101.38 6.43971 101.919 6.07294Z" fill="white"/>
<path d="M20.2537 0C20.7228 0.0993634 20.8559 0.182133 21.158 0.536951C21.29 0.919777 21.2693 1.38591 21.2786 1.78818C21.3335 4.14614 21.4218 30.8788 21.1946 31.3535C21.023 31.7121 20.748 31.8436 20.4003 32C19.8106 31.9065 19.3431 31.889 19.3472 31.1796C19.3586 29.2408 19.3717 27.3 19.3727 25.3614L19.3736 8.74522L19.3453 3.59724C19.3399 2.76522 19.2877 1.32419 19.397 0.548906C19.6362 0.26259 19.9146 0.166795 20.2537 0Z" fill="white"/>
<path d="M49.6134 11.7565L49.6946 11.8373C49.7793 12.2956 49.7383 16.2134 49.7379 16.9824L49.7345 29.5925C49.1773 29.0514 48.6172 28.469 48.0688 27.9151C47.5156 27.3663 46.5482 26.4639 46.1484 25.8484L46.1552 15.267C47.0806 14.2011 48.5871 12.7826 49.6134 11.7565Z" fill="white"/>
<path d="M91.6703 0.0845886C92.2785 0.0173355 94.6846 1.71168 95.222 2.16943C95.2484 3.28955 95.2441 4.41002 95.2091 5.52977C94.3451 6.17858 92.8953 7.12048 91.9553 7.64976C91.4948 7.59 88.9711 5.90814 88.5235 5.53512C88.4636 4.60732 88.4631 3.12436 88.5103 2.20636C89.1366 1.57111 90.8496 0.581584 91.6703 0.0845886Z" fill="#00CD9B"/>
<path d="M109.023 9.45073C110.164 9.44253 114.105 9.2017 114.793 9.81768C115.067 10.4454 115.052 14.8112 114.827 15.4671C114.17 15.993 110.115 15.7634 109.038 15.7515L109.023 9.45073Z" fill="white"/>
<path d="M73.7125 21.2313C77.7468 21.1125 82.4057 21.2028 86.4805 21.2299C86.5076 21.9666 86.6043 22.7535 86.303 23.4196C85.2667 24.0005 76.6199 23.4687 74.851 23.6378C74.6543 23.6567 74.1026 23.5836 73.9183 23.4831C73.5801 22.9016 73.695 21.9397 73.7125 21.2313Z" fill="white"/>
<path d="M31.4975 21.2285C35.4842 21.1385 40.1976 21.1706 44.2032 21.2193C44.2221 21.9788 44.3484 22.8507 43.9703 23.4763C43.7992 23.55 43.6239 23.6198 43.4332 23.6232C40.0925 23.6822 36.7472 23.6417 33.4057 23.6515C32.8354 23.6533 32.2484 23.6481 31.6906 23.5238C31.3582 22.9785 31.4789 21.9131 31.4975 21.2285Z" fill="white"/>
</svg>
