<svg width="24" height="24" viewBox="0 0 24 24" fill="none" xmlns="http://www.w3.org/2000/svg">
<path d="M4.51686 20.2984C4.73047 20.2975 4.93516 20.2127 5.08682 20.0623C5.40252 19.7447 5.40252 19.2318 5.08682 18.9142C1.2645 15.1051 1.25376 8.91865 5.06283 5.09632C5.07082 5.08831 5.07881 5.08032 5.08682 5.07233C5.40252 4.75476 5.40252 4.24185 5.08682 3.92427C4.76924 3.60858 4.25634 3.60858 3.93876 3.92427C-0.51312 8.3757 -0.513488 15.5933 3.93794 20.0452L3.93876 20.046C4.08972 20.2044 4.29808 20.2954 4.51686 20.2984Z" fill="white"/>
<path d="M6.24332 17.7558C6.5609 18.0715 7.0738 18.0715 7.39138 17.7558C7.70708 17.4382 7.70708 16.9253 7.39138 16.6077C4.84616 14.0654 4.84387 9.94106 7.38626 7.39584C7.38796 7.39413 7.38967 7.39242 7.39138 7.39072C7.68388 7.04916 7.64411 6.53516 7.30256 6.24266C6.99773 5.98161 6.54815 5.98161 6.24332 6.24266C3.06473 9.42221 3.06473 14.5763 6.24332 17.7558Z" fill="white"/>
<path d="M8.54788 15.452C8.86546 15.7677 9.37836 15.7677 9.69594 15.452C10.0116 15.1344 10.0116 14.6215 9.69594 14.304C8.42333 13.0328 8.42218 10.9706 9.69338 9.69797L9.69594 9.69541C9.98844 9.35385 9.94867 8.83985 9.60712 8.54735C9.30229 8.2863 8.85271 8.2863 8.54788 8.54735C6.64289 10.4547 6.64289 13.5447 8.54788 15.452Z" fill="white"/>
<path d="M18.9126 3.93968C18.5969 4.25726 18.5969 4.77016 18.9126 5.08774C22.7349 8.89682 22.7456 15.0832 18.9365 18.9056C18.9286 18.9136 18.9206 18.9216 18.9126 18.9296C18.5969 19.2471 18.5969 19.76 18.9126 20.0776C19.0642 20.228 19.2689 20.3128 19.4825 20.3137C19.6989 20.315 19.907 20.23 20.0606 20.0776C24.5125 15.6262 24.5129 8.40867 20.0614 3.95679L20.0606 3.95596C19.7475 3.63572 19.2346 3.62844 18.9126 3.93968Z" fill="white"/>
<path d="M16.6079 16.6078C16.2922 16.9253 16.2922 17.4382 16.6079 17.7558C16.9254 18.0715 17.4383 18.0715 17.7559 17.7558C20.9345 14.5763 20.9345 9.42223 17.7559 6.24267C17.4144 5.95017 16.9004 5.98994 16.6079 6.33149C16.3468 6.63632 16.3468 7.0859 16.6079 7.39073C19.1531 9.93312 19.1554 14.0574 16.613 16.6026C16.6113 16.6043 16.6096 16.6061 16.6079 16.6078Z" fill="white"/>
<path d="M14.3042 15.451C14.6217 15.7667 15.1346 15.7667 15.4522 15.451C17.3572 13.5436 17.3572 10.4537 15.4522 8.54634C15.1597 8.20479 14.6457 8.16502 14.3042 8.45752C13.9626 8.75002 13.9228 9.26402 14.2153 9.60558C14.2426 9.63743 14.2723 9.66713 14.3042 9.6944C15.5768 10.9656 15.5779 13.0278 14.3067 14.3004L14.3042 14.3029C13.9885 14.6205 13.9885 15.1334 14.3042 15.451Z" fill="white"/>
<path d="M11.9995 13.6279C12.8988 13.6279 13.6279 12.8989 13.6279 11.9995C13.6279 11.1002 12.8988 10.3711 11.9995 10.3711C11.1002 10.3711 10.3711 11.1002 10.3711 11.9995C10.3711 12.8989 11.1002 13.6279 11.9995 13.6279Z" fill="white"/>
</svg>
