<svg width="95" height="100" viewBox="0 0 95 100" fill="none" xmlns="http://www.w3.org/2000/svg">
<path d="M3.29457 64.6484L3.29591 64.541C3.47953 64.6327 3.53608 65.0776 3.62644 65.2839C4.05987 66.273 3.50767 66.2691 3.26778 66.6656L3.08984 66.702C3.22196 65.8059 3.22413 65.5329 3.29457 64.6484Z" fill="#6F71B0"/>
<path d="M36.9141 96.2278C38.4801 96.0925 40.5864 96.1863 42.1601 96.2098C43.9449 96.2368 45.9181 96.2134 47.6551 96.5336C47.334 96.6148 46.9336 96.7023 46.6288 96.8132C43.8781 97.2643 41.8472 97.9994 39.0023 97.294C38.7498 97.2318 37.3262 96.8457 37.2492 96.7167L37.4997 96.5652L37.4957 96.4741L36.9141 96.2278Z" fill="#6F71B0"/>
<path d="M18.6331 94.4671C19.392 94.4166 20.7875 94.4256 21.5435 94.6331C21.3281 94.6475 21.1836 94.6295 21.0172 94.7602C21.3088 94.8721 21.4622 94.947 21.7379 95.0949L21.7775 95.2266C21.1905 95.7038 17.7436 95.6091 17.1484 95.1157L17.1797 94.9704C17.6708 94.6538 18.1485 94.7855 18.6331 94.4671Z" fill="#6F71B0"/>
<path d="M21.1797 61.6758C21.819 62.0437 22.4681 63.6374 22.6462 64.3583C22.1068 64.0481 21.4216 62.3077 21.1797 61.6758Z" fill="#6F71B0"/>
<path d="M14.918 52.4219C15.5759 52.5111 16.6102 53.0349 17.157 53.4217C16.6375 53.3909 15.223 52.8328 14.918 52.4219Z" fill="#6F71B0"/>
<path d="M35.9554 33.5723C36.2606 33.5699 36.7898 33.6354 36.9905 33.8731C37.0959 33.9986 37.0113 34.3029 36.9691 34.4942C36.6222 36.0671 36.2206 37.6447 35.8568 39.2139C35.3375 41.4838 34.9279 43.7776 34.6302 46.087C36.3077 46.0812 38.4136 46.1337 40.054 46.4258C39.8908 47.514 38.9666 50.3285 38.6165 51.6133C38.2071 53.1161 37.676 55.8421 37.1819 57.1671C37.185 53.7714 38.1574 50.4902 39.0833 47.2413C37.2606 47.0207 35.4294 46.8707 33.595 46.7921C33.7571 44.1131 34.4627 41.0791 35.0609 38.4522C35.3374 37.2381 35.7499 35.8161 35.9056 34.6036C31.0043 34.7892 24.3922 36.7082 19.8558 38.6485C19.2163 38.922 17.7337 39.5159 17.2591 39.9415L17.2845 40.1202C17.5408 40.3508 17.4781 40.2809 17.8597 40.3682C17.8256 40.5773 17.8031 40.6218 17.8821 40.8223C18.2701 40.8612 18.3255 40.8449 18.4964 41.1768L18.2874 41.3409L18.2972 41.4678C18.6718 41.5349 18.8815 41.5508 19.054 41.8966C18.7296 42.882 19.6876 42.7075 20.0472 43.1192C19.8335 43.2752 19.8333 43.2887 19.7318 43.5421C19.4921 43.6563 19.3092 43.6827 19.2376 43.877C19.3541 44.1503 19.4567 44.3418 19.4944 44.6378L19.5902 44.795C19.9538 44.872 19.9298 44.8998 20.1273 45.2589L20.2601 45.2842C20.2797 45.0205 20.2386 44.9345 20.1673 44.6739C20.3725 44.7462 20.6214 45.0847 20.638 45.3155C20.4577 45.4042 20.3853 45.4212 20.1976 45.4737C20.137 45.7212 20.1366 45.5968 20.2347 45.8594L20.3675 45.9249C20.47 45.8117 20.5695 45.6996 20.6771 45.5909C20.9576 45.8071 20.9202 45.7163 21.0325 46.0059C20.9372 46.3161 20.8621 46.3854 20.6673 46.6436C20.6497 47.0672 21.3856 47.7635 20.8704 47.9512C19.4738 48.4586 18.7312 49.5009 17.6253 50.4561C18.1688 52.2637 19.0701 55.0372 19.4036 56.838C21.2952 57.3406 23.1956 57.8125 25.1028 58.252C26.2273 58.5097 28.0734 58.794 29.0521 59.2598C29.0421 59.749 28.0992 60.7483 27.8021 61.3116C29.3125 62.1608 31.5755 63.9614 32.9622 65.0919C39.3544 70.3032 45.1761 75.7948 49.514 82.8614L49.4808 82.7462C48.7935 80.4101 47.3583 77.7194 46.2816 75.5216C41.5703 65.9026 36.4241 59.1953 27.5638 53.1075C26.4972 52.3746 20.632 49.105 20.3235 48.7315C20.8391 48.13 22.5215 49.0303 23.0999 49.3194C27.9792 51.7583 32.4497 55.0703 36.3675 58.8565C43.3044 65.7025 48.2863 76.2654 50.9241 85.586C51.4742 87.5298 51.9444 89.5749 52.4368 91.5323C52.7588 92.8078 53.0055 94.4178 53.4105 95.6319C54.4628 95.6274 55.6317 95.6469 56.6741 95.6036C54.1318 90.7154 52.5446 85.4731 51.5228 80.0753C51.4253 79.5581 51.037 77.7818 51.179 77.3419L51.3323 77.2764C51.758 77.6485 52.2006 80.1494 52.3548 80.8106C52.8256 82.8167 53.2632 84.8196 53.9017 86.7842C54.8234 89.9062 56.1206 92.5152 57.4193 95.4288C58.3789 95.4576 60.5208 95.2895 61.1917 95.3643C59.4766 95.8983 57.818 95.8657 56.0443 96.1876C54.2875 96.1407 50.9178 96.3451 49.1898 96.6446C48.3341 96.6762 47.4234 96.8314 46.6263 96.8126C43.8757 97.2636 41.8441 97.9984 38.9993 97.293C38.7468 97.2308 37.3255 96.8452 37.2464 96.7159L37.4964 96.5645L37.4925 96.4727L36.9114 96.2266C35.5468 96.104 33.983 96.0638 32.6048 95.9962C31.6761 95.8735 30.0388 95.8433 29.0775 95.8487C28.0375 95.7251 24.6516 95.557 23.8626 95.2188C23.6243 95.0286 23.6062 94.9739 23.4417 94.7081C22.9941 94.6278 22.0323 94.64 21.5423 94.6319C21.3273 94.6463 21.183 94.6286 21.0169 94.7589C21.3083 94.8706 21.462 94.946 21.7376 95.0938L21.7767 95.2257C21.1893 95.7027 17.7433 95.6076 17.1478 95.1143L17.179 94.9698C17.67 94.6533 18.1476 94.7842 18.6321 94.4659C17.5929 94.4749 14.9296 94.2571 14.0052 93.9766L13.9359 93.9522C13.6172 93.89 13.4862 93.8787 13.2034 93.712C12.3114 92.1957 11.7585 90.5771 11.1185 88.9444C9.48022 84.7644 7.92024 80.518 6.0257 76.4444C3.69319 71.4625 1.07308 66.7287 0.118471 61.2374C-0.521364 57.5565 1.51614 57.7254 4.1673 56.4346C8.6462 54.2539 16.4493 51.4225 19.4261 47.3331C18.886 46.3512 15.8923 40.4392 15.8802 39.7344C15.9355 39.6247 16.0059 39.4911 16.1048 39.4132C16.9849 38.7198 18.6908 38.1103 19.7845 37.6964C20.9977 37.2371 22.3636 36.5814 23.5325 36.1944C27.5158 34.8759 31.7327 33.6078 35.9554 33.5723ZM16.805 51.0401C14.8533 52.398 12.3693 53.9087 10.1712 54.8253C12.1124 56.3872 13.8554 58.91 15.2112 60.9903C20.4058 68.9609 23.8486 77.8266 27.306 86.6368C28.4074 89.4439 29.5167 92.6322 30.762 95.3428C31.608 95.434 35.0476 95.636 35.8616 95.626C32.0592 86.1169 28.2788 75.5598 23.7191 66.5342C24.6039 66.5095 25.4651 68.5232 25.8245 69.2471C28.7936 75.2267 31.0758 81.5164 33.5247 87.7188C34.368 89.8314 35.7356 93.7458 36.7161 95.6319L41.0921 95.627C39.1647 90.4765 37.3738 85.2139 35.3773 80.1094C34.594 78.1169 33.786 76.1326 32.9544 74.1592C32.4457 72.9711 31.8299 71.6923 31.3734 70.4971C33.9914 73.3359 37.6917 84.2399 39.1253 88.0997C39.8391 90.0212 41.2114 93.65 41.8841 95.6514L46.3655 95.7227L46.4456 95.6212L46.4398 95.5801C44.3159 89.845 42.5364 83.9108 40.4974 78.1378C40.317 77.6263 40.1025 76.9463 39.9925 76.42C41.007 78.0775 41.89 80.5713 42.598 82.4258C44.2672 86.7925 45.6464 91.3395 47.2679 95.7178C49.0678 95.6989 50.8682 95.6906 52.6673 95.6924C51.8251 92.5771 51.1996 89.3984 50.3646 86.2803C50.0751 85.1979 49.7504 83.8873 49.1507 82.9356C46.5191 78.7574 43.1183 75.0462 39.5931 71.6094C37.9593 70.0173 36.2597 68.475 34.4954 67.0235C33.1878 65.9465 31.8655 64.8867 30.5296 63.8448C29.6511 63.1694 28.367 62.2668 27.598 61.5401C26.6569 62.6072 25.6795 63.6418 24.6683 64.6426C32.0565 68.3608 40.658 74.0731 46.2503 80.1915C47.4713 81.5283 48.9106 83.5798 49.9954 85.086C48.9864 84.3131 48.0446 83.0212 47.1663 82.0479C46.0138 80.7905 44.7967 79.5932 43.5189 78.463C38.7776 74.3371 33.5947 70.7475 28.0648 67.7608C26.3581 66.8302 24.5736 66.1069 23.0384 65.2735C24.0283 63.9016 25.0539 63.0135 26.0208 61.7686C24.8698 61.5041 20.0716 59.8354 19.0706 59.2833C18.7989 58.0685 17.457 51.517 16.805 51.0401ZM9.88117 55.0753C8.10718 55.8337 6.3944 56.7348 4.6048 57.4991C9.09927 60.6927 16.4766 75.238 18.9153 80.7022C20.1003 83.3578 21.4643 86.7778 22.5257 89.5479C23.0174 90.8316 23.9559 92.9931 24.3392 94.2305C24.0428 94.418 23.7568 94.552 23.4437 94.7071C23.6082 94.973 23.6254 95.0287 23.8636 95.2188C25.1434 95.0357 28.5584 95.2702 30.0003 95.3487C27.7089 89.9635 25.6533 84.2858 23.3948 78.8438C21.3668 73.9057 19.0494 69.0911 16.4554 64.4258C14.3651 60.6911 12.9589 58.1002 9.88117 55.0753ZM4.31964 57.6387C3.70632 57.9365 1.16322 59.006 1.11163 59.6075C0.988826 61.0452 1.48984 64.2952 2.16144 65.5264C1.86925 64.1607 1.73952 63.0844 1.85089 61.7003C2.00928 62.1021 2.35785 63.72 2.54523 64.3516C2.6107 64.9676 2.77126 66.3913 2.97296 66.9493L3.06671 67.2628C3.26438 67.2891 3.44509 67.305 3.64386 67.3214L3.67609 67.4424C3.55624 67.5955 3.39989 67.7492 3.37824 67.9307C3.7456 67.9953 3.96791 67.8084 4.08234 68.2208C3.78754 68.4267 3.81594 68.1404 3.7757 68.4151C3.73381 68.7019 3.87201 68.9296 4.04132 69.1417L4.39191 69.211C4.11668 69.6885 4.17091 69.4833 4.17218 70.0333C4.33009 70.3115 4.24125 70.2412 4.50226 70.377C4.59488 70.0502 4.38753 69.7032 4.88312 69.5186L4.94562 69.7022L4.65265 69.9551C4.66804 70.1545 4.67162 70.1748 4.72785 70.3673L4.6048 70.8321C4.6208 70.8372 4.63465 70.8408 4.64581 70.8448L4.64484 70.8555L4.6673 70.8526C4.66118 70.8503 4.65395 70.8477 4.64581 70.8448L4.65265 70.8057C4.93068 70.8106 4.82161 70.8448 5.05988 70.6466L5.17804 70.6905L5.23761 70.838L5.39777 70.8819C5.27498 70.9032 5.15168 70.9233 5.02863 70.9424L4.9339 71.0928L4.97394 71.17L5.17218 71.1934C5.2785 71.6322 4.93132 71.4398 5.45246 72.0548C5.80434 72.47 5.85306 72.4693 6.37824 72.5831L6.48663 72.835L6.36359 72.9053C6.17172 72.8356 5.95206 72.7222 5.77081 72.7784C6.07717 73.3444 6.82116 73.2814 6.79816 73.6143C6.76824 74.0421 6.17819 74.2105 6.61456 74.7344C7.23849 75.4837 7.24667 76.3512 7.64679 77.2051L7.7298 77.127C7.81993 77.0441 7.83292 77.0286 7.9505 76.9835C8.34141 77.5099 7.72737 77.5084 7.92218 77.9981C8.90371 80.4696 9.86847 82.969 10.7532 85.4766C11.314 87.1074 11.8851 88.734 12.4661 90.3575C12.8276 91.3812 13.3681 93.0573 13.9359 93.9512L14.0052 93.9757C14.8051 93.9234 15.9213 93.9415 16.7464 93.9298C15.575 91.451 14.5484 88.6413 13.4632 86.0967C10.1839 78.4096 6.96803 70.5161 5.24738 62.3126C5.11699 61.6909 4.84652 60.3134 4.96613 59.7061C5.30979 60.2394 6.39729 64.8577 6.69367 65.8721C7.27787 67.813 7.90021 69.7433 8.5589 71.6602C10.2848 76.6444 12.2553 81.4607 14.3382 86.3018C15.3791 88.721 16.4352 91.6013 17.5735 93.9483C18.992 93.9213 20.411 93.974 21.8235 94.1065L21.7679 94.1241C22.3371 94.2395 22.9233 94.1928 23.5052 94.1739C23.3731 93.4938 21.8868 89.8843 21.598 89.1719C20.6032 86.7185 19.2531 83.2401 18.1761 80.92C15.7311 75.6539 8.37857 61.0638 4.31964 57.6387ZM19.5589 57.6085C19.672 57.9877 19.7807 58.4043 19.9456 58.7589C22.1886 59.5758 24.272 60.2052 26.5657 61.0841L27.1839 60.4503C27.3979 60.2119 27.7439 59.8455 27.9232 59.6026C25.0758 59.0798 22.3834 58.2335 19.5589 57.6085Z" fill="#6F71B0"/>
<path d="M68.8465 64.181C68.1837 66.9847 67.3459 69.6371 66.4837 72.3822C66.2988 72.9732 65.7604 74.8911 65.5016 75.36L65.3681 75.3914C65.0434 74.7851 65.2518 73.5661 65.4448 72.9322C66.2005 70.5366 66.9067 68.1254 67.5614 65.7002C67.9149 64.3752 68.1765 62.9051 68.6445 61.6223C68.9367 60.8237 70.2453 60.3348 70.8315 61.2713L70.8387 61.4405C70.358 61.5158 69.9306 61.2553 69.6573 61.7333C69.1378 62.6446 69.8846 63.5295 70.4383 64.3944C72.8525 68.153 76.7088 72.1637 81.357 72.6912C81.5545 72.7136 81.7863 72.4057 81.8846 72.2757C82.9397 70.8788 79.841 69.1461 80.0006 68.4164C80.1972 68.3197 80.2901 68.2952 80.5047 68.3697C81.3552 68.6651 82.7278 69.924 83.0389 70.7839C83.5223 72.1207 79.4297 83.6431 78.6018 85.7503C78.0409 87.1791 77.4475 88.58 76.7116 89.9286C76.211 90.8469 75.0738 93.1904 74.061 93.4727C73.8942 93.5196 73.8915 93.5314 73.7454 93.4502C74.1232 92.6528 74.6301 91.8896 75.0792 91.1274C77.3293 87.309 78.7669 82.9278 79.9348 78.6674C79.8392 78.505 79.8383 78.505 79.7039 78.3733L79.7778 78.312C79.9988 78.1262 80.0809 78.0865 80.162 77.8132C79.969 77.2656 79.7165 77.676 79.8662 77.2755C80.2396 77.1474 80.3586 77.188 80.5327 76.9174L80.5219 76.7717L80.1629 76.7446L80.0592 76.5597C80.254 76.5593 80.3289 76.588 80.5128 76.6363L80.5958 76.5164C80.5327 76.3267 80.5327 76.3255 80.4227 76.1585C80.7149 75.7355 81.0377 75.8525 81.0612 75.0692C80.7618 74.7934 80.5652 75.1035 80.2603 74.8079L80.3108 74.7229C80.6481 74.7585 80.7888 74.7556 81.1108 74.8829C81.2884 74.0655 80.9367 74.7096 81.4634 73.7964C80.0926 73.5645 79.097 73.3122 77.8145 72.7484C77.6215 74.3933 77.1724 76.403 76.8351 78.0423C75.733 83.3941 74.2919 89.3955 70.6078 93.6234C71.1508 93.6793 73.0969 93.7037 73.3657 93.8615C72.5378 94.106 71.9507 94.1953 71.0858 94.189C70.5961 94.2277 69.7114 94.1736 69.1919 94.1565C69.0594 94.0347 68.989 94.069 68.7663 94.0428L68.7455 93.9175C67.9492 92.1954 66.7037 90.5095 65.8443 88.7749C63.9125 84.8771 63.3462 78.6385 63.237 74.2536C62.8673 74.3501 61.8274 74.5976 61.5298 74.7367C61.8653 76.3417 62.0746 78.2488 62.2504 79.8852C62.6986 84.0517 63.476 88.0541 64.5916 92.089C64.6953 92.4633 64.7711 92.8666 64.8108 93.2553C63.081 90.1397 61.8581 82.1592 61.4496 78.4635C61.3477 77.5452 61.0708 75.7426 61.2503 74.868C60.8075 74.7498 58.1858 75.5191 57.5788 75.6794C57.5843 81.6902 59.0344 87.8575 61.1195 93.4294C61.3603 94.0726 61.6083 94.6743 61.8013 95.3382C58.5123 90.275 56.8177 81.9076 56.8556 75.8635C55.4523 76.16 54.0815 76.5072 52.6484 76.5475C54.9842 75.4686 57.0495 75.0242 59.5313 74.4139C60.5901 74.1536 62.227 73.6797 63.2614 73.5455C63.2361 72.9106 63.2028 72.2761 63.1631 71.642C61.3964 72.1294 54.5099 74.0986 53.2924 73.731C53.5512 73.1197 58.1957 72.2193 59.1246 71.9901C60.7894 71.5792 62.5309 70.9427 64.1659 70.5669C64.0045 74.4408 64.3202 78.2921 64.6665 82.1385C65.0876 86.803 67.2764 89.9989 69.7917 93.793C73.8022 88.7505 74.8853 83.5574 76.2228 77.4172C76.4681 76.2873 77.0254 73.5255 77.3735 72.5403C75.4048 71.4151 74.5886 70.778 72.8958 69.2616C72.2438 72.6612 71.1048 76.3052 70.0442 79.6046C69.6086 80.9586 67.271 86.6803 66.3358 87.1855C66.0625 86.7913 67.1781 84.7914 67.4216 84.2475C68.1016 82.7528 68.7212 81.231 69.2794 79.6867C70.0595 77.5696 70.6674 75.5969 71.3014 73.4311C71.6919 72.0964 72.1924 70.3895 72.7335 69.1356C71.8308 68.1909 71.3266 67.6269 70.5582 66.5825C70.1181 65.9835 69.2794 64.6874 68.8465 64.181Z" fill="#6F71B0"/>
<path d="M68.7471 93.9183L68.7679 94.0437C68.9906 94.0699 69.061 94.0356 69.1936 94.1574C66.9002 94.198 64.6717 94.4045 62.3945 93.9932C63.8231 93.8498 67.3222 93.7497 68.7471 93.9183Z" fill="#6F71B0"/>
<path d="M86.8068 11.7871C88.2443 12.0114 89.2844 12.1822 90.5803 12.9463C93.67 14.7683 94.303 18.8244 94.2101 22.1221C94.0296 28.4859 90.5392 37.9872 82.9855 38.2764C81.063 38.3498 79.4644 37.2439 78.4435 35.6758C74.2049 29.2338 76.6792 17.7552 83.0607 13.5381C83.784 13.0626 84.5781 12.7026 85.4123 12.4697C85.7796 12.3666 86.8725 12.2391 87.0051 12.1221L86.8391 11.9941C86.8237 11.9535 86.8131 11.8366 86.8068 11.7871ZM83.8127 37.3613C94.4545 35.8645 97.0221 11.9109 87.1135 13.1123C83.9823 13.6203 82.2764 15.1732 80.507 17.6211C77.8998 21.3047 76.8243 25.8572 77.507 30.3184C78.0554 33.7045 79.7393 37.6462 83.8127 37.3613Z" fill="#6F71B0"/>
<path d="M88.4034 17.6738C88.9445 18.7071 83.5505 26.2627 82.673 27.4284C83.5902 26.709 86.9622 23.5157 87.9452 23.7112L88.0011 23.8862C87.8172 24.5347 83.7498 30.8111 83.1203 31.8035C82.8669 32.1395 82.3159 33.0639 82.0652 33.4568C82.3925 32.4139 82.8732 31.5622 83.3512 30.5883C84.0204 29.25 84.6616 27.8984 85.2758 26.5342C84.6914 26.9725 81.7784 29.2535 81.2066 29.0272L81.1309 28.7982C81.6188 26.5256 86.6953 19.6303 88.4034 17.6738Z" fill="#6F71B0"/>
<path d="M88.8312 14.0664C90.0839 14.3156 91.0381 16.7502 91.3303 17.8584C92.5802 22.5913 90.6791 28.6896 88.3262 32.761C88.7465 32.4365 89.0152 32.15 89.3318 31.8973L89.3814 32.0692C89.2921 32.3232 89.146 32.5361 89.0044 32.7661C87.7436 34.8206 86.2682 36.3227 83.8512 36.9016C83.5969 36.9281 83.1009 36.9456 82.9043 36.7839L82.9503 36.655L83.1144 36.5795L83.4193 36.7663C83.5527 36.464 83.4247 36.0109 83.6086 35.8064C83.6655 35.8524 83.7241 35.8972 83.7827 35.9409C84.5736 36.5277 85.0146 35.3885 85.4692 34.9002C85.5395 34.8241 85.8975 34.7782 86.0157 34.7609C86.3476 34.4734 87.575 32.9113 87.7806 32.5188C87.7247 32.4211 87.6769 32.3329 87.6264 32.2329C87.7418 32.1702 88.117 31.9676 88.1756 31.8673C90.304 28.221 91.6739 23.7341 91.2536 19.4924C91.0498 17.4296 90.3987 15.339 88.8312 14.0664Z" fill="#6F71B0"/>
<path d="M85.9605 13.998L86.1139 14.0155C86.0291 14.1176 86.0931 14.061 85.984 14.1199C82.796 15.8455 81.1591 18.4307 79.7342 21.5323L79.6683 21.6059C79.6332 21.3813 80.0056 20.3789 80.1229 20.1241C81.4531 17.2386 82.9817 15.2225 85.9605 13.998Z" fill="#6F71B0"/>
<path d="M92.0103 26.3281C92.0265 26.7534 91.443 28.33 91.1644 28.6261C90.8442 27.9939 91.6667 26.9169 92.0103 26.3281Z" fill="#6F71B0"/>
<path d="M34.5541 0.0253906C36.4293 0.375004 40.8974 8.1269 42.1918 10.0459C45.4682 9.5873 58.3427 9.13851 50.6283 15.0713C49.1684 16.194 47.7838 17.0454 46.0434 17.6562C47.1255 16.4858 52.8347 13.3333 52.14 11.5908C50.9361 10.0141 45.4322 10.5582 43.6732 10.7324C35.8752 11.5047 28.8075 13.7665 21.7543 17.1045C18.3323 18.8487 11.6141 22.6983 9.68105 25.9297C11.4085 27.1215 13.9203 26.8781 15.9447 26.9805C16.5475 27.0109 17.2401 26.9474 17.8266 27.0889L17.7807 27.1875C16.7157 27.5126 7.99845 27.8178 8.89687 25.7979C10.0814 23.1355 14.7899 20.0743 17.2934 18.5645C16.7405 15.5342 16.2395 10.5016 16.6977 7.46875C16.995 5.50008 24.474 3.73592 26.3314 3.5C27.5404 3.34649 29.4654 3.50813 30.6508 3.15039C32.1099 2.70983 33.3442 0.604373 34.3275 0C34.4051 0.00504913 34.4776 0.0112453 34.5541 0.0253906ZM37.5639 7.74805C37.2642 7.74005 36.8972 7.77532 36.5951 7.80273C30.3654 8.41775 22.9475 11.9436 17.9125 15.6143L17.8734 15.7148C18.1522 15.7069 18.4531 15.6499 18.6684 15.7617C18.3526 16.0239 17.5796 16.3527 17.9144 16.8193C18.4532 16.7471 18.5879 16.2097 19.1185 16.1807L19.1713 16.3369C18.7875 17.0726 17.9943 16.8063 17.9232 17.5918L18.0316 17.8359C18.3092 17.8332 18.47 17.6745 18.7426 17.5137C26.3462 13.546 32.4902 11.3305 41.0805 10.0938L41.0131 10.0254C40.6056 9.60893 40.5763 9.43759 40.2582 9.04785C39.5926 8.24268 38.6081 7.76816 37.5639 7.74805ZM39.183 6.89746C38.6901 6.22363 35.6714 1.48624 34.8402 2.00293L34.9389 2.14453L34.9037 2.22266L34.5355 2.10742C34.5271 2.36307 34.8863 2.39405 34.8978 2.63965C34.3954 2.45172 34.3352 2.32775 33.9135 2.44238C34.0414 2.57617 34.0895 2.63583 34.1977 2.7793C33.9131 2.73871 33.7593 2.70288 33.4672 2.7373C33.6163 3.07256 34.1713 3.15611 34.2562 3.41992C33.699 3.18396 33.3927 3.06942 32.8109 2.9082L33.6576 3.69141C33.042 3.49184 33.0122 3.37062 32.4574 3.71875C32.4394 3.76464 32.3945 3.89211 32.3695 3.92676C32.1752 3.94182 32.1159 3.92991 31.9603 4.0498C32.0656 4.39058 32.5659 4.70787 32.8832 4.96484C31.9801 4.53745 31.6534 4.37921 30.7006 4.14648C31.086 4.36568 31.3503 4.52609 31.7133 4.7793L31.6937 4.82129C30.734 4.54351 30.1174 4.34975 29.1 4.30664C25.7815 4.1661 20.3874 5.41826 17.935 7.75195C17.592 9.63617 17.5992 12.5633 17.6762 14.4561C18.7416 13.7288 20.2555 12.5905 21.3393 11.9678C25.3731 9.64976 34.6629 5.89955 39.183 6.89746Z" fill="#6F71B0"/>
<path d="M49.5557 47.7227C52.9834 50.2312 54.124 52.969 56.5986 56.3848C55.4922 57.0347 54.6271 57.4339 53.4512 57.9502C54.8408 58.495 56.6164 58.9317 58.0908 59.3262C57.9943 60.3563 57.647 61.4391 57.3584 62.4287C56.0967 66.7409 54.0415 70.8274 51.8672 74.7451C51.4154 75.5598 50.5025 77.3705 49.8955 78.0137L49.7812 78.0449C49.5298 77.6897 49.722 75.019 49.7373 74.3818C49.777 72.4346 49.7807 70.4865 49.75 68.5391C49.6273 63.5872 48.9852 56.6099 47.6523 51.8037C48.9519 52.721 49.3543 53.2734 49.5176 54.9189C49.8738 58.5081 51.1507 62.672 51.2256 66.2295C50.7991 65.4509 50.5425 64.5646 50.2891 63.7139C50.2241 65.1378 50.3702 66.6762 50.4072 68.1104C50.4776 70.8017 50.5073 73.9839 50.0654 76.6367C50.5199 75.6859 51.0672 74.613 51.3838 73.6133C52.8529 68.9651 53.3932 63.941 54.5908 59.2441C54.1061 59.0443 52.3863 58.4047 52.083 58.1172C51.798 57.1738 54.8297 57.0245 55.084 55.8594C54.9395 55.2298 52.6378 52.2751 52.1016 51.6025L51.8828 51.46C50.972 50.0301 50.0336 49.3799 49.5557 47.7227ZM54.7109 59.2676C54.3863 62.734 53.1393 69.7766 52.0859 73.1084C52.3943 72.5357 52.702 71.9872 52.959 71.3887C54.5526 67.9026 56.1391 63.7394 56.9219 59.9707C56.1789 59.7571 55.4413 59.5226 54.7109 59.2676Z" fill="#6F71B0"/>
<path d="M43.9773 53.226C44.0954 53.2128 44.2136 53.2041 44.3326 53.1998C44.9856 53.1792 45.487 53.7546 45.7458 54.3042C47.6009 58.2379 48.5677 62.6912 48.5758 67.0294C48.0446 66.4547 47.3935 65.6061 46.8875 64.9835C47.3592 66.2043 48.1709 67.1976 48.5479 68.3913C48.1014 68.0536 47.4665 67.4189 47.04 67.0107C47.5243 67.8746 48.0275 68.5167 48.4712 69.4562C47.8219 69.0485 47.1662 68.2155 46.4258 67.6486C46.8479 68.2444 47.6893 69.2317 47.9427 69.8841L47.8498 69.9358C47.2339 69.6214 46.8713 69.2039 46.3473 68.7296C46.7496 69.3719 47.2943 69.9621 47.5134 70.7094L47.444 70.8263C47.1545 70.7761 47.0084 70.5621 46.7911 70.3392L46.681 70.2122L46.6269 70.2457C46.8217 70.6824 47.1897 71.1909 46.8668 71.5835L46.7234 71.5645C45.9433 70.7973 44.8097 68.5102 44.1604 67.4927C43.3478 66.2199 42.6182 65.2135 41.6992 64.0097C41.8318 62.806 42.2881 53.6569 43.0619 53.5183C43.2044 53.7605 43.1602 54.7644 43.19 55.1347C43.346 57.0984 43.8095 59.0243 44.2 60.9522C44.338 58.9894 44.0702 55.3189 43.9773 53.226Z" fill="#6F71B0"/>
<path d="M79.3108 46.5891C78.8238 46.8489 76.3536 48.765 76.1264 47.6018C75.6899 45.3657 79.0475 43.2293 81.0387 43.2176C82.2716 43.2103 82.6287 43.1838 83.7822 43.683C84.0735 45.0718 83.8444 45.8629 83.4097 47.1547C85.1503 48.9612 85.2233 49.9581 84.2872 52.2034L84.3233 52.2447C85.4596 53.5478 85.1404 53.9264 84.6209 55.4344C84.4342 55.9765 84.5911 57.0712 84.3305 57.4861C83.5071 58.7929 82.6476 60.1092 81.7719 61.3843C81.4184 61.8946 80.4327 62.905 80.3092 63.3679C79.7527 65.4469 78.721 68.765 78.3864 70.7965L77.3421 69.7878L78.5704 65.728C78.7481 65.1297 79.2224 63.3971 79.502 62.9499C80.3137 61.6551 81.1352 61.1339 81.7999 59.6325C81.1028 59.2326 80.7069 59.1071 79.9538 58.8412C80.7646 58.824 81.248 58.87 82.0551 58.953C82.3915 58.6512 83.7344 57.241 83.4025 56.6772C83.2131 56.3556 82.2301 56.0924 81.8414 56.0102C80.3389 55.6919 78.4658 55.7244 77.1094 56.5338C76.3672 57.0003 76.2941 57.4669 76.1444 58.254C77.1725 58.2407 78.8779 57.8862 80.0575 57.7925C79.0908 58.3379 76.4294 59.3334 75.2741 58.8163C74.9846 58.6867 74.935 58.0554 74.8773 57.7417C77.4494 54.9521 79.5832 54.153 83.2546 55.7345C85.3595 52.9811 83.021 52.7385 80.6789 52.2029C80.5563 52.5824 80.4399 53.0778 80.1676 53.3496L80.0305 53.3192C79.9078 52.974 80.0188 52.5275 80.0756 52.1537C78.997 52.2689 75.1993 53.7221 75.8901 55.1438C76.111 55.2112 76.0488 55.1881 76.3058 55.1272L76.4456 55.2265C76.0118 55.507 75.6475 56.0092 75.0965 56.0035C74.5878 55.6796 74.5869 54.5378 74.8575 54.1485C75.579 53.11 77.3439 52.2841 78.5027 51.8314C80.3046 51.1279 81.7476 51.1572 83.4972 51.9677C83.7885 51.2441 83.9093 50.714 84.0951 49.9575C83.2862 49.5017 81.1289 48.0218 80.1207 48.4963C79.6724 48.7072 80.0323 49.3682 79.4822 49.6446C79.2459 49.3253 79.5795 49.0491 79.3649 48.5861C78.4676 48.6931 77.1987 49.2558 76.5791 49.9525C76.3022 50.2641 76.0091 51.1115 76.3942 51.4177C76.6801 51.3556 77.7858 50.651 78.1682 50.4471C78.1267 50.5002 78.0834 50.5523 78.0401 50.6034C77.7236 50.9795 76.6071 52.1104 76.1183 52.1244C75.9316 52.1304 75.7503 52.0567 75.6213 51.9217C75.4301 51.72 75.3436 51.4009 75.3643 51.1271C75.4906 49.4596 77.2519 48.6345 78.5704 47.9965C79.2143 47.7002 80.0584 47.3659 80.7826 47.431C81.6646 47.5101 82.902 48.4463 83.738 48.5151C83.765 48.3413 82.7838 47.4101 82.8019 47.2454C82.9092 46.2291 83.2086 45.4673 83.2266 44.4005C83.0147 44.3734 82.8028 44.3478 82.5908 44.3237C81.7521 44.2287 79.3424 44.0114 78.748 44.7435C78.4892 45.1876 78.4297 45.7469 78.0708 46.1385C77.6153 46.6357 76.8659 46.2922 76.8352 47.1116L76.9624 47.2385C77.8525 46.9128 78.3702 46.691 79.3108 46.5891Z" fill="#6F71B0"/>
<path d="M53.6094 50.2988C55.6827 50.8449 63.362 52.9972 65.0692 54.4414C65.6012 54.8913 67.4708 64.4465 66.7349 64.8762C66.4878 64.6673 66.375 64.303 66.2894 63.9901C65.4714 61.0099 64.9934 57.7731 63.8724 54.8807C63.1383 54.5935 62.4069 54.3015 61.6764 54.0046C63.527 56.9038 64.3612 62.4304 64.7806 65.8753C64.8644 66.5655 65.2567 69.9423 64.8644 70.4359L64.7869 70.258C64.7201 69.788 64.6787 69.2824 64.6309 68.8079C64.124 63.7644 63.4188 58.6235 61.3932 53.9326C59.8132 53.4581 58.428 52.9478 56.801 52.5214C59.0601 55.2603 60.3299 60.1996 60.7989 63.7029C60.8548 64.1192 60.9775 64.7957 60.8729 65.1905C60.8981 65.21 58.9131 56.5287 58.1096 55.6819C58.0997 55.6719 56.6098 52.6027 56.5259 52.4138C55.8342 52.2114 55.1425 52.005 54.4535 51.7942C54.1703 51.3646 53.8619 50.76 53.6094 50.2988Z" fill="#6F71B0"/>
<path d="M17.8906 24.4068C19.9219 20.8651 28.6308 17.4123 32.3919 16.3066C31.5854 16.9879 30.5302 18.102 29.7092 18.6049C30.585 18.3815 30.8807 18.3827 31.7833 18.4873C31.1353 18.738 30.7131 18.8987 30.0976 19.2337C30.4808 19.2824 30.9444 19.3165 31.2919 19.4607C31.1311 19.6897 30.5804 19.8547 30.2846 19.9697C30.4592 20.0592 30.7302 19.927 30.9851 19.8629L31.1008 19.9436L30.774 20.1799L30.8494 20.2763L31.309 20.2991L31.3309 20.4034C31.0619 20.6466 30.7895 20.8858 30.5137 21.1212L31.9792 20.7517C31.6974 21.0758 31.3338 21.2688 31.1952 21.4848C31.3737 21.5117 31.3973 21.4984 31.5563 21.5796L31.2004 21.899C31.4131 22.0955 31.6285 21.7136 32.1221 21.8285L32.1266 21.9292C31.878 22.1435 31.2772 22.575 31.2888 22.8958C31.7365 23.078 32.1306 22.6359 32.4928 22.8778C32.0733 23.2701 31.3195 23.3751 30.8247 23.7583C30.7755 23.7529 30.7264 23.7476 30.6772 23.7421C30.4578 22.8541 30.2208 21.8591 29.5713 21.1777C29.5535 21.1599 29.5357 21.1423 29.518 21.1245C29.5455 20.9996 29.6062 20.9046 29.6746 20.7977L29.5487 20.6919L28.9141 20.7712C29.2865 20.577 29.2539 20.664 29.4301 20.3443C29.4831 19.9451 29.2464 19.4829 28.8772 19.3113C29.0371 19.0924 29.0596 19.0784 29.1134 18.8199C28.9818 18.563 28.9555 18.3521 28.9069 18.0723C27.3608 17.7275 20.0047 22.4837 19.0822 24.3055C19.0587 24.3518 18.9995 24.4435 18.9732 24.4902C19.202 25.406 20.3696 27.4038 20.7639 28.419C20.8997 28.7686 21.5272 29.4325 21.5399 29.6676L21.3978 29.8902C21.497 30.1982 22.4138 31.7785 22.6711 32.3039C22.8426 32.3352 22.7543 32.3367 22.935 32.2462C22.9516 32.49 22.944 33.0288 23.0581 33.1854C23.4378 33.137 23.7553 33.0998 24.0517 32.8574L23.9256 33.2015C23.6846 33.29 23.6388 33.2986 23.3833 33.335C23.1974 33.5899 23.2399 33.4503 23.2573 33.7701C23.4528 34.0055 23.3678 33.9766 23.6054 34.0105C23.7721 33.8402 23.7743 33.7937 23.8481 33.5735L23.9929 33.5299C24.1788 33.6895 24.338 33.8465 24.5561 33.9557C24.7058 33.8613 24.703 33.8728 24.8297 33.752L25.0302 33.861L24.9989 34.0053C24.6929 34.2215 24.3014 34.2602 23.9271 34.333L23.9571 34.3081C23.7486 34.3374 23.6076 34.4395 23.5592 34.6372C23.6816 34.8476 23.6706 34.8401 23.8911 34.94C24.4325 34.8471 24.4895 34.2298 25.0303 34.2688L25.2445 34.5245C24.977 34.7662 23.6117 35.8587 23.3345 35.945C22.6533 35.4893 18.1998 25.5709 17.8906 24.4068Z" fill="#6F71B0"/>
<path d="M71.4368 63.5241C71.5135 62.4831 72.115 60.044 71.9653 59.2512C71.7317 58.0177 70.8786 56.3778 70.9561 54.7932C71.0093 53.7054 70.8452 52.6058 71.2159 51.4719C72.0311 49.5226 73.062 48.6229 74.0305 46.6323C74.6916 45.2749 74.4003 41.9267 76.0173 41.8654C76.3492 41.8527 77.628 42.7772 77.8643 43.094L77.83 43.2418C77.2402 43.6699 76.6513 42.7461 75.855 42.7093C75.4501 42.9734 75.3211 44.3441 75.285 44.841C75.0902 47.5459 72.9474 49.2943 72.1258 51.5073L73.1206 50.8976L73.5273 51.3037C72.0041 52.3986 73.1007 52.0964 72.7454 53.0315L72.4631 53.1203C72.4523 53.4704 72.7445 53.7775 72.7481 54.3218L72.6832 54.391L72.5118 54.3788L72.4117 54.6802C72.5046 54.799 72.5064 54.805 72.6246 54.8965C72.5479 54.9663 72.4875 55.0197 72.4063 55.0841C72.5109 55.2599 72.4902 55.2085 72.7138 55.3122C72.6345 55.5895 72.4514 55.5127 72.4622 55.5728C72.5272 55.9311 72.9646 56.4254 72.8437 56.7107L72.6218 56.7105C72.5515 57.0498 72.6724 57.8086 72.8031 58.1241C73.034 58.1866 73.0737 58.1917 73.3127 58.2128L73.3325 58.3475C72.8013 58.8666 73.0484 59.322 73.3055 59.9667L73.0746 60.9209C73.0502 61.4223 72.9213 61.5106 73.374 61.7861L73.4065 61.9509C73.2649 61.965 73.2054 61.9693 73.071 62.0228C73.1639 62.2866 73.1837 62.2977 73.3722 62.5122L73.0827 62.5757C72.9014 62.9912 73.0088 63.0778 72.8672 63.5144L72.7445 63.637L72.5082 63.5681C72.474 63.8705 72.5407 63.9402 72.6796 64.2291C72.6408 64.3868 72.6507 64.3811 72.5335 64.4916L72.3279 64.7812C71.9924 64.3678 71.7308 63.9654 71.4368 63.5241Z" fill="#6F71B0"/>
<path d="M61.9606 65.9043C62.2718 65.9505 62.1735 65.8963 62.4071 66.0787C62.6884 66.6662 62.8598 69.4824 62.4305 69.887C62.0643 69.5558 61.8903 68.1981 61.7893 67.6634C61.6134 68.4526 61.5241 69.6085 61.4087 70.4589C60.7413 70.7086 59.3931 70.9995 58.677 71.1561C56.995 71.5238 55.6026 71.8403 53.9766 72.3881C54.3526 71.7397 54.9028 71.1014 55.3762 70.5123C55.9823 69.7531 58.4759 66.4315 59.1983 66.3322L59.3173 66.4693C59.357 67.267 58.1593 69.648 57.7571 70.4348C58.7401 69.5654 59.2975 68.977 60.1425 67.9539C60.6322 67.3623 61.4258 66.3657 61.9606 65.9043Z" fill="#6F71B0"/>
<path d="M48.002 43.335C48.3789 43.908 48.6281 49.7023 48.8184 50.8799C48.8435 51.0369 48.712 51.0982 48.6074 51.1719C47.794 51.0799 47.6898 50.0276 47.1279 49.7949C46.9155 49.8423 46.8775 49.8562 46.6504 49.8438L46.5176 49.626C45.3921 47.944 45.0568 47.2924 43.3027 46.2949C44.0822 45.6396 46.8943 43.8337 47.8125 43.2949L48.002 43.335ZM47.1211 44.835C46.433 45.3594 45.6558 45.9823 44.9551 46.4727C45.4493 47.0263 46.0765 47.6973 46.5156 48.2734C46.8149 48.6357 47.0721 48.946 47.3984 49.2832C47.3542 48.7359 47.2095 44.9678 47.1211 44.835Z" fill="#6F71B0"/>
<path d="M41.7383 13.5137C43.1199 13.749 44.6711 15.6864 45.205 16.9263C45.0246 17.4919 44.9335 17.7351 44.6657 18.2631C46.3846 19.962 48.0224 21.4086 49.5402 23.3426C51.177 25.4278 48.8999 25.6718 47.3351 26.5598C47.8104 27.5166 48.2848 29.4888 48.4715 30.5624C47.8889 30.5415 47.7374 30.5952 47.1809 30.7868C45.9824 31.2001 44.9741 31.4075 43.7061 31.4452C43.248 31.7753 42.6473 32.3137 42.0684 32.0924C42.402 31.588 42.8007 31.2558 43.266 30.8806C45.0553 30.543 45.398 30.9473 47.5281 30.023C47.4307 29.0841 47.0926 27.7677 46.7697 26.8889C46.225 26.8855 45.5711 26.9396 45.0192 26.9711C46.4595 26.0534 47.9178 25.6874 49.3968 24.5738C48.3425 22.8744 45.2338 19.7464 43.6601 18.3489C43.9045 17.9616 44.111 17.5518 44.3239 17.1463C43.7142 15.7038 42.7438 14.6814 41.7383 13.5137Z" fill="#6F71B0"/>
<path d="M41.4843 46.7715C42.7956 47.0683 43.6569 47.5056 44.4162 48.6658C44.9249 49.4428 45.6193 51.6067 45.1197 52.4227C44.8464 52.5487 44.9799 52.5428 44.7084 52.4638C44.5281 52.2131 44.3441 51.9652 44.1565 51.7203C44.06 52.0135 44.2936 52.0857 44.143 52.3853C43.7299 52.2413 42.8064 50.7374 42.3158 50.2413C42.5341 50.6666 42.9534 51.3905 43.0175 51.8327L42.9742 51.959L42.663 51.9173C42.8064 52.2103 42.9093 52.3531 42.8551 52.6803C42.0868 53.0008 40.5969 50.6609 40.3273 49.9973C40.3038 49.9383 40.2804 49.879 40.2578 49.8195C40.5554 48.7866 40.8449 47.6468 41.4843 46.7715Z" fill="#6F71B0"/>
<path d="M41.8906 50.6016C42.2703 51.0314 42.6743 51.6315 42.9756 51.9579L42.6644 51.9162C42.3713 51.4542 42.1467 51.0838 41.8906 50.6016Z" fill="#6F71B0"/>
<path d="M80.2694 14.0156L80.3596 14.1991C79.4027 14.9941 77.0083 18.107 77.0687 19.3586L77.1788 19.4305L77.4881 19.2011C77.305 19.6315 77.0633 20.1036 77.0561 20.572C76.0749 21.4554 76.7278 23.7155 75.4824 24.6111C75.1415 24.8565 75.1866 25.9156 75.1848 26.3785C74.4588 27.3216 75.1577 27.1186 75.1902 27.579L75.0062 27.4743L74.9115 27.5121C74.9034 27.6091 74.8989 27.7062 74.8962 27.8035C74.8006 31.0455 75.9513 34.5337 78.2213 36.8965C74.4723 34.9009 73.7111 28.4077 74.3957 24.6506C75.0251 21.1905 77.2698 16.0672 80.2694 14.0156Z" fill="#6F71B0"/>
<path d="M48.7338 33.1271C49.1081 33.0838 49.2325 33.035 49.4968 33.3158C49.8025 34.5782 50.4031 36.0993 50.3346 37.3973C50.3129 37.8214 50.1975 38.2029 49.8728 38.4925C48.5832 39.6433 41.5488 40.554 39.7343 40.4021C39.1078 40.3496 37.6383 39.9499 37.2422 39.4774L37.3949 39.3337C38.0307 39.3931 39.1733 39.5601 39.7712 39.578C40.9427 39.6133 45.3402 39.0357 46.1798 38.5476C45.9264 38.2377 45.8632 38.5208 45.5611 38.1913C45.7307 38.0486 45.7902 38.0901 46.0607 38.0589C46.5604 38.5901 48.8213 37.863 49.3471 37.5143C49.4914 36.6844 48.7194 34.7444 48.5543 33.8248C48.4786 33.4044 48.4542 33.5905 48.7338 33.1271Z" fill="#6F71B0"/>
<path d="M25.6874 22.8411C27.1743 22.7399 28.1152 22.9793 28.9874 24.2139C28.8759 24.3431 28.7202 24.5377 28.5665 24.612C28.095 24.7336 27.6573 24.0949 27.1332 23.9278C24.3587 23.0435 24.0908 25.3808 25.0349 27.2884C25.1373 27.4955 25.4573 27.5083 25.6816 27.5516C25.8685 27.8813 25.6039 28.334 25.7562 28.5473C26.4904 29.5766 27.3199 30.2456 28.4043 30.7009C29.5314 30.7348 29.3497 30.1341 30.074 30.0379L30.1997 30.1649C30.2193 30.3651 30.225 30.4322 30.1516 30.6265C30.0015 31.0145 29.7009 31.3255 29.3182 31.4886C27.2542 32.3694 24.7886 29.4084 24.1675 27.7163C23.3321 25.4403 23.2297 23.8805 25.6874 22.8411Z" fill="#6F71B0"/>
<path d="M41.8893 69.8144C35.5588 62.6412 28.3136 56.6923 19.531 52.7672C19.1823 52.6113 18.8836 52.4937 18.5586 52.2892L18.6516 52.2227C19.3915 52.3553 21.8767 53.5069 22.6384 53.8696C30.2934 57.5539 36.9762 62.9848 42.1482 69.7251L41.8893 69.8144Z" fill="#6F71B0"/>
<path d="M37.5666 15.5566C39.3302 15.6508 40.6293 16.6504 42.3545 16.7555C42.4636 16.7621 43.2825 16.2779 43.4376 16.1876L43.4999 16.2621C43.204 17.5095 42.1795 17.6484 41.0973 17.5457C39.9006 17.3174 38.7916 16.8825 37.6108 16.6049C36.3669 16.3124 35.7473 16.6487 34.8281 17.4413C35.5943 16.0396 35.9443 15.7091 37.5666 15.5566Z" fill="#6F71B0"/>
<path d="M37.408 18.9696C38.3186 18.9331 40.7116 18.6806 41.3131 19.1766C41.59 19.7709 41.1364 20.3877 40.7098 20.8089C39.4687 21.4465 37.1512 20.1142 37.1289 19.1082L37.408 18.9696Z" fill="#6F71B0"/>
<path d="M47.8013 31.0554C48.4768 30.868 53.5867 31.9202 53.9267 32.2703L53.8419 32.7899C53.593 32.9068 53.381 32.7952 53.0537 32.7262C50.6232 32.3457 48.4696 31.7505 45.9922 31.4826C46.5676 31.3232 47.2151 31.1895 47.8013 31.0554Z" fill="#6F71B0"/>
<path d="M78.028 59.4375C78.1155 59.9851 77.8665 60.9695 77.7439 61.5403C76.9854 61.884 75.832 61.8916 75.2836 61.14C75.1123 60.9054 75.2259 60.6764 75.29 60.4197C75.5127 60.1675 75.786 59.7972 76.0755 59.669C76.3036 59.925 76.0484 60.5294 76.3027 61.0832C76.5661 61.2849 76.4371 61.2366 76.8114 61.2329C77.2127 60.8414 77.5013 60.0798 77.9612 59.5183L78.028 59.4375Z" fill="#6F71B0"/>
<path d="M43.2996 41.3477C43.9606 41.5376 44.205 42.3696 44.1266 43.0015C44.0057 43.9739 43.7207 44.2437 42.974 44.8342C42.9271 44.8634 42.7639 44.9305 42.7034 44.9573L42.6484 44.8199C42.7413 44.3365 43.0696 43.6684 43.2761 43.2002L43.2148 42.8276C43.1111 42.1863 42.9497 41.8331 43.2996 41.3477Z" fill="#6F71B0"/>
<path d="M28.6471 26.1602C28.8492 26.1583 28.9365 26.2077 29.1227 26.2791C29.1007 26.6472 28.8509 27.3287 28.8832 27.5662C28.9263 27.8829 29.5288 28.498 29.4442 28.8873L29.2261 28.9168C28.1543 28.2904 26.6941 26.7978 28.6471 26.1602Z" fill="#6F71B0"/>
<path d="M26.6302 24.7247C26.8954 24.7246 27.001 24.6833 27.1691 24.8671C27.1012 25.0272 26.2329 27.3029 26.2859 27.2323C25.3323 26.072 25.0292 25.3184 26.6302 24.7247Z" fill="#6F71B0"/>
<path d="M77.5215 41.5345C78.344 41.4772 80.5806 41.4278 80.9819 42.2106C80.0178 42.2702 79.1872 41.9992 77.9941 42.1838L77.8741 42.2032C77.6577 42.0404 77.6162 41.8027 77.5215 41.5345Z" fill="#6F71B0"/>
<path d="M79.0096 38.4902C79.2883 38.5505 79.3568 38.5642 79.6156 38.6767C79.8357 39.1598 79.2567 40.1667 79.0294 40.8513C78.8058 40.9023 78.776 40.8857 78.5596 40.8379C78.363 40.3921 78.8518 39.0726 79.0096 38.4902Z" fill="#6F71B0"/>
<path d="M42.6347 20.8477C42.7032 21.0773 42.5183 21.4991 42.384 21.7026C41.8041 22.5837 40.8481 22.8608 39.8795 23.0912L39.8633 23.0121C39.9363 22.8986 40.849 22.4125 41.0934 22.2256C41.676 21.7798 42.1089 21.3568 42.6347 20.8477Z" fill="#6F71B0"/>
<path d="M81.0125 38.8262C81.183 38.9164 81.4084 39.0053 81.4255 39.2031C81.4761 39.7928 81.072 40.6486 80.7591 41.1176L80.4488 41.0298C80.3009 40.6157 80.8502 39.3559 81.0125 38.8262Z" fill="#6F71B0"/>
<path d="M55.0938 32.3993C55.4951 32.3954 56.5205 32.3286 56.6693 32.7165L56.4411 33.0737C56.1002 33.424 55.2435 32.8194 55.0938 32.3993Z" fill="#6F71B0"/>
<path d="M51.8846 51.459L52.1028 51.6017C51.4706 52.4561 51.3534 53.8254 50.7022 54.8002L50.6562 54.7405C50.8285 53.5998 51.4427 52.5343 51.8846 51.459Z" fill="#6F71B0"/>
<path d="M21.375 46.5215C21.5638 46.5736 22.1839 46.8986 22.4239 47.0098L22.2991 47.2495C21.9152 47.4592 21.8916 47.4518 21.554 47.2128C21.401 46.9048 21.3856 46.8644 21.375 46.5215Z" fill="#6F71B0"/>
<path d="M86.8389 11.9937C86.3077 11.9483 84.8061 12.0223 84.623 11.9782C85.2489 11.6809 86.1418 11.6373 86.8073 11.7864C86.8136 11.8359 86.8236 11.9531 86.8389 11.9937Z" fill="#6F71B0"/>
<path d="M73.1191 50.8963C73.4285 50.7373 73.6503 50.5697 73.9759 50.6236L74.0544 50.7526C73.9164 51.0625 73.8027 51.1066 73.5259 51.3024L73.1191 50.8963Z" fill="#6F71B0"/>
<path d="M41.8906 69.8139L42.1495 69.7246C42.6915 70.4216 43.017 70.8671 43.4653 71.6335L41.8906 69.8139Z" fill="#6F71B0"/>
<path d="M27.2496 28.1934C27.4711 28.3607 27.8399 28.9279 27.8231 29.2172C27.3283 29.0482 27.0382 28.7036 27.2496 28.1934Z" fill="#6F71B0"/>
<path d="M81.8711 13.0781C81.4391 13.4992 80.8619 13.8596 80.3578 14.2009L80.2676 14.0174C80.6662 13.6849 81.3931 13.3322 81.8711 13.0781Z" fill="#6F71B0"/>
<path d="M32.4993 24.0938C32.6006 24.1841 32.5553 24.138 32.595 24.3094C32.3992 24.4815 32.2048 24.6552 32.012 24.8306L31.8633 24.583C32.024 24.2757 32.1469 24.288 32.4993 24.0938Z" fill="#6F71B0"/>
<path d="M30.1382 33.459L30.2739 33.5156C30.022 33.8513 29.7788 33.7447 29.6241 34.2043L29.5374 34.1508C29.5196 33.8456 29.4854 33.9419 29.6135 33.693C29.8419 33.6368 29.9446 33.5929 30.1382 33.459Z" fill="#6F71B0"/>
<path d="M20.8631 26.0332C21.0981 26.5341 20.9653 26.7345 20.7192 27.1664C20.6335 26.6611 20.5274 26.4425 20.8631 26.0332Z" fill="#6F71B0"/>
<path d="M76.3066 55.1285C76.5736 54.9061 76.7179 54.74 77.0543 54.6699L77.149 54.7592C77.0209 55.041 76.7413 55.1756 76.4464 55.2278L76.3066 55.1285Z" fill="#6F71B0"/>
<path d="M72.3262 64.7799L72.5318 64.4902L72.5516 64.5463C72.6923 64.9495 72.8195 64.9053 72.8276 65.3669C72.6238 65.3158 72.484 65.0059 72.3262 64.7799Z" fill="#6F71B0"/>
<path d="M49.19 96.6448C50.9179 96.3453 54.2872 96.1414 56.0441 96.1884L56.1505 96.219C56.8728 96.4193 59.0634 96.5546 59.3773 96.8847L59.3899 97.0264C58.6432 97.7904 45.8387 98.0781 44.9648 97.665C45.5366 97.3484 48.0438 97.2311 49.19 96.6448Z" fill="#6F71B0"/>
<path d="M29.0792 95.8483C30.0405 95.8428 31.6779 95.8726 32.6068 95.9953C33.5824 96.7223 35.7538 96.7404 37.03 97.2302C35.3686 97.5558 28.3952 97.886 27.4062 96.6448C27.5473 96.2903 28.6653 96.0801 29.0792 95.8483Z" fill="#6F71B0"/>
<path d="M61.9772 96.1973C63.1613 96.1459 64.3472 96.154 65.5295 96.2226C65.8686 96.2406 66.8625 96.3245 67.0807 96.568L66.9581 96.7521C66.5739 96.9992 65.9002 97.0389 65.4114 97.1327C63.5482 97.3465 61.7616 97.5892 59.9688 96.9658C60.7696 96.5311 61.0861 96.3921 61.9772 96.1973Z" fill="#6F71B0"/>
<path d="M23.0048 96.1962C24.5352 96.1087 25.4533 96.041 26.909 96.6264C26.0297 97.0594 25.7622 97.1108 24.781 97.2344C24.513 97.2552 24.2449 97.2741 23.9767 97.2903C23.2359 97.3354 21.8898 97.3769 21.3047 96.8583L21.3179 96.6968C21.7457 96.3576 22.4733 96.2683 23.0048 96.1962Z" fill="#6F71B0"/>
<path d="M34.5892 98.107C35.1167 98.0691 37.5084 97.9988 37.7579 98.4895C37.2701 99.0866 34.8075 98.991 34.0265 98.9802C33.8621 98.9766 33.6977 98.9721 33.5333 98.9658C32.9881 98.945 31.4282 98.8521 31.1028 98.5021L31.0664 98.5355C31.6939 98.2107 33.8377 98.1268 34.5892 98.107Z" fill="#6F71B0"/>
<path d="M42.5609 98.6414C43.3464 98.6089 43.9976 98.5494 44.7731 98.6964L44.8426 98.9039L44.9391 98.8687L44.9607 98.7523L45.0112 98.838C44.4368 99.1925 41.7736 99.2881 40.8555 99.4496L40.7527 99.4685C41.2451 99.5254 41.7384 99.5669 42.2335 99.5939C42.8892 99.5786 43.0813 99.5118 43.6512 99.8185L43.6341 99.9268C42.8477 100.07 40.5128 100.064 40.1016 99.3323L40.1647 99.142C40.6373 98.6766 41.8241 98.7054 42.5609 98.6414Z" fill="#6F71B0"/>
<path d="M51.1849 98.1828C52.3771 98.0998 52.8298 98.0619 53.9067 98.5544C53.4575 98.6383 52.957 98.7006 52.5007 98.7664C51.312 98.8458 50.798 98.8819 49.7031 98.448C50.2442 98.3163 50.6302 98.2586 51.1849 98.1828Z" fill="#6F71B0"/>
<path d="M59.7835 97.925C60.7115 97.8212 61.8163 97.8925 62.7443 98.0152C62.3592 98.1613 61.9651 98.2642 61.5692 98.376C60.34 98.4392 59.9089 98.3832 58.7148 98.1343C59.0215 98.0549 59.4625 97.9845 59.7835 97.925Z" fill="#6F71B0"/>
</svg>
