<svg width="24" height="24" viewBox="0 0 24 24" fill="none" xmlns="http://www.w3.org/2000/svg">
<g clip-path="url(#clip0_27_17)">
<mask id="mask0_27_17" style="mask-type:luminance" maskUnits="userSpaceOnUse" x="0" y="0" width="24" height="24">
<path d="M24 0H0V24H24V0Z" fill="white"/>
<path d="M0.857178 12C0.857178 5.84595 5.84601 0.857117 12 0.857117C18.1541 0.857117 23.1429 5.84595 23.1429 12C23.1429 18.154 18.1541 23.1428 12 23.1428C5.84601 23.1428 0.857178 18.154 0.857178 12Z" fill="black"/>
</mask>
<g mask="url(#mask0_27_17)">
<path d="M12 23.1429V22.2857C6.31935 22.2857 1.71429 17.6806 1.71429 12H0.857143H0C0 18.6274 5.37258 24 12 24V23.1429ZM23.1429 12H22.2857C22.2857 17.6806 17.6806 22.2857 12 22.2857V23.1429V24C18.6274 24 24 18.6274 24 12H23.1429ZM12 0.857143V1.71429C17.6806 1.71429 22.2857 6.31935 22.2857 12H23.1429H24C24 5.37258 18.6274 0 12 0V0.857143ZM12 0.857143V0C5.37258 0 0 5.37258 0 12H0.857143H1.71429C1.71429 6.31935 6.31935 1.71429 12 1.71429V0.857143Z" fill="url(#paint0_linear_27_17)"/>
</g>
<path fill-rule="evenodd" clip-rule="evenodd" d="M12.0003 21.2858C17.1287 21.2858 21.2861 17.1284 21.2861 12C21.2861 6.87165 17.1287 2.71429 12.0003 2.71429C6.87196 2.71429 2.7146 6.87165 2.7146 12C2.7146 17.1284 6.87196 21.2858 12.0003 21.2858ZM17.162 9.67885C17.4186 9.3923 17.3943 8.95199 17.1078 8.69545C16.8211 8.43887 16.3809 8.46319 16.1244 8.74979L12.9958 12.2441C12.3618 12.9522 11.935 13.4265 11.5699 13.7333C11.2223 14.0256 11.018 14.0893 10.8396 14.0893C10.6612 14.0893 10.457 14.0256 10.1093 13.7333C9.74429 13.4265 9.31735 12.9522 8.68341 12.2441L7.87632 11.3426C7.61976 11.0561 7.17948 11.0318 6.89292 11.2883C6.60636 11.5449 6.58204 11.9852 6.8386 12.2717L7.68016 13.2117C8.2706 13.8712 8.76304 14.4213 9.21304 14.7996C9.68909 15.1997 10.2025 15.4821 10.8396 15.4821C11.4767 15.4821 11.9901 15.1997 12.4662 14.7996C12.9162 14.4213 13.4086 13.8712 13.9991 13.2117L17.162 9.67885Z" fill="#00CD9B"/>
</g>
<defs>
<linearGradient id="paint0_linear_27_17" x1="23.1429" y1="0.857142" x2="-2.03571" y2="4.83583" gradientUnits="userSpaceOnUse">
<stop stop-color="#2C2D46"/>
<stop offset="1" stop-color="#007B5D"/>
</linearGradient>
<clipPath id="clip0_27_17">
<rect width="24" height="24" fill="white"/>
</clipPath>
</defs>
</svg>
