<svg width="24" height="24" viewBox="0 0 24 24" fill="none" xmlns="http://www.w3.org/2000/svg">
<path d="M3 5.78809L5.60927 10.5502V13.4549L3.00305 18.2076L3 5.78809Z" fill="#5B57A2"/>
<path d="M13.0195 8.81807L15.4645 7.28797L20.4683 7.2832L13.0195 11.9424V8.81807Z" fill="#D90751"/>
<path d="M13.0039 5.76061L13.0177 12.0654L10.4023 10.4246V1L13.0039 5.76061Z" fill="#FAB718"/>
<path d="M20.4665 7.28301L15.4625 7.28778L13.0039 5.76061L10.4023 1L20.4665 7.28301Z" fill="#ED6F26"/>
<path d="M13.0177 18.234V15.1751L10.4023 13.5654L10.4038 22.9994L13.0177 18.234Z" fill="#63B22F"/>
<path d="M15.4574 16.7179L5.60909 10.5502L3 5.78809L20.4567 16.7116L15.4574 16.7179Z" fill="#1487C9"/>
<path d="M10.4043 22.9997L13.0179 18.2343L15.4567 16.7181L20.456 16.7119L10.4043 22.9997Z" fill="#017F36"/>
<path d="M3.00391 18.208L10.4254 13.566L7.9303 12.0029L5.61012 13.4553L3.00391 18.208Z" fill="#984995"/>
</svg>
