<svg xmlns="http://www.w3.org/2000/svg" viewBox="0 0 24 24">
  <path d="M12 2a10 10 0 1 0 0 20 10 10 0 0 0 0-20Zm0 2c1.85 0 3.55.63 4.91 1.69L5.69 16.91A7.96 7.96 0 0 1 12 4Zm0 16a7.96 7.96 0 0 1-4.91-1.69L18.31 7.09A7.96 7.96 0 0 1 20 12a8 8 0 0 1-8 8Z"/>
  <path d="M12 6.2a2.8 2.8 0 0 1 2.8 2.8c0 .54-.15 1.04-.42 1.47l-3.85 3.85a5.82 5.82 0 0 0-4.14 3.27l-1.45-1.45A7.58 7.58 0 0 1 9 12.08 2.8 2.8 0 0 1 12 6.2Zm4.43 5.21 1.44 1.44a7.58 7.58 0 0 1 1.19 3.29l-1.45 1.45a5.82 5.82 0 0 0-3.2-3.02l2.02-2.02v-1.14Z"/>
</svg>
