<svg width="24" height="24" viewBox="0 0 24 24" fill="none" xmlns="http://www.w3.org/2000/svg">
<path d="M18.8816 13.1915C18.9464 13.7116 18.9986 14.2638 19.021 14.7939C19.0286 14.9727 19.0316 15.1514 19.0316 15.3437C19.0316 15.6618 18.8059 15.942 18.4939 16.0101C16.3431 16.46 14.1605 16.6872 11.9991 16.6872C9.83769 16.6872 7.65509 16.46 5.50888 16.0116C5.19233 15.942 4.96663 15.6618 4.96663 15.3437C4.96663 15.1513 4.96967 14.9726 4.97722 14.7939C4.99995 14.2543 5.05198 13.7101 5.11658 13.1914C2.37809 13.7125 0.412109 14.5713 0.412109 15.7376C0.412109 17.7717 6.38131 18.8683 11.9991 18.8683C17.6169 18.8683 23.5861 17.7717 23.5861 15.7376C23.5861 14.5713 21.62 13.7125 18.8816 13.1915Z" fill="white"/>
<path d="M5.60211 15.5664C7.72564 16.0102 9.86277 16.2328 11.9999 16.2328C14.1371 16.2328 16.2742 16.0102 18.3978 15.5664C18.5023 15.5437 18.578 15.4513 18.578 15.3438C18.578 15.1726 18.575 14.9954 18.5674 14.8136C18.5413 14.1939 18.4701 13.4386 18.3446 12.625C16.2376 12.9137 14.1188 13.0593 11.9999 13.0593C9.88114 13.0593 7.76234 12.9137 5.65527 12.625C5.5303 13.435 5.45872 14.1903 5.43247 14.8136C5.42487 14.9954 5.42188 15.1726 5.42188 15.3438C5.42188 15.4513 5.49758 15.5437 5.60211 15.5664Z" fill="white"/>
<path d="M5.73633 12.1775C9.89681 12.7459 14.1034 12.7459 18.2635 12.1775C17.6661 8.81478 16.2612 5.12891 14.4521 5.12891C13.5645 5.12891 12.7042 5.61209 12.0015 6.49663C11.2972 5.61209 10.4353 5.12891 9.54773 5.12891C7.73855 5.12891 6.33375 8.81478 5.73633 12.1775Z" fill="white"/>
</svg>
