<svg width="24" height="24" viewBox="0 0 24 24" fill="none" xmlns="http://www.w3.org/2000/svg">
<path d="M9.75029 21C9.75029 21.4142 9.41451 21.75 9.00029 21.75C8.58608 21.75 8.25029 21.4142 8.25029 21V14.9609L9.75029 13.7607V21ZM15.7503 21C15.7503 21.4142 15.4145 21.75 15.0003 21.75C14.5861 21.75 14.2503 21.4142 14.2503 21V10.1602L15.7503 8.96094V21ZM9.00029 2.25C9.4145 2.25 9.75029 2.58579 9.75029 3V11.8389L8.25029 13.0391V3C8.25029 2.58579 8.58608 2.25 9.00029 2.25ZM15.0003 2.25C15.4145 2.25 15.7503 2.58579 15.7503 3V7.03906L14.2503 8.23828V3C14.2503 2.58579 14.5861 2.25 15.0003 2.25Z" fill="white"/>
<path d="M21.5315 4.33398C21.855 4.07523 22.3275 4.12773 22.5862 4.45117C22.845 4.77462 22.7925 5.2471 22.469 5.50586L2.46904 21.5059C2.14559 21.7646 1.67311 21.7121 1.41435 21.3887C1.1556 21.0652 1.20809 20.5927 1.53154 20.334L21.5315 4.33398Z" fill="white"/>
</svg>
