<svg width="357" height="99" viewBox="0 0 357 99" fill="none" xmlns="http://www.w3.org/2000/svg">
<path d="M90.8431 27.3136C91.1699 27.3098 91.4967 27.3061 91.8334 27.3022C92.9065 27.2929 93.9789 27.299 95.052 27.3063C95.8015 27.3048 96.5511 27.3027 97.3006 27.3001C98.8684 27.2969 100.436 27.3015 102.004 27.3115C104.01 27.3237 106.016 27.3166 108.023 27.3038C109.57 27.2961 111.116 27.2986 112.663 27.3041C113.403 27.3055 114.142 27.3038 114.882 27.2988C115.917 27.2934 116.951 27.3017 117.986 27.3136C118.441 27.3071 118.441 27.3071 118.906 27.3005C120.873 27.3421 121.867 27.788 123.262 29.181C123.429 29.3608 123.597 29.5405 123.769 29.7257C124.007 29.9505 124.244 30.1754 124.489 30.407C124.683 30.601 124.878 30.7949 125.078 30.9948C125.302 31.2187 125.527 31.4426 125.759 31.6732C126.109 32.0242 126.109 32.0242 126.466 32.3823C126.713 32.6284 126.959 32.8745 127.213 33.1281C127.729 33.6439 128.244 34.16 128.76 34.6765C129.551 35.4697 130.344 36.2612 131.138 37.0525C131.64 37.5552 132.142 38.0579 132.645 38.5608C133.001 38.9164 133.001 38.9164 133.365 39.2792C133.692 39.6079 133.692 39.6079 134.026 39.9431C134.218 40.1359 134.411 40.3286 134.609 40.5272C135.586 41.5879 135.41 42.7151 135.412 44.0788C135.414 44.3324 135.415 44.5859 135.417 44.8472C135.421 45.6884 135.423 46.5296 135.425 47.3709C135.427 47.9546 135.429 48.5384 135.43 49.1222C135.434 50.3475 135.435 51.5727 135.436 52.798C135.438 54.3678 135.445 55.9375 135.454 57.5072C135.46 58.7136 135.461 59.92 135.462 61.1264C135.463 61.7051 135.465 62.2838 135.469 62.8625C135.475 63.6725 135.474 64.4823 135.472 65.2923C135.475 65.5313 135.478 65.7702 135.48 66.0163C135.47 67.3919 135.33 68.312 134.448 69.3901C133.556 69.6875 132.981 69.7349 132.052 69.7381C131.747 69.7398 131.442 69.7416 131.128 69.7434C130.794 69.7437 130.459 69.744 130.115 69.7444C129.587 69.7467 129.587 69.7467 129.047 69.749C127.88 69.7534 126.712 69.7555 125.544 69.7572C124.939 69.7585 124.333 69.7598 123.728 69.7612C122.042 69.7648 120.356 69.7671 118.67 69.7681C116.489 69.7695 114.308 69.7748 112.128 69.7837C110.442 69.7903 108.756 69.7933 107.07 69.7938C106.063 69.7941 105.057 69.7963 104.05 69.8013C102.927 69.8065 101.804 69.806 100.682 69.804C100.348 69.8068 100.014 69.8096 99.6705 69.8125C99.3647 69.8108 99.0588 69.8091 98.7437 69.8073C98.4783 69.8078 98.2128 69.8082 97.9393 69.8087C97.0597 69.669 96.5 69.5 96.0043 68.7799C95.5 67.5 95.4892 66.1533 96.2049 64.706C96.8928 63.5597 97.7332 62.6567 98.6859 61.7266C98.852 61.561 99.0181 61.3955 99.1893 61.2249C99.5375 60.8787 99.8867 60.5337 100.237 60.1897C100.774 59.6619 101.308 59.1309 101.842 58.5992C102.182 58.2621 102.522 57.9252 102.862 57.5885C103.022 57.4299 103.182 57.2714 103.346 57.108C104.785 55.6979 105.636 55.6116 107.598 55.585C108.094 55.575 108.59 55.5649 109.086 55.5546C109.869 55.5401 110.653 55.5266 111.436 55.5146C112.191 55.5026 112.946 55.4868 113.701 55.4706C113.936 55.4681 114.171 55.4655 114.413 55.4628C115.724 55.4782 116 55.5 116.752 54.7448C117 53.5 116.865 52.242 116.865 50.9854C116.866 50.3631 116.877 49.7415 116.889 49.1193C116.89 48.7268 116.891 48.3343 116.892 47.9299C116.895 47.5694 116.897 47.209 116.9 46.8377C116.716 45.6704 116.463 45.3873 115.531 44.6761C114.523 44.4889 114.523 44.4889 113.377 44.5134C113.163 44.5107 112.948 44.5081 112.727 44.5054C112.019 44.4985 111.312 44.5005 110.604 44.5033C110.111 44.5017 109.618 44.4998 109.124 44.4976C108.091 44.4944 107.057 44.4958 106.024 44.5003C104.701 44.5055 103.38 44.4983 102.057 44.4876C101.039 44.4809 100.02 44.4813 99.0013 44.4839C98.514 44.4841 98.0267 44.482 97.5394 44.4775C96.8565 44.4722 96.1742 44.4767 95.4913 44.4836C94.9094 44.484 94.9094 44.484 94.3158 44.4845C93.2623 44.6754 92.5603 44.9243 91.7728 45.6693C91.0343 46.8084 91.1722 48.1409 91.1859 49.4547C91.1804 49.9461 91.1804 49.9461 91.1747 50.4475C91.1651 51.5301 91.169 52.6122 91.1738 53.6948C91.1718 54.4475 91.1693 55.2003 91.1663 55.953C91.1622 57.5307 91.1649 59.1082 91.1722 60.6859C91.1809 62.7076 91.1718 64.7288 91.1574 66.7504C91.1485 68.305 91.1496 69.8594 91.1537 71.414C91.1544 72.1593 91.1518 72.9047 91.1459 73.65C91.139 74.6925 91.1458 75.734 91.1561 76.7765C91.1489 77.238 91.1489 77.238 91.1416 77.7089C91.1702 79.1696 91.2669 80.1251 92.3381 81.1766C93.6332 82.0951 94.8046 82.1508 96.3535 82.1161C96.7603 82.118 96.7603 82.118 97.1752 82.12C98.0663 82.1224 98.9569 82.1121 99.8479 82.1023C100.47 82.1026 101.092 82.1039 101.714 82.1062C103.348 82.1103 104.981 82.1045 106.616 82.0957C109.232 82.0818 111.848 82.0771 114.464 82.0833C115.377 82.0832 116.289 82.0753 117.201 82.0669C117.762 82.0667 118.322 82.0668 118.883 82.0673C119.261 82.0606 119.261 82.0606 119.648 82.0539C121.69 82.0678 122.789 82.7437 124.236 84.2045C124.49 84.494 124.744 84.7836 125.006 85.0819C126.235 86.4589 127.496 87.7909 128.806 89.0912C128.972 89.256 129.137 89.4208 129.308 89.5907C129.813 90.0914 130.319 90.5914 130.825 91.0911C131.507 91.7648 132.187 92.4395 132.868 93.1149C133.1 93.3432 133.1 93.3432 133.336 93.5761C134.305 94.5377 134.72 94.9716 134.848 96.3543C134.753 97.4603 134.753 97.4603 134.255 98.1296C133.327 98.8375 132.802 98.8362 131.642 98.8419C131.253 98.8467 130.865 98.8514 130.465 98.8563C130.035 98.8554 129.605 98.8544 129.176 98.8532C128.722 98.8563 128.269 98.86 127.816 98.8641C126.586 98.8736 125.355 98.8752 124.124 98.8748C123.096 98.8751 122.068 98.8788 121.04 98.8824C118.614 98.8908 116.187 98.8924 113.76 98.8901C111.26 98.8879 108.759 98.8981 106.259 98.9143C104.11 98.9276 101.962 98.9327 99.8129 98.9313C98.5304 98.9306 97.2481 98.9332 95.9656 98.9439C94.7584 98.9536 93.5516 98.9531 92.3444 98.9447C91.9026 98.9433 91.4608 98.9455 91.0191 98.9518C87.2739 99.001 87.2739 99.001 85.7048 97.6466C85.3658 97.2878 85.0347 96.9212 84.7153 96.545C84.4447 96.2807 84.1741 96.0164 83.8953 95.7441C83.4249 95.261 82.9545 94.7779 82.4842 94.2948C81.8551 93.6804 81.2228 93.1064 80.557 92.5344C78.932 91.1247 77.411 89.6136 75.8862 88.0972C75.5912 87.8086 75.2963 87.52 75.0013 87.2313C74.5857 86.8181 74.5857 86.8181 74.1616 86.3965C73.9103 86.148 73.659 85.8996 73.4001 85.6436C72.4446 84.5101 72.4726 83.4667 72.4702 82.0185C72.4689 81.6699 72.4676 81.3213 72.4662 80.9621C72.4664 80.5809 72.4665 80.1996 72.4666 79.8069C72.4656 79.4044 72.4646 79.002 72.4635 78.5873C72.4608 77.4841 72.4601 76.3809 72.4599 75.2777C72.4597 74.5884 72.4591 73.899 72.4582 73.2096C72.4554 70.8042 72.4542 68.3988 72.4544 65.9934C72.4546 63.7518 72.4514 61.5102 72.4466 59.2685C72.4426 57.3432 72.4409 55.418 72.4411 53.4927C72.4412 52.3431 72.4403 51.1935 72.4371 50.044C72.4342 48.9628 72.4341 47.8817 72.4364 46.8006C72.4368 46.2153 72.4343 45.6301 72.4316 45.0448C72.4329 44.6953 72.4342 44.3459 72.4355 43.9858C72.4354 43.6828 72.4352 43.3798 72.435 43.0676C72.608 41.1713 73.5131 40.2219 74.8946 39.0125C75.2554 38.688 75.6161 38.3634 75.9768 38.0388C76.1614 37.8743 76.3461 37.7099 76.5364 37.5404C77.3948 36.7741 78.2432 35.997 79.0898 35.2177C79.2531 35.0679 79.4163 34.9182 79.5845 34.7639C81.0341 33.4252 82.4156 32.026 83.7856 30.6065C84.0928 30.3101 84.403 30.0167 84.7153 29.7257C84.9042 29.5463 85.0932 29.367 85.2878 29.1822C87.1193 27.5913 88.4543 27.2795 90.8431 27.3136Z" fill="#FCFCFC"/>
<path d="M229.199 27.4224C229.523 27.4192 229.846 27.4161 230.18 27.4129C231.25 27.4044 232.319 27.405 233.389 27.4064C234.133 27.404 234.878 27.4014 235.622 27.3985C237.183 27.3939 238.743 27.3941 240.304 27.3973C242.302 27.4009 244.299 27.3905 246.297 27.3764C247.834 27.3674 249.372 27.3668 250.91 27.3688C251.646 27.3684 252.382 27.3652 253.119 27.3591C254.15 27.3516 255.181 27.3557 256.212 27.3628C256.666 27.3558 256.666 27.3558 257.129 27.3486C259.71 27.3876 260.992 28.4166 262.758 30.1989C263 30.477 263.243 30.755 263.493 31.0415C265.79 33.6196 268.268 36.0228 270.722 38.4498C270.888 38.6141 271.053 38.7784 271.224 38.9478C271.539 39.2605 271.855 39.5727 272.172 39.8841C273.588 41.2903 273.629 42.1661 273.64 44.1068C273.643 44.4917 273.643 44.4917 273.647 44.8843C273.655 45.7354 273.66 46.5865 273.664 47.4377C273.666 47.7281 273.667 48.0184 273.669 48.3176C273.677 49.8546 273.683 51.3915 273.688 52.9284C273.693 54.5167 273.706 56.1048 273.722 57.6931C273.732 58.9136 273.736 60.1341 273.737 61.3546C273.739 61.9401 273.744 62.5256 273.751 63.1111C273.761 63.9307 273.761 64.7498 273.759 65.5695C273.764 65.8113 273.769 66.053 273.774 66.3021C273.761 67.4241 273.611 68.1198 273.026 69.083C271.562 70.0059 270.239 69.9059 268.54 69.8878C268.185 69.89 267.83 69.8922 267.464 69.8944C266.289 69.8996 265.115 69.8937 263.94 69.8872C263.124 69.8874 262.308 69.8881 261.493 69.8894C259.783 69.8908 258.074 69.8859 256.364 69.8774C254.389 69.8676 252.413 69.8676 250.438 69.8729C248.536 69.8777 246.634 69.8757 244.732 69.8705C243.923 69.8689 243.114 69.869 242.305 69.8709C241.176 69.8726 240.047 69.8664 238.917 69.858C238.414 69.861 238.414 69.861 237.901 69.8641C237.593 69.8602 237.286 69.8563 236.969 69.8523C236.702 69.8514 236.435 69.8506 236.16 69.8497C235.205 69.6443 234.839 69.2131 234.222 68.4748C233.674 67.3801 233.895 66.2683 234.222 65.1186C234.822 64.1875 235.564 63.4467 236.358 62.6777C236.559 62.4767 236.759 62.2758 236.967 62.0687C237.375 61.6601 237.786 61.2533 238.198 60.8482C238.784 60.2519 239.326 59.6348 239.866 58.9973C240.034 58.8096 240.202 58.6219 240.374 58.4284C240.721 58.0368 241.057 57.6353 241.375 57.2201C242.545 55.9177 243.577 55.5333 245.278 55.427C246.513 55.3914 247.746 55.396 248.981 55.4123C249.742 55.4141 250.503 55.4129 251.264 55.4089C251.735 55.4072 252.206 55.4094 252.678 55.4159C253.238 55.4181 253.799 55.3892 254.359 55.3551C255.5 55 255.07 52.9956 255.082 51.6055C255.082 51.4009 255.082 51.1963 255.082 50.9855C255.084 50.3632 255.095 49.7415 255.106 49.1193C255.107 48.7268 255.109 48.3343 255.11 47.9299C255.112 47.5695 255.115 47.2091 255.117 46.8377C254.934 45.6712 254.678 45.388 253.749 44.6762C252.753 44.487 252.753 44.487 251.623 44.5086C251.305 44.5039 251.305 44.5039 250.982 44.4991C250.284 44.4906 249.586 44.4912 248.888 44.4926C248.402 44.4903 247.916 44.4876 247.429 44.4847C246.41 44.4802 245.391 44.4803 244.372 44.4835C243.068 44.4871 241.764 44.4768 240.461 44.4626C239.456 44.4536 238.452 44.4531 237.447 44.455C236.966 44.4546 236.486 44.4515 236.005 44.4453C235.332 44.4377 234.659 44.4419 233.986 44.449C233.603 44.4486 233.221 44.4482 232.827 44.4478C231.64 44.707 231.092 45.0089 230.296 45.9092C229.603 47.1063 229.694 48.3837 229.709 49.7337C229.703 50.2155 229.703 50.2155 229.697 50.707C229.688 51.7667 229.692 52.8258 229.696 53.8855C229.694 54.6234 229.692 55.3613 229.689 56.0992C229.685 57.6451 229.688 59.1907 229.695 60.7366C229.704 62.7162 229.694 64.6952 229.68 66.6748C229.671 68.1985 229.672 69.722 229.676 71.2457C229.677 71.9755 229.674 72.7053 229.668 73.435C229.662 74.4562 229.668 75.4764 229.679 76.4976C229.672 76.9482 229.672 76.9482 229.664 77.408C229.694 78.906 229.856 79.8715 230.861 81.02C232.138 82.1106 233.244 82.1962 234.876 82.1556C235.147 82.1575 235.418 82.1593 235.698 82.1612C236.589 82.1648 237.479 82.1537 238.371 82.1428C238.992 82.1434 239.614 82.145 240.236 82.1476C241.87 82.1523 243.504 82.145 245.138 82.1344C247.754 82.119 250.37 82.1195 252.987 82.1242C253.899 82.1238 254.811 82.117 255.724 82.1094C256.284 82.1083 256.845 82.1074 257.405 82.1068C257.784 82.1011 257.784 82.1011 258.171 82.0953C260.015 82.1011 261.302 82.4586 262.67 83.7804C262.878 84.0282 263.087 84.276 263.302 84.5313C264.217 85.5889 265.146 86.603 266.144 87.5824C266.969 88.3959 267.756 89.2185 268.508 90.0996C269.561 91.3305 270.7 92.4618 271.859 93.5915C272.831 94.5456 273.237 94.9786 273.39 96.3543C273.276 97.4604 273.276 97.4604 272.625 98.1296C271.599 98.7762 271.039 98.836 269.834 98.8419C269.448 98.8467 269.062 98.8515 268.664 98.8564C268.238 98.8555 267.812 98.8544 267.386 98.8532C266.936 98.8564 266.486 98.8601 266.036 98.8642C264.815 98.8736 263.594 98.8753 262.373 98.8749C261.352 98.8751 260.332 98.8789 259.311 98.8825C256.902 98.8908 254.494 98.8925 252.085 98.8902C249.604 98.888 247.122 98.8982 244.64 98.9143C242.507 98.9277 240.374 98.9328 238.241 98.9314C236.968 98.9307 235.695 98.9332 234.422 98.9439C233.224 98.9537 232.027 98.9531 230.829 98.9447C230.391 98.9433 229.952 98.9456 229.514 98.9518C225.798 99.001 225.798 99.001 224.232 97.6481C223.892 97.2885 223.321 96.8764 223 96.5C222.718 96.2278 222.791 96.2804 222.5 96C222.247 95.7436 221.761 95.2642 221.5 95C221.36 94.8591 221.144 94.6452 221 94.5C220.415 93.9105 220.083 93.5912 219.5 93C217.926 91.4054 216.288 89.5831 214.585 88.1251C214.003 87.6272 213.447 87.1098 212.902 86.5717C212.733 86.4069 212.564 86.2421 212.39 86.0723C211.433 84.963 211.261 84.0426 211.247 82.5927C211.242 82.236 211.237 81.8793 211.232 81.5118C211.23 81.1216 211.228 80.7314 211.226 80.3293C211.221 79.9132 211.217 79.4972 211.212 79.0811C211.198 77.7156 211.19 76.3502 211.183 74.9846C211.18 74.5136 211.177 74.0426 211.174 73.5715C211.162 71.6111 211.152 69.6507 211.146 67.6902C211.138 64.8859 211.121 62.0821 211.09 59.278C211.069 57.3034 211.058 55.329 211.055 53.3544C211.054 52.1764 211.047 50.9989 211.03 49.8211C211.013 48.7115 211.01 47.6026 211.017 46.4928C211.017 45.8958 211.004 45.2988 210.99 44.7019C211.022 42.1988 211.58 40.9522 213.376 39.1982C213.61 38.9922 213.844 38.7862 214.085 38.574C214.303 38.3777 214.522 38.1815 214.747 37.9793C215.13 37.6415 215.517 37.3079 215.907 36.9781C217.089 35.9462 218.172 34.8105 219.271 33.6922C220.943 31.9924 222.628 30.3395 224.458 28.8104C224.656 28.6024 224.853 28.3944 225.057 28.18C226.416 27.3152 227.619 27.4145 229.199 27.4224Z" fill="#FCFCFC"/>
<path d="M163.369 27.4333C163.721 27.4294 164.073 27.4255 164.435 27.4215C164.819 27.4235 165.202 27.4255 165.597 27.4276C166.007 27.4254 166.418 27.4227 166.828 27.4196C167.939 27.4127 169.05 27.4136 170.162 27.4163C171.09 27.4179 172.018 27.4157 172.946 27.4135C175.135 27.4083 177.324 27.4094 179.513 27.4145C181.772 27.4196 184.03 27.4148 186.289 27.4049C188.228 27.3968 190.168 27.3946 192.108 27.3972C193.266 27.3987 194.424 27.398 195.583 27.3917C196.671 27.3861 197.76 27.3879 198.849 27.3955C199.439 27.3977 200.029 27.3924 200.619 27.387C200.97 27.3908 201.321 27.3947 201.683 27.3987C201.988 27.3988 202.293 27.399 202.608 27.3992C203.71 27.6631 204.027 28.1793 204.627 29.1159C204.836 29.9931 204.836 29.9931 204.627 30.9465C204.18 31.5033 203.701 31.9686 203.167 32.4411C202.601 32.9778 202.114 33.5138 201.61 34.1061C200.067 35.8892 198.392 37.5437 196.725 39.2102C196.155 39.7803 195.589 40.3527 195.022 40.9252C194.659 41.2887 194.296 41.652 193.934 42.0152C193.765 42.1861 193.596 42.3571 193.422 42.5332C192.143 43.8049 191.377 44.1008 189.582 44.0999C189.363 44.0983 189.145 44.0967 188.919 44.0951C188.439 44.0942 187.958 44.0934 187.478 44.0926C187.223 44.0917 186.969 44.0908 186.707 44.0898C185.357 44.0863 184.007 44.0926 182.658 44.0973C180.941 44.1029 179.224 44.1055 177.507 44.0967C176.119 44.0898 174.732 44.0933 173.344 44.1037C172.816 44.1058 172.288 44.1041 171.76 44.0984C171.019 44.091 170.28 44.0969 169.539 44.1058C169.323 44.1005 169.106 44.0952 168.884 44.0897C167.617 44.1211 166.834 44.449 165.895 45.2521C164.654 46.6452 164.66 47.9682 164.686 49.7687C164.683 50.0899 164.679 50.4112 164.675 50.7422C164.666 51.8003 164.672 52.8576 164.679 53.9157C164.678 54.6531 164.675 55.3906 164.673 56.1281C164.67 57.6721 164.674 59.2159 164.684 60.76C164.696 62.7372 164.689 64.7138 164.677 66.691C164.669 68.2134 164.671 69.7356 164.677 71.258C164.678 71.9869 164.677 72.7158 164.672 73.4447C164.666 74.4644 164.674 75.4832 164.686 76.5028C164.68 76.9527 164.68 76.9527 164.673 77.4117C164.706 78.9138 164.871 79.8723 165.882 81.02C167.122 82.0799 168.16 82.1979 169.749 82.156C170.005 82.1578 170.261 82.1596 170.525 82.1615C171.367 82.1652 172.208 82.1541 173.049 82.1432C173.637 82.1437 174.225 82.1453 174.812 82.148C176.356 82.1526 177.9 82.1454 179.443 82.1348C181.915 82.1194 184.387 82.1199 186.858 82.1245C187.72 82.1241 188.581 82.1173 189.443 82.1097C189.973 82.1087 190.502 82.1078 191.032 82.1071C191.39 82.1015 191.39 82.1015 191.754 82.0956C193.227 82.1005 194.224 82.3378 195.473 83.1205C196.039 83.7027 196.537 84.2616 197.037 84.894C197.329 85.2513 197.622 85.6085 197.914 85.9654C198.064 86.15 198.214 86.3346 198.368 86.5248C199.128 87.4511 199.915 88.3546 200.698 89.2609C202.07 90.8541 203.412 92.4676 204.735 94.1009C205.189 94.677 205.189 94.677 205.542 95.0198C206.5 96.5 205.723 97.2319 205.035 98.101C204.141 98.8281 203.688 98.8363 202.546 98.8423C202.002 98.8494 202.002 98.8494 201.447 98.8567C200.852 98.8552 200.852 98.8552 200.245 98.8536C199.822 98.8568 199.399 98.8604 198.975 98.8645C197.827 98.874 196.678 98.8756 195.53 98.8752C194.57 98.8755 193.61 98.8792 192.65 98.8828C190.384 98.8912 188.119 98.8928 185.853 98.8905C183.519 98.8883 181.185 98.8985 178.851 98.9147C176.844 98.928 174.838 98.9331 172.832 98.9317C171.635 98.931 170.438 98.9336 169.241 98.9443C168.114 98.9541 166.987 98.9534 165.86 98.9451C165.252 98.9431 164.644 98.9516 164.036 98.9604C162.213 98.937 160.99 98.8797 159.578 97.6578C159.231 97.2932 158.889 96.9225 158.555 96.5454C158.202 96.2171 157.846 95.892 157.485 95.5716C155.106 93.3641 152.775 91.1083 150.473 88.8214C150.166 88.5171 149.859 88.2133 149.551 87.91C149.119 87.4827 148.43 86.9297 148 86.5C147.75 86.2511 147.758 86.2564 147.5 86C147 85.6309 146.353 85.0352 146.351 84.6461C146.323 79.103 146.301 73.56 146.288 68.0169C146.282 65.4431 146.273 62.8694 146.259 60.2957C146.247 58.0524 146.239 55.8092 146.236 53.566C146.235 52.3781 146.231 51.1904 146.222 50.0026C146.214 48.8844 146.211 47.7663 146.213 46.6481C146.213 46.0424 146.206 45.4368 146.199 44.8311C146.201 44.4696 146.203 44.1081 146.204 43.7356C146.203 43.2653 146.203 43.2653 146.201 42.7854C146.469 41.2597 147.567 40.351 148.716 39.3943C149.594 38.6446 150.424 37.8724 151.233 37.0488C152.014 36.2555 152.81 35.5041 153.655 34.7795C154.567 33.9956 155.422 33.1759 156.267 32.3195C157.487 31.0852 158.749 29.9231 160.081 28.8108C160.422 28.4984 160.422 28.4984 160.77 28.1798C161.738 27.4974 162.199 27.4366 163.369 27.4333Z" fill="#FCFCFC"/>
<path d="M332.465 6.23216C333.268 6.73492 333.557 6.94496 333.99 7.75771C334.223 9.17141 334.203 10.5838 334.195 12.0126C334.199 12.4323 334.203 12.8521 334.207 13.2718C334.218 14.374 334.219 15.476 334.219 16.5783C334.22 18.1333 334.233 19.6883 334.244 21.2433C334.25 22.0708 334.253 22.8983 334.254 23.7258C334.255 24.2864 334.255 24.2864 334.257 24.8584C334.257 25.1878 334.257 25.5172 334.257 25.8566C334.26 26.7057 334.26 26.7057 334.601 27.5899C334.981 27.5859 334.981 27.5859 335.368 27.5817C337.757 27.5572 340.145 27.5387 342.533 27.5267C343.761 27.5203 344.989 27.5117 346.217 27.4978C347.402 27.4846 348.587 27.4773 349.772 27.4741C350.224 27.4719 350.676 27.4675 351.128 27.4609C351.761 27.452 352.394 27.4508 353.028 27.4514C353.388 27.4487 353.749 27.4459 354.12 27.4432C355.241 27.6214 355.595 27.9062 356.263 28.8104C356.494 30.0684 356.574 30.7746 355.869 31.8555C355.312 32.4942 354.726 33.0918 354.128 33.6921C353.706 34.1667 353.286 34.6434 352.869 35.1223C352.151 35.9367 351.414 36.7201 350.643 37.4837C350.016 38.108 349.397 38.7394 348.776 39.3701C348.259 39.8929 347.742 40.4157 347.224 40.9385C346.962 41.2056 346.701 41.4726 346.431 41.7478C346.179 42.0015 345.927 42.2551 345.668 42.5165C345.44 42.7481 345.211 42.9796 344.976 43.2182C343.903 44.1693 342.9 44.109 341.523 44.1303C341.144 44.1389 340.766 44.1476 340.376 44.1565C339.577 44.1724 338.778 44.1859 337.978 44.197C337.6 44.2064 337.222 44.2159 336.832 44.2256C336.484 44.2317 336.137 44.2377 335.779 44.2439C334.79 44.3878 334.583 44.5107 333.99 45.2863C333.85 45.9466 333.85 45.9466 333.866 46.6909C333.862 46.9792 333.857 47.2675 333.853 47.5645C333.853 47.8802 333.853 48.196 333.853 48.5213C333.847 49.0208 333.847 49.0208 333.842 49.5303C333.831 50.6344 333.828 51.7384 333.826 52.8426C333.822 53.6092 333.818 54.3757 333.814 55.1423C333.808 56.751 333.805 58.3597 333.804 59.9685C333.803 61.8249 333.791 63.6811 333.773 65.5375C333.757 67.3258 333.752 69.1139 333.752 70.9023C333.75 71.6618 333.745 72.4214 333.737 73.1809C333.725 74.2446 333.728 75.3073 333.733 76.371C333.727 76.6843 333.721 76.9975 333.714 77.3203C333.737 78.8822 333.877 79.8504 334.952 81.0278C335.975 81.8969 336.722 82.1643 338.086 82.1556C338.46 82.1586 338.835 82.1616 339.221 82.1647C339.62 82.1574 340.019 82.1502 340.43 82.1428C340.848 82.1433 341.266 82.1449 341.684 82.1476C342.78 82.1522 343.875 82.145 344.971 82.1344C346.727 82.1189 348.483 82.1195 350.24 82.1241C350.852 82.1237 351.463 82.1166 352.075 82.1093C352.447 82.1085 352.819 82.1076 353.202 82.1067C353.692 82.1021 353.692 82.1021 354.192 82.0975C355.173 82.2212 355.589 82.4003 356.263 83.1201C356.42 83.7663 356.42 83.7664 356.426 84.521C356.433 84.9457 356.433 84.9457 356.441 85.3789C356.439 85.684 356.438 85.9891 356.436 86.3035C356.439 86.7747 356.439 86.7747 356.442 87.2553C356.444 87.9199 356.443 88.5844 356.439 89.2489C356.435 90.2663 356.445 91.2829 356.457 92.3002C356.457 92.9456 356.457 93.591 356.455 94.2364C356.459 94.5409 356.463 94.8454 356.467 95.1591C356.464 95.4432 356.46 95.7272 356.456 96.0199C356.456 96.2692 356.455 96.5184 356.455 96.7753C356.159 97.8321 355.674 98.1329 354.738 98.6807C353.86 98.8035 353.099 98.8571 352.223 98.8532C351.973 98.8568 351.724 98.8604 351.467 98.8641C350.645 98.8741 349.824 98.8751 349.001 98.875C348.428 98.8782 347.855 98.8815 347.281 98.8851C346.08 98.8911 344.878 98.8921 343.676 98.8901C342.14 98.8883 340.605 98.9018 339.069 98.9194C337.885 98.9307 336.7 98.9322 335.516 98.9309C334.95 98.9318 334.384 98.936 333.818 98.9439C328.843 99.0053 328.843 99.0053 327.381 97.759C327.032 97.363 326.692 96.9578 326.363 96.545C325.94 96.1272 325.513 95.7137 325.082 95.3039C324.631 94.8551 324.181 94.4055 323.732 93.9551C323.373 93.5961 323.373 93.5961 323.006 93.2299C322.505 92.7284 322.003 92.2266 321.502 91.7245C320.733 90.9534 319.962 90.184 319.191 89.4148C318.702 88.926 318.214 88.4372 317.725 87.9482C317.494 87.7178 317.263 87.4874 317.025 87.25C316.813 87.037 316.601 86.8241 316.383 86.6047C316.102 86.3237 316.102 86.3236 315.816 86.037C314.837 84.9711 315.026 83.806 315.023 82.4382C315.021 82.1752 315.019 81.9123 315.017 81.6414C315.012 80.7551 315.008 79.8688 315.005 78.9825C315.002 78.3491 314.998 77.7157 314.995 77.0823C314.983 74.9973 314.976 72.9124 314.969 70.8275C314.968 70.473 314.966 70.1185 314.965 69.7532C314.954 66.4108 314.944 63.0684 314.938 59.7261C314.93 55.4483 314.914 51.1707 314.889 46.893C314.872 43.8867 314.863 40.8804 314.86 37.8741C314.858 36.0779 314.853 34.2819 314.839 32.4858C314.825 30.7953 314.822 29.1051 314.827 27.4146C314.826 26.7947 314.823 26.1748 314.815 25.5549C314.753 20.2854 314.753 20.2854 316.084 18.7245C316.637 18.2446 316.637 18.2446 317.209 17.8264C317.599 17.4786 317.987 17.1292 318.373 16.7776C318.576 16.6049 318.779 16.4322 318.989 16.2543C319.731 15.6222 320.453 14.9716 321.176 14.3176C322.279 13.3221 323.391 12.3387 324.512 11.363C325.243 10.7206 325.965 10.0691 326.687 9.41675C327.073 9.07222 327.073 9.07222 327.466 8.72072C327.914 8.31564 328.356 7.90375 328.787 7.48121C329.98 6.34736 330.749 5.88266 332.465 6.23216Z" fill="#FCFCFC"/>
<path d="M298.863 27.5134C299.083 27.5071 299.303 27.5008 299.529 27.4944C300.428 27.4877 301.186 27.5214 302.015 27.8844C302.882 28.868 302.729 29.9653 302.715 31.2131C302.718 31.6335 302.718 31.6335 302.72 32.0624C302.725 33.0055 302.72 33.9483 302.715 34.8914C302.717 35.5659 302.718 36.2404 302.72 36.9149C302.725 38.75 302.721 40.585 302.716 42.4201C302.712 44.3379 302.714 46.2557 302.715 48.1734C302.716 51.3948 302.712 54.6161 302.705 57.8375C302.697 61.1526 302.695 64.4677 302.698 67.7828C302.702 71.776 302.702 75.7693 302.697 79.7626C302.695 81.2885 302.695 82.8143 302.696 84.3402C302.698 86.1366 302.695 87.9329 302.688 89.7292C302.687 90.3895 302.686 91.0498 302.688 91.71C302.69 92.6095 302.686 93.5087 302.681 94.4082C302.682 94.6711 302.684 94.934 302.686 95.2049C302.675 96.269 302.662 96.9686 302.155 97.9178C301.27 98.7157 300.407 98.7206 299.27 98.7297C298.974 98.7326 298.677 98.7356 298.372 98.7386C298.053 98.7399 297.733 98.7412 297.404 98.7425C297.076 98.7443 296.747 98.746 296.409 98.7478C295.715 98.7507 295.02 98.7527 294.325 98.7538C293.261 98.7568 292.196 98.7663 291.132 98.7759C290.457 98.7779 289.783 98.7795 289.109 98.7807C288.79 98.7844 288.47 98.7882 288.141 98.7921C287.845 98.7912 287.548 98.7902 287.243 98.7893C286.982 98.7904 286.722 98.7915 286.453 98.7927C285.625 98.6545 285.368 98.427 284.866 97.7652C284.508 96.6919 284.517 95.7258 284.518 94.6092C284.517 94.3792 284.516 94.1493 284.515 93.9123C284.513 93.1394 284.512 92.3664 284.512 91.5935C284.51 91.0402 284.509 90.487 284.507 89.9337C284.503 88.4289 284.501 86.9241 284.5 85.4194C284.499 84.4795 284.498 83.5396 284.496 82.5998C284.492 79.6599 284.489 76.72 284.488 73.7802C284.487 70.3851 284.481 66.9901 284.473 63.5951C284.466 60.9717 284.463 58.3484 284.462 55.7251C284.462 54.1578 284.46 52.5906 284.455 51.0234C284.45 49.5491 284.449 48.0749 284.452 46.6006C284.452 46.0596 284.451 45.5187 284.448 44.9778C284.444 44.2388 284.446 43.5002 284.449 42.7612C284.446 42.5476 284.444 42.3339 284.441 42.1138C284.46 40.2454 285.088 38.8737 286.363 37.5308C286.537 37.346 286.711 37.1612 286.89 36.9707C287.078 36.776 287.266 36.5813 287.46 36.3807C287.656 36.1744 287.852 35.9681 288.054 35.7555C289.748 33.9857 291.471 32.2438 293.199 30.5073C293.453 30.2526 293.706 29.9978 293.967 29.7354C294.203 29.4997 294.44 29.264 294.683 29.0211C294.894 28.8109 295.104 28.6007 295.321 28.3841C296.391 27.3942 297.478 27.5232 298.863 27.5134Z" fill="#FCFBFC"/>
<path d="M295.238 0.129919C296.334 0.608463 297.321 1.22186 298.328 1.86524C298.592 2.02708 298.857 2.18893 299.13 2.35568C299.879 2.82062 300.617 3.28615 301.341 3.79125C301.831 4.12266 301.831 4.12266 302.331 4.46076C303.229 5.37556 303.387 5.82134 303.41 7.0865C303.404 7.30839 303.399 7.53027 303.393 7.75888C303.393 7.99086 303.393 8.22283 303.394 8.46184C303.392 8.95038 303.386 9.43892 303.376 9.92736C303.362 10.6743 303.364 11.4199 303.368 12.1669C303.364 12.6426 303.36 13.1184 303.355 13.5941C303.356 13.9279 303.356 13.9279 303.356 14.2684C303.328 15.2717 303.259 15.8788 302.648 16.6902C301.319 17.6928 299.917 18.5567 298.499 19.4282C298.032 19.7255 298.032 19.7255 297.556 20.0289C297.252 20.2161 296.947 20.4033 296.634 20.5962C296.221 20.853 296.221 20.853 295.801 21.1149C294.709 21.5839 293.977 21.6149 292.798 21.4877C291.865 21.0821 291.865 21.0821 290.942 20.5187C290.607 20.3164 290.273 20.114 289.928 19.9055C289.758 19.799 289.587 19.6924 289.411 19.5826C288.887 19.2559 288.359 18.9367 287.831 18.6183C285.258 17.044 285.258 17.044 284.56 15.9957C284.489 15.2163 284.452 14.4708 284.446 13.6907C284.444 13.4653 284.441 13.24 284.438 13.0078C284.434 12.5313 284.431 12.0548 284.43 11.5783C284.426 10.8515 284.411 10.1255 284.396 9.39885C284.393 8.93523 284.391 8.4716 284.389 8.00798C284.383 7.79181 284.377 7.57564 284.371 7.35292C284.382 6.18758 284.516 5.6758 285.256 4.75902C285.931 4.21947 286.567 3.73955 287.315 3.31213C287.537 3.18352 287.76 3.05491 287.988 2.9224C288.216 2.79379 288.444 2.66518 288.679 2.53267C289.133 2.27127 289.588 2.00986 290.042 1.74844C290.257 1.62759 290.472 1.50675 290.694 1.38224C291.318 1.03037 291.318 1.03037 292.044 0.494622C293.137 -0.034369 294.068 -0.109701 295.238 0.129919Z" fill="#00D9AE"/>
<path d="M56.8173 0.665644C59.0592 -0.743037 61.9369 0.866883 61.9369 3.51654V95.6509C61.9369 98.2335 59.1262 99.8435 56.8843 98.5354L43.3659 90.5193C41.559 89.4796 40.3544 88.138 36.9078 90.1168L22.3522 98.4012C21.3149 99.005 20.0433 98.9714 19.0395 98.4012L2.5096 88.8088C0.970379 87.9032 0 86.2597 0 84.4486V42.4565C0 40.6453 0.970379 39.0019 2.5096 38.0963L18.203 29.007C19.7422 28.1014 21.6495 28.1014 23.1887 29.007L37.5771 37.1907C39.2501 38.1634 39.2836 40.5783 37.5771 41.5509L5.25343 60.2662C4.11574 60.937 3.41306 62.1445 3.41306 63.4525C3.41306 64.7606 4.11574 65.968 5.25343 66.6388L35.3352 84.0797C38.9155 86.0585 41.4251 84.0796 41.4251 80.8263V13.1761C41.4251 11.4655 42.2951 9.85561 43.7674 8.91648L56.8173 0.632103V0.665644Z" fill="white"/>
</svg>
