<svg width="70" height="100" viewBox="0 0 70 100" fill="none" xmlns="http://www.w3.org/2000/svg">
<path d="M24.1623 97.0255C24.4438 96.9674 24.8695 96.9199 25.0724 96.7505L25.0993 96.6253C24.9267 96.4698 24.846 96.4665 24.615 96.4002L24.5265 96.2554C25.0595 96.2259 25.4599 96.5222 25.8722 96.6351C26.3863 96.7759 27.0314 96.7988 27.5982 96.9486C26.3908 97.0574 25.1756 97.1565 23.9749 97.3202L24.1623 97.0255Z" fill="#595A8D"/>
<path d="M15.9585 96.9068C16.9109 97.0304 17.8349 97.1818 18.797 97.2195C19.0536 97.2293 19.3742 97.2367 19.6204 97.2743C19.0251 97.3201 18.3591 97.1172 18.0922 97.6557C17.7102 97.3709 16.0639 97.1319 15.4954 97.073C15.6788 97.046 15.791 96.9829 15.9585 96.9068Z" fill="#595A8D"/>
<path d="M36.2996 19.4581C36.4597 19.6241 36.4476 19.6595 36.4779 19.9021C36.2197 19.8805 36.0503 19.8951 35.8428 19.7466C35.9421 19.5519 36.0525 19.5612 36.2996 19.4581Z" fill="#595A8D"/>
<path d="M17.9174 24.3079C23.8603 23.7896 24.4741 34.7367 18.8871 35.4655C12.8942 35.8057 12.54 25.3181 17.9174 24.3079ZM18.2598 25.8409C17.2461 26.1542 16.7677 26.4534 16.2525 27.4419C15.6055 28.707 15.4825 30.1755 15.9104 31.5303C16.3083 32.7814 17.2379 33.9382 18.6727 33.8449C22.4055 33.0399 21.8145 25.8677 18.2598 25.8409Z" fill="#595A8D"/>
<path d="M18.1945 28.0353C19.5698 28.0225 19.6781 29.2431 19.6505 30.2934C19.2817 30.9463 19.2427 31.198 18.5369 31.4212C18.4361 31.4188 18.3356 31.4099 18.236 31.3946C17.0428 31.2116 16.843 29.7285 17.3325 28.8467C17.5786 28.4034 17.7844 28.2948 18.1945 28.0353Z" fill="#595A8D"/>
<path d="M8.18036 24.6165C10.6356 24.4788 11.7975 25.7483 12.4804 28.0223C13.4174 31.1422 12.1816 34.8017 8.86333 35.7309C6.94673 35.8633 5.26715 34.5298 4.71592 32.7657C3.55036 29.0354 4.48702 26.015 8.18036 24.6165ZM8.47256 26.2633C7.85433 26.4681 7.64412 26.5408 7.14503 26.9538C5.09235 28.6528 5.35263 33.9336 8.60665 34.1158C12.4341 32.9401 11.7187 26.15 8.47256 26.2633Z" fill="#595A8D"/>
<path d="M8.25261 28.4457C9.80093 28.5308 9.76013 30.0184 9.40972 31.1181C9.07315 31.4572 8.97343 31.5133 8.55903 31.7607C6.89675 31.6154 6.78868 29.3144 8.25261 28.4457Z" fill="#595A8D"/>
<path d="M13.2354 36.0833C15.0319 35.9423 16.2837 37.5207 14.0059 37.7865C13.3484 37.7978 11.8418 37.8456 11.9175 36.8802C12.2135 36.3707 12.6753 36.2905 13.2354 36.0833Z" fill="#595A8D"/>
<path d="M31.5244 95.5081C31.7435 95.5417 31.9369 95.5425 32.0965 95.6906C31.9585 95.8199 32.0358 95.7815 31.8653 95.8257C31.6113 95.8028 31.5873 95.8445 31.4218 95.7152L31.5244 95.5081Z" fill="#595A8D"/>
<path d="M22.141 0.000334408C22.3559 0.00751696 22.441 0.0743716 22.5958 0.202386C23.0798 1.2677 22.8993 9.29032 22.8438 10.7887C23.2115 10.7951 23.5549 10.7958 23.921 10.8376C24.9662 9.8559 25.8522 8.9682 27.068 8.19526C34.8451 3.25094 35.69 7.54195 35.2671 14.8083C35.2366 15.3325 35.2166 16.0414 35.1113 16.6165C36.0305 16.568 37.7531 16.2605 38.4016 16.761C38.6576 17.1974 38.7488 17.8438 38.7242 18.3423C38.5794 21.2666 38.6736 24.3264 38.447 27.2386C42.6712 29.7764 46.5459 34.4542 48.5562 38.9193C51.7642 46.045 53.7278 54.7194 53.3968 62.5276C54.6677 62.1299 55.5079 61.8276 56.6737 61.105C59.6673 59.2576 63.7453 54.8252 67.6302 56.8622C70.8718 58.5624 70.3249 62.5161 68.7315 65.1965C64.8202 71.7767 56.5858 77.153 48.7293 74.8403C47.4625 77.7309 46.8154 80.5303 45.9065 83.5346C45.0573 86.3426 43.8939 89.2235 42.5208 91.813C41.4474 93.8368 40.4625 95.3771 38.2928 96.3486C39.0704 96.3437 40.3627 96.3522 41.0438 96.7188L41.1651 96.8716C40.87 97.6613 37.3232 97.6871 36.4733 97.8106C33.9925 98.1699 31.5568 98.1083 29.0635 98.0494C26.7477 97.9938 24.5544 98.4003 22.2824 97.6607C22.871 97.5559 23.3907 97.456 23.9749 97.3202L24.1623 97.0255C22.6535 97.1826 21.1374 97.2653 19.6204 97.2743C19.0251 97.3201 18.3591 97.1172 18.0922 97.6557C17.7102 97.3709 16.0639 97.1319 15.4954 97.073C15.6788 97.046 15.791 96.9829 15.9585 96.9068C15.7331 96.8127 15.2759 96.6166 15.0447 96.5992C14.0564 96.5264 9.63986 97.0057 9.0318 96.2431C9.53025 95.5633 12.2848 95.4942 13.1638 95.5637C14.662 95.6816 15.2496 95.9936 16.7448 95.5059C15.1364 94.9976 14.4087 94.3861 13.6404 92.8696C12.2356 90.0959 14.0518 88.6333 14.5355 86.2828C15.7094 80.5791 12.8363 74.5619 12.1877 68.9284C10.7743 69.08 4.77908 70.6796 3.94476 69.9844C3.38857 69.5204 3.18395 68.727 3.05729 68.0486C2.68541 66.0553 2.57093 63.997 2.43321 61.9768C2.28443 59.7948 2.12259 57.5946 1.92178 55.4172C1.73564 53.3984 1.60159 51.3665 1.38283 49.3524C1.23504 47.9917 1.01257 46.6386 0.857648 45.2778C0.523375 42.3276 0.278791 39.3677 0.124435 36.4026C0.0200637 34.4697 -0.0186099 32.5338 0.00826055 30.5984C0.0417723 28.8228 0.157693 27.0925 0.1622 25.3079L0.150679 20.875C0.145671 19.3385 -0.126391 17.9866 1.02471 16.8115C2.20205 15.6099 3.42126 14.4715 4.62612 13.299C5.03313 7.4367 4.73575 6.36503 11.1018 7.33462C12.3273 6.08725 20.5384 -0.0521424 22.141 0.000334408ZM29.0257 76.0472C28.6949 77.549 28.2191 79.2351 27.7782 80.7165C26.2962 85.6949 24.6374 93.3841 19.2453 95.4672C20.1266 95.3534 20.7192 95.2902 21.6116 95.3466C21.6517 95.3419 21.6912 95.3371 21.73 95.3319L21.8453 95.315C21.7698 95.3276 21.6919 95.337 21.6116 95.3466C22.5122 95.4326 24.5904 95.7985 25.2582 95.6226L25.2463 95.5254C24.9603 95.2479 22.9563 95.3558 22.4562 95.0464C23.4676 94.6283 26.3901 94.6938 27.5276 95.0931C27.7184 95.1603 27.9025 95.3238 28.1264 95.3786C28.6341 95.2609 30.8986 95.459 31.5244 95.5081L31.4218 95.7152C31.5873 95.8445 31.6113 95.8028 31.8653 95.8257L31.7656 95.9352C31.9462 96.0423 34.0356 95.9728 34.4068 95.972C30.3457 92.42 33.461 89.5554 32.6652 86.1041C32.1186 83.7338 30.053 78.3241 29.0257 76.0472ZM38.5088 29.9692C38.19 30.2286 37.986 30.8674 38.2813 31.1655L38.1558 31.302C38.2835 31.6098 38.5831 31.6204 38.833 31.8967C38.5387 32.1621 38.7167 32.1284 38.6157 32.35C38.4106 32.6137 38.1086 32.3192 38.0671 32.8066C38.0337 33.2229 38.9303 33.8328 38.3651 34.227C36.0669 35.8271 33.223 35.1388 30.711 34.5595C29.142 34.1975 27.6811 33.8068 26.3463 34.9415L26.1191 35.1372L26.0778 35.1733C26.4305 35.3044 26.7211 35.4017 27.0491 35.5892L27.1163 35.7481C26.9995 35.9903 26.8229 36.0495 26.5809 36.1852C26.8842 36.3596 27.2704 36.54 27.4626 36.8201L27.4776 36.9876C27.155 37.3355 26.6867 37.1368 26.5607 37.4179C27.206 37.8259 28.0176 37.6424 28.3421 37.925C28.192 38.2183 27.9132 38.2163 27.6015 38.2731L27.478 38.3901C27.7594 39.0787 29.2042 38.8219 29.8559 39.1226C29.8035 39.4768 29.0559 39.5179 28.73 39.5737L29.9743 40.3167C30.3682 40.2991 30.9876 40.2413 31.3505 40.3333L31.4974 40.4704L31.4622 40.6182L31.0682 40.8448L31.0698 40.9372C32.9409 42.0179 38.0659 44.6263 38.8096 46.5394L38.7911 46.6736C38.4298 46.8228 37.8294 46.4403 37.508 46.2695C37.5499 49.2396 37.5484 52.2102 37.5032 55.1803C37.4719 59.0242 37.4684 62.8496 36.714 66.6403C36.2345 68.2406 35.8211 68.4007 34.2708 68.3648C30.818 68.2845 26.9989 67.6747 23.5975 67.5773C22.2041 67.5375 15.8547 67.9546 14.7935 68.3836L14.764 68.4958L14.9974 68.8133C14.9544 69.0701 14.7774 69.176 14.573 69.36C14.5041 69.698 14.5036 69.6592 14.7039 70.0084C14.5627 70.3543 13.9592 70.7047 13.6362 70.9192C14.0243 70.9413 14.5315 70.9397 14.8757 71.0902L14.9612 71.2229C14.7775 71.6884 14.2645 71.8426 14.1694 72.2009C14.4997 72.8874 14.9871 72.5993 15.2233 73.011C14.9809 73.6633 14.4987 73.5326 14.5576 73.9647C14.7658 74.2044 15.0742 74.2699 15.3782 74.3697C15.1621 74.6086 14.8478 74.9353 14.6552 75.1792C14.8378 75.2939 15.3765 75.5852 15.3484 75.7726C15.1678 76.9658 15.4076 77.6026 15.6474 78.7426C16.055 80.6618 16.322 82.4084 16.2948 84.3825C16.2563 87.1839 13.1093 91.0248 15.7805 93.4163C17.8093 95.0619 20.4596 93.7388 21.8065 91.9735C24.827 88.0139 25.7633 83.0073 27.1816 78.3497C27.4382 77.5063 28.1228 74.2806 28.9082 73.9835C30.2397 74.1626 34.358 84.6706 33.9882 86.4701C34.0107 86.8228 33.9959 87.1276 33.9982 87.4852C34.0152 90.1222 32.4457 94.5418 36.2896 95.2252C43.1803 96.451 46.2117 72.8497 48.9002 72.5749C49.1599 72.6608 49.1703 72.6837 49.3748 72.8767C49.6349 72.8374 49.7119 72.7686 49.9445 72.6312L50.0517 72.6862C50.0338 73.16 49.9002 73.4703 49.9355 73.9883C50.157 73.7134 50.394 73.3532 50.7004 73.2255C51.0648 73.364 51.0896 73.8058 51.176 74.1658C51.326 73.9766 51.68 73.4941 51.8574 73.3934L51.9831 73.4547L52.036 73.8681C53.3292 74.6549 60.2997 72.1697 61.257 70.8284C61.4248 70.1391 61.0924 69.561 61.5364 69.1218C61.9875 69.359 61.7873 70.3494 62.323 70.2085L62.4427 70.0458C62.3977 69.8081 62.359 69.5692 62.3262 69.3296C62.2754 68.9416 62.1961 68.3994 62.4433 68.0748L62.5819 68.0969C62.8915 68.484 63.0365 69.1148 63.0725 69.603C63.4036 69.2695 63.9307 68.8896 64.16 68.5064C64.0142 68.0806 63.8257 66.9037 64.074 66.5258C64.4219 66.7425 64.5622 67.6614 64.6523 68.0646C65.0732 67.6812 65.3413 67.4132 65.7222 66.9897C65.6968 66.3579 65.5503 65.7773 65.7378 65.1511L65.8575 65.1479C66.0721 65.4163 66.1926 65.9865 66.2893 66.3404C66.5137 65.9939 66.7433 65.557 66.9473 65.1914C66.8801 64.8733 66.6817 64.0005 66.8497 63.7348C67.1607 63.8282 67.17 64.1666 67.4542 64.3199C67.6966 64.0941 67.8067 63.7608 67.9452 63.4484C67.8313 63.1205 67.5026 62.353 67.7221 62.0778C67.9366 62.1551 68.0452 62.2119 68.2482 62.3176L68.3811 62.2687C68.6209 61.7455 68.4095 60.0076 68.1212 59.54C65.452 55.2103 60.0774 61.0259 57.3384 62.3998C55.8662 63.1381 53.8892 64.0802 52.2379 63.7834C52.1797 63.7738 52.0389 63.6774 52.0094 63.6124C52.2656 55.1007 50.3484 46.332 46.793 38.6002C46.2087 37.3295 42.8578 32.3327 41.6612 31.9418C41.4035 32.0165 41.3569 32.0347 41.0928 32.046C40.9322 31.8477 41.0672 31.6931 41.0093 31.2931L40.8819 31.2234L40.7993 31.2442C39.7462 31.5001 40.0218 30.5123 39.2123 30.7774L38.6768 30.5146C38.7707 30.1911 38.7876 30.2991 38.6992 30.014L38.5088 29.9692ZM36.995 18.6156C36.5802 18.3222 35.5635 18.6559 35.0338 18.6796C25.0095 19.1254 14.9479 19.8344 4.91224 19.411C4.15747 19.3792 2.12002 19.0287 1.58606 19.0984L1.48013 19.1927C1.69082 19.607 2.45515 19.9256 2.8819 20.1304C2.51056 20.1264 1.89249 20.0828 1.57614 20.2119C1.49622 20.6733 1.73139 20.7174 2.10389 20.9536L2.11637 21.0732C1.74238 21.2807 1.71731 21.1404 1.55502 21.4172C1.63972 21.9891 2.03191 21.6764 1.93618 22.1627C1.74318 22.3194 1.58899 22.3719 1.58158 22.6461C1.35677 30.9883 1.35686 39.2589 2.23702 47.5691C2.38458 48.9628 2.5281 50.3616 2.65435 51.7649L3.08385 56.5716C3.15193 57.4218 3.18269 58.5709 3.3354 59.3799C3.76974 59.5504 3.72257 59.2585 3.98796 59.4774C3.95632 60.0442 3.11897 60.4763 3.60423 61.05C3.98014 61.0649 4.61753 60.8135 4.99897 60.6871C4.55537 61.2171 3.7146 61.8899 3.60968 62.4231L3.68617 62.5676C3.96985 62.5792 4.04273 62.5643 4.32689 62.5177L4.37905 62.5884C4.23128 62.9139 3.78107 63.6386 3.80106 63.8611C4.1572 64.0223 4.81014 63.7343 5.18043 63.6044C4.80454 64.0504 3.78878 64.9347 4.02285 65.5277C4.4332 65.7303 4.76046 65.3488 4.98073 65.5418C4.86586 66.1915 4.14721 66.2284 4.2968 66.9245C4.73296 67.0027 4.77137 66.7402 5.0889 66.8085C5.20293 67.3677 4.58436 67.6787 4.45074 68.2548C4.52432 68.521 4.44699 68.4365 4.64629 68.5524C5.92417 68.3922 7.59351 67.7961 8.9009 67.4658C11.5212 66.7982 14.1991 66.3778 16.8981 66.2106C19.1845 66.0884 21.4809 66.1946 23.4647 66.2288C25.2933 66.2604 34.2212 67.1663 35.3004 66.7816C35.5877 66.2037 34.8492 66.1082 34.7679 65.5322L34.8635 65.4248C35.1306 65.4422 35.2939 65.4653 35.5577 65.5124L35.6707 65.4056C35.5761 64.9495 35.0745 65.0289 34.9067 64.5782C35.1094 64.2471 35.7441 64.2962 35.7965 64.004C35.4943 63.7296 35.0403 63.3432 34.7951 63.036C35.1762 63.006 35.5545 63.023 35.8601 62.8218C36.0981 62.3275 35.3561 61.7623 35.0008 61.3991C35.2931 61.4113 35.8946 61.4765 36.1178 61.3537L36.1168 61.2396L35.7478 60.9752L35.7277 60.8319C35.8902 60.668 35.9614 60.6569 36.1818 60.5669C36.4155 60.0474 35.7872 60.1223 35.7488 59.6375C35.9223 59.496 35.984 59.4912 36.2029 59.4208C36.8371 58.2184 36.1955 47.2251 35.9789 45.3283C34.972 44.947 33.6972 44.1955 32.7206 43.656C29.9771 42.1406 26.5682 40.6581 25.127 37.6961C24.3094 36.0157 24.7428 33.9108 26.5947 33.1726C28.7854 32.2997 31.3249 33.5137 33.5322 33.7609C34.7508 33.9063 35.3528 33.8666 36.5172 33.7388C36.5338 32.3187 37.0433 22.5646 36.8852 22.1467C36.6967 22.0544 36.66 22.0492 36.4529 22.0038L36.3853 21.8264C36.5845 21.4039 36.8145 21.6674 37.003 21.2161L36.9214 21.0706C36.5874 20.9971 36.2947 21.0398 36.1386 20.8778C36.2549 20.4367 36.6966 20.5533 37.0062 20.3222C36.9944 20.1067 37.0073 20.1812 36.8174 19.9833C36.766 19.9717 36.5092 19.9171 36.4775 19.9021C36.4473 19.6596 36.4596 19.624 36.2996 19.4581C36.723 19.3227 37.1627 19.1607 36.995 18.6156ZM21.3239 2.033C19.0282 3.35807 16.7952 4.79013 14.6335 6.32372C13.793 6.91621 10.1299 9.75227 9.49074 9.63072C9.10894 9.2491 9.40077 8.84121 9.61107 8.41777C8.60448 8.45393 7.58371 8.307 6.6283 8.41969C6.17506 9.43778 6.26908 10.1236 6.23305 11.203C6.16046 13.3744 6.28546 15.9529 5.7229 18.0533C8.6733 18.1702 11.3757 18.3133 14.3614 18.2211C19.4182 18.0651 24.5131 17.755 29.547 17.2441C30.7292 17.1242 32.7706 17.1328 33.7981 16.7956C33.8924 16.5195 33.8948 16.6398 33.7831 16.3611C33.3989 16.0265 32.968 15.994 32.8287 15.7162C32.9559 15.4381 33.2047 15.3579 33.4845 15.254C33.5981 15.212 33.7126 15.1713 33.8273 15.1321C33.4811 15.0087 33.1517 14.9264 32.8937 14.6692L32.8729 14.5094C33.0897 14.2708 33.3712 14.26 33.7037 14.1913C33.2402 13.9255 32.5251 13.5406 32.0984 13.2577L33.6298 12.9348C33.3902 12.7881 32.6463 12.382 32.5493 12.1794C32.8489 11.9809 32.9543 12.048 33.0684 11.8114C32.9111 11.3768 32.797 11.3455 32.3752 11.1694C32.3293 10.8467 32.6404 10.6015 32.8578 10.3766C32.4331 10.2162 32.0055 10.0622 31.5761 9.91461C32.2141 9.62802 32.5494 9.51305 33.215 9.31102C33.1437 8.35586 32.9259 7.49652 31.6683 7.78092C28.5206 8.49338 25.8804 10.6158 23.3277 12.4748C23.1296 12.6195 23.0326 12.636 22.8044 12.627C22.7228 12.4778 22.6997 12.4308 22.637 12.2651C22.3717 12.2 20.9762 12.2997 20.5993 12.3047C18.7267 12.3288 16.2521 12.2888 14.4802 11.6305C14.0907 11.4435 13.64 11.2662 13.2378 11.0978C13.682 11.0451 13.9686 10.9935 14.4059 10.8955L14.765 10.8456L14.8028 10.7235C14.3411 10.004 12.2841 9.37494 13.1238 8.50633C14.0251 8.13435 16.4074 10.1543 17.0911 10.7689C18.4298 10.7644 19.9857 10.7945 21.306 10.7401C21.3507 7.84245 21.307 4.93325 21.3239 2.033ZM4.43058 15.3451C4.00533 15.745 2.43569 17.1554 2.16085 17.536C2.28858 17.7018 2.46325 17.6978 2.6806 17.7195C3.38627 17.7827 4.09131 17.8537 4.79542 17.9327C4.63321 17.1058 4.54209 16.2664 4.52275 15.424L4.43058 15.3451Z" fill="#595A8D"/>
<path d="M43.6708 95.2757C44.6685 95.1889 47.7569 95.1775 48.4191 95.9575L48.3951 96.099C47.888 96.4551 46.3161 96.5124 45.6524 96.5484C44.7803 96.577 41.2099 96.7121 40.7091 96.0524L40.7424 95.8633C41.3053 95.2724 42.8199 95.3248 43.6708 95.2757Z" fill="#595A8D"/>
<path d="M41.2414 97.5649C42.118 97.4912 45.6147 97.4036 46.1467 98.0306C45.8189 98.4095 44.6956 98.4897 44.1776 98.5552C43.3267 98.6861 39.838 98.7541 39.2909 98.1042L39.3644 97.9659C40.0099 97.6377 40.5305 97.6287 41.2414 97.5649Z" fill="#595A8D"/>
<path d="M36.8246 99.0397C35.8086 99.3122 31.0999 99.6895 30.6066 98.8408C30.9984 98.0666 35.6985 98.2458 36.6106 98.5535C36.6731 98.8081 36.6695 98.8367 36.8246 99.0397Z" fill="#595A8D"/>
<path d="M17.4325 98.9088C18.0289 98.385 21.4296 98.4259 22.1182 98.8064L22.1883 98.9628C22.0486 99.1404 21.9649 99.1037 21.6936 99.1568L21.9173 99.4475C21.8171 100.153 19.7127 100.088 19.5051 99.7771C19.6433 99.5971 19.6762 99.5988 19.8975 99.512L19.8972 99.5117C20.2474 99.4929 20.9075 99.3785 21.1728 99.1485C20.8232 99.0487 19.2807 99.1999 18.6967 99.199C18.7616 99.2294 18.8224 99.2498 18.8798 99.263C18.8225 99.2498 18.7618 99.2296 18.697 99.1994C18.3599 99.1683 17.6599 99.1502 17.4325 98.9088Z" fill="#595A8D"/>
<path d="M11.7742 97.623C13.1268 97.0566 14.0654 97.01 15.4954 97.073C16.0639 97.1319 17.7102 97.3709 18.0922 97.6557C15.7665 97.97 14.0648 98.1132 11.7742 97.623Z" fill="#595A8D"/>
<path d="M36.6106 98.5535C36.9114 98.6108 37.147 98.6215 37.3767 98.8122L37.3348 98.9136C37.1201 98.984 37.0463 99.011 36.8246 99.0397C36.6695 98.8367 36.6731 98.8081 36.6106 98.5535Z" fill="#595A8D"/>
</svg>
