<svg width="24" height="24" viewBox="0 0 24 24" fill="none" xmlns="http://www.w3.org/2000/svg">
<path d="M9.74805 12C9.74805 10.7574 10.7554 9.75 11.998 9.75C13.2407 9.75 14.248 10.7574 14.248 12C14.248 13.2426 13.2407 14.25 11.998 14.25C10.7554 14.25 9.74805 13.2426 9.74805 12Z" fill="#00CD9B"/>
<path fill-rule="evenodd" clip-rule="evenodd" d="M6.35076 5.59572C7.92227 4.30899 9.85807 3.25 11.999 3.25C14.14 3.25 16.0758 4.30899 17.6473 5.59572C19.2274 6.88946 20.5194 8.47865 21.3876 9.68801L21.4592 9.78759C21.9819 10.5138 22.4121 11.1117 22.4121 12C22.4121 12.8883 21.9819 13.4862 21.4592 14.2124L21.3876 14.312C20.5194 15.5214 19.2274 17.1105 17.6473 18.4043C16.0758 19.691 14.14 20.75 11.999 20.75C9.85807 20.75 7.92227 19.691 6.35076 18.4043C4.77066 17.1105 3.47864 15.5214 2.61044 14.312L2.53884 14.2124C2.01617 13.4862 1.58594 12.8883 1.58594 12C1.58594 11.1117 2.01618 10.5138 2.53884 9.78759L2.61044 9.68801C3.47864 8.47865 4.77066 6.88946 6.35076 5.59572ZM11.999 8.25C9.92796 8.25 8.24902 9.92893 8.24902 12C8.24902 14.0711 9.92796 15.75 11.999 15.75C14.0701 15.75 15.749 14.0711 15.749 12C15.749 9.92893 14.0701 8.25 11.999 8.25Z" fill="#00CD9B"/>
</svg>
