<svg width="24" height="24" viewBox="0 0 24 24" fill="none" xmlns="http://www.w3.org/2000/svg">
<path d="M13.5 7.74996C13.5 7.05961 14.0596 6.49996 14.75 6.49996C15.4404 6.49996 16 7.05961 16 7.74996C16 8.44032 15.4404 8.99996 14.75 8.99996C14.0596 8.99996 13.5 8.44032 13.5 7.74996Z" fill="white"/>
<path d="M7.5 15.75C7.5 15.0596 8.05964 14.5 8.75 14.5C9.44036 14.5 10 15.0596 10 15.75C10 16.4403 9.44036 17 8.75 17C8.05964 17 7.5 16.4403 7.5 15.75Z" fill="white"/>
<path fill-rule="evenodd" clip-rule="evenodd" d="M16.2135 2.12373C15.0714 1.99999 13.6318 1.99999 11.7952 2H11.7048C9.86821 1.99999 8.42861 1.99999 7.28648 2.12373C6.12094 2.25001 5.17656 2.51232 4.37024 3.09815C3.88209 3.45281 3.45281 3.88209 3.09815 4.37024C2.51232 5.17656 2.25001 6.12094 2.12373 7.28648C1.99999 8.42861 1.99999 9.86821 2 11.7048V11.7952C1.99999 13.6318 1.99999 15.0714 2.12373 16.2135C2.25001 17.3791 2.51232 18.3234 3.09815 19.1298C3.45281 19.6179 3.88209 20.0472 4.37024 20.4018C5.17656 20.9877 6.12094 21.25 7.28648 21.3763C8.42859 21.5 9.86817 21.5 11.7047 21.5H11.7953C13.6318 21.5 15.0714 21.5 16.2135 21.3763C17.3791 21.25 18.3234 20.9877 19.1298 20.4018C19.6179 20.0472 20.0472 19.6179 20.4018 19.1298C20.9877 18.3234 21.25 17.3791 21.3763 16.2135C21.5 15.0714 21.5 13.6318 21.5 11.7953V11.7047C21.5 9.86824 21.5 8.42859 21.3763 7.28648C21.25 6.12094 20.9877 5.17656 20.4018 4.37024C20.0472 3.88209 19.6179 3.45281 19.1298 3.09815C18.3234 2.51232 17.3791 2.25001 16.2135 2.12373ZM14.75 4.99996C13.2312 4.99996 12 6.23118 12 7.74996C12 9.26874 13.2312 10.5 14.75 10.5C16.2688 10.5 17.5 9.26875 17.5 7.74996C17.5 6.23118 16.2688 4.99996 14.75 4.99996ZM9.50005 5.75C9.50005 5.33579 9.16427 5 8.75005 5C8.33584 5 8.00005 5.33579 8.00005 5.75L8.00005 11.75C8.00005 12.1642 8.33584 12.5 8.75005 12.5C9.16427 12.5 9.50005 12.1642 9.50005 11.75L9.50005 5.75ZM15.5001 11.75C15.5001 11.3358 15.1643 11 14.7501 11C14.3358 11 14.0001 11.3358 14.0001 11.75V17.75C14.0001 18.1642 14.3358 18.5 14.7501 18.5C15.1643 18.5 15.5001 18.1642 15.5001 17.75V11.75ZM8.75 13C7.23122 13 6 14.2312 6 15.75C6 17.2687 7.23122 18.5 8.75 18.5C10.2688 18.5 11.5 17.2687 11.5 15.75C11.5 14.2312 10.2688 13 8.75 13Z" fill="white"/>
</svg>
