<svg width="24" height="24" viewBox="0 0 24 24" fill="none" xmlns="http://www.w3.org/2000/svg">
<path d="M11.9997 4.0498C12.4139 4.0498 12.7497 4.38559 12.7497 4.7998V6.50391C13.7328 6.60217 14.6776 6.82453 15.3532 7.05176C15.7456 7.1839 15.9569 7.60946 15.8249 8.00195C15.6928 8.39427 15.2671 8.60546 14.8747 8.47363C13.9793 8.17253 12.5517 7.88543 11.3503 7.96289C10.7487 8.00173 10.2744 8.12784 9.95575 8.32617C9.66996 8.5042 9.48987 8.74793 9.44306 9.1416C9.3856 9.6258 9.45017 9.94985 9.55439 10.1748C9.65773 10.3977 9.82778 10.5836 10.0817 10.7471C10.6332 11.1019 11.4482 11.2815 12.4372 11.4756C12.9041 11.5672 13.4063 11.6628 13.8698 11.7881C14.3319 11.913 14.8072 12.0798 15.2155 12.3369C15.6346 12.6009 16.0039 12.9739 16.2028 13.5029C16.3989 14.025 16.3966 14.6141 16.2399 15.2539C16.0231 16.1388 15.4054 16.7123 14.6862 17.0527C14.1034 17.3285 13.4259 17.4662 12.7497 17.5205V19.2002C12.7495 19.6142 12.4138 19.9502 11.9997 19.9502C11.5857 19.9501 11.2499 19.6142 11.2497 19.2002V17.5186C9.98727 17.4236 8.76207 17.1171 8.05048 16.7422C7.68418 16.5491 7.54409 16.0959 7.737 15.7295C7.93009 15.3632 8.38331 15.2221 8.7497 15.415C9.37598 15.745 10.8677 16.0908 12.2868 16.0459C12.987 16.0237 13.599 15.9081 14.0446 15.6973C14.4735 15.4942 14.7021 15.2306 14.7839 14.8975C14.8921 14.4556 14.8583 14.1906 14.7985 14.0312C14.7413 13.8791 14.6291 13.7409 14.4157 13.6064C14.1913 13.4651 13.8809 13.3452 13.4782 13.2363C13.0769 13.1279 12.6338 13.0426 12.1481 12.9473C11.2316 12.7673 10.1083 12.5479 9.26923 12.0078C8.82832 11.7239 8.43945 11.3372 8.19306 10.8057C7.94757 10.2758 7.8712 9.66066 7.9538 8.96484C8.05784 8.08913 8.51658 7.45623 9.16278 7.05371C9.77522 6.67227 10.5258 6.51294 11.2497 6.46582V4.7998C11.2497 4.38567 11.5856 4.04993 11.9997 4.0498Z" fill="white"/>
</svg>
