<svg width="24" height="24" viewBox="0 0 24 24" fill="none" xmlns="http://www.w3.org/2000/svg">
<path d="M14.7695 3.33159C13.9345 3.0882 13.1322 3.42147 12.3627 3.90693C11.5898 4.39449 10.6518 5.16762 9.47816 6.1349L8.43797 6.9922C8.23851 7.15659 8.15785 7.2228 8.07791 7.28237C7.40104 7.78676 6.5893 8.07816 5.74617 8.11942C5.6466 8.12429 5.54225 8.1245 5.28377 8.1245L5.2422 8.12449C5.01938 8.12443 4.8477 8.12438 4.69421 8.14156C3.41758 8.28441 2.40992 9.29206 2.26707 10.5687C2.2499 10.7222 2.24994 10.8939 2.25001 11.1167V12.3466C2.24994 12.5694 2.2499 12.7411 2.26707 12.8946C2.40992 14.1712 3.41758 15.1789 4.69421 15.3217C4.84771 15.3389 5.01939 15.3389 5.24221 15.3388L5.28377 15.3388C5.54225 15.3388 5.6466 15.339 5.74617 15.3439C6.5893 15.3851 7.40104 15.6765 8.07791 16.1809C8.15785 16.2405 8.23851 16.3067 8.43797 16.4711L9.47814 17.3284C10.6518 18.2957 11.5898 19.0688 12.3627 19.5564C13.1322 20.0418 13.9345 20.3751 14.7695 20.1317C15.0467 20.0509 15.3094 19.927 15.548 19.7645C16.2669 19.2749 16.5199 18.4439 16.6347 17.5413C16.75 16.6348 16.75 15.4192 16.75 13.8983V9.56497C16.75 8.04411 16.75 6.82853 16.6347 5.92202C16.5199 5.01942 16.2669 4.18835 15.548 3.69876C15.3094 3.53627 15.0467 3.41236 14.7695 3.33159Z" fill="white"/>
<path d="M20.0412 9.12718C19.8717 8.95761 19.5967 8.95761 19.4272 9.12718C19.2576 9.29675 19.2576 9.57167 19.4272 9.74124L19.6588 9.97282C19.6945 10.0085 19.7091 10.0232 19.7208 10.0352C20.6487 10.9901 20.6487 12.5099 19.7208 13.4648C19.7091 13.4768 19.6945 13.4915 19.6588 13.5272L19.4272 13.7588C19.2576 13.9283 19.2576 14.2033 19.4272 14.3728C19.5967 14.5424 19.8717 14.5424 20.0412 14.3728L20.2759 14.1381C20.3076 14.1065 20.327 14.0871 20.3436 14.07C21.599 12.7781 21.599 10.7219 20.3436 9.43003C20.327 9.41292 20.3076 9.39358 20.2759 9.36183L20.0412 9.12718Z" fill="white"/>
</svg>
