<svg width="20" height="20" viewBox="0 0 20 20" fill="none" xmlns="http://www.w3.org/2000/svg">
<g opacity="0.6">
<path d="M14.6112 9.77493C14.8542 9.52976 14.8524 9.13404 14.6073 8.89105C14.3621 8.64807 13.9664 8.64983 13.7234 8.895L12.2673 10.3641C11.6764 10.9604 11.2697 11.3694 10.9251 11.6461C10.5903 11.915 10.3753 12.0072 10.1827 12.0317C10.0618 12.0471 9.93948 12.0471 9.81856 12.0317C9.626 12.0072 9.41098 11.915 9.07624 11.6461C8.73163 11.3694 8.32493 10.9604 7.73398 10.3641L6.27789 8.895C6.03491 8.64983 5.63918 8.64807 5.39402 8.89105C5.14885 9.13404 5.14709 9.52976 5.39008 9.77493L6.8724 11.2705C7.43068 11.8338 7.88697 12.2942 8.29353 12.6207C8.71631 12.9603 9.14542 13.206 9.66052 13.2717C9.88637 13.3005 10.1149 13.3005 10.3408 13.2717C10.8559 13.206 11.285 12.9603 11.7078 12.6207C12.1143 12.2942 12.5706 11.8339 13.1289 11.2705L14.6112 9.77493Z" fill="white"/>
</g>
</svg>
