<svg width="24" height="24" viewBox="0 0 24 24" fill="none" xmlns="http://www.w3.org/2000/svg">
<path fill-rule="evenodd" clip-rule="evenodd" d="M11.7138 1.03051C11.9038 1.02108 12.0941 1.02108 12.2841 1.03051C13.0174 1.06692 13.6926 1.28001 14.4452 1.62929C15.178 1.96931 16.0294 2.46089 17.1066 3.0828L17.1675 3.11801C18.2447 3.73991 19.0962 4.2315 19.757 4.69604C20.4358 5.17323 20.958 5.65139 21.3562 6.26829C21.4593 6.42809 21.5545 6.59292 21.6413 6.76215C21.9764 7.41546 22.1295 8.10672 22.2033 8.93318C22.2752 9.73774 22.2752 10.7209 22.2752 11.9647V12.0351C22.2752 13.2789 22.2752 14.2621 22.2033 15.0667C22.1295 15.8931 21.9764 16.5844 21.6413 17.2377C21.5545 17.407 21.4593 17.5718 21.3562 17.7316C20.8709 18.4834 20.1995 19.0312 19.2863 19.6197C18.707 19.9931 18.0009 20.4008 17.152 20.8908L17.1066 20.9171C16.0294 21.539 15.178 22.0306 14.4452 22.3706C13.6926 22.7199 13.0174 22.9329 12.2841 22.9694C12.0941 22.9788 11.9038 22.9788 11.7138 22.9694C10.9804 22.9329 10.3053 22.7199 9.55263 22.3706C8.8199 22.0306 7.96846 21.539 6.89128 20.9171L6.84648 20.8912C6.00557 20.4057 5.30476 20.0011 4.72872 19.6308C3.8067 19.038 3.12997 18.488 2.6417 17.7316C2.53855 17.5718 2.44339 17.407 2.35657 17.2377C2.02142 16.5844 1.86838 15.8931 1.79454 15.0667C1.72265 14.2621 1.72265 13.279 1.72266 12.0352V11.9647C1.72265 10.7209 1.72265 9.73775 1.79454 8.93318C1.86838 8.10672 2.02142 7.41546 2.35657 6.76215C2.44339 6.59292 2.53855 6.4281 2.6417 6.26829C3.03991 5.65139 3.56204 5.17323 4.24085 4.69604C4.90168 4.2315 5.75312 3.73993 6.83029 3.11803L6.8913 3.0828C7.96847 2.46089 8.8199 1.96931 9.55263 1.62929C10.3053 1.28001 10.9804 1.06692 11.7138 1.03051ZM18.6074 18.2718C17.9626 16.9279 16.5891 15.9999 14.9989 15.9999H8.99894C7.40875 15.9999 6.0353 16.9279 5.3905 18.2718C5.43893 18.3037 5.4887 18.3361 5.53988 18.369C6.08241 18.7178 6.7527 19.105 7.6108 19.6004C8.72519 20.2438 9.51911 20.7014 10.184 21.01C10.8359 21.3125 11.3154 21.4477 11.7882 21.4712C11.9286 21.4782 12.0693 21.4782 12.2097 21.4712C12.6825 21.4477 13.1619 21.3125 13.8138 21.01C14.4788 20.7014 15.2727 20.2438 16.3871 19.6004C17.2537 19.1001 17.9287 18.7102 18.4738 18.3589C18.5194 18.3294 18.5639 18.3004 18.6074 18.2718ZM11.9989 4.24994C9.37555 4.24994 7.2489 6.37659 7.2489 8.99994C7.2489 11.6233 9.37555 13.7499 11.9989 13.7499C14.6223 13.7499 16.7489 11.6233 16.7489 8.99994C16.7489 6.37659 14.6223 4.24994 11.9989 4.24994Z" fill="white"/>
</svg>
