<svg width="24" height="24" viewBox="0 0 24 24" fill="none" xmlns="http://www.w3.org/2000/svg">
<g clip-path="url(#clip0_119_876)">
<path d="M12 0C5.37258 0 0 5.37258 0 12C0 18.6274 5.37258 24 12 24C18.6274 24 24 18.6274 24 12C24 5.37258 18.6274 0 12 0ZM18.2371 7.59075L16.1058 17.7656C16.08 17.8887 16.0237 18.0033 15.9421 18.0989C15.8605 18.1946 15.7561 18.2681 15.6386 18.3129C15.5211 18.3577 15.3942 18.3722 15.2697 18.3551C15.1451 18.3381 15.0268 18.29 14.9257 18.2153L11.8255 15.9249L9.94734 17.6968C9.92276 17.72 9.8938 17.7381 9.86216 17.75C9.83051 17.7618 9.79682 17.7673 9.76305 17.766C9.72927 17.7647 9.69609 17.7567 9.66544 17.7425C9.63479 17.7282 9.60729 17.708 9.58453 17.683L9.54417 17.6387L9.87052 14.4805L15.7526 9.10622C15.7817 9.07969 15.7998 9.04321 15.8033 9.004C15.8068 8.96478 15.7955 8.92567 15.7716 8.89438C15.7477 8.86309 15.7129 8.8419 15.6742 8.83497C15.6354 8.82805 15.5955 8.8359 15.5622 8.85699L8.03977 13.6181L4.8 12.53C4.71386 12.5011 4.63878 12.4462 4.58506 12.3729C4.53135 12.2996 4.50163 12.2115 4.49999 12.1206C4.49835 12.0297 4.52486 11.9406 4.57588 11.8654C4.62691 11.7902 4.69996 11.7326 4.785 11.7006L17.4609 6.9255C17.5587 6.8887 17.6646 6.87885 17.7675 6.89697C17.8704 6.91509 17.9665 6.96052 18.0458 7.02851C18.1252 7.0965 18.1848 7.18455 18.2184 7.28345C18.2521 7.38236 18.2585 7.48849 18.2371 7.59075Z" fill="white"/>
</g>
<defs>
<clipPath id="clip0_119_876">
<rect width="24" height="24" fill="white"/>
</clipPath>
</defs>
</svg>
