<svg width="24" height="24" viewBox="0 0 24 24" fill="none" xmlns="http://www.w3.org/2000/svg">
<path d="M6.25 6.75C6.25 4.12665 8.37665 2 11 2C13.6234 2 15.75 4.12665 15.75 6.75C15.75 9.37335 13.6234 11.5 11 11.5C8.37665 11.5 6.25 9.37335 6.25 6.75Z" fill="white"/>
<path d="M3.25 17.75C3.25 15.1266 5.37665 13 8 13H14C15.1687 13 16.2388 13.4221 17.0662 14.1221C16.5729 14.1356 16.0836 14.3306 15.7071 14.7071C14.9261 15.4882 14.9261 16.7545 15.7071 17.5355L16.4142 18.2426L15.7071 18.9497C14.9261 19.7308 14.9261 20.9971 15.7071 21.7782C15.8088 21.8798 15.9186 21.9682 16.0346 22.0434C15.4179 22.3362 14.7281 22.5 14 22.5H8C5.37665 22.5 3.25 20.3734 3.25 17.75Z" fill="white"/>
<path d="M21.8941 16.6515C22.187 16.3586 22.187 15.8837 21.8941 15.5908C21.6012 15.2979 21.1263 15.2979 20.8334 15.5908L19.2425 17.1818L17.6515 15.5908C17.3586 15.2979 16.8837 15.2979 16.5908 15.5908C16.2979 15.8837 16.2979 16.3586 16.5908 16.6515L18.1818 18.2424L16.5908 19.8334C16.2979 20.1263 16.2979 20.6012 16.5908 20.8941C16.8837 21.187 17.3586 21.187 17.6515 20.8941L19.2425 19.3031L20.8334 20.8941C21.1263 21.187 21.6012 21.187 21.8941 20.8941C22.187 20.6012 22.187 20.1263 21.8941 19.8334L20.3031 18.2424L21.8941 16.6515Z" fill="white"/>
</svg>
