<svg width="73" height="100" viewBox="0 0 73 100" fill="none" xmlns="http://www.w3.org/2000/svg">
<g clip-path="url(#clip0_1470_251125)">
<path d="M29.3966 79.8337C29.3315 79.3815 29.3302 77.6666 29.438 77.2591C29.6444 77.1698 29.8501 77.1882 30.0841 77.1797L30.1249 77.2965C30.0868 77.6089 30.1433 77.5597 29.9645 77.7251C29.8304 77.7257 29.6963 77.7277 29.5622 77.731C29.3111 78.0099 29.4715 79.2719 29.3966 79.8337Z" fill="#595A8D"/>
<path d="M30.0859 77.1798C30.1089 76.7926 30.0688 76.4061 30.6197 76.4711C30.9214 76.7158 30.8524 76.7703 30.8274 77.1601C30.5954 77.1352 30.3883 77.0794 30.1905 77.1798L30.1267 77.2966L30.0859 77.1798Z" fill="#595A8D"/>
<path d="M54.8652 63.0843C55.2136 63.0561 55.7132 63.1053 56.0537 62.9957C56.2437 62.9347 56.2397 62.791 56.2897 62.6072C56.4869 62.4832 56.6367 62.5212 56.8977 62.5127C56.8865 62.7562 56.922 62.8973 56.8109 63.0745C56.4501 63.1145 55.2294 63.1237 54.8652 63.0843Z" fill="#595A8D"/>
<path d="M18.7988 2.73829C19.1024 2.68606 19.1155 2.77498 19.4389 2.62378C19.6163 2.40806 19.5739 2.51516 19.5595 2.19201C19.7523 2.08209 19.88 2.11772 20.1271 2.11398C20.1228 2.45734 20.1782 2.44868 20.0225 2.69019C19.6482 2.87618 19.2459 2.77459 18.7988 2.73829Z" fill="#595A8D"/>
<path d="M21.4434 94.506C21.9469 94.4496 21.8476 94.4443 22.0211 93.9685C22.2368 93.8248 22.2729 93.878 22.5878 93.8721C22.5779 94.2245 22.6364 94.2015 22.4668 94.4345C22.2032 94.5828 21.7484 94.5395 21.4434 94.506Z" fill="#595A8D"/>
<path d="M38.2553 96.6151C38.4755 96.6072 38.6786 96.5659 38.8495 96.6827C38.8804 96.833 38.9165 97.19 38.9593 97.2779C38.7266 97.2713 38.555 97.2897 38.3473 97.1893C38.2237 97.022 38.2559 96.8349 38.2553 96.6151Z" fill="#595A8D"/>
<path d="M48.9336 36.4488C49.2314 36.4515 49.2274 36.4026 49.4319 36.5386C49.6152 36.8893 49.5778 37.3013 49.5429 37.7061C49.5074 37.3799 49.5567 37.3429 49.3931 37.1161C48.8777 36.9274 48.9605 36.9762 48.9336 36.4488Z" fill="#595A8D"/>
<path d="M28.0062 83.9365C28.0101 84.2259 28.0555 84.2292 27.9365 84.4458C27.7189 84.5239 27.5888 84.497 27.3594 84.4825C27.3712 84.2903 27.3798 84.226 27.4179 84.0369C27.6348 83.886 27.6808 83.9418 28.0062 83.9365Z" fill="#595A8D"/>
<path d="M40.3027 95.864C40.3146 95.7261 40.3343 95.5831 40.3501 95.4453C40.5505 95.23 40.5749 95.2878 40.9285 95.207C40.9114 95.5385 40.9666 95.5883 40.8069 95.8088C40.5755 95.8587 40.5315 95.8567 40.3027 95.864Z" fill="#595A8D"/>
<path d="M36.2061 65.9062C35.9083 65.9036 35.8696 65.9226 35.6941 65.708C35.6671 65.1397 36.4335 64.9657 36.8187 65.2703C36.9804 65.3982 36.943 65.6667 36.9542 65.8635L36.9193 65.9121L36.2061 65.9062Z" fill="#595A8D"/>
<path d="M5.41211 63.9453C5.67701 63.9329 5.93278 63.883 6.14227 64.026C6.27584 64.2151 6.25684 64.1179 6.24205 64.3161C5.98195 64.5832 5.85469 64.5156 5.48849 64.4795L5.4461 64.4644L5.41211 63.9453Z" fill="#595A8D"/>
<path d="M36.2051 65.9062L36.9183 65.9122C36.9051 66.3151 36.9183 66.6006 36.9406 67.0016C36.8473 66.5021 36.7888 66.5973 36.3273 66.4372C36.1735 66.2226 36.2248 66.2213 36.2051 65.9062Z" fill="#595A8D"/>
<path d="M1.37491 23.3799C1.74571 23.3797 1.71311 23.323 1.98379 23.4848L2.07096 23.6599C1.97821 23.9052 2.05117 23.8052 1.83912 23.9673L1.39417 23.99C1.35841 23.7653 1.36998 23.6047 1.37491 23.3799Z" fill="#595A8D"/>
<path d="M4.79739 64.4859C4.78858 64.2732 4.77425 64.2325 4.8313 64.0245C5.0569 63.8946 5.10482 63.9451 5.41192 63.9458L5.44591 64.4649L4.79739 64.4859Z" fill="#595A8D"/>
<path d="M1.97266 20.6172C2.33912 20.6749 2.7581 20.6747 2.70328 21.1811C2.50555 21.3202 2.61809 21.2708 2.33333 21.2777C2.13574 21.2308 2.15691 21.276 2.06146 21.1662C2.17064 20.8163 2.16473 20.8924 1.97266 20.6172Z" fill="#595A8D"/>
<path d="M15.4434 32.6338C15.7039 32.6344 15.8752 32.5882 16.0599 32.7136C16.1022 32.9233 16.0953 32.9437 16.0877 33.1502C15.8581 33.1562 15.8193 33.156 15.5936 33.1222C15.4219 32.9275 15.4769 32.9523 15.4434 32.6338Z" fill="#595A8D"/>
<path d="M13.3875 37.0493C13.9925 37.0428 15.4682 36.9954 15.9998 37.0692C16.1325 37.2059 16.0948 37.3676 16.1154 37.6145L16.2194 37.691C16.4181 37.6818 16.534 37.659 16.7197 37.732C16.7875 37.9337 16.7676 37.9794 16.7525 38.1908C16.5983 38.4184 16.5315 38.3813 16.2171 38.5076C16.0581 38.7097 16.1129 38.7416 16.0966 39.0619L12.6929 39.0553L12.6621 37.6824C12.8866 37.6843 13.0889 37.706 13.2982 37.6333C13.4346 37.4008 13.3838 37.365 13.3875 37.0493Z" fill="#595A8D"/>
<path d="M15.4854 75.1562C15.6343 76.2962 16.1212 75.2744 16.0956 76.4891C15.6333 76.4905 15.3859 76.5088 15.4032 75.93C15.4108 75.6767 15.4488 75.4056 15.4854 75.1562Z" fill="#595A8D"/>
<path d="M26.002 83.8885C26.0079 83.6759 25.9941 83.5709 26.0868 83.3773C26.8065 83.2027 26.4332 82.4086 26.5765 81.7012C26.6087 82.2157 26.6376 83.3117 26.5686 83.8157C26.4397 83.92 26.2018 83.8885 26.002 83.8885Z" fill="#595A8D"/>
<path d="M22.5479 91.8579C22.5453 92.1125 22.5782 92.3284 22.4276 92.524C22.2351 92.6454 21.9892 92.6329 21.7559 92.6231C22.0168 92.436 21.907 92.2332 21.98 91.9392C22.2048 91.806 22.239 91.8572 22.5479 91.8579Z" fill="#595A8D"/>
<path d="M51.4912 73.1109C51.4761 72.7585 51.4209 72.79 51.5707 72.54C51.789 72.4297 51.6766 72.4521 51.9224 72.4744C52.1334 72.6168 52.0559 72.5256 52.1597 72.7612C52.1157 72.9738 52.1275 72.9639 51.9776 73.1182L51.6181 73.1989L51.4912 73.1109Z" fill="#595A8D"/>
<path d="M30.0391 40.456C30.4821 40.3324 31.2689 40.2608 31.4832 40.7661C31.3116 41.0922 31.1789 41.0302 30.8272 41.0169C30.841 40.8285 30.8377 40.7728 30.8233 40.5836C30.6274 40.4199 30.3533 40.4709 30.0391 40.456Z" fill="#595A8D"/>
<path d="M53.6243 74.4615C53.2845 74.4215 52.9749 74.4372 52.8105 74.094C52.8704 73.8571 52.8132 73.9542 52.9782 73.7849C53.1261 73.8006 53.2372 73.8112 53.3851 73.8164C53.4449 73.6175 53.4593 73.4509 53.4856 73.2461C53.4869 73.6116 53.4238 74.0317 53.5067 74.346L53.6243 74.4615Z" fill="#595A8D"/>
<path d="M40.9273 32.5652C41.2231 32.5487 41.3395 32.4909 41.5629 32.6209C41.6307 32.827 41.6201 32.9023 41.6228 33.1147C41.3473 33.1267 41.2014 33.1794 40.9871 33.0625C40.9122 32.8642 40.9267 32.7743 40.9273 32.5652Z" fill="#595A8D"/>
<path d="M14.7802 73.1376C15.1243 73.1468 15.1272 73.0937 15.3811 73.2453L15.4788 73.431C15.3989 73.6495 15.4645 73.5635 15.2758 73.6981C15.1006 73.6994 14.9983 73.6968 14.8242 73.681C14.7293 73.5071 14.7672 73.3424 14.7802 73.1376Z" fill="#595A8D"/>
<path d="M28.0293 37.0784C28.2935 37.0685 28.4467 37.0173 28.6478 37.133C28.6662 37.2263 28.7386 37.6302 28.7688 37.6928C28.521 37.6933 28.5078 37.7079 28.2738 37.6069C28.0825 37.4318 28.0865 37.332 28.0293 37.0784Z" fill="#595A8D"/>
<path d="M29.4336 40.4043C29.6617 40.4929 29.7958 40.4664 30.039 40.4556C30.0028 40.7792 30.0548 40.7118 29.8865 40.9459C29.6689 41.037 29.7761 41.0355 29.5539 40.946C29.3928 40.7145 29.4467 40.7414 29.4336 40.4043Z" fill="#595A8D"/>
<path d="M33.8361 10.665C34.1838 10.6519 34.5519 10.5811 34.8103 10.7745C34.8918 10.9683 34.8602 11.1134 34.8458 11.325C34.4731 11.3382 34.1556 11.4128 33.8808 11.2097C33.8039 11.0132 33.8282 10.8759 33.8361 10.665Z" fill="#595A8D"/>
<path d="M15.4316 9.45898C15.5996 10.3566 15.7947 9.75293 16.0865 10.2121L16.0932 10.6591C15.8828 10.6667 15.7368 10.7022 15.5742 10.582C15.3892 10.2501 15.4466 9.87388 15.4316 9.45898Z" fill="#595A8D"/>
<path d="M34.8895 13.2863C34.7344 13.2881 34.5806 13.284 34.4254 13.2811C34.2105 13.1353 34.2854 13.2292 34.1895 12.9914L34.2769 12.8116C34.551 12.6466 34.5089 12.7027 34.8816 12.6976L34.8895 13.2863Z" fill="#595A8D"/>
<path d="M23.2616 0.0638041C23.6001 0.061245 24.2367 -0.00213227 24.5253 0.205406C24.6187 0.272936 24.5617 0.467886 24.538 0.576499C24.7686 0.935467 24.9583 0.62447 25.2304 0.872398C25.3171 1.53929 25.2646 3.25768 25.2626 4.03255V10.6077C25.5372 10.614 26.3328 10.6789 26.495 10.5296C26.501 10.3475 26.5056 10.2137 26.5292 10.0306C26.9492 9.70404 27.3782 10.4307 27.3447 9.44369C27.5847 9.17133 28.3237 9.44432 28.6786 9.2972C28.8397 8.96664 28.5997 8.91857 28.8173 8.64779C29.2759 8.56609 29.6014 8.69525 29.9628 8.57552C30.1357 8.16716 29.7635 8.48904 30.0575 8.09994C30.5294 7.9159 30.8953 7.97845 31.4111 7.99252L31.4277 7.2806C31.8828 7.2895 32.9371 7.36614 33.2861 7.15169C33.3235 7.00223 33.3182 7.0116 33.2861 6.8597C33.3551 6.74405 33.4018 6.64205 33.5712 6.6263C34.3421 6.55485 35.4063 6.59458 36.1767 6.60384C36.1819 6.82762 36.1532 7.08594 36.287 7.24642C36.5164 7.32758 36.6982 7.31125 36.9413 7.31478C36.9374 7.72469 36.8926 8.94416 36.9814 9.26009C37.1233 9.35975 37.2984 9.33353 37.4823 9.33529C37.6033 9.44187 37.5799 9.38114 37.5878 9.52669C37.6325 10.3924 37.6123 11.2821 37.6103 12.1507L37.5976 16.6156C38.1011 16.6142 39.9917 16.5171 40.2363 16.7357C40.2421 16.9148 40.2365 17.0507 40.287 17.224C40.6486 17.3761 40.6432 17.1593 40.8779 17.3783C40.9402 17.8464 40.936 20.0645 40.8827 20.5492C40.5958 20.7638 40.5471 20.5309 40.3007 20.722C40.2133 21.3618 40.2401 23.4849 40.248 24.2122C40.2585 25.1414 40.198 27.0296 40.288 27.8656L40.3573 27.9515C40.5191 27.9665 40.6813 27.9798 40.8437 27.9915C41.0756 28.3108 40.8047 28.3858 41.0361 28.682C41.2075 28.6761 41.2213 28.6703 41.3886 28.6273C41.6029 28.7517 41.6226 28.8641 41.6943 29.1302C41.7067 29.1762 41.7192 29.2226 41.7304 29.2689C42.4493 29.5264 42.9579 28.816 42.912 29.8665L43.0029 29.9661C43.2092 29.9618 43.319 29.9462 43.5195 30.0052C43.6128 30.1691 43.5798 30.3268 43.5712 30.5218L43.663 30.6165C43.944 30.6189 44.0053 30.566 44.1747 30.7035C44.1787 30.8801 44.1837 31.0158 44.1982 31.1937C44.4328 31.4007 44.8027 31.094 44.8417 31.4251C44.8752 31.7126 44.7574 31.6867 44.9159 31.9144C45.2272 31.9362 45.3603 31.869 45.5107 32.0247C45.5054 32.2409 45.4947 32.332 45.54 32.5482C45.8172 32.7431 45.9673 32.4798 46.205 32.7083C46.207 33.0124 46.1518 33.0431 46.3017 33.2161C46.4901 33.2202 46.6422 33.226 46.83 33.2406C47.1441 33.6111 46.6544 34.2888 47.1513 34.2943C47.4075 34.2971 47.4461 34.2344 47.6308 34.3509C47.6885 34.7039 47.576 34.8026 47.7323 34.9769C47.9018 34.9787 48.0713 34.9842 48.2402 34.9935C48.4433 35.2989 48.2058 35.6172 48.4325 35.7699C48.7384 35.777 48.6118 35.728 48.8388 35.8841C48.94 36.0687 48.9243 36.2348 48.9335 36.4486C49.2313 36.4512 49.2281 36.4024 49.4325 36.5384C49.6159 36.889 49.5777 37.3016 49.5429 37.7064C49.8563 37.711 49.8764 37.6597 50.0995 37.7992C50.3085 38.1786 50.031 38.6303 50.2031 39.0482C50.397 39.0997 50.4381 39.0881 50.6366 39.0843L50.7284 39.1488C50.8296 39.718 50.632 40.6822 50.8456 41.0228C51.136 41.0584 51.2789 40.9994 51.415 41.1439C51.5068 41.6315 51.3447 42.0304 51.4687 42.3802C51.8315 42.5453 51.906 42.2929 52.0947 42.5257C52.2481 43.1646 51.9149 44.3059 52.249 44.5189C52.5007 44.5233 52.608 44.4781 52.7743 44.597C52.8551 45.0511 52.8047 46.0041 52.8007 46.5052C53.0025 46.501 53.3158 46.4644 53.4697 46.5609C53.5788 47.3201 53.3219 48.6639 53.6288 49.2533C54.0502 49.4935 53.8045 49.1254 54.0937 49.3997C54.254 50.085 54.1488 51.883 54.1738 52.7191C54.4148 52.7249 54.6318 52.7008 54.8388 52.7972C54.9295 53.4378 54.8779 55.4178 54.8779 56.1937L54.8652 63.0833C55.2135 63.0551 55.7131 63.104 56.0536 62.9945C56.2435 62.9335 56.2401 62.7904 56.29 62.6068C56.4872 62.4827 56.6374 62.5206 56.8984 62.512C57.326 62.5035 57.782 62.5416 58.1552 62.3587C58.2656 62.068 57.9434 62.0833 58.37 61.8451C58.6314 61.851 58.727 61.8986 58.9208 61.7904C58.9944 61.4517 58.8844 61.3715 59.0185 61.1976C59.5732 61.0428 60.08 61.3633 60.3154 61.0365C60.3127 60.7414 60.2537 60.6665 60.3993 60.5013C60.9179 60.4173 61.4104 60.7038 61.6503 60.4105C61.6529 60.1283 61.5962 60.0347 61.7402 59.887C61.9091 59.8864 62.0781 59.8841 62.247 59.8802C62.5148 59.5967 62.0838 59.206 62.6279 59.2132C62.8526 59.2158 62.994 59.2871 63.1825 59.1849C63.2377 58.9789 63.2246 58.9084 63.2167 58.7005L63.2841 58.5951C63.7594 58.4966 64.0899 58.6514 64.5204 58.5306C64.7139 58.2335 64.3873 58.0704 64.9111 57.93C65.0602 57.8901 65.6415 57.9267 65.8261 57.9339C65.8241 57.6727 65.7879 57.4457 65.9345 57.2357C66.3713 57.0757 66.4186 57.4202 66.6825 57.0521C66.701 56.7765 66.6598 56.6727 66.7939 56.4876C67.4229 56.4457 69.5531 56.4314 70.1669 56.4984C70.2826 56.6552 70.2457 56.9446 70.2529 57.1644C70.6611 57.1611 71.0826 57.1506 71.4902 57.1644C71.4935 57.3914 71.4673 57.6802 71.5829 57.8587C71.7749 57.9715 72.0261 57.9443 72.2587 57.9456C72.2429 58.3669 72.1567 58.9001 72.4247 59.2171C72.5884 59.2624 72.5778 59.2583 72.748 59.2347C72.9892 59.4611 72.9813 62.9716 72.7802 63.1995C72.4957 63.2225 72.4215 63.1726 72.2822 63.3275C72.1772 63.8776 72.3829 64.93 72.1601 65.182C71.8508 65.1963 71.7532 65.148 71.5712 65.3304C71.3717 66.0895 72.0423 66.6003 71.0058 66.555L70.8974 66.6351C70.8843 66.9339 70.9451 67.0725 70.7949 67.2298C70.572 67.2311 70.4131 67.1893 70.2646 67.2923C70.2396 67.5763 70.2986 67.7414 70.162 67.8851C69.98 67.8884 69.8138 67.8932 69.6318 67.9036C69.3746 68.2066 69.7383 68.4207 69.414 68.6234C69.1254 68.6201 69.0358 68.5627 68.8642 68.7025C68.8556 68.8961 68.8472 69.0379 68.8222 69.2327C68.6593 69.3402 68.4617 69.297 68.2529 69.2865L68.1572 69.3597C68.144 69.5452 68.1406 69.6764 68.1406 69.8626C67.8626 70.0744 67.6795 69.8558 67.4423 70.0433C67.4436 70.2861 67.4916 70.3605 67.374 70.5062C67.163 70.5187 66.8465 70.4879 66.7197 70.5726C66.7065 70.7287 66.6979 70.8852 66.6933 71.0413C66.416 71.2362 66.3024 70.9956 65.9384 71.2035C65.9266 71.3695 65.9218 71.5013 65.9199 71.6673C65.6622 71.9052 65.0913 71.6343 64.7646 71.8011C64.6515 72.2034 64.8327 72.2135 64.6513 72.4281C64.3259 72.4464 64.0725 72.3683 63.9042 72.516C63.9003 72.7233 63.8983 72.8281 63.872 73.0374C63.6084 73.2153 63.0519 73.0016 62.6923 73.1859C62.6581 73.386 62.6717 73.3245 62.7197 73.5404C62.4554 73.8999 61.6716 73.7843 61.2509 73.7699L61.2226 74.5091C60.7782 74.4999 59.9871 74.4217 59.6572 74.6888C59.6146 74.8623 59.6329 74.8617 59.6855 75.0374C59.3115 75.3505 58.0796 75.0228 57.582 75.1908C57.4995 75.22 57.5003 75.6167 57.499 75.6869C57.299 75.8726 53.7819 75.8188 53.2626 75.8031C53.1537 75.7991 53.0448 75.792 52.9365 75.7835C52.7945 75.6293 52.8612 75.4579 52.8007 75.2191C52.3815 75.0198 50.6293 75.3587 50.3007 75.0726C50.2797 74.8195 50.3089 74.6208 50.1493 74.4798C49.9548 74.4818 49.9615 74.4709 49.7939 74.5628C49.7085 75.0302 49.7402 75.954 49.7402 76.4788L49.0156 76.4915C49.0169 76.9059 49.0581 78.0883 48.9667 78.4085C48.5798 78.5685 48.5569 78.3662 48.3974 78.5882C48.3106 79.2537 48.394 80.1711 48.373 80.8851L47.663 80.9115C47.6676 81.6353 47.6654 82.3595 47.6562 83.0833L46.9335 83.1107C46.9381 83.6181 46.9746 84.6142 46.9003 85.0794C46.7425 85.1874 46.4263 85.1572 46.2148 85.1585L46.2118 87.18C45.8884 87.1892 45.8145 87.1391 45.5673 87.2952C45.3451 87.7251 45.4935 88.5791 45.4823 89.1966L44.7333 89.2103C44.7386 89.4938 44.7783 90.2374 44.7021 90.471C44.5338 90.5642 44.3888 90.5397 44.1923 90.5384C43.9416 90.8089 44.1997 91.4004 44.0722 91.8197C43.9088 91.8852 43.8724 91.8759 43.6933 91.889C43.5212 92.236 43.7491 92.2837 43.5634 92.5394C43.3899 92.5551 43.2151 92.5657 43.0409 92.5716C42.7044 93.1431 43.4259 93.9799 42.5253 93.8548C42.442 93.843 42.4138 93.8777 42.33 93.9242C42.2893 94.1 42.3148 94.1708 42.3417 94.3499C42.2142 94.5944 42.0727 94.5378 41.8027 94.5365C41.5504 94.7339 41.5788 94.8342 41.6025 95.1361C41.4244 95.2494 41.1625 95.2048 40.9286 95.2074C40.9116 95.5384 40.9662 95.5885 40.8066 95.8089C40.5753 95.8588 40.5312 95.8564 40.3027 95.8636C40.0246 95.8807 39.8202 95.8472 39.6152 95.9837C39.5529 96.2222 39.5779 96.3326 39.5976 96.5745C40.0124 96.5745 40.5079 96.5215 40.8661 96.6771C40.9994 96.8684 40.9657 96.7604 40.9316 97.0228C40.5491 97.4906 39.5627 97.2751 38.9599 97.2777C38.7272 97.2711 38.5552 97.2901 38.3476 97.1898C38.2241 97.0225 38.2564 96.8353 38.2558 96.6156C37.8609 96.6038 36.3572 96.6804 36.1796 96.4359C36.1875 96.2291 36.2189 96.0646 36.123 95.888C35.774 95.7687 35.4323 95.9776 34.9697 95.8851C34.7577 95.6372 35.0092 95.6372 34.8359 95.2601C34.6177 95.2115 34.4879 95.212 34.2685 95.2015C34.1206 95.0131 34.2188 94.9327 34.1747 94.5902C33.9403 94.437 33.8789 94.6309 33.5536 94.4925C33.4244 94.0909 33.6108 93.5706 33.4794 93.2425C33.2704 93.1835 33.1885 93.1937 32.9755 93.1937C32.7245 92.8973 32.9133 88.7849 32.874 88.1312C32.8437 87.6233 33.2429 88.0084 33.5019 87.7689C33.5288 86.8344 33.5721 84.8558 33.4814 83.973L33.3759 83.889C33.1965 83.8897 33.0452 83.9165 32.9032 83.8187C32.8073 83.5083 32.8651 82.2535 32.873 81.8499L32.1552 81.8421C32.1552 81.348 32.1838 80.4018 32.1103 79.9495C31.9507 79.8702 31.6275 79.8916 31.4316 79.891C31.4428 79.3792 31.5335 78.9129 31.249 78.516C30.6285 78.2797 30.8038 77.7521 30.8261 77.1595C30.5941 77.1346 30.3863 77.0796 30.1884 77.18L30.1249 77.2962C30.0868 77.6086 30.1434 77.5597 29.9648 77.7249C29.8307 77.7256 29.6965 77.7275 29.5624 77.7308C29.3114 78.0097 29.4713 79.2714 29.3964 79.8333C29.0904 79.8431 29.0793 79.7946 28.8632 79.9349C28.6306 80.454 28.7655 81.1807 28.7411 81.8343L28.0273 81.846C28.0266 82.543 28.0186 83.2405 28.0048 83.9369C28.0088 84.226 28.0543 84.2293 27.9355 84.4456C27.7179 84.5237 27.5877 84.4972 27.3583 84.4827C27.3504 84.9217 27.3839 86.0543 27.3163 86.4183C27.033 86.6834 26.66 86.2457 26.6396 86.8324C26.6265 87.2215 26.7236 87.6108 26.6191 87.971C26.2405 88.1607 26.2415 87.8848 25.9911 88.1077C25.8939 88.5842 26.0457 88.9812 25.9228 89.3402C25.5777 89.4163 25.4614 89.308 25.3017 89.4661C25.2623 89.7865 25.3349 90.349 25.2304 90.5111C24.8525 90.5898 24.8065 90.4599 24.6034 90.6351C24.5029 91.143 24.736 91.6561 24.4462 91.8773L24.2128 91.8509C23.8898 92.1234 23.9917 92.7982 23.999 93.2122C23.7789 93.2089 23.5245 93.172 23.3564 93.2913C23.2289 93.578 23.2538 93.6982 23.0448 93.8353L22.5859 93.8714C22.576 94.2238 22.6344 94.201 22.4648 94.4339C22.2011 94.582 21.7462 94.5387 21.4413 94.5052L21.4198 95.2308C21.0558 95.2262 20.5428 95.1633 20.2558 95.3089C20.1012 95.5633 20.1576 95.5588 20.1572 95.9115C19.5249 95.9167 17.4264 95.9731 16.8691 95.8753C16.7548 95.6903 16.78 95.467 16.7743 95.2386L15.4365 95.2347C15.4426 94.9986 15.4703 94.8258 15.3818 94.6087C15.0522 94.6074 14.9583 94.5835 14.7753 94.2816C14.7734 94.1451 14.7713 94.0652 14.7548 93.93C14.5605 93.8089 14.3529 93.8369 14.1152 93.8324L14.1025 92.8333C13.8857 92.836 13.6165 92.8609 13.4247 92.7835C13.3555 91.7952 13.3688 89.6767 13.4198 88.6712C13.5982 88.5879 13.8799 88.6126 14.0956 88.6087L14.1171 87.2288L14.8115 87.2044C14.8048 86.7897 14.7245 85.5839 14.9218 85.2982C15.0777 85.2883 15.2129 85.2758 15.3681 85.2581C15.5249 85.0193 15.4099 81.0634 15.4413 80.4964C15.48 79.7969 15.1154 80.1628 14.8564 79.9535C14.7727 79.543 14.8004 78.1425 14.7968 77.6146L14.1093 77.6702C14.0861 77.0113 14.1681 75.8397 14.0781 75.2806C13.9211 75.1225 13.8302 75.1798 13.5282 75.1673C13.4922 75.1424 13.4559 75.117 13.4198 75.0921C13.3203 74.4457 13.51 73.1195 13.3603 72.5433C13.1811 72.4527 12.9055 72.4766 12.6923 72.4759C12.7046 71.1936 12.7109 69.9105 12.7099 68.6283H10.7382C10.7335 68.8934 10.7312 68.9769 10.6825 69.2347C10.3699 69.467 8.16752 69.2665 7.49895 69.3558C7.31602 69.613 7.5067 69.6254 7.36028 69.9964C7.06008 70.0936 4.57244 70.0718 4.21575 70.012C4.13872 69.8947 4.14237 69.7952 4.15129 69.6556C4.18442 69.1424 4.02026 69.384 3.622 69.2679C3.26766 68.6983 3.74195 68.4741 3.50872 67.9964C3.30455 67.8448 3.12127 67.8851 2.85735 67.889C2.83138 66.371 2.85527 64.8038 2.84172 63.2767L2.11614 63.265L2.12297 53.8607L1.37102 53.849C1.3636 51.2914 1.39564 45.4213 1.36028 42.5589C1.32911 42.5276 1.29777 42.4964 1.26653 42.4652C1.04725 42.4677 1.00234 42.4777 0.785084 42.4281C0.671637 42.1708 0.741308 35.5399 0.743092 34.7484C0.53479 34.7475 0.234815 34.7735 0.0692635 34.6771C0.0524602 34.5483 0.0337524 34.4006 0.0341073 34.2708C0.0516579 28.6924 0.00309926 23.1083 0.0594979 17.5316C0.0616788 17.3536 0.573335 17.4539 0.654225 17.4076C0.833677 17.3042 0.623803 16.9085 0.815357 16.7806C1.79566 16.8878 1.11947 16.3304 1.46184 15.973C1.64247 15.9622 1.79142 15.962 1.97063 15.9632C2.20635 15.6642 1.91603 15.6083 2.15227 15.2992C2.34378 15.2849 2.49728 15.2811 2.68938 15.2796C2.81526 15.1454 2.76108 14.967 2.78606 14.7015C2.99519 14.5856 3.10068 14.6393 3.38567 14.6478C3.53519 14.5188 3.5039 14.282 3.52434 14.0345C3.69267 13.9029 3.83428 13.9725 4.13567 13.9535C4.33274 13.6781 4.08323 13.5646 4.27825 13.3275C4.46526 13.3111 4.57896 13.3091 4.7636 13.3089C4.90002 13.1718 4.84502 13.0097 4.85442 12.7474C5.08882 12.5455 5.12824 12.7927 5.39739 12.5853C5.49275 12.1216 5.43743 9.99203 5.43254 9.35287L6.19231 9.3431L6.18157 7.64486C6.42132 7.6521 6.58621 7.67831 6.8095 7.59212C6.95073 7.34621 6.89934 7.17613 6.89934 6.8597C7.81325 6.88001 9.08157 6.79403 9.9384 6.89193C10.0785 7.02397 10.0123 7.20469 10.0663 7.50716C10.4225 7.66166 11.5203 7.48244 11.9394 7.57943C12.0929 7.61507 11.9368 7.80785 12.2568 7.9974C12.4871 8.0043 12.4851 8.0407 12.664 7.94662C12.6961 7.73825 12.6927 7.64461 12.6913 7.4388C12.8494 7.30874 13.0174 7.33396 13.2646 7.29427C13.3918 7.12122 13.3516 7.03783 13.37 6.78158C13.5931 6.4919 13.816 6.81124 14.0986 6.58627C14.1084 6.42206 14.1144 6.25757 14.1171 6.0931C14.2683 5.96664 14.4567 6.0194 14.7236 5.99935C14.8727 5.81441 14.7321 5.71394 14.8027 5.46029C14.8923 5.13918 15.7015 5.49154 16.0224 5.28451C16.0745 5.09588 16.0666 4.97073 16.0712 4.77767C16.2045 4.6464 16.4736 4.69567 16.7284 4.68587C16.9117 4.46428 16.7077 4.42431 16.8447 4.0765C17.0762 3.98479 17.6714 4.05748 18.0068 4.03939L18.0761 3.95248C18.0731 3.60257 18.0008 3.513 18.3075 3.35189C18.5023 3.38201 18.5238 3.40394 18.7079 3.35091C18.836 3.15167 18.8021 2.98059 18.7988 2.73763C19.1021 2.68548 19.1152 2.7744 19.4384 2.62337C19.6158 2.40768 19.5739 2.51477 19.5595 2.19173C19.7523 2.08191 19.8799 2.11735 20.1269 2.11361C20.3844 2.12752 20.5696 2.16951 20.7909 2.05013C20.8755 1.90103 20.8433 1.82067 20.8251 1.64486C21.1084 1.25563 21.5045 1.61819 21.9179 1.37337C22.0586 1.0705 21.7976 0.950826 22.1591 0.814781C22.4056 0.722052 22.9597 0.76729 23.249 0.774742L23.2616 0.0638041ZM40.2851 30.6214C40.2752 30.9045 40.2246 31.4451 40.331 31.6976C40.4348 31.9444 40.583 31.9104 40.8505 31.9827C40.9773 32.1614 40.9359 32.3355 40.9267 32.5648C40.5731 32.5666 40.1714 32.4813 40.1806 32.9603C40.3659 33.1575 40.6435 33.176 40.913 33.2122C40.9189 33.3906 40.9345 33.5185 40.8906 33.6927C40.5857 33.7942 40.4297 33.7566 40.2431 33.9691C40.1742 34.2022 40.2147 34.4012 40.373 34.5833C40.5674 34.5806 40.6614 34.5673 40.8486 34.6283C40.9478 34.832 40.9156 34.7768 40.8866 35.0394C40.579 35.2267 40.5082 34.9846 40.2861 35.1976C40.2913 35.3806 40.3157 35.5466 40.249 35.7132C39.8999 35.8501 39.7028 35.5967 39.624 35.9925C39.5109 36.5599 38.591 36.6575 38.123 36.6429C37.1088 36.6113 35.8983 36.7486 34.8974 36.6302C34.8087 36.4705 34.8329 36.5304 34.8007 36.349C34.1362 36.1126 33.1135 36.4812 32.8769 36.1634L32.874 35.7699C32.3895 35.3511 29.5489 35.4792 28.8212 35.7552C28.5574 36.1048 29.023 36.5679 28.0995 36.4144C27.9321 36.5922 28.0003 36.8459 28.0292 37.0775C28.0864 37.3311 28.0831 37.4308 28.2743 37.6058C28.5083 37.7068 28.5217 37.6922 28.7695 37.6917C29.1266 37.6808 29.0658 37.6308 29.332 37.7816L29.4198 37.9642C29.1983 38.5587 28.481 38.1955 28.0439 38.432C27.5707 39.5842 29.5053 38.7761 30.0243 39.1663C30.1301 39.3605 30.1091 39.3864 30.0927 39.6058C29.8127 39.8165 28.4176 39.3111 28.7616 40.2923C28.9884 40.4411 29.1275 40.3949 29.4325 40.4046C29.4456 40.7413 29.3918 40.7144 29.5527 40.9456C29.7747 41.0351 29.6676 41.0366 29.8847 40.9456C30.053 40.7115 30.0019 40.7789 30.038 40.4554C30.3521 40.4703 30.6264 40.4197 30.8222 40.5833C30.8366 40.7724 30.8399 40.8287 30.8261 41.0169L30.7734 41.6869C31.1277 41.6894 31.7093 41.6313 32.0097 41.7552C32.2047 41.9702 32.1717 42.0628 32.1855 42.4076L33.3896 42.4173C33.4152 42.7627 33.3625 42.7797 33.5273 43.0277C33.9315 43.2492 34.4433 42.8487 34.8876 43.1956L34.8671 43.5101C35.1701 43.8423 35.7136 43.7392 36.1493 43.7376L36.1972 44.4066C36.5121 44.4022 37.3112 44.3444 37.4775 44.5609C37.675 44.8188 37.5361 45.05 38.1913 45.055C38.4305 45.0551 38.6709 45.0519 38.9101 45.0452C38.9081 45.2997 38.8733 45.4857 39.0107 45.6908C39.185 45.7104 39.2115 45.7029 39.3886 45.6839C39.7035 45.8735 39.6315 45.9416 39.623 46.3138L39.6952 46.4193C39.9686 46.4427 40.135 46.3849 40.2782 46.512C40.3676 46.9705 40.2215 47.3518 40.3437 47.6995C40.5027 47.788 40.6571 47.7517 40.8456 47.7386L40.9423 47.8021C40.9818 48.1223 41.0271 48.4622 40.8681 48.7523C40.3774 48.9462 40.1376 48.2379 39.7021 48.349C39.2853 49.2047 39.9125 60.5888 39.5595 61.2044C39.3499 61.2504 39.3185 61.2442 39.1103 61.2435C39.0821 61.2723 39.0545 61.3013 39.0263 61.3294C38.9757 62.7732 39.0207 65.1717 38.997 66.5472L38.3017 66.5716L38.3046 68.6019C38.0859 68.5999 37.8215 68.5651 37.6513 68.679C37.5501 68.883 37.5764 69.0628 37.5771 69.2943C37.0018 69.3008 34.5857 69.3662 34.1825 69.2738C33.9822 69.0264 34.2231 68.8389 34.0009 68.6283C33.5053 68.61 31.671 68.7226 31.4443 68.5179C31.4233 68.2773 31.4185 68.1592 31.4218 67.9173C25.9208 67.851 20.2303 67.8643 14.7343 67.8978C14.7234 68.2026 14.768 68.3111 14.621 68.5452C13.9431 68.876 14.1092 69.2106 14.1288 69.9251C14.6237 69.912 15.7041 69.6913 15.3691 70.4847C14.9619 70.5829 15.1857 70.3746 14.8144 70.557C14.764 70.7142 14.7598 70.7556 14.7372 70.9202C14.4208 71.0771 14.419 70.8547 14.1991 71.0326C14.1676 71.3316 14.1702 71.5009 14.1786 71.8031C14.4582 71.7985 15.2771 71.7511 15.4726 71.8607C15.511 72.1165 15.5012 72.1198 15.4618 72.3636L15.3661 72.4681C15.0057 72.4412 15.0038 72.3659 14.8115 72.5247C14.789 72.7557 14.7809 72.9057 14.7792 73.138C14.7663 73.3427 14.7284 73.5072 14.8232 73.681C14.8311 73.8882 14.813 74.2554 14.9179 74.4124C15.356 74.6119 15.5724 74.2936 16.0097 74.4701C16.3834 75.0672 15.9925 75.1769 15.4843 75.1566C15.4477 75.4059 15.4099 75.6768 15.4023 75.93C15.385 76.5087 15.6325 76.4909 16.0947 76.4896C16.0948 77.1145 16.05 78.6435 16.1366 79.1507C16.4291 79.3518 16.4873 79.0923 16.7538 79.3245C16.8312 80.3936 16.7907 81.6986 16.7948 82.7992C16.7978 83.5645 16.842 85.0574 16.749 85.7523C16.4392 85.9846 16.2459 85.6761 16.1542 85.9984C16.0277 86.4454 16.3346 87.5808 16.0273 87.8763C15.7507 87.8822 15.6569 87.8287 15.5107 87.9701C15.4388 88.4308 15.5586 88.8539 15.4599 89.1742C15.0847 89.292 15.0457 89.1328 14.8691 89.3119C14.8007 89.8947 14.8503 91.228 14.8593 91.8763L15.4804 91.8861C15.4753 92.2168 15.4383 92.8864 15.5224 93.1751C15.887 93.318 15.9612 93.0942 16.1445 93.3099C16.1558 93.6111 16.0986 93.6853 16.2558 93.8421C16.6846 93.9084 17.1146 93.7959 17.412 93.8831C17.5142 94.0248 17.4793 94.1869 17.4726 94.3724L17.5429 94.4632C17.9615 94.5026 18.9871 94.5304 19.4003 94.4701C19.4914 94.3171 19.4581 94.1535 19.4501 93.9671C19.6733 93.6248 20.4396 94.0357 20.8017 93.7982C20.8766 93.4523 20.7511 93.415 20.8827 93.2103C21.0736 93.2011 21.2008 93.1922 21.3896 93.1693C21.553 92.9726 21.4194 92.9455 21.4863 92.6722C21.6195 92.6073 21.6088 92.607 21.7558 92.6234C21.9891 92.6332 22.2351 92.6452 22.4277 92.5238C22.5781 92.3282 22.5452 92.1123 22.5478 91.8577C22.5754 91.6092 22.559 91.4154 22.6982 91.2357L22.9638 91.2601C23.6691 90.9379 23.0343 90.4338 23.3163 89.9613C23.5421 89.8304 23.724 89.8703 23.9911 89.8822C23.9714 89.2622 23.8008 88.7783 24.4198 88.5257C24.7034 88.1865 24.6175 87.6802 24.6103 87.2191C24.8304 87.2145 24.9103 87.2132 25.1337 87.1712C25.5242 86.7762 25.1676 86.4188 25.3017 85.6995C25.4936 85.4994 25.5006 85.6658 25.9042 85.5667C26.0548 85.2465 25.9319 84.3402 26.0009 83.888C26.2005 83.888 26.4384 83.9197 26.5673 83.8158C26.6363 83.3117 26.6073 82.215 26.5751 81.7005C26.6987 81.5456 26.9755 81.615 27.2529 81.5677C27.4717 81.252 27.2766 79.9029 27.3534 79.3148C27.4967 79.1941 27.6259 79.276 27.9208 79.2288C28.2118 78.6592 27.7103 77.8892 28.079 77.2454C28.3307 77.0959 28.4113 77.1465 28.7333 77.1439C28.7261 76.6594 28.6766 75.68 28.789 75.2601C29.0171 75.058 28.9343 75.1162 29.2919 75.0814C29.4056 74.8661 29.3708 74.6374 29.3642 74.39C29.7631 74.3821 30.3733 74.3488 30.746 74.4183C30.8532 74.5771 30.7956 74.782 30.8212 75.0511C31.011 75.188 31.0869 75.0626 31.4277 75.1556C31.5683 75.424 31.4185 75.973 31.5907 76.2611C31.6425 76.3467 31.9285 76.3498 32.0585 76.3656C32.3671 76.7048 32.0535 77.1244 32.1777 77.7142C32.3327 77.8113 32.4164 77.8078 32.6318 77.7796C33.1386 77.712 32.6704 78.8599 32.9511 79.1644C33.1272 79.1644 33.223 79.1515 33.3886 79.2171C33.5062 79.6059 33.4547 80.6982 33.4482 81.1654L34.1962 81.1849C34.2173 81.8175 34.1527 82.4574 34.2157 83.0775C34.2473 83.3812 34.5729 83.1075 34.8495 83.3177C34.8988 83.9687 34.9311 88.0296 34.7792 88.4417C34.5913 88.6123 34.6389 88.5565 34.3183 88.5794C34.1343 88.8997 34.2319 91.9067 34.247 92.4603L34.3407 92.5482C34.5338 92.5423 34.6742 92.5174 34.8456 92.5999C34.9113 92.8214 34.8857 93.5686 34.8837 93.8363C35.8944 93.875 35.3551 94.0097 35.7626 94.4349C36.0801 94.5688 36.4965 94.5183 36.8573 94.5091C36.8573 94.7524 36.8381 94.9371 36.9169 95.1673C37.3744 95.2408 38.3671 95.2093 38.87 95.2074C38.8917 95.019 38.8902 94.6878 38.8954 94.4876C39.3653 94.4982 39.824 94.5808 40.1894 94.3138C40.2189 94.1571 40.231 94.1032 40.2822 93.9525C40.4589 93.8147 40.6901 93.8357 40.9247 93.8245C40.9142 93.4376 40.8459 93.2082 41.0732 92.9281C41.3005 92.8467 41.3591 92.8375 41.5517 92.682C41.6706 92.4517 41.6292 92.1278 41.624 91.8568L42.3808 91.8451C42.3742 91.4867 42.3664 91.1249 42.3769 90.766C42.3907 90.3112 42.6591 90.6946 42.9687 90.4124C43.1763 89.8389 43.1915 89.1648 43.1757 88.5619L43.9687 88.5501L43.9765 86.5267L44.7587 86.515L44.7743 84.5335L45.5087 84.5296L45.5224 82.5189L46.2499 82.5052C46.2414 82.0308 46.1932 80.9834 46.2773 80.5638C46.5553 80.3335 47.1478 80.9053 46.9482 79.5374C46.893 79.1588 46.826 78.8162 47.0429 78.4808C47.3031 78.3404 47.3254 78.3961 47.6708 78.4027C47.6944 78.0214 47.6167 76.0098 47.8173 75.8451C47.8896 75.8483 48.1261 75.8509 48.1767 75.8509C48.642 75.8502 48.1447 74.8329 48.4306 74.4398C48.5948 74.4326 48.7296 74.423 48.8925 74.4066C49.1462 74.0542 48.8631 72.3217 49.0156 71.8675C49.2927 71.7665 49.4098 71.6828 49.6318 71.9017C49.6548 72.1137 49.6455 72.2887 49.7724 72.4515C49.9223 72.4646 50.0727 72.4746 50.2226 72.4818C50.3228 72.6196 50.2761 72.8082 50.3036 73.0501C50.5068 73.1747 51.1939 73.1153 51.4911 73.1107L51.6181 73.1986C51.6109 73.3075 51.5628 73.5541 51.6337 73.6204C51.8861 73.8541 52.5548 73.8922 52.8066 73.6566C52.9366 73.2499 52.9471 72.9323 53.4433 73.1829L53.4843 73.2454C53.458 73.4501 53.4435 73.6169 53.3837 73.8158C53.2361 73.8105 53.1251 73.8002 52.9775 73.7845C52.8125 73.9538 52.8692 73.8564 52.8095 74.0931C52.9738 74.4362 53.2833 74.4203 53.623 74.4603C54.6307 74.3868 56.2815 74.452 57.37 74.4251C57.3661 74.2113 57.339 74.0376 57.4257 73.846C57.8247 73.5076 58.3291 73.8074 59.0165 73.7064C59.226 73.4263 58.9721 73.4041 59.164 73.0951C59.6295 72.9921 60.7779 73.2558 60.9882 72.9369C60.9803 72.7421 60.9528 72.5979 61.0341 72.4242C61.3687 72.308 61.7791 72.4924 62.2333 72.3861C62.3628 72.2187 62.3114 72.117 62.3154 71.8499C62.4573 71.7016 62.828 71.7569 63.1073 71.7484C63.2242 71.6053 63.1883 71.3914 63.2001 71.1605C63.4302 70.959 63.5322 71.195 63.8036 70.9935C63.9094 70.6016 63.8798 69.6127 63.8837 69.1702C63.9579 69.167 64.0319 69.1631 64.1054 69.1605C64.3933 69.1539 64.3871 69.1371 64.5468 69.2913C64.6007 69.4973 64.6131 69.6199 64.749 69.7845C64.9882 69.8915 65.0232 69.877 65.2939 69.8685C65.5869 69.5061 65.2378 68.4714 65.4482 67.932C65.6667 67.8429 65.6538 67.8524 65.8915 67.8695C66.3359 68.2068 65.8623 68.772 66.0937 69.1585C66.2819 69.2443 66.3196 69.2314 66.5243 69.2406C66.805 69.0116 66.5422 68.9801 66.7714 68.5892C66.933 68.5754 67.0405 68.5637 67.2001 68.5355C67.3408 68.2277 67.1273 67.1352 67.2704 66.597C67.5245 66.4292 67.3944 66.4604 67.6601 66.4447C67.9651 66.7341 67.825 67.3106 67.9433 67.8343L68.04 67.888C68.2864 67.6328 67.98 67.5043 68.205 67.2308C68.3851 67.2236 68.5659 67.2172 68.746 67.2132C69.0696 66.7228 68.5521 65.5494 68.9648 65.1839C69.7842 65.2037 69.4719 66.0268 70.0292 65.973C70.4172 65.59 70.2009 65.3011 70.2402 64.6341C70.3716 64.4707 70.4674 64.5678 70.8027 64.516C70.9996 64.1372 70.8169 63.3186 70.8681 62.8226C70.9226 62.3022 71.2155 62.7301 71.5165 62.4671C71.5671 62.1659 71.6222 60.1779 71.4677 59.9535C71.2962 59.9397 71.1246 59.9246 70.9531 59.9076C70.8012 59.7002 70.8593 58.8989 70.8613 58.5931C70.5784 58.5978 69.7665 58.6705 69.5947 58.474C69.5947 58.266 69.6087 58.1649 69.5351 57.9681C69.2689 57.892 67.8462 57.9263 67.5195 57.9427C67.3878 58.1149 67.4381 58.1683 67.4355 58.4408C67.2101 58.8161 66.4088 58.3785 65.9394 58.638C65.8993 58.8533 65.9036 58.9524 65.9023 59.1663C65.7229 59.2975 65.523 59.2091 65.1972 59.2464C65.0322 59.4728 65.1895 59.5708 65.1113 59.7933C65.0201 60.0507 64.2132 59.7812 63.9003 59.9456C63.8754 60.1175 63.8581 60.264 63.8417 60.4359C63.4024 60.8421 63.2833 60.4018 62.9228 60.5706C62.7815 60.7852 62.8163 60.969 62.8183 61.2327C62.4548 61.2209 62.0179 61.1486 61.7616 61.3802C61.7807 61.5512 61.8045 61.589 61.748 61.7464C61.5265 61.9177 61.3709 61.865 61.0409 61.8919C60.8887 62.0703 61.0254 62.1435 60.913 62.4964C60.4668 62.6952 59.8913 62.282 59.6132 62.7249C59.6507 62.8909 59.6609 62.8894 59.6308 63.0531C59.3488 63.2906 58.6368 63.2068 58.2509 63.1956L58.2265 63.9271C57.8768 63.9238 57.1646 63.8474 56.9306 64.0843C56.8513 64.1649 56.8885 64.213 56.8945 64.3675C56.6618 64.5702 54.6191 64.497 54.204 64.4701C54.122 64.3285 54.1727 64.3841 54.0575 64.2933C53.8591 64.3976 53.7686 64.4972 53.5683 64.4134C53.354 63.7198 53.5305 55.7089 53.495 54.3812C53.2341 54.122 53.1962 54.4106 52.8622 54.1966C52.7276 53.1112 52.9647 51.6131 52.8017 50.5101C52.5269 50.3067 52.5065 50.5545 52.1542 50.3597C52.03 49.5237 52.2441 48.6167 52.0976 47.8109C51.8577 47.62 51.7862 47.8557 51.4736 47.6663C51.373 46.9624 51.5826 45.9589 51.4374 45.2259C51.2146 45.0126 51.1345 45.2506 50.831 45.0863C50.6831 44.5567 50.9081 43.7856 50.7753 43.1566C50.4997 42.9763 50.4004 43.2013 50.1103 43.0521C50.0025 42.753 50.1152 42.2288 50.0751 41.7952C49.8944 41.6065 49.8942 41.7705 49.5156 41.6712C49.4177 41.4184 49.4594 40.8186 49.4404 40.4876C49.3161 40.3637 49.301 40.4086 49.0624 40.4017C48.6767 40.1399 49.1005 39.4938 48.8329 39.0667C48.6871 39.0591 48.5416 39.0486 48.3964 39.0345L48.332 38.9339C48.3247 38.0107 48.0724 38.4582 47.747 38.1966C47.653 37.8678 47.6919 37.4255 47.6991 37.0716L46.9853 37.0365C46.8933 34.8631 46.7539 36.1574 46.2333 35.6439C46.2228 35.4479 46.2225 35.2993 46.2265 35.1029C46.0891 34.9409 45.9383 35.0185 45.6122 34.9867C45.5025 34.8219 45.5622 34.6142 45.5458 34.346C45.2901 34.1313 45.1862 34.4056 44.9101 34.1829L44.8935 33.8265C44.6775 33.5759 44.568 33.8564 44.2421 33.637L44.2255 33.2669C44.0738 33.1269 44.0426 33.1781 43.7675 33.1722C43.5192 32.9514 43.7895 32.8486 43.5771 32.5843C43.4114 32.575 43.2457 32.5673 43.08 32.5619C42.8437 32.2917 43.1292 32.2667 42.9208 31.932C42.7193 31.9119 42.6107 31.9158 42.413 31.9222C42.2705 31.7699 42.3261 31.6723 42.3222 31.3919C42.1493 31.2524 42.0204 31.3509 41.6767 31.2923L41.6005 31.1829C41.6091 30.9933 41.6394 30.8365 41.5585 30.6702C41.3087 30.5865 40.5848 30.6189 40.2851 30.6214ZM35.6581 18.0589C35.3731 18.0588 34.3924 18.0021 34.2265 18.1888C34.2298 18.3946 34.2386 18.4237 34.1874 18.6283C33.9429 18.7661 30.8317 18.5921 30.2157 18.7064C30.1021 18.8893 30.1204 19.1108 30.1093 19.3353L11.8613 19.3411C9.00222 19.3417 6.13343 19.3264 3.27532 19.3529C2.93687 19.3561 2.30178 19.4227 2.07024 19.2025C2.09087 19.0323 2.09951 19.0325 2.0634 18.8675C1.89266 18.7525 1.57576 18.7367 1.40618 18.8587C1.35332 19.4231 1.23871 19.979 1.43157 20.5013C1.62893 20.6738 1.62467 20.6123 1.97161 20.6165C2.16365 20.8917 2.1696 20.8157 2.06047 21.1654C2.15584 21.2751 2.13584 21.23 2.33294 21.2767C1.94786 21.2754 1.33718 21.1757 1.29485 21.6624C1.49451 22.0568 1.46996 21.9798 1.94231 21.9495L2.01555 22.0072C2.03058 22.2845 2.03951 22.3257 1.9804 22.5911C1.78713 22.66 1.83766 22.636 1.61419 22.6283C1.27843 22.8366 1.36251 22.9896 1.37297 23.3792C1.36805 23.6039 1.35684 23.7652 1.39251 23.9896L1.37883 30.4935C1.376 31.553 1.33125 33.1789 1.39934 34.2103C1.69156 34.4089 1.77133 34.1657 2.02044 34.3636C2.15335 35.9322 1.9633 38.1291 2.03313 39.7494C2.05703 40.3038 1.97387 41.1297 2.07024 41.6419C2.28456 41.7346 2.5121 41.7059 2.74993 41.7015L2.7509 53.2718L3.47747 53.304L3.48235 57.93C3.48136 58.5855 3.44462 59.8821 3.51555 60.4808C3.73103 60.6218 3.62155 60.5997 3.84661 60.5931C4.07228 60.4416 4.08125 60.4117 4.24114 60.1829C4.36989 60.1934 4.46696 60.2072 4.59465 60.2269L4.64544 60.1878C4.94484 59.7692 5.51048 59.8802 5.46184 60.3675C5.23082 60.6182 5.1431 60.56 4.80657 60.5443C4.78897 60.8952 4.8441 60.888 4.67962 61.138C4.42606 61.2677 3.85252 61.2213 3.52239 61.2376L3.52825 62.4984C3.91551 62.5082 4.36569 62.5542 4.72356 62.4408C4.79488 62.2926 4.79228 62.2688 4.82415 62.1048C5.08341 61.8555 5.73732 61.9012 6.07512 61.9701C6.17088 62.1334 6.1557 62.3509 6.07219 62.5189C5.54596 62.6039 5.61367 62.4462 5.29876 62.7904L4.86809 62.889L4.84368 62.974C4.81266 63.0781 4.79061 63.1372 4.7509 63.2367C4.44702 63.2707 4.34189 63.1956 4.16399 63.3333C4.10997 63.7191 4.13733 64.0215 4.15422 64.4085C4.27661 64.5272 4.57599 64.4828 4.79583 64.4847L5.44426 64.4642L5.48626 64.4788C5.44433 64.8437 5.49511 64.8997 5.29387 65.1693C4.86009 65.3343 5.19138 64.9815 4.85344 65.2269C4.80351 65.4873 4.8367 65.7107 4.72161 65.8577C4.55558 65.8774 4.44274 65.8841 4.27532 65.89C3.87161 66.43 4.74629 66.8205 5.41692 66.4827C5.47876 66.1798 5.47194 66.0121 5.70208 65.8343C5.93873 65.8016 5.98357 65.839 6.20012 65.932C6.29019 66.0966 6.30191 66.3662 6.19426 66.5257C6.01577 66.5801 5.90042 66.5487 5.71575 66.5257L5.5429 66.6019C5.38251 67.0237 5.74431 67.307 4.90325 67.347C4.80219 67.5387 4.84643 68.3224 4.84758 68.597L7.41008 68.596C7.4115 68.3821 7.38526 68.1041 7.48821 67.9329C8.13941 67.7626 9.88603 67.9781 10.623 67.8675C10.6488 67.8321 10.6753 67.7955 10.7011 67.7601C10.7152 67.4754 10.6614 67.4039 10.8124 67.2591C11.8018 67.0728 13.875 67.4085 14.623 67.1732C14.7537 66.8275 14.5684 66.7829 14.745 66.5355C15.7271 66.4777 16.9664 66.5101 17.9648 66.5101L25.4198 66.5658L29.9716 66.5619C30.4376 66.5612 31.7677 66.5306 32.1464 66.5863C32.2653 66.7266 32.2369 66.929 32.2421 67.1283C32.6732 67.4759 34.5823 66.9817 34.874 67.3353C34.8805 67.6008 34.8338 67.6822 34.9609 67.8558C35.405 67.928 36.4376 67.8888 36.9316 67.8822L36.9394 67.0003C36.9171 66.5998 36.9038 66.314 36.9169 65.9115L36.9521 65.8626C37.1728 65.8587 37.2786 65.8646 37.498 65.8128C37.6517 65.5975 37.6125 64.8618 37.581 64.598C37.3624 64.3774 37.3105 64.6018 36.9452 64.4417C36.923 64.1612 36.9564 64.0597 36.7304 63.9095C36.5186 63.9154 36.4241 63.9355 36.2284 63.8509C36.0888 63.6287 36.0635 63.458 36.2499 63.2718C36.61 63.1756 37.1808 63.2628 37.5927 63.2884C37.5981 63.1541 37.646 62.1397 37.581 62.0872C37.3214 61.8788 36.433 61.8278 36.2031 61.6107C36.148 61.3998 36.1513 61.4139 36.2255 61.2074C36.4094 61.09 37.9391 61.1894 38.2587 61.181L38.2851 59.9163C38.088 59.9118 37.8897 59.9047 37.6933 59.8929C37.4959 59.7101 37.5421 59.578 37.5126 59.2562C37.1942 59.2713 37.1525 59.3011 36.9443 59.1351C36.8714 58.9099 36.8643 59.0159 36.9609 58.8021C37.2051 58.6245 37.162 58.6845 37.5341 58.682C37.5538 58.8747 37.5431 59.0182 37.663 59.1644C37.9322 59.186 37.9284 59.1788 38.1962 59.1146C38.3872 58.7587 38.3006 47.7032 38.2402 46.5111L36.8906 46.5072L36.8896 45.7689C36.5051 45.765 35.9906 45.874 35.664 45.7083C35.5014 45.4643 35.5582 45.4355 35.5478 45.0833C35.2122 45.0941 34.4854 45.1722 34.2509 44.9691C34.2621 44.6671 34.2869 44.6803 34.0859 44.4769C33.6843 44.3321 33.1082 44.5725 32.8613 44.3031C32.8679 44.1038 32.8935 43.9623 32.8115 43.7826C32.5054 43.7005 31.7928 43.738 31.4413 43.7435L31.4491 43.0863C30.9485 43.0714 30.5156 43.1963 30.12 43.0111C29.9581 42.7771 30.0133 42.7649 29.999 42.4232L28.7216 42.4369C28.7236 42.1836 28.7661 41.9298 28.6269 41.7406C27.7257 41.8861 28.0365 41.3239 27.9335 41.0286C27.6913 40.9062 27.5923 40.937 27.3085 40.9495L27.29 39.7044C27.0536 39.708 26.7684 39.7547 26.5898 39.6351C26.5123 39.0911 26.566 36.931 26.5595 36.2132L27.2743 36.2386C27.2691 35.9614 27.2289 35.5333 27.3339 35.2972C27.6668 35.3192 27.6905 35.3081 27.9394 35.1204C27.9551 35.0045 27.965 34.918 27.9736 34.8001L27.9794 34.6995C28.2284 34.5256 28.3843 34.7627 28.7304 34.5872L28.7909 34.2152C29.0179 34.0152 32.2383 34.103 32.7431 34.1273C32.8778 34.2961 32.8338 34.4097 32.8495 34.6771C33.1444 34.9719 34.4389 34.5576 34.8759 34.8304C34.8824 34.9939 34.8687 35.0906 34.9491 35.2288C35.2244 35.2956 37.8604 35.303 38.2021 35.2259C38.2729 35.0524 38.2619 34.9282 38.2665 34.7415L38.3661 34.6566C38.5534 34.6577 38.6492 34.676 38.8154 34.5882C38.9467 33.9823 38.9053 24.757 38.7909 24.5423C38.653 24.5295 38.5135 24.5187 38.3749 24.5081L38.2831 24.3929C38.2497 24.108 38.2457 24.0942 38.3232 23.8236C38.5129 23.6419 38.5072 23.6946 38.8193 23.6361C38.9408 23.415 38.9277 23.0882 38.8515 22.8519C38.6311 22.6331 38.6511 22.694 38.3046 22.599L38.246 22.4759C38.2775 22.1749 38.2294 22.2351 38.3837 22.016C38.5921 21.9781 38.6831 21.9827 38.8368 21.8382C38.9503 21.6049 38.8936 21.2416 38.8779 20.9671C38.4966 21.0482 37.7038 21.2918 37.4716 20.9036C37.5427 20.4204 37.8688 20.6004 38.2177 20.4945C38.2788 20.3375 38.2671 20.3151 38.2782 20.1439C38.4339 20.024 39.2758 19.9959 39.5351 19.9759L39.5497 18.0677C38.2537 18.0632 36.9542 18.0589 35.6581 18.0589ZM8.73919 26.139C9.20189 26.1321 10.0108 25.9718 10.0234 26.5482C10.1819 26.7098 10.4016 26.6672 10.6855 26.6859C10.823 26.8286 10.7765 26.9933 10.7968 27.2562C10.9662 27.3774 11.0791 27.3274 11.3398 27.3265C11.6326 27.5123 11.3305 27.7507 11.5536 27.9769C11.7187 27.9729 11.8366 27.9516 11.9823 28.0247C12.1195 28.4606 11.9196 28.7117 12.0263 29.2376C12.2655 29.4231 12.2935 29.1951 12.5868 29.3861C12.6528 29.8805 12.629 31.3051 12.5927 31.8197C12.4195 32.0068 12.4121 31.8509 12.0507 31.9535C11.9467 32.1882 12.0451 32.6455 12.0048 33.0111C11.7936 33.2327 11.7576 32.9754 11.4491 33.1712C11.4417 33.3259 11.4322 33.4816 11.4208 33.6361C11.2731 33.7433 11.1201 33.6979 10.8906 33.6976L10.8027 33.7952C10.7993 33.9824 10.8186 34.1302 10.7245 34.2865C10.4138 34.4171 10.4049 34.3174 10.1025 34.3372C9.99005 34.505 10.0164 34.6119 10.0195 34.8187L10.0214 34.9017C9.50141 34.9216 8.90819 34.9554 8.38762 34.9408C7.86296 34.9257 8.28107 34.6435 8.01946 34.3363L7.56926 34.3236C7.41083 34.161 7.46894 34.1066 7.46087 33.7952C7.2553 33.6063 7.27251 33.7683 6.86712 33.6732C6.78122 33.491 6.83142 32.907 6.82219 32.638C6.61049 32.4324 6.48277 32.6562 6.22161 32.473C6.13208 32.0968 6.17244 29.2307 6.20305 28.7494L6.30754 28.6712C6.5062 28.6717 6.64743 28.6923 6.82415 28.6058C6.95177 28.205 6.78213 27.8958 6.89934 27.4281C7.05664 27.3 7.16045 27.3518 7.42473 27.3519C7.54412 27.2398 7.51996 26.9929 7.53997 26.7806C7.91367 26.4348 8.25493 26.8627 8.62102 26.6742C8.77875 26.4386 8.72691 26.4741 8.73919 26.139ZM19.4892 26.1048C19.8521 26.1054 20.5972 26.0306 20.8368 26.3216C20.7374 27.04 21.5144 26.4441 21.8964 26.7699C21.9036 26.9392 21.9049 27.0866 21.9042 27.2552C22.1597 27.4657 22.2954 27.2168 22.5644 27.4027C22.7004 27.811 22.3974 28.4294 22.6923 28.6585C22.884 28.6592 23.0725 28.6309 23.2177 28.7357C23.2853 29.2212 23.2658 31.3105 23.2323 31.8372L23.124 31.9193C23.0564 31.9184 22.7597 31.9166 22.7314 31.9251C22.3192 32.0675 22.8356 33.221 22.4999 33.6751C22.3227 33.6825 22.1446 33.6893 21.9667 33.6937C21.852 33.8325 21.8807 33.8581 21.8906 34.0911C21.9094 34.5262 21.2229 34.1183 20.8554 34.432C20.8573 34.6421 20.8643 34.6647 20.8154 34.8763L20.6952 34.9261C20.218 34.9335 19.3885 34.9377 18.9423 34.8646C18.8197 34.7232 18.871 34.6264 18.873 34.3763C18.6732 34.1521 18.4205 34.421 18.1572 34.2161C18.1655 34.0131 18.1693 33.9618 18.1445 33.7533C17.8689 33.5864 17.8556 33.8128 17.5077 33.6302C17.4186 33.226 17.5221 32.495 17.4823 31.9886L17.3808 31.9085C17.201 31.9098 17.0682 31.9353 16.9257 31.8363C16.8591 31.415 16.889 29.2309 16.9111 28.762L17.0107 28.6947C17.9607 28.7278 17.3713 28.182 17.4999 27.4329C17.6795 27.2869 17.7726 27.342 18.0722 27.3363C18.2271 27.1724 18.1184 27.0952 18.2011 26.7513C18.5907 26.4464 18.8946 26.8423 19.3603 26.6683C19.5228 26.4354 19.4692 26.4414 19.4892 26.1048ZM19.457 28.6517C19.4523 28.9705 19.5046 29.032 19.3642 29.2611C19.1398 29.3364 18.9811 29.3133 18.745 29.307C18.7439 30.117 18.7251 31.0202 18.7626 31.8206C19.2802 31.8372 19.2694 31.7484 19.5527 32.18C19.9399 32.3798 20.2965 32.3185 20.7421 32.3089C20.8417 32.1747 20.8264 32.0939 20.8398 31.9232C21.0395 31.8203 21.0782 31.8521 21.3222 31.8529L21.4052 31.7845C21.4505 31.2583 21.4696 29.8899 21.3993 29.3753C21.2113 29.277 21.1783 29.3076 20.9472 29.3089C20.7026 28.9912 21.098 28.6625 20.5976 28.6449C20.2192 28.6318 19.8343 28.6435 19.457 28.6517ZM8.67083 28.6566C8.66353 28.9991 8.71708 29.009 8.56536 29.2581C8.37975 29.2964 8.38164 29.2905 8.19036 29.2708C7.92135 29.4655 7.94689 31.5593 8.03801 31.7318L8.12297 31.7562C8.4096 31.8417 8.46041 31.8459 8.69915 32.0072C8.77752 32.1831 8.75405 32.2343 8.88372 32.265C9.17831 32.3344 9.69522 32.3036 10.0156 32.3011C10.0481 32.019 9.99816 32.0342 10.1552 31.8783C10.2848 31.8724 10.4107 31.8669 10.537 31.8363C10.7012 31.5873 10.6288 29.7482 10.5722 29.3861C10.2637 29.1928 10.2566 29.4543 10.0556 29.2103C10.0501 28.9741 10.0898 28.8425 9.98235 28.6761C9.56393 28.6233 9.09783 28.648 8.67083 28.6566ZM23.9872 1.67416C23.7947 1.54449 23.5309 1.58329 23.3212 1.66439C23.2733 1.81336 23.216 1.95535 23.1542 2.09896C22.9774 2.1318 23.0467 2.12523 22.8573 2.07162C22.6517 2.16445 22.7216 2.09049 22.6073 2.26107C22.5988 2.53808 22.6494 2.5986 22.5107 2.76595C22.1179 2.82334 21.7592 2.70089 21.4892 2.79916C21.3965 2.97371 21.4269 3.14707 21.4335 3.35091L21.3554 3.43685C21.0916 3.44313 20.4366 3.39522 20.2509 3.48275C20.1515 3.89777 20.3178 3.90551 20.1113 4.09212C19.9145 4.09002 19.7693 4.09123 19.5732 4.10482C19.3477 4.38206 19.7001 4.65326 19.3095 4.69759C19.0194 4.73047 18.8659 4.64252 18.6747 4.75814C18.6019 5.12779 18.7339 5.16248 18.5751 5.35091C18.2696 5.38136 17.7214 5.32219 17.538 5.39779C17.433 5.5651 17.4698 5.73811 17.4775 5.94466L17.4023 6.0433C17.0961 6.0632 16.8737 5.99226 16.706 6.12923C16.7038 6.30627 16.699 6.44587 16.6865 6.62435C16.2839 6.92878 15.4861 6.42492 15.5038 6.9515C15.5119 7.18697 15.5296 7.24861 15.413 7.36654C15.2016 7.35958 15.0917 7.34942 14.8788 7.38314C14.7762 7.57592 14.8116 7.61937 14.8183 7.86068C14.637 8.06511 14.4344 8.04573 14.1806 8.03451C14.0693 8.2262 14.0965 8.42724 14.0937 8.65658C13.792 8.65441 13.1389 8.62268 12.8818 8.71322C12.7669 8.96881 12.9048 8.93142 12.7001 9.2513C12.5506 9.36602 12.3555 9.33424 12.1532 9.33529C11.9155 9.49297 11.9493 9.56358 11.9023 9.85873C11.5835 10.1007 10.9802 10.0313 10.6005 9.9349C10.4377 9.57652 10.8363 9.25398 10.83 8.83529C10.54 8.53259 10.3669 8.95677 9.98333 8.38412C9.37284 8.21476 8.24891 8.30943 7.56926 8.30208C7.58745 8.9398 7.73055 9.37035 6.95794 9.39095C6.76993 9.86348 7.08647 12.9641 6.80071 13.2757C6.56972 13.3086 6.49107 13.3141 6.25774 13.3167C6.25058 14.9201 6.21767 16.6142 6.24797 18.2103L17.995 18.1917L21.7421 18.1937C22.2443 18.1945 22.808 18.2549 23.3036 18.2074C23.4414 18.1941 23.5511 18.1534 23.6718 18.0892C24.2463 17.7821 29.095 17.9449 30.1113 17.9447L30.121 17.2337C30.7527 17.2364 33.7356 17.3306 34.1064 17.1585C34.153 16.9713 34.1541 16.9172 34.1679 16.7288C34.7372 16.3434 36.2521 17.2519 36.1327 16.0492C35.9717 15.9031 35.7186 15.978 35.5517 15.9261C35.3777 15.8719 35.5977 15.6066 35.373 15.4642L35.0448 15.5443L34.9863 15.472C35.2413 15.3979 35.7858 15.2912 36.0507 15.2796C36.19 15.0954 36.1756 14.882 36.1113 14.6605C35.9285 14.5847 35.8097 14.6007 35.6132 14.6009C35.3463 14.2847 35.8446 13.8536 35.0058 13.9271C34.8548 13.7627 34.8693 13.6672 34.8818 13.4154L34.8896 13.2865L35.5322 13.2992C35.9429 13.354 35.9499 13.4113 36.1767 13.0736C36.1918 12.813 36.2133 12.9382 36.08 12.6908C35.8461 12.5729 35.9055 12.6138 35.5927 12.6536C35.5099 12.2474 35.6911 12.1942 35.2773 11.9476C35.1051 11.9541 35.0779 11.9597 34.9111 11.929C34.798 11.7311 34.8348 11.5586 34.8447 11.3245L36.1396 11.3158L36.1532 9.98177C35.9001 9.98401 35.0742 10.0193 34.8954 9.94369C34.814 9.71944 34.8356 9.66591 34.8613 9.43294C35.0998 9.20696 35.2056 9.46703 35.5282 9.27767C35.6051 8.97877 35.5703 8.3313 35.5644 7.99544C35.1767 7.99138 33.6124 7.86714 33.415 8.11166C33.4156 8.30838 33.4414 8.47566 33.3456 8.63998C32.8488 8.75861 31.7901 8.44371 31.4921 8.76791C31.4941 8.96366 31.5159 9.10553 31.4345 9.28158C31.0434 9.41841 30.2975 9.14315 30.0917 9.44759C30.1009 9.66728 30.1193 9.75441 30.0517 9.96712C29.7895 10.0644 29.3458 9.95945 29.0224 9.9808C28.5057 10.015 28.9256 10.3338 28.6601 10.6702L28.1552 10.679C27.9869 10.9008 28.1271 10.8992 28.0331 11.2747C27.661 11.4277 26.863 11.1962 26.6513 11.4046C26.646 11.7496 26.708 11.8513 26.4052 12.0238C26.2271 11.9949 26.2179 11.9804 26.0458 12.0208C25.9178 12.2291 25.955 12.4138 25.9609 12.6654L24.5947 12.6908L24.5741 11.9486C23.7311 11.9086 18.4806 11.9977 18.1728 11.8197C18.1613 11.6486 18.1539 11.5563 18.1249 11.3841C17.5707 11.1001 16.8737 11.5812 16.1884 11.2445C16.0393 11.0166 16.0951 10.9883 16.0927 10.6585L16.0868 10.2122C15.7951 9.75318 15.5995 10.3563 15.4316 9.45931C15.643 9.25311 17.0969 9.30602 17.4277 9.35189C17.5191 9.50095 17.4867 9.66189 17.4804 9.84505L17.5419 9.93685C18.0816 10.0309 19.1854 9.80844 19.4452 10.0775L19.4726 10.4798C19.7092 10.6828 23.481 10.5949 24.0292 10.596L24.0214 4.82943C24.0214 3.92983 24.0582 2.54129 23.9872 1.67416ZM4.15129 15.3802C4.15388 15.6147 4.18743 15.7858 4.06047 15.974C3.8937 15.9883 3.84579 15.9837 3.67766 15.9701C3.28635 16.269 3.62348 16.3624 3.42864 16.7347C3.10572 16.7794 2.95831 16.6935 2.77922 16.8245C2.77567 16.9912 2.76942 17.1581 2.75969 17.3245C2.43454 17.5991 2.16845 17.1697 2.02337 17.6927C2.11835 17.9592 2.04425 17.8468 2.2636 18.0384C2.51754 18.114 2.75705 18.0585 3.0302 18.0589C3.69075 18.0651 4.28502 18.1783 4.84075 18.1839C4.84425 17.7158 4.88987 15.7978 4.8095 15.4388C4.56466 15.3497 4.41795 15.3751 4.15129 15.3802Z" fill="#595A8D"/>
<path d="M26.0518 95.8377L25.9795 95.5719C25.7738 95.3593 25.5562 95.4426 25.2039 95.3002C25.4767 95.1243 28.8382 95.1703 29.3766 95.2536C29.468 95.396 29.462 95.4859 29.4771 95.65C29.8413 95.841 32.3069 95.7517 32.9163 95.7845C33.2377 95.8226 33.2239 95.7668 33.4178 95.942C33.4586 96.1829 33.4513 96.2872 33.4474 96.5346C34.1205 96.5793 35.0592 96.4191 35.4897 96.6863C35.6324 96.868 35.6784 97.0728 35.5725 97.2854C34.8856 97.3845 33.0247 97.3327 32.2327 97.3301C29.9097 97.3077 27.5867 97.3058 25.2637 97.3255L25.2525 96.6127C23.8406 96.6272 22.1881 96.6757 20.7911 96.618C20.5651 96.6292 20.4448 96.6528 20.2304 96.5753C20.1037 96.4047 20.1489 96.1402 20.157 95.9118C20.4366 95.9092 20.7826 95.8705 21.0617 95.8351C22.6508 95.8941 24.4506 95.8534 26.0518 95.8377Z" fill="#595A8D"/>
<path d="M20.157 95.9117C20.4366 95.9091 20.7826 95.8704 21.0617 95.835C20.6876 96.0332 20.7758 96.1966 20.7911 96.6179C20.5651 96.6291 20.4448 96.6527 20.2304 96.5752C20.1037 96.4046 20.1489 96.1401 20.157 95.9117Z" fill="#595A8D"/>
<path d="M26.053 95.8377L25.9807 95.5719C25.775 95.3593 25.5574 95.4426 25.2051 95.3002C25.4779 95.1243 28.8394 95.1703 29.3778 95.2536L29.3094 95.2602C28.4253 95.335 27.0417 95.2556 26.0688 95.2779C25.9492 95.4656 26.0478 95.5476 26.053 95.8377Z" fill="#595A8D"/>
<path d="M32.9163 95.7852C33.2377 95.8232 33.2239 95.7674 33.4178 95.9427C33.4585 96.1835 33.4513 96.2879 33.4474 96.5353C33.2364 96.5162 33.2009 96.5241 33.001 96.4441C32.8696 96.2071 32.9163 96.0824 32.9163 95.7852Z" fill="#595A8D"/>
<path d="M41.6146 97.2347C43.4314 97.2236 45.2713 97.2045 47.0894 97.2131C47.3524 97.2144 47.4865 97.2072 47.6311 97.364C47.6837 97.6036 47.6876 97.5865 47.6041 97.8162C47.3839 97.9717 47.2472 97.9192 46.935 97.9245C46.9409 98.185 46.9803 98.458 46.8127 98.6392C45.9963 98.7337 43.2579 98.6726 42.3166 98.6707C42.3159 98.3097 42.3869 98.1378 42.0977 97.912C41.9071 97.9015 41.8591 97.9114 41.6803 97.8424C41.5666 97.6705 41.6073 97.4546 41.6146 97.2347Z" fill="#595A8D"/>
<path d="M18.1497 96.553L18.6898 96.5156C18.8774 96.6935 18.7799 96.8589 18.689 97.0722C18.5045 97.1772 18.4693 97.1713 18.2645 97.2126C18.1926 97.4777 18.2429 97.6549 18.1847 97.8938C17.5189 97.9391 12.272 98.0251 12.0218 97.8203C11.9919 97.6123 11.9678 97.5847 12.0527 97.3924C12.4197 97.0676 13.4166 97.2106 13.9542 97.2323C14.3249 97.2146 15.2582 97.3393 15.4591 97.0702C15.4373 96.8615 15.4278 96.8648 15.478 96.6646C15.6913 96.5274 15.6685 96.574 15.9687 96.5675C16.6319 96.5648 17.5032 96.5865 18.1497 96.553Z" fill="#595A8D"/>
<path d="M13.9531 97.2318C14.3239 97.2141 15.2571 97.3388 15.458 97.0697C15.4363 96.861 15.4267 96.8643 15.4769 96.6641C15.6902 96.527 15.6674 96.5736 15.9677 96.567C15.9347 96.775 15.9362 96.8912 15.949 97.1019C15.7111 97.5153 14.3469 97.3348 13.9531 97.2318Z" fill="#595A8D"/>
<path d="M18.1488 96.553L18.6889 96.5156C18.8765 96.6935 18.779 96.8589 18.6881 97.0722C18.5036 97.1772 18.4684 97.1713 18.2636 97.2126C18.1917 97.4777 18.242 97.6549 18.1838 97.8938C18.1192 97.5466 18.1453 96.9278 18.1488 96.553Z" fill="#595A8D"/>
<path d="M32.9819 98.5035L36.8385 98.512C37.4393 98.514 38.5318 98.4884 39.0872 98.5599C39.1792 98.7194 39.1326 99.0423 39.1214 99.247L37.1179 99.2516L33.2469 99.2621C32.5948 99.2641 31.9033 99.2825 31.2538 99.251C30.9725 99.2372 30.9515 99.2496 30.816 99.0875C30.7753 98.8552 30.7773 98.8723 30.8752 98.657C31.1848 98.4372 32.5067 98.5081 32.9819 98.5035Z" fill="#595A8D"/>
<path d="M43.571 95.1208C44.0463 95.1143 45.0454 95.0598 45.47 95.1504C45.6403 95.3578 45.4293 95.3893 45.5969 95.7443C46.2319 95.8375 47.985 95.5527 48.3465 95.9714C48.382 96.1847 48.3846 96.1709 48.3379 96.3809C48.0283 96.4944 47.5492 96.4518 47.2014 96.4459C45.6107 96.4439 44.0088 96.4728 42.422 96.4288C42.1992 96.4222 42.2182 95.9865 42.2853 95.8198C42.7066 95.6695 43.0267 95.8736 43.4862 95.7456C43.5914 95.5973 43.5671 95.319 43.571 95.1208Z" fill="#595A8D"/>
<path d="M19.4727 97.8934C20.8378 97.8908 23.6707 97.86 25.1838 97.9059C25.2141 97.9328 25.2437 97.9597 25.2739 97.9866C25.2916 98.2071 25.3081 98.2872 25.2654 98.509L25.1168 98.5654C23.5747 98.5084 22.1753 98.425 20.6488 98.7065C20.3861 98.7551 19.7393 98.7308 19.459 98.7295L19.4727 97.8934Z" fill="#595A8D"/>
<path d="M6.5752 95.8752C7.71751 95.8542 8.90582 95.8733 10.0512 95.8706C10.746 95.8687 11.7744 95.8444 12.4366 95.9192C12.5514 96.1259 12.5148 96.2487 12.5192 96.5092C10.9532 96.5446 9.37607 96.5046 7.809 96.5282C7.42158 96.5341 7.00838 96.5486 6.62752 96.4849C6.52308 96.3123 6.5658 96.0905 6.5752 95.8752Z" fill="#595A8D"/>
<path d="M27.4224 93.8753C27.7727 93.8891 27.7254 93.8327 27.9555 94.0053C28.0633 94.2599 28.0593 94.1359 27.9837 94.3898C27.7721 94.6005 27.7123 94.5552 27.4178 94.5441C26.8913 94.5368 24.8503 94.6753 24.607 94.4522C24.5959 94.2153 24.5545 94.0879 24.6452 93.8924C25.1783 93.8222 26.8038 93.8701 27.4224 93.8753Z" fill="#595A8D"/>
<path d="M27.4226 93.875C27.7729 93.8888 27.7256 93.8323 27.9557 94.0049C28.0635 94.2596 28.0595 94.1355 27.9839 94.3895C27.7723 94.6002 27.7125 94.5549 27.418 94.5437L27.4226 93.875Z" fill="#595A8D"/>
<path d="M23.3694 99.0886C23.7835 98.9567 24.8398 99.2219 24.5572 99.8617C24.2989 100.028 24.3468 99.972 23.9814 99.9746C23.489 99.9654 22.9717 100.152 22.6286 99.8C22.5655 99.5835 22.5063 99.3761 22.7035 99.2251C22.9908 99.1989 23.1025 99.189 23.3694 99.0886Z" fill="#595A8D"/>
<path d="M50.1834 95.7438C50.7027 95.7537 51.6466 95.6736 52.1139 95.8534C52.2066 95.8889 52.206 95.9696 52.2507 96.0884C52.2086 96.2813 52.2204 96.2905 52.1107 96.4493C51.5861 96.4336 50.3214 96.6462 50.0703 96.196C50.0874 95.9151 50.0374 95.9046 50.1834 95.7438Z" fill="#595A8D"/>
</g>
<defs>
<clipPath id="clip0_1470_251125">
<rect width="73" height="100" fill="white"/>
</clipPath>
</defs>
</svg>
