<svg width="20" height="20" viewBox="0 0 20 20" fill="none" xmlns="http://www.w3.org/2000/svg">
<path d="M14.6093 9.77493C14.8523 9.52976 14.8505 9.13404 14.6053 8.89105C14.3602 8.64807 13.9644 8.64983 13.7215 8.895L12.2654 10.3641C11.6744 10.9604 11.2677 11.3694 10.9231 11.6461C10.5884 11.915 10.3734 12.0072 10.1808 12.0317C10.0599 12.0471 9.93753 12.0471 9.81661 12.0317C9.62405 12.0072 9.40903 11.915 9.07429 11.6461C8.72968 11.3694 8.32298 10.9604 7.73203 10.3641L6.27594 8.895C6.03295 8.64983 5.63723 8.64807 5.39207 8.89105C5.1469 9.13404 5.14514 9.52976 5.38812 9.77493L6.87044 11.2705C7.42873 11.8338 7.88502 12.2942 8.29158 12.6207C8.71435 12.9603 9.14347 13.206 9.65856 13.2717C9.88442 13.3005 10.113 13.3005 10.3388 13.2717C10.8539 13.206 11.283 12.9603 11.7058 12.6207C12.1124 12.2942 12.5687 11.8339 13.1269 11.2705L14.6093 9.77493Z" fill="white"/>
</svg>
