<svg width="24" height="24" viewBox="0 0 24 24" fill="none" xmlns="http://www.w3.org/2000/svg">
<g clip-path="url(#clip0_3433_42333)">
<mask id="mask0_3433_42333" style="mask-type:luminance" maskUnits="userSpaceOnUse" x="0" y="0" width="24" height="24">
<path d="M24 0H0V24H24V0Z" fill="white"/>
</mask>
<g mask="url(#mask0_3433_42333)">
<path d="M9.36431 24.0019C8.9501 24.0019 8.61431 23.6661 8.61431 23.2519V19.0257C8.61423 19.0027 8.6123 18.9799 8.60855 18.9573C8.33888 17.3239 8.20317 15.6709 8.20281 14.015V8.65854C8.20347 7.99886 8.4638 7.36637 8.92667 6.8999C9.38955 6.43343 10.0172 6.17108 10.6718 6.17042H14.6895C14.8244 6.17054 14.9575 6.20048 15.0796 6.25814C15.2016 6.3158 15.3097 6.39975 15.396 6.50409C15.4824 6.60842 15.5449 6.73059 15.5793 6.86196C15.6082 6.9725 15.6165 7.08729 15.604 7.20054C15.5995 7.24148 15.5751 7.27686 15.5416 7.3008C15.262 7.50054 15.0526 7.78548 14.9447 8.11448L14.6949 8.86838C14.6469 9.01619 14.5616 9.14892 14.4475 9.25362C14.3334 9.35832 14.1943 9.43141 14.0438 9.46575C13.8932 9.5001 13.7364 9.49452 13.5887 9.44957C13.496 9.42135 13.4088 9.37824 13.3305 9.32225C13.2564 9.26931 13.267 9.16217 13.3396 9.10718C13.8365 8.73066 14.2728 8.27892 14.6329 7.76798C14.6805 7.70039 14.662 7.6073 14.5934 7.56116L14.1577 7.26828C14.0888 7.22196 13.9955 7.24056 13.9475 7.30826C13.6128 7.77966 13.2028 8.192 12.7342 8.5284C12.6792 8.56788 12.6048 8.56338 12.5511 8.52215C12.2801 8.31401 11.9659 8.16926 11.6313 8.09913L10.4896 7.86732C10.4084 7.85084 10.3292 7.90332 10.3128 7.98455L10.2078 8.5031C10.1913 8.58434 10.2439 8.66353 10.3251 8.6799L11.468 8.91026C11.6585 8.94809 11.8396 9.02361 12.0009 9.13245C12.1622 9.24128 12.3005 9.38127 12.4078 9.54431C12.5867 9.81459 12.8372 10.0289 13.1309 10.1627C13.4247 10.2965 13.7498 10.3446 14.0693 10.3014C14.3888 10.2582 14.6898 10.1254 14.9381 9.91827C15.1864 9.71111 15.3721 9.43787 15.4738 9.12963L15.7236 8.37531C15.7623 8.25861 15.8269 8.15243 15.9127 8.06499C15.9987 7.97754 16.1034 7.91121 16.2187 7.87112C16.3341 7.83101 16.4571 7.81823 16.5781 7.83375C16.6993 7.84928 16.8151 7.89269 16.917 7.96062L17.1346 8.10701C17.3718 8.27273 17.5428 8.51816 17.6167 8.7993C17.6907 9.08046 17.6629 9.37896 17.5383 9.64134L15.7656 13.2151C15.5032 13.7488 15.1227 14.2146 14.6533 14.5764C14.1839 14.9382 13.6382 15.1864 13.0584 15.3018C12.9655 15.321 12.8819 15.3718 12.8219 15.4459C12.7619 15.5199 12.7292 15.6126 12.7292 15.7081C12.7295 16.8292 12.7947 17.9493 12.9247 19.0626L13.4035 23.1649C13.4555 23.6106 13.1072 24.0019 12.6585 24.0019H9.36431ZM16.8441 1.85477C16.8448 2.55912 17.1228 3.23441 17.617 3.73248C18.1111 4.23057 18.7812 4.51079 19.4802 4.51167C19.6725 4.51185 19.8643 4.49057 20.0521 4.44822L21.4087 4.14464C21.5595 4.11089 21.6567 4.29966 21.5416 4.40276L20.3739 5.44845C20.0403 5.74728 19.7733 6.11394 19.5904 6.52428C19.4076 6.93462 19.3129 7.37934 19.3129 7.82916C19.3129 8.27898 19.4076 8.7237 19.5904 9.13404C19.7733 9.5444 20.0403 9.91104 20.3739 10.2099L22.2648 11.9035C22.3591 11.988 22.3128 12.1441 22.1877 12.1635L19.534 12.5748C19.1722 12.6309 18.8299 12.777 18.5383 12.9999C18.2466 13.2229 18.0147 13.5156 17.8636 13.8516C17.7124 14.1875 17.6467 14.5562 17.6727 14.9242C17.6985 15.2922 17.8149 15.6478 18.0115 15.9591L18.8004 17.2083C18.8908 17.3515 18.7114 17.5114 18.5794 17.4051L17.6832 16.6827C17.388 16.4448 17.0436 16.2763 16.6755 16.1898C16.3074 16.1032 15.9246 16.1007 15.5554 16.1824C15.1861 16.2642 14.8398 16.4281 14.5415 16.6621C14.2432 16.8963 14.0007 17.1946 13.8316 17.5353C13.7797 17.64 13.6238 17.6095 13.6159 17.493C13.5855 17.0457 13.5634 16.5979 13.5559 16.1509C13.5547 16.0828 13.6001 16.023 13.6653 16.0033C14.2584 15.8239 14.8105 15.5272 15.2892 15.1302C15.7977 14.7086 16.212 14.1832 16.5046 13.5888L18.2773 10.015C18.4969 9.57294 18.5487 9.06527 18.4227 8.5875C18.2968 8.10972 18.0021 7.69476 17.5939 7.4207L17.3761 7.27431C17.1106 7.09523 16.7982 6.99968 16.4787 6.9998C16.4512 6.9998 16.4286 6.97832 16.4263 6.95094C16.3902 6.52118 16.1985 6.11909 15.8868 5.82192C15.5632 5.51354 15.1348 5.34149 14.6895 5.34105H10.6718C9.79899 5.34203 8.96225 5.69187 8.3451 6.3138C7.72796 6.93575 7.38081 7.77899 7.37984 8.65854V14.015C7.37984 14.54 7.39802 15.0658 7.42607 15.5913C7.43223 15.7068 7.3094 15.7885 7.19798 15.7575C7.05407 15.7171 6.9039 15.7012 6.75365 15.7108C6.51629 15.7261 6.28719 15.8046 6.08981 15.9384L4.00232 17.3415C3.86337 17.4348 3.69905 17.265 3.79701 17.1292L5.1257 15.2881C5.23785 15.1329 5.30519 14.9493 5.32022 14.7578C5.33526 14.5663 5.29743 14.3743 5.21091 14.2032C5.12439 14.032 4.99257 13.8883 4.83003 13.788C4.66748 13.6877 4.48056 13.6347 4.28996 13.6348H3.29367C3.12873 13.6348 3.08462 13.4073 3.23757 13.3457L4.03853 13.0227C4.28201 12.9246 4.49286 12.7589 4.64667 12.5449C4.80048 12.3308 4.89092 12.0773 4.90751 11.8135C4.9241 11.5498 4.86614 11.2867 4.74038 11.0549C4.6146 10.823 4.42619 10.6318 4.19696 10.5035L2.88506 9.76878C2.75025 9.69329 2.80385 9.48791 2.95835 9.48791H3.65913C3.9165 9.48794 4.16762 9.40805 4.37831 9.25911C4.589 9.11018 4.74905 8.89943 4.83665 8.65556C4.92425 8.4117 4.93515 8.14655 4.86789 7.89621C4.80063 7.64586 4.65846 7.42248 4.46072 7.25648L2.1072 5.28005C1.98035 5.1735 2.09439 4.97022 2.25144 5.02298L5.4413 6.09453C5.66277 6.16866 5.89854 6.18873 6.12921 6.15309C6.35988 6.11745 6.57887 6.02714 6.76814 5.88956C6.95741 5.75198 7.11155 5.57108 7.2179 5.36174C7.32423 5.1524 7.37975 4.9206 7.37984 4.68543C7.37967 3.99102 7.31159 3.29832 7.17656 2.61738L7.16322 2.54993C7.14011 2.43305 7.25592 2.33718 7.36643 2.3817L8.15919 2.70114C8.43768 2.81355 8.73681 2.86458 9.0365 2.85081C9.33617 2.83704 9.62946 2.75877 9.89663 2.62128C10.1638 2.48379 10.3987 2.29026 10.5855 2.05368C10.7723 1.81712 10.9066 1.54299 10.9796 1.24974L11.2189 0.285815C11.2484 0.167219 11.3997 0.131716 11.4788 0.224836L12.7341 1.70217C12.9413 1.9463 13.201 2.13965 13.4934 2.26755C13.7858 2.39546 14.1032 2.45457 14.4217 2.44038C14.7401 2.42619 15.0511 2.33907 15.3313 2.18567C15.6114 2.03225 15.853 1.81655 16.038 1.55495L16.5717 0.800302C16.6561 0.680857 16.8441 0.740615 16.8441 0.886906V1.85477Z" fill="white"/>
</g>
</g>
<defs>
<clipPath id="clip0_3433_42333">
<rect width="24" height="24" fill="white"/>
</clipPath>
</defs>
</svg>
