<svg width="24" height="24" viewBox="0 0 24 24" fill="none" xmlns="http://www.w3.org/2000/svg">
<g clip-path="url(#clip0_3235_43001)">
<path d="M16.4651 8.65116H15.6279C15.6279 10.6548 14.0036 12.2791 12 12.2791V13.1163V13.9535C14.9284 13.9535 17.3023 11.5796 17.3023 8.65116H16.4651ZM12 13.1163V12.2791C9.99639 12.2791 8.37209 10.6548 8.37209 8.65116H7.53488H6.69767C6.69767 11.5796 9.07161 13.9535 12 13.9535V13.1163ZM7.53488 8.65116H8.37209C8.37209 6.64752 9.99639 5.02326 12 5.02326V4.18605V3.34884C9.07161 3.34884 6.69767 5.72277 6.69767 8.65116H7.53488ZM12 4.18605V5.02326C14.0036 5.02326 15.6279 6.64752 15.6279 8.65116H16.4651H17.3023C17.3023 5.72277 14.9284 3.34884 12 3.34884V4.18605ZM8.65116 16.4651V17.3023H15.3488V16.4651V15.6279H8.65116V16.4651ZM0.837209 12H1.67442C1.67442 6.29734 6.29734 1.67442 12 1.67442V0.837209V0C5.37258 0 0 5.37258 0 12H0.837209ZM12 0.837209V1.67442C17.7026 1.67442 22.3256 6.29734 22.3256 12H23.1628H24C24 5.37258 18.6275 0 12 0V0.837209ZM23.1628 12H22.3256C22.3256 14.9283 21.1077 17.5708 19.1485 19.4509L19.7282 20.055L20.3079 20.6591C22.5824 18.4762 24 15.403 24 12H23.1628ZM19.7282 20.055L19.1485 19.4509C17.2925 21.2322 14.7748 22.3256 12 22.3256V23.1628V24C15.224 24 18.1526 22.7274 20.3079 20.6591L19.7282 20.055ZM15.3488 16.4651V17.3023C17.1081 17.3023 18.5766 18.5555 18.9071 20.2182L19.7282 20.055L20.5494 19.8918C20.0662 17.4606 17.9224 15.6279 15.3488 15.6279V16.4651ZM12 23.1628V22.3256C9.22521 22.3256 6.70754 21.2322 4.85148 19.4509L4.27179 20.055L3.6921 20.6591C5.84744 22.7274 8.77599 24 12 24V23.1628ZM4.27179 20.055L4.85148 19.4509C2.89231 17.5708 1.67442 14.9283 1.67442 12H0.837209H0C0 15.403 1.41755 18.4762 3.6921 20.6591L4.27179 20.055ZM8.65116 16.4651V15.6279C6.07753 15.6279 3.9338 17.4606 3.45064 19.8918L4.27179 20.055L5.09295 20.2182C5.4234 18.5555 6.89186 17.3023 8.65116 17.3023V16.4651Z" fill="white"/>
<path d="M15.3486 16.4648H8.65086C6.4844 16.4648 4.6783 18.0078 4.27148 20.0547C6.27718 21.9796 9.00029 23.1625 11.9997 23.1625C14.9991 23.1625 17.7222 21.9796 19.7279 20.0547C19.3211 18.0078 17.5151 16.4648 15.3486 16.4648Z" fill="white"/>
<path d="M19.7263 20.056L20.3061 20.6601L20.6368 20.3425L20.5475 19.8928L19.7263 20.056ZM4.2699 20.056L3.44876 19.8928L3.35938 20.3425L3.69021 20.6601L4.2699 20.056ZM8.64928 16.4661V17.3033H15.347V16.4661V15.6289H8.64928V16.4661ZM19.7263 20.056L19.1466 19.4519C17.2905 21.2332 14.7729 22.3266 11.9982 22.3266V23.1638V24.001C15.2221 24.001 18.1506 22.7284 20.3061 20.6601L19.7263 20.056ZM15.347 16.4661V17.3033C17.1063 17.3033 18.5747 18.5565 18.9051 20.2192L19.7263 20.056L20.5475 19.8928C20.0643 17.4616 17.9206 15.6289 15.347 15.6289V16.4661ZM11.9982 23.1638V22.3266C9.22332 22.3266 6.70566 21.2332 4.8496 19.4519L4.2699 20.056L3.69021 20.6601C5.84555 22.7284 8.7741 24.001 11.9982 24.001V23.1638ZM8.64928 16.4661V15.6289C6.07564 15.6289 3.93191 17.4616 3.44876 19.8928L4.2699 20.056L5.09106 20.2192C5.42151 18.5565 6.88998 17.3033 8.64928 17.3033V16.4661Z" fill="white"/>
<path d="M16.4654 8.65262C16.4654 11.1186 14.4662 13.1177 12.0003 13.1177C9.53426 13.1177 7.53516 11.1186 7.53516 8.65262C7.53516 6.1866 9.53426 4.1875 12.0003 4.1875C14.4662 4.1875 16.4654 6.1866 16.4654 8.65262Z" fill="white"/>
<path d="M16.4647 8.64998H15.6275C15.6275 10.6536 14.0032 12.2779 11.9996 12.2779V13.1151V13.9523C14.928 13.9523 17.3019 11.5784 17.3019 8.64998H16.4647ZM11.9996 13.1151V12.2779C9.99598 12.2779 8.37168 10.6536 8.37168 8.64998H7.53447H6.69727C6.69727 11.5784 9.0712 13.9523 11.9996 13.9523V13.1151ZM7.53447 8.64998H8.37168C8.37168 6.64634 9.99598 5.02207 11.9996 5.02207V4.18487V3.34766C9.0712 3.34766 6.69727 5.72159 6.69727 8.64998H7.53447ZM11.9996 4.18487V5.02207C14.0032 5.02207 15.6275 6.64634 15.6275 8.64998H16.4647H17.3019C17.3019 5.72159 14.928 3.34766 11.9996 3.34766V4.18487Z" fill="white"/>
</g>
<defs>
<clipPath id="clip0_3235_43001">
<rect width="24" height="24" fill="white"/>
</clipPath>
</defs>
</svg>
