<svg width="24" height="24" viewBox="0 0 24 24" fill="none" xmlns="http://www.w3.org/2000/svg">
<path d="M18.1127 12.0239L21.3048 6.44149H14.9207L11.9991 1.33203L9.0775 6.44149H2.69336L5.88545 12.0239L2.69336 17.6064H9.0775L11.9991 22.7159L14.9207 17.6064H21.3048L18.1127 12.0239Z" fill="#FFC148"/>
<path d="M16.8964 12.0252L19.1742 8.0415C19.2983 7.8246 19.1416 7.55463 18.8918 7.55463H14.3401L12.2829 3.95684C12.158 3.73835 11.8429 3.73835 11.718 3.95684L9.66073 7.55463H5.10906C4.85917 7.55463 4.70256 7.8246 4.82661 8.0415L7.10449 12.0252L4.82661 16.0088C4.70256 16.2257 4.85917 16.4957 5.10906 16.4957H9.66073L11.718 20.0935C11.8429 20.312 12.158 20.312 12.2829 20.0935L14.3401 16.4957H18.8918C19.1417 16.4957 19.2983 16.2257 19.1742 16.0088L16.8964 12.0252Z" fill="#FFC148"/>
<path d="M16.2518 12.0247L18.1936 8.62866C18.3176 8.41177 18.161 8.14179 17.9111 8.14179H14.0315L12.2818 5.08184C12.1569 4.86335 11.8418 4.86335 11.7169 5.08184L9.9672 8.14179H6.08757C5.83769 8.14179 5.68108 8.41177 5.80513 8.62866L7.74696 12.0247L5.80513 15.4207C5.68108 15.6376 5.83774 15.9076 6.08757 15.9076H9.9672L11.7169 18.9675C11.8418 19.186 12.1569 19.186 12.2818 18.9675L14.0315 15.9076H17.9111C18.161 15.9076 18.3176 15.6376 18.1936 15.4207L16.2518 12.0247Z" fill="#FFC148"/>
<path d="M18.1128 12.0254L20.926 7.10555H16.0312C15.5657 7.10555 15.1358 6.85619 14.9048 6.45209L12.3568 1.99609L9.80888 6.45209C9.57782 6.85619 9.14798 7.10555 8.68243 7.10555H3.07227L5.88544 12.0254L5.87485 12.0439C6.10304 12.443 6.10304 12.933 5.87485 13.3321L3.42996 17.6079H9.07749L11.9991 22.7174L14.9207 17.6079H21.2837L18.4705 12.688L18.4811 12.6696L18.1128 12.0254Z" fill="#FFC148"/>
<path d="M14.9216 17.6064H21.3057L18.1136 12.0239L21.3057 6.44149H14.9216L12 1.33203V22.7159L14.9216 17.6064Z" fill="#FFC148"/>
<path d="M11.9991 22.7154L14.9207 17.6059H21.3048L18.1127 12.0234H5.88545L2.69336 17.6059H9.0775L11.9991 22.7154Z" fill="#FFC148"/>
<path d="M9.0775 6.44149H2.69336L21.3048 17.6064L18.1127 12.0239L21.3048 6.44149H14.9207L11.9991 1.33203L9.0775 6.44149Z" fill="#FFC148"/>
<path d="M21.3048 6.44141L2.69336 17.6063H9.0775L11.9991 22.7158L14.9207 17.6063H21.3048L18.1127 12.0239L21.3048 6.44141Z" fill="#FFC148"/>
<path d="M14.2894 5.3349L12.0005 1.33203L11.377 2.42253L14.2894 5.3349Z" fill="#FFC148"/>
<path d="M5.88545 12.0239L2.69336 17.6063H9.0775L11.9991 22.7158L14.9207 17.6063H15.1418L3.97694 6.44141H2.69336L5.88545 12.0239Z" fill="#FFC148"/>
<path d="M11.9994 2.56904C12.7088 2.56904 13.2839 1.99394 13.2839 1.28452C13.2839 0.575098 12.7088 0 11.9994 0C11.2899 0 10.7148 0.575098 10.7148 1.28452C10.7148 1.99394 11.2899 2.56904 11.9994 2.56904Z" fill="#FFC148"/>
<path d="M13.1467 1.28331C13.1467 1.91658 12.6333 2.4299 12.0001 2.4299C11.3669 2.4299 10.8535 1.91653 10.8535 1.28331C10.8535 0.650083 11.3669 0.136719 12.0001 0.136719C12.6333 0.136719 13.1467 0.650083 13.1467 1.28331Z" fill="#FFC148"/>
<path d="M12.5752 0.136719C12.6618 0.309613 12.7107 0.504766 12.7107 0.711307C12.7107 1.42072 12.1356 1.99582 11.4262 1.99582C11.2196 1.99582 11.0245 1.94698 10.8516 1.86034C11.0625 2.28128 11.4977 2.57027 12.0006 2.57027C12.71 2.57027 13.2851 1.99517 13.2851 1.28575C13.2851 0.782884 12.9961 0.347589 12.5752 0.136719Z" fill="#FFC148"/>
<path d="M12.868 0.733566C12.868 1.06317 12.4791 1.33041 11.9994 1.33041C11.5198 1.33041 11.1309 1.06317 11.1309 0.733566C11.1309 0.403919 11.5198 0.136719 11.9994 0.136719C12.4791 0.136719 12.868 0.403919 12.868 0.733566Z" fill="#FFC148"/>
<path d="M11.9994 23.9987C12.7088 23.9987 13.2839 23.4236 13.2839 22.7142C13.2839 22.0048 12.7088 21.4297 11.9994 21.4297C11.2899 21.4297 10.7148 22.0048 10.7148 22.7142C10.7148 23.4236 11.2899 23.9987 11.9994 23.9987Z" fill="#FFC148"/>
<path d="M13.1467 22.7169C13.1467 23.3502 12.6333 23.8635 12.0001 23.8635C11.3669 23.8635 10.8535 23.3501 10.8535 22.7169C10.8535 22.0837 11.3669 21.5703 12.0001 21.5703C12.6333 21.5703 13.1467 22.0836 13.1467 22.7169Z" fill="#FFC148"/>
<path d="M12.5752 21.5664C12.6618 21.7393 12.7107 21.9345 12.7107 22.141C12.7107 22.8504 12.1356 23.4255 11.4262 23.4255C11.2196 23.4255 11.0245 23.3767 10.8516 23.29C11.0624 23.711 11.4977 24 12.0006 24C12.71 24 13.2851 23.4249 13.2851 22.7154C13.2851 22.2126 12.9961 21.7773 12.5752 21.5664Z" fill="#FFC148"/>
<path d="M12.868 22.1672C12.868 22.4968 12.4791 22.764 11.9994 22.764C11.5198 22.764 11.1309 22.4968 11.1309 22.1672C11.1309 21.8375 11.5198 21.5703 11.9994 21.5703C12.4791 21.5703 12.868 21.8375 12.868 22.1672Z" fill="#FFC148"/>
<path d="M2.69467 18.8425C3.40409 18.8425 3.97919 18.2674 3.97919 17.558C3.97919 16.8485 3.40409 16.2734 2.69467 16.2734C1.98525 16.2734 1.41016 16.8485 1.41016 17.558C1.41016 18.2674 1.98525 18.8425 2.69467 18.8425Z" fill="#FFC148"/>
<path d="M3.84005 17.5607C3.84005 18.1939 3.32669 18.7072 2.69346 18.7072C2.06024 18.7072 1.54688 18.1939 1.54688 17.5607C1.54688 16.9274 2.06024 16.4141 2.69346 16.4141C3.32669 16.4141 3.84005 16.9274 3.84005 17.5607Z" fill="#FFC148"/>
<path d="M3.26855 16.4102C3.35518 16.5831 3.40403 16.7782 3.40403 16.9847C3.40403 17.6942 2.82892 18.2693 2.11951 18.2693C1.91297 18.2693 1.71782 18.2204 1.54492 18.1338C1.75584 18.5547 2.19109 18.8437 2.69396 18.8437C3.40337 18.8437 3.97848 18.2686 3.97848 17.5592C3.97848 17.0563 3.68949 16.621 3.26855 16.4102Z" fill="#FFC148"/>
<path d="M3.5633 17.0109C3.5633 17.3405 3.17445 17.6078 2.69474 17.6078C2.21507 17.6078 1.82617 17.3406 1.82617 17.0109C1.82617 16.6813 2.21507 16.4141 2.69474 16.4141C3.17445 16.4141 3.5633 16.6813 3.5633 17.0109Z" fill="#FFC148"/>
<path d="M21.306 18.8425C22.0154 18.8425 22.5905 18.2674 22.5905 17.558C22.5905 16.8485 22.0154 16.2734 21.306 16.2734C20.5966 16.2734 20.0215 16.8485 20.0215 17.558C20.0215 18.2674 20.5966 18.8425 21.306 18.8425Z" fill="#FFC148"/>
<path d="M22.4514 17.5607C22.4514 18.1939 21.938 18.7072 21.3048 18.7072C20.6716 18.7072 20.1582 18.1939 20.1582 17.5607C20.1582 16.9274 20.6716 16.4141 21.3048 16.4141C21.938 16.4141 22.4514 16.9274 22.4514 17.5607Z" fill="#FFC148"/>
<path d="M21.8799 16.4102C21.9665 16.5831 22.0154 16.7782 22.0154 16.9847C22.0154 17.6942 21.4402 18.2693 20.7308 18.2693C20.5243 18.2693 20.3291 18.2204 20.1562 18.1338C20.3672 18.5547 20.8024 18.8437 21.3053 18.8437C22.0147 18.8437 22.5898 18.2686 22.5898 17.5592C22.5898 17.0563 22.3008 16.621 21.8799 16.4102Z" fill="#FFC148"/>
<path d="M22.1746 17.0109C22.1746 17.3405 21.7858 17.6078 21.3061 17.6078C20.8264 17.6078 20.4375 17.3406 20.4375 17.0109C20.4375 16.6813 20.8263 16.4141 21.3061 16.4141C21.7858 16.4141 22.1746 16.6813 22.1746 17.0109Z" fill="#FFC148"/>
<path d="M2.69467 7.67841C3.40409 7.67841 3.97919 7.10331 3.97919 6.39389C3.97919 5.68447 3.40409 5.10938 2.69467 5.10938C1.98525 5.10938 1.41016 5.68447 1.41016 6.39389C1.41016 7.10331 1.98525 7.67841 2.69467 7.67841Z" fill="#FFC148"/>
<path d="M3.84005 6.39268C3.84005 7.02591 3.32669 7.53927 2.69346 7.53927C2.06024 7.53927 1.54688 7.02591 1.54688 6.39268C1.54688 5.75946 2.06024 5.24609 2.69346 5.24609C3.32669 5.24609 3.84005 5.75946 3.84005 6.39268Z" fill="#FFC148"/>
<path d="M3.26855 5.24609C3.35518 5.41899 3.40403 5.61414 3.40403 5.82068C3.40403 6.53009 2.82892 7.1052 2.11951 7.1052C1.91297 7.1052 1.71782 7.05635 1.54492 6.96972C1.75584 7.39066 2.19109 7.67965 2.69396 7.67965C3.40337 7.67965 3.97848 7.10454 3.97848 6.39513C3.97848 5.89231 3.68949 5.45701 3.26855 5.24609Z" fill="#FFC148"/>
<path d="M3.5633 5.84294C3.5633 6.17259 3.17445 6.43979 2.69474 6.43979C2.21507 6.43979 1.82617 6.17259 1.82617 5.84294C1.82617 5.51329 2.21507 5.24609 2.69474 5.24609C3.17445 5.24609 3.5633 5.51329 3.5633 5.84294Z" fill="#FFC148"/>
<path d="M21.306 7.67841C22.0154 7.67841 22.5905 7.10331 22.5905 6.39389C22.5905 5.68447 22.0154 5.10938 21.306 5.10938C20.5966 5.10938 20.0215 5.68447 20.0215 6.39389C20.0215 7.10331 20.5966 7.67841 21.306 7.67841Z" fill="#FFC148"/>
<path d="M22.4514 6.39268C22.4514 7.02591 21.938 7.53927 21.3048 7.53927C20.6716 7.53927 20.1582 7.02591 20.1582 6.39268C20.1582 5.75946 20.6716 5.24609 21.3048 5.24609C21.938 5.24609 22.4514 5.75946 22.4514 6.39268Z" fill="#FFC148"/>
<path d="M21.8799 5.24609C21.9665 5.41899 22.0154 5.61414 22.0154 5.82068C22.0154 6.53009 21.4402 7.1052 20.7308 7.1052C20.5243 7.1052 20.3291 7.05635 20.1562 6.96972C20.3672 7.39066 20.8024 7.67965 21.3053 7.67965C22.0147 7.67965 22.5898 7.10454 22.5898 6.39513C22.5898 5.89231 22.3008 5.45701 21.8799 5.24609Z" fill="#FFC148"/>
<path d="M22.1746 5.84294C22.1746 6.17259 21.7858 6.43979 21.3061 6.43979C20.8264 6.43979 20.4375 6.17259 20.4375 5.84294C20.4375 5.51329 20.8263 5.24609 21.3061 5.24609C21.7858 5.24609 22.1746 5.51329 22.1746 5.84294Z" fill="#FFC148"/>
</svg>
