<svg width="152" height="50" viewBox="0 0 152 50" fill="none" xmlns="http://www.w3.org/2000/svg">
<g clip-path="url(#clip0_1861_72104)">
<path d="M25.2041 0.230946C26.1986 -0.392768 27.4751 0.320048 27.4751 1.49323V42.2871C27.4751 43.4306 26.2283 44.1434 25.2338 43.5642L19.237 40.015C18.4355 39.5547 17.9011 38.9606 16.3723 39.8368L9.91541 43.5048C9.45522 43.7721 8.8912 43.7573 8.44589 43.5048L1.11326 39.2576C0.430459 38.8567 0 38.129 0 37.327V18.7345C0 17.9325 0.430459 17.2049 1.11326 16.8039L8.07481 12.7795C8.7576 12.3785 9.60367 12.3785 10.2865 12.7795L16.6691 16.403C17.4113 16.8336 17.4261 17.9029 16.6691 18.3335L2.33041 26.62C1.82574 26.917 1.51403 27.4516 1.51403 28.0308C1.51403 28.6099 1.82574 29.1445 2.33041 29.4416L15.6747 37.1637C17.2628 38.0399 18.3762 37.1637 18.3762 35.7232V5.77012C18.3762 5.01275 18.7621 4.29994 19.4151 3.88413L25.2041 0.216095V0.230946Z" fill="white"/>
<path d="M58.8591 20.3213V30.2562C58.8591 31.073 58.1911 31.7412 57.3748 31.7412H42.6991C42.049 31.7412 41.522 31.214 41.522 30.5636V29.4428C41.522 29.0525 41.6769 28.6782 41.9526 28.4022L45.6028 24.7476C45.8788 24.4713 46.2531 24.3161 46.6436 24.3161H49.2109C49.6265 24.3161 49.9531 23.9894 49.9531 23.5736V20.455C49.9531 20.0392 49.6265 19.7125 49.2109 19.7125H41.0321C40.6166 19.7125 40.29 20.0392 40.29 20.455V35.6024C40.29 36.0182 40.6166 36.3449 41.0321 36.3449H50.814C51.2148 36.3449 51.5859 36.5083 51.8678 36.7755L56.9592 41.8692C57.6568 42.5672 57.167 43.7701 56.1724 43.7701H39.7556C39.1619 43.7701 38.5979 43.5324 38.1823 43.1166L32.052 36.9983C31.6364 36.5825 31.3988 36.0182 31.3988 35.4242V20.6332C31.3988 20.0392 31.6364 19.4748 32.052 19.0591L38.1674 12.9407C38.583 12.5249 39.1471 12.2874 39.7408 12.2874H50.5171C51.1108 12.2874 51.6749 12.5249 52.0906 12.9407L58.4435 19.2818C58.7255 19.564 58.8739 19.9353 58.8739 20.3362L58.8591 20.3213Z" fill="white"/>
<path d="M82.2129 19.7125H72.4311C72.0154 19.7125 71.6889 20.0392 71.6889 20.455V35.6024C71.6889 36.0182 72.0154 36.3449 72.4311 36.3449H82.2129C82.6136 36.3449 82.9847 36.5083 83.2668 36.7755L88.358 41.8692C89.0557 42.5672 88.5658 43.7701 87.5713 43.7701H71.1545C70.5607 43.7701 69.9967 43.5324 69.5811 43.1166L63.4508 36.9983C63.0352 36.5825 62.7977 36.0182 62.7977 35.4242V20.6332C62.7977 20.0392 63.0352 19.4748 63.4508 19.0591L69.5663 12.9407C69.9819 12.5249 70.5459 12.2874 71.1397 12.2874H87.5713C88.5658 12.2874 89.0557 13.4902 88.358 14.1882L83.2668 19.2818C82.9847 19.564 82.6136 19.7125 82.2129 19.7125Z" fill="white"/>
<path d="M116.931 20.3213V30.2562C116.931 31.073 116.263 31.7412 115.446 31.7412H100.771C100.121 31.7412 99.5937 31.214 99.5937 30.5636V29.4427C99.5937 29.0525 99.7484 28.6782 100.024 28.4022L103.674 24.7476C103.95 24.4713 104.325 24.3161 104.715 24.3161H107.282C107.698 24.3161 108.025 23.9894 108.025 23.5736V20.455C108.025 20.0392 107.698 19.7125 107.282 19.7125H99.1031C98.688 19.7125 98.3613 20.0392 98.3613 20.455V35.6024C98.3613 36.0182 98.688 36.3449 99.1031 36.3449H108.886C109.286 36.3449 109.658 36.5083 109.939 36.7755L115.03 41.8692C115.728 42.5672 115.238 43.7701 114.244 43.7701H97.827C97.2336 43.7701 96.6692 43.5324 96.2533 43.1166L90.1232 36.9983C89.7076 36.5825 89.4701 36.0182 89.4701 35.4242V20.6332C89.4701 20.0392 89.7076 19.4748 90.1232 19.0591L96.2387 12.9407C96.6547 12.5249 97.2181 12.2874 97.8124 12.2874H108.588C109.182 12.2874 109.746 12.5249 110.162 12.9407L116.515 19.2818C116.797 19.564 116.945 19.9353 116.945 20.3362L116.931 20.3213Z" fill="white"/>
<path d="M129.768 7.18729V2.90272C129.768 2.63586 129.62 2.39864 129.398 2.26522L125.692 0.130345C125.47 -0.00308388 125.174 -0.00308388 124.951 0.130345L121.247 2.26522C121.025 2.39864 120.876 2.63586 120.876 2.90272V7.18729C120.876 7.45415 121.025 7.69135 121.247 7.82478L124.951 9.95964C125.174 10.093 125.47 10.093 125.692 9.95964L129.398 7.82478C129.62 7.69135 129.768 7.45415 129.768 7.18729Z" fill="#00CD9B"/>
<path d="M129.768 13.7583C129.768 12.9454 129.109 12.2874 128.296 12.2874H127.141C126.647 12.2874 126.174 12.4838 125.824 12.8334L121.308 17.3513C121.031 17.6274 120.876 18.0017 120.876 18.3921V42.3009C120.876 43.114 121.535 43.7701 122.348 43.7701H128.296C129.109 43.7701 129.768 43.111 129.768 42.298V13.7583Z" fill="white"/>
<path d="M145.681 19.6348C146.063 19.6348 146.458 19.468 146.775 19.1723L151.67 14.1349C152.34 13.4158 151.83 12.2096 150.857 12.2096H143.443C143.028 12.2096 142.702 11.8829 142.702 11.4671V3.59668C142.702 2.81057 142.177 1.985 141.078 1.985C141.078 1.985 140.351 1.98497 139.185 1.985C138.182 1.98503 137.892 2.47799 137.619 2.73164C137.346 2.98528 134.642 5.65449 134.642 5.65449C133.796 6.37101 133.603 6.72656 133.603 7.53933C133.603 17.4178 133.603 25.4847 133.603 35.3631C133.603 35.9572 133.84 36.5215 134.256 36.9373L140.372 43.0556C140.787 43.4714 141.351 43.709 141.944 43.709H150.887C151.496 43.709 152 43.2041 152 42.5952V37.3977C152 36.7887 151.496 36.2838 150.887 36.2838H143.443C143.028 36.2838 142.702 35.9572 142.702 35.5413V20.3773C142.702 19.9615 143.028 19.6348 143.443 19.6348H145.681Z" fill="white"/>
</g>
<defs>
<clipPath id="clip0_1861_72104">
<rect width="152" height="50" fill="white"/>
</clipPath>
</defs>
</svg>
