<svg width="24" height="24" viewBox="0 0 24 24" fill="none" xmlns="http://www.w3.org/2000/svg">
<path d="M15.1465 13.0029C17.7021 13.0804 19.7501 15.1757 19.7501 17.75C19.7501 20.3734 17.6234 22.5 15.0001 22.5H9.00006C7.54744 22.5 6.24829 21.8468 5.37702 20.8193L15.1465 13.0029Z" fill="white"/>
<path d="M12.0001 2C14.6234 2 16.7501 4.12665 16.7501 6.75C16.7501 6.9226 16.7397 7.09291 16.7217 7.26074L21.5313 3.41406C21.8546 3.15541 22.3272 3.20814 22.586 3.53125C22.8448 3.8547 22.7923 4.32718 22.4688 4.58594L2.46881 20.5859C2.14537 20.8446 1.67285 20.7922 1.41413 20.4688C1.15574 20.1453 1.20809 19.6727 1.53131 19.4141L4.28034 17.2139C4.54668 14.843 6.55804 13.0001 9.00006 13H9.54889L11.462 11.4688C9.09209 11.2014 7.25006 9.19134 7.25006 6.75C7.25006 4.12669 9.37677 2.00007 12.0001 2Z" fill="white"/>
</svg>
