<svg width="24" height="24" viewBox="0 0 24 24" fill="none" xmlns="http://www.w3.org/2000/svg">
<path fill-rule="evenodd" clip-rule="evenodd" d="M22.4685 4.58568C22.792 4.32692 22.8444 3.85495 22.5857 3.53151C22.3269 3.20806 21.855 3.15562 21.5315 3.41438L18.2062 6.07464C18.0246 5.91151 17.8385 5.75148 17.6483 5.59574C16.0768 4.30902 14.141 3.25003 12 3.25003C9.85908 3.25003 7.92328 4.30902 6.35176 5.59574C4.77166 6.88949 3.47965 8.47868 2.61144 9.68804L2.53984 9.78762C2.01718 10.5139 1.58694 11.1117 1.58694 12C1.58694 12.8884 2.01718 13.4862 2.53984 14.2124L2.61144 14.312C3.1561 15.0707 3.86754 15.9788 4.71227 16.8698L1.53151 19.4144C1.20806 19.6731 1.15562 20.1451 1.41438 20.4685C1.67313 20.792 2.1451 20.8444 2.46855 20.5857L22.4685 4.58568ZM8.66178 13.7102L9.87453 12.74C9.79386 12.5082 9.75003 12.2592 9.75003 12C9.75003 10.7574 10.7574 9.75003 12 9.75003C12.4362 9.75003 12.8434 9.87415 13.1882 10.089L14.4007 9.11904C13.7503 8.57647 12.9133 8.25003 12 8.25003C9.92896 8.25003 8.25003 9.92896 8.25003 12C8.25003 12.6161 8.39857 13.1974 8.66178 13.7102Z" fill="white"/>
<path d="M20.696 8.76562L15.6681 12.788C15.3064 14.4811 13.8019 15.7508 12.0008 15.7508L11.9647 15.7507L7.54883 19.2833C8.86815 20.1404 10.3754 20.7508 12.0008 20.7508C14.1418 20.7508 16.0776 19.6918 17.6491 18.4051C19.2292 17.1114 20.5212 15.5222 21.3894 14.3128L21.461 14.2132C21.9837 13.487 22.4139 12.8892 22.4139 12.0008C22.4139 11.1125 21.9837 10.5147 21.461 9.7884L21.3894 9.68882C21.1819 9.39972 20.9501 9.08891 20.696 8.76562Z" fill="white"/>
</svg>
