<svg width="24" height="24" viewBox="0 0 24 24" fill="none" xmlns="http://www.w3.org/2000/svg">
<path d="M13.75 13C14.7118 13 15.6056 13.2879 16.3535 13.7793C15.7377 13.6818 15.0893 13.8395 14.5801 14.2549L14.4092 14.4092L12.4092 16.4092C11.5305 17.2879 11.5305 18.7121 12.4092 19.5908L14.4092 21.5908C14.7091 21.8907 15.0733 22.0855 15.457 22.1807C14.9269 22.385 14.3521 22.5 13.75 22.5H7.75C5.12665 22.5 3 20.3734 3 17.75C3 15.1266 5.12665 13 7.75 13H13.75Z" fill="white"/>
<path d="M10.75 2C13.3734 2 15.5 4.12665 15.5 6.75C15.5 9.37335 13.3734 11.5 10.75 11.5C8.12665 11.5 6 9.37335 6 6.75C6 4.12665 8.12665 2 10.75 2Z" fill="white"/>
<path d="M15.4697 15.4697C15.7626 15.1768 16.2373 15.1768 16.5302 15.4697C16.8231 15.7626 16.8231 16.2373 16.5302 16.5302L15.0605 17.9999L16.5302 19.4697C16.8231 19.7626 16.8231 20.2373 16.5302 20.5302C16.2373 20.8231 15.7626 20.8231 15.4697 20.5302L13.4697 18.5302C13.1768 18.2373 13.1768 17.7626 13.4697 17.4697L15.4697 15.4697Z" fill="white"/>
<path d="M15 17.25C14.5858 17.25 14.25 17.5858 14.25 18C14.25 18.4142 14.5858 18.75 15 18.75H21C21.4142 18.75 21.75 18.4142 21.75 18C21.75 17.5858 21.4142 17.25 21 17.25H15Z" fill="white"/>
</svg>
