<svg width="24" height="24" viewBox="0 0 24 24" fill="none" xmlns="http://www.w3.org/2000/svg">
<path d="M11.9971 3C12.473 3 12.8589 3.38013 12.8589 3.84904V5.77817C13.9884 5.8894 15.0739 6.14113 15.8502 6.39836C16.301 6.54795 16.5438 7.0297 16.3921 7.47402C16.2403 7.91814 15.7512 8.15722 15.3004 8.00798C14.2716 7.66712 12.6314 7.34211 11.251 7.4298C10.5598 7.47377 10.0149 7.61653 9.64875 7.84105C9.32039 8.04259 9.11348 8.3185 9.05969 8.76416C8.99367 9.31229 9.06786 9.67913 9.18761 9.93379C9.30634 10.1861 9.50172 10.3966 9.79346 10.5817C10.4271 10.9833 11.3635 11.1866 12.4998 11.4064C13.0363 11.5101 13.6133 11.6183 14.1458 11.7601C14.6767 11.9015 15.2228 12.0903 15.6919 12.3814C16.1735 12.6802 16.5978 13.1025 16.8263 13.7014C17.0516 14.2924 17.049 14.9593 16.8689 15.6836C16.6198 16.6853 15.9101 17.3345 15.0838 17.7199C14.4142 18.0321 13.6358 18.188 12.8589 18.2495V20.151C12.8586 20.6196 12.4729 21 11.9971 21C11.5215 20.9999 11.1357 20.6196 11.1354 20.151V18.2473C9.68496 18.1398 8.27727 17.7928 7.45969 17.3684C7.03882 17.1498 6.87787 16.6368 7.09951 16.222C7.32136 15.8073 7.84209 15.6476 8.26305 15.8659C8.98262 16.2395 10.6965 16.631 12.327 16.5802C13.1315 16.555 13.8347 16.4242 14.3466 16.1855C14.8394 15.9556 15.1021 15.6572 15.1961 15.2801C15.3204 14.7799 15.2815 14.4799 15.2128 14.2994C15.1471 14.1272 15.0182 13.9708 14.773 13.8185C14.5152 13.6586 14.1586 13.5228 13.6959 13.3996C13.2348 13.2768 12.7257 13.1803 12.1677 13.0724C11.1146 12.8686 9.82402 12.6202 8.85997 12.0088C8.35339 11.6874 7.90659 11.2497 7.6235 10.648C7.34145 10.0481 7.2537 9.35176 7.3486 8.56406C7.46814 7.57271 7.99521 6.85624 8.73766 6.40057C9.44133 5.96876 10.3037 5.78839 11.1354 5.73505V3.84904C11.1354 3.38022 11.5214 3.00015 11.9971 3Z" fill="white"/>
</svg>
