<svg width="24" height="24" viewBox="0 0 24 24" fill="none" xmlns="http://www.w3.org/2000/svg">
<path d="M17.5308 11.7311C17.8224 11.4369 17.8202 10.962 17.526 10.6704C17.2318 10.3789 16.7569 10.381 16.4654 10.6752L14.7181 12.4381C14.0089 13.1537 13.5208 13.6444 13.1073 13.9765C12.7057 14.2992 12.4477 14.4098 12.2166 14.4392C12.0715 14.4577 11.9246 14.4577 11.7795 14.4392C11.5485 14.4098 11.2904 14.2992 10.8888 13.9765C10.4752 13.6444 9.98718 13.1537 9.27804 12.4381L7.53074 10.6752C7.23915 10.381 6.76428 10.3789 6.47009 10.6704C6.17589 10.962 6.17378 11.4369 6.46535 11.7311L8.24414 13.5258C8.91408 14.2017 9.46163 14.7542 9.9495 15.146C10.4568 15.5535 10.9718 15.8484 11.5899 15.9272C11.8609 15.9618 12.1352 15.9618 12.4062 15.9272C13.0243 15.8484 13.5392 15.5535 14.0466 15.146C14.5345 14.7542 15.082 14.2018 15.7519 13.5258L17.5308 11.7311Z" fill="white"/>
</svg>
