<svg width="24" height="24" viewBox="0 0 24 24" fill="none" xmlns="http://www.w3.org/2000/svg">
<path d="M14.8265 1C16.2571 1 17.4171 2.1608 17.4173 3.59277C17.4173 4.16554 17.8812 4.62977 18.4534 4.62988H19.0647C20.7067 4.63011 22.1511 5.90614 22.0843 7.6543C21.9985 9.89576 21.5629 13.491 19.8186 16.6729C19.3459 17.5352 18.715 18.3826 18.0325 19.1719L17.9808 19.2314C16.9988 20.3671 16.1802 21.3145 15.3001 21.96C14.3547 22.6532 13.3454 22.998 12.0052 22.999L12.0061 23C12.0048 23 12.0035 22.999 12.0022 22.999L11.9993 23V22.999C10.6598 22.9978 9.65134 22.6529 8.70634 21.96C7.82611 21.3145 7.00668 20.3672 6.0247 19.2314L5.72001 18.874C5.13534 18.1712 4.60054 17.4276 4.18681 16.6729C2.44261 13.491 2.00794 9.89574 1.92216 7.6543C1.85526 5.90597 3.29949 4.62988 4.94169 4.62988H5.55204C6.12432 4.62988 6.58817 4.16561 6.58817 3.59277C6.58831 2.1608 7.74838 1 9.17899 1H14.8265ZM11.9993 7C10.3426 7.00015 8.99931 8.34324 8.99931 10C8.99931 11.3974 9.95602 12.5679 11.2493 12.9014V16.25C11.2493 16.6641 11.5852 16.9998 11.9993 17C12.4135 17 12.7493 16.6642 12.7493 16.25V12.9014C14.0427 12.568 14.9993 11.3975 14.9993 10C14.9993 8.34315 13.6562 7 11.9993 7ZM11.9993 8.5C12.8277 8.5 13.4993 9.17157 13.4993 10C13.4993 10.8284 12.8277 11.5 11.9993 11.5C11.171 11.4998 10.4993 10.8283 10.4993 10C10.4993 9.17167 11.171 8.50015 11.9993 8.5Z" fill="#D9D9D9"/>
</svg>
