<svg width="167" height="49" viewBox="0 0 167 49" fill="none" xmlns="http://www.w3.org/2000/svg">
<path d="M27.6913 0.253619C28.784 -0.431326 30.1865 0.351468 30.1865 1.63982V46.4385C30.1865 47.6942 28.8166 48.477 27.724 47.841L21.1354 43.9433C20.2548 43.4378 19.6677 42.7854 17.988 43.7476L10.8939 47.7757C10.3883 48.0693 9.76862 48.053 9.27937 47.7757L1.22312 43.1116C0.472938 42.6713 0 41.8722 0 40.9915V20.5737C0 19.693 0.472938 18.8939 1.22312 18.4536L8.87167 14.0341C9.62184 13.5937 10.5514 13.5937 11.3016 14.0341L18.3141 18.0133C19.1295 18.4862 19.1458 19.6604 18.3141 20.1333L2.56039 29.2333C2.00591 29.5595 1.66344 30.1466 1.66344 30.7826C1.66344 31.4186 2.00591 32.0057 2.56039 32.3319L17.2215 40.8121C18.9664 41.7743 20.1896 40.8121 20.1896 39.2302V6.33658C20.1896 5.50486 20.6136 4.72207 21.3311 4.26544L27.6913 0.23731V0.253619Z" fill="white"/>
<path d="M64.6676 22.3162V33.2264C64.6676 34.1234 63.9337 34.8572 63.0368 34.8572H46.9129C46.1986 34.8572 45.6196 34.2782 45.6196 33.5639V32.3331C45.6196 31.9045 45.7898 31.4935 46.0927 31.1904L50.1031 27.177C50.4063 26.8736 50.8176 26.7031 51.2466 26.7031H54.0673C54.5239 26.7031 54.8827 26.3443 54.8827 25.8877V22.463C54.8827 22.0064 54.5239 21.6476 54.0673 21.6476H45.0814C44.6248 21.6476 44.266 22.0064 44.266 22.463V39.0974C44.266 39.554 44.6248 39.9128 45.0814 39.9128H55.8286C56.2689 39.9128 56.6766 40.0922 56.9864 40.3857L62.5802 45.9794C63.3466 46.7459 62.8085 48.0669 61.7158 48.0669H43.6789C43.0266 48.0669 42.4069 47.8059 41.9503 47.3493L35.215 40.6303C34.7584 40.1737 34.4974 39.554 34.4974 38.9017V22.6587C34.4974 22.0064 34.7584 21.3866 35.215 20.93L41.934 14.211C42.3906 13.7544 43.0103 13.4935 43.6626 13.4935H55.5024C56.1547 13.4935 56.7744 13.7544 57.2311 14.211L64.211 21.1746C64.5208 21.4845 64.6839 21.8922 64.6839 22.3325L64.6676 22.3162Z" fill="white"/>
<path d="M90.326 21.6476H79.5789C79.1222 21.6476 78.7635 22.0064 78.7635 22.463V39.0974C78.7635 39.554 79.1222 39.9128 79.5789 39.9128H90.326C90.7663 39.9128 91.174 40.0922 91.4839 40.3857L97.0776 45.9794C97.8441 46.7459 97.3059 48.0669 96.2132 48.0669H78.1764C77.524 48.0669 76.9043 47.8059 76.4477 47.3493L69.7124 40.6303C69.2558 40.1737 68.9949 39.554 68.9949 38.9017V22.6587C68.9949 22.0064 69.2558 21.3866 69.7124 20.93L76.4314 14.211C76.888 13.7544 77.5077 13.4935 78.1601 13.4935H96.2132C97.3059 13.4935 97.8441 14.8144 97.0776 15.5809L91.4839 21.1746C91.174 21.4845 90.7663 21.6476 90.326 21.6476Z" fill="white"/>
<path d="M128.47 22.3162V33.2264C128.47 34.1234 127.736 34.8572 126.839 34.8572H110.715C110.001 34.8572 109.422 34.2782 109.422 33.5639V32.333C109.422 31.9045 109.592 31.4935 109.895 31.1904L113.905 27.177C114.208 26.8736 114.62 26.7031 115.049 26.7031H117.869C118.326 26.7031 118.685 26.3443 118.685 25.8877V22.463C118.685 22.0064 118.326 21.6476 117.869 21.6476H108.883C108.427 21.6476 108.068 22.0064 108.068 22.463V39.0974C108.068 39.554 108.427 39.9128 108.883 39.9128H119.631C120.071 39.9128 120.479 40.0922 120.788 40.3857L126.382 45.9794C127.149 46.7459 126.61 48.0669 125.518 48.0669H107.481C106.829 48.0669 106.209 47.8059 105.752 47.3493L99.017 40.6303C98.5604 40.1737 98.2994 39.554 98.2994 38.9017V22.6587C98.2994 22.0064 98.5604 21.3866 99.017 20.93L105.736 14.211C106.193 13.7544 106.812 13.4935 107.465 13.4935H119.304C119.957 13.4935 120.576 13.7544 121.033 14.211L128.013 21.1746C128.323 21.4845 128.486 21.8922 128.486 22.3325L128.47 22.3162Z" fill="white"/>
<path d="M142.574 7.89278V3.18759C142.574 2.89453 142.411 2.63403 142.167 2.48751L138.096 0.143049C137.852 -0.00347924 137.527 -0.00347924 137.282 0.143049L133.212 2.48751C132.968 2.63403 132.805 2.89453 132.805 3.18759V7.89278C132.805 8.18584 132.968 8.44633 133.212 8.59286L137.282 10.9373C137.527 11.0838 137.852 11.0838 138.096 10.9373L142.167 8.59286C142.411 8.44633 142.574 8.18584 142.574 7.89278Z" fill="#00CD9B"/>
<path d="M142.574 15.1089C142.574 14.2161 141.85 13.4935 140.957 13.4935H139.688C139.145 13.4935 138.625 13.7092 138.241 14.0932L133.279 19.0546C132.975 19.3578 132.805 19.7688 132.805 20.1976V46.4535C132.805 47.3464 133.529 48.0669 134.422 48.0669H140.957C141.85 48.0669 142.574 47.3431 142.574 46.4503V15.1089Z" fill="white"/>
<path d="M160.057 21.6292C160.477 21.6292 160.911 21.446 161.259 21.1213L166.637 15.5894C167.373 14.7997 166.813 13.4751 165.744 13.4751H157.599C157.143 13.4751 156.784 13.1163 156.784 12.6597V4.63931C156.784 3.35096 155.365 2.56816 154.289 3.25311L147.929 7.28124C147.227 7.72156 146.787 8.50435 146.787 9.35238C146.787 20.2006 146.787 28.0534 146.787 38.9016C146.787 39.554 147.048 40.1737 147.505 40.6303L154.224 47.3493C154.68 47.8059 155.3 48.0668 155.952 48.0668H165.777C166.446 48.0668 167 47.5124 167 46.8437V41.1359C167 40.4672 166.446 39.9127 165.777 39.9127H157.599C157.143 39.9127 156.784 39.554 156.784 39.0973V22.4446C156.784 21.988 157.143 21.6292 157.599 21.6292H160.057Z" fill="white"/>
</svg>
