<svg width="24" height="24" viewBox="0 0 24 24" fill="none" xmlns="http://www.w3.org/2000/svg">
<path d="M12.0245 5.75822C12.3605 5.32622 12.6245 4.94222 12.9365 4.55822C14.0645 3.16622 15.4085 2.11022 17.2805 2.01422C20.2565 1.82222 23.0405 4.29422 23.3525 7.34222C23.5925 9.69422 22.7765 11.7342 21.5045 13.6062C19.2005 16.9182 16.2485 19.5582 12.8645 21.7422C12.1205 22.2222 11.5205 22.0062 10.8485 21.5982C8.30452 19.9662 6.12052 17.9262 4.10452 15.6942C2.76052 14.2302 1.70452 12.5982 1.05652 10.7022C0.360524 8.63822 0.408524 6.64622 1.60852 4.77422C3.86452 1.31822 7.96852 1.03022 10.7525 4.15022C11.1845 4.63022 11.5685 5.15822 12.0245 5.75822Z" fill="#FD4139"/>
</svg>
