<svg width="24" height="24" viewBox="0 0 24 24" fill="none" xmlns="http://www.w3.org/2000/svg">
<path d="M13.4093 19.501C12.9951 19.501 12.6593 19.8368 12.6593 20.251C12.6593 20.6652 12.9951 21.001 13.4093 21.001H19.4093C19.8235 21.001 20.1593 20.6652 20.1593 20.251C20.1593 19.8368 19.8235 19.501 19.4093 19.501H13.4093Z" fill="white"/>
<path d="M14.2033 4.5755L14.2934 4.6275C15.0715 5.07671 15.7204 5.4513 16.1955 5.81795C16.697 6.20494 17.095 6.64914 17.2617 7.27132C17.4284 7.8935 17.3058 8.4772 17.065 9.06309C16.8979 9.46976 16.6521 9.92674 16.356 10.448L15.7207 10.0704L15.7125 10.0656L8.78718 6.06728L8.13953 5.68557C8.43962 5.17448 8.71 4.73795 8.9762 4.393C9.36319 3.89152 9.80739 3.49349 10.4296 3.32678C11.0518 3.16006 11.6355 3.28267 12.2213 3.52347C12.7764 3.7516 13.4253 4.12624 14.2033 4.5755Z" fill="white"/>
<path d="M7.3881 6.98384L3.91013 13.0077C3.61235 13.5225 3.37689 13.9296 3.28965 14.3926C3.20242 14.8556 3.2736 15.3204 3.36363 15.9083L3.38789 16.0672C3.55408 17.1586 3.69106 18.0581 3.89766 18.7403C4.11373 19.4537 4.44588 20.0712 5.09915 20.4484C5.75243 20.8256 6.45329 20.8045 7.17918 20.6349C7.87324 20.4727 8.72078 20.1416 9.74901 19.7398L9.89875 19.6814C10.4529 19.4654 10.891 19.2946 11.2484 18.9876C11.6057 18.6805 11.8405 18.2731 12.1375 17.7578L15.6072 11.7479L14.9584 11.3623L8.02844 7.36127L7.3881 6.98384Z" fill="white"/>
</svg>
