<svg width="24" height="24" viewBox="0 0 24 24" fill="none" xmlns="http://www.w3.org/2000/svg">
<path d="M10.1289 2.41871C11.3662 2.19376 12.6338 2.19376 13.8711 2.41871C15.4941 2.71382 16.9618 3.37056 18.207 4.29078L19.4941 3.01344C19.7869 2.72082 20.2618 2.72092 20.5547 3.01344C20.8476 3.30633 20.8476 3.78207 20.5547 4.07496L2.0498 22.4519C1.75692 22.7446 1.2821 22.7447 0.989258 22.4519C0.696422 22.1591 0.696537 21.6843 0.989258 21.3914L1.34863 21.033C0.682661 20.5323 0.250233 19.7385 0.25 18.8406V16.8406C0.25 15.7998 0.82794 14.8946 1.67969 14.4275L1.65527 14.2625C0.816965 8.67374 4.56883 3.42968 10.1289 2.41871ZM9.62012 17.0183C9.86516 18.7245 9.3428 20.5198 8.05273 21.8474C8.02412 21.8769 7.99005 21.9111 7.93555 21.9656L7.53027 22.3709C7.23747 22.6633 6.76253 22.6633 6.46973 22.3709C6.17695 22.0781 6.1772 21.6032 6.46973 21.3103L6.87012 20.9099C6.93107 20.849 6.95642 20.8232 6.97656 20.8025C7.61166 20.149 7.99419 19.3412 8.12598 18.5027L9.62012 17.0183ZM16.4697 13.3103C16.7626 13.0174 17.2374 13.0174 17.5303 13.3103C17.8228 13.6032 17.823 14.0781 17.5303 14.3709L17.1299 14.7703C17.0684 14.8317 17.0437 14.8579 17.0234 14.8787C15.4209 16.528 15.4208 19.1532 17.0234 20.8025C17.0436 20.8232 17.0689 20.849 17.1299 20.9099L17.5303 21.3103C17.8228 21.6032 17.823 22.0781 17.5303 22.3709C17.2375 22.6633 16.7625 22.6633 16.4697 22.3709L16.0645 21.9656C16.0098 21.9109 15.9759 21.8769 15.9473 21.8474C13.779 19.616 13.7791 16.0642 15.9473 13.8328L16.4697 13.3103ZM20.3291 6.38551C21.9771 8.55657 22.7797 11.3627 22.3447 14.2625L22.3203 14.4275C23.1721 14.8946 23.75 15.7998 23.75 16.8406V18.8406C23.7496 20.359 22.5185 21.5906 21 21.5906C19.4815 21.5906 18.2504 20.359 18.25 18.8406V16.8406C18.25 15.371 19.4029 14.1707 20.8535 14.0945L20.8613 14.0398C21.2233 11.6267 20.5858 9.28845 19.2549 7.45192L20.3291 6.38551ZM13.6025 3.8943C12.5428 3.70167 11.4572 3.70167 10.3975 3.8943C5.63466 4.76031 2.42057 9.25246 3.13867 14.0398L3.14648 14.0945C4.54123 14.1677 5.65698 15.2799 5.74121 16.6716L7.24219 15.1804C7.15896 15.0769 7.07094 14.9758 6.97656 14.8787C6.95633 14.8579 6.93157 14.8317 6.87012 14.7703L6.46973 14.3709C6.17695 14.0781 6.1772 13.6032 6.46973 13.3103C6.76262 13.0174 7.23738 13.0174 7.53027 13.3103L8.05273 13.8328C8.14289 13.9256 8.22798 14.0217 8.31055 14.1189L17.1279 5.36207C16.1026 4.64513 14.9115 4.13231 13.6025 3.8943Z" fill="white"/>
</svg>
