<svg width="24" height="24" viewBox="0 0 24 24" fill="none" xmlns="http://www.w3.org/2000/svg">
<path d="M10.7509 10C10.7509 9.30964 11.3105 8.75 12.0009 8.75C12.6912 8.75 13.2509 9.30964 13.2509 10C13.2509 10.6904 12.6912 11.25 12.0009 11.25C11.3105 11.25 10.7509 10.6904 10.7509 10Z" fill="white"/>
<path fill-rule="evenodd" clip-rule="evenodd" d="M6.77215 4.04167C6.77215 2.49987 8.02202 1.25 9.56381 1.25H14.7298C16.1105 1.25 17.2298 2.36929 17.2298 3.75C17.2298 4.30228 17.6775 4.75 18.2298 4.75H18.8192C20.404 4.75 21.7979 5.97999 21.7333 7.66561C21.6506 9.82667 21.2308 13.2931 19.5475 16.3608C19.0912 17.1923 18.4818 18.0092 17.823 18.7703L17.7734 18.8276C16.8258 19.9226 16.0356 20.8356 15.1861 21.4579C14.2725 22.1273 13.2973 22.4607 12.001 22.4607C10.7047 22.4607 9.72951 22.1273 8.81582 21.4579C7.96635 20.8356 7.17619 19.9226 6.22852 18.8276L6.17893 18.7703C5.52016 18.0092 4.91077 17.1923 4.45448 16.3608C2.82533 13.3918 2.37867 10.2575 2.27715 8.24648C2.19164 6.55273 3.59556 5.33333 5.17162 5.33333H5.48048C6.19385 5.33333 6.77215 4.75503 6.77215 4.04167ZM12.0009 7.25C10.4821 7.25 9.25085 8.48122 9.25085 10C9.25085 11.2588 10.0966 12.32 11.2509 12.6465V16C11.2509 16.4142 11.5866 16.75 12.0009 16.75C12.4151 16.75 12.7509 16.4142 12.7509 16V12.6465C13.9051 12.32 14.7509 11.2588 14.7509 10C14.7509 8.48122 13.5196 7.25 12.0009 7.25Z" fill="white"/>
</svg>
