<svg width="56" height="56" viewBox="0 0 56 56" fill="none" xmlns="http://www.w3.org/2000/svg">
<path d="M37.3327 21H36.5827C36.5827 25.7404 32.7398 29.5833 27.9994 29.5833V30.3333V31.0833C33.5682 31.0833 38.0827 26.5689 38.0827 21H37.3327ZM27.9994 30.3333V29.5833C23.2589 29.5833 19.416 25.7404 19.416 21H18.666H17.916C17.916 26.5689 22.4305 31.0833 27.9994 31.0833V30.3333ZM18.666 21H19.416C19.416 16.2595 23.2589 12.4167 27.9994 12.4167V11.6667V10.9167C22.4305 10.9167 17.916 15.4311 17.916 21H18.666ZM27.9994 11.6667V12.4167C32.7398 12.4167 36.5827 16.2595 36.5827 21H37.3327H38.0827C38.0827 15.4311 33.5682 10.9167 27.9994 10.9167V11.6667ZM20.9993 37.3333V38.0833H34.9994V37.3333V36.5833H20.9993V37.3333ZM4.66602 28H5.41602C5.41602 15.5276 15.5269 5.41666 27.9994 5.41666V4.66666V3.91666C14.6985 3.91666 3.91602 14.6991 3.91602 28H4.66602ZM27.9994 4.66666V5.41666C40.4718 5.41666 50.5827 15.5276 50.5827 28H51.3327H52.0827C52.0827 14.6991 41.3002 3.91666 27.9994 3.91666V4.66666ZM51.3327 28H50.5827C50.5827 34.4045 47.9177 40.1852 43.6341 44.2961L44.1535 44.8372L44.6728 45.3783C49.2388 40.9963 52.0827 34.8296 52.0827 28H51.3327ZM44.1535 44.8372L43.6341 44.2961C39.5757 48.1908 34.0677 50.5833 27.9994 50.5833V51.3333V52.0833C34.4701 52.0833 40.3462 49.5304 44.6728 45.3783L44.1535 44.8372ZM34.9994 37.3333V38.0833C39.1631 38.0833 42.6359 41.0489 43.4178 44.9834L44.1535 44.8372L44.8891 44.691C43.9703 40.0681 39.8926 36.5833 34.9994 36.5833V37.3333ZM27.9994 51.3333V50.5833C21.931 50.5833 16.423 48.1908 12.3646 44.2961L11.8452 44.8372L11.3259 45.3783C15.6525 49.5304 21.5286 52.0833 27.9994 52.0833V51.3333ZM11.8452 44.8372L12.3646 44.2961C8.081 40.1852 5.41602 34.4045 5.41602 28H4.66602H3.91602C3.91602 34.8296 6.75986 40.9963 11.3259 45.3783L11.8452 44.8372ZM20.9993 37.3333V36.5833C16.1061 36.5833 12.0284 40.0681 11.1096 44.691L11.8452 44.8372L12.5809 44.9834C13.3628 41.0489 16.8356 38.0833 20.9993 38.0833V37.3333Z" fill="#07060B"/>
<path d="M34.9998 37.3333H20.9998C16.4713 37.3333 12.696 40.5585 11.8457 44.8372C16.0382 48.8606 21.7302 51.3333 27.9998 51.3333C34.2694 51.3333 39.9614 48.8606 44.1539 44.8372C43.3036 40.5585 39.5283 37.3333 34.9998 37.3333Z" fill="#07060B"/>
<path d="M44.1539 44.8372L44.6732 45.3783L44.9696 45.0939L44.8895 44.691L44.1539 44.8372ZM11.8457 44.8372L11.1101 44.691L11.03 45.0939L11.3264 45.3783L11.8457 44.8372ZM20.9998 37.3333V38.0833H34.9998V37.3333V36.5833H20.9998V37.3333ZM44.1539 44.8372L43.6346 44.2961C39.5762 48.1908 34.0682 50.5833 27.9998 50.5833V51.3333V52.0833C34.4706 52.0833 40.3467 49.5304 44.6732 45.3783L44.1539 44.8372ZM34.9998 37.3333V38.0833C39.1636 38.0833 42.6364 41.0489 43.4183 44.9834L44.1539 44.8372L44.8895 44.691C43.9708 40.0681 39.8931 36.5833 34.9998 36.5833V37.3333ZM27.9998 51.3333V50.5833C21.9314 50.5833 16.4234 48.1908 12.365 44.2961L11.8457 44.8372L11.3264 45.3783C15.6529 49.5304 21.529 52.0833 27.9998 52.0833V51.3333ZM20.9998 37.3333V36.5833C16.1065 36.5833 12.0288 40.0681 11.1101 44.691L11.8457 44.8372L12.5813 44.9834C13.3633 41.0489 16.836 38.0833 20.9998 38.0833V37.3333Z" fill="#07060B"/>
<path d="M37.3327 21C37.3327 26.1546 33.154 30.3333 27.9993 30.3333C22.8447 30.3333 18.666 26.1546 18.666 21C18.666 15.8453 22.8447 11.6667 27.9993 11.6667C33.154 11.6667 37.3327 15.8453 37.3327 21Z" fill="#07060B"/>
<path d="M37.3327 21H36.5827C36.5827 25.7404 32.7398 29.5833 27.9993 29.5833V30.3333V31.0833C33.5682 31.0833 38.0827 26.5689 38.0827 21H37.3327ZM27.9993 30.3333V29.5833C23.2589 29.5833 19.416 25.7404 19.416 21H18.666H17.916C17.916 26.5689 22.4305 31.0833 27.9993 31.0833V30.3333ZM18.666 21H19.416C19.416 16.2595 23.2589 12.4167 27.9993 12.4167V11.6667V10.9167C22.4305 10.9167 17.916 15.4311 17.916 21H18.666ZM27.9993 11.6667V12.4167C32.7398 12.4167 36.5827 16.2595 36.5827 21H37.3327H38.0827C38.0827 15.4311 33.5682 10.9167 27.9993 10.9167V11.6667Z" fill="#07060B"/>
</svg>
