<svg width="24" height="24" viewBox="0 0 24 24" fill="none" xmlns="http://www.w3.org/2000/svg">
<path d="M19.7326 14.4784C20.3313 13.3089 20.6689 11.9828 20.6689 10.5801C20.6689 5.86032 16.8646 2.0386 12.1553 2.00029C7.56432 1.96201 3.67646 5.66192 3.50589 10.2529C3.45021 11.7739 3.79131 13.2114 4.43175 14.4679C4.68235 14.9622 4.70672 15.5574 4.47352 16.062C4.27413 16.4876 4.20571 16.9851 4.31471 17.5077C4.50696 18.4296 5.2249 19.1133 6.15373 19.2687C6.70493 19.3609 7.22481 19.2599 7.65831 19.0171C8.00983 18.8222 8.44145 19.0345 8.46928 19.4348L8.58773 21.2533C8.61509 21.6733 8.96376 22 9.38468 22H10.0804C10.2517 22 10.3906 21.8611 10.3906 21.6898V20.378C10.3906 20.0582 10.6807 19.8066 11.0059 19.8642C11.2612 19.9094 11.4348 20.1523 11.4348 20.4115L11.4348 21.6898C11.4348 21.8611 11.5736 22 11.7449 22H12.4264C12.5977 22 12.7365 21.8611 12.7365 21.6898L12.7365 20.4115C12.7365 20.1523 12.9102 19.9094 13.1654 19.8642C13.4906 19.8066 13.7807 20.0582 13.7807 20.378V21.6898C13.7807 21.8611 13.9196 22 14.0909 22H14.785C15.2068 22 15.5563 21.6726 15.5837 21.2517L15.702 19.4348C15.7299 19.0345 16.1615 18.8222 16.513 19.0171C16.9551 19.2647 17.4869 19.3649 18.0502 19.263C19.0203 19.0877 19.781 18.268 19.892 17.2885C19.9436 16.8327 19.8653 16.4036 19.6839 16.0307C19.4507 15.5434 19.489 14.9587 19.7326 14.4784ZM8.53889 15.2197H8.31264C7.79752 15.2197 7.33459 15.0109 6.99698 14.6768C6.66283 14.3391 6.454 13.8727 6.454 13.3611C6.454 12.6093 7.06311 12.0002 7.81492 12.0002H10.0738C10.3036 12.0002 10.5159 12.0941 10.6656 12.2473C10.8187 12.397 10.9127 12.6093 10.9127 12.8425C10.9127 14.1547 9.8511 15.2197 8.53889 15.2197ZM12.7296 17.6736H11.4417C11.0519 17.6736 10.7874 17.2872 10.9266 16.9252L11.299 15.9611C11.4243 15.6339 11.7376 15.4216 12.0857 15.4216C12.4337 15.4216 12.747 15.6339 12.8723 15.9611L13.2447 16.9252C13.3839 17.2872 13.1194 17.6736 12.7296 17.6736ZM17.1743 14.6768C16.8367 15.0109 16.3738 15.2197 15.8587 15.2197H15.6324C14.3202 15.2197 13.2586 14.1547 13.2586 12.8425C13.2586 12.6093 13.3526 12.397 13.5058 12.2473C13.6554 12.0941 13.8677 12.0002 14.0975 12.0002H16.3564C17.1082 12.0002 17.7173 12.6093 17.7173 13.3611C17.7173 13.8727 17.5085 14.3391 17.1743 14.6768Z" fill="white"/>
</svg>
