<svg width="24" height="24" viewBox="0 0 24 24" fill="none" xmlns="http://www.w3.org/2000/svg">
<path d="M11.7586 4.60459C12.9355 4.01532 14.2422 3.85032 15.5072 4.13814C16.7702 4.42556 17.9156 5.14709 18.8071 6.18783C19.0907 6.51949 19.0574 7.02295 18.7329 7.31294C18.4081 7.60306 17.9143 7.56977 17.6302 7.23814C16.9395 6.43188 16.0801 5.90313 15.1674 5.69541C14.2566 5.48818 13.3124 5.6042 12.4473 6.0372C11.5794 6.4717 10.8182 7.21253 10.2755 8.18559C10.1676 8.37897 10.0724 8.58068 9.98454 8.7871H14.2814L14.3607 8.79126C14.7548 8.83197 15.0626 9.17174 15.0626 9.585C15.0626 9.99818 14.7548 10.338 14.3607 10.3787L14.2814 10.3829H9.52984C9.4718 10.7487 9.43829 11.1221 9.43828 11.4996C9.43828 11.8771 9.47185 12.2505 9.52984 12.6164H14.2814C14.7126 12.6165 15.0624 12.9739 15.0626 13.4143C15.0626 13.8548 14.7127 14.212 14.2814 14.2121H9.98353C10.0715 14.4189 10.1674 14.621 10.2755 14.8147C10.8182 15.7876 11.5795 16.5275 12.4473 16.962C13.3125 17.3951 14.2566 17.511 15.1674 17.3038C16.08 17.0961 16.9395 16.5682 17.6302 15.7621C17.9142 15.4305 18.4081 15.3964 18.7329 15.6863C19.0576 15.9764 19.091 16.4808 18.8071 16.8124C17.9156 17.8532 16.7702 18.5747 15.5072 18.8622C14.2422 19.1499 12.9355 18.9839 11.7586 18.3946C10.5845 17.8066 9.60171 16.8291 8.91848 15.6042C8.67286 15.1638 8.47045 14.6967 8.31016 14.2121H6.78124C6.34978 14.2121 6.00001 13.8549 6 13.4143C6.00022 12.9738 6.34991 12.6164 6.78124 12.6164H7.94803C7.90068 12.2477 7.8758 11.8745 7.8758 11.4996C7.87581 11.1247 7.90066 10.7515 7.94803 10.3829H6.78124C6.34978 10.3829 6.00001 10.0256 6 9.585C6 9.14432 6.34978 8.7871 6.78124 8.7871H8.31016C8.47042 8.30291 8.673 7.83622 8.91848 7.39605C9.60174 6.17091 10.5843 5.19259 11.7586 4.60459Z" fill="white"/>
</svg>
