<svg width="24" height="24" viewBox="0 0 24 24" fill="none" xmlns="http://www.w3.org/2000/svg">
<path fill-rule="evenodd" clip-rule="evenodd" d="M6.48872 4.25C3.13493 4.25 0.55869 7.22043 1.03299 10.5405L1.26388 12.1568L2.72016 17.2537C3.14232 18.7313 4.49283 19.75 6.02952 19.75C7.20063 19.75 8.29138 19.1545 8.92467 18.1694L9.29904 17.587C10.5626 15.6216 13.4356 15.6216 14.6992 17.587L14.9282 17.9433C15.6521 19.0693 16.8988 19.75 18.2375 19.75C20.1953 19.75 21.8552 18.3104 22.1321 16.3722L22.9652 10.5405C23.4395 7.22043 20.8633 4.25 17.5095 4.25C16.7384 4.25 15.9758 4.41182 15.2712 4.725L14.7402 4.96099C13.7149 5.41669 13.2998 5.597 12.8816 5.68577C12.2998 5.80929 11.6984 5.80929 11.1166 5.68577C10.6984 5.597 10.2833 5.41669 9.25798 4.96099L8.727 4.725C8.02235 4.41182 7.25983 4.25 6.48872 4.25ZM6.99908 8.25C7.4133 8.25 7.74908 8.58579 7.74908 9V10.25H8.99908C9.4133 10.25 9.74908 10.5858 9.74908 11C9.74908 11.4142 9.4133 11.75 8.99908 11.75H7.74908V13C7.74908 13.4142 7.4133 13.75 6.99908 13.75C6.58487 13.75 6.24908 13.4142 6.24908 13V11.75H4.99908C4.58487 11.75 4.24908 11.4142 4.24908 11C4.24908 10.5858 4.58487 10.25 4.99908 10.25H6.24908V9C6.24908 8.58579 6.58487 8.25 6.99908 8.25ZM16.9991 10C17.5514 10 17.9991 9.55228 17.9991 9C17.9991 8.44772 17.5514 8 16.9991 8C16.4469 8 15.9991 8.44772 15.9991 9C15.9991 9.55228 16.4469 10 16.9991 10ZM14.9991 12C15.5514 12 15.9991 11.5523 15.9991 11C15.9991 10.4477 15.5514 10 14.9991 10C14.4469 10 13.9991 10.4477 13.9991 11C13.9991 11.5523 14.4469 12 14.9991 12ZM19.9991 11C19.9991 11.5523 19.5514 12 18.9991 12C18.4469 12 17.9991 11.5523 17.9991 11C17.9991 10.4477 18.4469 10 18.9991 10C19.5514 10 19.9991 10.4477 19.9991 11ZM16.9991 14C17.5514 14 17.9991 13.5523 17.9991 13C17.9991 12.4477 17.5514 12 16.9991 12C16.4469 12 15.9991 12.4477 15.9991 13C15.9991 13.5523 16.4469 14 16.9991 14Z" fill="white"/>
</svg>
