<svg width="24" height="24" viewBox="0 0 24 24" fill="none" xmlns="http://www.w3.org/2000/svg">
<path d="M21.5726 13.4541L18.2034 5.03169C18.0818 4.72703 17.8716 4.46585 17.6 4.28193C17.3284 4.09801 17.0078 3.9998 16.6798 4H14.0937L14.4974 8.31906H17.3662L11.9474 12.8113L6.52866 8.31906H9.39741L9.80116 4H7.21504C6.54354 4 5.94004 4.408 5.69141 5.03169L2.32223 13.4541C2.01634 14.2198 1.92594 15.0547 2.06085 15.8681L2.68773 19.6283C2.75138 20.0115 2.94895 20.3597 3.24528 20.6109C3.5416 20.8621 3.91745 21 4.30591 21H19.5879C20.39 21 21.0743 20.4199 21.206 19.6283L21.8329 15.8681C21.9698 15.0548 21.8797 14.2195 21.5726 13.4541ZM19.3414 18.0728C19.3043 18.2971 19.1888 18.5009 19.0154 18.6478C18.8419 18.7947 18.622 18.8753 18.3947 18.875H5.50016C5.27287 18.8753 5.05288 18.7947 4.87947 18.6478C4.70606 18.5009 4.59052 18.2971 4.55348 18.0728L4.16566 15.7428C4.14247 15.6052 4.14957 15.4643 4.18649 15.3298C4.2234 15.1952 4.28923 15.0704 4.37937 14.964C4.46952 14.8575 4.58181 14.7721 4.70841 14.7135C4.83501 14.655 4.97287 14.6248 5.11235 14.625H18.7835C19.3764 14.625 19.828 15.1573 19.7302 15.7428L19.3414 18.0728Z" fill="#C8C8C8"/>
</svg>
