<svg width="24" height="24" viewBox="0 0 24 24" fill="none" xmlns="http://www.w3.org/2000/svg">
<path d="M20.7082 12.3419L17.66 4.91031C17.5499 4.6415 17.3598 4.41105 17.114 4.24876C16.8683 4.08648 16.5782 3.99982 16.2815 4H13.9417L14.307 7.81094H16.9025L11.9999 11.7747L7.09728 7.81094H9.69277L10.0581 4H7.71828C7.11074 4 6.56473 4.36 6.33979 4.91031L3.29153 12.3419C3.01478 13.0175 2.933 13.7541 3.05505 14.4719L3.62222 17.7897C3.67981 18.1278 3.85856 18.435 4.12666 18.6567C4.39476 18.8783 4.7348 19 5.08626 19H18.9125C19.6383 19 20.2574 18.4881 20.3766 17.7897L20.9437 14.4719C21.0676 13.7543 20.9861 13.0172 20.7082 12.3419ZM18.6895 16.4172C18.656 16.6151 18.5514 16.7949 18.3946 16.9245C18.2377 17.0542 18.0386 17.1252 17.833 17.125H6.16675C5.96111 17.1252 5.76208 17.0542 5.60518 16.9245C5.44829 16.7949 5.34376 16.6151 5.31024 16.4172L4.95937 14.3613C4.93839 14.2399 4.94482 14.1155 4.97821 13.9968C5.01161 13.8782 5.07116 13.768 5.15273 13.6741C5.23429 13.5802 5.33588 13.5048 5.45042 13.4531C5.56496 13.4014 5.68969 13.3748 5.81588 13.375H18.1848C18.7212 13.375 19.1298 13.8447 19.0413 14.3613L18.6895 16.4172Z" fill="#C8C8C8"/>
</svg>
