<svg width="24" height="24" viewBox="0 0 24 24" fill="none" xmlns="http://www.w3.org/2000/svg">
<path d="M2 19.3984H13V20.8984H2V19.3984Z" fill="#C8C8C8"/>
<path d="M3 17.6484H12V19.1484H3V17.6484Z" fill="#C8C8C8"/>
<path fill-rule="evenodd" clip-rule="evenodd" d="M5.7716 9.97334C5.57634 9.77807 5.25975 9.77807 5.06449 9.97334L4.71094 10.3269C4.51568 10.5222 4.51568 10.8387 4.71094 11.034L8.60002 14.9231C8.79529 15.1183 9.11187 15.1183 9.30713 14.9231L9.66069 14.5695C9.85595 14.3743 9.85595 14.0577 9.66069 13.8624L5.7716 9.97334ZM11.0749 4.67004C10.8796 4.47477 10.8796 4.15819 11.0749 3.96293L11.4285 3.60937C11.6237 3.41411 11.9403 3.41411 12.1356 3.60937L16.0246 7.49846C16.2199 7.69372 16.2199 8.01031 16.0246 8.20557L15.6711 8.55912C15.4758 8.75438 15.1592 8.75438 14.964 8.55912L11.0749 4.67004ZM11.0749 5.02359L6.12515 9.97334L9.66069 13.5089L14.6104 8.55912L11.0749 5.02359ZM13.0194 10.8572L11.9588 11.9179L20.7976 20.7567C20.9929 20.952 21.3095 20.952 21.5047 20.7567L21.8583 20.4032C22.0535 20.2079 22.0535 19.8913 21.8583 19.6961L13.0194 10.8572ZM13.5498 3.25582L12.8427 3.96293L15.6711 6.79136L16.3782 6.08425C16.5735 5.88899 16.5735 5.5724 16.3782 5.37714L14.2569 3.25582C14.0616 3.06056 13.745 3.06056 13.5498 3.25582ZM4.35738 12.4482L5.06449 11.7411L7.89292 14.5695L7.18581 15.2766C6.99055 15.4719 6.67397 15.4719 6.4787 15.2766L4.35738 13.1553C4.16212 12.9601 4.16212 12.6435 4.35738 12.4482Z" fill="#C8C8C8"/>
</svg>
