<svg width="24" height="24" viewBox="0 0 24 24" fill="none" xmlns="http://www.w3.org/2000/svg">
<path d="M11.7191 19.3113C10.2142 19.3113 8.74316 18.865 7.49191 18.0289C6.24066 17.1929 5.26542 16.0046 4.68954 14.6142C4.11365 13.2239 3.96297 11.6941 4.25656 10.2181C4.55014 8.74216 5.2748 7.38641 6.33891 6.3223C7.40301 5.2582 8.75876 4.53354 10.2347 4.23995C11.7107 3.94637 13.2405 4.09705 14.6308 4.67293C16.0212 5.24882 17.2095 6.22406 18.0455 7.47531C18.8816 8.72656 19.3279 10.1976 19.3279 11.7025C19.3259 13.7199 18.5236 15.654 17.0971 17.0805C15.6706 18.507 13.7365 19.3093 11.7191 19.3113ZM11.7191 4.84375C10.3626 4.84375 9.0365 5.24601 7.90859 5.99966C6.78067 6.75331 5.90157 7.8245 5.38245 9.07777C4.86332 10.331 4.7275 11.7101 4.99214 13.0406C5.25679 14.371 5.91002 15.5932 6.86924 16.5524C7.82845 17.5116 9.05056 18.1648 10.381 18.4295C11.7115 18.6941 13.0906 18.5583 14.3438 18.0392C15.5971 17.52 16.6683 16.6409 17.4219 15.513C18.1756 14.3851 18.5779 13.059 18.5779 11.7025C18.5749 9.88436 17.8513 8.14154 16.5657 6.85592C15.2801 5.5703 13.5372 4.84673 11.7191 4.84375Z" fill="#C8C8C8"/>
<path d="M11.7188 6.24C11.6193 6.24 11.5239 6.20049 11.4536 6.13017C11.3833 6.05984 11.3438 5.96446 11.3438 5.865V3.375C11.3438 3.27554 11.3833 3.18016 11.4536 3.10984C11.5239 3.03951 11.6193 3 11.7188 3C11.8182 3 11.9136 3.03951 11.9839 3.10984C12.0542 3.18016 12.0938 3.27554 12.0938 3.375V5.865C12.0938 5.91425 12.084 5.96301 12.0652 6.00851C12.0464 6.054 12.0187 6.09534 11.9839 6.13017C11.9491 6.16499 11.9078 6.19261 11.8623 6.21145C11.8168 6.2303 11.768 6.24 11.7188 6.24Z" fill="#C8C8C8"/>
<path d="M11.7188 20.0408C11.6193 20.0408 11.5239 20.0013 11.4536 19.9309C11.3833 19.8606 11.3438 19.7652 11.3438 19.6658V17.1758C11.3438 17.0763 11.3833 16.9809 11.4536 16.9106C11.5239 16.8403 11.6193 16.8008 11.7188 16.8008C11.8182 16.8008 11.9136 16.8403 11.9839 16.9106C12.0542 16.9809 12.0938 17.0763 12.0938 17.1758V19.6658C12.0938 19.7652 12.0542 19.8606 11.9839 19.9309C11.9136 20.0013 11.8182 20.0408 11.7188 20.0408Z" fill="#C8C8C8"/>
<path d="M19.9949 12.0781H17.5049C17.4054 12.0781 17.31 12.0386 17.2397 11.9683C17.1694 11.898 17.1299 11.8026 17.1299 11.7031C17.1299 11.6037 17.1694 11.5083 17.2397 11.438C17.31 11.3676 17.4054 11.3281 17.5049 11.3281H19.9949C20.0943 11.3281 20.1897 11.3676 20.26 11.438C20.3304 11.5083 20.3699 11.6037 20.3699 11.7031C20.3699 11.8026 20.3304 11.898 20.26 11.9683C20.1897 12.0386 20.0943 12.0781 19.9949 12.0781Z" fill="#C8C8C8"/>
<path d="M5.865 11.8164H3.375C3.27554 11.8164 3.18016 11.7769 3.10984 11.7066C3.03951 11.6362 3 11.5409 3 11.4414C3 11.342 3.03951 11.2466 3.10984 11.1762C3.18016 11.1059 3.27554 11.0664 3.375 11.0664H5.865C5.96446 11.0664 6.05984 11.1059 6.13017 11.1762C6.20049 11.2466 6.24 11.342 6.24 11.4414C6.24 11.5409 6.20049 11.6362 6.13017 11.7066C6.05984 11.7769 5.96446 11.8164 5.865 11.8164Z" fill="#C8C8C8"/>
<path d="M11.7191 12.7703C11.5078 12.7703 11.3011 12.7076 11.1254 12.5902C10.9496 12.4728 10.8126 12.3058 10.7317 12.1106C10.6509 11.9153 10.6297 11.7004 10.6709 11.4931C10.7122 11.2857 10.814 11.0953 10.9634 10.9458C11.1129 10.7964 11.3033 10.6946 11.5106 10.6533C11.718 10.6121 11.9328 10.6333 12.1281 10.7142C12.3234 10.7951 12.4903 10.932 12.6078 11.1078C12.7252 11.2836 12.7879 11.4902 12.7879 11.7016C12.7869 11.9847 12.674 12.256 12.4738 12.4562C12.2736 12.6564 12.0023 12.7693 11.7191 12.7703ZM11.7191 11.3828C11.6561 11.3828 11.5945 11.4015 11.5421 11.4365C11.4896 11.4716 11.4488 11.5213 11.4247 11.5796C11.4005 11.6378 11.3942 11.7019 11.4065 11.7637C11.4188 11.8256 11.4492 11.8824 11.4938 11.927C11.5383 11.9715 11.5951 12.0019 11.657 12.0142C11.7188 12.0265 11.7829 12.0202 11.8411 11.9961C11.8994 11.9719 11.9491 11.9311 11.9842 11.8787C12.0192 11.8262 12.0379 11.7646 12.0379 11.7016C12.0379 11.617 12.0043 11.536 11.9445 11.4762C11.8848 11.4164 11.8037 11.3828 11.7191 11.3828Z" fill="#C8C8C8"/>
</svg>
