<svg width="24" height="24" viewBox="0 0 24 24" fill="none" xmlns="http://www.w3.org/2000/svg">
<path d="M20.6996 14.1992C21.1967 14.1992 21.5996 14.6022 21.5996 15.0992C21.5996 15.5963 21.1967 15.9992 20.6996 15.9992H16.4996C16.0026 15.9992 15.5996 15.5963 15.5996 15.0992C15.5996 14.6022 16.0026 14.1992 16.4996 14.1992H20.6996Z" fill="#DCDCDC"/>
<path d="M14.9995 9.12956V11.0348C14.9995 11.5101 15.1397 11.9747 15.4025 12.3701L16.0213 13.3012C16.1326 13.4686 16.32 13.5691 16.5206 13.5691H20.8418C21.268 13.5691 21.4074 13.3065 21.4348 13.0215C21.442 12.9464 21.4685 12.873 21.521 12.8189C22.5897 11.716 23.6623 11.6308 23.6623 9.3988C23.6623 8.37709 23.5183 7.69172 22.9668 7.69172C22.33 7.69172 22.1995 8.17091 22.1995 9.3988V7.58193C22.1995 6.79887 20.9757 6.36795 20.3549 6.76864C19.811 6.2482 18.9184 6.30263 18.4994 6.76861C17.7537 6.46589 17.0843 6.67271 16.7795 7.18975C15.4243 6.66111 14.9995 7.81043 14.9995 9.12956Z" fill="#DCDCDC"/>
<path d="M15.8857 4.59766C16.103 4.47702 16.3764 4.55524 16.4971 4.77246L16.8936 5.48535C17.0143 5.7026 16.936 5.97696 16.7188 6.09766C16.5017 6.21814 16.2282 6.13976 16.1074 5.92285L15.7109 5.20898C15.5904 4.99176 15.6685 4.71832 15.8857 4.59766ZM21.2734 4.77246C21.3941 4.55521 21.6685 4.47696 21.8857 4.59766C22.1026 4.71837 22.1809 4.9919 22.0605 5.20898L21.6641 5.92285C21.5433 6.13998 21.269 6.21832 21.0518 6.09766C20.8346 5.97691 20.7563 5.70254 20.877 5.48535L21.2734 4.77246ZM18.8857 4C19.1341 4.00023 19.335 4.20181 19.335 4.4502V5.34961C19.335 5.598 19.1341 5.79958 18.8857 5.7998C18.6372 5.7998 18.4355 5.59814 18.4355 5.34961V4.4502C18.4355 4.20167 18.6372 4 18.8857 4Z" fill="#DCDCDC"/>
</svg>
