<svg width="24" height="24" viewBox="0 0 24 24" fill="none" xmlns="http://www.w3.org/2000/svg">
<path d="M14.2666 19C15.095 19 15.7666 19.6716 15.7666 20.5V20.5C15.7666 21.3284 15.095 22 14.2666 22L7.2666 22C6.43818 22 5.7666 21.3284 5.7666 20.5V20.5C5.7666 19.6716 6.43818 19 7.2666 19L14.2666 19Z" fill="#C8C8C8"/>
<path d="M4.76601 10.5519L4.76601 13.7273C4.76601 14.5194 4.99977 15.2938 5.43781 15.9528L6.46915 17.5045C6.65461 17.7836 6.96684 17.9512 7.3012 17.9512L14.5032 17.9512C15.2135 17.9512 15.446 17.5135 15.4915 17.0385C15.5035 16.9134 15.5478 16.791 15.6353 16.7007C17.4163 14.8626 19.2041 14.7205 19.2041 11.0006C19.2041 9.29775 18.964 8.15547 18.0449 8.15547C16.9837 8.15547 16.766 8.95412 16.766 11.0006L16.766 7.97248C16.766 6.66739 14.7265 5.94919 13.6918 6.61701C12.7853 5.74961 11.2976 5.84032 10.5992 6.61695C9.35648 6.11243 8.24076 6.45712 7.73279 7.31886C5.47413 6.43778 4.76601 8.35332 4.76601 10.5519Z" fill="#C8C8C8"/>
<path d="M6.45801 2.87598C6.69939 2.74192 7.0036 2.82894 7.1377 3.07031L8.04102 4.69531C8.17512 4.9367 8.08807 5.24187 7.84668 5.37598L7.40918 5.61816C7.16781 5.75215 6.86357 5.66517 6.72949 5.42383L5.82617 3.79883C5.69207 3.55744 5.77912 3.25227 6.02051 3.11816L6.45801 2.87598ZM15.3418 3.07031C15.4759 2.82898 15.7801 2.74202 16.0215 2.87598L16.459 3.11816C16.7004 3.25227 16.7874 3.55744 16.6533 3.79883L15.75 5.42383C15.6159 5.66521 15.3117 5.75225 15.0703 5.61816L14.6328 5.37598C14.3914 5.24186 14.3044 4.9367 14.4385 4.69531L15.3418 3.07031ZM11.4902 2C11.7662 2.00022 11.9902 2.22399 11.9902 2.5V4.5C11.9902 4.77601 11.7662 4.99978 11.4902 5H10.9902C10.7141 5 10.4902 4.77614 10.4902 4.5V2.5C10.4902 2.22386 10.7141 2 10.9902 2H11.4902Z" fill="#C8C8C8"/>
</svg>
