<svg width="24" height="24" viewBox="0 0 24 24" fill="none" xmlns="http://www.w3.org/2000/svg">
<path d="M20.7006 15.1992C21.1976 15.1992 21.6006 15.6022 21.6006 16.0992V16.0992C21.6006 16.5963 21.1976 16.9992 20.7006 16.9992L16.5006 16.9992C16.0035 16.9992 15.6006 16.5963 15.6006 16.0992V16.0992C15.6006 15.6022 16.0035 15.1992 16.5006 15.1992L20.7006 15.1992Z" fill="#C8C8C8"/>
<path d="M15.0002 10.1296L15.0002 12.0348C15.0002 12.5101 15.1405 12.9747 15.4033 13.3701L16.0221 14.3012C16.1334 14.4686 16.3207 14.5691 16.5213 14.5691L20.8426 14.5691C21.2687 14.5691 21.4082 14.3065 21.4355 14.0215C21.4427 13.9464 21.4693 13.873 21.5218 13.8189C22.5904 12.716 23.6631 12.6308 23.6631 10.3988C23.6631 9.37709 23.519 8.69172 22.9676 8.69172C22.3308 8.69172 22.2002 9.17091 22.2002 10.3988L22.2002 8.58193C22.2002 7.79887 20.9765 7.36795 20.3557 7.76864C19.8118 7.2482 18.9192 7.30263 18.5001 7.76861C17.7545 7.46589 17.0851 7.67271 16.7803 8.18975C15.4251 7.66111 15.0002 8.81043 15.0002 10.1296Z" fill="#C8C8C8"/>
<path d="M15.8857 5.59863C16.103 5.47798 16.3764 5.5562 16.4971 5.77344L16.8936 6.48633C17.0143 6.70358 16.936 6.97794 16.7188 7.09863C16.5016 7.21915 16.2271 7.1409 16.1064 6.92383L15.7109 6.20996C15.5902 5.99271 15.6685 5.71933 15.8857 5.59863ZM21.2744 5.77344C21.3951 5.55624 21.6685 5.47808 21.8857 5.59863C22.103 5.71933 22.1812 5.99271 22.0605 6.20996L21.665 6.92383C21.5443 7.14089 21.2699 7.21923 21.0527 7.09863C20.8355 6.97795 20.7573 6.70357 20.8779 6.48633L21.2744 5.77344ZM18.8857 5C19.1343 5 19.3359 5.20167 19.3359 5.4502V6.34961C19.3359 6.59814 19.1343 6.7998 18.8857 6.7998C18.6372 6.79976 18.4355 6.59811 18.4355 6.34961V5.4502C18.4355 5.20169 18.6372 5.00004 18.8857 5Z" fill="#C8C8C8"/>
</svg>
