<svg width="24" height="24" viewBox="0 0 24 24" fill="none" xmlns="http://www.w3.org/2000/svg">
<path d="M20.6996 14.1992C21.1967 14.1992 21.5996 14.6022 21.5996 15.0992V15.0992C21.5996 15.5963 21.1967 15.9992 20.6996 15.9992L16.4996 15.9992C16.0026 15.9992 15.5996 15.5963 15.5996 15.0992V15.0992C15.5996 14.6022 16.0026 14.1992 16.4996 14.1992L20.6996 14.1992Z" fill="#C8C8C8"/>
<path d="M14.9993 9.12956L14.9993 11.0348C14.9993 11.5101 15.1395 11.9747 15.4023 12.3701L16.0211 13.3012C16.1324 13.4686 16.3198 13.5691 16.5204 13.5691L20.8416 13.5691C21.2678 13.5691 21.4072 13.3065 21.4346 13.0215C21.4418 12.9464 21.4683 12.873 21.5208 12.8189C22.5895 11.716 23.6621 11.6308 23.6621 9.3988C23.6621 8.37709 23.5181 7.69172 22.9666 7.69172C22.3298 7.69172 22.1993 8.17091 22.1993 9.3988L22.1993 7.58193C22.1993 6.79887 20.9755 6.36795 20.3547 6.76864C19.8108 6.2482 18.9182 6.30263 18.4992 6.76861C17.7535 6.46589 17.0841 6.67271 16.7793 7.18975C15.4241 6.66111 14.9993 7.81043 14.9993 9.12956Z" fill="#C8C8C8"/>
<path d="M15.8857 4.59766C16.103 4.47702 16.3764 4.55524 16.4971 4.77246L16.8936 5.48535C17.0143 5.7026 16.936 5.97696 16.7188 6.09766C16.5017 6.21814 16.2282 6.13976 16.1074 5.92285L15.7109 5.20898C15.5904 4.99176 15.6685 4.71832 15.8857 4.59766ZM21.2734 4.77246C21.3941 4.55521 21.6685 4.47696 21.8857 4.59766C22.1026 4.71837 22.1809 4.9919 22.0605 5.20898L21.6641 5.92285C21.5433 6.13998 21.269 6.21832 21.0518 6.09766C20.8346 5.97691 20.7563 5.70254 20.877 5.48535L21.2734 4.77246ZM18.8857 4C19.1341 4.00023 19.335 4.20181 19.335 4.4502V5.34961C19.335 5.598 19.1341 5.79958 18.8857 5.7998C18.6372 5.7998 18.4355 5.59814 18.4355 5.34961V4.4502C18.4355 4.20167 18.6372 4 18.8857 4Z" fill="#C8C8C8"/>
</svg>
