<svg width="24" height="24" viewBox="0 0 24 24" fill="none" xmlns="http://www.w3.org/2000/svg">
<path fill-rule="evenodd" clip-rule="evenodd" d="M13.3282 4.26361C13.6693 2.37218 15.9685 1.34235 17.719 2.46567L19.7931 3.79666C20.5865 4.30579 21.063 5.16292 21.063 6.08078V17.9192C21.063 18.8371 20.5865 19.6942 19.7931 20.2033L17.719 21.5343C15.9685 22.6577 13.6693 21.6278 13.3282 19.7364C13.2852 19.4978 13.2852 18.5 13.2852 18.239V5.76098C13.2852 5.5 13.2852 4.50216 13.3282 4.26361Z" fill="#C8C8C8"/>
<path fill-rule="evenodd" clip-rule="evenodd" d="M6.53228 8.46875L3.00195 11.9991L6.53228 15.5294L7.59294 14.4688L5.87327 12.7491H11.8126V11.2491H5.87327L7.59294 9.52941L6.53228 8.46875Z" fill="#C8C8C8"/>
<path d="M13.3281 4.26367C13.2857 4.499 13.2852 5.47318 13.2852 5.75H9.0625C8.92443 5.75 8.8125 5.86193 8.8125 6V8H7.3125V6C7.3125 5.0335 8.096 4.25 9.0625 4.25H13.3311C13.3302 4.25458 13.329 4.25908 13.3281 4.26367Z" fill="#C8C8C8"/>
<path d="M8.8125 16V18C8.8125 18.1381 8.92443 18.25 9.0625 18.25H13.2852C13.2852 18.5268 13.2857 19.501 13.3281 19.7363C13.329 19.7409 13.3302 19.7454 13.3311 19.75H9.0625C8.096 19.75 7.3125 18.9665 7.3125 18V16H8.8125Z" fill="#C8C8C8"/>
</svg>
