<svg width="24" height="24" viewBox="0 0 24 24" fill="none" xmlns="http://www.w3.org/2000/svg">
<path fill-rule="evenodd" clip-rule="evenodd" d="M13.3277 4.26361C13.6688 2.37218 15.968 1.34235 17.7185 2.46567L19.7926 3.79666C20.586 4.30579 21.0625 5.16292 21.0625 6.08078V17.9192C21.0625 18.8371 20.586 19.6942 19.7926 20.2033L17.7185 21.5343C15.968 22.6577 13.6688 21.6278 13.3277 19.7364C13.2847 19.4978 13.2847 18.5 13.2847 18.239V5.76098C13.2847 5.5 13.2847 4.50216 13.3277 4.26361Z" fill="#C5BDB3"/>
<path fill-rule="evenodd" clip-rule="evenodd" d="M6.53217 8.46875L3.00184 11.9991L6.53217 15.5294L7.59283 14.4688L5.87316 12.7491H11.8125V11.2491H5.87316L7.59283 9.52941L6.53217 8.46875Z" fill="#C5BDB3"/>
<path d="M13.3281 4.26367C13.2857 4.499 13.2852 5.47318 13.2852 5.75H9.0625C8.92443 5.75 8.8125 5.86193 8.8125 6V8H7.3125V6C7.3125 5.0335 8.096 4.25 9.0625 4.25H13.3311C13.3302 4.25458 13.329 4.25908 13.3281 4.26367Z" fill="#C5BDB3"/>
<path d="M8.8125 16V18C8.8125 18.1381 8.92443 18.25 9.0625 18.25H13.2852C13.2852 18.5268 13.2857 19.501 13.3281 19.7363C13.329 19.7409 13.3302 19.7454 13.3311 19.75H9.0625C8.096 19.75 7.3125 18.9665 7.3125 18V16H8.8125Z" fill="#C5BDB3"/>
</svg>
