<svg width="24" height="24" viewBox="0 0 24 24" fill="none" xmlns="http://www.w3.org/2000/svg">
<path fill-rule="evenodd" clip-rule="evenodd" d="M12.043 4.26361C12.3841 2.37218 14.6833 1.34235 16.4338 2.46567L18.5079 3.79666C19.3013 4.30579 19.7778 5.16292 19.7778 6.08078V17.9192C19.7778 18.8371 19.3013 19.6942 18.5079 20.2033L16.4338 21.5343C14.6833 22.6577 12.3841 21.6278 12.043 19.7364C12 19.4978 12 18.5 12 18.239V5.76098C12 5.5 12 4.50216 12.043 4.26361Z" fill="#C8C8C8"/>
<path fill-rule="evenodd" clip-rule="evenodd" d="M5.53033 8.46875L2 11.9991L5.53033 15.5294L6.59099 14.4688L4.87132 12.7491H10.8106V11.2491H4.87132L6.59099 9.52941L5.53033 8.46875Z" fill="#C8C8C8"/>
<path d="M13.3281 4.26367C13.2857 4.499 13.2852 5.47318 13.2852 5.75H9.0625C8.92443 5.75 8.8125 5.86193 8.8125 6V8H7.3125V6C7.3125 5.0335 8.096 4.25 9.0625 4.25H13.3311C13.3302 4.25458 13.329 4.25908 13.3281 4.26367Z" fill="#C8C8C8"/>
<path d="M8.8125 16V18C8.8125 18.1381 8.92443 18.25 9.0625 18.25H13.2852C13.2852 18.5268 13.2857 19.501 13.3281 19.7363C13.329 19.7409 13.3302 19.7454 13.3311 19.75H9.0625C8.096 19.75 7.3125 18.9665 7.3125 18V16H8.8125Z" fill="#C8C8C8"/>
</svg>
