<svg width="24" height="24" viewBox="0 0 24 24" fill="none" xmlns="http://www.w3.org/2000/svg">
<path d="M6.22168 8.83594C7.2342 8.83594 8.05549 9.65639 8.05566 10.6689L8.05566 17.7803C8.05566 18.793 7.2343 19.6133 6.22168 19.6133H4.44336C3.43073 19.6133 2.60937 18.793 2.60937 17.7803L2.60938 10.6689C2.60955 9.65639 3.43084 8.83594 4.44336 8.83594H6.22168Z" fill="#32FF64" stroke="black"/>
<path d="M13.1709 3.5C12.8747 3.5 12.5982 3.63867 12.4209 3.87012L12.3516 3.97461L9.0293 9.76855C8.90896 9.97842 8.84575 10.2161 8.8457 10.458V17.7461C8.8457 18.2112 9.07869 18.6451 9.46582 18.9023L10.8457 19.8193C11.5139 20.2632 12.2989 20.5 13.1016 20.5H15.9248C16.8024 20.5 17.7024 20.307 18.3604 19.8193C18.977 19.3623 19.338 18.6758 19.2939 17.792C19.751 17.4951 20.0807 17.1389 20.2656 16.7012C20.4451 16.2763 20.4674 15.826 20.4014 15.3691C21.2868 14.5876 21.439 13.4234 20.9951 12.4697C21.529 11.5735 21.4849 10.6913 21.0811 10.0068C20.6613 9.29554 19.8696 8.83301 19.1016 8.83301H15.5693L16.2939 7.59473C17.3577 5.77737 16.0407 3.5 13.9365 3.5L13.1709 3.5Z" fill="#32FF64" stroke="black" stroke-linecap="round" stroke-linejoin="round"/>
</svg>
