<svg width="24" height="24" viewBox="0 0 24 24" fill="none" xmlns="http://www.w3.org/2000/svg">
<path d="M3.10938 10.6693C3.10938 9.93289 3.70656 9.33594 4.44323 9.33594H6.2217C6.95837 9.33594 7.55556 9.93289 7.55556 10.6693L7.55556 17.7804C7.55556 18.5168 6.95837 19.1137 6.2217 19.1137H4.44323C3.70656 19.1137 3.10937 18.5168 3.10937 17.7804L3.10938 10.6693Z" fill="#0A0A0A"/>
<path d="M15.9251 20H13.1014C12.3971 20 11.7085 19.7922 11.1224 19.4028L9.74256 18.4861C9.49442 18.3212 9.34538 18.0437 9.34538 17.7465V10.4583C9.34538 10.3036 9.38589 10.1516 9.4629 10.0173L12.785 4.22343C12.8643 4.08524 13.0114 4 13.1708 4H13.9365C15.6575 4 16.7298 5.86047 15.8626 7.34193L14.697 9.33333H19.1018C20.2623 9.33333 21.6317 10.7705 20.4162 12.4443C20.9652 13.319 20.8365 14.4869 19.8558 15.1645C20.084 16.1793 19.8558 16.9414 18.7643 17.5269C19.0423 19.2717 17.5622 20 15.9251 20Z" fill="#0A0A0A"/>
</svg>
