<svg width="24" height="24" viewBox="0 0 24 24" fill="none" xmlns="http://www.w3.org/2000/svg">
<path d="M3.10939 10.6693C3.10939 9.93289 3.70657 9.33594 4.44324 9.33594H6.22171C6.95838 9.33594 7.55556 9.93289 7.55556 10.6693V17.7804C7.55556 18.5168 6.95838 19.1137 6.22171 19.1137H4.44324C3.70657 19.1137 3.10938 18.5168 3.10938 17.7804L3.10939 10.6693Z" fill="#0A0A0A"/>
<path d="M15.9249 20H13.1012C12.3969 20 11.7083 19.7922 11.1222 19.4028L9.7424 18.4861C9.49426 18.3212 9.34521 18.0437 9.34521 17.7465V10.4583C9.34521 10.3036 9.38573 10.1516 9.46274 10.0173L12.7848 4.22343C12.8641 4.08524 13.0112 4 13.1706 4H13.9363C15.6573 4 16.7296 5.86047 15.8624 7.34193L14.6968 9.33333H19.1016C20.2621 9.33333 21.6315 10.7705 20.416 12.4443C20.965 13.319 20.8363 14.4869 19.8556 15.1645C20.0838 16.1793 19.8556 16.9414 18.7641 17.5269C19.0421 19.2717 17.562 20 15.9249 20Z" fill="#0A0A0A"/>
</svg>
