<svg width="24" height="24" viewBox="0 0 24 24" fill="none" xmlns="http://www.w3.org/2000/svg">
<path d="M12 2C14.7614 2 17 4.23858 17 7V10H19.5C19.7761 10 20 10.2239 20 10.5V21.5C20 21.7761 19.7761 22 19.5 22H4.5C4.22386 22 4 21.7761 4 21.5V10.5C4 10.2239 4.22386 10 4.5 10H15.5V7C15.5 5.067 13.933 3.5 12 3.5C10.4145 3.5 9.43032 3.55434 9 5H7.5C7.96331 2.71781 9.58108 2 12 2ZM12 13C10.8954 13 10 13.8954 10 15C10 15.7398 10.4029 16.3835 11 16.7295V19H13V16.7295C13.5971 16.3835 14 15.7398 14 15C14 13.8954 13.1046 13 12 13Z" fill="#32FF64"/>
</svg>
