<svg width="100" height="100" viewBox="0 0 100 100" fill="none" xmlns="http://www.w3.org/2000/svg">
<path d="M78.2712 0.491748C80.3669 -0.832475 83.0999 0.673374 83.0999 3.15225V96.848C83.0999 99.2805 80.4579 100.793 78.3597 99.5624L63.2458 90.6944C61.3305 89.5886 60.0191 88.145 56.3443 90.2664L41.1068 98.9203C39.8123 99.6554 38.2251 99.6498 36.9359 98.9055L17.949 87.9444C17.2998 87.5695 16.8999 86.8769 16.8999 86.1274V37.6361C16.8999 36.8865 17.2998 36.1939 17.949 35.8191L36.9359 24.858C38.2251 24.1137 39.8123 24.1081 41.1068 24.8432L56.3443 33.497C58.4596 34.6984 58.4704 37.7427 56.3636 38.959L22.5295 58.4912C21.3181 59.1906 20.5719 60.483 20.5719 61.8817C20.5719 63.2804 21.3181 64.5729 22.5295 65.2722L54.6685 83.8259C58.4979 85.9156 61.1731 83.8259 61.1731 80.3558V13.6079C61.1731 12.1685 61.9109 10.8295 63.1278 10.0606L78.2712 0.491748Z" fill="#DCDCDC"/>
</svg>
