<svg width="1000" height="1000" viewBox="0 0 1000 1000" fill="none" xmlns="http://www.w3.org/2000/svg">
<path d="M782.713 4.91748C803.67 -8.32476 831 6.73374 831 31.5225V968.481C831 992.806 804.58 1007.93 783.598 995.625L632.459 906.945C613.306 895.887 600.192 881.451 563.444 902.665L411.069 989.204C398.124 996.555 382.252 996.499 369.36 989.056L179.491 879.445C172.999 875.696 169 868.77 169 861.275V376.361C169 368.865 172.999 361.939 179.491 358.191L369.36 248.58C382.252 241.137 398.124 241.081 411.069 248.432L563.444 334.97C584.597 346.984 584.705 377.427 563.637 389.59L225.296 584.912C213.182 591.906 205.72 604.83 205.72 618.817C205.72 632.804 213.182 645.729 225.296 652.722L546.686 838.26C584.98 859.157 611.732 838.26 611.732 803.559V136.079C611.732 121.685 619.11 108.295 631.279 100.606L782.713 4.91748Z" fill="#C8C8C8"/>
</svg>
