<svg width="944" height="233" viewBox="0 0 944 233" fill="none" xmlns="http://www.w3.org/2000/svg">
<path fill-rule="evenodd" clip-rule="evenodd" d="M152.75 0H143.35L105.75 25.85V190.35L98.7 197.4H91.65L9.4 145.7V141L96.35 89.3V79.9L56.4 56.4L0 86.95V202.1L49.35 232.65H56.4L96.35 209.15H105.75L143.35 232.65H155.1L157.45 227.95V4.7L152.75 0Z" fill="#DCDCDC"/>
<path fill-rule="evenodd" clip-rule="evenodd" d="M812 233L859 205V108H882L944 71V68H941H939.5H937H761V108H812V233ZM744 68H730L717 75L689 89V221L720 222L745 205L744 68ZM522 86V206L552 222H631L675 197V185H567V163H607L653 129H566V108L627 107L684 70V68H554.805L550 71L522 86ZM351 86L352 202L391 222H463L509 196V185H398L397 108L459 107L517 68H382.5L376 72L351 86ZM181 87V206L213 222H295L337 198V185H225V173V163H269L315 129H225V119V107H288L345 70V68H214.604L208 72L181 87Z" fill="#DCDCDC"/>
</svg>
