<svg width="24" height="24" viewBox="0 0 24 24" fill="none" xmlns="http://www.w3.org/2000/svg">
<path d="M4.08594 2.91178C3.83706 3.13998 3.63001 3.41118 3.47591 3.71354C3.27294 4.11189 3.16702 4.55293 3.16699 5C3.16699 5.4471 3.27296 5.8881 3.47591 6.28647C3.62999 6.5888 3.83709 6.86003 4.08594 7.0882L3.74805 7.4567C3.4552 7.18827 3.21156 6.86913 3.03027 6.51333C2.7915 6.04467 2.66699 5.526 2.66699 5C2.66702 4.47403 2.79148 3.95531 3.03027 3.48665C3.21162 3.13079 3.45509 2.81145 3.74805 2.54297L4.08594 2.91178Z" fill="#FF3232"/>
<path d="M4.9248 3.82812C4.83775 3.9326 4.76205 4.04661 4.69987 4.16862C4.56855 4.42637 4.50002 4.7117 4.5 5.00097C4.5 5.29023 4.56856 5.57557 4.69987 5.83333C4.76199 5.95523 4.83785 6.0691 4.9248 6.1735L4.58464 6.54493C4.45514 6.39827 4.34365 6.2357 4.25423 6.06023C4.08713 5.7322 4 5.36913 4 5.00097C4.00002 4.63283 4.08711 4.26975 4.25423 3.94173C4.34367 3.76622 4.4551 3.60369 4.58464 3.45703L4.9248 3.82812Z" fill="#FF3232"/>
<path d="M7.41503 3.45703C7.54463 3.60373 7.6563 3.76615 7.74576 3.94173C7.9129 4.26975 7.99996 4.63283 8 5.00097C8 5.36913 7.91286 5.73217 7.74576 6.06023C7.6563 6.2358 7.5446 6.39823 7.41503 6.54493L7.0752 6.17383C7.16223 6.06937 7.23796 5.95533 7.30013 5.83333C7.43143 5.57557 7.5 5.29027 7.5 5.00097C7.49996 4.7117 7.43146 4.42637 7.30013 4.16862C7.23793 4.04661 7.16226 3.9326 7.0752 3.82812L7.41503 3.45703Z" fill="#FF3232"/>
<path d="M8.25163 2.54297C8.54466 2.81149 8.78833 3.13071 8.96973 3.48665C9.2085 3.95531 9.33296 4.47403 9.333 5C9.333 5.526 9.20853 6.04467 8.96973 6.51333C8.7884 6.86923 8.5449 7.18853 8.25193 7.45703L7.91406 7.0882C8.16293 6.86 8.37 6.58883 8.5241 6.28647C8.72706 5.88807 8.833 5.4471 8.833 5C8.83296 4.55293 8.72706 4.11189 8.5241 3.71354C8.36993 3.41111 8.16303 3.13968 7.91406 2.91146L8.25163 2.54297Z" fill="#FF3232"/>
<path d="M6 6C6.55227 6 7 5.55227 7 5C7 4.44773 6.55227 4 6 4C5.44773 4 5 4.44773 5 5C5 5.55227 5.44773 6 6 6Z" fill="#FF3232"/>
<path d="M6.0012 10.2424V5.99977" stroke="#FF3232" stroke-width="0.5" stroke-linecap="square"/>
<rect x="3" y="16.5" width="3.75" height="4.5" rx="0.5" fill="#C8C8C8"/>
<rect x="7.75" y="12" width="3.75" height="9" rx="0.5" fill="#C8C8C8" fill-opacity="0.5"/>
<rect x="12.5" y="7.5" width="3.75" height="13.5" rx="0.5" fill="#C8C8C8" fill-opacity="0.5"/>
<rect x="17.25" y="3" width="3.75" height="18" rx="0.5" fill="#C8C8C8" fill-opacity="0.5"/>
</svg>
