<svg width="24" height="24" viewBox="0 0 24 24" fill="none" xmlns="http://www.w3.org/2000/svg">
<path d="M2.5 20C2.22386 20 2 19.7761 2 19.5V4.5C2 4.22386 2.22386 4 2.5 4H21.5C21.7761 4 22 4.22386 22 4.5V19.5C22 19.7761 21.7761 20 21.5 20H2.5ZM11.735 12.8344C11.8971 12.9357 12.1029 12.9357 12.265 12.8344L19.765 8.14688C19.9112 8.05551 20 7.89527 20 7.72288V6.90212C20 6.50941 19.568 6.26998 19.235 6.47812L12.265 10.8344C12.1029 10.9357 11.8971 10.9357 11.735 10.8344L4.765 6.47812C4.43197 6.26998 4 6.50941 4 6.90212V7.72288C4 7.89527 4.08881 8.05551 4.235 8.14688L11.735 12.8344Z" fill="#DCDCDC"/>
</svg>
