<svg width="24" height="25" viewBox="0 0 24 25" fill="none" xmlns="http://www.w3.org/2000/svg">
<path d="M20.6464 3.14645C20.8417 2.95118 21.1582 2.95118 21.3535 3.14645C21.5487 3.34171 21.5487 3.65822 21.3535 3.85348L3.35348 21.8535C3.15822 22.0487 2.84171 22.0487 2.64645 21.8535C2.45118 21.6582 2.45118 21.3417 2.64645 21.1464L20.6464 3.14645ZM18.499 11.5C18.7751 11.5 19.0011 11.7245 18.9814 12C18.9278 12.7481 18.7536 13.4837 18.4658 14.1787C18.114 15.0279 17.5982 15.8002 16.9482 16.4502C16.2984 17.0998 15.5266 17.6151 14.6777 17.9668C14.0605 18.2224 13.4107 18.3886 12.749 18.4599V21.5H11.249V18.4599C10.5874 18.3886 9.93744 18.2224 9.32027 17.9668C9.16436 17.9022 9.01173 17.8303 8.86129 17.7548L9.99703 16.6191C10.6348 16.8684 11.3136 16.998 11.999 16.998C12.7209 16.998 13.4365 16.8563 14.1035 16.58C14.7704 16.3038 15.3762 15.8981 15.8867 15.3877C16.3972 14.8772 16.8027 14.2714 17.0791 13.6045C17.2915 13.0916 17.4243 12.5499 17.4746 11.999C17.4998 11.7244 17.7213 11.5004 17.997 11.5H18.499ZM6.00094 11.5C6.27677 11.5002 6.4982 11.7243 6.5234 11.999C6.57363 12.5498 6.70653 13.0917 6.91891 13.6045C7.09307 14.0249 7.31903 14.4209 7.58981 14.7841L6.51949 15.8545C6.11526 15.3453 5.78198 14.7817 5.53219 14.1787C5.24438 13.4838 5.07013 12.748 5.01656 12C4.99689 11.7247 5.22305 11.5002 5.49899 11.5H6.00094ZM16 11.5C16 13.7091 14.2091 15.5 12 15.5C11.7251 15.4999 11.4565 15.4718 11.1972 15.4189L16 10.6171V11.5ZM12 3.49996C13.8638 3.49996 15.4299 4.77478 15.874 6.49996L8.665 13.7089C8.24497 13.076 7.99996 12.3165 7.99996 11.5V7.49996C7.99996 5.29097 9.79103 3.5002 12 3.49996Z" fill="#FF3232"/>
</svg>
