<svg width="24" height="24" viewBox="0 0 24 24" fill="none" xmlns="http://www.w3.org/2000/svg">
<path d="M6.0012 11C6.27705 11.0002 6.49847 11.2243 6.52366 11.499C6.57389 12.0499 6.70675 12.5917 6.91917 13.1045C7.19549 13.7715 7.60103 14.3772 8.11155 14.8877C8.62208 15.3982 9.22773 15.8038 9.89475 16.0801C10.5619 16.3564 11.2772 16.498 11.9992 16.498C12.7213 16.498 13.4367 16.3564 14.1037 16.0801C14.7707 15.8038 15.3764 15.3982 15.8869 14.8877C16.3975 14.3772 16.803 13.7715 17.0793 13.1045C17.2917 12.5917 17.4246 12.0499 17.4748 11.499C17.5 11.2243 17.7214 11.0002 17.9973 11H18.4992C18.7754 11 19.0014 11.2246 18.9817 11.5C18.9281 12.2481 18.7539 12.9838 18.466 13.6787C18.1143 14.528 17.5985 15.3002 16.9485 15.9502C16.2986 16.6 15.527 17.1151 14.678 17.4668C14.0606 17.7225 13.4111 17.8886 12.7492 17.96V21H11.2492V17.96C10.5875 17.8886 9.93784 17.7225 9.32053 17.4668C8.47128 17.115 7.69905 16.6002 7.04905 15.9502C6.39906 15.3002 5.88423 14.528 5.53245 13.6787C5.2446 12.9838 5.07039 12.2481 5.01682 11.5C4.99712 11.2246 5.2231 11 5.49925 11H6.0012ZM12.0002 3C14.2094 3 16.0002 4.79086 16.0002 7V11C16.0002 13.2091 14.2094 15 12.0002 15C9.79108 15 8.00022 13.2091 8.00022 11V7C8.00022 4.79086 9.79108 3 12.0002 3Z" fill="#C8C8C8"/>
</svg>
