<svg width="24" height="24" viewBox="0 0 24 24" fill="none" xmlns="http://www.w3.org/2000/svg">
<path d="M18.4992 11C18.7754 11 19.0014 11.2246 18.9817 11.5C18.9281 12.2481 18.7539 12.9838 18.466 13.6787C18.1143 14.5279 17.5984 15.3002 16.9485 15.9502C16.2986 16.5999 15.5269 17.1151 14.678 17.4668C14.0607 17.7224 13.4109 17.8887 12.7492 17.96V21H11.2492V17.96C10.5876 17.8886 9.9377 17.7224 9.32053 17.4668C9.16462 17.4022 9.01198 17.3303 8.86155 17.2549L9.99729 16.1191C10.635 16.3685 11.3139 16.498 11.9992 16.498C12.7212 16.498 13.4368 16.3563 14.1037 16.0801C14.7706 15.8038 15.3765 15.3981 15.8869 14.8877C16.3974 14.3772 16.803 13.7714 17.0793 13.1045C17.2917 12.5917 17.4246 12.0499 17.4748 11.499C17.5 11.2244 17.7216 11.0004 17.9973 11H18.4992ZM6.00119 11C6.27703 11.0002 6.49845 11.2243 6.52366 11.499C6.57388 12.0499 6.70678 12.5917 6.91916 13.1045C7.09333 13.5249 7.31929 13.921 7.59006 14.2842L6.51975 15.3545C6.11551 14.8453 5.78224 14.2817 5.53244 13.6787C5.24463 12.9838 5.07039 12.2481 5.01682 11.5C4.99714 11.2247 5.22331 11.0002 5.49924 11H6.00119ZM16.0002 11C16.0002 13.2091 14.2094 15 12.0002 15C11.7253 15 11.4568 14.9718 11.1975 14.9189L16.0002 10.1172V11ZM12.0002 3C13.864 3 15.4302 4.27482 15.8742 6L8.66526 13.209C8.24522 12.576 8.00022 11.8166 8.00022 11V7C8.00022 4.79101 9.79128 3.00024 12.0002 3Z" fill="#C5BDB3"/>
<path d="M3 21L21 3" stroke="#C5BDB3" stroke-linecap="square"/>
</svg>
