<svg width="24" height="24" viewBox="0 0 24 24" fill="none" xmlns="http://www.w3.org/2000/svg">
<path d="M6.34621 6.00785C6.40763 6.00755 6.46905 6.00721 6.53047 6.00684C6.65796 6.00626 6.78544 6.00628 6.91293 6.00669C7.07563 6.00715 7.23825 6.00581 7.40094 6.00401C7.52728 6.00286 7.6536 6.00279 7.77994 6.00303C7.83993 6.00299 7.89991 6.00259 7.95989 6.0018C8.52237 5.99529 8.52237 5.99529 8.75149 6.20675C8.77003 6.22614 8.78857 6.24553 8.80768 6.26551C8.84093 6.29434 8.87419 6.32317 8.90845 6.35287C8.93718 6.37958 8.96591 6.4063 8.99551 6.43383C9.16691 6.59044 9.3437 6.73856 9.52424 6.8845C9.6273 6.96804 9.6273 6.96804 9.72508 7.06899C9.89063 7.20585 10.0668 7.1926 10.2735 7.19278C10.335 7.19395 10.335 7.19395 10.3978 7.19515C10.5333 7.1974 10.6688 7.19816 10.8043 7.19872C10.8989 7.19954 10.9935 7.20039 11.0881 7.20125C11.2866 7.20277 11.485 7.20344 11.6834 7.20364C11.9366 7.20406 12.1896 7.20753 12.4427 7.21177C12.6382 7.21454 12.8338 7.21517 13.0293 7.21523C13.1226 7.2156 13.2158 7.21674 13.309 7.21868C13.9444 7.23775 13.9444 7.23775 14.4793 6.93456C14.5568 6.85711 14.6286 6.77718 14.7012 6.69484C14.7547 6.64674 14.8089 6.59929 14.8644 6.55351C14.9284 6.49818 14.9923 6.44284 15.056 6.38725C15.0974 6.35157 15.1392 6.31641 15.1815 6.28193C15.2411 6.23191 15.2975 6.17807 15.3533 6.12387C15.5807 5.9643 15.8755 6.00423 16.1416 6.00679C16.2028 6.00675 16.264 6.00666 16.3252 6.0065C16.4535 6.00639 16.5816 6.00696 16.7099 6.00803C16.8725 6.00936 17.0351 6.00913 17.1978 6.0084C17.3243 6.00798 17.4508 6.00834 17.5774 6.00892C17.6372 6.00912 17.6971 6.00911 17.757 6.00886C18.5338 6.00686 19.2152 6.2206 19.8141 6.73387C19.8371 6.75127 19.86 6.76868 19.8837 6.78662C20.6311 7.36887 20.8265 8.30708 20.9895 9.18409C21.0006 9.24322 21.0118 9.30235 21.023 9.36148C21.0592 9.55338 21.095 9.74536 21.1307 9.93735C21.1432 10.0042 21.1556 10.0711 21.1681 10.1379C21.2267 10.4523 21.2851 10.7668 21.3433 11.0814C21.4098 11.441 21.477 11.8005 21.5449 12.1599C21.5978 12.44 21.65 12.7202 21.7016 13.0006C21.7322 13.1669 21.7631 13.3332 21.7949 13.4994C22.0443 14.8079 22.1985 16.0686 21.4481 17.2464C20.9115 17.9917 20.118 18.5708 19.2003 18.7378C18.1608 18.8638 17.1984 18.6998 16.3599 18.0525C16.3006 18.0013 16.242 17.9493 16.1843 17.8964C16.1567 17.8719 16.1291 17.8474 16.1006 17.8221C15.8552 17.5918 15.66 17.325 15.4587 17.0568C15.3114 16.8611 15.1569 16.6716 15.0003 16.4832C14.981 16.4598 14.9618 16.4364 14.9419 16.4123C14.923 16.3898 14.9042 16.3673 14.8848 16.3441C14.8183 16.2571 14.8183 16.2571 14.755 16.15C14.6178 15.9232 14.6178 15.9232 14.399 15.7873C14.2704 15.7714 14.1477 15.7689 14.0182 15.771C13.97 15.7701 13.9219 15.7692 13.8723 15.7683C13.7409 15.7665 13.6098 15.7665 13.4784 15.7676C13.3684 15.7682 13.2585 15.7675 13.1485 15.7668C12.8888 15.7651 12.6292 15.7656 12.3695 15.7675C12.1024 15.7695 11.8355 15.768 11.5684 15.7649C11.3383 15.7623 11.1083 15.7616 10.8783 15.7626C10.7412 15.7632 10.6042 15.763 10.4671 15.761C9.87687 15.722 9.87687 15.722 9.35845 15.9398C9.25453 16.0597 9.18679 16.1915 9.11991 16.3352C9.05912 16.4187 9.05912 16.4187 9.00298 16.485C8.97153 16.5249 8.94009 16.5648 8.90769 16.6059C8.89014 16.6282 8.87259 16.6504 8.8545 16.6734C8.76266 16.7898 8.67113 16.9065 8.58036 17.0238C7.8983 17.9036 7.16807 18.5547 6.03657 18.755C5.86377 18.7709 5.69287 18.7737 5.51942 18.7721C5.47344 18.7717 5.42746 18.7714 5.38009 18.771C4.38247 18.7513 3.55253 18.3412 2.85946 17.6232C2.16106 16.8166 1.94853 15.8628 2.01009 14.8161C2.04881 14.3265 2.15591 13.8406 2.2478 13.3589C2.28078 13.185 2.31271 13.0109 2.34478 12.8368C2.39862 12.5455 2.45316 12.2543 2.50819 11.9631C2.57156 11.6278 2.63404 11.2924 2.69601 10.9568C2.7625 10.5967 2.82951 10.2367 2.89675 9.87678C2.9159 9.77407 2.93498 9.67134 2.95405 9.56861C2.98409 9.40692 3.01449 9.2453 3.04515 9.08372C3.05628 9.02484 3.06729 8.96594 3.07819 8.90701C3.20413 8.22674 3.39895 7.6202 3.8509 7.08513C3.86836 7.06204 3.88582 7.03895 3.90381 7.01516C4.49125 6.26233 5.43835 6.00594 6.34621 6.00785ZM15.4744 10.0124C15.0431 10.5247 14.8924 11.1106 14.9353 11.7687C15.0203 12.3557 15.3195 12.8776 15.7842 13.2421C16.337 13.6375 16.9242 13.7628 17.5941 13.663C18.1565 13.5251 18.637 13.1993 18.9725 12.7274C19.309 12.1715 19.4329 11.5861 19.2847 10.9515C19.1269 10.3332 18.7443 9.86998 18.2045 9.54349C17.2788 9.02453 16.1943 9.27711 15.4744 10.0124ZM6.66104 9.6611C6.54971 9.81332 6.52986 9.91864 6.53252 10.1058C6.5329 10.1527 6.53327 10.1997 6.53366 10.248C6.53464 10.2966 6.53562 10.3452 6.53663 10.3953C6.53716 10.4447 6.53769 10.4941 6.53824 10.545C6.53961 10.6667 6.54154 10.7884 6.54395 10.91C6.51603 10.9092 6.48811 10.9084 6.45934 10.9076C6.33143 10.9043 6.20353 10.9023 6.0756 10.9003C6.03167 10.899 5.98775 10.8977 5.9425 10.8963C5.66765 10.8931 5.48787 10.9145 5.25597 11.0662C5.14309 11.1986 5.091 11.3237 5.08034 11.4979C5.10797 11.7156 5.18816 11.8217 5.34501 11.9699C5.54531 12.0995 5.80338 12.0578 6.03169 12.0517C6.08089 12.051 6.1301 12.0503 6.18079 12.0495C6.30188 12.0477 6.4229 12.0451 6.54395 12.0419C6.54313 12.0726 6.54232 12.1033 6.54147 12.1349C6.53822 12.2747 6.5362 12.4144 6.53419 12.5542C6.53289 12.6025 6.53158 12.6508 6.53023 12.7005C6.52677 13.0224 6.54784 13.1664 6.76593 13.4006C6.9083 13.4737 7.04826 13.4902 7.20746 13.486C7.41325 13.4187 7.51578 13.3076 7.63678 13.1347C7.67388 12.9965 7.68042 12.8669 7.67963 12.7242C7.6795 12.6843 7.67937 12.6444 7.67924 12.6033C7.67892 12.5622 7.67859 12.521 7.67825 12.4786C7.67808 12.4366 7.6779 12.3947 7.67772 12.3515C7.67726 12.2483 7.67662 12.1451 7.67581 12.0419C7.70533 12.0427 7.73484 12.0435 7.76525 12.0444C7.89968 12.0476 8.03411 12.0497 8.16856 12.0517C8.215 12.053 8.26144 12.0543 8.30929 12.0556C8.64915 12.0612 8.64915 12.0612 8.92477 11.8858C9.05393 11.7362 9.10783 11.6193 9.09552 11.4182C9.06475 11.2525 8.99993 11.1234 8.86409 11.02C8.62151 10.8862 8.39654 10.8918 8.12466 10.9003C8.08139 10.901 8.03812 10.9017 7.99354 10.9024C7.8876 10.9043 7.78172 10.9068 7.67581 10.91C7.67643 10.8843 7.67704 10.8585 7.67767 10.832C7.68012 10.7141 7.68163 10.5962 7.68313 10.4783C7.68411 10.4378 7.68509 10.3972 7.68611 10.3555C7.68897 10.0547 7.66482 9.85818 7.45871 9.62694C7.30361 9.49173 7.195 9.49168 6.99447 9.494C6.8487 9.51012 6.76879 9.56386 6.66104 9.6611Z" fill="#D9D9D9"/>
<path d="M17.8625 10.6768C18.1063 10.9004 18.2126 11.1693 18.2284 11.4989C18.1981 11.8173 18.0931 12.0885 17.8625 12.3161C17.5288 12.546 17.1964 12.6063 16.795 12.5337C16.5215 12.4449 16.2971 12.249 16.1671 11.9941C16.0318 11.6907 16.0149 11.3704 16.1281 11.0549C16.2681 10.7489 16.4983 10.5626 16.8087 10.4427C17.186 10.3322 17.5606 10.4354 17.8625 10.6768Z" fill="#D9D9D9"/>
</svg>
