<svg width="24" height="24" viewBox="0 0 24 24" fill="none" xmlns="http://www.w3.org/2000/svg">
<path d="M17.9302 7.06822C18.2118 7.22346 18.4619 7.44815 18.5899 7.74737C18.6036 7.8235 18.6166 7.89979 18.6288 7.97619C18.6953 8.27583 18.9074 8.39225 19.1448 8.55512C20.351 9.42313 21.0833 10.9036 21.3236 12.3408C21.348 12.4988 21.3599 12.6508 21.3552 12.8106C21.3953 12.8138 21.4355 12.817 21.4769 12.8203C21.6763 12.859 21.8062 12.928 21.9255 13.0949C22.0555 13.3537 21.9929 13.6518 21.9078 13.9172C21.8755 14.0075 21.8423 14.0975 21.8084 14.1872C21.7903 14.2369 21.7722 14.2866 21.7542 14.3364C21.7059 14.4692 21.6567 14.6017 21.6073 14.7342C21.5558 14.8725 21.5052 15.0111 21.4545 15.1497C21.382 15.3478 21.3091 15.5459 21.2359 15.7438C21.1105 16.0832 20.9873 16.4233 20.8651 16.7638C20.8154 16.9019 20.7657 17.0399 20.7159 17.1779C20.6847 17.2647 20.6535 17.3517 20.6224 17.4386C20.5793 17.5591 20.5356 17.6794 20.4919 17.7996C20.4796 17.8344 20.4672 17.8692 20.4545 17.905C20.3591 18.1654 20.245 18.4705 19.992 18.6139C19.8469 18.6622 19.7126 18.6579 19.5615 18.6572C19.5296 18.6572 19.4977 18.6572 19.4648 18.6572C19.3592 18.6572 19.2536 18.6569 19.1481 18.6566C19.0749 18.6565 19.0017 18.6565 18.9285 18.6564C18.7358 18.6563 18.5432 18.6559 18.3505 18.6555C18.1539 18.6551 17.9573 18.6549 17.7608 18.6547C17.375 18.6543 16.9893 18.6536 16.6035 18.6528C16.6008 18.6746 16.598 18.6963 16.5952 18.7187C16.5218 19.296 16.443 19.8724 16.3554 20.4477C16.3421 20.5358 16.3292 20.6239 16.3165 20.712C16.2977 20.842 16.278 20.9717 16.2581 21.1015C16.25 21.1601 16.25 21.1601 16.2417 21.2198C16.1967 21.5033 16.114 21.7385 15.8853 21.9234C15.6998 21.9978 15.5142 21.9873 15.3182 21.9634C15.1438 21.8793 15.0385 21.7714 14.9287 21.6129C14.8341 21.3288 14.9086 21.0193 14.9542 20.7307C14.9646 20.6629 14.9646 20.6629 14.9752 20.5938C14.9976 20.4482 15.0204 20.3027 15.0432 20.1572C15.0571 20.067 15.071 19.9768 15.0849 19.8867C15.1365 19.5532 15.1884 19.2199 15.2403 18.8865C15.356 18.141 15.4717 17.3956 15.5909 16.6275C13.2259 16.6275 10.861 16.6275 8.42443 16.6275C8.65493 18.115 8.65493 18.115 8.88587 19.6023C8.93037 19.8904 8.93037 19.8904 8.95117 20.0253C8.9657 20.1193 8.98031 20.2133 8.99499 20.3073C9.01723 20.4499 9.03921 20.5925 9.06114 20.7352C9.06771 20.7769 9.07427 20.8186 9.08104 20.8616C9.16926 21.4406 9.16926 21.4406 9.00865 21.7297C8.84351 21.9006 8.71144 21.9703 8.47555 21.978C8.28156 21.9761 8.1644 21.953 8.01167 21.8341C7.86802 21.662 7.82074 21.4738 7.78762 21.2564C7.78132 21.2162 7.78132 21.2162 7.7749 21.1752C7.76125 21.0873 7.74816 20.9993 7.73508 20.9113C7.72567 20.8499 7.71624 20.7886 7.70677 20.7272C7.68706 20.5989 7.6676 20.4706 7.64835 20.3423C7.62367 20.1777 7.59857 20.0133 7.57331 19.8488C7.5492 19.6918 7.52528 19.5348 7.50139 19.3778C7.49683 19.3478 7.49226 19.3178 7.48755 19.287C7.47469 19.2024 7.46195 19.1177 7.44926 19.0331C7.442 18.9849 7.43474 18.9367 7.42726 18.8871C7.41178 18.7697 7.41178 18.7697 7.41178 18.6528C7.37131 18.6531 7.33085 18.6533 7.28915 18.6536C6.9075 18.656 6.52585 18.6577 6.14419 18.6589C5.94798 18.6595 5.75178 18.6603 5.55557 18.6616C5.36617 18.6629 5.17677 18.6636 4.98737 18.6639C4.91516 18.6641 4.84295 18.6645 4.77075 18.6652C4.66949 18.666 4.56826 18.6661 4.46701 18.6661C4.42238 18.6667 4.42238 18.6667 4.37685 18.6673C4.19071 18.6663 4.06472 18.6339 3.90646 18.536C3.76525 18.3926 3.69734 18.2312 3.62881 18.0452C3.61739 18.015 3.60597 17.9848 3.59421 17.9537C3.55497 17.8494 3.51642 17.7448 3.47803 17.6402C3.46375 17.6013 3.44947 17.5624 3.43476 17.5224C3.3009 17.1571 3.16914 16.7911 3.03741 16.4251C2.98299 16.2739 2.92853 16.1227 2.87404 15.9715C2.86503 15.9465 2.85603 15.9215 2.84675 15.8957C2.72303 15.5525 2.59672 15.2103 2.46813 14.8688C2.42485 14.753 2.38162 14.6372 2.33841 14.5214C2.31141 14.4496 2.28413 14.3778 2.25657 14.3061C1.96935 13.559 1.96935 13.559 2.03696 13.2001C2.13318 12.9882 2.25123 12.9026 2.46539 12.8106C2.59699 12.7966 2.59699 12.7966 2.74219 12.7973C2.78213 12.7973 2.78213 12.7973 2.82287 12.7973C2.91013 12.7974 2.99735 12.7983 3.0846 12.7992C3.14539 12.7994 3.20618 12.7996 3.26697 12.7997C3.42641 12.8001 3.58584 12.8013 3.74527 12.8026C3.90818 12.8038 4.0711 12.8043 4.23402 12.8049C4.55327 12.8062 4.87251 12.8081 5.19175 12.8106C5.19406 12.7871 5.19638 12.7636 5.19877 12.7395C5.202 12.7083 5.20523 12.6772 5.20856 12.6452C5.21168 12.6145 5.2148 12.5837 5.21801 12.5521C5.23754 12.4104 5.27955 12.2802 5.32806 12.1461C5.33827 12.1178 5.34848 12.0895 5.359 12.0604C5.72194 11.0971 6.43301 10.32 7.35382 9.86015C7.82405 9.65004 8.31053 9.49602 8.82811 9.4943C8.87018 9.49408 8.87018 9.49408 8.91309 9.49386C9.00663 9.49344 9.10016 9.49329 9.1937 9.49314C9.26096 9.49289 9.32822 9.49263 9.39549 9.49236C9.61611 9.49154 9.83673 9.49114 10.0574 9.49075C10.1336 9.49059 10.2098 9.49043 10.286 9.49027C10.6443 9.48953 11.0026 9.48897 11.361 9.48865C11.7732 9.48827 12.1854 9.48725 12.5977 9.48567C12.9171 9.48449 13.2366 9.48392 13.5561 9.48379C13.7465 9.4837 13.9369 9.48335 14.1272 9.48237C14.3067 9.48145 14.4862 9.4813 14.6657 9.4817C14.7311 9.48172 14.7965 9.48148 14.8618 9.48093C16.004 9.47203 16.9883 9.90101 17.7999 10.694C18.3108 11.2301 18.8235 12.0457 18.8235 12.8106C19.2348 12.8106 19.6461 12.8106 20.0699 12.8106C19.8034 11.4941 19.3094 10.3172 18.2118 9.47265C18.1173 9.40982 18.1173 9.40982 17.9691 9.4197C17.9101 9.44018 17.9101 9.44018 17.8498 9.46108C17.5325 9.56685 17.1054 9.54 16.8051 9.39566C16.4741 9.1948 16.2995 8.94489 16.1629 8.58719C16.0944 8.23201 16.1212 7.89056 16.3091 7.5753C16.6751 7.0683 17.331 6.82372 17.9302 7.06822ZM7.06125 11.6811C6.77517 12.0282 6.61336 12.3724 6.51598 12.8106C10.1405 12.8106 13.765 12.8106 17.4993 12.8106C17.3394 12.0911 16.9252 11.5284 16.3041 11.1285C15.6947 10.7834 15.0534 10.7341 14.3672 10.7363C14.3097 10.7362 14.2523 10.736 14.1948 10.7359C14.0406 10.7355 13.8864 10.7357 13.7323 10.7359C13.5697 10.7361 13.4072 10.7359 13.2447 10.7358C12.9719 10.7357 12.6991 10.7358 12.4264 10.7362C12.1125 10.7366 11.7986 10.7365 11.4848 10.7361C11.2137 10.7357 10.9426 10.7357 10.6715 10.7359C10.5103 10.736 10.3491 10.736 10.1879 10.7357C10.0362 10.7355 9.88456 10.7357 9.7329 10.7361C9.67775 10.7362 9.6226 10.7362 9.56745 10.736C8.57478 10.7332 7.77028 10.9445 7.06125 11.6811ZM3.59488 14.0959C3.66163 14.3184 3.72654 14.5347 3.80475 14.7522C3.81325 14.776 3.82175 14.7997 3.83052 14.8242C3.85812 14.9012 3.88586 14.9781 3.91361 15.055C3.93316 15.1094 3.95271 15.1638 3.97224 15.2182C4.013 15.3316 4.05383 15.445 4.09471 15.5583C4.14672 15.7026 4.19858 15.8469 4.25039 15.9912C4.29067 16.1034 4.33102 16.2155 4.37139 16.3277C4.39052 16.3808 4.40963 16.434 4.42873 16.4871C4.45557 16.5618 4.4825 16.6365 4.50946 16.7112C4.52468 16.7534 4.53989 16.7957 4.55557 16.8392C4.62189 17.0164 4.69304 17.1918 4.76332 17.3675C5.57305 17.3675 6.38278 17.3675 7.21704 17.3675C7.14034 16.8026 7.14034 16.8026 7.06125 16.238C7.02581 15.7122 7.02581 15.7122 7.12454 15.5491C7.33837 15.3409 7.53973 15.3252 7.82299 15.3271C7.86022 15.3269 7.89744 15.3267 7.93579 15.3265C8.06039 15.3259 8.18496 15.3262 8.30955 15.3265C8.39894 15.3263 8.48832 15.326 8.5777 15.3257C8.8204 15.325 9.06309 15.325 9.30579 15.3253C9.50838 15.3254 9.71096 15.3251 9.91355 15.3249C10.4188 15.3243 10.924 15.3245 11.4292 15.3249C11.8677 15.3253 12.3063 15.3248 12.7448 15.3239C13.1954 15.3229 13.6459 15.3226 14.0965 15.3228C14.3493 15.3229 14.6022 15.3229 14.855 15.3222C15.0928 15.3216 15.3305 15.3217 15.5683 15.3225C15.6555 15.3226 15.7428 15.3225 15.83 15.3221C15.9491 15.3216 16.0682 15.322 16.1874 15.3227C16.2219 15.3223 16.2564 15.322 16.2919 15.3216C16.5186 15.3243 16.6509 15.3671 16.8372 15.498C17.0124 15.7176 16.9793 15.9715 16.954 16.238C16.9145 16.5442 16.8644 16.8488 16.8125 17.1531C16.7954 17.2535 16.7954 17.2535 16.7982 17.3675C17.608 17.3675 18.4177 17.3675 19.252 17.3675C19.5361 16.5981 19.8197 15.8286 20.1009 15.0581C20.1289 14.9813 20.157 14.9045 20.1851 14.8278C20.2246 14.72 20.264 14.6121 20.3033 14.5042C20.3152 14.4718 20.3271 14.4395 20.3393 14.4061C20.3988 14.2549 20.3988 14.2549 20.4204 14.0959C14.868 14.0959 9.31556 14.0959 3.59488 14.0959Z" fill="#D9D9D9"/>
<path d="M14.0612 2.68373C14.7778 3.24132 15.2321 4.03224 15.3464 4.93252C15.4259 5.86541 15.1949 6.7698 14.5854 7.49655C14.0015 8.1579 13.2393 8.63119 12.3377 8.68964C11.3946 8.72988 10.538 8.52333 9.81704 7.88481C9.75515 7.82663 9.69346 7.76822 9.63204 7.70955C9.60764 7.68806 9.58324 7.66657 9.5581 7.64443C9.33645 7.44184 9.19534 7.18914 9.04782 6.93059C9.0317 6.90282 9.01559 6.87506 8.99898 6.84645C8.58754 6.08649 8.55688 5.13883 8.79801 4.32162C9.0797 3.46154 9.6856 2.76068 10.4865 2.34203C11.6669 1.77858 13.0081 1.92417 14.0612 2.68373ZM10.4889 3.93159C10.1002 4.40758 9.89029 4.95029 9.94362 5.56741C10.0376 6.16236 10.3277 6.64383 10.7956 7.02065C11.2566 7.34478 11.7656 7.45279 12.3195 7.39796C12.8962 7.28249 13.3612 6.98291 13.7143 6.51189C14.0404 6.01849 14.1444 5.46737 14.0307 4.89068C13.88 4.29334 13.5373 3.86102 13.0205 3.54211C12.172 3.12758 11.161 3.22135 10.4889 3.93159Z" fill="#D9D9D9"/>
</svg>
