<svg width="24" height="24" viewBox="0 0 24 24" fill="none" xmlns="http://www.w3.org/2000/svg">
<path d="M18.3086 10.5209C18.3325 10.5371 18.3564 10.5534 18.381 10.5702C19.0484 11.0271 19.6566 11.5476 20.2388 12.1079C20.2728 12.1401 20.3067 12.1723 20.3417 12.2054C20.5322 12.3899 20.6992 12.5889 20.8648 12.7959C20.9533 12.9047 21.0444 13.0103 21.1371 13.1156C21.3489 13.3583 21.5412 13.6121 21.724 13.8772C21.7463 13.9087 21.7687 13.9401 21.7917 13.9724C21.9361 14.1871 22.0156 14.3762 21.9974 14.6386C21.9279 14.8582 21.8115 15.0363 21.6757 15.2203C21.657 15.246 21.6383 15.2717 21.619 15.2982C21.5598 15.379 21.4999 15.4592 21.4398 15.5393C21.4208 15.5648 21.4017 15.5902 21.3821 15.6164C21.1277 15.9533 20.8566 16.2686 20.5671 16.5756C20.4792 16.6697 20.3955 16.7644 20.3139 16.8637C20.204 16.9939 20.0814 17.1024 19.9515 17.2125C19.8376 17.3111 19.7291 17.4144 19.6196 17.5178C17.9752 19.0407 15.8318 19.9913 13.6333 20.3434C13.6029 20.3484 13.5724 20.3535 13.5411 20.3588C12.439 20.5349 11.2105 20.496 10.1161 20.3005C10.0708 20.2924 10.0255 20.2843 9.97884 20.276C8.42131 19.9867 6.97063 19.3781 5.65521 18.499C5.62633 18.4797 5.59745 18.4604 5.56769 18.4405C5.18922 18.1848 4.84089 17.8984 4.4971 17.5982C4.46542 17.5708 4.43374 17.5435 4.4011 17.5153C4.31823 17.4434 4.23606 17.3707 4.15396 17.298C4.11912 17.2676 4.08429 17.2372 4.0484 17.206C3.85365 17.0343 3.67235 16.8612 3.50537 16.6624C3.44678 16.5943 3.38603 16.5281 3.32408 16.4631C2.89202 16.0094 2.52128 15.5048 2.16463 14.9905C2.14408 14.9609 2.12354 14.9314 2.10237 14.901C2.01245 14.7382 1.98285 14.5645 2.00931 14.3812C2.10286 14.1449 2.24069 13.9399 2.39266 13.7378C2.41305 13.7105 2.43344 13.6831 2.45444 13.6549C2.87496 13.095 3.32455 12.5688 3.81081 12.065C3.84449 12.0301 3.87816 11.9951 3.91285 11.9591C4.65913 11.1997 5.54608 10.5727 6.47018 10.049C6.49993 10.0321 6.52969 10.0151 6.56034 9.99765C10.0795 8.01258 14.6239 8.15234 18.3086 10.5209ZM8.83935 11.674C8.07929 12.5483 7.68123 13.6952 7.75697 14.8531C7.88314 16.0682 8.46472 17.1236 9.40667 17.8996C9.91217 18.2699 10.4571 18.5125 11.0597 18.6705C11.0977 18.6811 11.1356 18.6917 11.1747 18.7025C12.2345 18.948 13.3719 18.6605 14.2887 18.1165C14.4874 17.9914 14.6617 17.8422 14.8343 17.684C14.8931 17.6312 14.8931 17.6312 14.9531 17.5773C15.6998 16.8724 16.2076 15.8456 16.2498 14.8102C16.252 14.7674 16.2542 14.7247 16.2565 14.6806C16.286 13.6039 15.9263 12.5802 15.2203 11.7648C15.1945 11.7327 15.1686 11.7006 15.1419 11.6676C14.5197 10.9198 13.5603 10.4411 12.6039 10.3064C11.1314 10.203 9.87502 10.5944 8.83935 11.674Z" fill="#D9D9D9"/>
<path d="M14.0744 11.9714C14.7275 12.5142 15.0795 13.2287 15.2497 14.0489C15.332 15.0205 15.1078 15.9164 14.4779 16.6767C13.9339 17.292 13.1558 17.7108 12.333 17.7749C11.4466 17.8241 10.5924 17.6148 9.90181 17.0305C9.85918 16.9918 9.85918 16.9918 9.81569 16.9522C9.78373 16.9242 9.75177 16.8962 9.71884 16.8673C9.09447 16.2863 8.79715 15.4877 8.73113 14.6529C8.70888 13.7968 9.00974 12.963 9.56637 12.3118C10.749 11.0673 12.7155 10.9071 14.0744 11.9714ZM10.3143 12.8586C10.1759 13.0662 10.1745 13.2788 10.2017 13.5208C10.3144 13.7462 10.4689 13.8804 10.6843 14.006C10.8886 14.0571 11.0852 14.0439 11.2754 13.9492C11.4943 13.8022 11.595 13.6602 11.6547 13.4002C11.6717 13.204 11.6344 13.0455 11.5314 12.8774C11.3996 12.737 11.2517 12.589 11.0537 12.5669C10.7272 12.5574 10.5429 12.612 10.3143 12.8586Z" fill="#D9D9D9"/>
<path d="M17.2725 4.87997C17.4626 4.92329 17.5472 4.98436 17.66 5.14235C17.7235 5.33278 17.7171 5.48016 17.6654 5.67315C17.5617 5.8473 17.4067 5.96779 17.2539 6.0984C17.1315 6.2045 17.0123 6.31396 16.8933 6.42378C16.6956 6.60552 16.4973 6.78582 16.2928 6.95994C16.2621 6.98798 16.2313 7.01601 16.1996 7.04489C16.0411 7.18188 15.9201 7.27961 15.7057 7.28968C15.5218 7.27393 15.4031 7.21132 15.2634 7.08862C15.1541 6.90646 15.1354 6.73832 15.1776 6.53101C15.2541 6.39317 15.3635 6.29515 15.4778 6.18787C15.5015 6.16521 15.5252 6.14256 15.5497 6.11922C15.8209 5.85999 16.0941 5.60059 16.3809 5.35849C16.447 5.30194 16.5112 5.24313 16.5746 5.18357C16.801 4.97992 16.9589 4.84717 17.2725 4.87997Z" fill="#D9D9D9"/>
<path d="M7.07044 4.89903C7.24907 5.00302 7.39335 5.14324 7.54226 5.28506C7.59902 5.33789 7.65582 5.39067 7.71266 5.4434C7.82961 5.55224 7.94578 5.66183 8.0615 5.77197C8.2023 5.90526 8.34688 6.03347 8.49375 6.16001C8.80814 6.4371 8.80814 6.4371 8.85083 6.62463C8.86231 6.85292 8.81118 6.99731 8.65748 7.17236C8.47373 7.28177 8.30858 7.30437 8.09987 7.25814C7.93722 7.16568 7.80728 7.04225 7.67094 6.915C7.61822 6.86635 7.5655 6.8177 7.51277 6.76906C7.40051 6.66498 7.28884 6.56031 7.17751 6.45524C6.99474 6.28304 6.8104 6.11134 6.61135 5.95795C6.45351 5.83536 6.36091 5.73374 6.29837 5.54242C6.28586 5.32832 6.30902 5.19606 6.44581 5.02771C6.64588 4.87156 6.82172 4.84846 7.07044 4.89903Z" fill="#D9D9D9"/>
<path d="M12.2957 3.06727C12.427 3.17231 12.509 3.25387 12.5351 3.42399C12.5355 3.46551 12.5358 3.50702 12.5362 3.54979C12.5369 3.59704 12.5376 3.64429 12.5383 3.69296C12.5383 3.76924 12.5383 3.76924 12.5383 3.84705C12.5388 3.92574 12.5388 3.92574 12.5393 4.00602C12.5398 4.117 12.5399 4.22798 12.5397 4.33896C12.5397 4.50861 12.5414 4.67819 12.5433 4.84783C12.5436 4.95568 12.5437 5.06352 12.5437 5.17137C12.5447 5.24738 12.5447 5.24738 12.5458 5.32493C12.5425 5.71761 12.5425 5.71761 12.4147 5.87594C12.2412 6.02813 12.1238 6.03288 11.8984 6.03158C11.7222 6.00674 11.6512 5.93041 11.5317 5.8017C11.4768 5.69205 11.4821 5.61253 11.4805 5.48976C11.4798 5.44251 11.4791 5.39525 11.4784 5.34657C11.4765 5.13015 11.4747 4.91375 11.4738 4.69733C11.4732 4.58314 11.4719 4.46904 11.4702 4.35485C11.4679 4.19038 11.467 4.02595 11.4663 3.86146C11.4654 3.81051 11.4644 3.75957 11.4634 3.70708C11.4644 3.3118 11.4644 3.3118 11.5894 3.15368C11.796 2.97741 12.0514 2.9587 12.2957 3.06727Z" fill="#D9D9D9"/>
</svg>
