<svg width="24" height="24" viewBox="0 0 24 24" fill="none" xmlns="http://www.w3.org/2000/svg">
<path d="M8.87354 2.59961C8.47115 2.96999 8.13674 3.41066 7.88721 3.90039C7.55687 4.54879 7.38428 5.26645 7.38428 5.99414C7.38432 6.72174 7.55691 7.43958 7.88721 8.08789C8.13839 8.58074 8.47636 9.02286 8.88232 9.39453L8.33252 9.99414C7.85485 9.55687 7.45712 9.03698 7.16162 8.45703C6.77302 7.69429 6.57084 6.85017 6.5708 5.99414C6.5708 5.13801 6.77298 4.2931 7.16162 3.53027C7.45553 2.95354 7.85048 2.43584 8.32471 2L8.87354 2.59961Z" fill="#D9D9D9"/>
<path d="M10.2451 4.08691C10.0999 4.25971 9.97423 4.44896 9.87109 4.65137C9.65742 5.07086 9.5459 5.53508 9.5459 6.00586C9.5459 6.47664 9.65742 6.94086 9.87109 7.36035C9.97221 7.5588 10.0957 7.74402 10.2373 7.91406L9.68359 8.51855C9.47303 8.2801 9.29194 8.01586 9.14648 7.73047C8.87439 7.19645 8.73242 6.6052 8.73242 6.00586C8.73242 5.40652 8.87439 4.81527 9.14648 4.28125C9.29373 3.99235 9.4775 3.72511 9.69141 3.48438L10.2451 4.08691Z" fill="#D9D9D9"/>
<path d="M14.2832 3.48438C14.4977 3.7255 14.6825 3.99272 14.8301 4.28223C15.1022 4.81624 15.2441 5.4075 15.2441 6.00684C15.2441 6.60618 15.1022 7.19743 14.8301 7.73145C14.6833 8.0195 14.4992 8.28521 14.2861 8.52539L13.7334 7.92188C13.8774 7.74996 14.003 7.56247 14.1055 7.36133C14.3191 6.94183 14.4307 6.47762 14.4307 6.00684C14.4307 5.53605 14.3191 5.07184 14.1055 4.65234C14.0023 4.44993 13.8766 4.26069 13.7314 4.08789L14.2832 3.48438Z" fill="#D9D9D9"/>
<path d="M15.6499 2C16.128 2.43748 16.527 2.95673 16.8228 3.53711C17.2114 4.29985 17.4135 5.14397 17.4136 6C17.4136 6.85613 17.2114 7.70104 16.8228 8.46387C16.5279 9.04249 16.1301 9.56035 15.6538 9.99707L15.105 9.39746C15.5094 9.02619 15.8467 8.58536 16.0972 8.09375C16.4275 7.44535 16.6001 6.7277 16.6001 6C16.6001 5.2724 16.4275 4.55456 16.0972 3.90625C15.8458 3.41299 15.5075 2.9705 15.1011 2.59863L15.6499 2Z" fill="#D9D9D9"/>
<circle cx="12.0013" cy="6.00914" r="0.813825" fill="#D9D9D9"/>
<rect x="4" y="11" width="16" height="10" fill="#D9D9D9"/>
<path d="M17.0599 15.3581V16.2581H15.7009V18.1031H17.4109V19.0031H14.7109V12.7031H17.4109V13.6031H15.7009V15.3581H17.0599Z" fill="#0A0A0A"/>
<path d="M13.4251 12.7031H14.3341L13.3621 19.0031H11.8861L10.9141 12.7031H11.9131L12.6691 17.8421L13.4251 12.7031Z" fill="#0A0A0A"/>
<path d="M10.5447 12.7031V19.0031H9.55469V12.7031H10.5447Z" fill="#0A0A0A"/>
<path d="M7.58375 12.7031V18.1031H9.21275V19.0031H6.59375V12.7031H7.58375Z" fill="#0A0A0A"/>
</svg>
