<svg width="24" height="24" viewBox="0 0 24 24" fill="none" xmlns="http://www.w3.org/2000/svg">
<path d="M17.3372 7.56257C17.5906 7.7023 17.8157 7.90453 17.9309 8.17384C17.9433 8.24237 17.9549 8.31103 17.9659 8.37979C18.0258 8.64948 18.2167 8.75427 18.4303 8.90086C19.5159 9.68212 20.1749 11.0146 20.3912 12.3082C20.4132 12.4504 20.4239 12.5872 20.4196 12.731C20.4558 12.7339 20.4919 12.7368 20.5292 12.7398C20.7087 12.7745 20.8255 12.8366 20.9329 12.9869C21.0499 13.2199 20.9936 13.4881 20.9171 13.727C20.8879 13.8083 20.858 13.8892 20.8275 13.97C20.8112 14.0147 20.795 14.0595 20.7788 14.1043C20.7353 14.2238 20.691 14.3431 20.6465 14.4623C20.6003 14.5868 20.5547 14.7116 20.5091 14.8363C20.4438 15.0147 20.3782 15.1929 20.3123 15.371C20.1994 15.6765 20.0886 15.9826 19.9786 16.2891C19.9339 16.4133 19.8891 16.5376 19.8444 16.6618C19.8162 16.74 19.7881 16.8182 19.7602 16.8964C19.7213 17.0049 19.6821 17.1131 19.6427 17.2214C19.6316 17.2527 19.6205 17.284 19.6091 17.3162C19.5232 17.5506 19.4205 17.8252 19.1928 17.9542C19.0622 17.9978 18.9413 17.9939 18.8054 17.9933C18.7767 17.9933 18.7479 17.9933 18.7183 17.9933C18.6233 17.9933 18.5283 17.993 18.4333 17.9927C18.3674 17.9926 18.3015 17.9926 18.2357 17.9926C18.0623 17.9924 17.8889 17.9921 17.7155 17.9917C17.5385 17.9913 17.3616 17.9912 17.1847 17.991C16.8375 17.9906 16.4903 17.99 16.1432 17.9893C16.1407 18.0089 16.1382 18.0284 16.1357 18.0486C16.0697 18.5682 15.9987 19.087 15.9199 19.6048C15.9079 19.6841 15.8963 19.7633 15.8848 19.8427C15.8679 19.9596 15.8502 20.0764 15.8323 20.1932C15.825 20.2459 15.825 20.2459 15.8175 20.2997C15.777 20.5549 15.7026 20.7666 15.4967 20.933C15.3298 21 15.1628 20.9905 14.9864 20.969C14.8294 20.8933 14.7346 20.7962 14.6359 20.6535C14.5507 20.3978 14.6177 20.1192 14.6587 19.8595C14.6681 19.7985 14.6681 19.7985 14.6777 19.7362C14.6979 19.6052 14.7183 19.4743 14.7388 19.3433C14.7514 19.2621 14.7639 19.181 14.7764 19.0998C14.8228 18.7997 14.8696 18.4997 14.9163 18.1996C15.0204 17.5287 15.1245 16.8577 15.2318 16.1664C13.1033 16.1664 10.9749 16.1664 8.78199 16.1664C8.98943 17.5052 8.98943 17.5052 9.19728 18.8439C9.23734 19.1031 9.23734 19.1031 9.25605 19.2246C9.26913 19.3092 9.28228 19.3938 9.29549 19.4785C9.3155 19.6068 9.33529 19.7351 9.35502 19.8635C9.36093 19.9011 9.36685 19.9386 9.37294 19.9773C9.45233 20.4984 9.45233 20.4984 9.30778 20.7586C9.15916 20.9124 9.04029 20.9752 8.82799 20.9821C8.65341 20.9805 8.54796 20.9596 8.4105 20.8526C8.28122 20.6977 8.23866 20.5284 8.20885 20.3327C8.20319 20.2965 8.20319 20.2965 8.19741 20.2595C8.18512 20.1804 8.17334 20.1013 8.16157 20.0221C8.15311 19.9668 8.14461 19.9116 8.13609 19.8563C8.11835 19.7409 8.10084 19.6254 8.08352 19.5099C8.0613 19.3618 8.03871 19.2138 8.01598 19.0657C7.99428 18.9244 7.97275 18.7831 7.95125 18.6418C7.94714 18.6148 7.94303 18.5879 7.9388 18.5601C7.92722 18.4839 7.91576 18.4077 7.90433 18.3315C7.8978 18.2882 7.89126 18.2448 7.88453 18.2002C7.8706 18.0945 7.8706 18.0945 7.8706 17.9893C7.83418 17.9895 7.79776 17.9898 7.76024 17.99C7.41675 17.9921 7.07326 17.9937 6.72977 17.9947C6.55318 17.9953 6.3766 17.996 6.20001 17.9972C6.02955 17.9984 5.8591 17.999 5.68863 17.9993C5.62365 17.9995 5.55866 17.9998 5.49368 18.0004C5.40255 18.0012 5.31144 18.0013 5.2203 18.0012C5.18014 18.0018 5.18014 18.0018 5.13916 18.0024C4.97164 18.0014 4.85825 17.9723 4.71582 17.8841C4.58872 17.7551 4.5276 17.6098 4.46592 17.4424C4.45565 17.4152 4.44537 17.3881 4.43479 17.3601C4.39947 17.2662 4.36478 17.1721 4.33023 17.0779C4.31738 17.0429 4.30453 17.0079 4.29129 16.9719C4.17081 16.6431 4.05222 16.3137 3.93367 15.9842C3.88469 15.8481 3.83568 15.712 3.78663 15.576C3.77853 15.5535 3.77043 15.531 3.76208 15.5078C3.65073 15.1988 3.53705 14.8908 3.42131 14.5835C3.38236 14.4793 3.34346 14.3751 3.30457 14.2708C3.28027 14.2062 3.25572 14.1416 3.23092 14.0771C2.97241 13.4046 2.97241 13.4046 3.03326 13.0816C3.11986 12.8908 3.2261 12.8138 3.41885 12.731C3.53729 12.7184 3.53729 12.7184 3.66797 12.7191C3.70391 12.7191 3.70391 12.7191 3.74058 12.719C3.81911 12.7191 3.89761 12.7199 3.97614 12.7207C4.03085 12.7209 4.08556 12.7211 4.14028 12.7212C4.28377 12.7216 4.42725 12.7226 4.57074 12.7238C4.71737 12.7249 4.86399 12.7254 5.01062 12.7259C5.29794 12.727 5.58525 12.7288 5.87257 12.731C5.87466 12.7099 5.87674 12.6887 5.87889 12.667C5.8818 12.639 5.88471 12.611 5.8877 12.5821C5.89051 12.5545 5.89332 12.5268 5.89621 12.4983C5.91379 12.3708 5.95159 12.2537 5.99526 12.1329C6.00444 12.1074 6.01363 12.082 6.0231 12.0558C6.34975 11.1888 6.98971 10.4894 7.81843 10.0755C8.24165 9.88634 8.67947 9.74772 9.1453 9.74617C9.18316 9.74597 9.18316 9.74598 9.22178 9.74578C9.30596 9.74539 9.39015 9.74526 9.47433 9.74512C9.53487 9.7449 9.5954 9.74467 9.65594 9.74442C9.8545 9.74369 10.0531 9.74332 10.2516 9.74297C10.3202 9.74283 10.3888 9.74269 10.4574 9.74254C10.7799 9.74187 11.1024 9.74137 11.4249 9.74108C11.7959 9.74074 12.1669 9.73982 12.5379 9.7384C12.8254 9.73734 13.113 9.73682 13.4005 9.73671C13.5718 9.73663 13.7432 9.73632 13.9145 9.73543C14.0761 9.73461 14.2376 9.73447 14.3992 9.73483C14.458 9.73484 14.5168 9.73463 14.5756 9.73414C15.6036 9.72613 16.4894 10.1122 17.2199 10.826C17.6797 11.3085 18.1412 12.0425 18.1412 12.731C18.5113 12.731 18.8815 12.731 19.2629 12.731C19.0231 11.5461 18.5785 10.4869 17.5906 9.72668C17.5056 9.67013 17.5056 9.67013 17.3722 9.67903C17.3191 9.69746 17.3191 9.69746 17.2649 9.71627C16.9793 9.81147 16.5948 9.7873 16.3246 9.65739C16.0267 9.47661 15.8695 9.25168 15.7466 8.92972C15.6849 8.61005 15.7091 8.30272 15.8782 8.01897C16.2076 7.56265 16.7979 7.34251 17.3372 7.56257ZM7.55512 11.7144C7.29765 12.0268 7.15202 12.3366 7.06438 12.731C10.3264 12.731 13.5885 12.731 16.9494 12.731C16.8055 12.0834 16.4327 11.577 15.8737 11.2171C15.3253 10.9065 14.7481 10.8621 14.1305 10.864C14.0788 10.8639 14.027 10.8638 13.9753 10.8636C13.8366 10.8633 13.6978 10.8635 13.559 10.8637C13.4128 10.8639 13.2665 10.8637 13.1202 10.8636C12.8747 10.8635 12.6292 10.8636 12.3837 10.864C12.1012 10.8643 11.8188 10.8642 11.5363 10.8638C11.2923 10.8635 11.0483 10.8635 10.8044 10.8636C10.6593 10.8638 10.5142 10.8638 10.3691 10.8635C10.2326 10.8633 10.0961 10.8635 9.95961 10.8639C9.90997 10.864 9.86034 10.8639 9.8107 10.8638C8.9173 10.8612 8.19325 11.0514 7.55512 11.7144ZM4.43539 13.8878C4.49547 14.0881 4.55389 14.2828 4.62427 14.4786C4.63193 14.4999 4.63958 14.5213 4.64746 14.5433C4.6723 14.6126 4.69727 14.6818 4.72225 14.7511C4.73985 14.8 4.75744 14.849 4.77502 14.8979C4.8117 15 4.84844 15.1021 4.88524 15.2041C4.93205 15.3339 4.97872 15.4638 5.02535 15.5937C5.0616 15.6947 5.09792 15.7956 5.13425 15.8965C5.15147 15.9444 5.16867 15.9922 5.18585 16.0401C5.21001 16.1073 5.23425 16.1745 5.25852 16.2417C5.27221 16.2798 5.2859 16.3178 5.30001 16.3569C5.3597 16.5165 5.42373 16.6743 5.48699 16.8325C6.21574 16.8325 6.9445 16.8325 7.69534 16.8325C7.62631 16.324 7.62631 16.324 7.55512 15.8159C7.52323 15.3426 7.52323 15.3426 7.61209 15.1958C7.80453 15.0084 7.98575 14.9943 8.24069 14.996C8.2742 14.9958 8.3077 14.9956 8.34221 14.9954C8.45435 14.9949 8.56646 14.9952 8.6786 14.9954C8.75904 14.9952 8.83949 14.995 8.91993 14.9947C9.13836 14.9941 9.35678 14.9941 9.57521 14.9943C9.75754 14.9944 9.93987 14.9942 10.1222 14.994C10.5769 14.9935 11.0316 14.9936 11.4863 14.994C11.881 14.9944 12.2757 14.9939 12.6703 14.9931C13.0758 14.9922 13.4813 14.9919 13.8868 14.9921C14.1144 14.9922 14.342 14.9922 14.5695 14.9916C14.7835 14.991 14.9975 14.9912 15.2114 14.9918C15.29 14.9919 15.3685 14.9918 15.447 14.9915C15.5542 14.991 15.6614 14.9914 15.7686 14.992C15.7997 14.9917 15.8307 14.9914 15.8627 14.991C16.0667 14.9934 16.1858 15.032 16.3535 15.1498C16.5111 15.3475 16.4813 15.5759 16.4586 15.8159C16.4231 16.0915 16.3779 16.3656 16.3313 16.6395C16.3159 16.7299 16.3159 16.7299 16.3184 16.8325C17.0472 16.8325 17.7759 16.8325 18.5268 16.8325C18.7824 16.14 19.0377 15.4474 19.2908 14.7539C19.316 14.6848 19.3413 14.6157 19.3666 14.5466C19.4022 14.4495 19.4376 14.3525 19.4729 14.2554C19.4836 14.2262 19.4944 14.1971 19.5054 14.167C19.5589 14.031 19.5589 14.031 19.5784 13.8878C14.5812 13.8878 9.584 13.8878 4.43539 13.8878Z" fill="#D9D9D9"/>
<path d="M13.8551 3.61539C14.5 4.11725 14.909 4.82912 15.0118 5.63942C15.0834 6.47907 14.8755 7.29306 14.3269 7.94717C13.8014 8.54242 13.1154 8.96841 12.304 9.02101C11.4552 9.05723 10.6842 8.87133 10.0354 8.29663C9.97968 8.24426 9.92417 8.19169 9.86888 8.13888C9.84692 8.11954 9.82496 8.1002 9.80234 8.08027C9.60285 7.89793 9.47585 7.67049 9.34309 7.43778C9.32858 7.41279 9.31408 7.3878 9.29913 7.36205C8.92884 6.67805 8.90124 5.8251 9.11825 5.08958C9.37178 4.31546 9.91709 3.68465 10.6379 3.30784C11.7003 2.80071 12.9073 2.93175 13.8551 3.61539ZM10.6401 4.73853C10.2902 5.16694 10.1013 5.65541 10.1493 6.21085C10.2339 6.74633 10.495 7.17969 10.9161 7.51884C11.3309 7.81058 11.7891 7.90779 12.2876 7.85844C12.8066 7.75451 13.2251 7.48487 13.5429 7.06093C13.8364 6.61684 13.93 6.12081 13.8277 5.60176C13.692 5.06412 13.3836 4.67501 12.9185 4.38798C12.1549 4.01488 11.2449 4.09928 10.6401 4.73853Z" fill="#D9D9D9"/>
</svg>
