<svg width="24" height="24" viewBox="0 0 24 24" fill="none" xmlns="http://www.w3.org/2000/svg">
<path d="M7.81348 1.60352C7.27296 2.10086 6.82447 2.69278 6.48926 3.35059C6.04581 4.22099 5.81354 5.18428 5.81348 6.16113C5.81352 7.13812 6.04572 8.10215 6.48926 8.97266C6.82642 9.63419 7.27953 10.2275 7.82422 10.7266L7.27441 11.3271C6.65781 10.7624 6.14524 10.0906 5.76367 9.3418C5.26185 8.35688 5.00004 7.26652 5 6.16113C5.00007 5.05591 5.26197 3.96623 5.76367 2.98145C6.14329 2.23641 6.65222 1.56696 7.26465 1.00391L7.81348 1.60352Z" fill="#D9D9D9"/>
<path d="M9.58203 3.51562C9.37476 3.7587 9.1968 4.02692 9.05078 4.31348C8.75787 4.8884 8.60553 5.52469 8.60547 6.16992C8.60551 6.81526 8.7578 7.45234 9.05078 8.02734C9.19417 8.30866 9.36975 8.57102 9.57227 8.81055L9.01953 9.41406C8.74754 9.10598 8.51303 8.76507 8.3252 8.39648C7.974 7.70712 7.79106 6.94359 7.79102 6.16992C7.79108 5.3964 7.97411 4.63359 8.3252 3.94434C8.51552 3.5708 8.75359 3.22537 9.03027 2.91406L9.58203 3.51562Z" fill="#D9D9D9"/>
<path d="M14.9585 2.91797C15.2352 3.22928 15.4742 3.57371 15.6646 3.94727C16.0158 4.63667 16.1987 5.40011 16.1987 6.17383C16.1987 6.9474 16.0157 7.71012 15.6646 8.39941C15.475 8.77133 15.2375 9.11454 14.9624 9.4248L14.4097 8.82227C14.6154 8.58032 14.7938 8.31517 14.939 8.03027C15.2319 7.45531 15.3842 6.81912 15.3843 6.17383C15.3843 5.52844 15.232 4.89145 14.939 4.31641C14.7928 4.02965 14.6142 3.76179 14.4067 3.51855L14.9585 2.91797Z" fill="#D9D9D9"/>
<path d="M16.7231 1C17.3404 1.56507 17.855 2.23596 18.2368 2.98535C18.7386 3.9702 19.0004 5.0607 19.0005 6.16602C19.0004 7.2711 18.7384 8.36101 18.2368 9.3457C17.856 10.0931 17.344 10.764 16.729 11.3281L16.1782 10.7275C16.7216 10.229 17.1747 9.63694 17.5112 8.97656C17.9546 8.10625 18.1869 7.14274 18.187 6.16602C18.1869 5.1891 17.9547 4.22494 17.5112 3.35449C17.1736 2.69197 16.7191 2.09819 16.1733 1.59863L16.7231 1Z" fill="#D9D9D9"/>
<circle cx="12.0117" cy="6.1758" r="1.0508" fill="#D9D9D9"/>
<rect x="4" y="12" width="16" height="10" fill="#D9D9D9"/>
<path d="M17.0599 16.3581V17.2581H15.7009V19.1031H17.4109V20.0031H14.7109V13.7031H17.4109V14.6031H15.7009V16.3581H17.0599Z" fill="#0A0A0A"/>
<path d="M13.4251 13.7031H14.3341L13.3621 20.0031H11.8861L10.9141 13.7031H11.9131L12.6691 18.8421L13.4251 13.7031Z" fill="#0A0A0A"/>
<path d="M10.5447 13.7031V20.0031H9.55469V13.7031H10.5447Z" fill="#0A0A0A"/>
<path d="M7.58375 13.7031V19.1031H9.21275V20.0031H6.59375V13.7031H7.58375Z" fill="#0A0A0A"/>
</svg>
