<svg width="24" height="24" viewBox="0 0 24 24" fill="none" xmlns="http://www.w3.org/2000/svg">
<path d="M14 7.5C14 9.98528 11.9853 12 9.5 12C7.01472 12 5 9.98528 5 7.5C5 5.01472 7.01472 3 9.5 3C11.9853 3 14 5.01472 14 7.5Z" fill="#D9D9D9"/>
<path d="M2 20.5789C2 16.3932 5.18113 13 9.10526 13H9.89474C13.8189 13 17 16.3932 17 20.5789C17 20.8115 16.8233 21 16.6053 21H2.39474C2.17673 21 2 20.8115 2 20.5789Z" fill="#D9D9D9"/>
<path fill-rule="evenodd" clip-rule="evenodd" d="M19.3452 9.62584C19.0661 10.2998 18.6569 10.9122 18.141 11.428L18.1523 11.4393L19.2017 12.4887L19.213 12.5L19.2146 12.4984C19.5714 12.1414 19.8881 11.7481 20.1599 11.3255C20.3877 10.9714 20.5839 10.5968 20.7458 10.206C21.1012 9.34808 21.2841 8.42859 21.2841 7.5C21.2841 6.57141 21.1012 5.65192 20.7458 4.79402C20.5839 4.40316 20.3877 4.02856 20.1599 3.67445C19.8877 3.25133 19.5705 2.85746 19.213 2.5L19.2017 2.51131L18.1523 3.56066L18.141 3.57197C18.6569 4.0878 19.0661 4.70019 19.3452 5.37416C19.6244 6.04814 19.7681 6.7705 19.7681 7.5C19.7681 8.2295 19.6244 8.95186 19.3452 9.62584ZM16.5478 8.46707C16.4209 8.77343 16.235 9.05183 16.0006 9.28638L16 9.28695L16.0095 9.29644L17.0607 10.3476L17.0702 10.3571L17.0705 10.3568C17.4338 9.99341 17.7243 9.56422 17.9266 9.09227C17.9332 9.07697 17.9397 9.06162 17.946 9.04623C18.1491 8.556 18.2536 8.03058 18.2536 7.49996C18.2536 6.96934 18.1491 6.44391 17.946 5.95368C17.9397 5.93829 17.9332 5.92294 17.9266 5.90764C17.7243 5.43579 17.4339 5.00668 17.0707 4.64337L17.0702 4.64281L17.0607 4.6523L16.0095 5.70347L16 5.71296C16.2347 5.94764 16.4208 6.22623 16.5478 6.53284C16.6748 6.83946 16.7402 7.16808 16.7402 7.49996C16.7402 7.83183 16.6748 8.16046 16.5478 8.46707Z" fill="#D9D9D9"/>
</svg>
