<svg width="24" height="24" viewBox="0 0 24 24" fill="none" xmlns="http://www.w3.org/2000/svg">
<path d="M8.83139 19.676C9.03542 20.3477 9.45394 20.9365 10.0248 21.3552C10.5956 21.7739 11.2883 22 12 22C12.7117 22 13.4044 21.7739 13.9752 21.3552C14.5461 20.9365 14.9646 20.3477 15.1686 19.676H8.83139ZM3.5 18.2457C3.5 18.5219 3.72386 18.7457 4 18.7457H20C20.2761 18.7457 20.5 18.5219 20.5 18.2457V16.1081C20.5 16.0082 20.4701 15.9106 20.4141 15.8278L18.697 13.2908C18.641 13.208 18.6111 13.1104 18.6111 13.0105V8.51223C18.6111 7.65703 18.4401 6.81021 18.1079 6.02011C17.7756 5.23001 17.2887 4.5121 16.6748 3.90739C16.0609 3.30267 15.3321 2.82298 14.53 2.49571C13.7279 2.16844 12.8682 2 12 2C11.1318 2 10.2721 2.16844 9.47004 2.49571C8.66794 2.82298 7.93914 3.30267 7.32524 3.90739C6.71134 4.5121 6.22437 5.23001 5.89213 6.02011C5.55989 6.81021 5.38889 7.65703 5.38889 8.51223V13.0105C5.38889 13.1104 5.35896 13.208 5.30297 13.2908L3.58592 15.8278C3.52993 15.9106 3.5 16.0082 3.5 16.1081V18.2457Z" fill="#C8C8C8"/>
</svg>
