<svg width="24" height="24" viewBox="0 0 24 24" fill="none" xmlns="http://www.w3.org/2000/svg">
<path d="M4 7C4 5.34315 5.34315 4 7 4C8.65685 4 10 5.34315 10 7C10 8.65685 8.65685 10 7 10C5.34315 10 4 8.65685 4 7Z" fill="#C8C8C8"/>
<path d="M14 4.5C14 4.22386 14.2239 4 14.5 4H19.5C19.7761 4 20 4.22386 20 4.5V9.5C20 9.77614 19.7761 10 19.5 10H14.5C14.2239 10 14 9.77614 14 9.5V4.5Z" fill="#C8C8C8"/>
<path d="M4 14.5C4 14.2239 4.22386 14 4.5 14H9.5C9.77614 14 10 14.2239 10 14.5V19.5C10 19.7761 9.77614 20 9.5 20H4.5C4.22386 20 4 19.7761 4 19.5V14.5Z" fill="#C8C8C8"/>
<path d="M14 17C14 15.3431 15.3431 14 17 14C18.6569 14 20 15.3431 20 17C20 18.6569 18.6569 20 17 20C15.3431 20 14 18.6569 14 17Z" fill="#C8C8C8"/>
</svg>
