<svg width="24" height="24" viewBox="0 0 24 24" fill="none" xmlns="http://www.w3.org/2000/svg">
<path d="M12 17.5C13.25 17.5 14.3127 17.0627 15.188 16.188C16.0633 15.3133 16.5007 14.2507 16.5 13C16.4993 11.7493 16.062 10.687 15.188 9.813C14.314 8.939 13.2513 8.50133 12 8.5C10.7487 8.49867 9.68633 8.93633 8.813 9.813C7.93967 10.6897 7.502 11.752 7.5 13C7.498 14.248 7.93567 15.3107 8.813 16.188C9.69033 17.0653 10.7527 17.5027 12 17.5ZM12 15.5C11.3 15.5 10.7083 15.2583 10.225 14.775C9.74167 14.2917 9.5 13.7 9.5 13C9.5 12.3 9.74167 11.7083 10.225 11.225C10.7083 10.7417 11.3 10.5 12 10.5C12.7 10.5 13.2917 10.7417 13.775 11.225C14.2583 11.7083 14.5 12.3 14.5 13C14.5 13.7 14.2583 14.2917 13.775 14.775C13.2917 15.2583 12.7 15.5 12 15.5ZM2.5 21C2.22386 21 2 20.7761 2 20.5V5.5C2 5.22386 2.22386 5 2.5 5H6.93139C7.07076 5 7.20381 4.94183 7.29844 4.83952L8.85156 3.16048C8.94619 3.05817 9.07924 3 9.21861 3H14.7814C14.9208 3 15.0538 3.05817 15.1484 3.16048L16.7016 4.83952C16.7962 4.94183 16.9292 5 17.0686 5H21.5C21.7761 5 22 5.22386 22 5.5V20.5C22 20.7761 21.7761 21 21.5 21H2.5Z" fill="#DCDCDC"/>
</svg>
