<svg width="24" height="24" viewBox="0 0 24 24" fill="none" xmlns="http://www.w3.org/2000/svg">
<path d="M20.2033 14.2501C20.2033 15.4928 19.1959 16.5002 17.9532 16.5002C16.7105 16.5002 15.7031 15.4928 15.7031 14.2501C15.7031 13.0074 16.7105 12 17.9532 12C19.1959 12 20.2033 13.0074 20.2033 14.2501Z" fill="#DCDCDC"/>
<path d="M13.9062 20.7901C13.9062 18.671 15.6241 16.9531 17.7432 16.9531H18.1696C20.2887 16.9531 22.0065 18.671 22.0065 20.7901C22.0065 20.9078 21.9111 21.0033 21.7934 21.0033H14.1194C14.0017 21.0033 13.9062 20.9078 13.9062 20.7901Z" fill="#DCDCDC"/>
<path d="M20 3H2V4.5H20V3Z" fill="#DCDCDC"/>
<path d="M20 8.16406H2V9.66406H20V8.16406Z" fill="#DCDCDC"/>
<path d="M12 13.1641H2V14.6641H12V13.1641Z" fill="#DCDCDC"/>
</svg>
