<svg width="24" height="24" viewBox="0 0 24 24" fill="none" xmlns="http://www.w3.org/2000/svg">
<path d="M14.0468 16.5922H12.1457V11.732H14.0278C14.5359 11.732 14.9752 11.8293 15.347 12.0227C15.7172 12.2166 16.0039 12.495 16.2048 12.8582C16.4066 13.221 16.5088 13.6568 16.5088 14.162C16.5088 14.6689 16.4076 15.1029 16.2067 15.466C16.0062 15.8293 15.7204 16.1077 15.3524 16.3012C14.9845 16.4951 14.5483 16.5922 14.0468 16.5922ZM5.81375 3H18.1863C19.2355 3 20.1891 3.42216 20.8797 4.10151C21.571 4.78113 22 5.71936 22 6.75065V17.2495C22 18.2806 21.5705 19.2185 20.8796 19.8981C20.1886 20.5777 19.2346 21 18.1863 21H5.81375C4.76512 21 3.81109 20.578 3.12004 19.8983C2.42926 19.219 2 18.2813 2 17.2495V6.75065C2 5.71852 2.42902 4.78063 3.1198 4.10128C3.81059 3.42192 4.76426 3 5.81375 3ZM17.25 4.09943H13.1112L11.6638 7.72373H15.7963L17.211 4.1818C17.2221 4.15394 17.2352 4.12644 17.25 4.09943ZM12.1399 4.09943H7.88684L6.4393 7.72373H10.685L12.0963 4.19009C12.1086 4.15944 12.1231 4.12913 12.1399 4.09943ZM6.90559 4.09943H5.81375C5.07301 4.09943 4.39898 4.39793 3.91023 4.87863C3.42145 5.35929 3.11793 6.02216 3.11793 6.75065V7.72373H5.45195L6.86656 4.1818C6.87777 4.15394 6.89078 4.12644 6.90559 4.09943ZM3.11793 8.82293V17.2495C3.11793 17.9777 3.42172 18.6403 3.91047 19.121C4.39949 19.6019 5.07363 19.9006 5.81375 19.9006H18.1863C18.9261 19.9006 19.6001 19.6017 20.0891 19.1208C20.5782 18.6398 20.8821 17.977 20.8821 17.2495V8.82293H3.11793ZM20.8821 7.72373V6.75065C20.8821 6.02277 20.5784 5.35979 20.0893 4.87886C19.6104 4.40784 18.9538 4.11153 18.231 4.09982L16.7837 7.72373H20.8821ZM10.0814 13.2512C10.0675 13.0932 10.0073 12.9696 9.90094 12.8816C9.79332 12.7925 9.63184 12.7478 9.41426 12.7478C9.27602 12.7478 9.16367 12.7643 9.07559 12.7967C8.98824 12.829 8.92289 12.8738 8.88152 12.9281C8.84027 12.9837 8.81855 13.0476 8.81617 13.1189C8.81293 13.1763 8.82402 13.2288 8.8491 13.2754C8.87422 13.3223 8.91359 13.3648 8.96789 13.4017C9.02355 13.4391 9.09273 13.473 9.17895 13.503C9.26344 13.5327 9.36406 13.5596 9.4825 13.5829L9.8875 13.6692C10.1617 13.7257 10.3952 13.8015 10.5895 13.8936C10.7844 13.9876 10.9441 14.0972 11.0674 14.2235C11.1909 14.3482 11.2823 14.4895 11.3416 14.6465C11.4007 14.8027 11.4293 14.9742 11.4322 15.1585C11.4293 15.4784 11.3491 15.7495 11.1876 15.9708C11.0266 16.1926 10.7978 16.3604 10.499 16.4764C10.2012 16.5914 9.84254 16.6489 9.42395 16.6489C8.99484 16.6489 8.62035 16.5864 8.30105 16.4619C7.98141 16.3372 7.73367 16.1442 7.5582 15.8842C7.38141 15.623 7.29285 15.2905 7.29098 14.8835L8.56473 14.8833C8.57391 15.0322 8.61105 15.1576 8.67926 15.2589C8.74609 15.3593 8.84113 15.436 8.96465 15.4884C9.08801 15.541 9.23426 15.5673 9.40547 15.5673C9.54734 15.5673 9.66762 15.5501 9.76414 15.5149C9.86152 15.4794 9.93387 15.4318 9.98355 15.3703C10.0336 15.3082 10.0596 15.2379 10.0606 15.1585C10.0596 15.0846 10.0351 15.0198 9.9868 14.9632C9.94043 14.9075 9.86242 14.856 9.75531 14.8113C9.64711 14.7657 9.50102 14.7231 9.31773 14.6849L8.82637 14.58C8.38793 14.4864 8.04402 14.3298 7.79254 14.1109C7.5402 13.8927 7.41535 13.5929 7.41672 13.2132C7.41535 12.9048 7.49934 12.6342 7.66918 12.4024C7.83902 12.171 8.07469 11.9903 8.37586 11.8598C8.67789 11.7312 9.02355 11.6663 9.41426 11.6663C9.81371 11.6663 10.1585 11.732 10.4504 11.8635C10.7413 11.994 10.9653 12.1788 11.1241 12.417C11.2823 12.6552 11.363 12.9326 11.3644 13.2512H10.0814ZM13.4872 15.472H13.9994C14.2439 15.472 14.4523 15.4337 14.6254 15.3561C14.7975 15.2781 14.9302 15.1443 15.0207 14.9551C15.1111 14.7647 15.1566 14.5005 15.1566 14.162C15.1566 13.8237 15.1111 13.5596 15.0183 13.3702C14.9255 13.1799 14.791 13.0463 14.6128 12.9687C14.4352 12.8916 14.218 12.8522 13.9609 12.8522H13.4872V15.472Z" fill="#C5BDB3"/>
</svg>
