<svg width="24" height="24" viewBox="0 0 24 24" fill="none" xmlns="http://www.w3.org/2000/svg">
<path d="M5.81375 3H18.1863C19.2355 3 20.1891 3.42215 20.8797 4.1015C21.571 4.78112 22 5.7194 22 6.75064V17.2495C22 18.2806 21.5705 19.2185 20.8796 19.8981C20.1886 20.5777 19.2346 21 18.1863 21H5.81375C4.76512 21 3.81105 20.578 3.12004 19.8983C2.42926 19.219 2 18.2813 2 17.2495V6.75064C2 5.71851 2.42902 4.78062 3.1198 4.10127C3.81059 3.42192 4.76426 3 5.81375 3ZM14.24 16.5233H12.3899V11.792H14.2218C14.7164 11.792 15.1442 11.8867 15.506 12.075C15.8664 12.2638 16.1451 12.5348 16.3411 12.8884C16.5376 13.2415 16.637 13.6658 16.637 14.1574C16.637 14.6509 16.5384 15.0734 16.3425 15.4269C16.1473 15.7806 15.8695 16.0516 15.511 16.2399C15.1532 16.4288 14.7286 16.5233 14.2398 16.5233H14.24ZM7.36316 16.5233V11.792H8.66895V13.6404H10.3979V11.792H11.7038V16.5233H10.3979V14.6745H8.66895V16.5233H7.36316ZM13.6957 15.4323H14.1939C14.4323 15.4323 14.6347 15.3954 14.8036 15.3199C14.9713 15.244 15.1004 15.1138 15.1884 14.9295C15.2765 14.7443 15.3207 14.4871 15.3207 14.1574C15.3207 13.8283 15.2765 13.5711 15.1862 13.3868C15.0954 13.2016 14.9644 13.0714 14.7915 12.9954C14.6184 12.9208 14.4071 12.8826 14.1568 12.8826H13.6957V15.4323ZM3.11793 7.72372H5.45195L6.86656 4.18179C6.87773 4.15394 6.89078 4.12644 6.90559 4.09943H5.81375C5.07301 4.09943 4.39898 4.39792 3.9102 4.87862C3.42145 5.35928 3.11793 6.02215 3.11793 6.75064V7.72372ZM7.88684 4.09943L6.4393 7.72372H10.685L12.0963 4.19009C12.1086 4.15944 12.1231 4.12912 12.1399 4.09943H7.88684ZM13.1112 4.09943L11.6638 7.72372H15.7963L17.211 4.18179C17.2221 4.15394 17.2352 4.12644 17.25 4.09943H13.1112ZM18.231 4.09981L16.7837 7.72372H20.8821V6.75064C20.8821 6.02277 20.5784 5.35978 20.0893 4.87885C19.6105 4.40783 18.9538 4.11153 18.231 4.09981ZM20.8821 8.82291H3.11793V17.2495C3.11793 17.9777 3.42168 18.6403 3.91047 19.121C4.39949 19.6019 5.07363 19.9005 5.81375 19.9005H18.1863C18.9261 19.9005 19.6002 19.6017 20.0892 19.1208C20.5782 18.6398 20.8821 17.977 20.8821 17.2495V8.82291Z" fill="#C5BDB3"/>
</svg>
