<svg width="24" height="24" viewBox="0 0 24 24" fill="none" xmlns="http://www.w3.org/2000/svg">
<path d="M14.4503 4C14.7028 4.11591 14.8748 4.28642 15.0674 4.48262C15.1024 4.51778 15.1374 4.55294 15.1735 4.58916C15.2848 4.70116 15.3957 4.81358 15.5066 4.92602C15.5822 5.00218 15.6578 5.07831 15.7334 5.15442C15.9184 5.34072 16.103 5.5274 16.2874 5.71429C16.2014 5.90914 16.0995 6.0396 15.9487 6.18931C15.9045 6.23342 15.8604 6.27753 15.8149 6.32298C15.7673 6.36992 15.7198 6.41687 15.6707 6.46524C15.622 6.51382 15.5732 6.56239 15.523 6.61244C15.3673 6.76743 15.2111 6.92198 15.055 7.07653C14.9493 7.18157 14.8437 7.28664 14.738 7.39174C14.4791 7.64924 14.2199 7.90638 13.9603 8.16327C14.0229 8.16384 14.0854 8.16441 14.1499 8.165C15.6535 8.18114 17.0038 8.20523 18.3695 8.89796C18.478 8.95171 18.478 8.95171 18.5887 9.00654C20.0742 9.79578 21.2188 11.1998 21.7116 12.8086C22.2291 14.588 22.0463 16.3095 21.1942 17.9439C20.6755 18.8575 20.6755 18.8575 20.3904 19C20.3033 18.9316 20.2162 18.8631 20.129 18.7947C20.0526 18.7346 19.9761 18.6745 19.8996 18.6145C19.6968 18.4553 19.4941 18.2959 19.2917 18.1362C19.2532 18.1058 19.2148 18.0755 19.1751 18.0443C19.1011 17.986 19.0272 17.9276 18.9533 17.8692C18.8024 17.7504 18.6519 17.6372 18.492 17.5306C18.5469 17.2712 18.677 17.0746 18.8173 16.8533C19.3677 15.9622 19.5616 15.0105 19.3709 13.9719C19.1699 13.1477 18.7865 12.4922 18.1858 11.898C18.1497 11.8598 18.1135 11.8216 18.0763 11.7822C16.9438 10.675 15.3073 10.7347 13.8379 10.7347C14.6462 11.5429 15.4546 12.351 16.2874 13.1837C16.0536 13.4564 15.8289 13.7107 15.576 13.9621C15.5453 13.9928 15.5145 14.0234 15.4828 14.055C15.3863 14.1512 15.2895 14.2472 15.1928 14.3431C15.1266 14.409 15.0604 14.4749 14.9942 14.5408C14.8335 14.7008 14.6725 14.8607 14.5115 15.0204C14.1799 14.7438 13.8721 14.4508 13.5676 14.1449C13.5179 14.0953 13.4683 14.0456 13.4171 13.9945C13.2543 13.8317 13.0917 13.6686 12.9291 13.5056C12.8158 13.3922 12.7024 13.2788 12.5891 13.1654C12.322 12.8981 12.055 12.6308 11.7881 12.3633C11.4841 12.0586 11.1798 11.7541 10.8756 11.4496C10.2502 10.8238 9.62501 10.1977 9 9.57143C9.08623 9.37614 9.18864 9.24522 9.33947 9.09486C9.38447 9.04971 9.42946 9.00456 9.47582 8.95803C9.5252 8.90911 9.57458 8.86018 9.62546 8.80977C9.70343 8.73179 9.70343 8.73179 9.78298 8.65223C9.92534 8.50997 10.068 8.36798 10.2107 8.22612C10.3599 8.0777 10.5088 7.92894 10.6577 7.78022C10.9396 7.49875 11.2219 7.21759 11.5042 6.93655C11.8257 6.61653 12.1468 6.29616 12.4679 5.97576C13.1283 5.31679 13.7891 4.65825 14.4503 4Z" fill="#DCDCDC"/>
<path d="M7.23529 4C7.47788 4.11634 7.64311 4.28749 7.82813 4.48442C7.86174 4.51971 7.89535 4.555 7.92999 4.59136C8.03694 4.70378 8.14347 4.81661 8.25 4.92947C8.32258 5.00591 8.39519 5.08233 8.46783 5.15872C8.64553 5.34571 8.82286 5.53309 9 5.72067C8.90538 5.96745 8.73904 6.1327 8.56121 6.31593C8.52849 6.35013 8.49577 6.38433 8.46206 6.41957C8.35412 6.53225 8.24577 6.64448 8.13741 6.75672C8.06238 6.83488 7.98737 6.91306 7.91239 6.99127C7.71518 7.19683 7.51762 7.40201 7.31998 7.60712C7.11828 7.81657 6.91692 8.02637 6.71553 8.23614C6.32049 8.64753 5.92507 9.05852 5.52941 9.46927C5.62404 9.71605 5.79038 9.8813 5.9682 10.0645C6.00092 10.0987 6.03364 10.1329 6.06736 10.1682C6.1753 10.2809 6.28365 10.3931 6.392 10.5053C6.46703 10.5835 6.54204 10.6617 6.61702 10.7399C6.81423 10.9454 7.0118 11.1506 7.20943 11.3557C7.41113 11.5652 7.61249 11.775 7.81388 11.9847C8.20893 12.3961 8.60435 12.8071 9 13.2179C8.78575 13.4846 8.5661 13.7401 8.3295 13.9858C8.30128 14.0152 8.27305 14.0446 8.24397 14.0749C8.15544 14.167 8.06669 14.259 7.97794 14.3509C7.91719 14.4141 7.85645 14.4772 7.79573 14.5404C7.64829 14.6938 7.50067 14.8469 7.35294 15C7.16532 14.9135 7.03953 14.8107 6.89507 14.6593C6.85168 14.6142 6.8083 14.569 6.7636 14.5225C6.69309 14.4482 6.69309 14.4482 6.62115 14.3724C6.54623 14.2941 6.54623 14.2941 6.46979 14.2143C6.33311 14.0714 6.19669 13.9283 6.06039 13.785C5.91779 13.6353 5.77487 13.4859 5.63198 13.3365C5.36154 13.0536 5.09141 12.7704 4.82139 12.4871C4.51392 12.1645 4.20612 11.8422 3.89828 11.52C3.26515 10.8573 2.63244 10.1942 2 9.53073C2.26575 9.19795 2.54726 8.88912 2.84119 8.58351C2.9127 8.50879 2.9127 8.50879 2.98565 8.43256C3.1421 8.26916 3.29876 8.10598 3.45542 7.9428C3.56439 7.82908 3.67335 7.71533 3.7823 7.60158C4.03904 7.33356 4.29593 7.06569 4.55287 6.79788C4.84562 6.49274 5.13819 6.18743 5.43075 5.8821C6.03208 5.25454 6.63362 4.62719 7.23529 4Z" fill="#DCDCDC"/>
</svg>
