<svg width="24" height="24" viewBox="0 0 24 24" fill="none" xmlns="http://www.w3.org/2000/svg">
<path d="M5.00111 3.00903C5.02587 3.0089 5.05064 3.00878 5.07615 3.00865C5.15869 3.00833 5.24123 3.0085 5.32378 3.00867C5.38373 3.00854 5.44368 3.00838 5.50363 3.00819C5.66806 3.00776 5.83249 3.00777 5.99692 3.00785C6.17438 3.00786 6.35185 3.00748 6.52931 3.00714C6.87689 3.00656 7.22447 3.00637 7.57205 3.00633C7.85463 3.00629 8.13721 3.00615 8.4198 3.00593C9.22124 3.00531 10.0227 3.00498 10.8241 3.00503C10.8673 3.00504 10.9105 3.00504 10.955 3.00504C10.9983 3.00505 11.0415 3.00505 11.0861 3.00505C11.7869 3.00508 12.4877 3.00441 13.1884 3.00342C13.9083 3.00241 14.6281 3.00192 15.3479 3.00198C15.7519 3.002 16.156 3.00181 16.56 3.00105C16.904 3.00041 17.248 3.00026 17.592 3.00074C17.7675 3.00097 17.9429 3.00097 18.1183 3.00036C18.2791 2.99981 18.4399 2.99991 18.6007 3.00052C18.6587 3.00063 18.7166 3.0005 18.7746 3.00011C19.4091 2.99609 19.9429 3.15933 20.4103 3.60378C20.8353 4.03968 21.029 4.53924 21.0272 5.14251C21.0274 5.18234 21.0275 5.22217 21.0277 5.2632C21.0282 5.39633 21.0281 5.52945 21.028 5.66258C21.0282 5.75816 21.0285 5.85375 21.0288 5.94934C21.0293 6.18187 21.0295 6.41439 21.0296 6.64692C21.0296 6.83604 21.0298 7.02517 21.03 7.2143C21.0306 7.75116 21.0309 8.28802 21.0309 8.82488C21.0309 8.86825 21.0309 8.86825 21.0309 8.9125C21.0309 8.94145 21.0309 8.9704 21.0308 9.00023C21.0308 9.46913 21.0315 9.93803 21.0325 10.4069C21.0335 10.889 21.034 11.3711 21.0339 11.8532C21.0339 12.1236 21.0341 12.394 21.0348 12.6644C21.0355 12.8947 21.0356 13.125 21.0352 13.3553C21.0349 13.4726 21.035 13.5899 21.0355 13.7072C21.0388 14.4593 20.9743 15.0591 20.4321 15.6293C20.1216 15.932 19.7312 16.174 19.2952 16.2368C19.2438 16.2503 19.2438 16.2503 19.1913 16.2641C19.0504 16.287 18.9726 16.2878 18.8381 16.2368C18.7045 16.0961 18.6179 15.9199 18.5238 15.7518C18.4243 15.5754 18.3076 15.4267 18.1724 15.2766C18.1537 15.2559 18.135 15.2351 18.1157 15.2137C18.0805 15.1749 18.0452 15.1362 18.0098 15.0976C17.9316 15.0108 17.8576 14.9208 17.7835 14.8306C17.8161 14.8299 17.8487 14.8292 17.8823 14.8285C18.0044 14.8257 18.1265 14.8226 18.2487 14.8194C18.3013 14.8181 18.3539 14.8168 18.4066 14.8157C18.4827 14.8141 18.5588 14.8121 18.6349 14.81C18.7034 14.8083 18.7034 14.8083 18.7733 14.8066C19.0103 14.787 19.2144 14.7411 19.4006 14.5845C19.588 14.3385 19.5816 14.0738 19.5806 13.7791C19.5807 13.7442 19.5807 13.7092 19.5807 13.6733C19.5808 13.5563 19.5806 13.4394 19.5804 13.3225C19.5804 13.2387 19.5804 13.1548 19.5804 13.071C19.5804 12.867 19.5803 12.663 19.5801 12.459C19.5798 12.2216 19.5798 11.9841 19.5797 11.7467C19.5796 11.3234 19.5794 10.9 19.5791 10.4766C19.5788 10.0654 19.5785 9.65418 19.5784 9.24298C19.5783 9.21762 19.5783 9.19226 19.5783 9.16613C19.5783 9.03892 19.5782 8.91171 19.5782 8.78449C19.5778 7.72954 19.5772 6.67459 19.5764 5.61963C19.5589 5.63337 19.5413 5.64711 19.5232 5.66126C19.442 5.7248 19.3607 5.78826 19.2794 5.85172C19.2518 5.87332 19.2242 5.89491 19.1958 5.91717C19.0114 6.06098 18.8242 6.20017 18.6338 6.33594C18.6048 6.35672 18.5758 6.37749 18.5459 6.39889C18.5228 6.41537 18.4998 6.43185 18.476 6.44883C18.2952 6.57913 18.1184 6.71445 17.9417 6.8501C17.6904 7.04281 17.4366 7.23083 17.1791 7.41494C16.9732 7.56268 16.7716 7.71543 16.5706 7.86963C16.3193 8.06234 16.0655 8.25036 15.808 8.43447C15.6021 8.58221 15.4005 8.73496 15.1995 8.88916C14.9733 9.06262 14.7458 9.2332 14.5139 9.39893C14.2829 9.56409 14.056 9.73383 13.8306 9.9065C13.542 10.1276 13.2511 10.3452 12.9577 10.5598C12.8401 10.6458 12.7235 10.7331 12.6072 10.821C12.577 10.8437 12.5468 10.8664 12.5156 10.8898C12.4576 10.9334 12.3998 10.9772 12.3422 11.0213C12.3161 11.0408 12.29 11.0604 12.2631 11.0805C12.2403 11.0978 12.2175 11.1151 12.194 11.133C12.1089 11.1827 12.046 11.2028 11.9475 11.2095C11.8773 11.1739 11.8773 11.1739 11.8092 11.1176C11.7838 11.0971 11.7583 11.0766 11.7321 11.0555C11.6919 11.0219 11.6919 11.0219 11.6509 10.9876C11.5937 10.9414 11.5365 10.8953 11.4792 10.8493C11.4511 10.8265 11.423 10.8038 11.394 10.7803C11.2903 10.6979 11.1838 10.6218 11.0752 10.5459C10.8666 10.3997 10.6642 10.2461 10.4622 10.0911C10.2331 9.91542 10.0027 9.74254 9.76782 9.57471C9.50371 9.38593 9.2455 9.19016 8.98793 8.99257C8.79309 8.84351 8.5963 8.69783 8.39673 8.55518C8.13262 8.3664 7.87441 8.17062 7.61684 7.97304C7.422 7.82398 7.22521 7.6783 7.02563 7.53565C6.76153 7.34687 6.50331 7.15109 6.24574 6.95351C6.0509 6.80445 5.85411 6.65877 5.65454 6.51612C5.32204 6.27845 4.99761 6.03046 4.67355 5.78146C4.60243 5.72707 4.53088 5.6733 4.45923 5.61963C4.45762 6.69869 4.45638 7.77775 4.45564 8.85681C4.45555 8.98424 4.45546 9.11168 4.45536 9.23911C4.45534 9.27717 4.45534 9.27717 4.45531 9.31599C4.455 9.7266 4.45445 10.1372 4.4538 10.5478C4.45314 10.9692 4.45275 11.3907 4.45261 11.8121C4.45252 12.0488 4.45231 12.2854 4.45179 12.5221C4.45131 12.7449 4.45117 12.9676 4.45127 13.1904C4.45125 13.2721 4.45111 13.3539 4.45084 13.4356C4.45049 13.5473 4.45058 13.659 4.45077 13.7706C4.45046 13.8191 4.45046 13.8191 4.45015 13.8685C4.45145 14.1486 4.48341 14.3975 4.67016 14.6196C4.92144 14.811 5.20773 14.8027 5.50952 14.8152C5.62699 14.8203 5.74445 14.8253 5.86548 14.8306C5.86548 15.2946 5.86548 15.7587 5.86548 16.2368C5.60118 16.2412 5.60118 16.2412 5.33154 16.2456C5.27697 16.2469 5.2224 16.2482 5.16617 16.2495C4.56841 16.2542 4.06259 16.0669 3.62536 15.6511C3.20038 15.2152 3.00664 14.7157 3.00842 14.1124C3.00826 14.0726 3.0081 14.0327 3.00793 13.9917C3.00749 13.8586 3.00755 13.7254 3.00761 13.5923C3.00743 13.4967 3.00716 13.4011 3.00689 13.3056C3.00631 13.073 3.00611 12.8405 3.00607 12.608C3.00604 12.4188 3.00589 12.2297 3.00567 12.0406C3.00505 11.5037 3.00473 10.9669 3.00478 10.43C3.00478 10.4011 3.00479 10.3722 3.00479 10.3424C3.00479 10.3134 3.0048 10.2845 3.0048 10.2547C3.00483 9.78576 3.00415 9.31686 3.00316 8.84796C3.00215 8.36586 3.00167 7.88377 3.00173 7.40167C3.00175 7.13126 3.00156 6.86086 3.0008 6.59045C3.00016 6.36018 3.00001 6.1299 3.00049 5.89963C3.00071 5.78229 3.00065 5.66498 3.00011 5.54765C2.9969 4.79554 3.06131 4.1958 3.60353 3.62562C3.98554 3.25317 4.46023 3.00964 5.00111 3.00903ZM5.30298 4.42432C5.39519 4.51654 5.46682 4.58641 5.56981 4.65888C5.5941 4.67615 5.61839 4.69341 5.64342 4.7112C5.66956 4.72965 5.69571 4.74809 5.72265 4.7671C5.96712 4.94143 6.20742 5.12035 6.44556 5.30323C6.67166 5.4767 6.89926 5.64727 7.1311 5.81299C7.39521 6.00178 7.65342 6.19755 7.91099 6.39513C8.10584 6.54419 8.30262 6.68987 8.5022 6.83252C8.76631 7.02131 9.02452 7.21708 9.28209 7.41466C9.47693 7.56373 9.67372 7.7094 9.87329 7.85205C10.1051 8.01778 10.3327 8.18837 10.5588 8.36182C10.8171 8.55989 11.0774 8.75418 11.3427 8.9428C11.46 9.02636 11.5756 9.1107 11.6877 9.20118C11.7069 9.2165 11.7262 9.23182 11.746 9.2476C11.7962 9.28798 11.8459 9.32907 11.8955 9.37023C11.9796 9.42678 11.9796 9.42678 12.0696 9.39852C12.1723 9.33806 12.263 9.27108 12.3562 9.19678C12.5454 9.0479 12.7376 8.90382 12.9319 8.76172C13.178 8.58142 13.4214 8.39796 13.6636 8.21241C13.8813 8.04567 14.1002 7.88189 14.3246 7.7243C14.5144 7.59006 14.6986 7.44858 14.8831 7.30713C15.086 7.15157 15.289 6.99705 15.4983 6.8501C15.7045 6.70522 15.9047 6.55304 16.1047 6.39966C16.3338 6.22402 16.5642 6.05113 16.7991 5.88331C17.0309 5.71759 17.2585 5.54699 17.4846 5.37354C17.8373 5.10311 18.1944 4.83896 18.559 4.58477C18.6175 4.54382 18.6751 4.50176 18.7327 4.45948C18.7327 4.44788 18.7327 4.43628 18.7327 4.42432C14.3009 4.42432 9.86907 4.42432 5.30298 4.42432Z" fill="#C8C8C8"/>
<path d="M13.7402 12.4062C13.8852 12.4728 13.984 12.5707 14.0945 12.6834C14.1146 12.7036 14.1347 12.7238 14.1554 12.7446C14.2193 12.8089 14.283 12.8734 14.3467 12.938C14.3901 12.9817 14.4335 13.0254 14.4769 13.0691C14.5831 13.1761 14.6891 13.2833 14.7949 13.3906C14.7455 13.5025 14.687 13.5774 14.6004 13.6634C14.5751 13.6887 14.5498 13.7141 14.5237 13.7401C14.4964 13.7671 14.469 13.7941 14.4409 13.8218C14.4129 13.8497 14.3849 13.8776 14.3561 13.9064C14.2667 13.9954 14.177 14.0841 14.0874 14.1729C14.0267 14.2332 13.9661 14.2935 13.9054 14.3539C13.7568 14.5017 13.608 14.6494 13.459 14.7969C13.4949 14.7972 13.5308 14.7975 13.5678 14.7979C14.431 14.8071 15.2062 14.821 15.9902 15.2188C16.0525 15.2496 16.0525 15.2496 16.116 15.2811C16.9689 15.7343 17.6259 16.5405 17.9088 17.4643C18.206 18.4861 18.101 19.4746 17.6118 20.4131C17.3141 20.9377 17.3141 20.9377 17.1504 21.0195C17.1004 20.9802 17.0503 20.9409 17.0003 20.9016C16.9564 20.8671 16.9125 20.8326 16.8686 20.7982C16.7522 20.7067 16.6358 20.6152 16.5196 20.5235C16.4975 20.5061 16.4755 20.4887 16.4527 20.4707C16.4102 20.4373 16.3678 20.4037 16.3254 20.3702C16.2388 20.302 16.1523 20.237 16.0605 20.1758C16.0921 20.0268 16.1668 19.9139 16.2473 19.7869C16.5633 19.2751 16.6746 18.7287 16.5651 18.1323C16.4497 17.659 16.2296 17.2826 15.8848 16.9414C15.864 16.9195 15.8433 16.8975 15.8219 16.8749C15.1717 16.2391 14.2323 16.2734 13.3887 16.2734C13.8527 16.7375 14.3168 17.2016 14.7949 17.6797C14.6607 17.8363 14.5317 17.9823 14.3865 18.1267C14.3689 18.1443 14.3512 18.1619 14.333 18.18C14.2776 18.2353 14.2221 18.2904 14.1665 18.3455C14.1285 18.3833 14.0905 18.4211 14.0525 18.459C13.9602 18.5509 13.8678 18.6426 13.7754 18.7344C13.585 18.5756 13.4083 18.4073 13.2335 18.2316C13.205 18.2031 13.1765 18.1746 13.1471 18.1453C13.0537 18.0518 12.9603 17.9582 12.867 17.8645C12.8019 17.7994 12.7368 17.7343 12.6717 17.6692C12.5184 17.5157 12.3652 17.3622 12.212 17.2086C12.0374 17.0337 11.8627 16.8588 11.6881 16.684C11.329 16.3246 10.9701 15.9651 10.6113 15.6055C10.6608 15.4933 10.7196 15.4182 10.8062 15.3318C10.832 15.3059 10.8579 15.28 10.8845 15.2532C10.9128 15.2252 10.9412 15.1971 10.9704 15.1681C11.0152 15.1233 11.0152 15.1233 11.0608 15.0776C11.1426 14.996 11.2244 14.9144 11.3064 14.833C11.3921 14.7477 11.4775 14.6623 11.563 14.5769C11.7248 14.4153 11.8869 14.2539 12.0489 14.0925C12.2335 13.9087 12.4178 13.7247 12.6022 13.5408C12.9813 13.1624 13.3607 12.7842 13.7402 12.4062Z" fill="#C8C8C8"/>
<path d="M10.1895 12.4062C10.3344 12.4728 10.4332 12.5707 10.5438 12.6834C10.5639 12.7036 10.5839 12.7238 10.6046 12.7446C10.6686 12.8089 10.7322 12.8734 10.7959 12.938C10.8393 12.9817 10.8827 13.0254 10.9261 13.0691C11.0323 13.1761 11.1383 13.2833 11.2441 13.3906C11.1876 13.5318 11.0882 13.6263 10.9819 13.7312C10.9623 13.7507 10.9428 13.7703 10.9226 13.7905C10.8581 13.8549 10.7934 13.9191 10.7286 13.9833C10.6838 14.028 10.6389 14.0728 10.5941 14.1175C10.4763 14.2351 10.3582 14.3525 10.2401 14.4698C10.1195 14.5897 9.99918 14.7097 9.87881 14.8297C9.64271 15.065 9.40639 15.3002 9.16992 15.5352C9.22647 15.6763 9.32589 15.7709 9.43217 15.8757C9.45172 15.8953 9.47128 15.9148 9.49143 15.935C9.55594 15.9994 9.62069 16.0637 9.68546 16.1279C9.7303 16.1726 9.77513 16.2173 9.81994 16.262C9.9378 16.3796 10.0559 16.497 10.174 16.6144C10.2945 16.7342 10.4149 16.8542 10.5352 16.9742C10.7714 17.2096 11.0077 17.4447 11.2441 17.6797C11.1161 17.8323 10.9848 17.9784 10.8434 18.119C10.8265 18.1358 10.8097 18.1526 10.7923 18.17C10.7394 18.2227 10.6863 18.2753 10.6333 18.3279C10.597 18.364 10.5607 18.4002 10.5244 18.4363C10.4363 18.524 10.3481 18.6117 10.2598 18.6992C10.1476 18.6497 10.0725 18.5909 9.98611 18.5043C9.96018 18.4785 9.93426 18.4527 9.90754 18.4261C9.8654 18.3835 9.8654 18.3835 9.82241 18.3402C9.77763 18.2954 9.77763 18.2954 9.73194 18.2497C9.65026 18.168 9.56873 18.0861 9.48726 18.0042C9.40204 17.9185 9.31662 17.833 9.23122 17.7476C9.06959 17.5857 8.90815 17.4237 8.74677 17.2616C8.56301 17.0771 8.37905 16.8927 8.19507 16.7084C7.81667 16.3292 7.43853 15.9499 7.06055 15.5703C7.21937 15.3799 7.38762 15.2033 7.56329 15.0284C7.60603 14.9857 7.60603 14.9857 7.64963 14.9421C7.74313 14.8486 7.83676 14.7552 7.93039 14.6619C7.99552 14.5968 8.06064 14.5317 8.12575 14.4667C8.27919 14.3133 8.43272 14.1601 8.58629 14.0069C8.76125 13.8323 8.93611 13.6577 9.11096 13.483C9.47035 13.124 9.82986 12.7651 10.1895 12.4062Z" fill="#C8C8C8"/>
</svg>
