<svg width="24" height="24" viewBox="0 0 24 24" fill="none" xmlns="http://www.w3.org/2000/svg">
<path d="M6.262 18.012C7.77067 20.0873 9.68333 21.4167 12 22C14.3173 21.4173 16.23 20.0883 17.738 18.013C19.246 15.9377 20 13.6333 20 11.1V5L12 2L4 5V11.1C3.99933 13.6327 4.75333 15.9367 6.262 18.012Z" fill="#C8C8C8"/>
<path d="M14.5 8.5C14.5 9.88071 13.3807 11 12 11C10.6193 11 9.5 9.88071 9.5 8.5C9.5 7.11929 10.6193 6 12 6C13.3807 6 14.5 7.11929 14.5 8.5Z" fill="#0A0A0A"/>
<path fill-rule="evenodd" clip-rule="evenodd" d="M11.7632 12C9.40868 12 7.5 13.6966 7.5 15.7895C7.5 15.9057 7.60604 16 7.73684 16H16.2632C16.394 16 16.5 15.9057 16.5 15.7895C16.5 13.6966 14.5913 12 12.2368 12H11.7632ZM11.5043 15.2732L14.171 13.051L13.829 12.7268L11.3333 14.8065L10.171 13.8379L9.82901 14.1621L11.1623 15.2732L11.3333 15.4157L11.5043 15.2732Z" fill="#0A0A0A"/>
</svg>
