<svg width="24" height="24" viewBox="0 0 24 24" fill="none" xmlns="http://www.w3.org/2000/svg">
<path d="M7.25 9.75C7.25 10.7165 6.4665 11.5 5.5 11.5C4.5335 11.5 3.75 10.7165 3.75 9.75C3.75 8.7835 4.5335 8 5.5 8C6.4665 8 7.25 8.7835 7.25 9.75Z" fill="#C8C8C8"/>
<path d="M20.25 9.75C20.25 10.7165 19.4665 11.5 18.5 11.5C17.5335 11.5 16.75 10.7165 16.75 9.75C16.75 8.7835 17.5335 8 18.5 8C19.4665 8 20.25 8.7835 20.25 9.75Z" fill="#C8C8C8"/>
<path d="M16.5 7.5C16.5 9.98528 14.4853 12 12 12C9.51472 12 7.5 9.98528 7.5 7.5C7.5 5.01472 9.51472 3 12 3C14.4853 3 16.5 5.01472 16.5 7.5Z" fill="#C8C8C8"/>
<path d="M4.5 20.5748C4.5 16.4326 7.85786 13 12 13C16.1421 13 19.5 16.4326 19.5 20.5748C19.5 20.8073 19.3115 21 19.0789 21H4.92105C4.68851 21 4.5 20.8073 4.5 20.5748Z" fill="#C8C8C8"/>
<path fill-rule="evenodd" clip-rule="evenodd" d="M5.5 12C3.567 12 2 13.567 2 15.5V15.7895C2 15.9057 2.09426 16 2.21053 16H4.78755C5.56868 14.7507 6.66539 13.7189 7.96606 13.0163C7.33339 12.3881 6.46202 12 5.5 12Z" fill="#C8C8C8"/>
<path fill-rule="evenodd" clip-rule="evenodd" d="M19.2098 16H21.7868C21.903 16 21.9973 15.9057 21.9973 15.7895V15.5C21.9973 13.567 20.4303 12 18.4973 12C17.5353 12 16.6639 12.3881 16.0312 13.0163C17.3319 13.7189 18.4286 14.7507 19.2098 16Z" fill="#C8C8C8"/>
</svg>
