<svg width="24" height="24" viewBox="0 0 24 24" fill="none" xmlns="http://www.w3.org/2000/svg">
<path d="M6.25684 5.73535C5.51019 6.41993 4.88906 7.23355 4.42676 8.14062C3.81785 9.33568 3.50007 10.6588 3.5 12C3.5 13.3413 3.8179 14.6643 4.42676 15.8594C4.88899 16.7664 5.51029 17.5801 6.25684 18.2646L5.24316 19.3701C4.36461 18.5648 3.6337 17.6074 3.08984 16.54C2.37352 15.134 2 13.578 2 12C2.00007 10.4221 2.37347 8.86593 3.08984 7.45996C3.63387 6.39237 4.36429 5.43436 5.24316 4.62891L6.25684 5.73535Z" fill="#32FF64"/>
<path d="M8.77441 8.48047C8.51325 8.7939 8.28615 9.13594 8.09961 9.50195C7.70564 10.2752 7.50007 11.1312 7.5 11.999C7.5 12.8668 7.70569 13.7228 8.09961 14.4961C8.28597 14.8618 8.51356 15.2034 8.77441 15.5166L7.75391 16.6309C7.36542 16.1909 7.03094 15.7032 6.7627 15.1768C6.26139 14.1927 6 13.1035 6 11.999C6.00007 10.8946 6.26134 9.80535 6.7627 8.82129C7.03101 8.29476 7.36531 7.80716 7.75391 7.36719L8.77441 8.48047Z" fill="#32FF64"/>
<path d="M16.2461 7.36719C16.6349 7.80729 16.9699 8.29456 17.2383 8.82129C17.7397 9.80535 18.0009 10.8946 18.001 11.999C18.001 13.1035 17.7396 14.1926 17.2383 15.1768C16.9699 15.7035 16.6348 16.1908 16.2461 16.6309L15.2266 15.5176C15.4877 15.2042 15.7149 14.8621 15.9014 14.4961C16.2953 13.7228 16.501 12.8669 16.501 11.999C16.5009 11.1312 16.2954 10.2752 15.9014 9.50195C15.7148 9.13593 15.4878 8.7939 15.2266 8.48047L16.2461 7.36719Z" fill="#32FF64"/>
<path d="M18.7549 4.62891C19.634 5.43446 20.365 6.39213 20.9092 7.45996C21.6255 8.86593 21.9989 10.4221 21.999 12C21.999 13.578 21.6256 15.134 20.9092 16.54C20.3652 17.6077 19.6347 18.5656 18.7558 19.3711L17.7422 18.2646C18.4888 17.58 19.11 16.7665 19.5723 15.8594C20.1812 14.6642 20.499 13.3413 20.499 12C20.4989 10.6588 20.1812 9.33568 19.5723 8.14062C19.1098 7.23333 18.4891 6.41904 17.7422 5.73438L18.7549 4.62891Z" fill="#32FF64"/>
<path d="M12 13.5C12.8284 13.5 13.5 12.8284 13.5 12C13.5 11.1716 12.8284 10.5 12 10.5C11.1716 10.5 10.5 11.1716 10.5 12C10.5 12.8284 11.1716 13.5 12 13.5Z" fill="#32FF64"/>
</svg>
