<svg width="24" height="24" viewBox="0 0 24 24" fill="none" xmlns="http://www.w3.org/2000/svg">
<path d="M8.87451 2.59961C8.47182 2.97011 8.13688 3.4104 7.88721 3.90039C7.55685 4.54876 7.38432 5.26647 7.38428 5.99414C7.38432 6.72167 7.55698 7.43963 7.88721 8.08789C8.13837 8.5807 8.4764 9.02288 8.88232 9.39453L8.33252 9.99414C7.8549 9.55688 7.4571 9.03694 7.16162 8.45703C6.77309 7.69434 6.57084 6.8501 6.5708 5.99414C6.57084 5.13803 6.77296 4.29307 7.16162 3.53027C7.45557 2.95348 7.85041 2.43586 8.32471 2L8.87451 2.59961Z" fill="#C5BDB3"/>
<path d="M10.2451 4.09082C10.0999 4.26359 9.97424 4.45289 9.87109 4.65527C9.65748 5.07464 9.54597 5.53913 9.5459 6.00977C9.5459 6.48042 9.65753 6.94485 9.87109 7.36426C9.97227 7.56283 10.0956 7.74881 10.2373 7.91895L9.68457 8.52246C9.47392 8.28395 9.29199 8.01986 9.14648 7.73438C8.8745 7.20045 8.73242 6.60898 8.73242 6.00977C8.73249 5.41057 8.87446 4.81904 9.14648 4.28516C9.29385 3.99609 9.47829 3.72911 9.69238 3.48828L10.2451 4.09082Z" fill="#C5BDB3"/>
<path d="M14.2832 3.48438C14.4976 3.72546 14.6826 3.99278 14.8301 4.28223C15.1021 4.81617 15.2441 5.4076 15.2441 6.00684C15.2441 6.60604 15.1021 7.19755 14.8301 7.73145C14.6832 8.01947 14.4992 8.28523 14.2861 8.52539L13.7334 7.92188C13.8775 7.74998 14.003 7.56244 14.1055 7.36133C14.3191 6.94195 14.4306 6.47748 14.4307 6.00684C14.4307 5.53615 14.3191 5.07177 14.1055 4.65234C14.0023 4.44978 13.8768 4.25981 13.7314 4.08691L14.2832 3.48438Z" fill="#C5BDB3"/>
<path d="M15.6499 2.00391C16.1282 2.44143 16.526 2.9615 16.8218 3.54199C17.2104 4.30479 17.4126 5.14878 17.4126 6.00488C17.4126 6.86108 17.2105 7.70587 16.8218 8.46875C16.5269 9.04728 16.13 9.56528 15.6538 10.002L15.105 9.40234C15.5094 9.03113 15.8457 8.59015 16.0962 8.09863C16.4266 7.45019 16.5991 6.73265 16.5991 6.00488C16.5991 5.27721 16.4266 4.5595 16.0962 3.91113C15.8448 3.41795 15.5074 2.97533 15.1011 2.60352L15.6499 2.00391Z" fill="#C5BDB3"/>
<circle cx="12.0013" cy="6.00914" r="0.813825" fill="#C5BDB3"/>
<rect x="4" y="12" width="16" height="10" fill="#C5BDB3"/>
<path d="M17.0599 16.3581V17.2581H15.7009V19.1031H17.4109V20.0031H14.7109V13.7031H17.4109V14.6031H15.7009V16.3581H17.0599Z" fill="#0F0F0F"/>
<path d="M13.4251 13.7031H14.3341L13.3621 20.0031H11.8861L10.9141 13.7031H11.9131L12.6691 18.8421L13.4251 13.7031Z" fill="#0F0F0F"/>
<path d="M10.5447 13.7031V20.0031H9.55469V13.7031H10.5447Z" fill="#0F0F0F"/>
<path d="M7.58375 13.7031V19.1031H9.21275V20.0031H6.59375V13.7031H7.58375Z" fill="#0F0F0F"/>
</svg>
