<svg width="24" height="24" viewBox="0 0 24 24" fill="none" xmlns="http://www.w3.org/2000/svg">
<path d="M8.87402 2.59961C8.47133 2.97011 8.13639 3.4104 7.88672 3.90039C7.55636 4.54876 7.38383 5.26647 7.38379 5.99414C7.38383 6.72167 7.55649 7.43963 7.88672 8.08789C8.13788 8.5807 8.47591 9.02288 8.88183 9.39453L8.33203 9.99414C7.85441 9.55688 7.45661 9.03694 7.16113 8.45703C6.7726 7.69434 6.57035 6.8501 6.57031 5.99414C6.57035 5.13803 6.77247 4.29307 7.16113 3.53027C7.45508 2.95348 7.84992 2.43586 8.32422 2L8.87402 2.59961Z" fill="#C8C8C8"/>
<path d="M10.2451 4.09082C10.0999 4.26359 9.97424 4.45289 9.87109 4.65527C9.65748 5.07464 9.54597 5.53913 9.5459 6.00977C9.5459 6.48042 9.65753 6.94485 9.87109 7.36426C9.97227 7.56283 10.0956 7.74881 10.2373 7.91895L9.68457 8.52246C9.47392 8.28395 9.29199 8.01986 9.14648 7.73438C8.8745 7.20045 8.73242 6.60898 8.73242 6.00977C8.73249 5.41057 8.87446 4.81904 9.14648 4.28516C9.29385 3.99609 9.47829 3.72911 9.69238 3.48828L10.2451 4.09082Z" fill="#C8C8C8"/>
<path d="M14.2823 3.48438C14.4967 3.72546 14.6817 3.99277 14.8292 4.28222C15.1012 4.81616 15.2432 5.4076 15.2432 6.00684C15.2432 6.60604 15.1012 7.19755 14.8292 7.73145C14.6823 8.01947 14.4983 8.28522 14.2852 8.52538L13.7325 7.92188C13.8766 7.74997 14.0021 7.56244 14.1046 7.36133C14.3182 6.94195 14.4297 6.47748 14.4298 6.00684C14.4298 5.53615 14.3182 5.07176 14.1046 4.65233C14.0014 4.44977 13.8759 4.2598 13.7305 4.0869L14.2823 3.48438Z" fill="#C8C8C8"/>
<path d="M15.6504 2.00391C16.1287 2.44143 16.5265 2.9615 16.8223 3.54199C17.2109 4.30479 17.4131 5.14878 17.4131 6.00488C17.4131 6.86108 17.211 7.70587 16.8223 8.46875C16.5274 9.04728 16.1305 9.56528 15.6543 10.002L15.1055 9.40234C15.5099 9.03113 15.8462 8.59015 16.0967 8.09863C16.4271 7.45019 16.5996 6.73265 16.5996 6.00488C16.5996 5.27721 16.4271 4.5595 16.0967 3.91113C15.8453 3.41795 15.5079 2.97533 15.1016 2.60352L15.6504 2.00391Z" fill="#C8C8C8"/>
<path d="M12.0013 6.82296C12.4508 6.82296 12.8152 6.4586 12.8152 6.00914C12.8152 5.55967 12.4508 5.19531 12.0013 5.19531C11.5519 5.19531 11.1875 5.55967 11.1875 6.00914C11.1875 6.4586 11.5519 6.82296 12.0013 6.82296Z" fill="#C8C8C8"/>
<path d="M20 12H4V22H20V12Z" fill="#C8C8C8"/>
<path d="M17.0599 16.3581V17.2581H15.7009V19.1031H17.4109V20.0031H14.7109V13.7031H17.4109V14.6031H15.7009V16.3581H17.0599Z" fill="#1E1E1E"/>
<path d="M13.4251 13.7031H14.3341L13.3621 20.0031H11.8861L10.9141 13.7031H11.9131L12.6691 18.8421L13.4251 13.7031Z" fill="#1E1E1E"/>
<path d="M10.5447 13.7031V20.0031H9.55469V13.7031H10.5447Z" fill="#1E1E1E"/>
<path d="M7.58375 13.7031V19.1031H9.21275V20.0031H6.59375V13.7031H7.58375Z" fill="#1E1E1E"/>
</svg>
