<svg width="24" height="24" viewBox="0 0 24 24" fill="none" xmlns="http://www.w3.org/2000/svg">
<path d="M6.25684 5.73535C5.51019 6.41993 4.88906 7.23355 4.42676 8.14062C3.81785 9.33568 3.50007 10.6588 3.5 12C3.5 13.3413 3.8179 14.6643 4.42676 15.8594C4.88899 16.7664 5.51029 17.5801 6.25684 18.2646L5.24316 19.3701C4.36461 18.5648 3.6337 17.6074 3.08984 16.54C2.37352 15.134 2 13.578 2 12C2.00007 10.4221 2.37347 8.86593 3.08984 7.45996C3.63387 6.39237 4.36429 5.43436 5.24316 4.62891L6.25684 5.73535Z" fill="#C5BDB3"/>
<path d="M8.77441 8.48047C8.51325 8.7939 8.28615 9.13594 8.09961 9.50195C7.70564 10.2752 7.50007 11.1312 7.5 11.999C7.5 12.8668 7.70569 13.7228 8.09961 14.4961C8.28597 14.8618 8.51356 15.2034 8.77441 15.5166L7.75391 16.6309C7.36542 16.1909 7.03094 15.7032 6.7627 15.1768C6.26139 14.1927 6 13.1035 6 11.999C6.00007 10.8946 6.26134 9.80535 6.7627 8.82129C7.03101 8.29476 7.36531 7.80716 7.75391 7.36719L8.77441 8.48047Z" fill="#C5BDB3"/>
<path d="M16.2451 7.36719C16.6339 7.80729 16.9689 8.29456 17.2373 8.82129C17.7387 9.80535 17.9999 10.8946 18 11.999C18 13.1035 17.7386 14.1926 17.2373 15.1768C16.9689 15.7035 16.6338 16.1908 16.2451 16.6309L15.2256 15.5176C15.4867 15.2042 15.7139 14.8621 15.9004 14.4961C16.2943 13.7228 16.5 12.8669 16.5 11.999C16.4999 11.1312 16.2944 10.2752 15.9004 9.50195C15.7138 9.13593 15.4868 8.7939 15.2256 8.48047L16.2451 7.36719Z" fill="#C5BDB3"/>
<path d="M18.7554 4.62891C19.6345 5.43446 20.3655 6.39213 20.9097 7.45996C21.626 8.86593 21.9994 10.4221 21.9995 12C21.9995 13.578 21.6261 15.134 20.9097 16.54C20.3657 17.6077 19.6352 18.5656 18.7563 19.3711L17.7427 18.2646C18.4893 17.58 19.1105 16.7665 19.5728 15.8594C20.1817 14.6642 20.4995 13.3413 20.4995 12C20.4994 10.6588 20.1817 9.33568 19.5728 8.14062C19.1103 7.23333 18.4896 6.41904 17.7427 5.73438L18.7554 4.62891Z" fill="#C5BDB3"/>
<circle cx="12" cy="12" r="1.5" fill="#C5BDB3"/>
</svg>
