<svg width="24" height="24" viewBox="0 0 24 24" fill="none" xmlns="http://www.w3.org/2000/svg">
<path d="M21.7071 11.5293L2.76298 2.05725C2.33963 1.84558 1.87383 2.25677 2.03136 2.70311L4.65439 10.135C4.7169 10.3121 4.86906 10.4425 5.05367 10.4771L12.6239 11.8965C12.7384 11.918 12.7384 12.082 12.6239 12.1035L5.05367 13.5229C4.86906 13.5575 4.7169 13.6879 4.65439 13.865L2.03136 21.2969C1.87383 21.7432 2.33963 22.1544 2.76298 21.9428L21.7071 12.4707C22.0949 12.2768 22.0949 11.7232 21.7071 11.5293Z" fill="#C8C8C8"/>
<path fill-rule="evenodd" clip-rule="evenodd" d="M20.1892 5.28033L18.4696 7L19.5302 8.06066L23.0605 4.53033L19.5302 1L18.4696 2.06066L20.1892 3.78033H15.9999V5.28033H20.1892Z" fill="#C8C8C8"/>
</svg>
