<svg width="24" height="24" viewBox="0 0 24 24" fill="none" xmlns="http://www.w3.org/2000/svg">
<path d="M9.65847 22C9.40619 22 9.19343 21.8121 9.16229 21.5617L8.85572 19.0968C8.83298 18.914 8.71036 18.7611 8.54421 18.6816C8.42874 18.6264 8.31728 18.5658 8.20984 18.5C8.09893 18.432 7.98925 18.3612 7.88081 18.2876C7.73571 18.1891 7.55084 18.1667 7.38927 18.2349L5.09659 19.2031C4.86407 19.3013 4.59482 19.2108 4.46883 18.992L2.17266 15.0061C2.04713 14.7882 2.10299 14.5109 2.30311 14.3586L4.2818 12.8527C4.42598 12.743 4.49469 12.5639 4.49091 12.3827C4.4906 12.3677 4.49044 12.3528 4.49044 12.338V11.663C4.49044 11.6478 4.4906 11.6326 4.49092 11.6173C4.49474 11.4361 4.42598 11.257 4.2818 11.1473L2.30311 9.64136C2.10299 9.48905 2.04713 9.21181 2.17266 8.9939L4.46883 5.00796C4.59482 4.78925 4.86407 4.69874 5.09659 4.79693L7.38874 5.76483C7.5506 5.83317 7.73566 5.81036 7.88178 5.71281C7.99229 5.63903 8.10562 5.5681 8.22178 5.5C8.33291 5.43485 8.44403 5.3749 8.55516 5.32015C8.71593 5.24094 8.83244 5.09029 8.85456 4.91244L9.16229 2.43829C9.19343 2.18794 9.40619 2 9.65847 2H14.2478C14.5001 2 14.7128 2.18794 14.744 2.43829L15.0505 4.90318C15.0733 5.08596 15.1959 5.23896 15.3621 5.31833C15.4778 5.37357 15.5895 5.43413 15.6974 5.5C15.8081 5.56761 15.9173 5.63802 16.0249 5.71123C16.1704 5.81024 16.3559 5.83307 16.518 5.76461L18.8097 4.79693C19.0422 4.69874 19.3114 4.78925 19.4374 5.00796L21.7336 8.9939C21.8591 9.21181 21.8033 9.48906 21.6031 9.64136L19.6244 11.1473C19.4803 11.257 19.4115 11.4361 19.4153 11.6173C19.4157 11.6326 19.4158 11.6478 19.4158 11.663V12.337C19.4158 12.5427 19.4738 12.757 19.6375 12.8815L21.5783 14.3586C21.7784 14.5109 21.8342 14.7882 21.7087 15.0061L19.4132 18.9909C19.2869 19.2101 19.0168 19.3004 18.7841 19.2013L16.5181 18.2364C16.356 18.1673 16.1702 18.1899 16.0236 18.2877C15.9134 18.3613 15.8003 18.4321 15.6845 18.5C15.5733 18.5651 15.4622 18.6251 15.3511 18.6799C15.1903 18.7591 15.0738 18.9097 15.0517 19.0876L14.744 21.5617C14.7128 21.8121 14.5001 22 14.2478 22H9.65847ZM12.0029 15.5C12.9647 15.5 13.7856 15.1583 14.4656 14.475C15.1455 13.7917 15.4855 12.9667 15.4855 12C15.4855 11.0333 15.1455 10.2083 14.4656 9.525C13.7856 8.84167 12.9647 8.5 12.0029 8.5C11.0244 8.5 10.1992 8.84167 9.52726 9.525C8.85528 10.2083 8.51963 11.0333 8.52029 12C8.52095 12.9667 8.85694 13.7917 9.52825 14.475C10.1996 15.1583 11.0244 15.5 12.0029 15.5Z" fill="#C5BDB3"/>
</svg>
