<svg width="24" height="24" viewBox="0 0 24 24" fill="none" xmlns="http://www.w3.org/2000/svg">
<path d="M9.65806 22C9.40578 22 9.19302 21.8121 9.16188 21.5617L8.85531 19.0968C8.83257 18.914 8.70995 18.7611 8.5438 18.6816C8.42833 18.6264 8.31687 18.5658 8.20943 18.5C8.09852 18.432 7.98884 18.3612 7.8804 18.2876C7.7353 18.1891 7.55043 18.1667 7.38886 18.2349L5.09618 19.2031C4.86366 19.3013 4.59441 19.2108 4.46842 18.992L2.17225 15.0061C2.04672 14.7882 2.10258 14.5109 2.3027 14.3586L4.28139 12.8527C4.42557 12.743 4.49428 12.5639 4.4905 12.3827C4.49019 12.3677 4.49003 12.3528 4.49003 12.338V11.663C4.49003 11.6478 4.49019 11.6326 4.49051 11.6173C4.49433 11.4361 4.42557 11.257 4.28139 11.1473L2.3027 9.64136C2.10258 9.48905 2.04672 9.21181 2.17225 8.9939L4.46842 5.00796C4.59441 4.78925 4.86366 4.69874 5.09618 4.79693L7.38833 5.76483C7.55019 5.83317 7.73525 5.81036 7.88137 5.71281C7.99188 5.63903 8.10521 5.5681 8.22137 5.5C8.3325 5.43485 8.44362 5.3749 8.55475 5.32015C8.71552 5.24094 8.83203 5.09029 8.85415 4.91244L9.16188 2.43829C9.19302 2.18794 9.40578 2 9.65806 2H14.2474C14.4997 2 14.7124 2.18794 14.7436 2.43829L15.0501 4.90318C15.0729 5.08596 15.1955 5.23896 15.3617 5.31833C15.4774 5.37357 15.5891 5.43413 15.697 5.5C15.8077 5.56761 15.9169 5.63802 16.0245 5.71123C16.17 5.81024 16.3555 5.83307 16.5176 5.76461L18.8093 4.79693C19.0418 4.69874 19.311 4.78925 19.437 5.00796L21.7332 8.9939C21.8587 9.21181 21.8029 9.48906 21.6027 9.64136L19.624 11.1473C19.4799 11.257 19.4111 11.4361 19.4149 11.6173C19.4153 11.6326 19.4154 11.6478 19.4154 11.663V12.337C19.4154 12.5427 19.4734 12.757 19.6371 12.8815L21.5779 14.3586C21.778 14.5109 21.8338 14.7882 21.7083 15.0061L19.4128 18.9909C19.2865 19.2101 19.0164 19.3004 18.7837 19.2013L16.5177 18.2364C16.3556 18.1673 16.1698 18.1899 16.0232 18.2877C15.913 18.3613 15.7999 18.4321 15.6841 18.5C15.5729 18.5651 15.4618 18.6251 15.3507 18.6799C15.1899 18.7591 15.0734 18.9097 15.0513 19.0876L14.7436 21.5617C14.7124 21.8121 14.4997 22 14.2474 22H9.65806ZM12.0025 15.5C12.9643 15.5 13.7852 15.1583 14.4652 14.475C15.1451 13.7917 15.4851 12.9667 15.4851 12C15.4851 11.0333 15.1451 10.2083 14.4652 9.525C13.7852 8.84167 12.9643 8.5 12.0025 8.5C11.024 8.5 10.1988 8.84167 9.52685 9.525C8.85487 10.2083 8.51922 11.0333 8.51988 12C8.52054 12.9667 8.85653 13.7917 9.52784 14.475C10.1992 15.1583 11.024 15.5 12.0025 15.5Z" fill="#C8C8C8"/>
</svg>
