<svg width="24" height="24" viewBox="0 0 24 24" fill="none" xmlns="http://www.w3.org/2000/svg">
<path d="M6.02724 10.5982C6.02724 10.0836 6.15134 9.69012 6.39954 9.4177C6.64774 9.13923 7.01399 9 7.49828 9C7.98257 9 8.34882 9.13923 8.59702 9.4177C8.84522 9.69012 8.96932 10.0836 8.96932 10.5982V10.7979H8.02495V10.5346C8.02495 10.3167 7.98257 10.1593 7.89782 10.0624C7.81307 9.9595 7.68897 9.90805 7.52552 9.90805C7.36207 9.90805 7.23797 9.9595 7.15322 10.0624C7.06847 10.1593 7.02609 10.3167 7.02609 10.5346C7.02609 10.801 7.09571 11.034 7.23495 11.2338C7.38023 11.4336 7.59514 11.6606 7.87966 11.9148C8.11575 12.1328 8.30644 12.3265 8.45173 12.496C8.59702 12.6594 8.72112 12.8592 8.82403 13.0953C8.92694 13.3314 8.9784 13.6008 8.9784 13.9035C8.9784 14.418 8.85127 14.8145 8.59702 15.093C8.34276 15.3654 7.97349 15.5016 7.4892 15.5016C7.00491 15.5016 6.63563 15.3654 6.38138 15.093C6.12713 14.8145 6 14.418 6 13.9035V13.513H6.94437V13.967C6.94437 14.3787 7.1169 14.5845 7.46196 14.5845C7.80702 14.5845 7.97955 14.3787 7.97955 13.967C7.97955 13.7007 7.9069 13.4676 7.76161 13.2678C7.62238 13.0681 7.4105 12.841 7.12598 12.5868C6.88989 12.3689 6.6992 12.1782 6.55391 12.0147C6.40862 11.8452 6.28452 11.6424 6.18161 11.4063C6.0787 11.1702 6.02724 10.9008 6.02724 10.5982Z" fill="#FF3232"/>
<path d="M10.5495 13.4767V15.429H9.55068V9.07264H10.5495V11.8422L11.8571 9.07264H12.856L11.4667 11.9058L12.856 15.429H11.8299L10.8583 12.8955L10.5495 13.4767Z" fill="#FF3232"/>
<path d="M14.3094 9.07264V15.429H13.3106V9.07264H14.3094Z" fill="#FF3232"/>
<path d="M16.5108 9.07264C17.0072 9.07264 17.3795 9.20582 17.6277 9.47218C17.8759 9.73855 18 10.129 18 10.6436V11.4699C18 11.9845 17.8759 12.3749 17.6277 12.6413C17.3795 12.9076 17.0072 13.0408 16.5108 13.0408H16.0386V15.429H15.0398V9.07264H16.5108ZM16.0386 12.1328H16.5108C16.6742 12.1328 16.7953 12.0874 16.874 11.9966C16.9588 11.9058 17.0011 11.7514 17.0011 11.5335V10.58C17.0011 10.3621 16.9588 10.2077 16.874 10.1169C16.7953 10.0261 16.6742 9.98069 16.5108 9.98069H16.0386V12.1328Z" fill="#FF3232"/>
<path fill-rule="evenodd" clip-rule="evenodd" d="M7.63699 4.70522C9.35815 3.67579 11.3879 3.28811 13.3673 3.61071C14.7968 3.84368 16.1335 4.43627 17.2575 5.32106L15 5.32107L15 6.82107L19.0711 6.82105L19.8211 6.82104V6.07105V2.00002L18.3211 2.00002V4.25118C16.9711 3.15001 15.3482 2.41377 13.6086 2.13024C11.2799 1.75071 8.89195 2.20681 6.86705 3.4179C4.84215 4.62899 3.3107 6.51705 2.54347 8.74825C1.77623 10.9795 1.82264 13.4101 2.67448 15.6104C3.52633 17.8107 5.12874 19.6389 7.19838 20.7718C9.26803 21.9047 11.6716 22.2693 13.9841 21.8012C16.2967 21.3331 18.3692 20.0623 19.8352 18.2136C21.3013 16.365 22.0665 14.0574 21.9955 11.6991L20.4962 11.7442C20.5565 13.7488 19.9061 15.7102 18.66 17.2816C17.4138 18.853 15.6522 19.9331 13.6865 20.331C11.7209 20.729 9.67783 20.419 7.91863 19.4561C6.15943 18.4931 4.79738 16.9391 4.07331 15.0688C3.34925 13.1986 3.3098 11.1325 3.96195 9.23602C4.6141 7.33949 5.91583 5.73464 7.63699 4.70522Z" fill="#C8C8C8"/>
</svg>
