<svg width="24" height="24" viewBox="0 0 24 24" fill="none" xmlns="http://www.w3.org/2000/svg">
<g clip-path="url(#clip0_2776_42813)">
<path d="M14.2924 10.236C14.2586 10.2622 14.2248 10.2809 14.1911 10.2884C14.2023 10.322 14.1835 10.3631 14.1385 10.3631C13.5416 10.3856 12.9447 10.4417 12.3478 10.4753C12.3365 10.4791 12.3327 10.4604 12.344 10.4566C12.5129 10.408 12.6856 10.3669 12.8621 10.337C12.6406 10.3631 12.4191 10.3968 12.2013 10.4379C12.13 10.4492 12.0587 10.4305 12.0211 10.3631C11.9949 10.3183 11.9911 10.251 12.0211 10.2061C12.0399 10.1836 12.0587 10.1612 12.0737 10.1388C12.0549 10.1238 12.0399 10.1014 12.0324 10.0827C12.0061 9.98916 12.1075 9.87697 12.1563 9.80217C12.2802 9.6077 12.4153 9.41696 12.558 9.22997C12.603 9.17013 12.6518 9.1103 12.7006 9.0542C12.8508 8.85972 13.0122 8.67273 13.1812 8.49322L12.7495 8.5942C12.6669 8.61289 12.5843 8.63159 12.5017 8.65029C12.4529 8.66151 12.4078 8.67647 12.359 8.66151C12.3365 8.65403 12.3252 8.63533 12.3177 8.61663C12.1938 8.57924 12.16 8.4259 12.2164 8.32493C12.2164 8.27631 12.2239 8.23143 12.2464 8.18281C12.2652 8.14167 12.3252 8.12297 12.3703 8.13419C12.389 8.14167 12.4191 8.13419 12.4416 8.13045C12.4566 8.11923 12.4754 8.11175 12.4942 8.11175C12.9146 8.08183 13.3351 8.05192 13.7443 7.93972C13.7856 7.9285 13.8307 7.93224 13.8644 7.95468C13.8719 7.95094 13.8757 7.95094 13.8832 7.95468C13.9245 7.95842 13.9658 7.96964 13.9921 8.0033C14.0296 8.0033 14.0634 8.00704 14.0972 8.01452C14.1723 8.03696 14.2098 8.14541 14.146 8.20151C13.9696 8.3511 13.8156 8.53436 13.6617 8.70265C13.504 8.87468 13.3464 9.04672 13.1962 9.22249C13.0423 9.39826 12.8921 9.57778 12.7419 9.75729C12.6781 9.83583 12.6068 9.9181 12.5392 9.99664C12.5542 9.99664 12.5693 9.9929 12.5843 9.98916L12.6068 9.96298C12.6631 9.89567 12.7157 9.82461 12.772 9.75729C12.8808 9.62266 12.9935 9.49176 13.1099 9.36087C13.3426 9.09908 13.5829 8.84851 13.8382 8.60915C13.8757 8.5755 13.932 8.63159 13.8945 8.66525C13.6467 8.90834 13.4027 9.15891 13.1662 9.41696C13.046 9.54412 12.9297 9.67127 12.817 9.80591L12.6744 9.9742C12.8658 9.94428 13.061 9.93306 13.2525 9.9181C13.3952 9.90688 13.5378 9.89941 13.6842 9.89193C13.8269 9.88445 13.9696 9.87323 14.1122 9.88071C14.1911 9.88071 14.2586 9.92558 14.2887 9.9929C14.3637 10.0527 14.3675 10.1687 14.2924 10.236ZM12.5467 8.50444C12.5317 8.54932 12.5017 8.58298 12.4566 8.60541C12.4566 8.60541 12.4566 8.60915 12.4529 8.60915C12.4641 8.60915 12.4754 8.60541 12.4867 8.60167L12.8771 8.47826C12.9822 8.44834 13.0836 8.41468 13.1849 8.38476C12.9709 8.4259 12.757 8.46704 12.5467 8.50444Z" fill="#7E8AC7"/>
<path d="M19.8913 6.6058C19.8237 6.65817 19.7562 6.69558 19.6886 6.71054C19.7111 6.77787 19.6736 6.86017 19.5835 6.86017C18.3897 6.90505 17.1959 7.01727 16.0021 7.08461C15.9796 7.09209 15.9721 7.05468 15.9946 7.0472C16.3325 6.94994 16.6778 6.86765 17.0307 6.8078C16.5878 6.86017 16.1448 6.9275 15.7093 7.00979C15.5667 7.03224 15.424 6.99483 15.3489 6.86017C15.2964 6.77039 15.2889 6.63573 15.3489 6.54595C15.3865 6.50106 15.424 6.45617 15.454 6.41128C15.4165 6.38136 15.3865 6.33647 15.3714 6.29906C15.3189 6.11203 15.5216 5.88759 15.6192 5.73796C15.867 5.34893 16.1373 4.96739 16.4226 4.59332C16.5127 4.47362 16.6103 4.35392 16.7079 4.2417C17.0082 3.85267 17.331 3.4786 17.6689 3.11949L16.8055 3.32149C16.6403 3.3589 16.4751 3.3963 16.31 3.43371C16.2123 3.45615 16.1223 3.48608 16.0246 3.45615C15.9796 3.44119 15.9571 3.40379 15.9421 3.36638C15.6943 3.29156 15.6267 2.98483 15.7393 2.78283C15.7393 2.68558 15.7544 2.5958 15.7994 2.49854C15.8369 2.41625 15.9571 2.37884 16.0472 2.40129C16.0847 2.41625 16.1448 2.40129 16.1898 2.3938C16.2199 2.37136 16.2574 2.3564 16.2949 2.3564C17.1358 2.29655 17.9767 2.2367 18.7951 2.01226C18.8777 1.98981 18.9678 1.99729 19.0354 2.04218C19.0504 2.0347 19.0579 2.0347 19.0729 2.04218C19.1555 2.04966 19.2381 2.07211 19.2907 2.13944C19.3657 2.13944 19.4333 2.14692 19.5009 2.16188C19.651 2.20677 19.7261 2.42373 19.5985 2.53595C19.2456 2.8352 18.9378 3.20179 18.6299 3.53845C18.3146 3.88259 17.9993 4.22673 17.6989 4.57836C17.3911 4.92998 17.0908 5.28908 16.7905 5.64819C16.6628 5.8053 16.5202 5.96989 16.385 6.12699C16.4151 6.12699 16.4451 6.11951 16.4751 6.11203L16.5202 6.05966C16.6328 5.925 16.7379 5.78285 16.8505 5.64819C17.0683 5.37886 17.2935 5.11701 17.5263 4.85517C17.9918 4.33147 18.4723 3.83022 18.9828 3.35142C19.0579 3.28408 19.1705 3.3963 19.0954 3.46364C18.5999 3.94992 18.1119 4.45117 17.6389 4.96739C17.3986 5.22175 17.1659 5.47612 16.9406 5.74545L16.6553 6.08211C17.0382 6.02225 17.4287 5.99981 17.8116 5.96989C18.0969 5.94744 18.3822 5.93248 18.675 5.91752C18.9603 5.90255 19.2456 5.88011 19.5309 5.89507C19.6886 5.89507 19.8237 5.98485 19.8838 6.11951C20.0339 6.23921 20.0415 6.47114 19.8913 6.6058ZM16.4 3.14194C16.37 3.23171 16.31 3.29905 16.2199 3.34393C16.2199 3.34393 16.2199 3.35142 16.2123 3.35142C16.2349 3.35142 16.2574 3.34393 16.2799 3.33645L17.0608 3.08957C17.271 3.02972 17.4737 2.96239 17.6764 2.90254C17.2485 2.98483 16.8205 3.06713 16.4 3.14194Z" fill="#7E8AC7"/>
<path fill-rule="evenodd" clip-rule="evenodd" d="M11.3733 1.13124C8.04662 4.17277 6.91743 9.1322 8.92322 13.4336C10.929 17.7351 15.454 20.0579 19.9223 19.4646C19.1457 20.1746 18.2495 20.7801 17.2454 21.2483C11.9399 23.7223 5.63334 21.4269 3.15933 16.1214C0.685332 10.8159 2.98073 4.50932 8.28624 2.03532C9.29031 1.56712 10.3302 1.26973 11.3733 1.13124Z" fill="#7E8AC7"/>
</g>
<defs>
<clipPath id="clip0_2776_42813">
<rect width="24" height="24" fill="white"/>
</clipPath>
</defs>
</svg>
