<svg width="24" height="25" viewBox="0 0 24 25" fill="none" xmlns="http://www.w3.org/2000/svg">
<path d="M20.6465 3.14645C20.8417 2.95118 21.1583 2.95118 21.3535 3.14645C21.5488 3.34171 21.5488 3.65822 21.3535 3.85348L3.35352 21.8535C3.15825 22.0487 2.84175 22.0487 2.64648 21.8535C2.45122 21.6582 2.45122 21.3417 2.64648 21.1464L20.6465 3.14645ZM10 21C10 21.2761 9.77614 21.5 9.5 21.5H8C7.20116 21.5 6.47706 21.1858 5.93945 20.6767L10 16.6171V21ZM16 13.5C17.6569 13.5 19 14.8431 19 16.5V18.5C19 20.1568 17.6569 21.5 16 21.5H14.5C14.2239 21.5 14 21.2761 14 21V14C14 13.7238 14.2239 13.5 14.5 13.5H16ZM12 3.49996C13.952 3.49996 15.7663 4.08902 17.2754 5.09859L16.1895 6.18453C14.9709 5.43387 13.5363 4.99996 12 4.99996C7.58172 4.99996 4 8.58168 4 13V18.1113C3.99988 18.3873 3.77607 18.6113 3.5 18.6113H3C2.72393 18.6113 2.50012 18.3873 2.5 18.1113V13C2.5 7.75326 6.75329 3.49996 12 3.49996ZM19.4746 7.14156C20.7417 8.75591 21.5 10.7886 21.5 13V18.1113C21.4999 18.3873 21.2761 18.6113 21 18.6113H20.5C20.2239 18.6113 20.0001 18.3873 20 18.1113V13C20 11.203 19.4075 9.54447 18.4072 8.20895L19.4746 7.14156ZM5 17.375V16.5C5 14.8431 6.34315 13.5 8 13.5H8.875L5 17.375Z" fill="#FF3232"/>
</svg>
