<svg width="24" height="24" viewBox="0 0 24 24" fill="none" xmlns="http://www.w3.org/2000/svg">
<path d="M10 20.5C10 20.7761 9.77614 21 9.5 21H8C7.20116 21 6.47706 20.6858 5.93945 20.1768L10 16.1172V20.5ZM16 13C17.6569 13 19 14.3431 19 16V18C19 19.6569 17.6569 21 16 21H14.5C14.2239 21 14 20.7761 14 20.5V13.5C14 13.2239 14.2239 13 14.5 13H16ZM12 3C13.952 3 15.7663 3.58906 17.2754 4.59863L16.1895 5.68457C14.9709 4.93391 13.5363 4.5 12 4.5C7.58172 4.5 4 8.08172 4 12.5V17.6113C3.99988 17.8874 3.77607 18.1113 3.5 18.1113H3C2.72393 18.1113 2.50012 17.8874 2.5 17.6113V12.5C2.5 7.25329 6.75329 3 12 3ZM19.4746 6.6416C20.7417 8.25594 21.5 10.2886 21.5 12.5V17.6113C21.4999 17.8874 21.2761 18.1113 21 18.1113H20.5C20.2239 18.1113 20.0001 17.8874 20 17.6113V12.5C20 10.703 19.4075 9.04451 18.4072 7.70898L19.4746 6.6416ZM5 16.875V16C5 14.3431 6.34315 13 8 13H8.875L5 16.875Z" fill="#C5BDB3"/>
<path d="M3 21L21 3" stroke="#C5BDB3" stroke-linecap="square"/>
</svg>
