<svg width="24" height="24" viewBox="0 0 24 24" fill="none" xmlns="http://www.w3.org/2000/svg">
<path d="M9.5 13C9.77614 13 10 13.2239 10 13.5V20.5C10 20.7761 9.77614 21 9.5 21H8C6.34315 21 5 19.6569 5 18V16C5 14.3431 6.34315 13 8 13H9.5ZM16 13C17.6569 13 19 14.3431 19 16V18C19 19.6569 17.6569 21 16 21H14.5C14.2239 21 14 20.7761 14 20.5V13.5C14 13.2239 14.2239 13 14.5 13H16ZM12 3C17.2467 3 21.5 7.25329 21.5 12.5V17.6113C21.4999 17.8874 21.2761 18.1113 21 18.1113H20.5C20.2239 18.1113 20.0001 17.8874 20 17.6113V12.5C20 8.08172 16.4183 4.5 12 4.5C7.58172 4.5 4 8.08172 4 12.5V17.6113C3.99988 17.8874 3.77607 18.1113 3.5 18.1113H3C2.72393 18.1113 2.50012 17.8874 2.5 17.6113V12.5C2.5 7.25329 6.75329 3 12 3Z" fill="#C5BDB3"/>
</svg>
