<svg width="50" height="50" viewBox="0 0 50 50" fill="none" xmlns="http://www.w3.org/2000/svg">
<path d="M18.9479 10.4125L27.1765 10.4115L29.6228 10.4132C30.0637 10.4137 30.5427 10.4259 30.978 10.395C31.1702 10.3814 31.5664 10.0678 31.7588 9.94172C32.2505 9.62287 32.7717 9.35202 33.3154 9.13288C37.2219 7.50732 41.7229 8.38974 44.7266 11.3701C45.4937 12.1305 46.1375 13.006 46.6348 13.9649C47.0989 14.8591 47.4133 15.8326 47.7222 16.7907C48.6208 19.5822 49.2683 22.4482 49.6572 25.3548C49.759 26.1333 49.8403 26.9143 49.9016 27.697C49.9236 27.9805 49.9434 28.7102 50 28.939V31.6821L49.9932 31.7158C49.9478 31.9497 49.9324 32.3347 49.9138 32.5833C49.8845 33.0022 49.844 33.4204 49.7922 33.8374C49.5784 35.5213 49.0298 37.8123 48.0771 39.2473C47.6707 39.8596 47.1511 40.3889 46.5464 40.8067C42.5874 43.5242 37.9661 39.3323 35.5291 36.4363C34.7356 35.4934 33.9788 34.4805 33.2893 33.46C33.0371 33.0813 32.7869 32.7012 32.5386 32.3198H22.4355C20.7884 32.3198 19.1149 32.3377 17.4715 32.3213C17.2062 32.6817 16.9694 33.082 16.7223 33.4463C15.824 34.7713 14.7819 36.1446 13.7059 37.3147C11.2287 40.0086 6.95928 43.397 3.30386 40.697C1.29438 39.2127 0.580916 36.4046 0.241681 34.0691C0.182361 33.6538 0.136958 33.2371 0.10555 32.8189C0.08876 32.5945 0.0551323 31.9063 0 31.7276V28.9173C0.0907871 28.6109 0.0879966 27.7876 0.116073 27.4175C0.17999 26.6707 0.262808 25.9256 0.364451 25.1831C0.755977 22.3432 1.39338 19.5427 2.26949 16.8132C2.67793 15.5479 3.03416 14.4523 3.73579 13.3113C4.62161 11.8636 5.84885 10.6553 7.31006 9.79203C9.69746 8.3788 12.5474 7.9685 15.2365 8.65087C16.2171 8.90075 17.1564 9.29116 18.0252 9.80991C18.3494 10.0048 18.6339 10.2213 18.9479 10.4125Z" fill="#32485C"/>
<path d="M37.0248 12.0071C41.3258 11.7431 45.0262 15.0164 45.2892 19.3176C45.5521 23.6187 42.2777 27.3183 37.9767 27.58C33.6769 27.842 29.9789 24.5691 29.7159 20.2694C29.4533 15.9698 32.7252 12.2709 37.0248 12.0071Z" fill="#2C3E50"/>
<path d="M37.3554 14.5888C38.2109 14.5094 38.9699 15.1363 39.0531 15.9915C39.1366 16.8467 38.5133 17.6085 37.6584 17.696C36.798 17.784 36.0299 17.1555 35.946 16.2947C35.862 15.4338 36.4941 14.6688 37.3554 14.5888Z" fill="#F2C40E"/>
<path d="M37.3177 21.8857C38.1744 21.7857 38.9496 22.4 39.0482 23.2569C39.1466 24.1137 38.5311 24.888 37.6742 24.9851C36.819 25.0821 36.047 24.4681 35.9488 23.6133C35.8505 22.7584 36.463 21.9854 37.3177 21.8857Z" fill="#3298DA"/>
<path d="M40.8914 18.2515C41.7472 18.1103 42.5536 18.6942 42.6866 19.5511C42.8194 20.4081 42.2279 21.2089 41.3695 21.3335C40.523 21.4563 39.7357 20.8744 39.6046 20.0292C39.4735 19.184 40.0477 18.3909 40.8914 18.2515Z" fill="#2DCE70"/>
<path d="M33.6155 18.249C34.4704 18.1169 35.269 18.7064 35.395 19.5621C35.521 20.4179 34.926 21.2125 34.0693 21.3323C33.2212 21.451 32.4363 20.8631 32.3117 20.0159C32.187 19.1688 32.7693 18.3797 33.6155 18.249Z" fill="#E84D3F"/>
<path d="M12.2276 12.513C16.245 12.3625 19.6244 15.496 19.7772 19.5134C19.93 23.5307 16.7985 26.9119 12.7812 27.0672C8.76069 27.2224 5.37612 24.0877 5.22314 20.067C5.07018 16.0464 8.20683 12.6636 12.2276 12.513Z" fill="#2C3E50"/>
<path d="M12.4164 14.5833C12.8631 14.5673 13.2571 14.7057 13.5811 15.017C14.1396 15.5539 14.0685 16.2551 14.068 16.9679L14.0661 18.2301C14.0727 18.2299 14.0793 18.2298 14.086 18.2296L15.3071 18.2246C16.0296 18.2221 16.6987 18.1359 17.2492 18.6861C17.5436 18.981 17.7084 19.3809 17.7074 19.7976C17.7041 20.2141 17.5347 20.6121 17.237 20.9034C17.0587 21.0816 16.8386 21.2124 16.5968 21.2838C16.1791 21.4043 14.5922 21.3566 14.0661 21.3544C14.0622 21.8567 14.1079 23.3868 14.0098 23.8093C13.9633 24.0119 13.8746 24.2025 13.7496 24.3686C13.4498 24.771 13.0868 24.9277 12.6031 24.9944C12.5715 24.9966 12.5398 24.9975 12.5081 24.9975C12.093 25 11.6942 24.8364 11.4003 24.5432C11.2156 24.3577 11.0808 24.1284 11.0086 23.8767C10.8904 23.4618 10.9342 21.8785 10.9355 21.3545L9.66824 21.3591C8.94668 21.3613 8.31414 21.4417 7.75945 20.9005C7.46111 20.6068 7.29246 20.2061 7.29102 19.7874C7.29268 19.3737 7.4575 18.9774 7.74968 18.6845C8.29231 18.1418 8.94536 18.2213 9.65313 18.225C10.0807 18.2288 10.5083 18.2294 10.9359 18.2267C10.9341 17.7219 10.8962 16.158 10.9912 15.7611C11.0449 15.5348 11.1499 15.3238 11.2981 15.1445C11.5896 14.7907 11.9677 14.6257 12.4164 14.5833Z" fill="#EEEFEF"/>
<path d="M23.4758 23.9618C24.4792 23.9431 25.4907 23.9694 26.4956 23.9558C26.719 23.9527 27.1345 23.9432 27.3435 23.9963C28.122 24.1944 28.3713 25.1736 27.8081 25.737C27.4699 26.0735 27.0256 26.0346 26.6052 26.0366C25.7756 26.0222 24.9428 26.0469 24.1137 26.0346C23.4906 25.9924 22.7239 26.2065 22.215 25.758C21.7959 25.3887 21.7769 24.6889 22.1578 24.2931C22.5132 23.9237 23.0037 23.9678 23.4758 23.9618Z" fill="#2C3E50"/>
</svg>
