<svg width="50" height="50" viewBox="0 0 50 50" fill="none" xmlns="http://www.w3.org/2000/svg">
<g clip-path="url(#clip0_3149_42664)">
<path d="M33.496 1.8556C33.5655 1.88957 33.6351 1.92355 33.7067 1.95855C35.2868 2.73668 36.6705 3.71956 37.9882 4.88294C38.0706 4.95344 38.1531 5.02394 38.238 5.09657C38.7214 5.5139 39.1416 5.95604 39.5507 6.44544C39.6431 6.55374 39.7357 6.66194 39.8284 6.77008C39.9271 6.88563 40.0258 7.00122 40.1244 7.11683C40.1722 7.17269 40.2199 7.22854 40.2691 7.28608C40.6136 7.69247 40.6136 7.69247 40.7226 7.91029C40.9608 7.9337 41.1918 7.94632 41.4306 7.95301C42.804 8.01881 44.102 8.32208 45.1411 9.28358C46.1941 10.4467 46.6401 11.6325 46.5957 13.2009C46.5911 13.2919 46.5866 13.3829 46.5819 13.4767C46.6704 13.4874 46.7589 13.4981 46.8501 13.5091C47.5348 13.6497 48.0423 14.1931 48.4374 14.7462C48.6869 15.2445 48.7677 15.6072 48.7714 16.1732C48.7722 16.2442 48.773 16.3151 48.7739 16.3881C48.7761 16.6207 48.7763 16.8532 48.7761 17.0858C48.7768 17.2489 48.7776 17.4119 48.7784 17.575C48.7797 17.9163 48.7799 18.2575 48.7793 18.5987C48.7787 19.0338 48.7817 19.4688 48.7856 19.9038C48.7882 20.2406 48.7885 20.5773 48.7881 20.914C48.7883 21.0743 48.7892 21.2346 48.7909 21.3948C48.8012 22.4542 48.712 23.2568 48.0163 24.1029C47.1539 24.8048 47.1539 24.8048 46.5819 24.8048C46.5787 26.5706 46.5794 28.3363 46.5847 30.102C46.5871 30.9219 46.5882 31.7418 46.5863 32.5618C46.5846 33.2767 46.5854 33.9917 46.589 34.7066C46.5908 35.0849 46.5915 35.4632 46.5892 35.8415C46.5871 36.1982 46.5883 36.5548 46.5919 36.9115C46.593 37.1035 46.5907 37.2956 46.5883 37.4876C46.6013 38.3444 46.8183 38.8029 47.3632 39.4533C47.8372 40.181 48.1886 40.971 48.4679 41.7909C48.5016 41.8884 48.5016 41.8884 48.536 41.9879C48.6092 42.2157 48.6712 42.4441 48.7304 42.6759C48.7567 42.7788 48.783 42.8817 48.81 42.9878C49.0672 44.15 49.0746 45.3071 49.0723 46.4937C49.0722 46.8413 49.0763 47.1887 49.0806 47.5362C49.0811 47.7586 49.0813 47.981 49.0813 48.2034C49.0837 48.3581 49.0837 48.3581 49.0862 48.516C49.0787 49.3126 49.0787 49.3126 48.7878 49.673C48.3896 50.0346 48.1045 50.0143 47.5883 50.0135C47.5095 50.0138 47.4306 50.014 47.3494 50.0143C47.0823 50.015 46.8152 50.0151 46.5481 50.0152C46.3558 50.0156 46.1635 50.016 45.9712 50.0165C45.4405 50.0176 44.9099 50.0182 44.3792 50.0186C43.8078 50.0192 43.2363 50.0203 42.6649 50.0214C41.3491 50.0237 40.0333 50.0251 38.7175 50.0263C38.2624 50.0267 37.8072 50.0272 37.3521 50.0276C34.9331 50.0301 32.5142 50.0322 30.0952 50.0335C29.5346 50.0337 28.9741 50.034 28.4135 50.0343C28.3438 50.0344 28.2742 50.0344 28.2024 50.0344C25.9438 50.0356 23.6851 50.0386 21.4265 50.0427C19.1053 50.0469 16.7841 50.0495 14.4629 50.05C13.0956 50.0503 11.7283 50.0514 10.3609 50.0547C9.25271 50.0575 8.14452 50.0585 7.0363 50.0575C6.47057 50.0569 5.90486 50.0572 5.33913 50.0597C4.82155 50.0618 4.30402 50.0618 3.78644 50.0599C3.59888 50.0596 3.41132 50.0602 3.22376 50.0617C2.96932 50.0635 2.71506 50.0624 2.46062 50.0605C2.35068 50.0624 2.35068 50.0624 2.23851 50.0643C1.67947 50.0551 1.45195 49.8951 1.07411 49.5119C0.956141 49.2759 0.962194 49.1229 0.959173 48.8592C0.957293 48.7162 0.957291 48.7162 0.955373 48.5703C0.954652 48.4663 0.953932 48.3624 0.953189 48.2553C0.9524 48.1475 0.951611 48.0397 0.950798 47.9286C0.949444 47.6989 0.9484 47.4692 0.947633 47.2395C0.94652 47.0079 0.944542 46.7762 0.941625 46.5446C0.909857 44.0213 1.21099 41.131 2.88006 39.0787C3.39445 38.4233 3.40352 37.8452 3.39569 37.0332C3.39649 36.8993 3.39755 36.7655 3.39884 36.6316C3.4016 36.2707 3.4008 35.9098 3.39934 35.5489C3.39842 35.1708 3.40081 34.7927 3.40285 34.4146C3.40619 33.6997 3.40659 32.9849 3.4059 32.27C3.40527 31.4557 3.40795 30.6414 3.4109 29.8271C3.4169 28.153 3.41876 26.4789 3.41786 24.8048C3.32735 24.7922 3.23684 24.7796 3.14359 24.7667C2.49507 24.6428 2.00161 24.1753 1.62993 23.6464C1.16799 22.852 1.19819 22.0561 1.20458 21.1671C1.20425 21.0045 1.20377 20.8418 1.20316 20.6791C1.20245 20.3396 1.20348 20.0002 1.20577 19.6607C1.20855 19.2279 1.20695 18.7953 1.20403 18.3625C1.20225 18.027 1.20283 17.6916 1.20409 17.3561C1.20441 17.1966 1.20402 17.0372 1.20288 16.8777C1.19704 15.8368 1.27564 15.0146 1.98049 14.1939C2.05199 14.1344 2.12349 14.075 2.19716 14.0138C2.26866 13.9524 2.34017 13.8909 2.41384 13.8276C2.74553 13.5959 3.01158 13.4767 3.41786 13.4767C3.41333 13.3857 3.4088 13.2947 3.40413 13.2009C3.36811 11.9284 3.59851 10.8891 4.39443 9.86341C4.46694 9.76271 4.53945 9.662 4.61415 9.55824C5.4325 8.7027 6.5354 8.14739 7.71474 8.00794C7.90553 8.00794 8.09633 8.008 8.28711 8.00949C8.93133 8.01153 8.93133 8.01153 9.50002 7.74282C9.67069 7.51378 9.81333 7.27588 9.96083 7.03138C10.1078 6.85941 10.2585 6.69055 10.4125 6.52479C10.6462 6.26944 10.8755 6.01513 11.09 5.74354C11.4007 5.38498 11.7478 5.09148 12.1093 4.78529C12.1998 4.7046 12.2903 4.6239 12.3835 4.54077C14.2709 2.87151 16.5515 1.64662 18.9452 0.879038C19.0157 0.856175 19.0862 0.833311 19.1588 0.809754C19.6687 0.647777 20.1823 0.512779 20.703 0.390757C20.8229 0.361819 20.8229 0.361819 20.9452 0.332297C25.0821 -0.624972 29.7117 -0.0238515 33.496 1.8556Z" fill="#BED9FC"/>
<path d="M8.53261 8.00319C8.60449 8.00363 8.67637 8.00407 8.75043 8.00452C8.92604 8.00566 9.10164 8.00741 9.27724 8.00929C9.01229 8.50225 8.73149 8.97889 8.42885 9.44972C7.24318 11.3652 6.50808 13.4291 6.05458 15.6265C6.0158 15.8102 6.0158 15.8102 5.97624 15.9976C5.76742 17.0387 5.71454 18.0455 5.72499 19.1055C5.72538 19.1861 5.72577 19.2666 5.72617 19.3497C5.73652 21.1824 5.89033 22.9532 6.44521 24.7085C6.46836 24.7847 6.4915 24.8609 6.51535 24.9394C7.45244 28.0113 9.02066 30.5953 11.2304 32.9116C11.3474 33.0364 11.3474 33.0364 11.4669 33.1638C14.8234 36.6465 19.8085 38.6085 24.6028 38.7077C27.998 38.7308 31.293 37.9611 34.2772 36.3296C34.3455 36.2925 34.4137 36.2553 34.484 36.2171C35.4995 35.658 36.4209 35.0287 37.3046 34.2788C37.3883 34.2078 37.472 34.1368 37.5583 34.0637C37.8045 33.8475 38.0435 33.6255 38.2811 33.3999C38.332 33.3523 38.3828 33.3047 38.4351 33.2556C39.7305 32.0342 40.8308 30.6614 41.6991 29.103C41.738 29.0333 41.7769 28.9636 41.8169 28.8917C43.2487 26.2982 44.2419 23.3848 44.258 20.3941C44.2586 20.3109 44.2591 20.2276 44.2597 20.1419C44.2606 19.9664 44.2613 19.791 44.2616 19.6155C44.2626 19.3537 44.2656 19.0919 44.2687 18.8301C44.2781 17.3059 44.0992 15.8322 43.6828 14.3631C43.658 14.2744 43.6333 14.1858 43.6078 14.0944C43.0311 12.0995 42.1363 10.2526 41.0159 8.51054C40.8202 8.2046 40.8202 8.2046 40.7226 8.00929C42.3477 7.95296 43.8883 8.12567 45.1411 9.28493C46.1941 10.4481 46.6401 11.6338 46.5957 13.2022C46.5911 13.2933 46.5866 13.3843 46.5819 13.478C46.6704 13.4887 46.7589 13.4994 46.8501 13.5105C47.5348 13.651 48.0423 14.1945 48.4374 14.7476C48.6869 15.2458 48.7677 15.6085 48.7714 16.1746C48.7722 16.2455 48.773 16.3164 48.7739 16.3895C48.7761 16.6221 48.7763 16.8546 48.7761 17.0871C48.7768 17.2502 48.7776 17.4133 48.7784 17.5764C48.7797 17.9176 48.7799 18.2588 48.7793 18.6001C48.7787 19.0351 48.7817 19.4701 48.7856 19.9052C48.7882 20.2419 48.7885 20.5786 48.7881 20.9153C48.7883 21.0756 48.7892 21.2359 48.7909 21.3962C48.8012 22.4556 48.712 23.2581 48.0163 24.1043C47.1539 24.8062 47.1539 24.8062 46.5819 24.8062C46.5787 26.5719 46.5794 28.3376 46.5847 30.1033C46.5871 30.9233 46.5882 31.7432 46.5863 32.5631C46.5846 33.2781 46.5854 33.993 46.589 34.708C46.5908 35.0863 46.5915 35.4645 46.5892 35.8428C46.5871 36.1996 46.5883 36.5561 46.5919 36.9129C46.593 37.1049 46.5907 37.2969 46.5883 37.4889C46.6013 38.3457 46.8183 38.8042 47.3632 39.4546C47.8372 40.1824 48.1886 40.9724 48.4679 41.7922C48.5016 41.8898 48.5016 41.8898 48.536 41.9893C48.6092 42.217 48.6712 42.4454 48.7304 42.6773C48.7567 42.7802 48.783 42.8831 48.81 42.9891C49.0672 44.1513 49.0746 45.3084 49.0723 46.4951C49.0722 46.8426 49.0763 47.19 49.0806 47.5376C49.0811 47.76 49.0813 47.9824 49.0813 48.2048C49.0837 48.3595 49.0837 48.3595 49.0862 48.5173C49.0787 49.314 49.0787 49.314 48.7878 49.6743C48.3896 50.0359 48.1045 50.0157 47.5883 50.0149C47.5095 50.0151 47.4306 50.0154 47.3494 50.0156C47.0823 50.0164 46.8152 50.0164 46.5481 50.0165C46.3558 50.0169 46.1635 50.0173 45.9712 50.0178C45.4405 50.019 44.9099 50.0195 44.3792 50.02C43.8078 50.0205 43.2363 50.0217 42.6649 50.0227C41.3491 50.025 40.0333 50.0264 38.7175 50.0276C38.2624 50.0281 37.8072 50.0285 37.3521 50.029C34.9331 50.0314 32.5142 50.0336 30.0952 50.0348C29.5346 50.0351 28.9741 50.0354 28.4135 50.0357C28.3438 50.0357 28.2742 50.0357 28.2024 50.0358C25.9438 50.037 23.6851 50.04 21.4265 50.0441C19.1053 50.0482 16.7841 50.0508 14.4629 50.0513C13.0956 50.0516 11.7283 50.0527 10.3609 50.0561C9.25271 50.0588 8.14452 50.0599 7.0363 50.0588C6.47057 50.0583 5.90486 50.0586 5.33913 50.061C4.82155 50.0632 4.30402 50.0631 3.78644 50.0613C3.59888 50.061 3.41131 50.0616 3.22376 50.063C2.96932 50.0649 2.71506 50.0637 2.46062 50.0618C2.38732 50.0631 2.31403 50.0643 2.23851 50.0656C1.67947 50.0564 1.45195 49.8964 1.07411 49.5132C0.956141 49.2772 0.962194 49.1242 0.959173 48.8605C0.957293 48.7175 0.957293 48.7175 0.955375 48.5716C0.954653 48.4677 0.953932 48.3637 0.953189 48.2566C0.9524 48.1488 0.951612 48.041 0.9508 47.93C0.949446 47.7002 0.9484 47.4705 0.947633 47.2408C0.94652 47.0092 0.944542 46.7776 0.941625 46.546C0.909857 44.0226 1.21099 41.1323 2.88006 39.08C3.39445 38.4246 3.40352 37.8465 3.39569 37.0345C3.39649 36.9007 3.39755 36.7668 3.39884 36.6329C3.4016 36.272 3.4008 35.9112 3.39934 35.5502C3.39842 35.1721 3.40081 34.794 3.40285 34.4159C3.40619 33.7011 3.40659 32.9862 3.4059 32.2714C3.40527 31.457 3.40795 30.6427 3.4109 29.8284C3.4169 28.1543 3.41876 26.4803 3.41786 24.8062C3.32735 24.7936 3.23684 24.781 3.14359 24.768C2.49507 24.6442 2.00161 24.1767 1.62993 23.6478C1.16799 22.8534 1.19819 22.0574 1.20458 21.1685C1.20425 21.0058 1.20377 20.8431 1.20316 20.6805C1.20245 20.341 1.20348 20.0015 1.20577 19.662C1.20855 19.2293 1.20695 18.7966 1.20403 18.3639C1.20225 18.0284 1.20283 17.6929 1.20409 17.3575C1.20441 17.198 1.20402 17.0385 1.20288 16.8791C1.19704 15.8381 1.27564 15.0159 1.98049 14.1952C2.05199 14.1358 2.12349 14.0764 2.19716 14.0151C2.26866 13.9537 2.34017 13.8923 2.41384 13.829C2.74553 13.5973 3.01158 13.478 3.41786 13.478C3.41333 13.387 3.4088 13.296 3.40413 13.2022C3.36811 11.9297 3.59851 10.8905 4.39443 9.86476C4.46694 9.76405 4.53945 9.66334 4.61415 9.55958C5.6646 8.46139 7.03846 7.98562 8.53261 8.00319Z" fill="#F4EFEA"/>
<path d="M33.496 1.8556C33.5656 1.88957 33.6351 1.92355 33.7067 1.95855C35.2868 2.73668 36.6705 3.71956 37.9882 4.88294C38.0707 4.95344 38.1531 5.02394 38.2381 5.09657C38.6449 5.44786 39.0166 5.80975 39.3623 6.22152C39.503 6.38879 39.6476 6.55284 39.7941 6.71514C40.4992 7.50433 41.0483 8.35245 41.5783 9.2667C41.6843 9.44744 41.7947 9.62554 41.9059 9.80314C42.7674 11.2114 43.3518 12.8062 43.7927 14.3922C43.8252 14.5084 43.8252 14.5084 43.8585 14.6268C44.2374 16.0804 44.3851 17.5352 44.3741 19.034C44.3725 19.2872 44.3741 19.5403 44.3759 19.7935C44.3778 21.2681 44.1903 22.7055 43.8171 24.1334C43.7963 24.214 43.7754 24.2946 43.754 24.3776C42.899 27.6004 41.2682 30.414 38.9648 32.8126C38.9119 32.8682 38.859 32.9238 38.8045 32.981C37.6403 34.1981 36.3912 35.1529 34.9609 36.0353C34.8702 36.0933 34.7796 36.1514 34.6862 36.2111C32.6435 37.4733 30.2825 38.1821 27.9296 38.5744C27.862 38.5859 27.7944 38.5975 27.7248 38.6094C24.363 39.163 20.6973 38.6653 17.5781 37.3048C17.4601 37.2535 17.4601 37.2535 17.3398 37.2011C15.1104 36.2154 13.1852 34.8859 11.4257 33.2033C11.3352 33.1179 11.2447 33.0326 11.1514 32.9446C8.14026 30.0317 6.30371 26.0014 5.76165 21.8751C5.7439 21.7495 5.72615 21.6239 5.70786 21.4944C5.46587 19.2147 5.58745 16.8672 6.15227 14.6486C6.18595 14.514 6.18595 14.514 6.22032 14.3766C6.98898 11.3907 8.56195 8.547 10.6387 6.2776C10.796 6.10328 10.9446 5.9276 11.09 5.74354C11.4008 5.38498 11.7479 5.09148 12.1093 4.78529C12.1998 4.7046 12.2903 4.6239 12.3836 4.54077C14.271 2.87151 16.5515 1.64662 18.9452 0.879038C19.0157 0.856175 19.0862 0.833311 19.1589 0.809754C19.6687 0.647777 20.1823 0.512779 20.7031 0.390757C20.8229 0.361819 20.8229 0.361819 20.9452 0.332297C25.0822 -0.624972 29.7118 -0.0238515 33.496 1.8556ZM20.6054 7.42201C20.5197 7.44231 20.4339 7.46261 20.3456 7.48352C17.0637 8.27274 14.1113 9.72596 11.6882 12.0973C11.6263 12.157 11.5644 12.2167 11.5007 12.2781C11.3042 12.4756 11.122 12.6821 10.9374 12.8908C10.863 12.9662 10.7886 13.0416 10.712 13.1194C9.80213 14.1887 9.93425 15.405 9.94866 16.7459C9.94856 16.9977 9.94818 17.2495 9.94751 17.5012C9.9471 18.0271 9.94965 18.5528 9.95467 19.0787C9.9604 19.6839 9.96056 20.2889 9.95773 20.8941C9.95512 21.4802 9.95642 22.0662 9.95944 22.6522C9.96038 22.8999 9.96038 23.1476 9.95938 23.3953C9.95856 23.7421 9.96218 24.0886 9.96697 24.4354C9.96589 24.5364 9.96481 24.6374 9.96371 24.7414C9.98919 25.8459 10.6496 26.6248 11.3891 27.3927C11.448 27.4546 11.5069 27.5165 11.5676 27.5803C13.4564 29.5336 15.7287 30.8058 18.2616 31.7384C18.3287 31.7632 18.3958 31.788 18.4649 31.8136C19.5561 32.2083 20.6745 32.4012 21.8185 32.5776C22.025 32.6102 22.2308 32.6469 22.4365 32.6848C27.0765 33.4673 32.3858 32.1899 36.2212 29.4935C37.5988 28.4947 39.1659 27.2347 39.9413 25.6837C39.9516 25.5323 39.9558 25.3804 39.957 25.2287C39.958 25.1327 39.959 25.0368 39.96 24.9379C39.9606 24.8322 39.9611 24.7266 39.9617 24.6177C39.9627 24.5067 39.9636 24.3957 39.9646 24.2813C39.9675 23.9125 39.9696 23.5436 39.9715 23.1748C39.9724 22.986 39.9724 22.986 39.9734 22.7934C39.9759 22.2642 39.9782 21.735 39.9797 21.2058C39.9818 20.4485 39.9859 19.6913 39.9927 18.9341C39.9979 18.3367 39.9999 17.7394 40.0007 17.1421C40.0016 16.8885 40.0034 16.6349 40.0063 16.3813C40.0101 16.0258 40.0102 15.6704 40.0094 15.3148C40.0114 15.2105 40.0133 15.1062 40.0153 14.9988C40.0083 14.2694 39.8187 13.8407 39.3554 13.2814C39.2404 13.1416 39.2404 13.1416 39.1231 12.9991C39.0527 12.9231 38.9823 12.847 38.9098 12.7687C38.8343 12.6869 38.7588 12.605 38.681 12.5207C38.4542 12.2813 38.2244 12.0467 37.9882 11.8165C37.9405 11.7633 37.8928 11.71 37.8436 11.6552C36.4123 10.1101 34.3557 9.07214 32.4218 8.30091C32.3578 8.27512 32.2938 8.24933 32.2279 8.22276C31.0243 7.74551 29.7866 7.4621 28.5156 7.22669C28.4467 7.21359 28.3779 7.20048 28.307 7.18697C27.2745 6.99983 26.2287 7.01438 25.183 7.01307C25.1126 7.01296 25.0422 7.01284 24.9696 7.01272C23.4907 7.013 22.0508 7.0782 20.6054 7.42201Z" fill="#F4EFEA"/>
<path d="M8.53314 8.00319C8.60502 8.00363 8.6769 8.00407 8.75096 8.00452C8.92657 8.00566 9.10217 8.00741 9.27777 8.00929C9.01282 8.50225 8.73202 8.97889 8.42938 9.44972C7.24371 11.3652 6.50862 13.4291 6.05511 15.6265C6.01633 15.8102 6.01633 15.8102 5.97677 15.9976C5.76795 17.0387 5.71508 18.0455 5.72552 19.1055C5.72591 19.1861 5.7263 19.2666 5.72671 19.3497C5.73706 21.1824 5.89086 22.9532 6.44574 24.7085C6.46889 24.7847 6.49203 24.8609 6.51588 24.9394C7.45297 28.0113 9.02119 30.5953 11.2309 32.9116C11.348 33.0364 11.348 33.0364 11.4674 33.1638C14.8239 36.6465 19.809 38.6085 24.6033 38.7077C27.9985 38.7308 31.2935 37.9611 34.2778 36.3296C34.346 36.2925 34.4142 36.2553 34.4845 36.2171C35.5 35.658 36.4214 35.0287 37.3051 34.2788C37.3888 34.2078 37.4725 34.1368 37.5588 34.0637C37.805 33.8475 38.044 33.6255 38.2817 33.3999C38.3325 33.3523 38.3833 33.3047 38.4356 33.2556C39.731 32.0342 40.8314 30.6614 41.6996 29.103C41.7385 29.0333 41.7774 28.9636 41.8175 28.8917C43.2492 26.2982 44.2425 23.3848 44.2585 20.3941C44.2591 20.3109 44.2597 20.2276 44.2602 20.1419C44.2611 19.9664 44.2618 19.791 44.2622 19.6155C44.2631 19.3537 44.2661 19.0919 44.2692 18.8301C44.2787 17.3059 44.0998 15.8322 43.6833 14.3631C43.6585 14.2744 43.6338 14.1858 43.6083 14.0944C43.0316 12.0995 42.1368 10.2526 41.0164 8.51054C40.8207 8.2046 40.8207 8.2046 40.7231 8.00929C42.3482 7.95296 43.8888 8.12567 45.1416 9.28493C46.1946 10.4481 46.6406 11.6338 46.5962 13.2022C46.5917 13.2933 46.5871 13.3843 46.5825 13.478C46.671 13.4887 46.7595 13.4994 46.8506 13.5105C47.5353 13.651 48.0429 14.1945 48.4379 14.7476C48.6875 15.2458 48.7683 15.6085 48.7719 16.1746C48.7727 16.2455 48.7736 16.3164 48.7744 16.3895C48.7767 16.6221 48.7768 16.8546 48.7767 17.0871C48.7774 17.2502 48.7781 17.4133 48.7789 17.5764C48.7802 17.9176 48.7804 18.2588 48.7798 18.6001C48.7792 19.0351 48.7822 19.4701 48.7862 19.9052C48.7887 20.2419 48.789 20.5786 48.7886 20.9153C48.7888 21.0756 48.7897 21.2359 48.7915 21.3962C48.8018 22.4556 48.7125 23.2581 48.0168 24.1043C47.1544 24.8062 47.1544 24.8062 46.5825 24.8062C46.5825 29.2857 46.5825 33.7651 46.5825 38.3804C46.2941 38.0921 46.0415 37.8352 45.789 37.5259C45.3576 37.0291 44.8559 36.6328 44.3364 36.2319C44.2472 36.1631 44.1581 36.0942 44.0663 36.0233C43.1091 35.2274 43.1091 35.2274 41.9835 34.8773C41.7501 34.984 41.623 35.1152 41.4494 35.3042C40.9813 35.7895 40.4702 36.2049 39.9418 36.6226C39.797 36.7389 39.797 36.7389 39.6492 36.8576C35.5411 40.0989 30.4837 42.1099 25.23 42.1094C24.9971 42.1096 24.7643 42.1114 24.5314 42.1133C23.0396 42.1189 21.5888 41.9835 20.1359 41.6336C20.0282 41.6079 19.9204 41.5822 19.8094 41.5558C15.7857 40.5712 11.857 38.5342 8.86426 35.6384C8.81609 35.5921 8.76792 35.5459 8.7183 35.4982C8.59151 35.3745 8.46723 35.2483 8.34317 35.1219C8.11358 34.9346 8.11358 34.9346 7.81712 34.9681C6.30152 35.437 5.02293 36.7247 3.94976 37.8444C3.77478 38.0251 3.59629 38.2025 3.4184 38.3804C3.4184 33.9009 3.4184 29.4214 3.4184 24.8062C3.22504 24.7739 3.03168 24.7417 2.83246 24.7085C2.05906 24.2666 1.55349 23.6969 1.26996 22.853C1.19952 22.291 1.20104 21.7342 1.20511 21.1685C1.20478 21.0058 1.2043 20.8431 1.20369 20.6805C1.20298 20.341 1.20401 20.0015 1.2063 19.662C1.20908 19.2293 1.20748 18.7966 1.20456 18.3639C1.20278 18.0284 1.20336 17.6929 1.20462 17.3575C1.20494 17.198 1.20455 17.0385 1.20341 16.8791C1.19757 15.8381 1.27617 15.0159 1.98102 14.1952C2.05252 14.1358 2.12402 14.0764 2.19769 14.0151C2.2692 13.9537 2.3407 13.8923 2.41437 13.829C2.74606 13.5973 3.01211 13.478 3.4184 13.478C3.41386 13.387 3.40933 13.296 3.40466 13.2022C3.36864 11.9297 3.59904 10.8905 4.39496 9.86476C4.46747 9.76405 4.53998 9.66334 4.61469 9.55958C5.66513 8.46139 7.03899 7.98562 8.53314 8.00319Z" fill="#8C8787"/>
<path d="M12.9833 45.6665C13.1434 45.6656 13.1434 45.6656 13.3068 45.6647C13.6641 45.6631 14.0214 45.6635 14.3787 45.664C14.635 45.6633 14.8914 45.6625 15.1478 45.6615C15.7716 45.6595 16.3954 45.659 17.0192 45.6592C17.5265 45.6593 18.0337 45.6589 18.541 45.6582C18.6872 45.658 18.8335 45.6578 18.9798 45.6576C19.089 45.6574 19.089 45.6574 19.2004 45.6573C20.5766 45.6554 21.9528 45.6555 23.3291 45.6562C24.5869 45.6568 25.8448 45.6547 27.1027 45.6515C28.3954 45.6482 29.6881 45.6467 30.9808 45.6472C31.7061 45.6474 32.4314 45.6469 33.1567 45.6444C33.8389 45.6422 34.521 45.6424 35.2033 45.6444C35.4534 45.6448 35.7035 45.6443 35.9537 45.6429C36.2957 45.6411 36.6375 45.6423 36.9795 45.6443C37.1273 45.6425 37.1273 45.6425 37.2781 45.6406C38.051 45.6502 38.6967 45.8552 39.2728 46.3876C40.2973 47.47 40.0391 48.4074 40.0391 50.0019C30.1133 50.0019 20.1875 50.0019 9.96094 50.0019C9.96094 47.1777 9.96094 47.1777 10.8276 46.2971C11.4994 45.7251 12.1339 45.662 12.9833 45.6665Z" fill="#80B6FB"/>
<path d="M8.53314 8.00047C8.60502 8.00091 8.6769 8.00135 8.75096 8.0018C8.92657 8.00294 9.10217 8.00469 9.27777 8.00657C9.01282 8.49953 8.73202 8.97617 8.42938 9.447C7.24371 11.3625 6.50862 13.4264 6.05511 15.6238C6.01633 15.8074 6.01633 15.8074 5.97677 15.9948C5.76795 17.036 5.71508 18.0428 5.72552 19.1028C5.72591 19.1833 5.7263 19.2639 5.7267 19.347C5.73706 21.1797 5.89086 22.9505 6.44574 24.7058C6.46889 24.782 6.49203 24.8582 6.51588 24.9367C7.22218 27.252 8.25467 29.5115 9.86371 31.3464C9.61124 31.4726 9.44295 31.4401 9.1618 31.4258C8.6143 31.4215 8.34675 31.5053 7.91058 31.8347C7.4364 32.3473 7.27976 32.7462 7.29298 33.4361C7.36314 33.999 7.66988 34.4219 8.00824 34.862C7.92201 34.9023 7.83578 34.9426 7.74693 34.9841C6.20284 35.7207 5.0014 36.7712 3.80902 37.987C3.61566 38.1804 3.61566 38.1804 3.4184 38.3777C3.4184 33.8982 3.4184 29.4187 3.4184 24.8034C3.22504 24.7712 3.03168 24.739 2.83246 24.7058C2.05906 24.2638 1.55349 23.6942 1.26996 22.8503C1.19952 22.2883 1.20104 21.7315 1.20511 21.1658C1.20478 21.0031 1.2043 20.8404 1.20369 20.6778C1.20298 20.3383 1.20401 19.9988 1.2063 19.6593C1.20908 19.2265 1.20748 18.7939 1.20456 18.3611C1.20278 18.0257 1.20336 17.6902 1.20462 17.3547C1.20494 17.1953 1.20455 17.0358 1.20341 16.8764C1.19757 15.8354 1.27617 15.0132 1.98102 14.1925C2.05252 14.1331 2.12402 14.0736 2.19769 14.0124C2.2692 13.951 2.3407 13.8896 2.41437 13.8263C2.74606 13.5945 3.01211 13.4753 3.4184 13.4753C3.41386 13.3843 3.40933 13.2933 3.40466 13.1995C3.36864 11.927 3.59904 10.8878 4.39496 9.86204C4.46747 9.76133 4.53998 9.66062 4.61468 9.55686C5.66513 8.45867 7.03899 7.98291 8.53314 8.00047Z" fill="#8C8787"/>
<path d="M23.5352 -0.00128677C27.0481 -0.0804688 30.3017 0.267663 33.4961 1.85418C33.5656 1.88816 33.6352 1.92213 33.7068 1.95713C35.2869 2.73526 36.6706 3.71815 37.9883 4.88153C38.0707 4.95202 38.1532 5.02252 38.2381 5.09515C38.645 5.44644 39.0167 5.80833 39.3623 6.2201C39.5031 6.38737 39.6477 6.55142 39.7942 6.71373C40.4992 7.50292 41.0484 8.35103 41.5784 9.26528C41.6844 9.44602 41.7948 9.62412 41.906 9.80172C42.7675 11.2099 43.3519 12.8048 43.7927 14.3908C43.8145 14.4682 43.8362 14.5456 43.8586 14.6254C44.2374 16.079 44.3852 17.5338 44.3741 19.0326C44.3726 19.2858 44.3741 19.5388 44.376 19.792C44.3779 21.2667 44.1903 22.7041 43.8171 24.132C43.7963 24.2126 43.7755 24.2932 43.7541 24.3762C42.8991 27.5989 41.2683 30.4126 38.9648 32.8112C38.9119 32.8668 38.859 32.9223 38.8045 32.9796C37.6403 34.1966 36.3913 35.1515 34.9609 36.0339C34.8703 36.0919 34.7797 36.1499 34.6863 36.2097C32.6436 37.4719 30.2826 38.1807 27.9297 38.5729C27.8283 38.5903 27.8283 38.5903 27.7249 38.608C26.3703 38.8311 25.0013 38.7879 23.6328 38.7682C23.86 38.541 23.9222 38.5428 24.2313 38.5138C24.3151 38.5048 24.3988 38.4958 24.4851 38.4865C24.6221 38.4719 24.6221 38.4719 24.762 38.457C26.6845 38.2207 28.5278 37.6495 30.2734 36.8151C30.3502 36.7785 30.4269 36.7419 30.5059 36.7042C35.0406 34.5037 38.5183 30.5498 40.1908 25.8047C40.6099 24.5772 40.9329 23.3541 41.1133 22.069C41.1302 21.9487 41.1472 21.8284 41.1647 21.7044C41.2166 21.2823 41.23 20.8643 41.2342 20.4394C41.2352 20.3601 41.2361 20.2808 41.2371 20.1992C41.2539 18.446 41.2395 16.751 40.8203 15.0378C40.7994 14.9503 40.7785 14.8627 40.7569 14.7726C39.7725 10.7677 37.4665 6.92231 34.1797 4.39324C34.1043 4.3298 34.0289 4.26635 33.9512 4.20098C31.0229 1.74534 27.2848 0.5047 23.5352 0.0963695C23.5352 0.0641429 23.5352 0.0319164 23.5352 -0.00128677Z" fill="#EAE0DB"/>
<path d="M40.7227 8.00929C42.3478 7.95296 43.8884 8.12567 45.1412 9.28493C46.1942 10.4481 46.6402 11.6338 46.5958 13.2022C46.5912 13.2933 46.5867 13.3843 46.582 13.478C46.6705 13.4887 46.759 13.4994 46.8502 13.5105C47.5349 13.651 48.0424 14.1945 48.4375 14.7476C48.687 15.2458 48.7678 15.6085 48.7715 16.1746C48.7723 16.2455 48.7731 16.3164 48.774 16.3895C48.7763 16.6221 48.7764 16.8546 48.7762 17.0871C48.7769 17.2502 48.7777 17.4133 48.7785 17.5764C48.7798 17.9176 48.78 18.2588 48.7794 18.6001C48.7788 19.0351 48.7818 19.4701 48.7858 19.9052C48.7883 20.2419 48.7886 20.5786 48.7882 20.9153C48.7884 21.0756 48.7893 21.2359 48.7911 21.3962C48.8013 22.4556 48.7121 23.2581 48.0164 24.1043C47.154 24.8062 47.154 24.8062 46.582 24.8062C46.582 29.2857 46.582 33.7651 46.582 38.3804C46.2937 38.0921 46.0411 37.8352 45.7886 37.5259C45.3571 37.0291 44.8553 36.6331 44.3359 36.2319C44.2491 36.1642 44.1622 36.0965 44.0727 36.0267C43.4137 35.5291 42.7265 35.1407 41.9922 34.7671C42.0334 34.7071 42.0745 34.647 42.1169 34.5851C42.1704 34.5062 42.2239 34.4273 42.2791 34.346C42.3323 34.2678 42.3856 34.1896 42.4404 34.1091C42.7192 33.6619 42.7354 33.2283 42.6758 32.7163C42.5094 32.2009 42.2634 31.8332 41.7969 31.5444C41.2841 31.3059 40.7878 31.3294 40.2344 31.3491C40.2665 31.3016 40.2986 31.254 40.3316 31.2049C40.4955 30.9607 40.6579 30.7154 40.8203 30.4702C40.8864 30.372 40.9525 30.2738 41.0206 30.1727C42.9269 27.2878 44.2393 23.8887 44.2581 20.3941C44.259 20.2692 44.259 20.2692 44.2598 20.1419C44.2607 19.9664 44.2614 19.791 44.2617 19.6155C44.2627 19.3537 44.2657 19.0919 44.2688 18.8301C44.2782 17.3059 44.0993 15.8322 43.6829 14.3631C43.6581 14.2744 43.6334 14.1858 43.6079 14.0944C43.0312 12.0995 42.1364 10.2526 41.016 8.51054C40.8203 8.2046 40.8203 8.2046 40.7227 8.00929Z" fill="#8C8787"/>
<path d="M23.7305 7.02994C25.5124 6.99717 27.245 6.99396 29.0039 7.32291C29.0785 7.33598 29.153 7.34906 29.2298 7.36253C33.4662 8.11871 37.3409 10.4725 39.8438 13.9635C39.9614 14.1988 39.9555 14.3497 39.9584 14.6126C39.9603 14.7561 39.9603 14.7561 39.9622 14.9025C39.9631 15.0079 39.964 15.1132 39.9649 15.2218C39.9662 15.3325 39.9674 15.4432 39.9687 15.5572C39.9797 16.5803 39.9856 17.6035 39.9899 18.6266C39.9931 19.3822 39.9989 20.1376 40.0082 20.8931C40.0153 21.4894 40.018 22.0856 40.0193 22.682C40.0205 22.9348 40.0231 23.1877 40.027 23.4406C40.0623 25.8365 40.0623 25.8365 39.3546 26.582C39.2905 26.6396 39.2263 26.6972 39.1602 26.7565C39.069 26.8634 38.9788 26.9711 38.8901 27.08C35.6506 30.5844 31.215 32.4891 26.4648 32.8112C25.6835 32.8388 24.9025 32.8316 24.1211 32.8112C24.1211 32.7467 24.1211 32.6823 24.1211 32.6159C24.2397 32.6027 24.3583 32.5894 24.4804 32.5758C29.0372 32.0221 33.396 30.0783 36.3071 26.441C36.6493 25.9969 36.8272 25.6955 36.8327 25.1222C36.8339 25.0271 36.835 24.9319 36.8362 24.8339C36.8369 24.7297 36.8376 24.6254 36.8383 24.518C36.8395 24.4081 36.8406 24.2982 36.8417 24.1849C36.8512 23.1706 36.8563 22.1563 36.8598 21.142C36.8625 20.393 36.8675 19.6441 36.8755 18.8952C36.8816 18.3039 36.884 17.7127 36.8851 17.1215C36.8861 16.8707 36.8883 16.6199 36.8917 16.3692C36.8962 16.0173 36.8964 15.6658 36.8956 15.3139C36.8979 15.211 36.9002 15.1082 36.9025 15.0022C36.8938 14.2198 36.6318 13.7734 36.1328 13.1823C36.0587 13.0916 35.9845 13.001 35.9081 12.9076C35.6916 12.6722 35.4739 12.438 35.2539 12.2057C35.1808 12.1263 35.1076 12.0469 35.0323 11.965C32.1273 8.9155 27.8058 7.56106 23.7305 7.1276C23.7305 7.09537 23.7305 7.06314 23.7305 7.02994Z" fill="#9EC8FB"/>
<path d="M6.34766 24.707C6.53469 24.9876 6.62503 25.2368 6.72367 25.5564C7.37073 27.6486 8.4136 29.6944 9.86328 31.3477C9.61081 31.4739 9.44253 31.4414 9.16138 31.427C8.61387 31.4227 8.34632 31.5066 7.91016 31.8359C7.43597 32.3486 7.27933 32.7474 7.29256 33.4373C7.36271 34.0003 7.66945 34.4231 8.00781 34.8633C7.92158 34.9036 7.83535 34.9438 7.74651 34.9854C6.20241 35.7219 5.00098 36.7725 3.80859 37.9883C3.61523 38.1816 3.61523 38.1816 3.41797 38.3789C3.41797 33.8994 3.41797 29.4199 3.41797 24.8047C4.38477 24.8369 5.35156 24.8691 6.34766 24.9023C6.34766 24.8379 6.34766 24.7734 6.34766 24.707Z" fill="#B4AAAA"/>
<path d="M43.5547 24.8047C44.5537 24.8047 45.5527 24.8047 46.582 24.8047C46.582 29.2842 46.582 33.7637 46.582 38.3789C46.2937 38.0906 46.0411 37.8338 45.7886 37.5244C45.3571 37.0276 44.8553 36.6316 44.3359 36.2305C44.2056 36.1289 44.2056 36.1289 44.0727 36.0252C43.4137 35.5276 42.7265 35.1392 41.9922 34.7656C42.0334 34.7056 42.0745 34.6455 42.1169 34.5837C42.1704 34.5047 42.2239 34.4258 42.2791 34.3445C42.3323 34.2663 42.3856 34.1881 42.4404 34.1076C42.7192 33.6604 42.7354 33.2268 42.6758 32.7148C42.5094 32.1994 42.2634 31.8318 41.7969 31.543C41.2841 31.3045 40.7878 31.328 40.2344 31.3477C40.2665 31.3001 40.2986 31.2525 40.3316 31.2035C40.4955 30.9592 40.6579 30.7139 40.8203 30.4688C40.9194 30.3215 40.9194 30.3215 41.0206 30.1712C42.1339 28.4864 42.9741 26.7398 43.5547 24.8047Z" fill="#B4AAAA"/>
<path d="M42.1135 34.7723C42.4633 34.8882 42.7661 35.0608 43.0786 35.2522C43.1429 35.2912 43.2073 35.3302 43.2735 35.3703C43.8659 35.7374 44.3966 36.1619 44.9219 36.6193C44.9858 36.6715 45.0498 36.7236 45.1157 36.7773C45.5582 37.1395 45.9237 37.5478 46.2891 37.9865C46.3504 38.0565 46.4117 38.1265 46.4748 38.1986C48.4786 40.5634 49.0425 43.4121 49.0576 46.4255C49.0592 46.6632 49.0619 46.9008 49.0656 47.1384C49.071 47.4825 49.0731 47.8265 49.0746 48.1706C49.0768 48.2765 49.079 48.3824 49.0813 48.4916C49.079 49.313 49.079 49.313 48.7883 49.673C48.3951 50.0265 48.1233 50.0115 47.6158 50.0078C47.5446 50.0076 47.4733 50.0075 47.3999 50.0074C47.172 50.0068 46.9442 50.0056 46.7163 50.0043C46.5619 50.0039 46.4076 50.0034 46.2532 50.003C45.8745 50.0019 45.4959 50.0002 45.1172 49.9982C45.2139 49.9338 45.3105 49.8693 45.4102 49.8029C45.7764 49.477 45.7764 49.477 45.9122 49.0267C45.9128 48.9489 45.9135 48.8711 45.9142 48.7909C45.9151 48.7024 45.916 48.6139 45.917 48.5228C45.9174 48.4264 45.9178 48.3301 45.9183 48.2309C45.9191 48.0812 45.9191 48.0812 45.92 47.9284C45.9209 47.7158 45.9215 47.5033 45.9219 47.2907C45.9228 46.9712 45.9259 46.6517 45.929 46.3321C45.937 44.7665 45.811 43.3202 45.2942 41.8317C45.2649 41.7459 45.2355 41.6601 45.2053 41.5716C44.6228 39.9265 43.6783 38.5662 42.4805 37.3029C42.4067 37.2251 42.3329 37.1473 42.2569 37.0672C41.8094 36.6074 41.3473 36.2043 40.8203 35.8381C40.9341 35.7243 41.0481 35.6106 41.1629 35.4978C41.2631 35.396 41.3602 35.291 41.4543 35.1835C41.8348 34.7616 41.8348 34.7616 42.1135 34.7723Z" fill="#EBE1DC"/>
<path d="M23.8371 10.524C23.9204 10.523 24.0038 10.5221 24.0896 10.5211C28.3689 10.4821 32.9225 11.1624 36.2001 14.1849C36.4308 14.4593 36.5328 14.5845 36.5236 14.9418C36.4121 15.1648 36.3097 15.351 36.133 15.5277C35.6511 15.5766 35.4459 15.5877 35.0313 15.3236C34.9253 15.2324 34.8205 15.1396 34.717 15.0455C31.7946 12.5928 27.6313 11.945 23.9259 12.1098C23.8426 12.1134 23.7593 12.117 23.6734 12.1208C21.6918 12.2235 19.6878 12.6703 17.8712 13.4769C17.806 13.5059 17.7407 13.5348 17.6735 13.5646C16.6284 14.0377 15.7619 14.6216 14.8756 15.3526C14.6213 15.5488 14.481 15.6174 14.1603 15.6254C13.8146 15.4887 13.6982 15.3826 13.5255 15.0516C13.4636 14.6642 13.5488 14.5742 13.7697 14.2582C16.1096 11.6937 20.5008 10.5557 23.8371 10.524Z" fill="#CCE1FD"/>
<path d="M8.53271 8.00047C8.6046 8.00091 8.67648 8.00135 8.75053 8.0018C8.92614 8.00294 9.10174 8.00469 9.27734 8.00657C9.01239 8.49953 8.73159 8.97617 8.42896 9.447C8.08129 10.008 7.78557 10.585 7.50122 11.1804C7.4618 11.2626 7.42237 11.3447 7.38175 11.4294C7.06552 12.1028 6.81191 12.7761 6.54297 13.4753C5.51172 13.4753 4.48047 13.4753 3.41797 13.4753C3.41797 11.9967 3.50776 11.0048 4.39453 9.86204C4.46704 9.76133 4.53955 9.66062 4.61426 9.55686C5.6647 8.45867 7.03856 7.98291 8.53271 8.00047Z" fill="#B4AAAA"/>
<path d="M40.7227 8.00929C42.3478 7.95296 43.8884 8.12567 45.1412 9.28493C46.3122 10.5785 46.582 11.6764 46.582 13.478C45.0352 13.5264 45.0352 13.5264 43.457 13.5757C43.3442 13.2695 43.2314 12.9634 43.1152 12.648C42.5586 11.1723 41.8427 9.83691 41.0156 8.49757C40.9177 8.33496 40.82 8.17227 40.7227 8.00929Z" fill="#B3A9A9"/>
<path d="M35.0586 45.7031C35.4718 45.6909 35.885 45.6821 36.2984 45.6763C36.4385 45.6739 36.5787 45.6706 36.7188 45.6663C37.6955 45.6374 38.5195 45.6849 39.2709 46.3859C39.9012 47.0443 40.0725 47.6234 40.0655 48.5189C40.0628 48.6351 40.0601 48.7512 40.0574 48.8709C40.0483 49.4298 40.0483 49.4298 40.0391 50C39.04 50 38.041 50 37.0117 50C36.9934 48.8892 36.9934 48.8892 36.9914 48.5453C36.9681 47.7572 36.7985 47.0881 36.2556 46.4933C35.8968 46.1573 35.5171 45.9692 35.0586 45.8008C35.0586 45.7686 35.0586 45.7363 35.0586 45.7031Z" fill="#5392F8"/>
</g>
<defs>
<clipPath id="clip0_3149_42664">
<rect width="50" height="50" fill="white"/>
</clipPath>
</defs>
</svg>
