<svg width="50" height="50" viewBox="0 0 50 50" fill="none" xmlns="http://www.w3.org/2000/svg">
<path d="M25.4883 1.26782C25.8222 1.47305 26.045 1.66856 26.1719 2.04907C26.1802 2.33002 26.1832 2.60854 26.1814 2.88945C26.1812 3.01238 26.1812 3.01238 26.181 3.13779C26.1804 3.39948 26.1792 3.66116 26.178 3.92285C26.1775 4.1003 26.177 4.27774 26.1766 4.45519C26.1756 4.89013 26.1739 5.32507 26.1719 5.76001C26.2296 5.75817 26.2872 5.75632 26.3467 5.75443C30.0404 5.68886 33.8273 7.36799 36.7188 9.5686C36.8012 9.63028 36.8837 9.69197 36.9686 9.75552C38.1147 10.64 39.1605 11.6406 40.0391 12.7913C40.1146 12.8837 40.1901 12.9761 40.2679 13.0713C42.642 16.0238 44.3089 19.9997 44.2383 23.8264C44.4031 23.8241 44.4031 23.8241 44.5712 23.8218C44.9798 23.8165 45.3883 23.8131 45.7969 23.8103C45.9736 23.8088 46.1503 23.8069 46.3269 23.8043C46.5812 23.8007 46.8354 23.7991 47.0898 23.7978C47.2077 23.7955 47.2077 23.7955 47.3281 23.7932C47.7817 23.7931 48.0653 23.8318 48.4375 24.1194C48.7581 24.44 48.8127 24.746 48.8281 25.1936C48.692 25.5476 48.5422 25.835 48.2422 26.0725C47.8628 26.199 47.504 26.1822 47.1088 26.1797C47.0269 26.1796 46.9449 26.1794 46.8605 26.1793C46.5988 26.1787 46.3371 26.1775 46.0754 26.1763C45.898 26.1758 45.7205 26.1753 45.5431 26.1749C45.1082 26.1739 44.6732 26.1722 44.2383 26.1702C44.241 26.2567 44.241 26.2567 44.2439 26.3449C44.3263 30.9881 41.7966 35.4673 38.6932 38.7426C35.755 41.7653 31.1612 44.1484 26.8827 44.2424C26.6456 44.2426 26.4089 44.2409 26.1719 44.2366C26.1734 44.3464 26.1749 44.4563 26.1765 44.5695C26.1818 44.9781 26.1852 45.3866 26.188 45.7952C26.1894 45.9719 26.1914 46.1485 26.194 46.3252C26.1975 46.5795 26.1992 46.8337 26.2005 47.0881C26.202 47.1667 26.2035 47.2454 26.2051 47.3264C26.2052 47.78 26.1664 48.0636 25.8789 48.4358C25.5583 48.7564 25.2523 48.811 24.8047 48.8264C24.4507 48.6902 24.1633 48.5405 23.9258 48.2405C23.7993 47.8611 23.8161 47.5023 23.8186 47.1071C23.8188 46.9842 23.8188 46.9842 23.819 46.8588C23.8196 46.5971 23.8208 46.3354 23.822 46.0737C23.8225 45.8963 23.823 45.7188 23.8234 45.5414C23.8244 45.1064 23.8261 44.6715 23.8281 44.2366C23.7417 44.2393 23.7417 44.2393 23.6536 44.2421C23.0009 44.2537 22.3835 44.1876 21.7407 44.0779C21.6387 44.0605 21.5366 44.0431 21.4314 44.0251C17.0148 43.2325 12.7022 40.7956 9.96094 37.2053C9.84764 37.0667 9.84764 37.0667 9.73206 36.9253C7.66746 34.3576 6.40656 31.2584 5.87769 28.0195C5.85952 27.9098 5.85952 27.9098 5.84099 27.7979C5.75914 27.2535 5.74946 26.7201 5.76172 26.1702C5.65186 26.1717 5.542 26.1732 5.42881 26.1748C5.02024 26.1801 4.61166 26.1835 4.20306 26.1863C4.0264 26.1877 3.84975 26.1897 3.6731 26.1923C3.4188 26.1958 3.16455 26.1975 2.91023 26.1988C2.83158 26.2003 2.75293 26.2018 2.67189 26.2034C2.21826 26.2035 1.93467 26.1647 1.5625 25.8772C1.24192 25.5566 1.18731 25.2506 1.17188 24.803C1.30804 24.4489 1.45778 24.1616 1.75781 23.9241C2.13717 23.7976 2.49598 23.8144 2.89116 23.8169C2.97311 23.817 3.05507 23.8172 3.1395 23.8173C3.40119 23.8178 3.66287 23.8191 3.92456 23.8203C4.10201 23.8208 4.27945 23.8212 4.4569 23.8216C4.89184 23.8227 5.32678 23.8244 5.76172 23.8264C5.75988 23.7687 5.75804 23.7111 5.75614 23.6516C5.6817 19.458 7.80853 15.0125 10.6445 12.01C10.7507 11.8842 10.8565 11.7581 10.9619 11.6316C13.856 8.34193 18.4908 6.09977 22.8516 5.76001C23.1773 5.75282 23.5024 5.754 23.8281 5.76001C23.8258 5.59522 23.8258 5.59522 23.8235 5.4271C23.8182 5.01852 23.8148 4.60995 23.812 4.20134C23.8106 4.02469 23.8086 3.84803 23.806 3.67139C23.8025 3.41709 23.8008 3.16284 23.7995 2.90852C23.798 2.82987 23.7965 2.75122 23.7949 2.67018C23.7948 2.21727 23.832 1.93127 24.1211 1.56079C24.5707 1.16742 24.9095 1.13047 25.4883 1.26782ZM22.559 8.17204C22.4731 8.18712 22.3872 8.2022 22.2987 8.21774C22.2092 8.23451 22.1198 8.25128 22.0276 8.26855C21.9333 8.28614 21.8391 8.30372 21.742 8.32184C20.3789 8.58551 19.1161 8.98791 17.8603 9.57938C17.6839 9.66245 17.5065 9.74337 17.329 9.82418C13.3758 11.6956 10.4249 15.3179 8.93028 19.3747C8.49097 20.6383 8.09509 22.1115 8.10323 23.4561C8.10397 23.5783 8.10471 23.7005 8.10547 23.8264C8.21533 23.8278 8.32519 23.8293 8.43837 23.8307C8.84699 23.8364 9.25555 23.8439 9.66413 23.852C9.84077 23.8553 10.0174 23.858 10.1941 23.8602C10.4484 23.8635 10.7027 23.8686 10.957 23.8741C11.0356 23.8747 11.1143 23.8753 11.1953 23.876C11.6445 23.8877 11.9367 23.9321 12.3047 24.217C12.535 24.5132 12.5351 24.8284 12.5248 25.197C12.4879 25.4823 12.3885 25.6568 12.207 25.8772C11.8334 26.1414 11.406 26.1067 10.9665 26.1129C10.8847 26.1148 10.8029 26.1167 10.7186 26.1187C10.4579 26.1245 10.1972 26.129 9.93652 26.1335C9.75952 26.1373 9.58252 26.1411 9.40552 26.145C8.97218 26.1544 8.53884 26.1626 8.10547 26.1702C8.10035 26.6025 8.09865 27.0124 8.17375 27.4393C8.18882 27.5252 8.20389 27.611 8.21941 27.6995C8.23619 27.789 8.25297 27.8785 8.27026 27.9707C8.28799 28.0653 8.30572 28.1599 8.32398 28.2574C8.74164 30.4099 9.52325 32.4462 10.7422 34.2756C10.78 34.3331 10.8179 34.3905 10.8569 34.4497C11.4171 35.2914 12.0473 36.0425 12.7507 36.7678C12.8808 36.9022 13.0092 37.0382 13.1374 37.1744C15.6895 39.8258 19.4852 41.5781 23.1445 41.8928C23.3724 41.8938 23.6003 41.8939 23.8281 41.8928C23.8295 41.783 23.831 41.6731 23.8324 41.5599C23.8381 41.1513 23.8457 40.7427 23.8538 40.3342C23.857 40.1575 23.8597 39.9809 23.862 39.8042C23.8652 39.5499 23.8704 39.2956 23.8758 39.0413C23.8764 38.9627 23.8771 38.884 23.8777 38.803C23.8894 38.3538 23.9338 38.0616 24.2188 37.6936C24.5149 37.4633 24.8301 37.4632 25.1987 37.4735C25.484 37.5104 25.6585 37.6098 25.8789 37.7913C26.1431 38.1649 26.1084 38.5923 26.1147 39.0318C26.1175 39.1545 26.1175 39.1545 26.1204 39.2797C26.1262 39.5404 26.1307 39.8011 26.1353 40.0618C26.139 40.2388 26.1428 40.4158 26.1467 40.5928C26.1561 41.0261 26.1643 41.4594 26.1719 41.8928C26.6042 41.8979 27.0142 41.8996 27.441 41.8245C27.5269 41.8095 27.6127 41.7944 27.7012 41.7789C27.7907 41.7621 27.8802 41.7453 27.9724 41.728C28.1143 41.7014 28.1143 41.7014 28.2591 41.6743C30.4116 41.2566 32.4479 40.475 34.2773 39.2561C34.3348 39.2182 34.3922 39.1804 34.4514 39.1414C35.2931 38.5812 36.0442 37.9509 36.7695 37.2476C36.9039 37.1175 37.04 36.9891 37.1761 36.8609C39.7914 34.3435 41.5708 30.5653 41.8945 26.9514C41.8962 26.8153 41.8967 26.6791 41.8961 26.543C41.8956 26.4199 41.8951 26.2969 41.8945 26.1702C41.7297 26.168 41.7297 26.168 41.5616 26.1658C41.153 26.1602 40.7444 26.1526 40.3359 26.1445C40.1592 26.1413 39.9826 26.1386 39.8059 26.1363C39.5516 26.133 39.2973 26.1279 39.043 26.1225C38.9644 26.1219 38.8857 26.1212 38.8047 26.1206C38.3555 26.1089 38.0633 26.0645 37.6953 25.7795C37.465 25.4834 37.4649 25.1681 37.4752 24.7995C37.5121 24.5143 37.6115 24.3398 37.793 24.1194C38.1666 23.8552 38.594 23.8899 39.0335 23.8836C39.1562 23.8808 39.1562 23.8808 39.2814 23.8779C39.5421 23.8721 39.8028 23.8675 40.0635 23.863C40.2405 23.8593 40.4175 23.8555 40.5945 23.8516C41.0278 23.8422 41.4612 23.834 41.8945 23.8264C41.8997 23.3941 41.9014 22.9841 41.8262 22.5573C41.8112 22.4714 41.7961 22.3855 41.7806 22.2971C41.7638 22.2076 41.747 22.1181 41.7297 22.0259C41.7031 21.884 41.7031 21.884 41.676 21.7392C41.2584 19.5867 40.4768 17.5504 39.2578 15.7209C39.201 15.6348 39.201 15.6348 39.1431 15.5469C38.5825 14.7045 37.9516 13.9532 37.2476 13.2275C37.1221 13.0974 36.9991 12.9651 36.8763 12.8325C34.3757 10.2002 30.5779 8.39698 26.9531 8.10376C26.6926 8.1003 26.4325 8.10182 26.1719 8.10376C26.1705 8.21361 26.169 8.32347 26.1676 8.43666C26.1619 8.84528 26.1543 9.25384 26.1462 9.66242C26.143 9.83906 26.1403 10.0157 26.138 10.1924C26.1348 10.4467 26.1296 10.7009 26.1242 10.9552C26.1236 11.0339 26.1229 11.1125 26.1223 11.1936C26.1106 11.6428 26.0662 11.935 25.7812 12.303C25.4851 12.5333 25.1699 12.5334 24.8013 12.5231C24.516 12.4862 24.3415 12.3868 24.1211 12.2053C23.8569 11.8317 23.8916 11.4043 23.8853 10.9648C23.8825 10.8421 23.8825 10.8421 23.8796 10.7169C23.8738 10.4562 23.8693 10.1955 23.8647 9.93481C23.861 9.75781 23.8572 9.5808 23.8533 9.4038C23.8439 8.97047 23.8357 8.53713 23.8281 8.10376C23.3958 8.09863 22.9858 8.09694 22.559 8.17204Z" fill="#F43900"/>
<path d="M27.9295 21.3876C28.8736 22.1154 29.4217 23.2525 29.5897 24.415C29.7199 25.8239 29.318 27.0162 28.4578 28.132C27.6358 29.0325 26.4885 29.5073 25.2928 29.6178C23.9381 29.6619 22.7048 29.2222 21.6978 28.3029C20.7785 27.2959 20.3388 26.0626 20.3829 24.7079C20.4934 23.5122 20.9683 22.3649 21.8687 21.5429C23.7522 20.0911 25.9795 20.03 27.9295 21.3876Z" fill="#F43900"/>
</svg>
