<svg width="50" height="50" viewBox="0 0 50 50" fill="none" xmlns="http://www.w3.org/2000/svg">
<g clip-path="url(#clip0_3139_42955)">
<path d="M23.8122 -0.024661C23.901 -0.025613 23.9898 -0.026565 24.0813 -0.0275458C26.0798 -0.0445588 28.0153 -0.0184258 29.9806 0.389234C30.1113 0.415882 30.1113 0.415882 30.2447 0.443069C32.319 0.880943 34.3287 1.60773 36.2306 2.53767C36.3016 2.57199 36.3726 2.60631 36.4458 2.64167C39.5938 4.17845 42.6217 6.67071 44.7267 9.47127C44.773 9.53234 44.8194 9.59341 44.8671 9.65633C47.5839 13.2531 49.3476 17.3848 49.9025 21.8736C49.9109 21.9384 49.9193 22.0033 49.928 22.07C49.9962 22.6286 50.0172 23.1796 50.02 23.742C50.0206 23.8345 50.0213 23.9269 50.022 24.0221C50.0441 27.8498 50.0441 27.8498 49.7071 29.4908C49.678 29.6391 49.678 29.6391 49.6483 29.7904C48.846 33.8026 47.1434 37.4116 44.629 40.6236C44.5876 40.6768 44.5461 40.73 44.5034 40.7847C43.3605 42.2341 42.0069 43.6201 40.5275 44.7252C40.3948 44.8286 40.2622 44.9321 40.1296 45.0357C38.9611 45.9352 37.7305 46.6769 36.4259 47.3619C36.3527 47.4004 36.2795 47.4389 36.2041 47.4785C33.6967 48.7744 30.9165 49.5427 28.1251 49.901C28.06 49.9095 27.9948 49.918 27.9277 49.9268C27.3694 49.9948 26.8187 50.0157 26.2567 50.0184C26.1643 50.0191 26.0718 50.0198 25.9766 50.0205C22.113 50.0428 22.113 50.0428 20.5079 49.7056C20.4112 49.6857 20.3144 49.6658 20.2147 49.6453C15.4981 48.6481 11.1947 46.5222 7.71495 43.1627C7.6489 43.0993 7.58284 43.0359 7.51478 42.9706C6.59001 42.079 5.73838 41.1728 4.98058 40.1353C4.89679 40.0229 4.81299 39.9105 4.72919 39.7981C4.13959 38.9983 3.61392 38.168 3.12511 37.3033C3.08584 37.2342 3.04656 37.1652 3.00609 37.094C1.67806 34.7352 0.791469 32.1489 0.29308 29.4908C0.278336 29.4168 0.263591 29.3428 0.2484 29.2665C-0.278264 26.5212 -0.244536 23.3407 0.29308 20.6041C0.3088 20.5166 0.32452 20.4292 0.340716 20.3391C1.21316 15.5167 3.547 11.1318 6.9337 7.6158C6.99064 7.55621 7.04757 7.49661 7.10622 7.43522C7.89066 6.6176 8.6973 5.87647 9.60533 5.1988C9.75682 5.08352 9.90412 4.96277 10.0511 4.84175C13.7745 1.80783 19.0228 0.0183212 23.8122 -0.024661Z" fill="#990114"/>
<path d="M30.957 11.6223C31.0527 11.6659 31.0527 11.6659 31.1503 11.7104C34.7421 13.3675 37.4103 16.367 38.797 20.047C40.1542 23.7522 39.8425 27.7755 38.2286 31.3423C36.5971 34.7955 33.5516 37.464 29.9995 38.7913C28.4318 39.3473 26.8503 39.5623 25.1953 39.6496C25.0792 39.6567 24.9632 39.6637 24.8436 39.671C23.2762 39.7196 21.6884 39.3812 20.2148 38.8684C20.0334 38.8053 20.0334 38.8053 19.8482 38.7409C17.8925 38.0068 16.2603 36.8779 14.7461 35.4504C14.6753 35.3859 14.6046 35.3215 14.5317 35.2551C12.0501 32.9069 10.5009 29.3168 10.3821 25.9228C10.3784 25.8207 10.3747 25.7187 10.3709 25.6135C10.2463 21.508 11.6437 17.8475 14.4428 14.83C18.6357 10.4238 25.4073 9.07839 30.957 11.6223Z" fill="#E0E0E3"/>
<path d="M25.0001 0C25.0001 3.41602 25.0001 6.83203 25.0001 10.3516C23.985 10.4482 23.985 10.4482 22.9493 10.5469C18.969 11.2493 15.4533 13.2515 13.075 16.5752C11.8233 18.3889 11.0897 20.3144 10.6446 22.4609C10.6273 22.5397 10.61 22.6185 10.5922 22.6997C9.94191 26.2887 10.8993 30.1191 12.8949 33.1284C15.2734 36.4896 18.6032 38.6827 22.6773 39.3932C23.4484 39.5158 24.2225 39.5777 25.0001 39.6484C25.0001 43.0645 25.0001 46.4805 25.0001 50C18.5223 50 12.4004 47.6876 7.71495 43.1641C7.6489 43.1007 7.58284 43.0373 7.51478 42.9719C6.59001 42.0804 5.73838 41.1742 4.98058 40.1367C4.89679 40.0243 4.81299 39.9119 4.72919 39.7995C4.13959 38.9997 3.61392 38.1694 3.12511 37.3047C3.08584 37.2356 3.04656 37.1666 3.00609 37.0954C1.67806 34.7366 0.791469 32.1503 0.29308 29.4922C0.278336 29.4182 0.263591 29.3441 0.2484 29.2679C-0.278264 26.5226 -0.244536 23.3421 0.29308 20.6055C0.3088 20.518 0.32452 20.4306 0.340716 20.3404C1.21316 15.5181 3.547 11.1332 6.9337 7.61719C6.99064 7.5576 7.04757 7.49801 7.10622 7.43661C7.89066 6.61899 8.6973 5.87786 9.60533 5.2002C9.75682 5.08491 9.90412 4.96416 10.0511 4.84314C14.2139 1.45119 19.7297 0 25.0001 0Z" fill="#E70121"/>
<path d="M23.4455 10.4415C23.5365 10.4419 23.6274 10.4422 23.7211 10.4425C23.8148 10.4433 23.9086 10.4441 24.0051 10.445C24.1007 10.4454 24.1963 10.4459 24.2949 10.4463C24.5299 10.4475 24.765 10.4491 25 10.4511C25.0375 11.2029 25.0629 11.9545 25.0805 12.7071C25.0878 12.9624 25.0977 13.2177 25.1105 13.4728C25.2192 15.7037 25.2192 15.7037 24.6949 16.3993C24.3462 16.7796 23.9516 17.0831 23.5352 17.3847C23.3894 17.5121 23.2446 17.6407 23.1022 17.7719C23.0146 17.8461 23.0146 17.8461 22.9252 17.9217C22.5946 18.2045 22.2822 18.5074 21.9666 18.8068C21.5446 19.2062 21.1226 19.6054 20.6947 19.9985C18.4231 22.0514 18.4231 22.0514 17.4286 24.8458C17.4269 25.026 17.428 25.2062 17.4316 25.3864C17.4336 25.5282 17.4336 25.5282 17.4356 25.6728C17.4733 26.9702 17.9515 27.8831 18.8492 28.8208C19.2614 29.2013 19.6942 29.4805 20.2148 29.6894C20.3431 29.7422 20.3431 29.7422 20.4739 29.7962C20.8971 29.9107 21.2863 29.9095 21.7224 29.903C21.8426 29.9029 21.8426 29.9029 21.9652 29.9028C22.4329 29.8994 22.8787 29.8646 23.3398 29.787C23.2666 30.1166 23.2666 30.1166 23.1445 30.4706C22.9512 30.5673 22.9512 30.5673 22.7539 30.6659C22.7539 31.1171 22.7539 31.5683 22.7539 32.0331C23.4951 32.0331 24.2363 32.0331 25 32.0331C25 34.5146 25 36.996 25 39.5526C20.863 39.5526 17.4614 38.1344 14.5081 35.2497C12.0781 32.81 10.5029 29.373 10.3821 25.9235C10.3784 25.8214 10.3747 25.7194 10.3709 25.6142C10.2463 21.5087 11.6437 17.8482 14.4428 14.8307C16.6323 12.5299 19.3799 11.1875 22.4609 10.5487C22.5357 10.5319 22.6106 10.5151 22.6876 10.4977C22.9469 10.4515 23.1825 10.4399 23.4455 10.4415Z" fill="#F0F0F0"/>
<path d="M24.9023 15.918C25.2428 16.0629 25.4533 16.2561 25.708 16.5222C26.0385 16.8667 26.3853 17.1811 26.7457 17.4934C27.0895 17.7958 27.4206 18.1114 27.7526 18.4265C28.2067 18.8561 28.6615 19.2845 29.1229 19.7063C32.5634 22.8537 32.5634 22.8537 32.7388 25.1144C32.7891 26.5103 32.325 27.6 31.4353 28.6633C30.9482 29.1839 30.4473 29.523 29.7851 29.7852C29.6989 29.821 29.6126 29.8569 29.5238 29.8939C29.0857 30.0107 28.6739 30.0089 28.2226 30.0049C28.137 30.0056 28.0514 30.0064 27.9632 30.0072C27.4899 30.0057 27.1042 29.9692 26.6601 29.7852C26.7204 29.9137 26.7816 30.0418 26.8432 30.1697C26.8772 30.2411 26.9112 30.3124 26.9462 30.386C27.0379 30.5824 27.0379 30.5824 27.246 30.6641C27.246 31.1152 27.246 31.5664 27.246 32.0312C25.7636 32.0312 24.2812 32.0312 22.7539 32.0312C22.7539 30.6641 22.7539 30.6641 23.1445 30.2734C23.267 30.0164 23.267 30.0164 23.3398 29.7852C23.2456 29.8166 23.1515 29.8481 23.0545 29.8805C22.1022 30.1509 20.86 30.1185 19.9558 29.7188C18.8688 29.1075 18.0511 28.2039 17.5781 27.0508C17.5246 26.9233 17.5246 26.9233 17.4701 26.7933C17.1919 25.7471 17.2184 24.3697 17.715 23.4028C17.7665 23.3176 17.818 23.2323 17.871 23.1445C17.9255 23.0502 17.9801 22.956 18.0362 22.8588C18.5368 22.053 19.166 21.3799 19.8242 20.7031C19.89 20.6345 19.9558 20.5659 20.0237 20.4952C20.3651 20.1459 20.7268 19.8255 21.0967 19.5068C21.3385 19.2919 21.5633 19.0629 21.7898 18.8322C21.9649 18.6599 22.1453 18.4989 22.3316 18.3388C22.7654 17.9616 23.1846 17.5702 23.6022 17.1753C23.6738 17.1079 23.7454 17.0406 23.8191 16.9712C24.1858 16.6254 24.5483 16.2768 24.9023 15.918Z" fill="#17171A"/>
<path d="M24.9023 15.918C24.999 15.9663 24.999 15.9663 25.0976 16.0156C25.0654 21.3008 25.0332 26.5859 24.9999 32.0312C24.2587 32.0312 23.5175 32.0312 22.7539 32.0312C22.7053 30.7212 22.7053 30.7212 22.9431 30.4413C23.0095 30.3859 23.076 30.3305 23.1445 30.2734C23.267 30.0164 23.267 30.0164 23.3398 29.7852C23.2456 29.8166 23.1515 29.8481 23.0545 29.8805C22.1022 30.1509 20.86 30.1185 19.9558 29.7188C18.8688 29.1075 18.0511 28.2039 17.5781 27.0508C17.5246 26.9233 17.5246 26.9233 17.4701 26.7933C17.1919 25.7471 17.2184 24.3697 17.715 23.4028C17.7665 23.3176 17.818 23.2323 17.871 23.1445C17.9255 23.0502 17.9801 22.956 18.0362 22.8588C18.5368 22.053 19.166 21.3799 19.8242 20.7031C19.89 20.6345 19.9558 20.5659 20.0237 20.4952C20.3651 20.1459 20.7268 19.8255 21.0967 19.5068C21.3385 19.2919 21.5633 19.0629 21.7898 18.8322C21.9649 18.6599 22.1453 18.4989 22.3316 18.3388C22.7654 17.9616 23.1846 17.5702 23.6022 17.1753C23.6738 17.1079 23.7454 17.0406 23.8191 16.9712C24.1858 16.6254 24.5483 16.2768 24.9023 15.918Z" fill="#3C3A41"/>
<path d="M23.5352 0C23.5352 2.48145 23.5352 4.96289 23.5352 7.51953C22.8906 7.61621 22.2461 7.71289 21.582 7.8125C20.3169 8.11257 19.0845 8.46383 17.9008 9.00764C17.6328 9.09623 17.5436 9.09421 17.2852 8.98437C17.1222 8.76412 17.1222 8.76412 16.9601 8.46939C16.8989 8.35979 16.8376 8.25019 16.7745 8.13727C16.7424 8.07841 16.7102 8.01955 16.6771 7.95891C16.5416 7.71087 16.4035 7.46439 16.2653 7.21781C16.1935 7.08945 16.1217 6.96101 16.0501 6.8325C15.672 6.15524 15.2774 5.48806 14.8804 4.82178C14.7852 4.66158 14.7852 4.66158 14.688 4.49815C14.3183 3.87676 13.9467 3.25647 13.5742 2.63672C16.6154 1.10149 20.1005 0 23.5352 0Z" fill="#F0F0F0"/>
<path d="M2.53906 13.7695C3.11056 14.1026 3.68191 14.4359 4.25224 14.7709C5.39256 15.4398 6.53845 16.0968 7.69546 16.7364C8.17112 17.0004 8.63616 17.2662 9.08203 17.5781C9.0454 17.681 9.00877 17.7838 8.97102 17.8898C8.86525 18.1871 8.76091 18.4848 8.65707 18.7828C8.56435 19.0481 8.46809 19.3098 8.36563 19.5717C7.86247 20.9145 7.76642 22.1515 7.51953 23.6328C5.03809 23.6328 2.55664 23.6328 0 23.6328C0.115201 21.5592 0.115201 21.5592 0.256348 20.7458C0.273059 20.6485 0.28977 20.5512 0.306988 20.4509C0.728583 18.1268 1.5113 15.8923 2.53906 13.7695Z" fill="#F0EFF0"/>
<path d="M10.5469 35.0586C10.8738 35.3769 11.1714 35.7033 11.4563 36.0596C12.0828 36.8313 12.7088 37.5499 13.4766 38.1836C13.5671 38.2586 13.6576 38.3336 13.7508 38.4109C14.1424 38.7333 14.5333 39.0542 14.9414 39.3555C14.8834 39.7572 14.7508 40.0436 14.5473 40.3934C14.454 40.5552 14.454 40.5552 14.3588 40.7203C14.2906 40.8371 14.2223 40.9538 14.1541 41.0706C14.0841 41.1914 14.0142 41.3123 13.9443 41.4332C13.7983 41.686 13.6519 41.9386 13.5053 42.1911C13.1769 42.7576 12.8527 43.3265 12.5284 43.8953C12.367 44.1782 12.2054 44.461 12.0438 44.7437C11.9872 44.8428 11.9306 44.9418 11.8723 45.0438C11.6909 45.3612 11.5095 45.6787 11.3281 45.9961C9.99575 45.1897 8.83195 44.2426 7.71484 43.1641C7.61576 43.069 7.61576 43.069 7.51467 42.9719C6.64076 42.1294 5.82225 41.2761 5.10077 40.2988C4.97578 40.1304 4.8482 39.9643 4.71992 39.7984C4.10156 38.9929 4.10156 38.9929 4.10156 38.7695C4.16171 38.7363 4.22186 38.7031 4.28383 38.6688C5.7332 37.8664 7.16473 37.0397 8.58765 36.1916C9.23596 35.8053 9.889 35.4283 10.5469 35.0586Z" fill="#F0F0F0"/>
<path d="M38.7695 4.10156C39.3738 4.41411 39.9025 4.76378 40.4236 5.2002C40.4917 5.25656 40.5598 5.31293 40.63 5.371C40.8245 5.53279 41.018 5.69574 41.2109 5.85938C41.3393 5.96814 41.3393 5.96814 41.4703 6.0791C42.6454 7.10929 43.7798 8.22763 44.7266 9.47266C44.8319 9.60685 44.9373 9.74099 45.0428 9.87511C45.1532 10.0175 45.2634 10.1601 45.3735 10.3027C45.4269 10.3707 45.4802 10.4386 45.5352 10.5086C45.5838 10.5726 45.6324 10.6366 45.6825 10.7025C45.7265 10.7596 45.7706 10.8167 45.8159 10.8755C45.8431 10.9282 45.8704 10.9809 45.8984 11.0352C45.7572 11.4587 45.4377 11.5521 45.0623 11.7493C44.9008 11.8365 44.7394 11.924 44.5782 12.0117C44.4915 12.0588 44.4048 12.1059 44.3155 12.1544C43.8374 12.4181 43.3666 12.6941 42.8955 12.97C42.7488 13.0555 42.7488 13.0555 42.5992 13.1427C42.0912 13.4396 41.5855 13.7398 41.0824 14.045C40.984 14.1043 40.8856 14.1636 40.7842 14.2247C40.596 14.3383 40.4084 14.4527 40.2213 14.5681C40.1374 14.6186 40.0534 14.6692 39.967 14.7213C39.8934 14.7663 39.8199 14.8113 39.7441 14.8577C39.5508 14.9414 39.5508 14.9414 39.2578 14.8438C39.1073 14.6616 38.9684 14.4796 38.8306 14.2883C37.9916 13.1651 37.0537 12.18 35.9375 11.3281C35.7686 11.1959 35.5998 11.0636 35.4309 10.9314C35.3069 10.8356 35.1829 10.74 35.0586 10.6445C35.2176 10.0409 35.5412 9.53994 35.8582 9.00879C35.9817 8.79953 36.1052 8.59023 36.2286 8.38089C36.2928 8.27216 36.3571 8.16342 36.4233 8.0514C36.8146 7.38561 37.1982 6.7153 37.5829 6.04563C38.6098 4.26132 38.6098 4.26132 38.7695 4.10156Z" fill="#E0E0E3"/>
<path d="M42.4805 26.4648C44.9619 26.4648 47.4434 26.4648 50 26.4648C49.8419 29.1518 49.4274 34.1663 47.3633 36.2305C47.2752 36.1781 47.187 36.1257 47.0963 36.0718C45.8414 35.3287 44.5745 34.6066 43.3075 33.8845C42.7956 33.5927 42.284 33.3002 41.7725 33.0078C41.6051 32.9122 41.4378 32.8166 41.2704 32.7209C41.153 32.6538 41.0355 32.5867 40.918 32.5195C41.0643 32.0727 41.2141 31.6276 41.3754 31.1859C41.9511 29.6033 42.2694 28.1534 42.4805 26.4648Z" fill="#E0E0E3"/>
<path d="M32.6172 41.0146C32.7527 41.2005 32.7527 41.2005 32.8934 41.4476C32.9466 41.54 32.9998 41.6324 33.0547 41.7276C33.1117 41.8287 33.1688 41.9298 33.2275 42.0339C33.2872 42.138 33.3469 42.2421 33.4084 42.3493C33.5356 42.5712 33.6624 42.7933 33.789 43.0156C34.0452 43.4658 34.305 43.9139 34.5645 44.3622C34.7498 44.6827 34.9346 45.0035 35.1192 45.3244C35.317 45.6683 35.5154 46.0117 35.7151 46.3544C35.7526 46.419 35.79 46.4837 35.8286 46.5503C35.9225 46.7122 36.0168 46.874 36.1111 47.0357C36.2305 47.2646 36.2305 47.2646 36.2305 47.4599C33.9614 48.6074 31.5111 49.3738 29.0039 49.7854C28.9375 49.7963 28.8711 49.8072 28.8027 49.8185C28.0565 49.9288 27.3213 49.9515 26.5625 49.999C26.5625 47.5175 26.5625 45.0361 26.5625 42.4794C27.3359 42.3505 28.1094 42.2216 28.9062 42.0888C29.9921 41.7933 31.0161 41.4641 32.0438 41.015C32.3242 40.9169 32.3242 40.9169 32.6172 41.0146Z" fill="#E0E0E3"/>
</g>
<defs>
<clipPath id="clip0_3139_42955">
<rect width="50" height="50" fill="white"/>
</clipPath>
</defs>
</svg>
