<svg width="50" height="50" viewBox="0 0 50 50" fill="none" xmlns="http://www.w3.org/2000/svg">
<g clip-path="url(#clip0_3163_42704)">
<path d="M40.5272 4.98047C40.9939 5.27569 41.4021 5.60944 41.815 5.97534C42.243 6.35067 42.6722 6.72222 43.1151 7.08008C43.6065 7.47817 44.0843 7.89042 44.5605 8.30646C44.8569 8.5651 45.1544 8.82164 45.4584 9.07135C47.2531 10.5463 48.6796 12.4554 48.9256 14.8438C49.0952 17.3317 48.4842 19.2155 47.2403 21.3508C46.2627 23.0432 45.4932 24.8261 44.824 26.6602C44.7912 26.7492 44.7584 26.8383 44.7246 26.93C43.0451 31.5452 42.2668 36.5196 41.992 41.4062C41.9864 41.5064 41.9807 41.6066 41.9749 41.7098C41.8268 44.4739 41.8939 47.2358 41.992 50C41.2186 50 40.4451 50 39.6483 50C39.6783 49.6588 39.6783 49.6588 39.7089 49.3107C39.7287 49.0841 39.7484 48.8575 39.7681 48.6309C39.7815 48.4764 39.7951 48.322 39.8087 48.1676C39.9733 46.3008 40.0591 44.4529 40.0572 42.5781C40.0571 42.4707 40.0571 42.3632 40.057 42.2525C40.0543 40.433 40.0071 38.6293 39.8436 36.8164C39.8372 36.7449 39.8308 36.6733 39.8242 36.5996C39.6746 34.945 39.4908 33.2967 39.2088 31.6589C39.1903 31.549 39.1718 31.4391 39.1528 31.3258C39.018 30.5921 38.8533 29.8241 38.22 29.3579C37.728 29.0231 37.2005 28.8716 36.6045 28.9253C35.7636 29.1042 35.2512 29.543 34.7593 30.2185C34.7055 30.291 34.6516 30.3635 34.5961 30.4382C33.4446 32.0049 32.4378 33.6257 31.5428 35.3516C31.4881 35.4562 31.4881 35.4562 31.4324 35.563C31.2003 36.0094 30.9783 36.4601 30.7615 36.9141C30.7251 36.9899 30.6887 37.0657 30.6511 37.1439C29.7409 39.0518 28.9989 41.0248 28.3277 43.0279C27.81 44.5703 27.2822 45.9458 26.1717 47.168C26.0925 47.2562 26.0133 47.3445 25.9317 47.4354C24.5518 48.8962 22.6623 49.8718 20.64 50.0274C20.25 50.0378 19.8605 50.0397 19.4704 50.0379C19.3218 50.0383 19.1733 50.0388 19.0248 50.0395C18.6253 50.0408 18.2258 50.0403 17.8263 50.0394C17.4061 50.0386 16.9859 50.0393 16.5657 50.0398C15.8605 50.0403 15.1554 50.0396 14.4503 50.0382C13.6375 50.0366 12.8246 50.0371 12.0118 50.0387C11.311 50.0401 10.6103 50.0402 9.90953 50.0395C9.49223 50.039 9.07495 50.039 8.65766 50.0399C8.26535 50.0408 7.87308 50.0402 7.48078 50.0385C7.33761 50.0381 7.19444 50.0382 7.05127 50.0389C5.35758 50.0459 3.8128 49.5987 2.56978 48.3967C1.67121 47.3951 0.980332 46.3256 1.03093 44.9398C1.12106 44.2898 1.3896 43.7623 1.88581 43.3289C2.4262 42.9693 3.06081 42.8217 3.67805 42.6443C6.2515 41.8978 8.61477 40.863 10.5467 38.9648C10.6147 38.8981 10.6826 38.8314 10.7527 38.7627C11.5503 37.9249 12.046 36.8917 12.4998 35.8398C12.57 35.8409 12.6401 35.8419 12.7124 35.8429C17.1463 35.8988 20.9565 34.9756 24.2186 31.8359C24.2803 31.7804 24.3419 31.7249 24.4055 31.6677C25.6743 30.4921 26.4808 28.8624 27.3335 27.3808C27.6419 26.8451 27.9557 26.3127 28.2713 25.7812C28.756 24.9628 29.2373 24.1424 29.7178 23.3215C30.3219 22.2897 30.9298 21.2602 31.5402 20.2321C32.0575 19.3599 32.571 18.4855 33.0833 17.6104C33.5786 16.7644 34.0758 15.9196 34.5752 15.0761C34.8695 14.5786 35.1626 14.0804 35.4544 13.5815C35.4887 13.5228 35.523 13.4641 35.5584 13.4037C35.6104 13.3147 35.6104 13.3147 35.6635 13.224C35.7344 13.1027 35.8053 12.9814 35.8763 12.8601C35.9115 12.8 35.9466 12.7398 35.9829 12.6778C36.4708 11.8441 36.9643 11.014 37.4632 10.1868C38.033 9.24198 38.5877 8.28922 39.137 7.3324C39.5908 6.54248 40.0534 5.75855 40.5272 4.98047Z" fill="#6BBFDC"/>
<path d="M48.8281 16.5039C48.8604 16.5039 48.8926 16.5039 48.9258 16.5039C48.9195 18.2675 48.2041 19.6559 47.3454 21.1608C46.3388 22.9257 45.5203 24.7524 44.8242 26.6602C44.7914 26.7492 44.7586 26.8383 44.7248 26.93C43.0453 31.5452 42.267 36.5196 41.9922 41.4062C41.9865 41.5064 41.9809 41.6066 41.9751 41.7098C41.827 44.4739 41.8941 47.2358 41.9922 50C41.2187 50 40.4453 50 39.6484 50C39.6785 49.6588 39.6785 49.6588 39.7091 49.3107C39.7289 49.0841 39.7486 48.8575 39.7682 48.6309C39.7817 48.4764 39.7952 48.322 39.8089 48.1676C39.9735 46.3008 40.0593 44.4529 40.0574 42.5781C40.0573 42.4707 40.0573 42.3632 40.0572 42.2525C40.0545 40.433 40.0072 38.6293 39.8438 36.8164C39.8374 36.7449 39.831 36.6733 39.8244 36.5996C39.6748 34.945 39.491 33.2967 39.209 31.6589C39.1905 31.549 39.172 31.4391 39.153 31.3258C39.0181 30.5921 38.8535 29.8241 38.2202 29.3579C37.7281 29.0231 37.2007 28.8716 36.6047 28.9253C35.7637 29.1042 35.2514 29.543 34.7595 30.2185C34.7057 30.291 34.6518 30.3635 34.5963 30.4382C33.4447 32.0049 32.438 33.6257 31.543 35.3516C31.4883 35.4562 31.4883 35.4562 31.4325 35.563C31.2005 36.0094 30.9785 36.4601 30.7617 36.9141C30.7253 36.9899 30.6889 37.0657 30.6513 37.1439C29.7411 39.0518 28.999 41.0248 28.3279 43.0279C27.8102 44.5703 27.2824 45.9458 26.1719 47.168C26.0927 47.2562 26.0135 47.3445 25.9319 47.4354C24.552 48.8962 22.6625 49.8718 20.6402 50.0274C20.2502 50.0378 19.8607 50.0397 19.4705 50.0379C19.322 50.0383 19.1735 50.0388 19.0249 50.0395C18.6254 50.0408 18.226 50.0403 17.8265 50.0394C17.4063 50.0386 16.9861 50.0393 16.5659 50.0398C15.8607 50.0403 15.1556 50.0396 14.4505 50.0382C13.6377 50.0366 12.8248 50.0371 12.012 50.0387C11.3112 50.0401 10.6105 50.0402 9.90971 50.0395C9.49241 50.039 9.07513 50.039 8.65784 50.0399C8.26553 50.0408 7.87326 50.0402 7.48096 50.0385C7.33779 50.0381 7.19462 50.0382 7.05145 50.0389C5.29906 50.0461 3.83423 49.5674 2.53792 48.3604C2.33875 48.139 2.20029 47.9129 2.05078 47.6562C2.19268 47.6562 2.19268 47.6562 2.33744 47.6561C4.64519 47.6547 6.95292 47.6505 9.26065 47.6434C10.3767 47.64 11.4927 47.6375 12.6087 47.6372C13.5821 47.6369 14.5555 47.6348 15.5288 47.6308C16.0436 47.6287 16.5584 47.6275 17.0733 47.6283C17.5591 47.629 18.0449 47.6275 18.5307 47.6242C18.7078 47.6234 18.8849 47.6234 19.062 47.6244C21.0839 47.6339 22.6866 47.1532 24.1913 45.739C25.2308 44.6604 25.6787 43.2298 26.142 41.8374C27.6528 37.3105 29.6664 32.6192 32.7148 28.9062C32.7876 28.8116 32.8604 28.7169 32.9353 28.6194C33.803 27.5069 34.8089 26.7088 36.2305 26.4648C36.3965 26.4554 36.5628 26.4498 36.729 26.4477C39.5907 26.3862 41.9727 25.7031 44.043 23.6328C44.1059 23.5699 44.1689 23.5069 44.2337 23.4421C45.2927 22.3039 46.061 20.8317 46.8888 19.5247C47.197 19.0383 47.506 18.5523 47.8149 18.0664C47.8716 17.9772 47.9282 17.888 47.9865 17.7961C48.1364 17.5604 48.2867 17.325 48.4375 17.0898C48.4979 16.9954 48.4979 16.9954 48.5595 16.8991C48.6463 16.7656 48.7367 16.6344 48.8281 16.5039Z" fill="#509BAD"/>
<path d="M35.1499 -0.0195312C35.449 -0.0012207 35.449 -0.0012207 35.6443 0.194092C35.6678 0.384412 35.6678 0.384412 35.6665 0.619669C35.6664 0.707636 35.6664 0.795603 35.6664 0.886236C35.6654 0.981353 35.6644 1.07647 35.6634 1.17447C35.6631 1.27173 35.6628 1.369 35.6625 1.46921C35.6614 1.78067 35.659 2.09211 35.6565 2.40356C35.6555 2.61439 35.6546 2.82522 35.6538 3.03604C35.6517 3.55358 35.6484 4.0711 35.6443 4.58862C35.6989 4.58819 35.7535 4.58776 35.8098 4.58731C36.3769 4.583 36.944 4.58005 37.5111 4.57789C37.7229 4.57691 37.9347 4.57558 38.1465 4.57389C38.4505 4.57153 38.7545 4.57041 39.0584 4.56955C39.1536 4.56854 39.2487 4.56753 39.3467 4.56649C39.4346 4.56648 39.5226 4.56647 39.6132 4.56645C39.6909 4.56602 39.7685 4.56558 39.8485 4.56514C40.0388 4.58862 40.0388 4.58862 40.2341 4.78394C40.2585 5.02808 40.2585 5.02808 40.2341 5.27222C40.0388 5.46753 40.0388 5.46753 39.8485 5.49102C39.7709 5.49058 39.6932 5.49015 39.6132 5.4897C39.5253 5.48969 39.4373 5.48967 39.3467 5.48966C39.2516 5.48865 39.1564 5.48764 39.0584 5.4866C38.9612 5.48633 38.8639 5.48605 38.7637 5.48577C38.4522 5.48467 38.1408 5.48222 37.8293 5.47974C37.6185 5.47876 37.4077 5.47787 37.1969 5.47707C36.6793 5.47491 36.1618 5.47164 35.6443 5.46753C35.6459 5.54914 35.6459 5.54914 35.6476 5.63239C35.6584 6.19791 35.6657 6.76339 35.6711 7.32898C35.6736 7.54014 35.6769 7.75129 35.6811 7.96241C35.687 8.26568 35.6898 8.56883 35.692 8.87215C35.6958 9.01407 35.6958 9.01407 35.6996 9.15885C35.6997 9.40283 35.6952 9.62348 35.6443 9.86206C35.4216 10.0826 35.4216 10.0826 35.156 10.155C35.0271 10.0906 34.8982 10.0261 34.7654 9.95972C34.7654 8.47729 34.7654 6.99487 34.7654 5.46753C33.2958 5.47526 33.2958 5.47526 31.8262 5.48512C31.6424 5.48569 31.4587 5.48619 31.2749 5.4866C31.1789 5.4876 31.0829 5.4886 30.984 5.48963C30.8929 5.48965 30.8017 5.48968 30.7077 5.4897C30.6284 5.49014 30.549 5.49057 30.4672 5.49102C30.2732 5.46753 30.2732 5.46753 30.0779 5.27222C30.0535 5.02808 30.0535 5.02808 30.0779 4.78394C30.2732 4.58862 30.2732 4.58862 30.4672 4.56514C30.5863 4.56579 30.5863 4.56579 30.7077 4.56645C30.7977 4.56646 30.8876 4.56648 30.9802 4.56649C31.0775 4.5675 31.1747 4.56851 31.2749 4.56955C31.3744 4.56983 31.4738 4.5701 31.5762 4.57039C31.8947 4.57148 32.2131 4.57393 32.5315 4.57642C32.747 4.5774 32.9626 4.57829 33.1781 4.57909C33.7072 4.58124 34.2363 4.58451 34.7654 4.58862C34.7652 4.53256 34.7649 4.4765 34.7647 4.41874C34.7626 3.8374 34.7611 3.25606 34.76 2.67472C34.7595 2.4575 34.7589 2.24029 34.758 2.02307C34.7568 1.71159 34.7563 1.40012 34.7558 1.08864C34.7553 0.990881 34.7548 0.893124 34.7543 0.792405C34.7543 0.702475 34.7543 0.612546 34.7543 0.519891C34.7541 0.440304 34.7539 0.360718 34.7536 0.27872C34.7734 -0.0275335 34.8389 0.000322986 35.1499 -0.0195312Z" fill="#53DAE8"/>
<path d="M10.4976 30.3477C10.7418 30.3721 10.7418 30.3721 10.9371 30.5674C10.9593 30.8495 10.9593 30.8495 10.9562 31.206C10.9555 31.3331 10.9549 31.4603 10.9543 31.5912C10.9526 31.726 10.951 31.8608 10.9493 31.9956C10.9483 32.1312 10.9474 32.2667 10.9466 32.4023C10.9443 32.7347 10.9411 33.067 10.9371 33.3994C11.0643 33.3979 11.0643 33.3979 11.194 33.3963C11.5081 33.393 11.8222 33.3905 12.1363 33.3887C12.2724 33.3877 12.4084 33.3864 12.5444 33.3847C12.7398 33.3823 12.9352 33.3813 13.1306 33.3803C13.307 33.3788 13.307 33.3788 13.487 33.3772C13.7691 33.3994 13.7691 33.3994 13.9644 33.5947C13.94 33.8938 13.94 33.8938 13.8668 34.1807C13.5916 34.3183 13.3617 34.2892 13.0543 34.2879C12.9315 34.2875 12.8088 34.2872 12.6823 34.2869C12.5535 34.2861 12.4248 34.2853 12.2921 34.2844C12.1612 34.2839 12.0304 34.2835 11.8996 34.2831C11.5787 34.2819 11.2579 34.2803 10.9371 34.2783C10.9376 34.3601 10.9381 34.4419 10.9387 34.5262C10.9403 34.8294 10.9415 35.1326 10.9425 35.4358C10.9432 35.6317 10.9444 35.8276 10.9457 36.0235C10.946 36.1463 10.9463 36.269 10.9466 36.3955C10.9472 36.509 10.9477 36.6225 10.9482 36.7395C10.9371 37.0127 10.9371 37.0127 10.8394 37.208C10.5587 37.2202 10.5587 37.2202 10.2535 37.208C10.0582 37.0127 10.0582 37.0127 10.036 36.7395C10.037 36.626 10.0381 36.5125 10.0391 36.3955C10.0398 36.2727 10.0404 36.15 10.041 36.0235C10.0427 35.8948 10.0443 35.766 10.046 35.6333C10.047 35.5025 10.0479 35.3716 10.0487 35.2408C10.051 34.9199 10.0542 34.5991 10.0582 34.2783C9.9769 34.2799 9.8956 34.2814 9.81184 34.283C9.50991 34.288 9.208 34.2916 8.90604 34.2944C8.7112 34.2966 8.51637 34.3003 8.32156 34.3041C8.19913 34.305 8.07671 34.306 7.95058 34.3069C7.83755 34.3085 7.72453 34.31 7.60809 34.3116C7.32382 34.2783 7.32382 34.2783 7.13664 34.1461C7.03085 33.9854 7.03085 33.9854 7.05527 33.729C7.12851 33.4971 7.12851 33.4971 7.22616 33.3994C7.43569 33.3908 7.64551 33.389 7.85521 33.3899C7.98267 33.3902 8.11013 33.3905 8.24145 33.3908C8.37706 33.3916 8.51267 33.3925 8.64828 33.3933C8.78428 33.3938 8.92027 33.3942 9.05627 33.3946C9.39025 33.3958 9.72422 33.3974 10.0582 33.3994C10.0572 33.3146 10.0562 33.2299 10.0551 33.1425C10.0518 32.8284 10.0493 32.5143 10.0475 32.2002C10.0465 32.0641 10.0452 31.9281 10.0435 31.7921C10.0411 31.5967 10.0401 31.4013 10.0391 31.206C10.0381 31.0883 10.0371 30.9707 10.036 30.8495C10.0645 30.487 10.13 30.3844 10.4976 30.3477Z" fill="#54D9E8"/>
<path d="M32.5806 9.20421C32.8125 9.27745 32.8125 9.27745 32.9102 9.37511C32.9186 9.51336 32.9206 9.65202 32.9197 9.79053C32.9194 9.87392 32.9191 9.95732 32.9187 10.0432C32.9179 10.1309 32.9171 10.2186 32.9163 10.3089C32.9158 10.397 32.9154 10.4851 32.9149 10.5758C32.9138 10.7941 32.9122 11.0123 32.9102 11.2306C32.9929 11.229 32.9929 11.229 33.0774 11.2275C33.3268 11.2234 33.5762 11.2209 33.8257 11.2184C33.9125 11.2167 33.9994 11.2151 34.0889 11.2134C34.172 11.2128 34.2551 11.2121 34.3407 11.2115C34.4557 11.21 34.4557 11.21 34.5731 11.2084C34.7656 11.2306 34.7656 11.2306 34.9609 11.4259C34.9854 11.67 34.9854 11.67 34.9609 11.9142C34.7656 12.1095 34.7656 12.1095 34.5731 12.1317C34.4964 12.1306 34.4197 12.1296 34.3407 12.1286C34.2576 12.1279 34.1745 12.1273 34.0889 12.1266C33.9586 12.1242 33.9586 12.1242 33.8257 12.1217C33.6943 12.1204 33.6943 12.1204 33.5602 12.119C33.3435 12.1167 33.1268 12.1135 32.9102 12.1095C32.9112 12.1647 32.9122 12.2199 32.9133 12.2767C32.9173 12.5261 32.9199 12.7756 32.9224 13.025C32.924 13.1119 32.9256 13.1987 32.9273 13.2882C32.928 13.3713 32.9286 13.4544 32.9292 13.54C32.9303 13.6167 32.9313 13.6934 32.9323 13.7724C32.9102 13.9649 32.9102 13.9649 32.7148 14.1603C32.4707 14.1847 32.4707 14.1847 32.2266 14.1603C32.0312 13.9649 32.0312 13.9649 32.0091 13.7724C32.0101 13.6957 32.0111 13.619 32.0122 13.54C32.0128 13.4569 32.0134 13.3738 32.0141 13.2882C32.0157 13.2014 32.0174 13.1145 32.019 13.025C32.0199 12.9374 32.0208 12.8498 32.0217 12.7595C32.024 12.5428 32.0272 12.3262 32.0312 12.1095C31.9761 12.1105 31.9209 12.1115 31.864 12.1126C31.6146 12.1166 31.3652 12.1192 31.1157 12.1217C31.0289 12.1233 30.942 12.125 30.8525 12.1266C30.7694 12.1273 30.6863 12.1279 30.6007 12.1286C30.4857 12.1301 30.4857 12.1301 30.3683 12.1317C30.1758 12.1095 30.1758 12.1095 29.9805 11.9142C30.036 11.3704 30.036 11.3704 30.1758 11.2306C30.314 11.2221 30.4527 11.2201 30.5912 11.221C30.7163 11.2215 30.7163 11.2215 30.8439 11.222C30.9316 11.2228 31.0193 11.2236 31.1096 11.2245C31.1977 11.2249 31.2857 11.2254 31.3765 11.2258C31.5947 11.227 31.813 11.2286 32.0312 11.2306C32.0262 11.0453 32.0262 11.0453 32.021 10.8564C32.0182 10.6942 32.0155 10.5321 32.0129 10.37C32.0105 10.2886 32.008 10.2072 32.0055 10.1234C32.0046 10.045 32.0036 9.96663 32.0026 9.88589C32.0011 9.81378 31.9996 9.74168 31.998 9.66738C32.0593 9.30876 32.2232 9.17017 32.5806 9.20421Z" fill="#53DAE8"/>
<path d="M39.9414 47.6562C40.5537 47.6562 41.166 47.6562 41.7969 47.6562C41.8191 47.9265 41.8414 48.1967 41.8636 48.4669C41.8865 48.7396 41.8865 48.7396 41.9922 49.0234C41.9922 49.3457 41.9922 49.668 41.9922 50C41.2187 50 40.4453 50 39.6484 50C39.6786 49.6677 39.7089 49.3353 39.74 48.9929C39.7493 48.8885 39.7586 48.7841 39.7682 48.6766C39.7759 48.594 39.7836 48.5115 39.7915 48.4264C39.7992 48.3421 39.8068 48.2577 39.8147 48.1707C39.8438 47.9492 39.8438 47.9492 39.9414 47.6562Z" fill="#397181"/>
<path d="M14.1606 39.3572C14.4295 39.5326 14.6026 39.6553 14.7465 39.9432C14.8103 40.4066 14.8148 40.7227 14.5451 41.115C14.1979 41.3514 13.9949 41.4154 13.5747 41.408C13.2088 41.2147 13.0232 41.0691 12.7934 40.7244C12.7484 40.3191 12.7471 40.1126 12.9704 39.7661C13.3655 39.3711 13.6079 39.3 14.1606 39.3572Z" fill="#F9FCFD"/>
<path d="M45.8988 13.8671C46.1732 14.0422 46.3392 14.1619 46.4847 14.453C46.5343 14.9563 46.5343 14.9563 46.4847 15.2342C46.2467 15.5211 46.2467 15.5211 45.9965 15.7225C45.9642 15.7547 45.932 15.787 45.8988 15.8202C45.6124 15.8488 45.3964 15.869 45.1176 15.8202C44.8307 15.5821 44.8307 15.5821 44.6293 15.3319C44.597 15.2997 44.5648 15.2674 44.5316 15.2342C44.474 14.5432 44.474 14.5432 44.7147 14.1661C45.0696 13.8216 45.4195 13.7982 45.8988 13.8671Z" fill="#FAFDFE"/>
<path d="M10.6449 42.479C10.9137 42.6544 11.0869 42.7771 11.2308 43.065C11.294 43.5243 11.2931 43.8453 11.0416 44.2429C10.6931 44.4634 10.48 44.5023 10.0742 44.4814C9.74033 44.4033 9.58065 44.2069 9.37532 43.9439C9.34309 43.9116 9.31087 43.8794 9.27766 43.8462C9.24026 43.5283 9.21161 43.2738 9.3799 42.9906C9.77969 42.5049 10.0216 42.4262 10.6449 42.479Z" fill="#FAFDFD"/>
<path d="M15.1371 43.3574C15.4151 43.5134 15.6271 43.6897 15.8207 43.9434C15.8904 44.3403 15.8627 44.5411 15.6865 44.9016C15.3898 45.3009 15.3898 45.3009 15.1169 45.3468C14.6818 45.3579 14.4278 45.3552 14.0507 45.1214C13.8058 44.7214 13.7615 44.4011 13.8676 43.9434C14.2426 43.4698 14.5313 43.2774 15.1371 43.3574Z" fill="#FAFDFE"/>
<path d="M43.8474 9.76493C44.1111 9.94071 44.291 10.0661 44.4334 10.3509C44.4901 11.0432 44.4901 11.0432 44.2503 11.419C43.9349 11.7251 43.7059 11.7559 43.2653 11.7535C42.9344 11.6946 42.781 11.4822 42.5779 11.2298C42.5457 11.1976 42.5135 11.1653 42.4803 11.1321C42.4109 10.4389 42.4109 10.4389 42.7061 10.064C43.0855 9.77285 43.3765 9.71784 43.8474 9.76493Z" fill="#FBFDFE"/>
</g>
<defs>
<clipPath id="clip0_3163_42704">
<rect width="50" height="50" fill="white"/>
</clipPath>
</defs>
</svg>
