<svg width="50" height="50" viewBox="0 0 50 50" fill="none" xmlns="http://www.w3.org/2000/svg">
<path d="M27.3116 2.686C28.2166 3.27476 28.8428 4.06222 29.3204 5.02136C29.3683 5.11507 29.4162 5.20878 29.4656 5.30534C29.8795 6.12415 30.2707 6.95373 30.6634 7.78288C30.9587 8.40605 31.2574 9.02756 31.557 9.64869C31.7788 10.1094 31.9983 10.5711 32.2131 11.0351C32.4244 11.4913 32.6416 11.9441 32.863 12.3954C32.9453 12.5658 33.0255 12.7373 33.1034 12.9098C33.5272 13.8873 33.5272 13.8873 34.3387 14.5139C34.6913 14.5954 35.0438 14.6178 35.4046 14.6337C35.7459 14.6542 36.0802 14.7065 36.4181 14.7577C36.6982 14.8001 36.9787 14.8391 37.2594 14.8772C37.7748 14.9475 38.2899 15.0189 38.805 15.0907C39.5771 15.1982 40.3492 15.3054 41.1216 15.4105C41.6632 15.4842 42.2046 15.5594 42.7458 15.6356C42.9502 15.6641 43.1547 15.6921 43.3592 15.7195C44.7869 15.9109 46.1504 16.0952 47.2659 17.0895C47.3237 17.1361 47.3814 17.1827 47.441 17.2307C48.3539 18.0327 48.7474 19.2442 48.8455 20.4201C48.8964 21.7604 48.3122 23.0025 47.4293 23.9822C47.1709 24.248 46.9084 24.5087 46.6433 24.7678C46.5547 24.8559 46.4661 24.944 46.3748 25.0348C46.0108 25.3945 45.6458 25.7479 45.258 26.0818C44.3942 26.8334 43.585 27.6487 42.7689 28.4513C42.4694 28.7458 42.1689 29.039 41.8657 29.3296C41.5703 29.6127 41.2778 29.8986 40.9873 30.1868C40.8767 30.2954 40.7652 30.403 40.6526 30.5095C40.4952 30.6588 40.3419 30.8115 40.189 30.9654C40.1009 31.0512 40.0129 31.1369 39.9221 31.2253C39.6579 31.7023 39.7553 32.0934 39.844 32.6169C39.8623 32.738 39.8623 32.738 39.881 32.8615C39.9192 33.1046 39.962 33.3465 40.0059 33.5886C40.022 33.6791 40.038 33.7696 40.0546 33.8628C40.107 34.1581 40.1601 34.4533 40.2133 34.7485C40.2501 34.9555 40.287 35.1626 40.3238 35.3696C40.4203 35.912 40.5174 36.4544 40.6146 36.9967C40.7703 37.8659 40.9251 38.7353 41.08 39.6046C41.134 39.9073 41.1882 40.21 41.2425 40.5126C41.2757 40.6987 41.309 40.8847 41.3422 41.0707C41.3572 41.1542 41.3723 41.2378 41.3877 41.3238C41.6731 42.9238 41.7354 44.3724 40.8206 45.8005C40.049 46.8302 39.0614 47.4941 37.7932 47.7536C36.2282 47.9331 34.9718 47.4647 33.6062 46.7282C33.4909 46.6671 33.3755 46.606 33.26 46.5451C33.0264 46.4216 32.793 46.2977 32.5599 46.1732C32.0762 45.9156 31.59 45.6628 31.1038 45.4099C30.9209 45.3144 30.738 45.2189 30.5552 45.1234C30.1461 44.9099 29.7366 44.6971 29.3269 44.4848C29.2154 44.427 29.104 44.3692 28.9892 44.3097C28.7648 44.1936 28.5404 44.0777 28.3159 43.962C27.788 43.6894 27.2625 43.4138 26.7417 43.1279C26.6483 43.0772 26.5549 43.0265 26.4587 42.9742C26.285 42.8796 26.1119 42.7837 25.9398 42.6863C25.8627 42.6446 25.7857 42.6029 25.7063 42.5599C25.6403 42.5231 25.5742 42.4863 25.5061 42.4483C25.0126 42.2958 24.5827 42.5193 24.1488 42.7476C24.0428 42.8029 23.9368 42.8582 23.8276 42.9153C23.6588 43.005 23.6588 43.005 23.4866 43.0966C23.368 43.159 23.2494 43.2213 23.1307 43.2835C22.3238 43.708 21.5227 44.143 20.724 44.5826C19.9536 45.0055 19.1745 45.4104 18.3933 45.8127C17.7913 46.1237 17.1962 46.4444 16.6048 46.775C15.0778 47.6253 13.6253 48.2147 11.8594 47.7353C11.7131 47.681 11.5684 47.6221 11.426 47.5583C11.3536 47.5262 11.2813 47.4941 11.2067 47.461C10.0556 46.8845 9.23394 45.9606 8.80762 44.7507C8.50075 43.7163 8.57399 42.744 8.75536 41.6929C8.7725 41.5897 8.78965 41.4865 8.80731 41.3802C8.86365 41.0422 8.92109 40.7043 8.97852 40.3664C9.01801 40.1304 9.05742 39.8943 9.09675 39.6582C9.20011 39.0387 9.30435 38.4194 9.40885 37.8001C9.57629 36.8073 9.74265 35.8143 9.90852 34.8213C9.96657 34.4747 10.0252 34.1283 10.0838 33.7818C10.1194 33.5698 10.1549 33.3577 10.1904 33.1457C10.2151 33.0013 10.2151 33.0013 10.2403 32.854C10.255 32.7652 10.2698 32.6764 10.2851 32.5849C10.298 32.5081 10.311 32.4313 10.3244 32.3522C10.3933 31.883 10.3933 31.883 10.2297 31.4613C10.1451 31.3796 10.1451 31.3796 10.0588 31.2962C9.99627 31.2348 9.93371 31.1734 9.86925 31.1101C9.80291 31.0474 9.73656 30.9847 9.66821 30.9201C9.60489 30.8582 9.54157 30.7962 9.47633 30.7324C9.16506 30.4304 8.84723 30.1393 8.5177 29.8573C7.92573 29.3444 7.38503 28.7767 6.83528 28.2194C6.33243 27.7104 5.8287 27.2111 5.28432 26.746C4.81547 26.3276 4.37934 25.873 3.93701 25.4269C3.83652 25.326 3.736 25.225 3.63546 25.1241C3.45066 24.9385 3.26602 24.7527 3.08149 24.5669C2.91027 24.3946 2.7385 24.2228 2.5663 24.0515C1.66041 23.14 1.1956 22.0543 1.1416 20.77C1.17982 19.4954 1.65505 18.3051 2.53931 17.3825C2.8338 17.1433 2.8338 17.1433 3.14966 16.9247C3.25288 16.8519 3.35611 16.779 3.46246 16.7039C4.28112 16.1976 5.24026 16.1049 6.17433 15.9676C6.32024 15.9456 6.46615 15.9235 6.61204 15.9013C6.99954 15.8427 7.38718 15.785 7.77485 15.7274C8.1744 15.668 8.57383 15.6077 8.97327 15.5475C9.60204 15.4529 10.2309 15.3587 10.8598 15.2649C11.5862 15.1565 12.3124 15.0466 13.0385 14.9358C13.3068 14.8949 13.575 14.8542 13.8433 14.8134C14.0048 14.7888 14.1662 14.7642 14.3277 14.7395C14.545 14.7064 14.7624 14.6736 14.9798 14.6409C15.0967 14.6232 15.2135 14.6055 15.3339 14.5872C15.6252 14.5505 15.6252 14.5505 16.0159 14.5505C16.0422 14.4663 16.0686 14.3822 16.0957 14.2955C16.2098 13.9685 16.3446 13.6679 16.4965 13.3569C16.5251 13.2981 16.5536 13.2394 16.5831 13.1788C16.6785 12.9828 16.7744 12.787 16.8704 12.5912C16.9387 12.4511 17.007 12.311 17.0752 12.1708C17.3075 11.6942 17.5406 11.2181 17.7737 10.7419C17.8636 10.5581 17.9536 10.3742 18.0435 10.1904C18.1125 10.0494 18.1125 10.0494 18.1829 9.90555C18.2774 9.71248 18.3718 9.51941 18.4663 9.32634C18.6973 8.85406 18.9285 8.38186 19.16 7.90983C19.2471 7.73208 19.3342 7.55432 19.4212 7.37656C19.4634 7.29062 19.5055 7.20469 19.5489 7.11616C19.7591 6.68592 19.9665 6.25463 20.1695 5.82092C20.209 5.73656 20.2485 5.65219 20.2893 5.56527C20.3633 5.40677 20.4368 5.24808 20.5099 5.08916C20.7685 4.53476 21.0653 4.06189 21.4846 3.61298C21.5603 3.52253 21.5603 3.52253 21.6376 3.43025C23.0102 1.89224 25.5798 1.70727 27.3116 2.686Z" fill="#FFC100"/>
</svg>
