<svg width="50" height="50" viewBox="0 0 50 50" fill="none" xmlns="http://www.w3.org/2000/svg">
<path d="M18.6525 3.51568C19.1217 3.82494 19.3507 4.14831 19.4833 4.69785C19.6281 5.59295 19.1996 6.25364 18.7318 6.98248C17.2291 9.38991 16.1691 12.0948 15.9181 14.9415C15.9117 15.0092 15.9053 15.0769 15.8987 15.1467C15.4755 19.8721 16.9221 24.6077 19.8793 28.3082C20.0222 28.4763 20.1667 28.6431 20.3126 28.8086C20.3968 28.9047 20.481 29.0007 20.5678 29.0997C23.0898 31.9356 26.4866 33.8483 30.182 34.6863C30.2487 34.7015 30.3154 34.7166 30.3842 34.7322C31.6218 34.9977 32.8329 35.0953 34.0943 35.0892C34.2067 35.0889 34.2067 35.0889 34.3213 35.0887C35.8017 35.0836 37.185 34.9331 38.6171 34.5521C39.4281 34.3364 40.3039 34.1462 41.0707 34.5826C41.484 34.8895 41.732 35.2544 41.8946 35.7422C42.0192 36.9782 41.3293 37.7292 40.5879 38.6428C36.8275 43.2195 31.4439 46.1023 25.5494 46.7042C19.6211 47.2366 13.7996 45.4424 9.17979 41.6993C8.72711 41.3112 8.29535 40.9025 7.87035 40.4845C7.73025 40.3471 7.58788 40.212 7.44525 40.0773C6.77799 39.4362 6.21926 38.7257 5.66417 37.9883C5.59355 37.8954 5.52293 37.8025 5.45016 37.7068C2.00943 33.0877 0.617501 27.1688 1.36729 21.4844C1.70975 19.2433 2.31786 17.0748 3.32042 15.0391C3.35968 14.9583 3.39894 14.8776 3.43939 14.7944C4.32334 12.991 5.39674 11.358 6.73839 9.86334C6.82539 9.76443 6.91236 9.6655 6.99931 9.56655C9.51014 6.73937 12.7469 4.7456 16.3087 3.51568C16.3878 3.4878 16.4668 3.45991 16.5483 3.43118C16.6253 3.40456 16.7024 3.37794 16.7817 3.3505C16.8501 3.32677 16.9186 3.30303 16.9891 3.27857C17.5948 3.10815 18.0997 3.22368 18.6525 3.51568Z" fill="#B1EDEA"/>
<path d="M39.0532 5.56217C39.7938 6.12143 39.9972 7.17712 40.2533 8.01731C40.3319 8.26673 40.4107 8.51608 40.4898 8.76537C40.6133 9.15587 40.7357 9.54664 40.8541 9.93873C40.9318 10.1959 41.0116 10.4523 41.0937 10.7081C41.1707 10.948 41.2448 11.1888 41.3155 11.4306C41.4986 12.0185 41.4986 12.0185 41.9086 12.4532C42.1619 12.5578 42.4097 12.6281 42.6756 12.6941C42.8522 12.7535 43.0285 12.8141 43.2044 12.8757C43.3925 12.9375 43.5806 12.9991 43.7689 13.0603C43.9758 13.1285 44.1827 13.1966 44.3896 13.2648C44.7113 13.3705 45.0332 13.4759 45.3551 13.581C45.6688 13.6836 45.9823 13.787 46.2958 13.8904C46.3912 13.9214 46.4866 13.9523 46.585 13.9842C48.1439 14.5 48.1439 14.5 48.6326 15.2332C48.8692 15.7923 48.8636 16.3091 48.7303 16.8933C48.3373 17.6512 47.7744 17.9296 46.9999 18.1831C46.8758 18.225 46.8758 18.225 46.7492 18.2678C46.573 18.3271 46.3966 18.3861 46.2201 18.4446C45.946 18.5356 45.6725 18.6282 45.399 18.7213C44.6498 18.9753 43.9013 19.2267 43.1406 19.4442C43.0456 19.4723 42.9505 19.5003 42.8526 19.5292C42.6884 19.5767 42.5232 19.621 42.3571 19.6612C42.0474 19.7517 41.8513 19.8215 41.6911 20.1126C41.6623 20.1905 41.6336 20.2683 41.604 20.3485C41.5713 20.4364 41.5386 20.5242 41.5049 20.6147C41.3369 21.0952 41.1754 21.5773 41.0185 22.0615C40.9459 22.2826 40.8733 22.5038 40.8007 22.7249C40.6878 23.0696 40.5752 23.4143 40.4632 23.7593C40.3541 24.0949 40.2439 24.4302 40.1335 24.7654C40.1004 24.8682 40.0673 24.9711 40.0333 25.077C39.7868 25.8218 39.5429 26.4037 38.867 26.8543C38.3063 27.0981 37.8311 27.1275 37.2496 26.9336C36.6018 26.5921 36.2865 26.3022 36.0457 25.6076C36.0222 25.541 35.9986 25.4744 35.9744 25.4058C35.7607 24.7893 35.571 24.1647 35.3773 23.5416C35.2796 23.2299 35.1818 22.9183 35.0839 22.6067C35.0175 22.3931 34.9525 22.1791 34.8886 21.9647C34.7946 21.6509 34.6959 21.339 34.5961 21.027C34.5688 20.9313 34.5415 20.8357 34.5134 20.7372C34.3484 20.2369 34.3484 20.2369 33.9769 19.883C33.7219 19.7776 33.4689 19.7008 33.203 19.6277C33.0165 19.5648 32.8302 19.5013 32.6442 19.4372C32.4424 19.3712 32.2406 19.3056 32.0387 19.2402C31.8176 19.1676 31.5964 19.095 31.3753 19.0223C31.0307 18.9095 30.6859 18.7969 30.3409 18.6849C30.0053 18.5758 29.6701 18.4655 29.3348 18.3551C29.1806 18.3055 29.1806 18.3055 29.0232 18.2549C28.2837 18.0102 27.687 17.7661 27.2459 17.0887C27.0061 16.4949 26.9886 15.9285 27.2253 15.332C27.4818 14.845 27.8065 14.5432 28.3131 14.3337C28.4184 14.3011 28.5237 14.2684 28.6322 14.2348C28.8121 14.178 28.8121 14.178 28.9956 14.1201C29.0591 14.1005 29.1227 14.0809 29.1882 14.0607C29.3885 13.9986 29.5883 13.9347 29.7879 13.8703C30.3552 13.6872 30.9228 13.5054 31.4924 13.3296C31.8417 13.2216 32.1896 13.1099 32.5369 12.9958C32.6689 12.9532 32.8013 12.912 32.9342 12.8723C33.6726 12.6695 33.6726 12.6695 34.2382 12.1913C34.3435 11.9376 34.41 11.6919 34.4725 11.4246C34.5337 11.239 34.5962 11.0537 34.6599 10.8689C34.7246 10.6684 34.789 10.4679 34.8532 10.2672C34.9248 10.047 34.9966 9.82673 35.0683 9.60651C35.1798 9.26367 35.2908 8.9207 35.4006 8.57731C35.5077 8.24294 35.6167 7.90923 35.726 7.57557C35.7581 7.47372 35.7901 7.37188 35.8232 7.26695C36.0641 6.53887 36.352 5.89482 37.0176 5.47367C37.7041 5.22538 38.3883 5.22427 39.0532 5.56217Z" fill="#B1EDEA"/>
</svg>
