<svg width="50" height="50" viewBox="0 0 50 50" fill="none" xmlns="http://www.w3.org/2000/svg">
<path d="M24.0429 3.00579C24.121 3.00495 24.199 3.00412 24.2794 3.00326C26.0361 2.9883 27.7372 3.01127 29.4646 3.36958C29.5795 3.393 29.5795 3.393 29.6968 3.4169C31.52 3.80177 33.2863 4.44058 34.958 5.25794C35.0205 5.28811 35.0829 5.31827 35.1472 5.34935C37.9141 6.7001 40.5755 8.89066 42.4256 11.3522C42.4664 11.4059 42.5071 11.4596 42.5491 11.5149C44.937 14.6762 46.4872 18.3078 46.9749 22.2532C46.9823 22.3102 46.9897 22.3671 46.9973 22.4258C47.0573 22.9168 47.0757 23.4011 47.0781 23.8954C47.0787 23.9767 47.0793 24.0579 47.08 24.1416C47.0994 27.506 47.0994 27.506 46.8032 28.9483C46.7776 29.0787 46.7776 29.0787 46.7515 29.2117C46.0463 32.7381 44.5498 35.9102 42.3398 38.7334C42.3034 38.7802 42.2669 38.8269 42.2294 38.875C41.2249 40.149 40.0351 41.3671 38.7347 42.3385C38.6181 42.4294 38.5016 42.5204 38.385 42.6114C37.358 43.402 36.2763 44.0539 35.1297 44.656C35.0653 44.6898 35.001 44.7237 34.9347 44.7585C32.7308 45.8976 30.2872 46.5728 27.8338 46.8877C27.7765 46.8952 27.7192 46.9027 27.6602 46.9104C27.1695 46.9702 26.6855 46.9885 26.1915 46.991C26.1103 46.9916 26.029 46.9922 25.9453 46.9928C22.5494 47.0124 22.5494 47.0124 21.1387 46.716C21.0536 46.6985 20.9686 46.681 20.8809 46.663C16.7353 45.7865 12.9529 43.918 9.89433 40.9651C9.83627 40.9094 9.77821 40.8537 9.71839 40.7963C8.90557 40.0126 8.15703 39.2161 7.49096 38.3042C7.41731 38.2054 7.34366 38.1067 7.27001 38.0079C6.75177 37.3049 6.28974 36.5751 5.86011 35.815C5.82558 35.7543 5.79106 35.6936 5.75549 35.6311C4.58823 33.5578 3.80896 31.2846 3.3709 28.9483C3.35794 28.8832 3.34498 28.8182 3.33163 28.7511C2.86872 26.3382 2.89837 23.5427 3.3709 21.1373C3.38472 21.0605 3.39854 20.9836 3.41277 20.9044C4.1796 16.6658 6.23092 12.8118 9.20765 9.72134C9.25769 9.66896 9.30773 9.61659 9.35929 9.56262C10.0488 8.84398 10.7578 8.19256 11.5559 7.59693C11.689 7.4956 11.8185 7.38947 11.9477 7.2831C15.2204 4.61645 19.8333 3.04357 24.0429 3.00579Z" fill="#990114"/>
<path d="M30.3234 13.2448C30.4075 13.2832 30.4075 13.2832 30.4933 13.3223C33.6503 14.7788 35.9955 17.4152 37.2143 20.6497C38.4073 23.9064 38.1333 27.4427 36.7148 30.5777C35.2807 33.6129 32.604 35.9583 29.4819 37.125C28.1039 37.6136 26.7139 37.8026 25.2592 37.8794C25.1572 37.8856 25.0552 37.8918 24.9501 37.8981C23.5724 37.9409 22.1768 37.6434 20.8816 37.1927C20.7221 37.1372 20.7221 37.1372 20.5594 37.0807C18.8405 36.4354 17.4058 35.4432 16.0749 34.1885C16.0127 34.1318 15.9505 34.0752 15.8865 34.0168C13.7053 31.9529 12.3436 28.7974 12.2392 25.8142C12.2359 25.7245 12.2327 25.6348 12.2294 25.5424C12.1198 21.9338 13.3481 18.7165 15.8084 16.0643C19.4937 12.1915 25.4455 11.0089 30.3234 13.2448Z" fill="#E0E0E3"/>
<path d="M25.087 3.02734C25.087 6.02984 25.087 9.03233 25.087 12.1258C24.1948 12.2108 24.1948 12.2108 23.2845 12.2975C19.786 12.9149 16.696 14.6747 14.6055 17.5961C13.5053 19.1902 12.8605 20.8826 12.4694 22.7693C12.4542 22.8386 12.4389 22.9078 12.4233 22.9792C11.8517 26.1336 12.6932 29.5004 14.4472 32.1454C16.5378 35.0997 19.4645 37.0274 23.0455 37.6518C23.7232 37.7596 24.4036 37.814 25.087 37.8762C25.087 40.8787 25.087 43.8812 25.087 46.9746C19.3934 46.9746 14.0126 44.9422 9.89433 40.9662C9.83627 40.9105 9.77821 40.8548 9.71839 40.7974C8.90557 40.0137 8.15703 39.2172 7.49096 38.3053C7.41731 38.2066 7.34366 38.1077 7.27001 38.009C6.75177 37.306 6.28974 36.5762 5.86011 35.8161C5.82558 35.7554 5.79106 35.6947 5.75549 35.6322C4.58823 33.5589 3.80896 31.2857 3.3709 28.9494C3.35794 28.8843 3.34498 28.8193 3.33163 28.7522C2.86872 26.3393 2.89837 23.5438 3.3709 21.1384C3.38472 21.0616 3.39854 20.9847 3.41277 20.9055C4.1796 16.6669 6.23092 12.8129 9.20765 9.72244C9.25769 9.67006 9.30773 9.61769 9.35929 9.56372C10.0488 8.84508 10.7578 8.19366 11.5559 7.59803C11.689 7.4967 11.8185 7.39057 11.9477 7.2842C15.6066 4.30286 20.4546 3.02734 25.087 3.02734Z" fill="#E70121"/>
<path d="M23.7212 12.2072C23.8012 12.2074 23.8811 12.2077 23.9635 12.208C24.0459 12.2087 24.1282 12.2094 24.2131 12.2102C24.2971 12.2106 24.3812 12.2109 24.4678 12.2113C24.6744 12.2124 24.8809 12.2138 25.0875 12.2155C25.1205 12.8764 25.1428 13.537 25.1583 14.1985C25.1647 14.4229 25.1735 14.6473 25.1847 14.8715C25.2802 16.8323 25.2802 16.8323 24.8193 17.4437C24.5129 17.778 24.166 18.0447 23.8 18.3098C23.6719 18.4218 23.5447 18.5349 23.4195 18.6501C23.3425 18.7153 23.3425 18.7153 23.2639 18.7818C22.9733 19.0304 22.6987 19.2966 22.4213 19.5598C22.0504 19.9108 21.6795 20.2617 21.3034 20.6072C19.3068 22.4116 19.3068 22.4116 18.4327 24.8678C18.4312 25.0261 18.4322 25.1845 18.4354 25.3429C18.4371 25.4675 18.4371 25.4675 18.4389 25.5946C18.472 26.735 18.8923 27.5373 19.6813 28.3615C20.0436 28.696 20.424 28.9414 20.8816 29.1249C20.9943 29.1714 20.9943 29.1714 21.1093 29.2188C21.4813 29.3195 21.8234 29.3184 22.2067 29.3127C22.3124 29.3126 22.3124 29.3126 22.4201 29.3125C22.8312 29.3096 23.223 29.279 23.6284 29.2108C23.564 29.5005 23.564 29.5005 23.4567 29.8116C23.2867 29.8966 23.2867 29.8966 23.1133 29.9833C23.1133 30.3798 23.1133 30.7764 23.1133 31.185C23.7648 31.185 24.4163 31.185 25.0875 31.185C25.0875 33.366 25.0875 35.5471 25.0875 37.7942C21.4513 37.7942 18.4615 36.5477 15.8657 34.0122C13.7299 31.8678 12.3453 28.8469 12.2392 25.815C12.2359 25.7253 12.2327 25.6356 12.2294 25.5431C12.1198 21.9345 13.3481 18.7172 15.8084 16.065C17.7327 14.0427 20.1478 12.8628 22.8558 12.3014C22.9216 12.2866 22.9874 12.2718 23.0551 12.2565C23.283 12.2159 23.49 12.2057 23.7212 12.2072Z" fill="#F0F0F0"/>
<path d="M25.0007 17.0195C25.2999 17.1469 25.485 17.3167 25.7088 17.5506C25.9994 17.8534 26.3042 18.1298 26.6209 18.4043C26.9231 18.67 27.2141 18.9474 27.506 19.2244C27.9051 19.602 28.3049 19.9786 28.7104 20.3493C31.7344 23.1156 31.7344 23.1156 31.8886 25.1027C31.9328 26.3297 31.5248 27.2874 30.7429 28.2219C30.3147 28.6796 29.8745 28.9776 29.2924 29.208C29.2166 29.2396 29.1408 29.2711 29.0627 29.3036C28.6777 29.4063 28.3157 29.4047 27.9191 29.4012C27.8438 29.4018 27.7686 29.4025 27.6911 29.4032C27.275 29.4019 26.9361 29.3698 26.5457 29.208C26.5987 29.321 26.6525 29.4336 26.7066 29.546C26.7365 29.6088 26.7664 29.6715 26.7972 29.7361C26.8778 29.9087 26.8778 29.9087 27.0607 29.9806C27.0607 30.3771 27.0607 30.7737 27.0607 31.1822C25.7577 31.1822 24.4548 31.1822 23.1123 31.1822C23.1123 29.9806 23.1123 29.9806 23.4557 29.6372C23.5633 29.4113 23.5633 29.4113 23.6273 29.208C23.5446 29.2357 23.4618 29.2634 23.3765 29.2919C22.5395 29.5295 21.4478 29.501 20.653 29.1497C19.6975 28.6124 18.9788 27.8182 18.5631 26.8047C18.5161 26.6926 18.5161 26.6926 18.4682 26.5784C18.2236 25.6588 18.247 24.4481 18.6835 23.5983C18.7287 23.5234 18.774 23.4485 18.8206 23.3713C18.8685 23.2884 18.9164 23.2055 18.9658 23.1202C19.4058 22.4119 19.9588 21.8203 20.5373 21.2254C20.5952 21.1651 20.653 21.1048 20.7126 21.0427C21.0128 20.7357 21.3307 20.4541 21.6558 20.174C21.8683 19.9851 22.0659 19.7838 22.2649 19.5809C22.4189 19.4295 22.5774 19.288 22.7412 19.1473C23.1225 18.8157 23.4909 18.4718 23.858 18.1247C23.9209 18.0655 23.9838 18.0063 24.0486 17.9453C24.3709 17.6413 24.6896 17.3349 25.0007 17.0195Z" fill="#17171A"/>
<path d="M25.0007 17.0195C25.0857 17.062 25.0857 17.062 25.1724 17.1054C25.144 21.7507 25.1157 26.3961 25.0865 31.1822C24.435 31.1822 23.7835 31.1822 23.1123 31.1822C23.0697 30.0308 23.0697 30.0308 23.2786 29.7847C23.337 29.7361 23.3955 29.6874 23.4557 29.6372C23.5633 29.4113 23.5633 29.4113 23.6273 29.208C23.5446 29.2357 23.4618 29.2634 23.3765 29.2919C22.5395 29.5295 21.4478 29.501 20.653 29.1497C19.6975 28.6124 18.9788 27.8182 18.5631 26.8047C18.5161 26.6926 18.5161 26.6926 18.4682 26.5784C18.2236 25.6588 18.247 24.4481 18.6835 23.5983C18.7287 23.5234 18.774 23.4485 18.8206 23.3713C18.8685 23.2884 18.9164 23.2055 18.9658 23.1202C19.4058 22.4119 19.9588 21.8203 20.5373 21.2254C20.5952 21.1651 20.653 21.1048 20.7126 21.0427C21.0128 20.7357 21.3307 20.4541 21.6558 20.174C21.8683 19.9851 22.0659 19.7838 22.2649 19.5809C22.4189 19.4295 22.5774 19.288 22.7412 19.1473C23.1225 18.8157 23.4909 18.4718 23.858 18.1247C23.9209 18.0655 23.9838 18.0063 24.0486 17.9453C24.3709 17.6413 24.6896 17.3349 25.0007 17.0195Z" fill="#3C3A41"/>
<path d="M23.7991 3.02734C23.7991 5.2084 23.7991 7.38946 23.7991 9.6366C23.2326 9.72158 22.6661 9.80656 22.0824 9.89411C20.9704 10.1578 19.8872 10.4666 18.8468 10.9446C18.6112 11.0224 18.5328 11.0207 18.3057 10.9241C18.1624 10.7305 18.1624 10.7305 18.02 10.4715C17.9661 10.3751 17.9123 10.2788 17.8568 10.1796C17.8286 10.1278 17.8003 10.0761 17.7712 10.0228C17.6522 9.80478 17.5307 9.58814 17.4093 9.37141C17.3461 9.25859 17.283 9.1457 17.2201 9.03274C16.8877 8.43746 16.541 7.85105 16.192 7.26542C16.1083 7.12462 16.1083 7.12462 16.0229 6.98097C15.6979 6.43481 15.3713 5.88961 15.0439 5.34488C17.717 3.9955 20.7802 3.02734 23.7991 3.02734Z" fill="#F0F0F0"/>
<path d="M5.34498 15.1289C5.84729 15.4216 6.34948 15.7146 6.85077 16.009C7.85305 16.597 8.86022 17.1744 9.87717 17.7367C10.2953 17.9687 10.704 18.2023 11.0959 18.4765C11.0637 18.5669 11.0315 18.6573 10.9983 18.7504C10.9054 19.0117 10.8137 19.2734 10.7224 19.5353C10.6409 19.7685 10.5563 19.9985 10.4662 20.2287C10.024 21.409 9.93954 22.4962 9.72254 23.7982C7.54149 23.7982 5.36043 23.7982 3.11328 23.7982C3.21454 21.9756 3.21454 21.9756 3.3386 21.2607C3.35329 21.1751 3.36797 21.0896 3.38311 21.0014C3.75367 18.9587 4.44163 16.9947 5.34498 15.1289Z" fill="#F0EFF0"/>
<path d="M12.3838 33.8398C12.6712 34.1196 12.9328 34.4065 13.1832 34.7196C13.7338 35.398 14.284 36.0296 14.9589 36.5865C15.0384 36.6525 15.118 36.7184 15.1999 36.7864C15.5441 37.0697 15.8877 37.3517 16.2464 37.6166C16.1954 37.9697 16.0788 38.2214 15.9 38.5289C15.818 38.6711 15.818 38.6711 15.7343 38.8162C15.6743 38.9188 15.6143 39.0214 15.5543 39.124C15.4928 39.2302 15.4314 39.3365 15.37 39.4428C15.2416 39.665 15.113 39.887 14.9841 40.109C14.6954 40.6068 14.4106 41.1069 14.1255 41.6069C13.9836 41.8555 13.8416 42.104 13.6995 42.3526C13.6498 42.4396 13.6 42.5266 13.5488 42.6163C13.3894 42.8953 13.2299 43.1743 13.0705 43.4533C11.8994 42.7446 10.8765 41.9121 9.89463 40.9641C9.80754 40.8805 9.80754 40.8805 9.71868 40.7953C8.95056 40.0547 8.23114 39.3047 7.597 38.4457C7.48714 38.2977 7.375 38.1517 7.26226 38.0058C6.71875 37.2979 6.71875 37.2979 6.71875 37.1016C6.77162 37.0723 6.82449 37.0431 6.87896 37.013C8.15287 36.3078 9.41111 35.5812 10.6618 34.8357C11.2316 34.4962 11.8056 34.1648 12.3838 33.8398Z" fill="#F0F0F0"/>
<path d="M37.1894 6.63281C37.7205 6.90752 38.1853 7.21487 38.6433 7.59845C38.7031 7.64799 38.763 7.69753 38.8247 7.74858C38.9957 7.89078 39.1657 8.03401 39.3353 8.17783C39.4482 8.27343 39.4482 8.27343 39.5633 8.37096C40.5961 9.27644 41.5932 10.2594 42.4254 11.3537C42.518 11.4717 42.6106 11.5896 42.7033 11.7074C42.8003 11.8326 42.8972 11.9579 42.994 12.0833C43.0409 12.143 43.0878 12.2027 43.1361 12.2642C43.1788 12.3205 43.2216 12.3767 43.2656 12.4347C43.3043 12.4849 43.343 12.535 43.3828 12.5867C43.4068 12.6331 43.4307 12.6794 43.4554 12.7271C43.3313 13.0994 43.0504 13.1814 42.7204 13.3547C42.5785 13.4314 42.4366 13.5083 42.2949 13.5854C42.2187 13.6268 42.1425 13.6682 42.064 13.7108C41.6438 13.9426 41.23 14.1852 40.816 14.4277C40.687 14.5028 40.687 14.5028 40.5555 14.5795C40.109 14.8404 39.6645 15.1043 39.2223 15.3725C39.1358 15.4246 39.0493 15.4768 38.9602 15.5305C38.7948 15.6303 38.6299 15.7309 38.4655 15.8323C38.3917 15.8767 38.3179 15.9212 38.2419 15.967C38.1773 16.0065 38.1126 16.0461 38.046 16.0868C37.8761 16.1604 37.8761 16.1604 37.6186 16.0746C37.4864 15.9145 37.3643 15.7546 37.2431 15.5864C36.5057 14.5992 35.6813 13.7333 34.7002 12.9846C34.5518 12.8683 34.4034 12.7521 34.255 12.6359C34.146 12.5517 34.037 12.4676 33.9277 12.3837C34.0675 11.8531 34.352 11.4128 34.6305 10.946C34.7391 10.7621 34.8476 10.5781 34.9561 10.3941C35.0125 10.2985 35.069 10.203 35.1272 10.1045C35.4712 9.51931 35.8083 8.93014 36.1464 8.34154C37.049 6.77323 37.049 6.77323 37.1894 6.63281Z" fill="#E0E0E3"/>
<path d="M40.4515 26.2891C42.6325 26.2891 44.8136 26.2891 47.0607 26.2891C46.9218 28.6507 46.5575 33.0582 44.7432 34.8725C44.6658 34.8265 44.5883 34.7805 44.5085 34.733C43.4055 34.0799 42.2921 33.4452 41.1784 32.8106C40.7285 32.5541 40.2788 32.297 39.8292 32.04C39.6821 31.9559 39.535 31.8719 39.3879 31.7878C39.2847 31.7288 39.1814 31.6698 39.0781 31.6108C39.2068 31.2181 39.3384 30.8269 39.4801 30.4386C39.9862 29.0476 40.266 27.7732 40.4515 26.2891Z" fill="#E0E0E3"/>
<path d="M31.7827 39.0761C31.9018 39.2395 31.9018 39.2395 32.0254 39.4566C32.0722 39.5378 32.119 39.6191 32.1672 39.7028C32.2174 39.7916 32.2675 39.8804 32.3191 39.972C32.3716 40.0634 32.4241 40.1549 32.4781 40.2492C32.5899 40.4442 32.7014 40.6395 32.8126 40.8349C33.0379 41.2305 33.2662 41.6244 33.4942 42.0184C33.6572 42.3001 33.8196 42.5821 33.9819 42.8642C34.1557 43.1664 34.3301 43.4682 34.5056 43.7695C34.5385 43.8263 34.5714 43.8831 34.6054 43.9416C34.6879 44.0839 34.7707 44.2261 34.8536 44.3683C34.9586 44.5695 34.9586 44.5695 34.9586 44.7411C32.9642 45.7497 30.8105 46.4234 28.6068 46.7851C28.5484 46.7947 28.4901 46.8043 28.43 46.8142C27.7741 46.9111 27.1279 46.9311 26.4609 46.9728C26.4609 44.7918 26.4609 42.6107 26.4609 40.3636C27.1407 40.2503 27.8206 40.137 28.521 40.0202C29.4754 39.7605 30.3754 39.4712 31.2787 39.0764C31.5252 38.9902 31.5252 38.9902 31.7827 39.0761Z" fill="#E0E0E3"/>
</svg>
