<svg width="50" height="50" viewBox="0 0 50 50" fill="none" xmlns="http://www.w3.org/2000/svg">
<g clip-path="url(#clip0_3139_42864)">
<path d="M33.1052 3.80873C33.29 3.85481 33.29 3.85481 33.4936 3.87572C33.5712 3.88548 33.6488 3.89525 33.7288 3.9053C33.8124 3.91497 33.896 3.92465 33.9822 3.93461C34.0688 3.94517 34.1554 3.95574 34.2446 3.96662C34.428 3.98881 34.6115 4.01062 34.795 4.03208C35.074 4.06476 35.3527 4.09877 35.6315 4.13298C35.81 4.15442 35.9886 4.17578 36.1672 4.19706C36.2499 4.20713 36.3325 4.2172 36.4176 4.22757C37.1596 4.3133 37.8 4.37882 38.5037 4.07156C38.6171 4.02313 38.7304 3.97471 38.8472 3.92481C38.9061 3.89889 38.9651 3.87296 39.0259 3.84625C39.3383 3.70911 39.6528 3.577 39.9671 3.44404C40.0621 3.4036 40.0621 3.4036 40.1591 3.36234C40.7733 3.10159 41.3927 2.85586 42.0163 2.61854C42.1097 2.58204 42.203 2.54554 42.2992 2.50794C42.8279 2.30843 43.3717 2.11566 43.945 2.14857C44.3401 2.37841 44.493 2.54365 44.6652 2.96644C44.8184 3.85497 44.8184 3.85497 44.5729 4.25214C44.2865 4.5421 44.0087 4.64478 43.628 4.75859C43.5583 4.78095 43.4885 4.80332 43.4167 4.82636C43.2666 4.87437 43.1164 4.92168 42.9659 4.96836C42.5639 5.09344 42.164 5.22472 41.7638 5.35521C41.683 5.3814 41.6023 5.40759 41.5191 5.43458C39.5054 6.0897 37.5741 6.90266 35.6583 7.79995C35.5872 7.83318 35.5161 7.8664 35.4428 7.90064C35.3087 7.96342 35.1747 8.02657 35.041 8.09012C34.5916 8.30092 34.5916 8.30092 34.3747 8.30092C34.4232 12.9149 34.5235 17.4812 35.0168 22.0725C35.0656 22.5273 35.1112 22.9824 35.156 23.4376C35.2613 23.4342 35.3667 23.4308 35.4753 23.4273C39.4489 23.3385 43.2217 24.9179 46.0935 27.6369C46.181 27.7181 46.2684 27.7992 46.3586 27.8829C48.102 29.553 49.2643 31.7362 49.8044 34.0822C49.8231 34.1623 49.8418 34.2424 49.861 34.3249C50.0234 35.1035 50.0386 35.877 50.0363 36.6701C50.0363 36.7733 50.0363 36.7733 50.0362 36.8787C50.0322 38.0021 49.9467 39.0601 49.6091 40.1369C49.5887 40.2031 49.5683 40.2693 49.5472 40.3376C48.9316 42.2697 47.8741 43.9431 46.4841 45.4103C46.4039 45.4968 46.3237 45.5833 46.2411 45.6724C43.7284 48.2967 39.9149 49.9265 36.2929 50.0258C35.924 50.0321 35.5554 50.0325 35.1865 50.0307C35.109 50.0304 35.0314 50.0302 34.9516 50.03C33.793 50.025 32.6724 49.9862 31.5427 49.7072C31.4212 49.6781 31.4212 49.6781 31.2973 49.6484C28.7008 49.01 26.3573 47.8237 24.4195 45.9623C24.2233 45.7704 24.2233 45.7704 23.9255 45.8009C23.7007 45.928 23.484 46.0593 23.2663 46.1976C21.0542 47.5575 18.4345 48.4407 15.8212 48.4575C15.7492 48.4582 15.6773 48.4589 15.6032 48.4596C12.5953 48.4819 12.5953 48.4819 11.2302 48.1447C11.1087 48.1156 11.1087 48.1156 10.9848 48.0859C8.28256 47.4215 5.93119 46.1559 3.90596 44.2384C3.81847 44.1572 3.73098 44.076 3.64084 43.9924C1.89742 42.3223 0.735147 40.1391 0.195024 37.7931C0.17633 37.713 0.157636 37.6329 0.138376 37.5504C-0.0239989 36.7717 -0.0392143 35.9983 -0.0369097 35.2052C-0.0368566 35.1364 -0.0368034 35.0675 -0.0367487 34.9966C-0.0252075 31.7366 1.26153 28.8135 3.51534 26.465C3.59527 26.3789 3.67521 26.2928 3.75757 26.2041C5.74757 24.1229 8.44469 22.8055 11.2302 22.1681C11.2964 22.1521 11.3625 22.1361 11.4307 22.1197C12.5789 21.8526 13.7321 21.8497 14.9045 21.8507C14.9817 21.8508 15.0589 21.8508 15.1385 21.8509C15.9239 21.8531 16.701 21.8622 17.4802 21.9728C17.5046 21.9248 17.5291 21.8767 17.5543 21.8273C19.4026 18.2161 21.9732 14.9153 25.0974 12.3048C25.1844 12.2287 25.2713 12.1525 25.361 12.074C26.1975 11.3452 27.0801 10.6857 27.9802 10.0377C28.1379 9.92424 28.2953 9.81032 28.4523 9.69595C30.6018 8.13232 32.8969 6.79194 35.2536 5.56654C35.3553 5.51082 35.3553 5.51082 35.459 5.45398C35.6442 5.37123 35.6442 5.37123 35.9372 5.37123C35.9372 5.30677 35.9372 5.24232 35.9372 5.17592C35.8775 5.17226 35.8179 5.16861 35.7564 5.16485C34.7037 5.08924 33.6614 4.93349 32.6169 4.78529C32.588 4.84526 32.559 4.90523 32.5292 4.96701C32.1143 5.77249 31.3811 6.47465 30.7614 7.12904C30.7034 7.19043 30.6453 7.25181 30.5855 7.31505C28.2979 9.71333 25.3737 11.8461 21.9412 12.0291C17.7921 12.1028 13.4784 11.2612 9.66768 9.57045C10.0176 9.01641 10.4265 8.51592 10.8396 8.00795C10.9072 7.9231 10.9748 7.83825 11.0444 7.75084C12.4802 5.9633 14.1055 4.2117 15.9563 2.852C16.1134 2.73419 16.2656 2.61189 16.4174 2.48732C21.6902 -1.80418 27.9764 0.389541 33.1052 3.80873ZM26.4646 13.2814C26.3661 13.3592 26.2677 13.437 26.1662 13.5171C25.6421 13.9397 25.1373 14.3806 24.64 14.8343C24.4455 15.0105 24.2477 15.1809 24.0476 15.3505C23.1587 16.1275 22.3251 16.9749 21.5943 17.9021C21.3758 18.1776 21.1466 18.4416 20.9165 18.7074C19.4543 20.3616 19.4543 20.3616 18.6521 22.2658C18.7133 22.2848 18.7746 22.3039 18.8378 22.3235C21.3179 23.1027 23.4096 24.0894 25.3903 25.7814C25.5853 25.9446 25.7808 26.1071 25.9763 26.2697C26.0557 26.2153 26.1351 26.1609 26.217 26.1049C28.5934 24.5092 31.176 23.8233 33.9841 23.4376C33.9679 23.3219 33.9517 23.2062 33.9349 23.0869C33.2891 18.4565 32.9356 13.8526 32.8122 9.17982C31.1106 9.17982 27.7558 12.2607 26.4646 13.2814Z" fill="#C5053C"/>
<path d="M2.05049 28.2227C2.11495 28.2227 2.1794 28.2227 2.24581 28.2227C2.24968 28.3075 2.25355 28.3923 2.25754 28.4797C2.46331 32.7957 3.09572 36.9842 6.0544 40.332C6.1152 40.401 6.176 40.47 6.23865 40.5411C8.14649 42.5729 11.1158 43.5532 13.8398 43.6631C16.5296 43.7189 19.0624 43.445 21.4841 42.1875C21.4458 42.0727 21.4075 41.9579 21.3681 41.8396C21.3416 41.7593 21.315 41.679 21.2876 41.5962C21.2177 41.3877 21.146 41.1797 21.0732 40.9721C20.7879 40.1464 20.5742 39.3361 20.4099 38.4766C20.3931 38.4014 20.3763 38.3263 20.359 38.2489C20.0806 36.6971 20.2749 35.001 20.7028 33.4961C20.731 33.392 20.7592 33.2879 20.7883 33.1806C21.138 32.0239 21.6875 30.7241 22.4606 29.7852C22.4929 29.7852 22.5251 29.7852 22.5583 29.7852C22.5641 29.9124 22.5641 29.9124 22.57 30.0422C22.7758 34.3582 23.4082 38.5467 26.3669 41.8945C26.4277 41.9635 26.4885 42.0325 26.5511 42.1036C28.459 44.1354 31.4283 45.1157 34.1523 45.2256C37.6998 45.2992 41.0408 44.682 43.8474 42.3828C43.9305 42.3158 44.0135 42.2489 44.0991 42.1799C46.9571 39.7533 48.4729 35.5625 48.9255 31.9336C48.9899 31.9336 49.0544 31.9336 49.1208 31.9336C49.2136 32.1957 49.3049 32.4581 49.3955 32.7209C49.4337 32.8283 49.4337 32.8283 49.4727 32.9378C49.8964 34.1776 50.0547 35.3888 50.0424 36.6943C50.042 36.7961 50.042 36.7961 50.0415 36.9C50.0344 38.0146 49.944 39.0686 49.6091 40.1367C49.5887 40.203 49.5683 40.2692 49.5472 40.3375C48.9316 42.2695 47.8741 43.943 46.4841 45.4102C46.4039 45.4966 46.3237 45.5831 46.2411 45.6722C43.7284 48.2966 39.9149 49.9263 36.2929 50.0257C35.924 50.032 35.5554 50.0323 35.1865 50.0305C35.109 50.0303 35.0314 50.0301 34.9516 50.0299C33.793 50.0248 32.6724 49.9861 31.5427 49.707C31.4212 49.6779 31.4212 49.6779 31.2973 49.6482C28.7008 49.0099 26.3573 47.8235 24.4195 45.9621C24.2233 45.7702 24.2233 45.7702 23.9255 45.8008C23.7007 45.9279 23.484 46.0592 23.2663 46.1975C21.0542 47.5574 18.4345 48.4406 15.8212 48.4573C15.7492 48.458 15.6773 48.4587 15.6032 48.4594C12.5953 48.4817 12.5953 48.4817 11.2302 48.1445C11.1087 48.1154 11.1087 48.1154 10.9848 48.0857C8.28256 47.4214 5.93119 46.1558 3.90596 44.2383C3.81847 44.1571 3.73098 44.0759 3.64084 43.9922C1.89742 42.3222 0.735147 40.1389 0.195024 37.793C0.17633 37.7129 0.157636 37.6328 0.138376 37.5503C-0.0239989 36.7716 -0.0392143 35.9982 -0.0369097 35.2051C-0.0368566 35.1362 -0.0368034 35.0674 -0.0367487 34.9965C-0.028338 32.6208 0.621272 30.1652 2.05049 28.2227Z" fill="#9E0330"/>
<path d="M33.1055 3.80873C33.2903 3.85481 33.2903 3.85481 33.4939 3.87572C33.5715 3.88548 33.6491 3.89525 33.7291 3.9053C33.8545 3.91981 33.8545 3.91981 33.9825 3.93461C34.0691 3.94517 34.1557 3.95574 34.2449 3.96662C34.4283 3.98881 34.6118 4.01062 34.7953 4.03208C35.0742 4.06476 35.353 4.09877 35.6318 4.13298C35.8103 4.15442 35.9889 4.17578 36.1675 4.19706C36.2502 4.20713 36.3328 4.2172 36.4179 4.22757C37.1599 4.3133 37.8003 4.37882 38.504 4.07156C38.6174 4.02313 38.7307 3.97471 38.8474 3.92481C38.9064 3.89889 38.9654 3.87296 39.0262 3.84625C39.3386 3.70911 39.6531 3.577 39.9673 3.44404C40.0624 3.4036 40.0624 3.4036 40.1594 3.36234C40.7736 3.10159 41.393 2.85586 42.0166 2.61854C42.1099 2.58204 42.2033 2.54554 42.2995 2.50794C42.8282 2.30843 43.372 2.11566 43.9453 2.14857C44.3403 2.37841 44.4933 2.54365 44.6655 2.96644C44.8187 3.85496 44.8187 3.85496 44.5732 4.25214C44.2868 4.5421 44.009 4.64478 43.6283 4.75859C43.5586 4.78095 43.4888 4.80332 43.417 4.82636C43.2669 4.87437 43.1167 4.92168 42.9662 4.96836C42.5642 5.09344 42.1643 5.22472 41.7641 5.35521C41.6833 5.3814 41.6026 5.40759 41.5193 5.43458C39.5057 6.0897 37.5744 6.90266 35.6586 7.79995C35.5875 7.83318 35.5164 7.8664 35.4431 7.90064C35.309 7.96342 35.175 8.02657 35.0413 8.09012C34.5918 8.30092 34.5918 8.30092 34.375 8.30092C34.3655 17.5522 34.3655 17.5522 35.7466 26.6705C35.7967 26.8899 35.7967 26.8899 35.8398 27.2462C35.7327 27.415 35.7327 27.415 35.5469 27.5392C35.2356 27.5575 35.2356 27.5575 34.9609 27.5392C34.6659 26.6433 34.4471 25.7481 34.2651 24.8231C34.2162 24.5783 34.1671 24.3335 34.1179 24.0888C34.0968 23.9823 34.0758 23.8759 34.0541 23.7662C34.0031 23.5259 33.9473 23.2906 33.8856 23.0532C33.7894 22.6736 33.7275 22.2945 33.6735 21.9064C33.6637 21.8364 33.6539 21.7664 33.6439 21.6942C33.6123 21.4657 33.5815 21.2371 33.551 21.0084C33.5404 20.929 33.5297 20.8496 33.5187 20.7678C33.0103 16.9564 32.8205 13.1188 32.7148 9.27748C30.5256 10.4689 28.4212 11.8326 26.4648 13.379C26.3664 13.4568 26.268 13.5346 26.1665 13.6148C25.6425 14.0372 25.1379 14.4781 24.6407 14.9316C24.4439 15.1098 24.244 15.2825 24.0417 15.4542C23.1891 16.1998 22.398 17.01 21.6957 17.8987C21.4758 18.175 21.2455 18.4404 21.0144 18.7074C20.1516 19.7409 19.4231 20.8901 18.7798 22.0712C18.7377 22.1354 18.6957 22.1996 18.6523 22.2658C18.5879 22.2658 18.5234 22.2658 18.457 22.2658C18.4322 22.3472 18.4075 22.4286 18.3819 22.5124C18.2488 22.8881 18.0809 23.2379 17.9008 23.5925C17.8664 23.661 17.832 23.7296 17.7966 23.8002C17.6875 24.0173 17.5779 24.234 17.4683 24.4508C17.3938 24.5987 17.3195 24.7466 17.2451 24.8945C17.0636 25.2554 16.8815 25.6161 16.6992 25.9767C16.3363 25.9963 16.2332 25.9915 15.918 25.7814C15.9817 25.3664 16.1231 25.0228 16.2968 24.6416C16.3249 24.5795 16.3529 24.5175 16.3819 24.4536C16.4729 24.253 16.5646 24.0528 16.6565 23.8527C16.7197 23.7143 16.7829 23.5759 16.846 23.4376C16.9697 23.1669 17.0937 22.8963 17.2179 22.6259C17.3502 22.3377 17.4804 22.0485 17.6094 21.7588C18.6304 19.4871 20.1211 17.4733 21.7773 15.6251C21.8423 15.5519 21.8423 15.5519 21.9087 15.4771C22.902 14.3595 23.9493 13.2644 25.0977 12.3048C25.1846 12.2287 25.2716 12.1525 25.3613 12.074C26.1978 11.3452 27.0804 10.6857 27.9805 10.0377C28.1382 9.92424 28.2955 9.81032 28.4526 9.69595C30.6021 8.13232 32.8972 6.79194 35.2539 5.56654C35.3556 5.51082 35.3556 5.51082 35.4593 5.45398C35.6445 5.37123 35.6445 5.37123 35.9375 5.37123C35.9375 5.30677 35.9375 5.24232 35.9375 5.17592C35.8778 5.17226 35.8182 5.16861 35.7567 5.16485C34.704 5.08924 33.6617 4.93349 32.6172 4.78529C32.5882 4.84526 32.5593 4.90523 32.5295 4.96701C32.1146 5.77249 31.3814 6.47465 30.7617 7.12904C30.7037 7.19042 30.6456 7.25181 30.5858 7.31505C28.2982 9.71333 25.3739 11.8461 21.9414 12.0291C17.7924 12.1028 13.4787 11.2612 9.66797 9.57045C10.0179 9.01641 10.4268 8.51592 10.8398 8.00795C10.9074 7.9231 10.975 7.83825 11.0447 7.75084C12.4805 5.9633 14.1058 4.2117 15.9566 2.852C16.1137 2.73419 16.2659 2.61189 16.4177 2.48732C21.6905 -1.80418 27.9767 0.389541 33.1055 3.80873Z" fill="#339945"/>
<path d="M44.1406 2.24429C44.5419 2.52628 44.6309 2.84802 44.7266 3.3185C44.7668 3.70735 44.7802 3.91529 44.5732 4.2502C44.2868 4.54016 44.009 4.64283 43.6283 4.75665C43.5586 4.77901 43.4888 4.80138 43.417 4.82442C43.2669 4.87242 43.1167 4.91974 42.9662 4.96642C42.5642 5.0915 42.1643 5.22278 41.7641 5.35326C41.6833 5.37946 41.6026 5.40565 41.5193 5.43263C39.5057 6.08776 37.5744 6.90071 35.6586 7.79801C35.5875 7.83123 35.5164 7.86446 35.4431 7.89869C35.309 7.96148 35.175 8.02463 35.0413 8.08817C34.5919 8.29897 34.5919 8.29897 34.375 8.29897C34.3655 17.5502 34.3655 17.5502 35.7466 26.6686C35.7967 26.888 35.7967 26.888 35.8398 27.2443C35.7327 27.413 35.7327 27.413 35.5469 27.5373C35.2356 27.5556 35.2356 27.5556 34.9609 27.5373C34.6659 26.6414 34.4471 25.7462 34.2651 24.8212C34.2162 24.5764 34.1671 24.3316 34.1179 24.0869C34.0969 23.9804 34.0758 23.8739 34.0541 23.7642C34.0031 23.524 33.9473 23.2887 33.8856 23.0512C33.7894 22.6717 33.7275 22.2925 33.6735 21.9045C33.6637 21.8345 33.6539 21.7644 33.6439 21.6923C33.6123 21.4638 33.5815 21.2352 33.551 21.0065C33.5404 20.9271 33.5297 20.8477 33.5187 20.7658C33.0103 16.9545 32.8205 13.1168 32.7148 9.27554C30.5256 10.467 28.4212 11.8307 26.4648 13.3771C26.3664 13.4549 26.268 13.5327 26.1665 13.6128C25.6425 14.0353 25.1379 14.4761 24.6407 14.9297C24.4439 15.1078 24.244 15.2805 24.0417 15.4523C23.1891 16.1979 22.398 17.0081 21.6957 17.8968C21.4758 18.1731 21.2455 18.4384 21.0144 18.7055C20.1516 19.739 19.4231 20.8881 18.7798 22.0693C18.7377 22.1335 18.6957 22.1977 18.6523 22.2638C18.5879 22.2638 18.5234 22.2638 18.457 22.2638C18.4322 22.3452 18.4075 22.4266 18.3819 22.5105C18.2488 22.8861 18.0809 23.236 17.9008 23.5906C17.8664 23.6591 17.832 23.7276 17.7966 23.7982C17.6875 24.0153 17.5779 24.2321 17.4683 24.4489C17.3938 24.5967 17.3195 24.7446 17.2451 24.8925C17.0636 25.2535 16.8815 25.6142 16.6992 25.9748C16.3363 25.9944 16.2332 25.9896 15.918 25.7794C15.9817 25.3645 16.1231 25.0209 16.2968 24.6396C16.3249 24.5776 16.3529 24.5156 16.3819 24.4517C16.4729 24.2511 16.5646 24.0509 16.6565 23.8507C16.7197 23.7124 16.7829 23.574 16.846 23.4356C16.9697 23.1649 17.0937 22.8944 17.2179 22.624C17.3502 22.3357 17.4804 22.0466 17.6094 21.7568C18.6304 19.4851 20.1211 17.4714 21.7773 15.6232C21.8423 15.5499 21.8423 15.5499 21.9087 15.4752C22.902 14.3576 23.9493 13.2624 25.0977 12.3029C25.1846 12.2267 25.2716 12.1506 25.3613 12.0721C26.1978 11.3432 27.0804 10.6837 27.9805 10.0358C28.1382 9.92229 28.2956 9.80838 28.4526 9.69401C30.6021 8.13038 32.8972 6.79 35.2539 5.5646C35.3556 5.50888 35.3556 5.50888 35.4593 5.45204C35.6445 5.36929 35.6445 5.36929 35.9375 5.36929C35.9375 5.30483 35.9375 5.24038 35.9375 5.17397C35.8705 5.16919 35.8034 5.16441 35.7344 5.15948C34.8369 5.09058 33.9475 4.97464 33.0557 4.85459C31.5554 4.65337 30.0948 4.56808 28.5828 4.56972C28.4915 4.56975 28.4002 4.56978 28.3062 4.56981C26.934 4.57164 25.5815 4.61264 24.2188 4.78335C24.0401 4.8037 23.8614 4.82404 23.6828 4.84438C19.5464 5.33933 15.7282 6.89146 11.9774 8.63085C11.9116 8.66132 11.8459 8.69179 11.7781 8.72319C11.3245 8.9349 10.8794 9.1599 10.4399 9.39975C10.2539 9.47085 10.2539 9.47085 9.96094 9.37319C11.1925 8.70887 12.4365 8.09341 13.7146 7.52383C13.7987 7.48618 13.8827 7.44854 13.9693 7.40976C17.7693 5.7101 21.6236 4.37863 25.7812 3.90444C25.8574 3.89563 25.9335 3.88682 26.0119 3.87774C29.3771 3.50341 32.7493 3.69768 36.0936 4.16603C36.4319 4.2126 36.7703 4.25518 37.1094 4.29507C37.1802 4.30497 37.2509 4.31488 37.3239 4.32508C37.9364 4.37441 38.48 4.08442 39.0263 3.8443C39.3381 3.70734 39.6519 3.57502 39.9654 3.4421C40.0287 3.41514 40.092 3.38818 40.1572 3.3604C40.7808 3.09571 41.4122 2.85298 42.0471 2.6166C42.1933 2.56185 42.1933 2.56185 42.3424 2.506C43.4689 2.08836 43.4689 2.08836 44.1406 2.24429Z" fill="#068C38"/>
<path d="M32.8125 3.61465C32.877 3.71133 32.9414 3.80801 33.0078 3.90762C32.9208 3.90086 32.8337 3.89409 32.744 3.88712C31.8058 3.81879 30.8722 3.78657 29.9316 3.78555C29.8222 3.78536 29.8222 3.78536 29.7105 3.78516C27.6516 3.78595 25.5858 3.95589 23.5634 4.35218C23.4027 4.38361 23.2418 4.41404 23.0808 4.44383C18.7508 5.24693 14.5512 7.03463 10.6655 9.08443C10.4492 9.18106 10.4492 9.18106 10.1562 9.18106C10.1984 8.7052 10.4344 8.43663 10.7422 8.09463C10.8318 7.99277 10.9214 7.89079 11.0107 7.7887C11.0604 7.73239 11.1101 7.67609 11.1613 7.61808C11.3557 7.39105 11.5405 7.15727 11.7268 6.92352C12.2122 6.32828 12.7394 5.78367 13.283 5.24219C13.445 5.08051 13.6057 4.91756 13.7663 4.75449C14.455 4.0618 15.1783 3.4451 15.9569 2.85586C16.2167 2.65627 16.4695 2.44813 16.7236 2.24136C21.6867 -1.64861 28.0614 0.289484 32.8125 3.61465Z" fill="#38B449"/>
<path d="M25.195 32.4219C27.0296 32.8567 28.8324 33.6154 30.1755 34.9609C30.2339 35.0124 30.2923 35.0639 30.3525 35.117C30.9127 35.624 31.294 36.2713 31.7005 36.9011C31.9332 37.2597 32.1717 37.6146 32.4094 37.97C32.5079 38.118 32.6065 38.266 32.705 38.414C32.9109 38.7229 33.1177 39.031 33.3253 39.3387C33.3774 39.4161 33.4294 39.4936 33.4831 39.5734C33.5816 39.7198 33.6803 39.8661 33.7794 40.0121C34.7437 41.4486 34.7437 41.4486 34.6677 42.2852C33.9856 42.3195 33.387 42.1935 32.7268 42.0288C32.6194 42.0024 32.5121 41.9759 32.4015 41.9487C30.5722 41.4884 29.1062 40.9973 27.7341 39.6484C27.6728 39.5884 27.6115 39.5283 27.5483 39.4665C26.2867 38.1305 25.7088 36.2641 25.2988 34.5154C25.2781 34.4283 25.2574 34.3413 25.2361 34.2516C25.1097 33.6748 25.045 33.1103 25.0974 32.5195C25.1296 32.4873 25.1618 32.4551 25.195 32.4219Z" fill="#DC6889"/>
<path d="M4.88252 30.8594C6.7171 31.2942 8.51991 32.0529 9.86299 33.3984C9.9214 33.4499 9.97981 33.5014 10.04 33.5545C10.6002 34.0615 10.9815 34.7088 11.388 35.3386C11.6207 35.6972 11.8592 36.0521 12.0969 36.4075C12.1954 36.5555 12.294 36.7035 12.3925 36.8515C12.5984 37.1604 12.8052 37.4685 13.0128 37.7762C13.0649 37.8536 13.1169 37.9311 13.1706 38.0109C13.2691 38.1573 13.3678 38.3036 13.4669 38.4496C14.4312 39.8861 14.4312 39.8861 14.3552 40.7227C13.6731 40.757 13.0745 40.631 12.4143 40.4663C12.3069 40.4399 12.1996 40.4134 12.089 40.3862C10.2597 39.9259 8.79369 39.4348 7.42158 38.0859C7.36028 38.0259 7.29897 37.9658 7.23581 37.904C5.9742 36.568 5.3963 34.7016 4.98628 32.9529C4.96561 32.8658 4.94494 32.7788 4.92365 32.6891C4.79717 32.1123 4.73245 31.5478 4.78487 30.957C4.81709 30.9248 4.84932 30.8926 4.88252 30.8594Z" fill="#DC6889"/>
<path d="M39.2111 25.4051C39.7961 25.6864 40.229 25.9638 40.5276 26.5609C40.6353 27.2748 40.4461 27.8306 40.0393 28.4164C38.8847 29.75 37.0584 30.3465 35.3518 30.5649C34.8492 30.594 34.3475 30.598 33.8442 30.5954C33.7417 30.5952 33.7417 30.5952 33.637 30.5949C32.7854 30.5917 31.9418 30.5658 31.0977 30.4428C31.0224 30.4321 30.9471 30.4215 30.8696 30.4105C30.2416 30.3026 29.7537 30.091 29.3521 29.5761C29.1399 29.1489 29.1018 28.6855 29.1995 28.2211C29.7967 27.1909 30.7077 26.3659 31.8362 25.975C32.3322 25.8658 32.7457 25.9815 33.1824 26.2211C33.5531 26.4688 33.8895 26.7565 34.2272 27.0469C34.4364 27.2152 34.619 27.3336 34.8635 27.4399C34.8958 27.3754 34.928 27.3109 34.9612 27.2445C34.9612 27.3412 34.9612 27.4379 34.9612 27.5375C35.3268 27.4602 35.5805 27.4046 35.8523 27.1408C36.0035 26.9039 36.1318 26.6693 36.2612 26.4206C36.8815 25.2667 38.0075 25.007 39.2111 25.4051Z" fill="#9E0430"/>
<path d="M14.5443 23.8338C15.199 24.248 15.5974 24.8898 15.9176 25.5855C15.9176 25.6499 15.9176 25.7144 15.9176 25.7808C16.283 25.9026 16.5082 25.922 16.8942 25.8785C17.4533 25.5974 17.9209 25.1807 18.3762 24.7569C18.767 24.4323 19.0889 24.37 19.5866 24.3831C20.7066 24.5272 21.6526 25.4586 22.3629 26.2691C22.6171 26.6826 22.6188 27.0656 22.5582 27.5386C22.4537 27.9149 22.3138 28.2087 21.9986 28.4484C20.0765 29.4881 16.7929 29.2542 14.7533 28.6755C13.3689 28.2481 12.0706 27.5293 11.34 26.2386C11.1822 25.7214 11.0745 25.2017 11.3342 24.7012C12.0602 23.7794 13.4432 23.4305 14.5443 23.8338Z" fill="#9E0430"/>
<path d="M44.1406 2.24723C44.5419 2.52922 44.6309 2.85096 44.7266 3.32145C44.7667 3.709 44.7799 3.91795 44.5749 4.2525C44.2814 4.54828 43.9899 4.65246 43.6008 4.76989C43.5288 4.79312 43.4568 4.81636 43.3826 4.8403C43.1495 4.91529 42.9157 4.9881 42.6819 5.06095C42.3622 5.16304 42.0429 5.26626 41.7236 5.36956C41.6452 5.39477 41.5668 5.41998 41.4861 5.44596C40.7673 5.67859 40.0626 5.94226 39.3633 6.22817C38.9886 6.37831 38.6934 6.48906 38.2812 6.44645C38.031 5.75861 37.8418 5.12754 37.793 4.39567C38.4545 4.05075 39.1341 3.76586 39.8254 3.48624C39.9992 3.41574 39.9992 3.41574 40.1764 3.34381C43.3493 2.06353 43.3493 2.06353 44.1406 2.24723Z" fill="#504940"/>
<path d="M37.2071 41.5037C37.4085 41.6563 37.4085 41.6563 37.5001 41.8944C37.5175 42.1728 37.4931 42.4112 37.4024 42.6756C37.1155 42.9541 36.9594 42.9686 36.5601 42.9686C36.2305 42.8709 36.2305 42.8709 36.0352 42.6634C35.9075 42.2962 35.9316 42.072 36.0352 41.6991C36.3461 41.3012 36.7633 41.3684 37.2071 41.5037Z" fill="#DC6586"/>
<path d="M16.8946 40.7225C17.096 40.8751 17.096 40.8751 17.1876 41.1131C17.205 41.3916 17.1806 41.63 17.0899 41.8944C16.803 42.1729 16.6469 42.1873 16.2476 42.1873C15.918 42.0897 15.918 42.0897 15.7227 41.8822C15.595 41.515 15.6191 41.2908 15.7227 40.9178C16.0336 40.5199 16.4508 40.5871 16.8946 40.7225Z" fill="#DC6586"/>
<path d="M14.9414 3.80859C14.78 4.22761 14.4638 4.50615 14.1502 4.81415C14.092 4.87212 14.0337 4.93009 13.9737 4.98982C13.7881 5.17434 13.6018 5.35817 13.4155 5.54199C13.2893 5.6672 13.1632 5.79245 13.0371 5.91774C12.7284 6.22432 12.419 6.53029 12.1094 6.83594C12.0449 6.80371 11.9805 6.77148 11.9141 6.73828C12.526 6.04528 13.1588 5.37805 13.8123 4.72412C13.9436 4.591 13.9436 4.591 14.0776 4.45518C14.1611 4.37147 14.2446 4.28776 14.3307 4.20151C14.4059 4.1259 14.4811 4.05029 14.5586 3.97239C14.7461 3.80859 14.7461 3.80859 14.9414 3.80859Z" fill="#36A648"/>
</g>
<defs>
<clipPath id="clip0_3139_42864">
<rect width="50" height="50" fill="white"/>
</clipPath>
</defs>
</svg>
