<svg width="50" height="50" viewBox="0 0 50 50" fill="none" xmlns="http://www.w3.org/2000/svg">
<g clip-path="url(#clip0_3149_42681)">
<path d="M43.7483 -0.0192955C43.8637 -0.0198521 43.979 -0.0204087 44.0978 -0.0209823C44.3394 -0.0218972 44.581 -0.02254 44.8226 -0.0229194C45.1907 -0.0238742 45.5588 -0.0269142 45.9269 -0.0299766C46.163 -0.0306138 46.3992 -0.0311268 46.6353 -0.0315025C46.7988 -0.0333111 46.7988 -0.0333111 46.9655 -0.0351562C47.9149 -0.0324646 48.6407 0.124561 49.343 0.784843C49.8145 1.32254 50.0101 1.9335 50.0156 2.63988C50.0165 2.73804 50.0174 2.83619 50.0184 2.93732C50.0188 3.04349 50.0193 3.14966 50.0197 3.25906C50.0204 3.36982 50.0211 3.48059 50.0218 3.59472C50.0235 3.95509 50.0241 4.31545 50.0243 4.67583C50.0244 4.85945 50.0244 4.85945 50.0245 5.04678C50.0229 6.86722 49.9799 8.64717 49.7069 10.4498C49.6901 10.5644 49.6734 10.6791 49.6561 10.7972C48.6959 17.2234 46.3132 23.1546 42.0897 28.1255C41.9953 28.2381 41.901 28.3506 41.8067 28.4631C41.3041 29.0592 40.7936 29.633 40.2339 30.1767C40.0518 30.3588 39.8866 30.5466 39.7215 30.7439C39.2737 31.2654 38.7585 31.7161 38.2494 32.1761C38.089 32.3218 37.9302 32.4691 37.7719 32.617C37.6751 32.7067 37.5783 32.7965 37.4816 32.8863C37.3956 32.9663 37.3096 33.0464 37.221 33.1289C37.0116 33.3013 37.0116 33.3013 36.8163 33.3013C36.8176 33.3663 36.8189 33.4312 36.8203 33.4981C36.8302 34.3918 36.7699 35.2764 36.7018 36.1665C36.6929 36.2854 36.6929 36.2854 36.6837 36.4066C36.6521 36.8254 36.62 37.2441 36.5874 37.6628C36.5541 38.0913 36.5227 38.5198 36.4916 38.9484C36.4671 39.2819 36.4413 39.6153 36.4152 39.9486C36.403 40.1064 36.3913 40.2643 36.3801 40.4222C36.258 42.1355 35.9361 43.3661 34.6155 44.5274C34.2498 44.8309 33.8614 45.09 33.4624 45.3474C33.3769 45.4034 33.2914 45.4594 33.2034 45.5171C32.927 45.6979 32.6499 45.8778 32.3729 46.0577C32.0839 46.2463 31.7951 46.4352 31.5063 46.6241C31.3121 46.7511 31.1179 46.878 30.9236 47.0048C30.3139 47.4033 29.7069 47.8056 29.1026 48.2122C29.0282 48.2622 28.9539 48.3121 28.8773 48.3636C28.5975 48.5517 28.3179 48.7398 28.0389 48.929C27.8516 49.056 27.6638 49.1823 27.476 49.3086C27.3719 49.379 27.2678 49.4495 27.1606 49.522C26.3535 50.0126 25.6477 50.0907 24.7069 50.0005C24.0762 49.8346 23.4863 49.4877 23.1193 48.9377C22.7014 48.1694 22.5875 47.3736 22.4608 46.5215C22.4366 46.3669 22.4123 46.2122 22.3879 46.0576C22.3379 45.7399 22.2889 45.4221 22.2406 45.1042C22.1705 44.6439 22.0967 44.1842 22.0221 43.7246C21.9879 43.5122 21.9538 43.2998 21.9197 43.0874C21.8981 42.9528 21.8765 42.8182 21.8547 42.6835C21.8246 42.4963 21.7952 42.309 21.7658 42.1217C21.749 42.0162 21.7323 41.9107 21.7151 41.802C21.6796 41.5045 21.6732 41.2179 21.6796 40.9185C21.5829 40.9507 21.4862 40.983 21.3866 41.0162C21.1572 41.0356 20.927 41.0467 20.6969 41.0528C20.5749 41.0576 20.4529 41.0624 20.3272 41.0673C19.3406 41.0036 18.6293 40.2829 17.9725 39.6184C17.8799 39.5265 17.7872 39.4347 17.6945 39.343C17.445 39.0957 17.197 38.8469 16.9494 38.5977C16.6888 38.3359 16.427 38.0752 16.1654 37.8144C15.7264 37.3763 15.2885 36.9372 14.8512 36.4975C14.3472 35.9909 13.8414 35.486 13.3347 34.982C12.898 34.5475 12.4622 34.112 12.0272 33.6757C11.7682 33.4159 11.5088 33.1565 11.2486 32.8979C11.0039 32.6546 10.7604 32.4101 10.5178 32.1647C10.3872 32.0331 10.2554 31.9028 10.1236 31.7725C9.54726 31.1861 8.98833 30.5289 8.93312 29.6732C8.9403 29.4902 8.9403 29.4902 8.94762 29.3035C8.95089 29.1798 8.95416 29.056 8.95753 28.9285C8.98424 28.6138 8.98424 28.6138 9.08189 28.3209C9.01256 28.316 8.94323 28.3111 8.8718 28.3061C8.1067 28.2479 7.35265 28.151 6.59433 28.0351C6.47282 28.0167 6.3513 27.9982 6.22611 27.9792C5.97093 27.9403 5.71578 27.9012 5.46067 27.8618C5.20141 27.8218 4.94205 27.7825 4.68257 27.7439C4.30443 27.6875 3.92654 27.6295 3.54868 27.5713C3.434 27.5544 3.31933 27.5375 3.20118 27.52C2.07464 27.3426 1.08315 27.1147 0.366074 26.1785C0.065542 25.6526 -0.0321184 25.1897 -0.0428619 24.5855C-0.0467644 24.4662 -0.0506668 24.3468 -0.0546875 24.2239C0.0124123 23.3062 0.721249 22.4739 1.22057 21.7413C1.37615 21.5111 1.53125 21.2806 1.68634 21.05C1.72878 20.9871 1.77122 20.9241 1.81495 20.8592C2.20331 20.2816 2.58565 19.7002 2.96732 19.1183C3.02997 19.0228 3.09263 18.9274 3.15718 18.829C3.41042 18.4431 3.66363 18.0572 3.91622 17.6709C4.09499 17.3976 4.27422 17.1246 4.45352 16.8516C4.50637 16.7705 4.55921 16.6894 4.61366 16.6059C5.38658 15.4315 6.19348 14.2458 7.61705 13.8677C9.08101 13.6298 10.5774 13.5615 12.0555 13.4491C12.4169 13.4216 12.7783 13.3934 13.1398 13.365C13.4221 13.3429 13.7045 13.3212 13.9868 13.2997C14.1839 13.2845 14.3809 13.2691 14.5779 13.2536C15.2867 13.2003 15.9883 13.1706 16.6991 13.1841C16.7265 13.1253 16.7539 13.0664 16.7821 13.0058C16.9449 12.6981 17.1815 12.4641 17.4193 12.2137C17.526 12.1 17.6327 11.9863 17.7393 11.8726C17.7938 11.8148 17.8483 11.7569 17.9045 11.6973C18.0579 11.5329 18.2092 11.3668 18.3596 11.1997C18.9919 10.4991 19.655 9.84907 20.3571 9.21866C20.4989 9.09054 20.6388 8.96035 20.7785 8.83004C21.4139 8.23941 22.078 7.69847 22.7664 7.17184C22.951 7.03028 23.1347 6.88743 23.3183 6.74454C29.0458 2.32705 36.5386 0.00836504 43.7483 -0.0192955Z" fill="#D6D5FA"/>
<path d="M16.6991 13.1829C16.4078 13.5753 16.1147 13.9652 15.8083 14.346C14.2942 16.2344 13.0558 18.2787 11.9139 20.4095C11.8631 20.5001 11.8123 20.5906 11.7599 20.6839C11.7133 20.77 11.6667 20.856 11.6187 20.9447C11.5767 21.0205 11.5347 21.0963 11.4915 21.1744C11.4018 21.3842 11.4018 21.3842 11.5013 21.5752C11.6208 21.7765 11.742 21.922 11.9073 22.0871C11.9662 22.1464 12.0251 22.2057 12.0858 22.2667C12.1506 22.331 12.2154 22.3952 12.2821 22.4613C12.3509 22.5303 12.4196 22.5992 12.4905 22.6702C12.7215 22.9016 12.9533 23.1323 13.185 23.3629C13.3506 23.5284 13.5161 23.694 13.6816 23.8596C14.0847 24.2628 14.4883 24.6655 14.8921 25.0681C15.3619 25.5365 15.8312 26.0055 16.3005 26.4745C17.1373 27.3109 17.9745 28.1469 18.8121 28.9826C19.6257 29.7944 20.4391 30.6064 21.2522 31.4186C21.3273 31.4937 21.3273 31.4937 21.404 31.5704C21.6555 31.8215 21.9069 32.0727 22.1584 32.3239C24.2442 34.4078 26.3308 36.4909 28.4178 38.5736C31.2924 37.6358 34.0445 35.6012 36.3249 33.6492C36.5233 33.4954 36.5233 33.4954 36.8163 33.3978C36.8374 34.3213 36.7719 35.2359 36.7018 36.1558C36.6959 36.2351 36.6899 36.3144 36.6837 36.3962C36.6521 36.8156 36.6199 37.2349 36.5874 37.6543C36.5542 38.0835 36.5227 38.5128 36.4916 38.9422C36.4671 39.2761 36.4413 39.6098 36.4152 39.9436C36.403 40.1017 36.3913 40.2598 36.3801 40.418C36.2582 42.1325 35.9371 43.364 34.6155 44.5262C34.2498 44.8297 33.8614 45.0888 33.4624 45.3462C33.3769 45.4022 33.2914 45.4582 33.2034 45.5159C32.927 45.6967 32.6499 45.8766 32.3729 46.0565C32.0839 46.2451 31.7951 46.434 31.5063 46.6229C31.3121 46.7499 31.1179 46.8768 30.9236 47.0036C30.3139 47.4021 29.7069 47.8044 29.1026 48.211C29.0282 48.261 28.9539 48.3109 28.8773 48.3624C28.5975 48.5505 28.3179 48.7386 28.0389 48.9278C27.8516 49.0548 27.6638 49.1811 27.476 49.3074C27.3719 49.3778 27.2678 49.4483 27.1606 49.5208C26.3535 50.0114 25.6477 50.0895 24.7069 49.9994C24.0762 49.8334 23.4863 49.4865 23.1193 48.9365C22.7014 48.1682 22.5875 47.3724 22.4608 46.5203C22.4366 46.3657 22.4123 46.211 22.3879 46.0564C22.3379 45.7387 22.2889 45.4209 22.2406 45.103C22.1705 44.6427 22.0967 44.183 22.0221 43.7234C21.9879 43.511 21.9538 43.2986 21.9197 43.0862C21.8981 42.9516 21.8765 42.817 21.8547 42.6824C21.8246 42.4951 21.7952 42.3078 21.7658 42.1205C21.749 42.015 21.7323 41.9095 21.7151 41.8009C21.6796 41.5033 21.6732 41.2167 21.6796 40.9173C21.5829 40.9495 21.4862 40.9818 21.3866 41.015C21.1572 41.0344 20.927 41.0455 20.6969 41.0516C20.5749 41.0564 20.4529 41.0612 20.3272 41.0661C19.3406 41.0024 18.6293 40.2817 17.9725 39.6172C17.8799 39.5253 17.7872 39.4335 17.6945 39.3418C17.445 39.0945 17.197 38.8457 16.9494 38.5965C16.6888 38.3347 16.427 38.074 16.1654 37.8132C15.7264 37.3751 15.2885 36.936 14.8512 36.4963C14.3472 35.9897 13.8414 35.4848 13.3347 34.9808C12.898 34.5463 12.4622 34.1108 12.0272 33.6745C11.7682 33.4147 11.5088 33.1553 11.2486 32.8967C11.0039 32.6534 10.7604 32.4089 10.5178 32.1635C10.3872 32.0319 10.2554 31.9016 10.1236 31.7713C9.54726 31.1849 8.98833 30.5277 8.93312 29.672C8.9379 29.55 8.94269 29.428 8.94762 29.3023C8.95089 29.1786 8.95416 29.0548 8.95753 28.9273C8.98424 28.6126 8.98424 28.6126 9.08189 28.3197C9.01256 28.3148 8.94323 28.3099 8.8718 28.3049C8.1067 28.2467 7.35265 28.1498 6.59433 28.0339C6.47282 28.0155 6.3513 27.9971 6.22611 27.9781C5.97093 27.9391 5.71578 27.9 5.46067 27.8606C5.20141 27.8206 4.94205 27.7813 4.68257 27.7427C4.30443 27.6863 3.92654 27.6283 3.54868 27.5701C3.434 27.5532 3.31933 27.5363 3.20118 27.5189C2.07464 27.3414 1.08315 27.1135 0.366074 26.1773C0.065542 25.6514 -0.0321184 25.1885 -0.0428619 24.5843C-0.0467644 24.465 -0.0506668 24.3456 -0.0546875 24.2227C0.0124123 23.305 0.721249 22.4727 1.22057 21.7401C1.37615 21.5099 1.53125 21.2794 1.68634 21.0489C1.72878 20.9859 1.77122 20.9229 1.81495 20.858C2.20331 20.2805 2.58565 19.6991 2.96732 19.1171C3.0613 18.9739 3.0613 18.9739 3.15718 18.8278C3.41042 18.4419 3.66363 18.056 3.91622 17.6697C4.09499 17.3964 4.27422 17.1234 4.45352 16.8504C4.50637 16.7693 4.55921 16.6882 4.61366 16.6047C5.38658 15.4303 6.19348 14.2447 7.61705 13.8665C9.08101 13.6286 10.5774 13.5603 12.0555 13.4479C12.4169 13.4204 12.7783 13.3922 13.1398 13.3638C13.4221 13.3417 13.7045 13.3201 13.9868 13.2985C14.1839 13.2833 14.3809 13.2679 14.5779 13.2524C15.2867 13.1991 15.9883 13.1694 16.6991 13.1829Z" fill="#476388"/>
<path d="M43.7485 -0.0192955C43.8638 -0.0198521 43.9791 -0.0204087 44.098 -0.0209823C44.3396 -0.0218972 44.5812 -0.02254 44.8227 -0.0229194C45.1909 -0.0238742 45.5589 -0.0269142 45.927 -0.0299766C46.1632 -0.0306138 46.3993 -0.0311268 46.6354 -0.0315025C46.7989 -0.0333111 46.7989 -0.0333111 46.9656 -0.0351562C47.9189 -0.0324535 48.6163 0.117618 49.3164 0.781791C49.2542 0.843802 49.192 0.905813 49.1279 0.969704C48.7296 1.36808 48.3339 1.76917 47.9378 2.16972C47.034 3.08305 46.1288 3.9949 45.2227 4.90588C44.6745 5.45712 44.1268 6.00891 43.5804 6.56196C43.1028 7.04546 42.6241 7.52792 42.1442 8.00917C41.8904 8.26369 41.6372 8.51871 41.3852 8.77497C41.1046 9.06022 40.8218 9.34315 40.5388 9.62593C40.4555 9.71135 40.3722 9.79677 40.2863 9.88478C40.1705 9.99938 40.1705 9.99938 40.0524 10.1163C39.9525 10.217 39.9525 10.217 39.8505 10.3198C39.6484 10.4498 39.6484 10.4498 39.3957 10.4333C39.0794 10.3242 38.8699 10.148 38.6108 9.93706C37.1496 8.79621 35.2343 8.34403 33.3984 8.49663C31.915 8.69524 30.629 9.27692 29.4922 10.2544C29.3975 10.3287 29.3029 10.403 29.2053 10.4795C28.889 10.7437 28.6536 11.041 28.418 11.3775C28.376 11.4371 28.3341 11.4967 28.2909 11.5581C27.4184 12.8319 27.0292 14.1052 27.0203 15.6377C27.0197 15.7274 27.0192 15.8171 27.0186 15.9095C27.0366 17.6122 27.6558 19.4222 28.8845 20.63C29.0039 20.8013 29.0039 20.8013 28.9844 20.9833C28.8864 21.2449 28.755 21.3792 28.5571 21.5763C28.4822 21.6516 28.4073 21.7269 28.3301 21.8045C28.2474 21.8862 28.1646 21.9679 28.0794 22.0521C27.9927 22.1388 27.906 22.2255 27.8167 22.3149C27.5791 22.5526 27.3405 22.7894 27.1019 23.026C26.8525 23.2735 26.604 23.5219 26.3554 23.7701C25.8846 24.24 25.4131 24.7092 24.9412 25.1781C24.4041 25.7119 23.8678 26.2466 23.3315 26.7814C22.2284 27.8814 21.1243 28.9804 20.0195 30.0787C19.7117 29.9423 19.504 29.7826 19.2668 29.5447C19.1612 29.4396 19.1612 29.4396 19.0535 29.3323C18.9773 29.2554 18.9011 29.1784 18.8226 29.0992C18.7416 29.0182 18.6605 28.9372 18.5771 28.8538C18.3092 28.5858 18.0421 28.3171 17.775 28.0485C17.5895 27.8626 17.4039 27.6768 17.2183 27.491C16.7797 27.0518 16.3417 26.6121 15.9038 26.1723C15.4051 25.6714 14.9059 25.1712 14.4067 24.6709C13.3799 23.6421 12.3538 22.6126 11.3281 21.5826C11.4454 21.224 11.5661 20.8877 11.7397 20.5526C11.782 20.471 11.8243 20.3894 11.8679 20.3053C11.9133 20.2192 11.9588 20.1332 12.0056 20.0445C12.077 19.9091 12.077 19.9091 12.1498 19.7709C13.3116 17.5912 14.698 15.4667 16.328 13.6057C16.4926 13.4166 16.6218 13.248 16.7515 13.0315C16.9384 12.7206 17.1771 12.4693 17.4255 12.2076C17.5314 12.0948 17.6372 11.982 17.7429 11.8692C17.7968 11.8119 17.8507 11.7547 17.9062 11.6957C18.059 11.532 18.2095 11.3665 18.3594 11.2001C18.9919 10.4994 19.655 9.84919 20.3572 9.21866C20.499 9.09054 20.6389 8.96035 20.7787 8.83004C21.414 8.23941 22.0781 7.69847 22.7665 7.17184C22.9512 7.03028 23.1348 6.88743 23.3185 6.74454C29.0459 2.32705 36.5388 0.00836504 43.7485 -0.0192955Z" fill="#F0F0FA"/>
<path d="M38.4155 9.67413C38.8563 10.0009 39.2574 10.3594 39.6488 10.7434C39.71 10.8022 39.7712 10.861 39.8342 10.9215C41.1884 12.3339 41.66 14.3114 41.6283 16.2102C41.5506 18.2186 40.5458 19.9535 39.1217 21.3196C37.4331 22.7641 35.4665 23.201 33.287 23.0749C31.4117 22.8943 29.7264 21.8234 28.516 20.4114C27.1938 18.6043 26.7004 16.5612 26.9797 14.3442C27.3071 12.5793 28.4122 10.9109 29.8264 9.83969C30.2508 9.5527 30.6952 9.31267 31.1527 9.08323C31.244 9.03388 31.3353 8.98454 31.4293 8.9337C33.6602 7.89939 36.4149 8.33165 38.4155 9.67413Z" fill="#466388"/>
<path d="M16.6991 13.1829C16.4078 13.5753 16.1147 13.9652 15.8083 14.346C12.8332 18.0565 10.6004 22.3828 9.43823 26.9979C9.32507 27.44 9.20289 27.8796 9.08189 28.3197C8.24601 28.261 7.42248 28.1605 6.59433 28.0339C6.47282 28.0155 6.3513 27.9971 6.22611 27.9781C5.97093 27.9391 5.71578 27.9 5.46067 27.8606C5.20141 27.8206 4.94205 27.7813 4.68257 27.7427C4.30443 27.6863 3.92654 27.6283 3.54868 27.5701C3.434 27.5532 3.31933 27.5363 3.20118 27.5189C2.07464 27.3414 1.08315 27.1135 0.366074 26.1773C0.065542 25.6514 -0.0321184 25.1885 -0.0428619 24.5843C-0.0467644 24.465 -0.0506668 24.3456 -0.0546875 24.2227C0.0124123 23.305 0.721249 22.4727 1.22057 21.7401C1.37615 21.5099 1.53125 21.2794 1.68634 21.0489C1.72878 20.9859 1.77122 20.9229 1.81495 20.858C2.20331 20.2805 2.58565 19.6991 2.96732 19.1171C3.0613 18.9739 3.0613 18.9739 3.15718 18.8278C3.41042 18.4419 3.66363 18.056 3.91622 17.6697C4.09499 17.3964 4.27422 17.1234 4.45352 16.8504C4.50637 16.7693 4.55921 16.6882 4.61366 16.6047C5.38658 15.4303 6.19348 14.2447 7.61705 13.8665C9.08101 13.6286 10.5774 13.5603 12.0555 13.4479C12.4169 13.4204 12.7783 13.3922 13.1398 13.3638C13.4221 13.3417 13.7045 13.3201 13.9868 13.2985C14.1839 13.2833 14.3809 13.2679 14.5779 13.2524C15.2867 13.1991 15.9883 13.1694 16.6991 13.1829Z" fill="#E45A6E"/>
<path d="M36.8166 33.3984C36.8378 34.3219 36.7723 35.2365 36.7022 36.1565C36.6962 36.2358 36.6902 36.3151 36.6841 36.3968C36.6524 36.8162 36.6203 37.2356 36.5877 37.6549C36.5545 38.0841 36.523 38.5135 36.492 38.9428C36.4675 39.2767 36.4417 39.6105 36.4155 39.9442C36.4033 40.1023 36.3917 40.2605 36.3805 40.4186C36.2585 42.1331 35.9375 43.3647 34.6159 44.5269C34.2501 44.8304 33.8618 45.0895 33.4627 45.3468C33.3345 45.4308 33.3345 45.4308 33.2037 45.5165C32.9273 45.6974 32.6503 45.8773 32.3733 46.0571C32.0843 46.2458 31.7955 46.4346 31.5067 46.6235C31.3125 46.7505 31.1183 46.8774 30.924 47.0043C30.3142 47.4027 29.7073 47.8051 29.1029 48.2117C28.9914 48.2866 28.9914 48.2866 28.8776 48.3631C28.5979 48.5511 28.3182 48.7392 28.0393 48.9284C27.852 49.0555 27.6642 49.1818 27.4763 49.308C27.3723 49.3785 27.2682 49.4489 27.1609 49.5215C26.3538 50.0121 25.6481 50.0902 24.7072 50C24.0765 49.8341 23.4866 49.4871 23.1197 48.9371C22.7018 48.1688 22.5878 47.373 22.4612 46.521C22.437 46.3663 22.4127 46.2117 22.3882 46.0571C22.3383 45.7394 22.2892 45.4216 22.2409 45.1036C22.1708 44.6433 22.097 44.1837 22.0225 43.7241C21.9883 43.5117 21.9541 43.2993 21.9201 43.0869C21.8985 42.9522 21.8768 42.8176 21.855 42.683C21.8249 42.4958 21.7955 42.3085 21.7661 42.1211C21.7494 42.0156 21.7327 41.9102 21.7154 41.8015C21.6799 41.5039 21.6736 41.2174 21.6799 40.918C21.7619 40.8966 21.8438 40.8752 21.9282 40.8531C22.2572 40.7664 22.5858 40.6784 22.9141 40.5896C23.0686 40.5479 23.2231 40.5065 23.3776 40.4655C27.622 39.3331 31.4405 37.3215 34.9734 34.7351C35.0485 34.6802 35.1237 34.6253 35.2011 34.5687C35.6426 34.2415 36.0577 33.8976 36.4618 33.525C36.6213 33.3984 36.6213 33.3984 36.8166 33.3984Z" fill="#D82E44"/>
<path d="M19.8238 30.1758C20.1292 30.3114 20.3369 30.4691 20.5728 30.7047C20.6423 30.7737 20.7119 30.8427 20.7836 30.9138C20.8589 30.9895 20.9342 31.0652 21.0118 31.1432C21.1319 31.2628 21.1319 31.2628 21.2544 31.3848C21.5191 31.6486 21.783 31.9131 22.047 32.1777C22.2303 32.3609 22.4137 32.5441 22.597 32.7272C22.9812 33.1111 23.365 33.4954 23.7486 33.8799C24.1925 34.3248 24.637 34.769 25.082 35.2129C25.4638 35.5938 25.8453 35.9752 26.2265 36.3569C26.4542 36.5849 26.6821 36.8128 26.9103 37.0404C27.1642 37.2938 27.4175 37.5479 27.6707 37.8021C27.7468 37.8778 27.8229 37.9535 27.9013 38.0315C27.9697 38.1005 28.0382 38.1695 28.1087 38.2406C28.1687 38.3007 28.2287 38.3607 28.2905 38.4226C28.4175 38.5742 28.4175 38.5742 28.4175 38.7695C21.5909 41.6373 21.5909 41.6373 19.7147 40.9386C18.9589 40.5931 18.4181 40.0721 17.842 39.4894C17.7404 39.388 17.6386 39.2868 17.5368 39.1855C17.3253 38.9748 17.1148 38.7632 16.9048 38.551C16.6355 38.2788 16.3639 38.0089 16.0917 37.7396C15.882 37.5316 15.6734 37.3225 15.4652 37.113C15.3654 37.013 15.2653 36.9132 15.1649 36.8139C15.0253 36.6756 14.8875 36.5355 14.7498 36.3954C14.6315 36.2766 14.6315 36.2766 14.5109 36.1554C14.355 35.9375 14.355 35.9375 14.3477 35.7472C14.5016 35.4536 14.7224 35.2389 14.9568 35.0095C15.0092 34.957 15.0616 34.9046 15.1156 34.8506C15.2888 34.6776 15.4629 34.5057 15.6371 34.3338C15.7575 34.214 15.8778 34.0941 15.998 33.9742C16.3144 33.6589 16.6317 33.3445 16.9492 33.0302C17.2731 32.7093 17.5961 32.3876 17.9193 32.066C18.5533 31.4351 19.1882 30.8051 19.8238 30.1758Z" fill="#364A67"/>
<path d="M36.9197 12.1837C37.8259 12.9118 38.4528 13.8842 38.6714 15.0401C38.7697 16.4169 38.4814 17.6124 37.5789 18.6656C36.7212 19.5778 35.7446 20.1142 34.4828 20.1694C33.2246 20.1889 32.2291 19.8914 31.2641 19.0528C30.4165 18.2283 29.8844 17.1238 29.8538 15.9349C29.8417 14.5759 30.2153 13.5794 31.1618 12.5766C32.793 11.0376 35.0795 10.9198 36.9197 12.1837Z" fill="#4ABCFC"/>
<path d="M39.3555 10.6445C40.3508 11.1122 40.8409 12.2984 41.2109 13.2812C41.8717 15.133 41.7614 17.0764 40.9586 18.8621C40.0568 20.741 38.4912 22.0596 36.5551 22.7921C34.627 23.3607 32.5562 23.1931 30.7678 22.2839C30.1521 21.9205 29.5018 21.4989 29.1016 20.8984C29.7461 20.2539 30.3906 19.6094 31.0547 18.9453C31.4924 19.1204 31.7886 19.303 32.1609 19.5766C32.8177 19.954 33.4662 20.0719 34.2163 20.0623C34.2974 20.0615 34.3784 20.0608 34.4619 20.06C35.5828 20.03 36.5046 19.6127 37.3203 18.8442C38.2692 17.8386 38.6314 16.7311 38.6044 15.3645C38.5207 14.4615 38.1489 13.7494 37.6358 13.0154C37.5 12.793 37.5 12.793 37.5 12.5C37.6703 12.2964 37.6703 12.2964 37.9059 12.0655C38.0315 11.9414 38.0315 11.9414 38.1596 11.8147C38.2481 11.7286 38.3366 11.6426 38.4277 11.554C38.5162 11.4668 38.6047 11.3796 38.6959 11.2898C38.9151 11.074 39.135 10.859 39.3555 10.6445Z" fill="#354A68"/>
<path d="M11.5541 38.0601C11.9536 38.3945 12.0802 38.6381 12.195 39.1465C12.2383 39.6501 12.0854 40.0181 11.7761 40.4062C11.3227 40.9211 10.8481 41.4111 10.3629 41.8961C10.2368 42.0227 10.2368 42.0227 10.1081 42.1519C9.87969 42.381 9.65108 42.61 9.42233 42.8388C9.27914 42.982 9.13603 43.1254 8.99294 43.2687C8.49304 43.7695 7.99288 44.2701 7.49249 44.7704C7.02701 45.2358 6.56208 45.7018 6.0974 46.168C5.69715 46.5695 5.29653 46.9707 4.89561 47.3715C4.6567 47.6104 4.41793 47.8494 4.17954 48.0889C3.91412 48.3554 3.64791 48.6212 3.38163 48.8869C3.26397 49.0054 3.26397 49.0054 3.14393 49.1262C3.07111 49.1986 2.9983 49.271 2.92328 49.3456C2.86052 49.4085 2.79777 49.4713 2.73311 49.536C2.21856 49.986 1.82901 50.0509 1.16057 50.0329C0.77933 49.9864 0.570713 49.8713 0.293106 49.6079C0.0392913 49.2499 -0.0461791 48.9902 -0.0547943 48.552C-0.0589485 48.4567 -0.0631027 48.3614 -0.0673828 48.2632C0.106368 47.4514 0.902386 46.8222 1.46958 46.2577C1.55651 46.1705 1.64344 46.0832 1.73301 45.9933C1.96942 45.756 2.20644 45.5193 2.44361 45.2827C2.69261 45.0342 2.94114 44.7853 3.18974 44.5363C3.6068 44.1189 4.02428 43.7019 4.44199 43.2851C4.92431 42.8039 5.40592 42.3219 5.88717 41.8396C6.3015 41.4244 6.71621 41.0095 7.13125 40.595C7.37865 40.3479 7.62593 40.1007 7.87286 39.8531C8.14788 39.5774 8.42369 39.3025 8.69958 39.0277C8.82158 38.9051 8.82158 38.9051 8.94605 38.7801C9.02147 38.7052 9.09689 38.6303 9.17459 38.5532C9.23964 38.4882 9.30468 38.4233 9.37169 38.3563C10.0495 37.7623 10.745 37.6326 11.5541 38.0601Z" fill="#FCB339"/>
<path d="M37.3047 12.5977C38.1076 13.3061 38.6037 14.2797 38.6993 15.345C38.7396 16.7634 38.3105 17.8869 37.3455 18.9133C36.3826 19.8404 35.3135 20.1815 33.9974 20.17C32.9101 20.1278 31.9212 19.7341 31.1523 18.9453C31.1523 18.8809 31.1523 18.8164 31.1523 18.75C31.2801 18.6241 31.2801 18.6241 31.4663 18.4718C32.0623 17.9645 32.6076 17.4065 33.16 16.853C33.2769 16.7361 33.3938 16.6194 33.5107 16.5026C33.754 16.2594 33.9972 16.016 34.2402 15.7725C34.5521 15.4601 34.8644 15.1481 35.1768 14.8363C35.4175 14.596 35.6579 14.3554 35.8983 14.1147C36.0135 13.9995 36.1287 13.8844 36.244 13.7693C36.4043 13.6093 36.5643 13.4489 36.7243 13.2884C36.8154 13.1972 36.9065 13.106 37.0003 13.0121C37.2096 12.8114 37.2096 12.8114 37.3047 12.5977Z" fill="#058FFA"/>
<path d="M15.6251 42.2867C16.0549 42.5095 16.3039 42.7231 16.504 43.1656C16.6441 43.6506 16.5824 44.0659 16.4064 44.5328C16.2433 44.7488 16.0982 44.9178 15.9063 45.1025C15.8555 45.1537 15.8046 45.2049 15.7523 45.2577C15.5854 45.4252 15.4165 45.5905 15.2475 45.7558C15.1303 45.8723 15.0133 45.989 14.8964 46.1057C14.6518 46.3494 14.4063 46.5921 14.16 46.834C13.8445 47.144 13.5308 47.4556 13.2176 47.7679C12.9763 48.0085 12.7344 48.2485 12.4923 48.4882C12.3764 48.603 12.2606 48.7179 12.1449 48.8328C11.9832 48.9932 11.8208 49.1529 11.6583 49.3124C11.6107 49.3597 11.5631 49.4071 11.514 49.4559C11.1158 49.8442 10.8247 50.0295 10.2662 50.0382C9.79661 50.0271 9.53585 49.933 9.17981 49.6109C8.77189 49.1708 8.74391 48.7968 8.7373 48.2224C8.84534 47.6567 9.26757 47.2522 9.66153 46.8547C9.70812 46.8075 9.7547 46.7602 9.8027 46.7116C9.9553 46.5571 10.1086 46.4034 10.262 46.2498C10.3693 46.1419 10.4766 46.0339 10.5839 45.926C10.8082 45.7005 11.0329 45.4754 11.2579 45.2505C11.5452 44.9632 11.8312 44.6746 12.1168 44.3856C12.3377 44.1625 12.5595 43.9403 12.7816 43.7183C12.8874 43.6123 12.9929 43.506 13.098 43.3993C13.2454 43.25 13.394 43.102 13.543 42.9542C13.627 42.8699 13.7111 42.7855 13.7977 42.6987C14.3686 42.2318 14.9117 42.0957 15.6251 42.2867Z" fill="#F57920"/>
<path d="M7.3064 33.7568C7.62402 34.0926 7.80205 34.415 7.82252 34.8852C7.76992 35.6474 7.36835 36.1117 6.83833 36.6427C6.76775 36.7138 6.76775 36.7138 6.69574 36.7864C6.54171 36.9412 6.38697 37.0954 6.23218 37.2496C6.12417 37.3577 6.01619 37.4659 5.90824 37.5741C5.68265 37.7999 5.45672 38.0255 5.23053 38.2507C4.9409 38.5392 4.65215 38.8286 4.36366 39.1183C4.14116 39.3415 3.9182 39.5642 3.6951 39.7868C3.58843 39.8934 3.48191 40 3.37553 40.1069C3.22691 40.256 3.07768 40.4045 2.92827 40.5528C2.80122 40.6796 2.80122 40.6796 2.67161 40.809C2.20989 41.2209 1.84469 41.2526 1.23988 41.2397C0.735029 41.1811 0.487822 40.9255 0.15918 40.5622C-0.0506914 40.1264 -0.0981045 39.7317 0.000488298 39.2561C0.256055 38.8355 0.544533 38.4905 0.889217 38.1406C0.937549 38.0913 0.985881 38.042 1.03568 37.9912C1.19413 37.8299 1.35331 37.6694 1.51263 37.509C1.56733 37.4537 1.62202 37.3985 1.67837 37.3416C1.96747 37.0495 2.25713 36.7581 2.54728 36.4671C2.84589 36.1674 3.14264 35.8659 3.439 35.564C3.66824 35.3311 3.89879 35.0996 4.12971 34.8684C4.23968 34.7578 4.34916 34.6468 4.45813 34.5352C4.61092 34.3791 4.76548 34.2249 4.92059 34.0711C5.00789 33.983 5.09519 33.895 5.18513 33.8044C5.87616 33.2879 6.59026 33.3271 7.3064 33.7568Z" fill="#FDB339"/>
<path d="M11.9141 38.3789C12.1627 38.9358 12.3007 39.3485 12.1094 39.9414C11.7208 40.5831 11.1679 41.106 10.6399 41.6314C10.553 41.7187 10.4661 41.806 10.3765 41.8959C10.1401 42.1332 9.90307 42.3699 9.6659 42.6064C9.4169 42.8549 9.16838 43.1039 8.91978 43.3528C8.50271 43.7702 8.08523 44.1873 7.66752 44.604C7.1852 45.0853 6.70359 45.5672 6.22234 46.0496C5.80801 46.4648 5.3933 46.8796 4.97827 47.2941C4.73086 47.5413 4.48358 47.7885 4.23665 48.0361C3.96164 48.3117 3.68583 48.5866 3.40993 48.8614C3.3286 48.9432 3.24727 49.0249 3.16347 49.1091C3.08805 49.184 3.01263 49.2588 2.93492 49.336C2.86988 49.4009 2.80483 49.4659 2.73782 49.5329C2.3271 49.8928 2.01249 50.042 1.46484 50.0427C1.36615 50.0446 1.26746 50.0465 1.16577 50.0484C0.813128 49.9889 0.659265 49.8377 0.390625 49.6094C1.84895 48.1442 3.3081 46.6799 4.76826 45.2166C5.44618 44.5371 6.12382 43.8574 6.80082 43.1771C7.39072 42.5843 7.98113 41.992 8.57216 41.4003C8.88525 41.0868 9.19807 40.7731 9.51028 40.4587C9.8039 40.1631 10.0982 39.8682 10.393 39.5738C10.5013 39.4654 10.6094 39.3568 10.7172 39.2479C10.864 39.0996 11.0116 38.9524 11.1595 38.8053C11.2421 38.7224 11.3246 38.6396 11.4097 38.5543C11.6211 38.3789 11.6211 38.3789 11.9141 38.3789Z" fill="#F57B22"/>
</g>
<defs>
<clipPath id="clip0_3149_42681">
<rect width="50" height="50" fill="white"/>
</clipPath>
</defs>
</svg>
