<svg width="50" height="50" viewBox="0 0 50 50" fill="none" xmlns="http://www.w3.org/2000/svg">
<path d="M7.42233 3.12617C7.48679 3.12617 7.55124 3.12617 7.61765 3.12617C7.75319 3.34155 7.87856 3.55714 8.00217 3.77924C8.41455 4.49303 8.89187 5.10524 9.44217 5.71673C9.56349 5.8524 9.68187 5.99068 9.80004 6.1291C10.292 6.69827 10.8239 7.16821 11.4262 7.61835C11.8389 7.39825 12.2077 7.15739 12.5798 6.87373C15.0193 5.07832 17.9629 4.0328 20.8989 3.41914C20.979 3.40148 21.0591 3.38383 21.1416 3.36563C23.6475 2.83051 26.7001 2.87907 29.1997 3.41914C29.3402 3.44902 29.3402 3.44902 29.4835 3.4795C32.7553 4.19545 35.8153 5.57676 38.477 7.61835C40.1658 6.69266 41.4936 4.78952 42.3833 3.12617C42.6762 3.22382 42.6762 3.22382 42.7945 3.39205C43.8389 5.49146 44.1598 8.0531 43.4789 10.3173C43.2944 10.8263 43.0921 11.3233 42.8716 11.8176C42.8393 11.9143 42.8071 12.0109 42.7739 12.1105C42.9038 12.3256 42.9038 12.3256 43.0974 12.5561C43.6617 13.3043 44.0989 14.1129 44.5317 14.9426C44.5702 15.0161 44.6086 15.0897 44.6482 15.1654C46.2234 18.2232 46.9203 21.5488 46.906 24.9707C46.9058 25.0614 46.9056 25.1521 46.9053 25.2455C46.9005 26.553 46.8649 27.8216 46.5825 29.1027C46.5526 29.2457 46.5526 29.2457 46.5221 29.3916C45.7458 33.0615 44.1564 36.4148 41.6997 39.259C41.6235 39.3479 41.5474 39.4367 41.4689 39.5283C41.2574 39.7688 41.0411 40.0031 40.8208 40.2355C40.775 40.2839 40.7293 40.3323 40.6822 40.3822C39.9065 41.1972 39.0863 41.9086 38.1841 42.5793C38.1296 42.6207 38.0751 42.6621 38.019 42.7047C37.0855 43.4135 36.0988 43.9931 35.0591 44.5324C34.9494 44.5897 34.9494 44.5897 34.8375 44.6481C31.7793 46.2237 28.4535 46.921 25.031 46.9067C24.9403 46.9065 24.8495 46.9063 24.7561 46.906C23.4481 46.9012 22.1808 46.8638 20.8989 46.5832C20.7598 46.5549 20.7598 46.5549 20.6179 46.526C16.9354 45.7684 13.5878 44.1579 10.7426 41.7004C10.6538 41.6242 10.5649 41.5481 10.4733 41.4696C10.2328 41.2581 9.99851 41.0418 9.76608 40.8215C9.71768 40.7757 9.66928 40.73 9.61941 40.6829C8.80443 39.9072 8.09303 39.087 7.42233 38.1848C7.38095 38.1303 7.33957 38.0758 7.29693 38.0197C6.58814 37.0862 6.00852 36.0995 5.46921 35.0598C5.41197 34.9501 5.41197 34.9501 5.35358 34.8382C3.77789 31.78 3.08064 28.4542 3.09494 25.0317C3.09515 24.941 3.09536 24.8503 3.09558 24.7568C3.10045 23.4493 3.13597 22.1807 3.41843 20.8996C3.43835 20.8043 3.45827 20.709 3.4788 20.6108C4.11627 17.5974 5.30857 14.8614 7.03171 12.3059C7.12839 12.1608 7.12839 12.1608 7.22702 12.0129C7.13207 11.7508 7.13207 11.7508 6.97067 11.4636C5.99201 9.4142 5.8886 6.8337 6.64108 4.68867C6.85494 4.14129 7.09594 3.61576 7.42233 3.12617Z" fill="#E53C28"/>
<path d="M42.3828 3.125C42.6758 3.22266 42.6758 3.22266 42.794 3.39088C43.8385 5.49029 44.1593 8.05193 43.4784 10.3161C43.2939 10.8251 43.0916 11.3221 42.8711 11.8164C42.8389 11.9131 42.8066 12.0098 42.7734 12.1094C42.9033 12.3244 42.9033 12.3244 43.0969 12.5549C43.6613 13.3031 44.0984 14.1117 44.5312 14.9414C44.5697 15.015 44.6081 15.0885 44.6477 15.1643C46.2229 18.222 46.9198 21.5476 46.9055 24.9695C46.9053 25.0602 46.9051 25.1509 46.9049 25.2444C46.9 26.5518 46.8645 27.8204 46.582 29.1016C46.5521 29.2445 46.5521 29.2445 46.5217 29.3904C45.7453 33.0603 44.1559 36.4136 41.6992 39.2578C41.6231 39.3467 41.5469 39.4356 41.4684 39.5271C41.2569 39.7676 41.0407 40.0019 40.8203 40.2344C40.7746 40.2828 40.7288 40.3312 40.6817 40.3811C39.9061 41.196 39.0858 41.9074 38.1836 42.5781C38.1291 42.6195 38.0747 42.6609 38.0186 42.7035C37.085 43.4123 36.0983 43.9919 35.0586 44.5312C34.9489 44.5885 34.9489 44.5885 34.837 44.6469C31.7789 46.2226 28.453 46.9198 25.0305 46.9055C24.9398 46.9053 24.8491 46.9051 24.7556 46.9049C23.4476 46.9 22.1803 46.8626 20.8984 46.582C20.7594 46.5537 20.7594 46.5537 20.6175 46.5248C16.9349 45.7673 13.5873 44.1567 10.7422 41.6992C10.6533 41.6231 10.5644 41.5469 10.4729 41.4684C10.0001 41.0527 9.54874 40.615 9.10034 40.1733C9.04764 40.1219 8.99493 40.0705 8.94063 40.0175C8.58266 39.6603 8.29265 39.2852 8.00781 38.8672C8.3058 39.0004 8.55804 39.173 8.81951 39.3673C13.0233 42.4884 17.8581 43.7305 23.0469 43.6523C23.1738 43.6507 23.3007 43.6491 23.4314 43.6474C28.5614 43.4396 33.4482 41.0046 37.1094 37.5C37.158 37.4541 37.2065 37.4082 37.2566 37.3609C39.0831 35.6277 40.5354 33.4809 41.6199 31.2134C41.6495 31.1524 41.6792 31.0914 41.7098 31.0286C41.8822 30.6638 41.8822 30.6638 41.7969 30.2734C41.6249 30.1533 41.6249 30.1533 41.4074 30.0552C41.3252 30.0156 41.243 29.976 41.1583 29.9351C41.0242 29.873 41.0242 29.873 40.8875 29.8096C40.7957 29.7665 40.7039 29.7234 40.6094 29.6791C39.759 29.2881 38.8918 28.9688 38.0019 28.681C37.8232 28.6231 37.6453 28.5627 37.4676 28.5019C36.5256 28.1908 35.5517 27.9969 34.5811 27.7972C34.3688 27.7533 34.1568 27.708 33.9449 27.6616C33.036 27.4684 32.1317 27.3502 31.2077 27.2578C30.9701 27.234 30.7326 27.209 30.4951 27.1839C28.6854 26.9955 26.8927 26.9331 25.0732 26.9348C24.9116 26.9349 24.9116 26.9349 24.7468 26.9349C23.0642 26.9368 21.4018 26.982 19.7266 27.1484C19.6227 27.1579 19.5189 27.1673 19.4119 27.177C15.6441 27.5225 11.6197 28.3264 8.31642 30.2559C8.10547 30.3711 8.10547 30.3711 7.91016 30.3711C8.51361 28.6217 10.4312 27.1631 11.9141 26.1719C11.9783 26.1281 12.0425 26.0843 12.1086 26.0392C12.3004 25.9096 12.4942 25.7838 12.6892 25.6592C12.7757 25.6012 12.7757 25.6012 12.8639 25.5421C13.3456 25.2465 13.6293 25.2757 14.1602 25.3906C14.3102 25.4369 14.459 25.4873 14.6057 25.5432C15.891 25.9478 17.2712 25.6672 18.457 25.0977C19.405 24.5624 20.0239 23.9171 20.5078 22.9492C22.9423 22.2935 25.9582 22.526 28.4424 22.7539C28.5451 22.7613 28.6478 22.7687 28.7537 22.7763C29.4147 22.8525 29.4147 22.8525 29.6289 23.1199C29.7279 23.3238 29.7279 23.3238 29.8079 23.5351C30.137 24.3931 31.2112 24.9587 32.0034 25.3143C33.2633 25.8323 34.5518 25.8307 35.8398 25.3906C35.9442 25.3447 36.0486 25.2987 36.1561 25.2514C36.699 25.1685 36.9707 25.4001 37.4084 25.7019C37.49 25.7561 37.5715 25.8102 37.6555 25.866C39.3694 27.0191 40.8854 28.3155 41.9922 30.0781C43.5999 28.4704 43.6758 23.9357 43.689 21.8262C43.6703 19.1572 43.1925 16.5665 42.2598 14.0705C42.1559 13.7784 42.073 13.4829 41.9922 13.1836C41.9198 13.2259 41.8474 13.2682 41.7728 13.3118C40.8059 13.8231 39.8217 14.0027 38.7569 13.6757C38.2917 13.458 37.932 13.1863 37.5977 12.793C37.5312 12.7205 37.4647 12.6479 37.3962 12.5732C36.8075 11.7376 36.7099 10.9797 36.8164 9.96094C37.0234 9.08509 37.5472 8.41991 38.2812 7.91016C38.3457 7.91016 38.4102 7.91016 38.4766 7.91016C38.5088 7.81348 38.541 7.7168 38.5742 7.61719C38.7262 7.48545 38.8839 7.36029 39.0442 7.23877C40.4177 6.13712 41.5844 4.69438 42.3828 3.125Z" fill="#D2321E"/>
<path d="M11.0352 32.1289C11.1614 32.2122 11.2875 32.2956 11.4136 32.3792C11.4954 32.4333 11.5772 32.4874 11.6615 32.5432C11.816 32.6482 11.9686 32.7559 12.1178 32.8682C14.7745 34.8536 18.0623 35.6806 21.2891 36.1328C21.3686 36.1444 21.4481 36.156 21.53 36.1679C24.6345 36.6051 28.093 36.4553 31.1313 35.6974C31.3596 35.6416 31.5887 35.5915 31.8184 35.5419C34.3112 34.986 36.6392 33.8606 38.6719 32.3242C38.8169 32.2275 38.8169 32.2275 38.9648 32.1289C38.6845 34.4996 36.0102 37.0298 34.2709 38.4235C31.6187 40.4488 28.4189 41.4373 25.1099 41.4429C25.0097 41.4432 25.0097 41.4432 24.9074 41.4435C23.6034 41.443 22.2996 41.3424 21.0388 40.9912C20.9611 40.97 20.8835 40.9487 20.8035 40.9268C18.9853 40.4135 17.1988 39.5649 15.7227 38.3789C15.6362 38.3121 15.5497 38.2452 15.4606 38.1763C13.7237 36.8041 12.4417 35.1621 11.4258 33.2031C11.3708 33.0996 11.3708 33.0996 11.3148 32.9941C11.2789 32.9251 11.243 32.8561 11.2061 32.785C11.1733 32.7225 11.1406 32.66 11.1069 32.5956C11.0352 32.4219 11.0352 32.4219 11.0352 32.1289Z" fill="#FEFDFD"/>
<path d="M28.4424 22.7534C28.5451 22.7607 28.6478 22.7681 28.7537 22.7757C29.4147 22.852 29.4147 22.852 29.6289 23.1193C29.7279 23.3233 29.7279 23.3233 29.8079 23.5345C30.137 24.3925 31.2112 24.9581 32.0034 25.3138C33.2633 25.8318 34.5518 25.8302 35.8398 25.3901C35.9442 25.3441 36.0486 25.2982 36.1561 25.2508C36.699 25.168 36.9707 25.3996 37.4084 25.7014C37.49 25.7555 37.5715 25.8097 37.6555 25.8654C39.3359 26.996 40.9622 28.301 41.9922 30.0776C41.9922 30.142 41.9922 30.2065 41.9922 30.2729C41.5974 30.1525 41.2336 30.0001 40.8637 29.8173C39.9372 29.3596 38.989 29.0063 38.0082 28.6836C37.827 28.6239 37.6465 28.5625 37.466 28.5006C36.5243 28.1904 35.5512 27.9963 34.5811 27.7967C34.3688 27.7528 34.1568 27.7074 33.9449 27.6611C33.036 27.4678 32.1317 27.3496 31.2077 27.2572C30.9701 27.2334 30.7326 27.2085 30.4951 27.1834C28.6854 26.995 26.8927 26.9326 25.0732 26.9343C24.9116 26.9343 24.9116 26.9343 24.7468 26.9344C23.0642 26.9363 21.4018 26.9814 19.7266 27.1479C19.6227 27.1573 19.5189 27.1667 19.4119 27.1765C15.6441 27.522 11.6197 28.3258 8.31642 30.2553C8.10547 30.3706 8.10547 30.3706 7.91016 30.3706C8.51361 28.6212 10.4312 27.1625 11.9141 26.1713C11.9783 26.1275 12.0425 26.0838 12.1086 26.0386C12.3004 25.9091 12.4942 25.7833 12.6892 25.6586C12.7757 25.6007 12.7757 25.6007 12.8639 25.5416C13.3456 25.2459 13.6293 25.2752 14.1602 25.3901C14.3102 25.4364 14.459 25.4868 14.6057 25.5427C15.891 25.9473 17.2712 25.6667 18.457 25.0971C19.405 24.5619 20.0239 23.9166 20.5078 22.9487C22.9423 22.293 25.9582 22.5255 28.4424 22.7534Z" fill="#D2321E"/>
<path d="M7.33621 3C7.40804 3 7.47987 3 7.55388 3C7.70493 3.21538 7.84465 3.43097 7.98241 3.65308C8.44211 4.36705 8.97423 4.97934 9.58769 5.59099C9.72152 5.72533 9.852 5.86233 9.98221 5.9995C10.4987 6.53664 11.0526 6.98058 11.6798 7.41284C11.7548 7.47125 11.8299 7.52966 11.9072 7.58984C11.9072 7.6543 11.9072 7.71875 11.9072 7.78516C11.9715 7.8126 12.0357 7.84004 12.1019 7.86832C12.9699 8.27288 13.4611 8.90803 13.7574 9.73828C13.9272 10.7629 13.7654 11.5998 13.1044 12.4727C12.8255 12.7656 12.8255 12.7656 12.5602 12.9609C12.4749 13.0294 12.3896 13.0979 12.3017 13.1685C11.6696 13.5736 11.1118 13.6995 10.3495 13.6934C10.2683 13.6928 10.1871 13.6922 10.1034 13.6917C9.21509 13.666 8.58583 13.3939 7.92119 12.8694C6.14167 11.122 5.94422 8.80534 6.01071 6.55463C6.08495 5.29096 6.55318 4.05393 7.33621 3Z" fill="#454545"/>
<path d="M42.4402 2.96784C42.7512 3.06074 42.7512 3.06074 42.8787 3.22703C44.0129 5.30669 44.399 7.87183 43.7055 10.143C43.6665 10.2512 43.6274 10.3593 43.5872 10.4707C43.5317 10.6298 43.5317 10.6298 43.4752 10.7921C43.0478 11.9047 42.3628 12.9318 41.2363 13.5012C40.8239 13.667 40.4368 13.6968 39.9925 13.7C39.8772 13.7011 39.8772 13.7011 39.7596 13.7023C38.9422 13.691 38.378 13.4491 37.7559 12.9529C37.6455 12.8337 37.6455 12.8337 37.5329 12.7122C37.4615 12.6407 37.3902 12.5693 37.3167 12.4957C36.6819 11.6697 36.5671 10.9135 36.6641 9.89312C36.8694 9.01403 37.4125 8.34044 38.1802 7.81886C38.2483 7.81781 38.3164 7.81677 38.3866 7.81569C38.4192 7.7185 38.4517 7.62131 38.4853 7.52118C38.6438 7.38699 38.8085 7.25929 38.976 7.13519C40.4102 6.01142 41.6207 4.54997 42.4402 2.96784Z" fill="#454545"/>
<path d="M11.426 17.9688C11.798 18.1078 12.1334 18.2792 12.4777 18.4769C12.5874 18.5397 12.6972 18.6025 12.8102 18.6672C12.9286 18.7355 13.0471 18.8038 13.1655 18.8721C13.2888 18.9428 13.412 19.0136 13.5353 19.0843C14.3978 19.5798 15.2577 20.0797 16.1161 20.5821C16.9625 21.0773 17.8119 21.5673 18.6621 22.0558C19.2815 22.4122 19.8968 22.7744 20.508 23.1445C19.9193 24.3755 18.8324 25.1221 17.5829 25.5981C16.245 25.9824 14.8084 25.8902 13.5771 25.2365C13.3059 25.0708 13.049 24.8956 12.7932 24.707C12.7218 24.6548 12.6504 24.6025 12.5769 24.5487C12.0218 24.1044 11.6645 23.571 11.3283 22.9492C11.2785 22.8593 11.2286 22.7695 11.1773 22.6768C10.6718 21.6006 10.609 20.153 10.9473 19.0136C11.0597 18.7189 11.1799 18.442 11.3283 18.1641C11.3606 18.0996 11.3928 18.0352 11.426 17.9688Z" fill="#F4D83B"/>
<path d="M38.5742 17.9688C38.6356 18.1029 38.6966 18.2372 38.7573 18.3716C38.7913 18.4464 38.8253 18.5211 38.8603 18.5982C39.359 19.7885 39.3387 21.2704 38.8927 22.4815C38.2543 23.8928 37.3116 24.9029 35.8582 25.4761C34.5744 25.9483 33.1871 25.956 31.9336 25.3906C31.8568 25.3564 31.78 25.3221 31.7009 25.2869C30.7847 24.8272 30.0583 24.0867 29.4922 23.2422C29.8126 22.976 30.1327 22.7508 30.4943 22.5445C30.6441 22.4586 30.6441 22.4586 30.797 22.3709C30.9042 22.31 31.0114 22.2491 31.1218 22.1863C31.2353 22.1213 31.3488 22.0564 31.4623 21.9913C31.6978 21.8564 31.9334 21.7217 32.1691 21.5871C32.7101 21.278 33.2495 20.966 33.7891 20.6543C34.3857 20.3099 34.9824 19.9656 35.5797 19.6222C35.7537 19.5222 35.9276 19.4221 36.1015 19.322C36.3194 19.1966 36.5374 19.0714 36.7554 18.9463C37.1916 18.6951 37.6246 18.4424 38.0486 18.1709C38.3789 17.9688 38.3789 17.9688 38.5742 17.9688Z" fill="#F4D83B"/>
</svg>
