<svg width="50" height="50" viewBox="0 0 50 50" fill="none" xmlns="http://www.w3.org/2000/svg">
<path d="M39.2425 3.63392C41.275 5.11599 41.6055 8.08411 41.9708 10.4174C41.9851 10.5115 41.9994 10.6055 42.0142 10.7024C42.0282 10.7923 42.0423 10.8823 42.0568 10.9749C42.7852 15.8574 42.232 21.0002 40.6391 25.6558C40.7171 25.6611 40.7951 25.6664 40.8754 25.6719C42.292 25.8828 43.6124 26.9341 44.4742 28.0298C45.1049 28.9048 45.5365 29.8521 45.7956 30.898C45.8108 30.9574 45.8259 31.0167 45.8416 31.0778C45.9917 31.7282 46.0005 32.3704 45.9997 33.0358C45.9997 33.0944 45.9996 33.1529 45.9996 33.2133C45.9965 34.221 45.8971 35.1681 45.6237 36.1403C45.5946 36.2483 45.5654 36.3563 45.5354 36.4676C45.1527 37.7329 44.5718 39.063 43.733 40.0935C43.2281 39.9324 43.2281 39.9324 43.1314 39.8357C43.1159 39.698 43.1056 39.5597 43.0975 39.4214C42.9727 37.5226 42.6236 35.7195 41.3266 34.2497C41.2746 34.1807 41.2225 34.1118 41.1688 34.0408C40.4789 33.2214 39.4131 32.6092 38.4046 32.2731C38.4076 32.3872 38.4076 32.3872 38.4107 32.5037C38.467 36.3697 36.8123 39.7168 34.1512 42.4571C33.817 42.7888 33.452 43.0764 33.0763 43.3592C33.0318 43.3934 32.9873 43.4276 32.9415 43.4628C30.6275 45.2341 27.9962 46.0327 25.0837 45.8514C24.4927 45.7716 23.9296 45.6099 23.3649 45.4217C23.3337 45.1891 23.3337 45.1891 23.3649 44.9061C23.5814 44.6956 23.5814 44.6956 23.8644 44.5032C24.2818 44.2153 24.2818 44.2153 24.654 43.8748C24.6114 43.8946 24.5688 43.9145 24.5249 43.9349C21.6412 45.2703 18.6895 46.2178 15.5496 46.7323C15.4705 46.7453 15.3914 46.7583 15.3099 46.7716C15.0446 46.8126 14.7792 46.8486 14.5129 46.8827C14.4547 46.8902 14.3964 46.8977 14.3364 46.9055C13.1674 47.0518 12.008 47.0814 10.8306 47.077C10.5373 47.076 10.244 47.077 9.95067 47.078C6.38832 47.0805 6.38832 47.0805 5.0594 45.7655C4.09625 44.636 3.91978 43.4188 4.02811 41.9842C4.15303 41.3406 4.42022 40.7945 4.80158 40.2654C4.84944 40.1927 4.89729 40.12 4.9466 40.0452C5.93633 39.002 7.37774 38.7121 8.71346 38.3461C12.7349 37.2361 16.6874 35.2715 19.9021 32.595C20.0991 32.4449 20.0991 32.4449 20.271 32.4449C20.2856 32.3959 20.3003 32.3468 20.3153 32.2962C20.3362 32.2265 20.357 32.1569 20.3784 32.0851C20.4018 32.0066 20.4252 31.9282 20.4493 31.8474C20.5035 31.6688 20.5593 31.4907 20.6165 31.313C21.0922 29.8233 21.3816 28.0767 20.7007 26.6011C20.3523 25.9304 19.9269 25.5128 19.2182 25.2476C17.5456 24.7531 15.8976 25.3834 14.4261 26.1713C13.0216 26.9481 11.8247 27.9897 10.6886 29.1148C10.632 29.1706 10.5754 29.2264 10.5171 29.2839C10.1494 29.6539 9.83022 30.0431 9.52835 30.4683C9.01032 30.4274 8.60304 30.1936 8.15329 29.9527C8.48026 27.6054 9.70846 25.445 11.2472 23.6792C11.3185 23.5963 11.3899 23.5134 11.4634 23.4281C12.3732 22.3912 13.408 21.5376 14.5989 20.8432C14.6537 20.8107 14.7084 20.7783 14.7649 20.7449C16.9939 19.4407 19.6454 18.8213 22.1876 19.4715C24.0218 19.9863 25.5183 21.1719 26.459 22.8279C26.6579 23.2079 26.809 23.6058 26.958 24.0075C27.0386 24.2228 27.1241 24.4222 27.2323 24.6245C28.0358 23.4088 28.7464 22.1553 29.3825 20.8442C29.4658 20.6732 29.5505 20.5029 29.6353 20.3326C31.4606 16.616 32.4479 12.4061 32.6828 8.282C32.6893 8.17269 32.6959 8.06338 32.7026 7.95075C32.715 7.73614 32.7262 7.52146 32.7359 7.30671C32.8058 6.08492 33.1275 4.92916 34.0324 4.06361C35.4855 2.85311 37.6226 2.62902 39.2425 3.63392Z" fill="#FFE983"/>
<path d="M34.4516 26.0845C34.5361 26.1268 34.6206 26.1691 34.7077 26.2127C36.313 27.0807 37.4017 28.559 38.0101 30.2609C38.0643 30.4803 38.0707 30.6719 38.0611 30.897C38.1178 30.897 38.1746 30.897 38.233 30.897C38.2574 30.8338 38.2819 30.7707 38.307 30.7056C38.3939 30.4941 38.489 30.2955 38.5952 30.0934C39.2025 28.9195 39.715 27.7217 40.2009 26.493C40.3136 26.2113 40.4318 25.9327 40.5534 25.6548C41.9035 25.7326 43.1617 26.592 44.077 27.5454C44.9221 28.5264 45.4849 29.6417 45.7958 30.897C45.811 30.9564 45.8262 31.0157 45.8418 31.0768C45.992 31.7272 46.0008 32.3694 45.9999 33.0348C45.9999 33.0934 45.9999 33.1519 45.9999 33.2123C45.9968 34.22 45.8974 35.1671 45.6239 36.1393C45.5948 36.2473 45.5657 36.3553 45.5357 36.4666C45.1529 37.7319 44.5721 39.062 43.7332 40.0925C43.2283 39.9314 43.2283 39.9314 43.1317 39.8347C43.1162 39.697 43.1059 39.5587 43.0977 39.4204C42.973 37.5216 42.6239 35.7185 41.3269 34.2487C41.2488 34.1453 41.2488 34.1453 41.1691 34.0398C40.4792 33.2204 39.4134 32.6082 38.4049 32.2721C38.4069 32.3482 38.4089 32.4243 38.4109 32.5027C38.4672 36.3687 36.8126 39.7158 34.1515 42.4561C33.8172 42.7878 33.4523 43.0754 33.0765 43.3582C33.032 43.3924 32.9876 43.4266 32.9417 43.4618C30.6278 45.2331 27.9965 46.0317 25.084 45.8504C24.493 45.7706 23.9299 45.609 23.3652 45.4207C23.3366 45.1861 23.3366 45.1861 23.3652 44.9051C23.5575 44.7127 23.5575 44.7127 23.8217 44.5345C23.9169 44.4681 24.0119 44.4015 24.1067 44.3347C24.1552 44.3012 24.2036 44.2677 24.2535 44.2332C24.6329 43.9636 24.9849 43.6565 25.3418 43.3582C25.4027 43.309 25.4637 43.2598 25.5264 43.2091C27.7005 41.4046 29.2775 38.2005 29.618 35.4269C29.8305 33.0581 29.6029 30.7661 28.0718 28.8523C27.8842 28.6385 27.6914 28.434 27.4903 28.2329C27.4357 28.1783 27.3811 28.1237 27.3248 28.0674C26.9165 27.6861 26.4633 27.4222 25.9729 27.157C25.9065 27.115 25.84 27.073 25.7715 27.0298C25.7715 26.9731 25.7715 26.9163 25.7715 26.8579C28.4293 25.4994 31.6162 24.6492 34.4516 26.0845Z" fill="#FFE984"/>
<path d="M29.3813 31.8438C29.438 31.8438 29.4948 31.8438 29.5532 31.8438C30.2064 34.824 29.428 38.0015 27.8021 40.5451C26.7731 42.1069 25.687 43.4367 23.9455 44.2082C23.8633 44.245 23.7811 44.2817 23.6964 44.3196C21.0781 45.4763 18.3743 46.2699 15.5501 46.7327C15.471 46.7457 15.3919 46.7586 15.3104 46.772C15.0452 46.813 14.7797 46.849 14.5135 46.8831C14.4552 46.8906 14.3969 46.8981 14.3369 46.9059C13.1679 47.0522 12.0085 47.0818 10.8312 47.0773C10.5378 47.0764 10.2445 47.0773 9.95119 47.0784C6.38885 47.0809 6.38885 47.0809 5.05992 45.7659C4.36414 44.9499 4.01102 44.0602 4.02326 42.9943C4.02364 42.9303 4.02403 42.8663 4.02443 42.8003C4.02544 42.643 4.02698 42.4856 4.02863 42.3283C4.19409 42.3257 4.19409 42.3257 4.36289 42.3231C4.78145 42.3165 5.19998 42.3089 5.61852 42.301C5.79792 42.2978 5.97733 42.2948 6.15675 42.292C7.89181 42.2653 9.58714 42.1322 11.296 41.8288C11.393 41.8118 11.393 41.8118 11.4919 41.7945C17.2228 40.7878 22.6576 38.1601 26.975 34.25C27.0234 34.2064 27.0719 34.1628 27.1219 34.1178C27.647 33.6441 28.1598 33.1587 28.6616 32.6602C28.7043 32.6178 28.747 32.5755 28.791 32.5319C28.9649 32.3573 29.1251 32.1853 29.2705 31.9861C29.3071 31.9391 29.3436 31.8921 29.3813 31.8438Z" fill="#FFAB15"/>
<path d="M25.5996 27.0273C26.6388 27.1423 27.5296 28.0576 28.1778 28.8321C28.7009 29.512 29.1016 30.2547 29.381 31.0665C29.407 31.1394 29.4331 31.2123 29.4599 31.2874C29.5724 31.6642 29.5724 31.6642 29.5529 31.8399C29.4156 31.9974 29.277 32.1292 29.1232 32.2696C28.9914 32.4013 28.8602 32.5337 28.7294 32.6664C28.5796 32.817 28.4297 32.9677 28.2799 33.1183C28.2056 33.1933 28.1313 33.2683 28.0548 33.3455C27.623 33.779 27.1826 34.1934 26.7168 34.59C26.632 34.6646 26.5471 34.7393 26.4597 34.8162C25.3046 35.8148 24.0479 36.688 22.7635 37.5119C22.6715 37.5712 22.5794 37.6304 22.4845 37.6915C20.824 38.7224 19.0628 39.6027 17.2253 40.2673C17.0191 40.3429 16.815 40.4224 16.611 40.504C14.8812 41.1868 13.0707 41.6119 11.242 41.927C11.1822 41.9374 11.1224 41.9479 11.0608 41.9586C9.33843 42.2553 7.63838 42.3499 5.89217 42.3352C5.70994 42.3343 5.52771 42.3336 5.34547 42.3329C4.90641 42.331 4.46737 42.3281 4.02832 42.3245C4.14998 41.2741 4.52872 40.3874 5.32684 39.6691C6.30046 38.9209 7.55223 38.6609 8.71367 38.3427C12.7414 37.231 16.6504 35.2614 19.8862 32.6077C20.0993 32.4415 20.0993 32.4415 20.3071 32.3193C20.5851 32.1494 20.8263 31.9454 21.0716 31.7325C21.1236 31.6875 21.1756 31.6425 21.2292 31.5961C22.6831 30.3285 24.0655 28.9785 25.2558 27.457C25.3703 27.3137 25.4849 27.1705 25.5996 27.0273Z" fill="#FFDB40"/>
<path d="M36.6857 3.05331C37.9288 2.98113 38.8231 3.2839 39.7869 4.05637C41.4255 5.52539 41.7021 8.64916 42.014 10.7019C42.0351 10.8368 42.0351 10.8368 42.0567 10.9744C42.792 15.9035 42.3366 21.4424 40.4542 26.0764C40.3723 26.2787 40.2928 26.4819 40.2133 26.6852C39.6442 28.1229 39.0216 29.5651 38.2326 30.8975C38.1759 30.8975 38.1192 30.8975 38.0607 30.8975C38.0429 30.8308 38.0251 30.7641 38.0067 30.6954C37.7139 29.6687 37.2965 28.7112 36.5997 27.8897C36.5517 27.8283 36.5036 27.7669 36.454 27.7037C35.7377 26.8315 34.7777 26.293 33.7637 25.8271C33.8859 25.3987 34.0757 25.017 34.2737 24.6201C34.8855 23.3916 35.3747 22.1375 35.8263 20.8427C35.8526 20.7685 35.879 20.6944 35.9061 20.6181C36.4645 19.0469 36.8142 17.4521 37.0812 15.808C37.1219 15.561 37.1673 15.3149 37.2121 15.0686C37.4428 13.6269 37.4939 12.1867 37.4914 10.7287C37.4914 10.6331 37.4913 10.5374 37.4913 10.4389C37.4869 8.10383 37.2096 5.8815 36.7197 3.59619C36.6857 3.39706 36.6857 3.39706 36.6857 3.05331Z" fill="#FFDC40"/>
<path d="M32.786 25.5099C32.8767 25.5251 32.8767 25.5251 32.9692 25.5406C33.2904 25.6028 33.4607 25.6715 33.6776 25.9128C32.5269 27.9905 31.1952 29.8767 29.6384 31.6707C29.3624 31.5327 29.3351 31.2396 29.2409 30.9617C28.8603 29.9013 28.2893 29.0326 27.4898 28.2331C27.4352 28.1785 27.3806 28.1239 27.3243 28.0676C26.9159 27.6863 26.4628 27.4224 25.9724 27.1572C25.906 27.1152 25.8395 27.0732 25.771 27.03C25.771 26.9733 25.771 26.9165 25.771 26.8581C28.0179 25.7096 30.2401 25.0722 32.786 25.5099Z" fill="#FFF2BF"/>
<path d="M5.57474 39.4922C5.63147 39.5205 5.68819 39.5489 5.74663 39.5781C5.4063 39.9184 5.06597 40.2588 4.71533 40.6094C4.71533 40.2512 4.90773 40.0816 5.14504 39.8359C5.28519 39.7176 5.4275 39.6016 5.57474 39.4922Z" fill="#FFDF51"/>
</svg>
