<svg width="735" height="735" viewBox="0 0 735 735" fill="none" xmlns="http://www.w3.org/2000/svg">
<path d="M402 2C404 3 404 3 405.046 5.53638C405.607 7.24507 405.607 7.24507 406.179 8.98828C406.493 9.9379 406.493 9.9379 406.812 10.9067C407.51 13.0388 408.193 15.1751 408.875 17.3125C409.113 18.0544 409.352 18.7963 409.597 19.5607C427.761 76.2576 442.596 135.075 441 195C445.536 171.825 445.978 146.301 442 123C441.798 121.806 441.798 121.806 441.593 120.588C439.193 106.759 436.4 92.7235 428.918 80.6367C428 79 428 79 428 77C451.944 88.0387 468.379 125.168 477.074 148.402C487.203 176.762 488.913 206.8 477 235C477.969 234.364 477.969 234.364 478.957 233.715C497.349 222.267 517.9 218.531 538.898 214.435C559.138 210.475 577.199 204.332 591 188C591.544 187.076 592.088 186.151 592.648 185.199C593.094 184.473 593.54 183.748 594 183C594.66 183 595.32 183 596 183C594.06 189.215 591.722 195.085 589 201C591.97 197.7 594.94 194.4 598 191C598.66 191.33 599.32 191.66 600 192C599.563 192.986 599.563 192.986 599.117 193.992C596.524 200.009 594.304 206.014 592.312 212.25C586.757 229.405 579.532 246.117 571 262C570.683 262.594 570.367 263.189 570.041 263.801C560.521 281.527 548.369 296.002 534 310C555.275 299.072 579.643 284.606 593 264C593.66 263.01 594.32 262.02 595 261C595.66 261 596.32 261 597 261C591.222 288.978 582.114 322.289 560 342C586.177 329.771 610.66 307.66 621.222 280.168C621.479 279.453 621.735 278.737 622 278C622.66 278 623.32 278 624 278C619.868 309.45 606.697 337.004 585 360C583.915 361.199 583.915 361.199 582.808 362.422C564.302 382.087 538.297 394.6 512.457 401.309C510.074 401.763 510.074 401.763 509 403C510.004 403.461 511.008 403.923 512.043 404.398C525.969 410.967 542.554 420.052 548.238 435.328C548.489 436.21 548.741 437.092 549 438C545.611 436.746 542.772 435.316 539.812 433.25C539.027 432.72 538.242 432.19 537.433 431.645C535.861 430.582 534.291 429.517 532.722 428.449C523.221 422.331 512.301 418.595 501 418C501.87 418.584 501.87 418.584 502.758 419.18C512.09 425.863 516.383 433.544 518.594 444.77C519.7 453.568 518.039 462.089 514 470C511.863 472.316 511.863 472.316 510 474C510.035 472.984 510.069 471.968 510.105 470.922C510.354 460.439 510.219 449.944 504 441C502.409 439.633 502.409 439.633 500.625 438.75C500.06 438.435 499.496 438.121 498.914 437.797C490.091 434.124 480.392 435.825 471.531 438.344C469 439 469 439 466 439C466.445 439.447 466.889 439.895 467.347 440.355C467.913 440.96 468.479 441.565 469.062 442.188C469.915 443.075 469.915 443.075 470.785 443.98C472 446 472 446 471.918 448.273C470.712 451.854 469.014 455.111 467.25 458.438C463.944 464.838 461.331 471.177 459.023 478.008C458.21 480.384 457.339 482.65 456.312 484.938C453.678 491.083 452.553 497.15 451.894 503.746C451.81 504.572 451.727 505.398 451.64 506.25C450.797 515.186 450.642 524.092 450.687 533.062C450.69 533.907 450.694 534.751 450.697 535.62C450.823 558.844 453.697 579.545 460.73 601.715C465.028 615.302 468.096 629.151 470.781 643.137C471.011 644.333 471.011 644.333 471.246 645.554C472.002 649.505 472.744 653.459 473.465 657.417C476.244 673.709 476.244 673.709 484 688C490.077 691.038 499.394 689.004 505.937 688.25C507.163 688.111 508.389 687.972 509.652 687.828C513.382 686.906 515.167 685.532 518 683C526.112 679.473 533.983 680.89 542 684C549.125 687.921 556.291 693.583 560 701C560.522 705.361 560.545 708.91 558.562 712.875C554.951 715.87 551.503 716.852 547 718C545.93 718.303 544.86 718.606 543.758 718.918C534.739 721.218 526.81 721.253 517.91 718.309C515.293 717.886 513.921 718.655 511.562 719.812C499.403 725.67 487.193 726.236 474 723C469.102 720.816 464.531 718.101 461 714C461 713.34 461 712.68 461 712C460.01 711.67 459.02 711.34 458 711C446.839 698.817 442.681 681.606 439 666C438.257 666.804 437.515 667.609 436.75 668.438C434.247 670.77 433.282 671.635 430 672C430.205 672.846 430.41 673.691 430.621 674.562C430.89 675.697 431.16 676.831 431.437 678C431.838 679.671 431.838 679.671 432.246 681.375C433.834 689.013 434.208 696.408 434.25 704.188C434.281 705.644 434.281 705.644 434.312 707.131C434.362 716.133 434.362 716.133 431 720C425.584 724.472 418.728 727.139 412.312 729.875C411.6 730.186 410.888 730.496 410.154 730.816C402.217 734.076 396.216 733.118 388.375 730.188C387.637 729.926 386.9 729.665 386.14 729.396C375.921 725.688 375.921 725.688 373.554 721.352C372.703 716.206 374.307 712.004 375.832 707.102C376.567 704.644 376.567 704.644 377 701C375.306 698.598 375.306 698.598 373 697C371.474 693.339 371 691.005 371 687C370.01 687 369.02 687 368 687C367.939 688.232 367.879 689.465 367.816 690.734C367.359 699.838 366.851 708.923 366 718C345.418 728.659 313.199 729.384 291 724C288.582 722.426 288.582 722.426 287 721C288.283 715.669 290.77 712.807 294.812 709.312C295.334 708.84 295.855 708.368 296.392 707.881C304.122 701 304.122 701 308 701C305.859 695.87 303.51 690.896 301 685.938C300.485 684.916 300.485 684.916 299.961 683.873C299.288 682.536 298.611 681.201 297.931 679.868C297.089 678.178 296.308 676.457 295.535 674.734C293.84 671.715 292.247 670.298 289.437 668.312C286.552 666.251 284.999 664.999 283 662C282.781 662.834 282.562 663.668 282.336 664.527C278.646 677.623 273.355 685.346 261.679 692.402C246.304 700.331 225.055 702.227 208 702C207.915 702.862 207.915 702.862 207.828 703.742C206.626 707.018 204.576 708.138 201.75 710.125C200.796 710.808 199.842 711.491 198.859 712.195C190.43 717.515 177.646 719.204 167.812 717.5C163.371 716.107 159.741 713.793 157 710C155.261 705.366 155.527 701.317 157.5 696.812C162.21 688.71 170.765 683.975 179.312 680.75C183.411 679.916 187.371 679.667 191.547 679.539C194.715 679.044 197.153 678.257 200.129 677.117C206.056 674.871 211.965 673.636 218.187 672.5C220.384 672.078 222.581 671.654 224.777 671.227C226.366 670.918 226.366 670.918 227.988 670.603C232.098 669.78 236.178 668.87 240.25 667.875C241.451 667.584 242.653 667.292 243.89 666.992C247.91 665.71 251.019 664.589 253.293 660.906C253.736 659.715 253.736 659.715 254.187 658.5C254.49 657.727 254.793 656.953 255.105 656.156C257.911 646.256 258.287 636.771 258.206 626.558C258.187 624.202 258.185 621.846 258.185 619.49C258.176 614.992 258.106 610.497 258 606C257.979 604.978 257.979 604.978 257.958 603.935C257.898 594.237 257.898 594.237 252.875 586.312C248.165 581.221 244.478 575.996 241 570C240.638 569.386 240.275 568.773 239.902 568.141C237.267 562.993 237.013 557.594 238 552C241.264 543.368 246.222 536.118 254 531C256.269 530.297 256.269 530.297 258 530C257.381 528.928 256.762 527.855 256.125 526.75C248.889 512.125 251.576 494.327 255 479C255.337 478.087 255.675 477.175 256.022 476.234C257.138 472.543 257.351 469.293 257.492 465.441C257.558 463.989 257.624 462.536 257.691 461.084C257.786 458.822 257.875 456.56 257.953 454.298C258.033 452.095 258.136 449.893 258.242 447.691C258.317 445.73 258.317 445.73 258.394 443.729C259.119 439.267 260.564 436.767 263 433C261.837 431.809 260.669 430.622 259.5 429.438C258.85 428.776 258.2 428.115 257.531 427.434C255.503 425.484 253.447 423.645 251.316 421.812C246.476 417.607 241.959 413.105 237.437 408.562C236.626 407.755 235.814 406.947 234.978 406.115C230.652 401.782 226.482 397.374 222.49 392.731C220.626 390.566 218.688 388.474 216.75 386.375C211.163 380.173 206.066 373.628 201 367C200.548 366.416 200.097 365.832 199.632 365.231C176.945 335.791 158.859 300.398 163.5 262.125C163.747 260.578 163.747 260.578 164 259C164.33 259 164.66 259 165 259C165.105 259.589 165.211 260.178 165.319 260.785C165.81 263.504 166.311 266.221 166.812 268.938C166.978 269.864 167.144 270.79 167.314 271.744C168.421 277.694 169.916 283.317 172 289C171.984 288.074 171.968 287.147 171.952 286.193C171.9 282.685 171.863 279.178 171.835 275.67C171.82 274.165 171.8 272.66 171.773 271.155C171.552 258.143 172.653 245.783 178.25 233.812C178.554 233.145 178.857 232.478 179.17 231.791C186.049 217.05 195.478 206.048 209 197C209 200.649 208.203 201.302 206 204.125C194.684 219.916 189.714 237.115 189.562 256.375C189.552 257.469 189.542 258.562 189.531 259.689C189.607 266.594 190.616 272.515 193 279C193.33 279 193.66 279 194 279C193.758 278.24 193.758 278.24 193.512 277.465C189.705 259.13 195.413 240.678 205.293 225.332C216.197 209.225 230.068 194.415 245 182C245.531 181.555 246.063 181.109 246.611 180.65C261.677 168.063 277.556 156.71 294 146C295.09 145.283 296.181 144.567 297.304 143.828C304.74 139 304.74 139 307 139C305.555 142.376 303.755 144.344 301.062 146.812C275.951 171.441 261.796 205.977 256 240C256.461 239.007 256.923 238.015 257.398 236.992C258.056 235.619 258.715 234.247 259.375 232.875C259.673 232.229 259.97 231.583 260.277 230.918C266.803 217.483 276.539 206.873 287.125 196.562C288.265 195.434 289.404 194.304 290.543 193.174C296.198 187.581 301.943 182.16 308 177C309.67 175.504 311.338 174.005 313 172.5C315.937 169.849 318.886 167.217 321.875 164.625C335.89 152.376 349.572 139.744 361 125C361.809 123.996 362.619 122.992 363.453 121.957C379.741 101.589 391.882 77.3764 397.352 51.8801C397.634 50.584 397.634 50.584 397.922 49.2617C398.082 48.4879 398.243 47.714 398.409 46.9167C399 45 399 45 401 43C401.33 45.31 401.66 47.62 402 50C402.66 50 403.32 50 404 50C404.522 37.8968 403.328 26.0423 401.979 14.0347C401.84 12.7677 401.701 11.5007 401.558 10.1953C401.427 9.05079 401.297 7.90626 401.162 6.72705C401 4 401 4 402 2ZM254 247C253.85 254.057 253.85 254.057 255 261C255.33 261 255.66 261 256 261C256 256.71 256 252.42 256 248C255.34 247.67 254.68 247.34 254 247ZM531 311C530.67 311.66 530.34 312.32 530 313C530.99 312.67 531.98 312.34 533 312C532.34 311.67 531.68 311.34 531 311Z" fill="#151415"/>
<path d="M409 45C409.66 45 410.32 45 411 45C411.273 46.3419 411.273 46.3419 411.551 47.7109C411.928 49.5246 411.928 49.5246 412.312 51.375C412.556 52.5584 412.8 53.7417 413.051 54.9609C413.718 57.9858 414.568 60.9176 415.488 63.875C416.979 68.7472 417.986 73.6128 418.875 78.625C420.358 86.689 421.945 94.7247 423.625 102.75C423.831 103.737 424.037 104.724 424.25 105.741C425.328 110.934 425.328 110.934 426.505 116.106C428.381 123.954 429.423 131.948 430.5 139.938C430.61 140.753 430.72 141.568 430.834 142.408C432.639 156.018 433.699 169.599 434.312 183.312C434.352 184.178 434.391 185.043 434.431 185.935C434.927 197.294 435.091 208.632 435 220C435.66 220 436.32 220 437 220C437.248 219.175 437.495 218.35 437.75 217.5C438.678 214.902 439.593 212.816 440.883 210.426C454.136 184.166 455.647 143.874 448 116C446.814 112.647 445.531 109.453 443.988 106.25C443 104 443 104 443 101C446 102 446 102 447.75 105.312C448.092 106.045 448.433 106.777 448.785 107.531C450.112 110.227 451.626 112.745 453.188 115.312C461.073 128.748 467.567 143.058 472 158C472.364 159.227 472.364 159.227 472.735 160.478C478.54 180.808 479.528 201.741 473 222C472.78 222.7 472.561 223.401 472.334 224.122C468.683 235.592 463.995 246.569 458.293 257.176C456.722 260.088 456.722 260.088 457 264C457.557 263.215 458.114 262.43 458.688 261.621C477.552 235.65 506.335 227.503 536.688 222.5C537.898 222.311 539.109 222.121 540.357 221.926C550.953 220.209 561.276 217.806 570.812 212.75C571.809 212.229 572.805 211.708 573.832 211.172C574.547 210.785 575.263 210.398 576 210C574.674 213.623 573.057 216.635 570.875 219.812C570.067 220.998 570.067 220.998 569.242 222.207C568.627 223.095 568.627 223.095 568 224C575.061 220.18 580.599 215.944 586 210C586.66 210.33 587.32 210.66 588 211C568.086 255.554 545.886 294.118 508 326C506.666 327.145 505.333 328.291 504 329.438C503.01 330.283 502.02 331.129 501 332C528.08 323.908 559.254 307.456 579.434 287.496C581.539 285.448 583.602 283.684 586 282C584.337 288.729 581.595 294.916 578.812 301.25C578.356 302.319 577.899 303.387 577.428 304.488C568.587 324.671 554.992 342.316 537 355C566.204 348.318 591.405 336.606 609 311C610 314 610 314 609.139 316.002C608.682 316.754 608.225 317.506 607.754 318.281C607.25 319.118 606.747 319.955 606.228 320.817C605.404 322.145 605.404 322.145 604.562 323.5C604.008 324.405 603.453 325.31 602.881 326.242C596.831 336.022 590.674 344.734 582.297 352.711C579.971 354.923 579.971 354.923 578.188 357.398C558.824 380.428 524.21 391.702 496 398C493.499 398.559 490.999 399.122 488.5 399.688C487.458 399.918 486.417 400.149 485.344 400.387C483.057 400.774 483.057 400.774 482 402C482.981 402.147 483.962 402.294 484.973 402.445C492.425 403.651 499.418 405.238 506.438 408.062C507.403 408.448 507.403 408.448 508.389 408.842C512.863 410.725 512.863 410.725 514 413C513.228 412.995 512.456 412.99 511.661 412.984C508.17 412.963 504.679 412.95 501.188 412.938C499.973 412.929 498.758 412.921 497.506 412.912C496.342 412.909 495.179 412.906 493.98 412.902C492.907 412.897 491.833 412.892 490.727 412.886C487.905 412.878 487.905 412.878 485 414C482.667 414.04 480.333 414.044 478 414C478 414.66 478 415.32 478 416C479.114 415.917 480.227 415.835 481.375 415.75C490.548 415.831 497.25 420.321 503.727 426.48C507.126 430.248 512 435.665 512 441C509 440 509 440 507.375 437.688C503.253 433.023 498.78 431.289 492.617 430.648C486.2 430.496 480.643 430.919 474.672 433.344C473 434 473 434 471 434C471 434.66 471 435.32 471 436C472.65 436 474.3 436 476 436C472.735 437.884 469.719 438.493 466 439C466 439.66 466 440.32 466 441C461.207 439.579 457.032 437.483 452.688 435.062C441.469 428.965 429.739 423.999 418 419C416.976 418.558 415.953 418.117 414.898 417.662C408.153 414.787 401.413 412.426 394.34 410.504C389.199 408.934 386.61 406.943 383.333 402.699C376.315 393.753 361.991 387.361 351 385C333.558 383.625 318.172 386.453 304.41 397.773C301.292 400.654 298.575 403.631 296 407C291.589 412.741 286.454 417.304 280.875 421.875C280.182 422.447 279.488 423.019 278.774 423.608C275.328 426.38 272.293 428.68 268 430C267.634 429.49 267.268 428.979 266.891 428.453C262.796 422.954 258.286 418.159 253.405 413.374C250.651 410.668 248 407.947 245.5 405C242.507 401.479 239.284 398.245 236 395C228.063 387.139 221.03 378.678 214 370C213.01 368.795 213.01 368.795 212 367.566C200.558 353.518 190.719 338.62 182.562 322.438C182.232 321.783 181.902 321.128 181.562 320.454C179.72 316.712 178.222 312.987 177 309C180.436 310.527 183.119 312.599 186 315C185.483 312.416 184.698 310.338 183.594 307.922C176.062 290.469 176.255 269.325 180 251C180.66 251 181.32 251 182 251C182.014 251.715 182.028 252.431 182.043 253.168C182.631 265.456 187.244 279.834 195.867 288.98C198.145 290.97 200.293 292.647 203 294C202.584 293.13 202.584 293.13 202.16 292.242C201.798 291.461 201.436 290.68 201.062 289.875C200.703 289.109 200.343 288.344 199.973 287.555C195.067 274.669 197.586 258.479 202.781 246.146C210.497 229.168 223.071 215.182 236 202C237.064 200.913 237.064 200.913 238.15 199.804C240.385 197.529 242.627 195.262 244.875 193C245.564 192.306 246.253 191.612 246.964 190.897C251.48 186.395 256.173 182.164 261 178C262.712 176.463 264.421 174.921 266.125 173.375C276.542 164 276.542 164 279 164C279 163.34 279 162.68 279 162C279.66 162 280.32 162 281 162C279.27 165.902 276.76 169.203 274.25 172.625C258.252 194.786 247.715 220.261 250 248C250.92 253.485 252.015 259.222 255 264C255.99 264.33 256.98 264.66 258 265C257.917 263.969 257.835 262.938 257.75 261.875C257.872 238.775 274.825 220.371 290 205C293.892 201.212 297.943 197.609 302 194C303.855 192.292 305.709 190.584 307.562 188.875C311.103 185.654 314.712 182.568 318.438 179.562C323.998 175.068 329.245 170.278 334.475 165.412C336 164 337.535 162.602 339.074 161.207C349.158 152.066 358.623 142.759 367 132C367.472 131.399 367.945 130.798 368.431 130.178C375.489 121.159 381.549 112.072 387 102C387.686 100.892 387.686 100.892 388.387 99.7617C391.993 93.9027 393.937 87.5724 395.946 81.0303C396.579 79.0034 397.284 76.9991 398 75C398.99 74.505 398.99 74.505 400 74C400.99 85.385 400.99 85.385 402 97C404.031 90.2299 405.683 84.0954 406.625 77.1875C406.75 76.3004 406.875 75.4133 407.003 74.4993C408.3 64.6993 408.71 54.8736 409 45Z" fill="#72579C"/>
<path d="M286 455C286.294 455.891 286.294 455.891 286.594 456.801C291.501 470.402 300.474 480.555 313.5 486.875C324.561 491.444 335.223 491.327 347 491C348.576 490.973 348.576 490.973 350.184 490.945C357.489 490.585 363.463 488.174 370 485C370.964 484.532 371.928 484.064 372.922 483.582C385.025 477.347 392.088 469.256 398 457C404.242 457.402 408.866 460.463 414.125 463.562C415.061 464.108 415.998 464.653 416.962 465.214C428.023 471.7 438.223 478.686 448 487C447.693 488.489 447.693 488.489 447.379 490.008C447.106 491.38 446.834 492.753 446.563 494.125C446.36 495.094 446.36 495.094 446.154 496.082C444.321 505.472 443.937 514.995 444 524.543C443.998 526.431 443.998 526.431 443.996 528.357C443.999 530.923 444.033 533.488 444.098 536.053C444.004 546.215 440.918 550.823 434 558C432.84 559.461 431.702 560.94 430.594 562.441C430.082 563.122 429.571 563.803 429.043 564.504C428.534 565.183 428.025 565.863 427.5 566.562C423.281 572.135 418.971 577.515 414.195 582.629C412.383 584.586 410.643 586.575 408.906 588.598C404.278 593.9 399.347 598.897 394.375 603.875C393.889 604.362 393.402 604.849 392.901 605.351C385.686 612.55 378.511 619.35 370 625C369.036 625.647 368.072 626.294 367.078 626.961C353.092 635.73 338.54 639.343 322.246 636.523C320.019 635.862 318.077 635.038 316 634C314.701 633.397 314.701 633.397 313.375 632.781C307.322 629.755 302.478 626.097 297.582 621.441C295.579 619.547 293.553 617.749 291.461 615.957C285.682 610.919 280.244 605.531 274.813 600.125C274.26 599.575 273.707 599.025 273.138 598.458C244.564 569.899 244.564 569.899 243.312 556.562C243.693 550.831 246.39 546.351 250 542C252.808 539.585 255.748 537.759 259 536C259.673 535.622 260.346 535.245 261.039 534.855C290.804 519.024 332.492 524.474 364 532C364.897 532.211 365.795 532.423 366.719 532.641C381.211 536.098 395.106 540.633 409 546C406.011 542.804 402.572 541.041 398.688 539.125C397.979 538.77 397.271 538.415 396.541 538.049C391.957 535.804 387.421 534.056 382.563 532.5C376.825 530.577 373.23 528.093 368.965 523.852C367.085 522.08 365.411 520.981 363.125 519.812C360 518 360 518 358.828 515.66C356.178 511.803 352.813 510.514 348.625 508.625C347.87 508.258 347.114 507.89 346.336 507.512C343.079 506.003 340.719 504.989 337.098 505.043C334.508 506.224 333.94 507.102 332.813 509.688C332.494 510.403 332.176 511.118 331.848 511.855C330.787 514.54 329.829 517.235 329 520C328.34 520 327.68 520 327 520C326.962 518.963 326.962 518.963 326.924 517.905C326.808 514.79 326.686 511.676 326.563 508.562C326.523 507.474 326.484 506.385 326.443 505.264C326.401 504.229 326.36 503.195 326.316 502.129C326.28 501.171 326.243 500.212 326.205 499.225C326.242 497.029 326.242 497.029 325 496C323.146 495.913 321.289 495.893 319.434 495.902C318.309 495.906 317.184 495.909 316.025 495.912C314.841 495.92 313.657 495.929 312.438 495.938C311.25 495.942 310.062 495.947 308.838 495.951C305.892 495.963 302.946 495.979 300 496C300 494.68 300 493.36 300 492C289.132 493.756 278.588 495.964 268 499C267.432 506.129 268.589 511.662 271.125 518.336C272 521 272 521 272 525C268.04 525.99 268.04 525.99 264 527C258.998 515.859 258.264 503.07 259 491C259.031 490.262 259.062 489.523 259.094 488.763C259.526 480.431 259.992 472.921 266.457 467.06C269.211 464.875 272.063 462.935 275 461C276.548 459.779 278.092 458.552 279.625 457.312C282.175 455.336 282.636 455 286 455Z" fill="#917DB9"/>
<path d="M402 2C404 3 404 3 405.047 5.53638C405.607 7.24507 405.607 7.24507 406.18 8.98828C406.493 9.9379 406.493 9.9379 406.812 10.9067C407.51 13.0388 408.194 15.1751 408.875 17.3125C409.114 18.0544 409.352 18.7963 409.598 19.5607C427.761 76.2576 442.596 135.075 441 195C445.537 171.825 445.978 146.301 442 123C441.799 121.806 441.799 121.806 441.593 120.588C439.194 106.759 436.4 92.7235 428.918 80.6367C428 79 428 79 428 77C451.944 88.0387 468.38 125.168 477.074 148.402C487.203 176.762 488.914 206.8 477 235C477.969 234.364 477.969 234.364 478.957 233.715C497.35 222.267 517.901 218.531 538.898 214.435C559.138 210.475 577.199 204.332 591 188C591.544 187.076 592.088 186.151 592.649 185.199C593.095 184.473 593.541 183.748 594 183C594.66 183 595.32 183 596 183C594.061 189.215 591.723 195.085 589 201C591.97 197.7 594.94 194.4 598 191C598.66 191.33 599.32 191.66 600 192C599.563 192.986 599.563 192.986 599.117 193.992C596.525 200.009 594.304 206.014 592.313 212.25C586.757 229.405 579.533 246.117 571 262C570.684 262.594 570.367 263.189 570.041 263.801C560.522 281.527 548.369 296.002 534 310C555.276 299.072 579.643 284.606 593 264C593.66 263.01 594.32 262.02 595 261C595.66 261 596.32 261 597 261C591.222 288.978 582.114 322.289 560 342C586.178 329.771 610.66 307.66 621.223 280.168C621.479 279.453 621.736 278.737 622 278C622.66 278 623.32 278 624 278C619.869 309.45 606.698 337.004 585 360C583.915 361.199 583.915 361.199 582.809 362.422C564.302 382.087 538.298 394.6 512.457 401.309C510.074 401.763 510.074 401.763 509 403C510.004 403.461 511.008 403.923 512.043 404.398C525.969 410.967 542.555 420.052 548.238 435.328C548.49 436.21 548.741 437.092 549 438C545.611 436.746 542.773 435.316 539.813 433.25C539.028 432.72 538.243 432.19 537.434 431.645C535.862 430.582 534.291 429.517 532.723 428.449C523.222 422.331 512.301 418.595 501 418C501.87 418.584 501.87 418.584 502.758 419.18C512.09 425.863 516.383 433.544 518.594 444.77C519.7 453.568 518.039 462.089 514 470C511.863 472.316 511.863 472.316 510 474C510.035 472.984 510.07 471.968 510.106 470.922C510.355 460.439 510.22 449.944 504 441C502.409 439.633 502.409 439.633 500.625 438.75C500.061 438.435 499.496 438.121 498.914 437.797C495.002 436.168 491.118 435.877 486.918 435.902C485.521 435.907 485.521 435.907 484.096 435.912C483.136 435.92 482.176 435.929 481.188 435.938C480.209 435.942 479.23 435.947 478.221 435.951C475.814 435.963 473.407 435.979 471 436C471 435.34 471 434.68 471 434C479.986 429.892 489.315 427.857 498.973 430.953C503.776 433.189 507.017 435.525 510 440C510.66 440.33 511.32 440.66 512 441C506.519 429.898 500.899 422.389 489 418C485.354 417.114 481.721 416.474 478 416C478 415.34 478 414.68 478 414C485.772 412.05 493.139 411.754 501.125 411.875C502.272 411.884 503.42 411.893 504.602 411.902C507.401 411.926 510.201 411.958 513 412C501.947 407.369 491.991 404.142 480 403C482.294 400.329 483.971 399.51 487.402 398.824C488.722 398.547 488.722 398.547 490.068 398.265C491.015 398.075 491.962 397.884 492.938 397.688C522.631 391.246 549.48 380.649 573 361C573.85 360.339 574.699 359.677 575.574 358.996C577.726 357.226 579.462 355.498 581.25 353.375C583.121 351.163 584.984 349.016 587.027 346.961C594.479 339.334 599.478 330.317 604.773 321.126C606.154 318.734 607.568 316.362 609 314C608.67 313.67 608.34 313.34 608 313C607.622 313.522 607.245 314.044 606.856 314.582C599.275 324.719 590.694 333.213 580 340C579.258 340.51 578.515 341.021 577.75 341.547C566.277 349.066 551.393 353.365 538 356C537.34 355.67 536.68 355.34 536 355C536.664 354.481 537.328 353.961 538.012 353.426C542.588 349.812 546.98 346.237 551 342C551.76 341.306 551.76 341.306 552.535 340.598C558.367 335.164 562.725 328.685 567 322C567.471 321.263 567.943 320.526 568.428 319.767C572.321 313.495 575.374 307.04 578.25 300.25C578.683 299.248 579.116 298.247 579.563 297.215C581.573 292.53 583.506 287.881 585 283C584.368 283.678 583.737 284.356 583.086 285.055C564.736 304.145 540.494 315.843 516.682 326.762C514.776 327.642 512.88 328.542 510.99 329.457C510.009 329.925 509.027 330.393 508.016 330.875C507.127 331.306 506.237 331.736 505.321 332.18C503 333 503 333 500 332C502.165 329.978 504.332 327.957 506.5 325.938C507.147 325.335 507.794 324.732 508.461 324.111C511.594 321.202 514.736 318.325 518 315.562C526.943 307.837 535.559 299.181 543 290C544.114 288.645 544.114 288.645 545.25 287.262C552.391 278.388 558.318 268.858 564 259C564.375 258.352 564.749 257.704 565.135 257.036C573.543 242.275 580.121 226.511 587 211C586.543 211.395 586.087 211.789 585.616 212.196C582.398 214.968 579.187 217.731 575.813 220.312C575.18 220.804 574.547 221.295 573.895 221.801C571.921 223.05 570.282 223.57 568 224C569.557 219.329 572.085 215.913 575 212C571.94 212.617 569.809 213.643 567.188 215.312C557.237 220.889 545.865 222.25 534.75 223.938C509.34 227.821 479.546 235.134 463.198 256.792C462.051 258.368 460.931 259.963 459.813 261.559C458 264 458 264 456 265C456.273 259.003 458.515 254.765 461.254 249.484C477.803 216.461 479.872 184.718 468.242 149.57C463.515 136.066 456.896 123.505 450 111C449.435 109.955 449.435 109.955 448.858 108.89C447.198 105.88 445.638 103.242 443 101C443.398 101.862 443.797 102.725 444.207 103.613C457.826 134.373 455.036 174.736 444 206C441.999 210.851 439.622 215.454 437 220C436.34 220 435.68 220 435 220C434.731 215.635 434.466 211.269 434.204 206.903C434.109 205.338 434.014 203.772 433.919 202.207C433.4 193.67 432.944 185.15 432.757 176.597C432.117 150.234 427.77 123.688 422 98C421.675 96.5394 421.675 96.5394 421.343 95.0493C420.29 90.3371 419.219 85.6295 418.129 80.9258C416.896 75.5918 415.769 70.2395 414.676 64.875C414.04 61.9486 414.04 61.9486 412.957 58.9922C411.989 55.964 411.607 53.2883 411.375 50.125C411.263 48.6748 411.263 48.6748 411.149 47.1953C411.1 46.4709 411.051 45.7464 411 45C410.34 45 409.68 45 409 45C409.047 46.2259 409.093 47.4518 409.141 48.7148C409.405 59.0754 408.842 69.0095 407.188 79.25C407.022 80.2837 406.857 81.3175 406.687 82.3826C405.637 88.4732 404.157 94.2072 402 100C401.67 100 401.34 100 401 100C400.34 91.75 399.68 83.5 399 75C398.134 77.7431 397.268 80.4862 396.375 83.3125C393.943 90.7146 391.112 97.3551 387 104C386.25 105.255 385.5 106.51 384.75 107.766C379.387 116.644 373.57 124.977 367 133C366.549 133.554 366.099 134.107 365.634 134.678C356.01 146.421 345.484 157.598 333.875 167.406C331.596 169.343 329.397 171.359 327.188 173.375C323.768 176.466 320.281 179.425 316.688 182.312C310.808 187.079 305.286 192.172 299.77 197.348C297.908 199.086 296.034 200.807 294.156 202.527C275.018 220.105 260.565 238.326 258 265C256.063 264.688 256.063 264.688 254 264C252.73 260.191 253.448 257.765 254.625 254C255.106 251.436 254.534 249.55 254 247C253.962 244.667 253.954 242.333 254 240C254.66 240.33 255.32 240.66 256 241C256.329 240.14 256.658 239.28 256.996 238.395C264.24 220.392 276.435 207.377 290.063 193.812C290.909 192.962 291.755 192.112 292.627 191.236C297.59 186.281 302.677 181.562 308 177C309.671 175.504 311.338 174.005 313 172.5C315.937 169.849 318.886 167.217 321.875 164.625C335.89 152.376 349.572 139.744 361 125C361.81 123.996 362.619 122.992 363.453 121.957C379.741 101.589 391.882 77.3764 397.352 51.8801C397.634 50.584 397.634 50.584 397.922 49.2617C398.083 48.4879 398.244 47.714 398.409 46.9167C399 45 399 45 401 43C401.33 45.31 401.66 47.62 402 50C402.66 50 403.32 50 404 50C404.522 37.8968 403.329 26.0423 401.979 14.0347C401.841 12.7677 401.702 11.5007 401.559 10.1953C401.428 9.05079 401.297 7.90626 401.162 6.72705C401 4 401 4 402 2ZM531 311C530.67 311.66 530.34 312.32 530 313C530.99 312.67 531.98 312.34 533 312C532.34 311.67 531.68 311.34 531 311Z" fill="#171718"/>
<path d="M442 551C442.66 551 443.32 551 444 551C444.168 552.717 444.168 552.717 444.34 554.469C445.631 565.848 448.107 576.657 451.313 587.625C455.245 601.084 458.556 614.577 461.432 628.308C461.9 630.524 462.385 632.734 462.891 634.941C464.306 641.198 465.414 647.47 466.425 653.802C468.945 674.442 468.945 674.442 479 692C483.859 695.126 487.79 695.437 493.375 695.312C494.092 695.316 494.808 695.319 495.547 695.322C500.657 695.272 505.076 694.349 510 693C513.626 692.582 515.25 692.546 518.375 694.438C520.812 698.28 520.97 701.583 520 706C516.547 712.452 510.623 715.488 503.91 717.684C493.486 720.417 482.082 719.739 472 716C468.869 714.017 466.458 711.76 464 709C463.534 708.514 463.068 708.027 462.588 707.526C458.459 703.043 456.106 698.54 453.938 692.875C453.6 692.011 453.263 691.147 452.916 690.257C448.155 677.619 445.298 664.493 443.582 651.117C441.507 635.735 438.993 620.372 433 606C433.449 610.334 433.911 614.667 434.375 619C434.501 620.221 434.628 621.441 434.758 622.699C435.543 630.167 435.543 630.167 437.078 637.504C439.132 645.294 438.772 652.62 435.461 659.965C431.189 665.915 425.724 668.293 419 670.562C418.14 670.858 417.28 671.154 416.394 671.459C405.666 674.986 391.392 679.524 380 678C374.788 673.289 373.063 666.697 372 660C372 663.833 372.43 665.514 373.875 668.938C374.223 669.772 374.571 670.606 374.93 671.465C375.283 672.301 375.636 673.138 376 674C376.669 675.666 377.336 677.332 378 679C331.689 680.043 331.689 680.043 315 674C313.851 673.627 312.703 673.255 311.52 672.871C301.047 669.062 290.435 661.968 285 652C283.717 649.049 282.779 646.12 282 643C281.835 642.367 281.67 641.734 281.5 641.082C280.061 635.194 279.588 629.484 279.375 623.438C279.336 622.524 279.298 621.611 279.258 620.67C279.165 618.447 279.079 616.224 279 614C282.529 614.766 284.005 615.734 286.563 618.312C291.198 622.585 296.244 625.906 301.563 629.25C302.366 629.757 303.169 630.264 303.996 630.786C318.423 639.743 331.743 643.436 348.742 640.312C356.042 638.212 362.541 634.955 369 631C369.932 630.448 370.864 629.897 371.824 629.328C378.966 624.866 384.909 619.615 390.925 613.748C391.527 613.163 392.129 612.579 392.75 611.977C393.281 611.451 393.812 610.926 394.359 610.385C396 609 396 609 398.139 607.933C400.57 606.714 400.874 605.428 402 603C403.143 601.769 404.336 600.585 405.563 599.438C417.226 588.025 428.685 573.629 436 559C436.66 559 437.32 559 438 559C438.289 558.237 438.578 557.474 438.875 556.688C440 554 440 554 442 551Z" fill="#363636"/>
<path d="M369.375 397.749C378.441 404.181 384.934 412.192 388 422.999C388.457 426.385 388.525 429.712 388.5 433.124C388.494 434.047 388.487 434.969 388.481 435.919C388.095 450.46 382.108 460.981 372.563 471.749C358.871 483.771 346.97 486.682 329 485.999C316.402 484.72 304.633 476.945 296.688 467.312C289.452 456.675 287.497 445.555 289 432.999C290.615 424.556 293.719 417.744 299 410.999C299.44 410.397 299.879 409.796 300.332 409.175C307.683 399.748 317.814 394.575 329 390.999C329.621 390.798 330.243 390.597 330.883 390.39C344.467 387.884 357.745 390.428 369.375 397.749Z" fill="#121213"/>
<path d="M442 561C442.66 561 443.32 561 444 561C453.074 591.663 461.416 622.604 466.488 654.204C469.014 674.633 469.014 674.633 479 692C483.859 695.126 487.79 695.437 493.375 695.312C494.092 695.316 494.808 695.319 495.547 695.322C500.657 695.272 505.076 694.349 510 693C513.626 692.582 515.249 692.546 518.375 694.438C520.811 698.28 520.97 701.583 520 706C516.547 712.452 510.623 715.488 503.91 717.684C493.486 720.417 482.082 719.739 472 716C468.869 714.017 466.458 711.76 464 709C463.534 708.514 463.068 708.027 462.588 707.526C458.459 703.043 456.106 698.54 453.937 692.875C453.6 692.011 453.263 691.147 452.915 690.257C448.155 677.619 445.298 664.493 443.582 651.117C441.507 635.735 438.993 620.372 433 606C433.086 606.755 433.171 607.51 433.259 608.288C433.654 611.775 434.046 615.263 434.437 618.75C434.572 619.937 434.707 621.124 434.846 622.348C435.691 629.89 436.416 637.432 437 645C430.022 643.735 423.649 640.273 418.937 634.875C414.32 628.023 415.133 618.71 416.578 610.859C420.652 596.415 428.133 583.025 435.937 570.312C436.505 569.385 437.073 568.458 437.658 567.502C438.192 566.652 438.727 565.802 439.277 564.926C439.754 564.167 440.231 563.408 440.722 562.626C441.144 562.09 441.566 561.553 442 561Z" fill="#907CB8"/>
<path d="M279 614C282.529 614.766 284.005 615.734 286.562 618.312C291.198 622.585 296.244 625.906 301.562 629.25C302.366 629.757 303.169 630.264 303.996 630.786C318.423 639.743 331.743 643.436 348.742 640.312C358.822 637.412 367.674 632.291 376 626C376.99 626.495 376.99 626.495 378 627C377.029 629.956 376.042 632.89 374.93 635.797C371.134 646.425 369.609 659.068 373.875 669.812C374.566 671.217 375.274 672.613 376 674C376.675 675.663 377.343 677.33 378 679C331.689 680.043 331.689 680.043 315 674C313.851 673.627 312.703 673.255 311.52 672.871C301.047 669.062 290.435 661.968 285 652C283.717 649.049 282.779 646.12 282 643C281.835 642.367 281.67 641.734 281.5 641.082C280.061 635.194 279.588 629.484 279.375 623.438C279.336 622.524 279.298 621.611 279.258 620.67C279.165 618.447 279.079 616.224 279 614Z" fill="#363636"/>
<path d="M369.375 397.749C378.441 404.181 384.934 412.192 388 422.999C388.457 426.385 388.525 429.712 388.5 433.124C388.494 434.047 388.487 434.969 388.481 435.919C388.095 450.46 382.108 460.981 372.563 471.749C358.871 483.771 346.97 486.682 329 485.999C316.402 484.72 304.633 476.945 296.688 467.312C289.452 456.675 287.497 445.555 289 432.999C290.615 424.556 293.719 417.744 299 410.999C299.44 410.397 299.879 409.796 300.332 409.175C307.683 399.748 317.814 394.575 329 390.999C329.621 390.798 330.243 390.597 330.883 390.39C344.467 387.884 357.745 390.428 369.375 397.749ZM310 414.999C302.371 425.224 300.779 435.421 302 447.999C304.086 456.335 308.047 462.898 315 467.999C325.948 474.349 337.237 477.379 349.805 474.316C352.017 473.367 353.968 472.287 356 470.999C356.744 470.587 357.488 470.174 358.254 469.749C367.753 464.092 373.867 455.531 377 444.999C379.227 435.473 378.476 426.751 374 417.999C368.881 410.084 360.008 403.744 351 400.999C334.545 399.059 321.321 402.309 310 414.999Z" fill="#ABABAB"/>
<path d="M394 414C404.992 417.972 415.691 422.375 426.312 427.25C427.025 427.575 427.737 427.899 428.47 428.234C439.865 433.434 451.013 438.981 462 445C463.329 445.676 464.659 446.349 466 447C465.613 447.701 465.227 448.402 464.828 449.125C463.74 451.107 462.66 453.093 461.586 455.082C460.697 456.717 459.796 458.346 458.852 459.949C455.045 466.725 453.713 474.49 452 482C447.99 482 447.076 480.548 444 478C441.333 476.144 438.606 474.384 435.875 472.625C435.119 472.137 434.364 471.65 433.585 471.148C427.859 467.484 422.022 464.153 416 461C413.135 459.404 410.271 457.804 407.41 456.199C405.23 455.114 403.354 454.541 401 454C401.001 453.346 401.002 452.693 401.003 452.019C400.949 438.559 400.335 427.973 394 416C394 415.34 394 414.68 394 414Z" fill="#363636"/>
<path d="M264 599C272.486 603.216 272.486 603.216 275 608C275.836 613.46 275.318 619.061 275.07 624.555C274.966 628.201 275.169 631.802 275.438 635.438C275.519 636.612 275.6 637.786 275.684 638.996C275.915 641.866 275.915 641.866 276.52 644.07C278.917 653.699 276.815 665.219 272.547 673.984C265.828 684.559 255.34 689.26 243.518 691.919C235.696 693.491 227.956 694.401 219.988 694.785C216.503 695.036 213.283 695.75 209.898 696.574C207.14 697.193 204.802 697.4 202 697C200.062 695.562 200.062 695.562 199 693C199.063 689.948 199.467 687.003 200 684C210.354 680.004 220.134 678.136 231.133 676.676C239.936 675.414 250.703 673.869 257 667C263.064 657.716 264.458 647.05 264.293 636.207C264.289 635.135 264.284 634.063 264.28 632.958C264.263 629.576 264.226 626.195 264.188 622.812C264.172 620.502 264.159 618.191 264.146 615.881C264.114 610.254 264.064 604.627 264 599Z" fill="#8F7CB6"/>
<path d="M306 430C311.61 430 317.22 430 323 430C323.289 431.382 323.578 432.764 323.875 434.188C324.951 440.48 324.951 440.48 328.75 445.188C329.493 445.456 330.235 445.724 331 446C331.887 446.371 332.774 446.743 333.688 447.125C339.495 448.659 344.081 448.781 349.688 446.5C354.973 443.05 358.487 438.053 360 432C364.29 432 368.58 432 373 432C373.761 442.201 371.282 451.484 364.688 459.5C357.035 467.334 347.84 471.022 336.938 471.438C331.189 471.283 326.948 469.85 322 467C320.453 466.134 320.453 466.134 318.875 465.25C311.986 459.859 307.048 453.624 305 445C304.559 439.844 304.353 434.94 306 430Z" fill="#F9F9F9"/>
<path d="M357.078 407.736C357.712 408.154 358.347 408.571 359 409.002C360.075 409.69 360.075 409.69 361.172 410.392C367.014 414.443 370.781 419.16 373 426.002C373 426.992 373 427.982 373 429.002C372.31 428.977 371.62 428.952 370.909 428.926C349.942 428.17 328.973 427.561 308 427.002C310.923 417.833 316.238 413.006 324.473 408.228C333.987 403.611 347.542 402.487 357.078 407.736Z" fill="#8F7CB7"/>
<path d="M426 674C426.66 680.27 427.32 686.54 428 693C421 694 421 694 419.062 692.562C418.712 692.047 418.361 691.531 418 691C418.33 690.34 418.66 689.68 419 689C421.475 689.495 421.475 689.495 424 690C423.505 689.01 423.505 689.01 423 688C421.68 688 420.36 688 419 688C418.67 690.31 418.34 692.62 418 695C405.13 695 392.26 695 379 695C376 688 376 688 376 685C377.597 684.745 377.597 684.745 379.227 684.484C387.556 683.11 395.596 681.423 403.691 678.98C407.984 677.708 412.318 676.655 416.672 675.613C422.796 674 422.796 674 426 674Z" fill="#363636"/>
<path d="M303 676C304.417 676.414 305.834 676.831 307.25 677.25C308.178 677.523 309.106 677.797 310.063 678.078C311.914 678.659 313.751 679.289 315.563 679.984C329.793 685.362 345.906 686.253 361 687C360.67 690.63 360.34 694.26 360 698C344.82 698 329.64 698 314 698C311.69 693.38 309.38 688.76 307 684C305.68 682.02 304.36 680.04 303 678C303 677.34 303 676.68 303 676Z" fill="#363636"/>
<path d="M297 496C297.647 504.014 298.167 511.958 298 520C295.834 520.313 293.667 520.626 291.5 520.938C290.293 521.112 289.087 521.286 287.844 521.465C283.899 522.014 279.953 522.515 276 523C275.326 520.272 274.661 517.543 274 514.812C273.714 513.659 273.714 513.659 273.422 512.482C272.484 508.579 271.74 505.048 272 501C272.929 500.807 273.859 500.613 274.816 500.414C282.527 498.84 282.527 498.84 290.125 496.812C293 496 293 496 297 496Z" fill="#F6F6F6"/>
<path d="M286 420C286.66 420 287.32 420 288 420C287.689 421.438 287.376 422.875 287.062 424.312C286.801 425.513 286.801 425.513 286.535 426.738C286 429 286 429 285 432C285.153 434.104 285.306 436.208 285.471 438.311C285.721 442.277 285.953 446.112 285 450C281.791 453.558 278.331 455.108 274 457C273.67 457.66 273.34 458.32 273 459C271.855 459.681 271.855 459.681 270.687 460.375C268.016 461.99 266.156 463.767 264 466C263.67 466 263.34 466 263 466C262.62 445.121 262.62 445.121 267.805 437.266C269.778 435.345 271.823 433.682 274 432C274.949 430.902 275.87 429.779 276.75 428.625C278.892 426.126 280.125 425.342 283 424C284.012 422.676 285.014 421.344 286 420Z" fill="#353535"/>
<path d="M301 500C307.93 500 314.86 500 322 500C322 506.27 322 512.54 322 519C315.4 519 308.8 519 302 519C301.061 512.423 300.926 506.608 301 500Z" fill="#FBFBFB"/>
<path d="M439 563C439.33 563.99 439.66 564.98 440 566C438.699 568.469 438.699 568.469 436.688 571.5C427.135 586.364 416.91 602.884 416.813 621C416.799 622.196 416.784 623.393 416.77 624.625C417.086 629.262 418.127 631.972 421.125 635.5C423.994 637.994 426.88 639.916 430.129 641.863C432.192 643.117 434.108 644.502 436 646C428.309 645.634 421.808 644.053 416.36 638.254C410.828 630.862 411.259 622.493 412.274 613.605C415.709 596.137 426.281 575.719 439 563Z" fill="#080709"/>
<path d="M327 430C329.31 430 331.62 430 334 430C334.103 431.114 334.206 432.227 334.313 433.375C334.653 435.169 334.653 435.169 335 437C338.491 439.327 339.892 439.503 344 439C347.049 436.693 348.458 434.798 349 431C351.64 431 354.28 431 357 431C356.611 436.445 354.785 439.127 351 443C346.339 445.932 341.323 445.501 336 445C331.872 443.526 328.951 442.01 327 438C326.765 435.28 326.863 432.74 327 430Z" fill="#6D4980"/>
<path d="M334 427.999C337.984 427.974 341.967 427.956 345.951 427.944C347.963 427.937 349.976 427.924 351.988 427.912C365.357 427.878 365.357 427.878 371 428.999C371.495 429.989 371.495 429.989 372 430.999C367.71 430.999 363.42 430.999 359 430.999C359 432.649 359 434.299 359 435.999C358.34 435.669 357.68 435.339 357 434.999C357 433.679 357 432.359 357 430.999C354.36 430.999 351.72 430.999 349 430.999C348.917 431.928 348.835 432.856 348.75 433.812C348 436.999 348 436.999 346.312 438.874C343.215 440.381 341.409 440.556 338 439.999C335.062 437.937 335.062 437.937 333 434.999C333.371 431.316 333.371 431.316 334 427.999Z" fill="#080708"/>
<path d="M317 427C325.91 427 334.82 427 344 427C344 427.33 344 427.66 344 428C340.7 428 337.4 428 334 428C334 428.66 334 429.32 334 430C331.69 430 329.38 430 327 430C327.262 435.977 327.262 435.977 330.375 440.938C335.375 444.866 340.882 444.63 347 444C351.533 441.814 353.76 439.481 356 435C356.99 435.33 357.98 435.66 359 436C357.652 441.562 353.433 444.734 349 448C343.602 449.799 338.647 449.522 333.25 447.812C328.497 445.162 325.069 442.076 323 437C322.805 434.641 322.805 434.641 322.875 432.25C322.893 431.451 322.911 430.652 322.93 429.828C322.953 429.225 322.976 428.622 323 428C321.02 428 319.04 428 317 428C317 427.67 317 427.34 317 427Z" fill="#19171B"/>
<path d="M338 508C342.013 509.557 345.909 511.311 349.812 513.125C350.974 513.664 352.135 514.203 353.332 514.758C354.212 515.168 355.093 515.578 356 516C355.67 518.31 355.34 520.62 355 523C349.766 523.163 345.137 522.606 340.062 521.5C339.379 521.357 338.695 521.214 337.99 521.066C336.326 520.717 334.663 520.359 333 520C333.665 515.002 334.989 512.079 338 508Z" fill="#F4F4F4"/>
<path d="M394 424C397.988 427.988 398.105 434.974 398.312 440.437C397.884 453.996 391.133 464.52 381.504 473.637C381.008 474.087 380.511 474.536 380 475C379.34 474.67 378.68 474.34 378 474C378.543 473.264 379.085 472.528 379.645 471.77C380.36 470.794 381.075 469.818 381.812 468.812C382.52 467.85 383.228 466.887 383.957 465.895C386.76 461.924 389.121 458.198 390.625 453.562C390.865 452.842 391.105 452.121 391.352 451.379C392.994 445.355 393.278 439.328 393.562 433.125C393.606 432.246 393.649 431.367 393.693 430.461C393.799 428.307 393.9 426.154 394 424Z" fill="#A1A1A1"/>
<path d="M331.625 653.5C336.719 654.255 340.397 657.397 344 661C344.188 663.438 344.188 663.438 344 666C342 668 342 668 338.25 668.438C335.083 668.345 333.122 667.822 330.562 665.938C327.556 662.491 327 660.535 327 656C329 654 329 654 331.625 653.5Z" fill="#A8A8A8"/>
<path d="M332.438 652.062C337.613 653.424 341.751 655.668 345 660C345.25 663.75 345.25 663.75 345 667C343.02 667.99 343.02 667.99 341 669C341.66 668.01 342.32 667.02 343 666C343.584 663.543 343.584 663.543 343 661C339.684 657.863 336.512 655.091 331.875 654.812C329.104 654.676 329.104 654.676 328 656C327.86 659.373 327.86 659.373 329 663C331.122 665.051 333.439 666.549 336 668C335.01 668.33 334.02 668.66 333 669C328.748 666.697 326.309 663.943 324.812 659.375C325 656 325 656 326.5 653.5C329 652 329 652 332.438 652.062Z" fill="#171717"/>
<path d="M394 424C398.575 428.575 398.221 437.016 398.266 443.188C398 445 398 445 396 447C394.278 444.009 393.758 441.893 393.805 438.453C393.811 437.609 393.817 436.764 393.824 435.895C393.841 435.022 393.858 434.149 393.875 433.25C393.884 432.362 393.893 431.474 393.902 430.559C393.926 428.372 393.959 426.186 394 424Z" fill="#989898"/>
<path d="M349 429C356.26 429 363.52 429 371 429C371.33 429.66 371.66 430.32 372 431C367.71 431 363.42 431 359 431C359 432.65 359 434.3 359 436C358.34 435.67 357.68 435.34 357 435C356.375 432.937 356.375 432.937 356 431C353.69 430.67 351.38 430.34 349 430C349 429.67 349 429.34 349 429Z" fill="#010101"/>
<path d="M443 101C446 102 446 102 447.133 103.742C447.46 104.446 447.788 105.15 448.125 105.875C448.458 106.574 448.79 107.272 449.133 107.992C450 110 450 110 451 113C449.68 113 448.36 113 447 113C446.326 111.566 445.661 110.127 445 108.688C444.629 107.887 444.257 107.086 443.875 106.262C443 104 443 104 443 101Z" fill="#68538A"/>
<path d="M335 430C336.65 430 338.3 430 340 430C338.68 430.33 337.36 430.66 336 431C337.309 434.122 337.309 434.122 340 436C339.34 437.32 338.68 438.64 338 440C336.68 439.01 335.36 438.02 334 437C334.33 434.69 334.66 432.38 335 430Z" fill="#100E11"/>
<path d="M472 248C470.618 251.21 469.076 253.049 466.375 255.25C465.428 256.031 465.428 256.031 464.461 256.828C463.979 257.215 463.497 257.602 463 258C464.317 253.811 467.025 248 472 248Z" fill="#69538C"/>
<path d="M359 521C362.796 521.542 364.472 523.201 367 526C364.36 525.67 361.72 525.34 359 525C359 523.68 359 522.36 359 521Z" fill="#D6D6D6"/>
<path d="M194 287C198.75 287.75 198.75 287.75 201 290C201.697 291.317 202.37 292.649 203 294C198.581 292.65 196.657 290.739 194 287Z" fill="#25222A"/>
<path d="M180 251C180.66 251 181.32 251 182 251C182 254.3 182 257.6 182 261C181.01 261.33 180.02 261.66 179 262C179.33 258.37 179.66 254.74 180 251Z" fill="#6C568F"/>
<path d="M399 74C399.33 74 399.66 74 400 74C400 76.64 400 79.28 400 82C398.02 82.99 398.02 82.99 396 84C396.308 82.5199 396.622 81.0409 396.938 79.5625C397.112 78.7388 397.286 77.9151 397.465 77.0664C398 75 398 75 399 74Z" fill="#6A538F"/>
<path d="M439 563C439.33 563.99 439.66 564.98 440 566C438.062 569.188 438.062 569.188 436 572C435.34 571.67 434.68 571.34 434 571C435.186 567.625 436.276 565.353 439 563Z" fill="#0D0C10"/>
<path d="M404.875 542.123C407.683 543.279 409.711 545.027 412 546.998C407.805 546.399 403.99 545.423 400 543.998C403 541.998 403 541.998 404.875 542.123Z" fill="#1A171F"/>
<path d="M507 433C507.66 433 508.32 433 509 433C512 438.75 512 438.75 512 441C508.596 439.865 507.783 439.032 506 436C506.33 435.01 506.66 434.02 507 433Z" fill="#69538B"/>
<path d="M585 282C585.33 282.66 585.66 283.32 586 284C585.062 286.625 585.062 286.625 584 289C582.35 289 580.7 289 579 289C580.98 286.69 582.96 284.38 585 282Z" fill="#68528B"/>
<path d="M264 599C265.98 599.99 265.98 599.99 268 601C267.01 601.33 266.02 601.66 265 602C265 605.3 265 608.6 265 612C264.67 612 264.34 612 264 612C264 607.71 264 603.42 264 599Z" fill="#6F6289"/>
<path d="M392 455C393.125 458.75 393.125 458.75 392 461C389.938 461.625 389.938 461.625 388 462C388.602 459.98 389.273 457.979 390 456C390.66 455.67 391.32 455.34 392 455Z" fill="#AFAFAF"/>
<path d="M609 311C609.33 311.99 609.66 312.98 610 314C608.688 316.188 608.688 316.188 607 318C606.34 318 605.68 318 605 318C605 318.66 605 319.32 605 320C604.34 319.67 603.68 319.34 603 319C604.98 316.36 606.96 313.72 609 311Z" fill="#624D81"/>
<path d="M348 436.998C345.64 439.096 344.454 439.967 341.25 440.186C340.136 440.093 340.136 440.093 339 439.998C341 436.998 341 436.998 343.5 436.248C346 435.998 346 435.998 348 436.998Z" fill="#080709"/>
</svg>
