<svg width="50" height="50" viewBox="0 0 50 50" fill="none" xmlns="http://www.w3.org/2000/svg">
<path d="M26.4652 1.27107C26.7032 1.48469 26.7032 1.48469 26.8558 1.75935C26.824 2.27666 26.6144 2.67877 26.3858 3.13264C25.3574 5.2413 25.1523 7.52035 25.8792 9.76716C25.8991 9.83045 25.919 9.89374 25.9395 9.95895C26.4791 11.6351 27.365 13.1351 28.3834 14.5608C28.6013 14.868 28.8127 15.1795 29.0225 15.4923C29.0828 15.5816 29.0828 15.5816 29.1443 15.6727C29.3445 15.9735 29.5314 16.2764 29.7031 16.5943C29.7367 16.6562 29.7703 16.7182 29.8049 16.782C29.8953 16.9516 29.983 17.1227 30.0704 17.2939C30.3322 17.6618 30.5497 17.7808 30.9574 17.9703C31.233 17.9757 31.233 17.9757 31.4456 17.775C32.1712 16.6363 32.1125 15.2551 31.8488 13.9904C31.6499 13.1829 31.329 12.3659 30.9574 11.6226C30.9375 11.4216 30.9375 11.4216 30.9329 11.1893C30.9304 11.1129 30.9279 11.0365 30.9253 10.9577C30.9574 10.7437 30.9574 10.7437 31.0687 10.5694C31.3388 10.3929 31.5189 10.4133 31.8363 10.4508C33.8984 11.3306 35.2566 13.687 36.066 15.6876C37.1897 18.6508 37.3664 22.0049 36.1034 24.9531C35.6055 25.9799 34.9494 27.071 34.0824 27.8336C34.0179 27.8336 33.9534 27.8336 33.887 27.8336C33.8815 28.1625 33.8815 28.1625 33.9847 28.5172C34.3811 28.8326 34.7052 28.9754 35.2256 28.9452C36.5687 28.7209 37.8387 27.9799 38.6699 26.899C39.2845 25.981 39.6512 25.0135 39.6694 23.906C39.6721 23.7908 39.6749 23.6756 39.6778 23.5569C39.6828 23.3156 39.6872 23.0742 39.6907 22.8329C39.6953 22.6601 39.6953 22.6601 39.6999 22.4838C39.7018 22.379 39.7037 22.2742 39.7057 22.1663C39.7517 21.8392 39.8434 21.6521 40.0394 21.3883C40.3414 21.2577 40.4926 21.2807 40.8084 21.3699C42.2284 22.3639 42.7248 24.7756 43.0114 26.3944C43.166 27.3586 43.233 28.3231 43.262 29.2984C43.2661 29.3995 43.2701 29.5006 43.2742 29.6047C43.3498 33.1433 42.5313 36.3188 40.8552 39.403C40.753 39.594 40.6568 39.7881 40.5631 39.9834C40.4131 40.2681 40.2359 40.4917 40.0272 40.7364C39.7136 41.1101 39.4166 41.4891 39.13 41.8839C38.43 42.8249 37.6312 43.6962 36.7191 44.4351C36.6095 44.5264 36.4998 44.6177 36.3902 44.709C32.8151 47.6585 27.978 49.2121 23.3436 48.7846C20.3126 48.4586 17.0366 47.4499 14.6488 45.5094C14.5513 45.4316 14.4539 45.3538 14.3535 45.2736C13.0262 44.1943 11.8511 42.9822 10.8402 41.6031C10.7927 41.5394 10.7453 41.4758 10.6964 41.4102C7.24148 36.7569 6.16801 31.223 6.97049 25.523C7.42216 22.6542 8.62078 19.9055 10.3519 17.5797C10.3955 17.5209 10.439 17.4621 10.4839 17.4016C11.0219 16.688 11.6107 15.9344 12.5308 15.7608C12.7933 15.8218 12.7933 15.8218 13.0313 15.9622C13.2616 16.3399 13.1637 16.6679 13.0863 17.0914C13.0322 17.2838 12.9693 17.4709 12.9039 17.6597C12.2283 19.6578 12.4449 21.8693 13.3426 23.7503C14.0501 25.1327 15.1726 26.4187 16.6812 26.918C17.5005 27.1256 18.168 27.1163 18.9456 26.7594C19.7654 26.2233 20.1035 25.3405 20.3128 24.4156C20.6611 22.3286 20.061 20.43 19.4523 18.4582C18.9359 16.778 18.5964 15.1881 18.616 13.4232C18.6165 13.3579 18.617 13.2926 18.6174 13.2254C18.6257 12.2073 18.6835 11.2422 18.9456 10.2554C18.965 10.1789 18.9844 10.1024 19.0044 10.0236C19.4454 8.31591 20.1357 6.88587 21.1917 5.47029C21.3035 5.31488 21.3035 5.31488 21.4176 5.15634C21.967 4.41092 22.5915 3.74749 23.2425 3.08992C23.3224 3.00865 23.4023 2.92738 23.4847 2.84365C25.4144 0.928444 25.4144 0.928444 26.4652 1.27107Z" fill="#FE6A00"/>
</svg>
