<svg width="50" height="50" viewBox="0 0 50 50" fill="none" xmlns="http://www.w3.org/2000/svg">
<g clip-path="url(#clip0_3139_42833)">
<path d="M18.8007 11.0401C19.513 11.5757 20.1913 12.1466 20.8591 12.7367C21.1483 13.0089 21.1483 13.0089 21.5206 13.0928C21.8122 12.9748 22.0894 12.8392 22.3663 12.69C22.6913 12.5349 22.9947 12.4885 23.3526 12.4835C23.4705 12.4816 23.4705 12.4816 23.5909 12.4797C23.6752 12.479 23.7595 12.4783 23.8464 12.4775C23.9343 12.4767 24.0223 12.476 24.1129 12.4751C24.2991 12.4738 24.4854 12.4728 24.6716 12.472C24.8606 12.4709 25.0495 12.4689 25.2384 12.466C27.4359 12.4323 27.4359 12.4323 28.4176 13.0867C28.8357 13.0741 29.1014 12.7543 29.3941 12.4886C31.4429 10.6879 33.7523 9.14055 36.1324 7.81331C36.1983 7.776 36.2643 7.73869 36.3322 7.70025C38.9758 6.21143 42.3131 4.8742 45.3914 5.58552C45.5621 5.63912 45.7312 5.69786 45.898 5.76253C45.9812 5.79463 46.0644 5.82673 46.1502 5.8598C46.8255 6.15958 47.3312 6.61245 47.8511 7.12971C47.9053 7.18044 47.9594 7.23118 48.0152 7.28345C50.0499 9.37868 50.0527 13.1081 50.0431 15.7918C50.0423 16.0548 50.0429 16.3177 50.0452 16.5807C50.08 20.7186 49.3255 25.2061 46.4046 28.3516C45.4374 29.2764 44.2549 29.7466 42.9317 29.7371C42.7913 29.7362 42.7913 29.7362 42.6481 29.7352C41.057 29.6953 39.6306 29.1124 38.1814 28.5003C37.9553 28.405 37.7278 28.3135 37.4996 28.2235C37.5342 28.2761 37.5688 28.3287 37.6045 28.3829C39.3355 31.057 40.8633 33.8748 42.3519 36.689C42.3931 36.7668 42.4344 36.8445 42.4769 36.9246C42.5334 37.0322 42.5334 37.0322 42.5911 37.1418C42.6405 37.2356 42.6405 37.2356 42.6909 37.3313C42.9571 37.8807 42.9425 38.4677 42.8707 39.0633C42.662 39.5813 42.3176 40.0283 41.7999 40.2619C40.9082 40.5801 39.9413 40.3663 39.0316 40.2352C38.8203 40.2051 38.609 40.1754 38.3976 40.1466C38.2071 40.1207 38.0167 40.0935 37.8264 40.0662C37.513 40.041 37.3099 40.0476 37.0113 40.1375C36.851 40.2892 36.851 40.2892 36.7305 40.492C36.6813 40.567 36.6321 40.642 36.5814 40.7192C36.5299 40.8008 36.4784 40.8824 36.4254 40.9665C36.3709 41.0499 36.3164 41.1334 36.2602 41.2194C36.086 41.4866 35.9138 41.7549 35.7418 42.0235C35.5696 42.2909 35.397 42.558 35.2234 42.8245C35.1154 42.9903 35.0083 43.1567 34.9022 43.3237C34.5601 43.8513 34.2023 44.3058 33.5933 44.5321C32.8473 44.6159 32.2372 44.6166 31.6402 44.1414C31.0956 43.6354 30.9125 43.1251 30.7426 42.4134C30.7166 42.3114 30.6905 42.2094 30.6637 42.1044C30.6078 41.885 30.5527 41.6653 30.4984 41.4455C30.3533 40.8588 30.2014 40.2738 30.0506 39.6885C30.0202 39.5698 29.9898 39.451 29.9585 39.3287C28.4336 31.9891 28.4336 31.9891 24.9996 25.5867C22.0079 29.4935 20.9142 35.7555 19.746 40.44C19.724 40.5276 19.7021 40.6153 19.6794 40.7055C19.5753 41.1218 19.4727 41.5383 19.373 41.9557C19.1231 42.9814 18.8598 43.7949 17.9683 44.4344C17.4084 44.6211 16.7422 44.6366 16.1762 44.4607C15.351 44.0054 14.8705 43.0219 14.3783 42.2486C14.3193 42.156 14.3193 42.156 14.259 42.0616C14.0967 41.8069 13.9345 41.5521 13.7745 41.2959C13.6557 41.1059 13.535 40.9173 13.414 40.7288C13.3784 40.6707 13.3427 40.6127 13.306 40.5528C13.1472 40.3083 13.0351 40.1564 12.7607 40.0468C12.4328 40.0381 12.1275 40.0727 11.8026 40.1192C11.6663 40.1378 11.5299 40.1564 11.3935 40.1749C11.1811 40.2048 10.9688 40.235 10.7566 40.2656C8.60353 40.5729 8.60353 40.5729 7.78843 39.9987C7.38485 39.6363 7.12963 39.2088 7.03694 38.6727C6.99384 37.7404 7.46874 36.9752 7.89143 36.1763C7.9579 36.0495 8.02435 35.9226 8.09077 35.7957C8.68904 34.6571 9.31345 33.5343 9.96052 32.4227C10.0237 32.3141 10.0868 32.2055 10.1518 32.0936C10.898 30.8121 11.6513 29.5385 12.4996 28.3211C12.2068 28.3211 12.09 28.3577 11.8305 28.4749C11.719 28.524 11.719 28.524 11.6053 28.5742C11.5258 28.6095 11.4463 28.6448 11.3643 28.6812C9.59819 29.4469 7.3664 30.1885 5.45003 29.5357C5.21161 29.4266 5.21161 29.4266 4.98005 29.2977C4.89055 29.2491 4.80105 29.2005 4.70883 29.1504C3.70051 28.5557 2.95348 27.7504 2.34334 26.7586C2.29353 26.678 2.29353 26.678 2.24272 26.5958C1.04204 24.6103 0.449658 22.296 0.0972421 20.0203C0.0797756 19.9082 0.062309 19.796 0.0443132 19.6804C-0.0269363 19.0927 -0.0182389 18.5016 -0.0202506 17.9104C-0.0208072 17.782 -0.0213639 17.6536 -0.0219374 17.5213C-0.0229592 17.2495 -0.0235325 16.9777 -0.0238745 16.706C-0.0242996 16.4316 -0.0256449 16.1573 -0.02788 15.883C-0.0531837 12.7143 0.082153 9.30972 2.36775 6.86116C2.83211 6.41641 3.31957 6.11978 3.90584 5.86018C3.99433 5.81977 4.08283 5.77936 4.17401 5.73773C9.03162 3.88629 15.1703 8.35123 18.8007 11.0401Z" fill="#CC5B6F"/>
<path d="M18.8007 11.0401C19.513 11.5757 20.1913 12.1466 20.8591 12.7367C21.1483 13.0089 21.1483 13.0089 21.5206 13.0928C21.8122 12.9748 22.0894 12.8392 22.3663 12.69C22.697 12.5322 23.0008 12.4886 23.365 12.4882C23.4462 12.4879 23.5273 12.4876 23.6109 12.4872C23.6977 12.4874 23.7845 12.4876 23.8739 12.4878C23.9637 12.4877 24.0535 12.4877 24.146 12.4876C24.3355 12.4875 24.525 12.4877 24.7146 12.4881C25.0049 12.4886 25.2953 12.4881 25.5857 12.4875C25.7699 12.4875 25.9541 12.4876 26.1383 12.4878C26.2253 12.4876 26.3122 12.4874 26.4018 12.4872C26.5231 12.4877 26.5231 12.4877 26.6468 12.4882C26.7178 12.4882 26.7889 12.4883 26.8621 12.4884C27.0504 12.5008 27.0504 12.5008 27.3433 12.5985C27.3524 13.4474 27.3593 14.2964 27.3636 15.1454C27.3656 15.5397 27.3684 15.9339 27.3728 16.3282C27.3771 16.7094 27.3794 17.0906 27.3804 17.4718C27.3811 17.6165 27.3825 17.7613 27.3846 17.906C27.4025 19.178 27.2062 20.0427 26.3111 20.9774C25.5179 21.6954 24.6091 21.9074 23.5641 21.9017C23.4472 21.902 23.4472 21.902 23.3279 21.9023C23.1646 21.9024 23.0012 21.9021 22.8378 21.9013C22.5883 21.9002 22.339 21.9013 22.0895 21.9025C21.93 21.9024 21.7705 21.9021 21.611 21.9017C21.5369 21.9021 21.4629 21.9025 21.3866 21.9029C20.9577 21.8992 20.7239 21.8452 20.3121 21.6805C20.3121 20.6492 20.3121 19.618 20.3121 18.5555C19.1074 18.889 17.9052 19.2238 16.711 19.5931C15.8543 19.8579 14.9934 20.0967 14.1246 20.3186C13.9066 20.3753 13.6898 20.4374 13.4761 20.5086C13.457 20.6489 13.4389 20.7893 13.4212 20.9298C13.411 21.0079 13.4008 21.0861 13.3903 21.1667C13.3641 21.4039 13.3641 21.4039 13.4761 21.6805C14.2711 21.8752 14.9622 21.6151 15.7222 21.3875C15.9972 21.3063 16.2722 21.2256 16.5475 21.1455C16.7322 21.0917 16.9167 21.037 17.1009 20.9816C17.1854 20.9568 17.2698 20.932 17.3568 20.9065C17.4324 20.8839 17.508 20.8613 17.5858 20.8381C17.773 20.8016 17.773 20.8016 17.9683 20.8992C14.7229 23.0218 11.3734 25.1865 7.61677 26.2703C7.49983 26.3053 7.38288 26.3403 7.26239 26.3764C5.88447 26.745 4.51368 26.68 3.23216 26.0289C2.54694 25.6229 1.99608 25.102 1.46443 24.5125C1.39683 24.4403 1.32923 24.368 1.25958 24.2936C1.00956 23.9311 0.900914 23.5662 0.780836 23.1453C0.743601 23.0181 0.743601 23.0181 0.705615 22.8883C0.438947 21.947 0.245242 20.9873 0.0972421 20.0203C0.0800037 19.9094 0.0627654 19.7985 0.0450046 19.6842C-0.0266914 19.0952 -0.0182342 18.503 -0.0202506 17.9104C-0.0208072 17.782 -0.0213639 17.6536 -0.0219374 17.5213C-0.0229592 17.2495 -0.0235325 16.9777 -0.0238745 16.706C-0.0242996 16.4316 -0.0256449 16.1573 -0.02788 15.883C-0.0531837 12.7143 0.082153 9.30972 2.36775 6.86116C2.83211 6.41641 3.31957 6.11978 3.90584 5.86018C3.99433 5.81977 4.08283 5.77936 4.17401 5.73773C9.03162 3.88629 15.1703 8.35123 18.8007 11.0401Z" fill="#E38B9A"/>
<path d="M45.8984 5.76365C46.0289 5.80047 46.0289 5.80047 46.162 5.83803C46.3867 5.95896 46.3867 5.95896 46.4916 6.19051C46.8272 7.86819 46.9092 9.53625 46.9058 11.2445C46.9055 11.5674 46.9078 11.8901 46.9103 12.213C46.9139 13.4305 46.8412 14.5992 46.6222 15.7975C46.5782 16.0385 46.5371 16.2798 46.4962 16.5214C46.0196 19.2934 44.8637 22.4492 42.5392 24.202C41.2018 25.0698 39.7479 25.1832 38.2233 24.8662C36.597 24.4929 35.0834 23.8336 33.6102 23.0614C33.3757 22.9393 33.14 22.8201 32.9041 22.7009C32.0504 22.2666 31.2066 21.8154 30.3894 21.3154C30.2825 21.2534 30.2825 21.2534 30.1735 21.1902C29.9863 21.0716 29.8337 20.9694 29.6875 20.8027C29.6436 20.4289 29.6436 20.4289 29.6875 20.1191C30.4758 20.278 31.2392 20.4921 32.0068 20.7295C32.8448 20.9879 33.6843 21.2397 34.5276 21.4802C34.6303 21.5101 34.7331 21.5401 34.839 21.5709C35.5232 21.7707 35.5232 21.7707 36.2305 21.7793C36.4746 21.6328 36.4746 21.6328 36.6211 21.3886C36.6702 20.9875 36.6531 20.8507 36.4258 20.5097C36.1648 20.4066 35.9128 20.3207 35.6445 20.2412C35.5631 20.2163 35.4817 20.1913 35.3978 20.1656C34.6069 19.9271 33.8089 19.7147 33.0105 19.5031C31.897 19.2075 30.7921 18.884 29.6875 18.5566C29.6875 18.1699 29.6875 17.7832 29.6875 17.3847C29.832 17.3445 29.9765 17.3042 30.1254 17.2627C31.7065 16.8214 33.2865 16.3765 34.8633 15.9199C34.952 15.8944 35.0408 15.8689 35.1323 15.8427C35.3563 15.7781 35.5798 15.712 35.8032 15.6452C35.9803 15.5929 35.9803 15.5929 36.161 15.5396C36.4537 15.4491 36.4537 15.4491 36.6211 15.1386C36.6662 14.7856 36.6654 14.6175 36.4624 14.3208C36.1538 14.1096 36.0186 14.1307 35.6445 14.1621C35.3057 14.2459 34.9755 14.3535 34.6436 14.4612C33.6773 14.7657 32.7057 15.0386 31.7256 15.2951C31.1957 15.4347 30.6754 15.5834 30.1597 15.7693C29.9805 15.8222 29.9805 15.8222 29.6875 15.8222C29.6802 15.7642 29.6729 15.7062 29.6654 15.6464C29.5418 14.8673 29.2583 14.1235 28.6919 13.5571C28.6337 13.4989 28.5755 13.4408 28.5156 13.3808C28.5156 13.3164 28.5156 13.2519 28.5156 13.1855C28.6991 13.0154 28.6991 13.0154 28.9612 12.8071C29.0599 12.7283 29.1586 12.6495 29.2603 12.5683C29.3407 12.5046 29.3407 12.5046 29.4228 12.4397C29.5915 12.3053 29.7586 12.1693 29.9255 12.0327C31.8729 10.4457 33.9473 9.05147 36.1328 7.81443C36.1997 7.77641 36.2667 7.7384 36.3356 7.69923C39.0416 6.17597 42.7919 4.61581 45.8984 5.76365Z" fill="#E38B9A"/>
<path d="M29.2969 23.1445C30.0271 23.6013 30.7454 24.0743 31.4597 24.5554C31.8099 24.7906 32.1606 25.022 32.5218 25.2399C32.5825 25.277 32.6432 25.3141 32.7058 25.3523C32.8671 25.4502 33.0295 25.5462 33.1921 25.642C33.9745 26.2517 34.4392 27.1584 34.9304 28.0029C34.9993 28.1204 35.0682 28.2379 35.1371 28.3553C35.3398 28.7012 35.5411 29.0478 35.7422 29.3945C35.7968 29.4884 35.8515 29.5823 35.9077 29.6791C36.6443 30.947 37.348 32.232 38.0413 33.524C38.1718 33.767 38.3027 34.0098 38.4338 34.2525C38.5051 34.3849 38.5763 34.5173 38.6475 34.6497C38.7074 34.7611 38.7673 34.8725 38.829 34.9873C39.1148 35.5484 39.1711 36.1297 39.0026 36.7405C38.7419 37.3366 38.2691 37.7014 37.6953 37.9883C36.9003 38.0382 36.125 37.9543 35.3394 37.8418C35.1418 37.8137 34.9442 37.7863 34.7466 37.7594C34.6609 37.7471 34.5753 37.7349 34.4871 37.7222C34.3857 37.7133 34.2842 37.7045 34.1797 37.6953C34.0654 37.6794 34.0654 37.6794 33.9488 37.6631C33.4523 37.6178 33.4523 37.6178 33.0246 37.8383C32.8573 38.0506 32.7184 38.2677 32.5806 38.5002C32.5282 38.5821 32.4759 38.664 32.4219 38.7484C32.2558 39.0099 32.0947 39.274 31.9336 39.5386C31.8224 39.7159 31.7109 39.893 31.599 40.07C31.4419 40.3187 31.2853 40.5677 31.131 40.8183C31.0853 40.8926 31.0396 40.9669 30.9925 41.0434C30.9525 41.1089 30.9125 41.1744 30.8713 41.2419C30.7617 41.4062 30.7617 41.4062 30.5664 41.6016C30.537 41.4889 30.5077 41.3762 30.4774 41.2601C28.4103 32.8074 28.4103 32.8074 24.707 25C24.7689 24.9996 24.8308 24.9992 24.8946 24.9988C26.9966 24.9804 26.9966 24.9804 28.7476 23.9044C28.9653 23.6657 29.1337 23.4232 29.2969 23.1445Z" fill="#E38B9A"/>
<path d="M20.6055 23.1445C20.847 23.3768 21.0651 23.6179 21.2769 23.877C21.5439 24.1938 21.8129 24.398 22.168 24.6094C22.1053 25.0711 21.9803 25.4941 21.825 25.9315C21.7749 26.0753 21.7249 26.2191 21.6748 26.3629C21.6486 26.4374 21.6225 26.5119 21.5956 26.5886C21.1596 27.8327 20.7362 29.0776 20.3754 30.346C20.3099 30.5753 20.2427 30.8042 20.1752 31.0329C19.8993 31.9747 19.646 32.9211 19.4033 33.872C19.2697 34.3944 19.1341 34.9163 18.9986 35.4383C18.944 35.6498 18.8898 35.8614 18.8356 36.073C18.7441 36.4299 18.65 36.786 18.5544 37.1418C18.5185 37.277 18.4833 37.4125 18.4489 37.5481C18.2062 38.5039 17.9249 39.1737 17.1021 39.7461C16.51 39.9356 15.9077 39.9184 15.3343 39.6667C14.7037 39.2967 14.2829 38.5472 13.895 37.9456C13.8461 37.8708 13.7973 37.796 13.7469 37.719C13.5931 37.4836 13.4402 37.2477 13.2874 37.0117C13.1823 36.8506 13.0772 36.6895 12.9721 36.5284C12.7164 36.1365 12.4615 35.7442 12.207 35.3516C11.389 35.4022 10.5739 35.4589 9.75952 35.553C9.27036 35.6094 8.79431 35.6564 8.30078 35.6445C8.45798 35.0907 8.72001 34.6136 8.99658 34.1125C9.04757 34.0197 9.09855 33.9269 9.15108 33.8313C10.0168 32.2679 10.9348 30.7319 11.8835 29.2175C11.9293 29.1441 11.9751 29.0707 12.0222 28.9951C12.1457 28.8003 12.2727 28.6087 12.4023 28.418C12.4707 28.3169 12.5391 28.2158 12.6095 28.1116C12.9754 27.6891 13.508 27.4859 14.0015 27.2461C16.3173 26.0795 18.5055 24.6641 20.6055 23.1445Z" fill="#E38B9A"/>
<path d="M14.6483 14.1588C15.0772 14.2622 15.5001 14.3832 15.9236 14.5067C16.1031 14.5581 16.1031 14.5581 16.2862 14.6107C16.5377 14.6829 16.7891 14.7554 17.0404 14.8284C17.3626 14.9219 17.6849 15.0147 18.0074 15.1071C18.3159 15.1956 18.6242 15.2845 18.9326 15.3734C19.0484 15.4067 19.1643 15.4401 19.2837 15.4745C19.4436 15.5209 19.4436 15.5209 19.6068 15.5683C19.7009 15.5956 19.7949 15.6228 19.8919 15.6509C20.117 15.7213 20.117 15.7213 20.3124 15.8189C20.3124 16.3346 20.3124 16.8502 20.3124 17.3814C19.5577 17.2547 18.8318 17.0865 18.0968 16.8748C17.9924 16.8452 17.8879 16.8155 17.7804 16.7849C17.4523 16.6914 17.1245 16.5971 16.7967 16.5025C16.6889 16.4715 16.5811 16.4406 16.47 16.4086C16.1556 16.3182 15.8414 16.2274 15.5272 16.1363C15.4323 16.1089 15.3374 16.0814 15.2397 16.0531C14.8113 15.928 14.384 15.7999 13.959 15.6637C13.8894 15.6414 13.8199 15.6191 13.7482 15.5962C13.4928 15.4932 13.3894 15.3879 13.2811 15.1353C13.2145 14.7439 13.2503 14.5962 13.4703 14.2625C13.8796 13.9869 14.1862 14.0708 14.6483 14.1588Z" fill="#CC5B6F"/>
<path d="M20.3125 12.4023C20.6249 12.5585 20.8158 12.6785 21.0693 12.9028C21.1592 12.9818 21.1592 12.9818 21.2509 13.0623C21.2957 13.1023 21.3405 13.1423 21.3867 13.1836C21.3265 13.5111 21.2055 13.7112 21.0083 13.9771C20.6908 14.4357 20.5385 14.8905 20.4102 15.4297C20.3779 15.4297 20.3457 15.4297 20.3125 15.4297C20.3125 14.4307 20.3125 13.4316 20.3125 12.4023Z" fill="#CD5E72"/>
</g>
<defs>
<clipPath id="clip0_3139_42833">
<rect width="50" height="50" fill="white"/>
</clipPath>
</defs>
</svg>
