<svg width="50" height="50" viewBox="0 0 50 50" fill="none" xmlns="http://www.w3.org/2000/svg">
<path d="M6.08725 17.2116C5.77883 14.1522 7.07956 10.7321 8.96945 8.3668C14.2911 1.70645 24.804 0.902312 31.3053 6.29126C36.474 10.5759 37.8565 17.5407 34.3836 23.3335C34.7179 23.3423 35.0633 23.3987 35.3985 23.4305C35.8443 23.4729 36.2916 23.4975 36.7393 23.5043C39.648 23.5584 42.5365 23.0649 45.1488 21.7411C45.4268 21.6003 46.1454 21.2236 46.451 20.9666C47.2642 20.283 48.5108 20.1164 48.9644 21.3086C49.1429 21.778 48.9486 23.0785 49.0245 23.6101C49.0313 24.8379 49.024 26.0479 49.0142 27.2735C48.817 32.8074 46.4171 37.7193 42.4249 41.4878C39.1859 44.5093 35.0902 46.4529 30.7013 47.0513C29.2083 47.2518 26.6124 47.3125 25.0389 47.2442C19.8452 47.0184 12.9596 46.1783 9.12172 42.2989C8.79611 41.9698 8.5037 41.5647 8.2278 41.201C6.54943 38.9886 5.45168 36.1558 5.5287 33.3611C5.60282 30.6724 6.74748 28.0008 8.75336 26.1998C9.00373 25.9749 9.34245 25.6824 9.659 25.5499C9.3226 25.2771 8.39181 24.0774 8.18141 23.6599C8.16576 23.6543 8.15011 23.6486 8.13446 23.643C8.07253 23.6631 8.00963 23.6801 7.94599 23.694C6.43432 24.0255 5.04152 23.5866 3.76513 22.7722C3.13637 22.371 1.13573 20.8116 0.995678 20.1135C0.937704 19.8246 1.00962 19.5525 1.23856 19.3588C1.54708 19.0977 2.59399 18.8252 3.02287 18.6658C3.41549 18.5198 5.93346 17.4498 6.08725 17.2116Z" fill="#F6B834"/>
<path d="M6.08725 17.2117L6.12704 17.228C6.38554 17.1363 6.63039 17.0344 6.90553 17.1477C7.11034 17.232 7.21701 17.4499 7.28505 17.6511C7.39762 17.9839 7.49538 18.3267 7.60871 18.6607C7.84501 19.3797 8.14606 20.0757 8.50817 20.7402C8.60402 20.9146 8.90592 21.4414 9.01088 21.5575C9.66806 22.2844 9.86379 22.9332 8.78993 23.3859C8.70761 23.4206 8.22402 23.6006 8.18141 23.66C8.16576 23.6543 8.15011 23.6487 8.13446 23.643C8.07253 23.6631 8.00964 23.6801 7.94599 23.694C6.43432 24.0256 5.04152 23.5866 3.76513 22.7722C3.13637 22.371 1.13573 20.8116 0.995678 20.1136C0.937704 19.8246 1.00962 19.5526 1.23856 19.3589C1.54708 19.0978 2.59399 18.8253 3.02287 18.6658C3.4155 18.5198 5.93346 17.4498 6.08725 17.2117Z" fill="#F95F54"/>
<path d="M41.6479 29.1491C42.4045 29.1376 43.0966 29.2614 43.1027 30.2397C43.1054 30.6589 42.9975 31.1804 42.9152 31.5959C42.4191 34.0461 41.1984 36.291 39.4113 38.039C37.403 40.0073 34.7846 41.2329 31.987 41.5141C31.4621 41.5661 30.9257 41.5793 30.3996 41.5817C28.728 41.59 27.0563 41.5812 25.385 41.5793C23.5521 41.5769 21.8871 40.8547 20.6004 39.5585C20.4317 39.3886 20.2792 39.1975 20.1182 39.02C20.1468 39.0224 20.1996 39.0275 20.2242 39.0424C20.6061 39.2731 20.9937 39.4819 21.4056 39.6564C21.9055 39.8691 22.4321 40.0126 22.9707 40.0827C23.5281 40.154 24.1474 40.154 24.7075 40.1564L26.7004 40.1594C27.8859 40.1601 29.3137 40.1918 30.4694 40.1037C32.6994 39.9335 35.1767 38.9326 36.945 37.5573C39.5705 35.4934 41.2634 32.4667 41.6479 29.1491Z" fill="#ECB54C"/>
<path d="M12.8692 18.7165C11.6116 17.1693 12.3382 13.7237 14.7837 14.1032C14.9749 14.1329 15.3651 14.3066 15.5102 14.4333C16.086 14.8453 16.4125 15.5611 16.5284 16.2436C16.7198 17.3715 16.2908 18.7283 15.2448 19.3042C14.6096 19.652 13.8933 19.5734 13.317 19.1496C13.1487 19.0263 12.998 18.8806 12.8692 18.7165Z" fill="#474647"/>
<path d="M15.5101 14.4336C16.086 14.8456 16.4124 15.5613 16.5283 16.2439C16.7198 17.3718 16.2907 18.7286 15.2448 19.3044C14.6096 19.6522 13.8932 19.5737 13.3169 19.1499C13.1486 19.0266 12.9979 18.8809 12.8691 18.7167C13.1128 18.6895 13.3969 18.8008 13.6534 18.8016C15.3561 18.8071 16.087 16.8024 15.7742 15.3722C15.7063 15.0617 15.5615 14.7503 15.5101 14.4336Z" fill="#2D2D2D"/>
<path d="M13.3983 15.3713C13.6065 15.3164 13.8281 15.378 13.9781 15.5324C14.1281 15.6868 14.1832 15.9102 14.1222 16.1166C14.0612 16.3231 13.8937 16.4807 13.6838 16.5288C13.3666 16.6017 13.0495 16.4066 12.9716 16.0905C12.8936 15.7745 13.0836 15.4543 13.3983 15.3713Z" fill="#E5E5FE"/>
<path d="M21.0672 6.03872C22.8482 5.92119 25.1246 6.49672 26.723 7.25009C28.1185 7.8874 29.2921 8.78764 30.3414 9.90021C30.8424 10.4312 31.7086 11.4343 30.5213 11.8268C30.306 11.8671 30.1878 11.8526 29.9974 11.7121C29.6644 11.4663 29.3751 11.0253 29.0821 10.7339C28.379 10.0347 27.6439 9.43764 26.7789 8.95017C25.6927 8.33593 24.4723 7.92043 23.2486 7.68671C22.5435 7.55207 21.8163 7.56999 21.1064 7.48373C20.8353 7.45078 20.4876 7.22807 20.4445 6.93596C20.3749 6.46411 20.5888 6.12031 21.0672 6.03872Z" fill="#ECB54C"/>
<path d="M9.50273 32.0633C9.83474 32.0498 10.2322 32.2117 10.3134 32.575C10.3874 32.9063 10.3186 33.398 10.3174 33.7549C10.3125 35.1629 10.8534 36.5608 11.6121 37.7312C11.9109 38.1951 12.2919 38.6009 12.5213 39.0989C12.5589 39.1809 12.4978 39.4873 12.4417 39.5664C12.2828 39.8326 12.1583 39.9012 11.886 39.9866C11.2768 40.0994 10.7264 39.0909 10.4294 38.647C9.38425 37.0855 8.72197 35.1932 8.81421 33.2996C8.84316 32.7049 8.83894 32.2732 9.50273 32.0633Z" fill="#ECB54C"/>
<path d="M31.9422 13.4375C32.0701 13.4463 32.2047 13.4725 32.3184 13.5339C32.5482 13.6581 32.6392 13.92 32.7059 14.1569C32.8638 14.7176 33.1925 16.5036 32.9063 16.9826C32.7623 17.2237 32.545 17.2804 32.2909 17.3452C31.5765 17.3062 31.5015 16.6545 31.5001 16.0914C31.4984 15.4737 31.3336 14.9294 31.2198 14.3313C31.1178 13.7947 31.4222 13.4816 31.9422 13.4375Z" fill="#ECB54C"/>
<path d="M33.9128 28.7405C34.7795 28.7034 35.7629 28.7388 36.6391 28.7312C37.1293 28.7268 38.2848 28.6985 38.6891 28.7771C39.0585 29.0842 39.0099 29.4898 38.5505 29.6619C37.7157 29.7217 36.6491 29.6697 35.7983 29.6858C35.4101 29.6931 34.1967 29.7051 33.8571 29.6558C33.425 29.3865 33.4587 28.9692 33.9128 28.7405Z" fill="#ECB54C"/>
<path d="M10.9936 28.7383C11.3754 28.7075 11.72 28.8584 11.8675 29.2324C11.9349 29.4055 11.9269 29.5986 11.8452 29.7654C11.7243 30.0127 11.1039 30.7807 10.8729 30.9907C10.8333 31.0266 10.7038 31.0735 10.6467 31.094C10.014 31.2361 9.55334 30.6765 9.78936 30.1037C9.97983 29.6413 10.5254 28.9463 10.9936 28.7383Z" fill="#ECB54C"/>
<path d="M31.9837 28.7222C32.2756 28.6956 32.5928 28.8213 32.6426 29.1409C32.6633 29.2657 32.6294 29.3934 32.5498 29.4917C32.4097 29.6629 32.261 29.6673 32.062 29.6812C31.9583 29.6866 31.8142 29.6675 31.7075 29.657C31.1641 29.2786 31.3543 28.7754 31.9837 28.7222Z" fill="#ECB54C"/>
</svg>
