<svg width="50" height="50" viewBox="0 0 50 50" fill="none" xmlns="http://www.w3.org/2000/svg">
<path d="M38.6155 8C39.0246 8.25552 39.3822 8.54438 39.7441 8.86108C40.1192 9.18593 40.4953 9.50751 40.8834 9.81724C41.3141 10.1618 41.7329 10.5186 42.1502 10.8787C42.41 11.1026 42.6707 11.3246 42.9371 11.5407C44.5099 12.8173 45.76 14.4697 45.9756 16.5368C46.1242 18.6902 45.5888 20.3206 44.4987 22.1688C43.642 23.6336 42.9676 25.1767 42.3811 26.7641C42.3524 26.8412 42.3236 26.9183 42.294 26.9977C40.8221 30.9922 40.1401 35.2976 39.8992 39.5271C39.8943 39.6138 39.8893 39.7005 39.8842 39.7898C39.7545 42.1822 39.8133 44.5726 39.8992 46.9651C39.2214 46.9651 38.5436 46.9651 37.8453 46.9651C37.8716 46.6698 37.8716 46.6698 37.8984 46.3685C37.9157 46.1724 37.933 45.9762 37.9502 45.7801C37.962 45.6464 37.9739 45.5128 37.9859 45.3791C38.1301 43.7634 38.2053 42.164 38.2036 40.5414C38.2036 40.4483 38.2035 40.3553 38.2035 40.2595C38.2011 38.6847 38.1597 37.1236 38.0164 35.5545C38.0108 35.4926 38.0052 35.4306 37.9994 35.3668C37.8684 33.9347 37.7073 32.5081 37.4601 31.0906C37.4439 30.9955 37.4277 30.9003 37.4111 30.8023C37.2929 30.1673 37.1486 29.5025 36.5936 29.0991C36.1624 28.8093 35.7001 28.6782 35.1778 28.7246C34.4408 28.8795 33.9919 29.2592 33.5608 29.8439C33.5136 29.9067 33.4663 29.9694 33.4177 30.034C32.4085 31.3901 31.5262 32.7929 30.7419 34.2867C30.694 34.3773 30.694 34.3773 30.6451 34.4697C30.4417 34.8561 30.2472 35.2461 30.0572 35.639C30.0253 35.7047 29.9934 35.7703 29.9605 35.8379C29.1628 37.4893 28.5125 39.1969 27.9243 40.9307C27.4706 42.2656 27.0081 43.4561 26.0348 44.5139C25.9654 44.5903 25.8961 44.6667 25.8246 44.7454C24.6152 46.0097 22.9593 46.8542 21.1871 46.9888C20.8452 46.9978 20.5039 46.9995 20.162 46.9979C20.0318 46.9983 19.9017 46.9987 19.7715 46.9993C19.4214 47.0004 19.0713 47 18.7212 46.9992C18.3529 46.9985 17.9847 46.9991 17.6164 46.9995C16.9985 47 16.3805 46.9994 15.7626 46.9982C15.0503 46.9968 14.3379 46.9972 13.6256 46.9986C13.0114 46.9998 12.3973 46.9999 11.7832 46.9993C11.4175 46.9989 11.0518 46.9988 10.6861 46.9997C10.3423 47.0004 9.99852 46.9999 9.65472 46.9984C9.52926 46.9981 9.40379 46.9982 9.27832 46.9987C7.79402 47.0048 6.44022 46.6178 5.35089 45.5774C4.56341 44.7105 3.95794 43.7848 4.00229 42.5854C4.08127 42.0228 4.31661 41.5663 4.75147 41.1911C5.22506 40.8799 5.7812 40.7521 6.32213 40.5986C8.57743 39.9526 10.6485 39.0569 12.3416 37.414C12.4012 37.3563 12.4607 37.2985 12.5221 37.239C13.2211 36.5139 13.6556 35.6197 14.0532 34.7093C14.1147 34.7102 14.1762 34.711 14.2396 34.712C18.1252 34.7603 21.4644 33.9612 24.3232 31.2438C24.3772 31.1958 24.4313 31.1477 24.487 31.0982C25.5989 30.0807 26.3057 28.6702 27.053 27.3878C27.3232 26.9242 27.5983 26.4634 27.8749 26.0034C28.2996 25.295 28.7214 24.5849 29.1426 23.8745C29.672 22.9814 30.2047 22.0904 30.7396 21.2005C31.193 20.4456 31.643 19.6888 32.0919 18.9314C32.526 18.1992 32.9617 17.468 33.3994 16.7379C33.6573 16.3073 33.9142 15.8762 34.1699 15.4443C34.1999 15.3935 34.23 15.3427 34.261 15.2904C34.3066 15.2134 34.3066 15.2134 34.3531 15.1349C34.4153 15.0299 34.4775 14.9249 34.5396 14.82C34.5705 14.7679 34.6013 14.7158 34.6331 14.6622C35.0606 13.9406 35.4931 13.2221 35.9303 12.5061C36.4297 11.6884 36.9158 10.8638 37.3972 10.0356C37.7949 9.35194 38.2003 8.67344 38.6155 8Z" fill="#6BBFDC"/>
<path d="M45.9146 17C45.9428 17 45.971 17 46 17C45.9945 18.5776 45.3688 19.8197 44.6177 21.1659C43.7373 22.7446 43.0213 24.3787 42.4125 26.0853C42.3838 26.1649 42.3551 26.2446 42.3255 26.3267C40.8565 30.4552 40.1758 34.9051 39.9354 39.2764C39.9305 39.366 39.9255 39.4556 39.9204 39.5479C39.7909 42.0206 39.8496 44.4912 39.9354 46.9639C39.2589 46.9639 38.5824 46.9639 37.8854 46.9639C37.9117 46.6587 37.9117 46.6587 37.9385 46.3473C37.9558 46.1446 37.973 45.9419 37.9902 45.7392C38.002 45.601 38.0138 45.4629 38.0257 45.3248C38.1697 43.6548 38.2448 42.0018 38.2431 40.3247C38.243 40.2286 38.243 40.1324 38.2429 40.0334C38.2406 38.4058 38.1992 36.7923 38.0563 35.1706C38.0507 35.1065 38.0451 35.0425 38.0393 34.9766C37.9085 33.4964 37.7477 32.022 37.501 30.5569C37.4849 30.4586 37.4687 30.3602 37.4521 30.2589C37.3341 29.6026 37.1901 28.9156 36.6362 28.4986C36.2058 28.1991 35.7445 28.0635 35.2232 28.1116C34.4876 28.2716 34.0395 28.6641 33.6092 29.2684C33.5621 29.3332 33.515 29.3981 33.4665 29.4649C32.4592 30.8665 31.5787 32.3163 30.7958 33.8602C30.748 33.9538 30.748 33.9538 30.6992 34.0494C30.4963 34.4487 30.3021 34.8518 30.1125 35.2579C30.0806 35.3257 30.0488 35.3936 30.0159 35.4635C29.2198 37.1702 28.5707 38.9352 27.9837 40.7271C27.5309 42.1068 27.0693 43.3372 26.0979 44.4305C26.0287 44.5095 25.9594 44.5884 25.888 44.6698C24.681 45.9765 23.0284 46.8493 21.2596 46.9884C20.9184 46.9977 20.5777 46.9994 20.2365 46.9978C20.1066 46.9982 19.9767 46.9987 19.8467 46.9992C19.4973 47.0004 19.1479 47 18.7985 46.9991C18.4309 46.9985 18.0634 46.9991 17.6958 46.9995C17.0791 47 16.4624 46.9994 15.8456 46.9981C15.1347 46.9967 14.4237 46.9971 13.7127 46.9986C13.0998 46.9998 12.4869 46.9999 11.8739 46.9993C11.5089 46.9988 11.144 46.9988 10.779 46.9997C10.4358 47.0004 10.0927 46.9999 9.74959 46.9984C9.62437 46.998 9.49914 46.9981 9.37392 46.9987C7.84116 47.0052 6.55992 46.577 5.42608 45.4973C5.25188 45.2992 5.13077 45.0969 5 44.8673C5.12411 44.8673 5.12411 44.8673 5.25073 44.8672C7.26924 44.8659 9.28774 44.8622 11.3062 44.8558C12.2824 44.8528 13.2585 44.8506 14.2347 44.8503C15.0861 44.85 15.9374 44.8482 16.7888 44.8446C17.2391 44.8427 17.6894 44.8416 18.1397 44.8423C18.5646 44.843 18.9895 44.8416 19.4144 44.8387C19.5693 44.838 19.7242 44.838 19.8791 44.8388C21.6476 44.8474 23.0495 44.4173 24.3656 43.1522C25.2748 42.1874 25.6666 40.9077 26.0718 39.6621C27.3933 35.6126 29.1545 31.416 31.8208 28.0945C31.8845 28.0098 31.9481 27.9252 32.0137 27.8379C32.7726 26.8427 33.6524 26.1288 34.8958 25.9106C35.041 25.9021 35.1865 25.8971 35.3319 25.8952C37.8349 25.8402 39.9183 25.2292 41.7292 23.3772C41.7842 23.3209 41.8393 23.2646 41.896 23.2065C42.8222 22.1884 43.4943 20.8714 44.2183 19.7023C44.4879 19.2671 44.7581 18.8324 45.0284 18.3977C45.0779 18.3179 45.1274 18.2382 45.1784 18.1559C45.3095 17.9451 45.441 17.7345 45.5729 17.5242C45.6257 17.4397 45.6257 17.4397 45.6796 17.3535C45.7555 17.2341 45.8346 17.1167 45.9146 17Z" fill="#509BAD"/>
<path d="M33.9952 3C34.2299 3.0162 34.2299 3.0162 34.3832 3.18896C34.4017 3.35731 34.4017 3.35731 34.4006 3.56541C34.4006 3.64322 34.4006 3.72103 34.4006 3.8012C34.3998 3.88534 34.399 3.96948 34.3982 4.05616C34.398 4.1422 34.3978 4.22824 34.3975 4.31688C34.3967 4.59239 34.3948 4.86787 34.3928 5.14337C34.392 5.32986 34.3913 5.51635 34.3907 5.70283C34.389 6.16063 34.3865 6.6184 34.3832 7.07618C34.4261 7.0758 34.469 7.07542 34.5131 7.07502C34.9582 7.07121 35.4033 7.0686 35.8484 7.06669C36.0147 7.06582 36.1809 7.06464 36.3472 7.06315C36.5857 7.06106 36.8243 7.06008 37.0629 7.05931C37.1375 7.05842 37.2122 7.05753 37.2891 7.05661C37.3581 7.0566 37.4272 7.05658 37.4983 7.05657C37.5592 7.05619 37.6202 7.0558 37.683 7.05541C37.8323 7.07618 37.8323 7.07618 37.9856 7.24895C38.0048 7.46491 38.0048 7.46491 37.9856 7.68086C37.8323 7.85363 37.8323 7.85363 37.683 7.87441C37.622 7.87402 37.5611 7.87364 37.4983 7.87324C37.4293 7.87323 37.3602 7.87322 37.2891 7.8732C37.2144 7.87231 37.1398 7.87142 37.0629 7.8705C36.9865 7.87026 36.9102 7.87001 36.8315 7.86976C36.5871 7.86879 36.3427 7.86662 36.0982 7.86443C35.9327 7.86356 35.7673 7.86277 35.6018 7.86207C35.1956 7.86016 34.7894 7.85726 34.3832 7.85363C34.3845 7.92582 34.3845 7.92582 34.3858 7.99946C34.3943 8.49969 34.4001 8.9999 34.4043 9.50019C34.4062 9.68697 34.4088 9.87375 34.4121 10.0605C34.4168 10.3288 34.419 10.5969 34.4207 10.8652C34.4236 10.9908 34.4236 10.9908 34.4267 11.1188C34.4267 11.3346 34.4232 11.5298 34.3832 11.7409C34.2084 11.936 34.2084 11.936 34 12C33.8988 11.943 33.7977 11.886 33.6934 11.8272C33.6934 10.5159 33.6934 9.20466 33.6934 7.85363C32.54 7.86047 32.54 7.86047 31.3866 7.86919C31.2423 7.8697 31.0981 7.87014 30.9539 7.8705C30.8785 7.87138 30.8032 7.87227 30.7256 7.87318C30.654 7.8732 30.5825 7.87322 30.5087 7.87324C30.4464 7.87363 30.3841 7.87401 30.3199 7.87441C30.1677 7.85363 30.1677 7.85363 30.0144 7.68086C29.9952 7.46491 29.9952 7.46491 30.0144 7.24895C30.1677 7.07618 30.1677 7.07618 30.3199 7.05541C30.4134 7.05598 30.4134 7.05598 30.5087 7.05657C30.5793 7.05658 30.6499 7.0566 30.7226 7.05661C30.7989 7.0575 30.8752 7.05839 30.9539 7.05931C31.0319 7.05956 31.11 7.0598 31.1904 7.06005C31.4403 7.06102 31.6902 7.06319 31.9401 7.06539C32.1093 7.06625 32.2784 7.06704 32.4476 7.06775C32.8629 7.06966 33.2781 7.07255 33.6934 7.07618C33.6932 7.02659 33.6931 6.97701 33.6929 6.92591C33.6912 6.41168 33.69 5.89745 33.6892 5.38322C33.6888 5.19108 33.6883 4.99894 33.6876 4.8068C33.6867 4.53128 33.6863 4.25576 33.6859 3.98024C33.6855 3.89377 33.6851 3.8073 33.6847 3.71821C33.6847 3.63866 33.6847 3.55911 33.6847 3.47715C33.6845 3.40675 33.6844 3.33635 33.6842 3.26382C33.6997 2.99292 33.7511 3.01756 33.9952 3Z" fill="#53DAE8"/>
<path d="M11.9952 30C12.2068 30.0213 12.2068 30.0213 12.3761 30.1919C12.3953 30.4383 12.3953 30.4383 12.3926 30.7497C12.3921 30.8607 12.3915 30.9718 12.3909 31.0862C12.3895 31.2039 12.3881 31.3216 12.3866 31.4394C12.3858 31.5578 12.385 31.6761 12.3843 31.7945C12.3823 32.0849 12.3795 32.3752 12.3761 32.6655C12.4863 32.6641 12.4863 32.6641 12.5987 32.6628C12.871 32.6599 13.1432 32.6577 13.4155 32.6561C13.5334 32.6553 13.6513 32.6541 13.7692 32.6526C13.9385 32.6505 14.1079 32.6497 14.2772 32.6488C14.4302 32.6475 14.4302 32.6475 14.5862 32.6461C14.8307 32.6655 14.8307 32.6655 15 32.8361C14.9788 33.0973 14.9788 33.0973 14.9154 33.3478C14.6768 33.468 14.4775 33.4427 14.2111 33.4415C14.1047 33.4412 13.9983 33.4409 13.8887 33.4406C13.7771 33.4399 13.6655 33.4392 13.5505 33.4385C13.4371 33.438 13.3237 33.4377 13.2103 33.4373C12.9322 33.4363 12.6541 33.4349 12.3761 33.4331C12.3765 33.5046 12.377 33.576 12.3774 33.6497C12.3789 33.9145 12.3799 34.1793 12.3807 34.4441C12.3814 34.6153 12.3824 34.7864 12.3835 34.9575C12.3838 35.0647 12.3841 35.1719 12.3843 35.2823C12.3848 35.3815 12.3852 35.4806 12.3857 35.5828C12.3761 35.8214 12.3761 35.8214 12.2914 35.992C12.0481 36.0027 12.0481 36.0027 11.7836 35.992C11.6143 35.8214 11.6143 35.8214 11.5951 35.5828C11.5959 35.4836 11.5968 35.3845 11.5977 35.2823C11.5983 35.1751 11.5988 35.0679 11.5994 34.9575C11.6008 34.845 11.6022 34.7325 11.6037 34.6166C11.6045 34.5023 11.6053 34.3881 11.606 34.2738C11.608 33.9935 11.6108 33.7133 11.6143 33.4331C11.5438 33.4345 11.4733 33.4358 11.4007 33.4372C11.1391 33.4416 10.8774 33.4448 10.6157 33.4472C10.4468 33.4491 10.2779 33.4524 10.1091 33.4556C10.0029 33.4565 9.89684 33.4573 9.78751 33.4581C9.68955 33.4595 9.59159 33.4608 9.49066 33.4622C9.24427 33.4331 9.24427 33.4331 9.08203 33.3176C8.99034 33.1773 8.99034 33.1773 9.01151 32.9534C9.07499 32.7508 9.07499 32.7508 9.15963 32.6655C9.34124 32.658 9.52309 32.6564 9.70485 32.6572C9.81532 32.6574 9.9258 32.6577 10.0396 32.658C10.1572 32.6587 10.2747 32.6594 10.3922 32.6602C10.5101 32.6606 10.628 32.661 10.7459 32.6613C11.0353 32.6623 11.3248 32.6637 11.6143 32.6655C11.6134 32.5914 11.6125 32.5174 11.6116 32.4411C11.6087 32.1668 11.6066 31.8924 11.605 31.618C11.6041 31.4992 11.603 31.3804 11.6015 31.2616C11.5995 31.091 11.5986 30.9203 11.5977 30.7497C11.5969 30.6469 11.596 30.5442 11.5951 30.4383C11.6198 30.1217 11.6765 30.0321 11.9952 30Z" fill="#54D9E8"/>
<path d="M32.0806 11.004C32.2662 11.0628 32.2662 11.0628 32.3443 11.1413C32.3511 11.2524 32.3527 11.3637 32.352 11.475C32.3517 11.542 32.3515 11.609 32.3512 11.678C32.3505 11.7485 32.3499 11.8189 32.3492 11.8915C32.3489 11.9622 32.3485 12.0329 32.3481 12.1058C32.3472 12.2812 32.3459 12.4565 32.3443 12.6318C32.4106 12.6306 32.4106 12.6306 32.4781 12.6293C32.6777 12.6261 32.8773 12.624 33.0769 12.622C33.1464 12.6207 33.2159 12.6194 33.2875 12.618C33.354 12.6175 33.4205 12.617 33.489 12.6165C33.5811 12.6153 33.5811 12.6153 33.675 12.614C33.8291 12.6318 33.8291 12.6318 33.9853 12.7887C34.0049 12.9848 34.0049 12.9848 33.9853 13.181C33.8291 13.3379 33.8291 13.3379 33.675 13.3557C33.6136 13.3549 33.5523 13.354 33.489 13.3532C33.4225 13.3527 33.356 13.3522 33.2875 13.3517C33.1833 13.3497 33.1833 13.3497 33.0769 13.3477C32.9718 13.3466 32.9718 13.3466 32.8645 13.3455C32.6911 13.3437 32.5177 13.3411 32.3443 13.3379C32.3451 13.3822 32.346 13.4265 32.3468 13.4722C32.35 13.6726 32.3521 13.8729 32.3541 14.0733C32.3554 14.1431 32.3567 14.2129 32.3581 14.2848C32.3586 14.3515 32.3591 14.4183 32.3596 14.487C32.3604 14.5486 32.3612 14.6103 32.3621 14.6738C32.3443 14.8284 32.3443 14.8284 32.188 14.9853C31.9927 15.0049 31.9927 15.0049 31.7973 14.9853C31.641 14.8284 31.641 14.8284 31.6233 14.6738C31.6241 14.6121 31.6249 14.5505 31.6258 14.487C31.6263 14.4203 31.6268 14.3535 31.6273 14.2848C31.6286 14.215 31.6299 14.1452 31.6313 14.0733C31.632 14.0029 31.6327 13.9326 31.6334 13.86C31.6352 13.686 31.6378 13.5119 31.641 13.3379C31.5969 13.3387 31.5527 13.3395 31.5072 13.3404C31.3076 13.3436 31.108 13.3457 30.9084 13.3477C30.8389 13.349 30.7694 13.3503 30.6978 13.3517C30.6313 13.3522 30.5648 13.3527 30.4963 13.3532C30.4043 13.3544 30.4043 13.3544 30.3103 13.3557C30.1563 13.3379 30.1563 13.3379 30 13.181C30.0444 12.7441 30.0444 12.7441 30.1563 12.6318C30.2669 12.625 30.3779 12.6234 30.4887 12.6242C30.5888 12.6245 30.5888 12.6245 30.6909 12.6249C30.7611 12.6256 30.8313 12.6262 30.9035 12.6269C30.974 12.6273 31.0445 12.6276 31.1171 12.628C31.2917 12.6289 31.4664 12.6302 31.641 12.6318C31.6369 12.483 31.6369 12.483 31.6328 12.3312C31.6306 12.201 31.6285 12.0707 31.6264 11.9405C31.6244 11.8751 31.6224 11.8097 31.6204 11.7424C31.6197 11.6794 31.6189 11.6165 31.6181 11.5516C31.6169 11.4937 31.6157 11.4358 31.6144 11.3761C31.6635 11.088 31.7946 10.9767 32.0806 11.004Z" fill="#53DAE8"/>
<path d="M37.375 45C38.1587 45 38.9425 45 39.75 45C39.7785 45.2306 39.807 45.4612 39.8354 45.6917C39.8648 45.9245 39.8648 45.9245 40 46.1667C40 46.4417 40 46.7167 40 47C39.01 47 38.02 47 37 47C37.0387 46.7164 37.0773 46.4328 37.1172 46.1406C37.1291 46.0515 37.141 45.9625 37.1533 45.8707C37.1631 45.8002 37.173 45.7298 37.1831 45.6572C37.1929 45.5852 37.2027 45.5132 37.2129 45.439C37.25 45.25 37.25 45.25 37.375 45Z" fill="#397181"/>
<path d="M15.382 37.0168C15.6492 37.1863 15.8212 37.305 15.9642 37.5833C16.0275 38.0314 16.032 38.3369 15.7641 38.7162C15.4191 38.9448 15.2175 39.0066 14.7999 38.9995C14.4364 38.8126 14.252 38.6718 14.0237 38.3386C13.979 37.9467 13.9777 37.7471 14.1996 37.4121C14.5921 37.0302 14.8329 36.9615 15.382 37.0168Z" fill="#F9FCFD"/>
<path d="M43.3837 15.0309C43.6551 15.2049 43.8193 15.3237 43.9633 15.6128C44.0122 16.1127 44.0122 16.1127 43.9633 16.3887C43.7278 16.6736 43.7278 16.6736 43.4803 16.8737C43.4484 16.9057 43.4165 16.9377 43.3837 16.9707C43.1004 16.9991 42.8867 17.0192 42.6109 16.9707C42.3271 16.7343 42.3271 16.7343 42.1279 16.4857C42.096 16.4537 42.0641 16.4217 42.0313 16.3887C41.9743 15.7024 41.9743 15.7024 42.2124 15.3279C42.5635 14.9858 42.9096 14.9625 43.3837 15.0309Z" fill="#FAFDFE"/>
<path d="M12.3843 40.014C12.6509 40.1875 12.8226 40.309 12.9654 40.5937C13.028 41.0482 13.0272 41.3658 12.7777 41.7592C12.4321 41.9773 12.2208 42.0158 11.8183 41.9951C11.4872 41.9179 11.3289 41.7236 11.1253 41.4633C11.0933 41.4314 11.0613 41.3995 11.0284 41.3667C10.9913 41.0521 10.9629 40.8003 11.1298 40.5201C11.5263 40.0397 11.7662 39.9618 12.3843 40.014Z" fill="#FAFDFD"/>
<path d="M16.2961 41.0175C16.5683 41.1727 16.7758 41.348 16.9654 41.6004C17.0336 41.9953 17.0065 42.195 16.8339 42.5537C16.5435 42.951 16.5435 42.951 16.2763 42.9966C15.8503 43.0077 15.6015 43.0049 15.2323 42.7723C14.9925 42.3744 14.9491 42.0558 15.053 41.6004C15.4201 41.1292 15.7029 40.9379 16.2961 41.0175Z" fill="#FAFDFE"/>
<path d="M41.3897 12.0149C41.6505 12.1904 41.8284 12.3155 41.9693 12.5998C42.0254 13.2909 42.0254 13.2909 41.7882 13.6659C41.4762 13.9715 41.2497 14.0023 40.814 13.9999C40.4867 13.941 40.335 13.729 40.134 13.4771C40.1022 13.4449 40.0703 13.4127 40.0375 13.3796C39.9689 12.6877 39.9689 12.6877 40.2608 12.3134C40.6361 12.0228 40.924 11.9679 41.3897 12.0149Z" fill="#FBFDFE"/>
</svg>
