<svg width="50" height="50" viewBox="0 0 50 50" fill="none" xmlns="http://www.w3.org/2000/svg">
<path d="M34.181 3.6901C34.2874 3.75433 34.3939 3.81856 34.5035 3.88474C34.7143 4.01217 34.9246 4.14053 35.1342 4.26988C35.5108 4.50068 35.8921 4.7229 36.2746 4.94384C36.6242 5.17698 36.8066 5.41853 36.9056 5.81869C37.0754 7.31791 36.5533 8.17048 35.7529 9.38163C36.657 9.94534 37.5702 10.4871 38.4972 11.0125C38.7561 11.1597 39.0149 11.3071 39.2738 11.4545C39.3712 11.51 39.3712 11.51 39.4707 11.5666C40.3465 12.0653 41.2188 12.57 42.0914 13.0743C42.5082 13.3153 42.9255 13.5555 43.3432 13.795C43.5951 13.9394 43.8469 14.084 44.0986 14.2286C44.2763 14.3306 44.4541 14.4322 44.6319 14.5339C44.7394 14.5957 44.8469 14.6575 44.9577 14.7211C45.0523 14.7753 45.1469 14.8295 45.2444 14.8854C45.3283 14.9365 45.4123 14.9877 45.4988 15.0404C45.5721 15.0834 45.6453 15.1263 45.7207 15.1706C45.918 15.3548 45.918 15.3548 45.9726 15.6205C45.9736 15.7265 45.9746 15.8325 45.9756 15.9418C45.9776 16.0621 45.9796 16.1824 45.9816 16.3063C45.9813 16.5013 45.9813 16.5013 45.9811 16.7003C45.9819 16.8338 45.9828 16.9672 45.9838 17.1047C45.985 17.3873 45.9853 17.6697 45.9842 17.9523C45.983 18.314 45.9865 18.6755 45.9914 19.0372C45.9952 19.3826 45.9944 19.7279 45.9941 20.0733C45.9961 20.2031 45.998 20.3329 46 20.4666C45.9906 21.3395 45.9906 21.3395 45.7803 21.6098C45.5537 21.768 45.3578 21.8519 45.0796 21.8519C45.0796 26.4512 45.0796 31.0506 45.0796 35.7893C44.1113 36.3426 43.143 36.8959 42.1454 37.466C41.2369 37.9894 40.3286 38.5132 39.4207 39.0378C37.959 39.8826 36.4959 40.7247 35.0293 41.561C34.1849 42.0426 33.3432 42.5288 32.5042 43.0199C31.6035 43.5472 30.6994 44.0683 29.7927 44.5853C28.7936 45.155 27.7957 45.7265 26.7995 46.3013C26.6853 46.3671 26.5711 46.4329 26.4534 46.5008C25.8768 46.8275 25.8768 46.8275 25.3245 47.1921C25.0638 47.3164 25.0638 47.3164 24.8026 47.2494C24.7159 47.2024 24.6292 47.1553 24.5398 47.1068C24.4111 47.0399 24.4111 47.0399 24.2798 46.9717C24.1887 46.9206 24.0977 46.8696 24.004 46.817C23.8487 46.7301 23.8487 46.7301 23.6902 46.6414C23.524 46.5476 23.524 46.5476 23.3543 46.4519C23.2381 46.3866 23.122 46.3212 23.0023 46.2539C22.0101 45.6944 21.0257 45.1219 20.0431 44.546C19.3823 44.1588 18.7192 43.7756 18.0556 43.3933C17.9424 43.328 17.8292 43.2628 17.7126 43.1956C17.4831 43.0634 17.2537 42.9311 17.0242 42.7989C16.4552 42.4712 15.8866 42.143 15.3179 41.8148C15.0908 41.6838 14.8638 41.5528 14.6367 41.4219C13.2744 40.6359 11.912 39.85 10.5497 39.064C10.4372 38.9991 10.3246 38.9342 10.2087 38.8673C9.98304 38.7371 9.75743 38.6069 9.53185 38.4767C9.0049 38.1724 8.47774 37.8686 7.9497 37.5663C7.76378 37.4598 7.57794 37.3532 7.39212 37.2465C7.15976 37.1132 6.92726 36.9802 6.69458 36.8474C6.58874 36.7866 6.4829 36.7259 6.37385 36.6632C6.23605 36.5844 6.23605 36.5844 6.09547 36.504C5.99186 36.441 5.88826 36.3781 5.78152 36.3132C5.70453 36.2772 5.62755 36.2411 5.54823 36.204C5.1584 35.9967 4.8871 35.8427 4.75301 35.4074C4.72296 35.0518 4.72325 34.7068 4.73331 34.35C4.73333 34.2156 4.73334 34.0813 4.73336 33.9429C4.73341 33.6515 4.73639 33.3604 4.74165 33.0691C4.74989 32.6084 4.75114 32.148 4.75139 31.6873C4.75281 30.7929 4.76113 29.8987 4.77034 29.0044C4.78185 27.8654 4.79083 26.7263 4.79242 25.5872C4.7933 25.1292 4.7979 24.6715 4.80539 24.2136C4.80839 23.9975 4.80973 23.7814 4.81033 23.5653C4.81109 23.3018 4.81449 23.0383 4.82101 22.7749C4.82048 22.6589 4.81995 22.5428 4.81941 22.4232C4.82054 22.3224 4.82167 22.2216 4.82283 22.1178C4.72933 21.7416 4.72933 21.7416 4 21.4327C4 19.3924 4 17.3521 4 15.25C4.62248 14.9042 5.24496 14.5584 5.88631 14.2021C6.28469 13.9721 6.68215 13.7414 7.07835 13.5078C8.07045 12.9259 9.0675 12.3531 10.0673 11.7845C11.0361 11.2333 11.998 10.6713 12.9522 10.0951C13.0404 10.0423 13.1286 9.98947 13.2195 9.93506C13.2963 9.88866 13.3731 9.84226 13.4523 9.79445C13.6411 9.696 13.6411 9.696 13.8507 9.696C13.7851 9.58226 13.7194 9.46852 13.6518 9.35134C13.5652 9.1999 13.4787 9.04844 13.3923 8.89696C13.349 8.82226 13.3058 8.74756 13.2613 8.6706C12.7762 7.81783 12.6167 7.11708 12.698 6.13307C12.9879 5.08931 14.4916 4.55539 15.3637 4.05687C15.4889 3.98492 15.6141 3.91295 15.7393 3.84094C17.0678 3.07826 17.0678 3.07826 18.0425 3.19888C19.1459 3.54369 20.2312 4.43839 20.872 5.39952C21.2497 5.32782 21.542 5.16996 21.8757 4.98199C21.9888 4.9185 22.1019 4.85501 22.2184 4.7896C22.336 4.72287 22.4537 4.65614 22.5749 4.58738C22.749 4.48972 22.749 4.48972 22.9266 4.39008C23.4212 4.11132 23.9066 3.83345 24.3744 3.51162C24.6441 3.34307 24.7341 3.3042 25.063 3.29303C25.4843 3.44732 25.8488 3.65777 26.2296 3.89313C26.3874 3.9881 26.5451 4.08307 26.7029 4.17804C26.8552 4.27078 27.0074 4.36356 27.1597 4.45639C27.3993 4.60154 27.6395 4.74541 27.8802 4.88866C27.9772 4.94729 28.0742 5.00591 28.1741 5.06632C28.4185 5.21368 28.4185 5.21368 28.7316 5.18994C28.8992 5.03314 28.8992 5.03314 29.0591 4.82316C30.5929 3.00646 32.1008 2.39531 34.181 3.6901Z" fill="#FE4E48"/>
<path d="M25.0072 17.2514C25.3194 17.3593 25.585 17.4993 25.871 17.6653C25.9876 17.7325 26.1043 17.7997 26.2245 17.869C26.3508 17.9427 26.477 18.0164 26.6033 18.0902C26.735 18.1664 26.8667 18.2425 26.9985 18.3186C27.2697 18.4753 27.5406 18.6323 27.8114 18.7898C28.2901 19.0681 28.77 19.3443 29.2499 19.6206C29.583 19.8125 29.9158 20.0047 30.2486 20.1971C30.6687 20.4399 31.0891 20.6822 31.5098 20.924C31.7647 21.0705 32.0195 21.2171 32.2744 21.3637C32.4555 21.4679 32.6368 21.5719 32.818 21.6759C32.9265 21.7383 33.035 21.8008 33.1469 21.8652C33.2431 21.9205 33.3394 21.9758 33.4385 22.0327C33.6573 22.164 33.6573 22.164 33.7621 22.2688C33.7741 22.4568 33.7788 22.6452 33.7807 22.8336C33.7827 23.0146 33.7827 23.0146 33.7847 23.1993C33.7855 23.3307 33.7863 23.4621 33.7871 23.5975C33.7879 23.7315 33.7888 23.8655 33.7897 24.0036C33.7912 24.2878 33.7923 24.572 33.793 24.8562C33.7942 25.2205 33.7978 25.5847 33.802 25.9489C33.8054 26.296 33.8058 26.6431 33.8067 26.9902C33.8086 27.1211 33.8104 27.2521 33.8123 27.3871C33.8118 27.5691 33.8118 27.5691 33.8114 27.7548C33.812 27.8617 33.8126 27.9687 33.8132 28.0789C33.7964 28.1673 33.7795 28.2557 33.7621 28.3467C33.6585 28.4155 33.6585 28.4155 33.5527 28.4857C33.3192 28.6441 33.3192 28.6441 33.2897 28.9142C33.2891 29.0656 33.2891 29.0656 33.2886 29.2201C33.2871 29.336 33.2856 29.4519 33.2841 29.5714C33.2849 29.7622 33.2849 29.7622 33.2857 29.957C33.2841 30.1579 33.2841 30.1579 33.2824 30.3628C33.2795 30.7302 33.2792 31.0976 33.2793 31.465C33.2789 31.8489 33.2763 32.2328 33.2738 32.6167C33.2696 33.3438 33.2674 34.0708 33.2661 34.7979C33.2644 35.6255 33.2604 36.4532 33.2562 37.2809C33.2475 38.9836 33.2419 40.6862 33.2381 42.3889C33.3073 42.4235 33.3765 42.458 33.4477 42.4937C33.3879 42.5273 33.328 42.5608 33.2664 42.5954C32.0065 43.3032 30.7521 44.0194 29.5053 44.75C28.5242 45.324 27.5374 45.8881 26.5496 46.4505C26.4318 46.5176 26.3141 46.5847 26.1927 46.6538C26.0885 46.7131 25.9844 46.7724 25.877 46.8334C25.5857 46.9947 25.5857 46.9947 25.3211 47.1917C25.0641 47.3141 25.0641 47.3141 24.8029 47.2471C24.7162 47.2 24.6295 47.153 24.5402 47.1045C24.4543 47.0599 24.3685 47.0153 24.2801 46.9694C24.1436 46.8928 24.1436 46.8928 24.0043 46.8147C23.9008 46.7568 23.7972 46.6988 23.6906 46.6391C23.5797 46.5766 23.4689 46.514 23.3547 46.4496C23.2385 46.3843 23.1223 46.3189 23.0026 46.2516C21.7958 45.571 20.6009 44.8704 19.4052 44.1704C18.5061 43.6516 17.6069 43.1329 16.6805 42.5985C16.7151 37.9991 16.7497 33.3998 16.7853 28.6611C16.6124 28.5919 16.4395 28.5228 16.2613 28.4515C16.1922 28.4169 16.123 28.3823 16.0518 28.3467C16.0518 26.341 16.0518 24.3353 16.0518 22.2688C19.4682 20.2978 19.4682 20.2978 19.8047 20.1037C20.0278 19.975 20.2508 19.8463 20.4738 19.7176C21.0053 19.411 21.5368 19.1044 22.0684 18.798C22.3189 18.6536 22.5695 18.5092 22.82 18.3648C22.9965 18.263 23.173 18.1614 23.3495 18.0597C23.5103 17.967 23.5103 17.967 23.6744 17.8724C23.7684 17.8182 23.8625 17.764 23.9594 17.7082C24.2299 17.5555 24.2299 17.5555 24.4895 17.3694C24.7497 17.2387 24.7497 17.2387 25.0072 17.2514Z" fill="#FFD244"/>
<path d="M37.2137 10.2768C37.5863 10.4565 37.9416 10.6554 38.2944 10.8704C38.4533 10.9655 38.6123 11.0605 38.7713 11.1553C38.9016 11.2331 38.9016 11.2331 39.0344 11.3125C39.56 11.624 40.09 11.9279 40.6196 12.2327C40.7342 12.2988 40.8489 12.3648 40.967 12.4329C41.4488 12.7105 41.9307 12.988 42.4126 13.2654C42.6591 13.4072 42.9055 13.5492 43.1519 13.6911C43.3822 13.8238 43.6126 13.9564 43.843 14.0889C45.7479 15.1865 45.7479 15.1865 45.9183 15.3568C45.9314 15.5442 45.9372 15.7322 45.9401 15.92C45.9422 16.0403 45.9442 16.1606 45.9463 16.2846C45.9523 16.8359 45.9575 17.3872 45.9607 17.9385C45.9626 18.2297 45.9662 18.5209 45.9715 18.8121C45.979 19.2308 45.9814 19.6493 45.9834 20.068C45.9863 20.1984 45.9892 20.3289 45.9922 20.4633C45.9901 21.3417 45.9901 21.3417 45.7812 21.6123C45.5545 21.7706 45.3581 21.8539 45.0799 21.8539C45.0799 26.4533 45.0799 31.0526 45.0799 35.7913C44.1116 36.3446 43.1433 36.8979 42.1457 37.468C40.4994 38.4116 40.4994 38.4116 38.8622 39.371C38.7786 39.4207 38.695 39.4703 38.6089 39.5215C38.4565 39.6123 38.3044 39.7035 38.1525 39.7953C37.6623 40.0878 37.6623 40.0878 37.4299 40.0878C37.4299 35.4885 37.4299 30.8891 37.4299 26.1504C38.5826 25.5217 38.5826 25.5217 38.7922 25.5217C38.7882 24.7346 38.782 23.9476 38.7729 23.1606C38.7688 22.7951 38.7654 22.4297 38.7638 22.0642C38.7619 21.6441 38.7567 21.2241 38.7513 20.804C38.7511 20.6726 38.751 20.5413 38.7509 20.406C38.7488 20.2843 38.7468 20.1627 38.7446 20.0373C38.7437 19.9301 38.7428 19.8228 38.7418 19.7123C38.7128 19.4282 38.7128 19.4282 38.4774 19.2621C38.4084 19.2183 38.3394 19.1745 38.2682 19.1293C38.2177 18.9258 38.2177 18.9258 38.2191 18.6962C38.2179 18.6122 38.2167 18.5281 38.2155 18.4415C38.2156 18.3529 38.2157 18.2644 38.2158 18.1731C38.1973 17.4301 38.1542 16.8358 37.7443 16.1952C37.6837 16.0892 37.6232 15.9833 37.5609 15.8742C36.2841 14.2074 34.3472 13.332 32.2949 13.0514C32.5552 12.7603 32.8424 12.5877 33.1808 12.3956C33.2947 12.3304 33.4087 12.2652 33.5262 12.1981C33.6484 12.1288 33.7707 12.0596 33.893 11.9904C34.8779 11.4353 34.8779 11.4353 35.8416 10.8446C35.9125 10.7994 35.9834 10.7543 36.0564 10.7077C36.2374 10.5909 36.417 10.4718 36.5964 10.3526C36.9059 10.222 36.9059 10.222 37.2137 10.2768Z" fill="#EBB70A"/>
<path d="M13.443 10.4369C13.6516 10.5703 13.8574 10.7082 14.0603 10.8499C14.2739 10.9728 14.4884 11.0941 14.7038 11.2139C14.9175 11.3388 15.1309 11.4642 15.3441 11.59C15.4513 11.6528 15.5586 11.7155 15.6691 11.7802C15.972 11.9579 16.2738 12.1372 16.5754 12.317C16.6623 12.3681 16.7493 12.4191 16.8388 12.4717C17.0341 12.5889 17.2246 12.7141 17.4138 12.841C17.4138 12.9102 17.4138 12.9793 17.4138 13.0506C17.3022 13.0723 17.1906 13.0941 17.0756 13.1165C15.2698 13.4905 13.349 14.289 12.2788 15.88C11.7115 16.8142 11.6251 17.7232 11.6017 18.7937C11.5831 18.9042 11.5644 19.0147 11.5452 19.1285C11.3377 19.2323 11.3377 19.2323 11.1261 19.3381C11.1261 21.3784 11.1261 23.4187 11.1261 25.5209C11.3336 25.59 11.541 25.6592 11.7548 25.7304C11.9969 25.8688 12.239 26.0071 12.4884 26.1496C12.4884 30.749 12.4884 35.3483 12.4884 40.087C10.8176 39.2516 10.8176 39.2516 10.2091 38.8819C10.0594 38.7924 9.90953 38.703 9.75963 38.6138C9.67828 38.5653 9.59692 38.5168 9.5131 38.4669C8.96629 38.1441 8.41484 37.8294 7.86432 37.513C7.09513 37.0703 6.32665 36.6267 5.56538 36.1704C5.47001 36.1133 5.47001 36.1133 5.37272 36.0551C4.95685 35.8042 4.95685 35.8042 4.83836 35.6857C4.8286 35.5076 4.82623 35.3291 4.82672 35.1508C4.82675 35.0349 4.82678 34.9189 4.82682 34.7995C4.82764 34.607 4.82764 34.607 4.82848 34.4107C4.8287 34.2046 4.82892 33.9985 4.82908 33.7924C4.82933 33.5702 4.8298 33.3479 4.83029 33.1257C4.83117 32.6629 4.83061 32.2002 4.82966 31.7374C4.82951 31.6594 4.82936 31.5814 4.8292 31.501C4.82888 31.3414 4.82855 31.1819 4.82822 31.0223C4.82599 29.9445 4.82456 28.8667 4.82792 27.7889C4.83018 27.0625 4.82985 26.3361 4.82652 25.6097C4.82485 25.2251 4.82452 24.8406 4.82733 24.456C4.83044 24.0269 4.82786 23.598 4.8248 23.1688C4.82662 23.0412 4.82844 22.9135 4.83032 22.782C4.82771 22.6067 4.82771 22.6067 4.82505 22.428C4.82509 22.3265 4.82513 22.225 4.82517 22.1204C4.72881 21.7433 4.72881 21.7433 4 21.434C4 19.3937 4 17.3534 4 15.2512C4.93372 14.7325 4.93372 14.7325 5.88631 14.2033C6.28469 13.9734 6.68215 13.7426 7.07835 13.5091C8.37358 12.7496 9.67179 11.9929 10.9849 11.2647C11.2369 11.1173 11.4683 10.9691 11.7052 10.8011C12.7402 10.0909 12.7402 10.0909 13.443 10.4369Z" fill="#FED143"/>
<path d="M24.8541 15.7734C25.3232 16.072 25.7353 16.4007 26.151 16.769C26.8736 17.3979 27.6277 17.9737 28.3998 18.54C28.6377 18.7157 28.8736 18.8938 29.1094 19.0723C31.6225 21.1067 31.6225 21.1067 34.6123 22.0127C35.6411 21.8203 37.34 20.9718 37.924 20.1223C38.0725 19.8325 38.1738 19.5429 38.2679 19.2316C38.674 19.3233 38.674 19.3233 38.7919 19.4412C38.8017 19.6309 38.8042 19.821 38.8038 20.011C38.8038 20.1327 38.8037 20.2544 38.8037 20.3797C38.8032 20.5121 38.8027 20.6445 38.8021 20.781C38.8019 20.9831 38.8019 20.9831 38.8017 21.1893C38.8013 21.5482 38.8002 21.907 38.7991 22.2659C38.798 22.6318 38.7975 22.9978 38.797 23.3637C38.7959 24.0822 38.7941 24.8007 38.7919 25.5191C38.6044 25.6244 38.4166 25.7291 38.2286 25.8335C38.124 25.8919 38.0195 25.9502 37.9118 26.0103C37.6391 26.1479 37.6391 26.1479 37.4295 26.1479C37.4295 30.7818 37.4295 35.4157 37.4295 40.19C35.9771 41.02 35.9771 41.02 34.4953 41.8667C34.2186 42.0396 33.942 42.2125 33.6569 42.3907C33.5186 42.3907 33.3802 42.3907 33.2377 42.3907C33.2279 40.6062 33.2205 38.8218 33.216 37.0373C33.2138 36.2088 33.2109 35.3803 33.2061 34.5517C33.2019 33.8297 33.1992 33.1077 33.1983 32.3857C33.1977 32.0033 33.1965 31.6209 33.1934 31.2385C33.19 30.8119 33.1899 30.3853 33.1901 29.9587C33.1886 29.8315 33.1871 29.7043 33.1856 29.5732C33.1861 29.4572 33.1867 29.3413 33.1873 29.2219C33.1869 29.1209 33.1865 29.02 33.1861 28.916C33.2532 28.5872 33.3848 28.529 33.6569 28.3485C33.7177 28.0722 33.7177 28.0722 33.7045 27.7549C33.7045 27.6332 33.7044 27.5116 33.7044 27.3862C33.7022 27.2549 33.7001 27.1236 33.6978 26.9883C33.697 26.7866 33.697 26.7866 33.696 26.5808C33.6944 26.2236 33.6903 25.8665 33.6857 25.5094C33.6814 25.1449 33.6795 24.7803 33.6774 24.4157C33.6729 23.7006 33.6657 22.9856 33.6569 22.2706C33.5904 22.2331 33.5238 22.1956 33.4553 22.1569C31.0759 20.8155 31.0759 20.8155 30.0087 20.1878C29.8005 20.0659 29.5923 19.9441 29.3841 19.8223C29.2786 19.7606 29.1731 19.6989 29.0645 19.6353C28.4676 19.2872 27.8694 18.9416 27.271 18.5963C27.1587 18.5314 27.0464 18.4665 26.9307 18.3996C26.7199 18.2781 26.5089 18.1571 26.2976 18.0367C26.1093 17.9282 25.9223 17.8175 25.7371 17.704C25.6552 17.6549 25.5734 17.6059 25.489 17.5553C25.419 17.512 25.3489 17.4687 25.2768 17.4241C24.9913 17.3185 24.8283 17.363 24.5397 17.4501C24.3384 17.5399 24.3384 17.5399 24.1488 17.6572C24.0748 17.7008 24.0007 17.7443 23.9244 17.7892C23.8443 17.8372 23.7642 17.8853 23.6817 17.9348C23.5027 18.0403 23.3237 18.1458 23.1447 18.2512C23.0486 18.308 22.9526 18.3648 22.8536 18.4234C22.3111 18.7426 21.7648 19.0553 21.219 19.3691C20.2986 19.8997 19.3794 20.4322 18.4616 20.9672C18.3107 21.0551 18.3107 21.0551 18.1568 21.1448C17.5903 21.4754 17.0279 21.8114 16.4701 22.1567C16.2609 22.2706 16.2609 22.2706 16.0513 22.2706C16.0513 24.2763 16.0513 26.282 16.0513 28.3485C16.2243 28.4177 16.3972 28.4868 16.5753 28.5581C16.6791 28.61 16.6791 28.61 16.7849 28.6629C16.7849 33.2276 16.7849 37.7924 16.7849 42.4955C16.3946 42.3979 16.1423 42.281 15.7959 42.0853C15.6291 41.9915 15.6291 41.9915 15.459 41.8958C15.2854 41.7971 15.2854 41.7971 15.1082 41.6964C14.9957 41.6331 14.8831 41.5697 14.7672 41.5044C14.1415 41.1513 14.1415 41.1513 13.9553 41.0393C13.7336 40.9125 13.7336 40.9125 13.439 40.7902C12.5585 40.3685 12.5585 40.3685 12.3738 39.8989C12.3331 39.5331 12.3326 39.1856 12.3455 38.8177C12.3453 38.6121 12.3453 38.6121 12.345 38.4024C12.3446 38.0281 12.352 37.6543 12.3608 37.2801C12.3687 36.8886 12.3694 36.497 12.3709 36.1053C12.3748 35.3645 12.3851 34.6238 12.3977 33.8831C12.4118 33.0394 12.4187 32.1958 12.425 31.3521C12.4382 29.6172 12.4603 27.8826 12.4883 26.1479C12.3554 26.109 12.3554 26.109 12.2198 26.0693C11.8595 25.9383 11.8595 25.9383 11.126 25.5191C11.126 23.4788 11.126 21.4385 11.126 19.3364C11.3853 19.2845 11.3853 19.2845 11.65 19.2316C11.6608 19.2951 11.6716 19.3586 11.6827 19.424C11.9062 20.2492 12.386 20.5527 13.0878 20.9614C13.2371 21.0457 13.3868 21.1292 13.5371 21.2117C13.7217 21.314 13.9026 21.423 14.0828 21.5329C14.7521 21.9328 15.1778 22.0859 15.9539 21.9058C18.7187 21.0883 21.2317 18.8048 23.3997 16.9859C23.6904 16.743 23.984 16.5039 24.2778 16.2647C24.5745 16.0286 24.5745 16.0286 24.8541 15.7734Z" fill="#F81822"/>
<path d="M33.762 22.3789C33.7717 23.1523 33.7792 23.9256 33.7837 24.699C33.7859 25.0582 33.7889 25.4172 33.7936 25.7763C33.799 26.1891 33.8011 26.6019 33.8029 27.0147C33.8051 27.1438 33.8073 27.2728 33.8095 27.4057C33.8095 27.5851 33.8095 27.5851 33.8096 27.7681C33.8105 27.8735 33.8115 27.9789 33.8124 28.0875C33.7958 28.1748 33.7791 28.2621 33.762 28.3521C33.6929 28.3979 33.6238 28.4437 33.5527 28.4909C33.3191 28.6495 33.3191 28.6495 33.2896 28.9195C33.289 29.0709 33.289 29.0709 33.2884 29.2254C33.2862 29.3993 33.2862 29.3993 33.284 29.5767C33.2848 29.7676 33.2848 29.7676 33.2856 29.9623C33.284 30.1632 33.284 30.1632 33.2823 30.3682C33.2794 30.7356 33.2791 31.1029 33.2792 31.4704C33.2788 31.8543 33.2761 32.2382 33.2737 32.6221C33.2695 33.3491 33.2673 34.0762 33.266 34.8032C33.2643 35.6309 33.2603 36.4586 33.256 37.2863C33.2474 38.9889 33.2417 40.6916 33.238 42.3942C33.3072 42.4288 33.3764 42.4634 33.4476 42.499C33.3878 42.5326 33.3279 42.5662 33.2663 42.6008C32.11 43.2504 30.957 43.9049 29.8125 44.5752C28.9219 45.0967 28.0289 45.614 27.1331 46.1267C27.0039 46.2006 26.8747 46.2747 26.7455 46.3487C26.5647 46.4524 26.3838 46.5558 26.2028 46.6592C26.0992 46.7185 25.9956 46.7777 25.8888 46.8388C25.5829 47.0079 25.2722 47.164 24.9592 47.3195C24.9053 44.7471 24.8647 42.1748 24.8398 39.602C24.8279 38.4073 24.8117 37.2129 24.7853 36.0184C24.7623 34.9768 24.7474 33.9355 24.7423 32.8937C24.7393 32.3423 24.7323 31.7915 24.7155 31.2403C24.6169 27.8882 24.6169 27.8882 25.184 27.0943C25.7193 26.6116 26.3066 26.3505 26.9893 26.1383C27.3791 26.0086 27.6951 25.8152 28.0433 25.5984C28.2684 25.4704 28.4935 25.3425 28.7187 25.2148C28.967 25.0737 29.2152 24.9323 29.4634 24.7908C29.5246 24.7559 29.5858 24.7209 29.6489 24.685C30.3978 24.2573 31.1423 23.8218 31.8861 23.3853C33.6033 22.3789 33.6033 22.3789 33.762 22.3789Z" fill="#EEBB0D"/>
<path d="M25.0068 17.2514C25.3191 17.3594 25.5847 17.4993 25.8707 17.6653C25.9873 17.7325 26.104 17.7997 26.2242 17.869C26.3505 17.9427 26.4767 18.0164 26.603 18.0902C26.7347 18.1664 26.8664 18.2425 26.9982 18.3186C27.2694 18.4753 27.5403 18.6324 27.8111 18.7898C28.2898 19.0681 28.7698 19.3444 29.2497 19.6207C29.6944 19.8768 30.1388 20.1336 30.5832 20.3904C31.1486 20.717 31.7142 21.0432 32.2798 21.3695C32.5722 21.5381 32.8645 21.7068 33.1568 21.8754C33.302 21.9592 33.302 21.9592 33.4501 22.0446C33.5184 22.084 33.5867 22.1234 33.657 22.164C33.657 22.2677 33.657 22.3715 33.657 22.4784C33.5908 22.5151 33.5246 22.5519 33.4564 22.5898C32.0178 23.3896 30.5881 24.2024 29.168 25.0347C28.4633 25.4477 27.756 25.8561 27.0484 26.264C26.9343 26.3298 26.8202 26.3955 26.7027 26.4633C26.4924 26.5845 26.2818 26.7052 26.0708 26.8253C25.9032 26.9228 25.7375 27.0236 25.5752 27.1297C25.3852 27.2521 25.3852 27.2521 25.0638 27.4036C24.6851 27.286 24.349 27.0976 24.004 26.9042C23.9005 26.8463 23.7969 26.7883 23.6903 26.7286C23.5794 26.6661 23.4686 26.6035 23.3544 26.5391C23.2382 26.4737 23.122 26.4084 23.0023 26.3411C22.013 25.7831 21.0313 25.2125 20.0517 24.6377C19.5893 24.3666 19.1252 24.0988 18.6599 23.8329C18.5349 23.7613 18.4099 23.6897 18.2849 23.6182C18.0459 23.4813 17.8066 23.3451 17.5671 23.2091C17.4047 23.1161 17.4047 23.1161 17.239 23.0212C17.0959 22.9397 17.0959 22.9397 16.9499 22.8566C16.6667 22.6795 16.4129 22.4821 16.1562 22.2688C16.8653 21.7759 17.6009 21.3489 18.3569 20.9327C19.1791 20.4762 19.9974 20.0154 20.806 19.5353C21.6333 19.0446 22.4676 18.566 23.3013 18.0863C23.4134 18.0218 23.5254 17.9573 23.6409 17.8908C23.741 17.8333 23.841 17.7758 23.9441 17.7165C24.2276 17.557 24.2276 17.557 24.4912 17.3683C24.7494 17.2388 24.7494 17.2388 25.0068 17.2514Z" fill="#FFE46B"/>
<path d="M38.2685 19.2305C38.6746 19.3222 38.6746 19.3222 38.7925 19.4401C38.8023 19.6298 38.8048 19.8199 38.8044 20.0099C38.8044 20.1316 38.8044 20.2532 38.8044 20.3786C38.8039 20.511 38.8033 20.6434 38.8028 20.7798C38.8026 20.9146 38.8025 21.0494 38.8023 21.1882C38.8019 21.5471 38.8009 21.9059 38.7997 22.2648C38.7986 22.6307 38.7982 22.9967 38.7976 23.3626C38.7965 24.0811 38.7947 24.7995 38.7925 25.518C38.6051 25.6233 38.4172 25.728 38.2293 25.8324C38.0724 25.9199 38.0724 25.9199 37.9124 26.0092C37.6398 26.1468 37.6398 26.1468 37.4302 26.1468C37.4302 30.7807 37.4302 35.4146 37.4302 40.1889C36.4619 40.7422 35.4936 41.2955 34.4959 41.8656C34.2193 42.0385 33.9426 42.2114 33.6576 42.3896C33.5192 42.3896 33.3809 42.3896 33.2384 42.3896C33.2237 40.6069 33.2126 38.8243 33.2058 37.0416C33.2026 36.2139 33.1981 35.3862 33.191 34.5585C33.1847 33.8372 33.1806 33.1158 33.1792 32.3944C33.1784 32.0124 33.1765 31.6304 33.1719 31.2484C33.1668 30.8221 33.1667 30.3959 33.167 29.9695C33.1647 29.8427 33.1625 29.7158 33.1602 29.5851C33.1625 29.2646 33.1678 28.9744 33.2384 28.6618C33.5531 28.4075 33.5531 28.4075 33.8672 28.2426C33.9553 27.9634 33.9553 27.9634 33.9336 27.65C33.932 27.4717 33.932 27.4717 33.9303 27.2898C33.9261 27.162 33.9219 27.0341 33.9175 26.9024C33.9151 26.7052 33.9151 26.7052 33.9126 26.504C33.9079 26.1549 33.9007 25.8061 33.892 25.4571C33.8801 24.9647 33.8714 24.4722 33.8644 23.9797C33.8606 23.7175 33.855 23.4553 33.8477 23.1931C33.8456 23.0749 33.8436 22.9567 33.8414 22.8349C33.8389 22.7305 33.8363 22.6261 33.8336 22.5186C33.8447 22.4364 33.8557 22.3542 33.8672 22.2694C34.1788 22.0617 34.3082 22.026 34.6646 21.9739C35.2457 21.8657 35.6937 21.6382 36.1988 21.3394C36.2788 21.2939 36.3588 21.2484 36.4412 21.2015C37.3741 20.6658 37.9425 20.3088 38.2685 19.2305Z" fill="#E6000D"/>
<path d="M16.0518 22.2695C16.8122 22.6843 17.5706 23.1008 18.3245 23.527C18.4798 23.6148 18.4798 23.6148 18.6381 23.7043C19.4831 24.1833 20.3229 24.6708 21.161 25.1616C21.7363 25.4985 22.3126 25.8337 22.8905 26.1661C22.9535 26.2024 23.0166 26.2387 23.0815 26.276C23.389 26.4529 23.6967 26.6296 24.0044 26.806C24.1141 26.8691 24.2237 26.9321 24.3367 26.9971C24.4343 27.053 24.5319 27.109 24.6324 27.1667C24.8545 27.2996 24.8545 27.2996 24.9593 27.4044C24.9692 27.5909 24.9716 27.7778 24.9712 27.9646C24.9712 28.1439 24.9712 28.1439 24.9712 28.3269C24.9707 28.457 24.9701 28.5872 24.9696 28.7212C24.9694 28.8536 24.9693 28.9861 24.9691 29.1225C24.9686 29.4752 24.9677 29.8278 24.9665 30.1805C24.9655 30.5401 24.965 30.8997 24.9645 31.2594C24.9633 31.9654 24.9615 32.6715 24.9593 33.3775C24.562 33.2225 24.2009 33.0448 23.8307 32.8323C23.713 32.7649 23.5953 32.6974 23.474 32.628C23.3469 32.5547 23.2198 32.4815 23.0927 32.4082C22.9603 32.3322 22.8278 32.2562 22.6954 32.1802C21.7755 31.6518 20.8588 31.118 19.9434 30.5819C18.652 29.8269 17.3514 29.0882 16.0518 28.3475C16.0518 26.3418 16.0518 24.336 16.0518 22.2695Z" fill="#FEDB4D"/>
<path d="M33.7619 22.3789C33.7838 23.1468 33.8006 23.9146 33.8108 24.6827C33.8157 25.0395 33.8224 25.396 33.8331 25.7526C33.8453 26.1631 33.8499 26.5734 33.854 26.984C33.8589 27.1114 33.8638 27.2389 33.8688 27.3701C33.8693 28.2355 33.8693 28.2355 33.566 28.5648C33.3238 28.7291 33.084 28.8578 32.8188 28.9808C32.6665 29.0713 32.6665 29.0713 32.5111 29.1636C32.4223 29.2124 32.3335 29.2613 32.242 29.3116C32.1398 29.3682 32.0376 29.4248 31.9323 29.4831C31.7713 29.5716 31.7713 29.5716 31.6071 29.662C30.7109 30.1594 29.8194 30.6637 28.9348 31.1815C28.8333 31.2408 28.7317 31.3002 28.6271 31.3614C28.0756 31.6844 27.5249 32.0087 26.9744 32.3334C26.8007 32.4355 26.8007 32.4355 26.6234 32.5397C26.3998 32.6711 26.1765 32.8029 25.9534 32.9351C25.8536 32.9937 25.7538 33.0523 25.6509 33.1127C25.5627 33.1649 25.4744 33.217 25.3835 33.2707C25.1687 33.3821 25.1687 33.3821 24.9591 33.3821C24.9053 32.6272 24.8646 31.8727 24.8397 31.1163C24.8277 30.7645 24.8103 30.415 24.7852 30.0637C24.6279 27.8075 24.6279 27.8075 25.1694 27.1559C25.7152 26.7108 26.3296 26.4307 26.9783 26.1665C27.3571 26.0079 27.6919 25.8108 28.0432 25.5984C28.2683 25.4704 28.4934 25.3425 28.7187 25.2148C28.967 25.0736 29.2151 24.9323 29.4633 24.7908C29.5245 24.7559 29.5857 24.7209 29.6488 24.685C30.3978 24.2573 31.1422 23.8218 31.886 23.3853C33.6032 22.3789 33.6032 22.3789 33.7619 22.3789Z" fill="#FED20A"/>
<path d="M37.2137 10.2768C37.5863 10.4565 37.9416 10.6554 38.2944 10.8704C38.4533 10.9655 38.6123 11.0605 38.7713 11.1553C38.9016 11.2331 38.9016 11.2331 39.0344 11.3125C39.56 11.624 40.09 11.9279 40.6196 12.2327C40.7342 12.2988 40.8489 12.3648 40.967 12.4329C41.4488 12.7105 41.9307 12.988 42.4126 13.2654C42.6591 13.4072 42.9055 13.5492 43.1519 13.6911C43.3822 13.8238 43.6126 13.9564 43.843 14.0889C44.1509 14.2664 44.4582 14.4448 44.7655 14.6233C44.8682 14.6819 44.9709 14.7405 45.0766 14.8009C45.1728 14.8567 45.269 14.9125 45.3681 14.97C45.454 15.0193 45.5399 15.0687 45.6285 15.1196C45.72 15.1851 45.72 15.1851 45.8135 15.252C45.8135 15.3212 45.8135 15.3903 45.8135 15.4616C45.7378 15.5047 45.662 15.5478 45.584 15.5922C44.2294 16.3639 42.876 17.1376 41.53 17.9242C41.4268 17.9842 41.3236 18.0442 41.2173 18.106C40.7755 18.3631 40.3353 18.6217 39.9003 18.8903C39.8324 18.9314 39.7645 18.9725 39.6946 19.0149C39.5225 19.1194 39.3515 19.2258 39.1807 19.3324C38.897 19.4437 38.897 19.4437 38.6035 19.3651C38.373 19.2341 38.373 19.2341 38.2682 19.1293C38.2583 18.9063 38.2489 18.6831 38.2431 18.4599C38.2114 17.2717 38.2114 17.2717 37.7443 16.1952C37.6837 16.0892 37.6232 15.9833 37.5609 15.8742C36.2841 14.2074 34.3472 13.332 32.2949 13.0514C32.5552 12.7603 32.8424 12.5877 33.1808 12.3956C33.2947 12.3304 33.4087 12.2652 33.5262 12.1981C33.6484 12.1288 33.7707 12.0596 33.893 11.9904C34.8779 11.4353 34.8779 11.4353 35.8416 10.8446C35.9125 10.7994 35.9834 10.7543 36.0564 10.7077C36.2374 10.5909 36.417 10.4718 36.5964 10.3526C36.9059 10.222 36.9059 10.222 37.2137 10.2768Z" fill="#FFE46B"/>
<path d="M12.8028 10.2188C13.6905 10.5778 14.5211 11.1019 15.3441 11.5876C15.4513 11.6503 15.5586 11.7131 15.6691 11.7777C15.972 11.9554 16.2738 12.1347 16.5754 12.3146C16.6623 12.3656 16.7493 12.4167 16.8388 12.4693C17.0341 12.5865 17.2246 12.7116 17.4138 12.8386C17.4138 12.9077 17.4138 12.9769 17.4138 13.0481C17.3022 13.0699 17.1906 13.0916 17.0756 13.114C15.2698 13.488 13.349 14.2866 12.2788 15.8775C11.714 16.8075 11.6236 17.7259 11.5813 18.7912C11.5452 19.1261 11.5452 19.1261 11.3357 19.3357C10.8528 19.3037 10.5135 19.1507 10.0994 18.9091C9.98294 18.8419 9.86647 18.7746 9.74648 18.7052C9.62123 18.6316 9.49598 18.5579 9.37074 18.4842C9.24078 18.4087 9.11075 18.3333 8.98068 18.2579C8.71181 18.102 8.44325 17.9456 8.17492 17.7888C7.78769 17.5627 7.39926 17.3387 7.0104 17.1154C6.00207 16.536 4.99507 15.9555 4 15.3536C4.30702 15.1139 4.62248 14.9135 4.96035 14.7199C5.06788 14.6581 5.17541 14.5963 5.2862 14.5326C5.46005 14.4332 5.46005 14.4332 5.63742 14.3318C5.7597 14.2617 5.88196 14.1915 6.0042 14.1212C6.25811 13.9754 6.51209 13.8297 6.76612 13.6841C7.34683 13.351 7.92645 13.0161 8.50619 12.6814C8.72996 12.5523 8.95374 12.4232 9.17753 12.2941C9.59973 12.0506 10.0219 11.8069 10.4439 11.5631C10.6975 11.4166 10.9511 11.2701 11.2047 11.1237C11.3847 11.0197 11.5646 10.9157 11.7446 10.8117C11.8528 10.7492 11.961 10.6867 12.0725 10.6224C12.2161 10.5394 12.2161 10.5394 12.3625 10.4548C12.5072 10.3724 12.6538 10.2932 12.8028 10.2188Z" fill="#FFE46B"/>
<path d="M45.9179 15.3555C45.9325 16.1407 45.9437 16.9258 45.9505 17.7112C45.9538 18.0758 45.9582 18.4404 45.9654 18.805C45.9735 19.2243 45.9765 19.6435 45.9793 20.0629C45.9826 20.1937 45.9858 20.3245 45.9892 20.4592C45.9893 20.7953 45.9832 21.1038 45.9179 21.4334C45.6368 21.71 45.6368 21.71 45.2891 21.8526C45.1918 21.9036 45.0944 21.9546 44.9941 22.0071C44.8953 22.0545 44.7965 22.1018 44.6948 22.1506C44.0634 22.461 43.4579 22.8042 42.8527 23.1625C42.6935 23.2559 42.6935 23.2559 42.5311 23.3513C42.0735 23.6199 41.6164 23.8895 41.1595 24.1591C40.8115 24.3643 40.4632 24.569 40.1149 24.7737C40.0065 24.8379 39.8981 24.9021 39.7865 24.9683C39.6866 25.027 39.5866 25.0857 39.4837 25.1462C39.3954 25.1983 39.3071 25.2504 39.2162 25.3041C39.0014 25.4155 39.0014 25.4155 38.7919 25.4155C38.7553 24.6532 38.7274 23.891 38.7104 23.128C38.7022 22.7735 38.6912 22.4196 38.6733 22.0655C38.5665 19.7903 38.5665 19.7903 38.9285 19.2314C39.2825 18.8965 39.695 18.732 40.1511 18.5771C40.4817 18.4561 40.7704 18.2739 41.0707 18.0919C41.3044 17.959 41.5381 17.8263 41.772 17.6936C42.8725 17.068 43.968 16.4347 45.0587 15.792C45.1567 15.7344 45.2548 15.6768 45.3559 15.6174C45.442 15.5667 45.5282 15.5159 45.6169 15.4635C45.8131 15.3555 45.8131 15.3555 45.9179 15.3555Z" fill="#FED20A"/>
<path d="M4 15.3555C4.40709 15.5183 4.75157 15.6843 5.12859 15.9007C5.24647 15.9682 5.36434 16.0357 5.48578 16.1052C5.61275 16.1784 5.73971 16.2516 5.86666 16.3248C5.99777 16.4001 6.12889 16.4753 6.26003 16.5505C7.21847 17.1009 8.17388 17.6565 9.12649 18.2169C9.78684 18.6044 10.4531 18.9705 11.1261 19.3376C11.0915 21.3087 11.0569 23.2799 11.0213 25.3107C10.6411 25.1587 10.3147 25.0094 9.96145 24.8113C9.80598 24.7243 9.80598 24.7243 9.64737 24.6355C9.53663 24.5731 9.42589 24.5106 9.3118 24.4462C9.1966 24.3815 9.08141 24.3168 8.96272 24.2501C8.05067 23.736 7.14493 23.2113 6.24355 22.6787C5.50414 22.2434 4.7572 21.8411 4 21.4334C4 19.4277 4 17.422 4 15.3555Z" fill="#FFDC4E"/>
<path d="M22.0247 14.9365C22.1234 14.9417 22.2222 14.9468 22.324 14.9522C22.6263 14.9698 22.9279 14.9914 23.2298 15.0151C23.3232 15.0215 23.4165 15.028 23.5127 15.0346C24.1621 15.0954 24.1621 15.0954 24.4972 15.3639C24.5701 15.4636 24.5701 15.4636 24.6445 15.5653C22.3921 17.7673 19.5461 19.7925 16.6801 21.1192C16.5958 21.1625 16.5115 21.2057 16.4247 21.2502C15.8941 21.4055 15.4033 21.4323 14.9117 21.1651C14.4372 20.6209 14.318 20.0587 14.3288 19.3509C14.3297 19.2773 14.3305 19.2036 14.3314 19.1278C14.3651 18.0905 14.7965 17.4262 15.5274 16.718C17.3131 15.0888 19.7106 14.8113 22.0247 14.9365Z" fill="#C02434"/>
<path d="M28.6724 15.0136C28.7803 15.0128 28.7803 15.0128 28.8904 15.012C31.0179 14.9993 33.029 15.4547 34.633 16.9453C35.388 17.7599 35.5942 18.6361 35.5765 19.7309C35.5202 20.3002 35.358 20.8007 34.9273 21.191C34.5064 21.4486 34.1325 21.4191 33.6567 21.3273C33.0698 21.0967 32.5266 20.8019 31.9799 20.489C31.9053 20.4463 31.8307 20.4037 31.7538 20.3598C29.6037 19.1159 27.5236 17.6614 25.7013 15.9698C25.4862 15.7692 25.4862 15.7692 25.2444 15.603C25.1548 15.5317 25.1548 15.5317 25.0635 15.4589C25.0635 15.3898 25.0635 15.3206 25.0635 15.2493C26.2645 15.0625 27.4588 15.0166 28.6724 15.0136Z" fill="#C02434"/>
<path d="M21.5583 14.1763C21.8039 14.1796 22.0493 14.1806 22.2949 14.1813C22.4534 14.1822 22.612 14.1833 22.7705 14.1845C22.8427 14.185 22.9149 14.1854 22.9892 14.1859C23.4462 14.1926 23.8802 14.2377 24.3302 14.3106C24.2956 14.3798 24.261 14.4489 24.2254 14.5202C24.2825 14.5107 24.3396 14.5012 24.3984 14.4913C26.6178 14.1333 29.0587 13.8756 31.2466 14.5202C31.3526 14.5482 31.4585 14.5761 31.5676 14.6049C33.1565 15.0704 34.8123 16.0915 35.648 17.5592C36.1427 18.5762 36.273 19.8063 35.987 20.9068C35.811 21.3299 35.596 21.6762 35.2289 21.9605C34.3925 22.2392 33.6886 22.0256 32.9234 21.6461C30.53 20.4298 28.4 18.7029 26.3385 16.9992C25.857 16.6016 25.3849 16.2124 24.8541 15.8825C24.7955 15.9372 24.7369 15.9919 24.6765 16.0483C23.9857 16.6824 23.2646 17.2644 22.5224 17.8368C22.3507 17.9694 22.1796 18.1029 22.0087 18.2366C16.8468 22.2528 16.8468 22.2528 14.8986 22.0652C14.5243 21.9717 14.3463 21.8712 14.138 21.5433C13.686 20.5239 13.6293 19.0691 14.021 18.0176C14.0985 17.862 14.1815 17.7089 14.2698 17.5592C14.3143 17.4792 14.3587 17.3992 14.4045 17.3168C15.1875 16.0258 16.6301 15.085 18.0621 14.6381C18.1382 14.6204 18.2143 14.6027 18.2927 14.5844C18.4788 14.5408 18.6639 14.4927 18.8479 14.4408C19.7623 14.1977 20.6199 14.1636 21.5583 14.1763ZM14.8986 17.3496C14.4676 17.9729 14.3336 18.577 14.3353 19.3275C14.3356 19.4385 14.3356 19.4385 14.3359 19.5517C14.3527 20.2658 14.5103 20.6813 14.9707 21.2269C15.4379 21.4289 15.9116 21.406 16.3952 21.259C17.0869 20.983 17.7115 20.6365 18.3438 20.2445C18.4478 20.1805 18.5519 20.1165 18.6591 20.0505C20.1885 19.1001 21.6734 18.065 23.0726 16.9304C23.1384 16.8771 23.2042 16.8238 23.2719 16.7689C23.4796 16.5992 23.6857 16.4279 23.8913 16.2558C23.9561 16.2025 24.0209 16.1492 24.0876 16.0943C24.2445 15.9608 24.393 15.8175 24.5398 15.6729C24.5398 15.5692 24.5398 15.4654 24.5398 15.3585C24.2326 15.1538 24.135 15.1173 23.787 15.0826C23.6995 15.0738 23.612 15.065 23.5219 15.0559C23.3806 15.0436 23.3806 15.0436 23.2364 15.0311C23.1383 15.0225 23.0402 15.0139 22.9392 15.005C19.9431 14.7619 17.026 14.9894 14.8986 17.3496ZM25.0637 15.2537C25.2222 15.6508 25.4511 15.8436 25.7842 16.1052C26.1898 16.4268 26.5857 16.7546 26.9762 17.0942C30.3915 20.0472 30.3915 20.0472 34.4859 21.3784C34.8386 21.3032 34.9996 21.1904 35.2289 20.9125C35.6458 20.1218 35.66 19.2692 35.4782 18.4012C35.0641 17.089 34.1 16.4013 32.9234 15.7777C31.5323 15.1266 30.2047 15.0229 28.6923 15.0245C28.618 15.0244 28.5437 15.0244 28.4672 15.0243C27.3217 15.0244 26.1969 15.0775 25.0637 15.2537Z" fill="#FD605A"/>
<path d="M25.0767 3.28906C25.4824 3.45277 25.8449 3.65865 26.2163 3.88875C26.3733 3.98367 26.5304 4.0785 26.6875 4.17325C26.766 4.22091 26.8444 4.26858 26.9253 4.31769C27.2817 4.53205 27.6427 4.738 28.0044 4.94322C28.1245 5.01158 28.2446 5.07993 28.3683 5.15035C28.4535 5.19871 28.5388 5.24707 28.6266 5.2969C28.4824 5.60711 28.3147 5.86512 28.1043 6.13442C28.0415 6.21583 27.9787 6.29724 27.9141 6.38112C27.8129 6.51229 27.8129 6.51229 27.7096 6.6461C27.1193 7.42167 26.5675 8.21319 26.046 9.03667C25.9866 9.13047 25.9272 9.22427 25.866 9.32091C25.5096 9.89073 25.174 10.4694 24.854 11.0605C24.7848 11.0605 24.7156 11.0605 24.6444 11.0605C24.5251 10.8964 24.5251 10.8964 24.393 10.6646C24.3187 10.5365 24.3187 10.5365 24.2428 10.4058C24.1894 10.3128 24.1361 10.2197 24.0811 10.1239C23.2617 8.72797 22.3463 7.41908 21.3224 6.16537C20.9766 5.7377 20.9766 5.7377 20.9766 5.50648C21.0536 5.46216 21.1307 5.41783 21.21 5.37217C21.5011 5.20467 21.7921 5.03708 22.0831 4.86944C22.2081 4.79746 22.3331 4.72552 22.4581 4.65361C22.6397 4.54912 22.8213 4.44448 23.0029 4.33985C23.1213 4.272 23.2397 4.20416 23.3618 4.13426C23.578 4.00708 23.7919 3.87571 24.0022 3.73903C24.6637 3.31023 24.6637 3.31023 25.0767 3.28906Z" fill="#FFE46B"/>
<path d="M35.6482 5.60836C35.949 5.79635 36.1189 5.92092 36.277 6.23712C36.4267 7.31124 36.0514 8.00207 35.4223 8.84546C35.1904 9.13601 34.9517 9.41719 34.7051 9.69526C34.62 9.79171 34.62 9.79171 34.5331 9.89011C33.702 10.7716 32.6691 11.4862 31.666 12.1579C31.602 12.2007 31.5381 12.2436 31.4722 12.2878C30.7572 12.7576 30.2746 12.9934 29.426 12.9635C29.3489 12.9621 29.2717 12.9606 29.1923 12.9592C29.0038 12.9555 28.8154 12.9499 28.627 12.9438C28.7924 12.4761 29.0373 12.0704 29.3016 11.6536C29.371 11.5436 29.371 11.5436 29.4419 11.4315C33.3398 5.30463 33.3398 5.30463 35.6482 5.60836Z" fill="#C02434"/>
<path d="M15.1085 5.92623C17.5711 6.96583 19.5279 10.422 20.7674 12.6329C20.7674 12.7021 20.7674 12.7713 20.7674 12.8425C19.2694 12.9646 18.3727 12.8604 17.2044 11.8994C17.1101 11.8281 17.0158 11.7567 16.9187 11.6833C16.6577 11.4829 16.4064 11.275 16.1564 11.061C16.0693 10.9868 15.9822 10.9125 15.8924 10.8359C14.8466 9.92029 13.5064 8.71644 13.2918 7.25905C13.2843 6.83196 13.2913 6.61208 13.5235 6.2406C13.9848 5.80646 14.5036 5.83608 15.1085 5.92623Z" fill="#C02434"/>
<path d="M36.1721 4.87457C36.5489 5.13545 36.7352 5.39902 36.9056 5.8177C37.0011 6.70945 36.9502 7.4564 36.4864 8.22792C36.4294 8.32531 36.3724 8.42271 36.3137 8.52306C35.9934 9.04819 35.6724 9.47623 35.2289 9.90459C35.1318 10.0059 35.035 10.1075 34.9387 10.2096C32.4731 12.7804 32.4731 12.7804 31.2013 12.9845C31.0068 12.9709 30.8124 12.9572 30.6179 12.9436C30.7666 12.4976 31.0952 12.3827 31.4825 12.1576C32.3181 11.6547 33.0353 11.0757 33.7618 10.4286C33.8389 10.3653 33.916 10.3021 33.9955 10.237C34.9436 9.45734 36.0185 8.33636 36.2212 7.08666C36.247 6.60351 36.2231 6.32089 35.969 5.90284C35.527 5.64125 35.206 5.61368 34.7049 5.7129C32.1862 6.63479 30.3077 10.0944 29.0247 12.2853C28.9626 12.3902 28.9004 12.495 28.8364 12.603C28.7618 12.7351 28.7618 12.7351 28.6858 12.8699C28.522 13.0484 28.522 13.0484 28.2404 13.0762C28.1604 13.067 28.0804 13.0578 27.998 13.0484C28.1633 12.3963 28.5274 11.8769 28.8888 11.3193C28.9547 11.2169 29.0205 11.1144 29.0884 11.0089C30.1128 9.42606 31.2173 7.93284 32.5042 6.55124C32.581 6.46762 32.6577 6.38401 32.7367 6.29786C33.7479 5.23513 34.6912 4.72013 36.1721 4.87457Z" fill="#FD615A"/>
<path d="M14.6895 5.08792C15.6223 5.40646 16.3034 5.97645 16.995 6.6598C17.0621 6.72059 17.1293 6.78137 17.1984 6.844C18.9526 8.47725 20.3201 10.7738 21.5012 12.8425C21.5012 12.8771 21.5012 12.9117 21.5012 12.9473C21.2236 13.0026 21.2236 13.0026 20.8724 12.9473C20.6244 12.6853 20.46 12.3759 20.2829 12.0632C20.1734 11.8798 20.0634 11.6967 19.953 11.5138C19.8972 11.4206 19.8415 11.3275 19.784 11.2315C19.116 10.1448 18.3436 9.09928 17.519 8.12689C17.4451 8.03895 17.3712 7.95101 17.2951 7.86041C16.252 6.63584 16.252 6.63584 14.834 5.99216C14.3474 5.98068 14.0452 5.97679 13.6219 6.23408C13.3565 6.68251 13.3252 6.98982 13.432 7.49814C13.7589 8.38024 14.2764 9.10686 14.8991 9.80357C14.9653 9.8784 15.0315 9.95324 15.0997 10.0303C16.0986 11.0909 17.341 11.9718 18.587 12.7197C18.6495 12.7603 18.7121 12.8008 18.7765 12.8425C18.7765 12.8771 18.7765 12.9117 18.7765 12.9473C18.2436 13.0578 17.8578 13.0181 17.3765 12.7545C16.1488 11.9245 15.0942 10.8568 14.0607 9.80357C14.0091 9.75777 13.9575 9.71198 13.9044 9.6648C13.6634 9.39704 13.4968 9.08737 13.3206 8.77529C13.2838 8.71201 13.247 8.64872 13.2091 8.58352C12.7407 7.761 12.616 7.07278 12.6984 6.13584C13.0358 5.14131 13.7132 4.92562 14.6895 5.08792Z" fill="#FD615A"/>
<path d="M35.7468 9.45312C36.1636 9.63178 36.533 9.858 36.9061 10.1146C36.7546 10.5691 36.4117 10.6696 36.0088 10.8809C35.4168 11.1977 34.8333 11.5228 34.2596 11.8719C34.0934 11.9723 34.0934 11.9723 33.9239 12.0746C33.7059 12.2069 33.4887 12.3404 33.2724 12.4754C32.6672 12.8394 32.2709 13.0299 31.5615 12.944C31.8926 12.5877 32.2623 12.3194 32.6619 12.0467C33.5751 11.4082 34.415 10.7012 35.1115 9.82645C35.398 9.49023 35.398 9.49023 35.7468 9.45312Z" fill="#FF1D24"/>
<path d="M14.1648 9.79885C14.3516 9.94471 14.3516 9.94471 14.5238 10.1316C14.5892 10.2006 14.6547 10.2696 14.7221 10.3406C14.7911 10.4147 14.86 10.4888 14.9311 10.5651C15.7261 11.393 16.5806 12.0747 17.5182 12.733C17.4145 12.7849 17.4145 12.7849 17.3086 12.8378C17.0388 12.7091 17.0388 12.7091 16.6979 12.5108C16.6058 12.4577 16.6058 12.4577 16.5119 12.4036C16.3142 12.2893 16.1171 12.1739 15.9201 12.0584C15.7921 11.9842 15.6641 11.91 15.5361 11.836C15.2796 11.6874 15.0233 11.5384 14.7671 11.3892C14.1494 11.0298 13.5282 10.6765 12.9072 10.3228C12.9072 10.2536 12.9072 10.1845 12.9072 10.1132C13.6312 9.64481 13.6312 9.64481 14.1648 9.79885Z" fill="#FF1F26"/>
<path d="M30.5127 20.1758C30.6394 20.2455 30.766 20.3154 30.8926 20.3854C30.9786 20.4329 31.0647 20.4805 31.1533 20.5295C31.3705 20.6517 31.5862 20.7764 31.8009 20.9028C32.5725 21.3563 33.3415 21.7424 34.1805 22.062C34.1114 22.1312 34.0422 22.2004 33.9709 22.2716C33.9402 22.5387 33.9402 22.5387 33.9471 22.8534C33.9472 23.0359 33.9472 23.0359 33.9472 23.2221C33.9483 23.3539 33.9493 23.4858 33.9505 23.6216C33.9509 23.8236 33.9509 23.8236 33.9514 24.0296C33.9522 24.3876 33.9542 24.7455 33.9565 25.1035C33.9587 25.4688 33.9596 25.834 33.9607 26.1993C33.9629 26.9161 33.9665 27.6328 33.9709 28.3496C33.9018 28.3496 33.8326 28.3496 33.7613 28.3496C33.7654 28.2765 33.7694 28.2033 33.7736 28.128C33.8098 27.433 33.8339 26.7387 33.8452 26.0428C33.8514 25.6849 33.862 25.3284 33.8831 24.9712C33.9705 23.5954 33.9705 23.5954 33.6565 22.2716C33.0868 21.636 32.3137 21.3191 31.5295 21.0213C31.1654 20.8773 30.8459 20.6946 30.5127 20.4902C30.5127 20.3864 30.5127 20.2827 30.5127 20.1758Z" fill="#F62F1D"/>
<path d="M19.4051 20.0703C19.5089 20.1395 19.6126 20.2086 19.7195 20.2799C19.6445 20.3216 19.5696 20.3633 19.4923 20.4063C19.2102 20.5633 18.9282 20.7206 18.6462 20.8779C18.4658 20.9786 18.2852 21.079 18.1046 21.1794C17.5999 21.4613 17.0994 21.7425 16.615 22.0581C16.2613 22.271 16.2613 22.271 15.9469 22.2513C15.8777 22.2232 15.8086 22.1951 15.7373 22.1662C15.7373 22.097 15.7373 22.0278 15.7373 21.9566C15.867 21.9177 15.9967 21.8788 16.1303 21.8387C17.3246 21.4362 18.3636 20.7636 19.4051 20.0703Z" fill="#FE2B2B"/>
<path d="M38.2679 19.2305C38.674 19.3222 38.674 19.3222 38.7919 19.4401C38.8017 19.6298 38.8042 19.8199 38.8038 20.0099C38.8037 20.1316 38.8037 20.2532 38.8037 20.3786C38.8032 20.511 38.8026 20.6434 38.8021 20.7798C38.8019 20.9146 38.8018 21.0494 38.8016 21.1882C38.8012 21.5471 38.8002 21.9059 38.7991 22.2648C38.798 22.6307 38.7975 22.9967 38.797 23.3626C38.7958 24.0811 38.7941 24.7995 38.7919 25.518C38.7573 25.518 38.7227 25.518 38.6871 25.518C38.6525 23.5814 38.6179 21.6449 38.5823 19.6496C38.4439 19.6842 38.3056 19.7188 38.1631 19.7544C38.1977 19.5815 38.2323 19.4086 38.2679 19.2305Z" fill="#E91D0C"/>
<path d="M11.65 19.2305C11.6845 19.4034 11.7191 19.5763 11.7547 19.7544C11.5473 19.6853 11.3398 19.6161 11.126 19.5448C11.126 19.4757 11.126 19.4065 11.126 19.3353C11.3356 19.2305 11.3356 19.2305 11.65 19.2305Z" fill="#FE2528"/>
<path d="M38.2679 19.2305C38.4754 19.2823 38.4754 19.2823 38.6871 19.3353C38.6525 19.439 38.6179 19.5427 38.5823 19.6496C38.3661 19.7217 38.3661 19.7217 38.1631 19.7544C38.1977 19.5815 38.2323 19.4086 38.2679 19.2305Z" fill="#FD2727"/>
</svg>
