<svg width="50" height="50" viewBox="0 0 50 50" fill="none" xmlns="http://www.w3.org/2000/svg">
<path d="M12.3629 9.82234C12.7193 9.82596 13.0754 9.82038 13.4317 9.81602C14.1284 9.80898 14.8248 9.81047 15.5215 9.81509C16.088 9.81868 16.6544 9.81916 17.2209 9.81743C17.3017 9.81719 17.3825 9.81695 17.4657 9.8167C17.6299 9.81619 17.7941 9.81567 17.9583 9.81515C19.4957 9.81063 21.033 9.81582 22.5704 9.82436C23.8879 9.83146 25.2051 9.83022 26.5226 9.8229C28.0548 9.81439 29.5868 9.81107 31.1189 9.81594C31.2825 9.81644 31.446 9.81694 31.6096 9.81743C31.69 9.81768 31.7705 9.81792 31.8534 9.81818C32.4188 9.81954 32.9841 9.81724 33.5495 9.8135C34.2392 9.80903 34.9286 9.81027 35.6182 9.81871C35.9698 9.82286 36.3209 9.82454 36.6725 9.81926C38.7222 9.79096 38.7222 9.79096 39.2838 10.1882C39.6497 10.5567 39.8975 10.9687 40.1182 11.4359C40.231 11.6673 40.3745 11.8652 40.5326 12.0676C41.031 12.7557 41.5251 13.4466 42.0138 14.1416C42.3344 14.5968 42.6592 15.0488 42.9859 15.4997C43.4015 16.0732 43.8119 16.65 44.2193 17.2293C44.5399 17.6846 44.8649 18.1365 45.1915 18.5874C45.2863 18.7191 45.3812 18.8507 45.4761 18.9824C45.6743 19.2571 45.8745 19.5301 46.0757 19.8026C46.1743 19.9379 46.2729 20.0732 46.3714 20.2085C46.4416 20.3022 46.4416 20.3022 46.5132 20.3977C46.5764 20.4852 46.5764 20.4852 46.6409 20.5745C46.6972 20.6508 46.6972 20.6508 46.7546 20.7287C46.8236 20.8812 46.8236 20.8812 46.8048 21.0593C46.7299 21.2478 46.6479 21.3637 46.5131 21.5146C46.467 21.5668 46.421 21.619 46.3736 21.6728C46.3238 21.7282 46.2739 21.7836 46.2225 21.8406C46.1173 21.9597 46.0121 22.0788 45.9069 22.198C45.8535 22.2581 45.8001 22.3182 45.7451 22.3802C45.5116 22.6444 45.2825 22.9123 45.0536 23.1805C44.9662 23.2826 44.8788 23.3847 44.7914 23.4869C44.7482 23.5372 44.7051 23.5876 44.6607 23.6396C44.4408 23.8965 44.2206 24.1533 44.0005 24.4101C43.9122 24.513 43.824 24.6159 43.7358 24.7189C36.8545 32.747 36.8545 32.747 36.7221 32.9015C36.6341 33.0042 36.5461 33.1069 36.4581 33.2096C36.2346 33.4705 36.0108 33.7312 35.7865 33.9914C35.3815 34.4619 34.9791 34.9333 34.5883 35.4157C34.2751 35.8017 33.9471 36.1705 33.6123 36.5378C33.4069 36.7689 33.2113 37.006 33.0168 37.2464C32.6983 37.6401 32.3654 38.0163 32.0244 38.3905C31.8189 38.6216 31.6233 38.8586 31.4289 39.099C31.1103 39.4927 30.7774 39.8689 30.4364 40.2431C30.2309 40.4742 30.0353 40.7113 29.8409 40.9517C29.5224 41.3454 29.1894 41.7216 28.8484 42.0958C28.6429 42.3269 28.4473 42.5639 28.2529 42.8043C27.9344 43.198 27.6014 43.5743 27.2604 43.9484C27.0549 44.1796 26.8594 44.4166 26.6649 44.657C26.347 45.0499 26.0152 45.4256 25.6741 45.7983C25.3891 46.1202 25.1244 46.4574 24.8601 46.7964C24.6878 46.9861 24.5627 47.0781 24.327 47.1713C23.7823 46.5879 23.2557 45.9979 22.7549 45.3759C22.5645 45.1446 22.3673 44.9224 22.1656 44.7011C21.8198 44.3217 21.4958 43.9283 21.1731 43.5294C20.9803 43.2965 20.7812 43.0719 20.5776 42.8484C20.2318 42.4691 19.9078 42.0757 19.5851 41.6767C19.3923 41.4438 19.1932 41.2192 18.9896 40.9958C18.6439 40.6164 18.3198 40.223 17.9971 39.8241C17.8043 39.5912 17.6052 39.3666 17.4016 39.1431C17.0559 38.7638 16.7318 38.3704 16.4091 37.9714C16.2163 37.7385 16.0172 37.5139 15.8136 37.2905C15.5469 36.9976 15.2909 36.6996 15.0417 36.3917C14.5816 35.8236 14.1009 35.2742 13.621 34.7229C13.3931 34.4604 13.1669 34.1966 12.9409 33.9325C12.8976 33.8819 12.8543 33.8313 12.8096 33.7792C12.7224 33.6773 12.6352 33.5754 12.548 33.4734C12.328 33.2165 12.1079 32.9597 11.8877 32.7029C11.7995 32.6 11.7113 32.4971 11.6231 32.3942C11.5794 32.3432 11.5357 32.2923 11.4907 32.2398C9.59396 30.0269 7.6972 27.814 5.80043 25.6011C5.75674 25.5501 5.71305 25.4991 5.66803 25.4466C5.58001 25.3439 5.492 25.2412 5.40401 25.1385C5.1805 24.8776 4.95672 24.6169 4.73246 24.3567C4.32747 23.8862 3.92504 23.4148 3.53423 22.9324C3.21529 22.5392 2.88236 22.1618 2.54001 21.7889C2.48054 21.7223 2.42106 21.6556 2.35978 21.587C2.25828 21.4788 2.25828 21.4788 2.15473 21.3685C2.00689 21.1459 2.00689 21.1459 2 20.937C2.13512 20.6071 2.33775 20.3543 2.55828 20.0762C2.96679 19.5474 3.35399 19.0093 3.72722 18.4551C4.12241 17.8701 4.53255 17.3013 4.9606 16.74C5.29974 16.2922 5.6183 15.8327 5.93276 15.3673C6.33072 14.7787 6.74269 14.2051 7.17254 13.6394C7.43795 13.2893 7.69752 12.936 7.9495 12.5761C8.03731 12.4517 8.12607 12.3279 8.21614 12.205C8.45135 11.8811 8.65545 11.5651 8.82817 11.2035C9.60489 9.70469 10.8536 9.79967 12.3629 9.82234Z" fill="#54C0EB"/>
<path d="M23.4449 10.0294C25.461 9.9922 27.4771 9.96423 29.4935 9.94708C30.4298 9.93891 31.3659 9.92777 32.3021 9.90956C33.1185 9.89369 33.9347 9.88348 34.7513 9.87995C35.1834 9.87789 35.6151 9.87307 36.0471 9.86146C38.8893 9.78799 38.8893 9.78799 39.5214 10.3776C39.789 10.7032 39.9733 11.0446 40.13 11.4346C40.2306 11.6732 40.372 11.8653 40.5327 12.0671C41.0312 12.7551 41.5252 13.446 42.0139 14.141C42.3345 14.5962 42.6594 15.0482 42.9861 15.4991C43.4016 16.0726 43.8121 16.6494 44.2195 17.2287C44.5401 17.684 44.8649 18.136 45.1916 18.5869C45.5855 19.131 45.9775 19.6765 46.3661 20.2245C46.4121 20.2891 46.4582 20.3538 46.5056 20.4204C46.8237 20.8703 46.8237 20.8703 46.8237 20.9689C46.726 20.9692 46.726 20.9692 46.6264 20.9695C45.0332 20.9747 43.4401 20.9814 41.847 20.9897C41.0766 20.9936 40.3061 20.9971 39.5357 20.9994C38.8632 21.0015 38.1908 21.0044 37.5184 21.0084C37.1632 21.0105 36.808 21.0122 36.4527 21.0128C34.9465 21.0154 33.4915 21.0603 32.0025 21.3217C31.886 22.0787 31.7696 22.8356 31.6496 23.6155C31.5913 23.6155 31.5331 23.6155 31.4731 23.6155C31.3858 23.0041 31.3858 23.0041 31.2967 22.3804C31.1639 22.6459 31.0787 22.849 31.0026 23.1284C30.9808 23.2076 30.9591 23.2868 30.9367 23.3683C30.9133 23.4549 30.8899 23.5415 30.8658 23.6308C30.8405 23.723 30.8153 23.8153 30.7893 23.9104C30.7045 24.2205 30.6203 24.5307 30.5361 24.841C30.4756 25.0629 30.415 25.2848 30.3544 25.5068C30.2238 25.9851 30.0935 26.4636 29.9634 26.9421C29.7748 27.6353 29.5859 28.3284 29.3968 29.0214C29.3086 29.3445 29.2205 29.6676 29.1324 29.9907C29.1147 30.0554 29.0971 30.1202 29.0789 30.1868C28.9519 30.6524 28.825 31.118 28.6981 31.5837C28.01 34.1092 27.3199 36.6343 26.6293 39.1592C26.427 39.8988 26.2247 40.6385 26.0226 41.3782C25.8963 41.8403 25.77 42.3023 25.6436 42.7644C25.5855 42.9771 25.5273 43.1899 25.4692 43.4027C25.1499 44.5712 24.8291 45.7393 24.5036 46.9061C24.4454 46.9061 24.3872 46.9061 24.3272 46.9061C23.6454 44.5419 22.9787 42.1735 22.3146 39.8042C22.2822 39.6884 22.2822 39.6884 22.2491 39.5703C21.9569 38.5279 21.6649 37.4855 21.3729 36.443C21.0546 35.3068 20.7362 34.1706 20.4177 33.0344C20.2931 32.5901 20.1687 32.1458 20.0444 31.7015C19.5955 30.0973 19.1432 28.4942 18.6851 26.8926C18.5354 26.3689 18.3862 25.845 18.237 25.3212C18.0936 24.8178 17.9492 24.3147 17.8042 23.8118C17.715 23.5018 17.6267 23.1915 17.5385 22.8811C17.4974 22.7369 17.4559 22.5928 17.414 22.4488C17.3568 22.2518 17.3008 22.0546 17.2451 21.8572C17.2134 21.7468 17.1817 21.6363 17.1491 21.5226C17.0506 21.015 17.2058 20.7137 17.4583 20.2772C17.5158 20.1772 17.5732 20.0772 17.6325 19.9741C17.6952 19.8664 17.758 19.7587 17.8208 19.651C17.8855 19.5391 17.9502 19.4271 18.0149 19.315C18.4846 18.5024 18.9608 17.6936 19.4402 16.8865C19.7849 16.3059 20.1262 15.7234 20.4675 15.1407C20.4988 15.0873 20.53 15.0339 20.5623 14.9788C20.69 14.7607 20.8178 14.5426 20.9455 14.3244C21.178 13.9276 21.4108 13.5309 21.6436 13.1344C21.7434 12.9645 21.8431 12.7946 21.9428 12.6246C22.0054 12.518 22.0681 12.4114 22.1307 12.3047C22.4617 11.7417 22.79 11.1773 23.1136 10.61C23.1457 10.5538 23.1778 10.4975 23.2109 10.4396C23.2889 10.3029 23.3669 10.1661 23.4449 10.0294Z" fill="#83DAFE"/>
<path d="M36.6614 20.942C37.0199 20.9437 37.3784 20.9438 37.7369 20.9441C38.4127 20.9449 39.0884 20.9471 39.7642 20.9498C40.5348 20.9527 41.3055 20.9542 42.0762 20.9555C43.6586 20.9583 45.241 20.9629 46.8234 20.9688C46.6582 21.3215 46.428 21.5933 46.1727 21.8841C46.0765 21.9951 45.9802 22.106 45.8839 22.217C45.8347 22.2735 45.7855 22.33 45.7348 22.3882C45.5081 22.649 45.2836 22.9117 45.0589 23.1744C44.9707 23.2773 44.8825 23.3802 44.7943 23.4831C44.7288 23.5596 44.7288 23.5596 44.6619 23.6375C36.8543 32.7464 36.8543 32.7464 36.7219 32.9009C36.6339 33.0036 36.5459 33.1063 36.4579 33.209C36.2344 33.4699 36.0106 33.7306 35.7863 33.9908C35.3814 34.4613 34.9789 34.9327 34.5881 35.4151C34.2749 35.8011 33.9469 36.1699 33.6122 36.5372C33.4067 36.7683 33.2111 37.0053 33.0167 37.2457C32.6982 37.6394 32.3652 38.0157 32.0242 38.3899C31.8187 38.621 31.6231 38.858 31.4287 39.0984C31.1102 39.4921 30.7772 39.8683 30.4362 40.2425C30.2307 40.4736 30.0352 40.7107 29.8407 40.9511C29.5222 41.3448 29.1892 41.721 28.8482 42.0952C28.6427 42.3263 28.4472 42.5633 28.2527 42.8037C27.9342 43.1974 27.6012 43.5736 27.2602 43.9478C27.0548 44.1789 26.8592 44.416 26.6647 44.6564C26.3469 45.0492 26.015 45.4248 25.6743 45.7977C25.3878 46.1207 25.1194 46.4575 24.8513 46.7957C24.6797 46.9942 24.6797 46.9942 24.415 47.1707C24.6624 46.0842 24.9404 45.0085 25.2342 43.9337C25.2806 43.763 25.3271 43.5924 25.3735 43.4217C25.4996 42.958 25.6261 42.4945 25.7526 42.0309C25.8599 41.6378 25.967 41.2446 26.074 40.8513C26.4292 39.5472 26.7851 38.2432 27.1412 36.9393C27.2401 36.5768 27.3391 36.2143 27.438 35.8518C27.902 34.1522 28.3663 32.4526 28.8308 30.7531C28.881 30.5694 28.9312 30.3858 28.9814 30.2021C29.7184 27.5052 30.4558 24.8084 31.2081 22.1157C31.422 22.4366 31.4187 22.6324 31.4397 23.0145C31.4496 23.1828 31.4496 23.1828 31.4597 23.3546C31.464 23.4407 31.4683 23.5268 31.4728 23.6155C31.531 23.6155 31.5892 23.6155 31.6492 23.6155C31.6557 23.5002 31.6557 23.5002 31.6623 23.3825C31.7835 21.4521 31.7835 21.4521 32.0021 21.2335C33.5406 20.9056 35.0976 20.9334 36.6614 20.942Z" fill="#54C0EB"/>
<path d="M31.4729 18.3203C31.5312 18.3203 31.5894 18.3203 31.6494 18.3203C31.6941 18.572 31.7381 18.8238 31.7817 19.0757C31.7943 19.1463 31.8069 19.2168 31.82 19.2895C31.8918 19.7085 31.9277 20.1008 31.914 20.5259C32.0276 20.5376 32.1413 20.5493 32.2583 20.5614C32.6923 20.6096 33.1214 20.6779 33.5516 20.7519C33.6238 20.7642 33.696 20.7764 33.7703 20.789C33.9456 20.8187 34.1208 20.8487 34.296 20.8787C34.296 20.9079 34.296 20.937 34.296 20.967C33.5391 21.0834 32.7821 21.1999 32.0023 21.3199C31.8858 22.0768 31.7693 22.8337 31.6494 23.6136C31.5911 23.6136 31.5329 23.6136 31.4729 23.6136C31.3856 23.0022 31.3856 23.0022 31.2965 22.3785C31.1637 22.644 31.0785 22.8471 31.0024 23.1266C30.9806 23.2057 30.9589 23.2849 30.9365 23.3664C30.9131 23.453 30.8897 23.5396 30.8656 23.6289C30.8403 23.7212 30.8151 23.8134 30.7891 23.9085C30.7043 24.2186 30.6201 24.5288 30.5359 24.8391C30.4754 25.061 30.4148 25.2829 30.3542 25.5049C30.2236 25.9832 30.0933 26.4617 29.9632 26.9402C29.7746 27.6334 29.5857 28.3265 29.3966 29.0195C29.3084 29.3426 29.2203 29.6657 29.1322 29.9888C29.1145 30.0535 29.0969 30.1183 29.0787 30.185C28.9517 30.6505 28.8248 31.1161 28.6979 31.5818C28.0098 34.1073 27.3197 36.6324 26.6291 39.1573C26.4268 39.8969 26.2245 40.6366 26.0224 41.3763C25.8961 41.8384 25.7698 42.3004 25.6434 42.7625C25.5853 42.9752 25.5271 43.188 25.469 43.4008C25.1497 44.5693 24.8289 45.7374 24.5034 46.9042C24.4452 46.9042 24.387 46.9042 24.327 46.9042C23.6452 44.54 22.9785 42.1716 22.3144 39.8023C22.2819 39.6865 22.2819 39.6865 22.2488 39.5684C21.9567 38.526 21.6646 37.4836 21.3727 36.4411C21.0544 35.3049 20.736 34.1686 20.4175 33.0325C20.3137 32.6621 20.2099 32.2917 20.1061 31.9213C19.6356 30.2419 19.1633 28.5631 18.6876 26.8853C18.6125 26.6203 18.5374 26.3553 18.4624 26.0903C18.4131 25.9164 18.3639 25.7425 18.3146 25.5686C18.2904 25.4833 18.2663 25.398 18.2414 25.3101C18.0983 24.8051 17.9549 24.3002 17.8113 23.7954C17.7229 23.4845 17.6347 23.1735 17.5467 22.8625C17.5056 22.7177 17.4645 22.573 17.4232 22.4282C17.3668 22.2307 17.3108 22.033 17.2549 21.8352C17.2077 21.669 17.2077 21.669 17.1595 21.4995C17.0928 21.2316 17.0928 21.2316 17.0928 20.967C17.1815 20.9665 17.1815 20.9665 17.2719 20.9661C18.7138 20.9589 20.1557 20.9508 21.5976 20.9416C22.2949 20.9372 22.9921 20.9331 23.6894 20.9297C24.2976 20.9268 24.9057 20.9233 25.5138 20.9191C25.8354 20.9169 26.1571 20.9149 26.4788 20.9137C26.8388 20.9124 27.1988 20.9097 27.5589 20.9069C27.6643 20.9067 27.7697 20.9065 27.8783 20.9063C28.5071 20.9001 29.0939 20.8338 29.7085 20.7023C29.8959 20.6686 30.0833 20.6354 30.2709 20.6031C30.3553 20.5883 30.4397 20.5735 30.5266 20.5583C30.7573 20.5272 30.9758 20.5199 31.2083 20.5259C31.2055 20.4411 31.2028 20.3564 31.2 20.2691C31.2 19.8632 31.2693 19.4743 31.3406 19.0757C31.3532 19.0028 31.3658 18.9298 31.3788 18.8546C31.4097 18.6765 31.4413 18.4984 31.4729 18.3203Z" fill="#F1F2F2"/>
<path d="M9.77035 10.0273C9.82858 10.0273 9.88681 10.0273 9.9468 10.0273C10.0634 10.1803 10.0634 10.1803 10.197 10.3961C10.2467 10.4756 10.2965 10.555 10.3478 10.6369C10.4277 10.7664 10.4277 10.7664 10.5092 10.8985C10.621 11.077 10.7328 11.2554 10.8449 11.4337C10.9294 11.5685 10.9294 11.5685 11.0157 11.706C11.2565 12.0859 11.5048 12.4604 11.7553 12.8339C11.7966 12.8954 11.8378 12.9568 11.8802 13.0201C11.9593 13.1378 12.0384 13.2555 12.1175 13.3731C12.3359 13.6982 12.5528 14.0243 12.7699 14.3502C12.8572 13.8262 12.9446 13.3021 13.0346 12.7622C13.0928 12.7622 13.151 12.7622 13.211 12.7622C13.2559 13.0433 13.2997 13.3246 13.3433 13.6058C13.356 13.6848 13.3686 13.7638 13.3816 13.8452C13.4491 14.284 13.4903 14.7002 13.4757 15.1442C13.5737 15.1485 13.6717 15.1529 13.7727 15.1573C14.481 15.1918 15.1671 15.2341 15.8577 15.4089C15.5453 15.6171 15.2548 15.6651 14.8927 15.7287C14.8296 15.7405 14.7664 15.7523 14.7013 15.7645C14.4036 15.8186 14.1322 15.85 13.8286 15.85C14.1076 16.4475 14.4514 16.9809 14.821 17.5262C14.8821 17.6171 14.9432 17.7081 15.0061 17.8018C15.2013 18.0925 15.3971 18.3828 15.593 18.6731C15.8582 19.0661 16.1227 19.4595 16.387 19.853C16.4797 19.9899 16.4797 19.9899 16.5742 20.1294C16.6307 20.2136 16.6872 20.2977 16.7454 20.3844C16.8206 20.4959 16.8206 20.4959 16.8974 20.6096C17.0045 20.7904 17.0045 20.7904 17.0045 20.9668C12.0553 20.9668 7.10605 20.9668 2.00684 20.9668C2.40373 20.2723 2.40373 20.2723 2.60475 19.9974C2.64945 19.936 2.69415 19.8745 2.7402 19.8112C2.7875 19.7467 2.8348 19.6823 2.88354 19.6159C2.98624 19.4749 3.08894 19.3338 3.19163 19.1928C3.27005 19.0854 3.27005 19.0854 3.35006 18.9758C3.5962 18.6385 3.84099 18.3002 4.08556 17.9618C4.13303 17.8961 4.18051 17.8305 4.22942 17.7628C4.59438 17.2572 4.95435 16.7483 5.31306 16.2382C5.68556 15.7094 6.06372 15.1847 6.44308 14.6607C6.73019 14.2641 7.01606 13.8667 7.30014 13.468C7.68466 12.9284 8.07214 12.391 8.46109 11.8545C8.69354 11.5336 8.9244 11.2118 9.15108 10.8868C9.21181 10.8002 9.21181 10.8002 9.27376 10.7118C9.3495 10.6034 9.42476 10.4948 9.49948 10.3857C9.58544 10.2631 9.67734 10.1447 9.77035 10.0273Z" fill="#84DBFE"/>
<path d="M38.8836 10.0273C39.1714 10.1233 39.2031 10.1587 39.3654 10.3964C39.4269 10.4852 39.4269 10.4852 39.4896 10.5758C39.5334 10.6405 39.5773 10.7051 39.6224 10.7717C39.7177 10.9095 39.813 11.0472 39.9085 11.1849C39.9577 11.2562 40.0069 11.3275 40.0576 11.4009C40.294 11.7404 40.5372 12.0748 40.7804 12.4093C41.196 12.9828 41.6064 13.5596 42.0137 14.139C42.3343 14.5942 42.6592 15.0462 42.9859 15.4971C43.4015 16.0706 43.8119 16.6474 44.2193 17.2267C44.5399 17.682 44.8648 18.134 45.1914 18.5849C45.5854 19.129 45.9773 19.6745 46.3659 20.2225C46.412 20.2871 46.458 20.3518 46.5055 20.4184C46.8235 20.8683 46.8235 20.8683 46.8235 20.9668C45.2313 20.9772 43.6391 20.985 42.0468 20.9897C41.3072 20.992 40.5676 20.995 39.8281 21.0001C39.1822 21.0046 38.5364 21.0074 37.8905 21.0083C37.5496 21.0089 37.2088 21.0102 36.8679 21.0135C35.1669 21.0292 33.5781 20.912 31.9141 20.5257C32.0395 20.2706 32.175 20.0337 32.3314 19.7961C32.4039 19.6855 32.4039 19.6855 32.4779 19.5727C32.5302 19.4935 32.5825 19.4143 32.6364 19.3327C32.6908 19.2499 32.7453 19.1672 32.8014 19.082C32.917 18.9065 33.0326 18.731 33.1484 18.5556C33.3228 18.2914 33.4967 18.0268 33.6706 17.7623C34.62 16.3205 34.62 16.3205 35.0925 15.6704C35.6976 14.8378 36.2523 13.9706 36.8159 13.1096C37.0382 12.7703 37.2607 12.431 37.4834 12.0919C37.5362 12.0116 37.589 11.9312 37.6433 11.8484C38.0474 11.2347 38.4602 10.6279 38.8836 10.0273Z" fill="#83DAFE"/>
<path d="M25.8271 10.0273C30.1359 10.0273 34.4447 10.0273 38.884 10.0273C38.7276 10.4184 38.5822 10.6597 38.3353 10.9923C37.9443 11.5279 37.5742 12.0754 37.2105 12.6299C37.1566 12.712 37.1027 12.7942 37.0471 12.8789C36.8799 13.1339 36.713 13.3892 36.5461 13.6444C35.2926 15.562 35.2926 15.562 34.7165 16.355C34.4003 16.7925 34.101 17.2405 33.8029 17.6906C33.7282 17.8034 33.7282 17.8034 33.652 17.9185C33.4462 18.2296 33.2408 18.5408 33.0357 18.8523C32.8838 19.0828 32.7314 19.313 32.5789 19.5432C32.5324 19.6142 32.4859 19.6851 32.438 19.7582C32.3949 19.8231 32.3519 19.888 32.3075 19.9548C32.2698 20.012 32.2321 20.0692 32.1933 20.1282C32.0909 20.2611 32.0909 20.2611 31.9145 20.3493C31.8699 20.0939 31.8259 19.8384 31.7821 19.5829C31.7695 19.5108 31.7569 19.4388 31.7439 19.3646C31.684 19.0128 31.6323 18.6786 31.6498 18.3202C31.5916 18.3202 31.5333 18.3202 31.4733 18.3202C31.469 18.3938 31.4647 18.4673 31.4602 18.5432C31.421 19.1337 31.3545 19.6874 31.2087 20.2611C31.0171 20.0173 30.8649 19.7739 30.7238 19.4981C30.6824 19.4178 30.641 19.3375 30.5983 19.2547C30.5541 19.1683 30.5099 19.0819 30.4643 18.9929C30.1144 18.3152 29.7581 17.6423 29.3891 16.9748C28.7373 15.7917 28.1284 14.5864 27.5128 13.3843C27.255 12.8814 26.9948 12.3799 26.7314 11.88C26.6975 11.8156 26.6635 11.7511 26.6286 11.6847C26.3957 11.2445 26.1568 10.808 25.9119 10.3744C25.8271 10.2038 25.8271 10.2038 25.8271 10.0273Z" fill="#54C0EB"/>
<path d="M41.6185 2C41.6476 2 41.6767 2 41.7067 2C41.8076 2.57142 41.9081 3.14291 42.0082 3.71447C42.0424 3.90891 42.0766 4.10333 42.1109 4.29773C42.1603 4.57711 42.2092 4.85655 42.2581 5.13601C42.2735 5.22296 42.289 5.3099 42.3049 5.39948C42.319 5.48071 42.3331 5.56193 42.3477 5.64561C42.3665 5.75257 42.3665 5.75257 42.3857 5.8617C42.4125 6.0582 42.4125 6.0582 42.4125 6.41109C42.4632 6.41445 42.5138 6.41781 42.566 6.42128C43.3277 6.48069 44.0779 6.59978 44.8314 6.72243C45.0552 6.75872 45.2792 6.79402 45.5032 6.82928C45.6464 6.85237 45.7896 6.87551 45.9327 6.89872C45.9993 6.90911 46.0658 6.9195 46.1344 6.93021C46.4501 6.9825 46.7245 7.03762 47 7.20508C46.4683 7.34612 45.9386 7.44762 45.3955 7.53385C45.3123 7.54731 45.2291 7.56076 45.1433 7.57463C44.8801 7.61715 44.6167 7.65925 44.3534 7.70133C44.1738 7.73025 43.9943 7.7592 43.8147 7.78818C43.3768 7.8588 42.9388 7.92904 42.5007 7.99908C42.2921 9.08004 42.0895 10.1614 41.9052 11.2467C41.876 11.4172 41.876 11.4172 41.8463 11.5912C41.7996 11.8642 41.7531 12.1371 41.7067 12.4102C41.6194 12.3665 41.6194 12.3665 41.5303 12.3219C41.4856 12.1524 41.4856 12.1524 41.4535 11.9274C41.4412 11.8435 41.4288 11.7596 41.4161 11.6731C41.4035 11.5818 41.3909 11.4904 41.3779 11.3963C41.3645 11.3031 41.351 11.2098 41.3372 11.1138C41.2942 10.8145 41.2523 10.5151 41.2105 10.2157C41.1816 10.0143 41.1526 9.8129 41.1236 9.61154C41.0962 9.41983 41.0689 9.22811 41.0416 9.03638C41.0222 8.8999 41.0222 8.8999 41.0023 8.76066C40.9905 8.67619 40.9788 8.59171 40.9666 8.50468C40.9562 8.4303 40.9457 8.35593 40.935 8.2793C40.9127 8.0873 40.9127 8.0873 40.9127 7.82264C40.8406 7.81876 40.7686 7.81489 40.6943 7.8109C39.9189 7.7631 39.1596 7.67079 38.3928 7.54899C38.2023 7.51889 38.0117 7.49007 37.821 7.46131C37.6988 7.44226 37.5766 7.42313 37.4545 7.40393C37.3455 7.38693 37.2364 7.36994 37.1241 7.35243C36.8545 7.29331 36.8545 7.29331 36.5898 7.11686C37.1345 7.02843 37.6793 6.94054 38.2241 6.85302C38.4094 6.82319 38.5946 6.79324 38.7799 6.76316C39.0463 6.71991 39.3128 6.67711 39.5794 6.6344C39.662 6.62089 39.7447 6.60738 39.8298 6.59347C39.9075 6.5811 39.9852 6.56874 40.0652 6.556C40.1332 6.54503 40.2012 6.53406 40.2712 6.52276C40.4867 6.49755 40.6959 6.49537 40.9127 6.49931C40.9203 6.44424 40.9278 6.38918 40.9356 6.33244C41.0138 5.76141 41.0926 5.19045 41.1717 4.61954C41.2012 4.40621 41.2305 4.19286 41.2598 3.9795C41.3017 3.67354 41.3441 3.36764 41.3866 3.06176C41.3996 2.96573 41.4127 2.8697 41.4261 2.77076C41.4385 2.68245 41.4508 2.59414 41.4636 2.50316C41.4743 2.42499 41.4851 2.34683 41.4962 2.26629C41.5303 2.08822 41.5303 2.08822 41.6185 2Z" fill="#FFD15C"/>
<path d="M6.68219 4.46875C6.7113 4.46875 6.74042 4.46875 6.77041 4.46875C6.83367 4.86266 6.89648 5.25663 6.95888 5.65068C6.98015 5.78461 7.00154 5.91852 7.02306 6.05241C7.05404 6.2453 7.08457 6.43825 7.11503 6.63122C7.12468 6.69069 7.13433 6.75017 7.14427 6.81145C7.19277 7.12169 7.22209 7.41892 7.21152 7.73296C7.28021 7.73625 7.3489 7.73955 7.41967 7.74295C8.08169 7.78185 8.7334 7.85265 9.3895 7.948C9.46652 7.95878 9.54354 7.96956 9.62289 7.98067C9.69542 7.99161 9.76794 8.00255 9.84267 8.01382C9.90734 8.02342 9.97201 8.03302 10.0386 8.04292C10.2111 8.08584 10.2111 8.08584 10.4757 8.26229C9.93354 8.36603 9.39127 8.46932 8.84892 8.57218C8.66571 8.60706 8.48258 8.6424 8.29948 8.67789C8.21703 8.69359 8.13458 8.70928 8.04963 8.72545C7.9814 8.73864 7.91316 8.75183 7.84286 8.76543C7.63051 8.79466 7.42565 8.7933 7.21152 8.79162C7.20726 8.85499 7.20301 8.91836 7.19862 8.98365C7.14871 9.65536 7.05721 10.3119 6.94134 10.9751C6.92491 11.0713 6.90848 11.1675 6.89155 11.2667C6.85157 11.5004 6.81119 11.734 6.77041 11.9676C6.53704 11.7342 6.54497 11.5773 6.49954 11.2522C6.48419 11.1437 6.46884 11.0352 6.45302 10.9234C6.43767 10.8095 6.42232 10.6955 6.4065 10.5781C6.39046 10.4655 6.37443 10.3529 6.35791 10.2369C6.29042 9.7508 6.23152 9.28322 6.24108 8.79162C6.16571 8.786 6.16571 8.786 6.08881 8.78027C5.44896 8.7252 4.82926 8.60774 4.20095 8.47733C4.09974 8.45669 3.99853 8.43605 3.89425 8.41478C3.64719 8.36434 3.40022 8.3135 3.15332 8.26229C3.38295 8.03265 3.52997 8.03779 3.84945 7.99142C3.95396 7.97607 4.05847 7.96071 4.16615 7.94489C4.27589 7.92954 4.38563 7.91419 4.4987 7.89837C4.60708 7.88234 4.71546 7.8663 4.82712 7.84978C5.30326 7.78117 5.75918 7.72363 6.24108 7.73296C6.24438 7.67166 6.24768 7.61036 6.25108 7.54721C6.29325 6.89478 6.36945 6.25171 6.46164 5.60461C6.47316 5.52304 6.48468 5.44148 6.49655 5.35745C6.54151 5.04912 6.58342 4.76508 6.68219 4.46875Z" fill="#CDD6E0"/>
<path d="M13.0347 12.7617C13.0929 12.7617 13.1511 12.7617 13.2111 12.7617C13.256 13.0428 13.2998 13.3241 13.3435 13.6053C13.3561 13.6843 13.3687 13.7633 13.3817 13.8447C13.4492 14.2835 13.4904 14.6997 13.4758 15.1437C13.5738 15.148 13.6718 15.1523 13.7728 15.1568C14.4811 15.1913 15.1672 15.2336 15.8578 15.4084C15.5994 15.5806 15.4681 15.6241 15.1713 15.6792C15.0898 15.6946 15.0082 15.7099 14.9242 15.7258C14.8393 15.7411 14.7543 15.7565 14.6668 15.7723C14.5818 15.7883 14.4969 15.8044 14.4094 15.8209C13.7796 15.9377 13.7796 15.9377 13.4758 15.9377C13.4709 15.9879 13.466 16.0381 13.461 16.0899C13.4385 16.3204 13.4158 16.5508 13.3931 16.7813C13.3816 16.8998 13.3816 16.8998 13.3698 17.0207C13.3473 17.2479 13.3237 17.475 13.2993 17.7021C13.2898 17.7973 13.2898 17.7973 13.28 17.8944C13.2634 18.037 13.2382 18.1787 13.2111 18.3197C13.1238 18.3634 13.1238 18.3634 13.0347 18.4079C12.9753 18.0643 12.9167 17.7206 12.8582 17.3768C12.833 17.2309 12.833 17.2309 12.8072 17.082C12.7913 16.9879 12.7754 16.8938 12.759 16.7968C12.7442 16.7104 12.7294 16.624 12.7142 16.535C12.6834 16.303 12.6758 16.0832 12.6818 15.8495C12.619 15.8424 12.5563 15.8353 12.4916 15.828C12.2076 15.7955 11.9236 15.7618 11.6397 15.7282C11.4915 15.7115 11.4915 15.7115 11.3404 15.6944C11.2457 15.683 11.151 15.6717 11.0535 15.6599C10.9662 15.6498 10.8788 15.6396 10.7889 15.6291C10.5645 15.5848 10.5645 15.5848 10.2998 15.4084C11.5226 15.2337 11.5226 15.2337 12.77 15.0555C12.7991 14.7061 12.8282 14.3568 12.8582 13.9968C12.8871 13.7686 12.9178 13.5406 12.952 13.3131C12.9676 13.208 12.9831 13.1029 12.9992 12.9947C13.0109 12.9178 13.0226 12.8409 13.0347 12.7617Z" fill="#F5FBFE"/>
<path d="M9.68242 2C9.87107 2.28297 9.90602 2.45137 9.95811 2.78297C9.9729 2.87372 9.98768 2.96447 10.0029 3.05797C10.0321 3.2971 10.0415 3.52394 10.0353 3.76444C10.0951 3.76876 10.1549 3.77308 10.2166 3.77753C10.7846 3.82316 11.3319 3.90487 11.888 4.0291C11.6345 4.1981 11.5549 4.23131 11.2694 4.26137C11.1692 4.27246 11.1692 4.27246 11.0669 4.28377C10.9976 4.29071 10.9283 4.29765 10.8569 4.30479C10.7865 4.31241 10.7162 4.32003 10.6437 4.32788C10.4704 4.34657 10.297 4.36436 10.1235 4.38199C10.1144 4.49298 10.1053 4.60398 10.096 4.71833C10.0427 5.20996 9.91119 5.67352 9.77064 6.14642C9.60164 5.89292 9.56843 5.81338 9.53837 5.52784C9.52728 5.42762 9.52728 5.42762 9.51597 5.32538C9.50903 5.25606 9.5021 5.18675 9.49495 5.11533C9.48733 5.04499 9.47971 4.97466 9.47186 4.90219C9.45318 4.72886 9.43538 4.55543 9.41776 4.38199C9.25996 4.36595 9.25996 4.36595 9.09899 4.34959C8.96079 4.3347 8.8226 4.31976 8.68441 4.30479C8.58044 4.29439 8.58044 4.29439 8.47437 4.28377C8.40756 4.27638 8.34074 4.26899 8.27191 4.26137C8.21046 4.2549 8.14901 4.24844 8.08571 4.24177C7.91799 4.20554 7.91799 4.20554 7.65332 4.0291C7.8793 3.98449 8.10537 3.94046 8.33153 3.89677C8.39515 3.88414 8.45878 3.87152 8.52434 3.85852C8.85653 3.79481 9.16586 3.74834 9.50598 3.76444C9.514 3.62882 9.514 3.62882 9.52217 3.49047C9.52963 3.37042 9.53709 3.25038 9.54457 3.13034C9.54804 3.07092 9.55151 3.0115 9.55509 2.95028C9.57561 2.62664 9.60938 2.3161 9.68242 2Z" fill="#FFD15B"/>
<path d="M29.2783 20.7812C29.362 20.7849 29.4457 20.7885 29.5319 20.7923C29.5028 20.8796 29.4737 20.967 29.4437 21.0569C29.2399 21.0278 29.0361 20.9987 28.8262 20.9687C29.0026 20.7923 29.0026 20.7923 29.2783 20.7812Z" fill="#E8F7FE"/>
</svg>
