<svg width="735" height="735" viewBox="0 0 735 735" fill="none" xmlns="http://www.w3.org/2000/svg">
<g clip-path="url(#clip0_3151_43212)">
<path d="M411.456 -180.469C413.987 -179.203 413.987 -179.203 415.312 -175.994C416.022 -173.832 416.022 -173.832 416.747 -171.626C417.143 -170.425 417.143 -170.425 417.547 -169.199C418.43 -166.501 419.296 -163.798 420.158 -161.094C420.46 -160.155 420.762 -159.216 421.073 -158.249C444.065 -86.5101 462.844 -12.0883 460.823 63.7353C466.565 34.4114 467.124 2.11651 462.089 -27.3667C461.834 -28.8775 461.834 -28.8775 461.574 -30.4188C458.536 -47.9168 455 -65.6757 445.529 -80.9692C444.367 -83.0402 444.367 -83.0402 444.367 -85.5708C474.676 -71.6035 495.481 -24.624 506.486 4.77503C519.308 40.6588 521.473 78.666 506.392 114.348C507.619 113.543 507.619 113.543 508.87 112.721C532.151 98.236 558.165 93.5099 584.744 88.326C610.365 83.3158 633.227 75.543 650.696 54.8782C651.385 53.7087 652.073 52.5392 652.783 51.3343C653.347 50.4161 653.912 49.4978 654.494 48.5517C655.329 48.5517 656.165 48.5517 657.025 48.5517C654.57 56.4156 651.611 63.8432 648.165 71.3272C651.924 67.1517 655.684 62.9761 659.557 58.6741C660.392 59.0917 661.228 59.5092 662.089 59.9394C661.536 61.1872 661.536 61.1872 660.971 62.4601C657.689 70.0738 654.878 77.6716 652.358 85.5619C645.325 107.268 636.181 128.413 625.38 148.511C624.979 149.263 624.579 150.015 624.166 150.789C612.116 173.218 596.733 191.533 578.544 209.246C605.475 195.418 636.321 177.115 653.228 151.041C654.063 149.789 654.899 148.536 655.76 147.246C656.595 147.246 657.43 147.246 658.291 147.246C650.977 182.646 639.449 224.795 611.456 249.735C644.592 234.262 675.582 206.284 688.953 171.499C689.278 170.594 689.602 169.688 689.937 168.756C690.772 168.756 691.608 168.756 692.468 168.756C687.239 208.549 670.567 243.414 643.101 272.511C641.728 274.028 641.728 274.028 640.327 275.575C616.902 300.457 583.984 316.291 551.275 324.779C548.258 325.354 548.258 325.354 546.899 326.919C548.17 327.503 549.441 328.087 550.751 328.688C568.379 337 589.373 348.495 596.568 367.824C596.886 368.94 597.204 370.055 597.532 371.205C593.242 369.618 589.649 367.809 585.902 365.195C584.908 364.524 583.915 363.854 582.891 363.163C580.901 361.819 578.913 360.471 576.927 359.12C564.901 351.379 551.077 346.651 536.772 345.899C537.874 346.637 537.874 346.637 538.997 347.391C550.81 355.848 556.244 365.566 559.043 379.77C560.443 390.903 558.34 401.685 553.228 411.695C550.523 414.625 550.523 414.625 548.165 416.756C548.209 415.47 548.253 414.185 548.298 412.861C548.614 399.597 548.443 386.317 540.57 375.001C538.555 373.271 538.555 373.271 536.298 372.154C535.583 371.756 534.868 371.358 534.132 370.948C522.964 366.3 510.686 368.453 499.47 371.64C496.266 372.47 496.266 372.47 492.468 372.47C493.031 373.036 493.594 373.602 494.174 374.185C494.891 374.95 495.607 375.715 496.345 376.503C497.424 377.626 497.424 377.626 498.526 378.772C500.063 381.327 500.063 381.327 499.96 384.204C498.434 388.734 496.284 392.855 494.051 397.064C489.866 405.163 486.559 413.183 483.637 421.827C482.609 424.834 481.506 427.7 480.206 430.595C476.872 438.371 475.447 446.048 474.613 454.394C474.507 455.439 474.401 456.484 474.292 457.561C473.224 468.868 473.029 480.137 473.086 491.488C473.09 492.556 473.093 493.624 473.098 494.724C473.258 524.11 476.896 550.303 485.798 578.354C491.239 595.546 495.122 613.07 498.521 630.765C498.812 632.279 498.812 632.279 499.109 633.824C500.066 638.824 501.006 643.826 501.918 648.834C505.435 669.448 505.435 669.448 515.253 687.531C522.945 691.376 534.739 688.801 543.022 687.848C544.574 687.671 546.126 687.495 547.725 687.314C552.446 686.146 554.705 684.408 558.291 681.205C568.56 676.742 578.524 678.535 588.671 682.47C597.691 687.431 606.762 694.596 611.456 703.98C612.117 709.498 612.146 713.988 609.636 719.006C605.065 722.795 600.701 724.037 595 725.49C593.646 725.874 592.291 726.257 590.896 726.652C579.48 729.562 569.443 729.606 558.177 725.881C554.865 725.346 553.129 726.32 550.142 727.784C534.751 735.195 519.295 735.912 502.595 731.817C496.395 729.054 490.609 725.618 486.139 720.429C486.139 719.594 486.139 718.759 486.139 717.899C484.886 717.481 483.633 717.063 482.342 716.633C468.214 701.218 462.951 679.441 458.291 659.695C457.351 660.712 456.411 661.73 455.443 662.779C452.275 665.73 451.053 666.825 446.899 667.286C447.158 668.356 447.418 669.426 447.685 670.529C448.026 671.964 448.367 673.399 448.718 674.878C449.225 676.992 449.225 676.992 449.742 679.149C451.753 688.812 452.226 698.17 452.279 708.013C452.318 709.857 452.318 709.857 452.358 711.738C452.42 723.128 452.42 723.128 448.165 728.021C441.31 733.679 432.63 737.055 424.51 740.516C423.608 740.909 422.706 741.302 421.777 741.706C411.73 745.831 404.135 744.619 394.209 740.911C393.276 740.581 392.342 740.251 391.381 739.91C378.444 735.218 378.444 735.218 375.449 729.731C374.371 723.22 376.402 717.903 378.332 711.701C379.263 708.59 379.263 708.59 379.81 703.98C377.667 700.941 377.667 700.941 374.747 698.919C372.816 694.286 372.215 691.333 372.215 686.266C370.962 686.266 369.709 686.266 368.418 686.266C368.341 687.825 368.264 689.385 368.185 690.991C367.606 702.51 366.964 714.005 365.886 725.49C339.833 738.977 299.05 739.895 270.949 733.082C267.889 731.09 267.889 731.09 265.886 729.286C267.511 722.541 270.659 718.92 275.775 714.498C276.435 713.9 277.095 713.303 277.776 712.687C287.56 703.98 287.56 703.98 292.468 703.98C289.759 697.489 286.785 691.196 283.608 684.922C282.957 683.629 282.957 683.629 282.292 682.309C281.441 680.618 280.584 678.929 279.723 677.242C278.657 675.103 277.668 672.926 276.69 670.746C274.544 666.926 272.528 665.133 268.972 662.621C265.319 660.013 263.354 658.428 260.823 654.633C260.545 655.689 260.268 656.744 259.982 657.831C255.311 674.401 248.614 684.173 233.835 693.102C214.373 703.134 187.475 705.533 165.886 705.246C165.778 706.337 165.778 706.337 165.669 707.45C164.147 711.595 161.552 713.012 157.975 715.526C156.767 716.391 155.56 717.255 154.316 718.146C143.646 724.877 127.463 727.014 115.016 724.858C109.394 723.095 104.8 720.167 101.329 715.368C99.1282 709.505 99.4652 704.382 101.962 698.682C107.925 688.43 118.754 682.439 129.573 678.358C134.761 677.303 139.774 676.988 145.059 676.826C149.07 676.2 152.156 675.203 155.923 673.761C163.426 670.919 170.906 669.357 178.782 667.919C181.563 667.385 184.343 666.848 187.123 666.308C189.135 665.917 189.135 665.917 191.187 665.518C196.39 664.478 201.555 663.326 206.709 662.067C208.23 661.698 209.75 661.33 211.317 660.95C216.406 659.327 220.34 657.909 223.219 653.249C223.78 651.742 223.78 651.742 224.351 650.205C224.735 649.226 225.118 648.247 225.513 647.239C229.065 634.713 229.541 622.711 229.438 609.789C229.415 606.807 229.412 603.827 229.412 600.845C229.401 595.154 229.312 589.466 229.177 583.776C229.151 582.482 229.151 582.482 229.125 581.163C229.049 568.893 229.049 568.893 222.69 558.865C216.729 552.423 212.062 545.812 207.658 538.225C207.2 537.449 206.741 536.672 206.269 535.872C202.933 529.359 202.612 522.528 203.861 515.45C207.992 504.527 214.268 495.354 224.114 488.878C226.987 487.989 226.987 487.989 229.177 487.613C228.394 486.256 227.611 484.899 226.804 483.501C217.645 464.995 221.046 442.476 225.38 423.082C225.807 421.927 226.234 420.772 226.674 419.583C228.086 414.912 228.356 410.8 228.534 405.926C228.618 404.089 228.702 402.251 228.787 400.413C228.907 397.551 229.019 394.689 229.119 391.826C229.22 389.039 229.35 386.253 229.484 383.467C229.579 380.985 229.579 380.985 229.676 378.453C230.594 372.808 232.423 369.644 235.506 364.878C234.034 363.371 232.556 361.87 231.076 360.371C230.254 359.534 229.431 358.697 228.584 357.835C226.017 355.368 223.415 353.042 220.717 350.723C214.591 345.401 208.872 339.706 203.149 333.957C202.122 332.935 201.094 331.914 200.036 330.861C194.56 325.378 189.281 319.801 184.229 313.926C181.869 311.186 179.416 308.539 176.962 305.883C169.89 298.036 163.438 289.754 157.025 281.368C156.454 280.629 155.883 279.891 155.294 279.13C126.577 241.879 103.682 197.097 109.557 148.669C109.87 146.712 109.87 146.712 110.19 144.715C110.608 144.715 111.025 144.715 111.456 144.715C111.589 145.46 111.723 146.206 111.86 146.973C112.482 150.414 113.116 153.851 113.75 157.289C113.96 158.461 114.169 159.633 114.385 160.84C115.786 168.369 117.679 175.484 120.317 182.674C120.297 181.502 120.277 180.33 120.256 179.122C120.191 174.684 120.144 170.246 120.108 165.807C120.089 163.903 120.063 161.999 120.03 160.095C119.75 143.63 121.144 127.992 128.228 112.845C128.612 112.001 128.997 111.156 129.393 110.287C138.101 91.6351 150.035 77.715 167.152 66.2659C167.152 70.883 166.144 71.7088 163.355 75.2812C149.031 95.2617 142.739 117.024 142.548 141.393C142.535 142.777 142.521 144.161 142.508 145.587C142.604 154.324 143.882 161.816 146.899 170.021C147.317 170.021 147.734 170.021 148.165 170.021C147.859 169.06 147.859 169.06 147.547 168.079C142.728 144.88 149.953 121.532 162.46 102.115C176.262 81.7346 193.82 62.995 212.722 47.2864C213.394 46.7228 214.067 46.1593 214.761 45.5787C233.832 29.6519 253.932 15.2867 274.747 1.73533C276.127 0.828462 277.508 -0.0784067 278.93 -1.01276C288.342 -7.12181 288.342 -7.12181 291.203 -7.12181C289.374 -2.8506 287.096 -0.360516 283.687 2.76339C251.9 33.9263 233.982 77.6249 226.646 120.674C227.23 119.418 227.814 118.162 228.416 116.868C229.249 115.131 230.083 113.395 230.918 111.659C231.295 110.842 231.672 110.024 232.06 109.183C240.32 92.1828 252.645 78.7587 266.044 65.7124C267.488 64.2843 268.93 62.855 270.371 61.4247C277.529 54.3476 284.802 47.4889 292.468 40.9598C294.583 39.0673 296.694 37.1702 298.798 35.2659C302.515 31.9114 306.248 28.5815 310.032 25.3017C327.772 9.80264 345.091 -6.18039 359.557 -24.8361C360.582 -26.1067 361.606 -27.3773 362.662 -28.6864C383.28 -54.4576 398.649 -85.0945 405.573 -117.355C405.93 -118.995 405.93 -118.995 406.294 -120.668C406.497 -121.647 406.701 -122.626 406.91 -123.635C407.658 -126.061 407.658 -126.061 410.19 -128.591C410.608 -125.668 411.025 -122.745 411.456 -119.734C412.291 -119.734 413.127 -119.734 413.987 -119.734C414.648 -135.048 413.138 -150.048 411.43 -165.241C411.254 -166.844 411.078 -168.447 410.897 -170.099C410.731 -171.547 410.566 -172.996 410.395 -174.488C410.19 -177.938 410.19 -177.938 411.456 -180.469ZM224.114 129.531C223.924 138.46 223.924 138.46 225.38 147.246C225.798 147.246 226.215 147.246 226.646 147.246C226.646 141.817 226.646 136.389 226.646 130.797C225.81 130.379 224.975 129.961 224.114 129.531ZM574.747 210.511C574.329 211.346 573.911 212.181 573.481 213.041C574.734 212.624 575.987 212.206 577.279 211.776C576.443 211.359 575.608 210.941 574.747 210.511Z" fill="#151415"/>
<path d="M420.316 -126.062C421.152 -126.062 421.987 -126.062 422.848 -126.062C423.193 -124.365 423.193 -124.365 423.545 -122.632C424.023 -120.337 424.023 -120.337 424.509 -117.996C424.818 -116.499 425.126 -115.002 425.444 -113.459C426.289 -109.632 427.365 -105.922 428.529 -102.18C430.416 -96.015 431.691 -89.8586 432.816 -83.5166C434.693 -73.3131 436.702 -63.1455 438.829 -52.9911C439.09 -51.7423 439.351 -50.4935 439.62 -49.2069C440.985 -42.6356 440.985 -42.6356 442.474 -36.092C444.849 -26.161 446.168 -16.0464 447.532 -5.9375C447.671 -4.90602 447.81 -3.87454 447.954 -2.81181C450.239 14.409 451.581 31.5939 452.358 48.9452C452.407 50.0402 452.457 51.1352 452.508 52.2635C453.135 66.6354 453.343 80.9816 453.228 95.3661C454.063 95.3661 454.899 95.3661 455.759 95.3661C456.073 94.3222 456.386 93.2783 456.709 92.2028C457.883 88.915 459.042 86.2759 460.674 83.2518C477.451 50.0245 479.363 -0.957086 469.683 -36.2258C468.182 -40.4688 466.558 -44.5094 464.605 -48.5625C463.354 -51.4094 463.354 -51.4094 463.354 -55.2054C467.152 -53.9401 467.152 -53.9401 469.367 -49.7487C469.799 -48.8223 470.232 -47.8958 470.677 -46.9413C472.357 -43.5298 474.274 -40.3441 476.25 -37.0957C486.231 -20.096 494.452 -1.98966 500.063 16.9171C500.524 18.4691 500.524 18.4691 500.994 20.0526C508.341 45.7766 509.592 72.2623 501.329 97.8967C501.051 98.7828 500.773 99.6688 500.487 100.582C495.864 115.094 489.93 128.983 482.713 142.405C480.725 146.09 480.725 146.09 481.076 151.04C481.781 150.046 482.486 149.053 483.212 148.029C507.091 115.168 543.526 104.86 581.946 98.5293C583.479 98.2897 585.012 98.05 586.591 97.8031C600.003 95.63 613.07 92.5896 625.142 86.1926C626.404 85.5337 627.665 84.8747 628.965 84.1958C629.87 83.7065 630.776 83.2172 631.709 82.713C630.031 87.2969 627.983 91.1084 625.221 95.1288C624.198 96.6286 624.198 96.6286 623.155 98.1586C622.376 99.2816 622.376 99.2816 621.582 100.427C630.521 95.5938 637.53 90.2345 644.367 82.713C645.202 83.1306 646.038 83.5481 646.899 83.9783C621.691 140.352 593.589 189.147 545.633 229.489C543.944 230.938 542.257 232.387 540.57 233.838C539.316 234.908 538.063 235.978 536.772 237.08C571.051 226.842 610.512 206.025 636.055 180.769C638.721 178.178 641.332 175.945 644.367 173.815C642.262 182.329 638.791 190.158 635.269 198.172C634.69 199.524 634.112 200.876 633.516 202.27C622.326 227.806 605.116 250.133 582.342 266.182C619.309 257.728 651.209 242.908 673.481 210.509C674.747 214.305 674.747 214.305 673.657 216.838C673.078 217.79 672.5 218.741 671.904 219.722C671.266 220.781 670.629 221.839 669.972 222.93C668.929 224.611 668.929 224.611 667.864 226.325C667.162 227.47 666.459 228.615 665.736 229.794C658.077 242.17 650.284 253.192 639.68 263.286C636.735 266.084 636.735 266.084 634.478 269.217C609.966 298.356 566.152 312.621 530.443 320.591C527.278 321.298 524.113 322.011 520.949 322.726C519.631 323.018 518.312 323.31 516.954 323.61C514.06 324.101 514.06 324.101 512.721 325.652C513.963 325.838 515.205 326.024 516.484 326.215C525.918 327.741 534.769 329.749 543.655 333.323C544.878 333.811 544.878 333.811 546.125 334.309C551.788 336.692 551.788 336.692 553.228 339.57C552.251 339.564 551.274 339.557 550.267 339.55C545.848 339.524 541.429 339.507 537.009 339.491C535.472 339.48 533.934 339.47 532.349 339.459C530.876 339.455 529.404 339.451 527.887 339.447C526.528 339.44 525.169 339.433 523.769 339.427C520.196 339.416 520.196 339.416 516.519 340.835C513.566 340.885 510.611 340.891 507.658 340.835C507.658 341.671 507.658 342.506 507.658 343.366C509.068 343.262 510.478 343.157 511.93 343.05C523.541 343.152 532.026 348.833 540.223 356.627C544.526 361.394 550.696 368.249 550.696 374.999C546.899 373.733 546.899 373.733 544.842 370.807C539.624 364.905 533.962 362.711 526.161 361.901C518.038 361.708 511.004 362.244 503.445 365.311C501.329 366.142 501.329 366.142 498.797 366.142C498.797 366.977 498.797 367.812 498.797 368.672C500.886 368.672 502.975 368.672 505.127 368.672C500.993 371.056 497.176 371.826 492.468 372.468C492.468 373.303 492.468 374.138 492.468 374.999C486.401 373.201 481.116 370.548 475.617 367.486C461.416 359.771 446.568 353.487 431.709 347.162C430.413 346.603 429.118 346.044 427.783 345.469C419.244 341.831 410.713 338.844 401.759 336.412C395.252 334.425 391.974 331.906 387.826 326.536C378.944 315.217 360.812 307.129 346.899 304.142C324.82 302.402 305.345 305.98 287.924 320.304C283.977 323.949 280.538 327.715 277.278 331.978C271.694 339.243 265.195 345.016 258.133 350.8C257.255 351.523 256.378 352.247 255.473 352.992C251.112 356.499 247.27 359.411 241.835 361.08C241.372 360.434 240.909 359.789 240.431 359.123C235.248 352.166 229.539 346.098 223.361 340.043C219.875 336.62 216.519 333.177 213.354 329.448C209.566 324.993 205.486 320.901 201.329 316.795C191.282 306.848 182.38 296.143 173.481 285.162C172.228 283.638 172.228 283.638 170.949 282.083C156.466 264.307 144.012 245.457 133.687 224.981C133.269 224.152 132.851 223.324 132.42 222.471C130.088 217.736 128.193 213.023 126.646 207.978C130.995 209.911 134.391 212.532 138.038 215.57C137.384 212.3 136.389 209.672 134.992 206.614C125.458 184.531 125.702 157.777 130.443 134.591C131.278 134.591 132.114 134.591 132.975 134.591C132.993 135.496 133.011 136.401 133.029 137.334C133.774 152.882 139.613 171.075 150.528 182.647C153.411 185.165 156.131 187.286 159.557 188.999C159.031 187.898 159.031 187.898 158.494 186.775C158.035 185.786 157.577 184.798 157.104 183.779C156.649 182.81 156.194 181.842 155.725 180.843C149.515 164.54 152.703 144.054 159.28 128.448C169.047 106.966 184.963 89.2695 201.329 72.5906C202.676 71.2153 202.676 71.2153 204.05 69.8122C206.879 66.9337 209.718 64.0654 212.563 61.2028C213.436 60.3246 214.308 59.4464 215.207 58.5415C220.925 52.8456 226.864 47.4923 232.975 42.2232C235.142 40.2778 237.305 38.328 239.462 36.3712C252.648 24.5089 252.648 24.5089 255.759 24.5089C255.759 23.6738 255.759 22.8387 255.759 21.9783C256.595 21.9783 257.43 21.9783 258.291 21.9783C256.101 26.9153 252.924 31.092 249.747 35.4222C229.496 63.4626 216.159 95.6962 219.051 130.795C220.215 137.735 221.601 144.994 225.38 151.04C226.633 151.457 227.886 151.875 229.177 152.305C229.073 151 228.968 149.695 228.861 148.351C229.015 119.122 250.474 95.8351 269.683 76.3865C274.609 71.5936 279.738 67.0351 284.873 62.4681C287.221 60.3075 289.568 58.1459 291.914 55.9834C296.397 51.9075 300.964 48.0026 305.68 44.2003C312.719 38.5139 319.361 32.4531 325.981 26.2951C327.911 24.5094 329.854 22.7398 331.803 20.975C344.567 9.40892 356.548 -2.36804 367.152 -15.9809C367.75 -16.7416 368.347 -17.5022 368.963 -18.286C377.898 -29.6985 385.569 -41.1962 392.468 -53.9401C393.337 -55.3419 393.337 -55.3419 394.224 -56.7722C398.789 -64.1857 401.249 -72.1954 403.792 -80.4732C404.594 -83.0378 405.486 -85.5738 406.392 -88.1033C407.646 -88.7296 407.646 -88.7296 408.924 -89.3686C410.177 -74.9631 410.177 -74.9631 411.456 -60.2666C414.027 -68.8328 416.118 -76.5949 417.31 -85.3355C417.468 -86.4579 417.626 -87.5804 417.789 -88.7369C419.43 -101.137 419.949 -113.569 420.316 -126.062Z" fill="#72579C"/>
<path d="M264.62 392.715C264.992 393.843 264.992 393.843 265.371 394.993C271.583 412.204 282.941 425.05 299.43 433.046C313.431 438.828 326.927 438.68 341.835 438.266C343.83 438.232 343.83 438.232 345.865 438.197C355.112 437.741 362.675 434.69 370.949 430.674C372.169 430.082 373.39 429.49 374.647 428.88C389.968 420.99 398.908 410.752 406.392 395.245C414.294 395.754 420.146 399.627 426.803 403.549C427.989 404.239 429.174 404.928 430.395 405.639C444.396 413.846 457.308 422.685 469.683 433.205C469.294 435.089 469.294 435.089 468.897 437.01C468.552 438.747 468.207 440.483 467.863 442.22C467.608 443.446 467.608 443.446 467.347 444.696C465.026 456.578 464.54 468.626 464.62 480.708C464.617 483.097 464.617 483.097 464.615 485.534C464.618 488.78 464.661 492.026 464.743 495.271C464.624 508.13 460.718 513.96 451.962 523.041C450.493 524.89 449.052 526.762 447.65 528.661C447.002 529.522 446.355 530.384 445.687 531.271C445.043 532.131 444.398 532.99 443.734 533.876C438.393 540.927 432.937 547.734 426.892 554.204C424.599 556.681 422.396 559.198 420.197 561.757C414.339 568.465 408.097 574.789 401.803 581.087C401.188 581.704 400.572 582.32 399.937 582.955C390.805 592.064 381.722 600.667 370.949 607.817C369.728 608.636 368.508 609.454 367.25 610.298C349.546 621.394 331.126 625.965 310.501 622.398C307.682 621.561 305.223 620.519 302.594 619.205C300.95 618.441 300.95 618.441 299.272 617.663C291.61 613.833 285.478 609.205 279.281 603.314C276.745 600.917 274.18 598.642 271.532 596.375C264.217 590.001 257.333 583.183 250.458 576.342C249.759 575.646 249.059 574.95 248.339 574.233C212.169 538.097 212.169 538.097 210.585 521.222C211.067 513.971 214.481 508.302 219.05 502.796C222.605 499.741 226.326 497.43 230.443 495.205C231.294 494.727 232.146 494.249 233.024 493.756C270.701 473.725 323.47 480.621 363.354 490.143C364.49 490.411 365.626 490.678 366.796 490.954C385.14 495.329 402.729 501.067 420.316 507.858C416.533 503.814 412.179 501.583 407.262 499.159C406.365 498.709 405.469 498.26 404.545 497.797C398.742 494.956 393.001 492.745 386.851 490.776C379.588 488.342 375.038 485.2 369.639 479.833C367.259 477.592 365.139 476.201 362.246 474.722C358.291 472.429 358.291 472.429 356.807 469.469C353.452 464.589 349.194 462.957 343.892 460.567C342.936 460.102 341.98 459.637 340.994 459.158C336.872 457.249 333.885 455.967 329.3 456.035C326.023 457.529 325.303 458.64 323.876 461.911C323.473 462.817 323.07 463.722 322.655 464.654C321.312 468.051 320.1 471.461 319.05 474.96C318.215 474.96 317.379 474.96 316.519 474.96C316.471 473.647 316.471 473.647 316.422 472.308C316.276 468.368 316.121 464.428 315.965 460.488C315.915 459.11 315.865 457.733 315.814 456.314C315.761 455.005 315.708 453.696 315.653 452.347C315.607 451.135 315.56 449.922 315.513 448.673C315.559 445.894 315.559 445.894 313.987 444.592C311.64 444.482 309.29 444.457 306.941 444.469C305.517 444.473 304.093 444.477 302.627 444.481C301.128 444.492 299.629 444.502 298.085 444.513C296.581 444.519 295.078 444.525 293.529 444.531C289.799 444.546 286.07 444.566 282.341 444.592C282.341 442.922 282.341 441.252 282.341 439.531C268.584 441.753 255.237 444.547 241.835 448.388C241.116 457.408 242.581 464.41 245.791 472.854C246.898 476.225 246.898 476.225 246.898 481.286C241.886 482.539 241.886 482.539 236.772 483.817C230.44 469.72 229.511 453.538 230.443 438.266C230.482 437.332 230.521 436.397 230.561 435.435C231.108 424.893 231.698 415.39 239.882 407.975C243.368 405.21 246.977 402.755 250.696 400.307C252.656 398.762 254.609 397.209 256.55 395.641C259.778 393.14 260.362 392.715 264.62 392.715Z" fill="#917DB9"/>
<path d="M411.456 -180.469C413.988 -179.203 413.988 -179.203 415.312 -175.994C416.022 -173.832 416.022 -173.832 416.747 -171.626C417.143 -170.425 417.143 -170.425 417.547 -169.199C418.431 -166.501 419.296 -163.798 420.159 -161.094C420.461 -160.155 420.762 -159.216 421.073 -158.249C444.065 -86.5101 462.844 -12.0883 460.823 63.7353C466.566 34.4114 467.124 2.11651 462.089 -27.3667C461.834 -28.8775 461.834 -28.8775 461.574 -30.4188C458.537 -47.9168 455.001 -65.6757 445.53 -80.9692C444.368 -83.0402 444.368 -83.0402 444.368 -85.5708C474.676 -71.6035 495.481 -24.624 506.487 4.77503C519.308 40.6588 521.474 78.666 506.393 114.348C507.619 113.543 507.619 113.543 508.87 112.721C532.152 98.236 558.166 93.5099 584.745 88.326C610.365 83.3158 633.227 75.543 650.697 54.8782C651.385 53.7087 652.074 52.5392 652.783 51.3343C653.348 50.4161 653.912 49.4978 654.494 48.5517C655.33 48.5517 656.165 48.5517 657.026 48.5517C654.571 56.4156 651.611 63.8432 648.165 71.3272C651.925 67.1517 655.684 62.9761 659.557 58.6741C660.393 59.0917 661.228 59.5092 662.089 59.9394C661.536 61.1872 661.536 61.1872 660.972 62.4601C657.69 70.0738 654.879 77.6716 652.358 85.5619C645.326 107.268 636.181 128.413 625.38 148.511C624.98 149.263 624.579 150.015 624.166 150.789C612.116 173.218 596.733 191.533 578.545 209.246C605.476 195.418 636.321 177.115 653.228 151.041C654.064 149.789 654.899 148.536 655.76 147.246C656.595 147.246 657.431 147.246 658.292 147.246C650.978 182.646 639.449 224.795 611.456 249.735C644.592 234.262 675.583 206.284 688.953 171.499C689.278 170.594 689.603 169.688 689.937 168.756C690.773 168.756 691.608 168.756 692.469 168.756C687.239 208.549 670.567 243.414 643.102 272.511C641.729 274.028 641.729 274.028 640.328 275.575C616.902 300.457 583.985 316.291 551.275 324.779C548.259 325.354 548.259 325.354 546.899 326.919C548.17 327.503 549.441 328.087 550.751 328.688C568.379 337 589.373 348.495 596.568 367.824C596.886 368.94 597.204 370.055 597.532 371.205C593.242 369.618 589.649 367.809 585.902 365.195C584.909 364.524 583.915 363.854 582.891 363.163C580.901 361.819 578.913 360.471 576.928 359.12C564.901 351.379 551.078 346.651 536.773 345.899C537.874 346.637 537.874 346.637 538.998 347.391C550.811 355.848 556.245 365.566 559.043 379.77C560.444 390.903 558.341 401.685 553.228 411.695C550.524 414.625 550.524 414.625 548.165 416.756C548.209 415.47 548.253 414.185 548.299 412.861C548.614 399.597 548.443 386.317 540.57 375.001C538.556 373.271 538.556 373.271 536.298 372.154C535.583 371.756 534.869 371.358 534.132 370.948C529.181 368.887 524.263 368.518 518.947 368.551C517.179 368.557 517.179 368.557 515.375 368.563C514.16 368.573 512.945 368.584 511.694 368.595C510.454 368.601 509.215 368.606 507.938 368.612C504.891 368.627 501.845 368.648 498.798 368.674C498.798 367.839 498.798 367.004 498.798 366.143C510.172 360.946 521.981 358.37 534.206 362.288C540.287 365.117 544.389 368.074 548.165 373.735C549 374.153 549.836 374.57 550.697 375.001C543.759 360.953 536.644 351.452 521.583 345.899C516.967 344.777 512.369 343.968 507.659 343.368C507.659 342.533 507.659 341.698 507.659 340.837C517.496 338.37 526.821 337.996 536.931 338.149C538.383 338.16 539.835 338.171 541.332 338.183C544.875 338.213 548.419 338.254 551.962 338.307C537.971 332.447 525.369 328.364 510.19 326.919C513.094 323.539 515.217 322.503 519.56 321.635C521.231 321.285 521.231 321.285 522.934 320.928C524.133 320.687 525.332 320.446 526.567 320.197C564.153 312.047 598.14 298.638 627.912 273.776C628.987 272.939 630.062 272.103 631.17 271.241C633.893 269.001 636.091 266.814 638.355 264.128C640.723 261.329 643.082 258.613 645.668 256.012C655.101 246.362 661.429 234.953 668.13 223.324C669.879 220.297 671.669 217.296 673.481 214.307C673.064 213.889 672.646 213.472 672.216 213.041C671.738 213.702 671.259 214.363 670.767 215.043C661.171 227.87 650.31 238.617 636.773 247.205C635.833 247.851 634.893 248.497 633.925 249.162C619.402 258.676 600.562 264.115 583.608 267.45C582.773 267.032 581.937 266.615 581.076 266.184C581.917 265.527 582.757 264.87 583.623 264.192C589.415 259.62 594.975 255.097 600.064 249.735C601.026 248.857 601.026 248.857 602.007 247.961C609.389 241.086 614.906 232.888 620.317 224.429C620.914 223.497 621.51 222.564 622.125 221.604C627.052 213.668 630.917 205.5 634.557 196.909C635.106 195.641 635.654 194.374 636.219 193.068C638.764 187.14 641.21 181.259 643.102 175.082C642.302 175.94 641.503 176.798 640.679 177.682C617.451 201.837 586.765 216.638 556.623 230.454C554.21 231.568 551.81 232.707 549.418 233.865C548.176 234.457 546.933 235.049 545.653 235.659C544.528 236.204 543.402 236.748 542.243 237.31C539.304 238.348 539.304 238.348 535.507 237.082C538.248 234.523 540.99 231.966 543.735 229.411C544.554 228.649 545.373 227.886 546.217 227.1C550.183 223.419 554.16 219.78 558.292 216.284C569.611 206.508 580.518 195.556 589.937 183.939C591.347 182.224 591.347 182.224 592.785 180.475C601.825 169.246 609.327 157.188 616.519 144.715C616.993 143.895 617.467 143.074 617.956 142.229C628.6 123.552 636.926 103.607 645.633 83.9802C645.055 84.4796 644.477 84.979 643.881 85.4936C639.808 89.0007 635.744 92.4971 631.472 95.7634C630.671 96.3848 629.87 97.0063 629.044 97.6465C626.546 99.2271 624.472 99.8849 621.583 100.429C623.554 94.5189 626.753 90.1966 630.444 85.2455C626.57 86.0267 623.872 87.3239 620.554 89.4369C607.959 96.4925 593.564 98.2153 579.494 100.35C547.329 105.264 509.615 114.517 488.921 141.922C487.47 143.915 486.052 145.933 484.637 147.952C482.342 151.041 482.342 151.041 479.811 152.307C480.156 144.719 482.994 139.357 486.461 132.675C507.409 90.8899 510.029 50.7256 495.307 6.25287C489.323 -10.8348 480.944 -26.7273 472.216 -42.5504C471.5 -43.8722 471.5 -43.8722 470.769 -45.2206C468.668 -49.0289 466.694 -52.366 463.355 -55.2034C463.859 -54.1123 464.363 -53.0211 464.883 -51.8968C482.122 -12.9761 478.59 38.0954 464.621 77.6537C462.087 83.7913 459.079 89.6162 455.76 95.368C454.925 95.368 454.089 95.368 453.228 95.368C452.888 89.8443 452.552 84.3204 452.22 78.7962C452.101 76.8155 451.981 74.8349 451.86 72.8543C451.203 62.052 450.625 51.2715 450.389 40.4504C449.579 7.09313 444.076 -26.4966 436.773 -58.9994C436.361 -60.8475 436.361 -60.8475 435.941 -62.7329C434.608 -68.6952 433.253 -74.6519 431.873 -80.6035C430.312 -87.3526 428.885 -94.1249 427.501 -100.913C426.696 -104.615 426.696 -104.615 425.326 -108.356C424.1 -112.188 423.616 -115.573 423.323 -119.576C423.181 -121.411 423.181 -121.411 423.036 -123.283C422.974 -124.199 422.912 -125.116 422.849 -126.061C422.013 -126.061 421.178 -126.061 420.317 -126.061C420.376 -124.509 420.434 -122.958 420.495 -121.36C420.829 -108.251 420.116 -95.6813 418.023 -82.7239C417.813 -81.4158 417.604 -80.1078 417.388 -78.7602C416.059 -71.0537 414.187 -63.7984 411.456 -56.4688C411.038 -56.4688 410.621 -56.4688 410.19 -56.4688C409.355 -66.9075 408.519 -77.3463 407.659 -88.1014C406.562 -84.6305 405.466 -81.1596 404.336 -77.5835C401.258 -68.2176 397.674 -59.8154 392.469 -51.4075C391.519 -49.8197 390.57 -48.2314 389.621 -46.6429C382.832 -35.4092 375.469 -24.8648 367.152 -14.7136C366.582 -14.0131 366.011 -13.3126 365.424 -12.5908C353.241 2.2675 339.917 16.4108 325.222 28.8208C322.337 31.2717 319.553 33.8223 316.757 36.3731C312.428 40.2846 308.014 44.0277 303.466 47.6818C296.023 53.7128 289.034 60.1574 282.051 66.7065C279.695 68.9048 277.322 71.0836 274.945 73.2597C250.72 95.5015 232.424 118.556 229.178 152.307C226.725 151.911 226.725 151.911 224.114 151.041C222.507 146.221 223.416 143.153 224.906 138.388C225.514 135.144 224.79 132.758 224.114 129.531C224.066 126.579 224.057 123.626 224.114 120.674C224.95 121.092 225.785 121.509 226.646 121.939C227.062 120.851 227.478 119.764 227.907 118.643C237.077 95.8638 252.513 79.3966 269.763 62.2328C270.834 61.1571 271.906 60.0814 273.009 58.9731C279.291 52.7037 285.73 46.7323 292.469 40.9598C294.583 39.0673 296.694 37.1702 298.798 35.2659C302.515 31.9114 306.249 28.5815 310.032 25.3017C327.773 9.80264 345.091 -6.18039 359.557 -24.8361C360.582 -26.1067 361.607 -27.3773 362.663 -28.6864C383.28 -54.4576 398.649 -85.0945 405.573 -117.355C405.93 -118.995 405.93 -118.995 406.294 -120.668C406.498 -121.647 406.701 -122.626 406.911 -123.635C407.659 -126.061 407.659 -126.061 410.19 -128.591C410.608 -125.668 411.026 -122.745 411.456 -119.734C412.292 -119.734 413.127 -119.734 413.988 -119.734C414.649 -135.048 413.138 -150.048 411.43 -165.241C411.254 -166.844 411.078 -168.447 410.897 -170.099C410.732 -171.547 410.566 -172.996 410.395 -174.488C410.19 -177.938 410.19 -177.938 411.456 -180.469ZM574.747 210.511C574.33 211.346 573.912 212.181 573.481 213.041C574.735 212.624 575.988 212.206 577.279 211.776C576.444 211.359 575.608 210.941 574.747 210.511Z" fill="#171718"/>
<path d="M462.089 514.184C462.924 514.184 463.76 514.184 464.621 514.184C464.833 516.356 464.833 516.356 465.051 518.573C466.685 532.97 469.819 546.648 473.877 560.525C478.855 577.556 483.046 594.628 486.686 612.002C487.278 614.806 487.893 617.602 488.533 620.395C490.324 628.312 491.727 636.247 493.006 644.259C496.196 670.375 496.196 670.375 508.924 692.592C515.076 696.547 520.051 696.94 527.121 696.783C528.028 696.787 528.935 696.791 529.87 696.795C536.338 696.731 541.932 695.564 548.165 693.857C552.755 693.328 554.81 693.282 558.766 695.676C561.85 700.538 562.051 704.717 560.823 710.306C556.452 718.47 548.953 722.311 540.456 725.089C527.261 728.548 512.825 727.691 500.064 722.959C496.1 720.45 493.048 717.594 489.937 714.102C489.347 713.486 488.757 712.871 488.149 712.237C482.923 706.564 479.945 700.867 477.2 693.699C476.773 692.606 476.346 691.513 475.906 690.387C469.88 674.396 466.264 657.787 464.091 640.862C461.465 621.4 458.283 601.96 450.696 583.775C451.265 589.26 451.85 594.742 452.437 600.224C452.597 601.769 452.757 603.314 452.922 604.905C453.916 614.354 453.916 614.354 455.859 623.638C458.459 633.494 458.003 642.764 453.812 652.057C448.404 659.587 441.486 662.595 432.975 665.467C431.886 665.841 430.798 666.216 429.676 666.601C416.096 671.064 398.028 676.805 383.608 674.877C377.01 668.917 374.827 660.576 373.481 652.102C373.481 656.952 374.025 659.079 375.855 663.411C376.295 664.466 376.736 665.521 377.19 666.608C377.637 667.667 378.084 668.726 378.545 669.816C379.391 671.924 380.235 674.033 381.076 676.143C322.454 677.463 322.454 677.463 301.329 669.816C299.876 669.345 298.422 668.873 296.924 668.388C283.667 663.568 270.235 654.592 263.355 641.98C261.731 638.245 260.543 634.539 259.557 630.592C259.349 629.791 259.14 628.99 258.925 628.165C257.103 620.714 256.504 613.49 256.234 605.839C256.185 604.684 256.137 603.528 256.086 602.337C255.968 599.524 255.86 596.711 255.76 593.898C260.227 594.867 262.096 596.092 265.333 599.355C271.2 604.761 277.588 608.962 284.32 613.194C285.337 613.835 286.353 614.477 287.401 615.138C305.663 626.471 322.523 631.143 344.041 627.191C353.281 624.533 361.508 620.412 369.684 615.408C370.864 614.71 372.043 614.012 373.259 613.293C382.299 607.647 389.821 601.002 397.437 593.579C398.199 592.839 398.962 592.1 399.747 591.338C400.419 590.673 401.092 590.009 401.784 589.324C403.861 587.571 403.861 587.571 406.569 586.221C409.646 584.679 410.031 583.051 411.456 579.98C412.903 578.423 414.413 576.923 415.965 575.472C430.73 561.031 445.235 542.816 454.494 524.306C455.329 524.306 456.165 524.306 457.026 524.306C457.391 523.34 457.757 522.375 458.133 521.38C459.557 517.98 459.557 517.98 462.089 514.184Z" fill="#363636"/>
<path d="M370.158 320.275C381.634 328.412 389.853 338.548 393.734 352.224C394.313 356.507 394.399 360.717 394.367 365.035C394.359 366.202 394.351 367.369 394.342 368.571C393.854 386.969 386.275 400.282 374.193 413.907C356.862 429.119 341.797 432.801 319.051 431.938C303.104 430.319 288.207 420.481 278.149 408.293C268.99 394.834 266.515 380.763 268.418 364.877C270.462 354.193 274.391 345.573 281.076 337.04C281.632 336.278 282.189 335.517 282.762 334.732C292.067 322.803 304.891 316.258 319.051 311.734C319.837 311.48 320.624 311.225 321.434 310.963C338.629 307.792 355.436 311.011 370.158 320.275Z" fill="#121213"/>
<path d="M462.088 526.836C462.924 526.836 463.759 526.836 464.62 526.836C476.106 565.634 486.665 604.784 493.086 644.767C496.284 670.616 496.284 670.616 508.924 692.591C515.075 696.546 520.05 696.94 527.12 696.782C528.027 696.786 528.934 696.791 529.869 696.795C536.338 696.731 541.932 695.563 548.164 693.856C552.755 693.327 554.809 693.282 558.766 695.675C561.85 700.537 562.05 704.717 560.823 710.305C556.452 718.47 548.953 722.31 540.456 725.089C527.26 728.547 512.825 727.69 500.063 722.958C496.099 720.449 493.048 717.593 489.936 714.101C489.346 713.486 488.757 712.87 488.149 712.236C482.922 706.564 479.945 700.866 477.199 693.698C476.772 692.605 476.345 691.512 475.905 690.386C469.879 674.395 466.263 657.786 464.091 640.862C461.465 621.399 458.282 601.96 450.696 583.775C450.804 584.73 450.913 585.685 451.024 586.67C451.524 591.082 452.02 595.495 452.516 599.907C452.686 601.41 452.857 602.912 453.032 604.46C454.102 614.003 455.02 623.546 455.759 633.122C446.927 631.521 438.859 627.141 432.895 620.31C427.05 611.64 428.079 599.857 429.909 589.923C435.066 571.647 444.535 554.704 454.414 538.619C455.133 537.446 455.852 536.272 456.592 535.063C457.269 533.987 457.945 532.912 458.642 531.803C459.246 530.843 459.849 529.883 460.471 528.894C461.005 528.215 461.539 527.536 462.088 526.836Z" fill="#907CB8"/>
<path d="M255.76 593.898C260.227 594.867 262.096 596.093 265.333 599.355C271.2 604.761 277.588 608.963 284.32 613.194C285.337 613.836 286.353 614.477 287.401 615.138C305.663 626.472 322.523 631.143 344.041 627.192C356.8 623.522 368.005 617.042 378.545 609.082C379.798 609.708 379.798 609.708 381.076 610.347C379.847 614.088 378.598 617.801 377.19 621.478C372.385 634.925 370.455 650.923 375.855 664.518C376.729 666.296 377.625 668.062 378.545 669.817C379.399 671.921 380.245 674.03 381.076 676.143C322.454 677.463 322.454 677.463 301.329 669.817C299.876 669.345 298.422 668.874 296.924 668.388C283.667 663.568 270.235 654.593 263.355 641.98C261.731 638.246 260.543 634.54 259.557 630.592C259.349 629.791 259.14 628.99 258.925 628.165C257.103 620.715 256.504 613.49 256.234 605.84C256.185 604.684 256.137 603.529 256.086 602.338C255.968 599.525 255.86 596.712 255.76 593.898Z" fill="#363636"/>
<path d="M370.158 320.275C381.634 328.412 389.853 338.548 393.734 352.224C394.313 356.507 394.399 360.717 394.367 365.035C394.359 366.202 394.351 367.369 394.342 368.571C393.854 386.969 386.275 400.282 374.193 413.907C356.862 429.119 341.797 432.801 319.051 431.938C303.104 430.319 288.207 420.481 278.149 408.293C268.99 394.834 266.515 380.763 268.418 364.877C270.462 354.193 274.391 345.573 281.076 337.04C281.632 336.278 282.189 335.517 282.762 334.732C292.067 322.803 304.891 316.258 319.051 311.734C319.837 311.48 320.624 311.225 321.434 310.963C338.629 307.792 355.436 311.011 370.158 320.275ZM295 342.101C285.344 355.038 283.328 367.94 284.873 383.856C287.514 394.403 292.528 402.708 301.329 409.163C315.187 417.196 329.478 421.03 345.386 417.155C348.186 415.954 350.656 414.588 353.228 412.958C354.169 412.437 355.111 411.915 356.081 411.377C368.105 404.218 375.845 393.386 379.81 380.06C382.63 368.007 381.678 356.971 376.013 345.897C369.533 335.882 358.301 327.86 346.899 324.387C326.07 321.932 309.33 326.044 295 342.101Z" fill="#ABABAB"/>
<path d="M401.329 340.836C415.243 345.862 428.786 351.433 442.231 357.601C443.132 358.012 444.034 358.423 444.962 358.846C459.386 365.426 473.498 372.444 487.405 380.06C489.087 380.916 490.771 381.767 492.468 382.591C491.979 383.478 491.489 384.366 490.985 385.28C489.608 387.787 488.241 390.3 486.881 392.817C485.756 394.886 484.615 396.947 483.42 398.976C478.602 407.549 476.916 417.374 474.747 426.877C469.671 426.877 468.514 425.04 464.62 421.816C461.244 419.467 457.793 417.24 454.335 415.015C453.379 414.398 452.423 413.781 451.437 413.145C444.189 408.51 436.8 404.295 429.177 400.305C425.55 398.285 421.925 396.262 418.304 394.231C415.544 392.858 413.17 392.133 410.19 391.448C410.191 390.621 410.193 389.794 410.194 388.942C410.125 371.911 409.348 358.516 401.329 343.367C401.329 342.531 401.329 341.696 401.329 340.836Z" fill="#363636"/>
<path d="M236.773 574.918C247.515 580.252 247.515 580.252 250.697 586.306C251.755 593.214 251.099 600.302 250.785 607.253C250.653 611.867 250.91 616.423 251.25 621.023C251.353 622.508 251.456 623.994 251.562 625.525C251.855 629.156 251.855 629.156 252.62 631.946C255.655 644.128 252.994 658.705 247.591 669.796C239.086 683.177 225.811 689.124 210.846 692.489C200.945 694.478 191.147 695.63 181.062 696.116C176.65 696.433 172.574 697.336 168.29 698.379C164.798 699.162 161.839 699.424 158.292 698.918C155.839 697.099 155.839 697.099 154.494 693.857C154.574 689.994 155.086 686.269 155.76 682.469C168.866 677.413 181.246 675.05 195.169 673.202C206.311 671.605 219.941 669.651 227.912 660.959C235.588 649.212 237.353 635.716 237.143 621.996C237.138 620.64 237.133 619.283 237.127 617.886C237.106 613.606 237.059 609.327 237.01 605.048C236.991 602.125 236.974 599.201 236.958 596.277C236.916 589.157 236.853 582.038 236.773 574.918Z" fill="#8F7CB6"/>
<path d="M289.937 361.082C297.038 361.082 304.14 361.082 311.456 361.082C311.821 362.831 312.187 364.579 312.564 366.381C313.925 374.342 313.925 374.342 318.734 380.299C319.674 380.638 320.614 380.977 321.583 381.327C322.705 381.797 323.828 382.266 324.984 382.75C332.335 384.691 338.14 384.845 345.238 381.96C351.929 377.594 356.376 371.272 358.291 363.613C363.722 363.613 369.152 363.613 374.747 363.613C375.711 376.52 372.572 388.265 364.225 398.409C354.538 408.321 342.899 412.987 329.098 413.513C321.822 413.317 316.453 411.504 310.19 407.898C308.232 406.802 308.232 406.802 306.234 405.684C297.514 398.862 291.263 390.973 288.671 380.062C288.113 373.538 287.853 367.333 289.937 361.082Z" fill="#F9F9F9"/>
<path d="M354.593 332.909C355.396 333.437 356.199 333.966 357.026 334.51C358.387 335.381 358.387 335.381 359.775 336.27C367.17 341.395 371.939 347.364 374.747 356.02C374.747 357.273 374.747 358.526 374.747 359.816C373.874 359.785 373 359.753 372.101 359.72C345.56 358.764 319.017 357.994 292.469 357.286C296.169 345.685 302.897 339.577 313.32 333.532C325.363 327.689 342.522 326.268 354.593 332.909Z" fill="#8F7CB7"/>
<path d="M441.835 669.816C442.671 677.75 443.506 685.683 444.367 693.857C435.506 695.123 435.506 695.123 433.053 693.304C432.61 692.651 432.166 691.999 431.709 691.327C432.126 690.492 432.544 689.656 432.974 688.796C436.107 689.422 436.107 689.422 439.303 690.061C438.677 688.809 438.677 688.809 438.038 687.531C436.367 687.531 434.696 687.531 432.974 687.531C432.557 690.454 432.139 693.376 431.709 696.388C415.417 696.388 399.126 696.388 382.341 696.388C378.544 687.531 378.544 687.531 378.544 683.735C380.566 683.412 380.566 683.412 382.628 683.082C393.171 681.343 403.349 679.209 413.596 676.118C419.03 674.509 424.517 673.176 430.027 671.858C437.78 669.816 437.78 669.816 441.835 669.816Z" fill="#363636"/>
<path d="M286.14 672.348C287.934 672.871 289.727 673.4 291.519 673.929C292.694 674.275 293.869 674.621 295.08 674.977C297.423 675.712 299.749 676.509 302.042 677.389C320.055 684.194 340.451 685.321 359.557 686.266C359.14 690.859 358.722 695.452 358.292 700.184C339.076 700.184 319.861 700.184 300.064 700.184C297.14 694.339 294.216 688.493 291.203 682.47C289.532 679.965 287.861 677.459 286.14 674.878C286.14 674.043 286.14 673.208 286.14 672.348Z" fill="#363636"/>
<path d="M278.545 444.594C279.363 454.734 280.022 464.785 279.811 474.961C277.068 475.358 274.325 475.753 271.583 476.147C270.055 476.368 268.528 476.588 266.955 476.815C261.962 477.509 256.966 478.143 251.962 478.757C251.11 475.306 250.267 471.852 249.431 468.397C249.069 466.938 249.069 466.938 248.699 465.449C247.512 460.51 246.571 456.042 246.899 450.92C248.076 450.676 249.252 450.431 250.464 450.179C260.224 448.187 260.224 448.187 269.842 445.622C273.481 444.594 273.481 444.594 278.545 444.594Z" fill="#F6F6F6"/>
<path d="M264.62 348.43C265.455 348.43 266.291 348.43 267.152 348.43C266.759 350.249 266.362 352.068 265.965 353.886C265.635 355.406 265.635 355.406 265.297 356.956C264.62 359.817 264.62 359.817 263.354 363.613C263.547 366.275 263.742 368.937 263.95 371.598C264.267 376.617 264.561 381.47 263.354 386.389C259.292 390.89 254.913 392.852 249.43 395.246C249.012 396.081 248.595 396.916 248.164 397.777C246.715 398.638 246.715 398.638 245.237 399.516C241.856 401.56 239.501 403.808 236.772 406.634C236.354 406.634 235.937 406.634 235.506 406.634C235.026 380.215 235.026 380.215 241.588 370.276C244.085 367.845 246.675 365.741 249.43 363.613C250.631 362.224 251.797 360.803 252.911 359.343C255.622 356.181 257.184 355.188 260.823 353.491C262.104 351.816 263.372 350.13 264.62 348.43Z" fill="#353535"/>
<path d="M283.608 449.652C292.38 449.652 301.152 449.652 310.19 449.652C310.19 457.586 310.19 465.519 310.19 473.693C301.836 473.693 293.481 473.693 284.874 473.693C283.684 465.371 283.514 458.014 283.608 449.652Z" fill="#FBFBFB"/>
<path d="M458.291 529.367C458.709 530.62 459.127 531.872 459.557 533.163C457.911 536.287 457.911 536.287 455.364 540.122C443.272 558.929 430.33 579.832 430.206 602.755C430.188 604.269 430.17 605.782 430.152 607.342C430.552 613.209 431.869 616.638 435.665 621.102C439.296 624.258 442.949 626.69 447.062 629.153C449.673 630.739 452.099 632.492 454.494 634.388C444.758 633.924 436.53 631.924 429.632 624.586C422.63 615.233 423.176 604.644 424.46 593.399C428.809 571.295 442.192 545.46 458.291 529.367Z" fill="#080709"/>
<path d="M316.519 361.082C319.443 361.082 322.367 361.082 325.38 361.082C325.511 362.491 325.641 363.901 325.776 365.352C326.206 367.623 326.206 367.623 326.646 369.939C331.065 372.884 332.839 373.106 338.038 372.47C341.898 369.55 343.681 367.153 344.367 362.347C347.709 362.347 351.051 362.347 354.494 362.347C354.002 369.237 351.69 372.63 346.899 377.531C340.999 381.241 334.649 380.696 327.912 380.062C322.686 378.196 318.989 376.278 316.519 371.204C316.222 367.763 316.346 364.55 316.519 361.082Z" fill="#6D4980"/>
<path d="M325.38 358.553C330.423 358.521 335.465 358.498 340.508 358.483C343.055 358.474 345.603 358.458 348.15 358.441C365.073 358.399 365.073 358.399 372.216 359.818C372.842 361.07 372.842 361.07 373.481 362.348C368.051 362.348 362.621 362.348 357.026 362.348C357.026 364.436 357.026 366.524 357.026 368.675C356.19 368.257 355.355 367.84 354.494 367.41C354.494 365.739 354.494 364.069 354.494 362.348C351.152 362.348 347.81 362.348 344.367 362.348C344.263 363.523 344.159 364.697 344.051 365.907C343.102 369.94 343.102 369.94 340.966 372.313C337.045 374.219 334.758 374.44 330.443 373.736C326.725 371.126 326.725 371.126 324.114 367.41C324.584 362.749 324.584 362.749 325.38 358.553Z" fill="#080708"/>
<path d="M303.86 357.285C315.139 357.285 326.417 357.285 338.038 357.285C338.038 357.703 338.038 358.12 338.038 358.55C333.86 358.55 329.683 358.55 325.379 358.55C325.379 359.386 325.379 360.221 325.379 361.081C322.455 361.081 319.531 361.081 316.519 361.081C316.85 368.643 316.85 368.643 320.791 374.92C327.119 379.891 334.09 379.593 341.835 378.795C347.573 376.03 350.392 373.077 353.227 367.408C354.481 367.825 355.734 368.243 357.025 368.673C355.318 375.711 349.978 379.725 344.367 383.857C337.534 386.133 331.262 385.782 324.43 383.619C318.414 380.266 314.075 376.361 311.455 369.938C311.208 366.953 311.208 366.953 311.297 363.928C311.32 362.917 311.343 361.906 311.366 360.864C311.396 360.1 311.425 359.337 311.455 358.55C308.949 358.55 306.443 358.55 303.86 358.55C303.86 358.133 303.86 357.715 303.86 357.285Z" fill="#19171B"/>
<path d="M330.443 459.777C335.523 461.747 340.455 463.967 345.396 466.262C346.866 466.944 348.336 467.626 349.851 468.328C350.965 468.847 352.08 469.365 353.228 469.9C352.81 472.823 352.393 475.746 351.962 478.757C345.337 478.964 339.477 478.258 333.054 476.859C332.189 476.678 331.323 476.497 330.431 476.31C328.324 475.868 326.219 475.416 324.114 474.961C324.956 468.637 326.632 464.939 330.443 459.777Z" fill="#F4F4F4"/>
<path d="M401.329 353.488C406.378 358.535 406.526 367.374 406.788 374.287C406.245 391.442 397.7 404.758 385.511 416.294C384.883 416.863 384.255 417.432 383.608 418.019C382.772 417.601 381.937 417.184 381.076 416.754C381.763 415.822 382.45 414.891 383.158 413.931C384.063 412.697 384.969 411.462 385.902 410.19C386.798 408.971 387.694 407.753 388.617 406.498C392.164 401.474 395.153 396.759 397.057 390.894C397.361 389.982 397.664 389.07 397.977 388.131C400.055 380.508 400.415 372.883 400.776 365.034C400.83 363.922 400.885 362.809 400.941 361.663C401.075 358.939 401.202 356.213 401.329 353.488Z" fill="#A1A1A1"/>
<path d="M322.373 643.879C328.821 644.834 333.477 648.81 338.038 653.369C338.275 656.453 338.275 656.453 338.038 659.695C335.506 662.226 335.506 662.226 330.759 662.779C326.751 662.663 324.268 662 321.028 659.616C317.223 655.256 316.519 652.78 316.519 647.042C319.05 644.512 319.05 644.512 322.373 643.879Z" fill="#A8A8A8"/>
<path d="M323.402 642.06C329.953 643.783 335.191 646.622 339.304 652.103C339.62 656.848 339.62 656.848 339.304 660.96C336.797 662.213 336.797 662.213 334.241 663.491C335.076 662.238 335.911 660.986 336.772 659.695C337.511 656.586 337.511 656.586 336.772 653.368C332.575 649.4 328.559 645.891 322.69 645.539C319.183 645.366 319.183 645.366 317.785 647.042C317.608 651.31 317.608 651.31 319.051 655.899C321.737 658.494 324.669 660.389 327.911 662.226C326.658 662.643 325.405 663.061 324.114 663.491C318.731 660.577 315.644 657.092 313.75 651.312C313.987 647.042 313.987 647.042 315.886 643.879C319.051 641.981 319.051 641.981 323.402 642.06Z" fill="#171717"/>
<path d="M401.329 353.488C407.12 359.277 406.673 369.958 406.728 377.766C406.392 380.06 406.392 380.06 403.861 382.59C401.681 378.805 401.023 376.129 401.082 371.776C401.09 370.708 401.098 369.639 401.106 368.539C401.128 367.434 401.149 366.33 401.171 365.192C401.182 364.069 401.194 362.945 401.205 361.787C401.235 359.02 401.277 356.254 401.329 353.488Z" fill="#989898"/>
<path d="M344.367 359.816C353.557 359.816 362.747 359.816 372.215 359.816C372.633 360.652 373.051 361.487 373.481 362.347C368.051 362.347 362.62 362.347 357.025 362.347C357.025 364.435 357.025 366.523 357.025 368.674C356.19 368.256 355.355 367.838 354.494 367.408C353.703 364.799 353.703 364.799 353.228 362.347C350.304 361.929 347.38 361.512 344.367 361.082C344.367 360.664 344.367 360.247 344.367 359.816Z" fill="#010101"/>
<path d="M326.646 361.082C328.734 361.082 330.823 361.082 332.975 361.082C331.304 361.5 329.633 361.917 327.912 362.347C329.568 366.298 329.568 366.298 332.975 368.674C332.139 370.344 331.304 372.014 330.443 373.735C328.772 372.482 327.101 371.23 325.38 369.939C325.798 367.016 326.215 364.093 326.646 361.082Z" fill="#100E11"/>
<path d="M500.063 130.797C498.314 134.859 496.362 137.186 492.943 139.97C491.744 140.959 491.744 140.959 490.52 141.967C489.91 142.456 489.3 142.946 488.671 143.45C490.337 138.15 493.765 130.797 500.063 130.797Z" fill="#69538C"/>
<path d="M357.025 476.223C361.83 476.909 363.952 479.008 367.152 482.549C363.81 482.132 360.468 481.714 357.025 481.284C357.025 479.614 357.025 477.943 357.025 476.223Z" fill="#D6D6D6"/>
<path d="M148.165 180.145C154.178 181.094 154.178 181.094 157.026 183.94C157.909 185.607 158.759 187.292 159.557 189.002C153.964 187.293 151.528 184.875 148.165 180.145Z" fill="#25222A"/>
<path d="M130.443 134.594C131.278 134.594 132.113 134.594 132.974 134.594C132.974 138.769 132.974 142.945 132.974 147.247C131.721 147.664 130.468 148.082 129.177 148.512C129.594 143.919 130.012 139.326 130.443 134.594Z" fill="#6C568F"/>
<path d="M458.291 529.367C458.709 530.62 459.126 531.872 459.557 533.163C457.104 537.196 457.104 537.196 454.494 540.755C453.658 540.337 452.823 539.92 451.962 539.49C453.463 535.219 454.843 532.344 458.291 529.367Z" fill="#0D0C10"/>
<path d="M415.095 502.955C418.649 504.418 421.216 506.629 424.114 509.124C418.804 508.366 413.974 507.131 408.924 505.328C412.721 502.797 412.721 502.797 415.095 502.955Z" fill="#1A171F"/>
<path d="M544.367 364.879C545.203 364.879 546.038 364.879 546.899 364.879C550.696 372.154 550.696 372.154 550.696 375.001C546.387 373.566 545.359 372.511 543.102 368.675C543.519 367.422 543.937 366.17 544.367 364.879Z" fill="#69538B"/>
<path d="M643.101 173.816C643.519 174.652 643.936 175.487 644.367 176.347C643.18 179.668 643.18 179.668 641.835 182.674C639.746 182.674 637.658 182.674 635.506 182.674C638.012 179.751 640.519 176.828 643.101 173.816Z" fill="#68528B"/>
<path d="M236.772 574.918C239.279 576.171 239.279 576.171 241.836 577.449C240.583 577.866 239.329 578.284 238.038 578.714C238.038 582.889 238.038 587.065 238.038 591.367C237.621 591.367 237.203 591.367 236.772 591.367C236.772 585.939 236.772 580.511 236.772 574.918Z" fill="#6F6289"/>
<path d="M398.798 392.715C400.222 397.46 400.222 397.46 398.798 400.307C396.187 401.097 396.187 401.097 393.734 401.572C394.496 399.015 395.346 396.484 396.266 393.98C397.101 393.563 397.937 393.145 398.798 392.715Z" fill="#AFAFAF"/>
<path d="M673.481 210.512C673.899 211.764 674.317 213.017 674.747 214.308C673.086 217.075 673.086 217.075 670.95 219.369C670.114 219.369 669.279 219.369 668.418 219.369C668.418 220.204 668.418 221.039 668.418 221.899C667.582 221.482 666.747 221.064 665.886 220.634C668.393 217.294 670.899 213.953 673.481 210.512Z" fill="#624D81"/>
<path d="M343.101 369.937C340.114 372.591 338.613 373.694 334.557 373.97C333.147 373.853 333.147 373.853 331.709 373.733C334.241 369.937 334.241 369.937 337.405 368.988C340.57 368.672 340.57 368.672 343.101 369.937Z" fill="#080709"/>
</g>
<defs>
<clipPath id="clip0_3151_43212">
<rect width="735" height="735" fill="white"/>
</clipPath>
</defs>
</svg>
