<svg width="50" height="50" viewBox="0 0 50 50" fill="none" xmlns="http://www.w3.org/2000/svg">
<path d="M32.4002 4.72978C32.4608 4.75956 32.5215 4.78935 32.584 4.82004C33.9624 5.50232 35.1694 6.36413 36.3188 7.3842C36.3908 7.44602 36.4627 7.50783 36.5368 7.57151C36.9585 7.93743 37.325 8.32511 37.6819 8.75423C37.7625 8.84919 37.8433 8.94406 37.9241 9.03887C38.0102 9.1402 38.0963 9.24154 38.1824 9.34291C38.224 9.39189 38.2657 9.44086 38.3086 9.49132C38.6091 9.84765 38.6091 9.84765 38.7041 10.0386C38.9119 10.0592 39.1135 10.0702 39.3218 10.0761C40.5198 10.1338 41.6521 10.3997 42.5586 11.2428C43.4771 12.2626 43.8662 13.3023 43.8274 14.6775C43.8235 14.7573 43.8195 14.8371 43.8155 14.9194C43.8927 14.9287 43.9699 14.9381 44.0494 14.9478C44.6467 15.071 45.0894 15.5475 45.4341 16.0325C45.6517 16.4694 45.7222 16.7874 45.7254 17.2837C45.7261 17.3459 45.7268 17.4081 45.7276 17.4722C45.7296 17.6761 45.7297 17.8799 45.7296 18.0839C45.7302 18.2269 45.7308 18.3699 45.7315 18.5128C45.7327 18.812 45.7328 19.1112 45.7323 19.4104C45.7318 19.7919 45.7344 20.1733 45.7378 20.5548C45.7401 20.85 45.7403 21.1453 45.74 21.4405C45.7401 21.581 45.7409 21.7216 45.7425 21.8621C45.7514 22.791 45.6736 23.4947 45.0667 24.2366C44.3144 24.8521 44.3144 24.8521 43.8155 24.8521C43.8127 26.4003 43.8133 27.9485 43.8179 29.4967C43.82 30.2156 43.8209 30.9345 43.8193 31.6535C43.8178 32.2804 43.8185 32.9072 43.8216 33.5341C43.8232 33.8658 43.8238 34.1975 43.8218 34.5292C43.82 34.842 43.821 35.1546 43.8241 35.4674C43.8251 35.6358 43.8231 35.8042 43.8211 35.9725C43.8324 36.7238 44.0217 37.1258 44.497 37.6961C44.9105 38.3342 45.217 39.0269 45.4607 39.7457C45.4901 39.8313 45.4901 39.8313 45.5201 39.9185C45.5839 40.1182 45.638 40.3185 45.6896 40.5217C45.7126 40.612 45.7355 40.7022 45.7591 40.7952C45.9835 41.8143 45.9899 42.8288 45.9879 43.8693C45.9878 44.174 45.9914 44.4786 45.9951 44.7833C45.9955 44.9783 45.9958 45.1733 45.9958 45.3683C45.9979 45.504 45.9979 45.504 46 45.6424C45.9935 46.3409 45.9935 46.3409 45.7397 46.6569C45.3923 46.974 45.1437 46.9562 44.6934 46.9555C44.6246 46.9557 44.5558 46.9559 44.4849 46.9562C44.2519 46.9568 44.0189 46.9569 43.7859 46.9569C43.6182 46.9573 43.4504 46.9576 43.2827 46.9581C42.8198 46.9591 42.3569 46.9596 41.894 46.96C41.3955 46.9605 40.897 46.9615 40.3985 46.9624C39.2507 46.9644 38.1029 46.9656 36.9551 46.9667C36.558 46.967 36.161 46.9674 35.764 46.9678C33.6538 46.97 31.5437 46.9719 29.4336 46.973C28.9445 46.9732 28.4555 46.9735 27.9665 46.9737C27.9058 46.9738 27.845 46.9738 27.7824 46.9738C25.8121 46.9749 23.8418 46.9775 21.8715 46.9811C19.8467 46.9847 17.8218 46.987 15.797 46.9875C14.6042 46.9877 13.4114 46.9887 12.2187 46.9916C11.2519 46.994 10.2852 46.995 9.31849 46.994C8.82498 46.9936 8.33149 46.9938 7.83799 46.9959C7.38648 46.9979 6.93503 46.9978 6.48352 46.9962C6.31991 46.9959 6.15629 46.9964 5.99268 46.9977C5.77072 46.9993 5.54892 46.9983 5.32697 46.9967C5.23106 46.9983 5.23106 46.9983 5.13321 47C4.64554 46.9919 4.44707 46.8516 4.11747 46.5156C4.01456 46.3087 4.01984 46.1745 4.0172 45.9434C4.01556 45.818 4.01556 45.818 4.01389 45.69C4.01326 45.5989 4.01263 45.5077 4.01198 45.4138C4.01129 45.3193 4.01061 45.2248 4.0099 45.1274C4.00872 44.926 4.0078 44.7246 4.00714 44.5232C4.00616 44.3201 4.00444 44.117 4.00189 43.9139C3.97418 41.7014 4.23687 39.1671 5.69285 37.3676C6.14158 36.793 6.14949 36.2861 6.14266 35.5741C6.14336 35.4567 6.14428 35.3394 6.1454 35.222C6.14781 34.9055 6.14712 34.5891 6.14584 34.2726C6.14504 33.9411 6.14713 33.6096 6.1489 33.2781C6.15182 32.6513 6.15216 32.0245 6.15157 31.3977C6.15101 30.6837 6.15335 29.9697 6.15593 29.2556C6.16116 27.7878 6.16278 26.3199 6.162 24.8521C6.08305 24.841 6.00409 24.83 5.92274 24.8186C5.35701 24.71 4.92656 24.3001 4.60233 23.8364C4.19936 23.1398 4.2257 22.4419 4.23128 21.6625C4.23099 21.5198 4.23058 21.3772 4.23004 21.2346C4.22942 20.9369 4.23032 20.6393 4.23232 20.3416C4.23474 19.9621 4.23335 19.5828 4.2308 19.2033C4.22925 18.9092 4.22975 18.615 4.23085 18.3209C4.23113 18.1811 4.23079 18.0413 4.22979 17.9014C4.2247 16.9887 4.29327 16.2678 4.90813 15.5482C4.9705 15.4961 5.03288 15.444 5.09714 15.3903C5.15952 15.3364 5.22189 15.2826 5.28615 15.2271C5.5755 15.0239 5.80758 14.9194 6.162 14.9194C6.15805 14.8396 6.1541 14.7597 6.15002 14.6775C6.1186 13.5618 6.31958 12.6505 7.01389 11.7512C7.07714 11.6629 7.1404 11.5746 7.20556 11.4836C7.91943 10.7334 8.88153 10.2465 9.91031 10.1243C10.0767 10.1243 10.2432 10.1243 10.4096 10.1256C10.9716 10.1274 10.9716 10.1274 11.4677 9.8918C11.6166 9.69097 11.741 9.48237 11.8697 9.26799C11.9979 9.11721 12.1293 8.96915 12.2637 8.8238C12.4675 8.59991 12.6675 8.37692 12.8546 8.13879C13.1257 7.8244 13.4285 7.56705 13.7438 7.29858C13.8228 7.22782 13.9017 7.15707 13.9831 7.08418C15.6295 5.62054 17.6189 4.54654 19.707 3.87351C19.7685 3.85346 19.83 3.83341 19.8934 3.81276C20.3381 3.67073 20.7862 3.55237 21.2404 3.44537C21.345 3.42 21.345 3.42 21.4517 3.39412C25.0605 2.55477 29.099 3.08184 32.4002 4.72978Z" fill="#BED9FC"/>
<path d="M10.6238 10.0028C10.6865 10.0032 10.7492 10.0036 10.8138 10.004C10.967 10.005 11.1202 10.0065 11.2733 10.0082C11.0422 10.4418 10.7973 10.861 10.5333 11.2751C9.49896 12.96 8.8577 14.7754 8.4621 16.7081C8.42827 16.8696 8.42827 16.8696 8.39376 17.0345C8.2116 17.9502 8.16547 18.8358 8.17459 19.7681C8.17493 19.839 8.17527 19.9099 8.17562 19.9829C8.18465 21.595 8.31882 23.1525 8.80286 24.6964C8.82305 24.7635 8.84324 24.8305 8.86404 24.8995C9.6815 27.6015 11.0495 29.8743 12.9771 31.9117C13.0792 32.0215 13.0792 32.0215 13.1834 32.1335C16.1114 35.1968 20.4601 36.9225 24.6423 37.0098C27.6041 37.0301 30.4784 36.3531 33.0817 34.9181C33.1412 34.8854 33.2007 34.8528 33.262 34.8191C34.1479 34.3274 34.9517 33.7738 35.7225 33.1143C35.7956 33.0518 35.8686 32.9894 35.9438 32.925C36.1586 32.7349 36.3671 32.5396 36.5744 32.3412C36.6187 32.2993 36.6631 32.2574 36.7087 32.2142C37.8387 31.1399 38.7986 29.9325 39.556 28.5618C39.5899 28.5004 39.6239 28.4391 39.6588 28.3759C40.9077 26.0947 41.7742 23.5321 41.7882 20.9016C41.7887 20.8284 41.7892 20.7552 41.7897 20.6797C41.7905 20.5254 41.7911 20.3711 41.7914 20.2167C41.7922 19.9864 41.7949 19.7562 41.7976 19.5259C41.8058 18.1853 41.6497 16.889 41.2864 15.5968C41.2648 15.5188 41.2432 15.4409 41.221 15.3605C40.718 13.6058 39.9374 11.9813 38.96 10.4491C38.7893 10.18 38.7893 10.18 38.7041 10.0082C40.1218 9.95863 41.4657 10.1105 42.5586 11.1302C43.4771 12.1533 43.8662 13.1962 43.8274 14.5758C43.8235 14.6558 43.8195 14.7359 43.8155 14.8184C43.8927 14.8278 43.9699 14.8372 44.0494 14.8469C44.6467 14.9705 45.0894 15.4485 45.4341 15.935C45.6517 16.3733 45.7222 16.6923 45.7254 17.1902C45.7261 17.2526 45.7268 17.3149 45.7276 17.3792C45.7296 17.5838 45.7297 17.7883 45.7296 17.9928C45.7302 18.1363 45.7308 18.2797 45.7315 18.4232C45.7327 18.7233 45.7328 19.0234 45.7323 19.3236C45.7318 19.7063 45.7344 20.0889 45.7378 20.4715C45.7401 20.7677 45.7403 21.0639 45.74 21.36C45.7401 21.501 45.7409 21.642 45.7425 21.783C45.7514 22.7148 45.6736 23.4207 45.0667 24.165C44.3144 24.7823 44.3144 24.7823 43.8155 24.7823C43.8127 26.3354 43.8133 27.8885 43.8179 29.4416C43.82 30.1628 43.8209 30.884 43.8193 31.6052C43.8178 32.234 43.8185 32.8629 43.8216 33.4917C43.8232 33.8245 43.8238 34.1572 43.8218 34.4899C43.82 34.8037 43.821 35.1174 43.8241 35.4311C43.8251 35.6 43.8231 35.7689 43.8211 35.9378C43.8324 36.6914 44.0217 37.0947 44.497 37.6668C44.9105 38.3069 45.217 39.0018 45.4607 39.7229C45.4901 39.8087 45.4901 39.8087 45.5201 39.8962C45.5839 40.0965 45.638 40.2974 45.6896 40.5013C45.7126 40.5919 45.7355 40.6824 45.7591 40.7756C45.9835 41.7979 45.9899 42.8156 45.9879 43.8594C45.9878 44.1651 45.9914 44.4707 45.9951 44.7764C45.9955 44.972 45.9958 45.1676 45.9958 45.3632C45.9979 45.4993 45.9979 45.4993 46 45.6381C45.9935 46.3388 45.9935 46.3388 45.7397 46.6558C45.3923 46.9739 45.1437 46.9561 44.6934 46.9553C44.6246 46.9556 44.5558 46.9558 44.4849 46.956C44.2519 46.9567 44.0189 46.9567 43.7859 46.9568C43.6182 46.9571 43.4504 46.9575 43.2827 46.9579C42.8198 46.959 42.3569 46.9594 41.894 46.9598C41.3955 46.9603 40.897 46.9613 40.3985 46.9623C39.2507 46.9643 38.1029 46.9655 36.9551 46.9666C36.558 46.9669 36.161 46.9673 35.764 46.9677C33.6538 46.9699 31.5437 46.9718 29.4336 46.9729C28.9445 46.9731 28.4555 46.9734 27.9665 46.9736C27.9058 46.9737 27.845 46.9737 27.7824 46.9737C25.8121 46.9748 23.8418 46.9774 21.8715 46.981C19.8467 46.9847 17.8218 46.987 15.797 46.9874C14.6042 46.9877 13.4114 46.9886 12.2187 46.9916C11.2519 46.994 10.2852 46.995 9.31849 46.994C8.82498 46.9935 8.33149 46.9938 7.83799 46.9959C7.38648 46.9978 6.93503 46.9978 6.48352 46.9962C6.31991 46.9959 6.15629 46.9964 5.99268 46.9977C5.77072 46.9993 5.54892 46.9983 5.32696 46.9967C5.26303 46.9978 5.19909 46.9989 5.13321 47C4.64554 46.9919 4.44707 46.8511 4.11747 46.5141C4.01456 46.3066 4.01984 46.1719 4.0172 45.94C4.01556 45.8142 4.01556 45.8142 4.01389 45.6859C4.01326 45.5945 4.01263 45.503 4.01198 45.4088C4.01129 45.314 4.01061 45.2192 4.0099 45.1215C4.00872 44.9195 4.0078 44.7174 4.00714 44.5154C4.00616 44.3116 4.00444 44.1079 4.00189 43.9042C3.97418 41.6847 4.23687 39.1424 5.69285 37.3373C6.14158 36.7608 6.14949 36.2523 6.14266 35.5381C6.14336 35.4204 6.14428 35.3026 6.1454 35.1849C6.14781 34.8674 6.14712 34.55 6.14584 34.2326C6.14504 33.9 6.14713 33.5674 6.1489 33.2349C6.15182 32.6061 6.15216 31.9773 6.15157 31.3486C6.15101 30.6323 6.15335 29.916 6.15593 29.1998C6.16116 27.7273 6.16278 26.2548 6.162 24.7823C6.08305 24.7713 6.00409 24.7602 5.92274 24.7488C5.35701 24.6399 4.92656 24.2286 4.60233 23.7634C4.19936 23.0647 4.2257 22.3646 4.23128 21.5827C4.23099 21.4396 4.23058 21.2965 4.23004 21.1535C4.22942 20.8548 4.23032 20.5563 4.23232 20.2577C4.23474 19.877 4.23334 19.4965 4.2308 19.1158C4.22925 18.8207 4.22975 18.5257 4.23085 18.2306C4.23113 18.0904 4.23079 17.9501 4.22979 17.8098C4.2247 16.8942 4.29327 16.171 4.90813 15.4492C4.9705 15.3969 5.03288 15.3446 5.09714 15.2908C5.15952 15.2368 5.22189 15.1827 5.28615 15.1271C5.5755 14.9232 5.80758 14.8184 6.162 14.8184C6.15805 14.7383 6.1541 14.6583 6.15002 14.5758C6.1186 13.4565 6.31958 12.5424 7.01389 11.6402C7.07714 11.5516 7.1404 11.463 7.20556 11.3718C8.1219 10.4058 9.32037 9.98736 10.6238 10.0028Z" fill="#F4EFEA"/>
<path d="M32.4626 4.72213C32.5236 4.75178 32.5845 4.78144 32.6473 4.81199C34.0325 5.49125 35.2454 6.34925 36.4005 7.36482C36.4728 7.42636 36.5451 7.48789 36.6195 7.5513C36.9762 7.85795 37.302 8.17386 37.605 8.53332C37.7284 8.67933 37.8552 8.82254 37.9835 8.96422C38.6016 9.65313 39.083 10.3935 39.5476 11.1916C39.6405 11.3494 39.7373 11.5048 39.8348 11.6599C40.59 12.8891 41.1023 14.2814 41.4887 15.6658C41.5173 15.7672 41.5173 15.7672 41.5464 15.8706C41.8785 17.1396 42.008 18.4095 41.9984 19.7178C41.997 19.9389 41.9984 20.1598 42 20.3808C42.0016 21.6681 41.8372 22.9228 41.5101 24.1693C41.4919 24.2397 41.4736 24.31 41.4548 24.3825C40.7053 27.1958 39.2758 29.6519 37.2566 31.7458C37.2102 31.7943 37.1638 31.8428 37.116 31.8927C36.0955 32.9552 35.0006 33.7887 33.7467 34.559C33.6673 34.6096 33.5878 34.6603 33.506 34.7125C31.7154 35.8143 29.6457 36.433 27.5831 36.7754C27.5239 36.7855 27.4646 36.7956 27.4036 36.806C24.4566 37.2893 21.2432 36.8548 18.5089 35.6672C18.4055 35.6224 18.4055 35.6224 18.3001 35.5766C16.3457 34.7162 14.6581 33.5556 13.1157 32.0868C13.0364 32.0123 12.9571 31.9377 12.8753 31.861C10.2357 29.3182 8.62577 25.7999 8.1506 22.198C8.13504 22.0883 8.11948 21.9786 8.10345 21.8656C7.89132 19.8755 7.9979 17.8264 8.49303 15.8896C8.52255 15.7721 8.52255 15.7721 8.55267 15.6522C9.22648 13.0457 10.6054 10.5633 12.4259 8.58227C12.5638 8.4301 12.694 8.27673 12.8215 8.11607C13.0939 7.80306 13.3981 7.54686 13.715 7.27957C13.7943 7.20913 13.8737 7.13869 13.9554 7.06612C15.6099 5.60896 17.609 4.5397 19.7074 3.86965C19.7692 3.84969 19.831 3.82973 19.8946 3.80916C20.3416 3.66777 20.7918 3.54992 21.2483 3.44341C21.3534 3.41814 21.3534 3.41814 21.4606 3.39237C25.087 2.55673 29.1454 3.08148 32.4626 4.72213ZM21.1627 9.58127C21.0875 9.59899 21.0124 9.61671 20.935 9.63496C18.058 10.3239 15.4699 11.5925 13.3458 13.6625C13.2916 13.7146 13.2373 13.7667 13.1815 13.8204C13.0092 13.9927 12.8495 14.1731 12.6877 14.3552C12.6225 14.421 12.5573 14.4869 12.4901 14.5547C11.6925 15.4882 11.8083 16.55 11.8209 17.7205C11.8209 17.9403 11.8205 18.16 11.8199 18.3798C11.8196 18.8389 11.8218 19.2978 11.8262 19.7568C11.8312 20.2852 11.8314 20.8133 11.8289 21.3416C11.8266 21.8532 11.8278 22.3647 11.8304 22.8763C11.8312 23.0925 11.8312 23.3088 11.8303 23.525C11.8296 23.8277 11.8328 24.1302 11.837 24.433C11.8361 24.5211 11.8351 24.6093 11.8341 24.7001C11.8565 25.6643 12.4354 26.3442 13.0836 27.0145C13.1353 27.0685 13.1869 27.1226 13.2402 27.1782C14.8959 28.8834 16.8877 29.994 19.1081 30.808C19.1669 30.8297 19.2257 30.8514 19.2863 30.8737C20.2428 31.2183 21.2233 31.3866 22.2261 31.5406C22.4071 31.569 22.5876 31.6011 22.7678 31.6342C26.8352 32.3172 31.4894 31.2021 34.8516 28.8483C36.0591 27.9765 37.4328 26.8765 38.1126 25.5227C38.1216 25.3905 38.1253 25.2579 38.1264 25.1254C38.1272 25.0417 38.1281 24.9579 38.129 24.8716C38.1295 24.7793 38.13 24.6871 38.1305 24.5921C38.1313 24.4952 38.1322 24.3983 38.133 24.2984C38.1356 23.9764 38.1374 23.6545 38.139 23.3325C38.1399 23.1677 38.1399 23.1677 38.1407 22.9996C38.143 22.5376 38.145 22.0757 38.1463 21.6137C38.1481 20.9527 38.1517 20.2917 38.1577 19.6306C38.1622 19.1092 38.1639 18.5878 38.1647 18.0663C38.1654 17.8449 38.167 17.6236 38.1695 17.4022C38.1729 17.0918 38.173 16.7816 38.1723 16.4712C38.174 16.3802 38.1757 16.2891 38.1775 16.1953C38.1713 15.5586 38.0051 15.1844 37.599 14.6962C37.4982 14.5742 37.4982 14.5742 37.3953 14.4497C37.3336 14.3834 37.272 14.317 37.2084 14.2486C37.1422 14.1772 37.076 14.1057 37.0078 14.0321C36.809 13.8232 36.6075 13.6183 36.4005 13.4174C36.3587 13.3709 36.3169 13.3245 36.2738 13.2766C35.0191 11.9278 33.2163 11.0217 31.521 10.3485C31.4649 10.326 31.4088 10.3035 31.351 10.2803C30.2959 9.86366 29.211 9.61626 28.0967 9.41077C28.0364 9.39933 27.9761 9.38789 27.914 9.3761C27.0088 9.21273 26.0921 9.22543 25.1754 9.22429C25.1137 9.22419 25.052 9.22409 24.9884 9.22399C23.692 9.22422 22.4297 9.28114 21.1627 9.58127Z" fill="#F4EFEA"/>
<path d="M10.4691 10.0028C10.5326 10.0032 10.596 10.0036 10.6614 10.004C10.8164 10.005 10.9713 10.0065 11.1263 10.0082C10.8925 10.4417 10.6447 10.8609 10.3776 11.2749C9.33115 12.9594 8.68239 14.7745 8.28215 16.7069C8.24792 16.8684 8.24792 16.8684 8.21301 17.0332C8.02871 17.9488 7.98205 18.8342 7.99127 19.7664C7.99161 19.8372 7.99196 19.9081 7.99231 19.9811C8.00144 21.5929 8.13719 23.1501 8.6269 24.6938C8.64733 24.7608 8.66775 24.8278 8.6888 24.8968C9.51583 27.5983 10.8999 29.8708 12.8501 31.9078C12.9534 32.0175 12.9534 32.0175 13.0588 32.1295C16.0211 35.1922 20.4207 36.9177 24.6519 37.0049C27.6484 37.0253 30.5564 36.3484 33.1902 34.9136C33.2504 34.8809 33.3106 34.8483 33.3727 34.8146C34.2689 34.323 35.0821 33.7695 35.862 33.1101C35.9359 33.0477 36.0098 32.9852 36.0859 32.9209C36.3032 32.7308 36.5141 32.5356 36.7239 32.3372C36.7687 32.2953 36.8136 32.2534 36.8598 32.2102C38.003 31.1361 38.9741 29.9289 39.7404 28.5584C39.7747 28.4971 39.8091 28.4358 39.8444 28.3726C41.108 26.0918 41.9846 23.5297 41.9988 20.8996C41.9993 20.8264 41.9998 20.7532 42.0003 20.6778C42.0011 20.5235 42.0017 20.3692 42.002 20.2149C42.0028 19.9846 42.0055 19.7544 42.0082 19.5242C42.0165 18.1838 41.8587 16.8878 41.4911 15.5958C41.4692 15.5178 41.4474 15.4399 41.4249 15.3596C40.916 13.6052 40.1262 11.981 39.1374 10.449C38.9647 10.1799 38.9647 10.1799 38.8785 10.0082C40.3128 9.95864 41.6725 10.1105 42.7782 11.13C43.7074 12.1529 44.1011 13.1956 44.0619 14.5749C44.0579 14.655 44.0539 14.735 44.0498 14.8175C44.1279 14.8269 44.206 14.8363 44.2864 14.846C44.8907 14.9696 45.3387 15.4476 45.6873 15.9339C45.9076 16.3721 45.9789 16.6911 45.9821 17.1889C45.9828 17.2513 45.9835 17.3136 45.9843 17.3779C45.9863 17.5824 45.9864 17.7869 45.9863 17.9914C45.9869 18.1348 45.9876 18.2782 45.9883 18.4216C45.9894 18.7217 45.9896 19.0218 45.9891 19.3219C45.9886 19.7045 45.9912 20.087 45.9947 20.4696C45.9969 20.7658 45.9972 21.0619 45.9968 21.358C45.997 21.499 45.9978 21.6399 45.9994 21.7809C46.0084 22.7125 45.9296 23.4183 45.3156 24.1624C44.5546 24.7797 44.5546 24.7797 44.0498 24.7797C44.0498 28.719 44.0498 32.6584 44.0498 36.7171C43.7953 36.4635 43.5724 36.2377 43.3495 35.9656C42.9688 35.5288 42.526 35.1802 42.0675 34.8277C41.9888 34.7672 41.9101 34.7066 41.8291 34.6442C40.9843 33.9443 40.9843 33.9443 39.9909 33.6365C39.7849 33.7302 39.6728 33.8457 39.5196 34.0118C39.1065 34.4387 38.6554 34.8039 38.1891 35.1712C38.0612 35.2735 38.0612 35.2735 37.9308 35.3779C34.3052 38.2284 29.8417 39.9969 25.205 39.9965C24.9995 39.9967 24.794 39.9982 24.5885 39.9999C23.2719 40.0048 21.9915 39.8857 20.7092 39.578C20.6142 39.5554 20.5191 39.5329 20.4211 39.5096C16.8699 38.6437 13.4026 36.8524 10.7614 34.3057C10.7189 34.265 10.6764 34.2244 10.6326 34.1825C10.5207 34.0737 10.411 33.9627 10.3015 33.8515C10.0989 33.6868 10.0989 33.6868 9.83722 33.7163C8.49961 34.1286 7.37119 35.2611 6.42406 36.2457C6.26962 36.4047 6.1121 36.5606 5.9551 36.7171C5.9551 32.7777 5.9551 28.8384 5.9551 24.7797C5.78445 24.7513 5.6138 24.723 5.43798 24.6938C4.75541 24.3051 4.30922 23.8041 4.05898 23.062C3.99682 22.5678 3.99816 22.0781 4.00175 21.5806C4.00146 21.4376 4.00104 21.2945 4.0005 21.1515C3.99987 20.8529 4.00078 20.5544 4.0028 20.2558C4.00526 19.8752 4.00384 19.4948 4.00126 19.1142C3.9997 18.8191 4.00021 18.5242 4.00132 18.2291C4.0016 18.0889 4.00126 17.9487 4.00025 17.8084C3.9951 16.893 4.06447 16.1699 4.68653 15.4482C4.74964 15.3959 4.81274 15.3437 4.87776 15.2898C4.94087 15.2358 5.00397 15.1818 5.06899 15.1261C5.36172 14.9223 5.59653 14.8175 5.9551 14.8175C5.9511 14.7375 5.9471 14.6574 5.94298 14.5749C5.91118 13.4559 6.11453 12.5419 6.81697 11.6399C6.88096 11.5513 6.94496 11.4628 7.01089 11.3715C7.93797 10.4058 9.15047 9.98736 10.4691 10.0028Z" fill="#8C8787"/>
<path d="M14.61 43.0237C14.7483 43.0229 14.7484 43.0229 14.8895 43.0221C15.198 43.0206 15.5065 43.021 15.8151 43.0214C16.0365 43.0208 16.2579 43.02 16.4792 43.0191C17.018 43.0173 17.5567 43.0169 18.0954 43.017C18.5335 43.0171 18.9715 43.0168 19.4096 43.0161C19.5359 43.0159 19.6622 43.0158 19.7885 43.0156C19.8828 43.0154 19.8828 43.0154 19.979 43.0153C21.1675 43.0136 22.356 43.0137 23.5445 43.0143C24.6308 43.0148 25.717 43.0129 26.8033 43.01C27.9196 43.0069 29.036 43.0056 30.1524 43.006C30.7787 43.0062 31.4051 43.0057 32.0314 43.0035C32.6206 43.0014 33.2097 43.0017 33.7988 43.0035C34.0148 43.0038 34.2309 43.0033 34.4469 43.0021C34.7422 43.0004 35.0374 43.0016 35.3328 43.0034C35.4604 43.0017 35.4604 43.0017 35.5906 43C36.2581 43.0088 36.8157 43.1968 37.3132 43.6851C38.198 44.6779 37.9749 45.5376 37.9749 47C29.4032 47 20.8315 47 12 47C12 44.4098 12 44.4098 12.7485 43.6021C13.3286 43.0775 13.8765 43.0196 14.61 43.0237Z" fill="#80B6FB"/>
<path d="M10.7709 10.0004C10.8373 10.0008 10.9037 10.0012 10.9721 10.0015C11.1343 10.0025 11.2965 10.004 11.4588 10.0056C11.214 10.4275 10.9546 10.8355 10.6751 11.2385C9.57984 12.8779 8.90082 14.6444 8.48191 16.5251C8.44608 16.6823 8.44608 16.6823 8.40954 16.8427C8.21665 17.7338 8.1678 18.5955 8.17745 19.5028C8.17781 19.5717 8.17817 19.6407 8.17854 19.7118C8.18811 21.2804 8.33018 22.796 8.84274 24.2984C8.86412 24.3636 8.8855 24.4288 8.90753 24.496C9.55995 26.4776 10.5137 28.4115 12 29.982C11.7668 30.0901 11.6113 30.0622 11.3516 30.0499C10.8459 30.0462 10.5987 30.118 10.1958 30.3999C9.75783 30.8387 9.61314 31.1801 9.62536 31.7706C9.69016 32.2524 9.97351 32.6143 10.2861 32.991C10.2064 33.0255 10.1267 33.06 10.0447 33.0955C8.61836 33.7259 7.50857 34.6251 6.40713 35.6657C6.22852 35.8312 6.22852 35.8312 6.0463 36C6.0463 32.166 6.0463 28.3321 6.0463 24.3819C5.86769 24.3544 5.68908 24.3268 5.50506 24.2984C4.79065 23.9201 4.32364 23.4325 4.06174 22.7103C3.99667 22.2292 3.99808 21.7527 4.00183 21.2685C4.00153 21.1292 4.00109 20.99 4.00052 20.8508C3.99986 20.5602 4.00082 20.2697 4.00293 19.9791C4.0055 19.6087 4.00402 19.2384 4.00132 18.868C3.99968 18.5809 4.00021 18.2938 4.00138 18.0066C4.00168 17.8702 4.00132 17.7337 4.00026 17.5972C3.99487 16.7063 4.06747 16.0025 4.71856 15.3001C4.78461 15.2492 4.85066 15.1984 4.91871 15.146C4.98476 15.0934 5.05081 15.0408 5.11886 14.9867C5.42525 14.7883 5.671 14.6863 6.0463 14.6863C6.04212 14.6084 6.03793 14.5305 6.03362 14.4502C6.00034 13.3611 6.21317 12.4716 6.94838 11.5937C7.01536 11.5075 7.08234 11.4213 7.15134 11.3325C8.12167 10.3926 9.39074 9.98537 10.7709 10.0004Z" fill="#8C8787"/>
<path d="M24 3.00914C27.0341 2.93975 29.8442 3.24484 32.6031 4.6352C32.6632 4.66497 32.7233 4.69475 32.7851 4.72542C34.1499 5.40734 35.3449 6.2687 36.483 7.28824C36.5542 7.35002 36.6254 7.4118 36.6988 7.47546C37.0502 7.78331 37.3712 8.10046 37.6698 8.46132C37.7913 8.60791 37.9162 8.75168 38.0427 8.89391C38.6517 9.58553 39.126 10.3288 39.5837 11.13C39.6753 11.2884 39.7707 11.4445 39.8667 11.6001C40.6108 12.8342 41.1155 14.2319 41.4962 15.6218C41.515 15.6896 41.5338 15.7575 41.5531 15.8274C41.8803 17.1013 42.0079 18.3762 41.9984 19.6897C41.997 19.9116 41.9984 20.1333 42 20.3552C42.0016 21.6476 41.8396 22.9072 41.5173 24.1586C41.4993 24.2292 41.4814 24.2998 41.4628 24.3726C40.7244 27.1969 39.3159 29.6627 37.3264 31.7647C37.2808 31.8134 37.2351 31.8621 37.188 31.9123C36.1825 32.9788 35.1037 33.8156 33.8683 34.5889C33.79 34.6398 33.7118 34.6906 33.6311 34.743C31.8669 35.8491 29.8277 36.4703 27.7955 36.814C27.7079 36.8293 27.7079 36.8293 27.6186 36.8448C26.4486 37.0403 25.2663 37.0024 24.0843 36.9852C24.2806 36.7861 24.3343 36.7877 24.6013 36.7622C24.6736 36.7543 24.7459 36.7464 24.8204 36.7383C24.9388 36.7255 24.9388 36.7255 25.0596 36.7124C26.72 36.5054 28.3121 36.0048 29.8198 35.2736C29.886 35.2415 29.9523 35.2094 30.0206 35.1763C33.9371 33.248 36.9407 29.7829 38.3853 25.6245C38.7472 24.5488 39.0262 23.4769 39.182 22.3507C39.1967 22.2452 39.2113 22.1398 39.2264 22.0312C39.2712 21.6613 39.2828 21.2949 39.2865 20.9225C39.2873 20.8531 39.2881 20.7836 39.289 20.712C39.3035 19.1756 39.2911 17.6902 38.929 16.1888C38.9109 16.1121 38.8928 16.0354 38.8742 15.9564C38.024 12.4467 36.0323 9.0767 33.1936 6.86033C33.1284 6.80473 33.0633 6.74913 32.9962 6.69184C30.4671 4.53981 27.2385 3.45257 24 3.09472C24 3.06648 24 3.03824 24 3.00914Z" fill="#EAE0DB"/>
<path d="M38.4565 10.008C39.9757 9.95975 41.416 10.1076 42.5872 11.0997C43.5716 12.0951 43.9885 13.1099 43.947 14.4522C43.9428 14.53 43.9385 14.6079 43.9342 14.6882C44.0169 14.6973 44.0996 14.7065 44.1849 14.7159C44.825 14.8362 45.2995 15.3013 45.6688 15.7747C45.9021 16.2011 45.9776 16.5115 45.981 16.9959C45.9818 17.0566 45.9826 17.1173 45.9834 17.1799C45.9855 17.3789 45.9856 17.5779 45.9855 17.7769C45.9861 17.9165 45.9868 18.056 45.9876 18.1956C45.9888 18.4876 45.9889 18.7797 45.9884 19.0717C45.9879 19.444 45.9907 19.8163 45.9944 20.1886C45.9967 20.4768 45.997 20.765 45.9966 21.0531C45.9968 21.1903 45.9977 21.3275 45.9993 21.4647C46.0089 22.3713 45.9255 23.0582 45.2751 23.7823C44.4689 24.383 44.4689 24.383 43.9342 24.383C43.9342 28.2166 43.9342 32.0502 43.9342 36C43.6646 35.7533 43.4285 35.5335 43.1924 35.2687C42.7891 34.8435 42.3199 34.5046 41.8344 34.1613C41.7532 34.1034 41.672 34.0454 41.5883 33.9857C40.9722 33.5598 40.3298 33.2274 39.6433 32.9077C39.6818 32.8563 39.7203 32.8049 39.7599 32.752C39.8099 32.6844 39.86 32.6169 39.9115 32.5473C39.9613 32.4804 40.0111 32.4135 40.0623 32.3445C40.323 31.9618 40.3381 31.5908 40.2824 31.1526C40.1268 30.7115 39.8968 30.3969 39.4607 30.1497C38.9813 29.9456 38.5174 29.9657 38 29.9825C38.03 29.9418 38.06 29.9011 38.0909 29.8591C38.2441 29.6501 38.3959 29.4402 38.5478 29.2304C38.6096 29.1463 38.6713 29.0623 38.735 28.9757C40.5171 26.5068 41.7441 23.5978 41.7616 20.6071C41.7624 20.5002 41.7624 20.5002 41.7632 20.3912C41.7641 20.2411 41.7647 20.0909 41.765 19.9407C41.7659 19.7166 41.7687 19.4926 41.7716 19.2685C41.7804 17.9642 41.6132 16.7029 41.2239 15.4456C41.2007 15.3697 41.1776 15.2939 41.1537 15.2157C40.6146 13.5084 39.7781 11.9278 38.7307 10.4369C38.5478 10.1751 38.5478 10.1751 38.4565 10.008Z" fill="#8C8787"/>
<path d="M24 10.0122C25.5297 9.98427 27.0171 9.98153 28.527 10.2619C28.591 10.273 28.655 10.2842 28.721 10.2957C32.3578 10.9401 35.6841 12.9462 37.8326 15.9214C37.9336 16.1219 37.9285 16.2505 37.931 16.4746C37.9327 16.5969 37.9327 16.5969 37.9343 16.7217C37.9351 16.8115 37.9358 16.9013 37.9366 16.9938C37.9377 17.0881 37.9388 17.1825 37.9399 17.2797C37.9493 18.1516 37.9544 19.0236 37.9581 19.8956C37.9609 20.5395 37.9658 21.1834 37.9738 21.8272C37.9799 22.3354 37.9822 22.8436 37.9833 23.3518C37.9844 23.5673 37.9866 23.7829 37.9899 23.9984C38.0203 26.0403 38.0203 26.0403 37.4127 26.6757C37.3576 26.7247 37.3025 26.7738 37.2458 26.8244C37.1675 26.9155 37.0901 27.0073 37.0139 27.1001C34.2329 30.0867 30.4252 31.71 26.3474 31.9846C25.6766 32.0081 25.0061 32.002 24.3353 31.9846C24.3353 31.9296 24.3353 31.8747 24.3353 31.8181C24.4371 31.8068 24.5389 31.7956 24.6438 31.784C28.5557 31.312 32.2975 29.6555 34.7966 26.5555C35.0903 26.177 35.243 25.9201 35.2478 25.4315C35.2488 25.3505 35.2497 25.2694 35.2507 25.1859C35.2513 25.097 35.252 25.0082 35.2526 24.9166C35.2535 24.8229 35.2545 24.7293 35.2555 24.6327C35.2637 23.7683 35.268 22.9038 35.2711 22.0393C35.2734 21.401 35.2776 20.7628 35.2845 20.1245C35.2898 19.6206 35.2918 19.1167 35.2927 18.6128C35.2936 18.3991 35.2955 18.1854 35.2984 17.9717C35.3023 17.6718 35.3024 17.3722 35.3017 17.0723C35.3037 16.9846 35.3057 16.897 35.3077 16.8066C35.3002 16.1398 35.0753 15.7594 34.6469 15.2556C34.5833 15.1784 34.5196 15.1011 34.454 15.0215C34.2681 14.8208 34.0812 14.6213 33.8924 14.4233C33.8296 14.3556 33.7668 14.2879 33.7022 14.2182C31.2083 11.6192 27.4985 10.4649 24 10.0954C24 10.068 24 10.0405 24 10.0122Z" fill="#9EC8FB"/>
<path d="M8.72727 25C8.90139 25.2257 8.98548 25.4263 9.0773 25.6834C9.67966 27.3667 10.6505 29.0127 12 30.3429C11.765 30.4444 11.6083 30.4182 11.3466 30.4067C10.8369 30.4032 10.5878 30.4707 10.1818 30.7357C9.74039 31.1482 9.59458 31.4691 9.60689 32.0242C9.6722 32.4771 9.95775 32.8173 10.2727 33.1714C10.1925 33.2038 10.1122 33.2363 10.0295 33.2696C8.59206 33.8623 7.47364 34.7075 6.36364 35.6857C6.18364 35.8413 6.18364 35.8413 6 36C6 32.3959 6 28.7919 6 25.0786C6.9 25.1045 7.8 25.1304 8.72727 25.1571C8.72727 25.1053 8.72727 25.0534 8.72727 25Z" fill="#B4AAAA"/>
<path d="M41.1385 25C42.0828 25 43.0271 25 44 25C44 28.63 44 32.26 44 36C43.7275 35.7664 43.4887 35.5582 43.25 35.3076C42.8422 34.905 42.3678 34.5841 41.8769 34.259C41.7538 34.1767 41.7538 34.1767 41.6281 34.0927C41.0052 33.6894 40.3556 33.3747 39.6615 33.0719C39.7004 33.0233 39.7394 32.9746 39.7794 32.9245C39.83 32.8605 39.8806 32.7966 39.9327 32.7307C39.983 32.6673 40.0334 32.604 40.0852 32.5387C40.3488 32.1763 40.3641 31.825 40.3077 31.4101C40.1504 30.9924 39.9179 30.6945 39.4769 30.4604C38.9922 30.2672 38.5232 30.2862 38 30.3022C38.0303 30.2636 38.0607 30.225 38.0919 30.1853C38.2468 29.9874 38.4003 29.7886 38.5538 29.5899C38.6476 29.4706 38.6476 29.4706 38.7431 29.3488C39.7955 27.9835 40.5897 26.5682 41.1385 25Z" fill="#B4AAAA"/>
<path d="M40.0958 34.0023C40.3922 34.1012 40.6487 34.2485 40.9136 34.4117C40.9681 34.445 41.0226 34.4782 41.0788 34.5125C41.5807 34.8257 42.0304 35.1878 42.4755 35.578C42.5297 35.6224 42.5839 35.6669 42.6397 35.7127C43.0147 36.0217 43.3244 36.37 43.634 36.7443C43.6859 36.804 43.7379 36.8637 43.7914 36.9252C45.4893 38.9425 45.9672 41.3725 45.98 43.9431C45.9813 44.1459 45.9836 44.3486 45.9868 44.5513C45.9913 44.8448 45.9931 45.1382 45.9943 45.4318C45.9962 45.5222 45.9981 45.6125 46 45.7056C45.9981 46.4063 45.9981 46.4063 45.7518 46.7134C45.4186 47.0149 45.1882 47.0021 44.7582 46.999C44.6979 46.9989 44.6375 46.9988 44.5753 46.9986C44.3822 46.9982 44.1891 46.9971 43.996 46.9961C43.8652 46.9957 43.7344 46.9953 43.6036 46.9949C43.2827 46.994 42.9619 46.9926 42.641 46.9909C42.7229 46.9359 42.8048 46.8809 42.8893 46.8243C43.1996 46.5462 43.1996 46.5462 43.3146 46.1621C43.3152 46.0957 43.3158 46.0293 43.3163 45.9609C43.3171 45.8854 43.3179 45.81 43.3187 45.7322C43.3191 45.65 43.3194 45.5679 43.3198 45.4832C43.3205 45.3555 43.3205 45.3555 43.3212 45.2252C43.322 45.0438 43.3226 44.8625 43.3229 44.6812C43.3237 44.4086 43.3262 44.1361 43.3289 43.8635C43.3357 42.5279 43.2289 41.2941 42.791 40.0244C42.7661 39.9512 42.7413 39.878 42.7156 39.8025C42.2221 38.3992 41.4217 37.2387 40.4068 36.1611C40.3442 36.0948 40.2817 36.0284 40.2173 35.96C39.8381 35.5678 39.4466 35.2239 39 34.9115C39.0964 34.8145 39.193 34.7175 39.2903 34.6213C39.3752 34.5344 39.4574 34.4448 39.5372 34.3531C39.8597 33.9932 39.8597 33.9932 40.0958 34.0023Z" fill="#EBE1DC"/>
<path d="M23.9765 13.0026C24.0489 13.0021 24.1213 13.0015 24.196 13.0009C27.9141 12.978 31.8706 13.3777 34.7184 15.1537C34.9189 15.3148 35.0075 15.3884 34.9995 15.5983C34.9026 15.7294 34.8137 15.8388 34.6601 15.9426C34.2415 15.9714 34.0631 15.9779 33.7029 15.8227C33.6108 15.7691 33.5198 15.7146 33.4298 15.6593C30.8906 14.2182 27.2732 13.8376 24.0537 13.9344C23.9813 13.9365 23.9089 13.9386 23.8343 13.9408C22.1125 14.0012 20.3713 14.2637 18.793 14.7377C18.7363 14.7547 18.6796 14.7717 18.6212 14.7892C17.7131 15.0672 16.9602 15.4102 16.1901 15.8397C15.9692 15.955 15.8473 15.9953 15.5686 16C15.2683 15.9197 15.1671 15.8574 15.0171 15.6629C14.9632 15.4353 15.0373 15.3824 15.2292 15.1967C17.2623 13.6899 21.0777 13.0212 23.9765 13.0026Z" fill="#CCE1FD"/>
<path d="M11.2375 10.0003C11.3111 10.0007 11.3847 10.001 11.4605 10.0013C11.6404 10.0022 11.8202 10.0034 12 10.0048C11.7287 10.3649 11.4411 10.7131 11.1313 11.0571C10.7752 11.4669 10.4724 11.8885 10.1813 12.3234C10.1409 12.3835 10.1005 12.4435 10.0589 12.5054C9.73509 12.9973 9.4754 13.4892 9.2 14C8.144 14 7.088 14 6 14C6 12.9198 6.09194 12.1952 7 11.3603C7.07425 11.2867 7.1485 11.2132 7.225 11.1374C8.30065 10.3351 9.70749 9.98751 11.2375 10.0003Z" fill="#B4AAAA"/>
<path d="M38 10.0083C39.6641 9.95782 41.2417 10.1127 42.5246 11.1523C43.7237 12.3122 44 13.2968 44 14.9124C42.416 14.9558 42.416 14.9558 40.8 15C40.6845 14.7255 40.569 14.4509 40.45 14.1681C39.8801 12.8448 39.1469 11.6472 38.3 10.4462C38.1997 10.3004 38.0996 10.1545 38 10.0083Z" fill="#B3A9A9"/>
<path d="M34 43.0396C34.3301 43.0284 34.6602 43.0203 34.9904 43.0149C35.1024 43.0127 35.2144 43.0096 35.3263 43.0057C36.1065 42.979 36.7648 43.0228 37.3651 43.6689C37.8686 44.2758 38.0054 44.8095 37.9998 45.6349C37.9977 45.7419 37.9956 45.849 37.9934 45.9593C37.9861 46.4744 37.9861 46.4744 37.9788 47C37.1807 47 36.3826 47 35.5603 47C35.5457 45.9762 35.5457 45.9762 35.5441 45.6592C35.5254 44.9328 35.39 44.3161 34.9563 43.7679C34.6696 43.4582 34.3663 43.2849 34 43.1296C34 43.0999 34 43.0702 34 43.0396Z" fill="#5392F8"/>
</svg>
