<svg width="50" height="50" viewBox="0 0 50 50" fill="none" xmlns="http://www.w3.org/2000/svg">
<path d="M33.4568 5.00978C33.6905 5.20785 33.9173 5.41228 34.1435 5.61895C34.2425 5.70709 34.2425 5.70709 34.3436 5.797C34.9526 6.36755 35.537 7.11702 35.8153 7.90673C35.8902 7.90265 35.9651 7.89857 36.0422 7.89436C37.5601 7.84914 38.9549 8.18223 40.3029 8.87464C40.3948 8.92069 40.4867 8.96674 40.5813 9.01419C42.5374 10.0722 43.9994 11.9546 44.6695 14.0633C45.1481 15.6885 45.1409 17.3435 44.7905 18.9937C44.8525 19.0136 44.9146 19.0336 44.9785 19.0542C45.2812 19.1929 45.5021 19.384 45.7419 19.6096C45.7881 19.6529 45.8344 19.6962 45.882 19.7408C47.2032 21.0005 47.9474 22.5489 47.9996 24.3793C48.0177 26.4287 47.3895 27.9603 46.0224 29.4647C46.1405 29.7274 46.2732 29.9079 46.4733 30.1136C47.8463 31.6586 48.0706 33.5455 47.9582 35.5361C47.7835 37.095 46.8264 38.516 45.6842 39.5452C44.2159 40.7135 42.3938 41.2404 40.5301 41.04C40.1606 40.9978 39.7918 40.9515 39.423 40.9036C39.375 40.9749 39.327 41.0463 39.2776 41.1198C37.1133 44.3117 34.0941 46.573 30.3599 47.5909C30.2942 47.6094 30.2286 47.6279 30.1609 47.647C28.7117 48.0475 27.1703 48.227 25.8197 47.4613C24.9129 46.8828 24.3176 46.0671 24.0658 45.0212C23.9869 44.5512 24.0046 44.0726 24.0033 43.597C24.0025 43.4085 23.9998 43.2201 23.997 43.0317C23.9844 41.4199 24.4567 40.1388 25.5207 38.9341C26.3341 38.0118 26.7286 37.0686 26.6948 35.8293C26.61 35.016 26.3228 34.1423 25.7843 33.5123C25.6295 33.4096 25.6295 33.4096 25.4323 33.4243C25.228 33.5212 25.0427 33.6223 24.8494 33.7378C23.6352 34.412 22.4046 34.6919 21.0438 34.9201C18.7576 35.3046 16.5736 35.9583 14.6974 37.3839C14.6224 37.4406 14.5474 37.4973 14.4702 37.5558C13.8778 38.018 13.3086 38.5156 12.7722 39.042C11.6011 40.1549 10.0421 40.6133 8.45668 40.5928C6.68376 40.5237 5.27353 39.7832 4.0504 38.5278C3.9803 38.4575 3.9102 38.3871 3.83798 38.3147C3.04606 37.4796 3.04163 36.6681 3.04434 35.5766C3.04394 35.4349 3.04347 35.2932 3.04294 35.1514C3.04216 34.8554 3.04237 34.5595 3.04324 34.2635C3.04426 33.8849 3.04247 33.5065 3.03991 33.128C3.03829 32.8357 3.03832 32.5434 3.03882 32.2511C3.03883 32.1115 3.0383 31.972 3.03721 31.8324C3.0359 31.6372 3.03684 31.4422 3.03835 31.247C3.03836 31.1361 3.03837 31.0253 3.03839 30.9112C3.10651 30.4438 3.32141 30.175 3.67815 29.8771C4.00106 29.7084 4.28228 29.6656 4.63884 29.6406C5.77551 29.5266 6.82369 29.1184 7.63056 28.2768C8.2982 27.447 8.72745 26.4443 8.97793 25.417C8.99562 25.345 9.01332 25.273 9.03155 25.1988C9.13107 24.7245 9.17204 24.2493 9.21045 23.7671C9.37392 21.7457 9.92075 20.011 11.012 18.2901C11.1395 18.0867 11.249 17.8888 11.3537 17.6738C11.2577 17.5379 11.2577 17.5379 11.1598 17.3992C5.81023 9.82055 5.81023 9.82055 5.6782 9.6335C5.59036 9.50906 5.50251 9.38462 5.41465 9.26018C5.19238 8.94533 4.97018 8.63043 4.74814 8.31541C4.68132 8.22073 4.68132 8.22073 4.61315 8.12413C4.52464 7.9985 4.43635 7.8727 4.34832 7.74673C4.13828 7.44708 3.92506 7.15183 3.7005 6.86286C3.02826 5.989 3.02826 5.989 3 5.51996C3.08249 5.179 3.08249 5.179 3.26947 4.95352C3.57743 4.79954 3.70797 4.78174 4.0504 4.82703C4.32534 4.96831 4.57038 5.14636 4.82033 5.32748C4.89366 5.37915 4.967 5.43083 5.04256 5.48407C5.27013 5.64499 5.49633 5.80768 5.72224 5.97092C5.78954 6.0193 5.85685 6.06767 5.92619 6.11751C6.18582 6.30416 6.44514 6.49119 6.70379 6.67919C7.41399 7.19532 8.13447 7.69651 8.85445 8.19885C9.18046 8.42677 9.50548 8.65608 9.83034 8.88564C9.89103 8.92852 9.95172 8.9714 10.0143 9.01559C10.1359 9.10153 10.2575 9.18748 10.379 9.27344C10.6892 9.49262 10.9994 9.71157 11.3097 9.93054C11.4344 10.0185 11.559 10.1065 11.6837 10.1945C11.7454 10.2381 11.8071 10.2816 11.8706 10.3265C12.5562 10.8105 13.2418 11.2944 13.9275 11.7784C13.9892 11.822 14.051 11.8656 14.1147 11.9105C14.2384 11.9979 14.3622 12.0852 14.4859 12.1726C14.8117 12.4026 15.1375 12.6324 15.4635 12.8621C15.5314 12.9099 15.5992 12.9577 15.6691 13.007C15.7988 13.0984 15.9287 13.1899 16.0585 13.2813C16.1171 13.3226 16.1758 13.364 16.2362 13.4065C16.2913 13.4448 16.3464 13.483 16.4031 13.5224C16.5452 13.6262 16.5452 13.6262 16.714 13.7881C16.9325 13.9099 17.0566 13.9007 17.3046 13.8965C17.3764 13.8956 17.4483 13.8947 17.5223 13.8937C17.6049 13.892 17.6049 13.892 17.6891 13.8902C17.6883 13.8316 17.6875 13.7731 17.6867 13.7127C17.6789 13.1032 17.6736 12.4938 17.6698 11.8842C17.668 11.6568 17.6656 11.4293 17.6625 11.2019C17.6583 10.8749 17.6563 10.548 17.6547 10.221C17.652 10.0685 17.652 10.0685 17.6492 9.91291C17.649 9.20677 17.649 9.20677 17.8542 8.85786C18.1389 8.61535 18.3718 8.53154 18.7436 8.50136C19.0192 8.4614 19.0192 8.4614 19.1513 8.24839C19.1878 8.16831 19.2243 8.08823 19.2619 8.00572C19.7116 7.10292 20.334 6.34197 21.0328 5.61895C21.089 5.56042 21.1453 5.5019 21.2033 5.4416C24.433 2.33803 30.0153 2.19226 33.4568 5.00978Z" fill="#E6D4EC"/>
<path d="M33.1529 4.76443C33.496 5.03501 33.8209 5.323 34.1433 5.61766C34.2094 5.67642 34.2754 5.73517 34.3434 5.79571C34.9524 6.36626 35.5368 7.11573 35.8152 7.90544C35.89 7.90136 35.9649 7.89728 36.042 7.89307C37.5599 7.84786 38.9547 8.18094 40.3027 8.87335C40.3946 8.9194 40.4865 8.96545 40.5812 9.0129C42.5373 10.071 43.9992 11.9533 44.6694 14.0621C45.1479 15.6872 45.1407 17.3422 44.7903 18.9924C44.8524 19.0123 44.9144 19.0323 44.9783 19.0529C45.281 19.1916 45.5019 19.3827 45.7417 19.6083C45.788 19.6516 45.8342 19.6949 45.8819 19.7395C47.203 20.9992 47.9472 22.5476 47.9994 24.378C48.0175 26.4274 47.3893 27.959 46.0222 29.4634C46.1404 29.7261 46.273 29.9066 46.4732 30.1123C47.8462 31.6573 48.0704 33.5442 47.958 35.5348C47.7834 37.0937 46.8262 38.5147 45.684 39.5439C44.3492 40.606 42.6324 41.2089 40.9187 41.0783C40.4172 41.0071 39.9199 40.9112 39.4228 40.8143C39.5428 40.5033 39.6783 40.2065 39.8284 39.9089C41.6795 36.1887 42.2932 31.9173 40.9658 27.9005C40.8106 27.4605 40.6369 27.0284 40.4567 26.5981C40.4273 26.5276 40.3979 26.457 40.3676 26.3843C39.7981 25.0758 39.0152 23.8912 38.2156 22.7151C38.0584 22.4838 37.9024 22.2518 37.7465 22.0197C37.2232 21.2443 36.695 20.4899 36.0791 19.7843C36.0117 19.707 35.9442 19.6296 35.8747 19.55C35.6822 19.3315 35.4859 19.1173 35.2872 18.9044C35.1872 18.7972 35.1872 18.7972 35.0851 18.6878C33.2241 16.7599 30.8459 15.4647 28.3359 14.5928C28.2764 14.5712 28.217 14.5495 28.1557 14.5272C26.8064 14.0404 25.3502 13.9074 23.9363 13.7129C23.9224 13.6172 23.9084 13.5214 23.894 13.4228C23.7252 12.3319 23.4867 11.3988 22.7529 10.5397C22.6164 10.3692 22.6164 10.3692 22.5322 10.1822C22.4146 9.97083 22.3072 9.93835 22.0885 9.84126C21.9517 9.74383 21.8161 9.64469 21.6815 9.54429C20.8529 8.96294 19.9875 8.78163 19.0088 8.60938C19.3079 7.6037 19.9943 6.74494 20.6806 5.96963C20.7345 5.90838 20.7884 5.84713 20.8439 5.78402C23.9337 2.48995 29.5593 2.07931 33.1529 4.76443Z" fill="#FD87BF"/>
<path d="M8.626 26.9141C9.93437 27.1802 11.06 28.1886 11.9697 29.1139C12.0781 29.2224 12.0781 29.2224 12.1886 29.3331C14.0197 31.2622 14.8314 33.8901 14.8601 36.5079C14.8485 36.941 14.8363 37.2173 14.6001 37.5875C14.35 37.7861 14.097 37.9352 13.8175 38.089C13.6617 38.2204 13.5094 38.3561 13.361 38.496C13.2884 38.5614 13.2159 38.6268 13.1411 38.6943C13.0165 38.8086 12.8933 38.9244 12.7726 39.0428C11.6014 40.1559 10.0424 40.6144 8.45671 40.594C6.6838 40.5249 5.27356 39.7844 4.05043 38.5289C3.98034 38.4586 3.91024 38.3883 3.83802 38.3158C3.0461 37.4807 3.04166 36.6693 3.04437 35.5778C3.04397 35.436 3.04351 35.2943 3.04298 35.1526C3.04219 34.8566 3.0424 34.5606 3.04328 34.2646C3.04429 33.8861 3.04251 33.5076 3.03994 33.1291C3.03833 32.8368 3.03835 32.5445 3.03885 32.2522C3.03887 32.1127 3.03834 31.9731 3.03725 31.8336C3.03593 31.6384 3.03687 31.4433 3.03838 31.2481C3.0384 31.1373 3.03841 31.0265 3.03843 30.9123C3.10654 30.4449 3.32144 30.1762 3.67819 29.8783C4.0011 29.7096 4.28231 29.6667 4.63888 29.6418C5.78816 29.5265 6.84799 29.1132 7.64709 28.2449C7.89773 27.9379 8.08618 27.6104 8.26166 27.2557C8.36202 27.09 8.36202 27.09 8.626 26.9141Z" fill="#FEC9B6"/>
<path d="M4.0504 4.82645C4.32534 4.96772 4.57038 5.14578 4.82033 5.3269C4.89366 5.37857 4.967 5.43024 5.04256 5.48348C5.27013 5.64441 5.49633 5.8071 5.72224 5.97034C5.78954 6.01871 5.85685 6.06709 5.92619 6.11693C6.18582 6.30357 6.44514 6.49061 6.70379 6.67861C7.41399 7.19474 8.13447 7.69592 8.85445 8.19827C9.18046 8.42618 9.50548 8.6555 9.83034 8.88506C9.89103 8.92794 9.95172 8.97082 10.0143 9.015C10.1359 9.10094 10.2575 9.18689 10.379 9.27285C10.6892 9.49204 10.9994 9.71098 11.3097 9.92996C11.4344 10.0179 11.559 10.1059 11.6837 10.1939C11.7454 10.2375 11.8071 10.281 11.8706 10.3259C13.9275 11.7778 13.9275 11.7778 14.1147 11.9099C14.2385 11.9974 14.3624 12.0848 14.4863 12.1722C14.8101 12.4007 15.1338 12.6294 15.4573 12.8584C15.5244 12.9058 15.5914 12.9532 15.6605 13.0021C15.788 13.0923 15.9156 13.1826 16.043 13.2729C16.383 13.5133 16.7256 13.7484 17.0731 13.9776C16.8368 14.2139 16.5627 14.2823 16.2537 14.39C14.4995 15.0291 12.6664 16.177 11.6177 17.7612C11.2167 17.6285 11.0453 17.2998 10.8257 16.9638C10.7396 16.8352 10.6533 16.7066 10.5669 16.5781C10.5226 16.5117 10.4782 16.4454 10.4325 16.377C10.2183 16.0595 9.99698 15.7472 9.77535 15.4349C9.68655 15.3095 9.59776 15.184 9.50897 15.0586C9.46486 14.9963 9.42075 14.934 9.37531 14.8699C9.15449 14.558 8.93425 14.2458 8.71395 13.9336C8.62596 13.8089 8.53797 13.6843 8.44998 13.5596C5.81023 9.81997 5.81023 9.81997 5.6782 9.63292C5.59036 9.50848 5.50251 9.38404 5.41465 9.2596C5.19238 8.94475 4.97018 8.62984 4.74814 8.31483C4.68132 8.22015 4.68132 8.22015 4.61315 8.12355C4.52464 7.99792 4.43635 7.87212 4.34832 7.74615C4.13828 7.4465 3.92506 7.15125 3.7005 6.86228C3.02826 5.98842 3.02826 5.98842 3 5.51938C3.08249 5.17841 3.08249 5.17841 3.26947 4.95293C3.57743 4.79896 3.70797 4.78116 4.0504 4.82645Z" fill="#FDDC7C"/>
<path d="M16.1273 20.0506C16.754 20.4033 17.2265 20.9343 17.4252 21.6344C17.4639 21.9505 17.4671 22.2622 17.4637 22.5804C17.4629 22.6664 17.4622 22.7525 17.4614 22.8413C17.4428 23.6356 17.3366 24.2775 16.7927 24.8846C16.2457 25.3677 15.6718 25.5746 14.9418 25.5459C14.3242 25.4452 13.7612 25.1195 13.3775 24.6262C12.9724 23.983 12.8683 23.4434 12.8826 22.6903C12.8809 22.601 12.8792 22.5116 12.8774 22.4195C12.8821 21.6997 13.0564 21.1035 13.5514 20.5657C14.2892 19.87 15.18 19.6238 16.1273 20.0506Z" fill="#505050"/>
<path d="M18.3654 9.76087C18.9854 9.8475 19.4319 10.0296 19.8283 10.5253C20.3346 11.2159 20.3645 11.8766 20.3452 12.7031C20.3434 12.8494 20.3434 12.8494 20.3416 12.9987C20.3385 13.2375 20.3342 13.4762 20.3287 13.715C20.2193 13.7203 20.1098 13.7257 19.997 13.7311C19.8491 13.7386 19.7012 13.746 19.5533 13.7535C19.4817 13.7569 19.41 13.7604 19.3362 13.764C18.7856 13.792 18.2377 13.8377 17.689 13.891C17.6825 13.3444 17.6777 12.7979 17.6745 12.2513C17.6731 12.0654 17.6713 11.8794 17.6691 11.6934C17.6659 11.4263 17.6644 11.1592 17.6632 10.892C17.6618 10.8087 17.6605 10.7254 17.6591 10.6395C17.659 10.562 17.659 10.4846 17.659 10.4047C17.6584 10.3365 17.6578 10.2683 17.6572 10.1981C17.7305 9.78564 17.9879 9.71879 18.3654 9.76087Z" fill="#FD9DD1"/>
<path d="M5.89839 31.1365C6.52832 31.4223 6.86217 31.8279 7.13028 32.4563C7.28042 32.9068 7.29819 33.4143 7.1643 33.8731C6.95189 34.2979 6.60607 34.5806 6.16237 34.7441C5.75068 34.7838 5.44904 34.6969 5.08447 34.5076C4.46615 33.9877 4.10998 33.3929 4.02686 32.5749C4.04403 32.0441 4.22841 31.7458 4.58849 31.3647C5.01667 31.003 5.36919 30.9942 5.89839 31.1365Z" fill="#D7B3B6"/>
</svg>
