<svg width="50" height="50" viewBox="0 0 50 50" fill="none" xmlns="http://www.w3.org/2000/svg">
<path d="M27.667 1.49563C28.6681 2.2516 29.4937 3.21357 29.6873 4.49245C29.8143 5.89485 29.7216 7.15798 28.845 8.31936C28.6911 8.50146 28.5429 8.66839 28.3612 8.82271C28.1844 9.0291 28.1859 9.13554 28.1861 9.40459C28.1855 9.48902 28.1849 9.57345 28.1843 9.66044C28.1852 9.75138 28.1861 9.84233 28.187 9.93603C28.1869 10.0298 28.1869 10.1236 28.1868 10.2203C28.1871 10.4188 28.188 10.6173 28.1896 10.8157C28.1919 11.119 28.1916 11.4222 28.191 11.7255C28.1915 11.9184 28.1922 12.1113 28.1931 12.3042C28.193 12.44 28.193 12.44 28.1928 12.5786C28.1988 13.1256 28.2069 13.5589 28.6131 13.9651C28.8871 14.0168 28.8871 14.0168 29.212 14.0414C29.398 14.0588 29.398 14.0588 29.5878 14.0766C29.7227 14.0883 29.8576 14.1 29.9925 14.1116C30.1301 14.124 30.2676 14.1365 30.4052 14.1491C30.6838 14.1744 30.9624 14.199 31.241 14.2232C31.6001 14.2544 31.959 14.2872 32.3179 14.3203C32.7939 14.3635 33.27 14.4014 33.7467 14.4351C33.9584 14.4514 34.1687 14.4729 34.3798 14.4961C34.9818 14.5411 34.9818 14.5411 35.5005 14.2672C35.6518 14.1121 35.799 13.9529 35.9415 13.7896C36.2911 13.3961 36.6207 13.2998 37.1351 13.2518C37.8218 13.2269 38.4136 13.2296 38.9647 13.6721C39.4574 14.1413 39.805 14.5668 39.8764 15.261C39.8855 16.0926 39.8551 16.6678 39.2702 17.282C38.5959 17.9053 38.0658 18.0159 37.1523 17.9988C36.4574 17.9373 36.1092 17.6697 35.6504 17.1634C35.5952 17.0944 35.5399 17.0254 35.483 16.9543C34.814 16.4957 33.6473 16.9032 32.8928 17.0398C32.7505 17.0651 32.6082 17.0905 32.4659 17.1158C32.1692 17.1688 31.8727 17.2224 31.5762 17.2764C31.1968 17.3454 30.817 17.4122 30.4371 17.4786C30.1438 17.5301 29.8507 17.5831 29.5577 17.6364C29.4178 17.6617 29.2777 17.6864 29.1376 17.7107C28.942 17.7447 28.7468 17.7808 28.5516 17.8171C28.3851 17.847 28.3851 17.847 28.2153 17.8776C27.8861 17.9829 27.7437 18.0826 27.5389 18.3596C27.4841 18.5842 27.4841 18.5842 27.4975 18.8288C27.4983 18.9226 27.4991 19.0164 27.4999 19.113C27.5028 19.2148 27.5057 19.3167 27.5087 19.4217C27.5103 19.529 27.5119 19.6363 27.5136 19.7469C27.5197 20.0984 27.5289 20.4497 27.5389 20.801C27.5419 20.919 27.5448 21.0369 27.5479 21.1584C27.5667 21.8914 27.5904 22.6242 27.617 23.3569C27.6306 23.7358 27.6434 24.1147 27.6562 24.4937C27.6647 24.7378 27.6733 24.982 27.6819 25.2261C27.6857 25.3378 27.6895 25.4495 27.6933 25.5646C27.7047 26.7486 27.7047 26.7486 28.0558 27.8594C28.101 27.9489 28.1462 28.0384 28.1927 28.1306C28.2408 28.2235 28.2889 28.3164 28.3384 28.4121C29.8243 31.4009 30.3676 34.6061 29.3821 37.8421C29.1293 38.565 28.7783 39.2259 28.4071 39.8944C28.2183 40.2187 28.2183 40.2187 28.1248 40.5276C31.164 40.0319 33.8544 38.9968 36.2303 37.012C36.3198 36.9522 36.4093 36.8924 36.5015 36.8308C36.5731 36.7617 36.6448 36.6926 36.7186 36.6214C36.7186 36.428 36.7186 36.2346 36.7186 36.0354C35.9451 36.0032 35.1717 35.971 34.3748 35.9378C34.7007 35.6933 35.0198 35.4908 35.3697 35.2847C35.8801 34.9792 36.3175 34.6403 36.7472 34.2257C36.9139 34.0823 36.9139 34.0823 37.1092 34.0823C37.1334 34.0265 37.1575 33.9708 37.1824 33.9133C37.3236 33.657 37.4917 33.4809 37.6951 33.2705C39.2434 31.5731 40.2124 29.3633 40.9089 27.1983C41.0815 26.6815 41.0815 26.6815 41.4061 26.4651C41.6807 26.4041 41.6807 26.4041 41.992 26.4651C42.4517 26.9397 42.7693 27.5498 43.0723 28.1314C43.1145 28.2123 43.1567 28.2932 43.2001 28.3766C43.5622 29.088 43.8352 29.7939 44.0428 30.5667C44.0737 30.678 44.1047 30.7892 44.1366 30.9039C44.736 33.4003 44.2682 35.9425 42.9507 38.1207C42.353 39.0587 41.6025 39.9424 40.7225 40.6253C40.6902 40.6253 40.658 40.6253 40.6248 40.6253C40.5926 39.9807 40.5604 39.3362 40.5272 38.6721C39.9687 38.6058 39.9687 38.6058 39.7467 38.8522C39.686 38.9378 39.6253 39.0234 39.5628 39.1116C38.5984 40.3677 37.462 41.4276 36.1326 42.2854C36.0499 42.3411 35.9672 42.3967 35.882 42.454C34.695 43.2167 33.3917 43.5516 32.0311 43.8479C29.6943 44.3651 27.8964 45.5312 26.5867 47.565C26.3403 47.9516 26.1181 48.3437 25.9153 48.7551C25.7422 49.074 25.6924 49.1168 25.3477 49.2923C24.9212 49.3222 24.7683 49.2603 24.4139 49.0237C24.2512 48.778 24.1457 48.5149 24.0355 48.2425C23.5897 47.2244 23.0573 46.3891 22.1678 45.7034C22.0697 45.7623 21.9717 45.8212 21.8706 45.8819C21.0439 46.3687 20.2755 46.7503 19.3357 46.9729C19.2616 46.9916 19.1875 47.0102 19.1111 47.0294C17.2872 47.3144 15.5596 46.9216 14.0394 45.877C12.8905 44.9803 12.023 43.7296 11.7186 42.2854C11.7154 42.1489 11.7168 42.0122 11.722 41.8757C11.7504 40.9529 11.7504 40.9529 11.418 40.1183C11.1673 39.8718 11.1673 39.8718 10.895 39.6575C10.5923 39.411 10.4107 39.1394 10.2095 38.8087C10.0199 38.6067 10.0199 38.6067 9.47247 38.6721C9.44024 39.3167 9.40801 39.9612 9.37481 40.6253C7.57368 39.5446 6.35492 37.2482 5.82905 35.2626C5.48944 33.7468 5.53741 32.0612 5.95684 30.5667C5.98668 30.4538 6.01651 30.3408 6.04725 30.2245C6.27838 29.4454 6.60868 28.7413 6.98223 28.0215C7.02743 27.9343 7.07262 27.8471 7.11918 27.7573C7.37421 27.2802 7.62965 26.8544 8.00762 26.4651C8.3067 26.4041 8.3067 26.4041 8.59356 26.4651C9.002 26.777 9.10813 27.1625 9.24664 27.637C9.915 29.7584 10.9348 31.7209 12.4022 33.3987C12.517 33.5498 12.517 33.5498 12.6341 33.7039C13.3036 34.4372 14.1074 34.975 14.9561 35.4762C15.2342 35.6448 15.2342 35.6448 15.6248 35.9378C14.4647 35.9861 14.4647 35.9861 13.2811 36.0354C13.217 36.6006 13.217 36.6006 13.4893 36.8613C13.5858 36.9372 13.6822 37.0131 13.7815 37.0913C13.8341 37.1329 13.8867 37.1744 13.9409 37.2172C14.5393 37.6806 15.1698 38.0906 15.8201 38.4768C15.8758 38.5103 15.9315 38.5438 15.9889 38.5783C17.3977 39.4131 19.2261 40.309 20.8982 40.137C21.397 39.9054 21.5637 39.656 21.7772 39.1604C21.83 38.8901 21.83 38.8901 21.8384 38.5989C21.8478 38.4181 21.8478 38.4181 21.8575 38.2336C21.8634 38.0868 21.8692 37.94 21.8748 37.7932C21.8784 37.7068 21.882 37.6204 21.8858 37.5314C21.9173 36.7726 21.9438 36.0136 21.9698 35.2546C21.9784 35.0082 21.987 34.7619 21.9957 34.5156C22.0136 34.0012 22.0314 33.4868 22.0491 32.9724C22.0693 32.3817 22.09 31.791 22.1108 31.2004C22.131 30.6271 22.1509 30.0539 22.1707 29.4806C22.1791 29.239 22.1876 28.9973 22.1961 28.7557C22.2187 28.1141 22.2397 27.4725 22.2575 26.8307C22.2647 26.5865 22.2739 26.3424 22.2833 26.0983C22.2869 25.9671 22.2902 25.836 22.2935 25.7048C22.297 25.5982 22.3005 25.4916 22.3041 25.3817C22.2242 24.7951 21.7852 24.4292 21.3865 24.0237C21.2422 23.8582 21.1012 23.6903 20.9602 23.522C20.551 23.0339 20.1284 22.563 19.6898 22.1011C18.4222 20.737 17.1325 19.041 16.5972 17.2347C16.5292 16.9813 16.5292 16.9813 16.3233 16.8925C16.0906 16.8556 15.8591 16.8224 15.6248 16.7971C15.5147 16.7766 15.5147 16.7766 15.4024 16.7556C15.1541 16.7263 14.987 16.7271 14.7459 16.7971C14.4976 17.0011 14.2889 17.2241 14.0718 17.4609C13.6116 17.9443 13.1457 17.9886 12.5059 18.0117C11.7986 17.993 11.3567 17.8847 10.8431 17.3957C10.2199 16.7215 10.1091 16.1915 10.1263 15.2781C10.1942 14.5103 10.5513 14.1068 11.1231 13.618C11.7579 13.1806 12.4384 13.2156 13.1834 13.2815C13.7016 13.4142 13.9809 13.6845 14.3248 14.0811C14.6701 14.4541 14.9258 14.5145 15.4295 14.551C15.6248 14.5546 15.8202 14.5558 16.0154 14.551C16.0109 14.4293 16.0064 14.3076 16.0017 14.1822C15.9304 11.4629 16.8746 9.27035 18.7201 7.26841C19.7206 6.21527 19.7206 6.21527 20.0419 6.02062C20.2438 5.86555 20.2438 5.86555 20.2604 5.57316C20.2614 5.46024 20.2624 5.34732 20.2635 5.23098C20.3289 3.85074 20.8794 2.76391 21.8809 1.81606C23.5076 0.47799 25.9043 0.325762 27.667 1.49563ZM23.1714 4.02172C23.0528 4.20747 22.947 4.39172 22.8514 4.59011C23.1302 4.7826 23.1302 4.7826 23.3824 4.9136C23.7593 5.16183 23.9783 5.43188 24.1209 5.85964C24.1575 6.41828 24.121 6.73445 23.8279 7.22683C23.7957 7.29128 23.7635 7.35574 23.7303 7.42214C24.3378 7.75351 24.9005 7.79713 25.5858 7.71511C26.2508 7.51164 26.7277 7.08307 27.0811 6.4883C27.3477 5.91278 27.3605 5.25506 27.1746 4.65153C26.9063 4.07231 26.4736 3.59647 25.9054 3.29502C24.9042 2.96987 23.8335 3.18403 23.1714 4.02172ZM21.6795 8.88699C20.6852 9.79669 19.9104 10.8429 19.4334 12.1096C19.3975 12.2048 19.3975 12.2048 19.3609 12.3019C19.1656 12.9335 19.2216 13.6047 19.2381 14.2581C19.5883 14.2366 19.938 14.2111 20.2879 14.1848C20.3871 14.1788 20.4863 14.1728 20.5885 14.1665C20.6842 14.159 20.7798 14.1514 20.8784 14.1436C20.9664 14.1375 21.0543 14.1314 21.145 14.125C21.4568 14.0447 21.579 13.9228 21.7772 13.6721C21.8681 13.3914 21.8867 13.1367 21.8859 12.8427C21.8859 12.7137 21.8859 12.7137 21.8859 12.5821C21.8854 12.4902 21.8849 12.3982 21.8843 12.3034C21.8842 12.2086 21.8841 12.1138 21.8839 12.0161C21.8834 11.7136 21.8822 11.4111 21.8809 11.1087C21.8804 10.9034 21.88 10.6982 21.8796 10.493C21.8785 9.99019 21.8768 9.48742 21.8748 8.98464C21.8104 8.95242 21.7459 8.92019 21.6795 8.88699ZM20.5076 17.676C20.7132 18.1205 20.9625 18.5015 21.2645 18.8845C21.3073 18.9395 21.3502 18.9945 21.3943 19.0511C21.9039 19.7024 21.9039 19.7024 22.4607 20.3128C22.493 20.3128 22.5252 20.3128 22.5584 20.3128C22.5726 19.9975 22.5813 19.6822 22.5889 19.3667C22.593 19.2777 22.5971 19.1886 22.6013 19.0968C22.6094 18.6534 22.6088 18.4306 22.3459 18.0606C22.0587 17.8636 21.8753 17.7908 21.533 17.7432C21.4434 17.7295 21.3538 17.7157 21.2614 17.7016C21.0081 17.6772 20.7619 17.671 20.5076 17.676ZM16.699 43.555C17.0017 43.8576 17.2255 43.8469 17.6512 43.854C17.7559 43.852 17.8607 43.85 17.9686 43.8479C17.9686 43.8157 17.9686 43.7835 17.9686 43.7503C17.5496 43.6858 17.1307 43.6214 16.699 43.555Z" fill="#9A5C3E"/>
<path d="M27.6674 1.49563C28.6684 2.2516 29.4941 3.21357 29.6876 4.49245C29.8147 5.89485 29.722 7.15798 28.8453 8.31936C28.6914 8.50146 28.5432 8.66838 28.3615 8.82271C28.1847 9.0291 28.1862 9.13554 28.1864 9.40459C28.1858 9.48902 28.1852 9.57345 28.1846 9.66044C28.1855 9.75138 28.1864 9.84233 28.1873 9.93603C28.1873 10.0298 28.1872 10.1236 28.1872 10.2203C28.1874 10.4188 28.1883 10.6173 28.19 10.8157C28.1923 11.119 28.192 11.4222 28.1913 11.7255C28.1919 11.9184 28.1926 12.1113 28.1934 12.3042C28.1933 12.44 28.1933 12.44 28.1931 12.5786C28.1991 13.1256 28.2072 13.5589 28.6134 13.9651C28.8874 14.0168 28.8874 14.0168 29.2123 14.0414C29.3983 14.0588 29.3983 14.0588 29.5881 14.0766C29.723 14.0883 29.8579 14.1 29.9928 14.1116C30.1304 14.124 30.2679 14.1365 30.4055 14.1491C30.6841 14.1744 30.9627 14.199 31.2414 14.2232C31.6004 14.2544 31.9593 14.2872 32.3182 14.3203C32.7942 14.3635 33.2703 14.4014 33.747 14.4351C33.9587 14.4514 34.1691 14.4729 34.3801 14.4961C34.9821 14.5411 34.9821 14.5411 35.5008 14.2672C35.6522 14.1121 35.7994 13.9529 35.9418 13.7896C36.2914 13.3961 36.621 13.2998 37.1354 13.2518C37.8221 13.2269 38.4139 13.2296 38.965 13.6721C39.4577 14.1413 39.8054 14.5668 39.8767 15.261C39.8859 16.0926 39.8554 16.6678 39.2705 17.282C38.5962 17.9053 38.0661 18.0159 37.1526 17.9988C36.4578 17.9373 36.1095 17.6697 35.6508 17.1634C35.5955 17.0944 35.5402 17.0254 35.4833 16.9543C34.8143 16.4957 33.6477 16.9032 32.8931 17.0398C32.7508 17.0651 32.6085 17.0905 32.4662 17.1158C32.1695 17.1688 31.873 17.2224 31.5765 17.2764C31.1971 17.3454 30.8174 17.4122 30.4375 17.4786C30.1441 17.5301 29.8511 17.5831 29.558 17.6364C29.4181 17.6617 29.278 17.6864 29.1379 17.7107C28.9423 17.7447 28.7471 17.7808 28.5519 17.8171C28.3854 17.847 28.3854 17.847 28.2156 17.8776C27.8868 17.9828 27.7443 18.0834 27.5392 18.3596C27.4843 18.5768 27.4843 18.5768 27.4976 18.8132C27.4987 18.9503 27.4987 18.9503 27.4999 19.0903C27.5028 19.1904 27.5057 19.2906 27.5087 19.3938C27.5103 19.5002 27.5118 19.6067 27.5135 19.7163C27.5197 20.078 27.5292 20.4395 27.5392 20.801C27.5425 20.933 27.5457 21.0649 27.5489 21.1968C27.5715 22.1168 27.5997 23.0366 27.6297 23.9565C27.6418 24.3291 27.6534 24.7018 27.6651 25.0745C27.6878 25.7984 27.711 26.5224 27.7345 27.2464C27.429 26.9567 27.2298 26.6221 27.0143 26.2637C25.7644 24.2296 24.2507 22.2001 22.5587 20.5081C22.5338 20.2949 22.5338 20.2949 22.532 20.0328C22.53 19.9382 22.528 19.8437 22.5259 19.7463C22.5234 19.5469 22.5216 19.3475 22.5206 19.1481C22.5134 18.6021 22.5134 18.6021 22.3131 18.1063C21.9698 17.912 21.6404 17.8623 21.2526 17.8103C21.1073 17.7891 20.9621 17.7675 20.8169 17.7455C20.7209 17.7323 20.7209 17.7323 20.623 17.7189C20.4103 17.676 20.4103 17.676 20.1323 17.5817C19.8144 17.4775 19.5081 17.4147 19.1785 17.3583C19.0566 17.3373 18.9347 17.3164 18.8091 17.2948C18.6829 17.2736 18.5567 17.2523 18.4266 17.2305C18.239 17.1981 18.239 17.1981 18.0477 17.1651C17.4037 17.0554 16.7632 16.9613 16.1134 16.8948C16.0328 16.8767 15.9523 16.8585 15.8693 16.8399C15.7887 16.8258 15.7081 16.8117 15.6251 16.7971C15.5612 16.7849 15.4972 16.7727 15.4313 16.7601C15.177 16.7325 14.9951 16.7327 14.7462 16.7971C14.4967 17.0004 14.2895 17.2238 14.0722 17.4609C13.6119 17.9443 13.1461 17.9886 12.5062 18.0117C11.7989 17.993 11.357 17.8847 10.8434 17.3957C10.2202 16.7215 10.1095 16.1915 10.1266 15.2781C10.1945 14.5103 10.5516 14.1068 11.1234 13.618C11.7583 13.1806 12.4388 13.2156 13.1837 13.2815C13.7019 13.4142 13.9812 13.6845 14.3251 14.0811C14.6705 14.4541 14.9261 14.5145 15.4298 14.551C15.6251 14.5546 15.8205 14.5558 16.0158 14.551C16.0112 14.4293 16.0067 14.3076 16.002 14.1822C15.9308 11.4629 16.8749 9.27035 18.7204 7.26841C19.7209 6.21527 19.7209 6.21527 20.0422 6.02062C20.2441 5.86555 20.2441 5.86555 20.2608 5.57316C20.2618 5.46024 20.2628 5.34732 20.2638 5.23098C20.3292 3.85074 20.8797 2.76391 21.8812 1.81606C23.5079 0.47799 25.9047 0.325762 27.6674 1.49563ZM23.1717 4.02172C23.0531 4.20747 22.9474 4.39172 22.8517 4.59011C23.1305 4.7826 23.1305 4.7826 23.3827 4.9136C23.7597 5.16183 23.9786 5.43188 24.1212 5.85964C24.1579 6.41828 24.1213 6.73445 23.8283 7.22683C23.796 7.29128 23.7638 7.35574 23.7306 7.42214C24.3381 7.75351 24.9008 7.79713 25.5861 7.71511C26.2512 7.51164 26.728 7.08307 27.0814 6.4883C27.348 5.91278 27.3608 5.25506 27.1749 4.65153C26.9066 4.07231 26.4739 3.59647 25.9057 3.29502C24.9045 2.96987 23.8338 3.18403 23.1717 4.02172ZM21.6798 8.88699C20.6855 9.79669 19.9107 10.8429 19.4337 12.1096C19.3978 12.2048 19.3978 12.2048 19.3612 12.3019C19.1659 12.9335 19.2219 13.6047 19.2384 14.2581C19.5886 14.2366 19.9384 14.2111 20.2882 14.1848C20.3874 14.1788 20.4866 14.1728 20.5888 14.1665C20.6845 14.159 20.7802 14.1514 20.8787 14.1436C20.9667 14.1375 21.0547 14.1314 21.1453 14.125C21.4571 14.0447 21.5793 13.9228 21.7775 13.6721C21.8684 13.3914 21.8871 13.1367 21.8862 12.8427C21.8862 12.7137 21.8862 12.7137 21.8862 12.5821C21.8857 12.4902 21.8852 12.3982 21.8847 12.3034C21.8845 12.2086 21.8844 12.1138 21.8842 12.0161C21.8837 11.7136 21.8825 11.4111 21.8812 11.1087C21.8807 10.9034 21.8803 10.6982 21.8799 10.493C21.8788 9.99019 21.8771 9.48742 21.8751 8.98464C21.8107 8.95242 21.7462 8.92019 21.6798 8.88699Z" fill="#FEBF08"/>
<path d="M22.3631 25.0977C22.9016 25.6313 22.9016 25.6313 23.1176 25.935C23.1863 26.0314 23.1863 26.0314 23.2564 26.1297C23.304 26.198 23.3516 26.2663 23.4007 26.3367C23.4513 26.409 23.502 26.4814 23.5541 26.556C24.4387 27.8344 25.2223 29.1569 25.8787 30.5664C25.9186 30.652 25.9585 30.7376 25.9996 30.8258C26.1017 31.0623 26.1879 31.2986 26.2693 31.543C26.3237 31.7001 26.3237 31.7001 26.3792 31.8604C26.984 33.8764 26.8362 36.0346 25.8825 37.9055C25.2496 39.0753 24.3718 40.0837 23.3397 40.918C23.2606 40.9882 23.1815 41.0585 23.1001 41.1308C21.7866 42.2792 19.7941 43.9496 17.9686 43.8477C16.2482 43.5969 14.6685 42.8291 13.2811 41.7969C13.203 41.7393 13.125 41.6818 13.0445 41.6225C12.0078 40.8247 10.9671 39.9294 10.235 38.8374C10.0275 38.6051 10.0275 38.6051 9.47247 38.6719C9.44024 39.3164 9.40801 39.9609 9.37481 40.625C7.57368 39.5443 6.35492 37.2479 5.82905 35.2623C5.48944 33.7465 5.53741 32.061 5.95684 30.5664C5.98668 30.4535 6.01651 30.3406 6.04725 30.2242C6.27838 29.4451 6.60868 28.7411 6.98223 28.0212C7.02743 27.934 7.07262 27.8469 7.11918 27.757C7.37421 27.2799 7.62965 26.8541 8.00762 26.4648C8.3067 26.4038 8.3067 26.4038 8.59356 26.4648C9.002 26.7767 9.10813 27.1623 9.24664 27.6367C9.91499 29.7581 10.9348 31.7206 12.4022 33.3984C12.517 33.5495 12.517 33.5495 12.6341 33.7036C13.3036 34.4369 14.1074 34.9748 14.9561 35.4759C15.2342 35.6445 15.2342 35.6445 15.6248 35.9375C14.8514 35.9697 14.0779 36.002 13.2811 36.0352C13.217 36.6003 13.217 36.6003 13.4893 36.861C13.5858 36.9369 13.6822 37.0129 13.7815 37.0911C13.8341 37.1326 13.8867 37.1741 13.9409 37.2169C14.5393 37.6803 15.1698 38.0903 15.8201 38.4766C15.8758 38.51 15.9315 38.5435 15.9889 38.578C17.3977 39.4129 19.2261 40.3088 20.8982 40.1367C21.397 39.9051 21.5637 39.6557 21.7772 39.1602C21.8301 38.8898 21.8301 38.8898 21.8386 38.5986C21.8449 38.4781 21.8512 38.3576 21.8577 38.2334C21.8636 38.0866 21.8693 37.9398 21.8748 37.793C21.8801 37.6633 21.8801 37.6633 21.8855 37.5311C21.9112 36.8919 21.9334 36.2527 21.9545 35.6134C21.9666 35.2473 21.979 34.8813 21.9915 34.5153C22.018 33.7382 22.0441 32.961 22.0701 32.1838C22.1003 31.2827 22.1307 30.3815 22.1615 29.4804C22.1736 29.1221 22.1855 28.7639 22.1973 28.4057C22.2345 27.3014 22.2765 26.1993 22.3631 25.0977Z" fill="#FEBF08"/>
<path d="M41.9922 26.4645C42.4519 26.9391 42.7695 27.5491 43.0725 28.1308C43.1147 28.2117 43.1569 28.2926 43.2003 28.3759C43.5624 29.0874 43.8354 29.7933 44.043 30.5661C44.0739 30.6773 44.1049 30.7886 44.1368 30.9033C44.7362 33.3997 44.2684 35.9419 42.9508 38.1201C42.3532 39.0581 41.6027 39.9418 40.7227 40.6246C40.6904 40.6246 40.6582 40.6246 40.625 40.6246C40.5928 39.9801 40.5605 39.3356 40.5273 38.6715C39.9689 38.6052 39.9689 38.6052 39.7469 38.8516C39.6862 38.9372 39.6255 39.0228 39.563 39.111C38.5986 40.3671 37.4622 41.427 36.1328 42.2848C36.0501 42.3404 35.9674 42.3961 35.8822 42.4534C34.6952 43.2161 33.3919 43.5509 32.0312 43.8473C29.6944 44.3645 27.8966 45.5305 26.5869 47.5643C26.3405 47.951 26.1182 48.3431 25.9155 48.7545C25.7424 49.0734 25.6926 49.1161 25.3479 49.2916C24.9214 49.3216 24.7685 49.2597 24.4141 49.0231C24.2514 48.7774 24.1458 48.5143 24.0356 48.2418C23.6051 47.2562 23.0587 46.4364 22.2656 45.7028C22.3886 45.3339 22.504 45.2996 22.8333 45.1046C24.8785 43.8431 26.6912 42.2323 28.0273 40.234C28.0596 40.3307 28.0918 40.4274 28.125 40.527C31.1642 40.0312 33.8546 38.9962 36.2305 37.0114C36.32 36.9516 36.4095 36.8918 36.5017 36.8302C36.5733 36.7611 36.645 36.6919 36.7188 36.6207C36.7188 36.4274 36.7188 36.234 36.7188 36.0348C35.9453 36.0026 35.1719 35.9704 34.375 35.9371C34.7009 35.6927 35.0199 35.4902 35.3699 35.2841C35.8803 34.9786 36.3177 34.6397 36.7474 34.2251C36.9141 34.0817 36.9141 34.0817 37.1094 34.0817C37.1335 34.0259 37.1577 33.9701 37.1826 33.9127C37.3238 33.6564 37.4919 33.4803 37.6953 33.2699C39.2436 31.5725 40.2126 29.3627 40.9091 27.1977C41.1064 26.6067 41.3437 26.3373 41.9922 26.4645Z" fill="#FF9800"/>
<path d="M41.7969 26.4648C42.5579 29.4637 42.0543 32.4429 40.5422 35.1055C39.6729 36.5657 38.4481 37.8361 37.1094 38.8672C37.019 38.9418 36.9286 39.0165 36.8355 39.0934C34.2836 41.1581 31.0544 42.5815 27.948 43.573C26.0552 44.1858 24.741 45.3007 23.8281 47.0703C23.7637 47.167 23.6992 47.2637 23.6328 47.3633C23.5832 47.2925 23.5336 47.2218 23.4825 47.1489C23.1081 46.623 22.7398 46.1418 22.2656 45.7031C22.3886 45.3342 22.504 45.3 22.8333 45.105C24.8785 43.8435 26.6912 42.2326 28.0273 40.2344C28.0596 40.3311 28.0918 40.4277 28.125 40.5273C31.1642 40.0316 33.8546 38.9966 36.2305 37.0117C36.32 36.9519 36.4095 36.8921 36.5017 36.8305C36.5733 36.7614 36.645 36.6923 36.7188 36.6211C36.7188 36.4277 36.7188 36.2344 36.7188 36.0352C35.9453 36.0029 35.1719 35.9707 34.375 35.9375C34.7009 35.693 35.0199 35.4905 35.3699 35.2844C35.8803 34.979 36.3177 34.64 36.7474 34.2255C36.9141 34.082 36.9141 34.082 37.1094 34.082C37.1335 34.0263 37.1577 33.9705 37.1826 33.913C37.3238 33.6567 37.4919 33.4806 37.6953 33.2703C39.2436 31.5729 40.2126 29.363 40.9091 27.1981C41.0897 26.657 41.1934 26.4648 41.7969 26.4648Z" fill="#FEBF07"/>
<path d="M23.9256 40.2344C24.0223 40.3311 24.0223 40.3311 24.1209 40.4297C24.4102 40.5371 24.7005 40.6346 24.9945 40.7282C25.3472 40.8466 25.4703 40.8912 25.6834 41.2109C24.7846 42.2195 24.7846 42.2195 24.3162 42.6758C24.2685 42.7279 24.2208 42.78 24.1717 42.8337C23.2331 43.8324 22.0106 44.7615 20.8006 45.4102C20.7362 45.4102 20.6717 45.4102 20.6053 45.4102C20.702 45.5491 20.702 45.5491 20.8006 45.6909C20.9959 45.9961 20.9959 45.9961 20.9959 46.1914C21.0604 46.2236 21.1248 46.2559 21.1912 46.2891C19.5887 47.1016 17.779 47.3646 16.0261 46.8842C14.2788 46.2695 12.9546 45.1869 12.1455 43.52C11.91 42.9693 11.7047 42.4663 11.7091 41.8625C11.7095 41.7454 11.7095 41.7454 11.71 41.626C11.7108 41.5454 11.7116 41.4648 11.7125 41.3818C11.7129 41.2998 11.7134 41.2177 11.7138 41.1331C11.715 40.9312 11.7167 40.7293 11.7186 40.5273C12.0285 40.6648 12.2381 40.8301 12.4815 41.0645C13.8972 42.332 16.033 43.7342 17.9686 43.7866C18.0874 43.7914 18.2063 43.7962 18.3287 43.8011C19.3591 43.7376 20.2762 43.0685 21.0997 42.5049C21.2459 42.4074 21.2459 42.4074 21.3951 42.308C22.3038 41.6948 23.1698 41.031 23.9256 40.2344Z" fill="#9B5D3E"/>
<path d="M23.1448 4.68925C23.5941 4.86896 23.8369 5.18884 24.1214 5.56816C24.2815 6.04854 24.2736 6.47178 24.1214 6.94756C23.8012 7.40785 23.3549 7.67118 22.8961 7.98363C21.2961 9.10274 19.8077 10.7043 19.3687 12.6658C19.3064 13.101 19.2854 13.5397 19.2626 13.9784C19.2386 14.2596 19.2386 14.2596 19.1409 14.3572C18.9849 14.3795 18.828 14.3958 18.6709 14.4095C18.5739 14.418 18.4768 14.4265 18.3768 14.4352C18.2745 14.4437 18.1721 14.4522 18.0667 14.461C17.9177 14.4743 17.9177 14.4743 17.7657 14.4879C17.18 14.5379 16.6037 14.5617 16.0159 14.5525C15.9088 11.6752 16.7457 9.40136 18.7232 7.26837C18.7966 7.1907 18.87 7.11303 18.9456 7.033C19.016 6.95634 19.0863 6.87968 19.1588 6.80069C19.6841 6.24731 20.2459 5.85988 20.8987 5.4705C21.0964 5.34491 21.2938 5.21878 21.4908 5.09209C22.0793 4.71551 22.4425 4.62924 23.1448 4.68925Z" fill="#9A5C3E"/>
<path d="M33.899 15.8769C34.1896 16.0997 34.3698 16.398 34.5704 16.7008C33.7229 16.9052 32.875 17.0764 32.0157 17.2223C31.7768 17.264 31.5379 17.3058 31.2991 17.3476C30.9276 17.4124 30.556 17.4767 30.1843 17.5398C29.822 17.6014 29.4601 17.665 29.0982 17.7289C28.9867 17.7473 28.8752 17.7658 28.7603 17.7847C28.6569 17.8033 28.5535 17.8219 28.447 17.841C28.3563 17.8566 28.2656 17.8722 28.1721 17.8883C27.87 17.9906 27.7328 18.1088 27.5391 18.361C27.4843 18.5782 27.4843 18.5782 27.4975 18.8145C27.4987 18.9517 27.4987 18.9517 27.4998 19.0916C27.5027 19.1918 27.5056 19.292 27.5086 19.3952C27.5102 19.5016 27.5118 19.608 27.5134 19.7177C27.5196 20.0794 27.5291 20.4408 27.5391 20.8024C27.5424 20.9343 27.5457 21.0662 27.5489 21.1981C27.5714 22.1182 27.5997 23.038 27.6297 23.9579C27.6417 24.3305 27.6533 24.7032 27.665 25.0758C27.6877 25.7998 27.7109 26.5238 27.7344 27.2477C27.5245 27.0427 27.3627 26.8489 27.2095 26.5981C27.1677 26.5303 27.1259 26.4625 27.0829 26.3927C27.0401 26.3224 26.9973 26.252 26.9532 26.1796C26.8679 26.0403 26.7825 25.901 26.6968 25.7619C26.6593 25.7004 26.6218 25.6388 26.5832 25.5754C26.4674 25.3874 26.4674 25.3874 26.3142 25.215C26.1481 24.9659 26.131 24.8267 26.1207 24.5299C26.1149 24.3892 26.1149 24.3892 26.109 24.2458C26.1062 24.1444 26.1034 24.043 26.1006 23.9385C26.0967 23.8321 26.0928 23.7257 26.0887 23.6161C26.0806 23.3897 26.0732 23.1632 26.0664 22.9367C26.0562 22.5991 26.0442 22.2616 26.0317 21.9241C26.0121 21.3696 25.9967 20.8151 25.9843 20.2603C25.9791 20.0317 25.9733 19.8031 25.9671 19.5745C25.9583 19.2365 25.9524 18.8986 25.9473 18.5605C25.9428 18.4062 25.9428 18.4062 25.9382 18.2488C25.9321 17.5586 25.9321 17.5586 26.1224 17.2314C26.463 17.0367 26.8069 16.9665 27.1886 16.8996C27.2698 16.8841 27.3511 16.8686 27.4348 16.8527C27.6992 16.8026 27.964 16.7548 28.2288 16.707C28.4107 16.6731 28.5925 16.6391 28.7743 16.6049C29.1369 16.537 29.4997 16.47 29.8626 16.4037C30.3084 16.3221 30.7536 16.2374 31.1986 16.1512C31.4314 16.1065 31.6642 16.0618 31.897 16.0173C32.0014 15.997 32.1058 15.9767 32.2133 15.9559C33.3759 15.7384 33.3759 15.7384 33.899 15.8769Z" fill="#FE9800"/>
<path d="M26.7582 1.17188C27.4792 1.19036 27.9446 1.68317 28.4359 2.1595C29.478 3.26656 29.757 4.46636 29.7245 5.94711C29.6687 7.01824 29.2451 7.90868 28.516 8.69141C28.4652 8.73301 28.4144 8.77461 28.3621 8.81748C28.1729 9.04446 28.1843 9.19056 28.1808 9.48379C28.1789 9.58544 28.1769 9.68708 28.1749 9.79181C28.174 9.95616 28.174 9.95616 28.173 10.1238C28.1713 10.2361 28.1695 10.3484 28.1677 10.4641C28.1624 10.8233 28.1591 11.1825 28.1559 11.5417C28.1526 11.7851 28.1493 12.0284 28.1458 12.2717C28.1375 12.8686 28.1308 13.4655 28.1254 14.0625C27.6499 14.0523 27.2644 14.032 26.8477 13.7899C26.5553 13.3004 26.5908 12.8312 26.5957 12.2711C26.5952 12.1538 26.5947 12.0364 26.5942 11.9155C26.5939 11.6676 26.5948 11.4197 26.5969 11.1718C26.5995 10.7923 26.5969 10.4132 26.5938 10.0338C26.5941 9.79284 26.5947 9.55187 26.5957 9.31091C26.5947 9.19748 26.5937 9.08404 26.5927 8.96717C26.6041 8.1781 26.6041 8.1781 26.8984 7.79905C27.0223 7.70903 27.0223 7.70903 27.1488 7.61719C28.047 6.483 28.2222 5.21837 28.1254 3.80859C27.966 2.80007 27.3524 1.97589 26.7582 1.17188Z" fill="#FF9800"/>
<path d="M25.9857 38.3555C26.9052 38.5178 27.8267 38.7321 28.6133 39.2565C28.5583 39.6414 28.4493 39.9158 28.2227 40.2331C28.1582 40.2331 28.0938 40.2331 28.0273 40.2331C28.0048 40.3015 27.9823 40.37 27.9591 40.4406C27.8075 40.7756 27.6008 41.0322 27.3621 41.3073C27.2911 41.3897 27.2911 41.3897 27.2187 41.4737C25.976 42.8981 24.5892 44.0453 23.0218 45.0983C22.8335 45.2257 22.6469 45.3554 22.4602 45.4851C22.3282 45.5757 22.1962 45.6663 22.0642 45.7567C22.0025 45.7999 21.9409 45.8431 21.8773 45.8876C21.5466 46.1118 21.4074 46.1901 20.9961 46.1901C20.6055 45.691 20.6055 45.691 20.6055 45.4088C20.8408 45.2526 21.0766 45.1068 21.3196 44.9633C22.0097 44.5438 22.6353 44.0883 23.2422 43.5534C23.3321 43.4742 23.422 43.395 23.5146 43.3134C23.9594 42.9205 23.9594 42.9205 24.3805 42.5028C24.5117 42.3815 24.5117 42.3815 24.707 42.3815C24.732 42.3256 24.7569 42.2697 24.7826 42.2121C24.9151 41.9673 25.0703 41.7826 25.2563 41.5758C25.318 41.5069 25.3797 41.4379 25.4433 41.3668C25.4903 41.3149 25.5374 41.2631 25.5859 41.2096C25.3341 40.9012 25.063 40.8197 24.6887 40.703C24.5826 40.6694 24.4765 40.6358 24.3671 40.6012C24.2453 40.564 24.2453 40.564 24.1211 40.526C24.1211 40.0351 24.3183 39.8543 24.6277 39.5067C24.6748 39.452 24.722 39.3974 24.7705 39.341C24.8648 39.2326 24.9602 39.1253 25.0568 39.019C25.1865 38.8756 25.3111 38.7276 25.4353 38.5794C25.6836 38.3776 25.6836 38.3776 25.9857 38.3555Z" fill="#995B3E"/>
<path d="M22.3634 25.0977C22.7667 25.4767 23.0849 25.8833 23.401 26.3367C23.4517 26.409 23.5023 26.4814 23.5545 26.556C24.4391 27.8344 25.2227 29.1569 25.8791 30.5664C25.919 30.652 25.9589 30.7376 26 30.8258C26.1021 31.0623 26.1883 31.2986 26.2697 31.543C26.3059 31.6477 26.3422 31.7524 26.3796 31.8604C26.9501 33.762 26.8962 35.9362 25.9657 37.7094C25.7852 38.0378 25.5924 38.3562 25.3908 38.6719C25.2641 38.2919 25.3743 38.0404 25.4823 37.6709C25.6968 36.8794 25.7285 36.1735 25.6838 35.3516C25.6817 35.2618 25.6797 35.1721 25.6777 35.0796C25.5916 33.2963 24.7225 31.5228 23.8405 30.0049C23.8002 29.9352 23.7599 29.8656 23.7184 29.7939C23.5217 29.4648 23.3227 29.1682 23.0608 28.8876C22.1816 27.9158 22.2734 26.916 22.3291 25.6477C22.3399 25.4643 22.3511 25.281 22.3634 25.0977Z" fill="#FD9701"/>
<path d="M23.2422 21.1911C23.4898 21.3891 23.4898 21.3891 23.7366 21.6733C23.782 21.7253 23.8274 21.7772 23.8741 21.8308C25.5369 23.7656 27.0287 25.9073 28.2349 28.1552C28.273 28.2259 28.3112 28.2966 28.3505 28.3694C28.6133 28.87 28.6133 28.87 28.6133 29.1989C28.4101 29.2509 28.2066 29.3015 28.0029 29.3515C27.8896 29.3798 27.7763 29.4082 27.6596 29.4374C27.3587 29.4893 27.2302 29.501 26.9531 29.3942C26.8174 29.1501 26.7068 28.9181 26.5991 28.6618C25.597 26.4161 24.1287 24.403 22.567 22.5152C22.2931 22.1792 22.033 21.834 21.7773 21.4841C21.9112 21.4341 22.0456 21.3856 22.1802 21.3376C22.2923 21.2968 22.2923 21.2968 22.4068 21.2552C22.7096 21.1774 22.9306 21.1495 23.2422 21.1911Z" fill="#8D4D32"/>
<path d="M16.8945 43.8495C18.8404 43.7426 18.8404 43.7426 19.4466 44.2539C19.5368 44.3438 19.5368 44.3438 19.6289 44.4355C19.7403 44.5374 19.7403 44.5374 19.854 44.6415C20.0498 44.8271 20.2382 45.0087 20.4102 45.2167C20.4102 45.2812 20.4102 45.3456 20.4102 45.412C20.4746 45.412 20.5391 45.412 20.6055 45.412C20.9961 45.9405 20.9961 45.9405 20.9961 46.1933C21.0605 46.2255 21.125 46.2577 21.1914 46.2909C21.0291 46.3691 20.8662 46.4462 20.7031 46.5229C20.6125 46.5659 20.5219 46.609 20.4285 46.6533C19.6739 46.9585 19.0184 47.0005 18.2129 46.9867C18.1139 46.9859 18.015 46.985 17.9131 46.9841C17.6712 46.9818 17.4294 46.9786 17.1875 46.9745C17.1794 46.8794 17.1794 46.8794 17.1711 46.7823C17.1462 46.4903 17.1211 46.1984 17.0959 45.9064C17.0875 45.8066 17.079 45.7069 17.0702 45.6041C17.0197 45.0181 16.9622 44.4338 16.8945 43.8495Z" fill="#9F7157"/>
<path d="M19.6289 8.69141C19.6934 8.69141 19.7578 8.69141 19.8242 8.69141C19.9894 8.88786 19.9894 8.88786 20.1721 9.14917C20.2327 9.23414 20.2932 9.31911 20.3556 9.40666C20.5128 9.67642 20.5948 9.84455 20.6055 10.1562C20.4792 10.408 20.4792 10.408 20.2942 10.6689C19.5755 11.7355 19.3287 12.6994 19.2623 13.9767C19.2383 14.2578 19.2383 14.2578 19.1406 14.3555C18.8935 14.3626 18.6491 14.3645 18.4021 14.3616C18.298 14.3609 18.298 14.3609 18.1917 14.3602C18.0198 14.3591 17.8478 14.3573 17.6758 14.3555C17.2955 12.7595 17.7255 11.4245 18.5574 10.0533C18.8791 9.57291 19.2267 9.10758 19.6289 8.69141Z" fill="#8D4D32"/>
<path d="M37.8906 13.2812C38.6328 13.3519 39.053 13.7265 39.5218 14.2696C39.9511 14.8917 39.9081 15.5811 39.8438 16.3086C39.6796 16.9589 39.2125 17.4009 38.6719 17.7734C38.0424 18.0903 37.2308 18.0886 36.5604 17.8947C36.1863 17.7204 36 17.5612 35.8398 17.1875C35.9072 17.1802 35.9745 17.1729 36.0439 17.1654C36.8347 17.0547 37.4211 16.8304 37.9559 16.2205C38.3754 15.5894 38.3807 14.8944 38.2813 14.1602C38.1782 13.8903 38.0622 13.7124 37.8906 13.4766C37.8906 13.4121 37.8906 13.3477 37.8906 13.2812Z" fill="#FF9900"/>
<path d="M16.6016 16.8945C17.2937 16.9762 17.9834 17.0741 18.672 17.1813C18.806 17.2018 18.9401 17.2215 19.0742 17.2404C19.2702 17.2681 19.4655 17.2985 19.6609 17.3294C19.7767 17.3467 19.8924 17.364 20.0116 17.3818C20.3812 17.503 20.491 17.6489 20.7031 17.9688C20.8119 18.1198 20.8119 18.1198 20.9229 18.2739C21.0938 18.5547 21.0938 18.5547 21.0938 18.8477C21.005 18.8679 20.9163 18.8882 20.8248 18.9091C19.8753 19.1418 19.0357 19.4817 18.1641 19.9219C17.7024 19.5151 17.444 19.0614 17.1631 18.5181C17.1195 18.4375 17.076 18.3569 17.0311 18.2739C16.7864 17.8067 16.6385 17.4219 16.6016 16.8945Z" fill="#9B5D3D"/>
<path d="M11.7184 40.5273C12.0283 40.6648 12.2379 40.8301 12.4814 41.0645C12.8773 41.4242 13.2942 41.7272 13.7387 42.0227C13.8001 42.0637 13.8616 42.1048 13.925 42.1471C14.2852 42.3831 14.6489 42.5884 15.0387 42.7734C14.6791 43.7346 13.9987 44.4971 13.2809 45.2148C12.3422 44.043 11.6738 42.9089 11.7062 41.3635C11.7071 41.2828 11.708 41.202 11.7089 41.1188C11.7112 40.9216 11.7147 40.7245 11.7184 40.5273Z" fill="#A17255"/>
<path d="M29.5898 32.2266C29.9215 32.9341 29.8985 33.707 29.895 34.4727C29.8956 34.5973 29.8956 34.5973 29.8962 34.7244C29.8941 36.067 29.8941 36.067 29.5898 36.5234C29.0541 36.3543 28.5537 36.148 28.0273 35.9375C28.0273 34.874 28.0273 33.8105 28.0273 32.7148C29.248 32.2266 29.248 32.2266 29.5898 32.2266Z" fill="#8D4D32"/>
<path d="M23.9258 40.2344C23.9902 40.2988 24.0547 40.3633 24.1211 40.4297C24.4104 40.5371 24.7007 40.6346 24.9947 40.7282C25.3473 40.8466 25.4705 40.8912 25.6836 41.2109C24.7826 42.2219 24.7826 42.2219 24.3164 42.6758C24.1922 42.7998 24.0681 42.9239 23.9441 43.0481C23.8403 43.1519 23.7366 43.2556 23.6328 43.3594C23.5675 43.3332 23.5021 43.307 23.4348 43.28C23.2201 43.1942 23.0052 43.1089 22.7901 43.0237C22.6621 42.9728 22.5341 42.922 22.406 42.8711C22.3416 42.8457 22.2772 42.8202 22.2109 42.794C21.8966 42.669 21.5882 42.5411 21.2891 42.3828C21.3742 42.3248 21.4593 42.2667 21.5469 42.207C22.4046 41.6132 23.1877 40.9725 23.9258 40.2344Z" fill="#9F7156"/>
<path d="M19.8242 19.2388C20.0375 19.4294 20.2138 19.6092 20.3979 19.8248C20.449 19.8826 20.5001 19.9404 20.5527 20C20.6546 20.1155 20.7559 20.2315 20.8566 20.3481C20.9768 20.4862 21.1002 20.6215 21.2242 20.7563C21.6797 21.2527 21.6797 21.2527 21.6797 21.5826C21.6055 21.6156 21.5314 21.6485 21.455 21.6825C21.3579 21.7261 21.2609 21.7696 21.1609 21.8145C21.0646 21.8576 20.9683 21.9006 20.8691 21.945C20.5188 22.1122 20.3348 22.2327 20.1172 22.5591C19.3258 21.7327 18.643 20.8457 17.9688 19.9224C18.0284 19.8928 18.088 19.8632 18.1494 19.8326C18.2987 19.7576 18.4468 19.6802 18.594 19.6012C18.6757 19.5582 18.7574 19.5151 18.8416 19.4708C18.923 19.4272 19.0044 19.3837 19.0884 19.3388C19.3753 19.223 19.5193 19.1763 19.8242 19.2388Z" fill="#A07255"/>
<path d="M16.5035 10.744C17.0966 10.6946 17.4578 10.8376 17.9683 11.1346C17.9472 11.1872 17.926 11.2398 17.9043 11.2941C17.5681 12.287 17.6487 13.3232 17.6754 14.3573C17.8365 14.3573 17.9976 14.3573 18.1637 14.3573C18.1637 14.3895 18.1637 14.4217 18.1637 14.4549C17.1002 14.5033 17.1002 14.5033 16.0152 14.5526C15.9402 11.8706 15.9402 11.8706 16.5035 10.744Z" fill="#A17255"/>
<path d="M24.0551 24.2969C24.4165 24.6971 24.6939 25.1633 24.9817 25.6172C25.0692 25.7536 25.0692 25.7536 25.1585 25.8928C25.3015 26.116 25.444 26.3394 25.5859 26.5633C25.3564 26.8013 25.1382 26.9591 24.8474 27.1187C24.7707 27.1614 24.6941 27.204 24.6151 27.248C24.414 27.3445 24.414 27.3445 24.2187 27.3445C24.1865 27.409 24.1543 27.4734 24.1211 27.5398C24.0515 27.4372 23.9818 27.3346 23.9101 27.2289C23.8157 27.0904 23.7212 26.9519 23.6267 26.8135C23.5781 26.7421 23.5294 26.6707 23.4793 26.5971C23.163 26.136 22.8333 25.6957 22.4655 25.2739C22.3633 25.0984 22.3633 25.0984 22.3659 24.8966C22.5005 24.6291 22.662 24.5702 22.9309 24.4453C23.0161 24.4047 23.1013 24.364 23.1891 24.3221C23.2711 24.2883 23.353 24.2544 23.4375 24.2195C23.5023 24.1887 23.5671 24.1578 23.6339 24.126C23.8281 24.1219 23.8281 24.1219 24.0551 24.2969Z" fill="#9F7057"/>
<path d="M20.7031 5.56641C21.0089 5.70522 21.2482 5.87262 21.5027 6.09131C21.5705 6.14846 21.6384 6.20561 21.7083 6.2645C21.8871 6.45845 21.9346 6.57835 21.9727 6.83594C21.9217 6.87509 21.8707 6.91424 21.8182 6.95457C21.2899 7.36258 20.7733 7.78229 20.2618 8.21114C20.0545 8.37139 19.8675 8.48865 19.6289 8.59375C19.577 8.53622 19.5252 8.47869 19.4717 8.41942C19.4028 8.34603 19.3338 8.27264 19.2627 8.19702C19.1947 8.12338 19.1267 8.04974 19.0567 7.97386C18.865 7.78997 18.865 7.78997 18.6462 7.82166C18.4475 7.9146 18.3036 8.01509 18.1396 8.1604C18.051 8.23895 17.9624 8.3175 17.8711 8.39844C18.1087 7.85475 18.5442 7.45869 18.9453 7.03125C19.0187 6.95257 19.0921 6.87389 19.1677 6.79283C19.6377 6.3047 20.1228 5.91626 20.7031 5.56641Z" fill="#A07156"/>
<path d="M25.4883 26.6602C25.928 27.0999 25.928 27.0999 26.099 27.4281C26.1361 27.4986 26.1732 27.5692 26.2114 27.6419C26.2487 27.7147 26.286 27.7875 26.3245 27.8625C26.3622 27.9342 26.3999 28.0059 26.4387 28.0798C26.6123 28.4131 26.774 28.7443 26.9131 29.0936C27.0293 29.4173 27.0293 29.4173 27.3438 29.5898C27.2401 29.6063 27.2401 29.6063 27.1343 29.623C26.8309 29.6932 26.5806 29.8034 26.3 29.9377C25.8017 30.1758 25.8017 30.1758 25.5859 30.1758C25.5363 30.0732 25.4867 29.9706 25.4356 29.8649C24.94 28.851 24.94 28.851 24.3195 27.9099C24.2188 27.7344 24.2188 27.7344 24.2188 27.3438C24.6377 27.1182 25.0566 26.8926 25.4883 26.6602Z" fill="#995B3E"/>
<path d="M27.1484 29.6879C27.5871 30.5387 28.0817 31.8432 27.9296 32.8129C27.6733 33.0197 27.6733 33.0197 27.3437 33.1913C27.2349 33.2495 27.1261 33.3077 27.0141 33.3676C26.9295 33.4101 26.8449 33.4527 26.7577 33.4965C26.5528 33.1426 26.4747 32.7681 26.3854 32.3735C26.2392 31.7501 26.0405 31.1829 25.767 30.6015C25.6835 30.3715 25.6835 30.3715 25.7812 30.0785C26.0154 29.9397 26.0154 29.9397 26.3061 29.81C26.4015 29.7662 26.4969 29.7224 26.5952 29.6772C26.8554 29.5903 26.8554 29.5903 27.1484 29.6879Z" fill="#9F7057"/>
<path d="M28.0273 35.9375C28.4138 35.9862 28.7325 36.1206 29.0833 36.2854C29.1785 36.3298 29.2738 36.3743 29.372 36.4201C29.4439 36.4542 29.5158 36.4883 29.5898 36.5234C29.6221 36.459 29.6543 36.3945 29.6875 36.3281C29.623 37.3814 29.2168 38.4374 28.7109 39.3555C28.54 39.2783 28.3691 39.2009 28.1982 39.1235C28.1031 39.0805 28.0079 39.0374 27.9099 38.9931C27.6862 38.89 27.4655 38.7836 27.2461 38.6719C27.2638 38.6209 27.2816 38.5699 27.2999 38.5174C27.5788 37.7008 27.818 36.8917 27.9297 36.0352C27.9619 36.0029 27.9941 35.9707 28.0273 35.9375Z" fill="#9A5C3E"/>
<path d="M22.7783 4.66406C23.2291 4.69412 23.4544 4.797 23.7679 5.12106C24.1442 5.5533 24.2512 5.8675 24.2386 6.44133C24.198 6.85123 24.0491 7.11783 23.7427 7.39043C23.4491 7.61761 23.2057 7.79307 22.8516 7.91113C22.5572 7.53375 22.2885 7.16479 22.0703 6.73926C22.168 6.40356 22.168 6.40356 22.271 6.2506C22.4477 5.87745 22.3779 5.45372 22.364 5.04935C22.3637 4.91906 22.3637 4.91906 22.3633 4.78613C22.4609 4.68848 22.4609 4.68848 22.7783 4.66406Z" fill="#8E4E32"/>
<path d="M17.969 11.2305C18.207 11.3342 18.207 11.3342 18.3653 11.4208C18.56 11.5305 18.56 11.5305 18.7964 11.623C19.1106 11.7915 19.2517 11.8959 19.4338 12.207C19.4965 12.8809 19.3884 13.5999 19.2385 14.2578C19.1408 14.3555 19.1408 14.3555 18.8109 14.365C18.6747 14.3644 18.5385 14.3632 18.4023 14.3616C18.2982 14.3609 18.2982 14.3609 18.1919 14.3602C18.02 14.3591 17.848 14.3573 17.676 14.3555C17.4265 13.3229 17.4522 12.1694 17.969 11.2305Z" fill="#9A5C3E"/>
<path d="M26.5625 35.6456C27.0979 35.6353 27.5163 35.6975 28.0273 35.841C27.895 36.8073 27.7131 37.8056 27.2461 38.673C27.1356 38.6578 27.025 38.6425 26.9112 38.6268C26.7665 38.6076 26.6218 38.5884 26.4771 38.5692C26.4042 38.5591 26.3313 38.549 26.2562 38.5385C25.8617 38.4714 25.8617 38.4714 25.4883 38.5753C25.6171 38.2439 25.7607 37.9249 25.9155 37.6049C26.2076 36.9704 26.3863 36.3199 26.5625 35.6456Z" fill="#A07056"/>
<path d="M27.1484 38.6719C28.1795 38.9542 28.1795 38.9542 28.6133 39.2578C28.5583 39.6427 28.4493 39.9171 28.2227 40.2344C28.1582 40.2344 28.0938 40.2344 28.0273 40.2344C28.0044 40.3032 27.9815 40.3721 27.9579 40.443C27.8086 40.7746 27.6145 41.0126 27.3804 41.2903C27.3006 41.3856 27.2207 41.4809 27.1385 41.5791C27.0773 41.6509 27.0162 41.7228 26.9531 41.7969C26.6015 41.744 26.3749 41.6649 26.0925 41.449C26.0335 41.4045 25.9744 41.3601 25.9136 41.3143C25.8699 41.2802 25.8263 41.2461 25.7812 41.2109C25.9148 40.8444 26.084 40.5403 26.3 40.2161C26.6234 39.7182 26.8958 39.2086 27.1484 38.6719Z" fill="#8D4D32"/>
<path d="M23.2422 21.1924C23.4461 21.3603 23.5944 21.5057 23.761 21.7051C23.8065 21.7573 23.8521 21.8094 23.899 21.8632C25.1953 23.3688 25.1953 23.3688 25.1953 23.7315C24.7441 23.8604 24.293 23.9893 23.8281 24.1221C23.6197 23.8472 23.6197 23.8472 23.407 23.5667C22.8867 22.8857 22.3364 22.2324 21.7773 21.583C21.8096 21.5186 21.8418 21.4541 21.875 21.3877C22.3379 21.2465 22.756 21.1317 23.2422 21.1924Z" fill="#8C4C32"/>
<path d="M25.1953 23.6328C25.6931 24.0783 26.0333 24.6148 26.3977 25.1709C26.4607 25.2657 26.5237 25.3605 26.5886 25.4581C27.0508 26.1575 27.0508 26.1575 27.0508 26.2695C26.9696 26.2895 26.8884 26.3096 26.8047 26.3302C26.6986 26.3565 26.5925 26.3828 26.4832 26.4099C26.3778 26.436 26.2724 26.462 26.1639 26.4889C25.9693 26.5391 25.7766 26.5966 25.5859 26.6602C25.3451 26.3128 25.1053 25.9647 24.8657 25.6165C24.7975 25.5181 24.7293 25.4197 24.659 25.3183C24.5935 25.223 24.528 25.1276 24.4606 25.0294C24.3701 24.8982 24.3701 24.8982 24.2777 24.7644C24.1211 24.5117 24.1211 24.5117 23.9258 24.0234C24.3447 23.8945 24.7637 23.7656 25.1953 23.6328Z" fill="#995B3E"/>
<path d="M23.5352 43.3594C24.2414 43.7256 24.2414 43.7256 24.4141 44.1406C23.9676 44.4492 23.5205 44.7567 23.0726 45.0632C22.8597 45.2093 22.6475 45.3564 22.4354 45.5036C22.3056 45.5926 22.1758 45.6814 22.0459 45.7703C21.9855 45.8126 21.925 45.855 21.8628 45.8986C21.5362 46.1201 21.4033 46.1914 20.9961 46.1914C20.6055 45.6923 20.6055 45.6923 20.6055 45.4102C20.8408 45.2539 21.0766 45.1081 21.3196 44.9646C21.9338 44.5929 22.4879 44.1996 23.0335 43.7317C23.2422 43.5547 23.2422 43.5547 23.5352 43.3594Z" fill="#8D4E32"/>
<path d="M18.457 17.2852C19.0893 17.2648 19.7087 17.2698 20.3125 17.4805C20.5444 17.7002 20.5444 17.7002 20.7031 17.9688C20.8119 18.1199 20.8119 18.1199 20.9229 18.274C21.0938 18.5547 21.0938 18.5547 21.0938 18.8477C20.6426 18.9444 20.1914 19.0411 19.7266 19.1407C19.2328 18.5464 18.804 17.9758 18.457 17.2852Z" fill="#8E4E32"/>
<path d="M11.9141 14.6484C12.2593 14.7008 12.2593 14.7008 12.4023 14.8438C12.4146 15.0879 12.4146 15.0879 12.4023 15.332C12.3047 15.4297 12.3047 15.4297 12.0667 15.448C11.8164 15.4297 11.8164 15.4297 11.6211 15.2344C11.6569 14.9478 11.7055 14.857 11.9141 14.6484Z" fill="#F4DF80"/>
<path d="M18.5547 7.42188C18.6191 7.51855 18.6836 7.61523 18.75 7.71484C18.4922 7.94043 18.2344 8.16602 17.9688 8.39844C17.9688 8.04794 18.0336 7.99721 18.2617 7.74536C18.3161 7.68456 18.3705 7.62376 18.4265 7.56111C18.4688 7.51516 18.5111 7.46922 18.5547 7.42188Z" fill="#B6792E"/>
</svg>
