<svg width="50" height="50" viewBox="0 0 50 50" fill="none" xmlns="http://www.w3.org/2000/svg">
<path d="M5.92159 5.09621C6.27814 5.19596 6.62643 5.31322 6.97533 5.43694C7.126 5.49007 7.126 5.49007 7.27972 5.54428C10.8693 6.83834 14.046 8.60339 16.8438 11.1978C16.9364 11.2836 16.9364 11.2836 17.0309 11.3712C17.3962 11.7159 17.7224 12.074 18.0364 12.466C18.6417 12.3494 19.2424 12.22 19.8421 12.0771C23.5389 11.203 27.2421 11.3274 30.9142 12.2554C30.9918 12.2744 31.0694 12.2934 31.1494 12.3129C31.3346 12.3582 31.5194 12.4053 31.7041 12.4526C31.9724 12.4945 31.9724 12.4945 32.1573 12.3241C32.2355 12.2194 32.2355 12.2194 32.3154 12.1127C32.3747 12.0379 32.4341 11.963 32.4952 11.8859C32.5546 11.8108 32.6139 11.7357 32.6751 11.6584C35.4287 8.69825 39.1421 6.89433 42.8717 5.50004C42.9507 5.47012 43.0298 5.4402 43.1113 5.40938C43.3168 5.3324 43.523 5.25788 43.7298 5.18455C43.8412 5.14472 43.9526 5.1049 44.0674 5.06387C44.4593 4.97947 44.7093 4.97297 45.0927 5.09621C45.4589 5.66561 45.5086 6.35438 45.6038 7.01438C45.6209 7.13084 45.6379 7.2473 45.6555 7.36729C46.3847 12.4875 46.0296 17.6063 43.8806 22.3821C43.5646 23.1232 43.7637 23.7443 43.9585 24.485C44.9455 28.2635 44.478 32.2627 42.5688 35.686C39.9231 40.1082 35.711 43.1251 30.7569 44.4692C25.0309 45.8959 18.8928 45.2146 13.7962 42.1539C13.0153 41.6671 12.2712 41.1346 11.5752 40.5319C11.4963 40.4641 11.4174 40.3963 11.3362 40.3265C11.0749 40.0965 10.8195 39.8614 10.5656 39.6233C10.5147 39.5758 10.4638 39.5283 10.4113 39.4794C7.41799 36.6656 5.65603 32.7663 5.52171 28.6605C5.4959 27.1471 5.72607 25.7068 6.11128 24.2476C6.30208 23.4845 6.41276 22.9215 6.07303 22.1831C6.01558 22.0507 5.95869 21.918 5.90227 21.7852C5.87219 21.7149 5.84211 21.6446 5.81112 21.5722C3.78939 16.6644 3.63063 11.5155 4.50189 6.34555C4.51657 6.25462 4.53124 6.16369 4.54636 6.07001C4.61283 5.71065 4.68195 5.44487 4.87456 5.1317C5.23671 4.92527 5.53555 5.00001 5.92159 5.09621Z" fill="#FEC9E1"/>
<path d="M30.1515 29.1226C31.2366 29.9899 32.2438 31.0327 32.4735 32.4542C32.5758 33.8707 32.3951 34.9592 31.4497 36.0803C31.3568 36.1844 31.3568 36.1844 31.262 36.2905C31.2042 36.3588 31.1464 36.4272 31.0869 36.4976C30.5096 37.1329 29.7973 37.5231 29.0409 37.9058C28.9419 37.9561 28.8429 38.0063 28.7408 38.058C26.7174 38.9876 23.9604 39.068 21.873 38.3096C20.8533 37.9181 19.9525 37.4434 19.1472 36.6943C19.0824 36.6375 19.0176 36.5806 18.9508 36.522C18.1465 35.7786 17.5853 34.7855 17.5035 33.6889C17.454 32.246 17.811 31.1982 18.7505 30.0868C21.5625 27.1186 26.832 26.8527 30.1515 29.1226Z" fill="#FE97CA"/>
<path d="M42.7598 9.13509C43.3643 10.2116 43.2087 11.8294 43.2184 13.0314C43.2197 13.1052 43.2209 13.179 43.2221 13.2551C43.2456 14.9225 42.8492 16.385 42.2783 17.9467C42.2164 18.1221 42.2164 18.1221 42.1533 18.301C41.5886 19.8676 41.5886 19.8676 41.1551 20.54C40.7955 20.6978 40.7955 20.6978 40.4484 20.641C40.2275 20.4767 40.1082 20.3506 39.9437 20.1362C38.3939 18.1754 36.737 16.6953 34.6056 15.3912C34.2901 15.1893 34.2901 15.1893 34.1891 14.9874C34.1536 14.6364 34.1548 14.4405 34.3347 14.1328C34.5847 13.8413 34.8364 13.5525 35.0978 13.2712C35.1535 13.211 35.2092 13.1508 35.2666 13.0889C36.5636 11.7061 40.6974 8.01247 42.7598 9.13509Z" fill="#FF97CB"/>
<path d="M8.14239 9.03297C8.48406 9.12617 8.81021 9.24978 9.13933 9.38001C9.23211 9.41618 9.32488 9.45236 9.42046 9.48964C11.7568 10.4234 14.5752 12.0997 15.8151 14.3837C15.8782 14.7118 15.8782 14.7118 15.8151 14.9894C15.4915 15.3773 15.089 15.6007 14.6604 15.8538C13.9264 16.3005 13.2767 16.7988 12.6392 17.3733C12.4837 17.5131 12.3263 17.6506 12.1684 17.7878C11.3367 18.5198 10.5842 19.3164 9.99115 20.2581C9.75769 20.542 9.75769 20.542 9.39803 20.6619C9.051 20.643 9.051 20.643 8.84211 20.4717C8.63845 20.2287 8.52957 20.0226 8.41174 19.7292C8.37106 19.6285 8.33038 19.5277 8.28847 19.4239C8.24651 19.3161 8.20455 19.2082 8.16132 19.0971C8.11747 18.9859 8.07362 18.8747 8.02844 18.7602C7.43449 17.2262 6.81918 15.6325 6.80945 13.9716C6.80887 13.8936 6.8083 13.8156 6.8077 13.7352C6.80675 13.5702 6.80609 13.4052 6.8057 13.2401C6.80473 12.9938 6.8016 12.7475 6.79841 12.5012C6.79283 11.6863 6.828 10.8964 6.96404 10.0918C6.97582 10.02 6.9876 9.94816 6.99975 9.87415C7.05293 9.59328 7.10598 9.37276 7.27543 9.13969C7.56374 8.94769 7.80475 8.9984 8.14239 9.03297Z" fill="#FF97CB"/>
<path d="M20.8633 37.8047C20.9427 37.8414 20.9427 37.8414 21.0238 37.8788C23.3896 38.9023 26.1815 38.9498 28.5928 38.0381C28.7764 37.9619 28.9597 37.8848 29.1417 37.8047C29.0386 38.6564 28.7901 39.3245 28.1314 39.8999C27.5727 40.2994 26.9653 40.5245 26.3149 40.7324C26.215 40.7657 26.115 40.7991 26.0121 40.8334C24.5478 40.9639 23.176 40.8405 21.9738 39.9248C21.4274 39.4546 20.9739 38.8878 20.8822 38.158C20.876 38.0414 20.8697 37.9248 20.8633 37.8047Z" fill="#FFB2DC"/>
<path d="M32.8768 23.472C33.2568 23.6807 33.5887 23.8864 33.7854 24.2797C33.826 24.7064 33.8332 24.9704 33.6718 25.365C33.3415 25.7613 33.0401 25.9662 32.5297 26.059C32.0527 25.9754 31.7767 25.754 31.4634 25.3902C31.3377 25.0133 31.2959 24.6705 31.3624 24.2797C31.7037 23.6558 32.1778 23.3882 32.8768 23.472Z" fill="#460528"/>
<path d="M17.7342 23.472C18.1142 23.6807 18.4461 23.8864 18.6428 24.2797C18.6834 24.7064 18.6906 24.9704 18.5292 25.365C18.199 25.7613 17.8976 25.9662 17.3871 26.059C16.9101 25.9754 16.6341 25.754 16.3208 25.3902C16.1952 25.0133 16.1533 24.6705 16.2198 24.2797C16.5611 23.6558 17.0352 23.3882 17.7342 23.472Z" fill="#460528"/>
<path d="M28.1164 32.1067C28.4363 32.1763 28.6173 32.3224 28.8388 32.5579C29.0006 32.8813 28.9896 33.2164 28.9398 33.5674C28.7253 33.915 28.6219 34.0436 28.2331 34.1732C27.8091 34.2124 27.5975 34.2195 27.2362 33.9839C26.9446 33.6923 26.9249 33.6095 26.8828 33.1888C26.8892 32.8729 26.9354 32.6675 27.1163 32.4064C27.4798 32.1097 27.6603 32.0763 28.1164 32.1067Z" fill="#DD3D95"/>
<path d="M22.2609 32.1067C22.5808 32.1763 22.7618 32.3224 22.9834 32.5579C23.1451 32.8813 23.1341 33.2164 23.0843 33.5674C22.8699 33.915 22.7665 34.0436 22.3776 34.1732C21.9536 34.2124 21.742 34.2195 21.3807 33.9839C21.0891 33.6923 21.0694 33.6095 21.0273 33.1888C21.0337 32.8729 21.0799 32.6675 21.2608 32.4064C21.6243 32.1097 21.8048 32.0763 22.2609 32.1067Z" fill="#DD3D95"/>
</svg>
