<svg width="50" height="50" viewBox="0 0 50 50" fill="none" xmlns="http://www.w3.org/2000/svg">
<path d="M23.4061 8.30097C24.4514 9.21047 24.4514 9.21047 24.9019 9.66968C25.2111 9.53436 25.4006 9.37995 25.6282 9.13257C28.2282 6.4748 32.1444 5.0301 35.8161 4.95428C39.3199 4.92406 42.3005 6.18032 44.7994 8.62598C47.5453 11.3964 48.8574 15.3388 48.8454 19.1942C48.7676 24.1617 46.6045 28.7547 43.4566 32.5212C43.3802 32.6145 43.3038 32.7078 43.225 32.8039C41.2829 35.1561 39.0448 37.2189 36.6206 39.0642C36.5201 39.1408 36.5201 39.1408 36.4176 39.2189C34.2708 40.846 32.0054 42.2867 29.687 43.6541C29.6091 43.7004 29.5311 43.7468 29.4508 43.7946C27.5029 44.9439 25.1842 45.3843 22.969 44.8221C20.2795 44.0162 17.7912 42.2461 15.5269 40.6267C15.4565 40.5768 15.3861 40.5269 15.3136 40.4754C13.54 39.2168 11.8422 37.8817 10.2485 36.4008C10.0614 36.2269 9.87255 36.0563 9.68163 35.8866C8.46971 34.8039 7.33971 33.6134 6.3472 32.3259C6.28163 32.2417 6.28163 32.2417 6.21474 32.1557C2.81306 27.7726 0.588733 22.5161 1.29349 16.8917C1.73497 13.779 2.99693 10.9656 5.17533 8.69312C5.24922 8.61305 5.32312 8.53299 5.39925 8.4505C10.1245 3.48625 18.3886 4.12393 23.4061 8.30097Z" fill="#FF3232"/>
</svg>
