<svg width="50" height="50" viewBox="0 0 50 50" fill="none" xmlns="http://www.w3.org/2000/svg">
<path d="M5.2995 2.32989C5.42446 2.32925 5.42446 2.32925 5.55194 2.3286C5.83216 2.32729 6.11238 2.32669 6.3926 2.32609C6.5931 2.32532 6.79361 2.32451 6.99411 2.32367C7.65362 2.32111 8.31313 2.31961 8.97265 2.31822C9.19968 2.3177 9.42672 2.31717 9.65375 2.31664C10.5983 2.31453 11.5429 2.3127 12.4874 2.3116C13.8409 2.31002 15.1943 2.30678 16.5478 2.30121C17.4995 2.29743 18.4511 2.29553 19.4029 2.29501C19.9712 2.29465 20.5395 2.29348 21.1078 2.29031C21.6429 2.28737 22.1779 2.28676 22.7129 2.28791C22.9089 2.28793 23.1049 2.28712 23.3008 2.2854C25.1897 2.26975 25.1897 2.26975 25.9767 2.8332C26.1126 2.92082 26.1126 2.92082 26.2513 3.01021C26.9225 3.68142 27.1559 4.44012 27.1676 5.37532C27.1663 5.5859 27.164 5.79647 27.1607 6.00703C27.1599 6.11529 27.159 6.22355 27.1581 6.3351C27.1558 6.60011 27.1524 6.86508 27.1485 7.13008C27.2081 7.1406 27.2676 7.15113 27.3289 7.16197C27.9293 7.27418 28.4939 7.43271 29.07 7.63362C29.2097 7.68143 29.2097 7.68143 29.3523 7.73021C29.5592 7.80103 29.7659 7.87212 29.9726 7.94345C30.5034 8.12659 31.0348 8.30799 31.5662 8.48946C31.7004 8.53533 31.8347 8.58122 31.969 8.62713C33.3312 9.09297 34.6954 9.55282 36.06 10.0117C36.1682 10.0481 36.2764 10.0845 36.3879 10.122C37.3791 10.4553 38.3703 10.7884 39.3615 11.1214C39.5755 11.1933 39.7895 11.2652 40.0034 11.3371C40.1076 11.3721 40.2119 11.4072 40.3192 11.4432C41.1099 11.709 41.9002 11.9757 42.6903 12.2428C43.1583 12.4009 43.6266 12.5578 44.0957 12.7125C44.3869 12.8088 44.6777 12.9065 44.9685 13.0039C45.0641 13.0348 45.1597 13.0657 45.2582 13.0976C46.0092 13.3517 46.7872 13.7089 47.2108 14.4116C47.2771 14.5175 47.2771 14.5175 47.3447 14.6256C47.8655 15.6074 47.7516 16.571 47.4361 17.5994C47.2687 18.1121 47.091 18.6209 46.9117 19.1296C46.8353 19.3517 46.7591 19.5739 46.6831 19.7962C46.5292 20.2451 46.3741 20.6936 46.2179 21.1417C46.0195 21.7106 45.8238 22.2804 45.6296 22.8508C45.6014 22.9337 45.5732 23.0165 45.5441 23.1019C45.4884 23.2656 45.4326 23.4293 45.3769 23.593C45.2939 23.8364 45.2106 24.0798 45.1272 24.3231C44.6761 25.6386 44.2349 26.9572 43.7985 28.2776C43.42 29.4206 43.0314 30.5599 42.6415 31.699C42.1107 33.2504 41.5848 34.8034 41.0623 36.3575C41.027 36.4625 40.9917 36.5675 40.9553 36.6756C40.6658 37.5364 40.3766 38.3972 40.0874 39.2581C39.8692 39.9076 39.6509 40.5572 39.4325 41.2066C39.3329 41.5029 39.2335 41.7993 39.134 42.0956C38.9799 42.5544 38.8245 43.0126 38.6688 43.4708C38.5692 43.7664 38.4717 44.0625 38.3743 44.3588C38.3073 44.5589 38.2402 44.759 38.1731 44.959C38.129 45.0958 38.129 45.0958 38.0839 45.2352C37.8267 45.9945 37.473 46.783 36.7616 47.2119C36.6909 47.2561 36.6203 47.3002 36.5476 47.3458C35.6349 47.8299 34.6759 47.7729 33.7092 47.4823C33.2977 47.3486 32.8903 47.205 32.483 47.0593C32.326 47.0048 32.169 46.9505 32.0119 46.8964C31.6559 46.7735 31.3003 46.6493 30.9449 46.5246C30.1155 46.2343 29.2843 45.9495 28.4528 45.6654C28.3687 45.6367 28.2847 45.6079 28.1981 45.5784C26.8288 45.1108 25.4573 44.6499 24.0848 44.1916C23.7623 44.0838 23.4398 43.976 23.1173 43.8681C23.0104 43.8324 22.9036 43.7966 22.7934 43.7598C22.5769 43.6874 22.3604 43.615 22.1439 43.5425C21.5924 43.3581 21.0407 43.174 20.4889 42.9904C19.942 42.8085 19.3954 42.6257 18.849 42.4424C18.6443 42.3739 18.4394 42.3057 18.2345 42.2378C15.0663 41.1879 15.0663 41.1879 14.4231 39.9994C14.2372 39.5847 14.1523 39.2574 14.1564 38.8025C14.1572 38.6839 14.1572 38.6839 14.1581 38.5628C14.1592 38.4723 14.1592 38.4723 14.1603 38.3801C14.0411 38.3809 13.9219 38.3818 13.7991 38.3827C12.6741 38.3906 11.5492 38.3965 10.4242 38.4003C9.84582 38.4024 9.26751 38.4051 8.68919 38.4095C8.13071 38.4138 7.57225 38.4161 7.01376 38.4171C6.80106 38.4179 6.58837 38.4193 6.37568 38.4214C6.07694 38.4242 5.7783 38.4246 5.47955 38.4244C5.39231 38.4258 5.30507 38.4272 5.21518 38.4287C4.32784 38.4229 3.64749 38.0929 3.00074 37.4951C2.5455 36.9842 2.33197 36.3797 2.33074 35.7024C2.3303 35.5918 2.32987 35.4812 2.32942 35.3672C2.32944 35.2452 2.32946 35.1232 2.32947 34.9974C2.32915 34.8669 2.32879 34.7363 2.32839 34.6058C2.32741 34.2463 2.32704 33.8868 2.32679 33.5273C2.3264 33.1398 2.32547 32.7524 2.32462 32.3649C2.32269 31.4288 2.3217 30.4927 2.32083 29.5566C2.32041 29.1158 2.31988 28.675 2.31937 28.2342C2.31771 26.769 2.31629 25.3038 2.31559 23.8386C2.3154 23.4584 2.31521 23.0781 2.31502 22.6978C2.31497 22.6032 2.31493 22.5087 2.31488 22.4113C2.31407 20.8802 2.31159 19.3492 2.30842 17.8181C2.30519 16.2463 2.30343 14.6746 2.30312 13.1028C2.30291 12.2202 2.30206 11.3377 2.29956 10.4551C2.29744 9.70348 2.29665 8.95183 2.2976 8.20018C2.29805 7.81676 2.29786 7.43337 2.29597 7.04995C2.29425 6.69861 2.29434 6.34732 2.29586 5.99597C2.2962 5.80936 2.29462 5.62274 2.29297 5.43613C2.30043 4.43763 2.54931 3.73702 3.22886 3.00181C3.83658 2.46026 4.50775 2.33039 5.2995 2.32989Z" fill="#ECECEC"/>
<path d="M5.2995 2.32989C5.42446 2.32925 5.42446 2.32925 5.55194 2.3286C5.83216 2.32729 6.11238 2.32669 6.3926 2.32609C6.5931 2.32532 6.79361 2.32451 6.99411 2.32367C7.65362 2.32111 8.31313 2.31961 8.97265 2.31822C9.19968 2.3177 9.42672 2.31717 9.65375 2.31664C10.5983 2.31453 11.5429 2.3127 12.4874 2.3116C13.8409 2.31002 15.1943 2.30678 16.5478 2.30121C17.4995 2.29743 18.4511 2.29553 19.4029 2.29501C19.9712 2.29465 20.5395 2.29348 21.1078 2.29031C21.6429 2.28737 22.1779 2.28676 22.7129 2.28791C22.9089 2.28793 23.1049 2.28712 23.3008 2.2854C25.1897 2.26975 25.1897 2.26975 25.9767 2.8332C26.1126 2.92082 26.1126 2.92082 26.2513 3.01021C26.9225 3.68142 27.1559 4.44012 27.1676 5.37532C27.1663 5.5859 27.164 5.79647 27.1607 6.00703C27.1599 6.11529 27.159 6.22355 27.1581 6.3351C27.1558 6.60011 27.1526 6.86508 27.1485 7.13008C27.0459 7.14443 26.9433 7.15878 26.8376 7.17357C25.6657 7.34892 25.6657 7.34892 24.7071 8.00899C24.3569 8.50579 24.1117 9.00662 23.9167 9.58026C23.8905 9.65504 23.8643 9.72983 23.8372 9.80687C23.7518 10.0516 23.6679 10.2967 23.5841 10.5419C23.5245 10.714 23.4649 10.8861 23.4052 11.0581C22.9104 12.4934 22.4477 13.9387 21.9985 15.3889C21.7861 16.0729 21.5734 16.7473 21.2967 17.4086C21.0567 18.0207 20.8616 18.65 20.656 19.2743C20.5049 19.7329 20.3527 20.1911 20.2004 20.6494C20.1692 20.7435 20.1379 20.8377 20.1057 20.9348C19.789 21.8871 19.4658 22.8371 19.1407 23.7866C19.1127 23.8685 19.0846 23.9505 19.0557 24.035C18.8851 24.5338 18.7142 25.0326 18.5432 25.5313C18.2823 26.2924 18.0216 27.0536 17.7613 27.8149C17.7329 27.8981 17.7044 27.9813 17.6751 28.067C17.2508 29.3082 16.833 30.5515 16.4202 31.7966C16.1516 32.6067 15.8803 33.4157 15.6018 34.2224C15.5756 34.2986 15.5493 34.3748 15.5222 34.4532C15.3773 34.8732 15.2318 35.2929 15.085 35.7122C14.8704 36.3376 14.67 36.9643 14.4856 37.5991C14.4635 37.6748 14.4414 37.7504 14.4186 37.8283C14.3649 38.0122 14.3114 38.1961 14.2579 38.3801C12.9998 38.3891 11.7417 38.3961 10.4836 38.4003C9.89937 38.4024 9.31514 38.4051 8.73091 38.4095C8.16674 38.4138 7.60258 38.4161 7.03839 38.4171C6.82351 38.4179 6.60863 38.4193 6.39376 38.4214C6.09199 38.4242 5.7903 38.4246 5.48852 38.4244C5.40036 38.4258 5.3122 38.4272 5.22138 38.4287C4.3308 38.4229 3.65011 38.0953 3.00074 37.4951C2.5455 36.9842 2.33197 36.3797 2.33074 35.7024C2.3303 35.5918 2.32987 35.4812 2.32942 35.3672C2.32944 35.2452 2.32946 35.1232 2.32947 34.9974C2.32915 34.8669 2.32879 34.7363 2.32839 34.6058C2.32741 34.2463 2.32704 33.8868 2.32679 33.5273C2.3264 33.1398 2.32547 32.7524 2.32462 32.3649C2.32269 31.4288 2.3217 30.4927 2.32083 29.5566C2.32041 29.1158 2.31988 28.675 2.31937 28.2342C2.31771 26.769 2.31629 25.3038 2.31559 23.8386C2.3154 23.4584 2.31521 23.0781 2.31502 22.6978C2.31497 22.6032 2.31493 22.5087 2.31488 22.4113C2.31407 20.8802 2.31159 19.3492 2.30842 17.8181C2.30519 16.2463 2.30343 14.6746 2.30312 13.1028C2.30291 12.2202 2.30206 11.3377 2.29956 10.4551C2.29744 9.70348 2.29665 8.95183 2.2976 8.20018C2.29805 7.81676 2.29786 7.43337 2.29597 7.04995C2.29425 6.69861 2.29434 6.34732 2.29586 5.99597C2.2962 5.80936 2.29462 5.62274 2.29297 5.43613C2.30043 4.43763 2.54931 3.73702 3.22886 3.00181C3.83658 2.46026 4.50775 2.33039 5.2995 2.32989Z" fill="#DBDADA"/>
<path d="M12.8483 14.2075C13.8789 14.8052 14.3244 15.7201 14.7465 16.7954C14.7679 16.727 14.7893 16.6585 14.8113 16.5879C15.1856 15.4681 15.8031 14.7 16.8034 14.0672C17.5747 13.7872 18.5146 13.8709 19.2692 14.1526C20.1608 14.5786 20.9604 15.3072 21.3871 16.2095C21.5783 16.8123 21.3538 17.3019 21.1552 17.8735C21.1198 17.9786 21.0845 18.0836 21.048 18.1919C20.9344 18.5284 20.819 18.8643 20.7035 19.2002C20.6288 19.4209 20.5541 19.6417 20.4796 19.8625C20.3332 20.2952 20.1855 20.7275 20.0364 21.1594C19.8993 21.5565 19.7651 21.9544 19.6338 22.3535C19.5751 22.529 19.5164 22.7044 19.4577 22.8799C19.4324 22.9586 19.4072 23.0373 19.3812 23.1185C19.1265 23.8698 18.7186 24.25 18.0668 24.7056C17.9388 24.8011 17.8111 24.8969 17.6834 24.9928C16.998 25.5 16.289 25.9672 15.5522 26.3963C15.4882 26.4345 15.4242 26.4727 15.3583 26.5121C15.0987 26.6579 14.8991 26.7569 14.5981 26.7541C14.2714 26.6254 13.9762 26.4581 13.6784 26.2742C13.5823 26.2154 13.5823 26.2154 13.4842 26.1555C11.0323 24.6364 8.27514 22.5187 7.55656 19.5725C7.38843 18.0314 7.64924 16.6424 8.57623 15.3825C9.62515 14.1111 11.2935 13.4851 12.8483 14.2075Z" fill="#F24624"/>
<path d="M33.3006 21.0921C34.7863 22.4486 36.1239 24.5813 36.5233 26.5609C36.5454 26.6596 36.5676 26.7583 36.5904 26.86C36.7139 28.0206 36.5201 29.11 35.8156 30.0704C35.162 30.839 34.4727 31.3697 33.4505 31.4803C32.7736 31.5034 32.18 31.4942 31.6405 31.0531C31.3623 30.7735 31.1062 30.4816 30.8592 30.1742C30.7608 30.4608 30.6634 30.7477 30.5662 31.0348C30.5383 31.1161 30.5103 31.1975 30.4815 31.2814C30.4551 31.3597 30.4287 31.4381 30.4014 31.5188C30.3646 31.627 30.3646 31.627 30.3271 31.7374C30.2603 31.9454 30.2603 31.9454 30.2733 32.2249C30.3393 32.2466 30.4053 32.2682 30.4733 32.2905C30.7732 32.3895 31.0725 32.4903 31.3719 32.5912C31.4758 32.6251 31.5796 32.6591 31.6866 32.6942C31.7867 32.7281 31.8868 32.7621 31.9899 32.7972C32.0819 32.8278 32.174 32.8585 32.2688 32.8901C32.5492 33.02 32.7112 33.1618 32.91 33.3968C32.9827 33.6958 32.9649 33.9739 32.91 34.2757C32.7348 34.556 32.6187 34.7143 32.324 34.8617C31.7008 34.9036 31.2205 34.7903 30.6345 34.5866C30.549 34.5579 30.4635 34.5292 30.3753 34.4996C30.1029 34.4077 29.831 34.3143 29.5592 34.2208C29.3809 34.1606 29.2025 34.1005 29.0241 34.0406C28.5829 33.8916 28.1429 33.7395 27.7033 33.5857C27.527 33.5243 27.3505 33.4637 27.1738 33.4037C26.9172 33.3165 26.6613 33.2274 26.4055 33.1378C26.29 33.0993 26.29 33.0993 26.1721 33.0599C25.7199 32.8986 25.4505 32.7514 25.1951 32.3226C25.131 31.8736 25.1258 31.5793 25.3843 31.1996C25.7436 30.9063 25.8807 30.916 26.3231 30.9285C26.7141 30.9725 27.0593 31.1033 27.4229 31.2484C27.5658 31.3039 27.7088 31.3588 27.8521 31.4132C27.914 31.4377 27.9759 31.4623 28.0397 31.4876C28.2532 31.5597 28.2532 31.5597 28.6131 31.5414C28.8387 30.8968 29.0643 30.2523 29.2967 29.5882C29.1033 29.6849 29.1033 29.6849 28.9061 29.7835C28.0818 29.8844 27.3638 29.87 26.668 29.3761C25.9747 28.7673 25.4547 27.8291 25.3672 26.8996C25.3348 25.6025 25.8268 24.5244 26.6997 23.5694C27.7652 22.5446 31.8291 20.0197 33.3006 21.0921Z" fill="#2D3743"/>
<path d="M28.5161 9.57081C29.2526 10.2529 29.7903 11.2951 29.9382 12.2808C29.8357 12.8728 29.5754 13.3882 29.102 13.77C28.707 13.9017 28.3431 13.9234 27.9301 13.8677C27.631 13.6724 27.631 13.6724 27.4418 13.4771C27.3452 13.7349 27.2485 13.9927 27.1489 14.2583C27.2253 14.2783 27.3017 14.2983 27.3804 14.319C27.4792 14.3453 27.5781 14.3716 27.6799 14.3987C27.7784 14.4247 27.877 14.4508 27.9786 14.4777C28.2231 14.5513 28.2231 14.5513 28.3207 14.6489C28.3391 14.887 28.3391 14.887 28.3207 15.1372C28.2563 15.2017 28.1918 15.2661 28.1254 15.3325C27.4892 15.3032 26.9324 15.1149 26.3371 14.8992C26.2499 14.8686 26.1627 14.8381 26.0729 14.8067C25.715 14.6793 25.4161 14.568 25.0981 14.356C25.0676 14.1118 25.0676 14.1118 25.0981 13.8677C25.1625 13.8032 25.227 13.7388 25.2934 13.6724C25.491 13.6926 25.491 13.6926 25.7206 13.7517C25.8336 13.7799 25.8336 13.7799 25.9488 13.8086C26.0225 13.8281 26.0963 13.8476 26.1723 13.8677C26.3025 13.9003 26.4327 13.9329 26.5629 13.9653C26.577 13.8727 26.5911 13.78 26.6057 13.6846C26.6606 13.3794 26.6606 13.3794 26.7582 13.1841C26.583 13.1992 26.583 13.1992 26.4042 13.2146C26.078 13.2152 25.9019 13.1703 25.6474 12.9644C25.3211 12.6225 25.1675 12.3649 25.153 11.8901C25.1698 11.288 25.4287 10.8901 25.8561 10.4798C26.5682 9.90346 27.5849 9.44845 28.5161 9.57081Z" fill="#2F3945"/>
<path d="M35.0834 39.875C35.6624 40.0198 35.9373 40.5615 36.2308 41.0453C36.5945 41.6978 36.8725 42.3061 36.7191 43.0671C36.5537 43.5285 36.3053 43.8198 35.9379 44.1414C35.5766 44.2618 35.2396 44.2829 34.8636 44.239C34.6195 44.1047 34.6195 44.1047 34.473 43.946C34.473 43.8816 34.473 43.8171 34.473 43.7507C34.4086 43.7507 34.3441 43.7507 34.2777 43.7507C34.2133 44.0408 34.1488 44.3308 34.0824 44.6296C34.2214 44.6558 34.3604 44.682 34.5035 44.709C34.844 44.7731 35.0392 44.8382 35.2543 45.1179C35.2279 45.4083 35.1708 45.4943 34.9613 45.7039C34.3275 45.6767 33.7559 45.4358 33.1669 45.2156C33.0683 45.1796 32.9697 45.1436 32.8682 45.1065C32.1436 44.8393 32.1436 44.8393 32.0316 44.7273C32.0194 44.4343 32.0194 44.4343 32.0316 44.1414C32.08 44.093 32.08 44.093 32.1293 44.0437C32.5584 44.0866 32.9773 44.1468 33.3988 44.239C33.4633 44.0134 33.5277 43.7878 33.5941 43.5554C33.4159 43.5705 33.4159 43.5705 33.234 43.5859C32.8833 43.5866 32.8257 43.5655 32.5321 43.3357C32.172 42.8697 32.077 42.539 32.0942 41.9529C32.1703 41.404 32.4274 41.0732 32.8514 40.7287C33.5631 40.242 34.2528 40.0507 35.0834 39.875Z" fill="#2E3844"/>
<path d="M5.76157 4.2969C6.05454 4.52884 6.05454 4.52884 6.24986 4.78519C6.24986 4.84964 6.24986 4.91409 6.24986 4.9805C6.31431 4.9805 6.37876 4.9805 6.44517 4.9805C6.47135 4.90396 6.49754 4.82742 6.52451 4.74857C6.64048 4.49222 6.64048 4.49222 6.93345 4.2969C7.38739 4.24481 7.6769 4.22348 8.04429 4.51053C8.34689 4.83474 8.48373 5.02317 8.50549 5.46878C8.47265 6.22532 8.11735 6.74358 7.57699 7.2533C7.15976 7.60193 6.79458 7.90159 6.24986 8.00784C5.99618 7.89455 5.99618 7.89455 5.75547 7.70877C5.67151 7.64444 5.58754 7.58012 5.50103 7.51384C4.34925 6.55499 4.34925 6.55499 4.27346 5.83308C4.25694 5.26704 4.29868 4.93642 4.68736 4.49222C5.04576 4.25328 5.34513 4.21507 5.76157 4.2969Z" fill="#F24826"/>
</svg>
