<svg width="50" height="50" viewBox="0 0 50 50" fill="none" xmlns="http://www.w3.org/2000/svg">
<path d="M24.9641 4.00519C25.0556 4.0035 25.1471 4.00181 25.2414 4.00007C26.509 3.99419 27.782 4.37845 28.7182 5.2684C29.1725 5.78309 29.3537 6.22068 29.3474 6.90863C29.3466 7.01287 29.3459 7.11712 29.3451 7.22452C29.3437 7.34444 29.3437 7.34444 29.3422 7.46679C29.7352 7.59881 30.1288 7.72868 30.5234 7.85562C31.8573 8.28529 33.1658 8.72264 34.4219 9.35121C34.5262 9.40248 34.5262 9.40248 34.6327 9.45479C39.2891 11.7541 42.9754 15.6629 44.6753 20.6077C45.4959 23.0436 45.9813 25.5629 45.9907 28.1391C45.9911 28.2414 45.9916 28.3438 45.9921 28.4492C45.9928 28.6649 45.9934 28.8805 45.9937 29.0962C45.9942 29.4212 45.997 29.7462 45.9996 30.0712C46.0044 31.2187 45.9666 32.315 45.7282 33.4391C45.7115 33.5195 45.6948 33.5999 45.6775 33.6827C45.6359 33.8678 45.5896 34.05 45.5388 34.2328C45.5214 34.2964 45.5041 34.3601 45.4862 34.4257C44.5976 37.5972 42.6941 40.2478 39.8754 41.9702C38.611 42.6582 37.2789 43.1147 35.8764 43.4197C35.3122 43.5474 34.8362 43.7238 34.3297 43.9997C31.8969 45.3241 28.8455 45.9786 26.0922 45.9912C26.0106 45.9917 25.9289 45.9921 25.8448 45.9926C25.6724 45.9934 25.5001 45.9939 25.3278 45.9942C25.0709 45.995 24.814 45.9976 24.5572 46.0002C23.4027 46.0062 22.2889 45.9107 21.1492 45.7288C21.0528 45.7138 20.9563 45.6988 20.8569 45.6834C18.999 45.3724 17.2041 44.769 15.5302 43.9125C14.8853 43.594 14.2413 43.4324 13.541 43.2812C11.3022 42.7901 9.3692 41.6316 7.71271 40.0755C7.64032 40.011 7.64032 40.011 7.56645 39.9452C5.52675 38.0502 4.52909 35.1292 4.10779 32.4559C4.08665 32.3372 4.08665 32.3372 4.06509 32.2162C4.00113 31.7623 4.01088 31.3042 4.00922 30.8467C4.00875 30.7455 4.00829 30.6442 4.00781 30.5399C4.00703 30.325 4.0065 30.1102 4.00618 29.8953C4.0054 29.5746 4.00286 29.2539 4.00026 28.9331C3.9889 26.2472 4.34951 23.6277 5.17288 21.0674C5.20752 20.9596 5.20752 20.9596 5.24285 20.8497C5.78883 19.1861 6.54147 17.5869 7.54885 16.1515C7.60335 16.0732 7.65785 15.9948 7.71399 15.914C8.35877 15.0078 9.08111 14.1742 9.84289 13.3659C9.8994 13.3059 9.9559 13.2459 10.0141 13.1841C10.4443 12.7407 10.9156 12.356 11.3996 11.973C11.4787 11.9089 11.5578 11.8448 11.6393 11.7788C14.1158 9.812 17.0204 8.56797 20.0385 7.69642C20.2499 7.63005 20.453 7.55174 20.6577 7.46679C20.6538 7.39159 20.65 7.31639 20.6461 7.23892C20.6282 6.62939 20.6225 6.16711 20.9854 5.6643C21.0182 5.61593 21.0511 5.56756 21.0849 5.51772C21.9873 4.33013 23.5633 4.0115 24.9641 4.00519Z" fill="#EBEFF0"/>
<path d="M12.5463 20.6573C15.6821 20.5628 18.5607 20.9614 20.9649 23.1728C22.7696 25.0183 23.5403 27.626 23.5249 30.1613C23.4278 30.1793 23.3306 30.1972 23.2305 30.2157C21.4055 30.5672 19.4204 31.1954 18.3173 32.7985C17.8573 33.5127 17.7941 34.1573 17.8718 34.9953C18.1023 36.007 18.8402 36.7673 19.6896 37.315C22.2546 38.7751 25.2232 39.0655 28.0651 38.3013C29.58 37.8555 31.0769 37.1065 31.8747 35.6824C32.1797 35.0121 32.2486 34.2743 32.077 33.5541C31.9997 33.3648 31.9092 33.2017 31.7999 33.0289C31.734 32.9206 31.734 32.9206 31.6667 32.81C30.6893 31.3356 28.8532 30.6379 27.1801 30.2917C26.9453 30.2455 26.7101 30.2024 26.4744 30.1613C26.5275 27.7896 27.0803 25.4253 28.6865 23.6068C28.7498 23.5274 28.813 23.448 28.8782 23.3661C29.7641 22.3029 31.1276 21.5963 32.4143 21.1591C32.4803 21.1366 32.5463 21.1142 32.6142 21.091C33.6655 20.7559 34.7292 20.6071 35.8295 20.5982C36.0109 20.5958 36.1917 20.5881 36.3729 20.5805C36.9583 20.5675 37.3823 20.5956 37.8428 21.0029C37.9621 21.1304 38.0785 21.2607 38.1904 21.3947C38.2605 21.4711 38.3306 21.5476 38.4029 21.6264C38.5783 21.8492 38.7535 22.0722 38.9278 22.2959C38.9917 22.373 39.0556 22.4501 39.1214 22.5295C40.7532 24.544 41.7145 27.0455 42.123 29.5878C42.14 29.6899 42.14 29.6899 42.1574 29.7942C42.6733 32.9678 42.3913 36.1286 40.5305 38.8307C40.4075 39.0008 40.283 39.1699 40.1567 39.3376C40.1024 39.4103 40.0481 39.483 39.9922 39.5578C37.4901 42.7545 33.7439 44.7135 29.8233 45.5491C29.7532 45.564 29.6832 45.579 29.611 45.5945C28.1634 45.8812 26.7217 46.0154 25.2471 46.0061C24.9997 46.0048 24.7523 46.0061 24.5049 46.0077C23.3696 46.0089 22.2698 45.9053 21.149 45.7283C21.0041 45.7058 21.0041 45.7058 20.8564 45.6829C17.2871 45.0843 13.9449 43.4698 11.3174 40.9763C11.2786 40.9398 11.2399 40.9032 11.1999 40.8656C9.83844 39.5745 8.83623 38.0772 8.20402 36.3062C8.17307 36.2259 8.14213 36.1456 8.11025 36.0629C6.83992 32.5992 7.78952 28.3285 9.26911 25.0816C10.0054 23.5368 11.1074 21.9731 12.3824 20.8211C12.4365 20.8211 12.4906 20.8211 12.5463 20.8211C12.5463 20.7671 12.5463 20.713 12.5463 20.6573Z" fill="#35495E"/>
<path d="M37.0075 20.307C37.1038 20.3949 37.1988 20.4844 37.2892 20.5784C37.2892 20.6054 37.2892 20.6325 37.2892 20.6603C37.2158 20.6611 37.1425 20.6619 37.067 20.6626C34.2355 20.6997 31.6544 21.0409 29.4239 22.9544C29.3433 23.0187 29.2627 23.083 29.1797 23.1493C27.1877 24.8785 26.7034 27.6859 26.4744 30.1644C26.5809 30.1694 26.6873 30.1745 26.797 30.1797C28.4573 30.3469 30.4102 31.1294 31.4853 32.4261C32.1316 33.2767 32.3216 33.9161 32.2095 34.9983C31.9738 36.0248 31.1713 36.848 30.3065 37.4086C27.8109 38.8322 24.8302 39.161 22.0553 38.4292C20.4536 37.9755 18.9245 37.1634 18.0571 35.697C17.7268 35.0354 17.6689 34.2769 17.8404 33.5572C17.9178 33.3677 18.0078 33.2047 18.1175 33.032C18.1634 32.9588 18.2092 32.8856 18.2564 32.8102C19.0975 31.5655 20.4274 30.8799 21.8351 30.4511C21.9003 30.4312 21.9654 30.4113 22.0325 30.3908C22.5263 30.2509 23.0135 30.1967 23.5249 30.1644C23.2201 27.4061 22.6671 24.6391 20.4218 22.7649C18.179 21.089 15.6156 20.6702 12.874 20.5784C13.0638 20.196 13.3316 19.9801 13.6728 19.7386C13.7275 19.6994 13.7822 19.6602 13.8386 19.6199C15.8095 18.227 18.0212 17.2716 20.3789 16.7695C20.5532 16.7324 20.7269 16.6932 20.9006 16.6537C26.2873 15.5164 32.777 16.6225 37.0075 20.307Z" fill="#EBEFF0"/>
<path d="M24.9636 4.00519C25.0551 4.0035 25.1466 4.00181 25.2409 4.00007C26.5085 3.99419 27.7815 4.37845 28.7177 5.2684C29.172 5.78309 29.3532 6.22068 29.3469 6.90863C29.3461 7.01287 29.3454 7.11712 29.3446 7.22452C29.3432 7.34444 29.3432 7.34444 29.3417 7.46679C29.7347 7.59881 30.1283 7.72868 30.5229 7.85562C31.8568 8.28529 33.1653 8.72264 34.4214 9.35121C34.5257 9.40248 34.5257 9.40248 34.6322 9.45479C39.2886 11.7541 42.9749 15.6629 44.6748 20.6077C45.5081 23.0812 45.9963 25.6357 45.9786 28.2518C45.9783 28.3571 45.9779 28.4625 45.9775 28.571C45.9766 28.8282 45.9752 29.0853 45.9735 29.3425C45.9465 29.3425 45.9194 29.3425 45.8916 29.3425C45.8768 29.2375 45.8768 29.2375 45.8618 29.1304C45.4969 26.5724 44.9182 24.178 43.6795 21.8867C43.6533 21.8377 43.6271 21.7886 43.6002 21.7381C42.969 20.5625 42.1834 19.5265 41.3035 18.5275C41.2676 18.4864 41.2316 18.4453 41.1946 18.4029C40.7668 17.9151 40.3314 17.4628 39.8288 17.0528C39.7878 17.0185 39.7467 16.9842 39.7045 16.9489C36.4127 14.2008 32.3798 12.5435 28.1947 11.7272C28.1139 11.7109 28.0332 11.6946 27.9499 11.6778C25.8733 11.2663 23.8731 11.2978 21.8042 11.7272C21.6489 11.7573 21.4935 11.7873 21.3382 11.8172C17.781 12.5241 14.2147 13.9454 11.3171 16.1515C11.2674 16.1892 11.2176 16.2268 11.1663 16.2656C10.6606 16.6496 10.1615 17.0326 9.72462 17.4957C9.58391 17.6392 9.4339 17.7644 9.27912 17.8926C8.94014 18.1852 8.66756 18.5163 8.39006 18.8668C8.27217 19.0151 8.15168 19.1613 8.02777 19.3046C7.42869 20.001 6.95345 20.7719 6.48326 21.559C6.45166 21.6118 6.42005 21.6646 6.38749 21.719C5.02476 24.0343 4.44191 26.7063 4.10729 29.3425C4.08026 29.3425 4.05322 29.3425 4.02536 29.3425C3.96243 26.5109 4.3034 23.7695 5.17238 21.0674C5.20702 20.9596 5.20702 20.9596 5.24235 20.8497C5.78833 19.1861 6.54097 17.5869 7.54835 16.1515C7.60285 16.0732 7.65735 15.9948 7.71349 15.914C8.35827 15.0078 9.08061 14.1742 9.84239 13.3659C9.8989 13.3059 9.9554 13.2459 10.0136 13.1841C10.4438 12.7407 10.9151 12.356 11.3991 11.973C11.4782 11.9089 11.5573 11.8448 11.6388 11.7788C14.1153 9.812 17.0199 8.56797 20.038 7.69642C20.2494 7.63005 20.4525 7.55174 20.6572 7.46679C20.6533 7.39159 20.6495 7.31639 20.6456 7.23892C20.6277 6.62939 20.622 6.16711 20.9849 5.6643C21.0177 5.61593 21.0506 5.56756 21.0844 5.51772C21.9869 4.33013 23.5628 4.0115 24.9636 4.00519Z" fill="#E64C3C"/>
<path d="M23.7454 14.9111C23.8351 14.9108 23.9248 14.9105 24.0172 14.9102C24.2063 14.9098 24.3955 14.9096 24.5846 14.9096C24.8688 14.9095 25.153 14.908 25.4372 14.9064C26.8123 14.9028 28.1663 14.9559 29.5115 15.2628C29.5884 15.28 29.6653 15.2971 29.7445 15.3148C34.2694 16.3639 38.4654 18.6984 41.0095 22.6853C42.7698 25.5134 43.8 28.745 43.7836 32.0827C43.7827 32.2941 43.7836 32.5054 43.7846 32.7167C43.7857 33.8518 43.7286 34.9692 43.3781 36.058C43.3567 36.1264 43.3353 36.1948 43.3133 36.2653C42.6985 38.1833 41.7823 39.8022 40.4117 41.2808C40.23 41.4752 40.23 41.4752 40.0494 41.7196C39.8078 41.9862 39.5662 42.1345 39.2458 42.2848C39.1607 42.3258 39.1607 42.3258 39.0739 42.3676C38.146 42.804 37.1855 43.1543 36.1888 43.396C36.1023 43.4172 36.1023 43.4172 36.0141 43.4388C35.7248 43.5037 35.524 43.5213 35.2415 43.437C35.2806 43.4139 35.3197 43.3909 35.3599 43.3672C36.6089 42.6283 37.7135 41.8168 38.7645 40.8151C38.8334 40.7515 38.9024 40.6878 38.9734 40.6222C40.2389 39.4172 41.116 37.9386 41.7139 36.3089C41.7451 36.2302 41.7763 36.1516 41.8084 36.0705C43.0933 32.6228 42.1196 28.3119 40.6489 25.0843C40.1656 24.0704 39.5512 23.1703 38.8464 22.2986C38.8056 22.2479 38.7648 22.1972 38.7228 22.145C36.7737 19.7432 34.0269 18.0699 31.063 17.2189C31.0006 17.2006 30.9381 17.1822 30.8738 17.1633C29.9098 16.8832 28.9453 16.6896 27.9497 16.5634C27.8837 16.5549 27.8176 16.5463 27.7496 16.5375C22.8892 15.9307 17.6504 16.8292 13.6939 19.8407C13.6235 19.8918 13.5532 19.9429 13.4807 19.9956C13.1713 20.2042 13.1713 20.2042 12.9565 20.4962C13.4432 20.5232 13.9298 20.5502 14.4313 20.5781C14.4313 20.6051 14.4313 20.6322 14.4313 20.66C13.8094 20.66 13.1876 20.66 12.5469 20.66C12.5469 20.7141 12.5469 20.7682 12.5469 20.8239C12.4352 20.9279 12.4352 20.9279 12.2755 21.0543C10.1993 22.8308 8.83702 25.672 8.20458 28.2796C8.18314 28.3629 8.1617 28.4461 8.13961 28.5318C7.46476 31.3683 7.39337 34.4413 8.61423 37.1282C8.63781 37.1806 8.66138 37.2329 8.68568 37.2869C9.91818 39.9815 12.2107 42.0096 14.759 43.437C14.3402 43.5743 13.979 43.4293 13.5659 43.3192C13.4823 43.2971 13.3986 43.275 13.3125 43.2523C12.5619 43.046 11.8547 42.7711 11.1489 42.4448C11.011 42.3814 10.8716 42.3214 10.7319 42.2621C10.3043 42.0711 10.0338 41.8542 9.74205 41.4882C9.58521 41.2915 9.4163 41.1112 9.24406 40.9278C7.90178 39.4285 7.14176 37.7301 6.56598 35.8173C6.53641 35.7223 6.50683 35.6272 6.47637 35.5293C6.22944 34.5799 6.20218 33.6647 6.20241 32.6886C6.20233 32.6111 6.20224 32.5336 6.20215 32.4538C6.20542 30.4387 6.44187 28.4621 7.13949 26.5591C7.16432 26.4912 7.18915 26.4233 7.21474 26.3533C7.87686 24.5732 8.73176 22.8824 9.92511 21.3974C9.97941 21.3298 9.97941 21.3298 10.0348 21.2608C13.0325 17.5622 17.6782 15.4823 22.3496 14.9618C22.815 14.9172 23.278 14.9116 23.7454 14.9111Z" fill="#D0D3D0"/>
<path d="M24.8413 30.0554C24.9013 30.0556 24.9612 30.0559 25.0229 30.0561C27.2784 30.0679 29.6386 30.5776 31.3087 32.2113C31.9952 33.0094 32.2705 33.6289 32.2422 34.6849C32.1324 35.7455 31.4812 36.4651 30.7016 37.1323C28.6502 38.6666 25.8885 38.9649 23.4178 38.7094C21.6201 38.4418 19.6315 37.7635 18.4457 36.3078C17.876 35.481 17.7077 34.7652 17.7902 33.768C17.8569 33.4881 17.9641 33.2727 18.118 33.0306C18.1638 32.9574 18.2096 32.8842 18.2568 32.8088C19.2581 31.3272 20.9404 30.6451 22.6241 30.2449C22.6912 30.2289 22.7584 30.2129 22.8275 30.1965C23.4952 30.0561 24.1622 30.0518 24.8413 30.0554Z" fill="#EFC319"/>
<path d="M18.036 33.1133C18.063 33.1674 18.09 33.2214 18.1179 33.2771C18.2537 33.3336 18.3905 33.3877 18.5275 33.441C18.6605 33.5145 18.7934 33.5882 18.9254 33.6635C21.5512 35.1464 25.199 35.432 28.1133 34.7519C28.1822 34.7361 28.2511 34.7202 28.3221 34.7039C29.4993 34.4229 30.7482 34.0243 31.7183 33.2771C31.7723 33.2771 31.8264 33.2771 31.8821 33.2771C31.9092 33.2231 31.9362 33.169 31.9641 33.1133C32.2973 33.7936 32.3182 34.5259 32.1494 35.2611C31.7094 36.4787 30.6247 37.2933 29.4959 37.8346C26.9521 38.9963 23.9524 39.1276 21.3132 38.193C19.9177 37.6503 18.6408 36.865 17.954 35.4893C17.6923 34.8403 17.6642 34.0235 17.9131 33.3642C17.9536 33.2814 17.9942 33.1986 18.036 33.1133Z" fill="#F09B1F"/>
<path d="M35.702 27.4169C36.5182 27.9001 36.9908 28.5286 37.2894 29.4242C37.3525 30.4013 37.2285 31.1696 36.6339 31.9641C36.0848 32.5586 35.4602 32.9066 34.6513 32.9668C33.6395 32.9883 33.0427 32.7781 32.308 32.0768C32.0657 31.8152 31.8744 31.547 31.7181 31.2267C31.6882 31.1667 31.6584 31.1067 31.6276 31.0449C31.4247 30.4142 31.4538 29.4642 31.7104 28.8488C32.1043 28.1371 32.6641 27.5975 33.4198 27.2809C34.1534 27.0902 35.0118 27.0929 35.702 27.4169Z" fill="#E9EDEE"/>
<path d="M16.8785 27.439C17.5709 27.8448 18.1042 28.3469 18.3775 29.1231C18.5704 29.9758 18.5532 30.8225 18.1049 31.5897C17.5846 32.3236 16.9579 32.7713 16.0701 32.9489C15.0985 33.0265 14.3737 32.8236 13.6122 32.2115C13.0577 31.6866 12.7481 31.0717 12.6914 30.3108C12.6701 29.3087 12.8757 28.703 13.5699 27.9732C14.4637 27.1668 15.7676 26.8967 16.8785 27.439Z" fill="#E9EDEE"/>
<path d="M24.9642 4.00519C25.0557 4.0035 25.1472 4.00181 25.2415 4.00007C26.5091 3.99419 27.7821 4.37845 28.7182 5.2684C29.1725 5.78309 29.3537 6.22068 29.3474 6.90863C29.3467 7.01287 29.3459 7.11712 29.3452 7.22452C29.3442 7.30447 29.3433 7.38442 29.3423 7.46679C29.0116 7.55415 28.7687 7.53643 28.4347 7.46999C28.3395 7.45161 28.2444 7.43324 28.1463 7.4143C28.0476 7.39445 27.9488 7.37459 27.8471 7.35413C25.7625 6.94308 23.7054 6.93418 21.6345 7.44047C21.3312 7.51404 21.0525 7.57613 20.7396 7.54872C20.5841 7.39319 20.6363 7.13664 20.6321 6.92911C20.6368 6.41939 20.6872 6.07749 20.9854 5.6643C21.0183 5.61593 21.0511 5.56756 21.085 5.51772C21.9874 4.33013 23.5634 4.0115 24.9642 4.00519Z" fill="#ECEFF0"/>
<path d="M18.5273 25.1606C19.1989 25.6844 19.1989 25.6844 19.3466 25.9799C19.3699 26.2203 19.3868 26.4019 19.3466 26.6354C19.1299 26.898 19.0028 26.956 18.6649 26.9925C18.298 26.9567 18.1658 26.8512 17.8872 26.6149C16.9874 25.8977 16.1357 25.7606 15.0043 25.8161C14.8517 25.8428 14.6996 25.8731 14.5486 25.9082C14.3043 25.9643 14.1947 25.982 13.9444 25.9287C13.7429 25.7944 13.6409 25.7051 13.5296 25.4883C13.4806 25.1518 13.489 24.981 13.6678 24.6895C14.9273 23.6175 17.3269 24.3641 18.5273 25.1606Z" fill="#2C3E50"/>
<path d="M15.9875 28.6065C16.5387 28.554 16.8543 28.6146 17.3022 28.9474C17.6381 29.2637 17.7665 29.5893 17.8309 30.0403C17.7619 30.5231 17.5832 30.9014 17.2113 31.2232C16.7749 31.5296 16.3416 31.5275 15.8236 31.4741C15.4138 31.2729 15.1273 30.9828 14.9224 30.5729C14.9166 30.4193 14.9155 30.2656 14.9173 30.112C14.918 30.0298 14.9188 29.9477 14.9195 29.863C14.9205 29.7998 14.9214 29.7367 14.9224 29.6716C15.0086 29.7527 15.0086 29.7527 15.0965 29.8355C15.3193 30.0143 15.3193 30.0143 15.5778 30.0454C15.9141 29.9824 16.0317 29.8624 16.2333 29.5897C16.2812 29.2962 16.276 29.1622 16.1104 28.9137C16.0698 28.8664 16.0293 28.8191 15.9875 28.7704C15.9875 28.7163 15.9875 28.6622 15.9875 28.6065Z" fill="#384C60"/>
<path d="M33.357 28.604C33.8072 28.5764 34.1058 28.6359 34.504 28.8498C35.0595 29.3436 35.0595 29.3436 35.1021 29.727C35.1055 30.6058 35.1055 30.6058 34.8317 30.98C34.4706 31.3411 34.169 31.4838 33.6591 31.4972C33.2443 31.4928 33.0174 31.4289 32.7015 31.1438C32.2731 30.6678 32.189 30.3782 32.21 29.751C32.264 29.724 32.3181 29.6969 32.3738 29.6691C32.4177 29.7231 32.4617 29.7772 32.5069 29.8329C32.6911 30.0151 32.6911 30.0151 32.9422 30.0429C33.2821 29.9805 33.3991 29.8627 33.6028 29.5871C33.6507 29.2937 33.6455 29.1596 33.4799 28.9112C33.4393 28.8639 33.3988 28.8166 33.357 28.7678C33.357 28.7137 33.357 28.6597 33.357 28.604Z" fill="#384C60"/>
</svg>
