<svg width="50" height="50" viewBox="0 0 50 50" fill="none" xmlns="http://www.w3.org/2000/svg">
<path d="M20.9959 5.37223C23.6068 7.73611 24.4672 12.7047 24.9022 16.0168C24.9062 16.212 24.9076 16.4075 24.9022 16.6027C24.9666 16.6027 25.0311 16.6027 25.0975 16.6027C25.1029 16.4918 25.1029 16.4918 25.1083 16.3786C25.1619 15.5036 25.3081 14.662 25.4942 13.8073C25.5092 13.7378 25.5241 13.6683 25.5395 13.5967C27.0401 6.65365 27.0401 6.65365 29.785 4.78629C30.713 4.23373 31.6496 3.94072 32.7254 4.1664C34.4079 4.62653 35.5689 5.86119 36.4208 7.33542C36.8115 8.04173 37.2058 8.76173 37.3045 9.57145C37.3827 9.57938 37.4609 9.58731 37.5414 9.59548C37.9918 9.69047 38.3741 9.86745 38.7877 10.0658C38.87 10.1052 38.9523 10.1445 39.0371 10.185C39.6903 10.5051 40.2583 10.8644 40.8201 11.3293C40.8908 11.3841 40.9614 11.439 41.0341 11.4956C41.8695 12.174 42.4336 13.0819 42.7489 14.1064C42.8934 15.5875 42.435 16.7353 41.5037 17.8722C39.1631 20.4574 34.2386 21.3315 30.9569 21.7785C30.729 21.7826 30.5011 21.7837 30.2733 21.7785C30.2733 21.8429 30.2733 21.9074 30.2733 21.9738C30.3842 21.9792 30.3842 21.9792 30.4973 21.9846C31.3724 22.0382 32.214 22.1845 33.0687 22.3705C33.1382 22.3855 33.2077 22.4004 33.2793 22.4158C40.219 23.9157 40.219 23.9157 42.0897 26.6613C42.6374 27.5687 42.9362 28.539 42.7096 29.5948C42.2493 31.2816 41.0189 32.4429 39.5405 33.2971C38.8342 33.6878 38.1142 34.0821 37.3045 34.1808C37.2966 34.259 37.2887 34.3372 37.2805 34.4177C37.1855 34.8681 37.0085 35.2504 36.8101 35.664C36.7708 35.7463 36.7315 35.8286 36.691 35.9134C36.3709 36.5666 36.0115 37.1346 35.5467 37.6964C35.4918 37.7671 35.4369 37.8377 35.3804 37.9105C34.7005 38.7476 33.7636 39.3629 32.7147 39.6252C32.618 39.6332 32.5213 39.6413 32.4217 39.6496C32.3294 39.6588 32.3294 39.6588 32.2352 39.6683C30.9844 39.7386 29.9395 39.1466 29.0037 38.38C27.1919 36.7396 26.4369 33.833 25.8787 31.5441C25.8724 31.6122 25.8661 31.6803 25.8596 31.7505C25.406 36.5093 23.9989 41.2513 20.2273 44.4599C20.1587 44.5161 20.09 44.5722 20.0194 44.63C19.9227 44.7126 19.826 44.7952 19.7264 44.8803C19.2345 45.116 18.7596 45.1049 18.2375 44.9596C17.7918 44.7709 17.5068 44.5074 17.2686 44.0868C17.1119 43.6277 17.1515 43.1549 17.1873 42.6769C17.3501 42.5953 17.3501 42.5953 17.5162 42.5121C18.358 42.0831 19.113 41.6465 19.824 41.0168C19.8883 40.9664 19.9525 40.9161 20.0186 40.8642C22.6023 38.7889 23.7741 34.9834 24.2186 31.8371C24.2566 31.4794 24.2884 31.1215 24.3162 30.7629C24.3021 30.8202 24.2879 30.8775 24.2733 30.9365C22.6424 37.4809 22.6424 37.4809 19.9602 39.1216C18.9795 39.6447 18.0304 39.7903 16.9554 39.497C15.2102 38.9193 14.0768 37.4209 13.2731 35.8391C13.0067 35.2934 12.7694 34.7897 12.6951 34.1808C12.617 34.1729 12.5388 34.165 12.4583 34.1568C12.0079 34.0618 11.6255 33.8848 11.212 33.6864C11.1297 33.6471 11.0474 33.6078 10.9626 33.5673C10.3094 33.2472 9.74134 32.8878 9.17952 32.423C9.1089 32.3681 9.03827 32.3132 8.96551 32.2567C8.13013 31.5782 7.56603 30.6704 7.25081 29.6459C7.10622 28.1639 7.56547 27.0181 8.49592 25.88C10.8154 23.2696 15.8706 22.3798 19.1405 21.9738C19.3357 21.9708 19.5311 21.97 19.7264 21.9738C19.7264 21.9093 19.7264 21.8449 19.7264 21.7785C19.6495 21.7743 19.5726 21.7702 19.4933 21.7659C18.7064 21.7156 17.9566 21.6012 17.1873 21.4306C17.0121 21.3921 17.0121 21.3921 16.8333 21.3529C9.59733 19.7295 9.59733 19.7295 7.80775 16.9388C7.22461 15.9113 7.07505 14.9532 7.37898 13.8256C7.96008 12.0843 9.45707 10.952 11.0369 10.1494C11.5825 9.88301 12.0862 9.64571 12.6951 9.57145C12.7031 9.49327 12.711 9.4151 12.7192 9.33456C12.8142 8.88421 12.9911 8.50182 13.1895 8.08829C13.2289 8.00599 13.2682 7.92368 13.3087 7.83888C13.6288 7.18567 13.9881 6.61765 14.453 6.05582C14.5078 5.9852 14.5627 5.91458 14.6193 5.84182C15.2977 5.00644 16.2056 4.44233 17.2301 4.12711C18.7112 3.98261 19.859 4.44095 20.9959 5.37223Z" fill="#4BAE4F"/>
</svg>
