<svg width="50" height="50" viewBox="0 0 50 50" fill="none" xmlns="http://www.w3.org/2000/svg">
<path d="M41.493 3.01393C41.5943 3.01345 41.6957 3.01296 41.8001 3.01245C42.0123 3.01165 42.2245 3.01108 42.4368 3.01075C42.7602 3.00991 43.0836 3.00724 43.407 3.00455C43.6144 3.00399 43.8218 3.00354 44.0293 3.00321C44.1729 3.00162 44.1729 3.00162 44.3194 3C45.1534 3.00236 45.7911 3.14032 46.4081 3.72041C46.8223 4.1928 46.9942 4.72955 46.999 5.35014C46.9998 5.43637 47.0006 5.5226 47.0014 5.61145C47.0018 5.70473 47.0022 5.79801 47.0026 5.89411C47.0032 5.99143 47.0038 6.08874 47.0044 6.18901C47.0059 6.50561 47.0065 6.8222 47.0066 7.13881C47.0067 7.30013 47.0067 7.30013 47.0068 7.46471C47.0054 9.06404 46.9677 10.6278 46.7278 12.2115C46.7131 12.3122 46.6983 12.4129 46.6832 12.5167C45.8396 18.1624 43.7463 23.3732 40.0359 27.7404C39.953 27.8393 39.8701 27.9381 39.7872 28.037C39.3457 28.5607 38.8971 29.0648 38.4054 29.5425C38.2455 29.7024 38.1004 29.8674 37.9553 30.0408C37.5619 30.4989 37.1093 30.8948 36.662 31.299C36.5211 31.427 36.3816 31.5564 36.2425 31.6863C36.1575 31.7652 36.0725 31.8441 35.9875 31.9229C35.9119 31.9933 35.8364 32.0636 35.7586 32.1361C35.5746 32.2876 35.5746 32.2876 35.403 32.2876C35.4041 32.3446 35.4053 32.4017 35.4065 32.4605C35.4152 33.2456 35.3622 34.0227 35.3024 34.8048C35.2946 34.9092 35.2946 34.9092 35.2865 35.0157C35.2588 35.3836 35.2305 35.7515 35.2019 36.1194C35.1727 36.4958 35.145 36.8723 35.1178 37.2488C35.0962 37.5418 35.0736 37.8346 35.0506 38.1275C35.0399 38.2661 35.0296 38.4048 35.0198 38.5435C34.9125 40.0488 34.6297 41.13 33.4696 42.1502C33.1482 42.4168 32.8071 42.6445 32.4565 42.8706C32.3814 42.9198 32.3063 42.969 32.2289 43.0196C31.9861 43.1785 31.7427 43.3366 31.4994 43.4946C31.2455 43.6603 30.9918 43.8262 30.738 43.9922C30.5674 44.1038 30.3968 44.2153 30.2261 44.3267C29.6904 44.6768 29.1572 45.0302 28.6263 45.3874C28.5609 45.4313 28.4956 45.4752 28.4283 45.5205C28.1826 45.6857 27.9369 45.8509 27.6918 46.0172C27.5273 46.1287 27.3623 46.2397 27.1973 46.3506C27.1058 46.4125 27.0144 46.4744 26.9202 46.5382C26.2111 46.9692 25.5911 47.0378 24.7645 46.9586C24.2104 46.8128 23.6922 46.508 23.3698 46.0248C23.0027 45.3498 22.9025 44.6507 22.7913 43.9021C22.77 43.7662 22.7487 43.6304 22.7272 43.4945C22.6833 43.2154 22.6402 42.9362 22.5978 42.6569C22.5362 42.2525 22.4714 41.8487 22.4059 41.4449C22.3758 41.2583 22.3458 41.0717 22.3159 40.8851C22.2969 40.7668 22.2779 40.6485 22.2588 40.5303C22.2323 40.3658 22.2065 40.2012 22.1807 40.0366C22.166 39.944 22.1513 39.8513 22.1361 39.7558C22.1049 39.4944 22.0993 39.2426 22.1049 38.9796C22.02 39.0079 21.935 39.0362 21.8475 39.0654C21.646 39.0825 21.4438 39.0922 21.2416 39.0976C21.1345 39.1018 21.0273 39.106 20.9169 39.1103C20.0501 39.0544 19.4252 38.4212 18.8482 37.8374C18.7668 37.7566 18.6854 37.676 18.6039 37.5954C18.3847 37.3782 18.1669 37.1596 17.9494 36.9407C17.7204 36.7106 17.4904 36.4817 17.2606 36.2525C16.8749 35.8676 16.4902 35.4819 16.106 35.0956C15.6632 34.6505 15.2189 34.2069 14.7738 33.7641C14.3901 33.3824 14.0072 32.9998 13.625 32.6165C13.3975 32.3883 13.1696 32.1603 12.941 31.9331C12.726 31.7194 12.5121 31.5046 12.299 31.289C12.1842 31.1734 12.0685 31.0589 11.9526 30.9444C11.4463 30.4293 10.9553 29.8519 10.9068 29.1001C10.9131 28.9393 10.9131 28.9393 10.9195 28.7753C10.9224 28.6666 10.9253 28.5579 10.9282 28.4459C10.9517 28.1694 10.9517 28.1694 11.0375 27.912C10.9766 27.9077 10.9157 27.9035 10.8529 27.8991C10.1808 27.8479 9.51831 27.7628 8.8521 27.661C8.74535 27.6448 8.6386 27.6286 8.52861 27.6119C8.30443 27.5777 8.08027 27.5433 7.85615 27.5087C7.62838 27.4736 7.40052 27.4391 7.17256 27.4051C6.84036 27.3555 6.50837 27.3047 6.1764 27.2535C6.07566 27.2386 5.97491 27.2238 5.87112 27.2085C4.88142 27.0526 4.01036 26.8524 3.38039 26.0299C3.11637 25.5678 3.03057 25.1611 3.02113 24.6303C3.0177 24.5255 3.01427 24.4206 3.01074 24.3126C3.06969 23.5064 3.69243 22.7752 4.13109 22.1315C4.26777 21.9293 4.40404 21.7268 4.54029 21.5243C4.57757 21.4689 4.61486 21.4136 4.65328 21.3566C4.99446 20.8492 5.33036 20.3384 5.66566 19.8271C5.72071 19.7433 5.77575 19.6594 5.83247 19.573C6.05495 19.234 6.2774 18.895 6.4993 18.5556C6.65636 18.3154 6.81381 18.0756 6.97134 17.8358C7.01777 17.7645 7.06419 17.6933 7.11202 17.6199C7.79106 16.5881 8.49994 15.5465 9.75059 15.2143C11.0367 15.0052 12.3514 14.9453 13.6499 14.8465C13.9674 14.8223 14.2849 14.7976 14.6025 14.7726C14.8505 14.7532 15.0986 14.7342 15.3466 14.7152C15.5197 14.7019 15.6928 14.6883 15.8659 14.6747C16.4886 14.6279 17.105 14.6018 17.7294 14.6137C17.7535 14.562 17.7776 14.5103 17.8024 14.457C17.9454 14.1867 18.1532 13.9811 18.3622 13.7611C18.4559 13.6613 18.5496 13.5614 18.6433 13.4615C18.6912 13.4107 18.7391 13.3598 18.7884 13.3074C18.9232 13.1631 19.0561 13.0172 19.1883 12.8703C19.7438 12.2548 20.3263 11.6837 20.9431 11.1299C21.0676 11.0173 21.1906 10.903 21.3133 10.7885C21.8715 10.2696 22.455 9.79434 23.0597 9.33166C23.222 9.2073 23.3833 9.0818 23.5446 8.95627C28.5764 5.0753 35.1591 3.03824 41.493 3.01393Z" fill="#D6D5FA"/>
<path d="M17.7294 14.6122C17.4735 14.9569 17.216 15.2995 16.9469 15.6341C15.6167 17.2931 14.5287 19.089 13.5255 20.9611C13.4809 21.0407 13.4362 21.1202 13.3902 21.2022C13.3493 21.2778 13.3083 21.3534 13.2661 21.4313C13.2293 21.4979 13.1924 21.5645 13.1544 21.6331C13.0756 21.8174 13.0756 21.8174 13.163 21.9852C13.268 22.162 13.3745 22.2899 13.5197 22.4349C13.5715 22.487 13.6232 22.5391 13.6765 22.5928C13.7334 22.6492 13.7904 22.7056 13.849 22.7637C13.9094 22.8243 13.9698 22.8848 14.032 22.9472C14.235 23.1505 14.4386 23.3531 14.6422 23.5558C14.7877 23.7012 14.9331 23.8467 15.0785 23.9921C15.4326 24.3464 15.7872 24.7002 16.1419 25.0538C16.5547 25.4654 16.967 25.8774 17.3792 26.2895C18.1144 27.0243 18.85 27.7587 19.5858 28.4929C20.3005 29.2061 21.0151 29.9195 21.7294 30.6331C21.7955 30.6991 21.7955 30.6991 21.8629 30.7664C22.0838 30.9871 22.3047 31.2077 22.5256 31.4284C24.3581 33.2592 26.1912 35.0893 28.0247 36.919C30.5501 36.0952 32.9679 34.3077 34.9713 32.5927C35.1456 32.4577 35.1456 32.4577 35.403 32.3719C35.4215 33.1832 35.364 33.9867 35.3024 34.7949C35.2972 34.8646 35.2919 34.9343 35.2865 35.0061C35.2587 35.3745 35.2305 35.743 35.2019 36.1114C35.1727 36.4885 35.1451 36.8657 35.1178 37.2429C35.0962 37.5362 35.0736 37.8294 35.0506 38.1227C35.0399 38.2615 35.0296 38.4005 35.0198 38.5394C34.9127 40.0457 34.6306 41.1277 33.4696 42.1487C33.1482 42.4153 32.8071 42.643 32.4565 42.8691C32.3814 42.9183 32.3063 42.9675 32.2289 43.0181C31.9861 43.177 31.7427 43.3351 31.4994 43.4931C31.2455 43.6588 30.9918 43.8247 30.738 43.9907C30.5674 44.1023 30.3968 44.2138 30.2261 44.3252C29.6904 44.6753 29.1572 45.0287 28.6263 45.386C28.5609 45.4298 28.4956 45.4737 28.4283 45.519C28.1826 45.6842 27.9369 45.8495 27.6918 46.0157C27.5273 46.1273 27.3623 46.2382 27.1973 46.3491C27.1058 46.411 27.0144 46.4729 26.9202 46.5367C26.2111 46.9677 25.5911 47.0363 24.7645 46.9571C24.2104 46.8113 23.6922 46.5065 23.3698 46.0233C23.0027 45.3483 22.9025 44.6492 22.7913 43.9006C22.77 43.7647 22.7487 43.6289 22.7272 43.4931C22.6833 43.214 22.6402 42.9347 22.5978 42.6554C22.5362 42.251 22.4714 41.8472 22.4059 41.4434C22.3758 41.2568 22.3458 41.0702 22.3159 40.8836C22.2969 40.7653 22.2779 40.647 22.2588 40.5288C22.2323 40.3643 22.2065 40.1997 22.1807 40.0351C22.166 39.9425 22.1513 39.8498 22.1361 39.7543C22.1049 39.4929 22.0993 39.2411 22.1049 38.9781C22.02 39.0064 21.935 39.0347 21.8475 39.0639C21.646 39.081 21.4438 39.0907 21.2416 39.0961C21.1345 39.1003 21.0273 39.1045 20.9169 39.1088C20.0501 39.0529 19.4252 38.4197 18.8482 37.8359C18.7668 37.7552 18.6854 37.6745 18.6039 37.5939C18.3847 37.3767 18.1669 37.1581 17.9494 36.9392C17.7204 36.7092 17.4904 36.4802 17.2606 36.251C16.8749 35.8661 16.4902 35.4804 16.106 35.0941C15.6632 34.649 15.2189 34.2054 14.7738 33.7626C14.3901 33.3809 14.0072 32.9983 13.625 32.615C13.3975 32.3868 13.1696 32.1588 12.941 31.9316C12.726 31.7179 12.5121 31.5031 12.299 31.2875C12.1842 31.1719 12.0685 31.0574 11.9526 30.9429C11.4463 30.4278 10.9553 29.8504 10.9068 29.0986C10.911 28.9914 10.9152 28.8842 10.9195 28.7738C10.9224 28.6651 10.9253 28.5564 10.9282 28.4444C10.9517 28.1679 10.9517 28.1679 11.0375 27.9105C10.9766 27.9062 10.9157 27.902 10.8529 27.8976C10.1808 27.8465 9.51831 27.7613 8.8521 27.6595C8.74535 27.6433 8.6386 27.6271 8.52861 27.6104C8.30442 27.5762 8.08027 27.5418 7.85615 27.5072C7.62838 27.4721 7.40052 27.4376 7.17256 27.4036C6.84036 27.354 6.50837 27.3032 6.1764 27.252C6.07566 27.2371 5.97492 27.2223 5.87112 27.207C4.88142 27.0511 4.01036 26.8509 3.38039 26.0284C3.11637 25.5663 3.03057 25.1596 3.02113 24.6288C3.0177 24.524 3.01427 24.4192 3.01074 24.3111C3.06969 23.5049 3.69243 22.7737 4.13109 22.1301C4.26777 21.9278 4.40404 21.7253 4.54029 21.5228C4.57757 21.4674 4.61486 21.4121 4.65328 21.3551C4.99446 20.8477 5.33036 20.3369 5.66566 19.8256C5.74823 19.6998 5.74823 19.6998 5.83247 19.5715C6.05495 19.2325 6.2774 18.8935 6.4993 18.5541C6.65636 18.3139 6.81381 18.0741 6.97134 17.8343C7.01777 17.763 7.06419 17.6918 7.11203 17.6184C7.79106 16.5866 8.49994 15.545 9.75059 15.2128C11.0367 15.0037 12.3514 14.9438 13.6499 14.845C13.9674 14.8208 14.2849 14.7961 14.6025 14.7711C14.8505 14.7517 15.0986 14.7327 15.3466 14.7137C15.5197 14.7004 15.6928 14.6868 15.8659 14.6732C16.4886 14.6264 17.105 14.6003 17.7294 14.6122Z" fill="#476388"/>
<path d="M41.494 3.01393C41.5953 3.01345 41.6966 3.01296 41.801 3.01245C42.0133 3.01165 42.2255 3.01108 42.4377 3.01075C42.7611 3.00991 43.0845 3.00724 43.4079 3.00455C43.6154 3.00399 43.8228 3.00354 44.0302 3.00321C44.1738 3.00162 44.1738 3.00162 44.3203 3C45.1578 3.00237 45.7705 3.13422 46.3856 3.71772C46.3309 3.7722 46.2763 3.82668 46.22 3.88281C45.87 4.23281 45.5224 4.58518 45.1744 4.93708C44.3804 5.73948 43.5851 6.54058 42.7891 7.34092C42.3075 7.82521 41.8264 8.30998 41.3463 8.79586C40.9267 9.22064 40.5062 9.6445 40.0845 10.0673C39.8616 10.2909 39.6391 10.5149 39.4177 10.7401C39.1713 10.9907 38.9228 11.2393 38.6742 11.4877C38.601 11.5627 38.5278 11.6378 38.4524 11.7151C38.3506 11.8158 38.3506 11.8158 38.2468 11.9185C38.159 12.007 38.159 12.007 38.0695 12.0973C37.892 12.2115 37.892 12.2115 37.6699 12.197C37.392 12.1012 37.208 11.9463 36.9804 11.761C35.6966 10.7587 34.014 10.3615 32.4011 10.4956C31.0979 10.67 29.9682 11.1811 28.9694 12.0399C28.8862 12.1051 28.8031 12.1704 28.7174 12.2376C28.4394 12.4697 28.2327 12.7309 28.0257 13.0265C27.9888 13.0789 27.952 13.1312 27.914 13.1852C27.1475 14.3043 26.8056 15.4229 26.7977 16.7693C26.7972 16.8481 26.7968 16.9269 26.7963 17.0081C26.8121 18.5039 27.3561 20.0941 28.4355 21.1553C28.5404 21.3058 28.5404 21.3058 28.5232 21.4657C28.4372 21.6955 28.3218 21.8135 28.1479 21.9866C28.0821 22.0528 28.0163 22.1189 27.9485 22.1871C27.8758 22.2589 27.8031 22.3307 27.7282 22.4046C27.652 22.4808 27.5759 22.557 27.4974 22.6355C27.2887 22.8443 27.0791 23.0524 26.8694 23.2603C26.6504 23.4777 26.4321 23.6959 26.2137 23.914C25.8 24.3268 25.3858 24.739 24.9712 25.1509C24.4993 25.62 24.0282 26.0897 23.5571 26.5596C22.588 27.526 21.618 28.4914 20.6474 29.4563C20.3769 29.3365 20.1944 29.1962 19.9861 28.9872C19.8933 28.8949 19.8933 28.8948 19.7987 28.8006C19.7318 28.733 19.6648 28.6654 19.5958 28.5958C19.5246 28.5247 19.4535 28.4535 19.3801 28.3802C19.1448 28.1448 18.9101 27.9088 18.6755 27.6727C18.5125 27.5094 18.3495 27.3462 18.1864 27.183C17.8011 26.7971 17.4163 26.4108 17.0315 26.0244C16.5935 25.5844 16.1549 25.1449 15.7163 24.7054C14.8142 23.8015 13.9128 22.897 13.0117 21.9921C13.1147 21.6771 13.2207 21.3816 13.3733 21.0873C13.4105 21.0156 13.4476 20.9439 13.4859 20.87C13.5259 20.7944 13.5658 20.7188 13.6069 20.6409C13.6696 20.5219 13.6696 20.5219 13.7336 20.4005C14.7543 18.4855 15.9723 16.6191 17.4043 14.9841C17.5489 14.8179 17.6624 14.6698 17.7763 14.4797C17.9405 14.2065 18.1502 13.9857 18.3685 13.7558C18.4614 13.6567 18.5544 13.5576 18.6473 13.4585C18.6946 13.4082 18.742 13.3579 18.7907 13.3061C18.925 13.1622 19.0573 13.0169 19.1889 12.8707C19.7445 12.2551 20.3271 11.6838 20.9441 11.1299C21.0686 11.0173 21.1915 10.903 21.3143 10.7885C21.8725 10.2696 22.4559 9.79434 23.0607 9.33166C23.2229 9.2073 23.3843 9.0818 23.5456 8.95627C28.5773 5.0753 35.16 3.03824 41.494 3.01393Z" fill="#F0F0FA"/>
<path d="M36.8083 11.5301C37.1955 11.8172 37.5479 12.1321 37.8918 12.4695C37.9455 12.5211 37.9993 12.5728 38.0547 12.626C39.2443 13.8668 39.6586 15.6042 39.6308 17.2723C39.5626 19.0368 38.6798 20.5609 37.4286 21.7612C35.9452 23.0302 34.2175 23.4141 32.3027 23.3033C30.6552 23.1446 29.1746 22.2038 28.1113 20.9632C26.9496 19.3756 26.5161 17.5807 26.7616 15.633C27.0492 14.0824 28.02 12.6166 29.2624 11.6755C29.6353 11.4234 30.0258 11.2125 30.4277 11.0109C30.5079 10.9676 30.5881 10.9242 30.6707 10.8796C32.6306 9.97088 35.0507 10.3506 36.8083 11.5301Z" fill="#466388"/>
<path d="M17.7294 14.6122C17.4735 14.9569 17.216 15.2995 16.9469 15.6341C14.3331 18.8938 12.3716 22.6948 11.3506 26.7493C11.2511 27.1377 11.1438 27.5239 11.0375 27.9105C10.3032 27.859 9.57966 27.7707 8.8521 27.6595C8.74535 27.6433 8.6386 27.6271 8.52861 27.6104C8.30442 27.5762 8.08027 27.5418 7.85615 27.5072C7.62838 27.4721 7.40052 27.4376 7.17256 27.4036C6.84036 27.354 6.50837 27.3032 6.1764 27.252C6.07566 27.2371 5.97492 27.2223 5.87112 27.207C4.88142 27.0511 4.01036 26.8509 3.38039 26.0284C3.11637 25.5663 3.03057 25.1596 3.02113 24.6288C3.0177 24.524 3.01427 24.4192 3.01074 24.3111C3.06969 23.5049 3.69243 22.7737 4.13109 22.1301C4.26777 21.9278 4.40404 21.7253 4.54029 21.5228C4.57757 21.4674 4.61486 21.4121 4.65328 21.3551C4.99446 20.8477 5.33036 20.3369 5.66566 19.8256C5.74823 19.6998 5.74823 19.6998 5.83247 19.5715C6.05495 19.2325 6.2774 18.8935 6.4993 18.5541C6.65636 18.3139 6.81381 18.0741 6.97134 17.8343C7.01777 17.763 7.06419 17.6918 7.11203 17.6184C7.79106 16.5866 8.49994 15.545 9.75059 15.2128C11.0367 15.0037 12.3514 14.9438 13.6499 14.845C13.9674 14.8208 14.2849 14.7961 14.6025 14.7711C14.8505 14.7517 15.0986 14.7327 15.3466 14.7137C15.5197 14.7004 15.6928 14.6868 15.8659 14.6732C16.4886 14.6264 17.105 14.6003 17.7294 14.6122Z" fill="#E45A6E"/>
<path d="M35.4035 32.3711C35.422 33.1824 35.3645 33.986 35.3029 34.7941C35.2977 34.8638 35.2924 34.9335 35.287 35.0053C35.2592 35.3738 35.231 35.7422 35.2024 36.1106C35.1732 36.4877 35.1456 36.8649 35.1183 37.2421C35.0967 37.5354 35.0741 37.8287 35.0511 38.1219C35.0404 38.2608 35.0301 38.3997 35.0203 38.5387C34.9132 40.0449 34.6311 41.1269 33.4701 42.1479C33.1487 42.4146 32.8076 42.6422 32.457 42.8683C32.3443 42.9421 32.3443 42.9421 32.2294 43.0174C31.9866 43.1763 31.7432 43.3343 31.4999 43.4923C31.246 43.658 30.9923 43.824 30.7385 43.9899C30.5679 44.1015 30.3973 44.213 30.2266 44.3244C29.6909 44.6745 29.1577 45.0279 28.6268 45.3852C28.5288 45.451 28.5288 45.451 28.4288 45.5182C28.1831 45.6834 27.9374 45.8487 27.6923 46.0149C27.5278 46.1265 27.3628 46.2375 27.1978 46.3484C27.1063 46.4103 27.0149 46.4721 26.9207 46.5359C26.2116 46.9669 25.5916 47.0355 24.765 46.9563C24.2109 46.8105 23.6927 46.5057 23.3703 46.0225C23.0032 45.3475 22.903 44.6484 22.7918 43.8998C22.7705 43.764 22.7492 43.6281 22.7277 43.4923C22.6838 43.2132 22.6407 42.934 22.5983 42.6546C22.5367 42.2502 22.4719 41.8464 22.4064 41.4426C22.3763 41.256 22.3463 41.0694 22.3164 40.8828C22.2975 40.7645 22.2784 40.6463 22.2593 40.528C22.2328 40.3635 22.207 40.1989 22.1812 40.0344C22.1665 39.9417 22.1518 39.849 22.1366 39.7536C22.1054 39.4921 22.0998 39.2404 22.1054 38.9773C22.1774 38.9585 22.2494 38.9397 22.3236 38.9204C22.6126 38.8442 22.9012 38.7669 23.1897 38.6888C23.3254 38.6522 23.4611 38.6159 23.5969 38.5798C27.3258 37.585 30.6804 35.8177 33.7841 33.5454C33.8501 33.4972 33.9162 33.4489 33.9842 33.3992C34.372 33.1117 34.7368 32.8096 35.0918 32.4823C35.2319 32.3711 35.2319 32.3711 35.4035 32.3711Z" fill="#D82E44"/>
<path d="M20.475 29.5391C20.7433 29.6582 20.9258 29.7967 21.133 30.0037C21.1941 30.0644 21.2552 30.125 21.3182 30.1874C21.3844 30.254 21.4505 30.3205 21.5187 30.389C21.6242 30.494 21.6242 30.494 21.7318 30.6012C21.9644 30.833 22.1963 31.0654 22.4281 31.2979C22.5892 31.4588 22.7503 31.6197 22.9114 31.7806C23.2489 32.1179 23.5861 32.4555 23.9231 32.7933C24.313 33.1841 24.7036 33.5744 25.0945 33.9644C25.43 34.2991 25.7651 34.6341 26.1 34.9694C26.3 35.1698 26.5002 35.3699 26.7007 35.5699C26.9238 35.7926 27.1463 36.0158 27.3687 36.2391C27.4356 36.3056 27.5024 36.3721 27.5713 36.4407C27.6315 36.5013 27.6916 36.5619 27.7536 36.6244C27.8063 36.6771 27.859 36.7299 27.9133 36.7843C28.0248 36.9175 28.0248 36.9175 28.0248 37.0891C22.0275 39.6086 22.0275 39.6086 20.3791 38.9947C19.7152 38.6911 19.24 38.2334 18.734 37.7215C18.6446 37.6324 18.5553 37.5435 18.4658 37.4545C18.28 37.2694 18.0951 37.0835 17.9106 36.897C17.674 36.6579 17.4354 36.4208 17.1963 36.1842C17.012 36.0015 16.8288 35.8178 16.6459 35.6337C16.5582 35.5458 16.4703 35.4582 16.382 35.3709C16.2594 35.2494 16.1383 35.1264 16.0173 35.0033C15.9135 34.8989 15.9135 34.8989 15.8075 34.7925C15.6705 34.601 15.6705 34.601 15.6641 34.4338C15.7993 34.1759 15.9933 33.9873 16.1992 33.7857C16.2453 33.7396 16.2913 33.6935 16.3387 33.6461C16.4908 33.4941 16.6439 33.3431 16.7969 33.1921C16.9026 33.0868 17.0083 32.9815 17.1139 32.8762C17.3919 32.5991 17.6707 32.3229 17.9496 32.0468C18.2341 31.7649 18.518 31.4823 18.8018 31.1997C19.3588 30.6454 19.9167 30.092 20.475 29.5391Z" fill="#364A67"/>
<path d="M35.494 13.7351C36.2901 14.3748 36.8408 15.2291 37.0329 16.2446C37.1192 17.4542 36.866 18.5045 36.0731 19.4297C35.3196 20.2312 34.4616 20.7024 33.3531 20.7509C32.2477 20.768 31.3732 20.5066 30.5253 19.7699C29.7807 19.0456 29.3133 18.0752 29.2864 17.0307C29.2758 15.8367 29.604 14.9613 30.4355 14.0802C31.8686 12.7282 33.8773 12.6247 35.494 13.7351Z" fill="#4ABCFC"/>
<path d="M37.6343 12.3828C38.5088 12.7937 38.9393 13.8358 39.2644 14.6993C39.845 16.3261 39.748 18.0335 39.0428 19.6023C38.2505 21.253 36.875 22.4114 35.1741 23.0549C33.4802 23.5545 31.661 23.4073 30.0898 22.6085C29.5489 22.2893 28.9776 21.9188 28.626 21.3913C29.1922 20.8251 29.7585 20.2588 30.3419 19.6754C30.7264 19.8292 30.9866 19.9896 31.3137 20.2301C31.8907 20.5616 32.4604 20.6652 33.1194 20.6567C33.1906 20.6561 33.2619 20.6554 33.3352 20.6547C34.3199 20.6284 35.1298 20.2618 35.8464 19.5866C36.68 18.7032 36.9982 17.7301 36.9745 16.5295C36.901 15.7362 36.5743 15.1106 36.1236 14.4657C36.0043 14.2703 36.0043 14.2703 36.0043 14.0129C36.1539 13.8341 36.1539 13.8341 36.3608 13.6312C36.4712 13.5221 36.4712 13.5221 36.5837 13.4108C36.6614 13.3353 36.7392 13.2597 36.8193 13.1818C36.897 13.1052 36.9748 13.0286 37.0549 12.9497C37.2475 12.7601 37.4406 12.5712 37.6343 12.3828Z" fill="#354A68"/>
<path d="M13.2098 36.467C13.5608 36.7609 13.672 36.9748 13.7728 37.4215C13.8109 37.8639 13.6766 38.1873 13.4048 38.5282C13.0065 38.9806 12.5896 39.4111 12.1633 39.8371C12.0525 39.9484 12.0525 39.9484 11.9395 40.0618C11.7388 40.2632 11.538 40.4643 11.337 40.6653C11.2112 40.7912 11.0855 40.9171 10.9598 41.043C10.5206 41.483 10.0812 41.9228 9.64157 42.3623C9.23264 42.7712 8.82418 43.1806 8.41595 43.5902C8.06432 43.9429 7.71236 44.2954 7.36014 44.6475C7.15024 44.8574 6.94048 45.0674 6.73105 45.2778C6.49787 45.5119 6.264 45.7454 6.03006 45.9789C5.92669 46.0829 5.92669 46.0829 5.82123 46.1891C5.75726 46.2528 5.69329 46.3164 5.62738 46.3819C5.57225 46.4371 5.51712 46.4923 5.46032 46.5491C5.00827 46.9445 4.66604 47.0015 4.07879 46.9857C3.74386 46.9448 3.56059 46.8437 3.3167 46.6123C3.09372 46.2978 3.01863 46.0697 3.01106 45.6847C3.00741 45.6009 3.00376 45.5172 3 45.431C3.15265 44.7177 3.85197 44.1649 4.35027 43.669C4.42664 43.5924 4.50301 43.5157 4.5817 43.4367C4.7894 43.2282 4.99762 43.0203 5.20598 42.8125C5.42474 42.5941 5.64307 42.3754 5.86148 42.1567C6.22788 41.79 6.59465 41.4236 6.96162 41.0575C7.38535 40.6347 7.80846 40.2113 8.23125 39.7875C8.59525 39.4227 8.95959 39.0583 9.32421 38.6941C9.54157 38.477 9.7588 38.2598 9.97574 38.0423C10.2174 37.8001 10.4597 37.5586 10.702 37.3172C10.8092 37.2095 10.8092 37.2095 10.9186 37.0996C10.9848 37.0338 11.0511 36.968 11.1194 36.9003C11.1765 36.8432 11.2336 36.7861 11.2925 36.7273C11.888 36.2054 12.499 36.0915 13.2098 36.467Z" fill="#FCB339"/>
<path d="M35.8318 14.0977C36.5372 14.7201 36.973 15.5754 37.057 16.5113C37.0924 17.7575 36.7154 18.7445 35.8676 19.6462C35.0217 20.4607 34.0824 20.7604 32.9263 20.7503C31.971 20.7133 31.1022 20.3673 30.4268 19.6744C30.4268 19.6177 30.4268 19.5611 30.4268 19.5028C30.539 19.3921 30.539 19.3921 30.7026 19.2584C31.2262 18.8127 31.7052 18.3224 32.1906 17.8361C32.2932 17.7335 32.3959 17.6309 32.4986 17.5283C32.7124 17.3147 32.926 17.1008 33.1396 16.8869C33.4135 16.6124 33.6879 16.3384 33.9623 16.0644C34.1738 15.8533 34.3851 15.6419 34.5962 15.4305C34.6974 15.3293 34.7986 15.2281 34.8999 15.127C35.0408 14.9864 35.1813 14.8455 35.3219 14.7045C35.4019 14.6244 35.4819 14.5443 35.5644 14.4617C35.7482 14.2854 35.7482 14.2854 35.8318 14.0977Z" fill="#058FFA"/>
<path d="M16.7865 40.1789C17.1641 40.3747 17.3828 40.5623 17.5587 40.951C17.6817 41.3771 17.6275 41.742 17.4729 42.1522C17.3296 42.342 17.2021 42.4904 17.0335 42.6527C16.9889 42.6977 16.9442 42.7427 16.8982 42.7891C16.7516 42.9362 16.6032 43.0814 16.4547 43.2266C16.3518 43.329 16.249 43.4315 16.1463 43.5341C15.9314 43.7482 15.7158 43.9614 15.4994 44.1739C15.2222 44.4462 14.9466 44.72 14.6714 44.9944C14.4594 45.2057 14.2469 45.4166 14.0342 45.6272C13.9324 45.7281 13.8307 45.829 13.729 45.93C13.5869 46.0708 13.4443 46.2111 13.3015 46.3512C13.2597 46.3929 13.2179 46.4345 13.1748 46.4774C12.8249 46.8185 12.5692 46.9812 12.0786 46.9889C11.666 46.9792 11.4369 46.8965 11.1241 46.6135C10.7657 46.2269 10.7412 45.8983 10.7354 45.3936C10.8303 44.8967 11.2012 44.5413 11.5473 44.1921C11.5882 44.1506 11.6292 44.1091 11.6713 44.0663C11.8054 43.9306 11.9401 43.7956 12.0749 43.6606C12.1691 43.5658 12.2634 43.471 12.3576 43.3762C12.5547 43.178 12.7521 42.9803 12.9498 42.7828C13.2022 42.5303 13.4534 42.2768 13.7043 42.0229C13.8984 41.8269 14.0933 41.6317 14.2884 41.4366C14.3813 41.3435 14.474 41.2501 14.5664 41.1564C14.6959 41.0252 14.8264 40.8951 14.9573 40.7653C15.0311 40.6912 15.105 40.6171 15.181 40.5408C15.6826 40.1307 16.1598 40.0111 16.7865 40.1789Z" fill="#F57920"/>
<path d="M9.47741 32.6893C9.75645 32.9843 9.91285 33.2675 9.93084 33.6806C9.88463 34.3502 9.53184 34.7582 9.0662 35.2247C9.00419 35.2871 9.00419 35.2871 8.94093 35.3509C8.80561 35.4869 8.66967 35.6224 8.53368 35.7578C8.43879 35.8528 8.34392 35.9478 8.24909 36.0429C8.0509 36.2413 7.85241 36.4395 7.6537 36.6374C7.39925 36.8908 7.14558 37.1451 6.89212 37.3996C6.69666 37.5957 6.50078 37.7913 6.30478 37.9869C6.21107 38.0805 6.11748 38.1742 6.02403 38.2681C5.89346 38.3991 5.76236 38.5295 5.63109 38.6598C5.51948 38.7712 5.51948 38.7712 5.40561 38.8849C4.99998 39.2468 4.67914 39.2747 4.1478 39.2633C3.70427 39.2118 3.48709 38.9873 3.19837 38.6681C3.01399 38.2852 2.97233 37.9384 3.05895 37.5206C3.28347 37.1511 3.53691 36.8481 3.83973 36.5406C3.88219 36.4973 3.92465 36.454 3.9684 36.4093C4.1076 36.2676 4.24744 36.1266 4.38742 35.9857C4.43546 35.9372 4.48351 35.8886 4.53302 35.8386C4.78701 35.5821 5.04148 35.326 5.29638 35.0703C5.55872 34.8071 5.81942 34.5422 6.07978 34.277C6.28118 34.0724 6.48373 33.8689 6.6866 33.6658C6.78321 33.5687 6.87939 33.4711 6.97512 33.3731C7.10935 33.2359 7.24514 33.1005 7.38141 32.9653C7.4581 32.888 7.5348 32.8107 7.61382 32.731C8.2209 32.2773 8.84826 32.3118 9.47741 32.6893Z" fill="#FDB339"/>
<path d="M13.526 36.7461C13.7444 37.2354 13.8657 37.5979 13.6976 38.1188C13.3562 38.6826 12.8705 39.142 12.4067 39.6036C12.3303 39.6803 12.2539 39.7569 12.1752 39.8359C11.9675 40.0444 11.7593 40.2523 11.551 40.4602C11.3322 40.6785 11.1139 40.8972 10.8955 41.1159C10.5291 41.4826 10.1623 41.849 9.79531 42.2151C9.37158 42.638 8.94847 43.0614 8.52568 43.4851C8.16168 43.8499 7.79734 44.2144 7.43272 44.5785C7.21537 44.7956 6.99813 45.0128 6.78119 45.2303C6.53958 45.4725 6.29728 45.714 6.0549 45.9555C5.98344 46.0273 5.91199 46.0991 5.83837 46.173C5.77211 46.2388 5.70585 46.3046 5.63758 46.3724C5.58044 46.4294 5.5233 46.4865 5.46442 46.5453C5.10359 46.8615 4.8272 46.9927 4.34608 46.9933C4.25937 46.9949 4.17267 46.9966 4.08333 46.9983C3.77353 46.946 3.63835 46.8132 3.40234 46.6126C4.68352 45.3254 5.96544 44.0389 7.24823 42.7533C7.8438 42.1564 8.43913 41.5592 9.03389 40.9615C9.55214 40.4407 10.0708 39.9203 10.5901 39.4005C10.8651 39.1251 11.1399 38.8495 11.4142 38.5733C11.6722 38.3136 11.9307 38.0545 12.1897 37.7959C12.2849 37.7007 12.3798 37.6052 12.4746 37.5095C12.6035 37.3793 12.7332 37.2499 12.8631 37.1207C12.9357 37.0479 13.0082 36.9751 13.0829 36.9002C13.2686 36.7461 13.2686 36.7461 13.526 36.7461Z" fill="#F57B22"/>
</svg>
