<svg width="50" height="50" viewBox="0 0 50 50" fill="none" xmlns="http://www.w3.org/2000/svg">
<g clip-path="url(#clip0_3130_42722)">
<path d="M17.4283 3.86184C17.907 3.86561 18.3856 3.86485 18.8643 3.86111C18.9331 3.86059 19.0019 3.86006 19.0727 3.85951C19.2125 3.85843 19.3523 3.85734 19.4921 3.85624C20.7965 3.84658 22.1004 3.85159 23.4047 3.8615C24.5908 3.8701 25.7759 3.86156 26.9619 3.84465C28.1876 3.8273 29.413 3.82103 30.6389 3.82659C30.7783 3.82719 30.9177 3.82777 31.0571 3.82834C31.1599 3.82876 31.1599 3.82876 31.2648 3.82918C31.7411 3.83044 32.2171 3.82474 32.6934 3.81617C37.4347 3.73642 37.4347 3.73642 38.9987 5.23326C39.5212 5.77407 39.9786 6.35571 40.4124 6.96893C40.7647 7.45448 41.1839 7.89467 41.6093 8.31648C41.6794 8.38624 41.7495 8.456 41.8217 8.52787C41.9317 8.6367 41.9317 8.6367 42.044 8.74773C42.1216 8.82497 42.1992 8.90222 42.2792 8.9818C42.525 9.22649 42.7712 9.47085 43.0175 9.71514C43.3423 10.0373 43.6667 10.3598 43.991 10.6825C44.101 10.7914 44.101 10.7914 44.2133 10.9024C44.6042 11.2915 44.9747 11.6902 45.3346 12.1079C45.6476 12.4606 45.9843 12.7895 46.3195 13.1209C46.3949 13.196 46.4704 13.271 46.5481 13.3484C46.787 13.5861 47.0262 13.8235 47.2655 14.0608C47.5812 14.3739 47.8965 14.6872 48.2116 15.0008C48.3184 15.1064 48.3184 15.1064 48.4274 15.2142C48.821 15.6059 49.1966 16.0068 49.5573 16.4291C49.7046 16.6025 49.7046 16.6025 49.873 16.7573C49.9999 16.8929 49.9999 16.8929 49.9969 17.0756C49.8662 17.3627 49.6805 17.5498 49.4628 17.7779C49.1246 18.1379 48.8015 18.5029 48.4923 18.8887C48.1351 19.3317 47.7589 19.75 47.3716 20.1662C47.0796 20.4819 46.8029 20.8057 46.5331 21.1409C46.1781 21.5821 45.8039 21.9982 45.4185 22.4124C45.1264 22.728 44.8497 23.0518 44.58 23.387C44.225 23.8282 43.8508 24.2443 43.4653 24.6585C43.1733 24.9741 42.8966 25.2979 42.6269 25.6331C42.2719 26.0743 41.8977 26.4904 41.5122 26.9045C41.2202 27.2202 40.9435 27.544 40.6737 27.8792C40.3613 28.2675 40.0364 28.6377 39.6972 29.0022C39.2783 29.4524 38.8862 29.9181 38.5005 30.3973C38.1951 30.7665 37.8698 31.116 37.5453 31.4684C37.3117 31.7287 37.0905 31.9952 36.8712 32.2676C36.514 32.7106 36.1379 33.1289 35.7505 33.5451C35.4585 33.8608 35.1818 34.1846 34.912 34.5198C34.557 34.961 34.1828 35.3771 33.7974 35.7913C33.5053 36.1069 33.2286 36.4307 32.9589 36.7659C32.6039 37.2071 32.2297 37.6232 31.8442 38.0374C31.5522 38.353 31.2755 38.6768 31.0058 39.012C30.6508 39.4532 30.2766 39.8693 29.8911 40.2835C29.5991 40.5991 29.3224 40.9229 29.0526 41.2581C28.6977 41.6993 28.3234 42.1154 27.938 42.5295C27.646 42.8452 27.3693 43.169 27.0995 43.5042C26.6988 44.0022 26.2734 44.4704 25.8376 44.9374C25.5814 45.2181 25.3387 45.5055 25.0976 45.7991C24.7463 45.6531 24.5477 45.4547 24.298 45.1705C24.2208 45.0827 24.1437 44.995 24.0642 44.9046C23.839 44.6402 23.6191 44.3724 23.4008 44.1023C23.0413 43.6577 22.6632 43.237 22.274 42.8187C21.9047 42.4196 21.5627 42.0022 21.2218 41.5785C20.9765 41.2835 20.7202 41.0018 20.4589 40.721C20.04 40.2708 19.6479 39.8052 19.2622 39.326C19.0343 39.0504 18.7968 38.7868 18.5546 38.5237C18.2349 38.1764 17.929 37.8234 17.633 37.4556C17.2757 37.0127 16.8996 36.5943 16.5122 36.1781C16.143 35.7789 15.801 35.3616 15.4601 34.9379C15.2148 34.6429 14.9585 34.3612 14.6972 34.0804C14.2803 33.6324 13.8908 33.1688 13.507 32.6918C13.2617 32.3968 13.0054 32.1151 12.744 31.8343C12.3271 31.3863 11.9376 30.9227 11.5539 30.4457C11.3085 30.1507 11.0523 29.869 10.7909 29.5882C10.374 29.1402 9.98452 28.6766 9.60074 28.1996C9.35541 27.9046 9.09913 27.6229 8.8378 27.3421C8.42089 26.8941 8.03139 26.4305 7.64761 25.9535C7.40228 25.6585 7.146 25.3768 6.88467 25.096C6.46776 24.648 6.07827 24.1844 5.69449 23.7074C5.44916 23.4124 5.19288 23.1307 4.93155 22.8499C4.51464 22.4019 4.12514 21.9383 3.74136 21.4614C3.49603 21.1663 3.23975 20.8846 2.97842 20.6038C2.63915 20.2392 2.31429 19.8691 2.00186 19.4808C1.60118 18.9828 1.17577 18.5146 0.73996 18.0476C0.656876 17.9566 0.573792 17.8656 0.48819 17.7718C0.440668 17.7219 0.393147 17.672 0.344185 17.6206C0.00095402 17.2431 0.00095401 17.2431 -0.00390625 16.9768C0.1212 16.7529 0.264011 16.6043 0.451569 16.429C0.711653 16.1843 0.951363 15.9323 1.18318 15.6612C1.56861 15.219 1.97862 14.8058 2.39554 14.3935C2.47315 14.3162 2.55076 14.239 2.63073 14.1594C2.95942 13.8323 3.28869 13.5058 3.61791 13.1792C3.85966 12.9392 4.10112 12.699 4.34256 12.4587C4.41592 12.3861 4.48929 12.3136 4.56487 12.2388C4.95577 11.8497 5.32622 11.451 5.68616 11.0333C5.99915 10.6806 6.33583 10.3517 6.67105 10.0203C6.7465 9.94524 6.82194 9.87016 6.89967 9.79282C7.21903 9.47504 7.53896 9.15786 7.85885 8.84062C8.09382 8.60743 8.32849 8.37394 8.56314 8.14043C8.63437 8.07001 8.7056 7.9996 8.77898 7.92705C8.84711 7.85924 8.91524 7.79144 8.98543 7.72158C9.07374 7.63403 9.07374 7.63403 9.16384 7.54472C9.63971 7.04385 10.0592 6.54215 10.4398 5.96399C12.1768 3.58006 14.7137 3.83987 17.4283 3.86184Z" fill="#CE0044"/>
<path d="M12.4023 4.19922C12.6204 4.52636 12.6752 4.76876 12.7602 5.15175C12.7751 5.21813 12.79 5.28452 12.8054 5.35292C12.8547 5.57248 12.9032 5.79222 12.9517 6.01196C13.0217 6.32508 13.0922 6.63811 13.1626 6.95114C13.1805 7.03116 13.1985 7.11117 13.217 7.19361C13.3812 7.92506 13.5534 8.65453 13.7269 9.38382C14.0163 10.6007 14.2921 11.8198 14.5562 13.0424C14.8277 14.2988 15.1226 15.5488 15.4297 16.7969C15.8581 16.3963 16.1923 15.9536 16.5344 15.4785C17.0369 14.7884 17.5471 14.1053 18.0664 13.4277C18.5612 12.7813 19.0502 12.1313 19.5312 11.4746C20.0768 10.7297 20.6341 9.99449 21.1952 9.26132C21.6795 8.62748 22.1542 7.98725 22.6254 7.34367C23.1427 6.63906 23.6721 5.94403 24.2039 5.25036C24.2667 5.16834 24.3295 5.08633 24.3942 5.00183C24.45 4.92926 24.5057 4.85669 24.5631 4.78191C24.6814 4.62402 24.7929 4.46104 24.9023 4.29688C25.2403 4.43725 25.4068 4.60334 25.6248 4.89464C25.687 4.97697 25.7492 5.0593 25.8133 5.14412C25.9122 5.27762 25.9122 5.27762 26.0132 5.41382C26.0824 5.50597 26.1517 5.59811 26.223 5.69305C26.7217 6.35825 27.2145 7.0278 27.7059 7.69842C28.1319 8.27877 28.5664 8.85217 29.0039 9.42383C29.556 10.1452 30.0991 10.8723 30.6358 11.6051C31.0618 12.1852 31.4962 12.7585 31.9336 13.3301C32.6617 14.2816 33.3771 15.2421 34.082 16.2109C34.1304 16.2772 34.1789 16.3434 34.2288 16.4117C34.5703 16.883 34.5703 16.883 34.5703 16.9922C31.4121 16.9922 28.2539 16.9922 25 16.9922C25 26.4346 25 35.877 25 45.6055C24.8227 45.3395 24.7357 45.1422 24.636 44.8432C24.6034 44.7459 24.5707 44.6487 24.5371 44.5485C24.4839 44.3878 24.4839 44.3878 24.4297 44.2239C24.3917 44.1104 24.3537 43.9968 24.3146 43.8798C24.2091 43.5642 24.104 43.2485 23.9991 42.9327C23.8859 42.5922 23.7722 42.252 23.6586 41.9117C23.436 41.2449 23.2139 40.578 22.992 39.911C22.7336 39.1345 22.4748 38.3582 22.2159 37.5818C21.7541 36.1967 21.2928 34.8114 20.8316 33.4261C20.384 32.0814 19.936 30.7368 19.4877 29.3923C18.9997 27.929 18.512 26.4657 18.0245 25.0022C17.9725 24.8462 17.9206 24.6902 17.8686 24.5341C17.8302 24.419 17.8302 24.419 17.7911 24.3015C17.6108 23.7601 17.4303 23.2188 17.2498 22.6775C17.0299 22.0179 16.8101 21.3581 16.5907 20.6983C16.4786 20.3616 16.3665 20.0249 16.2542 19.6882C16.1325 19.3235 16.0112 18.9587 15.89 18.5938C15.8543 18.4872 15.8186 18.3805 15.7819 18.2706C15.7333 18.124 15.7333 18.124 15.6837 17.9744C15.6557 17.8902 15.6276 17.806 15.5987 17.7192C15.5275 17.4808 15.4785 17.2362 15.4297 16.9922C10.3379 16.9922 5.24609 16.9922 0 16.9922C1.10783 15.6997 2.28905 14.4972 3.49731 13.2996C3.79935 13.0001 4.10104 12.7004 4.40254 12.4004C4.4701 12.3337 4.53766 12.2669 4.60727 12.1982C4.92166 11.8853 5.22554 11.5689 5.51517 11.2329C5.88097 10.8089 6.27308 10.4155 6.67114 10.022C6.74659 9.9469 6.82203 9.87182 6.89976 9.79447C7.21912 9.4767 7.53906 9.15952 7.85894 8.84228C8.09391 8.60909 8.32858 8.37559 8.56323 8.14209C8.63446 8.07167 8.70569 8.00126 8.77907 7.92871C9.16931 7.54032 9.53953 7.14182 9.89893 6.72481C10.1344 6.45663 10.3844 6.2049 10.638 5.95398C10.6891 5.90306 10.7402 5.85215 10.7928 5.79969C10.9527 5.64031 11.1129 5.48128 11.2732 5.32227C11.383 5.21293 11.4928 5.10358 11.6026 4.9942C11.8689 4.72894 12.1355 4.464 12.4023 4.19922Z" fill="#F43141"/>
<path d="M12.5 4.20112C15.6473 4.13401 18.7944 4.0823 21.9423 4.05151C22.3155 4.04785 22.6887 4.04406 23.0619 4.04019C23.1362 4.03942 23.2105 4.03865 23.2871 4.03786C24.4836 4.02517 25.6797 4.00211 26.8759 3.97508C28.1072 3.9475 29.3383 3.93138 30.5699 3.92547C31.2603 3.92184 31.9498 3.91319 32.6399 3.89136C37.3342 3.74717 37.3342 3.74717 38.7981 5.03523C39.4114 5.62181 39.9268 6.2786 40.4129 6.9719C40.7634 7.4587 41.184 7.89828 41.6094 8.32004C41.6795 8.3898 41.7495 8.45956 41.8218 8.53143C41.9318 8.64026 41.9318 8.64026 42.0441 8.75129C42.1217 8.82853 42.1993 8.90577 42.2793 8.98536C42.5251 9.23004 42.7713 9.47441 43.0176 9.7187C43.3424 10.0409 43.6668 10.3634 43.9911 10.6861C44.1011 10.7949 44.1011 10.7949 44.2134 10.906C44.6043 11.2951 44.9747 11.6938 45.3347 12.1115C45.6477 12.4642 45.9844 12.7931 46.3196 13.1245C46.395 13.1995 46.4705 13.2746 46.5482 13.352C46.7871 13.5897 47.0263 13.8271 47.2656 14.0644C47.5813 14.3774 47.8966 14.6908 48.2117 15.0043C48.3185 15.11 48.3185 15.11 48.4275 15.2177C48.8211 15.6095 49.1967 16.0104 49.5574 16.4327C49.699 16.5943 49.8463 16.7464 50 16.8964C49.9678 16.9931 49.9355 17.0898 49.9023 17.1894C47.9134 17.1972 45.9245 17.1999 43.9356 17.1967C43.012 17.1954 42.0886 17.1956 41.1651 17.1998C40.3601 17.2034 39.5552 17.2039 38.7503 17.2007C38.324 17.1991 37.8979 17.1991 37.4717 17.2028C37.0704 17.2061 36.6693 17.2054 36.2679 17.2015C36.1208 17.2008 35.9736 17.2016 35.8265 17.2041C34.7133 17.2211 34.7133 17.2211 34.3562 16.8979C34.2059 16.6749 34.0931 16.4582 33.9844 16.2128C33.8694 16.0549 33.7528 15.8982 33.6334 15.7436C33.5719 15.6635 33.5103 15.5834 33.4469 15.5008C33.3826 15.4176 33.3182 15.3343 33.252 15.2485C32.7404 14.582 32.2344 13.9123 31.7383 13.2343C31.2573 12.5776 30.7682 11.9276 30.2734 11.2812C29.7213 10.5599 29.1783 9.83276 28.6415 9.09995C28.1519 8.43314 27.651 7.77536 27.1474 7.11908C26.8164 6.68664 26.4896 6.25187 26.17 5.81092C26.0764 5.68205 26.0764 5.68205 25.9809 5.55057C25.8626 5.38687 25.7448 5.22273 25.6277 5.05809C25.575 4.98527 25.5223 4.91244 25.4681 4.83741C25.4223 4.77324 25.3765 4.70907 25.3293 4.64296C25.1925 4.46638 25.1925 4.46638 24.9023 4.39643C24.8691 4.4419 24.8359 4.48737 24.8016 4.53421C24.1276 5.45524 23.4476 6.37101 22.7539 7.27729C22.2591 7.92372 21.7701 8.57368 21.2891 9.23042C20.7435 9.97528 20.1863 10.7105 19.6251 11.4437C19.1972 12.0038 18.7758 12.5681 18.3594 13.1367C17.7383 13.9845 17.1029 14.8209 16.4642 15.6555C16.1493 16.0672 15.8374 16.4811 15.5273 16.8964C15.4629 16.8642 15.3984 16.832 15.332 16.7988C15.2564 16.5711 15.2564 16.5711 15.184 16.2659C15.1568 16.1525 15.1296 16.0391 15.1016 15.9223C15.0729 15.7986 15.0442 15.675 15.0146 15.5476C14.9842 15.419 14.9538 15.2904 14.9233 15.1618C14.694 14.1882 14.4832 13.2109 14.2771 12.2322C14.1003 11.3962 13.9062 10.5655 13.7038 9.73529C13.4111 8.53093 13.1421 7.32125 12.8718 6.11171C12.7688 5.65693 12.6612 5.20326 12.5527 4.74977C12.5 4.49409 12.5 4.49409 12.5 4.20112Z" fill="#A00031"/>
<path d="M34.5703 17.0898C39.6299 17.0898 44.6895 17.0898 49.9023 17.0898C49.7019 17.4908 49.4558 17.7936 49.1638 18.1274C49.1113 18.1882 49.0588 18.2489 49.0046 18.3114C48.6306 18.7424 48.2486 19.1658 47.8649 19.5881C47.6455 19.8363 47.4369 20.0912 47.229 20.3491C46.8695 20.7938 46.4914 21.2144 46.1022 21.6327C45.8101 21.9484 45.5334 22.2722 45.2637 22.6074C44.9087 23.0486 44.5345 23.4647 44.149 23.8789C43.857 24.1945 43.5803 24.5183 43.3105 24.8535C42.9556 25.2947 42.5813 25.7108 42.1959 26.125C41.9039 26.4406 41.6272 26.7644 41.3574 27.0996C41.0024 27.5408 40.6282 27.9569 40.2428 28.371C39.9507 28.6867 39.674 29.0105 39.4043 29.3457C39.0493 29.7869 38.6751 30.2029 38.2896 30.6171C37.9976 30.9328 37.7209 31.2565 37.4512 31.5918C37.0962 32.033 36.722 32.449 36.3365 32.8632C36.0445 33.1789 35.7678 33.5026 35.498 33.8379C35.1431 34.2791 34.7688 34.6951 34.3834 35.1093C34.0914 35.425 33.8147 35.7487 33.5449 36.084C33.2325 36.4723 32.9076 36.8424 32.5684 37.207C32.1495 37.6572 31.7574 38.1228 31.3717 38.6021C31.0662 38.9713 30.7409 39.3208 30.4165 39.6732C30.1829 39.9335 29.9617 40.2 29.7424 40.4724C29.3852 40.9153 29.009 41.3337 28.6217 41.7499C28.3297 42.0656 28.053 42.3894 27.7832 42.7246C27.4288 43.1651 27.0555 43.5808 26.6703 43.9939C26.2833 44.4116 25.9263 44.8477 25.5737 45.295C25.3906 45.5078 25.3906 45.5078 25.0977 45.7031C25.2385 45.0076 25.4385 44.3467 25.6643 43.6744C25.7207 43.5047 25.7207 43.5047 25.7782 43.3317C25.8819 43.02 25.986 42.7084 26.0903 42.3968C26.2029 42.06 26.315 41.7231 26.4272 41.3861C26.6467 40.7271 26.8666 40.0682 27.0868 39.4094C27.343 38.6423 27.5988 37.875 27.8546 37.1078C28.3108 35.7393 28.7675 34.3709 29.2243 33.0027C29.6678 31.6744 30.1111 30.346 30.554 29.0176C30.5813 28.9356 30.6087 28.8537 30.6368 28.7693C30.6918 28.6043 30.7468 28.4393 30.8019 28.2743C30.829 28.1929 30.8561 28.1115 30.8841 28.0276C30.9112 27.9464 30.9382 27.8652 30.9661 27.7816C31.3882 26.5158 31.8104 25.2502 32.2327 23.9845C32.3859 23.5255 32.539 23.0665 32.6921 22.6075C32.9347 21.8799 33.1775 21.1524 33.4205 20.425C33.5315 20.0925 33.6425 19.76 33.7534 19.4275C33.8733 19.0677 33.9935 18.7079 34.1137 18.3482C34.149 18.2422 34.1843 18.1362 34.2207 18.0271C34.2688 17.8834 34.2688 17.8834 34.3178 17.7368C34.3594 17.6122 34.3594 17.6122 34.4019 17.485C34.4727 17.2852 34.4727 17.2852 34.5703 17.0898Z" fill="#A00031"/>
<path d="M37.5 4.19922C38.1018 4.69332 38.6501 5.23674 39.199 5.7878C39.3548 5.94414 39.5111 6.09995 39.6675 6.25572C39.769 6.35729 39.8705 6.45889 39.9719 6.56052C40.0622 6.65089 40.1524 6.74126 40.2454 6.83436C40.4563 7.05019 40.6549 7.27403 40.8518 7.5026C41.2299 7.93833 41.634 8.3439 42.0441 8.74939C42.1217 8.82663 42.1993 8.90387 42.2793 8.98346C42.5251 9.22814 42.7713 9.47251 43.0176 9.7168C43.3424 10.039 43.6668 10.3615 43.9911 10.6842C44.0645 10.7568 44.1378 10.8293 44.2134 10.9041C44.6043 11.2932 44.9747 11.6919 45.3347 12.1096C45.6477 12.4623 45.9844 12.7912 46.3196 13.1226C46.395 13.1976 46.4705 13.2727 46.5482 13.3501C46.7871 13.5878 47.0263 13.8252 47.2656 14.0625C47.5813 14.3755 47.8966 14.6889 48.2117 15.0024C48.3185 15.1081 48.3185 15.1081 48.4275 15.2158C48.9921 15.7777 49.5218 16.3545 50 16.9922C44.9404 16.9922 39.8809 16.9922 34.668 16.9922C34.7778 16.0033 34.7778 16.0033 34.8759 15.5708C34.898 15.4724 34.92 15.3739 34.9428 15.2725C34.9669 15.1672 34.991 15.062 35.0159 14.9536C35.0414 14.8403 35.067 14.7269 35.0933 14.6102C35.1788 14.2322 35.265 13.8543 35.3516 13.4766C35.3668 13.41 35.382 13.3435 35.3977 13.275C35.4775 12.9264 35.5574 12.5777 35.6373 12.2291C35.6617 12.1228 35.6617 12.1228 35.6865 12.0143C35.7197 11.8697 35.7529 11.725 35.7861 11.5804C36.0259 10.5353 36.2592 9.489 36.4868 8.44116C36.7015 7.45326 36.9199 6.46632 37.146 5.48096C37.1705 5.37351 37.195 5.26606 37.2202 5.15535C37.2428 5.05761 37.2654 4.95987 37.2887 4.85916C37.3182 4.73097 37.3182 4.73097 37.3483 4.60019C37.4023 4.39453 37.4023 4.39453 37.5 4.19922Z" fill="#F43140"/>
<path d="M12.4023 4.19922C12.6204 4.52636 12.6752 4.76876 12.7602 5.15175C12.7751 5.21813 12.79 5.28452 12.8054 5.35292C12.8547 5.57248 12.9032 5.79222 12.9517 6.01196C13.0217 6.32508 13.0922 6.63811 13.1626 6.95114C13.1805 7.03116 13.1985 7.11117 13.217 7.19361C13.3812 7.92509 13.5534 8.65458 13.727 9.3839C14.0332 10.6719 14.3251 11.9624 14.6046 13.2565C14.7312 13.8422 14.8592 14.4275 14.9948 15.0112C15.0179 15.1106 15.041 15.2101 15.0647 15.3125C15.1071 15.4939 15.1499 15.6751 15.1932 15.8563C15.2117 15.9354 15.2302 16.0146 15.2493 16.0961C15.2734 16.1975 15.2734 16.1975 15.2981 16.3008C15.332 16.5039 15.332 16.5039 15.332 16.9922C10.2725 16.9922 5.21289 16.9922 0 16.9922C1.10783 15.6997 2.28905 14.4972 3.49731 13.2996C3.79935 13.0001 4.10104 12.7004 4.40254 12.4004C4.4701 12.3337 4.53766 12.2669 4.60727 12.1982C4.92166 11.8853 5.22554 11.5689 5.51517 11.2329C5.88097 10.8089 6.27308 10.4155 6.67114 10.022C6.74659 9.9469 6.82203 9.87182 6.89976 9.79447C7.21912 9.4767 7.53906 9.15952 7.85894 8.84228C8.09391 8.60909 8.32858 8.37559 8.56323 8.14209C8.63446 8.07167 8.70569 8.00126 8.77907 7.92871C9.16931 7.54032 9.53953 7.14182 9.89893 6.72481C10.1344 6.45663 10.3844 6.2049 10.638 5.95398C10.6891 5.90306 10.7402 5.85215 10.7928 5.79969C10.9527 5.64031 11.1129 5.48128 11.2732 5.32227C11.383 5.21293 11.4928 5.10358 11.6026 4.9942C11.8689 4.72894 12.1355 4.464 12.4023 4.19922Z" fill="#FD7D51"/>
<path d="M12.5 4.19922C16.6572 4.19922 20.8145 4.19922 25.0977 4.19922C24.4421 5.07333 24.4421 5.07333 24.2035 5.37605C23.5564 6.20066 22.9228 7.03299 22.304 7.87899C21.8749 8.46443 21.4373 9.04284 20.9961 9.61914C20.5013 10.2656 20.0123 10.9155 19.5312 11.5723C18.9865 12.316 18.4304 13.0504 17.8696 13.7821C17.3588 14.4501 16.8589 15.1255 16.3675 15.8079C16.0792 16.2043 15.788 16.5595 15.4297 16.8945C15.1528 16.2272 15.0055 15.5566 14.8621 14.8499C14.6756 13.9553 14.4808 13.0642 14.2639 12.1765C14.0153 11.1563 13.7806 10.1334 13.5509 9.10871C13.5222 8.98054 13.4935 8.85238 13.4647 8.72421C13.4503 8.65962 13.4358 8.59504 13.4208 8.52849C13.3038 8.00787 13.1843 7.48784 13.0642 6.96793C13.0278 6.81011 12.9914 6.65229 12.955 6.49447C12.9018 6.26358 12.8485 6.03271 12.7948 5.80192C12.7452 5.58869 12.696 5.37538 12.6469 5.16205C12.6043 4.97846 12.6043 4.97846 12.5609 4.79116C12.5 4.49219 12.5 4.49219 12.5 4.19922Z" fill="#CE0045"/>
<path d="M24.9023 4.29688C24.9346 4.29688 24.9668 4.29688 25 4.29688C25 8.48633 25 12.6758 25 16.9922C21.874 16.9922 18.748 16.9922 15.5273 16.9922C15.6761 16.6203 15.7578 16.4298 15.9927 16.1369C16.0467 16.0688 16.1007 16.0006 16.1563 15.9304C16.2146 15.8578 16.2729 15.7852 16.333 15.7104C16.8206 15.0938 17.2977 14.4716 17.7612 13.8367C18.2461 13.1736 18.7389 12.5174 19.2383 11.8652C19.7331 11.2188 20.2221 10.5688 20.7031 9.91211C21.1841 9.25537 21.6732 8.60542 22.168 7.95898C22.7931 7.14218 23.4072 6.31793 24.015 5.4882C24.1155 5.3515 24.2159 5.21481 24.3164 5.07812C24.3983 4.96608 24.3983 4.96608 24.4819 4.85177C24.5348 4.78006 24.5877 4.70836 24.6422 4.63448C24.7136 4.53719 24.7136 4.53719 24.7865 4.43795C24.8439 4.36812 24.8439 4.36812 24.9023 4.29688Z" fill="#FD7D51"/>
</g>
<defs>
<clipPath id="clip0_3130_42722">
<rect width="50" height="50" fill="white"/>
</clipPath>
</defs>
</svg>
