<svg width="50" height="50" viewBox="0 0 50 50" fill="none" xmlns="http://www.w3.org/2000/svg">
<path d="M31.9503 3.01672C32.304 3.19676 32.5314 3.3847 32.7405 3.71914C32.8208 4.01068 32.8208 4.01068 32.8832 4.34474C32.9043 4.45363 32.9253 4.56251 32.947 4.67469C33.4113 7.4564 33.0989 10.1853 31.5991 12.5873C31.6586 12.5903 31.7181 12.5933 31.7794 12.5964C35.332 12.7896 38.1383 13.8932 40.7307 16.3628C40.7992 16.4258 40.8678 16.4887 40.9385 16.5535C43.7732 19.2369 44.6061 23.3257 45.1428 27.0255C45.156 27.1166 45.1693 27.2078 45.183 27.3018C45.2247 27.6063 45.2615 27.9109 45.2964 28.2163C45.3041 28.283 45.3118 28.3497 45.3196 28.4184C45.4723 29.7876 45.504 31.1474 45.4995 32.5242C45.4993 32.6306 45.499 32.7371 45.4988 32.8468C45.4938 34.4196 45.4686 35.9686 45.2086 37.5235C45.1986 37.5836 45.1886 37.6437 45.1783 37.7056C44.8879 39.4326 44.524 41.1251 43.9794 42.7917C43.9463 42.8969 43.9463 42.8969 43.9126 43.0043C43.3421 44.8173 42.4167 46.3487 40.6789 47.2559C39.6499 47.7496 38.7354 48.0065 37.5917 47.9995C37.46 47.9988 37.46 47.9988 37.3257 47.998C34.7274 47.9567 32.1259 47.2728 29.6674 46.4794C29.5732 46.4492 29.479 46.419 29.3819 46.3879C27.8572 45.8939 26.388 45.2909 24.926 44.6356C24.8514 44.6021 24.7769 44.5687 24.7 44.5343C19.8362 42.3388 15.1335 39.5604 13.1144 34.3776C12.673 33.1417 12.4096 31.8109 12.3701 30.4992C12.3649 30.3652 12.3649 30.3652 12.3595 30.2286C12.3277 28.7132 12.5759 27.1605 13.1604 25.7578C13.0661 25.7848 13.0661 25.7848 12.97 25.8123C10.2541 26.5467 7.39682 25.77 5.00014 24.4188C4.1871 23.9498 4.1871 23.9498 4.02881 23.4749C4.01627 23.3326 4.00946 23.1897 4.00686 23.0469C4.0046 22.9729 4.00233 22.8988 4 22.8226C4.10865 21.9715 5.21512 21.1669 5.84593 20.6614C7.08836 19.7074 8.50763 18.837 10.0872 18.6457C10.0872 18.5878 10.0872 18.5298 10.0872 18.4701C10.0092 18.4362 10.0092 18.4362 9.92948 18.4015C9.58511 18.211 9.3689 17.8924 9.12141 17.5921C9.06391 17.5236 9.00642 17.4551 8.94718 17.3846C7.69846 15.8672 7.69846 15.8672 7.7608 15.0657C7.86207 14.6112 8.12698 14.3252 8.50679 14.08C8.74075 13.9854 8.97 13.9005 9.20921 13.822C9.27804 13.7993 9.34686 13.7766 9.41777 13.7532C10.5073 13.4067 11.6645 13.1589 12.8092 13.1141C12.9119 13.1073 12.9119 13.1073 13.0167 13.1004C14.7071 13.0373 16.3239 13.4899 17.814 14.2556C17.2318 13.3905 16.6424 12.5346 16.0113 11.7043C15.6815 11.2693 15.3625 10.8275 15.0481 10.3812C15.0049 10.3199 14.9617 10.2585 14.9171 10.1953C14.7992 10.0272 14.6821 9.85857 14.5652 9.68978C14.5301 9.64007 14.4949 9.59036 14.4587 9.53914C14.2356 9.21753 14.1467 9.03153 14.214 8.63614C14.3873 8.33617 14.4937 8.22147 14.8231 8.10932C15.161 8.10932 15.2601 8.17026 15.5311 8.37273C15.7253 8.59896 15.8937 8.84118 16.0634 9.08613C16.1131 9.15647 16.1629 9.22682 16.2141 9.29929C16.3677 9.51673 16.5201 9.73492 16.6725 9.95319C16.8051 10.1415 16.938 10.3295 17.0709 10.5176C17.1566 10.639 17.2422 10.7604 17.3276 10.882C17.7083 11.4229 18.0954 11.9591 18.4845 12.494C18.7372 12.8423 18.983 13.1932 19.2188 13.5531C19.2051 13.4437 19.1914 13.3342 19.1773 13.2215C18.7955 9.97602 19.7749 7.27288 21.7665 4.72168C22.1438 4.26649 22.3833 4.0955 22.9834 4.03743C23.3622 4.01999 23.666 4.19872 23.9602 4.42157C24.1421 4.61891 24.2868 4.83301 24.4321 5.05815C24.4727 5.11893 24.5133 5.17971 24.555 5.24233C24.9773 5.88501 25.3518 6.55456 25.7163 7.23128C25.7644 7.16971 25.8125 7.10814 25.862 7.0447C26.0806 6.77612 26.3102 6.51983 26.5449 6.26544C26.5857 6.22085 26.6265 6.17625 26.6686 6.13031C27.8734 4.81963 30.005 2.79552 31.9503 3.01672Z" fill="#FE0B37"/>
<path d="M31.9503 3.01672C32.304 3.19676 32.5314 3.3847 32.7405 3.71914C32.8208 4.01068 32.8208 4.01068 32.8832 4.34474C32.9043 4.45363 32.9253 4.56251 32.947 4.67469C33.3948 7.35776 33.1773 10.2957 31.5991 12.5873C31.2925 12.7917 31.118 12.7988 30.754 12.8342C28.7515 13.0722 27.0562 13.9581 25.4692 15.165C25.1616 15.396 24.8463 15.6157 24.5309 15.836C24.0158 16.1979 23.5041 16.5642 22.9944 16.9336C22.4846 17.3029 21.9727 17.669 21.4578 18.0311C20.7444 18.533 20.0371 19.0431 19.3307 19.5549C19.1306 19.6997 18.93 19.844 18.7294 19.9882C15.5147 22.2658 15.5147 22.2658 13.3871 25.529C13.2482 25.7578 13.2482 25.7578 13.0129 25.8638C12.7112 25.921 12.4105 25.976 12.1067 26.0212C12.0206 26.0348 11.9345 26.0484 11.8457 26.0624C9.31593 26.3557 6.56399 25.4889 4.46783 24.0895C4.17972 23.835 4.04561 23.6655 4.01098 23.2726C4.00962 23.1981 4.00826 23.1236 4.00686 23.0469C4.0046 22.9729 4.00233 22.8988 4 22.8226C4.10865 21.9715 5.21512 21.1669 5.84593 20.6614C7.08836 19.7074 8.50763 18.837 10.0872 18.6457C10.0872 18.5878 10.0872 18.5298 10.0872 18.4701C10.0092 18.4362 10.0092 18.4362 9.92948 18.4015C9.58511 18.211 9.3689 17.8924 9.12141 17.5921C9.06391 17.5236 9.00642 17.4551 8.94718 17.3846C7.69846 15.8672 7.69846 15.8672 7.7608 15.0657C7.86207 14.6112 8.12698 14.3252 8.50679 14.08C8.74075 13.9854 8.96999 13.9005 9.20921 13.822C9.27804 13.7993 9.34686 13.7766 9.41777 13.7532C10.5073 13.4067 11.6645 13.1589 12.8092 13.1141C12.9119 13.1073 12.9119 13.1073 13.0167 13.1004C14.7071 13.0373 16.3239 13.4899 17.814 14.2556C17.2318 13.3905 16.6424 12.5346 16.0113 11.7043C15.6815 11.2693 15.3625 10.8275 15.0481 10.3812C15.0049 10.3199 14.9617 10.2585 14.9171 10.1953C14.7992 10.0272 14.6821 9.85857 14.5652 9.68978C14.5301 9.64007 14.4949 9.59036 14.4587 9.53914C14.2356 9.21753 14.1467 9.03153 14.214 8.63614C14.3873 8.33617 14.4937 8.22147 14.8231 8.10932C15.161 8.10932 15.2601 8.17026 15.5311 8.37273C15.7253 8.59896 15.8937 8.84118 16.0634 9.08613C16.1131 9.15647 16.1629 9.22682 16.2141 9.29929C16.3677 9.51673 16.5201 9.73492 16.6725 9.95319C16.8051 10.1415 16.938 10.3295 17.0709 10.5176C17.1566 10.639 17.2422 10.7604 17.3276 10.882C17.7083 11.4229 18.0954 11.9591 18.4845 12.494C18.7372 12.8423 18.983 13.1932 19.2188 13.5531C19.2051 13.4437 19.1914 13.3342 19.1773 13.2215C18.7955 9.97602 19.7749 7.27288 21.7665 4.72168C22.1438 4.26649 22.3833 4.0955 22.9834 4.03743C23.3622 4.01999 23.666 4.19872 23.9602 4.42157C24.1421 4.61891 24.2868 4.83301 24.4321 5.05815C24.4727 5.11893 24.5132 5.17971 24.555 5.24233C24.9773 5.88501 25.3518 6.55456 25.7163 7.23128C25.7644 7.16971 25.8125 7.10814 25.862 7.0447C26.0806 6.77612 26.3102 6.51983 26.5449 6.26544C26.5857 6.22085 26.6265 6.17625 26.6686 6.13031C27.8734 4.81963 30.005 2.79552 31.9503 3.01672Z" fill="#4CB967"/>
<path d="M16.6725 21.3672C16.7159 21.4541 16.7159 21.4541 16.7603 21.5428C16.6691 21.7373 16.6691 21.7373 16.5298 21.9763C16.0335 22.8609 15.7006 23.7219 15.4432 24.7037C15.4242 24.7698 15.4052 24.8359 15.3856 24.904C14.6388 27.5839 15.3331 30.6023 16.4969 33.045C16.5225 33.0997 16.5482 33.1543 16.5746 33.2106C17.414 34.9729 18.7187 36.4427 20.245 37.6383C20.293 37.6763 20.341 37.7143 20.3905 37.7535C20.6607 37.962 20.9093 38.1287 21.2383 38.2255C21.3216 38.2092 21.4049 38.1929 21.4907 38.1761C21.8496 38.1258 22.0854 38.2036 22.3797 38.4011C22.7887 38.777 22.995 39.1054 23.1699 39.6303C23.3722 39.7239 23.3722 39.7239 23.609 39.8059C23.756 39.8783 23.9021 39.9527 24.0473 40.0289C24.131 40.0727 24.2148 40.1165 24.3011 40.1616C24.3878 40.2072 24.4745 40.2528 24.5638 40.2998C24.6471 40.3434 24.7304 40.387 24.8163 40.4319C25.1926 40.6291 25.5687 40.8266 25.9418 41.03C26.7062 41.4455 27.4809 41.8194 28.279 42.1656C28.3389 42.1918 28.3989 42.2179 28.4607 42.2448C30.9426 43.3238 33.5134 44.1761 36.1649 44.7229C36.2439 44.7393 36.3229 44.7557 36.4044 44.7726C38.6101 45.2254 40.6664 45.5466 42.8252 44.7027C43.0135 44.6351 43.0135 44.6351 43.1891 44.6351C43.0492 45.0828 42.7735 45.4143 42.4867 45.7765C42.4316 45.849 42.3765 45.9214 42.3197 45.9961C41.4083 47.0823 39.9192 47.7723 38.5355 47.9716C38.2204 47.9964 37.9077 48.001 37.5917 47.9991C37.5039 47.9986 37.4161 47.9981 37.3257 47.9976C34.7273 47.9563 32.1259 47.2723 29.6674 46.479C29.5732 46.4488 29.4789 46.4186 29.3819 46.3874C27.8572 45.8934 26.3879 45.2905 24.926 44.6351C24.8514 44.6017 24.7768 44.5683 24.7 44.5339C19.8362 42.3383 15.1335 39.5599 13.1144 34.3772C12.673 33.1413 12.4096 31.8105 12.3701 30.4987C12.3666 30.4094 12.3631 30.3201 12.3595 30.2281C12.2961 27.2038 13.4175 24.6182 15.4377 22.4105C15.8141 22.0185 16.2376 21.6916 16.6725 21.3672Z" fill="#C70024"/>
<path d="M20.8869 5.91406C22.0819 7.03272 22.8492 8.99786 23.1698 10.5676C23.1849 10.633 23.2001 10.6984 23.2156 10.7657C23.518 12.1303 23.4356 13.5488 22.9942 14.87C22.9624 14.9688 22.9306 15.0676 22.8978 15.1694C22.6438 15.8918 22.2779 16.52 21.8528 17.1529C21.808 17.2319 21.808 17.2319 21.7624 17.3125C21.4641 17.8022 21.1233 17.9316 20.5796 18.0694C20.4964 18.0911 20.4132 18.1128 20.3275 18.1352C18.0947 18.6544 15.8159 18.3339 13.8672 17.1355C13.1674 16.6794 12.5328 16.1511 11.931 15.5724C11.8103 15.4585 11.8103 15.4585 11.6871 15.3423C11.1398 14.8131 10.6882 14.271 10.2627 13.6408C10.5045 13.3989 10.7663 13.3844 11.0913 13.328C11.1547 13.3166 11.2181 13.3053 11.2835 13.2936C11.7906 13.2054 12.2946 13.1401 12.809 13.1139C12.8779 13.1093 12.9469 13.1047 13.0179 13.0999C14.7086 13.039 16.3234 13.4895 17.8138 14.2554C17.2316 13.3903 16.6422 12.5344 16.0112 11.7042C15.6814 11.2691 15.3624 10.8273 15.048 10.3811C15.0047 10.3197 14.9615 10.2583 14.9169 10.1951C14.799 10.027 14.682 9.8584 14.5651 9.68961C14.5123 9.61505 14.5123 9.61505 14.4586 9.53898C14.2355 9.21736 14.1465 9.03137 14.2139 8.63597C14.3872 8.336 14.4935 8.2213 14.823 8.10915C15.1608 8.10915 15.2599 8.17009 15.5309 8.37256C15.7251 8.59879 15.8935 8.84102 16.0632 9.08596C16.113 9.15631 16.1627 9.22665 16.214 9.29913C16.3675 9.51657 16.52 9.73476 16.6723 9.95302C16.8049 10.1413 16.9378 10.3294 17.0707 10.5174C17.1564 10.6388 17.242 10.7603 17.3275 10.8818C17.7081 11.4227 18.0952 11.9589 18.4843 12.4938C18.7371 12.8421 18.9828 13.193 19.2186 13.553C19.205 13.4435 19.1913 13.3341 19.1771 13.2213C18.8653 10.5707 19.3934 8.15432 20.8869 5.91406Z" fill="#63C27C"/>
<path d="M10.2841 18.6192C10.4397 18.735 10.5749 18.8557 10.7128 18.992C12.4825 20.5643 14.6305 21.1037 16.9359 21.1926C16.6607 21.4756 16.3815 21.7311 16.0689 21.9718C15.0747 22.7639 14.2795 23.718 13.7473 24.8778C13.3703 25.6888 13.3703 25.6888 12.9854 25.9079C12.6875 25.9808 12.4129 26.0086 12.1067 26.0218C12.0213 26.0341 11.9358 26.0464 11.8478 26.0591C9.33415 26.3844 6.54742 25.4784 4.46783 24.0901C4.17972 23.8355 4.04561 23.666 4.01098 23.2731C4.00962 23.1986 4.00826 23.1241 4.00686 23.0474C4.0046 22.9734 4.00233 22.8994 4 22.8231C4.10865 21.972 5.21512 21.1675 5.84593 20.662C6.95327 19.8117 8.13488 19.1428 9.47263 18.7341C9.57845 18.6977 9.68428 18.6614 9.79331 18.624C10.0872 18.5585 10.0872 18.5585 10.2841 18.6192Z" fill="#368A4B"/>
<path d="M31.9506 3.0188C32.3042 3.19884 32.5316 3.38678 32.7408 3.72122C32.821 4.01276 32.821 4.01276 32.8835 4.34682C32.9045 4.45571 32.9256 4.56459 32.9473 4.67677C33.3951 7.35984 33.1775 10.2978 31.5993 12.5894C31.2927 12.7938 31.1183 12.8009 30.7542 12.8363C29.0979 13.0332 27.397 13.6788 26.0677 14.6967C26.1045 14.3514 26.161 14.0511 26.2817 13.7253C26.9274 11.8611 26.5625 9.88623 25.9189 8.08464C25.6963 7.45419 25.6963 7.45419 25.7954 7.23268C26.2852 6.5304 26.8518 5.89144 27.4726 5.30169C27.525 5.25075 27.5774 5.19982 27.6314 5.14734C28.6773 4.16856 30.4565 2.84891 31.9506 3.0188Z" fill="#368A4C"/>
<path d="M10.2839 18.6192C10.4395 18.735 10.5747 18.8557 10.7126 18.992C12.4823 20.5643 14.6303 21.1037 16.9357 21.1926C16.6519 21.4845 16.3618 21.7485 16.0412 21.9993C15.8314 22.1637 15.6315 22.3211 15.443 22.5096C15.2203 22.5914 15.0001 22.6653 14.7735 22.7346C14.7132 22.754 14.6529 22.7734 14.5907 22.7934C12.191 23.5386 9.40377 22.926 7.22785 21.7985C7.06843 21.7141 6.90945 21.629 6.75051 21.5438C6.66573 21.5009 6.58096 21.458 6.49361 21.4138C6.42265 21.377 6.35168 21.3402 6.27856 21.3023C6.21993 21.272 6.1613 21.2417 6.1009 21.2104C5.92804 21.0805 5.86682 20.951 5.78467 20.7535C6.91093 19.8513 8.08675 19.1574 9.47241 18.7341C9.57824 18.6977 9.68407 18.6614 9.7931 18.624C10.087 18.5585 10.087 18.5585 10.2839 18.6192Z" fill="#3FA359"/>
<path d="M29.9311 3.63281C30.0024 4.07511 30.0361 4.50816 30.0429 4.95638C30.044 5.0229 30.0451 5.08942 30.0462 5.15796C30.0833 7.92262 30.0833 7.92262 29.5799 9.25223C29.5573 9.3144 29.5347 9.37657 29.5115 9.44062C28.9729 10.892 28.0019 12.3435 26.6823 13.2034C26.6244 13.2034 26.5664 13.2034 26.5067 13.2034C26.5131 13.1342 26.5194 13.0651 26.5259 12.9938C26.6751 11.2431 26.5091 9.73622 25.9189 8.08404C25.6963 7.45358 25.6963 7.45358 25.7954 7.23207C26.2852 6.5298 26.8518 5.89083 27.4726 5.30108C27.525 5.25015 27.5774 5.19921 27.6314 5.14674C28.2001 4.61451 28.833 4.21675 29.4921 3.80842C29.7555 3.63281 29.7555 3.63281 29.9311 3.63281Z" fill="#3EA359"/>
<path d="M15.3553 8.1972C15.5203 8.3392 15.5203 8.3392 15.6681 8.53744C15.7275 8.61667 15.787 8.6959 15.8482 8.77753C16.1574 9.21212 16.4562 9.65407 16.7549 10.0959C17.0667 10.5557 17.3892 11.0041 17.726 11.4459C17.9023 11.6796 18.0777 11.9138 18.2528 12.1484C18.3013 12.2131 18.3499 12.2778 18.3998 12.3444C19.0567 13.2295 19.5319 14.061 19.8768 15.1086C20.0172 15.53 20.2192 15.9025 20.4507 16.281C20.4787 16.337 20.5068 16.393 20.5357 16.4507C20.5067 16.5087 20.4778 16.5666 20.4479 16.6263C20.3978 16.5668 20.3476 16.5073 20.296 16.4459C19.8087 15.8866 19.3053 15.4307 18.7073 14.992C18.1053 14.5396 17.6819 14.1106 17.2705 13.4764C17.1709 13.3267 17.0709 13.1771 16.9708 13.0278C16.9209 12.9535 16.8711 12.8792 16.8198 12.8026C16.6027 12.4857 16.3729 12.1794 16.1401 11.874C15.7666 11.3828 15.4034 10.8858 15.048 10.3813C15.0048 10.32 14.9615 10.2586 14.917 10.1954C14.799 10.0273 14.682 9.85865 14.5651 9.68986C14.5124 9.6153 14.5124 9.6153 14.4586 9.53923C14.2355 9.21761 14.1466 9.03162 14.2139 8.63622C14.5307 8.14454 14.7913 8.04768 15.3553 8.1972Z" fill="#368B4C"/>
<path d="M36.4942 26.2773C37.1193 26.4817 37.5151 26.8788 37.8411 27.439C38.023 27.8052 38.0653 28.1633 38.0088 28.5657C37.8716 28.7907 37.8716 28.7907 37.6576 28.9169C37.2397 28.941 36.9966 28.8214 36.6807 28.5657C36.1973 28.1039 35.8828 27.6328 35.8521 26.9523C35.8518 26.7363 35.8518 26.7363 35.9015 26.5462C36.1123 26.3443 36.1989 26.2841 36.4942 26.2773Z" fill="#060001"/>
<path d="M30.2818 18.4704C30.8194 18.7334 31.1462 19.18 31.4233 19.6997C31.5259 20.025 31.5358 20.3248 31.5111 20.6655C31.3758 20.8496 31.3012 20.9203 31.0738 20.9571C30.4807 20.9046 30.1394 20.6762 29.755 20.2265C29.4457 19.7858 29.2734 19.2763 29.316 18.7338C29.5631 18.3013 29.834 18.3414 30.2818 18.4704Z" fill="#070001"/>
<path d="M21.7376 38.1289C22.213 38.2119 22.5127 38.4822 22.8187 38.8423C23.1627 39.3555 23.3444 39.8047 23.2577 40.4228C23.1644 40.5984 23.1644 40.5984 22.9943 40.6862C22.5884 40.7578 22.3481 40.696 22.0175 40.4667C21.5961 40.1222 21.3219 39.7081 21.1504 39.1935C21.1326 39.0042 21.1326 39.0042 21.1284 38.7984C21.1262 38.7305 21.1239 38.6626 21.1216 38.5926C21.1504 38.4033 21.1504 38.4033 21.2632 38.2476C21.4138 38.1399 21.4138 38.1399 21.7376 38.1289Z" fill="#050001"/>
<path d="M38.2721 41.8393C38.8311 42.0806 39.2979 42.5819 39.5381 43.1368C39.628 43.459 39.6452 43.7803 39.5892 44.1102C39.5312 44.1971 39.4733 44.284 39.4136 44.3736C39.0106 44.4282 38.7387 44.426 38.3929 44.2035C37.9709 43.8657 37.6522 43.3917 37.4819 42.8809C37.4326 42.2594 37.4326 42.2594 37.6191 41.9535C37.8539 41.8151 38.0035 41.782 38.2721 41.8393Z" fill="#060001"/>
<path d="M31.0066 38.0508C31.6759 38.2292 32.0053 38.6056 32.3751 39.1761C32.5772 39.5552 32.5962 39.9063 32.5651 40.3337C32.4299 40.5178 32.3553 40.5884 32.1278 40.6252C31.4592 40.566 31.1108 40.25 30.6873 39.7513C30.3936 39.3246 30.3692 38.8159 30.4579 38.3142C30.6405 38.062 30.6836 38.0508 31.0066 38.0508Z" fill="#050001"/>
<path d="M41.3084 34.0315C41.7844 34.1837 42.108 34.5543 42.3933 34.95C42.5391 35.2674 42.5892 35.5563 42.5963 35.9048C42.5986 35.972 42.6008 36.0391 42.6032 36.1082C42.5744 36.2945 42.5744 36.2945 42.4588 36.4502C42.3109 36.5579 42.3109 36.5579 42.0311 36.5634C41.4274 36.3951 41.0442 36.0762 40.736 35.5317C40.5167 35.1013 40.4322 34.7634 40.4671 34.275C40.7101 33.9434 40.9283 33.9757 41.3084 34.0315Z" fill="#050001"/>
<path d="M28.6136 28.4799C29.1384 28.8264 29.5548 29.2841 29.755 29.8848C29.7729 30.0741 29.7729 30.0741 29.777 30.2799C29.7793 30.3478 29.7815 30.4157 29.7839 30.4857C29.7479 30.7223 29.681 30.7963 29.4916 30.9384C29.1622 30.9897 28.9981 30.9557 28.7014 30.8012C28.1727 30.3717 27.7167 29.876 27.6231 29.1724C27.6118 28.9166 27.623 28.7067 27.7356 28.4745C28.0392 28.3321 28.3082 28.3727 28.6136 28.4799Z" fill="#040000"/>
<path d="M20.5357 23.5625C21.091 23.5917 21.4527 23.6912 21.8527 24.0893C22.1906 24.5372 22.3914 24.9314 22.4015 25.4997C22.4038 25.5767 22.406 25.6538 22.4083 25.7332C22.3988 25.7992 22.3893 25.8652 22.3795 25.9332C22.0635 26.1439 21.9624 26.1651 21.5893 26.1088C20.9969 25.7824 20.5967 25.3145 20.3326 24.6985C20.2674 24.4199 20.2413 24.1985 20.2723 23.9137C20.404 23.7052 20.404 23.7052 20.5357 23.5625Z" fill="#050001"/>
<path d="M38.8869 17.2396C39.4382 17.5211 39.8877 17.9995 40.1546 18.5567C40.3028 19.3469 40.3028 19.3469 40.1052 19.6981C39.8551 19.8315 39.6939 19.8244 39.4138 19.7859C38.7965 19.4644 38.3534 18.9529 38.1379 18.2922C38.0575 17.9512 38.0152 17.6434 38.1955 17.3329C38.4447 17.1917 38.6043 17.2008 38.8869 17.2396Z" fill="#040000"/>
<path d="M18.253 31.1122C18.7598 31.4412 19.1748 31.8658 19.3945 32.4292C19.4293 32.7548 19.4408 33.0704 19.3945 33.3951C19.2188 33.5707 19.2188 33.5707 18.8896 33.6036C18.4967 33.5901 18.288 33.4854 17.9896 33.2195C17.5263 32.6154 17.2261 32.1453 17.2872 31.3756C17.4721 31.0056 17.8911 31.0145 18.253 31.1122Z" fill="#040001"/>
</svg>
