<svg width="50" height="50" viewBox="0 0 50 50" fill="none" xmlns="http://www.w3.org/2000/svg">
<path d="M26.8601 6.07928C27.0597 6.21943 27.2537 6.36514 27.4474 6.51339C28.2212 7.07955 29.0003 7.53591 29.8827 7.9111C29.945 7.93799 30.0073 7.96488 30.0715 7.99259C31.9013 8.75472 33.9658 8.88565 35.916 9.13218C36.0159 9.14483 36.1157 9.15747 36.2187 9.17049C36.7128 9.23282 37.207 9.2941 37.7015 9.35344C42.5891 9.94825 42.5891 9.94825 43.9932 11.3253C44.4705 11.9707 44.4837 12.5761 44.4762 13.3554C44.4752 13.4677 44.4743 13.58 44.4733 13.6957C44.393 17.6992 43.1399 21.8505 42.0282 25.6765C41.9494 25.951 41.8944 26.1783 41.8944 26.4658C41.9503 26.4794 42.0061 26.4931 42.0637 26.5072C44.5472 27.1239 46.5342 28.0759 48.4373 29.7861C48.5091 29.8485 48.5809 29.911 48.6548 29.9753C49.3012 30.5695 49.5715 31.301 49.6325 32.1672C49.6597 33.5374 49.2552 34.7008 48.3153 35.7248C47.6657 36.3169 47.0825 36.5611 46.1973 36.549C46.1211 36.5484 46.0448 36.5478 45.9663 36.5472C45.0742 36.5328 44.1883 36.4486 43.3009 36.3616C42.9904 36.3312 42.6798 36.302 42.3691 36.273C41.4872 36.1905 40.6054 36.106 39.7237 36.021C36.2749 35.6672 36.2749 35.6672 32.8123 35.6455C32.743 35.6488 32.6737 35.652 32.6022 35.6554C32.2217 35.6756 31.8429 35.708 31.4635 35.7431C26.4056 36.1328 21.0265 35.9557 16.3279 33.8713C15.6309 33.5637 14.9314 33.3362 14.1966 33.1369C11.0417 32.2542 8.12102 30.8805 5.56625 28.8095C5.50637 28.7613 5.4465 28.7131 5.38481 28.6635C2.90972 26.655 0.968277 23.9934 0.612864 20.754C0.409071 18.1736 1.07401 15.5979 2.69531 13.5561C4.37302 11.5942 6.61487 10.461 9.17953 10.1572C11.2897 10.0229 13.2952 10.1475 15.2342 11.0361C15.3393 11.0841 15.4444 11.132 15.5527 11.1814C16.2847 11.5444 16.8471 11.9887 17.4258 12.5543C17.632 12.7521 17.8365 12.9188 18.0662 13.0869C18.0996 13.0363 18.1329 12.9857 18.1672 12.9336C18.5189 12.3995 18.8707 11.8655 19.2226 11.3315C19.3533 11.1331 19.484 10.9347 19.6146 10.7363C20.0421 10.0873 20.4699 9.43848 20.8983 8.79C20.9492 8.7129 21.0001 8.6358 21.0525 8.55636C21.1872 8.35257 21.3221 8.14896 21.4571 7.94543C21.4951 7.88791 21.5331 7.83039 21.5722 7.77113C22.1996 6.82804 22.9389 6.04052 24.0576 5.71078C25.0124 5.54179 26.0146 5.56675 26.8601 6.07928Z" fill="#B06238"/>
<path d="M36.5234 27.5938C36.6118 27.5938 36.7002 27.5938 36.7913 27.5938C38.427 27.598 40.0928 27.6507 41.6748 28.1004C41.7687 28.1262 41.8625 28.1519 41.9592 28.1785C44.6678 28.9397 47.5596 30.3602 49.1425 32.8005C49.3535 33.3734 49.3259 34.0922 49.1116 34.6575C48.9678 34.907 48.8138 35.1275 48.6328 35.3514C48.5811 35.4156 48.5293 35.4798 48.476 35.5459C47.964 36.1127 47.3855 36.493 46.6118 36.5497C46.4737 36.5504 46.3356 36.5497 46.1975 36.5479C46.1212 36.5473 46.045 36.5467 45.9664 36.5461C45.0743 36.5316 44.1885 36.4475 43.301 36.3605C42.9905 36.3301 42.6799 36.3008 42.3693 36.2719C41.4873 36.1894 40.6056 36.1049 39.7239 36.0199C36.2751 35.6661 36.2751 35.6661 32.8125 35.6443C32.7085 35.6493 32.7085 35.6493 32.6024 35.6543C32.2218 35.6744 31.843 35.7069 31.4636 35.742C26.1373 36.1523 20.38 35.9515 15.5273 33.4959C15.5543 33.3127 15.5543 33.3127 15.625 33.1053C15.7762 32.9964 15.7762 32.9964 15.9747 32.9108C16.0869 32.8612 16.0869 32.8612 16.2014 32.8106C16.2837 32.776 16.3661 32.7415 16.4509 32.7059C16.5366 32.6687 16.6223 32.6315 16.7106 32.5931C16.993 32.4712 17.2763 32.3517 17.5598 32.2325C17.6564 32.1913 17.753 32.1502 17.8525 32.1078C21.882 30.3915 26.1225 28.8741 30.4616 28.1737C30.6818 28.1378 30.9016 28.1003 31.1213 28.0618C32.9241 27.7471 34.6923 27.5904 36.5234 27.5938Z" fill="#7C270D"/>
<path d="M26.367 7.42228C26.8821 7.81038 27.3147 8.26012 27.7281 8.75285C28.4775 9.61704 29.4392 10.0401 30.5418 10.2421C30.9669 10.3335 31.1872 10.4775 31.4451 10.8403C31.59 11.4025 31.4949 11.749 31.2254 12.2441C31.1904 12.3109 31.1554 12.3778 31.1193 12.4467C30.256 14.0588 29.184 15.5658 27.9295 16.8949C27.8555 16.9764 27.7815 17.0578 27.7052 17.1417C26.6417 18.2695 25.3041 19.1372 23.7303 19.2387C23.736 19.3297 23.7416 19.4207 23.7475 19.5145C23.7882 20.667 23.5745 21.6658 22.8182 22.5807C22.2031 23.2392 21.6513 23.6836 20.7335 23.7614C20.2267 23.7136 20.0116 23.6317 19.6592 23.2548C19.1495 22.5659 19.1585 21.9266 19.2381 21.0942C19.4991 20.1276 20.0568 19.3139 20.8006 18.6528C20.8651 18.6528 20.9295 18.6528 20.9959 18.6528C20.9959 18.5561 20.9959 18.4594 20.9959 18.3598C20.9291 18.3405 20.8622 18.3213 20.7934 18.3014C20.4019 18.1138 20.1436 17.8439 19.8423 17.5358C19.7823 17.4751 19.7222 17.4144 19.6603 17.3518C18.211 15.8599 18.211 15.8599 18.2213 14.9675C18.2698 14.7012 18.3661 14.5506 18.5213 14.3296C18.5747 14.2528 18.6281 14.1761 18.6831 14.097C18.7374 14.0213 18.7916 13.9456 18.8475 13.8676C18.9178 13.7689 18.9178 13.7689 18.9895 13.6682C19.1324 13.4694 19.2767 13.2717 19.4212 13.0741C20.8787 11.0676 20.8787 11.0676 22.2227 8.98478C22.7584 8.10832 23.3026 7.47346 24.3109 7.16975C25.0069 7.02948 25.7384 7.08378 26.367 7.42228Z" fill="#B66C45"/>
<path d="M15.2344 11.0337C15.3395 11.0816 15.4446 11.1296 15.5529 11.179C16.5669 11.6818 17.3768 12.3808 18.0664 13.2798C18.0373 13.3261 18.0083 13.3724 17.9783 13.4201C17.8469 13.6296 17.7155 13.8392 17.5842 14.0488C17.5156 14.1581 17.5156 14.1581 17.4456 14.2697C17.4018 14.3396 17.3581 14.4094 17.313 14.4814C17.2726 14.5458 17.2322 14.6103 17.1906 14.6767C17.0854 14.8445 17.0854 14.8445 16.9922 15.0376C17.5543 15.7936 18.137 16.5122 18.7817 17.1994C19.1015 17.5417 19.4109 17.8927 19.7197 18.245C19.9349 18.4691 20.1638 18.6574 20.4102 18.8462C20.3497 19.1709 20.2313 19.3741 20.0378 19.6396C19.5868 20.2988 19.3076 20.9787 19.2383 21.7759C18.7852 21.4053 18.3816 21.0216 18.0054 20.5735C17.9563 20.5155 17.9071 20.4576 17.8566 20.3979C17.2971 19.731 16.7666 19.0417 16.2476 18.343C16.1318 18.1874 16.0142 18.0331 15.8962 17.8792C15.841 17.8035 15.7857 17.7278 15.7288 17.6499C15.661 17.5585 15.661 17.5585 15.5918 17.4653C15.5273 17.2837 15.5273 17.2837 15.5869 17.0567C15.7807 16.6838 16.0093 16.3355 16.2443 15.9876C16.4472 15.6736 16.4472 15.6736 16.507 15.3119C15.9964 14.4164 14.3446 13.958 13.4011 13.6861C11.4859 13.1977 9.14026 13.3164 7.22656 13.7681C7.13336 13.7896 7.04016 13.8111 6.94413 13.8333C5.27043 14.2294 3.44983 14.6992 1.93992 15.545C1.75781 15.6235 1.75781 15.6235 1.46484 15.5259C1.92091 14.6841 2.38637 13.9002 3.02734 13.1821C3.09935 13.1009 3.17136 13.0197 3.24554 12.9361C6.17478 9.82016 11.4639 9.30577 15.2344 11.0337Z" fill="#995520"/>
<path d="M23.4375 21.3867C23.715 21.5218 23.981 21.6689 24.2462 21.8266C29.2579 24.7738 34.7628 25.6773 40.4297 24.2188C40.5461 24.189 40.6626 24.1593 40.7825 24.1287C41.1403 24.0338 41.4897 23.9307 41.8396 23.8098C42.0898 23.7305 42.0898 23.7305 42.4805 23.7305C42.3156 24.6596 42.0556 25.5585 41.7969 26.4648C41.6667 26.4676 41.5365 26.4694 41.4062 26.4709C41.3337 26.4721 41.2612 26.4732 41.1865 26.4744C40.918 26.4648 40.918 26.4648 40.5573 26.4173C40.0948 26.3565 39.6357 26.3462 39.1697 26.3405C39.0316 26.3386 39.0316 26.3386 38.8907 26.3368C36.0209 26.3061 33.3774 26.5356 30.5922 27.2664C28.2155 27.8722 25.1899 26.0505 23.1949 24.889C22.5801 24.5209 21.9815 24.1298 21.3867 23.7305C21.593 23.5133 21.8071 23.3409 22.052 23.1689C22.7137 22.676 23.097 22.1332 23.4375 21.3867Z" fill="#7C280D"/>
<path d="M37.9028 26.2311C38.0494 26.2308 38.0494 26.2308 38.1989 26.2305C39.805 26.2308 41.415 26.2715 42.9688 26.7194C43.1029 26.7573 43.1029 26.7573 43.2398 26.7959C45.2467 27.3865 46.8913 28.3939 48.4375 29.7833C48.5093 29.8458 48.581 29.9082 48.6549 29.9725C49.3017 30.567 49.5781 31.3028 49.6292 32.1713C49.6383 32.9093 49.6037 33.4955 49.3164 34.1779C49.2842 34.1779 49.252 34.1779 49.2188 34.1779C49.2162 34.1001 49.2137 34.0223 49.2111 33.9421C49.2056 33.8386 49.2 33.7352 49.1943 33.6285C49.1898 33.5266 49.1853 33.4246 49.1806 33.3196C48.9387 32.0448 47.3121 30.8796 46.2891 30.174C44.3322 28.8845 41.9549 28.045 39.624 27.8207C39.4979 27.8084 39.4979 27.8084 39.3691 27.796C38.4211 27.7104 37.4749 27.6897 36.5234 27.6898C36.4314 27.6897 36.3394 27.6896 36.2446 27.6894C34.3847 27.6917 32.5899 27.8918 30.7617 28.2208C30.5856 28.2521 30.5856 28.2521 30.406 28.284C29.7072 28.4105 29.0129 28.5522 28.3203 28.7091C28.2359 28.7282 28.1516 28.7473 28.0646 28.767C26.7313 29.0744 25.4243 29.4656 24.1211 29.881C24.008 29.9169 23.8948 29.9528 23.7782 29.9898C22.294 30.4636 20.8395 30.9771 19.4034 31.5822C18.8969 31.7956 18.4046 31.9935 17.8711 32.1271C18.0097 31.85 18.1833 31.8131 18.4631 31.6831C18.6228 31.6086 18.6228 31.6086 18.7857 31.5327C18.9028 31.4791 19.0199 31.4255 19.1406 31.3702C19.2309 31.3287 19.2309 31.3287 19.323 31.2863C23.6702 29.2874 28.1066 27.5856 32.8125 26.6583C32.9193 26.6364 33.0261 26.6145 33.1361 26.5919C34.7234 26.2761 36.2899 26.2325 37.9028 26.2311Z" fill="#C7804D"/>
<path d="M22.9768 18.3009C23.4495 18.6932 23.6925 19.0165 23.7672 19.6387C23.7903 20.8268 23.4786 21.8746 22.6567 22.7545C22.085 23.3429 21.5606 23.6916 20.7341 23.7616C20.2273 23.7138 20.0122 23.632 19.6599 23.255C19.1501 22.5661 19.1592 21.9268 19.2387 21.0944C19.5316 20.0097 20.1827 19.109 21.0942 18.4576C21.6624 18.1404 22.3918 17.9426 22.9768 18.3009Z" fill="#F4C38A"/>
<path d="M16.7973 15.1367C17.1722 15.285 17.3515 15.5057 17.5968 15.8203C18.0273 16.3605 18.4802 16.8728 18.9457 17.3828C19.0299 17.4772 19.1141 17.5716 19.2009 17.6689C19.2859 17.7638 19.3709 17.8587 19.4584 17.9565C19.5355 18.0429 19.6125 18.1293 19.6919 18.2182C19.9175 18.4521 20.1524 18.6508 20.4106 18.8477C20.3501 19.1723 20.2317 19.3756 20.0382 19.6411C19.5872 20.3003 19.308 20.9801 19.2387 21.7773C18.7856 21.4068 18.382 21.023 18.0058 20.575C17.9567 20.517 17.9076 20.4591 17.857 20.3994C17.2975 19.7325 16.767 19.0432 16.248 18.3444C16.1322 18.1889 16.0146 18.0346 15.8966 17.8806C15.8414 17.805 15.7861 17.7293 15.7292 17.6514C15.684 17.5904 15.6388 17.5295 15.5922 17.4667C15.5277 17.2852 15.5277 17.2852 15.5853 17.0616C15.759 16.7278 15.9556 16.4151 16.1625 16.1011C16.2019 16.0405 16.2413 15.98 16.2819 15.9176C16.4522 15.6563 16.6243 15.3962 16.7973 15.1367Z" fill="#7C270D"/>
<path d="M23.4375 18.8477C23.7674 19.1775 23.754 19.5109 23.7671 19.9585C23.7573 21.1443 23.2873 22.1044 22.4728 22.9427C21.9434 23.4411 21.4603 23.6994 20.7336 23.761C20.2453 23.7149 19.9747 23.6183 19.6533 23.2483C19.4336 22.9492 19.4336 22.9492 19.3359 22.6562C19.4103 22.6608 19.4847 22.6653 19.5614 22.67C20.27 22.6948 20.7763 22.6314 21.3867 22.2656C21.4876 22.2052 21.4876 22.2052 21.5904 22.1436C22.542 21.5019 23.011 20.5043 23.3398 19.4336C23.3762 19.2389 23.4099 19.0437 23.4375 18.8477Z" fill="#F0B76F"/>
<path d="M20.5078 30.7617C20.5723 30.7939 20.6367 30.8262 20.7031 30.8594C20.7031 30.9238 20.7031 30.9883 20.7031 31.0547C20.3316 31.2104 19.9597 31.3652 19.5873 31.519C19.4607 31.5715 19.3341 31.6243 19.2077 31.6773C19.0262 31.7534 18.8442 31.8284 18.6623 31.9035C18.5528 31.949 18.4434 31.9945 18.3306 32.0414C18.0664 32.1289 18.0664 32.1289 17.8711 32.0312C19.34 31.2885 19.34 31.2885 20.0562 30.9509C20.1812 30.8918 20.1812 30.8918 20.3087 30.8315C20.4073 30.797 20.4073 30.797 20.5078 30.7617Z" fill="#C17948"/>
</svg>
