<svg width="50" height="50" viewBox="0 0 50 50" fill="none" xmlns="http://www.w3.org/2000/svg">
<g clip-path="url(#clip0_3130_42743)">
<path d="M23.7849 2.51464C23.8719 2.51368 23.9589 2.51272 24.0485 2.51174C25.9941 2.49477 27.8752 2.51579 29.7854 2.92853C29.8859 2.94998 29.9864 2.97143 30.0899 2.99353C30.7765 3.14423 31.4541 3.31876 32.1291 3.51447C32.2101 3.53793 32.2912 3.56139 32.3746 3.58557C35.6298 4.56039 38.6399 6.4006 41.2112 8.59259C41.2842 8.65466 41.3572 8.71672 41.4324 8.78066C42.6535 9.85011 43.8449 11.007 44.8245 12.3035C44.9194 12.4261 45.0144 12.5487 45.1094 12.6713C45.7197 13.4648 46.2759 14.2683 46.7776 15.1356C46.8129 15.196 46.8483 15.2563 46.8847 15.3186C49.4758 19.7564 50.8957 25.2626 49.7073 30.3699C49.6905 30.4452 49.6737 30.5204 49.6565 30.5979C49.268 32.307 48.6653 33.9292 47.8428 35.4759C47.7642 35.6244 47.688 35.7742 47.6122 35.9241C46.9244 37.2524 46.0112 38.4363 45.0198 39.5496C44.977 39.5984 44.9343 39.6472 44.8902 39.6974C43.264 41.5508 41.3624 43.0566 39.258 44.3348C39.1911 44.3756 39.1241 44.4165 39.0551 44.4586C35.3156 46.7106 30.6959 48.0322 26.3297 48.069C26.2352 48.0699 26.1407 48.0709 26.0433 48.0719C19.8598 48.1215 13.6999 46.7942 8.69164 42.9676C8.63675 42.9265 8.58187 42.8854 8.52532 42.8431C7.01606 41.7124 5.59075 40.4109 4.42271 38.9278C4.33638 38.8182 4.24957 38.709 4.16236 38.6002C1.71577 35.5341 0.0184768 31.5509 -0.0230356 27.5871C-0.0239964 27.5107 -0.0249573 27.4343 -0.0259473 27.3556C-0.0658036 23.3577 0.745696 19.7494 2.63695 16.2098C2.6877 16.114 2.6877 16.114 2.73947 16.0162C3.85518 13.9236 5.29153 12.0575 6.93383 10.3504C6.98734 10.2948 7.04086 10.2391 7.096 10.1818C7.81744 9.43615 8.55337 8.73987 9.37523 8.10431C9.49989 8.00506 9.6245 7.90574 9.74907 7.80639C13.6643 4.71357 18.7462 2.56063 23.7849 2.51464Z" fill="#7E8589"/>
<path d="M23.7849 2.51464C23.8719 2.51368 23.9589 2.51272 24.0485 2.51174C25.9941 2.49477 27.8752 2.51579 29.7854 2.92853C29.8859 2.94998 29.9864 2.97143 30.0899 2.99353C30.7765 3.14423 31.4541 3.31876 32.1291 3.51447C32.2101 3.53793 32.2912 3.56139 32.3746 3.58557C35.6298 4.56039 38.6399 6.4006 41.2112 8.59259C41.2842 8.65466 41.3572 8.71672 41.4324 8.78066C42.6535 9.85011 43.8449 11.007 44.8245 12.3035C44.9194 12.4261 45.0144 12.5487 45.1094 12.6713C45.7197 13.4648 46.2759 14.2683 46.7776 15.1356C46.8129 15.196 46.8483 15.2563 46.8847 15.3186C49.4758 19.7564 50.8957 25.2626 49.7073 30.3699C49.6905 30.4452 49.6737 30.5204 49.6565 30.5979C49.268 32.307 48.6653 33.9292 47.8428 35.4759C47.7642 35.6244 47.688 35.7742 47.6122 35.9241C46.9244 37.2524 46.0112 38.4363 45.0198 39.5496C44.977 39.5984 44.9343 39.6472 44.8902 39.6974C43.264 41.5508 41.3624 43.0566 39.258 44.3348C39.1911 44.3756 39.1241 44.4165 39.0551 44.4586C35.3156 46.7106 30.6959 48.0322 26.3297 48.069C26.2352 48.0699 26.1407 48.0709 26.0433 48.0719C19.8598 48.1215 13.6999 46.7942 8.69164 42.9676C8.63675 42.9265 8.58187 42.8854 8.52532 42.8431C7.01606 41.7124 5.59075 40.4109 4.42271 38.9278C4.33638 38.8182 4.24957 38.709 4.16236 38.6002C1.71577 35.5341 0.0184768 31.5509 -0.0230356 27.5871C-0.0239964 27.5107 -0.0249573 27.4343 -0.0259473 27.3556C-0.0658036 23.3577 0.745696 19.7494 2.63695 16.2098C2.6877 16.114 2.6877 16.114 2.73947 16.0162C3.85518 13.9236 5.29153 12.0575 6.93383 10.3504C6.98734 10.2948 7.04086 10.2391 7.096 10.1818C7.81744 9.43615 8.55337 8.73987 9.37523 8.10431C9.49989 8.00506 9.6245 7.90574 9.74907 7.80639C13.6643 4.71357 18.7462 2.56063 23.7849 2.51464ZM23.926 4.68634C23.926 4.8797 23.926 5.07306 23.926 5.27228C23.8616 5.33674 23.7971 5.40119 23.7307 5.46759C23.5487 5.46531 23.5487 5.46531 23.3096 5.43097C20.3955 5.11739 17.9308 5.73202 15.6184 7.57331C15.2721 7.86138 14.9539 8.16431 14.6487 8.49494C14.552 8.59162 14.552 8.59162 14.4534 8.69025C14.9631 7.92853 15.5154 7.33035 16.2112 6.73713C16.31 6.64066 16.4082 6.54351 16.5041 6.44416C14.437 7.04537 12.4908 8.51559 10.8401 9.86213C10.7858 9.90637 10.7315 9.95062 10.6755 9.99621C9.40629 11.0391 8.22913 12.1707 7.2268 13.4754C7.1828 13.5315 7.1388 13.5875 7.09347 13.6453C5.7427 15.368 4.67393 17.2197 3.81493 19.231C3.78614 19.2968 3.75734 19.3626 3.72767 19.4304C3.52715 19.9153 3.45264 20.3748 3.4182 20.8973C3.75388 21.1141 4.05882 21.2521 4.44359 21.3581C4.54563 21.3865 4.64767 21.4149 4.7528 21.4442C4.86023 21.4732 4.96767 21.5022 5.07836 21.532C5.18926 21.5624 5.30015 21.5927 5.41441 21.6239C5.72529 21.7083 6.03648 21.7914 6.34789 21.8738C6.52633 21.9212 6.52633 21.9212 6.70838 21.9696C7.01033 22.044 7.31215 22.1074 7.61742 22.1668C7.69925 22.1831 7.78107 22.1993 7.86538 22.216C9.22863 22.4816 10.526 22.6127 11.9143 22.5574C11.8987 22.6425 11.8831 22.7276 11.867 22.8153C11.6298 24.4923 11.7641 26.2772 12.1096 27.9285C8.89204 27.8253 5.87182 27.228 2.84042 26.1339C2.62557 26.0591 2.62557 26.0591 2.34398 26.0731C2.38737 28.6844 3.06358 31.2526 4.19945 33.5926C4.23107 33.6578 4.26268 33.7231 4.29525 33.7903C6.74545 38.7704 11.5107 42.1961 16.6567 43.9564C17.4976 44.2352 18.3458 44.4674 19.208 44.6705C19.36 44.7067 19.36 44.7067 19.5151 44.7436C20.1465 44.8852 20.7626 44.9606 21.4087 44.9963C21.7438 45.0236 22.0429 45.115 22.3635 45.2137C23.2041 45.3407 24.0484 45.3307 24.8965 45.3297C25.0107 45.3297 25.0107 45.3297 25.1272 45.3297C26.9683 45.3416 26.9683 45.3416 28.7711 45.0138C29.0727 44.9289 29.3217 44.8958 29.6328 44.8841C31.9556 44.7072 34.3575 43.6965 36.426 42.6746C36.4913 42.6426 36.5567 42.6105 36.624 42.5775C38.6092 41.5916 40.3931 40.2978 41.9924 38.7684C42.0829 38.683 42.1734 38.5977 42.2667 38.5097C45.5251 35.3577 47.5556 30.7993 47.6637 26.2569C47.6613 26.1963 47.6589 26.1356 47.6565 26.0731C47.1852 26.1658 46.7441 26.2738 46.2954 26.4454C43.6142 27.4425 40.7335 27.8179 37.8909 27.9285C37.912 27.8274 37.9332 27.7264 37.9549 27.6222C38.4621 24.9843 38.2596 22.4249 37.3049 19.9207C37.5002 20.0184 37.5002 20.0184 37.5979 20.2858C37.8086 21.0389 37.9783 21.7827 38.0862 22.5574C39.6029 22.5852 41.0106 22.5095 42.484 22.1205C42.908 22.0086 43.3303 21.9203 43.7624 21.8433C44.7602 21.6526 45.7179 21.3162 46.6799 20.9949C46.7669 18.5065 44.1969 15.2004 42.676 13.3778C42.6074 13.2942 42.6074 13.2942 42.5373 13.209C41.4924 11.9399 40.3633 10.7738 39.0627 9.76447C38.9715 9.68995 38.8802 9.61542 38.7862 9.53864C37.5236 8.52727 36.1234 7.70558 34.6987 6.94465C34.6198 6.90216 34.541 6.85967 34.4597 6.8159C34.272 6.71806 34.0798 6.62897 33.887 6.54181C33.8225 6.57404 33.758 6.60627 33.6916 6.63947C33.7731 6.70934 33.8545 6.7792 33.9385 6.85119C34.7081 7.52719 35.2969 8.2106 35.8401 9.08088C35.7756 9.08088 35.7112 9.08088 35.6448 9.08088C35.622 9.01076 35.5992 8.94064 35.5757 8.8684C34.8856 7.36087 32.7845 6.40269 31.346 5.84067C29.7668 5.27358 28.1472 5.2905 26.4986 5.45577C26.3854 5.46162 26.3854 5.46162 26.2698 5.46759C26.2375 5.43537 26.2053 5.40314 26.1721 5.36994C26.1721 5.14435 26.1721 4.91877 26.1721 4.68634C25.4309 4.68634 24.6897 4.68634 23.926 4.68634Z" fill="#010101"/>
<path d="M2.34375 26.0742C2.70867 26.1399 3.05114 26.2369 3.40309 26.3531C6.29904 27.2923 9.17006 27.8052 12.207 28.0273C12.2462 28.1491 12.2853 28.2708 12.3257 28.3962C13.4455 31.7875 15.549 34.5899 18.7706 36.2534C20.0731 36.8974 21.4192 37.3404 22.8516 37.5977C22.9491 37.6157 23.0467 37.6337 23.1472 37.6522C26.6274 38.0389 30.2693 37.3064 33.0566 35.1013C33.1543 35.0206 33.252 34.9399 33.3527 34.8568C33.5938 34.668 33.5938 34.668 33.8867 34.5703C33.8867 34.5059 33.8867 34.4414 33.8867 34.375C34.0199 34.251 34.0199 34.251 34.2102 34.1003C35.9153 32.6427 36.9231 30.5832 37.6953 28.5156C37.8887 28.5156 38.082 28.5156 38.2812 28.5156C38.3135 28.3545 38.3457 28.1934 38.3789 28.0273C38.4747 28.0146 38.5704 28.0019 38.6691 27.9887C41.5684 27.6013 44.3127 27.1253 47.0829 26.1604C47.3633 26.0742 47.3633 26.0742 47.6562 26.0742C47.5642 28.6894 46.9565 31.2481 45.8008 33.5938C45.7693 33.6584 45.7378 33.7231 45.7054 33.7897C44.8651 35.4986 43.6802 36.9927 42.3828 38.3789C42.2552 38.5162 42.2552 38.5162 42.1249 38.6562C39.2939 41.6318 35.3474 43.4525 31.4453 44.5313C31.334 44.5634 31.2227 44.5955 31.1081 44.6285C30.5033 44.794 29.9243 44.8658 29.2976 44.8917C28.9799 44.9243 28.7198 45.0145 28.418 45.1172C27.2687 45.338 26.0985 45.3332 24.9329 45.3369C24.8604 45.3374 24.788 45.3379 24.7134 45.3384C22.2469 45.352 22.2469 45.352 21.582 45.0195C21.4079 45.003 21.2333 44.9906 21.0587 44.9802C20.4279 44.9315 19.8289 44.8169 19.2139 44.6716C19.1044 44.6459 18.995 44.6202 18.8823 44.5937C14.9851 43.6485 11.3479 41.9069 8.39844 39.1602C8.30959 39.0777 8.30959 39.0777 8.21896 38.9936C7.25315 38.0875 6.43476 37.1104 5.66406 36.0352C5.59861 35.9462 5.59861 35.9462 5.53184 35.8554C4.02119 33.7943 3.14437 31.4013 2.67444 28.9087C2.64268 28.7422 2.60816 28.5762 2.57301 28.4103C2.41469 27.6384 2.38119 26.8596 2.34375 26.0742Z" fill="#C6A73F"/>
<path d="M23.9258 4.6875C24.667 4.6875 25.4082 4.6875 26.1719 4.6875C26.1719 4.91309 26.1719 5.13867 26.1719 5.37109C26.2041 5.40332 26.2363 5.43555 26.2695 5.46875C26.4489 5.45948 26.6279 5.44394 26.8066 5.42603C29.7581 5.18437 32.243 5.79547 34.5703 7.71484C35.4465 8.49803 35.4465 8.49803 35.6445 9.08203C35.709 9.08203 35.7734 9.08203 35.8398 9.08203C35.0886 7.99071 35.0886 7.99071 34.1797 7.03125C34.0836 6.93612 33.9879 6.84054 33.8928 6.74438C33.8264 6.67792 33.7599 6.61145 33.6914 6.54297C34.2702 6.70475 34.7731 6.98766 35.2966 7.27539C35.392 7.32774 35.4875 7.3801 35.5858 7.43403C38.2763 8.92829 40.7838 10.9428 42.6758 13.3789C42.774 13.5014 42.8723 13.6238 42.9707 13.7463C44.4824 15.6502 45.618 17.7542 46.4844 20.0195C46.5406 20.1459 46.5406 20.1459 46.5981 20.2747C46.6872 20.5292 46.695 20.7285 46.6797 20.9961C45.7236 21.3601 44.7452 21.608 43.75 21.8384C43.6284 21.8666 43.5069 21.8948 43.3816 21.9239C41.9265 22.2561 40.5127 22.5789 39.0137 22.5647C38.924 22.5643 38.8344 22.5638 38.7421 22.5634C38.5233 22.5622 38.3046 22.5606 38.0859 22.5586C38.0716 22.4662 38.0572 22.3738 38.0424 22.2786C37.5007 19.0022 35.7899 15.8719 33.0566 13.9103C31.4451 12.7905 29.774 11.9781 27.832 11.6211C27.7403 11.6021 27.6485 11.5831 27.5539 11.5635C25.9242 11.2495 24.2927 11.3021 22.6562 11.5234C22.5847 11.533 22.5132 11.5426 22.4395 11.5524C20.0465 11.8912 17.2492 13.1203 15.7227 15.0391C15.5599 15.2018 15.3971 15.3646 15.2344 15.5273C13.3483 17.4541 12.3236 19.9217 11.9141 22.5586C9.21856 22.7013 5.97492 22.1785 3.51562 20.9961C3.4834 20.9639 3.45117 20.9316 3.41797 20.8984C3.42249 20.2981 3.57638 19.7767 3.8147 19.2322C3.84499 19.1611 3.87528 19.0901 3.90649 19.0169C5.45504 15.4381 7.84364 12.1641 10.9375 9.76562C11.031 9.68997 11.1246 9.61431 11.2209 9.53636C12.4868 8.52909 13.8602 7.70609 15.2893 6.9519C15.3875 6.89974 15.4858 6.84758 15.587 6.79383C15.6782 6.74667 15.7694 6.69951 15.8634 6.65092C15.9447 6.60878 16.026 6.56663 16.1097 6.5232C16.1753 6.4975 16.241 6.4718 16.3086 6.44531C16.373 6.47754 16.4375 6.50977 16.5039 6.54297C16.4143 6.6151 16.3246 6.68723 16.2323 6.76155C15.4834 7.3764 14.878 7.96464 14.3555 8.78906C14.4219 8.7226 14.4884 8.65613 14.5569 8.58765C14.6252 8.52005 14.6252 8.52005 14.695 8.45108C14.7922 8.35289 14.8874 8.25273 14.9803 8.15048C16.4425 6.58443 18.6933 5.44542 20.8398 5.36199C21.7452 5.34172 22.6503 5.33753 23.5485 5.46646C23.6086 5.46722 23.6686 5.46797 23.7305 5.46875C23.7949 5.4043 23.8594 5.33984 23.9258 5.27344C23.9258 5.08008 23.9258 4.88672 23.9258 4.6875Z" fill="#F3DF7F"/>
<path d="M29.2968 18.4578C29.6399 18.7343 29.9588 19.0282 30.2733 19.3367C30.349 19.4088 30.4246 19.481 30.5026 19.5553C31.1708 20.2372 31.5583 21.0097 31.9335 21.8757C31.9782 21.9737 32.0229 22.0716 32.0689 22.1725C32.696 23.8051 32.4561 25.931 31.7828 27.5135C31.4463 28.2549 31.0135 28.8902 30.4686 29.4929C30.4075 29.562 30.3463 29.6312 30.2832 29.7024C29.7904 30.2284 29.2358 30.5995 28.6132 30.9578C28.537 31.0031 28.4608 31.0484 28.3824 31.0951C26.8389 31.946 24.768 32.1561 23.0695 31.691C22.7606 31.5924 22.4665 31.4756 22.1679 31.3484C22.0089 31.2814 22.0089 31.2814 21.8467 31.213C21.1573 30.8945 20.5853 30.4847 20.0194 29.9812C19.9523 29.9233 19.8852 29.8654 19.8161 29.8057C18.5044 28.595 17.7189 26.7964 17.6394 25.0217C17.5992 22.975 17.9992 21.2715 19.3724 19.6968C19.5211 19.5423 19.6716 19.3897 19.8241 19.239C19.8971 19.1639 19.9701 19.0887 20.0454 19.0113C22.5168 16.6094 26.5345 16.4603 29.2968 18.4578Z" fill="#6E523B"/>
<path d="M29.0035 16.2101C29.061 16.2368 29.1185 16.2635 29.1777 16.291C31.5517 17.3949 33.7033 19.2319 34.6504 21.738C34.8031 22.1693 34.9341 22.6057 35.0582 23.046C35.0843 23.1317 35.1103 23.2175 35.1372 23.3058C35.6367 25.2588 35.186 27.5026 34.189 29.2152C32.5055 32.015 30.1446 33.5883 27.0374 34.46C24.3724 35.0155 21.5085 34.3547 19.2379 32.9093C17.2293 31.5262 15.6673 29.6317 15.0387 27.2452C15.0113 27.1542 14.9838 27.0632 14.9555 26.9694C14.5433 25.4433 14.6717 23.9511 15.1364 22.4601C15.1634 22.3592 15.1905 22.2584 15.2184 22.1545C15.5916 20.8628 16.3947 19.7389 17.2848 18.7491C17.3868 18.6351 17.3868 18.6351 17.4908 18.5187C18.7959 17.1374 20.6196 16.1462 22.4606 15.7218C22.5617 15.6928 22.6627 15.6639 22.7669 15.6341C24.7614 15.1096 27.1423 15.3076 29.0035 16.2101ZM20.1168 18.9445C19.9969 19.051 19.9969 19.051 19.8746 19.1596C18.6437 20.3141 17.7089 21.9866 17.6426 23.6991C17.6103 25.9341 17.9916 27.7847 19.5309 29.4913C19.5887 29.5582 19.6465 29.625 19.706 29.6939C20.7658 30.8441 22.4219 31.7249 23.9868 31.8567C26.2799 31.9491 28.2311 31.5571 29.9801 29.9796C30.047 29.9218 30.1138 29.8641 30.1827 29.8045C31.4953 28.595 32.2807 26.7943 32.3601 25.0201C32.4003 22.9734 32.0004 21.2699 30.6271 19.6952C30.4783 19.5409 30.3278 19.3882 30.1754 19.2374C30.1035 19.1623 30.0317 19.0871 29.9576 19.0097C28.612 17.6867 26.7188 17.1089 24.8715 17.0524C23.1335 17.0845 21.4044 17.7708 20.1168 18.9445Z" fill="#E6EAEA"/>
<path d="M23.9258 4.6875C24.667 4.6875 25.4082 4.6875 26.1719 4.6875C26.1719 4.91309 26.1719 5.13867 26.1719 5.37109C26.2041 5.40332 26.2363 5.43555 26.2695 5.46875C26.4489 5.45948 26.6279 5.44394 26.8066 5.42603C29.7581 5.18437 32.243 5.79547 34.5703 7.71484C35.4465 8.49803 35.4465 8.49803 35.6445 9.08203C35.709 9.08203 35.7734 9.08203 35.8398 9.08203C35.0886 7.99071 35.0886 7.99071 34.1797 7.03125C34.0836 6.93612 33.9879 6.84054 33.8928 6.74438C33.8264 6.67792 33.7599 6.61145 33.6914 6.54297C34.2702 6.70475 34.7731 6.98766 35.2966 7.27539C35.392 7.32774 35.4875 7.3801 35.5858 7.43403C38.2763 8.92829 40.7838 10.9428 42.6758 13.3789C42.774 13.5014 42.8723 13.6238 42.9707 13.7463C44.4824 15.6502 45.618 17.7542 46.4844 20.0195C46.5406 20.1459 46.5406 20.1459 46.5981 20.2747C46.6872 20.5292 46.695 20.7285 46.6797 20.9961C46.4499 21.0736 46.2199 21.1509 45.99 21.228C45.9259 21.2497 45.8617 21.2713 45.7956 21.2936C44.6049 21.6925 44.6049 21.6925 44.043 21.6797C44.0297 21.6133 44.0165 21.5469 44.0028 21.4785C43.9415 21.1731 43.8793 20.8679 43.8171 20.5627C43.7963 20.4583 43.7755 20.3539 43.754 20.2463C43.1732 17.4114 41.5278 14.8681 39.5508 12.793C39.4713 12.7095 39.4713 12.7095 39.3901 12.6243C38.5857 11.7851 37.7661 11.0223 36.8164 10.3516C36.7632 10.313 36.71 10.2745 36.6551 10.2348C34.9478 9.00399 33.0434 8.09614 31.0547 7.42188C30.9382 7.3821 30.8218 7.34232 30.7018 7.30133C25.6065 5.71475 20.124 6.4977 15.448 8.92334C13.9508 9.7231 12.6067 10.7605 11.3598 11.9064C11.2037 12.046 11.043 12.1805 10.8788 12.3104C9.49475 13.4307 8.32893 15.2367 7.51953 16.7969C7.47736 16.8739 7.43519 16.951 7.39174 17.0303C6.8017 18.1406 6.4552 19.3941 6.18896 20.6177C6.16354 20.7327 6.13811 20.8478 6.11191 20.9663C6.06225 21.2464 6.04293 21.4942 6.05469 21.7773C3.76214 21.2426 3.76214 21.2426 3.41797 20.8984C3.42249 20.2981 3.57638 19.7767 3.8147 19.2322C3.84499 19.1611 3.87528 19.0901 3.90649 19.0169C5.45504 15.4381 7.84364 12.1641 10.9375 9.76562C11.031 9.68997 11.1246 9.61431 11.2209 9.53636C12.4868 8.52909 13.8602 7.70609 15.2893 6.9519C15.3875 6.89974 15.4858 6.84758 15.587 6.79383C15.6782 6.74667 15.7694 6.69951 15.8634 6.65092C15.9447 6.60878 16.026 6.56663 16.1097 6.5232C16.1753 6.4975 16.241 6.4718 16.3086 6.44531C16.373 6.47754 16.4375 6.50977 16.5039 6.54297C16.4143 6.6151 16.3246 6.68723 16.2323 6.76155C15.4834 7.3764 14.878 7.96464 14.3555 8.78906C14.4219 8.7226 14.4884 8.65613 14.5569 8.58765C14.6252 8.52005 14.6252 8.52005 14.695 8.45108C14.7922 8.35289 14.8874 8.25273 14.9803 8.15048C16.4425 6.58443 18.6933 5.44542 20.8398 5.36199C21.7452 5.34172 22.6503 5.33753 23.5485 5.46646C23.6086 5.46722 23.6686 5.46797 23.7305 5.46875C23.7949 5.4043 23.8594 5.33984 23.9258 5.27344C23.9258 5.08008 23.9258 4.88672 23.9258 4.6875Z" fill="#B79735"/>
<path d="M26.4649 20.2156C26.4238 20.2698 26.3826 20.3239 26.3402 20.3797C26.2867 20.4504 26.2332 20.5212 26.1781 20.5941C26.0982 20.6994 26.0982 20.6994 26.0167 20.8069C25.675 21.2784 25.729 21.8009 25.7814 22.3641C26.0028 22.8411 26.2809 23.1192 26.7579 23.3406C27.3043 23.4142 27.766 23.4211 28.2655 23.1758C28.5208 22.9454 28.7678 22.7118 29.004 22.4617C29.0675 22.5999 29.1305 22.7383 29.1932 22.8768C29.2459 22.9923 29.2459 22.9923 29.2997 23.1102C29.6912 24.0601 29.5825 25.238 29.1993 26.1727C29.1744 26.2383 29.1495 26.3038 29.1238 26.3714C28.6825 27.3896 27.781 28.2112 26.7671 28.6351C26.5051 28.7319 26.2426 28.822 25.9767 28.907C25.88 28.9393 25.7833 28.9715 25.6837 29.0047C24.2968 29.0985 23.1095 28.8204 22.0197 27.9232C21.5299 27.4578 21.1829 26.9792 20.8985 26.368C20.8536 26.2739 20.8536 26.2739 20.8078 26.178C20.3789 25.2345 20.3621 24.0929 20.6666 23.1087C20.868 22.578 21.1441 22.1322 21.4845 21.6805C21.5691 21.5536 21.5691 21.5536 21.6554 21.4241C22.9432 20.0648 24.6974 19.7363 26.4649 20.2156Z" fill="#0C0B0B"/>
<path d="M31.9973 16.902C33.9337 18.5655 35.52 20.8175 35.7422 23.4362C35.8217 25.1956 35.6143 26.6065 34.934 28.2295C34.8619 28.4201 34.8111 28.6089 34.7656 28.8073C34.8945 28.7106 35.0234 28.6139 35.1562 28.5143C34.8816 30.3707 33.1481 32.1941 31.7382 33.2995C29.8016 34.6595 27.6559 35.4865 25.2758 35.4787C25.0813 35.4784 24.8868 35.4808 24.6923 35.4832C23.5025 35.4838 22.3604 35.3044 21.2402 34.8925C21.1716 34.8675 21.103 34.8425 21.0324 34.8168C18.2441 33.7656 16.1508 31.6846 14.9236 28.9882C14.4171 27.841 14.4171 27.841 14.5507 27.4401C14.6474 27.6979 14.7441 27.9557 14.8437 28.2213C14.8028 27.8365 14.7394 27.5009 14.6057 27.1376C14.4371 26.6424 14.3572 26.1507 14.2883 25.6334C14.2756 25.547 14.263 25.4605 14.25 25.3714C14.1185 24.424 14.15 23.6119 14.3676 22.6793C14.3895 22.5849 14.4113 22.4904 14.4339 22.3931C14.6161 21.6431 14.8651 20.9911 15.2343 20.3112C15.2805 20.2185 15.3267 20.1259 15.3743 20.0304C15.711 19.3735 16.123 18.8202 16.6015 18.2604C16.6884 18.1522 16.6884 18.1522 16.777 18.0418C18.4519 16.027 21.1351 14.7627 23.7145 14.4695C26.7214 14.218 29.6589 14.9536 31.9973 16.902ZM20.5078 16.4049C20.4477 16.4356 20.3876 16.4664 20.3257 16.498C19.4268 16.9634 18.6223 17.4775 17.8711 18.1627C17.7963 18.2296 17.7215 18.2964 17.6445 18.3653C16.2806 19.6508 15.467 21.2662 14.9414 23.0455C14.9049 23.1651 14.9049 23.1651 14.8678 23.287C14.3469 25.3523 14.8581 27.599 15.9179 29.3932C15.9795 29.4976 16.0411 29.6019 16.1045 29.7094C17.6424 32.1442 20.0828 33.7505 22.8634 34.4183C25.5864 34.9319 28.4312 34.4271 30.7617 32.9088C31.2391 32.5768 31.689 32.2146 32.1289 31.8346C32.2384 31.7402 32.2384 31.7402 32.3501 31.6439C33.6018 30.4736 34.5245 28.8964 34.9609 27.2448C34.9883 27.1537 35.0158 27.0627 35.0441 26.969C35.4563 25.4428 35.3279 23.9506 34.8632 22.4596C34.8362 22.3588 34.8091 22.2579 34.7812 22.1541C34.0588 19.6539 31.9665 17.7658 29.7752 16.5266C29.0864 16.1641 28.389 15.9172 27.6367 15.7213C27.5299 15.692 27.4232 15.6627 27.3132 15.6324C25.0867 15.0982 22.5511 15.3545 20.5078 16.4049Z" fill="#B0AC9A"/>
<path d="M2.34375 26.0742C2.70867 26.1399 3.05114 26.2369 3.40309 26.3531C6.29904 27.2923 9.17006 27.8052 12.207 28.0273C12.2462 28.1491 12.2853 28.2708 12.3257 28.3962C13.4455 31.7875 15.549 34.5899 18.7706 36.2534C20.0731 36.8974 21.4192 37.3404 22.8516 37.5977C22.9491 37.6157 23.0467 37.6337 23.1472 37.6522C26.6274 38.0389 30.2693 37.3064 33.0566 35.1013C33.1543 35.0206 33.252 34.9399 33.3527 34.8568C33.5938 34.668 33.5938 34.668 33.8867 34.5703C33.8867 34.5059 33.8867 34.4414 33.8867 34.375C34.0199 34.251 34.0199 34.251 34.2102 34.1003C35.9153 32.6427 36.9231 30.5832 37.6953 28.5156C37.8887 28.5156 38.082 28.5156 38.2812 28.5156C38.3135 28.3545 38.3457 28.1934 38.3789 28.0273C38.4747 28.0146 38.5704 28.0019 38.6691 27.9887C41.5684 27.6013 44.3127 27.1253 47.0829 26.1604C47.3633 26.0742 47.3633 26.0742 47.6562 26.0742C47.6562 26.2354 47.6562 26.3965 47.6562 26.5625C44.5902 27.6067 44.5902 27.6067 43.2617 27.9297C43.1547 27.9559 43.1547 27.9559 43.0456 27.9826C41.5105 28.3473 39.9472 28.4769 38.3789 28.6133C38.3547 28.6934 38.3547 28.6934 38.3301 28.7752C37.3057 32.1247 35.3988 34.8092 32.4219 36.7188C32.3188 36.7851 32.2157 36.8514 32.1095 36.9198C29.1736 38.7022 25.3233 39.3157 21.9736 38.525C21.9088 38.509 21.8441 38.493 21.7773 38.4766C21.7097 38.4603 21.642 38.4441 21.5724 38.4274C18.0446 37.5545 15.0097 35.2906 13.1165 32.196C12.4434 31.0616 11.9961 29.8751 11.6211 28.6133C11.5405 28.6059 11.46 28.5986 11.377 28.591C8.22816 28.3004 5.32257 27.6555 2.34375 26.5625C2.34375 26.4014 2.34375 26.2402 2.34375 26.0742Z" fill="#BFA551"/>
<path d="M33.6918 14.3555C33.7899 14.4384 33.8879 14.5212 33.989 14.6065C35.6097 16.0096 36.8017 17.8021 37.5004 19.8243C37.436 19.8887 37.3715 19.9532 37.3051 20.0196C37.3364 20.2738 37.3364 20.2738 37.4027 20.5079C37.1203 20.1673 36.9438 19.7877 36.7558 19.3909C35.2534 16.3226 32.5111 14.1561 29.3347 12.9971C25.8911 11.8877 22.115 12.1211 18.8734 13.7465C15.7962 15.3573 13.5478 18.0275 12.4455 21.3074C12.3974 21.4637 12.35 21.6202 12.3051 21.7774C12.2044 21.47 12.2093 21.3007 12.3226 20.9992C12.3489 20.9273 12.3753 20.8554 12.4024 20.7814C12.4307 20.7072 12.459 20.6331 12.4882 20.5567C12.543 20.4093 12.5977 20.2618 12.6522 20.1142C12.6769 20.0492 12.7015 19.9842 12.7269 19.9172C12.7938 19.7253 12.8448 19.5338 12.891 19.336C12.8266 19.3038 12.7621 19.2715 12.6957 19.2383C13.5076 17.5149 14.5303 15.8218 16.0305 14.6058C16.2254 14.4465 16.2254 14.4465 16.4379 14.2193C18.2208 12.4859 20.9116 11.5578 23.3402 11.3282C23.448 11.3162 23.5558 11.3043 23.6668 11.2919C27.2841 10.9497 30.9378 11.9485 33.6918 14.3555Z" fill="#83898B"/>
<path d="M14.4531 27.4414C14.6936 27.6819 14.7459 27.9011 14.8438 28.2227C14.9082 28.1582 14.9727 28.0938 15.0391 28.0273C15.1101 28.1673 15.1101 28.1673 15.1825 28.31C15.9378 29.7766 16.8752 31.3225 18.3594 32.1289C18.524 32.2484 18.6869 32.3704 18.8477 32.4951C21.1538 34.1893 23.9482 34.791 26.7761 34.4177C28.4793 34.0627 30.2164 33.3493 31.5285 32.1938C31.7531 32.0198 31.964 31.9407 32.2266 31.8359C33.0394 31.1948 33.7385 30.2206 34.259 29.3335C34.4445 29.0204 34.6288 28.8725 34.9609 28.7109C35.0254 28.6465 35.0898 28.582 35.1562 28.5156C34.8816 30.3721 33.1482 32.1954 31.7383 33.3008C29.8017 34.6609 27.656 35.4879 25.2759 35.48C25.0814 35.4797 24.8868 35.4821 24.6923 35.4845C23.5025 35.4851 22.3605 35.3057 21.2402 34.8938C21.1717 34.8688 21.1031 34.8439 21.0324 34.8181C18.2441 33.7669 16.151 31.6857 14.9232 28.9895C14.4531 27.919 14.4531 27.919 14.4531 27.4414Z" fill="#92989A"/>
<path d="M15.1367 27.4414C15.3612 27.7245 15.5285 28.0109 15.6921 28.3325C16.0015 28.9064 16.3732 29.3894 16.7969 29.8828C16.8945 30.0018 16.8945 30.0018 16.9941 30.1231C18.55 31.9532 21.0271 33.3835 23.4401 33.6125C23.9477 33.644 24.4551 33.6457 24.9634 33.6426C25.0411 33.6423 25.1188 33.6421 25.1988 33.6419C26.3949 33.6348 27.495 33.5653 28.6133 33.1055C28.69 33.0746 28.7667 33.0437 28.8458 33.0118C31.4778 31.9229 33.5434 30.0325 34.7656 27.4414C34.8351 27.5913 34.8351 27.5913 34.8633 27.832C34.7639 28.0874 34.6601 28.3169 34.5337 28.5583C34.498 28.6276 34.4624 28.6968 34.4257 28.7681C32.9219 31.6201 30.5974 33.3694 27.5575 34.3112C24.9633 35.0851 22.1095 34.4899 19.777 33.2335C17.6828 32.0462 16.0828 30.1801 15.2344 27.9297C15.1646 27.6371 15.1646 27.6371 15.1367 27.4414Z" fill="#C5D0D1"/>
<path d="M21.3867 39.6484C21.8631 39.7325 22.304 39.887 22.76 40.0452C23.4457 40.264 24.1025 40.2523 24.8169 40.2527C24.9887 40.2545 24.9887 40.2545 25.164 40.2563C26.0916 40.2579 26.9647 40.18 27.832 39.8315C28.1237 39.7154 28.2971 39.6484 28.6133 39.6484C28.6942 40.1742 28.5158 40.4859 28.2192 40.9004C27.4863 41.7134 26.3358 42.0332 25.2777 42.1131C23.9944 42.1416 22.8505 41.888 21.875 41.0156C21.4868 40.5706 21.4261 40.2195 21.3867 39.6484Z" fill="#363129"/>
<path d="M28.0338 20.1733C28.4508 20.409 28.7953 20.654 29.0043 21.0949C29.0983 21.6751 29.0927 22.1779 28.8395 22.7124C28.1713 23.4167 28.1713 23.4167 27.6753 23.462C26.646 23.4863 26.646 23.4863 26.1723 23.0481C25.7005 22.5125 25.6493 22.1879 25.6569 21.4837C25.7065 20.9502 25.9906 20.6702 26.3737 20.332C26.8999 19.9401 27.4367 19.9056 28.0338 20.1733Z" fill="#FDFCFC"/>
<path d="M24.9145 11.8829C24.9809 11.8831 25.0473 11.8833 25.1157 11.8835C27.9155 11.8961 30.5252 12.7307 32.8124 14.3549C32.8938 14.4124 32.9751 14.4699 33.0589 14.5292C34.7398 15.7996 36.3066 17.5568 37.1093 19.5306C37.0771 19.6273 37.0449 19.724 37.0117 19.8236C36.9536 19.7126 36.8956 19.6015 36.8358 19.4871C35.099 16.2257 32.3465 13.9145 28.796 12.8263C25.3898 11.8506 21.6135 12.2355 18.5048 13.9433C15.4745 15.6691 13.2622 18.422 12.3046 21.7767C12.1317 21.3716 12.2966 21.0246 12.4389 20.6354C12.4652 20.5626 12.4916 20.4898 12.5187 20.4148C13.1693 18.6827 14.1618 17.2585 15.4296 15.9174C15.5036 15.837 15.5777 15.7567 15.6539 15.674C18.0314 13.1799 21.5088 11.8684 24.9145 11.8829Z" fill="#D3DADE"/>
<path d="M34.4727 29.7852C34.5049 29.8496 34.5371 29.9141 34.5703 29.9805C34.4563 30.1984 34.3383 30.3979 34.2041 30.603C34.1645 30.6639 34.1249 30.7248 34.0841 30.7875C33.6567 31.4262 33.1591 31.9769 32.6172 32.5195C32.5483 32.5895 32.4795 32.6595 32.4085 32.7316C30.5321 34.5187 27.8381 35.4885 25.2759 35.48C25.0814 35.4797 24.8868 35.4821 24.6923 35.4845C23.5025 35.4851 22.3605 35.3057 21.2402 34.8938C21.1717 34.8688 21.1031 34.8439 21.0324 34.8181C18.7781 33.9682 16.9008 32.4175 15.625 30.3711C15.5491 30.1353 15.5491 30.1353 15.5273 29.9805C15.8148 30.2528 16.0377 30.5322 16.2598 30.8594C17.7936 32.9847 20.0214 34.3042 22.5586 34.8633C22.6396 34.8814 22.7207 34.8995 22.8042 34.9182C25.6183 35.492 28.6268 34.9147 31.0547 33.3984C32.3764 32.5066 33.414 31.414 34.2773 30.0781C34.3418 29.9814 34.4062 29.8848 34.4727 29.7852Z" fill="#D4DBDF"/>
<path d="M47.6562 26.0742C47.6562 26.2354 47.6562 26.3965 47.6562 26.5625C44.616 27.5979 41.5345 28.6191 38.2812 28.5156C38.3135 28.3545 38.3457 28.1934 38.3789 28.0273C38.4747 28.0146 38.5704 28.0019 38.6691 27.9887C41.5684 27.6013 44.3127 27.1253 47.0829 26.1604C47.3633 26.0742 47.3633 26.0742 47.6562 26.0742Z" fill="#C6C5C0"/>
<path d="M2.34375 26.0742C2.70867 26.1399 3.05114 26.2369 3.40309 26.3531C6.10635 27.2301 8.7988 27.7304 11.6211 28.0273C11.6694 28.269 11.6694 28.269 11.7188 28.5156C8.49387 28.6857 5.34377 27.611 2.34375 26.5625C2.34375 26.4014 2.34375 26.2402 2.34375 26.0742Z" fill="#C9C7C1"/>
<path d="M25.488 23.3398C25.8382 23.4996 25.9561 23.6025 26.1716 23.9257C26.2424 24.3655 26.2302 24.7063 26.0007 25.0915C25.6946 25.3722 25.5185 25.4746 25.1035 25.5187C24.7563 25.4833 24.59 25.4099 24.3162 25.1953C24.1084 24.9302 24.0301 24.7535 23.9805 24.4201C24.0348 24.0395 24.1761 23.8339 24.4138 23.5351C24.7758 23.2938 25.0683 23.2857 25.488 23.3398Z" fill="#F7F7F7"/>
<path d="M37.207 19.8242C37.3037 19.8242 37.4004 19.8242 37.5 19.8242C37.8142 20.7379 38.0656 21.5824 38.0859 22.5586C38.3438 22.5586 38.6016 22.5586 38.8672 22.5586C38.7705 22.6875 38.6738 22.8164 38.5742 22.9492C38.7998 22.9492 39.0254 22.9492 39.2578 22.9492C39.2578 22.9814 39.2578 23.0137 39.2578 23.0469C39.0645 23.0469 38.8711 23.0469 38.6719 23.0469C38.6729 23.1532 38.6739 23.2594 38.675 23.3689C38.6785 23.7686 38.6808 24.1683 38.6826 24.568C38.6836 24.74 38.6849 24.9119 38.6866 25.0839C38.696 26.0516 38.6897 26.9794 38.4766 27.9297C38.2832 27.9297 38.0898 27.9297 37.8906 27.9297C37.9045 27.7303 37.9189 27.5309 37.9333 27.3315C37.9413 27.2205 37.9492 27.1095 37.9574 26.9951C37.9883 26.6602 37.9883 26.6602 38.0374 26.3836C38.3591 24.3342 38.0958 22.1215 37.283 20.2168C37.207 20.0195 37.207 20.0195 37.207 19.8242Z" fill="#322816"/>
<path d="M11.9141 22.168C11.9463 22.168 11.9785 22.168 12.0117 22.168C12.0049 22.2297 11.998 22.2913 11.991 22.3549C11.9144 23.1074 11.8954 23.8533 11.8958 24.6094C11.8957 24.7328 11.8956 24.8562 11.8956 24.9833C11.9011 25.9758 11.9723 26.9472 12.1094 27.9297C11.916 27.9297 11.7227 27.9297 11.5234 27.9297C11.3119 26.8723 11.3049 25.8477 11.3159 24.7742C11.3169 24.6059 11.3178 24.4376 11.3186 24.2693C11.3207 23.8618 11.3241 23.4543 11.3281 23.0469C11.2314 23.0146 11.1348 22.9824 11.0352 22.9492C11.1641 22.9492 11.293 22.9492 11.4258 22.9492C11.4258 22.8525 11.4258 22.7559 11.4258 22.6562C11.3291 22.624 11.2324 22.5918 11.1328 22.5586C11.3906 22.5586 11.6484 22.5586 11.9141 22.5586C11.9141 22.4297 11.9141 22.3008 11.9141 22.168Z" fill="#322815"/>
<path d="M22.4609 41.6016C22.8733 41.6474 23.2427 41.7276 23.6389 41.8518C24.6092 42.1216 25.534 42.0435 26.4931 41.7709C26.8414 41.6766 27.1804 41.6361 27.5391 41.6016C27.5391 41.7305 27.5391 41.8594 27.5391 41.9922C26.1174 42.6153 24.6352 42.8444 23.1445 42.2852C22.8754 42.1658 22.6219 42.036 22.3633 41.8945C22.3955 41.7979 22.4277 41.7012 22.4609 41.6016Z" fill="#F8E68B"/>
<path d="M16.1133 14.3555C16.1778 14.3877 16.2423 14.4199 16.3087 14.4531C16.2049 14.5569 16.1011 14.6606 15.9974 14.7644C15.9344 14.8275 15.8715 14.8905 15.8066 14.9555C15.6677 15.0942 15.5276 15.2317 15.387 15.3687C13.4347 17.3686 12.3404 19.8142 11.9141 22.5586C11.7852 22.5586 11.6563 22.5586 11.5235 22.5586C11.5012 22.0389 11.5735 21.5936 11.7249 21.0999C11.7467 21.028 11.7684 20.9561 11.7908 20.8821C12.5834 18.352 14.0587 16.0463 16.1133 14.3555Z" fill="#C4AE61"/>
<path d="M34.375 14.9414C35.899 15.5677 37.0598 18.0363 37.6953 19.4336C38.104 20.4189 38.5215 21.4805 38.4766 22.5586C38.3477 22.5586 38.2188 22.5586 38.0859 22.5586C38.0716 22.4662 38.0572 22.3738 38.0424 22.2786C37.6005 19.6058 36.4566 17.4202 34.6863 15.3889C34.4727 15.1367 34.4727 15.1367 34.375 14.9414Z" fill="#C6AF62"/>
<path d="M15.6249 15.918C15.6894 15.9502 15.7538 15.9824 15.8202 16.0156C15.7399 16.0903 15.6596 16.1649 15.5769 16.2418C13.9774 17.7618 12.9107 19.6541 12.3046 21.7773C12.1317 21.3722 12.2966 21.0252 12.4389 20.636C12.4652 20.5632 12.4916 20.4904 12.5187 20.4154C13.0059 19.1184 13.6781 17.969 14.5507 16.8945C14.6183 16.8068 14.6859 16.719 14.7556 16.6286C14.9584 16.3858 15.1546 16.2653 15.4296 16.1133C15.4941 16.0488 15.5585 15.9844 15.6249 15.918Z" fill="#C5CCCF"/>
<path d="M25.6836 21.1928C25.6836 21.515 25.6836 21.8373 25.6836 22.1693C25.6514 22.1693 25.6191 22.1693 25.5859 22.1693C25.5859 22.0082 25.5859 21.8471 25.5859 21.681C24.877 21.681 24.168 21.681 23.4375 21.681C23.4375 21.6166 23.4375 21.5521 23.4375 21.4857C24.1805 21.1316 24.8775 20.9241 25.6836 21.1928Z" fill="#676767"/>
<path d="M23.9258 4.6875C24.667 4.6875 25.4082 4.6875 26.1719 4.6875C26.1396 4.88086 26.1074 5.07422 26.0742 5.27344C25.3975 5.27344 24.7207 5.27344 24.0234 5.27344C23.9912 5.08008 23.959 4.88672 23.9258 4.6875Z" fill="#866A32"/>
<path d="M37.207 19.8242C37.3037 19.8242 37.4004 19.8242 37.5 19.8242C37.8142 20.7379 38.0656 21.5824 38.0859 22.5586C38.3438 22.5586 38.6016 22.5586 38.8672 22.5586C38.7512 22.8027 38.7512 22.8027 38.5742 23.0469C38.319 23.0621 38.319 23.0621 38.0859 23.0469C38.0697 22.9805 38.0535 22.9141 38.0368 22.8457C37.962 22.5403 37.8866 22.2351 37.8113 21.9299C37.7858 21.8255 37.7603 21.7211 37.734 21.6135C37.5836 21.0061 37.4138 20.4149 37.207 19.8242Z" fill="#59594A"/>
<path d="M35.6445 25.6836C35.6768 25.6836 35.709 25.6836 35.7422 25.6836C35.7271 26.3966 35.6116 27.0526 35.4126 27.7344C35.382 27.8412 35.382 27.8412 35.3507 27.9503C35.2391 28.3168 35.1336 28.629 34.8633 28.9062C34.7183 28.9546 34.7183 28.9546 34.5703 29.0039C34.7017 28.5915 34.8542 28.1918 35.016 27.7908C35.2968 27.0925 35.5358 26.4326 35.6445 25.6836Z" fill="#5C6466"/>
<path d="M34.2773 29.1016C34.3418 29.1338 34.4062 29.166 34.4727 29.1992C33.979 29.9277 33.4698 30.6257 32.8735 31.2744C32.8248 31.3279 32.776 31.3815 32.7258 31.4366C32.4826 31.6957 32.2677 31.9014 31.9336 32.0312C32.0101 31.9426 32.0867 31.854 32.1655 31.7627C32.2187 31.7004 32.2718 31.6381 32.3265 31.5739C32.4687 31.4072 32.6118 31.2412 32.7553 31.0757C33.2154 30.537 33.6269 30.0049 33.9691 29.3812C34.082 29.1992 34.082 29.1992 34.2773 29.1016Z" fill="#A7A494"/>
<path d="M12.8906 19.2383C13.0216 19.6315 12.8772 19.8542 12.7197 20.2148C12.464 20.8231 12.2618 21.4271 12.1093 22.0703C12.0771 22.0703 12.0449 22.0703 12.0117 22.0703C11.9838 21.5149 12.0784 21.067 12.2436 20.5383C12.2653 20.4655 12.2869 20.3927 12.3092 20.3176C12.5232 19.6123 12.5232 19.6123 12.6953 19.3359C12.7597 19.3037 12.8242 19.2715 12.8906 19.2383Z" fill="#434A47"/>
<path d="M22.4609 41.6016C22.9074 41.6551 23.308 41.74 23.7305 41.8945C23.666 42.0557 23.6016 42.2168 23.5352 42.3828C23.3946 42.3386 23.2543 42.2937 23.114 42.2485C23.0358 42.2236 22.9577 42.1987 22.8771 42.173C22.6562 42.0898 22.6562 42.0898 22.3633 41.8945C22.3955 41.7979 22.4277 41.7012 22.4609 41.6016Z" fill="#EDD775"/>
<path d="M15.918 29.6875C16.0146 29.6875 16.1113 29.6875 16.2109 29.6875C16.3582 29.8668 16.3582 29.8668 16.5161 30.1147C16.8383 30.598 17.1998 31.0182 17.5957 31.4423C17.7734 31.6406 17.7734 31.6406 17.8711 31.8359C17.0049 31.4413 16.4464 30.5448 15.918 29.7852C15.918 29.7529 15.918 29.7207 15.918 29.6875Z" fill="#A6A494"/>
<path d="M14.2578 25.8789C14.5043 26.1254 14.5229 26.3039 14.5996 26.6418C14.6683 26.9422 14.7364 27.2221 14.8521 27.5078C14.9626 27.7882 14.9553 28.0218 14.9414 28.3203C14.7461 28.2227 14.7461 28.2227 14.645 27.9484C14.4494 27.2573 14.2909 26.5978 14.2578 25.8789Z" fill="#575F62"/>
<path d="M27.5391 41.6017C27.5391 41.7306 27.5391 41.8595 27.5391 41.9923C27.2812 42.089 27.0234 42.1857 26.7578 42.2853C26.7578 42.1564 26.7578 42.0275 26.7578 41.8947C26.6611 41.8625 26.5645 41.8302 26.4648 41.797C26.8382 41.6581 27.1399 41.5782 27.5391 41.6017Z" fill="#E0C863"/>
<path d="M15.5273 7.22656C15.5918 7.25879 15.6562 7.29102 15.7227 7.32422C15.3843 7.61426 15.3843 7.61426 15.0391 7.91016C15.197 7.59426 15.2809 7.45061 15.5273 7.22656ZM14.9414 7.91016C15.0059 7.97461 15.0703 8.03906 15.1367 8.10547C14.8789 8.39551 14.6211 8.68555 14.3555 8.98438C14.3555 8.63225 14.4353 8.55338 14.6484 8.28247C14.7028 8.2126 14.7572 8.14274 14.8132 8.07076C14.8555 8.01776 14.8978 7.96476 14.9414 7.91016Z" fill="#151106"/>
<path d="M11.9141 22.168C11.9463 22.168 11.9785 22.168 12.0117 22.168C11.9795 22.458 11.9473 22.748 11.9141 23.0469C11.7529 23.0469 11.5918 23.0469 11.4258 23.0469C11.4258 22.918 11.4258 22.7891 11.4258 22.6562C11.3291 22.624 11.2324 22.5918 11.1328 22.5586C11.3906 22.5586 11.6484 22.5586 11.9141 22.5586C11.9141 22.4297 11.9141 22.3008 11.9141 22.168Z" fill="#534D3C"/>
<path d="M37.207 19.8242C37.3037 19.8242 37.4004 19.8242 37.5 19.8242C37.6861 20.3226 37.8346 20.7484 37.793 21.2891C37.6172 21.0253 37.5065 20.7943 37.3901 20.5017C37.3556 20.416 37.3212 20.3303 37.2856 20.2419C37.207 20.0195 37.207 20.0195 37.207 19.8242Z" fill="#414948"/>
<path d="M37.793 28.0273C37.9863 28.0273 38.1797 28.0273 38.3789 28.0273C38.3467 28.1885 38.3145 28.3496 38.2812 28.5156C38.0879 28.5156 37.8945 28.5156 37.6953 28.5156C37.7275 28.3545 37.7598 28.1934 37.793 28.0273Z" fill="#ADA28D"/>
<path d="M11.6211 28.0273C11.8145 28.0273 12.0078 28.0273 12.207 28.0273C12.2393 28.1885 12.2715 28.3496 12.3047 28.5156C12.1113 28.5156 11.918 28.5156 11.7188 28.5156C11.6865 28.3545 11.6543 28.1934 11.6211 28.0273Z" fill="#AEA38D"/>
<path d="M33.6914 6.54297C34.0319 6.65131 34.353 6.764 34.668 6.93359C34.668 7.09473 34.668 7.25586 34.668 7.42188C34.5414 7.33092 34.4154 7.23922 34.2896 7.14722C34.2193 7.09623 34.1491 7.04525 34.0767 6.99272C33.8867 6.83594 33.8867 6.83594 33.6914 6.54297Z" fill="#83692E"/>
<path d="M16.1133 15.2344C16.1455 15.3311 16.1777 15.4277 16.2109 15.5273C15.8887 15.8174 15.5664 16.1074 15.2344 16.4062C15.1699 16.374 15.1055 16.3418 15.0391 16.3086C15.3936 15.9541 15.748 15.5996 16.1133 15.2344Z" fill="#DAE1E5"/>
<path d="M22.4609 41.6016C22.6865 41.6338 22.9121 41.666 23.1445 41.6992C23.1123 41.7637 23.0801 41.8281 23.0469 41.8945C22.9824 41.8945 22.918 41.8945 22.8516 41.8945C22.8516 41.959 22.8516 42.0234 22.8516 42.0898C22.6099 41.9932 22.6099 41.9932 22.3633 41.8945C22.3955 41.7979 22.4277 41.7012 22.4609 41.6016Z" fill="#E3C95F"/>
<path d="M27.9297 41.3086C27.8975 41.4697 27.8652 41.6309 27.832 41.7969C27.7354 41.8291 27.6387 41.8613 27.5391 41.8945C27.5391 41.7979 27.5391 41.7012 27.5391 41.6016C27.4424 41.5693 27.3457 41.5371 27.2461 41.5039C27.5046 41.3613 27.6264 41.3086 27.9297 41.3086Z" fill="#D4B748"/>
<path d="M38.8672 22.6558C38.7705 22.7041 38.7705 22.7041 38.6719 22.7535C38.6396 22.8501 38.6074 22.9468 38.5742 23.0464C38.4131 23.0464 38.252 23.0464 38.0859 23.0464C38.0859 22.9175 38.0859 22.7886 38.0859 22.6558C38.4069 22.5777 38.5459 22.5487 38.8672 22.6558Z" fill="#504939"/>
<path d="M16.3086 6.44531C16.373 6.47754 16.4375 6.50977 16.5039 6.54297C16.1172 6.88135 16.1172 6.88135 15.7227 7.22656C15.6582 7.09766 15.5938 6.96875 15.5273 6.83594C15.653 6.76786 15.7792 6.70093 15.9058 6.63452C15.976 6.59713 16.0462 6.55975 16.1186 6.52122C16.1813 6.49617 16.244 6.47112 16.3086 6.44531Z" fill="#6C5627"/>
<path d="M22.168 41.4062C22.458 41.4546 22.458 41.4546 22.7539 41.5039C22.5769 41.6565 22.5769 41.6565 22.3633 41.7969C22.2666 41.7646 22.1699 41.7324 22.0703 41.6992C22.1025 41.6025 22.1348 41.5059 22.168 41.4062Z" fill="#D3B649"/>
</g>
<defs>
<clipPath id="clip0_3130_42743">
<rect width="50" height="50" fill="white"/>
</clipPath>
</defs>
</svg>
