<svg width="50" height="50" viewBox="0 0 50 50" fill="none" xmlns="http://www.w3.org/2000/svg">
<g clip-path="url(#clip0_3144_42714)">
<path d="M10.1193 5.02138C11.3052 4.17314 12.2629 3.54013 13.5813 2.86198C18.3734 0.422285 23.8199 -0.421692 29.1257 0.453276C35.7053 1.5565 41.5708 5.24458 45.4162 10.6964C46.323 11.9907 47.1074 13.3665 47.7595 14.8061C47.9228 15.1629 48.0608 15.5241 48.2097 15.8859C48.2605 16.0089 48.3576 16.2788 48.4148 16.3873C48.3901 16.5604 48.4028 16.6298 48.4209 16.8035C48.4834 17.1902 48.4978 18.2643 48.4839 18.6665C48.489 19.4192 48.4353 21.4731 48.155 22.1442C48.2839 22.2436 48.5508 22.4568 48.6482 22.5801C47.5622 24.2699 46.271 25.6122 44.2146 26.1175C44.0796 26.1507 43.8647 26.1876 43.728 26.1815L43.73 25.8741C43.436 25.5624 43.0644 25.1888 42.7947 24.8651C42.574 24.6314 42.3054 24.3976 42.0732 24.1717C40.8816 23.0123 39.7575 22.2316 38.3215 21.4155C38.1086 21.34 37.5879 21.0752 37.3596 20.9668C37.2785 21.0321 37.1926 21.0911 37.1076 21.1513C34.7007 22.8393 32.3164 24.721 30.5005 27.0499C30.385 26.9671 28.6489 26.4093 28.3762 26.3175L22.0723 24.1877L19.811 23.4224C19.5428 23.3324 18.9443 23.1136 18.6965 23.0681C18.087 20.21 17.7557 16.4618 16.3982 13.8837C16.2631 13.6876 16.2055 13.5782 16.0461 13.3895C15.7026 13.288 15.1296 13.2186 14.7655 13.1912C12.3248 13.0069 9.72124 13.646 7.48816 14.5938C7.27659 14.6897 7.06311 14.7814 6.84783 14.8687C6.81672 14.6918 6.80525 14.5101 6.78806 14.3309C6.66125 13.0088 6.58518 11.6542 6.79412 10.337C6.81873 10.1818 6.96638 9.54746 6.93484 9.45386C6.61504 9.57312 5.21809 10.1106 4.98047 10.1474C5.99817 8.61555 8.60352 6.06013 10.1193 5.02138Z" fill="#F4F4F5"/>
<path d="M24.7495 7.07812C25.3545 7.08447 26.0269 7.17224 26.6238 7.27283C28.9592 7.66646 31.2329 8.52554 33.2891 9.6939C33.5886 9.86414 34.5071 10.3704 34.7107 10.604C34.7224 10.7608 35.0281 11.2807 35.1123 11.4504C36.5378 14.3236 37.1943 17.5412 37.0584 20.7429C37.0522 20.8849 37.0369 21.026 37.1069 21.1517C34.7 22.8398 32.3157 24.7215 30.4998 27.0504C30.3843 26.9676 28.6482 26.4097 28.3755 26.3179L22.0716 24.1882L19.8103 23.4229C19.5421 23.3329 18.9436 23.1141 18.6958 23.0686C18.0863 20.2105 17.755 16.4622 16.3975 13.8842C16.5297 13.7976 17.0267 13.1868 17.1598 13.0323C17.4314 12.7182 17.7091 12.4094 17.9927 12.1061C19.6518 10.3343 21.4567 8.72964 23.608 7.58354C23.9109 7.42222 24.4221 7.12292 24.7495 7.07812Z" fill="#F4F4F5"/>
<path d="M39.7698 7.14844C40.1233 7.38755 40.5232 7.59978 40.8877 7.82893C44.1707 9.89299 46.5977 13.0143 48.2048 16.5103C48.2629 16.637 48.2927 16.7333 48.4204 16.8026C48.4829 17.1893 48.4973 18.2634 48.4834 18.6656C48.4885 19.4183 48.4348 21.4722 48.1545 22.1433C48.2834 22.2427 48.5503 22.456 48.6477 22.5793C47.5618 24.269 46.2705 25.6113 44.2141 26.1167C44.0791 26.1499 43.8643 26.1867 43.7275 26.1806L43.7295 25.8732C43.4355 25.5615 43.064 25.1879 42.7942 24.8642C42.5735 24.6306 42.3049 24.3968 42.0728 24.1708C40.8811 23.0114 39.7571 22.2308 38.321 21.4146C38.1082 21.3391 37.5874 21.0744 37.3591 20.966C37.2781 21.0313 37.1921 21.0902 37.1072 21.1504C37.0371 21.0247 37.0525 20.8835 37.0586 20.7416C37.1946 17.5399 36.5381 14.3223 35.1125 11.449C35.0283 11.2793 34.7227 10.7594 34.7109 10.6027C34.843 10.5465 35.0925 10.3669 35.2185 10.2814C35.5527 10.0216 36.1782 9.62266 36.553 9.36697L39.2063 7.55584C39.3394 7.46221 39.6731 7.24429 39.7698 7.14844Z" fill="#F4F4F5"/>
<path d="M39.7695 7.14844C40.123 7.38755 40.5229 7.59978 40.8875 7.82893C44.1704 9.89299 46.5974 13.0143 48.2046 16.5103C48.2627 16.637 48.2925 16.7333 48.4202 16.8026C48.4827 17.1893 48.4971 18.2634 48.4832 18.6656C48.4475 18.3915 48.3911 18.329 48.283 18.0818C46.8237 14.7443 44.8389 11.7802 41.9883 9.45049C41.4104 8.98137 40.8057 8.54661 40.177 8.14841C39.9048 7.97334 39.4231 7.77351 39.2061 7.55584C39.3391 7.46221 39.6729 7.24429 39.7695 7.14844Z" fill="#C4C2C2"/>
<path d="M34.7109 10.6025C34.843 10.5463 35.0925 10.3667 35.2185 10.2812C35.5151 10.8434 35.7737 11.3166 36.0344 11.9026C37.0615 14.2277 37.6306 16.7289 37.7109 19.2695C37.7295 19.8166 37.7007 20.3065 37.6946 20.8458C37.8479 20.9648 38.3076 21.2383 38.321 21.4145C38.1082 21.3389 37.5874 21.0742 37.3591 20.9658C37.2781 21.0311 37.1921 21.09 37.1072 21.1502C37.0371 21.0245 37.0525 20.8833 37.0586 20.7414C37.1946 17.5397 36.5381 14.3221 35.1125 11.4488C35.0283 11.2791 34.7227 10.7593 34.7109 10.6025Z" fill="#C4C2C2"/>
<path d="M48.1543 22.1445C48.2832 22.2439 48.55 22.4572 48.6475 22.5805C47.5615 24.2703 46.2703 25.6125 44.2139 26.1179C44.0789 26.1511 43.864 26.188 43.7273 26.1819L43.7292 25.8745C43.4353 25.5627 43.0637 25.1892 42.7939 24.8655C42.8052 24.8635 42.8164 24.8606 42.8279 24.8593C42.9873 24.8398 43.6345 25.424 43.7905 25.5537C44.0772 25.4948 44.3242 25.4365 44.603 25.3393C45.8254 24.9143 46.8252 24.0214 47.5959 23.0023C47.8005 22.7317 48.0049 22.4492 48.1543 22.1445Z" fill="#C4C2C2"/>
<path d="M23.4619 1.94608C24.2307 1.69226 24.8544 1.4829 25.6512 1.32503C28.6737 0.747225 31.8024 1.19018 34.5455 2.58425C36.2028 3.41416 37.6759 4.56899 38.8778 5.97998C39.2206 6.38555 39.4613 6.76453 39.7701 7.14937C39.6735 7.24522 39.3397 7.46314 39.2067 7.55676L36.5533 9.3679C36.1786 9.62358 35.5531 10.0225 35.2189 10.2824C35.0929 10.3679 34.8434 10.5474 34.7113 10.6036C34.5077 10.37 33.5892 9.86372 33.2897 9.69348C31.2335 8.52512 28.9598 7.66604 26.6244 7.27241C26.0275 7.17183 25.3551 7.08406 24.7501 7.07771C24.7081 7.06423 24.661 7.0646 24.6508 7.02556C24.2072 5.36348 23.9147 3.59946 23.4619 1.94608Z" fill="#343942"/>
<path d="M10.1191 5.02138C11.3051 4.17314 12.2628 3.54013 13.5812 2.86198C18.3733 0.422285 23.8198 -0.421692 29.1256 0.453276C35.7052 1.5565 41.5707 5.24458 45.4161 10.6964C46.3229 11.9907 47.1073 13.3665 47.7594 14.8061C47.9227 15.1629 48.0606 15.5241 48.2096 15.8859C48.2604 16.0089 48.3575 16.2788 48.4147 16.3873C48.39 16.5604 48.4027 16.6298 48.4208 16.8035C48.2931 16.7341 48.2633 16.6379 48.2052 16.5112C46.598 13.0152 44.171 9.89387 40.888 7.82981C40.5235 7.60066 40.1236 7.38843 39.7701 7.14931C39.4613 6.76447 39.2206 6.3855 38.8778 5.97993C37.6759 4.56894 36.2027 3.41411 34.5455 2.5842C31.8023 1.19013 28.6737 0.747172 25.6512 1.32498C24.8543 1.48285 24.2307 1.69221 23.4619 1.94603C23.9146 3.59941 24.2072 5.36342 24.6507 7.02551C24.661 7.06455 24.7081 7.06418 24.7501 7.07766C24.4227 7.12246 23.9115 7.42175 23.6086 7.58308C21.4573 8.72917 19.6524 10.3338 17.9933 12.1056C17.7097 12.4089 17.432 12.7177 17.1604 13.0319C17.0272 13.1863 16.5303 13.7971 16.398 13.8837C16.263 13.6876 16.2053 13.5782 16.046 13.3895C16.1232 13.2844 16.2227 13.1766 16.3078 13.0761C18.2582 10.7723 20.4536 8.58415 23.1195 7.11943C23.4883 6.91677 23.9334 6.66924 24.3287 6.5351C24.2256 6.33532 24.0645 5.62038 24.0024 5.36789L23.5046 3.32143C23.2417 2.20671 23.3162 2.3927 22.1747 2.18145C18.7184 1.54182 15.1729 2.38333 12.2011 4.20551C11.5251 4.62002 10.9786 5.08259 10.3413 5.52072C10.2744 5.36416 10.2114 5.15149 10.1191 5.02138Z" fill="url(#paint0_linear_3144_42714)"/>
<path d="M10.1193 5.01953C10.2115 5.14963 10.2745 5.3623 10.3414 5.51887C10.0645 5.92542 8.0095 8.99146 7.79856 9.15193C7.53423 9.22737 7.2 9.35649 6.93484 9.452C6.61504 9.57127 5.21809 10.1088 4.98047 10.1456C5.99817 8.6137 8.60352 6.05828 10.1193 5.01953Z" fill="#343942"/>
<path d="M6.93408 9.45242C7.19924 9.35691 7.53347 9.22778 7.7978 9.15234L7.79064 9.17388C7.76103 9.26033 7.73911 9.28362 7.71552 9.34119C7.2038 10.5897 7.27565 12.3096 7.35964 13.6364C7.37497 13.8789 7.4072 14.3867 7.45996 14.5706L7.4874 14.5923C7.27583 14.6883 7.06235 14.7799 6.84706 14.8673C6.81596 14.6903 6.80449 14.5087 6.7873 14.3294C6.66049 13.0074 6.58442 11.6528 6.79335 10.3356C6.81796 10.1804 6.96562 9.54602 6.93408 9.45242Z" fill="#C4C2C2"/>
<path d="M18.6962 23.0664C18.944 23.1119 19.5425 23.3307 19.8108 23.4207L22.072 24.186L28.3759 26.3157C28.6486 26.4075 30.3847 26.9654 30.5002 27.0482C30.4392 27.1392 30.3876 27.2183 30.3181 27.304C30.4016 27.5924 30.4433 27.9176 30.5002 28.2147C31.0048 30.8436 31.1743 33.5448 31.8601 36.1363C31.9228 36.3734 32.0119 36.6463 32.1015 36.8734L32.3915 36.9215L32.3383 37.0218C32.184 37.3079 31.8435 37.7152 31.6354 37.9827C30.0351 40.0411 28.104 41.8949 25.8256 43.1859C25.4956 43.3729 24.9089 43.7091 24.55 43.8077C24.5104 43.6864 24.4062 43.2916 24.3406 43.2196C24.2594 43.2513 24.0552 43.307 23.9675 43.3092C20.3178 43.4024 17.0054 42.2105 14.1648 39.9676C12.4971 37.701 11.9357 35.3824 11.6489 32.5975C11.5913 32.0379 11.5141 31.1312 11.5436 30.587C11.7748 30.3697 12.0469 30.0743 12.2783 29.8416C12.7104 29.4071 13.1491 28.9791 13.5942 28.5577C14.8597 27.3526 16.1631 26.1915 17.4564 25.0167C17.9245 24.5914 18.3516 24.1398 18.8093 23.7164C18.7936 23.5486 18.7281 23.2421 18.6962 23.0664Z" fill="#F4F4F5"/>
<path d="M18.6963 23.0664C18.9441 23.1119 19.5426 23.3307 19.8108 23.4207L22.0721 24.186L28.376 26.3157C28.6487 26.4075 30.3848 26.9654 30.5002 27.0482C30.4392 27.1392 30.3877 27.2183 30.3181 27.304C30.4016 27.5924 30.4434 27.9176 30.5002 28.2147C31.0049 30.8436 31.1743 33.5448 31.8601 36.1363C31.9229 36.3734 32.012 36.6463 32.1016 36.8734L32.3916 36.9215L32.3384 37.0218C32.1841 37.3079 31.8435 37.7152 31.6355 37.9827C30.0352 40.0411 28.104 41.8949 25.8257 43.1859C25.4956 43.3729 24.9089 43.7091 24.55 43.8077C24.5105 43.6864 24.4062 43.2916 24.3406 43.2196C27.4187 41.8077 29.7878 39.5003 31.7522 36.775C31.6182 35.9039 31.4214 34.9681 31.2605 34.0938C30.8472 31.9083 30.4497 29.7198 30.0684 27.5284C29.0193 27.19 27.9736 26.8407 26.9319 26.4803L22.3417 24.9327L20.0986 24.1761C19.8088 24.0793 19.0558 23.8418 18.8093 23.7164C18.7936 23.5486 18.7281 23.2421 18.6963 23.0664Z" fill="#C4C2C2"/>
<path d="M7.48777 14.5945C9.72085 13.6467 12.3244 13.0076 14.7651 13.1918C15.1292 13.2193 15.7022 13.2886 16.0458 13.3902C16.2051 13.5789 16.2627 13.6883 16.3978 13.8844C17.7553 16.4624 18.0866 20.2107 18.6961 23.0688C18.728 23.2445 18.7935 23.551 18.8092 23.7188C18.3515 24.1422 17.9244 24.5938 17.4563 25.0191C16.163 26.1939 14.8596 27.355 13.5941 28.5601C13.149 28.9815 12.7103 29.4095 12.2782 29.844C12.0468 30.0767 11.7747 30.3721 11.5435 30.5894C11.4346 30.5721 11.0282 30.418 10.9046 30.3733C8.31899 29.1541 6.60369 27.1663 4.85537 24.9705L4.66113 24.7107L4.66445 24.4147C4.82739 20.6618 5.30012 18.3359 6.84744 14.8694C7.06272 14.7821 7.2762 14.6904 7.48777 14.5945Z" fill="#343942"/>
<path d="M40.9409 35.7568C40.9932 35.667 41.0423 35.5625 41.0891 35.4688C41.2261 35.5742 41.3762 35.8662 41.4636 36.0261C42.0454 37.0989 42.4263 38.2688 42.5874 39.4783C42.6302 39.8049 42.6448 40.0559 42.6602 40.3772C42.6682 40.5417 42.6704 41.2126 42.7007 41.3025C43.0091 41.1799 44.1526 40.6814 44.3972 40.657C44.274 40.821 44.1377 40.9766 44.0044 41.1301C43.1157 42.1533 42.145 43.1179 41.1143 43.9978C40.9636 44.1265 40.8411 44.323 40.7068 44.4683C40.5391 44.6621 40.2923 44.8054 40.0684 44.9265C39.5017 45.2532 38.9346 45.6653 38.3697 46.0029C38.2613 46.0676 37.8814 46.3176 37.7906 46.3479C37.2427 46.6919 36.6067 47.0256 36.0276 47.3132C32.6106 48.9985 28.8523 49.8762 25.0425 49.8789C24.2873 49.8821 22.9155 49.8369 22.173 49.6746L22.0996 49.5898C22.1309 49.5371 22.2323 49.5403 22.3148 49.5249C23.6429 49.2773 24.6763 48.9883 25.9121 48.4858L26.1546 48.3147C26.094 48.1997 26.0427 48.0569 25.9944 47.9343C25.4954 46.6025 25.0169 45.1592 24.5498 43.8079C24.9087 43.7092 25.4954 43.373 25.8255 43.186C28.1038 41.895 30.0349 40.0413 31.6353 37.9829C31.8433 37.7153 32.1839 37.3081 32.3382 37.022L32.3914 36.9216C35.0283 37.4763 37.7854 36.9719 40.2796 36.0649C40.5142 35.9639 40.7163 35.8804 40.9409 35.7568Z" fill="#F4F4F5"/>
<path d="M40.9409 35.7568C40.9932 35.667 41.0423 35.5625 41.0891 35.4688C41.2261 35.5742 41.3762 35.8662 41.4636 36.0261C42.0454 37.0989 42.4263 38.2688 42.5874 39.4783C42.6302 39.8049 42.6448 40.0559 42.6602 40.3772C42.6682 40.5417 42.6704 41.2126 42.7007 41.3025C43.0091 41.1799 44.1526 40.6814 44.3972 40.657C44.274 40.821 44.1377 40.9766 44.0044 41.1301C43.1157 42.1533 42.145 43.1179 41.1143 43.9978C40.9636 44.1265 40.8411 44.323 40.7068 44.4683C40.5391 44.6621 40.2923 44.8054 40.0684 44.9265C39.5017 45.2532 38.9346 45.6653 38.3697 46.0029C38.2613 46.0676 37.8814 46.3176 37.7906 46.3479C37.2427 46.6919 36.6067 47.0256 36.0276 47.3132C32.6106 48.9985 28.8523 49.8762 25.0425 49.8789C24.2873 49.8821 22.9155 49.8369 22.173 49.6746L22.0996 49.5898C22.1309 49.5371 22.2323 49.5403 22.3148 49.5249C23.6429 49.2773 24.6763 48.9883 25.9121 48.4858L26.1546 48.3147C26.094 48.1997 26.0427 48.0569 25.9944 47.9343C26.3289 47.906 26.6675 47.9624 26.9998 47.967C27.4607 47.9734 27.9458 47.9795 28.406 47.9668C30.8836 47.9063 33.3311 47.4109 35.637 46.5032C36.9202 46.0029 38.2097 45.3372 39.3684 44.5947C39.5723 44.4641 40.075 44.1702 40.2161 44.0022C40.5757 43.5737 40.8889 43.0064 41.2224 42.5391C41.4702 42.1538 41.7644 41.7839 41.9827 41.3816C42.0259 41.2539 42.0398 41.0496 42.0388 40.918C42.0283 39.5964 41.7776 38.2842 41.239 37.0742C41.0894 36.7378 40.9053 36.4312 40.7581 36.1021C40.575 36.1094 40.4522 36.1262 40.2796 36.0649C40.5142 35.9639 40.7163 35.8804 40.9409 35.7568Z" fill="#C4C2C2"/>
<path d="M25.9121 48.4874C26.1597 48.5858 26.909 48.5866 27.2063 48.5951C30.0406 48.681 32.8648 48.2159 35.522 47.226C36.2412 46.953 36.9241 46.6583 37.6236 46.3405C37.689 46.3107 37.7295 46.3268 37.7906 46.3495C37.2427 46.6935 36.6067 47.0272 36.0276 47.3148C32.6106 49.0001 28.8523 49.8778 25.0425 49.8805C24.2873 49.8837 22.9155 49.8385 22.173 49.6761L22.0996 49.5914C22.1309 49.5387 22.2323 49.5419 22.3148 49.5265C23.6429 49.2789 24.6763 48.9899 25.9121 48.4874Z" fill="#F4F4F5"/>
<path d="M42.7007 41.3018C43.009 41.1792 44.1526 40.6807 44.3972 40.6562C44.2739 40.8203 44.1377 40.9758 44.0044 41.1294C43.1157 42.1526 42.145 43.1172 41.1143 43.9971C40.9636 44.1257 40.8411 44.3223 40.7068 44.4675C40.5391 44.6614 40.2922 44.8047 40.0684 44.9258C40.1052 44.7717 40.4514 44.2871 40.5584 44.1282L41.4585 42.7905C41.7432 42.3669 42.0505 41.8816 42.3552 41.4719C42.4031 41.4075 42.6145 41.335 42.7007 41.3018Z" fill="#343942"/>
<path d="M37.3586 20.9648C37.5869 21.0732 38.1077 21.338 38.3206 21.4135C39.7566 22.2296 40.8806 23.0103 42.0723 24.1697C42.3044 24.3956 42.573 24.6294 42.7937 24.8631C43.0635 25.1868 43.4351 25.5604 43.729 25.8721L43.7271 26.1795C43.5769 29.2874 42.4863 32.3667 41.2168 35.1807C41.1738 35.2762 41.1294 35.3719 41.0886 35.4683C41.0417 35.5621 40.9927 35.6666 40.9404 35.7564C40.7158 35.8799 40.5137 35.9634 40.2791 36.0645C37.7849 36.9715 35.0278 37.4759 32.3909 36.9212L32.1008 36.8731C32.0112 36.646 31.9221 36.3731 31.8594 36.136C31.1736 33.5445 31.0042 30.8433 30.4995 28.2144C30.4426 27.9173 30.4009 27.5921 30.3174 27.3038C30.387 27.2181 30.4385 27.139 30.4995 27.0479C32.3154 24.719 34.6997 22.8373 37.1067 21.1493C37.1917 21.0891 37.2776 21.0301 37.3586 20.9648Z" fill="#343942"/>
<path d="M4.85542 24.9688C6.60374 27.1646 8.31904 29.1523 10.9046 30.3716C11.0283 30.4163 11.4347 30.5703 11.5436 30.5876C11.514 31.1318 11.5912 32.0386 11.6489 32.5981C11.9356 35.3831 12.497 37.7017 14.1648 39.9683C13.993 40.0908 13.8153 40.2773 13.6712 40.375C12.6969 41.2515 11.5695 42.301 10.5764 43.1335C10.4747 43.2314 10.3764 43.3281 10.2693 43.4204C10.3037 43.5203 10.3341 43.6079 10.3622 43.7104C9.81963 43.6306 8.47307 42.938 7.96074 42.6628C7.73923 42.5437 7.19902 42.2109 7.01082 42.1968C6.70078 41.9792 5.85657 40.9746 5.60877 40.6414C3.85847 38.3569 2.42721 36.0293 1.49536 33.2876C1.38352 32.9585 1.28228 32.6196 1.15159 32.2988C1.07934 32.1528 0.941192 31.5979 0.893565 31.4253C0.500701 30.0012 0.319334 28.6694 0.157176 27.2151C0.119444 26.9177 0.105115 26.6812 0.100586 26.3833C0.139655 26.5908 0.151001 26.5266 0.24878 26.6892C0.514324 27.0098 0.775201 27.3342 1.03133 27.6626C1.16933 27.8325 1.33433 28.0259 1.45997 28.2021C1.52377 28.136 1.63647 27.9128 1.68507 27.825C2.44841 26.4436 3.40449 25.5686 4.85542 24.9688Z" fill="#F4F4F5"/>
<path d="M10.9045 30.3711C11.0282 30.4158 11.4346 30.5698 11.5434 30.5872C11.5139 31.1313 11.5911 32.0381 11.6487 32.5977C11.9355 35.3826 12.4969 37.7012 14.1647 39.9678C13.9929 40.0903 13.8151 40.2769 13.6711 40.3745C13.3347 39.9905 12.8834 39.2419 12.6486 38.7893C11.5286 36.6301 11.0724 34.176 10.9231 31.7676C10.9066 31.5024 10.8335 30.5928 10.9045 30.3711Z" fill="#C4C2C2"/>
<path d="M0.100586 26.3828C0.139655 26.5903 0.151001 26.5261 0.24878 26.6887C0.514324 27.0093 0.775201 27.3337 1.03133 27.6621C1.16933 27.832 1.33433 28.0254 1.45997 28.2017C1.55067 28.8452 1.47748 31.7759 1.15159 32.2983C1.07934 32.1523 0.941192 31.5974 0.893565 31.4248C0.500701 30.0007 0.319334 28.6689 0.157176 27.2146C0.119444 26.9172 0.105115 26.6807 0.100586 26.3828Z" fill="#343942"/>
<path d="M0.100586 26.3828C0.139655 26.5903 0.151001 26.5261 0.24878 26.6887C0.15359 26.7822 0.261294 27.0088 0.157176 27.2146C0.119444 26.9172 0.105115 26.6807 0.100586 26.3828Z" fill="#373B4E"/>
<path d="M5.6084 40.6406C5.6615 40.6326 5.69966 40.6245 5.74978 40.6055C6.05791 40.75 6.60845 41.1199 6.92185 41.3157C7.49204 41.6741 8.07546 42.011 8.6709 42.3254C9.04675 42.519 9.43215 42.6936 9.82561 42.8484C9.93291 42.8901 10.5197 43.0977 10.576 43.1328C10.4743 43.2307 10.3761 43.3274 10.2689 43.4197C10.3033 43.5195 10.3337 43.6072 10.3618 43.7097C9.81926 43.6299 8.47271 42.9373 7.96038 42.6621C7.73887 42.543 7.19866 42.2102 7.01045 42.196C6.70041 41.9785 5.8562 40.9739 5.6084 40.6406Z" fill="#C4C2C2"/>
<path d="M13.6711 40.3755C13.8152 40.2778 13.9929 40.0913 14.1647 39.9688C17.0053 42.2117 20.3177 43.4036 23.9674 43.3103C24.0551 43.3081 24.2593 43.2524 24.3405 43.2207C24.4061 43.2927 24.5103 43.6875 24.5499 43.8088C25.0169 45.1602 25.4954 46.6035 25.9944 47.9353C26.0428 48.0579 26.094 48.2007 26.1546 48.3157L25.9122 48.4868C24.6763 48.9893 23.6429 49.2783 22.3148 49.5259C22.2323 49.5413 22.1309 49.5381 22.0996 49.5908L22.173 49.6755C22.1436 49.658 22.0766 49.6196 22.0454 49.6199C21.4946 49.6243 20.9776 49.5662 20.4346 49.4639C18.2169 49.0552 16.0652 48.3464 14.0388 47.3569C13.696 47.1858 13.3185 47.0281 13.0192 46.7932C10.9616 45.7637 8.57402 43.8855 7.01074 42.1973C7.19895 42.2114 7.73916 42.5442 7.96067 42.6633C8.473 42.9385 9.81956 43.6311 10.3621 43.7109C10.334 43.6084 10.3036 43.5208 10.2692 43.4209C10.3763 43.3286 10.4746 43.2319 10.5763 43.134C11.5694 42.3015 12.6968 41.252 13.6711 40.3755Z" fill="#343942"/>
<path d="M7.01074 42.1953C7.19895 42.2095 7.73916 42.5422 7.96067 42.6614C8.473 42.9365 9.81956 43.6292 10.3621 43.709L12.1113 45.6985C12.3253 45.9426 12.8754 46.5454 13.0192 46.7913C10.9616 45.7617 8.57402 43.8835 7.01074 42.1953Z" fill="#F4F4F5"/>
<path d="M48.6475 22.5781C48.8899 22.9882 49.7471 24.9514 49.9521 25.1675C49.8689 25.5462 49.9299 26.1895 49.9001 26.5928C49.8635 27.0865 49.8218 27.5667 49.7625 28.0589C49.3872 31.1153 48.4416 34.074 46.9746 36.7815C46.4768 37.7063 45.9185 38.5974 45.3037 39.4492C45.125 39.6975 44.9407 39.9419 44.751 40.1822C44.6487 40.3125 44.4651 40.5213 44.397 40.6565C44.1523 40.6809 43.0088 41.1795 42.7004 41.302C42.6702 41.2122 42.668 40.5413 42.6599 40.3767C42.6445 40.0554 42.6299 39.8045 42.5872 39.4778C42.426 38.2683 42.0452 37.0984 41.4634 36.0257C41.376 35.8657 41.2258 35.5738 41.0889 35.4683C41.1296 35.3718 41.1741 35.2761 41.217 35.1807C42.4866 32.3667 43.5771 29.2874 43.7273 26.1795C43.864 26.1856 44.0789 26.1487 44.2139 26.1155C46.2703 25.6101 47.5615 24.2679 48.6475 22.5781Z" fill="#F4F4F5"/>
<path d="M6.93403 9.45312C6.96557 9.54673 6.81792 10.1811 6.79331 10.3363C6.58437 11.6535 6.66044 13.0081 6.78725 14.3301C6.80444 14.5094 6.81591 14.691 6.84702 14.868C5.2997 18.3345 4.82697 20.6604 4.66403 24.4133L4.66071 24.7093L4.85495 24.9691C3.40402 25.5689 2.44795 26.4439 1.6846 27.8253C1.636 27.9132 1.52331 28.1363 1.4595 28.2025C1.33386 28.0262 1.16887 27.8329 1.03086 27.6629C0.774732 27.3346 0.513856 27.0101 0.248311 26.6895C0.150532 26.527 0.139187 26.5912 0.100117 26.3836C0.0580192 25.5157 0.0447045 24.113 0.10758 23.2166C0.44605 18.4832 2.13715 13.9467 4.97966 10.1467C5.21728 10.1099 6.61423 9.57239 6.93403 9.45312Z" fill="#F4F4F5"/>
<path d="M1.03125 27.6637C1.09021 27.5914 1.16888 27.4681 1.21565 27.3851C1.88168 26.2 2.88127 25.1754 4.12038 24.5946C4.27614 24.5216 4.49419 24.4273 4.66443 24.4141L4.66111 24.7101L4.85534 24.9698C3.40442 25.5697 2.44834 26.4447 1.68499 27.826C1.6364 27.9139 1.5237 28.1371 1.45989 28.2032C1.33425 28.027 1.16926 27.8336 1.03125 27.6637Z" fill="#C4C2C2"/>
<path d="M48.4141 16.3867C49.3074 18.8048 49.8154 21.3481 49.9197 23.9238C49.9314 24.2183 49.97 24.8904 49.9521 25.169C49.7471 24.9529 48.8899 22.9897 48.6475 22.5796C48.55 22.4563 48.2832 22.243 48.1543 22.1436C48.4346 21.4726 48.4883 19.4186 48.4832 18.6659C48.4971 18.2637 48.4827 17.1896 48.4202 16.8029C48.4021 16.6293 48.3894 16.5599 48.4141 16.3867Z" fill="#343942"/>
</g>
<defs>
<linearGradient id="paint0_linear_3144_42714" x1="23.8387" y1="18.8422" x2="35.3045" y2="1.95907" gradientUnits="userSpaceOnUse">
<stop stop-color="#B2AFAE"/>
<stop offset="1" stop-color="#FAFAFC"/>
</linearGradient>
<clipPath id="clip0_3144_42714">
<rect width="50" height="50" fill="white"/>
</clipPath>
</defs>
</svg>
