<svg width="24" height="24" viewBox="0 0 24 24" fill="none" xmlns="http://www.w3.org/2000/svg">
<path d="M1 20.6429C1 18.0787 4.80558 16 9.5 16C14.1944 16 18 18.0787 18 20.6429V20.7368C18 20.8822 17.7843 21 17.5182 21H1.48178C1.2157 21 1 20.8822 1 20.7368V20.6429Z" fill="#C8C8C8"/>
<path fill-rule="evenodd" clip-rule="evenodd" d="M20.4315 10.8384C20.0617 11.5798 19.5197 12.2534 18.8363 12.8208L18.8513 12.8333L20.2414 13.9876L20.2564 14L20.2584 13.9983C20.7311 13.6055 21.1507 13.1729 21.5107 12.7081C21.8125 12.3186 22.0725 11.9065 22.287 11.4766C22.7577 10.5329 23 9.52144 23 8.5C23 7.47856 22.7577 6.46711 22.287 5.52342C22.0725 5.09347 21.8125 4.68142 21.5107 4.2919C21.1502 3.82647 20.7299 3.3932 20.2564 3L20.2414 3.01244L18.8513 4.16673L18.8363 4.17916C19.5197 4.74658 20.0617 5.42021 20.4315 6.16158C20.8014 6.90295 20.9917 7.69755 20.9917 8.5C20.9917 9.30245 20.8014 10.097 20.4315 10.8384ZM16.7257 9.56378C16.5576 9.90078 16.3113 10.207 16.0007 10.465L16 10.4656L16.0126 10.4761L17.4051 11.6324L17.4177 11.6428L17.4181 11.6424C17.8993 11.2428 18.2842 10.7706 18.5523 10.2515C18.561 10.2347 18.5695 10.2178 18.578 10.2009C18.847 9.6616 18.9854 9.08363 18.9854 8.49995C18.9854 7.91627 18.847 7.3383 18.578 6.79905C18.5695 6.78212 18.561 6.76524 18.5523 6.74841C18.2843 6.22937 17.8995 5.75735 17.4184 5.35771L17.4177 5.35709L17.4051 5.36753L16.0126 6.52382L16 6.53426C16.3109 6.7924 16.5575 7.09885 16.7257 7.43613C16.894 7.7734 16.9806 8.13489 16.9806 8.49995C16.9806 8.86501 16.894 9.2265 16.7257 9.56378Z" fill="#C8C8C8"/>
<path d="M15 8.5C15 11.5376 12.5376 14 9.5 14C6.46243 14 4 11.5376 4 8.5C4 5.46243 6.46243 3 9.5 3C12.5376 3 15 5.46243 15 8.5Z" fill="#C8C8C8"/>
<path fill-rule="evenodd" clip-rule="evenodd" d="M9.36362 9.00001H7L8.63637 4H11.3636L10.3818 6.99998H13L7.54545 13L9.36362 9.00001Z" fill="#FF3232"/>
</svg>
