<svg width="24" height="24" viewBox="0 0 24 24" fill="none" xmlns="http://www.w3.org/2000/svg">
<path fill-rule="evenodd" clip-rule="evenodd" d="M18.7985 12.551C18.4815 13.3598 18.0169 14.0946 17.4311 14.7136L17.444 14.7272L18.6355 15.9864L18.6483 16L18.6501 15.9981C19.0553 15.5697 19.4149 15.0977 19.7235 14.5907C19.9821 14.1657 20.205 13.7162 20.3888 13.2472C20.7923 12.2177 21 11.1143 21 10C21 8.8857 20.7923 7.78231 20.3888 6.75282C20.205 6.28379 19.9821 5.83428 19.7235 5.40935C19.4144 4.9016 19.0542 4.42895 18.6483 4L18.6355 4.01357L17.444 5.27279L17.4311 5.28636C18.0168 5.90537 18.4815 6.64023 18.7985 7.449C19.1155 8.25776 19.2786 9.1246 19.2786 10C19.2786 10.8754 19.1155 11.7422 18.7985 12.551ZM15.622 11.1605C15.478 11.5281 15.2668 11.8622 15.0006 12.1437L15 12.1443L15.0108 12.1557L16.2044 13.4171L16.2151 13.4285L16.2155 13.4281C16.628 12.9921 16.9579 12.4771 17.1877 11.9107C17.1951 11.8924 17.2025 11.8739 17.2097 11.8555C17.4403 11.2672 17.559 10.6367 17.559 9.99995C17.559 9.3632 17.4403 8.73269 17.2097 8.14442C17.2025 8.12595 17.1951 8.10753 17.1877 8.08917C16.9579 7.52295 16.6281 7.00801 16.2158 6.57205L16.2151 6.57138L16.2044 6.58277L15.0108 7.84417L15 7.85556C15.2665 8.13716 15.4778 8.47148 15.622 8.83941C15.7663 9.20735 15.8405 9.6017 15.8405 9.99995C15.8405 10.3982 15.7663 10.7925 15.622 11.1605Z" fill="#C8C8C8"/>
<path fill-rule="evenodd" clip-rule="evenodd" d="M7.33331 14H3L6 4H11L9.20002 9.99997H14L3.99999 22L7.33331 14Z" fill="#FF3232"/>
</svg>
