<svg width="24" height="24" viewBox="0 0 24 24" fill="none" xmlns="http://www.w3.org/2000/svg">
<path d="M11.7109 17.4678C12.0766 17.308 12.5181 17.3767 12.8174 17.6758C13.2076 18.066 13.2075 18.6987 12.8174 19.0889L12.1992 19.707C11.809 20.0972 11.1763 20.0972 10.7861 19.707C10.3962 19.3168 10.396 18.6841 10.7861 18.2939L11.4043 17.6758C11.4361 17.644 11.4701 17.6155 11.5049 17.5889C11.5179 17.579 11.5305 17.5687 11.5439 17.5596L11.5615 17.5479C11.5752 17.5388 11.5895 17.5308 11.6035 17.5225C11.612 17.5175 11.6203 17.5125 11.6289 17.5078C11.6507 17.4958 11.6729 17.4849 11.6953 17.4746C11.7005 17.4723 11.7057 17.47 11.7109 17.4678ZM12.9395 4.89844C13.1901 4.89739 13.3806 5.08509 13.4619 5.31934C13.42 5.33027 13.3781 5.34062 13.3369 5.35156C12.4813 5.57913 11.6995 5.83023 11.4053 5.92676C11.2106 5.99061 11.0349 6.1036 10.8955 6.26074C10.6493 6.53829 9.91226 7.39004 9.35645 8.26172C9.08383 8.68929 8.81816 9.17689 8.69922 9.63184C8.63957 9.86019 8.60196 10.1362 8.66113 10.415C8.72618 10.7207 8.90321 10.9993 9.20215 11.1797C9.65403 11.452 10.1401 11.4311 10.5361 11.3184C10.9249 11.2076 11.2896 10.9933 11.5937 10.7754C12.1746 10.3592 12.6738 9.82762 12.9014 9.57129C13.1173 9.5101 13.4786 9.41239 13.832 9.33887C13.9822 9.30764 14.1237 9.28427 14.2471 9.26758C14.3196 9.33583 14.3951 9.40642 14.4766 9.47461C14.8326 9.77251 15.2083 10.0781 15.5889 10.3857C15.8166 10.6272 16.0595 10.8849 16.3008 11.1309C16.78 11.6194 17.3015 12.12 17.7764 12.4736C18.0099 12.6475 18.2639 12.8092 18.5186 12.9111C19.6512 14.0535 20.2707 15.1073 19.5596 15.8857C18.7341 16.9925 16.7513 15.0066 15.3604 13.7061C15.0074 13.376 14.8128 13.5792 15.1602 13.915C16.594 15.3012 18.5257 16.5453 17.5 17.5986C16.6525 18.5745 14.9478 16.6477 13.8691 15.6602C13.5774 15.3931 13.4215 15.5636 13.71 15.834C14.6612 16.7251 16.2855 17.9248 15.3594 19.0215C15.1255 19.2981 14.5334 19.1931 13.7363 18.8506C13.8986 18.2785 13.7559 17.638 13.3057 17.1875C12.9631 16.845 12.5104 16.6805 12.0615 16.6924C12.245 16.1089 12.1068 15.4459 11.6445 14.9834C11.1989 14.538 10.5674 14.3929 10 14.5469C10.009 14.1016 9.84449 13.6534 9.50488 13.3135C8.86645 12.675 7.84666 12.6527 7.18066 13.2451C7.12221 12.915 6.96684 12.5979 6.71191 12.3428C6.05131 11.6822 4.98107 11.6807 4.31836 12.3379C4.29137 12.3125 4.26656 12.2925 4.24902 12.2744C3.95761 11.8859 4.82876 6.59398 5.31445 6.2373C6.89894 5.07557 10.9545 4.90767 12.9395 4.89844ZM9.73535 15.4727C10.1256 15.0825 10.7582 15.0825 11.1484 15.4727C11.1737 15.4979 11.1978 15.5237 11.2197 15.5508C11.5407 15.9433 11.5185 16.5235 11.1523 16.8896L10.8311 17.21C10.8294 17.2089 10.8278 17.2071 10.8262 17.2061L9.41504 18.6182C9.02484 19.0084 8.39215 19.0084 8.00195 18.6182C7.6123 18.2281 7.61229 17.5961 8.00195 17.2061L9.73535 15.4727ZM7.5957 13.8018C7.95035 13.4471 8.50436 13.416 8.89551 13.7061C8.93619 13.7359 8.97592 13.7689 9.0127 13.8057C9.39626 14.1898 9.40113 14.8079 9.0293 15.1992L8.57129 15.6572C8.57031 15.6565 8.56934 15.655 8.56836 15.6543L7.5332 16.6904C7.14299 17.0803 6.51022 17.0805 6.12012 16.6904C5.73001 16.3003 5.73021 15.6676 6.12012 15.2773L7.5957 13.8018ZM4.80957 12.8311C5.19965 12.441 5.83243 12.4412 6.22266 12.8311C6.61286 13.2213 6.61286 13.8539 6.22266 14.2441L5.60449 14.8623C5.21429 15.2525 4.58159 15.2525 4.19141 14.8623C3.80158 14.4721 3.80137 13.8393 4.19141 13.4492L4.80957 12.8311ZM4.39844 4C4.70584 4 4.93993 4.2759 4.88965 4.5791L3.5625 12.543C3.52237 12.7828 3.31448 12.959 3.07129 12.959H2.49805C2.22322 12.959 2.00007 12.7357 2 12.4609L2 4.49805C2 4.22318 2.22318 4 2.49805 4H4.39844ZM21.4102 4C21.685 4.00003 21.9082 4.2232 21.9082 4.49805V12.4609C21.9081 12.7357 21.685 12.959 21.4102 12.959H20.8359C20.5929 12.9588 20.3858 12.7826 20.3457 12.543L19.0186 4.5791C18.9682 4.27599 19.2015 4.0002 19.5088 4L21.4102 4ZM15.834 5.59375C16.8231 5.59384 18.0324 5.97978 18.5391 6.1582C18.6914 6.21186 18.8033 6.33974 18.8398 6.49707C19.0941 7.59091 20.0415 11.9156 19.2275 12.29C18.2945 12.7171 15.2004 8.69117 14.7148 8.55957C14.516 8.50605 14.1098 8.56151 13.7002 8.64648C13.7017 8.64863 13.7036 8.65118 13.7051 8.65332C13.2887 8.73922 12.8665 8.8564 12.6523 8.91797C12.5579 8.94518 12.4759 8.99936 12.4111 9.07324C12.0145 9.5255 10.4958 11.1461 9.56152 10.583C9.12894 10.3218 9.35393 9.63713 9.77832 8.90918C9.81584 8.84462 9.85512 8.77984 9.89551 8.71484C10.0885 8.40503 10.3116 8.09484 10.5273 7.81055C10.9054 7.31182 11.2631 6.89289 11.4219 6.71387C11.4776 6.65105 11.5472 6.60631 11.627 6.58008C12.2035 6.39092 14.6999 5.59375 15.834 5.59375Z" fill="#C8C8C8"/>
</svg>
