<svg width="24" height="24" viewBox="0 0 24 24" fill="none" xmlns="http://www.w3.org/2000/svg">
<path fill-rule="evenodd" clip-rule="evenodd" d="M16.363 4.70522C14.6418 3.67579 12.6121 3.28811 10.6327 3.61071C9.20324 3.84368 7.86649 4.43627 6.74246 5.32106L9 5.32107L8.99999 6.82107L4.92893 6.82105L4.17893 6.82104V6.07105V2.00002L5.67893 2.00002V4.25118C7.02886 3.15001 8.65177 2.41377 10.3914 2.13024C12.7201 1.75071 15.1081 2.20681 17.133 3.4179C19.1578 4.62899 20.6893 6.51705 21.4565 8.74825C22.2238 10.9795 22.1774 13.4101 21.3255 15.6104C20.4737 17.8107 18.8713 19.6389 16.8016 20.7718C14.732 21.9047 12.3284 22.2693 10.0159 21.8012C7.70334 21.3331 5.63082 20.0623 4.16476 18.2136C2.76112 16.4437 1.99995 14.2531 2 12H3.49999C3.49996 13.9151 4.14695 15.7771 5.34005 17.2816C6.5862 18.853 8.34784 19.9331 10.3135 20.331C12.2791 20.729 14.3222 20.419 16.0814 19.4561C17.8406 18.4931 19.2026 16.9391 19.9267 15.0688C20.6508 13.1986 20.6902 11.1325 20.0381 9.23602C19.3859 7.33949 18.0842 5.73464 16.363 4.70522Z" fill="#DCDCDC"/>
<path d="M12 8V12L17 14.666" stroke="#DCDCDC" stroke-width="1.5"/>
</svg>
