<svg width="24" height="24" viewBox="0 0 24 24" fill="none" xmlns="http://www.w3.org/2000/svg">
<path d="M20 3H2V4.5H20V3Z" fill="#C8C8C8"/>
<path d="M20 8.16406H2V9.66406H20V8.16406Z" fill="#C8C8C8"/>
<path d="M12 13.1641H2V14.6641H12V13.1641Z" fill="#C8C8C8"/>
<path fill-rule="evenodd" clip-rule="evenodd" d="M16.2548 13.0821C16.9433 12.6703 17.7552 12.5152 18.5469 12.6443C19.1187 12.7375 19.6534 12.9745 20.103 13.3284L19.2 13.3284V13.9284L20.8284 13.9284L21.1284 13.9284V13.6284V12H20.5284V12.9005C19.9884 12.46 19.3393 12.1655 18.6434 12.0521C17.712 11.9003 16.7568 12.0827 15.9468 12.5672C15.1369 13.0516 14.5243 13.8068 14.2174 14.6993C13.9105 15.5918 13.9291 16.564 14.2698 17.4442C14.6105 18.3243 15.2515 19.0556 16.0793 19.5087C16.9072 19.9619 17.8686 20.1077 18.7936 19.9205C19.7187 19.7332 20.5477 19.2249 21.1341 18.4854C21.7205 17.746 22.0266 16.823 21.9982 15.8796L21.3985 15.8977C21.4226 16.6995 21.1624 17.4841 20.664 18.1126C20.1655 18.7412 19.4609 19.1732 18.6746 19.3324C17.8884 19.4916 17.0711 19.3676 16.3674 18.9824C15.6638 18.5972 15.119 17.9756 14.8293 17.2275C14.5397 16.4794 14.5239 15.653 14.7848 14.8944C15.0456 14.1358 15.5663 13.4939 16.2548 13.0821Z" fill="#C8C8C8" stroke="#C8C8C8" stroke-width="0.5"/>
</svg>
