<svg width="24" height="24" viewBox="0 0 24 24" fill="none" xmlns="http://www.w3.org/2000/svg">
<path d="M18.2295 7.89062C20.8251 9.64926 22 12 22 12C22 12 18 18 12 18C10.8256 18 9.72883 17.7672 8.72266 17.3975L10.4375 15.6826C10.9176 15.8866 11.4455 16 12 16C14.2091 16 16 14.2091 16 12C16 11.4455 15.8866 10.9176 15.6826 10.4375L18.2295 7.89062ZM12 6C13.2491 6 14.37 6.19387 15.3701 6.50781L13.5615 8.31641C13.0817 8.11277 12.5541 8 12 8C9.79086 8 8 9.79086 8 12C8 12.5541 8.11277 13.0817 8.31641 13.5615L5.94922 15.9287C3.46467 14.1939 2 12 2 12C2 12 5 6 12 6Z" fill="#D32A20"/>
<path d="M3 21L21 3" stroke="#D32A20" stroke-linecap="square"/>
</svg>
