<svg width="24" height="24" viewBox="0 0 24 24" fill="none" xmlns="http://www.w3.org/2000/svg">
<path d="M6.83977 8.02907H2.5C2.22386 8.02907 2 8.2513 2 8.52544V15.4746C2 15.7487 2.22386 15.9709 2.5 15.9709H6.83977C6.94398 15.9709 7.04559 16.0033 7.13039 16.0634L12.4188 19.8133C13.0806 20.2827 14 19.813 14 19.0055V4.99448C14 4.18702 13.0806 3.71734 12.4188 4.18666L7.13039 7.93662C7.04559 7.99675 6.94398 8.02907 6.83977 8.02907Z" fill="#C5BDB3"/>
<path fill-rule="evenodd" clip-rule="evenodd" d="M19.1894 9.06077C18.5054 8.29122 17.4631 7.75 16 7.75V6.25C17.8702 6.25 19.3279 6.95878 20.3106 8.06423C21.2809 9.15587 21.75 10.5902 21.75 12C21.75 13.4098 21.2809 14.8441 20.3106 15.9358C19.3279 17.0412 17.8702 17.75 16 17.75V16.25C17.4631 16.25 18.5054 15.7088 19.1894 14.9392C19.8858 14.1559 20.25 13.0902 20.25 12C20.25 10.9098 19.8858 9.84413 19.1894 9.06077ZM17.3144 10.7795C17.0471 10.4787 16.6298 10.25 16 10.25V8.75C17.0369 8.75 17.8696 9.14628 18.4356 9.78298C18.9892 10.4059 19.25 11.2152 19.25 12C19.25 12.7848 18.9892 13.5941 18.4356 14.217C17.8696 14.8537 17.0369 15.25 16 15.25V13.75C16.6298 13.75 17.0471 13.5213 17.3144 13.2205C17.5941 12.9059 17.75 12.4652 17.75 12C17.75 11.5348 17.5941 11.0941 17.3144 10.7795Z" fill="#C5BDB3"/>
</svg>
