<svg width="24" height="24" viewBox="0 0 24 24" fill="none" xmlns="http://www.w3.org/2000/svg">
<path d="M6.83977 8.02907H2.5C2.22386 8.02907 2 8.2513 2 8.52544V15.4746C2 15.7487 2.22386 15.9709 2.5 15.9709H6.83977C6.94398 15.9709 7.04559 16.0033 7.13039 16.0634L12.4188 19.8133C13.0806 20.2827 14 19.813 14 19.0055V4.99448C14 4.18702 13.0806 3.71734 12.4188 4.18666L7.13039 7.93662C7.04559 7.99675 6.94398 8.02907 6.83977 8.02907Z" fill="#C8C8C8"/>
<path fill-rule="evenodd" clip-rule="evenodd" d="M18.9991 13.0597L16.5294 15.5294L15.4688 14.4688L17.9384 11.9991L15.4688 9.52941L16.5294 8.46875L18.9991 10.9384L21.4688 8.46875L22.5294 9.52941L20.0597 11.9991L22.5294 14.4688L21.4688 15.5294L18.9991 13.0597Z" fill="#C8C8C8"/>
</svg>
