<svg width="24" height="24" viewBox="0 0 24 24" fill="none" xmlns="http://www.w3.org/2000/svg">
<path d="M6.83977 8.02907H2.5C2.22386 8.02907 2 8.2513 2 8.52544V15.4746C2 15.7487 2.22386 15.9709 2.5 15.9709H6.83977C6.94398 15.9709 7.04559 16.0033 7.13039 16.0634L12.4188 19.8133C13.0806 20.2827 14 19.813 14 19.0055V4.99448C14 4.18702 13.0806 3.71734 12.4188 4.18666L7.13039 7.93662C7.04559 7.99675 6.94398 8.02907 6.83977 8.02907Z" fill="#C8C8C8"/>
<path fill-rule="evenodd" clip-rule="evenodd" d="M19.6055 8.6774C18.8322 7.80747 17.654 7.19565 16 7.19565V6C18.1141 6 19.3892 6.75036 20.5 8C21.5969 9.23404 22 10.4063 22 12C22 13.5937 21.5969 14.766 20.5 16C19.3892 17.2496 18.1141 18 16 18V16.8043C17.654 16.8043 18.8322 16.1925 19.6055 15.3226C20.3926 14.4371 20.8043 13.2324 20.8043 12C20.8043 10.7676 20.3926 9.56292 19.6055 8.6774Z" fill="#C8C8C8"/>
<path fill-rule="evenodd" clip-rule="evenodd" d="M18.2187 9.95532C17.7429 9.41998 17.0178 9.04348 16 9.04348V8C17.301 8 18.3151 8.49306 18.9986 9.26207C19.6737 10.0215 20 11.0193 20 12C20 12.9807 19.6737 13.9785 18.9986 14.7379C18.3151 15.5069 17.301 16 16 16V14.9565C17.0178 14.9565 17.7429 14.58 18.2187 14.0447C18.7031 13.4997 18.9565 12.7584 18.9565 12C18.9565 11.2416 18.7031 10.5003 18.2187 9.95532ZM16.9144 11.151C16.7284 10.9417 16.4381 10.7826 16 10.7826V9.73913C16.7213 9.73913 17.3006 10.0148 17.6943 10.4577C18.0795 10.891 18.2609 11.4541 18.2609 12C18.2609 12.5459 18.0795 13.109 17.6943 13.5423C17.3006 13.9852 16.7213 14.2609 16 14.2609V13.2174C16.4381 13.2174 16.7284 13.0583 16.9144 12.849C17.1089 12.6302 17.2174 12.3236 17.2174 12C17.2174 11.6764 17.1089 11.3698 16.9144 11.151Z" fill="#C8C8C8"/>
</svg>
