<svg width="24" height="24" viewBox="0 0 24 24" fill="none" xmlns="http://www.w3.org/2000/svg">
<path d="M6.83977 8.02907H2.5C2.22386 8.02907 2 8.2513 2 8.52544V15.4746C2 15.7487 2.22386 15.9709 2.5 15.9709H6.83977C6.94398 15.9709 7.04559 16.0033 7.13039 16.0634L12.4188 19.8133C13.0806 20.2827 14 19.813 14 19.0055V4.99448C14 4.18702 13.0806 3.71734 12.4188 4.18666L7.13039 7.93662C7.04559 7.99675 6.94398 8.02907 6.83977 8.02907Z" fill="#C5BDB3"/>
<path d="M16.9144 11.1501C16.7284 10.9409 16.4381 10.7818 16 10.7818V9.73828C16.7213 9.73828 17.3006 10.014 17.6943 10.4569C18.0795 10.8902 18.2609 11.4532 18.2609 11.9992C18.2609 12.5451 18.0795 13.1081 17.6943 13.5414C17.3006 13.9843 16.7213 14.26 16 14.26V13.2165C16.4381 13.2165 16.7284 13.0574 16.9144 12.8482C17.1089 12.6293 17.2174 12.3228 17.2174 11.9992C17.2174 11.6755 17.1089 11.369 16.9144 11.1501Z" fill="#C5BDB3"/>
</svg>
