<svg width="24" height="24" viewBox="0 0 24 24" fill="none" xmlns="http://www.w3.org/2000/svg">
<path d="M12 2C17.5228 2 22 6.47715 22 12C22 17.5228 17.5228 22 12 22C6.47715 22 2 17.5228 2 12C2 6.47715 6.47715 2 12 2ZM16.416 14.126C16.0714 13.8963 15.6057 13.9894 15.376 14.334C13.6728 16.8887 10.3272 16.8887 8.62402 14.334C8.39424 13.9894 7.9286 13.8962 7.58398 14.126C7.23938 14.3557 7.14629 14.8214 7.37598 15.166C9.67284 18.6113 14.3272 18.6113 16.624 15.166C16.8538 14.8214 16.7607 14.3557 16.416 14.126ZM9.49023 8C8.66729 8 8 8.67157 8 9.5C8 10.3284 8.66729 11 9.49023 11H9.50977C10.3327 11 11 10.3284 11 9.5C11 8.67157 10.3327 8 9.50977 8H9.49023ZM13.7998 8.5C13 8.50015 13 9.5 13 9.5C13 9.5 13 10.4999 13.7998 10.5H16.2002C17 10.4998 17 9.5 17 9.5C17 9.5 17 8.50016 16.2002 8.5H13.7998Z" fill="#C8C8C8"/>
</svg>
