<svg width="24" height="24" viewBox="0 0 24 24" fill="none" xmlns="http://www.w3.org/2000/svg">
<path d="M19 5C21.7614 5 24 7.23858 24 10C24 12.7614 21.7614 15 19 15C16.2386 15 14 12.7614 14 10C14 7.23858 16.2386 5 19 5ZM21.208 11.0625C21.0358 10.9479 20.8034 10.994 20.6885 11.166C19.8369 12.4434 18.1641 12.4434 17.3125 11.166C17.1976 10.9939 16.9643 10.9477 16.792 11.0625C16.62 11.1774 16.5738 11.4098 16.6885 11.582C17.8369 13.3047 20.1641 13.3047 21.3125 11.582C21.4271 11.4097 21.3802 11.1773 21.208 11.0625ZM17.7451 8.00098C17.3338 8.00098 17.0002 8.33691 17 8.75098C17 9.16519 17.3336 9.50098 17.7451 9.50098H17.7549C18.1662 9.50085 18.5 9.16511 18.5 8.75098C18.4998 8.33699 18.1661 8.00111 17.7549 8.00098H17.7451ZM19.8994 8.24902C19.4997 8.24924 19.5 8.74902 19.5 8.74902C19.5001 8.76343 19.5056 9.24884 19.8994 9.24902H21.0996C21.4937 9.24902 21.4999 8.76335 21.5 8.74902C21.5 8.74902 21.4996 8.24902 21.0996 8.24902H19.8994Z" fill="#C8C8C8"/>
</svg>
