<svg width="50" height="50" viewBox="0 0 50 50" fill="none" xmlns="http://www.w3.org/2000/svg">
<path d="M11.8903 7.33619C12.9389 6.58619 13.7856 6.0265 14.9513 5.42689C19.1884 3.26976 24.0041 2.52353 28.6954 3.29716C34.5129 4.27261 39.6991 7.53353 43.0992 12.3539C43.9009 13.4983 44.5944 14.7148 45.171 15.9877C45.3154 16.3031 45.4374 16.6224 45.5691 16.9423C45.614 17.0511 45.6999 17.2898 45.7504 17.3857C45.7286 17.5388 45.7398 17.6001 45.7558 17.7537C45.8111 18.0956 45.8238 19.0453 45.8115 19.4009C45.816 20.0664 45.7685 21.8825 45.5207 22.4758C45.6347 22.5637 45.8706 22.7523 45.9568 22.8613C44.9966 24.3553 43.8549 25.5421 42.0367 25.989C41.9173 26.0183 41.7273 26.0509 41.6065 26.0455L41.6082 25.7737C41.3483 25.4981 41.0197 25.1678 40.7812 24.8816C40.5861 24.675 40.3486 24.4683 40.1433 24.2685C39.0897 23.2433 38.0959 22.5531 36.8261 21.8315C36.6379 21.7648 36.1775 21.5307 35.9756 21.4348C35.904 21.4926 35.828 21.5447 35.7529 21.5979C33.6247 23.0904 31.5165 24.7542 29.9109 26.8133C29.8088 26.7402 28.2738 26.2469 28.0327 26.1658L22.4589 24.2826L20.4596 23.606C20.2224 23.5264 19.6932 23.333 19.4741 23.2928C18.9352 20.7657 18.6423 17.4515 17.442 15.1721C17.3226 14.9987 17.2716 14.9019 17.1307 14.7351C16.827 14.6453 16.3204 14.584 15.9984 14.5597C13.8404 14.3968 11.5384 14.9619 9.56393 15.7999C9.37686 15.8847 9.18811 15.9658 8.99776 16.043C8.97026 15.8865 8.96011 15.7259 8.94492 15.5674C8.8328 14.3985 8.76553 13.2008 8.95027 12.0362C8.97203 11.8989 9.10258 11.338 9.07469 11.2553C8.79193 11.3607 7.55678 11.836 7.34668 11.8685C8.24651 10.5141 10.5501 8.25463 11.8903 7.33619Z" fill="#F4F4F5"/>
<path d="M24.8261 9.15234C25.361 9.15796 25.9555 9.23556 26.4833 9.3245C28.5483 9.67253 30.5586 10.4321 32.3766 11.4652C32.6415 11.6157 33.4536 12.0633 33.6336 12.2699C33.644 12.4085 33.9142 12.8681 33.9887 13.0182C35.2491 15.5586 35.8296 18.4036 35.7093 21.2345C35.7039 21.36 35.6903 21.4848 35.7523 21.5959C33.6241 23.0885 31.516 24.7523 29.9104 26.8114C29.8083 26.7382 28.2733 26.245 28.0321 26.1638L22.4583 24.2807L20.459 23.604C20.2218 23.5244 19.6927 23.331 19.4736 23.2908C18.9346 20.7637 18.6417 17.4496 17.4414 15.1701C17.5583 15.0936 17.9977 14.5535 18.1155 14.4169C18.3556 14.1392 18.6011 13.8661 18.8519 13.598C20.3188 12.0314 21.9147 10.6126 23.8168 9.59923C24.0846 9.45658 24.5366 9.19195 24.8261 9.15234Z" fill="#F4F4F5"/>
<path d="M38.1067 9.21875C38.4193 9.43017 38.7729 9.61782 39.0952 9.82043C41.9979 11.6454 44.1438 14.4053 45.5648 17.4963C45.6162 17.6084 45.6425 17.6934 45.7554 17.7547C45.8107 18.0967 45.8234 19.0464 45.8111 19.402C45.8157 20.0675 45.7682 21.8836 45.5203 22.4769C45.6343 22.5648 45.8703 22.7533 45.9564 22.8624C44.9962 24.3564 43.8545 25.5432 42.0363 25.99C41.9169 26.0194 41.727 26.052 41.6061 26.0466L41.6078 25.7748C41.3479 25.4992 41.0194 25.1689 40.7808 24.8827C40.5857 24.6761 40.3482 24.4694 40.143 24.2696C39.0893 23.2444 38.0955 22.5542 36.8258 21.8326C36.6375 21.7659 36.1771 21.5318 35.9753 21.4359C35.9036 21.4936 35.8276 21.5458 35.7525 21.599C35.6905 21.4878 35.7041 21.363 35.7095 21.2375C35.8298 18.4066 35.2493 15.5617 33.9889 13.0212C33.9144 12.8712 33.6442 12.4115 33.6338 12.2729C33.7506 12.2232 33.9712 12.0645 34.0826 11.9889C34.3781 11.7591 34.9311 11.4064 35.2625 11.1803L37.6085 9.57896C37.7261 9.49618 38.0212 9.3035 38.1067 9.21875Z" fill="#F4F4F5"/>
<path d="M38.1066 9.21875C38.4192 9.43017 38.7728 9.61782 39.0951 9.82043C41.9978 11.6454 44.1437 14.4053 45.5647 17.4963C45.6161 17.6084 45.6424 17.6934 45.7553 17.7547C45.8106 18.0967 45.8233 19.0463 45.811 19.402C45.7795 19.1597 45.7296 19.1044 45.634 18.8858C44.3438 15.9348 42.5888 13.3141 40.0684 11.2542C39.5574 10.8394 39.0227 10.455 38.4669 10.1029C38.2262 9.94811 37.8003 9.77143 37.6084 9.57896C37.726 9.49618 38.0211 9.3035 38.1066 9.21875Z" fill="#C4C2C2"/>
<path d="M33.6338 12.2684C33.7506 12.2187 33.9712 12.06 34.0826 11.9844C34.3448 12.4814 34.5734 12.8998 34.804 13.4179C35.7121 15.4738 36.2153 17.6853 36.2863 19.9316C36.3027 20.4153 36.2773 20.8485 36.2719 21.3253C36.4074 21.4305 36.8139 21.6724 36.8258 21.8281C36.6375 21.7614 36.1771 21.5272 35.9753 21.4314C35.9036 21.4891 35.8276 21.5412 35.7525 21.5945C35.6905 21.4833 35.7041 21.3585 35.7095 21.233C35.8298 18.4021 35.2493 15.5572 33.9889 13.0167C33.9144 12.8667 33.6442 12.407 33.6338 12.2684Z" fill="#C4C2C2"/>
<path d="M45.5198 22.4766C45.6338 22.5645 45.8697 22.753 45.9558 22.8621C44.9957 24.3561 43.854 25.5429 42.0357 25.9897C41.9164 26.0191 41.7264 26.0517 41.6055 26.0463L41.6073 25.7745C41.3473 25.4989 41.0188 25.1686 40.7803 24.8823C40.7902 24.8806 40.8001 24.878 40.8103 24.8769C40.9512 24.8597 41.5235 25.3762 41.6614 25.4909C41.9149 25.4388 42.1333 25.3873 42.3798 25.3013C43.4607 24.9255 44.3446 24.1361 45.0261 23.235C45.207 22.9958 45.3877 22.746 45.5198 22.4766Z" fill="#C4C2C2"/>
<path d="M23.6875 4.61509C24.3673 4.39066 24.9187 4.20555 25.6233 4.06596C28.2957 3.55508 31.062 3.94673 33.4874 5.17934C34.9527 5.91313 36.2552 6.93421 37.3179 8.18177C37.621 8.54037 37.8338 8.87545 38.1069 9.21572C38.0214 9.30047 37.7263 9.49315 37.6087 9.57593L35.2627 11.1773C34.9313 11.4034 34.3783 11.7561 34.0828 11.9859C33.9714 12.0615 33.7508 12.2202 33.634 12.2699C33.454 12.0633 32.6419 11.6157 32.377 11.4652C30.559 10.4321 28.5487 9.67255 26.4837 9.32452C25.9559 9.23558 25.3614 9.15798 24.8265 9.15236C24.7894 9.14045 24.7477 9.14077 24.7387 9.10626C24.3465 7.63667 24.0878 6.07697 23.6875 4.61509Z" fill="#343942"/>
<path d="M11.8896 7.33619C12.9383 6.58619 13.785 6.0265 14.9507 5.42689C19.1878 3.26976 24.0035 2.52353 28.6948 3.29716C34.5123 4.27261 39.6984 7.53353 43.0985 12.3539C43.9002 13.4983 44.5938 14.7148 45.1704 15.9877C45.3148 16.3031 45.4368 16.6224 45.5684 16.9423C45.6133 17.0511 45.6992 17.2898 45.7498 17.3857C45.728 17.5388 45.7392 17.6001 45.7551 17.7537C45.6423 17.6924 45.6159 17.6073 45.5645 17.4952C44.1435 14.4042 41.9976 11.6443 39.0949 9.81934C38.7726 9.61673 38.419 9.42908 38.1064 9.21766C37.8334 8.87739 37.6205 8.54231 37.3175 8.18371C36.2548 6.93615 34.9522 5.91507 33.4869 5.18128C31.0615 3.94867 28.2952 3.55702 25.6228 4.0679C24.9182 4.20749 24.3668 4.3926 23.687 4.61703C24.0874 6.07891 24.346 7.63861 24.7382 9.10819C24.7473 9.14271 24.7889 9.14239 24.826 9.1543C24.5366 9.19391 24.0845 9.45854 23.8168 9.60119C21.9146 10.6145 20.3187 12.0333 18.8518 13.5999C18.6011 13.8681 18.3555 14.1411 18.1154 14.4189C17.9977 14.5554 17.5582 15.0955 17.4413 15.1721C17.3219 14.9987 17.2709 14.9019 17.1301 14.7351C17.1983 14.6422 17.2863 14.5469 17.3615 14.458C19.086 12.421 21.0272 10.4863 23.3843 9.19124C23.7104 9.01205 24.1039 8.79319 24.4535 8.67459C24.3623 8.49795 24.2198 7.86581 24.165 7.64256L23.7248 5.83313C23.4924 4.84751 23.5582 5.01196 22.5489 4.82518C19.4929 4.25963 16.3581 5.00367 13.7305 6.61481C13.1328 6.98131 12.6496 7.39031 12.0861 7.7777C12.0269 7.63926 11.9712 7.45122 11.8896 7.33619Z" fill="url(#paint0_linear_3144_42714)"/>
<path d="M11.8903 7.33594C11.9718 7.45097 12.0275 7.63901 12.0867 7.77744C11.8419 8.1369 10.0249 10.8478 9.83838 10.9897C9.60466 11.0564 9.30914 11.1706 9.07469 11.255C8.79193 11.3605 7.55678 11.8357 7.34668 11.8683C8.24651 10.5138 10.5501 8.25437 11.8903 7.33594Z" fill="#343942"/>
<path d="M9.07359 11.2536C9.30804 11.1692 9.60356 11.055 9.83727 10.9883L9.83095 11.0073C9.80476 11.0838 9.78538 11.1044 9.76453 11.1553C9.31208 12.2592 9.3756 13.7799 9.44986 14.953C9.46342 15.1674 9.49191 15.6164 9.53856 15.779L9.56282 15.7982C9.37576 15.883 9.187 15.9641 8.99665 16.0413C8.96915 15.8849 8.95901 15.7243 8.94381 15.5657C8.83169 14.3968 8.76443 13.1991 8.94916 12.0345C8.97092 11.8972 9.10148 11.3364 9.07359 11.2536Z" fill="#C4C2C2"/>
<path d="M19.4745 23.293C19.6936 23.3332 20.2227 23.5266 20.4599 23.6062L22.4593 24.2829L28.0331 26.166C28.2742 26.2471 29.8092 26.7404 29.9113 26.8136C29.8573 26.8941 29.8118 26.964 29.7503 27.0398C29.8241 27.2947 29.861 27.5823 29.9113 27.845C30.3575 30.1694 30.5073 32.5577 31.1137 34.8491C31.1691 35.0587 31.2479 35.3 31.3272 35.5008L31.5836 35.5433L31.5365 35.632C31.4001 35.885 31.099 36.2451 30.9151 36.4817C29.5001 38.3016 27.7926 39.9407 25.7782 41.0822C25.4863 41.2475 24.9676 41.5448 24.6503 41.632C24.6153 41.5247 24.5231 41.1756 24.4651 41.112C24.3934 41.14 24.2128 41.1892 24.1353 41.1912C20.9083 41.2736 17.9795 40.2198 15.4679 38.2367C13.9933 36.2326 13.4969 34.1825 13.2434 31.7202C13.1924 31.2254 13.1242 30.4237 13.1503 29.9425C13.3547 29.7504 13.5953 29.4892 13.7999 29.2835C14.182 28.8992 14.5699 28.5208 14.9634 28.1482C16.0823 27.0827 17.2348 26.0561 18.3782 25.0174C18.7921 24.6413 19.1697 24.2421 19.5744 23.8677C19.5605 23.7193 19.5027 23.4483 19.4745 23.293Z" fill="#F4F4F5"/>
<path d="M19.4736 23.293C19.6927 23.3332 20.2219 23.5266 20.4591 23.6062L22.4584 24.2829L28.0322 26.166C28.2733 26.2471 29.8083 26.7404 29.9104 26.8136C29.8565 26.8941 29.8109 26.964 29.7494 27.0398C29.8232 27.2947 29.8602 27.5823 29.9104 27.845C30.3566 30.1694 30.5064 32.5577 31.1128 34.8491C31.1683 35.0587 31.2471 35.3 31.3263 35.5008L31.5827 35.5433L31.5357 35.632C31.3993 35.885 31.0981 36.2451 30.9142 36.4817C29.4992 38.3016 27.7917 39.9407 25.7773 41.0822C25.4855 41.2475 24.9667 41.5448 24.6494 41.632C24.6144 41.5247 24.5223 41.1756 24.4643 41.112C27.1858 39.8636 29.2806 37.8235 31.0174 35.4138C30.8989 34.6436 30.7249 33.8162 30.5827 33.0432C30.2172 31.1108 29.8658 29.1758 29.5286 27.2382C28.601 26.939 27.6765 26.6301 26.7554 26.3115L22.6968 24.9431L20.7135 24.2742C20.4573 24.1886 19.7915 23.9786 19.5736 23.8677C19.5597 23.7193 19.5018 23.4483 19.4736 23.293Z" fill="#C4C2C2"/>
<path d="M9.56371 15.7994C11.5382 14.9615 13.8402 14.3964 15.9982 14.5593C16.3201 14.5836 16.8268 14.6449 17.1305 14.7346C17.2714 14.9015 17.3223 14.9982 17.4418 15.1716C18.642 17.4511 18.935 20.7652 19.4739 23.2923C19.5021 23.4476 19.56 23.7186 19.5738 23.867C19.1692 24.2414 18.7916 24.6406 18.3777 25.0167C17.2342 26.0554 16.0817 27.0821 14.9628 28.1476C14.5693 28.5201 14.1814 28.8986 13.7993 29.2828C13.5947 29.4885 13.3541 29.7497 13.1497 29.9418C13.0534 29.9265 12.6941 29.7903 12.5848 29.7508C10.2987 28.6728 8.78202 26.9152 7.23619 24.9737L7.06445 24.744L7.06739 24.4823C7.21146 21.1641 7.62943 19.1075 8.99754 16.0425C9.18789 15.9653 9.37664 15.8843 9.56371 15.7994Z" fill="#343942"/>
<path d="M39.1425 34.5125C39.1887 34.4331 39.2321 34.3407 39.2735 34.2578C39.3946 34.3511 39.5274 34.6092 39.6047 34.7506C40.1191 35.6991 40.4558 36.7336 40.5983 37.803C40.6361 38.0918 40.649 38.3137 40.6626 38.5978C40.6698 38.7433 40.6717 39.3364 40.6985 39.4159C40.9711 39.3075 41.9822 38.8667 42.1985 38.8451C42.0895 38.9902 41.969 39.1277 41.8512 39.2635C41.0654 40.1682 40.2072 41.0211 39.2958 41.799C39.1626 41.9128 39.0542 42.0866 38.9355 42.215C38.7872 42.3864 38.569 42.5131 38.371 42.6202C37.87 42.909 37.3685 43.2734 36.869 43.5719C36.7732 43.6291 36.4373 43.8502 36.357 43.8769C35.8726 44.1811 35.3103 44.4762 34.7983 44.7305C31.777 46.2206 28.454 46.9966 25.0854 46.999C24.4177 47.0018 23.2048 46.9618 22.5483 46.8183L22.4834 46.7434C22.5111 46.6968 22.6007 46.6996 22.6736 46.686C23.848 46.4671 24.7617 46.2115 25.8544 45.7673L26.0687 45.6159C26.0152 45.5143 25.9698 45.388 25.9271 45.2796C25.4859 44.1021 25.0628 42.8259 24.6498 41.6311C24.9672 41.5439 25.4859 41.2466 25.7777 41.0813C27.7922 39.9398 29.4997 38.3007 30.9146 36.4808C31.0986 36.2442 31.3997 35.8841 31.5361 35.6311L31.5832 35.5424C33.9147 36.0329 36.3525 35.5869 38.5577 34.785C38.7652 34.6956 38.9439 34.6218 39.1425 34.5125Z" fill="#F4F4F5"/>
<path d="M39.1425 34.5125C39.1887 34.4331 39.2321 34.3407 39.2735 34.2578C39.3946 34.3511 39.5274 34.6092 39.6047 34.7506C40.1191 35.6991 40.4558 36.7336 40.5983 37.803C40.6361 38.0918 40.649 38.3137 40.6626 38.5978C40.6698 38.7433 40.6717 39.3364 40.6985 39.4159C40.9711 39.3075 41.9822 38.8667 42.1985 38.8451C42.0895 38.9902 41.969 39.1277 41.8512 39.2635C41.0654 40.1682 40.2072 41.0211 39.2958 41.799C39.1626 41.9128 39.0542 42.0866 38.9355 42.215C38.7872 42.3864 38.569 42.5131 38.371 42.6202C37.87 42.909 37.3685 43.2734 36.869 43.5719C36.7732 43.6291 36.4373 43.8502 36.357 43.8769C35.8726 44.1811 35.3103 44.4762 34.7983 44.7305C31.777 46.2206 28.454 46.9966 25.0854 46.999C24.4177 47.0018 23.2048 46.9618 22.5483 46.8183L22.4834 46.7434C22.5111 46.6968 22.6007 46.6996 22.6736 46.686C23.848 46.4671 24.7617 46.2115 25.8544 45.7673L26.0687 45.6159C26.0152 45.5143 25.9698 45.388 25.9271 45.2796C26.2228 45.2546 26.5222 45.3044 26.816 45.3085C27.2236 45.3142 27.6525 45.3196 28.0594 45.3083C30.25 45.2548 32.414 44.8168 34.4529 44.0142C35.5875 43.5719 36.7276 42.9833 37.7521 42.3268C37.9324 42.2113 38.3768 41.9514 38.5016 41.8029C38.8196 41.4241 39.0965 40.9224 39.3914 40.5092C39.6105 40.1686 39.8706 39.8416 40.0636 39.4858C40.1018 39.3729 40.1141 39.1923 40.1133 39.0759C40.104 37.9074 39.8823 36.7472 39.4061 35.6773C39.2738 35.3799 39.111 35.1088 38.9808 34.8178C38.8189 34.8242 38.7104 34.8391 38.5577 34.785C38.7652 34.6956 38.9439 34.6218 39.1425 34.5125Z" fill="#C4C2C2"/>
<path d="M25.8544 45.7681C26.0732 45.8551 26.7357 45.8558 26.9987 45.8633C29.5046 45.9393 32.0017 45.5281 34.3512 44.6528C34.9871 44.4114 35.5909 44.1509 36.2094 43.8698C36.2672 43.8435 36.303 43.8577 36.357 43.8778C35.8726 44.182 35.3103 44.4771 34.7983 44.7313C31.777 46.2214 28.454 46.9975 25.0854 46.9999C24.4177 47.0027 23.2048 46.9627 22.5483 46.8192L22.4834 46.7443C22.5111 46.6976 22.6007 46.7005 22.6736 46.6869C23.848 46.468 24.7617 46.2124 25.8544 45.7681Z" fill="#F4F4F5"/>
<path d="M40.6985 39.4145C40.9712 39.3061 41.9823 38.8653 42.1986 38.8438C42.0896 38.9888 41.9691 39.1263 41.8513 39.2621C41.0655 40.1668 40.2072 41.0197 39.2959 41.7976C39.1627 41.9114 39.0543 42.0852 38.9356 42.2136C38.7873 42.385 38.569 42.5117 38.3711 42.6188C38.4037 42.4826 38.7098 42.0541 38.8043 41.9136L39.6002 40.7308C39.8519 40.3563 40.1237 39.9272 40.3931 39.565C40.4354 39.508 40.6223 39.4439 40.6985 39.4145Z" fill="#343942"/>
<path d="M35.9748 21.4336C36.1766 21.5294 36.637 21.7635 36.8253 21.8303C38.095 22.5519 39.0888 23.2421 40.1425 24.2672C40.3477 24.467 40.5852 24.6738 40.7803 24.8803C41.0189 25.1666 41.3474 25.4968 41.6073 25.7725L41.6056 26.0443C41.4728 28.7922 40.5086 31.5149 39.3861 34.003C39.3481 34.0874 39.3088 34.172 39.2727 34.2573C39.2313 34.3401 39.1879 34.4325 39.1417 34.512C38.9431 34.6212 38.7644 34.695 38.5569 34.7844C36.3517 35.5863 33.9139 36.0323 31.5824 35.5419L31.3259 35.4993C31.2467 35.2986 31.1679 35.0572 31.1124 34.8476C30.5061 32.5562 30.3563 30.1679 29.9101 27.8435C29.8598 27.5808 29.8228 27.2933 29.749 27.0383C29.8105 26.9626 29.8561 26.8926 29.9101 26.8121C31.5157 24.753 33.6238 23.0892 35.752 21.5967C35.8271 21.5434 35.9031 21.4913 35.9748 21.4336Z" fill="#343942"/>
<path d="M7.23635 24.9727C8.78218 26.9141 10.2988 28.6717 12.5849 29.7497C12.6943 29.7892 13.0536 29.9254 13.1499 29.9408C13.1237 30.4219 13.192 31.2236 13.243 31.7184C13.4965 34.1808 13.9929 36.2308 15.4675 38.2349C15.3156 38.3433 15.1585 38.5082 15.0311 38.5945C14.1696 39.3695 13.1728 40.2975 12.2947 41.0336C12.2048 41.1202 12.1179 41.2056 12.0232 41.2872C12.0536 41.3755 12.0805 41.453 12.1053 41.5437C11.6256 41.4731 10.435 40.8607 9.98202 40.6174C9.78616 40.5121 9.30852 40.2178 9.14211 40.2053C8.86798 40.013 8.12155 39.1247 7.90245 38.8301C6.35487 36.8102 5.08938 34.7522 4.26546 32.328C4.16657 32.037 4.07705 31.7374 3.9615 31.4538C3.89762 31.3247 3.77547 30.834 3.73336 30.6814C3.386 29.4223 3.22564 28.2447 3.08226 26.9588C3.0489 26.6959 3.03623 26.4867 3.03223 26.2234C3.06677 26.4069 3.0768 26.3501 3.16326 26.4938C3.39805 26.7773 3.62871 27.0642 3.85517 27.3545C3.97719 27.5047 4.12308 27.6757 4.23416 27.8316C4.29058 27.7731 4.39023 27.5758 4.43319 27.498C5.10813 26.2767 5.95347 25.503 7.23635 24.9727Z" fill="#F4F4F5"/>
<path d="M12.5846 29.75C12.6939 29.7895 13.0532 29.9257 13.1495 29.941C13.1234 30.4222 13.1917 31.2239 13.2426 31.7187C13.4962 34.181 13.9926 36.2311 15.4671 38.2352C15.3152 38.3435 15.1581 38.5085 15.0307 38.5948C14.7333 38.2553 14.3343 37.5934 14.1267 37.1932C13.1364 35.2841 12.7331 33.1142 12.601 30.9847C12.5865 30.7503 12.5218 29.946 12.5846 29.75Z" fill="#C4C2C2"/>
<path d="M3.03223 26.2227C3.06677 26.4061 3.0768 26.3494 3.16326 26.4931C3.39805 26.7766 3.62871 27.0634 3.85517 27.3538C3.97719 27.504 4.12308 27.675 4.23416 27.8308C4.31436 28.3999 4.24964 30.9911 3.9615 31.453C3.89762 31.324 3.77547 30.8333 3.73336 30.6807C3.386 29.4215 3.22564 28.244 3.08226 26.9581C3.0489 26.6952 3.03623 26.486 3.03223 26.2227Z" fill="#343942"/>
<path d="M3.03223 26.2227C3.06677 26.4061 3.0768 26.3494 3.16326 26.4931C3.07909 26.5758 3.17432 26.7761 3.08226 26.9581C3.0489 26.6952 3.03623 26.486 3.03223 26.2227Z" fill="#373B4E"/>
<path d="M7.90234 38.828C7.94929 38.8208 7.98303 38.8137 8.02735 38.7969C8.29979 38.9247 8.78657 39.2517 9.06367 39.4248C9.56782 39.7417 10.0837 40.0396 10.6101 40.3176C10.9425 40.4888 11.2832 40.6432 11.6311 40.78C11.726 40.8169 12.2448 41.0004 12.2946 41.0315C12.2047 41.1181 12.1178 41.2035 12.0231 41.2851C12.0535 41.3734 12.0804 41.4509 12.1052 41.5416C11.6255 41.471 10.4349 40.8586 9.98191 40.6153C9.78606 40.51 9.30842 40.2157 9.14201 40.2032C8.86788 40.0109 8.12145 39.1226 7.90234 38.828Z" fill="#C4C2C2"/>
<path d="M15.0306 38.594C15.158 38.5077 15.3151 38.3427 15.467 38.2344C17.9786 40.2175 20.9073 41.2714 24.1343 41.1889C24.2118 41.187 24.3924 41.1377 24.4642 41.1097C24.5222 41.1734 24.6144 41.5224 24.6493 41.6297C25.0623 42.8245 25.4854 44.1007 25.9266 45.2782C25.9693 45.3866 26.0147 45.5129 26.0682 45.6146L25.8538 45.7659C24.7611 46.2101 23.8475 46.4657 22.6731 46.6846C22.6002 46.6982 22.5106 46.6954 22.4829 46.742L22.5478 46.8169C22.5217 46.8014 22.4625 46.7675 22.4349 46.7677C21.9479 46.7716 21.4908 46.7202 21.0107 46.6298C19.0499 46.2684 17.1473 45.6417 15.3557 44.7669C15.0526 44.6155 14.7188 44.4761 14.4542 44.2684C12.6348 43.3581 10.5238 41.6975 9.1416 40.2048C9.30801 40.2173 9.78565 40.5115 9.98151 40.6169C10.4345 40.8601 11.6251 41.4726 12.1048 41.5431C12.0799 41.4525 12.0531 41.375 12.0227 41.2867C12.1174 41.2051 12.2043 41.1196 12.2942 41.0331C13.1723 40.297 14.1691 39.369 15.0306 38.594Z" fill="#343942"/>
<path d="M9.1416 40.2031C9.30801 40.2156 9.78565 40.5099 9.98151 40.6152C10.4345 40.8585 11.6251 41.4709 12.1048 41.5415L13.6514 43.3006C13.8406 43.5164 14.327 44.0494 14.4542 44.2668C12.6348 43.3565 10.5238 41.6958 9.1416 40.2031Z" fill="#F4F4F5"/>
<path d="M45.9566 22.8594C46.1709 23.222 46.9288 24.9578 47.1102 25.1489C47.0366 25.4837 47.0905 26.0525 47.0642 26.4091C47.0318 26.8455 46.9949 27.2701 46.9424 27.7053C46.6107 30.4077 45.7746 33.0238 44.4775 35.4177C44.0373 36.2354 43.5437 37.0233 43.0001 37.7765C42.8421 37.996 42.6791 38.2121 42.5114 38.4245C42.421 38.5398 42.2586 38.7243 42.1984 38.8439C41.9821 38.8655 40.971 39.3063 40.6984 39.4147C40.6716 39.3352 40.6696 38.742 40.6625 38.5965C40.6489 38.3125 40.636 38.0905 40.5982 37.8017C40.4557 36.7323 40.119 35.6979 39.6046 34.7494C39.5273 34.608 39.3945 34.3498 39.2734 34.2566C39.3095 34.1713 39.3488 34.0867 39.3868 34.0023C40.5093 31.5143 41.4735 28.7916 41.6063 26.0436C41.7272 26.049 41.9171 26.0164 42.0365 25.9871C43.8547 25.5402 44.9964 24.3534 45.9566 22.8594Z" fill="#F4F4F5"/>
<path d="M9.07394 11.2539C9.10183 11.3367 8.97127 11.8975 8.94951 12.0348C8.76478 13.1994 8.83204 14.3971 8.94416 15.566C8.95936 15.7246 8.9695 15.8852 8.997 16.0416C7.6289 19.1066 7.21092 21.1632 7.06686 24.4814L7.06392 24.7431L7.23566 24.9728C5.95278 25.5032 5.10743 26.2768 4.4325 27.4982C4.38953 27.5759 4.28989 27.7732 4.23347 27.8317C4.12238 27.6758 3.9765 27.5049 3.85448 27.3546C3.62801 27.0643 3.39735 26.7774 3.16256 26.494C3.07611 26.3502 3.06608 26.407 3.03153 26.2235C2.99431 25.4561 2.98254 24.2159 3.03813 23.4232C3.3374 19.2381 4.83263 15.227 7.34592 11.8672C7.55603 11.8346 8.79118 11.3594 9.07394 11.2539Z" fill="#F4F4F5"/>
<path d="M3.85449 27.3576C3.90662 27.2937 3.97619 27.1847 4.01754 27.1113C4.60643 26.0635 5.49024 25.1575 6.58584 24.644C6.72356 24.5794 6.91635 24.4961 7.06687 24.4844L7.06394 24.7461L7.23568 24.9758C5.9528 25.5061 5.10745 26.2798 4.43252 27.5012C4.38955 27.5789 4.28991 27.7762 4.23349 27.8347C4.1224 27.6788 3.97652 27.5079 3.85449 27.3576Z" fill="#C4C2C2"/>
<path d="M45.7502 17.3867C46.54 19.5247 46.9892 21.7735 47.0814 24.0509C47.0918 24.3112 47.1259 24.9055 47.1101 25.1518C46.9288 24.9608 46.1709 23.2249 45.9566 22.8623C45.8704 22.7533 45.6345 22.5647 45.5205 22.4768C45.7683 21.8835 45.8158 20.0674 45.8113 19.4019C45.8236 19.0463 45.8108 18.0966 45.7556 17.7547C45.7396 17.6012 45.7284 17.5398 45.7502 17.3867Z" fill="#343942"/>
<defs>
<linearGradient id="paint0_linear_3144_42714" x1="24.0202" y1="19.5563" x2="34.1581" y2="4.62855" gradientUnits="userSpaceOnUse">
<stop stop-color="#B2AFAE"/>
<stop offset="1" stop-color="#FAFAFC"/>
</linearGradient>
</defs>
</svg>
