<svg width="50" height="50" viewBox="0 0 50 50" fill="none" xmlns="http://www.w3.org/2000/svg">
<g clip-path="url(#clip0_3163_42680)">
<path d="M24.0652 0.849173C24.5204 1.06899 24.8953 1.15135 25.3909 1.0725C25.649 0.975967 25.879 0.877358 26.1233 0.755117C28.2774 -0.231719 30.7171 -0.290248 33.008 0.29125C33.0753 0.308008 33.1426 0.324767 33.212 0.342033C34.2667 0.61008 35.2461 1.00327 36.2307 1.46312C36.2307 1.85375 36.2307 1.85375 36.1142 2.01463C36.0344 2.09135 36.0344 2.09135 35.953 2.16961C35.8957 2.22563 35.8384 2.28164 35.7794 2.33936C35.7189 2.39664 35.6583 2.45392 35.5959 2.51293C35.5354 2.57172 35.4748 2.63051 35.4124 2.69108C35.2629 2.83604 35.1121 2.97978 34.9612 3.12328C35.3509 3.27289 35.7392 3.41829 36.138 3.54213C36.8591 3.76752 37.5323 4.0085 38.2017 4.3622C39.0787 4.82323 39.6713 4.94075 40.6496 4.81891C41.4304 4.74328 42.0156 5.02531 42.6096 5.51319C43.101 5.96001 43.533 6.58565 43.5667 7.26909C43.5669 7.34916 43.567 7.42922 43.5671 7.51171C43.6051 8.09828 43.9438 8.35308 44.361 8.73356C44.7928 9.13468 45.1431 9.59561 45.508 10.0569C45.588 10.1536 45.6679 10.2502 45.7503 10.3498C49.219 14.5798 49.219 14.5798 49.219 16.2092C47.7204 16.2576 47.7204 16.2576 46.1916 16.3069C46.385 16.6674 46.5784 17.0279 46.7776 17.3994C47.3585 18.5062 47.8437 19.6152 48.2424 20.7991C48.2713 20.8832 48.3002 20.9673 48.3299 21.054C49.4576 24.3823 50.1119 28.0238 50.0002 31.5412C49.2268 31.2834 48.4534 31.0256 47.6565 30.76C47.6421 31.0259 47.6421 31.0259 47.6275 31.2971C47.4002 35.1802 46.7516 39.5224 44.4338 42.7717C44.0823 42.6421 43.7833 42.4854 43.4706 42.2796C43.3841 42.223 43.2975 42.1663 43.2084 42.108C43.1193 42.049 43.0302 41.9901 42.9385 41.9294C42.8475 41.8698 42.7566 41.8101 42.6629 41.7486C42.4391 41.6018 42.2157 41.4545 41.9924 41.3069C41.9596 41.3505 41.9268 41.3942 41.8929 41.4391C40.0592 43.8711 38.1306 46.0032 35.5471 47.6545C35.0579 47.2486 34.6204 46.8209 34.191 46.3518C34.0026 46.1681 34.0026 46.1681 33.7885 46.1958C33.5646 46.3012 33.3831 46.4253 33.185 46.5742C30.9401 48.1829 27.3715 50.3007 24.512 49.9983C21.8028 49.4739 18.6224 48.2058 16.5461 46.3568C16.3311 46.1666 16.3311 46.1666 16.1198 46.2088C15.8814 46.3017 15.759 46.413 15.581 46.596C15.4903 46.688 15.4903 46.688 15.3979 46.7819C15.305 46.8785 15.305 46.8785 15.2102 46.977C15.1467 47.0418 15.0833 47.1066 15.0179 47.1733C14.8616 47.3331 14.706 47.4935 14.551 47.6545C12.3151 46.4047 10.4039 44.5262 8.88695 42.4787C8.80009 42.3635 8.71311 42.2483 8.62603 42.1331C8.41855 41.8588 8.21317 41.583 8.00804 41.3069C7.94154 41.3518 7.87503 41.3966 7.80651 41.4429C7.50613 41.6448 7.20474 41.8451 6.90331 42.0454C6.7463 42.1514 6.7463 42.1514 6.58612 42.2596C6.43553 42.3592 6.43553 42.3592 6.28189 42.4608C6.18933 42.5227 6.09676 42.5846 6.00139 42.6483C5.88287 42.7094 5.88287 42.7094 5.76195 42.7717C5.3601 42.6378 5.26063 42.3741 5.06615 42.021C5.00897 41.9176 5.00897 41.9176 4.95064 41.8122C3.124 38.4145 2.51332 34.5701 2.34398 30.76C1.18383 31.1467 1.18383 31.1467 0.000232027 31.5412C-0.168117 26.2382 1.31897 20.9471 3.80883 16.3069C2.8098 16.2746 1.81078 16.2424 0.781482 16.2092C0.861097 15.8111 0.931368 15.5814 1.11069 15.2334C1.15823 15.1411 1.20577 15.0489 1.25474 14.9538C1.30603 14.8565 1.35731 14.7592 1.41014 14.6589C1.46294 14.5584 1.51573 14.4579 1.57012 14.3543C1.97424 13.5961 2.41096 12.8763 2.90908 12.1767C3.03027 12.0062 3.14902 11.8341 3.26752 11.6617C4.17472 10.3529 5.22176 9.13222 6.34789 8.00609C6.38085 7.80973 6.40616 7.61205 6.42723 7.41405C6.55996 6.49511 6.89155 5.90094 7.61246 5.31444C8.27177 4.8523 8.97259 4.74011 9.76586 4.78344C9.9032 4.80802 10.0405 4.83269 10.1778 4.85744C10.7082 4.91746 11.0423 4.74078 11.4993 4.49047C12.4165 4.02041 13.3532 3.69229 14.3368 3.38957C14.5745 3.31081 14.8068 3.21629 15.0393 3.12328C14.5881 2.67211 14.137 2.22094 13.6721 1.75609C13.7698 1.46312 13.7698 1.46312 13.9233 1.3659C13.9893 1.33781 14.0553 1.30972 14.1234 1.28078C14.1978 1.24895 14.2721 1.21712 14.3488 1.18432C14.4296 1.15145 14.5105 1.11857 14.5937 1.08471C14.6768 1.05045 14.7599 1.01619 14.8456 0.980899C15.4025 0.757198 15.963 0.563353 16.5408 0.401113C16.6067 0.382498 16.6725 0.363883 16.7404 0.344703C19.1652 -0.296215 21.8042 -0.282052 24.0652 0.849173Z" fill="#FEC750"/>
<path d="M6.34789 8.00781C6.56651 8.22643 6.58426 8.31102 6.64505 8.60558C6.66291 8.68794 6.68076 8.77031 6.69915 8.85518C6.71818 8.94414 6.73722 9.0331 6.75682 9.12476C7.12357 10.7388 7.71248 12.2171 8.49633 13.6719C8.52714 13.7301 8.55795 13.7883 8.58969 13.8483C9.00305 14.6253 9.46461 15.3265 10.0181 16.0097C10.3517 16.4378 10.3517 16.4378 10.3522 16.7416C10.3198 16.8243 10.2875 16.907 10.2541 16.9922C10.2096 17.111 10.165 17.2299 10.1191 17.3523C10.0626 17.4927 10.0058 17.6331 9.94896 17.7734C8.46533 21.539 7.59119 25.5621 7.22679 29.5898C7.21752 29.692 7.20824 29.7941 7.19869 29.8993C6.89114 33.379 6.89114 33.379 8.2724 36.4632C8.56067 36.7909 8.86744 37.0979 9.17992 37.4023C9.27043 37.4926 9.36094 37.5829 9.4542 37.6759C11.5943 39.7269 14.4898 41.4527 17.3397 42.2681C18.8646 42.7098 18.8646 42.7098 19.2812 43.457C19.3428 43.5756 19.4032 43.6947 19.4624 43.8145C19.9603 44.7886 21.098 45.3703 22.0972 45.7161C23.0174 45.9302 23.9564 45.9195 24.8966 45.9219C25.1205 45.9228 25.3444 45.9259 25.5682 45.929C27.3947 45.9423 28.8971 45.566 30.258 44.2715C30.6124 43.8876 30.943 43.4611 31.1287 42.9683C31.2958 42.7003 31.4465 42.6726 31.7458 42.5808C31.8482 42.5479 31.9506 42.5151 32.0561 42.4813C32.1668 42.4468 32.2775 42.4123 32.3916 42.3767C35.4921 41.3561 38.3072 39.692 40.7229 37.5C40.8354 37.3997 40.8354 37.3997 40.9502 37.2974C42.1768 36.1457 42.831 34.7851 42.8935 33.11C42.9307 31.4066 42.767 29.7179 42.5784 28.0273C42.5663 27.9173 42.5543 27.8073 42.5419 27.6939C42.1304 24.1032 41.2373 20.3349 39.7281 17.0414C39.6406 16.7722 39.6408 16.6649 39.7463 16.4062C39.8844 16.2037 40.0256 16.0092 40.1736 15.8142C41.8123 13.5751 43.0886 10.8768 43.4573 8.10547C43.7502 8.10547 43.7502 8.10547 43.9402 8.25996C44.4999 8.83274 45.0104 9.43153 45.508 10.0586C45.5881 10.1554 45.6682 10.2522 45.7507 10.3519C49.219 14.5824 49.219 14.5824 49.219 16.2109C47.7204 16.2593 47.7204 16.2593 46.1916 16.3086C46.385 16.6691 46.5784 17.0297 46.7776 17.4011C47.3585 18.5079 47.8437 19.6169 48.2424 20.8008C48.2713 20.8849 48.3002 20.969 48.3299 21.0557C49.4576 24.384 50.1119 28.0256 50.0002 31.543C49.2268 31.2852 48.4534 31.0273 47.6565 30.7617C47.6421 31.0276 47.6421 31.0276 47.6275 31.2988C47.4002 35.1819 46.7516 39.5241 44.4338 42.7734C44.0823 42.6438 43.7833 42.4871 43.4706 42.2813C43.3841 42.2247 43.2975 42.168 43.2084 42.1097C43.1193 42.0508 43.0302 41.9919 42.9385 41.9312C42.8475 41.8715 42.7566 41.8118 42.6629 41.7503C42.4391 41.6035 42.2157 41.4562 41.9924 41.3086C41.9596 41.3522 41.9268 41.3959 41.8929 41.4408C40.0592 43.8728 38.1306 46.0049 35.5471 47.6562C35.0579 47.2503 34.6204 46.8226 34.191 46.3535C34.0026 46.1698 34.0026 46.1698 33.7885 46.1975C33.5646 46.3029 33.3831 46.427 33.185 46.5759C30.9401 48.1846 27.3715 50.3024 24.512 50C21.8028 49.4756 18.6224 48.2076 16.5461 46.3585C16.3311 46.1683 16.3311 46.1683 16.1198 46.2105C15.8814 46.3034 15.759 46.4147 15.581 46.5977C15.4903 46.6897 15.4903 46.6897 15.3979 46.7836C15.305 46.8802 15.305 46.8802 15.2102 46.9788C15.1467 47.0435 15.0833 47.1083 15.0179 47.175C14.8616 47.3348 14.706 47.4952 14.551 47.6562C12.3151 46.4064 10.4039 44.5279 8.88695 42.4805C8.80009 42.3652 8.71311 42.25 8.62603 42.1349C8.41855 41.8605 8.21317 41.5847 8.00804 41.3086C7.94154 41.3535 7.87503 41.3984 7.80651 41.4446C7.50613 41.6465 7.20474 41.8468 6.90331 42.0471C6.7463 42.1531 6.7463 42.1531 6.58612 42.2613C6.43553 42.3609 6.43553 42.3609 6.28189 42.4625C6.18933 42.5244 6.09676 42.5863 6.00139 42.6501C5.88287 42.7111 5.88287 42.7111 5.76195 42.7734C5.3601 42.6395 5.26063 42.3758 5.06615 42.0227C5.00897 41.9194 5.00897 41.9194 4.95064 41.8139C3.124 38.4163 2.51332 34.5718 2.34398 30.7617C1.57054 31.0195 0.797107 31.2773 0.000232027 31.543C-0.168117 26.24 1.31897 20.9488 3.80883 16.3086C2.8098 16.2764 1.81078 16.2441 0.781482 16.2109C0.861097 15.8129 0.931368 15.5831 1.11069 15.2351C1.15823 15.1429 1.20577 15.0506 1.25474 14.9555C1.30603 14.8582 1.35731 14.7609 1.41014 14.6606C1.46294 14.5601 1.51573 14.4596 1.57012 14.3561C1.97424 13.5979 2.41096 12.878 2.90908 12.1785C3.03027 12.0079 3.14902 11.8359 3.26752 11.6634C4.17472 10.3546 5.22176 9.13394 6.34789 8.00781Z" fill="#D26437"/>
<path d="M6.34789 8.00781C6.56651 8.22643 6.58426 8.31102 6.64505 8.60558C6.66291 8.68794 6.68076 8.77031 6.69915 8.85518C6.71818 8.94414 6.73722 9.0331 6.75682 9.12476C7.12357 10.7388 7.71248 12.2171 8.49633 13.6719C8.52714 13.7301 8.55795 13.7883 8.58969 13.8483C9.00305 14.6253 9.46461 15.3265 10.0181 16.0097C10.3517 16.4378 10.3517 16.4378 10.3522 16.7416C10.3198 16.8243 10.2875 16.907 10.2541 16.9922C10.2096 17.111 10.165 17.2299 10.1191 17.3523C10.0626 17.4927 10.0058 17.6331 9.94896 17.7734C8.46533 21.539 7.59119 25.5621 7.22679 29.5898C7.21752 29.692 7.20824 29.7941 7.19869 29.8993C6.89114 33.379 6.89114 33.379 8.2724 36.4632C8.56067 36.7909 8.86744 37.0979 9.17992 37.4023C9.27043 37.4926 9.36094 37.5829 9.4542 37.6759C11.5943 39.7269 14.4898 41.4527 17.3397 42.2681C18.8646 42.7098 18.8646 42.7098 19.2812 43.457C19.3428 43.5756 19.4032 43.6947 19.4624 43.8145C19.924 44.7175 20.8851 45.2012 21.7776 45.6055C21.8506 45.6233 21.9236 45.6411 21.9988 45.6594C22.5868 45.8055 22.5868 45.8055 22.7888 46.0749C22.8954 46.3016 22.9795 46.5277 23.0593 46.7651C23.1232 46.9337 23.1875 47.102 23.2523 47.2702C23.2833 47.3527 23.3143 47.4352 23.3463 47.5203C23.7048 48.4362 24.2091 49.2053 24.9026 49.9023C24.6085 49.9946 24.4201 50.0013 24.1229 49.9233C24.0484 49.904 23.974 49.8847 23.8973 49.8648C23.8181 49.8429 23.739 49.8211 23.6575 49.7986C23.5752 49.7763 23.4929 49.754 23.4081 49.731C21.0642 49.0786 18.383 47.9944 16.5461 46.3585C16.3311 46.1683 16.3311 46.1683 16.1198 46.2105C15.8814 46.3034 15.759 46.4147 15.581 46.5977C15.4903 46.6897 15.4903 46.6897 15.3979 46.7836C15.305 46.8802 15.305 46.8802 15.2102 46.9788C15.1467 47.0435 15.0833 47.1083 15.0179 47.175C14.8616 47.3348 14.706 47.4952 14.551 47.6562C12.3151 46.4064 10.4039 44.5279 8.88695 42.4805C8.80009 42.3652 8.71311 42.25 8.62603 42.1349C8.41855 41.8605 8.21317 41.5847 8.00804 41.3086C7.94154 41.3535 7.87503 41.3984 7.80651 41.4446C7.50613 41.6465 7.20474 41.8468 6.90331 42.0471C6.7463 42.1531 6.7463 42.1531 6.58612 42.2613C6.43553 42.3609 6.43553 42.3609 6.28189 42.4625C6.18933 42.5244 6.09676 42.5863 6.00139 42.6501C5.88287 42.7111 5.88287 42.7111 5.76195 42.7734C5.3601 42.6395 5.26063 42.3758 5.06615 42.0227C5.00897 41.9194 5.00897 41.9194 4.95064 41.8139C3.124 38.4163 2.51332 34.5718 2.34398 30.7617C1.57054 31.0195 0.797107 31.2773 0.000232027 31.543C-0.168117 26.24 1.31897 20.9488 3.80883 16.3086C2.8098 16.2764 1.81078 16.2441 0.781482 16.2109C0.861097 15.8129 0.931368 15.5831 1.11069 15.2351C1.15823 15.1429 1.20577 15.0506 1.25474 14.9555C1.30603 14.8582 1.35731 14.7609 1.41014 14.6606C1.46294 14.5601 1.51573 14.4596 1.57012 14.3561C1.97424 13.5979 2.41096 12.878 2.90908 12.1785C3.03027 12.0079 3.14902 11.8359 3.26752 11.6634C4.17472 10.3546 5.22176 9.13394 6.34789 8.00781Z" fill="#B44632"/>
<path d="M24.0649 0.849173C24.5202 1.06899 24.8951 1.15135 25.3906 1.0725C25.6488 0.975967 25.8787 0.877358 26.123 0.755117C28.2772 -0.231719 30.7169 -0.290248 33.0078 0.29125C33.0751 0.308008 33.1424 0.324767 33.2118 0.342033C34.2665 0.61008 35.2458 1.00327 36.2305 1.46312C36.2305 1.85375 36.2305 1.85375 36.1139 2.01463C36.0342 2.09135 36.0342 2.09135 35.9528 2.16961C35.8955 2.22563 35.8382 2.28164 35.7792 2.33936C35.7186 2.39664 35.6581 2.45392 35.5957 2.51293C35.5352 2.57172 35.4746 2.63051 35.4122 2.69108C35.2627 2.83604 35.1119 2.97978 34.9609 3.12328C35.3507 3.27289 35.739 3.41829 36.1378 3.54213C36.9622 3.79906 37.7502 4.09683 38.5315 4.46605C38.6123 4.50402 38.6931 4.54199 38.7763 4.58112C39.3426 4.85544 39.3426 4.85544 39.4531 5.07641C39.3678 5.10259 39.2824 5.12877 39.1945 5.15575C36.8209 5.91212 33.8136 7.10268 32.0312 8.885C31.8241 8.91246 31.6165 8.93609 31.4087 8.95824C29.2891 9.22249 27.3302 10.0119 25.5009 11.0983C25.1299 11.2567 24.9918 11.2531 24.6094 11.1311C24.3251 10.9955 24.0531 10.8409 23.7793 10.6855C22.2146 9.83196 20.2824 9.0066 18.4753 8.95824C17.9203 8.92195 17.6116 8.66642 17.1844 8.32805C15.3888 6.93875 13.1813 5.99079 11.0526 5.25832C10.8398 5.17406 10.8398 5.17406 10.5469 4.97875C11.9298 4.18288 13.3851 3.58816 14.9414 3.22094C14.9623 3.02035 14.9623 3.02035 14.8249 2.88691C14.7717 2.83475 14.7185 2.78259 14.6637 2.72884C14.5778 2.64387 14.5778 2.64387 14.4901 2.55718C14.4296 2.49827 14.369 2.43935 14.3066 2.37865C14.2158 2.28915 14.2158 2.28915 14.1232 2.19784C13.9732 2.05015 13.8226 1.90306 13.6719 1.75609C13.7695 1.46312 13.7695 1.46312 13.923 1.3659C14.0221 1.32377 14.0221 1.32377 14.1232 1.28078C14.2347 1.23303 14.2347 1.23303 14.3486 1.18432C14.4294 1.15145 14.5102 1.11857 14.5935 1.08471C14.6766 1.05045 14.7597 1.01619 14.8453 0.980899C15.4023 0.757198 15.9627 0.563353 16.5405 0.401113C16.6064 0.382498 16.6723 0.363883 16.7402 0.344703C19.165 -0.296215 21.8039 -0.282052 24.0649 0.849173Z" fill="#D26437"/>
<path d="M17.5229 8.45171C17.6715 8.56355 17.82 8.67543 17.9684 8.78741C18.1135 8.88409 18.1135 8.88409 18.2614 8.98272C18.2128 9.08215 18.2128 9.08215 18.1631 9.18359C17.5676 10.4039 16.9791 11.6161 16.5036 12.889C16.4545 13.0159 16.4053 13.1428 16.356 13.2697C15.8458 14.5915 15.4404 15.9391 15.0689 17.3056C14.9836 17.6193 14.8951 17.9319 14.8041 18.244C14.3858 19.6997 14.0828 21.1745 13.7889 22.6592C13.7066 23.0735 13.6167 23.4855 13.5236 23.8974C13.3274 24.8061 13.2074 25.7261 13.0795 26.6463C13.0543 26.8244 13.0291 27.0026 13.0038 27.1807C12.7818 28.7516 12.5842 30.3203 12.4509 31.9014C12.4259 32.1915 12.4008 32.4815 12.3757 32.7716C12.3666 32.8773 12.3666 32.8773 12.3573 32.9852C12.2807 33.8717 12.1956 34.7573 12.1091 35.6429C10.2027 34.5928 8.01536 32.7745 7.23236 30.7051C6.25242 26.8617 8.57305 20.794 10.0388 17.2969C10.0775 17.1958 10.1161 17.0947 10.1559 16.9905C10.1869 16.9096 10.2179 16.8286 10.2498 16.7452C10.2557 16.3657 10.0256 16.1475 9.79583 15.8675C8.04314 13.6004 6.1271 10.0034 6.445 7.02959C6.64083 6.285 7.11141 5.62623 7.76336 5.2157C10.6749 3.70363 15.1966 6.7684 17.5229 8.45171Z" fill="#EAAE4A"/>
<path d="M7.12938 30.1758C7.27127 30.4455 7.37396 30.7115 7.47118 30.9998C8.59679 33.8242 12.0565 35.7138 14.572 37.1054C14.7466 37.207 14.7466 37.207 14.8442 37.3047C14.8636 37.4531 14.8817 37.6016 14.8992 37.7502C15.1546 39.2124 16.1042 40.628 17.2856 41.5039C18.8036 42.5355 20.3711 42.8138 22.1812 42.5475C22.9916 42.3806 23.879 41.9829 24.5057 41.4371C24.7877 41.2575 24.9644 41.2669 25.2934 41.3086C25.5548 41.4444 25.5548 41.4444 25.8122 41.626C26.8403 42.3165 27.7646 42.6125 28.9983 42.6025C29.0911 42.6033 29.184 42.604 29.2796 42.6048C30.8183 42.6006 32.3303 41.9439 33.4661 40.9058C34.2608 40.0519 35.0085 38.7847 35.0835 37.6038C35.1685 37.2565 35.2208 37.2212 35.5046 37.0239C35.7353 36.8856 35.9696 36.7553 36.205 36.6251C37.7718 35.7581 39.2064 34.8086 40.5278 33.5938C40.608 33.5202 40.608 33.5202 40.6897 33.4453C41.6835 32.5224 42.3668 31.5808 42.7739 30.2734C42.8061 30.2734 42.8384 30.2734 42.8716 30.2734C43.1089 32.2812 43.2555 34.5326 41.9927 36.2305C39.4595 39.3298 35.5708 41.6169 31.7388 42.6697C31.3425 42.7977 31.1823 42.904 30.988 43.2739C30.9537 43.3505 30.9193 43.427 30.8839 43.5059C30.3493 44.5783 29.2703 45.2121 28.2231 45.7031C27.2743 45.9968 26.3463 46.0399 25.3622 46.0289C25.1407 46.0266 24.9193 46.0269 24.6978 46.0276C22.834 46.024 21.1492 45.7297 19.7454 44.397C19.3306 43.9553 18.9431 43.4489 18.7505 42.8711C18.56 42.7778 18.56 42.7778 18.3209 42.7162C18.2291 42.6885 18.1372 42.6608 18.0426 42.6322C17.8915 42.5873 17.8915 42.5873 17.7373 42.5415C15.2042 41.741 12.7114 40.451 10.645 38.7695C10.5941 38.7284 10.5432 38.6873 10.4908 38.6449C8.90117 37.3545 7.32649 35.9736 7.06186 33.8379C6.96253 32.6447 6.91681 31.3577 7.12938 30.1758Z" fill="#F4DAB2"/>
<path d="M20.4102 33.8866C20.4079 33.9596 20.4056 34.0326 20.4033 34.1078C20.4015 34.204 20.3998 34.3002 20.398 34.3992C20.3957 34.4944 20.3934 34.5896 20.3911 34.6876C20.4109 34.9708 20.443 35.1204 20.6055 35.3514C20.7341 35.4196 20.8647 35.4841 20.9961 35.5467C21.2011 35.7147 21.4013 35.8847 21.6004 36.0594C22.6698 36.9753 23.7137 37.6942 25.1885 37.6345C26.9164 37.4212 28.3272 36.2942 29.485 35.0519C29.6218 34.8056 29.6192 34.6302 29.6082 34.3504C29.6055 34.2633 29.6029 34.1762 29.6002 34.0864C29.5968 34.0205 29.5934 33.9545 29.5899 33.8866C31.1009 33.941 32.6973 34.382 33.7628 35.5212C33.9656 35.8826 33.8802 36.1581 33.7734 36.5443C33.7464 36.634 33.7193 36.7238 33.6914 36.8162C33.6636 36.9767 33.6371 37.1375 33.6121 37.2984C33.3615 38.513 32.7846 39.5845 31.7536 40.2983C30.6919 40.9599 29.5778 41.2616 28.3203 41.1131C27.5066 40.9108 26.8499 40.5892 26.1814 40.0893C25.6772 39.7249 25.1163 39.6632 24.5117 39.7459C24.1452 39.8717 23.8295 40.0746 23.5024 40.2792C22.2594 41.0517 21.1598 41.3157 19.7022 41.0033C18.4669 40.6541 17.5463 39.8566 16.8945 38.7694C16.491 38.0111 16.3339 37.2932 16.2461 36.45C16.224 36.1455 16.224 36.1455 16.1377 35.9183C16.1133 35.742 16.1133 35.742 16.2369 35.5536C16.9962 34.8092 17.8364 34.3837 18.8477 34.0819C18.9423 34.0436 19.037 34.0053 19.1345 33.9659C19.5603 33.8529 19.9723 33.871 20.4102 33.8866Z" fill="#F9EAC7"/>
<path d="M42.2142 5.21072C42.8746 5.68698 43.3158 6.24718 43.5547 7.03109C43.9555 9.85027 41.9962 13.4381 40.3931 15.6432C40.2751 15.7998 40.1571 15.9565 40.0391 16.1131C39.9054 16.3065 39.7764 16.5018 39.6484 16.6991C39.4684 16.4289 39.3364 16.1595 39.2029 15.8645C38.1 13.4346 36.27 10.2394 33.6872 9.16923C33.1464 9.00562 32.5922 8.94143 32.0312 8.88656C32.417 8.46829 32.8318 8.16864 33.313 7.86727C33.3926 7.81739 33.4723 7.76751 33.5543 7.71611C39.8936 3.82314 39.8936 3.82314 42.2142 5.21072Z" fill="#EAAE4A"/>
<path d="M24.6094 1.0726C24.3129 1.37319 24.0117 1.6616 23.6938 1.9393C22.6873 2.84188 21.6959 3.78581 20.8984 4.8812C20.8561 4.93876 20.8138 4.99632 20.7702 5.05563C19.8819 6.26828 19.0117 7.52704 18.3594 8.8851C17.8368 8.84301 17.4867 8.5482 17.0715 8.25644C15.0457 6.8725 12.8755 5.83963 10.5469 5.07651C10.84 4.76253 11.1751 4.59727 11.5601 4.41733C11.6318 4.38358 11.7035 4.34983 11.7774 4.31505C12.6051 3.93742 13.4658 3.66112 14.3334 3.39123C14.5721 3.31159 14.8055 3.21682 15.0391 3.12339C14.5879 2.67221 14.1367 2.22104 13.6719 1.7562C13.7695 1.46323 13.7695 1.46323 13.923 1.366C14.0221 1.32387 14.0221 1.32387 14.1232 1.28089C14.2347 1.23314 14.2347 1.23314 14.3486 1.18442C14.4294 1.15155 14.5102 1.11868 14.5935 1.08481C14.6766 1.05056 14.7597 1.0163 14.8453 0.981004C15.4023 0.757303 15.9627 0.563457 16.5405 0.401218C16.6064 0.382603 16.6723 0.363988 16.7402 0.344808C19.4784 -0.378955 22.081 -0.124346 24.6094 1.0726Z" fill="#B44632"/>
<path d="M15.5276 35.6945C15.5921 35.6935 15.6565 35.6924 15.7229 35.6914C16.0155 35.7691 16.1277 35.8932 16.3089 36.1339C16.3691 36.4444 16.3691 36.4444 16.3943 36.8053C16.5091 37.9685 16.9738 39.1104 17.8523 39.907C18.99 40.814 20.2347 41.1652 21.6799 41.0167C22.5226 40.8043 23.2365 40.3793 23.9573 39.9105C24.4278 39.6169 24.8504 39.588 25.3909 39.6495C25.9198 39.8117 26.3507 40.0853 26.7893 40.4148C27.6923 41.0405 28.7581 41.1209 29.8125 40.9713C31.0891 40.7148 32.1138 40.1322 32.8414 39.0464C33.3508 38.2036 33.5543 37.4194 33.628 36.4513C33.7014 36.0856 33.7831 35.9609 34.0823 35.7433C34.2776 35.6914 34.2776 35.6914 34.4729 35.6945C34.5374 35.6935 34.6018 35.6924 34.6682 35.6914C34.9568 35.768 35.0743 35.8989 35.2542 36.1339C35.3227 36.5246 35.284 36.9113 35.2542 37.3058C35.2455 37.4348 35.2455 37.4348 35.2366 37.5663C35.0906 38.7437 34.395 39.9634 33.594 40.8214C33.5034 40.9198 33.5034 40.9198 33.4109 41.0202C32.1412 42.2683 30.4733 42.7053 28.7498 42.7078C27.5748 42.6921 26.399 42.3217 25.4946 41.5359C25.2129 41.3561 25.0362 41.3657 24.7073 41.4073C24.4395 41.5391 24.4395 41.5391 24.1885 41.7247C22.7677 42.6777 21.1852 42.917 19.4974 42.6391C17.957 42.281 16.5458 41.2309 15.6836 39.9162C15.022 38.7854 14.5121 37.4701 14.7464 36.1339C14.9776 35.8318 15.1423 35.6884 15.5276 35.6945Z" fill="#D4AF91"/>
<path d="M42.7734 30.2734C42.8057 30.2734 42.8379 30.2734 42.8711 30.2734C43.1084 32.2812 43.255 34.5326 41.9922 36.2305C39.5627 39.2029 36.006 41.239 32.4219 42.4805C32.257 42.5386 32.257 42.5386 32.0889 42.598C31.8279 42.6782 31.6189 42.6917 31.3477 42.6758C31.5618 42.1982 31.8277 41.985 32.2815 41.7358C33.7289 40.8741 34.5777 39.5921 35.0586 37.9883C35.0667 37.8614 35.0747 37.7345 35.083 37.6038C35.168 37.2565 35.2203 37.2212 35.5042 37.0239C35.7349 36.8856 35.9692 36.7553 36.2045 36.6251C37.7714 35.7581 39.2059 34.8086 40.5273 33.5938C40.5808 33.5447 40.6342 33.4957 40.6892 33.4453C41.683 32.5224 42.3663 31.5808 42.7734 30.2734Z" fill="#F9E9C5"/>
<path d="M41.2109 7.0302C41.7882 7.40766 41.9992 7.82298 42.157 8.48284C42.2865 9.77772 41.9366 10.8483 41.3635 12.0046C41.3127 12.1089 41.2618 12.2132 41.2095 12.3207C40.6519 13.4493 40.0545 14.5754 39.3555 15.624C39.0089 15.5084 38.9967 15.4563 38.8367 15.1444C38.7947 15.0647 38.7527 14.9849 38.7095 14.9027C38.6649 14.8164 38.6202 14.7302 38.5742 14.6413C37.7977 13.1907 36.893 11.9293 35.7884 10.7109C35.6033 10.4985 35.4288 10.2783 35.2539 10.0575C37.7961 8.33183 37.7961 8.33183 38.9343 7.67107C39.0059 7.62917 39.0775 7.58728 39.1513 7.54411C40.4506 6.80492 40.4506 6.80492 41.2109 7.0302Z" fill="#E18C46"/>
<path d="M9.7654 7.03105C10.0167 7.13022 10.2422 7.22991 10.4795 7.35454C10.5788 7.40556 10.5788 7.40556 10.6802 7.45761C12.104 8.20652 13.4303 9.13658 14.7459 10.0584C14.4202 10.4449 14.0879 10.8156 13.7327 11.1753C12.5518 12.4689 11.605 14.0538 10.8396 15.6248C10.7752 15.6248 10.7107 15.6248 10.6443 15.6248C10.4914 15.3979 10.3529 15.1722 10.2171 14.9351C10.1535 14.8252 10.1535 14.8252 10.0886 14.7131C7.43113 10.0706 7.43113 10.0706 7.87903 8.22009C8.21353 7.29155 8.76122 6.8177 9.7654 7.03105Z" fill="#E18C46"/>
<path d="M21.7442 33.3789C21.8214 33.3781 21.8986 33.3773 21.9781 33.3765C22.2342 33.3741 22.4903 33.3725 22.7464 33.3711C22.8339 33.3706 22.9213 33.37 23.0114 33.3695C23.4743 33.3669 23.9372 33.365 24.4001 33.3636C24.878 33.362 25.3559 33.3576 25.8338 33.3526C26.2014 33.3493 26.569 33.3482 26.9367 33.3476C27.1128 33.347 27.2889 33.3455 27.4651 33.3432C27.712 33.3401 27.9587 33.3401 28.2056 33.3408C28.278 33.3392 28.3505 33.3376 28.4251 33.3359C28.9854 33.3426 29.2117 33.5022 29.59 33.8861C29.7519 34.2099 29.7586 34.5152 29.6877 34.8626C29.0011 36.0538 27.3044 37.1933 26.0256 37.5909C24.9447 37.8367 23.9343 37.7408 22.9494 37.2064C22.5194 36.9263 22.1286 36.5983 21.7393 36.265C21.5075 36.069 21.2667 35.8848 21.0268 35.6988C20.3547 35.1758 20.3547 35.1758 20.2669 34.7257C20.2586 34.0534 20.2586 34.0534 20.5446 33.6846C20.9547 33.382 21.2487 33.3818 21.7442 33.3789Z" fill="#5E5460"/>
<path d="M34.2344 23.5882C34.8058 23.9397 35.2037 24.4789 35.449 25.0958C35.4931 25.4323 35.4944 25.7639 35.4918 26.1028C35.4947 26.2346 35.4947 26.2346 35.4977 26.3689C35.4971 27.1293 35.3173 27.7277 34.8143 28.3062C34.7337 28.3747 34.6531 28.4432 34.5701 28.5137C34.5077 28.5681 34.4452 28.6225 34.3809 28.6785C33.7755 29.0638 33.1188 29.0737 32.4217 29.002C31.7751 28.8292 31.3237 28.3753 30.9568 27.8301C30.6589 27.2704 30.616 26.8049 30.6211 26.1761C30.6192 26.0926 30.6172 26.009 30.6152 25.923C30.6158 25.2028 30.8131 24.7005 31.2742 24.1497C31.3628 24.0752 31.4515 24.0007 31.5428 23.9239C31.5934 23.8783 31.644 23.8328 31.6961 23.7858C32.3853 23.2518 33.4491 23.2402 34.2344 23.5882Z" fill="#4D414E"/>
<path d="M17.9472 23.5199C18.5612 23.8326 18.9345 24.3172 19.2515 24.9172C19.5004 25.737 19.5 26.9356 19.1408 27.7168C18.8051 28.2542 18.3578 28.6571 17.7981 28.9497C17.0613 29.0772 16.3531 29.1203 15.6916 28.7319C15.1112 28.3148 14.7372 27.8347 14.551 27.1492C14.4532 26.2544 14.3857 25.2013 14.8733 24.4133C15.6767 23.4751 16.7519 23.1601 17.9472 23.5199Z" fill="#4C404E"/>
<path d="M12.1092 35.7422C12.6324 35.9977 13.1346 36.2919 13.6412 36.5784C13.7457 36.6372 13.8503 36.6961 13.958 36.7567C14.0573 36.8128 14.1565 36.8689 14.2588 36.9267C14.3499 36.9781 14.441 37.0295 14.5349 37.0825C14.7459 37.207 14.7459 37.207 14.8436 37.3047C14.863 37.4531 14.881 37.6016 14.8985 37.7502C15.1531 39.2075 16.1018 40.6353 17.285 41.5039C17.6186 41.7093 17.9534 41.9077 18.2947 42.1001C18.5797 42.3031 18.5946 42.3512 18.6522 42.6758C17.9864 42.6269 17.4345 42.4868 16.815 42.2424C16.7266 42.2081 16.6382 42.1737 16.5472 42.1383C15.6707 41.7894 14.8281 41.3838 13.9965 40.9392C13.7762 40.8239 13.5532 40.717 13.3284 40.6109C13.1945 40.5426 13.0607 40.4741 12.9271 40.4053C12.836 40.3653 12.836 40.3653 12.7431 40.3244C12.5418 40.2145 12.4371 40.1301 12.3045 39.9414C12.0383 39.0197 12.0844 38.0234 12.097 37.0728C12.098 36.9425 12.0989 36.8123 12.0997 36.6821C12.1019 36.3688 12.1051 36.0555 12.1092 35.7422Z" fill="#F9E9C6"/>
<path d="M21.5494 33.3908C21.6589 33.3911 21.7684 33.3914 21.8813 33.3917C21.9961 33.3925 22.1109 33.3933 22.2292 33.3942C22.3447 33.3946 22.4603 33.3951 22.5794 33.3955C22.8655 33.3967 23.1516 33.3983 23.4377 33.4003C23.4457 33.4631 23.4537 33.5259 23.4619 33.5905C23.5612 34.2178 23.7222 34.5856 24.1579 35.0421C24.2093 35.099 24.2607 35.1558 24.3137 35.2143C24.4757 35.3925 24.6402 35.5683 24.8048 35.744C24.9131 35.8625 25.0212 35.9812 25.1291 36.1C25.5333 36.5433 25.94 36.9829 26.3673 37.4042C25.3145 37.8509 24.36 37.7979 23.2996 37.3859C22.7129 37.1113 22.2279 36.6859 21.7393 36.2675C21.5075 36.0715 21.2667 35.8873 21.0268 35.7013C20.3547 35.1784 20.3547 35.1784 20.2669 34.7282C20.2586 34.0559 20.2586 34.0559 20.5446 33.6872C20.9157 33.4132 21.0921 33.3884 21.5494 33.3908Z" fill="#4C404F"/>
<path d="M25.2934 12.7949C25.6221 13.0529 25.7659 13.1978 25.8431 13.6136C25.8432 13.7397 25.8432 13.8659 25.8433 13.9958C25.844 14.0657 25.8447 14.1357 25.8455 14.2077C25.8471 14.4379 25.8452 14.6678 25.8431 14.898C25.8432 15.0583 25.8434 15.2187 25.8438 15.3791C25.8441 15.7148 25.8427 16.0504 25.84 16.3861C25.8367 16.8162 25.8373 17.2462 25.8391 17.6763C25.8401 18.0073 25.8393 18.3383 25.8378 18.6693C25.8373 18.8279 25.8373 18.9865 25.8379 19.145C25.8385 19.3667 25.8365 19.5882 25.8338 19.8098C25.8332 19.9358 25.8326 20.0619 25.832 20.1917C25.7732 20.5635 25.6893 20.678 25.3911 20.9004C25.082 20.9905 24.8925 21.0272 24.5854 20.9248C24.4145 20.8027 24.4145 20.8027 24.2192 20.5098C24.1924 20.1991 24.1924 20.1991 24.1893 19.8104C24.1885 19.7395 24.1877 19.6686 24.1868 19.5956C24.1845 19.3613 24.1836 19.127 24.183 18.8927C24.1821 18.7298 24.1812 18.567 24.1803 18.4041C24.1787 18.0627 24.1779 17.7213 24.1777 17.3799C24.1771 16.9423 24.1734 16.5048 24.169 16.0673C24.1661 15.7309 24.1654 15.3946 24.1653 15.0582C24.1649 14.8969 24.1637 14.7356 24.1616 14.5743C24.159 14.3487 24.1595 14.1232 24.1607 13.8976C24.1602 13.7692 24.1597 13.6408 24.1592 13.5086C24.2192 13.1855 24.2192 13.1855 24.4487 12.9492C24.7692 12.7581 24.9265 12.7261 25.2934 12.7949Z" fill="#FFDB63"/>
<path d="M16.8945 23.4361C17.5706 23.3746 18.0133 23.508 18.5547 23.9244C19.226 24.6343 19.3657 25.2473 19.3481 26.201C19.3473 26.2919 19.3464 26.3829 19.3455 26.4766C19.3432 26.7001 19.34 26.9235 19.3359 27.147C19.2715 27.0826 19.207 27.0181 19.1406 26.9517C19.0258 27.0454 19.0258 27.0454 18.9087 27.1409C18.5105 27.4538 18.2837 27.4985 17.7734 27.44C17.416 27.2261 17.1568 26.9705 16.9495 26.6099C16.8858 26.3268 16.8811 26.0691 16.8945 25.7798C16.8361 25.7698 16.7777 25.7597 16.7175 25.7493C16.4588 25.668 16.3669 25.612 16.2109 25.3892C16.1133 25.0596 16.1133 25.0596 16.1133 24.7056C16.333 24.4187 16.333 24.4187 16.6016 24.2173C16.6982 24.2173 16.7949 24.2173 16.8945 24.2173C16.8945 23.9595 16.8945 23.7017 16.8945 23.4361Z" fill="#5E5460"/>
<path d="M33.105 23.437C33.6869 23.3885 34.0868 23.4929 34.5698 23.8277C35.0627 24.2861 35.4123 24.7964 35.4945 25.4756C35.4971 25.6099 35.4981 25.7442 35.4976 25.8784C35.5003 25.9454 35.5031 26.0124 35.506 26.0814C35.5074 26.4631 35.451 26.7024 35.2134 26.9931C34.8946 27.3114 34.7321 27.4198 34.2891 27.4776C33.8272 27.4221 33.5496 27.1967 33.2209 26.8794C33.0994 26.6491 33.0866 26.5185 33.0684 26.263C33.0509 25.8686 33.0509 25.8686 32.7693 25.6953C32.6867 25.6591 32.6041 25.6228 32.519 25.5855C32.3237 25.3902 32.3237 25.3902 32.2871 25.0117C32.2943 24.7051 32.3105 24.6266 32.5007 24.3709C32.7144 24.2183 32.7144 24.2183 33.0073 24.1206C33.0396 23.895 33.0718 23.6695 33.105 23.437Z" fill="#5E5360"/>
<path d="M33.3987 24.2182C33.7289 24.4571 33.8644 24.5984 33.948 24.9994C33.8644 25.4005 33.7289 25.5418 33.3987 25.7807C33.0122 25.8417 32.8119 25.8403 32.477 25.6342C32.2621 25.2903 32.2459 25.0039 32.3244 24.6088C32.6011 24.1661 32.9002 24.1395 33.3987 24.2182Z" fill="#F9F9F9"/>
<path d="M17.2854 24.2185C17.5234 24.365 17.5234 24.365 17.676 24.6092C17.7546 25.0042 17.7384 25.2907 17.5234 25.6346C17.1927 25.8381 16.9833 25.8355 16.6018 25.781C16.283 25.5713 16.2204 25.4202 16.1074 25.0547C16.1135 24.7068 16.1135 24.7068 16.3088 24.42C16.6721 24.1702 16.8529 24.1478 17.2854 24.2185Z" fill="#FAF9FA"/>
</g>
<defs>
<clipPath id="clip0_3163_42680">
<rect width="50" height="50" fill="white"/>
</clipPath>
</defs>
</svg>
