<svg width="50" height="50" viewBox="0 0 50 50" fill="none" xmlns="http://www.w3.org/2000/svg">
<path d="M24.0396 0.00704801C24.17 0.00560953 24.17 0.00560954 24.303 0.00415036C26.2456 -0.0127937 28.1285 0.00359158 30.0351 0.420605C30.1795 0.451972 30.1795 0.451972 30.3267 0.483971C32.2234 0.910888 34.08 1.53647 35.7927 2.46218C35.9994 2.57384 36.2074 2.68293 36.4153 2.79216C37.9666 3.61867 39.3566 4.62364 40.6709 5.78729C40.8034 5.90351 40.8034 5.90351 40.9386 6.02208C41.8117 6.79704 42.5769 7.60698 43.3055 8.51942C43.3698 8.59666 43.4341 8.67388 43.5003 8.75345C44.4574 9.91267 45.2407 11.1923 45.94 12.52C45.9756 12.5868 46.0112 12.6535 46.0479 12.7224C47.1742 14.8667 47.8953 17.2579 48.2819 19.6431C48.2945 19.7174 48.307 19.7916 48.3198 19.8681C48.6853 22.1407 48.6571 24.7093 48.1844 26.9613C48.1649 27.0565 48.1455 27.1516 48.1256 27.2497C47.7146 29.2229 47.0743 31.0604 46.1281 32.8397C46.0446 32.9977 45.9645 33.1573 45.8848 33.3171C44.8484 35.3456 43.432 37.1479 41.883 38.8065C41.6812 39.0237 41.4858 39.2443 41.293 39.4694C40.6833 40.1707 40.0106 40.7999 39.3049 41.4026C39.2067 41.4885 39.1087 41.5745 39.0106 41.6606C38.131 42.4293 37.2169 43.1446 36.2801 43.842C36.2106 43.894 36.1412 43.9459 36.0697 43.9994C33.1012 46.2131 29.8465 48.0281 26.4919 49.5868C26.4047 49.628 26.3173 49.6693 26.2274 49.7118C26.146 49.7488 26.0646 49.7858 25.9808 49.8239C25.9107 49.8561 25.8406 49.8883 25.7684 49.9214C25.2854 50.0693 24.909 49.9992 24.4603 49.7888C24.3667 49.7455 24.2729 49.702 24.1764 49.6574C24.0276 49.5862 24.0276 49.5862 23.8756 49.5136C23.7716 49.4647 23.6676 49.4159 23.5604 49.3655C23.2461 49.217 22.9327 49.0667 22.6194 48.9159C22.5329 48.8748 22.4464 48.8337 22.3573 48.7913C20.9681 48.1294 19.646 47.3635 18.326 46.5741C18.2441 46.5257 18.1624 46.4771 18.078 46.4272C16.0315 45.2148 14.0984 43.8093 12.2763 42.2808C12.1297 42.1596 12.1297 42.1596 11.9801 42.0361C10.232 40.5844 8.60494 38.9982 7.20235 37.2068C7.12914 37.117 7.05593 37.0272 6.98051 36.9346C5.35119 34.8941 4.10967 32.6221 3.20172 30.1813C3.17759 30.1178 3.15345 30.0542 3.12859 29.9888C2.83469 29.2073 2.6325 28.4153 2.4516 27.6017C2.43183 27.5134 2.41206 27.4252 2.39169 27.3342C2.10322 25.9763 1.99333 24.6383 2.00031 23.2535C2.00049 23.1795 2.00067 23.1056 2.00085 23.0295C2.00612 21.7217 2.09008 20.4442 2.32353 19.1553C2.33924 19.068 2.35494 18.9809 2.37113 18.891C3.0872 15.0885 4.72071 11.4903 7.20235 8.51942C7.2725 8.4344 7.2725 8.4344 7.34408 8.34767C8.33654 7.14775 9.38778 6.06388 10.6175 5.10426C10.7146 5.02615 10.8117 4.94803 10.9117 4.86756C11.6555 4.27472 12.4345 3.75761 13.2508 3.27009C13.3779 3.19413 13.5047 3.11759 13.6311 3.04034C16.6845 1.17891 20.4573 0.0397397 24.0396 0.00704801Z" fill="#64C27C"/>
<path d="M25.2539 0.0283203C25.2539 12.3932 25.2539 24.758 25.2539 37.4975C23.4829 37.4975 21.7119 37.4975 19.8872 37.4975C20.1542 39.2328 20.6141 40.5631 21.9874 41.7147C22.9842 42.4316 24.0532 42.7141 25.2539 42.8643C25.2539 45.2149 25.2539 47.5654 25.2539 49.9873C24.906 49.9177 24.6765 49.8649 24.367 49.7258C24.2539 49.6752 24.2539 49.6752 24.1386 49.6236C24.0579 49.5866 23.9772 49.5497 23.8939 49.5116C23.8084 49.4726 23.7227 49.4336 23.6345 49.3933C21.8038 48.5518 20.0541 47.6077 18.326 46.5722C18.1661 46.4774 18.0061 46.3826 17.8461 46.2878C15.883 45.1159 14.0272 43.7477 12.2763 42.2788C12.1297 42.1577 12.1297 42.1577 11.9801 42.0341C10.232 40.5825 8.60494 38.9961 7.20235 37.2049C7.12914 37.115 7.05593 37.0252 6.98051 36.9327C5.35119 34.8921 4.10967 32.6201 3.20172 30.1794C3.17759 30.1158 3.15345 30.0522 3.12859 29.9867C2.83469 29.2053 2.6325 28.4134 2.4516 27.5997C2.43183 27.5114 2.41206 27.4231 2.39169 27.3321C2.10322 25.9744 1.99333 24.6364 2.00031 23.2514C2.00049 23.1775 2.00067 23.1036 2.00085 23.0275C2.00612 21.7197 2.09008 20.4422 2.32353 19.1532C2.33924 19.0661 2.35494 18.9789 2.37113 18.8891C3.0872 15.0866 4.72071 11.4883 7.20235 8.51745C7.2725 8.43243 7.2725 8.43243 7.34408 8.34569C8.33654 7.14578 9.38778 6.06191 10.6175 5.10229C10.7146 5.02418 10.8117 4.94606 10.9117 4.86558C11.6555 4.27275 12.4345 3.75563 13.2508 3.26811C13.3779 3.19215 13.5047 3.11562 13.6311 3.03837C17.1477 0.894532 21.1764 0.0283203 25.2539 0.0283203Z" fill="#90DB5A"/>
<path d="M38.4082 18.1676C38.4985 18.1674 38.5888 18.1673 38.6819 18.1672C38.8721 18.1671 39.0622 18.1673 39.2524 18.1678C39.5417 18.1683 39.8309 18.1678 40.1202 18.1671C40.3057 18.1672 40.4913 18.1673 40.6768 18.1676C40.7624 18.1673 40.8481 18.1671 40.9363 18.1669C42.3215 18.1721 42.3215 18.1721 42.5251 18.3757C42.7073 19.4901 42.7564 20.6024 42.7507 21.7298C42.7505 21.8041 42.7504 21.8783 42.7502 21.9548C42.7456 23.0905 42.7035 24.1973 42.4275 25.3035C42.4113 25.3698 42.395 25.4361 42.3784 25.5044C41.8539 27.5596 40.7802 29.4556 38.9287 30.582C36.9436 31.7377 34.8261 32.1533 32.5479 32.1521C32.4837 32.1522 32.4194 32.1524 32.3533 32.1524C31.2457 32.1523 30.1576 32.0834 29.0596 31.9388C28.5818 28.505 28.4843 24.4977 30.6208 21.5713C30.7177 21.4487 30.8153 21.3267 30.9135 21.2053C30.955 21.1497 30.9965 21.0939 31.0393 21.0364C32.4063 19.2898 34.6747 18.6194 36.7681 18.2781C36.9189 18.2524 36.9189 18.2524 37.0728 18.2263C37.5205 18.1721 37.9577 18.1665 38.4082 18.1676Z" fill="#1E2E3B"/>
<path d="M9.86766 18.1578C9.96266 18.1572 10.0578 18.1567 10.1557 18.1561C10.3562 18.1552 10.5567 18.1546 10.7572 18.1541C11.0593 18.1532 11.3614 18.1502 11.6635 18.1471C12.7543 18.1414 13.7544 18.1977 14.8131 18.4704C14.9082 18.4921 15.0033 18.5139 15.1013 18.5363C16.9826 18.9712 18.9262 20.0448 19.9847 21.6904C21.2536 23.736 21.664 25.8194 21.6618 28.2036C21.6619 28.3173 21.6619 28.3173 21.662 28.4332C21.6618 29.6105 21.6108 30.7683 21.4483 31.9359C17.9492 32.424 14.131 32.3355 11.1202 30.2828C9.28078 28.8756 8.32977 26.8744 7.98283 24.6177C7.96618 24.5127 7.94953 24.4078 7.93237 24.2997C7.7993 23.3972 7.75637 22.5174 7.76328 21.605C7.76349 21.5374 7.76369 21.4697 7.7639 21.4C7.77393 18.5817 7.77393 18.5817 8.08041 18.2752C8.67735 18.1792 9.26391 18.1606 9.86766 18.1578Z" fill="#3C5D75"/>
<path d="M19.887 37.4981C23.4289 37.4981 26.971 37.4981 30.6203 37.4981C30.6203 38.9842 30.1087 40.2478 29.0896 41.3341C27.9026 42.4478 26.459 42.9531 24.8344 42.9021C23.2476 42.7381 21.9885 41.9833 20.9595 40.7821C20.2167 39.7917 19.887 38.7227 19.887 37.4981Z" fill="#1E2E3B"/>
<path d="M19.887 37.4981C21.6579 37.4981 23.4289 37.4981 25.2536 37.4981C25.2536 39.2691 25.2536 41.0401 25.2536 42.8648C23.6886 42.8648 22.5081 42.3048 21.3818 41.2456C20.3709 40.1972 19.887 38.9429 19.887 37.4981Z" fill="#3C5D75"/>
</svg>
