<svg width="50" height="50" viewBox="0 0 50 50" fill="none" xmlns="http://www.w3.org/2000/svg">
<path d="M24.972 2.00036C25.1022 2.00061 25.1022 2.00061 25.235 2.00086C26.5212 2.00494 27.7726 2.0506 29.038 2.2976C29.1587 2.31927 29.1587 2.31927 29.2819 2.34138C31.3833 2.72163 33.4051 3.41919 35.3193 4.36146C35.3832 4.39239 35.4471 4.42332 35.513 4.45518C40.775 7.02227 44.8207 11.8534 46.7626 17.3372C47.0853 18.2811 47.3504 19.2301 47.5622 20.2049C47.5938 20.3502 47.5938 20.3502 47.6261 20.4985C47.929 21.9832 48.0058 23.4545 47.9997 24.9664C47.9995 25.0531 47.9993 25.1398 47.9991 25.2292C47.9864 28.7711 47.196 32.1306 45.6386 35.3193C45.6104 35.3778 45.5823 35.4363 45.5533 35.4966C44.5662 37.5262 43.1634 39.3546 41.6006 40.9725C41.5469 41.0282 41.4931 41.0839 41.4377 41.1413C40.75 41.8503 40.0554 42.5273 39.2675 43.1261C39.2191 43.1634 39.1706 43.2008 39.1206 43.2394C38.2237 43.9288 37.2852 44.5338 36.3064 45.1002C36.2456 45.1356 36.1848 45.1709 36.1222 45.2074C34.0656 46.3903 31.7707 47.1625 29.453 47.6407C29.3892 47.654 29.3255 47.6672 29.2598 47.6808C27.8561 47.9487 26.4531 48.0053 25.0281 47.9997C24.9413 47.9995 24.8544 47.9993 24.765 47.9992C23.4789 47.9951 22.2275 47.9494 20.962 47.7024C20.8815 47.688 20.8011 47.6735 20.7181 47.6587C15.3512 46.6875 10.1903 43.6314 6.87398 39.2675C6.83659 39.2191 6.7992 39.1706 6.76068 39.1206C6.07123 38.2237 5.46621 37.2852 4.89986 36.3064C4.86448 36.2456 4.8291 36.1848 4.79264 36.1222C3.60976 34.0656 2.83756 31.7707 2.3593 29.453C2.34607 29.3892 2.33284 29.3255 2.31921 29.2598C2.05132 27.8561 1.99477 26.4531 2.00036 25.0281C2.00053 24.9413 2.00069 24.8544 2.00086 24.765C2.00494 23.4789 2.0506 22.2275 2.2976 20.962C2.31927 20.8413 2.31927 20.8413 2.34138 20.7181C3.31252 15.3512 6.36862 10.1903 10.7325 6.87398C10.781 6.83659 10.8295 6.7992 10.8794 6.76068C11.7763 6.07123 12.7149 5.46621 13.6937 4.89986C13.7544 4.86448 13.8152 4.8291 13.8778 4.79264C15.9344 3.60976 18.2293 2.83756 20.547 2.3593C20.6108 2.34607 20.6746 2.33284 20.7403 2.31921C22.1439 2.05132 23.5469 1.99477 24.972 2.00036Z" fill="#46AACC"/>
<path d="M25.0168 5.41677C25.0769 5.4163 25.1371 5.41584 25.1991 5.41536C26.1333 5.40968 27.1544 5.40959 28.0509 5.7084C27.9238 6.05901 27.7563 6.37617 27.5776 6.70212C26.2434 9.14909 25.189 11.9978 25.0634 14.8058C25.0129 15.8676 24.8068 16.4368 24.0747 17.2094C23.7881 17.5201 23.5276 17.8531 23.2614 18.1813C22.9152 18.6013 22.5669 19.0196 22.2182 19.4375C21.8531 19.1693 21.5817 18.8649 21.3097 18.5065C21.2223 18.3934 21.1349 18.2803 21.0475 18.1672C21.0034 18.1098 20.9592 18.0523 20.9138 17.993C20.7109 17.7292 20.5057 17.4672 20.3002 17.2054C20.2604 17.1547 20.2206 17.1039 20.1795 17.0516C19.7128 16.4583 19.237 15.8723 18.7585 15.2885C18.673 15.1841 18.5878 15.0796 18.503 14.9747C18.1698 14.5664 17.9261 14.3544 17.387 14.2944C16.9737 14.2785 16.6546 14.2832 16.2734 14.4517C15.6309 15.0504 15.1033 15.7433 14.5654 16.4343C14.2934 16.783 14.0137 17.125 13.7329 17.4666C12.77 18.6378 11.8179 19.8172 10.9007 21.0247C10.8357 21.1102 10.7707 21.1956 10.7037 21.2837C10.4394 21.6653 10.4092 22.0368 10.4632 22.4884C10.581 22.9391 10.7565 23.2908 11.1362 23.5708C11.6074 23.8249 12.0966 23.8213 12.6168 23.7447C13.4023 23.3973 13.9422 22.4977 14.4573 21.8349C14.7934 21.4033 15.1392 20.9804 15.4883 20.5592C16.0384 19.8951 16.5746 19.2213 17.1035 18.5402C17.437 18.8611 17.7295 19.1996 18.012 19.5665C18.0994 19.6788 18.1868 19.7911 18.2742 19.9034C18.3183 19.9603 18.3625 20.0172 18.4079 20.0759C19.1143 20.9867 19.8325 21.8876 20.5632 22.779C20.6487 22.8833 20.7338 22.9879 20.8185 23.0928C21.1418 23.4894 21.3874 23.7043 21.9084 23.7763C22.4145 23.8028 22.7943 23.7576 23.2092 23.4576C23.5827 23.1139 23.8835 22.7102 24.1924 22.309C24.3388 22.1229 24.4869 21.9382 24.6354 21.7538C24.701 21.6711 24.7666 21.5883 24.8342 21.5031C24.8889 21.4433 24.9436 21.3835 25 21.3219C25.0592 21.3219 25.1184 21.3219 25.1794 21.3219C25.1997 21.4193 25.1997 21.4193 25.2203 21.5187C25.5741 23.2215 25.5741 23.2215 26.0999 24.8768C26.2579 25.306 26.2579 25.306 26.2503 25.5516C26.1255 25.8007 25.9564 25.991 25.7739 26.2011C25.6912 26.2976 25.6088 26.3943 25.5264 26.491C25.4624 26.5662 25.4624 26.5662 25.397 26.6429C25.191 26.8889 24.9947 27.1422 24.7981 27.3957C24.3668 27.9494 23.9233 28.4924 23.475 29.0323C23.2448 29.3099 23.0157 29.5876 22.7959 29.8735C22.733 29.9553 22.67 30.0371 22.6052 30.1213C22.527 30.2256 22.527 30.2256 22.4471 30.332C22.4012 30.3791 22.3553 30.4262 22.308 30.4747C22.2191 30.4747 22.1303 30.4747 22.0388 30.4747C21.8754 30.3086 21.7305 30.1448 21.5845 29.9643C21.519 29.8851 21.519 29.8851 21.4521 29.8042C21.1278 29.4093 20.8149 29.0061 20.506 28.5991C20.1487 28.1295 19.7765 27.6727 19.4027 27.2162C19.1387 26.8933 18.8803 26.5678 18.6289 26.2348C18.3484 25.8709 18.0859 25.5976 17.6419 25.4496C17.1613 25.4073 16.7194 25.3814 16.2734 25.5786C15.6933 26.1192 15.2101 26.7347 14.7246 27.3594C14.3884 27.791 14.0427 28.214 13.6936 28.6351C13.273 29.1429 12.86 29.6553 12.4554 30.176C12.0619 30.6802 11.6535 31.1719 11.2423 31.6617C10.7469 32.2565 10.4227 32.7123 10.439 33.5119C10.4924 33.9377 10.6639 34.2692 10.9711 34.5677C11.3878 34.8714 11.778 34.9428 12.2887 34.9126C13.1849 34.7584 13.7012 33.9273 14.232 33.2564C14.2951 33.1769 14.2951 33.1769 14.3595 33.0957C14.5688 32.8312 14.7769 32.5656 14.9842 32.2995C15.2557 31.9519 15.5358 31.6118 15.8171 31.2721C15.9771 31.0743 16.1329 30.8752 16.2868 30.6727C16.3311 30.6148 16.3755 30.5568 16.4212 30.4971C16.5082 30.383 16.5946 30.2684 16.6802 30.1532C16.7852 30.0161 16.8989 29.8858 17.0137 29.7568C17.1026 29.7568 17.1914 29.7568 17.2829 29.7568C17.4645 29.9615 17.4645 29.9615 17.6755 30.2503C17.7555 30.358 17.8356 30.4655 17.916 30.5728C17.9586 30.63 18.0013 30.6871 18.0452 30.746C18.2771 31.0505 18.5206 31.3454 18.7635 31.6412C19.1204 32.0772 19.4711 32.5164 19.8123 32.9648C20.1098 33.3527 20.4082 33.7396 20.7152 34.1201C20.7841 34.2064 20.8531 34.2926 20.9241 34.3816C21.2831 34.7463 21.6458 34.9107 22.1565 34.9221C22.7262 34.8998 23.0656 34.7253 23.4745 34.3332C23.7745 33.9853 24.0506 33.6233 24.3256 33.2556C24.5633 32.9431 24.8129 32.6403 25.0616 32.3366C25.1606 32.2153 25.2596 32.0939 25.3585 31.9724C25.4049 31.9155 25.4513 31.8586 25.499 31.8C25.6704 31.5891 25.8401 31.377 26.0094 31.1645C26.3864 30.6917 26.7698 30.2241 27.1535 29.7568C27.5342 29.8951 27.7267 30.1789 27.9611 30.4915C28.0489 30.6059 28.1368 30.7203 28.2247 30.8347C28.2926 30.9234 28.2926 30.9234 28.3618 31.0139C28.5832 31.301 28.8106 31.5831 29.0379 31.8655C29.3491 32.2528 29.6575 32.6419 29.962 33.0344C30.2983 33.4667 30.6386 33.8951 30.9952 34.3107C31.055 34.3806 31.1148 34.4505 31.1764 34.5225C31.5416 34.8409 31.9167 34.8842 32.3861 34.8828C32.9012 34.9242 33.1111 35.1036 33.4688 35.4601C34.9229 36.8144 36.9954 37.8887 38.8188 38.6404C38.8188 38.9096 38.8188 38.9096 38.6933 39.0449C38.6348 39.0927 38.5763 39.1406 38.516 39.19C38.2359 39.4233 37.9677 39.6631 37.7028 39.9134C36.6403 40.8686 35.4062 41.641 34.1527 42.3194C34.0902 42.3533 34.0276 42.3871 33.9632 42.422C32.0507 43.4351 29.9212 44.0898 27.7817 44.3833C27.6808 44.3988 27.58 44.4144 27.4761 44.4305C26.6532 44.5521 25.8478 44.5919 25.0168 44.5852C24.9541 44.5849 24.8914 44.5845 24.8268 44.5842C23.8585 44.5787 22.9041 44.5533 21.949 44.3833C21.8726 44.3697 21.7961 44.3562 21.7173 44.3423C17.5561 43.5774 13.9742 41.6178 11.0016 38.6404C10.9403 38.5822 10.879 38.524 10.8159 38.464C10.2127 37.885 9.70773 37.2435 9.20697 36.5765C9.15064 36.5018 9.09431 36.4271 9.03627 36.3501C7.21681 33.8413 6.03798 30.8469 5.61766 27.7827C5.60207 27.6818 5.58648 27.581 5.57042 27.4771C5.44886 26.6542 5.40902 25.8488 5.41576 25.0178C5.41607 24.9551 5.41637 24.8924 5.41669 24.8278C5.42225 23.8595 5.44759 22.9052 5.61766 21.95C5.63794 21.8353 5.63794 21.8353 5.65862 21.7183C6.42355 17.5571 8.38315 13.9752 11.3606 11.0026C11.4187 10.9413 11.4769 10.88 11.5369 10.8169C12.116 10.2137 12.7574 9.70874 13.4244 9.20798C13.4991 9.15165 13.5739 9.09532 13.6508 9.03728C16.0624 7.28828 18.9918 6.03591 21.949 5.61867C22.0538 5.60213 22.1586 5.58558 22.2666 5.56854C23.1809 5.4376 24.0948 5.42 25.0168 5.41677Z" fill="#4297C6"/>
<path d="M24.972 2.00036C25.1022 2.00061 25.1022 2.00061 25.235 2.00086C26.5212 2.00494 27.7726 2.0506 29.038 2.2976C29.1587 2.31927 29.1587 2.31927 29.2819 2.34138C31.3833 2.72163 33.4051 3.41919 35.3193 4.36146C35.3832 4.39239 35.4471 4.42332 35.513 4.45518C40.775 7.02227 44.8207 11.8534 46.7626 17.3372C47.0853 18.2811 47.3504 19.2301 47.5622 20.2049C47.5938 20.3502 47.5938 20.3502 47.6261 20.4985C47.929 21.9832 48.0058 23.4545 47.9997 24.9664C47.9995 25.0531 47.9993 25.1398 47.9991 25.2292C47.9864 28.7711 47.196 32.1306 45.6386 35.3193C45.6104 35.3778 45.5823 35.4363 45.5533 35.4966C44.5662 37.5262 43.1634 39.3546 41.6006 40.9725C41.5469 41.0282 41.4931 41.0839 41.4377 41.1413C40.75 41.8503 40.0554 42.5273 39.2675 43.1261C39.2191 43.1634 39.1706 43.2008 39.1206 43.2394C38.2237 43.9288 37.2852 44.5338 36.3064 45.1002C36.2456 45.1356 36.1848 45.1709 36.1222 45.2074C34.0656 46.3903 31.7707 47.1625 29.453 47.6407C29.3892 47.654 29.3255 47.6672 29.2598 47.6808C27.8561 47.9487 26.4531 48.0053 25.0281 47.9997C24.9413 47.9995 24.8544 47.9993 24.765 47.9992C23.4789 47.9951 22.2275 47.9494 20.962 47.7024C20.8815 47.688 20.8011 47.6735 20.7181 47.6587C15.3512 46.6875 10.1903 43.6314 6.87398 39.2675C6.83659 39.2191 6.7992 39.1706 6.76068 39.1206C6.07123 38.2237 5.46621 37.2852 4.89986 36.3064C4.86448 36.2456 4.8291 36.1848 4.79264 36.1222C3.60976 34.0656 2.83756 31.7707 2.3593 29.453C2.34607 29.3892 2.33284 29.3255 2.31921 29.2598C2.05132 27.8561 1.99477 26.4531 2.00036 25.0281C2.00053 24.9413 2.00069 24.8544 2.00086 24.765C2.00494 23.4789 2.0506 22.2275 2.2976 20.962C2.31927 20.8413 2.31927 20.8413 2.34138 20.7181C3.31252 15.3512 6.36862 10.1903 10.7325 6.87398C10.781 6.83659 10.8295 6.7992 10.8794 6.76068C11.7763 6.07123 12.7149 5.46621 13.6937 4.89986C13.7544 4.86448 13.8152 4.8291 13.8778 4.79264C15.9344 3.60976 18.2293 2.83756 20.547 2.3593C20.6108 2.34607 20.6746 2.33284 20.7403 2.31921C22.1439 2.05132 23.5469 1.99477 24.972 2.00036ZM21.9491 5.61772C21.8726 5.63124 21.7962 5.64476 21.7174 5.65869C17.9547 6.35037 14.4684 8.02822 11.6989 10.6792C11.4504 10.912 11.4504 10.912 11.211 11.103C11.0245 11.2526 10.8756 11.3979 10.7213 11.5793C10.6681 11.6418 10.6149 11.7043 10.56 11.7686C10.4985 11.8413 10.437 11.9139 10.3736 11.9888C10.2972 12.0762 10.2209 12.1636 10.1422 12.2537C7.80164 14.9478 6.11865 18.3988 5.61772 21.9491C5.60118 22.0539 5.58464 22.1587 5.5676 22.2667C5.00376 26.1848 5.70775 30.2747 7.50211 33.7938C7.5369 33.8623 7.57169 33.9308 7.60753 34.0013C8.37391 35.4877 9.32753 36.8138 10.4381 38.0608C10.5916 38.2343 10.74 38.412 10.8895 38.5889C11.1421 38.8762 11.4155 39.1261 11.7076 39.3727C11.838 39.4845 11.9656 39.5996 12.0904 39.7176C14.7039 42.1805 18.4002 43.8816 21.9491 44.3823C22.1063 44.4071 22.1063 44.4071 22.2667 44.4324C26.1099 44.9855 30.1472 44.3229 33.6144 42.5877C33.7092 42.5412 33.7092 42.5412 33.806 42.4938C35.7733 41.5253 37.456 40.1893 38.9983 38.6394C39.0596 38.5812 39.121 38.523 39.1841 38.4631C42.47 35.3084 44.4298 30.4666 44.5716 25.9418C44.577 25.5942 44.5792 25.2467 44.5786 24.8991C44.5785 24.8374 44.5784 24.7758 44.5783 24.7123C44.5756 23.7786 44.5524 22.8691 44.3823 21.9491C44.3688 21.8739 44.3553 21.7987 44.3413 21.7212C43.5704 17.557 41.6208 13.9782 38.6394 11.0017C38.5812 10.9404 38.523 10.8791 38.4631 10.8159C35.237 7.45563 30.3085 5.51854 25.6933 5.40986C24.4427 5.38866 23.1832 5.39797 21.9491 5.61772Z" fill="#75B7E4"/>
<path d="M28.41 14.5913C28.583 14.7667 28.7345 14.933 28.8867 15.124C28.9288 15.1752 28.9709 15.2265 29.0142 15.2792C29.332 15.6688 29.6393 16.0667 29.9431 16.4673C30.2971 16.933 30.6679 17.3843 31.0392 17.8363C31.395 18.272 31.7267 18.7178 32.0453 19.1816C32.0893 19.2362 32.1334 19.2908 32.1788 19.3471C32.238 19.3471 32.2973 19.3471 32.3583 19.3471C32.5075 19.1727 32.6465 18.9973 32.7845 18.8143C33.1715 18.3108 33.5677 17.8167 33.9735 17.3281C34.3642 16.8569 34.7479 16.3816 35.1232 15.898C36.4283 14.2319 36.4283 14.2319 37.1141 14.1426C37.6588 14.124 38.0361 14.2347 38.4601 14.5913C38.8406 14.9944 39.0133 15.2619 39.0265 15.8195C39.0299 15.9105 39.0333 16.0015 39.0367 16.0953C38.9486 16.7651 38.4556 17.2612 38.0339 17.7599C37.9204 17.8959 37.8069 18.0319 37.6935 18.1679C37.6395 18.2326 37.5854 18.2972 37.5297 18.3637C37.3566 18.5716 37.187 18.782 37.0188 18.9938C36.7094 19.383 36.3961 19.769 36.0822 20.1547C35.7667 20.5424 35.4516 20.9304 35.14 21.3212C34.8212 21.7202 34.5017 22.1184 34.181 22.5158C34.1319 22.577 34.0828 22.6383 34.0322 22.7014C33.1544 23.7866 33.1544 23.7866 32.5616 23.867C32.0444 23.8784 31.6214 23.8758 31.1953 23.5628C30.8045 23.1833 30.4875 22.7419 30.1614 22.3074C29.9289 22.0026 29.6851 21.7073 29.442 21.4109C28.7211 20.5276 28.0115 19.6356 27.3332 18.719C26.9702 18.84 26.8263 19.0859 26.6042 19.3807C26.515 19.4967 26.4257 19.6126 26.3364 19.7285C26.2922 19.7859 26.2481 19.8434 26.2026 19.9027C26.0338 20.1208 25.8597 20.3343 25.6844 20.5473C25.4012 20.8913 25.1192 21.2363 24.8384 21.5823C24.7373 21.7069 24.636 21.8314 24.5345 21.9557C24.3105 22.2305 24.0876 22.5058 23.8708 22.7864C23.1026 23.7669 23.1026 23.7669 22.434 23.8695C21.9403 23.898 21.5533 23.8507 21.149 23.5575C20.7109 23.1531 20.3445 22.6848 19.9751 22.2185C19.934 22.167 19.8929 22.1154 19.8506 22.0622C19.6025 21.7503 19.3568 21.4366 19.1123 21.1219C18.7439 20.6483 18.3731 20.1767 18.001 19.706C17.9618 19.6562 17.9226 19.6065 17.8822 19.5552C17.771 19.4143 17.6589 19.2741 17.5467 19.134C17.4828 19.0537 17.4188 18.9734 17.3529 18.8907C17.3003 18.834 17.2476 18.7774 17.1934 18.719C17.1342 18.719 17.075 18.719 17.014 18.719C16.8628 18.8952 16.7219 19.0723 16.5821 19.2574C16.4926 19.3736 16.403 19.4897 16.3133 19.6058C16.2663 19.6666 16.2194 19.7275 16.171 19.7902C15.9367 20.091 15.6959 20.3865 15.4549 20.6819C15.4065 20.7412 15.3582 20.8004 15.3084 20.8615C15.2094 20.9828 15.1104 21.1041 15.0114 21.2254C14.8569 21.4152 14.7029 21.6054 14.5491 21.7958C13.7027 22.843 13.7027 22.843 13.3349 23.2785C13.2923 23.3291 13.2498 23.3796 13.2059 23.4317C12.8666 23.7532 12.5664 23.875 12.1011 23.8842C11.524 23.8672 11.1365 23.7111 10.7327 23.2953C10.4031 22.8104 10.3076 22.3465 10.3737 21.7699C10.569 21.3005 10.8582 20.9438 11.1813 20.5585C11.2866 20.4311 11.3917 20.3036 11.4968 20.1761C11.5494 20.1124 11.6019 20.0487 11.6561 19.9832C11.8835 19.7053 12.1047 19.4228 12.3254 19.1396C12.6732 18.6945 13.0266 18.2548 13.3854 17.8185C13.6498 17.4968 13.9132 17.1743 14.1762 16.8514C14.2257 16.7906 14.2753 16.7299 14.3264 16.6673C14.5688 16.3691 14.8086 16.0693 15.0426 15.7644C16.0032 14.5134 16.0032 14.5134 16.5653 14.2323C17.1108 14.1818 17.6588 14.1391 18.1244 14.4626C18.7876 15.0477 19.3077 15.7954 19.8482 16.4916C20.0506 16.7523 20.2538 17.0123 20.4575 17.272C20.497 17.3224 20.5365 17.3728 20.5772 17.4248C21.0863 18.072 21.6078 18.7094 22.1287 19.3471C22.4494 19.0339 22.7488 18.709 23.0373 18.3656C23.0799 18.3151 23.1226 18.2645 23.1665 18.2124C23.509 17.8036 23.8397 17.3864 24.1674 16.9657C24.4962 16.5441 24.831 16.1277 25.1684 15.7129C25.2165 15.6538 25.2645 15.5947 25.314 15.5339C25.4054 15.4218 25.4969 15.3098 25.5886 15.1981C25.6739 15.0939 25.7585 14.9893 25.8424 14.884C26.549 14.0083 27.5137 13.959 28.41 14.5913Z" fill="#75B7E4"/>
<path d="M27.9614 25.3982C28.4166 25.6537 28.7161 26.0326 29.0382 26.4358C29.0751 26.4819 29.112 26.528 29.15 26.5755C29.4019 26.8912 29.6506 27.2094 29.8983 27.5285C30.1007 27.7892 30.304 28.0492 30.5075 28.3089C30.5471 28.3595 30.5866 28.41 30.6273 28.4621C30.8593 28.7577 31.0949 29.05 31.3337 29.3402C31.3875 29.4056 31.4413 29.4711 31.4967 29.5386C31.6022 29.6666 31.708 29.7943 31.8142 29.9216C31.8856 30.0082 31.8856 30.0082 31.9583 30.0966C32.0009 30.1478 32.0435 30.199 32.0874 30.2518C32.1788 30.384 32.1788 30.384 32.1788 30.5635C32.5498 30.2076 32.8726 29.8258 33.1939 29.425C33.2457 29.3608 33.2974 29.2967 33.3508 29.2306C33.6744 28.8293 33.9964 28.4265 34.318 28.0236C34.7256 27.5151 35.1358 27.0088 35.5489 26.5049C35.6563 26.3732 35.7622 26.2402 35.8677 26.107C36.2774 25.6052 36.6818 25.3263 37.3272 25.2188C37.9206 25.3108 38.4665 25.5425 38.8303 26.0376C39.0739 26.4979 39.1057 27.008 38.9985 27.5125C38.7405 28.0298 38.3686 28.4731 38.0002 28.9146C37.896 29.0411 37.7919 29.1676 37.6879 29.2942C37.6364 29.3569 37.5849 29.4195 37.5318 29.484C37.3157 29.7491 37.1054 30.0186 36.8954 30.2887C36.4755 30.8273 36.0424 31.3544 35.6065 31.8801C35.3156 32.2317 35.0299 32.5862 34.7508 32.9473C34.3908 33.4131 34.0224 33.8695 33.6314 34.3098C33.5549 34.3963 33.4784 34.4829 33.3997 34.572C33.0098 34.9204 32.6081 34.9998 32.0898 34.9821C31.1892 34.8735 30.7015 34.1357 30.1823 33.4742C30.0527 33.3075 29.9236 33.1404 29.7947 32.9731C29.5924 32.711 29.3884 32.4503 29.184 32.1899C29.1443 32.1393 29.1047 32.0887 29.0639 32.0366C28.6796 31.5478 28.2872 31.0658 27.8931 30.5851C27.8461 30.5276 27.7991 30.4702 27.7507 30.411C27.7091 30.3602 27.6674 30.3095 27.6245 30.2572C27.5207 30.125 27.4265 29.9855 27.3332 29.8456C27.022 29.975 26.8688 30.1285 26.6659 30.3952C26.5725 30.5156 26.5725 30.5156 26.4773 30.6385C26.4425 30.6834 26.4078 30.7284 26.372 30.7747C26.1492 31.0594 25.9188 31.338 25.69 31.6178C25.3119 32.0819 24.9376 32.5487 24.5683 33.0199C24.5278 33.0713 24.4873 33.1228 24.4456 33.1758C24.2635 33.4075 24.0837 33.6401 23.9073 33.8762C23.4984 34.4148 23.1218 34.8874 22.4246 34.9993C21.8778 35.0239 21.4987 34.9293 21.0519 34.6014C20.8611 34.4218 20.6956 34.227 20.5304 34.0238C20.461 33.9407 20.461 33.9407 20.3901 33.8558C20.0582 33.4553 19.7385 33.0459 19.4246 32.6311C19.1202 32.2294 18.803 31.8392 18.4833 31.4496C18.0321 30.8989 17.6024 30.339 17.1934 29.7559C16.9056 30.0372 16.6384 30.3231 16.3858 30.6364C16.3162 30.7224 16.2466 30.8085 16.1748 30.8972C16.118 30.9676 16.118 30.9676 16.0601 31.0395C15.9274 31.2037 15.7939 31.3674 15.6603 31.5309C15.2268 32.0619 14.7948 32.5937 14.3737 33.1347C13.0082 34.8882 13.0082 34.8882 12.303 34.994C11.7349 35.0319 11.3554 34.9332 10.9016 34.5867C10.5379 34.2321 10.36 33.8472 10.3345 33.3396C10.4048 32.7064 10.6777 32.2705 11.0748 31.7861C11.1174 31.7329 11.16 31.6798 11.2039 31.625C11.6046 31.1274 12.0126 30.6357 12.42 30.1436C12.7883 29.698 13.1483 29.2467 13.5038 28.7908C13.9625 28.2036 14.4339 27.6268 14.9054 27.0499C15.0293 26.8973 15.1521 26.7439 15.2743 26.59C16.0546 25.6143 16.0546 25.6143 16.5653 25.359C16.7369 25.3456 16.9091 25.3391 17.0813 25.3365C17.1733 25.3342 17.2654 25.3319 17.3603 25.3295C18.134 25.4104 18.523 25.9636 18.9881 26.5255C19.2344 26.8305 19.4758 27.1393 19.7161 27.4491C20.0223 27.8436 20.3348 28.2329 20.6481 28.6217C20.8791 28.9091 21.1068 29.1983 21.3299 29.4919C21.3746 29.5503 21.4193 29.6088 21.4654 29.6689C21.5507 29.7807 21.6353 29.893 21.7192 30.0058C21.8196 30.1368 21.9287 30.2612 22.039 30.384C22.3047 30.4144 22.3047 30.4144 22.4384 30.2639C22.5058 30.18 22.5058 30.18 22.5746 30.0945C22.6253 30.0321 22.6761 29.9698 22.7283 29.9055C22.8091 29.8037 22.8091 29.8037 22.8915 29.6998C22.9476 29.6303 23.0037 29.5609 23.0614 29.4893C23.4387 29.0208 23.8111 28.5485 24.1811 28.0742C24.5054 27.6587 24.8359 27.2485 25.1684 26.8395C25.2165 26.7804 25.2646 26.7213 25.3141 26.6604C25.4055 26.5483 25.4971 26.4363 25.5889 26.3245C25.6734 26.2211 25.7572 26.1171 25.84 26.0125C26.3933 25.3224 27.1229 25.0428 27.9614 25.3982Z" fill="#75B7E4"/>
<path d="M22.308 5.70824C22.0647 6.03668 21.7192 6.07416 21.3433 6.16252C18.6082 6.86659 16.0554 8.41622 13.9628 10.2846C13.886 10.3506 13.8092 10.4165 13.7301 10.4844C11.7759 12.185 10.3337 14.3246 9.21258 16.6444C9.17341 16.7254 9.13424 16.8063 9.09389 16.8897C8.57745 17.9888 8.23623 19.1133 7.97314 20.2954C7.94576 20.4156 7.9183 20.5358 7.89077 20.6559C7.81988 20.9674 7.74965 21.2789 7.68151 21.591C7.66503 21.6659 7.64855 21.7408 7.63156 21.818C7.45493 22.8021 7.48275 23.8336 7.48049 24.8305C7.47962 25.0606 7.47683 25.2907 7.47401 25.5208C7.44511 30.0744 9.41568 34.5175 12.4122 37.8821C12.5656 38.0556 12.7141 38.2333 12.8636 38.4103C13.1099 38.6895 13.3728 38.9354 13.6572 39.1754C13.824 39.3166 13.9877 39.4596 14.1507 39.6052C14.8835 40.2549 15.6411 40.8195 16.4753 41.3322C16.5785 41.396 16.5785 41.396 16.6838 41.4612C19.3818 43.1129 22.2643 44.0085 25.4038 44.2653C25.5399 44.277 25.676 44.2887 25.8121 44.3006C26.1395 44.3288 26.4671 44.3562 26.7946 44.3831C26.4724 44.5839 26.2043 44.5857 25.8293 44.5864C25.7704 44.5867 25.7116 44.5869 25.651 44.5872C25.4601 44.5876 25.2693 44.5864 25.0785 44.585C25.0133 44.5847 24.9481 44.5844 24.881 44.5841C23.8946 44.5786 22.9222 44.5564 21.949 44.3831C21.8726 44.3696 21.7961 44.3561 21.7173 44.3421C17.5561 43.5772 13.9742 41.6176 11.0016 38.6402C10.9403 38.582 10.879 38.5238 10.8159 38.4639C10.2127 37.8848 9.70773 37.2434 9.20697 36.5763C9.15064 36.5016 9.09431 36.4269 9.03627 36.3499C7.21681 33.8412 6.03798 30.8467 5.61766 27.7825C5.60207 27.6817 5.58648 27.5808 5.57042 27.4769C5.44886 26.654 5.40902 25.8487 5.41576 25.0176C5.41607 24.9549 5.41637 24.8922 5.41669 24.8276C5.42225 23.8594 5.44759 22.905 5.61766 21.9499C5.63794 21.8352 5.63794 21.8352 5.65862 21.7182C6.42355 17.557 8.38315 13.975 11.3606 11.0025C11.4187 10.9412 11.4769 10.8799 11.5369 10.8167C12.116 10.2135 12.7574 9.70859 13.4244 9.20783C13.4991 9.15149 13.5739 9.09516 13.6509 9.03712C16.0205 7.31853 19.3123 5.65569 22.308 5.70824Z" fill="#3085AA"/>
<path d="M28.4098 14.5913C28.5827 14.7667 28.7342 14.933 28.8865 15.124C28.9285 15.1752 28.9706 15.2265 29.0139 15.2792C29.3317 15.6688 29.639 16.0667 29.9428 16.4673C30.2968 16.933 30.6676 17.3843 31.0389 17.8363C31.3947 18.272 31.7264 18.7178 32.045 19.1816C32.1111 19.2635 32.1111 19.2635 32.1785 19.3471C32.2378 19.3471 32.297 19.3471 32.358 19.3471C32.5072 19.1727 32.6463 18.9973 32.7842 18.8143C33.1712 18.3108 33.5674 17.8167 33.9732 17.3281C34.364 16.8569 34.7476 16.3816 35.1229 15.898C36.428 14.2319 36.428 14.2319 37.1138 14.1426C37.6585 14.124 38.0359 14.2347 38.4598 14.5913C38.8403 14.9944 39.013 15.2619 39.0263 15.8195C39.0313 15.956 39.0313 15.956 39.0364 16.0953C38.9484 16.7651 38.4553 17.2612 38.0336 17.7599C37.9201 17.8959 37.8067 18.0319 37.6932 18.1679C37.6392 18.2326 37.5851 18.2972 37.5294 18.3637C37.3563 18.5716 37.1867 18.782 37.0185 18.9938C36.7091 19.383 36.3958 19.769 36.0819 20.1547C35.7664 20.5424 35.4513 20.9304 35.1397 21.3212C34.821 21.7202 34.5014 22.1184 34.1807 22.5158C34.1316 22.577 34.0825 22.6383 34.0319 22.7014C33.1541 23.7866 33.1541 23.7866 32.5613 23.867C32.0441 23.8784 31.6211 23.8758 31.195 23.5628C30.8043 23.1833 30.4872 22.7419 30.1612 22.3074C29.9287 22.0026 29.6848 21.7073 29.4417 21.4109C28.7208 20.5276 28.0113 19.6356 27.333 18.719C26.9699 18.84 26.826 19.0859 26.6039 19.3807C26.516 19.495 26.428 19.6091 26.3399 19.7232C26.296 19.7805 26.252 19.8377 26.2067 19.8968C26.0153 20.1444 25.8196 20.3882 25.6224 20.6314C25.5265 20.7502 25.5265 20.7502 25.4286 20.8715C25.2691 21.052 25.2691 21.052 25.0896 21.1418C25.061 20.9848 25.0331 20.8278 25.0055 20.6707C24.9899 20.5832 24.9743 20.4958 24.9582 20.4057C24.8918 19.9343 24.8554 19.4628 24.8204 18.9882C24.8114 18.8789 24.8024 18.7696 24.7932 18.6571C24.6139 16.2214 24.6139 16.2214 25.2393 15.3891C26.1255 14.3876 27.1711 13.7175 28.4098 14.5913Z" fill="#84C7EC"/>
<path d="M27.9613 25.3982C28.4165 25.6537 28.716 26.0326 29.0381 26.4358C29.075 26.4819 29.1119 26.528 29.1499 26.5755C29.4018 26.8912 29.6505 27.2094 29.8982 27.5285C30.1006 27.7892 30.3039 28.0492 30.5074 28.3089C30.547 28.3595 30.5865 28.41 30.6272 28.4621C30.8592 28.7577 31.0948 29.05 31.3336 29.3402C31.3874 29.4056 31.4412 29.4711 31.4967 29.5386C31.6021 29.6666 31.7079 29.7943 31.8141 29.9216C31.8617 29.9794 31.9092 30.0371 31.9582 30.0966C32.0008 30.1478 32.0434 30.199 32.0873 30.2518C32.1787 30.384 32.1787 30.384 32.1787 30.5635C32.5497 30.2076 32.8725 29.8258 33.1938 29.425C33.2456 29.3608 33.2973 29.2967 33.3507 29.2306C33.6743 28.8293 33.9963 28.4265 34.3179 28.0236C34.7255 27.5151 35.1357 27.0088 35.5488 26.5049C35.6562 26.3732 35.7621 26.2402 35.8676 26.107C36.2773 25.6052 36.6817 25.3263 37.3271 25.2188C37.9205 25.3108 38.4664 25.5425 38.8302 26.0376C39.0738 26.4979 39.1056 27.008 38.9984 27.5125C38.7404 28.0298 38.3685 28.4731 38.0001 28.9146C37.8959 29.0411 37.7918 29.1676 37.6878 29.2942C37.6363 29.3569 37.5848 29.4195 37.5317 29.484C37.3156 29.7491 37.1053 30.0186 36.8953 30.2887C36.4754 30.8273 36.0423 31.3544 35.6064 31.8801C35.3155 32.2317 35.0297 32.5862 34.7507 32.9473C34.389 33.4152 34.0187 33.8733 33.6257 34.3154C33.5482 34.403 33.4707 34.4905 33.3908 34.5808C33.1451 34.7993 33.0398 34.8486 32.7171 34.8706C32.5413 34.7664 32.5413 34.7664 32.3747 34.6056C32.313 34.5473 32.2513 34.4889 32.1878 34.4288C32.1256 34.3673 32.0634 34.3059 31.9993 34.2425C31.9402 34.1861 31.8811 34.1297 31.8202 34.0716C31.0817 33.3619 30.3775 32.6352 29.7559 31.8197C29.6695 31.709 29.583 31.5982 29.4965 31.4874C28.1344 29.7256 27.0116 27.725 26.2563 25.6282C26.777 25.2152 27.3482 25.1322 27.9613 25.3982Z" fill="#84C7EC"/>
</svg>
