<svg width="50" height="50" viewBox="0 0 50 50" fill="none" xmlns="http://www.w3.org/2000/svg">
<path d="M8.49073 3.89312C8.89242 4.30698 9.15488 4.68486 9.18043 5.27251C9.08353 5.48537 9.08353 5.48537 8.98512 5.66314C8.93892 5.61605 8.89272 5.56897 8.84512 5.52047C8.38005 5.07625 7.98453 4.78983 7.32496 4.78423C6.74247 4.8783 6.32246 5.09027 5.95777 5.56548C5.69104 6.11164 5.64913 6.77022 5.83303 7.35076C6.14161 8.02039 6.61622 8.32513 7.28109 8.60427C8.62856 9.08996 9.99679 8.95708 11.2861 8.36089C12.3374 7.80586 13.2943 7.07513 14.262 6.38869C19.1557 2.92291 19.1557 2.92291 22.0985 3.36783C23.2984 3.61595 24.0265 4.13956 24.9031 4.97954C24.9977 4.89495 25.0924 4.81035 25.1899 4.72319C26.4775 3.62914 27.802 3.20271 29.4929 3.31939C31.4328 3.62394 32.9547 4.68691 34.5604 5.75521C35.4674 6.35536 36.3854 6.93865 37.3054 7.5186C37.3873 7.57045 37.4693 7.6223 37.5537 7.67572C39.0536 8.61839 40.4206 9.16472 42.2249 8.76983C42.933 8.56872 43.5488 8.25795 43.9461 7.61626C44.2429 6.81485 44.168 6.22966 43.8484 5.46782C43.8162 5.37114 43.7839 5.27446 43.7507 5.17485C43.2312 4.89886 42.6176 4.75548 42.0357 4.82695C41.5885 5.03019 41.2687 5.32319 40.9187 5.66314C40.7234 5.37017 40.7234 5.37017 40.7333 5.16646C40.8851 4.50282 41.1037 4.12739 41.6755 3.74053C42.3326 3.35287 43.0315 3.21701 43.7877 3.36478C44.8013 3.62629 45.531 4.25915 46.0586 5.15158C46.8361 6.61819 46.8343 8.08206 46.3875 9.66704C45.8688 11.2015 44.7147 12.5542 43.2625 13.2803C43.3261 13.7053 43.4807 14.0697 43.6592 14.4568C43.7212 14.594 43.7832 14.7312 43.8451 14.8685C43.8776 14.94 43.91 15.0116 43.9435 15.0853C44.4498 16.2039 44.9361 17.3239 45.3499 18.4805C45.3852 18.5791 45.4206 18.6776 45.4571 18.7791C45.8989 20.0458 45.9212 21.1566 45.3609 22.3959C45.0172 23.0571 44.6239 23.6503 44.1414 24.2178C43.944 23.8724 43.8661 23.5231 43.7752 23.1375C43.5565 22.2685 43.227 21.5306 42.5789 20.8975C42.5961 21.0019 42.6133 21.1062 42.6311 21.2137C42.6957 21.605 42.7598 21.9963 42.8238 22.3876C42.8515 22.5562 42.8792 22.7248 42.9071 22.8934C43.1379 24.2905 43.2826 25.6329 43.2859 27.0499C43.2869 27.2908 43.2899 27.5315 43.293 27.7724C43.3099 30.3083 42.7577 32.9317 41.0164 34.8624C40.9586 34.9292 40.9008 34.996 40.8413 35.0649C40.4466 35.4932 40.0067 35.8159 39.521 36.1319C39.4613 36.1708 39.4016 36.2097 39.3401 36.2498C38.9055 36.5225 38.9055 36.5225 38.575 36.5225C38.6067 36.3686 38.6067 36.3686 38.639 36.2116C38.8759 35.0327 38.8983 34.0999 38.6726 32.9092C38.6633 32.9656 38.6541 33.022 38.6445 33.0801C38.0683 36.5329 36.9126 39.8369 33.9607 41.9668C31.2885 43.7302 31.2885 43.7302 30.0789 43.5538C29.4486 43.0174 29.0914 42.2204 28.7456 41.4843C28.6399 41.2251 28.6399 41.2251 28.5164 41.1124C28.6707 42.0511 28.9863 42.7954 29.43 43.6281C29.5906 43.9444 29.5906 43.9444 29.5906 44.1397C28.8361 44.101 28.2573 43.6245 27.7595 43.0899C27.0535 42.2244 26.7727 41.1891 26.4656 40.1358C26.5212 42.3844 27.1195 44.1235 28.4397 45.9486C28.614 46.1905 28.614 46.1905 28.7117 46.3858C27.6949 46.2413 26.7358 45.3742 26.0914 44.6116C24.9897 43.127 24.3847 41.3667 24.1218 39.5499C24.0396 41.8743 24.4713 44.0679 25.378 46.2057C25.489 46.4834 25.489 46.4834 25.489 46.6788C24.8021 46.4953 24.1806 46.2514 23.5481 45.928C23.4631 45.8849 23.3781 45.8418 23.2905 45.7974C21.8488 45.0545 20.6185 44.07 19.4343 42.9678C19.3632 42.9031 19.2921 42.8384 19.2188 42.7717C17.742 41.3721 16.7703 39.5661 15.8211 37.792C15.8418 37.8782 15.8625 37.9644 15.8838 38.0532C15.9607 38.3744 16.0371 38.6956 16.1131 39.0169C16.1461 39.1557 16.1792 39.2945 16.2126 39.4332C16.2606 39.6331 16.3079 39.8331 16.3551 40.0332C16.3837 40.1534 16.4124 40.2735 16.4419 40.3974C16.4965 40.6797 16.5179 40.924 16.5046 41.21C15.2461 40.7334 14.2432 40.1017 13.282 39.1592C13.2065 39.0872 13.1309 39.0152 13.0531 38.941C11.4346 37.2893 11.0029 34.8858 11.0057 32.6544C11.0236 31.6221 11.1724 30.6078 11.3289 29.5889C11.3499 29.4477 11.3709 29.3064 11.3918 29.1651C11.4344 28.8829 11.4782 28.601 11.5242 28.3194C10.7222 29.5143 10.2744 30.6379 9.96168 32.0303C7.69727 29.9786 6.2799 25.9483 6.06763 22.9456C5.93412 19.7706 6.68203 16.8054 7.52027 13.7686C7.4486 13.7237 7.37694 13.6788 7.3031 13.6326C7.20797 13.5726 7.11284 13.5126 7.01482 13.4508C6.87409 13.3624 6.87409 13.3624 6.73051 13.2721C5.2366 12.2896 4.02196 11.0247 3.51636 9.27642C3.49446 9.2068 3.47256 9.13719 3.44999 9.06546C3.08019 7.71038 3.30133 6.23529 3.96192 5.01044C4.47927 4.17677 5.09866 3.72328 6.0127 3.38652C6.93187 3.20269 7.69955 3.38811 8.49073 3.89312ZM24.9031 10.8389C24.8484 10.8922 24.7938 10.9454 24.7375 11.0003C21.8782 13.6895 17.9305 14.3767 14.1609 14.7452C16.2459 16.9654 20.8432 17.7631 23.7324 17.8823C27.6704 17.9817 32.298 17.2717 35.5476 14.8428C35.5476 14.8106 35.5476 14.7784 35.5476 14.7452C35.4682 14.7364 35.3887 14.7276 35.3069 14.7186C31.8854 14.3323 28.1548 13.6899 25.489 11.3272C25.3713 11.2292 25.2533 11.1315 25.135 11.0342C25.0202 10.9376 25.0202 10.9376 24.9031 10.8389ZM15.6257 37.2061C15.7234 37.4014 15.7234 37.4014 15.7234 37.4014L15.6257 37.2061Z" fill="#707070"/>
<path d="M8.49078 3.89312C8.89248 4.30698 9.15493 4.68486 9.18048 5.27251C9.08359 5.48537 9.08359 5.48537 8.98517 5.66314C8.93897 5.61606 8.89277 5.56897 8.84517 5.52047C8.3801 5.07625 7.98458 4.78983 7.32501 4.78423C6.74253 4.8783 6.32252 5.09027 5.95782 5.56548C5.6911 6.11164 5.64918 6.77022 5.83308 7.35076C6.14166 8.02039 6.61627 8.32513 7.28114 8.60427C8.62862 9.08996 9.99684 8.95708 11.2862 8.36089C12.3375 7.80586 13.2944 7.07513 14.262 6.38869C19.1558 2.92291 19.1558 2.92291 22.0986 3.36783C23.2985 3.61595 24.0266 4.13956 24.9031 4.97954C24.9978 4.89495 25.0925 4.81035 25.19 4.72319C26.4776 3.62914 27.802 3.20271 29.493 3.31939C31.4328 3.62394 32.9548 4.68691 34.5605 5.75521C35.4675 6.35536 36.3855 6.93865 37.3055 7.5186C37.3874 7.57045 37.4693 7.6223 37.5537 7.67572C39.0537 8.61839 40.4207 9.16472 42.2249 8.76983C42.933 8.56872 43.5489 8.25795 43.9461 7.61626C44.2429 6.81485 44.1681 6.22966 43.8484 5.46782C43.8162 5.37114 43.784 5.27446 43.7508 5.17485C43.2313 4.89886 42.6177 4.75548 42.0357 4.82695C41.5886 5.03019 41.2687 5.32319 40.9188 5.66314C40.7234 5.37017 40.7234 5.37017 40.7334 5.16646C40.8851 4.50282 41.1037 4.12739 41.6756 3.74053C42.3327 3.35287 43.0316 3.21701 43.7878 3.36478C44.8013 3.62629 45.5311 4.25915 46.0587 5.15159C46.8361 6.61819 46.8343 8.08206 46.3875 9.66704C45.8014 11.4009 44.5026 12.6444 42.9146 13.4817C39.7776 14.9859 35.9029 15.1572 32.5203 14.4522C32.427 14.4328 32.3336 14.4134 32.2375 14.3934C29.844 13.8777 27.3514 13.0754 25.4891 11.4249C25.3713 11.3269 25.2534 11.2292 25.1351 11.1319C25.0585 11.0674 24.982 11.003 24.9031 10.9366C24.8212 11.0164 24.8212 11.0164 24.7376 11.0979C21.8874 13.7786 17.5608 14.7977 13.7459 14.7696C13.6803 14.7692 13.6146 14.7689 13.547 14.7686C10.3337 14.7494 7.3218 14.1789 4.98126 11.8155C3.78536 10.5251 3.25175 9.0424 3.29326 7.2882C3.39045 6.04732 3.84522 4.84775 4.78595 4.00298C5.99344 3.16159 7.24524 3.09809 8.49078 3.89312Z" fill="#878787"/>
<path d="M27.9297 7.81212C28.2657 8.09401 28.5852 8.39232 28.9062 8.69102C31.2417 10.8493 33.9201 12.0518 37.0117 12.6949C37.0117 12.7272 37.0117 12.7594 37.0117 12.7926C33.6797 12.6956 30.9237 11.2207 28.5538 8.93783C27.3923 7.82501 26.4467 7.08516 24.7879 7.09302C22.9786 7.13439 21.7839 8.61561 20.5662 9.79767C18.6379 11.6149 15.6426 12.8589 12.9883 12.7926C13.2918 12.6108 13.5939 12.5467 13.939 12.481C16.6758 11.9559 19.1624 10.5182 21.1523 8.59587C23.1185 6.71372 25.6368 6.1148 27.9297 7.81212Z" fill="#8F8F8F"/>
<path d="M16.7976 20.2148C16.9564 20.5006 17.0299 20.744 17.0752 21.067C17.0886 21.1598 17.102 21.2525 17.1157 21.3481C17.1296 21.4495 17.1435 21.5509 17.1578 21.6554C17.1732 21.763 17.1885 21.8707 17.2042 21.9816C17.2552 22.3412 17.3053 22.7009 17.3553 23.0606C17.3912 23.3149 17.4272 23.5692 17.4632 23.8234C17.5399 24.3652 17.6162 24.9071 17.6922 25.449C17.8795 26.7851 18.069 28.121 18.2585 29.4568C18.2884 29.6681 18.3184 29.8794 18.3483 30.0906C18.6013 31.8763 18.8589 33.6612 19.1276 35.4446C19.1417 35.5379 19.1557 35.6312 19.1702 35.7273C19.2987 36.579 19.4283 37.4306 19.559 38.282C19.605 38.5819 19.6507 38.8818 19.6963 39.1817C19.7268 39.381 19.7578 39.5802 19.7888 39.7794C19.8067 39.8965 19.8245 40.0136 19.8429 40.1342C19.8584 40.2346 19.8739 40.335 19.8899 40.4384C19.9236 40.731 19.9283 41.0143 19.9226 41.3086C19.7815 41.0459 19.6897 40.8075 19.6279 40.5162C19.6108 40.437 19.5938 40.3578 19.5762 40.2762C19.5583 40.1903 19.5405 40.1043 19.522 40.0158C19.5028 39.9249 19.4835 39.8339 19.4636 39.7403C19.4002 39.4392 19.3378 39.138 19.2756 38.8367C19.254 38.7324 19.2324 38.6281 19.2102 38.5206C16.7286 26.496 16.7286 26.496 16.7915 20.7703C16.7924 20.6639 16.7933 20.5575 16.7942 20.4479C16.7953 20.371 16.7964 20.2941 16.7976 20.2148Z" fill="#888888"/>
<path d="M20.6055 21.9727C21.3719 22.8575 21.6268 24.291 21.8567 25.4028C21.8757 25.4915 21.8947 25.5801 21.9142 25.6715C22.3985 28.1856 22.293 30.7841 22.2847 33.331C22.2837 33.7356 22.2837 34.1402 22.2838 34.5448C22.2837 36.4103 22.2767 38.2753 22.2218 40.1402C22.218 40.2684 22.2142 40.3966 22.2104 40.5287C22.1823 41.3762 22.1315 42.2207 22.0703 43.0664C22.0381 43.0664 22.0059 43.0664 21.9727 43.0664C21.8998 42.0699 21.8492 41.075 21.8224 40.0761C21.8203 40.0032 21.8183 39.9302 21.8162 39.8551C21.7775 38.4343 21.7654 37.0135 21.7567 35.5923C21.7553 35.3717 21.7539 35.1512 21.7525 34.9306C21.7468 34.0267 21.7414 33.1227 21.7381 32.2188C21.8216 27.3079 21.8216 27.3079 20.6772 22.5746C20.6055 22.3633 20.6055 22.3633 20.6055 21.9727Z" fill="#A9A9A9"/>
<path d="M32.1282 21.9727C33.8901 23.6451 34.646 26.2189 34.7131 28.5839C34.7376 31.2704 33.7734 33.4623 32.6639 35.8697C32.0425 37.2237 31.5329 38.566 31.3896 40.0635C31.3469 40.4297 31.3469 40.4297 31.1516 40.625C31.0465 38.3509 31.8765 36.3777 32.7503 34.3282C33.0825 33.5475 33.4057 32.7683 33.6602 31.958C33.6816 31.8902 33.703 31.8224 33.725 31.7526C34.0277 30.7366 34.1166 29.7507 34.1118 28.6926C34.1113 28.5674 34.1109 28.4422 34.1104 28.3132C34.0991 27.4 34.0331 26.5647 33.7883 25.6836C33.7562 25.5646 33.7241 25.4457 33.6911 25.3231C33.3765 24.2792 32.9059 23.2046 32.248 22.3278C32.1282 22.168 32.1282 22.168 32.1282 21.9727Z" fill="#A9A9A9"/>
<path d="M15.1372 19.043C15.1694 19.043 15.2016 19.043 15.2348 19.043C15.2607 20.552 15.1808 22.0428 15.07 23.5474C15.0527 23.7919 15.0353 24.0364 15.018 24.2809C14.9291 25.5186 14.8297 26.7546 14.713 27.99C14.4053 31.2666 14.2663 34.5022 14.2583 37.793C14.226 37.793 14.1938 37.793 14.1606 37.793C13.9242 36.3351 13.8189 34.9172 13.831 33.4412C13.8314 33.3421 13.8319 33.2431 13.8323 33.141C13.8413 31.3139 13.9477 29.5091 14.1349 27.6923C14.1626 27.4223 14.1894 27.1523 14.2161 26.8823C14.4146 24.8795 14.6269 22.8782 14.8686 20.8801C14.8767 20.8131 14.8848 20.7461 14.8931 20.6771C15.0302 19.5474 15.0302 19.5474 15.1372 19.043Z" fill="#A9A9A9"/>
<path d="M25.5859 22.168C27.5014 23.9224 28.0754 27.2586 28.418 29.6875C28.4283 29.7597 28.4387 29.8319 28.4493 29.9062C28.7957 32.6106 28.4217 35.4485 27.9724 38.1165C27.9519 38.2382 27.9315 38.3599 27.9104 38.4854C27.8904 38.5969 27.8705 38.7084 27.85 38.8233C27.8324 38.9217 27.8148 39.02 27.7967 39.1214C27.7344 39.3555 27.7344 39.3555 27.5391 39.5508C27.5211 38.9835 27.5499 38.4472 27.6245 37.8845C28.2638 32.8961 28.3919 27.0249 25.7092 22.5697C25.5859 22.3633 25.5859 22.3633 25.5859 22.168Z" fill="#A9A9A9"/>
<path d="M22.7539 22.0703C23.0784 22.3396 23.2375 22.7001 23.4192 23.0713C23.4534 23.1409 23.4876 23.2104 23.5229 23.2821C24.9047 26.1315 25.4111 29.2054 25.415 32.3608C25.4152 32.4315 25.4154 32.5022 25.4155 32.575C25.4157 33.7514 25.3548 34.918 25.2563 36.0901C25.2502 36.1636 25.244 36.2372 25.2377 36.313C25.148 37.3623 25.0304 38.4078 24.9023 39.4531C24.8701 39.4531 24.8379 39.4531 24.8047 39.4531C24.8053 39.3559 24.806 39.2586 24.8067 39.1584C24.8127 38.2266 24.817 37.2949 24.8199 36.3631C24.8214 35.8845 24.8234 35.4058 24.8268 34.9272C24.8551 30.8016 24.8591 26.2982 22.847 22.5675C22.7539 22.3633 22.7539 22.3633 22.7539 22.0703Z" fill="#A9A9A9"/>
<path d="M36.1328 24.1211C37.1712 25.1595 37.1358 27.9671 37.146 29.3396C37.112 33.4712 35.6407 37.3399 32.9102 40.4297C32.9102 40.0304 33.1149 39.8156 33.3374 39.502C34.7766 37.395 35.7245 35.0174 36.2305 32.5195C36.2463 32.4452 36.2622 32.3709 36.2785 32.2943C36.7878 29.8157 36.6876 27.0793 36.1687 24.6141C36.1328 24.4141 36.1328 24.4141 36.1328 24.1211Z" fill="#A9A9A9"/>
<path d="M29.0039 23.2422C30.3757 24.3936 30.6607 27.248 30.8289 28.9001C30.8411 29.0974 30.8511 29.2948 30.8594 29.4922C30.8657 29.6145 30.872 29.7369 30.8784 29.863C30.995 33.2436 30.0763 36.6134 29.1992 39.8438C29.167 39.8438 29.1348 39.8438 29.1016 39.8438C29.1519 38.9821 29.281 38.1433 29.4347 37.2955C29.6562 36.0693 29.8532 34.842 30.011 33.606C30.0265 33.4856 30.042 33.3652 30.058 33.2412C30.443 30.1474 30.4434 26.9123 29.1924 24.002C29.0754 23.7291 29.0039 23.5431 29.0039 23.2422Z" fill="#A9A9A9"/>
<path d="M35.7422 18.75C38.0501 20.6476 39.5742 23.0762 39.9414 26.0742C39.984 26.6261 39.9761 27.1786 39.97 27.7317C39.9695 27.8826 39.9691 28.0335 39.9688 28.1844C39.9677 28.5753 39.9648 28.9662 39.9615 29.3571C39.9585 29.7585 39.9572 30.1599 39.9557 30.5613C39.9526 31.3442 39.9476 32.1272 39.9414 32.9102C39.9092 32.9102 39.877 32.9102 39.8437 32.9102C39.8126 32.7251 39.7822 32.54 39.7522 32.3547C39.7267 32.2001 39.7267 32.2001 39.7007 32.0423C39.56 31.0543 39.5359 30.055 39.5081 29.0588C39.3769 25.1056 38.5918 22.072 35.8643 19.101C35.7422 18.9453 35.7422 18.9453 35.7422 18.75Z" fill="#828282"/>
<path d="M27.0508 3.71154C30.1603 3.61207 32.2964 5.16923 34.4963 7.22106C34.9681 7.66409 35.4386 8.10854 35.9062 8.55602C37.5782 10.1537 39.3918 11.4076 41.6992 11.817C41.6992 11.8492 41.6992 11.8815 41.6992 11.9147C39.8471 12.0215 38.1204 10.9777 36.7188 9.86389C36.667 9.82275 36.6152 9.78162 36.5619 9.73924C35.5679 8.93958 34.6484 8.05288 33.7269 7.17205C32.9502 6.43033 32.1332 5.78554 31.25 5.17639C31.1658 5.11798 31.0816 5.05957 30.9948 4.99938C30.0153 4.36726 28.8217 3.93316 27.6611 3.85192C27.5468 3.84374 27.4325 3.83556 27.3148 3.82713C27.2276 3.82121 27.1405 3.8153 27.0508 3.8092C27.0508 3.77697 27.0508 3.74475 27.0508 3.71154Z" fill="#A2A2A2"/>
<path d="M22.2046 3.70345C22.2858 3.70389 22.367 3.70433 22.4506 3.70478C22.6494 3.70593 22.8481 3.70768 23.0469 3.70955C23.0469 3.74178 23.0469 3.77401 23.0469 3.80721C22.9652 3.80859 22.8835 3.80998 22.7993 3.8114C19.8116 3.93382 17.4479 5.94452 15.4469 7.98812C15.2001 8.23616 14.9439 8.46696 14.6774 8.69345C14.5009 8.84447 14.3279 8.99779 14.1556 9.15351C12.6482 10.5012 10.6662 11.9183 8.56323 11.931C8.47662 11.9249 8.39001 11.9189 8.30078 11.9127C8.30078 11.8805 8.30078 11.8482 8.30078 11.815C8.39545 11.7959 8.49011 11.7768 8.58765 11.757C11.058 11.2209 13.0385 9.6691 14.7717 7.88398C15.0047 7.64984 15.2532 7.43654 15.5041 7.22174C15.7143 7.03716 15.9175 6.84623 16.1205 6.65378C17.8048 5.07062 19.8219 3.67875 22.2046 3.70345Z" fill="#A2A2A2"/>
<path d="M40.332 18.75C40.6513 19.108 40.7673 19.5029 40.9058 19.9524C40.9308 20.0333 40.9559 20.1143 40.9818 20.1977C42.1149 23.9647 42.3759 28.2309 41.2109 32.0312C41.1465 32.1279 41.082 32.2246 41.0156 32.3242C41.0276 32.1452 41.0399 31.9661 41.0522 31.7871C41.0653 31.5977 41.0653 31.5977 41.0786 31.4045C41.1018 31.0883 41.1311 30.7731 41.1633 30.4577C41.5226 26.8303 41.2446 23.3033 40.4899 19.7426C40.4257 19.4129 40.377 19.0828 40.332 18.75Z" fill="#888888"/>
<path d="M28.2871 5.29745C29.793 5.89049 30.9241 6.99096 32.0887 8.07617C32.3886 8.35483 32.6946 8.62426 33.0078 8.88784C33.0552 8.92855 33.1027 8.96926 33.1515 9.0112C34.899 10.503 36.9605 11.7169 39.1602 12.4035C38.7245 12.5403 38.4004 12.414 37.9822 12.2692C37.9051 12.2428 37.828 12.2164 37.7486 12.1892C35.1032 11.253 33.0935 9.66528 31.0799 7.75488C29.6647 6.43206 28.0956 5.23711 26.0986 5.12197C26.0305 5.11776 25.9624 5.11354 25.8923 5.10919C25.7251 5.09889 25.5578 5.08902 25.3906 5.07925C26.2988 4.55544 27.3791 4.96171 28.2871 5.29745Z" fill="#8F8F8F"/>
<path d="M24.6094 4.98014C24.6094 5.01237 24.6094 5.0446 24.6094 5.0778C24.4746 5.07988 24.4746 5.07988 24.337 5.082C21.6179 5.18445 19.7695 6.97267 17.8963 8.74983C16.1621 10.3708 13.6425 12.1495 11.2305 12.4997C11.0104 12.4566 11.0104 12.4566 10.8398 12.402C10.9266 12.3733 11.0133 12.3446 11.1027 12.315C12.8695 11.7046 14.5464 10.8249 16.0156 9.66764C16.1046 9.59904 16.1936 9.53043 16.2853 9.45974C16.8226 9.03387 17.3237 8.57487 17.8223 8.10514C19.6317 6.40046 21.9279 4.37622 24.6094 4.98014Z" fill="#A2A2A2"/>
<path d="M12.207 17.5781C12.3046 17.8711 12.3046 17.8711 12.199 18.1171C12.1432 18.2233 12.0874 18.3294 12.03 18.4387C11.6483 19.2058 11.3771 20.0076 11.1083 20.8191C11.0874 20.8816 11.0666 20.9441 11.045 21.0085C10.6288 22.2575 10.3185 23.4809 10.144 24.7864C10.1272 24.9109 10.1104 25.0354 10.0931 25.1637C9.9128 26.5691 9.88014 27.979 9.86322 29.3945C9.65316 29.0081 9.60261 28.637 9.55804 28.2043C9.54996 28.1263 9.54188 28.0482 9.53356 27.9677C9.18435 24.3227 10.1378 20.604 12.207 17.5781Z" fill="#A9A9A9"/>
<path d="M41.3715 15.2525C42.2864 15.4762 43.1031 16.0957 43.634 16.8707C44.0973 17.6865 44.1765 18.5528 44.2177 19.4754C44.2382 19.8242 44.282 20.1634 44.3359 20.5084C43.9843 20.2457 43.9372 19.8827 43.8477 19.4769C43.8138 19.335 43.7799 19.1931 43.7458 19.0512C43.6924 18.8244 43.6394 18.5975 43.5863 18.3707C43.2803 17.2067 42.6113 16.4157 41.5981 15.7973C41.1319 15.5433 40.6575 15.4243 40.1367 15.3326C40.5664 15.0462 40.8784 15.1661 41.3715 15.2525Z" fill="#A9A9A9"/>
</svg>
