<svg width="50" height="50" viewBox="0 0 50 50" fill="none" xmlns="http://www.w3.org/2000/svg">
<g clip-path="url(#clip0_3139_42841)">
<path d="M21.6055 2.18845C23.3019 3.52364 24.5315 5.61194 24.8552 7.75867C24.8788 8.00524 24.8964 8.24888 24.9021 8.49644C24.9666 8.49644 25.031 8.49644 25.0974 8.49644C25.0925 8.40253 25.0876 8.30862 25.0826 8.21186C25.0868 6.33358 26.3138 4.285 27.5388 2.93003C28.2897 2.18754 29.1054 1.67546 30.0779 1.26987C30.1796 1.22745 30.2813 1.18503 30.3861 1.14132C32.1235 0.536193 34.1765 0.741374 35.8161 1.52217C36.9223 2.08379 38.279 3.1185 38.7494 4.2965C38.9106 4.70907 38.9106 4.70907 39.2435 4.97898C39.469 5.04282 39.6919 5.0873 39.9229 5.1273C41.9053 5.56423 43.335 6.69016 44.4334 8.39878C45.3479 9.984 45.5846 11.931 45.1597 13.7027C44.8583 14.8244 44.3168 15.8232 43.5545 16.6996C43.4916 16.7764 43.4288 16.8531 43.3641 16.9323C42.9502 17.4204 42.5032 17.8397 42.0042 18.2376C41.9514 18.2802 41.8987 18.3227 41.8443 18.3665C41.3436 18.7537 40.7938 19.0435 40.2341 19.3363C40.355 19.334 40.355 19.334 40.4783 19.3316C42.9444 19.2909 45.2992 19.3695 47.3631 20.8988C47.4318 20.9496 47.5005 21.0005 47.5713 21.0529C48.4965 21.8003 49.1554 22.8379 49.6091 23.9261C49.6496 24.0224 49.69 24.1187 49.7316 24.2179C50.298 25.8341 50.1801 27.7352 49.5115 29.2972C49.4728 29.3899 49.4342 29.4825 49.3944 29.578C49.0904 30.2405 48.6716 30.9134 48.0745 31.3438C47.7149 31.8226 47.8175 32.3188 47.8452 32.8983C47.8861 34.7367 47.4781 36.3298 46.2461 37.7384C46.0996 37.8889 45.9511 38.0375 45.8006 38.1839C45.7347 38.2518 45.6689 38.3196 45.601 38.3895C44.2237 39.7256 42.4476 40.2 40.5752 40.1833C38.4863 40.1194 36.5573 39.1244 34.9878 37.7853C34.7608 37.5871 34.7608 37.5871 34.4724 37.4027C34.5102 37.4892 34.548 37.5757 34.5869 37.6648C35.106 38.8865 35.4937 40.1688 35.5466 41.5042C35.5542 41.6351 35.5542 41.6351 35.5619 41.7686C35.6268 43.7885 34.9002 45.6695 33.5233 47.1496C32.7387 47.9034 31.8729 48.4394 30.8592 48.8285C30.7739 48.8617 30.6887 48.8949 30.6009 48.9292C29.0955 49.4053 27.0612 49.3174 25.6372 48.611C25.5699 48.574 25.5025 48.537 25.4331 48.4989C25.1155 48.3093 25.1155 48.3093 24.8167 48.389C24.716 48.4374 24.6153 48.4857 24.5115 48.5355C24.3554 48.6019 24.1987 48.6669 24.0415 48.7308C23.9664 48.763 23.8912 48.7953 23.8138 48.8285C22.3071 49.3561 20.4198 49.3448 18.9451 48.7308C18.7761 48.6613 18.7761 48.6613 18.6037 48.5904C16.8113 47.7737 15.5494 46.3746 14.8435 44.5316C14.0416 42.1289 14.5296 39.5732 15.5271 37.305C15.4643 37.3665 15.4015 37.4279 15.3368 37.4912C13.438 39.2897 11.1805 40.1992 8.58208 40.1634C6.84486 40.1071 5.30111 39.3202 4.10134 38.0863C4.03349 38.0204 3.96563 37.9546 3.89573 37.8868C2.9234 36.8844 2.15705 35.3799 2.14573 33.9686C2.16529 33.0207 2.16529 33.0207 2.19685 32.5728C2.2316 31.9559 2.2316 31.9559 1.98692 31.4084C1.7881 31.214 1.58045 31.0377 1.36696 30.8597C0.726409 30.0173 0.382876 29.1336 0.0974318 28.1253C0.080036 28.065 0.0626403 28.0047 0.0447174 27.9425C-0.334788 26.1877 0.0273409 24.2338 0.982823 22.7317C2.27252 20.8845 3.98562 19.8455 6.19332 19.424C6.91942 19.3072 7.64043 19.3147 8.3738 19.3241C8.5096 19.3251 8.6454 19.3259 8.78121 19.3267C9.10929 19.329 9.43734 19.3322 9.7654 19.3363C9.69359 19.2983 9.62178 19.2603 9.5478 19.2212C8.87171 18.859 8.29561 18.4693 7.71462 17.9691C7.63191 17.8995 7.54921 17.8299 7.46399 17.7581C5.99492 16.4864 4.94572 14.8389 4.68728 12.891C4.54117 10.8217 4.97779 8.94597 6.35239 7.34097C6.41521 7.2711 6.47802 7.20123 6.54274 7.12925C6.59448 7.06845 6.64622 7.00765 6.69953 6.945C7.61783 5.93601 9.00801 5.27604 10.3391 5.06626C10.7882 4.97346 10.7882 4.97346 11.1097 4.66763C11.2008 4.48471 11.2873 4.29949 11.3699 4.11259C12.0884 2.6899 13.6265 1.70257 15.0636 1.14704C17.2627 0.444333 19.7594 0.793898 21.6055 2.18845Z" fill="#FFC6BC"/>
<path d="M36.8844 2.17747C37.5731 2.73927 38.4161 3.46207 38.7498 4.29787C38.9111 4.71044 38.9111 4.71044 39.244 4.98034C39.4695 5.04419 39.6924 5.08867 39.9233 5.12866C41.9058 5.5656 43.3354 6.69153 44.4338 8.40015C45.3484 9.98537 45.5851 11.9323 45.1602 13.7041C44.8587 14.8258 44.3173 15.8246 43.5549 16.7009C43.4921 16.7777 43.4293 16.8545 43.3646 16.9336C42.9506 17.4218 42.5037 17.8411 42.0046 18.239C41.9519 18.2815 41.8991 18.3241 41.8448 18.3679C41.3441 18.7551 40.7943 19.0448 40.2346 19.3376C40.3555 19.3353 40.3555 19.3353 40.4788 19.333C42.9449 19.2922 45.2997 19.3709 47.3635 20.9001C47.4323 20.951 47.501 21.0019 47.5718 21.0543C48.497 21.8016 49.1559 22.8393 49.6096 23.9275C49.65 24.0238 49.6904 24.1201 49.7321 24.2193C50.2962 25.8293 50.1845 27.7433 49.512 29.2986C49.4164 29.4949 49.3194 29.6906 49.219 29.8845C49.1545 29.8845 49.0901 29.8845 49.0237 29.8845C49.0212 29.7958 49.0187 29.707 49.0161 29.6156C48.9227 27.5476 48.2413 25.7189 46.7192 24.2723C45.0132 22.7995 42.5845 22.2793 40.4055 21.9072C40.3035 21.8897 40.3035 21.8897 40.1995 21.8719C39.2097 21.7125 38.2192 21.6667 37.218 21.6719C37.1134 21.672 37.0089 21.6721 36.9011 21.6723C36.5719 21.6728 36.2426 21.674 35.9133 21.6753C35.6881 21.6758 35.4629 21.6762 35.2377 21.6766C34.6898 21.6777 34.1419 21.6793 33.594 21.6814C33.5808 21.772 33.5675 21.8626 33.5539 21.956C33.3463 23.0792 32.2777 24.1913 31.368 24.8322C30.7725 25.2178 30.1801 25.5092 29.4924 25.6853C29.5474 25.7795 29.5474 25.7795 29.6034 25.8757C30.535 27.5205 31.1234 29.3187 30.6216 31.2029C30.4916 31.6197 30.4916 31.6197 30.3713 31.74C28.9395 31.9341 27.514 31.2685 26.398 30.4338C25.332 29.5715 25.332 29.5715 25.0979 29.1033C25.0334 29.1033 24.969 29.1033 24.9026 29.1033C24.7563 29.2517 24.7563 29.2517 24.6035 29.4451C23.5622 30.6521 22.2117 31.5161 20.6057 31.74C20.2778 31.7586 19.9569 31.7559 19.6292 31.74C19.391 31.0651 19.2882 30.4649 19.2996 29.7502C19.3003 29.6609 19.3011 29.5715 19.3019 29.4794C19.3221 28.5171 19.5426 27.7369 19.9221 26.8572C19.7683 26.9068 19.6146 26.9564 19.4608 27.006C19.3234 27.0503 19.1859 27.0947 19.0484 27.139C18.6694 27.2613 18.2905 27.3841 17.9119 27.5077C16.6147 27.9308 16.6147 27.9308 16.0071 28.1057C15.9267 28.1297 15.8463 28.1537 15.7635 28.1784C15.6242 28.2195 15.4842 28.2586 15.3436 28.2948C14.8581 28.442 14.6875 28.6932 14.4575 29.1189C14.2945 29.4067 14.0962 29.5401 13.7942 29.6587C13.2848 29.7294 12.9363 29.7608 12.4758 29.5305C12.0097 29.128 11.7466 28.7123 11.6885 28.0962C11.7355 27.5414 11.999 27.2743 12.3599 26.8694C12.7137 26.588 13.0814 26.6153 13.5172 26.6256C13.7698 26.6619 13.7698 26.6619 13.9552 26.7683C14.4383 26.9775 15.0267 26.7167 15.5032 26.5642C15.567 26.544 15.6308 26.5238 15.6965 26.5029C16.1596 26.3547 16.6203 26.1994 17.0809 26.0435C17.199 26.0037 17.3172 25.9638 17.4388 25.9228C17.6763 25.8425 17.9135 25.7616 18.1505 25.6802C18.2603 25.643 18.3701 25.6058 18.4832 25.5674C18.5817 25.5337 18.6802 25.5 18.7816 25.4653C19.0432 25.3923 19.0432 25.3923 19.4338 25.3923C19.4338 25.3279 19.4338 25.2634 19.4338 25.197C19.362 25.1711 19.2901 25.1452 19.216 25.1184C17.8783 24.5411 16.8941 23.2021 16.3642 21.8927C16.3088 21.6814 16.3088 21.6814 16.4065 21.3884C17.8152 20.3416 19.3082 20.2429 20.9963 20.2166C20.9645 20.1725 20.9327 20.1285 20.8999 20.0831C20.8548 20.0206 20.8097 19.9582 20.7633 19.8938C20.7125 19.8235 20.6617 19.7532 20.6093 19.6807C20.4959 19.5237 20.3825 19.3666 20.2691 19.2095C19.9718 18.7979 19.6744 18.3862 19.377 17.9747C19.293 17.8584 19.293 17.8584 19.2073 17.7398C19.1007 17.5922 18.994 17.4446 18.8873 17.297C18.8134 17.1947 18.8134 17.1947 18.738 17.0904C18.6907 17.0254 18.6433 16.9604 18.5945 16.8934C18.5028 16.7648 18.4137 16.6343 18.3273 16.5022C18.1003 16.1473 18.1003 16.1473 17.7531 15.9285C17.6833 15.9235 17.6136 15.9186 17.5417 15.9136C17.0416 15.8376 16.735 15.6165 16.4065 15.2361C16.1568 14.8222 16.1354 14.4386 16.2112 13.9666C16.3752 13.5748 16.599 13.2799 16.907 12.99C17.4379 12.8053 18.0178 12.7968 18.5427 13.0022C18.9703 13.3795 19.2489 13.6284 19.3118 14.2046C19.3153 14.2729 19.3188 14.3413 19.3224 14.4117C19.327 14.4904 19.3315 14.5691 19.3362 14.6501C19.3422 14.7574 19.3483 14.8647 19.3545 14.9752C19.4556 15.4322 19.6565 15.6894 19.9465 16.0479C20.053 16.1844 20.1593 16.3211 20.2654 16.4579C20.3488 16.5645 20.3488 16.5645 20.4339 16.6732C20.7277 17.0546 21.0083 17.4453 21.2893 17.8362C21.3683 17.9454 21.3683 17.9454 21.4489 18.0568C21.7295 18.4461 22.0026 18.8387 22.2659 19.24C22.4184 18.9517 22.5284 18.6639 22.6321 18.355C23.0898 17.0941 23.811 16.0348 24.9026 15.2361C24.967 15.2361 25.0315 15.2361 25.0979 15.2361C25.0657 15.1716 25.0334 15.1072 25.0002 15.0408C24.9898 14.8411 24.9857 14.6411 24.9845 14.4412C24.9836 14.315 24.9826 14.1887 24.9817 14.0586C24.9812 13.9197 24.9808 13.7808 24.9804 13.6419C24.9798 13.499 24.9793 13.3561 24.9787 13.2132C24.9777 12.9125 24.9771 12.6118 24.9768 12.311C24.9763 11.9298 24.9739 11.5485 24.9711 11.1673C24.9693 10.8713 24.9688 10.5752 24.9686 10.2792C24.9684 10.1389 24.9676 9.99869 24.9663 9.85844C24.9444 7.31378 25.8104 4.82842 27.5393 2.9314C28.2888 2.18818 29.1065 1.67656 30.0784 1.27124C30.1801 1.22882 30.2818 1.1864 30.3866 1.14269C32.5129 0.40208 35.0951 0.825232 36.8844 2.17747Z" fill="#FFC6BC"/>
<path d="M18.5427 13C18.9703 13.3774 19.2489 13.6262 19.3118 14.2024C19.3153 14.2708 19.3188 14.3391 19.3224 14.4096C19.327 14.4882 19.3315 14.5669 19.3362 14.648C19.3422 14.7552 19.3483 14.8625 19.3545 14.973C19.4556 15.4301 19.6565 15.6872 19.9465 16.0457C20.053 16.1823 20.1593 16.319 20.2654 16.4558C20.321 16.5268 20.3766 16.5979 20.4339 16.6711C20.7277 17.0524 21.0083 17.4432 21.2893 17.834C21.3683 17.9432 21.3683 17.9432 21.4489 18.0546C21.7295 18.4439 22.0026 18.8366 22.2659 19.2378C22.4184 18.9495 22.5283 18.6617 22.6321 18.3528C23.0966 17.0733 23.8209 16.066 24.9026 15.2339C25.9707 15.5887 26.6663 16.717 27.1487 17.6753C27.536 18.6017 27.7296 19.5131 27.8323 20.5074C27.954 20.476 28.0757 20.4447 28.2012 20.4124C30.0067 20.0142 31.8548 20.2763 33.4258 21.2467C33.594 21.3863 33.594 21.3863 33.6917 21.6792C33.3457 23.0657 32.2162 24.3262 31.0136 25.0499C30.5137 25.3365 30.048 25.5414 29.4924 25.6831C29.5474 25.7774 29.5474 25.7774 29.6034 25.8735C30.535 27.5184 31.1234 29.3166 30.6216 31.2007C30.4916 31.6175 30.4916 31.6175 30.3713 31.7378C28.9394 31.9319 27.514 31.2663 26.3979 30.4317C25.332 29.5693 25.332 29.5693 25.0979 29.1011C25.0334 29.1011 24.969 29.1011 24.9026 29.1011C24.7563 29.2496 24.7563 29.2496 24.6035 29.4429C23.5622 30.65 22.2117 31.5139 20.6057 31.7378C20.2778 31.7564 19.9569 31.7538 19.6292 31.7378C19.391 31.0629 19.2882 30.4627 19.2996 29.7481C19.3003 29.6587 19.3011 29.5693 19.3019 29.4772C19.3221 28.515 19.5426 27.7348 19.9221 26.855C19.7683 26.9046 19.6146 26.9542 19.4608 27.0038C19.3234 27.0482 19.1859 27.0925 19.0484 27.1368C18.6694 27.2591 18.2905 27.3819 17.9119 27.5055C16.6147 27.9286 16.6147 27.9286 16.0071 28.1036C15.9267 28.1275 15.8463 28.1515 15.7635 28.1762C15.6242 28.2174 15.4842 28.2564 15.3436 28.2926C14.8581 28.4399 14.6875 28.6911 14.4575 29.1167C14.2945 29.4045 14.0962 29.5379 13.7942 29.6565C13.2848 29.7273 12.9363 29.7586 12.4758 29.5284C12.0097 29.1258 11.7466 28.7101 11.6885 28.094C11.7355 27.5392 11.999 27.2721 12.3599 26.8672C12.7137 26.5858 13.0814 26.6131 13.5172 26.6235C13.7698 26.6597 13.7698 26.6597 13.9552 26.7661C14.4383 26.9754 15.0267 26.7145 15.5032 26.5621C15.567 26.5418 15.6308 26.5216 15.6965 26.5008C16.1596 26.3526 16.6203 26.1972 17.0809 26.0413C17.2581 25.9816 17.2581 25.9816 17.4388 25.9206C17.6763 25.8403 17.9135 25.7595 18.1505 25.678C18.2603 25.6408 18.3701 25.6036 18.4832 25.5653C18.5817 25.5316 18.6802 25.4978 18.7816 25.4631C19.0432 25.3902 19.0432 25.3902 19.4338 25.3902C19.4338 25.3257 19.4338 25.2613 19.4338 25.1949C19.362 25.1689 19.2901 25.143 19.216 25.1163C17.8783 24.5389 16.8941 23.1999 16.3642 21.8906C16.3088 21.6792 16.3088 21.6792 16.4065 21.3863C17.8152 20.3395 19.3082 20.2408 20.9963 20.2144C20.9645 20.1704 20.9327 20.1263 20.8999 20.0809C20.8548 20.0185 20.8097 19.956 20.7633 19.8917C20.7125 19.8213 20.6617 19.751 20.6093 19.6785C20.4959 19.5215 20.3825 19.3644 20.2691 19.2074C19.9718 18.7957 19.6744 18.3841 19.377 17.9725C19.293 17.8563 19.293 17.8563 19.2073 17.7377C19.1007 17.59 18.994 17.4425 18.8873 17.2949C18.8381 17.2267 18.7888 17.1585 18.738 17.0883C18.667 16.9907 18.667 16.9907 18.5945 16.8912C18.5028 16.7627 18.4137 16.6322 18.3273 16.5C18.1003 16.1452 18.1003 16.1452 17.7531 15.9263C17.6485 15.9189 17.6485 15.9189 17.5417 15.9114C17.0416 15.8354 16.735 15.6143 16.4065 15.2339C16.1568 14.82 16.1353 14.4364 16.2112 13.9644C16.3752 13.5726 16.599 13.2777 16.907 12.9878C17.4379 12.8032 18.0178 12.7946 18.5427 13Z" fill="#FF4F6E"/>
<path d="M33.4259 21.2467C33.5941 21.3863 33.5941 21.3863 33.6918 21.6793C33.3458 23.0658 32.2163 24.3263 31.0137 25.0499C30.5138 25.3366 30.0481 25.5415 29.4925 25.6832C29.5292 25.746 29.5658 25.8088 29.6036 25.8736C30.5351 27.5184 31.1235 29.3166 30.6217 31.2008C30.4918 31.6176 30.4918 31.6176 30.3715 31.7379C28.9396 31.932 27.5141 31.2664 26.3981 30.4317C25.3321 29.5694 25.3321 29.5694 25.098 29.1012C25.0336 29.1012 24.9691 29.1012 24.9027 29.1012C24.7564 29.2496 24.7564 29.2496 24.6036 29.443C23.5623 30.65 22.2118 31.514 20.6058 31.7379C20.2779 31.7565 19.957 31.7538 19.6293 31.7379C19.3912 31.063 19.2883 30.4627 19.2997 29.7481C19.3005 29.6586 19.3014 29.5691 19.3023 29.4768C19.3298 28.2006 19.6959 26.8925 20.5082 25.8785C20.5726 25.8785 20.6371 25.8785 20.7035 25.8785C20.7584 25.9952 20.7584 25.9952 20.8145 26.1143C21.4167 27.3612 22.1402 28.0841 23.4276 28.6396C24.5187 29.0161 25.9207 28.9489 26.9604 28.4767C28.1626 27.8179 28.8812 27.0393 29.3239 25.7362C29.6385 24.6353 29.666 23.379 29.1019 22.3629C29.0594 22.2798 29.0168 22.1967 28.973 22.1111C28.6501 21.5218 28.2666 21.1104 27.7347 20.7027C27.767 20.6383 27.7992 20.5738 27.8324 20.5074C29.7199 19.9679 31.7603 20.2179 33.4259 21.2467Z" fill="#FF64AC"/>
<path d="M30.3711 31.6406C30.6176 31.9657 30.8549 32.297 31.0913 32.6294C31.4823 33.1779 31.8751 33.7251 32.2693 34.2712C32.3494 34.3824 32.3494 34.3824 32.4312 34.4958C32.7351 34.9165 33.042 35.3348 33.3519 35.7512C34.6396 37.4883 35.4324 39.3106 35.5469 41.5039C35.552 41.5915 35.5572 41.6791 35.5625 41.7694C35.625 43.7896 34.901 45.6685 33.5236 47.1493C32.7389 47.903 31.8731 48.4391 30.8594 48.8281C30.7742 48.8614 30.6889 48.8946 30.6011 48.9288C29.9008 49.1503 29.1948 49.1478 28.4668 49.1516C28.3629 49.1522 28.259 49.1527 28.152 49.1533C27.328 49.1455 27.328 49.1455 26.9531 48.9258C27.0501 48.8937 27.147 48.8616 27.2469 48.8285C29.1941 48.1576 30.6578 47.0536 31.6406 45.2148C31.7979 44.8626 31.9238 44.5108 32.0313 44.1406C32.0645 44.0384 32.0977 43.9362 32.1319 43.8309C32.2301 43.4429 32.2548 43.0869 32.2525 42.6899C32.2528 42.6181 32.2531 42.5463 32.2533 42.4723C32.2538 42.241 32.2525 42.0098 32.251 41.7786C32.2507 41.6996 32.2504 41.6206 32.2501 41.5393C32.2369 38.629 31.6273 36.0884 30.7827 33.3134C30.7555 33.2237 30.7283 33.134 30.7003 33.0415C30.6488 32.8724 30.597 32.7035 30.5447 32.5346C30.4509 32.2275 30.3711 31.9638 30.3711 31.6406Z" fill="#FFA6B8"/>
<path d="M8.69185 5.56641C8.7563 5.59863 8.82076 5.63086 8.88716 5.66406C8.82938 5.74803 8.7716 5.83199 8.71207 5.9185C7.8462 7.2033 7.28432 8.51513 7.29415 10.083C7.29463 10.1736 7.29511 10.2643 7.2956 10.3576C7.30727 11.0422 7.38396 11.6574 7.61763 12.3047C7.65087 12.4002 7.6841 12.4958 7.71834 12.5942C8.29116 14.0979 9.37308 15.3036 10.4443 16.4768C10.6162 16.6674 10.7809 16.8613 10.944 17.0593C11.2659 17.4364 11.6326 17.7489 12.0122 18.0664C12.0999 18.1409 12.1876 18.2155 12.278 18.2922C12.9277 18.8401 13.5926 19.3651 14.2692 19.8793C14.558 20.099 14.8459 20.3196 15.134 20.5401C15.4605 20.7899 15.7871 21.0395 16.1137 21.2891C15.673 21.4291 15.3514 21.2875 14.9316 21.1357C14.8147 21.095 14.8147 21.095 14.6956 21.0534C14.4457 20.9661 14.1963 20.8774 13.947 20.7886C13.6223 20.6738 13.2974 20.5597 12.9723 20.446C12.8921 20.4178 12.8118 20.3896 12.7292 20.3605C12.1958 20.175 11.6591 20.0109 11.1157 19.8574C10.5378 19.6929 10.003 19.5045 9.4792 19.2078C9.41053 19.1701 9.34185 19.1324 9.27109 19.0935C8.70318 18.7737 8.2012 18.4035 7.71529 17.9688C7.63334 17.8995 7.55139 17.8303 7.46695 17.7589C5.99557 16.4901 4.94628 14.8377 4.68794 12.8906C4.54184 10.8214 4.97846 8.94563 6.35306 7.34062C6.41588 7.27076 6.47869 7.20089 6.54341 7.12891C6.59515 7.0681 6.64689 7.0073 6.7002 6.94466C7.24259 6.3487 7.9754 5.92463 8.69185 5.56641Z" fill="#FFA6B8"/>
<path d="M36.7191 2.05078C37.1365 2.38081 37.5175 2.74667 37.891 3.125C37.6957 3.22265 37.6957 3.22265 37.4634 3.14674C37.3608 3.10935 37.2582 3.07196 37.1525 3.03344C35.5825 2.57103 33.8218 2.66646 32.3246 3.32031C32.2293 3.3616 32.134 3.40289 32.0358 3.44543C28.722 5.07628 27.1234 9.32604 25.9769 12.5977C25.9464 12.6845 25.9159 12.7713 25.8845 12.8608C25.762 13.2096 25.6397 13.5584 25.5187 13.9078C25.3868 14.2887 25.2526 14.6666 25.098 15.0391C25.0658 15.0391 25.0336 15.0391 25.0004 15.0391C24.9935 14.2113 24.9884 13.3835 24.9852 12.5557C24.9837 12.1711 24.9816 11.7866 24.9783 11.4021C24.975 11.0297 24.9733 10.6574 24.9726 10.2851C24.972 10.1443 24.971 10.0035 24.9694 9.8627C24.9416 7.31581 25.8092 4.8282 27.5394 2.92968C28.2889 2.18646 29.1066 1.67485 30.0785 1.26953C30.1802 1.2271 30.2819 1.18468 30.3867 1.14097C32.4594 0.41906 34.9283 0.814609 36.7191 2.05078Z" fill="#FFA6B8"/>
<path d="M19.3363 31.8359C19.433 31.8843 19.433 31.8843 19.5316 31.9336C19.4268 32.0722 19.4268 32.0722 19.3199 32.2136C18.7833 32.925 18.2522 33.6399 17.7311 34.3628C17.6787 34.4353 17.6264 34.5078 17.5724 34.5824C17.2989 34.9618 17.0276 35.3424 16.7587 35.725C15.1599 37.9913 13.0441 39.6381 10.2543 40.1367C8.24515 40.2824 6.42646 39.995 4.79697 38.7497C4.55411 38.5373 4.3268 38.3172 4.10193 38.0859C4.00015 37.9872 4.00015 37.9872 3.89632 37.8864C2.93314 36.8934 2.18453 35.3937 2.13965 33.9912C2.14418 33.8912 2.14418 33.8912 2.1488 33.7891C2.23057 33.8925 2.23057 33.8925 2.31398 33.9981C3.62795 35.6256 5.16176 36.8281 7.29903 37.0857C8.1782 37.151 9.01487 37.1674 9.86365 36.9141C10.0298 36.8674 10.0298 36.8674 10.1993 36.8198C11.6473 36.4005 13.0128 35.8 14.3497 35.1074C14.4305 35.0658 14.5113 35.0242 14.5945 34.9813C15.2617 34.6278 15.8811 34.2144 16.5043 33.7891C16.6201 33.7107 16.736 33.6325 16.8519 33.5543C17.1534 33.3509 17.4546 33.147 17.7556 32.9427C17.9421 32.8163 18.1287 32.6899 18.3153 32.5636C18.4343 32.4829 18.5532 32.4022 18.6722 32.3215C18.832 32.2132 18.832 32.2132 18.9952 32.1026C19.2226 31.9554 19.2226 31.9554 19.3363 31.8359Z" fill="#FFA6B8"/>
<path d="M41.8823 19.2976C41.9925 19.2986 42.1027 19.2996 42.2163 19.3006C44.0722 19.3349 45.8539 19.7783 47.3633 20.8968C47.432 20.9476 47.5007 20.9985 47.5716 21.0509C48.4967 21.7983 49.1556 22.8359 49.6094 23.9241C49.67 24.0686 49.67 24.0686 49.7318 24.2159C50.296 25.8259 50.1842 27.7399 49.5117 29.2952C49.4161 29.4915 49.3191 29.6872 49.2187 29.8811C49.1543 29.8811 49.0898 29.8811 49.0234 29.8811C49.0197 29.748 49.0197 29.748 49.0158 29.6122C48.9225 27.5442 48.2411 25.7155 46.719 24.269C45.0129 22.7961 42.5843 22.2759 40.4053 21.9038C40.3373 21.8922 40.2693 21.8805 40.1993 21.8685C38.8072 21.6443 37.401 21.6504 35.9948 21.6314C35.7204 21.6276 35.4459 21.6225 35.1715 21.6174C35.0875 21.6165 35.0035 21.6157 34.9169 21.6149C34.8386 21.6132 34.7603 21.6116 34.6796 21.6099C34.5769 21.6084 34.5769 21.6084 34.4721 21.6069C34.2457 21.576 34.0848 21.4965 33.8867 21.385C34.5631 21.1601 35.2398 20.9359 35.9168 20.7126C36.2313 20.6089 36.5457 20.5049 36.8599 20.4003C37.2228 20.2797 37.5861 20.1599 37.9494 20.0404C38.115 19.985 38.115 19.985 38.284 19.9284C39.4764 19.5381 40.6244 19.281 41.8823 19.2976Z" fill="#FFA6B7"/>
<path d="M24.9019 15.2344C25.971 15.5895 26.664 16.7176 27.148 17.6758C27.5696 18.6522 27.7175 19.5538 27.7339 20.6055C27.6084 20.5454 27.6084 20.5454 27.4802 20.4842C27.3686 20.4315 27.2569 20.3789 27.1419 20.3247C27.032 20.2726 26.9221 20.2205 26.8089 20.1668C25.6622 19.6766 24.4067 19.66 23.2417 20.1172C23.0048 20.2367 22.7843 20.3682 22.5581 20.5078C22.4937 20.5078 22.4292 20.5078 22.3628 20.5078C22.2662 18.8677 22.7925 17.4009 23.8826 16.1621C24.2033 15.8249 24.5332 15.518 24.9019 15.2344Z" fill="#FF64AC"/>
<path d="M22.0703 20.5067C22.1348 20.5712 22.1992 20.6356 22.2656 20.702C22.2172 20.7389 22.1687 20.7758 22.1188 20.8138C21.3125 21.4671 20.7318 22.3173 20.5078 23.3388C20.4754 23.7488 20.4798 24.1546 20.4895 24.5656C20.4908 24.6734 20.4921 24.7812 20.4935 24.8923C20.4969 25.1558 20.5017 25.4191 20.5078 25.6825C19.1028 25.4259 17.7715 24.251 16.9678 23.1068C16.6866 22.6631 16.4421 22.1888 16.3086 21.6786C16.4888 21.1381 17.0921 20.9473 17.5781 20.702C18.8411 20.1052 20.7489 20.0391 22.0703 20.5067Z" fill="#FF64AC"/>
<path d="M24.9021 29.0039C25.3361 29.1486 25.5618 29.3849 25.781 29.7852C25.86 30.2063 25.8491 30.6183 25.839 31.0455C25.839 31.1665 25.8389 31.2875 25.8389 31.4121C25.8386 31.8628 25.8332 32.3134 25.8273 32.7641C25.8219 33.2065 25.8209 33.6488 25.8207 34.0912C25.818 34.2073 25.8153 34.3234 25.8124 34.443C25.8115 35.1597 25.8115 35.1597 26.1697 35.7574C26.249 35.8315 26.249 35.8315 26.3298 35.907C26.5735 36.1386 26.5643 36.381 26.5783 36.6989C26.5409 37.2011 26.3489 37.5532 25.9764 37.8784C25.5039 38.2131 25.0753 38.2531 24.5115 38.1836C24.0426 37.9447 23.6612 37.6204 23.4617 37.1216C23.4061 36.6491 23.3766 36.3393 23.6143 35.9131C23.8279 35.6445 23.8279 35.6445 23.9858 35.5145C24.1784 35.2822 24.1553 35.1186 24.1523 34.8197C24.152 34.7108 24.1517 34.6019 24.1514 34.4897C24.1491 34.313 24.1491 34.313 24.1468 34.1328C24.1471 33.8836 24.1475 33.6344 24.148 33.3853C24.1475 32.9922 24.1455 32.5992 24.1413 32.2062C24.1381 31.827 24.1391 31.448 24.1407 31.0688C24.1384 30.952 24.1361 30.8352 24.1337 30.7148C24.1388 30.1279 24.1716 29.7669 24.5652 29.3143C24.6748 29.2079 24.7862 29.1033 24.9021 29.0039Z" fill="#FFB949"/>
<path d="M32.8125 12.8918C33.2498 13.087 33.5013 13.341 33.7212 13.7715C33.8473 14.1328 33.8568 14.4698 33.7891 14.8449C33.5717 15.2716 33.3168 15.5685 32.9102 15.8215C32.77 15.8453 32.6293 15.866 32.4883 15.8844C32.0323 15.9814 31.8602 16.1485 31.6067 16.5301C31.5635 16.6004 31.5203 16.6707 31.4758 16.7431C31.3768 16.8936 31.2775 17.0439 31.1779 17.194C31.1266 17.2728 31.0753 17.3515 31.0224 17.4327C30.7424 17.8522 30.4403 18.2552 30.1392 18.6596C30.0834 18.735 30.0277 18.8104 29.9703 18.8881C29.8632 19.033 29.7556 19.1774 29.6474 19.3215C29.543 19.4633 29.4417 19.6075 29.3435 19.7536C29.1102 20.0924 28.975 20.2829 28.5927 20.454C28.4907 20.4722 28.3888 20.4903 28.2837 20.509C28.1285 20.5392 28.1285 20.5392 27.9701 20.57C27.8923 20.5821 27.8145 20.5942 27.7344 20.6066C27.5954 20.1814 27.5307 19.775 27.6367 19.3371C27.939 18.7444 28.391 18.2368 28.8097 17.724C29.1216 17.3347 29.4101 16.9293 29.6997 16.5234C29.7516 16.4517 29.8035 16.3799 29.8569 16.3061C29.9533 16.1728 30.0491 16.0391 30.1442 15.905C30.262 15.7398 30.383 15.577 30.5042 15.4144C30.6837 15.104 30.699 14.9532 30.6702 14.6008C30.6522 14.0485 30.7414 13.7508 31.0875 13.3125C31.5827 12.792 32.1274 12.7822 32.8125 12.8918Z" fill="#FFB94A"/>
<path d="M30.8155 25.3876C30.9092 25.4159 31.0028 25.4443 31.0993 25.4735C31.2135 25.5106 31.3277 25.5477 31.4453 25.5859C31.5156 25.6087 31.5859 25.6314 31.6584 25.6548C32.3417 25.8759 33.0236 26.1015 33.7048 26.3292C33.9654 26.4161 34.2262 26.5022 34.4872 26.5881C34.5667 26.6149 34.6463 26.6418 34.7282 26.6694C35.2719 26.8516 35.2719 26.8516 35.8398 26.8555C35.9365 26.791 36.0332 26.7266 36.1328 26.6602C36.5977 26.6047 37.0495 26.5985 37.4878 26.77C37.8902 27.1251 38.2566 27.4877 38.3118 28.0396C38.2646 28.6239 38.065 29.0333 37.6404 29.4373C37.1879 29.7273 36.7532 29.7494 36.2305 29.6875C35.8169 29.4966 35.6466 29.3131 35.4547 28.9165C35.116 28.3654 34.6148 28.2721 34.0183 28.1071C33.9077 28.0734 33.7971 28.0398 33.6831 28.0051C33.2117 27.8617 32.7385 27.7249 32.2651 27.5882C31.9189 27.4871 31.574 27.3822 31.229 27.277C31.1225 27.2477 31.016 27.2183 30.9062 27.1881C30.2547 26.9885 29.9295 26.7736 29.5799 26.1826C29.4922 25.9766 29.4922 25.9766 29.4922 25.6836C29.9358 25.4086 30.2996 25.2288 30.8155 25.3876Z" fill="#FFB94A"/>
<path d="M18.542 13C18.9697 13.3774 19.2483 13.6262 19.3111 14.2024C19.3164 14.305 19.3164 14.305 19.3218 14.4096C19.3263 14.4882 19.3308 14.5669 19.3355 14.648C19.3415 14.7552 19.3476 14.8625 19.3538 14.973C19.4549 15.4301 19.6558 15.6872 19.9458 16.0457C20.0525 16.1824 20.1589 16.3192 20.2651 16.4562C20.3207 16.5272 20.3763 16.5983 20.4336 16.6715C20.7255 17.0505 21.0037 17.4392 21.2825 17.8279C21.3344 17.8999 21.3862 17.9719 21.4396 18.046C21.5383 18.1832 21.6364 18.3206 21.7341 18.4585C21.8262 18.5853 21.9217 18.7098 22.0206 18.8314C22.2625 19.1358 22.3587 19.2811 22.3892 19.68C22.3744 19.7899 22.3597 19.8998 22.3445 20.013C22.3311 20.1246 22.3176 20.2363 22.3037 20.3513C22.291 20.4351 22.2783 20.5188 22.2652 20.605C21.7389 20.61 21.3359 20.5485 20.9468 20.1759C20.7374 19.902 20.54 19.6254 20.3488 19.3389C20.2054 19.1269 20.0564 18.92 19.9054 18.7133C19.852 18.6402 19.7986 18.567 19.7435 18.4917C19.6894 18.4177 19.6354 18.3436 19.5796 18.2674C19.2698 17.8416 18.9635 17.4155 18.6778 16.973C18.2997 16.3437 18.2997 16.3437 17.7368 15.9084C17.5133 15.8653 17.5133 15.8653 17.2954 15.8527C16.9154 15.7921 16.6508 15.5176 16.4058 15.2339C16.1561 14.82 16.1347 14.4364 16.2105 13.9644C16.3745 13.5726 16.5983 13.2777 16.9063 12.9878C17.4372 12.8032 18.0171 12.7946 18.542 13Z" fill="#FFB949"/>
<path d="M20.6057 25.78C20.5274 25.9382 20.4452 26.0945 20.3616 26.25C20.3163 26.3372 20.2709 26.4244 20.2242 26.5143C19.9459 26.844 19.6378 26.9271 19.2385 27.0495C19.0414 27.116 18.8443 27.1828 18.6472 27.2498C18.4253 27.3235 18.2032 27.3971 17.9812 27.4707C17.8651 27.5097 17.7489 27.5487 17.6292 27.5889C17.1068 27.7639 16.585 27.9361 16.0555 28.0886C15.9756 28.1125 15.8956 28.1364 15.8133 28.161C15.6689 28.2037 15.5239 28.2443 15.3781 28.282C14.9702 28.4053 14.7838 28.5591 14.5659 28.9111C14.5296 28.9788 14.4934 29.0465 14.456 29.1163C14.2947 29.4047 14.0957 29.5373 13.7942 29.6557C13.2848 29.7265 12.9363 29.7578 12.4758 29.5275C12.0097 29.125 11.7466 28.7093 11.6885 28.0932C11.7355 27.5384 11.999 27.2713 12.3599 26.8664C12.7137 26.585 13.0814 26.6123 13.5172 26.6226C13.7698 26.6589 13.7698 26.6589 13.9552 26.7653C14.4323 26.9719 15.0081 26.719 15.4788 26.5673C15.5417 26.5475 15.6046 26.5277 15.6694 26.5072C16.1014 26.3701 16.531 26.2264 16.96 26.0802C17.2315 25.988 17.5034 25.8972 17.7754 25.8065C17.9121 25.7605 18.0486 25.7139 18.1848 25.6665C18.3792 25.5991 18.5741 25.5339 18.7693 25.4691C18.8831 25.4303 18.9969 25.3914 19.1142 25.3514C19.6817 25.2454 20.1113 25.521 20.6057 25.78Z" fill="#FFB94A"/>
<path d="M18.5425 13C18.9609 13.3692 19.2467 13.6377 19.3421 14.1963C19.3684 14.6851 19.2488 15.0457 18.9453 15.4292C18.5777 15.7704 18.2154 15.9462 17.7124 15.9725C17.2839 15.9459 17.0276 15.8095 16.6992 15.5269C16.3006 15.0744 16.1703 14.7993 16.177 14.204C16.249 13.6959 16.5415 13.3316 16.9068 12.9878C17.4377 12.8032 18.0176 12.7946 18.5425 13Z" fill="#FF9A44"/>
<path d="M32.8128 12.8892C33.25 13.0844 33.5016 13.3384 33.7214 13.7688C33.8475 14.1302 33.8571 14.4672 33.7893 14.8423C33.542 15.3277 33.2045 15.6718 32.7151 15.9165C32.1379 16.0003 31.7017 15.9253 31.2243 15.5854C30.8707 15.2573 30.6898 14.9063 30.6426 14.4253C30.6648 13.9025 30.8402 13.5988 31.1946 13.2222C31.6879 12.7792 32.1804 12.823 32.8128 12.8892Z" fill="#FF9A44"/>
<path d="M37.2068 26.6592C37.6898 26.8482 38.0501 27.2716 38.281 27.7335C38.3395 28.318 38.2128 28.7199 37.8904 29.1983C37.4385 29.6281 37.0597 29.7237 36.4526 29.7129C36.0215 29.6619 35.7721 29.4487 35.5001 29.1235C35.1646 28.6475 35.0722 28.3109 35.156 27.7335C35.634 26.7958 36.1903 26.5191 37.2068 26.6592Z" fill="#FF9A43"/>
<path d="M13.7691 26.6594C14.2521 26.8484 14.6124 27.2717 14.8433 27.7336C14.9121 28.3987 14.7732 28.7761 14.355 29.2961C13.9483 29.6782 13.5423 29.723 12.9901 29.7138C12.6532 29.6676 12.4599 29.5148 12.2066 29.2961C11.8117 28.7731 11.6625 28.3919 11.7183 27.7336C12.2048 26.798 12.7471 26.5185 13.7691 26.6594Z" fill="#FF9A43"/>
<path d="M25.4885 35.1561C25.9152 35.3694 26.2192 35.6252 26.4651 36.035C26.5888 36.485 26.5864 36.8304 26.459 37.2801C26.1908 37.73 25.8992 38.014 25.3909 38.1835C24.9351 38.2364 24.602 38.2293 24.1885 38.0187C23.666 37.5691 23.4695 37.2572 23.4072 36.5843C23.4536 36.0467 23.6874 35.7686 24.0847 35.4186C24.5394 35.0955 24.9412 35.0955 25.4885 35.1561Z" fill="#FF9A43"/>
<path d="M25.4878 22.8508C25.9709 23.0398 26.3311 23.4631 26.5621 23.925C26.6206 24.5102 26.4933 24.9107 26.1714 25.3898C25.7527 25.7981 25.4821 25.8628 24.9141 25.9086C24.4871 25.9015 24.2518 25.7694 23.9253 25.4875C23.5305 24.9645 23.3813 24.5833 23.4371 23.925C23.9236 22.9894 24.4658 22.7099 25.4878 22.8508Z" fill="#FF9842"/>
</g>
<defs>
<clipPath id="clip0_3139_42841">
<rect width="50" height="50" fill="white"/>
</clipPath>
</defs>
</svg>
