<svg width="50" height="50" viewBox="0 0 50 50" fill="none" xmlns="http://www.w3.org/2000/svg">
<path d="M26.6236 1.89177C31.3722 4.63687 36.8787 6.40235 42.3684 6.76536C42.9131 6.80654 43.3953 6.90725 43.8225 7.27507C44.1181 7.66641 44.2478 7.94363 44.2612 8.42984C44.2638 8.51634 44.2664 8.60285 44.2691 8.69198C44.2715 8.78689 44.2738 8.88179 44.2763 8.97958C44.2792 9.08006 44.282 9.18054 44.285 9.28407C44.2945 9.61995 44.3032 9.95584 44.312 10.2917C44.3184 10.5287 44.3248 10.7657 44.3313 11.0027C44.3502 11.7044 44.3682 12.4061 44.3859 13.1079C44.3909 13.3049 44.3959 13.5018 44.401 13.6988C44.4819 16.8675 44.5611 20.0363 44.5617 23.2063C44.5618 23.4083 44.5623 23.6103 44.5628 23.8123C44.5649 25.2466 44.5257 26.6745 44.4394 28.106C44.4332 28.2085 44.4332 28.2085 44.427 28.313C44.1556 32.7479 42.2441 36.5814 39.1602 39.7458C39.0972 39.8108 39.0342 39.8758 38.9693 39.9428C38.1599 40.7746 37.3497 41.5792 36.4258 42.2848C36.3015 42.3825 36.1773 42.4803 36.0531 42.5782C33.1449 44.8547 29.8837 46.7121 26.5442 48.2785C26.4504 48.3233 26.3565 48.3681 26.2598 48.4142C25.6229 48.7052 25.022 48.9281 24.3222 48.758C24.2377 48.7186 24.1532 48.6792 24.0662 48.6386C23.9664 48.5928 23.8666 48.547 23.7637 48.4997C23.6561 48.4469 23.5484 48.394 23.4375 48.3395C23.3517 48.2977 23.3517 48.2977 23.264 48.255C22.9415 48.0976 22.6208 47.9369 22.3011 47.7738C22.0137 47.6274 21.7246 47.4852 21.4337 47.3458C18.2404 45.8056 15.2733 43.8257 12.5977 41.5036C12.5156 41.4326 12.4335 41.3616 12.349 41.2884C11.2729 40.3389 10.2423 39.329 9.37504 38.1833C9.32736 38.1204 9.27969 38.0575 9.23056 37.9926C7.20586 35.3033 5.76019 32.4718 5.55577 29.0673C5.55168 29.0004 5.54759 28.9334 5.54338 28.8645C5.44513 27.2231 5.43843 25.5828 5.44366 23.9391C5.44439 23.6832 5.44474 23.4273 5.445 23.1714C5.44886 19.9718 5.49965 16.7729 5.56035 13.5739C5.56247 13.4605 5.56459 13.3471 5.56678 13.2302C5.57911 12.5736 5.59194 11.917 5.60556 11.2603C5.60969 11.0601 5.61371 10.8598 5.61762 10.6596C5.67714 7.64237 5.67714 7.64237 6.15239 7.12859C6.63456 6.74412 7.04288 6.651 7.63592 6.57088C7.76624 6.55135 7.76624 6.55135 7.89918 6.53143C8.08504 6.50366 8.27099 6.4765 8.45702 6.44991C8.94564 6.37978 9.43344 6.3043 9.92131 6.22908C10.0663 6.20687 10.0663 6.20687 10.2141 6.1842C14.8819 5.4621 19.6478 4.20631 23.6485 1.62122C23.7167 1.57731 23.7849 1.53341 23.8553 1.48818C23.9158 1.44851 23.9763 1.40884 24.0387 1.36797C24.9569 0.864459 25.8265 1.4138 26.6236 1.89177ZM25 6.34734C25 18.7223 25 31.0973 25 43.8473C26.5072 43.1414 26.5072 43.1414 27.9664 42.3581C28.0595 42.3048 28.1526 42.2515 28.2485 42.1965C30.7373 40.762 33.0697 39.1914 35.1563 37.2067C35.2121 37.1537 35.268 37.1006 35.3255 37.046C38.1758 34.3188 39.739 31.0993 39.8976 27.1527C39.9017 27.0513 39.9058 26.95 39.91 26.8455C39.9544 25.6525 39.9606 24.46 39.9598 23.2663C39.9598 23.083 39.9598 23.083 39.9599 22.8961C39.959 20.5177 39.9127 18.1404 39.8565 15.7627C39.8499 15.4847 39.8435 15.2067 39.837 14.9287C39.8268 14.4885 39.8159 14.0483 39.8047 13.6081C39.8005 13.4448 39.7965 13.2815 39.7926 13.1182C39.7872 12.8933 39.7813 12.6684 39.7752 12.4434C39.7719 12.317 39.7687 12.1905 39.7653 12.0602C39.7476 11.7439 39.7075 11.4435 39.6485 11.1325C39.5563 11.1154 39.4641 11.0982 39.3692 11.0806C34.2744 10.1298 29.647 8.6708 25 6.34734Z" fill="#DCDCDC"/>
</svg>
