<svg width="50" height="50" viewBox="0 0 50 50" fill="none" xmlns="http://www.w3.org/2000/svg">
<path d="M26.5556 2C30.4219 4.7292 31.738 7.13572 33.3812 11.5284C34.2279 13.5132 35.2147 15.0465 36.4983 16.7743C38.3755 19.3041 39.4527 21.6606 40.5063 24.6107C41.3872 26.5852 42.5566 28.1374 43.8455 29.8715C47.665 35.3625 48.2778 41.4267 48.2778 48C32.6761 48 17.0744 48 1 48C2.41975 36.642 2.41975 36.642 5.19271 31.9903C6.01102 30.3159 6.33767 29.1494 6.66764 27.3509C7.32476 24.0935 8.78829 21.7035 10.6233 18.9705C11.2033 18.0797 11.7831 17.1887 12.3627 16.2976C12.6189 15.9127 12.8751 15.5277 13.139 15.1311C13.8187 14.1146 13.8187 14.1146 14.4167 12.8611C16.0098 13.6302 17.4076 14.4291 18.8889 15.4167C19.2817 14.7158 19.6746 14.015 20.0793 13.2929C20.6009 12.3636 21.1225 11.4344 21.6441 10.5052C21.9023 10.0444 22.1605 9.58364 22.4265 9.10889C23.7694 6.71786 25.1281 4.34207 26.5556 2Z" fill="#303845"/>
<path d="M25.6596 42.7741C28.0769 43.6122 29.2347 43.5943 31.6667 42.8889C32.5731 42.4381 33.4664 41.9595 34.342 41.4514C37.4929 39.9771 39.6087 40.5303 42.8272 41.6061C44.7236 42.3612 46.5027 43.1592 48.2778 44.1667C48.2778 45.4317 48.2778 46.6967 48.2778 48C32.6761 48 17.0744 48 1 48C1.21083 46.5242 1.42167 45.0483 1.63889 43.5278C3.66945 42.7526 5.70778 42.0003 7.74826 41.2517C8.32023 41.0331 8.8922 40.8144 9.4815 40.5891C15.8848 38.2671 19.6671 39.9003 25.6596 42.7741Z" fill="#4B7838"/>
<path d="M26.5556 2C30.3795 4.64239 32.591 7.61813 33.5834 12.2222C33.3238 14.0166 33.3238 14.0166 32.9445 15.4167C31.3513 14.6476 29.9536 13.8486 28.4722 12.8611C28.1823 13.3882 27.8925 13.9153 27.5938 14.4583C27.2512 14.9854 26.9086 15.5125 26.5556 16.0556C26.1339 16.0556 25.7122 16.0556 25.2778 16.0556C25.2465 16.5555 25.2152 17.0554 25.183 17.5704C25.1352 18.2169 25.0874 18.8634 25.0382 19.5295C24.9937 20.1744 24.9493 20.8192 24.9035 21.4836C24.8162 22.0115 24.7289 22.5394 24.6389 23.0833C23.3611 23.7222 23.3611 23.7222 21.5643 23.2431C19.3874 22.8318 19.3874 22.8318 17.691 24.6406C17.019 25.451 17.019 25.451 16.3334 26.2778C15.7997 25.7836 15.7997 25.7836 15.2552 25.2795C13.8458 24.2014 13.8458 24.2014 12.2205 24.4809C10.5704 25.0041 8.97986 25.5959 7.38892 26.2778C7.79259 24.3077 8.45706 22.819 9.48777 21.0968C9.77396 20.615 10.0601 20.1332 10.355 19.6368C10.6544 19.1402 10.9537 18.6436 11.2622 18.1319C11.564 17.6255 11.8659 17.119 12.1768 16.5971C12.9206 15.35 13.6673 14.1048 14.4167 12.8611C16.0098 13.6302 17.4076 14.4291 18.8889 15.4167C19.2818 14.7158 19.6746 14.015 20.0793 13.2929C20.6009 12.3636 21.1225 11.4344 21.6441 10.5052C21.9023 10.0444 22.1605 9.58364 22.4265 9.10889C23.7694 6.71786 25.1282 4.34207 26.5556 2Z" fill="#B3BCC9"/>
<path d="M26.5555 2C30.3795 4.64239 32.591 7.61813 33.5833 12.2222C33.3237 14.0166 33.3237 14.0166 32.9444 15.4167C31.3513 14.6476 29.9535 13.8486 28.4722 12.8611C28.1823 13.3882 27.8924 13.9153 27.5937 14.4583C27.2511 14.9854 26.9085 15.5125 26.5555 16.0556C26.1338 16.0556 25.7122 16.0556 25.2777 16.0556C24.2395 14.4583 24.2395 14.4583 23.3611 12.8611C22.3069 13.2828 21.2527 13.7044 20.1666 14.1389C20.9903 12.4743 21.8158 10.8107 22.6423 9.14757C22.8754 8.67608 23.1085 8.20458 23.3486 7.7188C23.5751 7.26378 23.8016 6.80876 24.0349 6.33995C24.2423 5.92173 24.4498 5.50352 24.6635 5.07263C25.2777 3.91667 25.2777 3.91667 26.5555 2Z" fill="#B4BDCA"/>
<path d="M16.9722 39.6945C17.7709 41.0122 17.7709 41.0122 18.25 42.25C17.6175 42.4609 16.985 42.6717 16.3334 42.8889C16.9659 43.5214 17.5984 44.1539 18.25 44.8056C16.4402 45.0221 14.6301 45.2345 12.8195 45.4445C12.061 45.5359 12.061 45.5359 11.2871 45.6291C8.04678 46.001 4.90048 46.1432 1.63892 46.0834C1.63892 45.24 1.63892 44.3967 1.63892 43.5278C3.71133 42.7579 5.78903 42.0035 7.86808 41.2518C8.45611 41.0331 9.04414 40.8144 9.64998 40.5892C10.2182 40.3853 10.7865 40.1815 11.372 39.9715C11.8939 39.7808 12.4159 39.5901 12.9536 39.3936C14.5765 39.0187 15.4353 39.0742 16.9722 39.6945Z" fill="#8DC332"/>
<path d="M37.4166 40.3334C38.522 40.6238 39.6266 40.9172 40.7308 41.2118C41.6536 41.4564 41.6536 41.4564 42.5951 41.706C44.3307 42.2166 45.9722 42.827 47.6388 43.5278C47.6388 44.7928 47.6388 46.0578 47.6388 47.3612C42.1572 47.3612 36.6755 47.3612 31.0277 47.3612C33.1604 46.2948 35.1559 45.5249 37.4166 44.8056C37.4166 43.3298 37.4166 41.8539 37.4166 40.3334Z" fill="#467338"/>
<path d="M14.4167 12.8611C14.8384 12.8611 15.26 12.8611 15.6945 12.8611C15.8197 14.2848 15.9382 15.7091 16.0538 17.1337C16.1206 17.9267 16.1873 18.7198 16.256 19.537C16.3237 21.5234 16.1879 23.0885 15.6945 25C15.0356 24.855 14.3768 24.7101 13.6979 24.5607C10.9132 24.3362 9.73536 24.847 7.38892 26.2778C8.02488 23.2117 9.60424 20.8012 11.1823 18.1319C11.4734 17.6254 11.7646 17.1189 12.0645 16.5971C12.3458 16.1186 12.627 15.6401 12.9168 15.1471C13.1737 14.7084 13.4306 14.2696 13.6953 13.8175C13.9334 13.5019 14.1714 13.1863 14.4167 12.8611Z" fill="#E1E4EB"/>
<path d="M12.7396 23.8819C13.0822 24.0401 13.4248 24.1982 13.7778 24.3611C13.007 24.9738 13.007 24.9738 12.2205 25.599C10.4901 27.667 10.4146 27.9353 10.3438 30.4306C10.2055 33.0419 10.2055 33.0419 8.98616 34.2739C8.19374 34.7955 7.38815 35.2978 6.57036 35.7788C5.04108 36.7832 4.37929 38.0928 3.55561 39.6944C3.34477 39.6944 3.13394 39.6944 2.91672 39.6944C2.47608 36.2574 3.61596 34.342 5.33002 31.5012C6.21837 30.0472 6.21837 30.0472 6.71012 27.9948C7.75502 25.3518 9.79994 23.5725 12.7396 23.8819Z" fill="#646C7F"/>
<path d="M25.9166 2.63892C26.3383 2.84975 26.76 3.06058 27.1944 3.2778C28.4359 7.4457 27.0721 10.3116 25.2777 14.1389C24.6452 13.7172 24.0127 13.2956 23.3611 12.8611C21.6543 13.3733 21.6543 13.3733 20.1666 14.1389C22.0833 10.3056 24 6.47225 25.9166 2.63892Z" fill="#E2E5EB"/>
<path d="M23.3611 12.2222C24.3519 13.2504 24.3519 13.2504 25.2778 14.7778C25.1855 16.7044 25.1855 16.7044 24.7587 18.7708C24.6228 19.4593 24.4869 20.1478 24.3469 20.8572C24.2324 21.381 24.118 21.9048 24 22.4445C21.8994 20.4574 20.2706 18.6008 18.8889 16.0556C21.9236 12.941 21.9236 12.941 23.3611 12.2222Z" fill="#949AAB"/>
<path d="M37.4166 40.9722C38.1354 43.368 38.1354 43.368 37.4166 44.8055C37.8383 45.0163 38.26 45.2272 38.6944 45.4444C33.3095 46.9047 33.3095 46.9047 30.3889 46.7222C29.9672 45.8788 29.5455 45.0355 29.1111 44.1666C30.2544 43.6313 31.3994 43.0995 32.5451 42.5694C33.1826 42.2729 33.82 41.9764 34.4768 41.671C36.1389 40.9722 36.1389 40.9722 37.4166 40.9722Z" fill="#8BC032"/>
<path d="M28.4723 16.0556C30.3455 17.8782 32.0776 19.6658 33.5834 21.8056C33.3726 22.2273 33.1617 22.6489 32.9445 23.0834C32.1934 22.2767 31.4494 21.4636 30.7084 20.6476C30.2933 20.1955 29.8782 19.7433 29.4506 19.2775C28.4723 17.9723 28.4723 17.9723 28.4723 16.0556Z" fill="#505666"/>
<path d="M18.25 26.9167C20.0868 27.3559 20.0868 27.3559 22.0833 28.1945C22.9618 29.8715 22.9618 29.8715 23.3611 31.3889C22.5074 30.7658 21.656 30.1397 20.8056 29.5122C20.3312 29.1638 19.8568 28.8154 19.3681 28.4565C18.9991 28.1592 18.6301 27.8619 18.25 27.5556C18.25 27.3447 18.25 27.1339 18.25 26.9167Z" fill="#474E5C"/>
<path d="M25.9166 25.6389C29.6124 28.4697 29.6124 28.4697 30.309 30.3108C30.3485 30.8445 30.3485 30.8445 30.3888 31.3889C28.4952 29.5949 26.9101 28.0775 25.9166 25.6389Z" fill="#49505D"/>
</svg>
