<svg width="50" height="50" viewBox="0 0 50 50" fill="none" xmlns="http://www.w3.org/2000/svg">
<path d="M20.0392 1.56487C23.2696 4.44947 24.3342 10.5125 24.8724 14.5542C24.8774 14.7925 24.8791 15.031 24.8724 15.2692C24.9522 15.2692 25.0319 15.2692 25.1141 15.2692C25.1207 15.1339 25.1207 15.1339 25.1275 14.9958C25.1938 13.928 25.3748 12.901 25.605 11.858C25.6235 11.7732 25.642 11.6884 25.661 11.601C27.5177 3.12857 27.5177 3.12857 30.9139 0.849863C32.0621 0.175583 33.2211 -0.181976 34.5521 0.0934247C36.6338 0.65491 38.0704 2.16154 39.1244 3.96051C39.6078 4.82242 40.0957 5.70102 40.2179 6.6891C40.3146 6.69878 40.4113 6.70846 40.511 6.71843C41.0682 6.83435 41.5413 7.05031 42.053 7.29239C42.1548 7.34038 42.2566 7.38836 42.3616 7.4378C43.1698 7.82843 43.8726 8.26691 44.5677 8.83413C44.6551 8.90111 44.7425 8.96808 44.8325 9.03709C45.8661 9.86499 46.5641 10.9728 46.9541 12.223C47.1329 14.0304 46.5658 15.4311 45.4135 16.8184C42.5174 19.9731 36.4245 21.0397 32.3639 21.5851C32.082 21.5901 31.8 21.5915 31.5181 21.5851C31.5181 21.6638 31.5181 21.7424 31.5181 21.8235C31.6553 21.83 31.6553 21.83 31.7953 21.8367C32.878 21.902 33.9193 22.0805 34.9769 22.3076C35.0628 22.3258 35.1488 22.344 35.2374 22.3628C43.8239 24.1931 43.8239 24.1931 46.1385 27.5435C46.8163 28.6508 47.1859 29.8349 46.9055 31.1232C46.3361 33.1816 44.8136 34.5987 42.9845 35.6411C42.1106 36.1179 41.2197 36.599 40.2179 36.7195C40.208 36.8149 40.1982 36.9103 40.1881 37.0086C40.0706 37.5581 39.8516 38.0247 39.6062 38.5293C39.5575 38.6298 39.5088 38.7302 39.4587 38.8337C39.0626 39.6308 38.618 40.3239 38.0429 41.0095C37.975 41.0957 37.9071 41.1819 37.8371 41.2707C36.9959 42.2923 35.8367 43.0431 34.5388 43.3631C34.4192 43.3729 34.2996 43.3828 34.1764 43.3929C34.0621 43.4042 34.0621 43.4042 33.9456 43.4157C32.3979 43.5016 31.1051 42.7791 29.9473 41.8437C27.7055 39.8419 26.7713 36.295 26.0807 33.5019C26.0729 33.5851 26.0651 33.6682 26.0571 33.7538C25.4958 39.5609 23.7548 45.3474 19.0882 49.2629C19.0033 49.3314 18.9184 49.3999 18.8309 49.4705C18.7113 49.5712 18.5917 49.672 18.4685 49.7758C17.8598 50.0635 17.2722 50.0499 16.6263 49.8727C16.0748 49.6424 15.7221 49.3209 15.4274 48.8076C15.2335 48.2473 15.2825 47.6703 15.3269 47.0871C15.5283 46.9876 15.5283 46.9876 15.7337 46.886C16.7753 46.3625 17.7094 45.8297 18.5893 45.0613C18.6687 44.9998 18.7482 44.9384 18.83 44.8751C22.0269 42.3426 23.4767 37.6988 24.0266 33.8594C24.0736 33.423 24.1131 32.9862 24.1475 32.5486C24.1299 32.6185 24.1124 32.6884 24.0943 32.7605C22.0765 40.7465 22.0765 40.7465 18.7578 42.7486C17.5444 43.3869 16.37 43.5646 15.0399 43.2067C12.8806 42.5017 11.4782 40.6733 10.4838 38.743C10.1542 38.0772 9.86057 37.4625 9.76869 36.7195C9.67196 36.7098 9.57524 36.7001 9.47558 36.6902C8.91837 36.5742 8.44524 36.3583 7.93358 36.1162C7.83175 36.0682 7.72991 36.0202 7.62499 35.9708C6.81677 35.5802 6.11395 35.1417 5.41881 34.5745C5.33143 34.5075 5.24405 34.4405 5.15402 34.3715C4.1204 33.5436 3.42243 32.4357 3.03241 31.1856C2.85352 29.3771 3.42175 27.9789 4.573 26.5902C7.44283 23.4047 13.6977 22.3189 17.7435 21.8235C17.9851 21.8198 18.2268 21.8188 18.4685 21.8235C18.4685 21.7448 18.4685 21.6662 18.4685 21.5851C18.3733 21.5801 18.2781 21.575 18.1801 21.5698C17.2064 21.5084 16.2787 21.3688 15.3269 21.1606C15.1101 21.1137 15.1101 21.1137 14.8889 21.0658C5.93576 19.0848 5.93576 19.0848 3.72152 15.6793C3 14.4255 2.81496 13.2563 3.191 11.8804C3.91 9.75551 5.76222 8.37383 7.71694 7.39434C8.39204 7.06929 9.01527 6.77972 9.76869 6.6891C9.7785 6.59371 9.78831 6.49831 9.79842 6.40003C9.91596 5.85047 10.1349 5.38386 10.3804 4.87924C10.429 4.7788 10.4777 4.67837 10.5278 4.57489C10.9239 3.77778 11.3685 3.08464 11.9436 2.39905C12.0115 2.31287 12.0795 2.22669 12.1494 2.1379C12.9889 1.1185 14.1122 0.430134 15.3797 0.0454781C17.2124 -0.130855 18.6326 0.428447 20.0392 1.56487Z" fill="#4BAE4F"/>
</svg>
