<svg width="50" height="50" viewBox="0 0 50 50" fill="none" xmlns="http://www.w3.org/2000/svg">
<g clip-path="url(#clip0_1_2712)">
<path d="M24.9695 0.000396267C25.1111 0.000668006 25.1111 0.000667967 25.2554 0.000939706C26.6534 0.00537448 28.0137 0.0550049 29.3891 0.323483C29.5203 0.347037 29.5203 0.347037 29.6542 0.37107C31.9383 0.784384 34.1359 1.5426 36.2166 2.56681C36.286 2.60043 36.3555 2.63404 36.4271 2.66868C42.1467 5.45899 46.5442 10.7102 48.6549 16.6709C49.0057 17.6968 49.2938 18.7283 49.5241 19.7879C49.5584 19.9458 49.5584 19.9458 49.5935 20.107C49.9228 21.7208 50.0062 23.3201 49.9996 24.9634C49.9994 25.0577 49.9992 25.1519 49.9989 25.2491C49.9851 29.099 49.126 32.7506 47.4332 36.2166C47.4025 36.2802 47.372 36.3438 47.3405 36.4093C46.2675 38.6154 44.7428 40.6028 43.0441 42.3614C42.9857 42.4219 42.9272 42.4824 42.867 42.5448C42.1195 43.3155 41.3645 44.0514 40.5081 44.7022C40.4555 44.7428 40.4028 44.7834 40.3484 44.8254C39.3735 45.5747 38.3534 46.2323 37.2895 46.848C37.2234 46.8865 37.1573 46.9248 37.0893 46.9645C34.8539 48.2503 32.3594 49.0896 29.8402 49.6094C29.7708 49.6238 29.7016 49.6382 29.6302 49.653C28.1044 49.9442 26.5794 50.0057 25.0305 49.9996C24.9362 49.9994 24.8417 49.9992 24.7445 49.9991C23.3466 49.9946 21.9864 49.9449 20.6108 49.6765C20.5233 49.6608 20.436 49.645 20.3457 49.629C14.5122 48.5733 8.90249 45.2515 5.2978 40.5081C5.25716 40.4555 5.21652 40.4028 5.17465 40.3484C4.42525 39.3735 3.76762 38.3534 3.15202 37.2895C3.11357 37.2234 3.07511 37.1573 3.03548 37.0893C1.74974 34.8539 0.910395 32.3594 0.390548 29.8402C0.376167 29.7708 0.361787 29.7016 0.346972 29.6302C0.0557875 28.1044 -0.00567981 26.5794 0.000396267 25.0305C0.00058105 24.9362 0.000754923 24.8417 0.000939705 24.7445C0.00537448 23.3466 0.0550049 21.9864 0.323483 20.6108C0.347037 20.4796 0.347037 20.4796 0.371069 20.3457C1.42665 14.5122 4.7485 8.90249 9.49184 5.2978C9.54456 5.25716 9.59727 5.21652 9.65151 5.17465C10.6264 4.42525 11.6466 3.76762 12.7105 3.15202C12.7765 3.11357 12.8426 3.07511 12.9106 3.03548C15.1461 1.74974 17.6405 0.910395 20.1598 0.390548C20.2291 0.376167 20.2985 0.361787 20.3699 0.346972C21.8955 0.0557875 23.4205 -0.00567981 24.9695 0.000396267Z" fill="#46AACC"/>
<path d="M25.0181 3.71388C25.0835 3.71337 25.1489 3.71287 25.2163 3.71235C26.2317 3.70617 27.3416 3.70608 28.3161 4.03087C28.1779 4.41197 27.9959 4.7567 27.8016 5.111C26.3514 7.77074 25.2053 10.8672 25.0688 13.9193C25.0139 15.0735 24.7899 15.6922 23.9941 16.5319C23.6826 16.8697 23.3995 17.2316 23.1101 17.5883C22.7338 18.0449 22.3552 18.4995 21.9762 18.9538C21.5793 18.6623 21.2843 18.3314 20.9887 17.9418C20.8937 17.8189 20.7987 17.696 20.7037 17.573C20.6558 17.5106 20.6077 17.4481 20.5584 17.3837C20.3378 17.0969 20.1148 16.8122 19.8914 16.5276C19.8482 16.4725 19.8049 16.4173 19.7602 16.3604C19.2529 15.7155 18.7358 15.0786 18.2157 14.444C18.1227 14.3305 18.0301 14.2169 17.9379 14.1029C17.5758 13.6591 17.3109 13.4287 16.7249 13.3635C16.2757 13.3462 15.9288 13.3513 15.5145 13.5344C14.8161 14.1852 14.2426 14.9384 13.6579 15.6894C13.3623 16.0685 13.0583 16.4402 12.7531 16.8115C11.7064 18.0845 10.6715 19.3665 9.67458 20.679C9.60393 20.7719 9.53327 20.8648 9.46045 20.9605C9.17317 21.3753 9.14034 21.7791 9.19903 22.27C9.32708 22.7599 9.51784 23.1421 9.93056 23.4465C10.4427 23.7227 10.9745 23.7188 11.5399 23.6355C12.3937 23.2579 12.9806 22.2801 13.5404 21.5596C13.9058 21.0905 14.2816 20.6308 14.6611 20.173C15.259 19.4512 15.8419 18.7188 16.4167 17.9785C16.7792 18.3273 17.0972 18.6952 17.4042 19.094C17.4992 19.2161 17.5942 19.3381 17.6892 19.4602C17.7372 19.522 17.7852 19.5839 17.8346 19.6477C18.6024 20.6377 19.383 21.6169 20.1773 22.5858C20.2702 22.6992 20.3627 22.8129 20.4548 22.9269C20.8062 23.358 21.0731 23.5916 21.6395 23.6699C22.1896 23.6987 22.6024 23.6495 23.0534 23.3234C23.4593 22.9499 23.7863 22.5111 24.1221 22.075C24.2812 21.8727 24.4422 21.6719 24.6036 21.4715C24.6749 21.3816 24.7462 21.2916 24.8197 21.199C24.8791 21.134 24.9386 21.069 24.9999 21.002C25.0642 21.002 25.1286 21.002 25.1949 21.002C25.2169 21.1079 25.2169 21.1079 25.2393 21.216C25.6239 23.0668 25.6239 23.0668 26.1954 24.8661C26.3672 25.3326 26.3672 25.3326 26.3589 25.5995C26.2232 25.8703 26.0394 26.0771 25.8411 26.3055C25.7512 26.4104 25.6616 26.5155 25.5721 26.6206C25.5025 26.7024 25.5025 26.7024 25.4314 26.7857C25.2075 27.0531 24.9941 27.3284 24.7804 27.604C24.3116 28.2058 23.8296 28.7961 23.3423 29.3829C23.0921 29.6846 22.843 29.9865 22.6041 30.2972C22.5358 30.3862 22.4673 30.4751 22.3968 30.5666C22.3118 30.68 22.3118 30.68 22.225 30.7956C22.1751 30.8468 22.1252 30.898 22.0738 30.9507C21.9772 30.9507 21.8806 30.9507 21.7812 30.9507C21.6036 30.7702 21.4461 30.5921 21.2874 30.3959C21.2162 30.3099 21.2162 30.3099 21.1435 30.2219C20.791 29.7927 20.4509 29.3544 20.1151 28.912C19.7267 28.4016 19.3222 27.9051 18.9159 27.4089C18.6289 27.0579 18.348 26.7041 18.0748 26.3421C17.7699 25.9466 17.4846 25.6495 17.002 25.4887C16.4796 25.4427 15.9992 25.4145 15.5145 25.6289C14.8839 26.2165 14.3587 26.8855 13.831 27.5645C13.4656 28.0337 13.0898 28.4934 12.7103 28.9512C12.2532 29.5031 11.8042 30.0601 11.3645 30.626C10.9368 31.1741 10.4928 31.7085 10.0459 32.2409C9.5074 32.8875 9.15501 33.3829 9.17273 34.252C9.23077 34.7148 9.41719 35.0752 9.7511 35.3996C10.204 35.7297 10.6282 35.8073 11.1833 35.7745C12.1574 35.6069 12.7186 34.7035 13.2956 33.9743C13.3641 33.8879 13.3641 33.8879 13.4341 33.7996C13.6616 33.5121 13.8878 33.2234 14.1132 32.9342C14.4083 32.5564 14.7127 32.1867 15.0185 31.8175C15.1924 31.6025 15.3617 31.386 15.529 31.1659C15.5772 31.103 15.6254 31.04 15.6751 30.9751C15.7697 30.851 15.8636 30.7265 15.9566 30.6013C16.0708 30.4522 16.1944 30.3106 16.3191 30.1704C16.4158 30.1704 16.5123 30.1704 16.6117 30.1704C16.8091 30.3929 16.8091 30.3929 17.0385 30.7068C17.1254 30.8239 17.2125 30.9407 17.2999 31.0574C17.3462 31.1195 17.3926 31.1816 17.4403 31.2456C17.6924 31.5766 17.9571 31.8971 18.2211 32.2187C18.609 32.6926 18.9902 33.17 19.3611 33.6573C19.6845 34.079 20.0088 34.4995 20.3425 34.9131C20.4174 35.0069 20.4924 35.1006 20.5696 35.1973C20.9598 35.5938 21.354 35.7725 21.9091 35.7848C22.5284 35.7606 22.8973 35.5709 23.3417 35.1447C23.6678 34.7666 23.9679 34.3731 24.2668 33.9734C24.5252 33.6338 24.7965 33.3046 25.0668 32.9745C25.1744 32.8427 25.2821 32.7107 25.3896 32.5787C25.44 32.5168 25.4904 32.455 25.5423 32.3913C25.7286 32.162 25.913 31.9315 26.0971 31.7005C26.5068 31.1866 26.9236 30.6783 27.3406 30.1704C27.7544 30.3207 27.9637 30.6292 28.2185 30.969C28.3139 31.0933 28.4094 31.2177 28.505 31.342C28.5788 31.4384 28.5788 31.4384 28.654 31.5368C28.8947 31.8489 29.1418 32.1555 29.3889 32.4625C29.7272 32.8834 30.0624 33.3064 30.3934 33.733C30.7589 34.2029 31.1288 34.6685 31.5164 35.1203C31.5814 35.1963 31.6464 35.2722 31.7133 35.3505C32.1103 35.6966 32.518 35.7437 33.0282 35.7421C33.5881 35.7871 33.8163 35.9821 34.2051 36.3696C35.7856 37.8417 38.0383 39.0094 40.0203 39.8265C40.0203 40.1191 40.0203 40.1191 39.8839 40.2661C39.8203 40.3181 39.7567 40.3702 39.6912 40.4239C39.3867 40.6774 39.0952 40.9381 38.8073 41.2102C37.6524 42.2484 36.311 43.088 34.9485 43.8254C34.8805 43.8622 34.8125 43.899 34.7425 43.9369C32.6637 45.0381 30.349 45.7497 28.0235 46.0687C27.9138 46.0856 27.8042 46.1025 27.6913 46.12C26.7968 46.2522 25.9214 46.2955 25.0181 46.2882C24.95 46.2879 24.8818 46.2874 24.8116 46.2871C23.7591 46.2811 22.7217 46.2535 21.6836 46.0687C21.6005 46.054 21.5174 46.0393 21.4317 46.0242C16.9087 45.1928 13.0153 43.0628 9.78425 39.8265C9.71762 39.7632 9.65099 39.6999 9.5824 39.6347C8.92675 39.0054 8.37787 38.3081 7.83357 37.5831C7.77234 37.5019 7.71111 37.4207 7.64803 37.337C5.67036 34.6101 4.38902 31.3553 3.93215 28.0246C3.91521 27.915 3.89826 27.8054 3.8808 27.6925C3.74867 26.798 3.70537 25.9226 3.7127 25.0193C3.71303 24.9512 3.71336 24.883 3.71371 24.8128C3.71975 23.7603 3.74729 22.723 3.93215 21.6848C3.95419 21.5601 3.95419 21.5601 3.97667 21.4329C4.80812 16.9099 6.93811 13.0165 10.1745 9.78542C10.2376 9.71879 10.3009 9.65216 10.3661 9.58358C10.9956 8.92793 11.6927 8.37906 12.4177 7.83475C12.4989 7.77353 12.5802 7.7123 12.6638 7.64921C15.2851 5.74813 18.4692 4.38686 21.6836 3.93334C21.7975 3.91536 21.9114 3.89737 22.0288 3.87885C23.0226 3.73652 24.016 3.71739 25.0181 3.71388Z" fill="#4297C6"/>
<path d="M24.9695 0.000396267C25.1111 0.000668006 25.1111 0.000667967 25.2554 0.000939706C26.6534 0.00537448 28.0137 0.0550049 29.3891 0.323483C29.5203 0.347037 29.5203 0.347037 29.6542 0.37107C31.9383 0.784384 34.1359 1.5426 36.2166 2.56681C36.286 2.60043 36.3555 2.63404 36.4271 2.66868C42.1467 5.45899 46.5442 10.7102 48.6549 16.6709C49.0057 17.6968 49.2938 18.7283 49.5241 19.7879C49.5584 19.9458 49.5584 19.9458 49.5935 20.107C49.9228 21.7208 50.0062 23.3201 49.9996 24.9634C49.9994 25.0577 49.9992 25.1519 49.9989 25.2491C49.9851 29.099 49.126 32.7506 47.4332 36.2166C47.4025 36.2802 47.372 36.3438 47.3405 36.4093C46.2675 38.6154 44.7428 40.6028 43.0441 42.3614C42.9857 42.4219 42.9272 42.4824 42.867 42.5448C42.1195 43.3155 41.3645 44.0514 40.5081 44.7022C40.4555 44.7428 40.4028 44.7834 40.3484 44.8254C39.3735 45.5747 38.3534 46.2323 37.2895 46.848C37.2234 46.8865 37.1573 46.9248 37.0893 46.9645C34.8539 48.2503 32.3594 49.0896 29.8402 49.6094C29.7708 49.6238 29.7016 49.6382 29.6302 49.653C28.1044 49.9442 26.5794 50.0057 25.0305 49.9996C24.9362 49.9994 24.8417 49.9992 24.7445 49.9991C23.3466 49.9946 21.9864 49.9449 20.6108 49.6765C20.5233 49.6608 20.436 49.645 20.3457 49.629C14.5122 48.5733 8.90249 45.2515 5.2978 40.5081C5.25716 40.4555 5.21652 40.4028 5.17465 40.3484C4.42525 39.3735 3.76762 38.3534 3.15202 37.2895C3.11357 37.2234 3.07511 37.1573 3.03548 37.0893C1.74974 34.8539 0.910395 32.3594 0.390548 29.8402C0.376167 29.7708 0.361787 29.7016 0.346972 29.6302C0.0557875 28.1044 -0.00567981 26.5794 0.000396267 25.0305C0.00058105 24.9362 0.000754923 24.8417 0.000939705 24.7445C0.00537448 23.3466 0.0550049 21.9864 0.323483 20.6108C0.347037 20.4796 0.347037 20.4796 0.371069 20.3457C1.42665 14.5122 4.7485 8.90249 9.49184 5.2978C9.54456 5.25716 9.59727 5.21652 9.65151 5.17465C10.6264 4.42525 11.6466 3.76762 12.7105 3.15202C12.7765 3.11357 12.8426 3.07511 12.9106 3.03548C15.1461 1.74974 17.6405 0.910395 20.1598 0.390548C20.2291 0.376167 20.2985 0.361787 20.3699 0.346972C21.8955 0.0557875 23.4205 -0.00567981 24.9695 0.000396267ZM21.6838 3.9323C21.6006 3.947 21.5176 3.96169 21.4319 3.97684C17.342 4.72866 13.5526 6.55241 10.5423 9.4339C10.2722 9.68695 10.2722 9.68695 10.0119 9.89456C9.80923 10.0572 9.64738 10.2151 9.47966 10.4123C9.42184 10.4802 9.36401 10.5481 9.30434 10.618C9.23749 10.6971 9.17064 10.776 9.10173 10.8574C9.01869 10.9524 8.93575 11.0474 8.85021 11.1453C6.30613 14.0737 4.47679 17.8248 3.9323 21.6838C3.91433 21.7977 3.89635 21.9116 3.87782 22.029C3.26496 26.2878 4.03016 30.7333 5.98055 34.5584C6.01837 34.6329 6.05618 34.7073 6.09514 34.784C6.92816 36.3996 7.9647 37.841 9.17184 39.1965C9.33869 39.3851 9.49999 39.5782 9.66249 39.7705C9.93705 40.0828 10.2342 40.3544 10.5517 40.6224C10.6935 40.744 10.8322 40.8691 10.9678 40.9973C13.8086 43.6744 17.8263 45.5234 21.6838 46.0677C21.8546 46.0946 21.8546 46.0946 22.029 46.1221C26.2064 46.7233 30.5947 46.0031 34.3634 44.117C34.4665 44.0665 34.4665 44.0665 34.5717 44.0149C36.7101 42.9622 38.5391 41.5101 40.2155 39.8254C40.2821 39.7621 40.3489 39.6989 40.4174 39.6338C43.9891 36.2047 46.1193 30.9419 46.2734 26.0237C46.2793 25.6458 46.2817 25.2681 46.281 24.8903C46.2809 24.8232 46.2808 24.7563 46.2807 24.6873C46.2778 23.6724 46.2525 22.6838 46.0677 21.6838C46.053 21.602 46.0383 21.5203 46.0231 21.4361C45.1852 16.9098 43.066 13.0198 39.8254 9.78445C39.7621 9.71782 39.6989 9.65119 39.6337 9.58249C36.1271 5.93003 30.7701 3.8245 25.7536 3.70637C24.3942 3.68333 23.0252 3.69345 21.6838 3.9323Z" fill="#75B7E4"/>
<path d="M28.7064 13.6861C28.8944 13.8768 29.0591 14.0576 29.2245 14.2652C29.2703 14.3208 29.316 14.3766 29.3631 14.4339C29.7085 14.8573 30.0426 15.2898 30.3728 15.7253C30.7576 16.2315 31.1606 16.722 31.5642 17.2133C31.9509 17.6869 32.3115 18.1715 32.6578 18.6756C32.7056 18.7349 32.7535 18.7943 32.8029 18.8555C32.8672 18.8555 32.9317 18.8555 32.998 18.8555C33.1602 18.6659 33.3113 18.4753 33.4613 18.2764C33.8819 17.7291 34.3126 17.192 34.7536 16.6609C35.1783 16.1487 35.5954 15.6321 36.0033 15.1065C37.4219 13.2955 37.4219 13.2955 38.1673 13.1984C38.7594 13.1782 39.1695 13.2985 39.6304 13.6861C40.044 14.1243 40.2317 14.4151 40.246 15.0211C40.2497 15.1201 40.2534 15.219 40.2571 15.3209C40.1614 16.049 39.6255 16.5882 39.1671 17.1303C39.0438 17.2781 38.9204 17.4259 38.7971 17.5737C38.7384 17.6441 38.6796 17.7143 38.6191 17.7866C38.4309 18.0125 38.2466 18.2412 38.0637 18.4715C37.7274 18.8945 37.3869 19.3141 37.0457 19.7333C36.7028 20.1547 36.3603 20.5765 36.0216 21.0012C35.6751 21.4349 35.3278 21.8678 34.9792 22.2997C34.9258 22.3662 34.8725 22.4329 34.8175 22.5015C33.8633 23.681 33.8633 23.681 33.219 23.7684C32.6568 23.7808 32.197 23.778 31.7339 23.4378C31.3091 23.0253 30.9645 22.5455 30.6101 22.0732C30.3573 21.7419 30.0923 21.4209 29.8281 21.0987C29.0445 20.1386 28.2732 19.1691 27.5359 18.1728C27.1414 18.3043 26.985 18.5716 26.7436 18.892C26.6466 19.0181 26.5495 19.1441 26.4525 19.27C26.4044 19.3324 26.3565 19.3949 26.307 19.4594C26.1236 19.6965 25.9343 19.9285 25.7438 20.16C25.4359 20.534 25.1294 20.909 24.8242 21.285C24.7143 21.4205 24.6042 21.5558 24.4939 21.6909C24.2504 21.9896 24.0081 22.2888 23.7725 22.5938C22.9375 23.6596 22.9375 23.6596 22.2107 23.7711C21.6741 23.8021 21.2535 23.7507 20.814 23.432C20.3378 22.9924 19.9395 22.4834 19.538 21.9766C19.4933 21.9206 19.4487 21.8645 19.4027 21.8067C19.133 21.4677 18.866 21.1267 18.6002 20.7846C18.1998 20.2698 17.7967 19.7572 17.3923 19.2456C17.3497 19.1915 17.307 19.1374 17.2631 19.0817C17.1423 18.9285 17.0204 18.7761 16.8985 18.6239C16.829 18.5366 16.7594 18.4493 16.6878 18.3594C16.6306 18.2978 16.5733 18.2362 16.5144 18.1728C16.4501 18.1728 16.3857 18.1728 16.3194 18.1728C16.1551 18.3643 16.0019 18.5568 15.85 18.758C15.7527 18.8843 15.6553 19.0105 15.5578 19.1367C15.5067 19.2028 15.4557 19.269 15.4031 19.3371C15.1485 19.6641 14.8867 19.9853 14.6248 20.3063C14.5722 20.3708 14.5197 20.4352 14.4655 20.5016C14.3579 20.6334 14.2503 20.7653 14.1427 20.8971C13.9748 21.1034 13.8074 21.3102 13.6402 21.5171C12.7202 22.6554 12.7202 22.6554 12.3204 23.1287C12.2741 23.1837 12.2279 23.2386 12.1802 23.2953C11.8114 23.6447 11.4851 23.7771 10.9793 23.7871C10.3521 23.7686 9.93086 23.599 9.49195 23.147C9.13369 22.6199 9.02988 22.1157 9.10173 21.489C9.31401 20.9787 9.62836 20.591 9.97956 20.1722C10.094 20.0337 10.2083 19.8952 10.3225 19.7566C10.3797 19.6873 10.4367 19.6181 10.4956 19.5469C10.7428 19.2448 10.9833 18.9378 11.2231 18.6299C11.6012 18.1461 11.9853 17.6682 12.3753 17.194C12.6627 16.8443 12.949 16.4937 13.2349 16.1428C13.2887 16.0767 13.3426 16.0107 13.3981 15.9427C13.6616 15.6185 13.9223 15.2927 14.1766 14.9612C15.2207 13.6015 15.2207 13.6015 15.8317 13.2959C16.4247 13.241 17.0203 13.1946 17.5264 13.5463C18.2473 14.1822 18.8126 14.9949 19.4001 15.7517C19.6201 16.0351 19.841 16.3177 20.0624 16.5999C20.1053 16.6547 20.1482 16.7095 20.1925 16.766C20.7458 17.4695 21.3127 18.1623 21.8789 18.8555C22.2275 18.515 22.5529 18.1619 22.8665 17.7886C22.9128 17.7337 22.9592 17.6787 23.0069 17.6221C23.3792 17.1778 23.7387 16.7243 24.0949 16.267C24.4523 15.8087 24.8162 15.3561 25.1829 14.9053C25.2352 14.841 25.2874 14.7768 25.3412 14.7107C25.4405 14.5889 25.54 14.4671 25.6396 14.3457C25.7324 14.2324 25.8243 14.1187 25.9155 14.0043C26.6836 13.0524 27.7321 12.9989 28.7064 13.6861Z" fill="#75B7E4"/>
<path d="M28.2187 25.4328C28.7135 25.7105 29.0391 26.1224 29.3892 26.5606C29.4293 26.6107 29.4694 26.6608 29.5107 26.7125C29.7845 27.0556 30.0548 27.4015 30.324 27.7483C30.544 28.0317 30.765 28.3143 30.9862 28.5966C31.0293 28.6516 31.0722 28.7065 31.1164 28.7631C31.3686 29.0844 31.6247 29.4021 31.8843 29.7176C31.9427 29.7887 32.0012 29.8599 32.0614 29.9332C32.1761 30.0724 32.2911 30.2112 32.4065 30.3495C32.4842 30.4437 32.4842 30.4437 32.5632 30.5397C32.6095 30.5954 32.6558 30.651 32.7035 30.7084C32.8028 30.8521 32.8028 30.8521 32.8028 31.0472C33.2061 30.6604 33.557 30.2454 33.9062 29.8097C33.9625 29.74 34.0187 29.6703 34.0768 29.5984C34.4285 29.1622 34.7785 28.7244 35.1281 28.2865C35.5711 27.7338 36.017 27.1834 36.466 26.6357C36.5827 26.4926 36.6978 26.348 36.8125 26.2032C37.2578 25.6578 37.6974 25.3546 38.3989 25.2378C39.0439 25.3378 39.6373 25.5896 40.0327 26.1278C40.2975 26.6281 40.3321 27.1826 40.2156 27.7309C39.9351 28.2932 39.5309 28.7751 39.1304 29.255C39.0172 29.3925 38.904 29.53 38.791 29.6676C38.735 29.7357 38.679 29.8038 38.6213 29.8739C38.3864 30.162 38.1578 30.455 37.9296 30.7485C37.4732 31.334 37.0024 31.9069 36.5286 32.4783C36.2124 32.8605 35.9019 33.2458 35.5985 33.6383C35.2072 34.1446 34.8068 34.6407 34.3818 35.1193C34.2986 35.2133 34.2155 35.3075 34.1299 35.4043C33.7061 35.783 33.2695 35.8693 32.7061 35.8501C31.7272 35.732 31.1971 34.9301 30.6327 34.211C30.4919 34.0298 30.3516 33.8482 30.2114 33.6664C29.9916 33.3815 29.7698 33.0981 29.5476 32.8151C29.5045 32.7601 29.4614 32.7051 29.4171 32.6484C28.9994 32.1171 28.5729 31.5932 28.1445 31.0707C28.0934 31.0082 28.0423 30.9458 27.9897 30.8815C27.9445 30.8263 27.8992 30.7712 27.8525 30.7143C27.7397 30.5706 27.6373 30.419 27.5359 30.2669C27.1976 30.4076 27.0311 30.5744 26.8106 30.8643C26.7091 30.9952 26.7091 30.9952 26.6056 31.1288C26.5677 31.1776 26.53 31.2265 26.4911 31.2768C26.2489 31.5863 25.9985 31.8891 25.7498 32.1932C25.3388 32.6977 24.932 33.2051 24.5306 33.7172C24.4866 33.7731 24.4425 33.8291 24.3972 33.8867C24.1993 34.1385 24.0038 34.3914 23.8121 34.648C23.3676 35.2334 22.9583 35.7471 22.2005 35.8688C21.6061 35.8955 21.1941 35.7927 20.7084 35.4363C20.501 35.241 20.3211 35.0293 20.1416 34.8084C20.0661 34.7181 20.0661 34.7181 19.9891 34.6258C19.6283 34.1905 19.2808 33.7455 18.9396 33.2946C18.6087 32.858 18.264 32.4339 17.9165 32.0104C17.426 31.4118 16.959 30.8032 16.5144 30.1694C16.2016 30.4752 15.9111 30.7859 15.6366 31.1265C15.5609 31.22 15.4853 31.3135 15.4072 31.41C15.3455 31.4865 15.3455 31.4865 15.2826 31.5646C15.1383 31.7431 14.9932 31.921 14.848 32.0988C14.3768 32.6759 13.9072 33.254 13.4495 33.842C11.9653 35.748 11.9653 35.748 11.1988 35.863C10.5813 35.9042 10.1688 35.7969 9.67549 35.4203C9.28017 35.0348 9.0868 34.6165 9.05908 34.0647C9.13549 33.3765 9.43212 32.9027 9.86375 32.3762C9.91006 32.3183 9.95636 32.2606 10.0041 32.201C10.4396 31.6602 10.8831 31.1257 11.3259 30.5908C11.7263 30.1065 12.1176 29.6159 12.504 29.1204C13.0026 28.4821 13.5149 27.8552 14.0274 27.2281C14.1621 27.0622 14.2956 26.8955 14.4284 26.7282C15.2766 25.6677 15.2766 25.6677 15.8317 25.3902C16.0182 25.3756 16.2054 25.3686 16.3925 25.3657C16.4925 25.3632 16.5927 25.3607 16.6958 25.3581C17.5368 25.4461 17.9596 26.0474 18.4652 26.6581C18.7329 26.9896 18.9953 27.3253 19.2565 27.662C19.5893 28.0908 19.929 28.514 20.2695 28.9366C20.5206 29.249 20.7681 29.5633 21.0106 29.8825C21.0592 29.9459 21.1078 30.0095 21.1579 30.0749C21.2506 30.1964 21.3425 30.3184 21.4337 30.441C21.5429 30.5834 21.6615 30.7187 21.7813 30.8521C22.0701 30.8852 22.0701 30.8852 22.2155 30.7216C22.2887 30.6304 22.2887 30.6304 22.3635 30.5375C22.4186 30.4696 22.4738 30.4019 22.5306 30.332C22.6184 30.2214 22.6184 30.2214 22.708 30.1084C22.769 30.0329 22.8299 29.9575 22.8926 29.8796C23.3028 29.3704 23.7075 28.857 24.1097 28.3415C24.4622 27.8899 24.8214 27.444 25.1829 26.9994C25.2351 26.9352 25.2874 26.8709 25.3412 26.8047C25.4406 26.6829 25.5401 26.5612 25.6399 26.4396C25.7318 26.3272 25.8229 26.2142 25.9129 26.1005C26.5143 25.3504 27.3073 25.0465 28.2187 25.4328Z" fill="#75B7E4"/>
<path d="M22.0738 4.03068C21.8093 4.38768 21.4338 4.42842 21.0252 4.52446C18.0523 5.28975 15.2775 6.97413 13.0029 9.00497C12.9195 9.07671 12.836 9.14834 12.75 9.22215C10.6259 11.0706 9.05827 13.3963 7.83967 15.9178C7.79709 16.0058 7.75452 16.0938 7.71066 16.1844C7.14931 17.3791 6.77842 18.6014 6.49245 19.8863C6.46269 20.0169 6.43284 20.1476 6.40292 20.2781C6.32586 20.6167 6.24953 20.9553 6.17546 21.2945C6.15755 21.3759 6.13964 21.4573 6.12117 21.5413C5.92918 22.6109 5.95942 23.7321 5.95696 24.8157C5.95602 25.0658 5.95299 25.3159 5.94992 25.566C5.91851 30.5156 8.06043 35.345 11.3175 39.0022C11.4842 39.1908 11.6457 39.384 11.8082 39.5763C12.0759 39.8798 12.3616 40.1471 12.6708 40.408C12.8521 40.5614 13.03 40.7169 13.2072 40.8751C14.0037 41.5813 14.8272 42.195 15.7339 42.7523C15.8461 42.8217 15.8461 42.8217 15.9605 42.8925C18.8931 44.6879 22.0263 45.6613 25.4388 45.9405C25.5867 45.9532 25.7347 45.9659 25.8826 45.9788C26.2385 46.0095 26.5946 46.0393 26.9505 46.0685C26.6003 46.2868 26.3089 46.2887 25.9013 46.2895C25.8373 46.2898 25.7734 46.29 25.7075 46.2904C25.5 46.2908 25.2926 46.2895 25.0852 46.288C25.0143 46.2876 24.9435 46.2873 24.8705 46.287C23.7984 46.281 22.7414 46.2569 21.6836 46.0685C21.6005 46.0538 21.5174 46.0392 21.4317 46.0239C16.9087 45.1925 13.0153 43.0625 9.78425 39.8262C9.71762 39.763 9.65099 39.6997 9.5824 39.6346C8.92675 39.0051 8.37787 38.308 7.83357 37.5829C7.77234 37.5017 7.71111 37.4205 7.64803 37.3368C5.67036 34.6099 4.38902 31.355 3.93215 28.0244C3.91521 27.9148 3.89826 27.8052 3.8808 27.6922C3.74867 26.7978 3.70537 25.9224 3.7127 25.0191C3.71303 24.9509 3.71336 24.8828 3.71371 24.8126C3.71975 23.7602 3.74729 22.7228 3.93215 21.6846C3.95419 21.56 3.95419 21.56 3.97667 21.4328C4.80812 16.9097 6.93811 13.0163 10.1745 9.7853C10.2376 9.71867 10.3009 9.65204 10.3661 9.58334C10.9956 8.92769 11.6927 8.37888 12.4177 7.83457C12.4989 7.77333 12.5802 7.71211 12.6639 7.64902C15.2396 5.78099 18.8176 3.97356 22.0738 4.03068Z" fill="#3085AA"/>
<path d="M28.7061 13.6861C28.8941 13.8768 29.0588 14.0576 29.2243 14.2652C29.27 14.3208 29.3157 14.3766 29.3628 14.4339C29.7082 14.8573 30.0422 15.2898 30.3725 15.7253C30.7572 16.2315 31.1603 16.722 31.5639 17.2133C31.9506 17.6869 32.3111 18.1715 32.6574 18.6756C32.7293 18.7646 32.7293 18.7646 32.8026 18.8555C32.867 18.8555 32.9314 18.8555 32.9977 18.8555C33.1598 18.6659 33.311 18.4753 33.4609 18.2764C33.8816 17.7291 34.3122 17.192 34.7533 16.6609C35.1781 16.1487 35.595 15.6321 36.003 15.1065C37.4216 13.2955 37.4216 13.2955 38.167 13.1984C38.7591 13.1782 39.1693 13.2985 39.63 13.6861C40.0436 14.1243 40.2313 14.4151 40.2458 15.0211C40.2512 15.1695 40.2512 15.1695 40.2568 15.3209C40.1611 16.049 39.6252 16.5882 39.1668 17.1303C39.0434 17.2781 38.9202 17.4259 38.7968 17.5737C38.7381 17.6441 38.6793 17.7143 38.6187 17.7866C38.4306 18.0125 38.2462 18.2412 38.0634 18.4715C37.7271 18.8945 37.3866 19.3141 37.0454 19.7333C36.7024 20.1547 36.3599 20.5765 36.0212 21.0012C35.6748 21.4349 35.3274 21.8678 34.9789 22.2997C34.9255 22.3662 34.8721 22.4329 34.8171 22.5015C33.863 23.681 33.863 23.681 33.2186 23.7684C32.6565 23.7808 32.1967 23.778 31.7335 23.4378C31.3089 23.0253 30.9642 22.5455 30.6098 22.0732C30.3571 21.7419 30.092 21.4209 29.8278 21.0987C29.0442 20.1386 28.273 19.1691 27.5357 18.1728C27.141 18.3043 26.9846 18.5716 26.7432 18.892C26.6477 19.0162 26.552 19.1403 26.4563 19.2643C26.4085 19.3266 26.3607 19.3887 26.3115 19.453C26.1034 19.7221 25.8907 19.9871 25.6764 20.2515C25.5721 20.3806 25.5721 20.3806 25.4657 20.5124C25.2923 20.7086 25.2923 20.7086 25.0972 20.8062C25.0662 20.6356 25.0358 20.4649 25.0058 20.2942C24.9889 20.1991 24.9719 20.1041 24.9544 20.0061C24.8822 19.4937 24.8427 18.9812 24.8046 18.4654C24.7949 18.3466 24.7851 18.2278 24.7751 18.1055C24.5802 15.458 24.5802 15.458 25.26 14.5533C26.2232 13.4647 27.3597 12.7364 28.7061 13.6861Z" fill="#84C7EC"/>
<path d="M28.2187 25.4328C28.7135 25.7105 29.0391 26.1224 29.3892 26.5606C29.4293 26.6107 29.4694 26.6608 29.5107 26.7125C29.7845 27.0556 30.0548 27.4015 30.3241 27.7483C30.5441 28.0317 30.765 28.3143 30.9862 28.5966C31.0293 28.6516 31.0722 28.7065 31.1164 28.7631C31.3686 29.0844 31.6247 29.4021 31.8843 29.7176C31.9428 29.7887 32.0012 29.8599 32.0616 29.9332C32.1761 30.0724 32.2911 30.2112 32.4066 30.3495C32.4583 30.4124 32.5099 30.4751 32.5632 30.5397C32.6095 30.5954 32.6558 30.651 32.7035 30.7084C32.8029 30.8521 32.8029 30.8521 32.8029 31.0472C33.2061 30.6604 33.557 30.2454 33.9062 29.8097C33.9625 29.74 34.0187 29.6703 34.0768 29.5984C34.4285 29.1622 34.7785 28.7244 35.1281 28.2865C35.5711 27.7338 36.017 27.1834 36.466 26.6357C36.5827 26.4926 36.6979 26.348 36.8125 26.2032C37.2579 25.6578 37.6974 25.3546 38.3989 25.2378C39.0439 25.3378 39.6373 25.5896 40.0327 26.1278C40.2975 26.6281 40.3321 27.1826 40.2156 27.7309C39.9351 28.2932 39.5309 28.7751 39.1305 29.255C39.0172 29.3925 38.904 29.53 38.791 29.6676C38.735 29.7357 38.679 29.8038 38.6213 29.8739C38.3864 30.162 38.1579 30.455 37.9296 30.7485C37.4732 31.334 37.0024 31.9069 36.5286 32.4783C36.2124 32.8605 35.9018 33.2458 35.5985 33.6383C35.2054 34.1469 34.8029 34.6448 34.3757 35.1254C34.2914 35.2206 34.2072 35.3157 34.1204 35.4139C33.8533 35.6514 33.7388 35.705 33.3881 35.7289C33.197 35.6156 33.197 35.6156 33.0159 35.4408C32.9488 35.3775 32.8818 35.314 32.8128 35.2486C32.7451 35.1818 32.6775 35.1151 32.6079 35.0461C32.5436 34.9848 32.4794 34.9235 32.4132 34.8604C31.6105 34.089 30.845 33.2991 30.1694 32.4127C30.0755 32.2923 29.9815 32.1719 29.8874 32.0515C28.4069 30.1365 27.1865 27.9619 26.3655 25.6828C26.9315 25.2339 27.5523 25.1437 28.2187 25.4328Z" fill="#84C7EC"/>
</g>
<defs>
<clipPath id="clip0_1_2712">
<rect width="50" height="50" fill="white"/>
</clipPath>
</defs>
</svg>
