<svg width="50" height="50" viewBox="0 0 50 50" fill="none" xmlns="http://www.w3.org/2000/svg">
<path d="M32.5408 9.2451C33.1763 9.66735 33.7482 10.1582 34.3051 10.6785C35.2901 11.5764 36.3994 12.0537 37.6377 12.4796C39.1961 13.0176 40.7165 13.5873 41.9713 14.6914C42.7375 15.3609 43.4927 15.8891 44.4006 16.3512C45.3833 16.8512 46.3111 17.3906 46.9919 18.2808C47.0626 18.3709 47.1334 18.461 47.2063 18.5538C47.3216 18.7007 47.3216 18.7007 47.4391 18.8505C47.6311 19.085 47.8258 19.3171 48.021 19.5489C48.0674 19.6047 48.1138 19.6604 48.1616 19.7178C48.4022 20.0124 48.4022 20.0124 48.7133 20.2227C48.778 20.0286 48.8426 19.8346 48.9093 19.6347C49.1621 20.0139 49.1457 20.3064 49.1696 20.7527C49.1874 21.0297 49.1874 21.0297 49.3994 21.3009C49.4418 21.2221 49.4843 21.1432 49.5281 21.062C49.6935 20.8108 49.6935 20.8108 49.9874 20.7128C50.024 21.3729 49.9963 21.8818 49.6935 22.4771C49.4606 22.6792 49.4606 22.6792 49.2034 22.7712C48.7721 22.7319 48.7721 22.7319 48.6153 22.5751C48.584 22.3734 48.5651 22.1717 48.5449 21.9686C48.5349 21.7894 48.5349 21.7894 48.4192 21.6929C48.3694 21.7864 48.3196 21.8797 48.2683 21.976C48.2003 22.1001 48.1321 22.2243 48.0639 22.3484C48.0152 22.4405 48.0152 22.4404 47.9655 22.5343C47.6738 23.0601 47.3425 23.4568 46.753 23.6533C46.489 23.6707 46.2341 23.6618 45.9688 23.6533C45.8709 23.5552 45.8709 23.5552 45.8525 23.2735C45.8577 22.7709 45.9674 22.282 46.0669 21.791C45.5771 22.1731 45.2615 22.5372 44.9301 23.0602C44.6441 23.4785 44.2879 23.6998 43.8126 23.8493C43.5127 23.8776 43.2143 23.8768 42.9132 23.8753C42.8265 23.8755 42.7399 23.8757 42.6506 23.8759C42.4676 23.876 42.2847 23.8757 42.1017 23.8748C41.8236 23.8738 41.5456 23.8748 41.2674 23.8761C41.0891 23.876 40.9107 23.8757 40.7324 23.8753C40.6089 23.8759 40.6089 23.8759 40.4829 23.8765C39.8808 23.8718 39.2695 23.8464 38.7709 23.4756C38.6005 23.237 38.5519 23.0605 38.5198 22.7712C38.4551 22.8035 38.3904 22.8358 38.3237 22.8691C38.1876 22.8785 38.051 22.882 37.9145 22.8822C37.8333 22.8823 37.7521 22.8824 37.6685 22.8826C37.5835 22.8822 37.4985 22.8818 37.4109 22.8814C37.2852 22.882 37.2852 22.882 37.1569 22.8826C36.7493 22.8819 36.3687 22.8743 35.9714 22.7712C36.0037 22.5447 36.0361 22.3183 36.0694 22.0851C35.5732 22.1257 35.1255 22.1934 34.6481 22.3362C34.1764 22.4692 33.7148 22.5866 33.2269 22.4771C32.757 22.0541 32.7311 21.6296 32.6982 21.0222C32.6913 20.8812 32.6845 20.7403 32.6775 20.5995C32.6596 20.2675 32.6404 19.9532 32.5408 19.6347C31.9483 19.6736 31.5496 19.9525 31.0645 20.2656C30.1421 20.8537 29.434 21.128 28.3262 21.0987C27.4683 21.0919 26.7038 21.3786 25.9145 21.6907C25.4505 21.8305 25.0654 21.8523 24.6078 21.6868C24.2698 21.473 23.9921 21.2259 23.7031 20.9506C23.5228 20.7807 23.5228 20.7807 23.2295 20.8108C23.0642 21.0552 23.0642 21.0552 22.9109 21.3622C22.5746 21.9657 22.2452 22.4458 21.5632 22.6731C21.2361 22.7119 20.9092 22.748 20.5812 22.7784C20.1548 22.8253 19.8454 22.8974 19.5049 23.1632C19.4584 23.2643 19.4119 23.3653 19.3641 23.4695C19.2109 23.7512 19.2109 23.7512 18.9291 23.8615C18.6227 23.8493 18.6227 23.8493 18.39 23.6594C18.1065 23.4366 17.916 23.3813 17.5545 23.401C17.1355 23.5155 16.8626 23.8423 16.5645 24.1434C15.571 25.1308 14.3327 25.7275 13.0756 26.3167C12.48 26.6031 12.0284 26.9721 11.6086 27.4881C11.2757 27.8783 10.9769 28.0968 10.4876 28.2599C10.2307 28.2738 9.97582 28.2828 9.71876 28.2875C9.64374 28.2893 9.5687 28.2911 9.4914 28.293C9.17054 28.3007 8.84964 28.3073 8.52876 28.314C8.29444 28.3191 8.06016 28.3248 7.82586 28.3304C7.71696 28.3324 7.71696 28.3324 7.60587 28.3344C7.30059 28.3418 7.05471 28.3587 6.76301 28.4559C6.80943 28.7267 6.86365 28.9519 6.97742 29.2034C7.01684 29.3186 7.01684 29.3186 7.05706 29.4361C6.7971 29.8261 6.52091 29.9313 6.0769 30.0242C5.14517 30.087 4.24787 29.7993 3.36291 29.5424C2.41278 29.2617 2.41278 29.2617 1.47022 29.4361C1.85836 29.6301 2.2465 29.8242 2.6464 30.0242C2.10383 30.2955 1.63327 30.2679 1.05366 30.1467C0.6717 30.0194 0.534805 29.9457 0.294044 29.6321C0.266095 29.3435 0.266095 29.3435 0.287918 29.0319C0.314887 28.7271 0.314887 28.7271 0.294044 28.4559C0.197009 28.3913 0.0999754 28.3266 0 28.2599C0.122178 27.7392 0.287154 27.3982 0.618717 26.9674C0.693136 26.8689 0.767555 26.7705 0.844228 26.6691C1.27388 26.1706 1.66168 25.9458 2.28497 25.7361C2.3482 25.7144 2.41144 25.6928 2.47659 25.6706C2.6309 25.618 2.78563 25.5667 2.94044 25.5155C2.90634 25.3219 2.90634 25.3219 2.84243 25.1235C2.77773 25.0911 2.71304 25.0588 2.6464 25.0255C2.67874 24.9284 2.71109 24.8314 2.74441 24.7314C3.24936 24.7226 3.71663 24.7464 4.21464 24.8294C4.19934 24.7712 4.18405 24.713 4.16831 24.6529C3.90934 23.5502 4.04588 22.5881 4.60669 21.595C4.93814 21.1876 5.38224 20.9521 5.82575 20.6822C6.72005 20.1193 7.21953 19.3592 7.75752 18.4739C8.16435 17.8089 8.62683 17.2027 9.11537 16.5962C9.22245 16.4607 9.22245 16.4607 9.33169 16.3225C10.5677 14.7791 11.9582 13.2956 13.526 12.0875C13.584 12.0422 13.6419 11.9969 13.7017 11.9501C15.3259 10.6824 17.0788 9.33823 19.2492 9.50042C19.9039 9.59957 20.5394 9.8301 21.1641 10.0443C22.0984 10.3521 23.0965 10.5396 24.0319 10.1395C24.5182 9.86109 24.8969 9.47621 25.3008 9.09233C27.3723 7.32842 30.4094 7.93884 32.5408 9.2451ZM24.2097 11.8792C23.939 12.1668 23.8756 12.3632 23.8815 12.7603C23.9719 13.316 24.2727 13.8069 24.6507 14.2133C24.8907 14.3674 24.8907 14.3674 25.1714 14.3173C25.2421 14.2931 25.3129 14.2689 25.3858 14.2439C25.4476 13.4684 25.3268 12.7941 24.9937 12.0875C24.7556 11.8171 24.7556 11.8171 24.5036 11.6955C24.3728 11.6843 24.3728 11.6843 24.2097 11.8792ZM24.9937 15.126C24.7641 15.388 24.7641 15.388 24.6997 15.7141C24.635 15.7141 24.5703 15.7141 24.5036 15.7141C24.1505 16.4204 24.5046 17.433 24.7243 18.1491C25.0282 19.0237 25.459 19.824 26.0719 20.5168C26.5792 19.7558 26.1248 18.1905 26.0168 17.3168C26.0005 17.1841 25.9848 17.0513 25.9695 16.9185C25.9474 16.7288 25.923 16.5394 25.8984 16.35C25.8847 16.2394 25.8709 16.1288 25.8568 16.0148C25.7655 15.6668 25.6338 15.4817 25.3858 15.224C25.1771 15.1388 25.1771 15.1388 24.9937 15.126ZM22.0533 16.8903C22.2109 17.4997 22.4176 18.0647 22.9354 18.4585C23.0648 18.4585 23.1942 18.4585 23.3274 18.4585C23.2664 17.8273 23.1668 17.216 23.0335 16.5962C22.5975 16.5665 22.3786 16.59 22.0533 16.8903ZM37.8337 17.6743C37.7853 17.8063 37.7853 17.8063 37.736 17.9408C37.4391 18.727 37.0969 19.4527 36.656 20.1693C36.4065 20.5867 36.3036 20.9128 36.2655 21.3989C36.554 21.3989 36.7692 21.3714 36.9959 21.1818C37.3788 20.718 37.6211 20.1715 37.8704 19.6286C37.9056 19.5533 37.9407 19.478 37.9768 19.4005C38.1802 18.9388 38.2738 18.5805 38.2257 18.0665C38.1394 17.8357 38.1394 17.8357 38.0297 17.6743C37.965 17.6743 37.9003 17.6743 37.8337 17.6743ZM20.191 17.9684C19.9637 18.2893 19.9789 18.5665 20.0409 18.947C20.1931 19.5243 20.6704 20.0111 21.1712 20.3208C21.3005 20.3208 21.4299 20.3208 21.5632 20.3208C21.4985 19.4304 21.2087 18.766 20.6287 18.0874C20.4784 17.9371 20.4784 17.9371 20.191 17.9684ZM17.8387 19.0465C17.5519 19.9069 17.7374 20.8018 18.1327 21.595C18.3195 21.8944 18.5095 22.1213 18.825 22.2933C19.0342 22.2979 19.0342 22.2979 19.2231 22.1157C19.4395 21.8487 19.6049 21.6441 19.6001 21.2913C19.4715 20.6893 19.2317 20.3292 18.8127 19.8858C18.2342 19.2496 18.2342 19.2496 18.1327 19.0465C18.0357 19.0465 17.9386 19.0465 17.8387 19.0465ZM8.0372 19.6347C7.97643 20.1208 8.08895 20.4255 8.35575 20.8204C8.71253 21.2082 9.20092 21.455 9.72336 21.5264C9.92776 21.5312 9.92776 21.5312 10.1935 21.4969C9.87082 20.9357 9.43401 20.5162 8.91934 20.1247C8.85464 20.1247 8.78996 20.1247 8.7233 20.1247C8.69096 19.963 8.65862 19.8013 8.62529 19.6347C8.43122 19.6347 8.23715 19.6347 8.0372 19.6347ZM43.3225 19.7326C43.0143 19.9934 42.8503 20.1622 42.7344 20.5536C42.7344 20.9864 42.8335 21.2129 43.0285 21.595C43.5029 21.3956 43.6939 21.0684 43.9106 20.6148C43.9715 20.3792 43.9933 20.1732 44.0086 19.9287C43.7821 19.864 43.5557 19.7993 43.3225 19.7326ZM8.52728 22.7712C8.6258 23.337 9.05176 23.7481 9.49556 24.0886C9.75202 24.2476 9.93132 24.3461 10.2364 24.3148C10.287 24.2906 10.3374 24.2663 10.3895 24.2413C10.1386 23.6015 9.87452 23.0632 9.21337 22.7712C8.84984 22.7466 8.84984 22.7466 8.52728 22.7712ZM7.84118 26.3976C7.8837 26.8797 8.09198 27.1385 8.42926 27.4759C8.69106 27.5695 8.69106 27.5695 8.91934 27.5738C8.95168 27.4768 8.98403 27.3798 9.01735 27.2798C8.75902 26.8768 8.44728 26.6384 8.0372 26.3976C7.97252 26.3976 7.90782 26.3976 7.84118 26.3976Z" fill="#B51B19"/>
<path d="M36.8237 23.999C37.1571 24.0479 37.4787 24.0571 37.8154 24.0649C38.3749 24.1027 38.6551 24.2462 39.0459 24.6427C39.1902 24.8122 39.3274 24.985 39.4632 25.1615C39.6753 25.431 39.6753 25.431 39.9594 25.5351C40.3066 25.5155 40.4547 25.4409 40.7557 25.2778C41.2252 25.028 41.6191 24.873 42.1463 25.0267C42.4415 25.2258 42.6796 25.462 42.9305 25.7128C43.2116 25.9427 43.2116 25.9427 43.5553 25.8904C43.9061 25.8324 43.9061 25.8324 44.1556 25.6577C44.4948 25.4627 44.702 25.4549 45.0867 25.5168C45.4828 25.8768 45.6324 26.2176 45.7966 26.7186C45.8627 26.9112 45.8627 26.9112 46.0853 27.0359C46.2629 27.183 46.2629 27.183 46.318 27.5566C46.2978 27.9259 46.1846 28.1484 45.926 28.4223C45.7663 28.5609 45.6009 28.673 45.4237 28.788C44.8665 29.173 44.7193 29.7436 44.5283 30.3647C44.1992 31.423 43.6569 32.2278 42.7344 32.8678C42.422 32.9904 42.422 32.9904 42.1463 32.9659C41.6856 32.5608 41.3941 32.0856 41.0743 31.5684C40.8654 31.2907 40.6897 31.1604 40.382 31.0055C40.5646 31.5722 40.7246 31.869 41.1662 32.2798C41.5139 32.6505 41.7908 32.9845 41.834 33.505C41.7928 34.061 41.465 34.3699 41.0682 34.7302C40.9847 34.8104 40.9847 34.8105 40.8997 34.8925C40.4916 35.2432 40.0716 35.3953 39.5612 35.5448C38.8152 35.7654 38.3748 36.1464 37.8337 36.6904C37.4132 37.0411 36.9654 37.3311 36.4982 37.6154C35.8291 38.0407 35.4835 38.4592 35.1037 39.1536C34.6123 40.0516 34.1116 40.6722 33.1232 41.0253C32.2659 41.2507 31.3768 41.2949 30.4949 41.3339C29.6798 41.3702 28.8835 41.4951 28.0804 41.6355C26.1714 41.9554 24.2415 42.0198 22.3094 42.0195C21.9566 42.02 21.6039 42.0235 21.251 42.0272C21.0235 42.0278 20.7958 42.0282 20.5682 42.0283C20.4643 42.0297 20.3605 42.0312 20.2535 42.0327C19.3488 42.0271 18.6743 41.782 18.0037 41.1704C17.7628 40.9261 17.5419 40.6664 17.3195 40.4054C17.087 40.1457 16.8443 39.937 16.5646 39.7288C16.4998 39.7288 16.4352 39.7288 16.3684 39.7288C16.289 39.8244 16.289 39.8244 16.208 39.9218C15.8907 40.1946 15.6103 40.1802 15.2107 40.17C15.1 40.1681 15.1 40.1681 14.9872 40.1663C13.3754 40.1105 11.4975 39.4076 10.1936 38.4547C10.0305 38.2575 10.0305 38.2575 9.88727 38.0565C9.5042 37.5632 8.9668 37.4649 8.39249 37.2926C7.8143 37.1165 7.40574 36.9066 6.95908 36.4944C6.33943 35.969 5.74369 35.5499 4.99878 35.2201C5.04702 34.6289 5.17974 34.1791 5.43372 33.6458C5.65971 33.1626 5.84509 32.6989 5.97893 32.1817C6.30565 32.1817 6.63236 32.1817 6.95908 32.1817C6.99546 32.0767 7.03185 31.9715 7.06934 31.8632C7.20977 31.4575 7.4741 31.3086 7.84121 31.1036C8.12495 31.0052 8.4132 30.935 8.70496 30.8646C9.68835 30.6044 10.3073 30.3493 10.9777 29.5599C11.4453 29.0108 11.9376 28.7095 12.5819 28.3962C13.1856 28.1006 13.7241 27.7465 14.2669 27.3513C14.9334 26.872 15.532 26.5821 16.3684 26.693C17.0166 26.9186 17.6111 27.2773 18.2001 27.6241C18.28 27.6704 18.3599 27.7168 18.4423 27.7646C19.5832 28.4305 20.1493 28.9643 20.6391 30.2073C20.7617 30.477 20.8473 30.6257 21.0732 30.8095C21.2692 30.7319 21.2692 30.7319 21.4653 30.6135C21.5559 30.3416 21.5738 30.1877 21.5694 29.9082C21.5686 29.83 21.5678 29.7519 21.567 29.6713C21.5658 29.5901 21.5645 29.5088 21.5632 29.4251C21.5588 29.1346 21.5586 28.8458 21.5632 28.5552C21.6613 28.4572 21.6613 28.4572 21.9308 28.4204C22.3634 28.4704 22.467 28.612 22.7394 28.9472C22.9119 29.2035 23.0739 29.4645 23.2295 29.7314C23.1994 29.6427 23.1994 29.6427 23.1686 29.5522C23.1422 29.4738 23.1158 29.3956 23.0886 29.3149C23.0624 29.2375 23.0363 29.1602 23.0093 29.0805C22.9434 28.8739 22.8873 28.6682 22.8375 28.4572C23.4435 27.8512 24.2626 27.7543 25.0857 27.7405C25.4656 27.7418 25.7547 27.7461 26.0719 27.9671C26.6464 28.8124 26.8087 30.0091 26.758 31.0055C27.0006 30.9571 27.0006 30.9571 27.2481 30.9076C27.2896 30.379 27.2179 29.9957 27.046 29.4925C26.8591 28.9247 26.8205 28.5492 26.954 27.9671C27.2166 27.7046 27.3689 27.7067 27.7382 27.6731C27.9562 27.6903 28.172 27.7173 28.3891 27.7443C29.1226 27.8293 29.6668 27.8133 30.2865 27.379C30.5459 27.1582 30.7957 26.9309 31.0416 26.6952C31.3599 26.4149 31.5445 26.3008 31.9712 26.3008C32.4656 26.4305 32.82 26.6851 33.227 26.9869C33.2594 26.9223 33.2917 26.8576 33.325 26.7909C33.2503 26.7202 33.1754 26.6494 33.0984 26.5765C32.8573 26.3243 32.6771 26.1311 32.5409 25.8107C32.5715 25.5596 32.5715 25.5596 32.7369 25.3208C32.905 25.2303 32.905 25.2303 33.1045 25.1431C33.4484 24.9915 33.6141 24.8396 33.8274 24.5305C34.5377 23.5159 35.7435 23.8073 36.8237 23.999ZM32.933 28.1631C32.7716 28.2666 32.7716 28.2666 32.6389 28.4572C32.5842 29.0039 32.6682 29.251 33.0065 29.6763C33.7565 30.7396 33.8733 31.9869 33.9131 33.2599C33.816 33.2599 33.7191 33.2599 33.6191 33.2599C33.605 33.3509 33.5908 33.4418 33.5762 33.5356C33.423 33.848 33.423 33.848 33.2274 33.9388C33.0708 33.9847 32.9138 34.0293 32.7565 34.0724C32.4726 34.1641 32.3221 34.2932 32.1488 34.5341C32.1488 34.6311 32.1488 34.7282 32.1488 34.8281C32.0842 34.8281 32.0195 34.8281 31.9528 34.8281C31.9326 34.7675 31.9124 34.7069 31.8916 34.6443C31.7659 34.4127 31.7659 34.4127 31.4872 34.2952C31.0793 34.2246 30.9189 34.3034 30.5806 34.5341C30.3687 34.8231 30.365 35.0642 30.3846 35.4163C30.1641 35.4897 30.1641 35.4897 29.8945 35.5142C29.6172 35.2985 29.5161 35.1632 29.4044 34.8281C29.1133 34.8767 29.1133 34.8767 28.8164 34.9262C28.6679 35.401 28.7804 35.7356 28.9143 36.2003C29.0114 36.1519 29.0114 36.1519 29.1104 36.1024C29.3063 36.0984 29.5025 36.0981 29.6985 36.1024C29.7494 36.2099 29.8004 36.3174 29.8527 36.4282C29.9218 36.5707 29.9908 36.7133 30.0599 36.8558C30.0932 36.9265 30.1264 36.9971 30.1608 37.07C30.1946 37.1392 30.2284 37.2084 30.2632 37.2797C30.2935 37.3428 30.3238 37.4059 30.355 37.471C30.5169 37.74 30.5169 37.74 30.9726 38.1606C30.9403 37.4814 30.908 36.8021 30.8747 36.1024C31.0202 36.1509 31.0202 36.1509 31.1687 36.2003C31.2334 35.9416 31.298 35.6828 31.3648 35.4163C31.7568 35.3182 31.7568 35.3182 32.0508 35.4163C32.1417 35.7144 32.1946 36.0133 32.2526 36.3194C32.3189 36.6019 32.3189 36.6019 32.5383 36.7337C32.7414 36.8135 32.7414 36.8135 32.933 36.6904C33.0475 36.3767 33.0381 36.0779 33.031 35.747C33.0201 35.2418 33.0201 35.2418 33.129 35.0241C33.3461 34.9905 33.3461 34.9905 33.6129 34.9752C34.0059 34.9655 34.0059 34.9655 34.3051 34.7302C34.2738 34.475 34.2738 34.475 34.2072 34.2401C34.6222 34.5936 34.8412 35.0385 35.0893 35.5142C35.2239 35.1103 35.0659 34.8629 34.9055 34.4912C34.6558 33.9 34.4974 33.446 34.4828 32.8007C34.4428 31.3437 34.2115 29.5676 33.325 28.3592C33.1224 28.2303 33.1224 28.2303 32.933 28.1631ZM11.9578 30.3194C11.8678 30.4595 11.7781 30.5999 11.6906 30.7414C11.5511 30.927 11.4029 31.0396 11.2166 31.1771C10.523 31.7493 10.5117 32.816 10.3896 33.6519C10.393 33.5846 10.3964 33.5173 10.3999 33.4479C10.4026 33.3595 10.4052 33.2712 10.4079 33.1803C10.4114 33.0927 10.4148 33.0052 10.4183 32.9149C10.3848 32.631 10.3157 32.5517 10.0955 32.3778C9.38367 33.0501 8.97902 33.7431 8.89448 34.7251C8.88541 35.178 8.88289 35.508 9.1154 35.9063C9.30947 35.8578 9.30947 35.8578 9.50746 35.8083C9.59938 35.3133 9.59938 35.3133 9.50746 34.8281C9.56431 34.8327 9.62117 34.8372 9.67975 34.842C10.2347 34.8676 10.5399 34.8113 10.9777 34.4361C11.0779 34.3071 11.1764 34.1767 11.2717 34.044C11.2813 34.1184 11.291 34.1929 11.3008 34.2696C11.3155 34.3669 11.3301 34.4644 11.3453 34.5648C11.3589 34.6614 11.3726 34.7581 11.3866 34.8576C11.4819 35.1681 11.5856 35.253 11.8598 35.4163C11.9568 35.3677 11.9568 35.3677 12.0559 35.3182C12.1507 35.0336 12.1658 34.8548 12.165 34.5589C12.165 34.4648 12.165 34.3705 12.165 34.2736C12.1645 34.1721 12.164 34.0707 12.1635 33.9663C12.1633 33.8103 12.1633 33.8103 12.163 33.6511C12.1625 33.3186 12.1613 32.986 12.1599 32.6535C12.1594 32.4281 12.159 32.2028 12.1586 31.9775C12.1575 31.4248 12.1559 30.8722 12.1538 30.3194C12.0892 30.3194 12.0244 30.3194 11.9578 30.3194ZM15.4863 30.3194C15.4877 30.437 15.4877 30.437 15.489 30.5568C15.4675 31.354 15.2877 31.8319 14.8653 32.501C14.3112 33.4142 14.5611 34.4097 14.7022 35.4163C14.8316 35.4163 14.961 35.4163 15.0943 35.4163C15.2667 35.1154 15.3204 34.8789 15.342 34.5341C15.3487 34.4396 15.3553 34.345 15.3623 34.2477C15.3721 34.0983 15.3721 34.0983 15.3822 33.946C15.5557 31.7244 15.5557 31.7244 16.2705 31.1036C16.391 30.8609 16.391 30.8609 16.3684 30.6135C16.201 30.3807 16.201 30.3807 15.9764 30.2215C15.7597 30.2111 15.7597 30.2111 15.4863 30.3194ZM24.1116 30.8095C24.1202 31.0751 24.1307 31.3405 24.1423 31.6059C24.1445 31.6804 24.1467 31.755 24.149 31.8318C24.1715 32.307 24.2414 32.6526 24.5037 33.0639C24.7072 33.158 24.7072 33.158 24.8957 33.1619C25.0829 32.3564 25.0874 31.4901 24.7978 30.7116C24.4421 30.6967 24.4421 30.6967 24.1116 30.8095ZM29.6985 30.7116C29.4498 31.0846 29.4231 31.359 29.5025 31.7897C29.7397 32.3914 30.001 32.9182 30.4826 33.3579C30.5796 33.3255 30.6767 33.2932 30.7766 33.2599C30.9062 33.0007 30.8841 32.8014 30.8808 32.5125C30.8795 32.3651 30.8795 32.3651 30.8781 32.2147C30.877 32.1391 30.8758 32.0635 30.8747 31.9857C31.1283 32.1389 31.1283 32.1389 31.3819 32.292C31.5719 32.3989 31.5719 32.3989 31.8548 32.3778C31.8113 31.7691 31.6671 31.3383 31.3648 30.8095C31.1334 31.0408 31.1206 31.18 31.0707 31.4956C30.6059 31.2836 30.2466 31.0906 29.8945 30.7116C29.8299 30.7116 29.7651 30.7116 29.6985 30.7116ZM27.9342 31.8877C27.7789 32.4315 27.691 32.8898 27.7382 33.4559C27.8694 33.697 27.8694 33.697 28.0322 33.848C28.2268 33.8218 28.2268 33.8218 28.4243 33.75C28.5814 33.2787 28.5776 32.8573 28.3937 32.3961C28.2497 32.0643 28.2497 32.0643 27.9342 31.8877ZM12.8399 33.4559C12.6096 33.7395 12.6096 33.7395 12.6562 34.0991C12.7045 34.4427 12.7045 34.4427 12.9441 34.577C13.0067 34.5952 13.0695 34.6133 13.134 34.6321C13.3607 34.292 13.3633 34.1493 13.33 33.75C13.2654 33.6529 13.2007 33.5559 13.134 33.4559C13.037 33.4559 12.9399 33.4559 12.8399 33.4559Z" fill="#B51B19"/>
</svg>
