<svg width="50" height="50" viewBox="0 0 50 50" fill="none" xmlns="http://www.w3.org/2000/svg">
<path d="M24.8918 1C24.9632 1 25.0346 1 25.1082 1C25.1394 1.0656 25.1706 1.13121 25.2027 1.1988C26.2425 3.38197 27.3222 5.54466 28.4086 7.70499C28.6976 8.28 28.9851 8.85571 29.2712 9.43211C29.3807 9.65251 29.4906 9.87276 29.6007 10.0928C30.1453 11.1837 30.6415 12.2524 31.012 13.415C31.4062 14.5924 31.9093 16.0535 33.0293 16.727C34.2824 17.271 35.7623 17.2483 37.1046 17.3286C39.219 17.4624 41.3108 17.8149 43.4041 18.1295C44.3011 18.2643 45.1986 18.3944 46.0966 18.5221C46.4584 18.574 46.8201 18.626 47.1818 18.678C47.4126 18.711 47.6434 18.7438 47.8742 18.7764C48.1924 18.8213 48.5104 18.8674 48.8284 18.9137C48.9227 18.9268 49.017 18.9398 49.1142 18.9533C49.7589 19.0489 49.7589 19.0489 50 19.29C49.6617 19.631 49.3231 19.9716 48.9841 20.3119C48.8692 20.4274 48.7543 20.5429 48.6396 20.6586C48.4733 20.8262 48.3066 20.9935 48.1399 21.1607C48.0401 21.261 47.9404 21.3614 47.8376 21.4647C47.5962 21.702 47.3455 21.9252 47.0893 22.1464C46.651 22.5265 46.2408 22.9289 45.8333 23.3417C45.7229 23.4527 45.7229 23.4527 45.6103 23.566C45.3778 23.7998 45.1455 24.0341 44.9134 24.2684C44.6071 24.5776 44.3004 24.8865 43.9935 25.1951C43.9249 25.2645 43.8564 25.334 43.7857 25.4056C43.3813 25.8122 42.9631 26.194 42.5291 26.5688C42.1806 26.8775 41.8548 27.2076 41.528 27.5388C41.4568 27.6104 41.3856 27.682 41.3123 27.7558C41.0874 27.982 40.8629 28.2085 40.6385 28.4351C40.3424 28.7341 40.0458 29.0328 39.7491 29.3313C39.6498 29.432 39.6498 29.432 39.5484 29.5346C39.007 30.0791 38.4534 30.6255 37.8179 31.0595C37.358 31.7794 37.8912 33.2614 38.0329 34.0623C38.0598 34.2164 38.0867 34.3705 38.1135 34.5246C38.1708 34.8539 38.2285 35.1831 38.2864 35.5124C38.3779 36.033 38.4686 36.5538 38.5591 37.0746C38.8165 38.5547 39.0751 40.0345 39.3343 41.5143C39.4778 42.3334 39.6207 43.1526 39.7629 43.972C39.8528 44.4898 39.9435 45.0075 40.0348 45.525C40.0912 45.8463 40.147 46.1678 40.2025 46.4892C40.2284 46.6383 40.2547 46.7874 40.2812 46.9363C40.3174 47.1395 40.3523 47.3429 40.3872 47.5464C40.4071 47.6601 40.427 47.7739 40.4476 47.8911C40.4748 48.1718 40.4575 48.3544 40.368 48.6191C36.9124 46.8526 36.9124 46.8526 35.6331 46.1434C34.572 45.5557 33.4935 45.0039 32.4134 44.4524C31.3198 43.894 30.2283 43.3344 29.1531 42.7411C28.8805 42.5915 28.6078 42.442 28.335 42.2926C28.1095 42.1689 27.8841 42.045 27.6588 41.9209C27.3264 41.7382 26.9927 41.5581 26.6582 41.3793C26.4656 41.2757 26.2742 41.1698 26.0828 41.0639C25.9655 41.0016 25.8481 40.9392 25.7271 40.875C25.5713 40.7905 25.5713 40.7905 25.4124 40.7043C24.9319 40.556 24.6263 40.7482 24.1893 40.9535C24.1015 40.9998 24.0137 41.0462 23.9232 41.094C23.7739 41.1725 23.7739 41.1725 23.6215 41.2525C23.5162 41.3084 23.4108 41.3644 23.3022 41.4221C23.1913 41.4805 23.0805 41.5389 22.9662 41.5991C22.7399 41.7183 22.5137 41.8378 22.2876 41.9574C22.0106 42.1039 21.7333 42.2496 21.4556 42.3948C20.7115 42.7843 19.9694 43.1772 19.2298 43.5752C18.9797 43.7098 18.7296 43.8443 18.4794 43.9789C18.416 44.013 18.3526 44.0472 18.2872 44.0823C17.1816 44.6766 16.0679 45.2544 14.951 45.827C13.939 46.3461 12.9378 46.8813 11.9424 47.4317C11.1524 47.8656 10.348 48.2545 9.52381 48.6191C9.60621 47.7694 9.74663 46.9332 9.89269 46.0926C9.91939 45.9376 9.94606 45.7827 9.97271 45.6278C10.0298 45.2959 10.0871 44.9641 10.1445 44.6323C10.2354 44.1075 10.3257 43.5827 10.416 43.0578C10.6564 41.6603 10.8974 40.2628 11.1387 38.8655C11.2975 37.9459 11.4561 37.0262 11.6142 36.1064C11.7038 35.5847 11.7939 35.0631 11.8843 34.5415C11.9404 34.2173 11.9961 33.8931 12.0518 33.5688C12.0776 33.4185 12.1036 33.2683 12.1298 33.1182C12.1655 32.913 12.2006 32.7078 12.2357 32.5025C12.2555 32.3878 12.2753 32.273 12.2957 32.1548C12.3352 31.8626 12.3607 31.597 12.3377 31.303C12.1322 31.0277 12.1322 31.0277 11.8506 30.7754C11.7602 30.6887 11.6698 30.6019 11.5767 30.5125C11.3394 30.2939 11.0961 30.0831 10.8517 29.8726C10.4169 29.4925 10.0071 29.0929 9.6016 28.682C9.53041 28.6104 9.45922 28.5388 9.38587 28.465C9.08543 28.1628 8.78564 27.86 8.48579 27.5572C8.26497 27.3344 8.04382 27.1119 7.82265 26.8895C7.75644 26.8224 7.69024 26.7553 7.62204 26.6861C7.2924 26.3547 6.95707 26.0365 6.60321 25.7309C6.16772 25.3546 5.7613 24.9552 5.35714 24.5457C5.28355 24.4717 5.20996 24.3977 5.13414 24.3215C4.82335 24.0089 4.51322 23.6958 4.20302 23.3826C3.97468 23.1523 3.74601 22.9223 3.51732 22.6924C3.41446 22.5882 3.41446 22.5882 3.30953 22.4819C2.89912 22.0692 2.47498 21.6803 2.03451 21.3C1.79791 21.0932 1.57408 20.8764 1.35281 20.6534C1.2726 20.5729 1.19238 20.4923 1.10973 20.4093C1.02923 20.3279 0.948737 20.2465 0.865801 20.1626C0.740034 20.0361 0.740034 20.0361 0.611726 19.9071C0.407564 19.7016 0.203662 19.496 0 19.29C0.28429 19.0058 0.466896 19.0146 0.863352 18.9579C1.07025 18.9276 1.07025 18.9276 1.28132 18.8968C1.43505 18.8752 1.58878 18.8537 1.74251 18.8322C1.90375 18.8089 2.06497 18.7856 2.22618 18.7622C2.66479 18.6988 3.10356 18.6365 3.54235 18.5744C4.00123 18.5093 4.45995 18.4431 4.91869 18.377C5.78838 18.2518 6.65821 18.1276 7.52808 18.0037C8.80406 17.8219 10.0798 17.6388 11.3556 17.4556C11.5439 17.4286 11.7321 17.4016 11.9204 17.3746C12.0123 17.3614 12.1042 17.3482 12.1989 17.3346C12.7454 17.2562 13.2919 17.178 13.8384 17.1001C14.1787 17.0515 14.5189 17.0029 14.8591 16.9543C15.0168 16.9317 15.1745 16.9093 15.3322 16.8869C15.5477 16.8562 15.7631 16.8254 15.9785 16.7946C16.0991 16.7774 16.2196 16.7602 16.3438 16.7425C16.5036 16.7178 16.5036 16.7178 16.6667 16.6926C16.7663 16.678 16.8658 16.6634 16.9685 16.6484C17.2351 16.604 17.2351 16.604 17.3963 16.3252C17.4814 16.1523 17.4814 16.1523 17.5682 15.9758C17.6002 15.9122 17.6321 15.8487 17.665 15.7832C17.7707 15.5717 17.8735 15.359 17.9764 15.1462C18.0502 14.997 18.1242 14.8478 18.1984 14.6987C18.3943 14.3037 18.5879 13.9076 18.781 13.5113C18.9731 13.118 19.1675 12.7259 19.3617 12.3336C20.0593 10.9224 20.7456 9.50615 21.4214 8.08435C22.0578 6.75029 22.7261 5.43193 23.3902 4.11147C23.5896 3.71475 23.789 3.318 23.9881 2.92108C24.1106 2.67683 24.2334 2.43268 24.3563 2.18865C24.411 2.0797 24.4656 1.97076 24.5219 1.85851C24.594 1.71512 24.594 1.71512 24.6676 1.56884C24.7938 1.31589 24.7938 1.31589 24.8918 1Z" fill="#7D0E0E"/>
<path d="M25.1074 25.3477C25.5937 25.834 25.5937 25.834 25.7974 26.1805C25.843 26.2569 25.8886 26.3333 25.9355 26.4121C25.9837 26.4939 26.0318 26.5756 26.0814 26.6599C26.494 27.3477 26.9187 28.0238 27.3666 28.6891C27.8255 29.371 28.279 30.0558 28.7262 30.7454C28.7846 30.8355 28.8431 30.9256 28.9033 31.0184C29.0218 31.2013 29.1403 31.3842 29.2588 31.5671C29.552 32.0195 29.846 32.4714 30.1399 32.9234C30.2571 33.1038 30.3744 33.2842 30.4916 33.4645C30.5497 33.5538 30.6077 33.6431 30.6675 33.7351C35.4159 41.0403 35.4159 41.0403 35.5916 41.3107C35.7092 41.4916 35.8268 41.6725 35.9444 41.8534C36.2322 42.2962 36.52 42.739 36.8076 43.182C37.7744 44.6708 38.7457 46.1566 39.7178 47.642C39.6464 47.6777 39.575 47.7135 39.5014 47.7503C39.2265 47.6341 39.2265 47.6341 38.8774 47.4514C38.8146 47.4188 38.7518 47.3861 38.6871 47.3525C38.48 47.2447 38.2737 47.1356 38.0674 47.0265C37.9228 46.9508 37.7781 46.8752 37.6334 46.7996C36.7332 46.328 35.8404 45.8439 34.9509 45.3523C33.9709 44.8146 32.9751 44.3083 31.9797 43.8C30.8772 43.237 29.7768 42.6726 28.6924 42.0752C27.5069 41.4239 26.3066 40.8001 25.1074 40.1745C25.1074 35.2816 25.1074 30.3888 25.1074 25.3477Z" fill="#FD1B1B"/>
<path d="M0.974609 19.6172C1.78603 19.6849 2.54669 19.8581 3.33527 20.0569C3.61704 20.1263 3.89884 20.1956 4.18078 20.2644C4.25428 20.2824 4.32777 20.3003 4.4035 20.3188C5.2533 20.5252 6.10683 20.7142 6.96081 20.9024C7.12474 20.9385 7.28867 20.9747 7.45261 21.0108C7.70425 21.0663 7.95589 21.1218 8.20755 21.1772C9.18834 21.3935 10.168 21.6148 11.1478 21.8358C12.6196 22.1677 14.092 22.4967 15.565 22.8233C16.8066 23.0986 18.0472 23.3775 19.2875 23.6584C21.0104 24.0481 22.7349 24.4298 24.4595 24.812C24.4595 24.8834 24.4595 24.9549 24.4595 25.0284C24.306 25.1068 24.306 25.1068 24.1495 25.1867C21.7882 26.3873 21.7882 26.3873 19.454 27.6394C18.3667 28.2407 17.2644 28.8112 16.1582 29.3769C15.528 29.6995 14.8996 30.0234 14.2795 30.3653C14.1365 30.4435 14.1365 30.4435 13.9907 30.5234C13.8189 30.6179 13.648 30.7138 13.4779 30.8114C13.2535 30.9343 13.2535 30.9343 12.8794 31.089C12.449 30.9526 12.1418 30.6167 11.8195 30.3133C11.7585 30.2564 11.6975 30.1995 11.6346 30.1409C10.8655 29.4181 10.1246 28.6668 9.38235 27.9167C9.10126 27.6327 8.8198 27.3491 8.53811 27.0657C8.47597 27.0027 8.41383 26.9396 8.34981 26.8747C8.03074 26.5537 7.70507 26.247 7.36256 25.951C6.93522 25.5815 6.53562 25.1903 6.13898 24.7883C6.06779 24.7167 5.9966 24.6451 5.92325 24.5714C5.62281 24.2692 5.32302 23.9663 5.02317 23.6635C4.80235 23.4407 4.5812 23.2183 4.36003 22.9958C4.29382 22.9287 4.22762 22.8616 4.15942 22.7925C3.75434 22.3852 3.33497 22.0017 2.90027 21.6263C2.6729 21.428 2.45637 21.2212 2.24287 21.008C2.12987 20.8953 2.12987 20.8953 2.01459 20.7802C1.93925 20.7044 1.86392 20.6287 1.7863 20.5506C1.70761 20.4724 1.62893 20.3941 1.54786 20.3135C1.43654 20.2019 1.43654 20.2019 1.32296 20.0881C1.25592 20.021 1.18889 19.9538 1.11983 19.8846C0.974609 19.7254 0.974609 19.7254 0.974609 19.6172Z" fill="#FE1B1B"/>
<path d="M49.0251 19.724C47.4127 21.3568 47.4127 21.3568 46.7468 21.9172C46.4676 22.1657 46.2087 22.4332 45.9474 22.7002C45.5321 23.1227 45.103 23.497 44.628 23.8509C44.3158 24.0968 44.026 24.3639 43.7356 24.6347C43.1384 25.1896 42.5184 25.7076 41.8822 26.2175C41.7598 26.3185 41.6375 26.4197 41.5153 26.521C40.7782 27.1275 40.0234 27.6943 39.2307 28.2264C39.1505 28.2806 39.0702 28.3348 38.9876 28.3906C38.1121 28.968 37.3897 29.2884 36.3358 29.0949C36.0757 29.0322 35.8207 28.9598 35.5646 28.8825C35.4674 28.8539 35.3702 28.8252 35.2701 28.7957C32.0454 27.8182 28.6666 26.5361 25.6484 25.027C25.6484 24.9556 25.6484 24.8842 25.6484 24.8106C27.9029 24.2939 30.1573 23.7782 32.4193 23.2954C34.088 22.939 35.7499 22.5558 37.4113 22.1669C38.6809 21.8697 39.9519 21.5805 41.2252 21.3C42.118 21.1033 43.0098 20.9025 43.9016 20.7017C44.1854 20.6379 44.4691 20.5742 44.7529 20.5105C45.5407 20.3336 46.3283 20.1559 47.1142 19.9704C47.2261 19.9442 47.3379 19.918 47.4531 19.891C47.6508 19.8444 47.8482 19.7972 48.0455 19.7491C48.6644 19.6037 48.6644 19.6037 49.0251 19.724Z" fill="#C61414"/>
<path d="M24.6752 25.5703C24.7109 25.5703 24.7466 25.5703 24.7834 25.5703C24.8135 26.8221 24.7262 28.0689 24.6481 29.3176C24.641 29.4322 24.6339 29.5468 24.6266 29.6648C24.5067 31.5738 24.3311 33.4675 24.0766 35.3632C24.0289 35.7203 23.9846 36.0778 23.9413 36.4355C23.6358 38.8755 23.6358 38.8755 22.7271 39.6396C22.6736 39.6906 22.62 39.7417 22.5648 39.7943C20.0057 42.1821 16.6045 44.0193 13.6181 45.8228C13.5281 45.8772 13.4381 45.9316 13.3453 45.9877C13.1728 46.0916 13 46.1951 12.8269 46.298C12.7499 46.3443 12.673 46.3906 12.5937 46.4383C12.5258 46.4788 12.4578 46.5193 12.3878 46.561C12.211 46.6686 12.211 46.6686 12.1211 46.8907C11.9416 46.9649 11.761 47.0367 11.58 47.1071C11.2945 47.2761 11.0159 47.4538 10.7366 47.6326C10.6577 47.6735 10.5789 47.7143 10.4977 47.7565C10.4263 47.7207 10.3548 47.685 10.2812 47.6482C10.3587 47.5327 10.4361 47.4172 10.5159 47.2982C11.2899 46.1415 12.0526 44.9779 12.8093 43.8097C13.1025 43.3573 13.3964 42.9054 13.6903 42.4534C13.8076 42.2731 13.9248 42.0927 14.0421 41.9123C16.6214 37.944 19.2008 33.9758 21.7802 30.0075C21.8673 29.8734 21.8673 29.8734 21.9563 29.7366C22.0727 29.5575 22.1892 29.3783 22.3056 29.1992C22.611 28.7295 22.9162 28.2597 23.2213 27.7898C23.2847 27.6923 23.348 27.5947 23.4133 27.4943C23.5341 27.3083 23.6548 27.1223 23.7756 26.9362C23.8828 26.7711 23.9902 26.6062 24.0978 26.4413C24.1904 26.2992 24.2827 26.1568 24.3746 26.0141C24.472 25.8643 24.5731 25.717 24.6752 25.5703Z" fill="#C61414"/>
<path d="M24.4595 25.3477C24.3119 25.7531 24.1267 26.0882 23.885 26.4451C23.778 26.6041 23.778 26.6041 23.6689 26.7663C23.5547 26.9346 23.5547 26.9346 23.4382 27.1063C23.2797 27.3419 23.1213 27.5775 22.963 27.8132C22.8855 27.9284 22.808 28.0436 22.7282 28.1624C22.4465 28.5833 22.17 29.0073 21.896 29.4332C21.8494 29.5054 21.8029 29.5777 21.7549 29.6521C21.6601 29.7995 21.5652 29.9469 21.4704 30.0943C21.1919 30.5263 20.9114 30.9571 20.6311 31.388C20.5119 31.5713 20.3926 31.7546 20.2734 31.938C20.214 32.0293 20.1546 32.1206 20.0934 32.2147C19.7991 32.6673 19.5049 33.1201 19.2106 33.5728C19.0934 33.7531 18.9761 33.9335 18.8589 34.1139C18.8009 34.2032 18.7428 34.2925 18.683 34.3845C13.9347 41.6896 13.9347 41.6896 13.7587 41.9603C13.6417 42.1404 13.5246 42.3205 13.4075 42.5006C13.1118 42.9556 12.816 43.4106 12.5201 43.8656C12.4609 43.9567 12.4016 44.0478 12.3405 44.1417C12.223 44.3225 12.1054 44.5032 11.9878 44.6839C11.6981 45.1291 11.4096 45.5751 11.1233 46.0225C11.0406 46.1514 11.0406 46.1514 10.9562 46.283C10.8516 46.4462 10.7472 46.6097 10.6432 46.7733C10.5257 46.9565 10.4043 47.1373 10.2821 47.3174C10.2463 47.3174 10.2106 47.3174 10.1738 47.3174C10.2304 46.0546 10.4503 44.8265 10.6676 43.5836C10.7065 43.358 10.7454 43.1325 10.7843 42.9069C10.9766 41.793 11.1729 40.6799 11.3711 39.567C11.3889 39.4661 11.4068 39.3652 11.4252 39.2613C11.5144 38.7582 11.6059 38.2558 11.7019 37.7539C11.8939 36.7351 12.041 35.7332 12.1185 34.699C12.368 31.7434 12.368 31.7434 13.0942 31.0654C13.8654 30.4635 14.7951 30.1405 15.7111 29.8273C16.2839 29.6276 16.7946 29.3329 17.3167 29.0273C18.333 28.4622 19.3663 27.9314 20.4012 27.4012C21.46 26.8586 22.5096 26.3022 23.5481 25.7214C23.6375 25.6717 23.7269 25.622 23.8191 25.5709C23.935 25.5058 23.935 25.5058 24.0532 25.4394C24.2431 25.3477 24.2431 25.3477 24.4595 25.3477Z" fill="#FE1B1B"/>
<path d="M24.7843 2.1875C24.82 2.1875 24.8557 2.1875 24.8925 2.1875C24.8925 9.50893 24.8925 16.8304 24.8925 24.3736C24.4997 24.1772 24.3815 24.0973 24.1214 23.7784C23.6517 23.2236 23.1374 22.719 22.6198 22.2091C22.0516 21.6494 21.4974 21.089 20.9782 20.4835C20.5725 20.0284 20.1319 19.6065 19.6977 19.1788C18.9291 18.4217 18.175 17.6676 17.5332 16.7979C17.5893 16.6863 17.6453 16.5748 17.7031 16.4599C17.9177 16.0326 18.1321 15.6051 18.3463 15.1776C18.4379 14.9951 18.5295 14.8126 18.6211 14.6302C19.1452 13.5873 19.6606 12.5411 20.1615 11.4868C20.8384 10.0631 21.5462 8.6553 22.2545 7.24702C22.5065 6.74605 22.7582 6.24498 23.0096 5.74371C23.0694 5.62439 23.1292 5.50507 23.1909 5.38214C23.6035 4.55642 24.0049 3.72603 24.3939 2.88895C24.6656 2.30618 24.6656 2.30618 24.7843 2.1875Z" fill="#FE1B1B"/>
<path d="M25.541 25.3477C25.9846 25.5001 26.3479 25.7254 26.7353 25.9839C26.9412 26.1151 26.9412 26.1151 27.1707 26.1555C27.3808 26.2135 27.3808 26.2135 27.5188 26.3561C27.7582 26.5895 28.0177 26.7403 28.305 26.9114C28.4268 26.9845 28.5486 27.0576 28.6741 27.1328C28.7389 27.1715 28.8036 27.2101 28.8704 27.2499C29.2147 27.4553 29.5578 27.6627 29.9009 27.8702C29.9709 27.9126 30.041 27.955 30.1132 27.9986C31.6311 28.9191 33.1228 29.8834 34.5913 30.8807C34.6727 30.9357 34.754 30.9907 34.8378 31.0473C35.0605 31.2003 35.2793 31.3576 35.4977 31.5165C35.5655 31.5621 35.6333 31.6077 35.7031 31.6546C36.8068 32.4707 37.0025 34.1443 37.3173 35.4058C37.3404 35.4971 37.3634 35.5883 37.3872 35.6823C37.872 37.598 38.2922 39.5261 38.6964 41.4601C38.8028 41.9678 38.911 42.4751 39.0194 42.9824C39.0727 43.2323 39.1258 43.4822 39.1785 43.7323C39.2976 44.2927 39.4246 44.8493 39.5663 45.4044C39.6846 45.8704 39.7798 46.3274 39.847 46.8033C39.8642 46.9221 39.8813 47.041 39.899 47.1635C39.9109 47.25 39.9227 47.3365 39.935 47.4256C39.5633 47.0864 39.3116 46.7105 39.0556 46.2825C38.5411 45.44 37.9958 44.6195 37.4458 43.8C36.8857 42.9648 36.3308 42.1281 35.8039 41.2714C35.3782 40.5822 34.9341 39.905 34.4899 39.2275C34.45 39.1667 34.4102 39.1059 34.3691 39.0433C34.1705 38.7404 33.9719 38.4376 33.7733 38.1348C33.454 37.6476 33.1364 37.1593 32.8192 36.6707C32.7628 36.584 32.7065 36.4972 32.6484 36.4079C32.5362 36.235 32.4239 36.0621 32.3116 35.8891C32.021 35.4416 31.7301 34.9942 31.4393 34.5468C31.322 34.3664 31.2048 34.186 31.0876 34.0057C31.0295 33.9164 30.9715 33.8271 30.9117 33.7351C30.7358 33.4645 30.56 33.194 30.3841 32.9234C30.326 32.8341 30.268 32.7448 30.2082 32.6528C30.0911 32.4727 29.974 32.2926 29.857 32.1124C29.5612 31.6574 29.2654 31.2024 28.9696 30.7475C28.3685 29.8233 27.7677 28.8989 27.1695 27.9729C26.9114 27.5734 26.6526 27.1745 26.3929 26.7761C26.3375 26.6911 26.2821 26.606 26.2251 26.5183C26.1181 26.3541 26.011 26.1899 25.9037 26.0259C25.541 25.468 25.541 25.468 25.541 25.3477Z" fill="#C61414"/>
<path d="M17.6057 17.2687C17.6642 17.3299 17.7226 17.3912 17.7829 17.4543C17.8405 17.5136 17.8981 17.5729 17.9575 17.634C18.086 17.7751 18.2135 17.9172 18.3377 18.0622C18.8696 18.682 19.4401 19.2555 20.0218 19.8285C21.0639 20.855 21.0639 20.855 21.4811 21.3424C22.0352 21.9889 22.6563 22.572 23.2651 23.1663C23.3583 23.2583 23.4515 23.3503 23.5475 23.4451C23.6317 23.5275 23.7159 23.6098 23.8026 23.6946C24.0273 23.9424 24.1893 24.1901 24.3508 24.4822C23.4766 24.432 22.6407 24.2464 21.7911 24.0453C21.4577 23.9664 21.124 23.8891 20.7903 23.8117C20.6156 23.7712 20.4408 23.7306 20.2661 23.6899C19.3586 23.4789 18.4491 23.2765 17.5394 23.0752C17.3777 23.0394 17.216 23.0035 17.0544 22.9677C16.3107 22.8028 15.5669 22.6384 14.823 22.4744C14.4026 22.3818 13.9824 22.2889 13.5621 22.1959C13.4798 22.1777 13.3975 22.1595 13.3127 22.1407C12.3201 21.9208 11.33 21.6935 10.3424 21.4519C9.23935 21.1821 8.1314 20.9393 7.02123 20.701C4.41451 20.141 4.41451 20.141 3.29244 19.8911C3.14595 19.8586 2.99941 19.8264 2.85281 19.7944C2.65118 19.7503 2.44975 19.7053 2.24833 19.6602C2.13497 19.6351 2.0216 19.61 1.90479 19.5842C1.6235 19.5038 1.6235 19.5038 1.29883 19.2874C3.33727 18.9881 5.37585 18.6899 7.4146 18.3928C8.3612 18.2548 9.30775 18.1165 10.2542 17.9775C11.079 17.8563 11.9039 17.7357 12.7289 17.6159C13.1658 17.5524 13.6027 17.4886 14.0395 17.4241C14.4505 17.3634 14.8616 17.3035 15.2728 17.2442C15.4238 17.2223 15.5747 17.2001 15.7256 17.1776C15.9315 17.1469 16.1376 17.1174 16.3437 17.0879C16.459 17.071 16.5743 17.0542 16.6931 17.0368C17.0689 17.0089 17.31 17.0309 17.6057 17.2687Z" fill="#FE1B1B"/>
<path d="M33.9269 17.1309C34.0915 17.1555 34.0915 17.1555 34.2594 17.1805C34.488 17.2149 34.7165 17.2501 34.9449 17.2864C35.3547 17.3509 35.7652 17.409 36.1759 17.4668C36.6808 17.5383 37.1852 17.613 37.6897 17.6871C37.9119 17.7196 38.134 17.7521 38.3561 17.7845C38.9344 17.869 39.5127 17.9538 40.091 18.0386C41.012 18.1736 41.9331 18.3083 42.8542 18.4431C43.0764 18.4756 43.2986 18.5081 43.5208 18.5406C45.2468 18.7932 46.9732 19.0429 48.7004 19.2872C48.333 19.5322 48.0522 19.5945 47.6219 19.6914C47.5466 19.7085 47.4712 19.7257 47.3936 19.7433C47.1462 19.7994 46.8985 19.8545 46.6509 19.9095C46.4781 19.9484 46.3053 19.9874 46.1325 20.0264C44.9821 20.2852 43.8297 20.5345 42.6763 20.7793C40.8438 21.169 39.0174 21.5866 37.1926 22.0106C36.8393 22.0927 36.486 22.1747 36.1327 22.2567C35.9997 22.2875 35.9997 22.2875 35.864 22.319C34.3991 22.6585 32.9312 22.9812 31.4606 23.2951C30.6067 23.4778 29.7544 23.6656 28.9036 23.8627C28.8161 23.8829 28.7285 23.9032 28.6383 23.924C28.2187 24.0212 27.7993 24.1192 27.3801 24.2183C27.2302 24.2532 27.0802 24.2882 26.9302 24.3231C26.7347 24.3692 26.7347 24.3692 26.5352 24.4163C26.2283 24.4747 25.9594 24.4958 25.6484 24.482C25.8019 24.3023 25.9555 24.1228 26.1097 23.9437C26.2234 23.8111 26.3365 23.6781 26.4485 23.5441C27.1525 22.7157 27.941 21.9665 28.7135 21.2028C29.4925 20.4317 30.2618 19.6667 30.9445 18.807C31.1745 18.521 31.4136 18.2449 31.6549 17.9682C31.7287 17.8713 31.8025 17.7745 31.8786 17.6746C32.5252 16.9597 33.0394 16.9822 33.9269 17.1309Z" fill="#FE1B1B"/>
<path d="M25.1074 2.1875C25.4456 2.52567 25.6158 2.85017 25.8109 3.27652C25.8428 3.34341 25.8748 3.4103 25.9077 3.47923C26.0857 3.86305 26.2264 4.24274 26.3427 4.64962C26.5277 5.29053 26.7838 5.89542 27.0419 6.50974C30.5906 15.0947 30.5906 15.0947 29.7061 17.4096C28.9062 19.2042 27.8496 20.8152 26.7308 22.4256C26.6259 22.5767 26.6259 22.5767 26.5189 22.7308C26.3248 23.0088 26.1293 23.2857 25.9326 23.562C25.8741 23.6448 25.8155 23.7277 25.7552 23.8131C25.617 24.0041 25.4712 24.1896 25.3239 24.3736C25.2524 24.3736 25.181 24.3736 25.1074 24.3736C25.1074 17.0522 25.1074 9.73079 25.1074 2.1875Z" fill="#C51414"/>
<path d="M26.1899 4.35156C26.4468 4.67418 26.6366 5.00163 26.8207 5.37032C26.8796 5.48793 26.9386 5.60553 26.9994 5.7267C27.0942 5.91759 27.0942 5.91759 27.191 6.11233C27.258 6.2465 27.3251 6.38065 27.3921 6.51479C27.5332 6.79714 27.674 7.07963 27.8146 7.36223C27.9909 7.71654 28.1677 8.07057 28.3447 8.42451C29.0553 9.84593 29.7574 11.2707 30.4386 12.7065C30.7238 13.3058 31.0174 13.8995 31.3226 14.4888C31.3761 14.5927 31.3761 14.5927 31.4307 14.6986C31.5712 14.971 31.7119 15.2433 31.8551 15.5144C31.9633 15.7196 32.0692 15.9259 32.1748 16.1325C32.2364 16.2504 32.298 16.3683 32.3614 16.4898C32.467 16.7975 32.467 16.7975 32.4151 17.0163C32.1805 17.3214 31.9154 17.5897 31.6405 17.8577C31.5801 17.9175 31.5198 17.9773 31.4576 18.0389C31.2647 18.2299 31.0711 18.4201 30.8774 18.6102C30.6241 18.8596 30.3711 19.1092 30.1186 19.3593C30.0267 19.4503 30.0267 19.4503 29.933 19.5431C29.5636 19.9111 29.2154 20.2896 28.8778 20.687C28.4089 21.2133 27.8954 21.7002 27.3939 22.1952C27.1684 22.4178 26.9433 22.6408 26.7184 22.864C26.6195 22.9616 26.5206 23.0593 26.4187 23.1599C26.1867 23.379 26.1867 23.379 26.0817 23.6156C26.0103 23.5799 25.9388 23.5442 25.8652 23.5074C25.9038 23.4537 25.9423 23.4001 25.982 23.3448C28.9338 19.5147 28.9338 19.5147 29.8696 14.9576C29.7478 14.2568 29.5413 13.579 29.3284 12.9013C29.2982 12.805 29.268 12.7087 29.2369 12.6094C28.5655 10.5118 27.7304 8.47128 26.9145 6.42686C26.8613 6.29343 26.8613 6.29343 26.807 6.1573C26.653 5.7729 26.4963 5.39128 26.3273 5.01325C26.1899 4.67624 26.1899 4.67624 26.1899 4.35156Z" fill="#9F1010"/>
<path d="M24.6752 26.8633C24.7109 26.8633 24.7466 26.8633 24.7834 26.8633C24.7834 31.2561 24.7834 35.649 24.7834 40.175C23.0816 41.1475 23.0816 41.1475 22.4701 41.4585C22.3346 41.5278 22.1991 41.5971 22.0635 41.6664C21.9953 41.7011 21.927 41.7359 21.8567 41.7717C20.8132 42.303 19.7744 42.8409 18.7499 43.4082C17.5451 44.0744 16.3198 44.7 15.0938 45.326C14.9772 45.3856 14.9772 45.3856 14.8582 45.4464C14.7053 45.5245 14.5524 45.6025 14.3994 45.6805C14.0382 45.8652 13.6796 46.0533 13.3247 46.2501C13.227 46.3041 13.227 46.3041 13.1272 46.3593C12.9517 46.4569 12.7768 46.5557 12.602 46.6546C12.5147 46.6949 12.4275 46.7352 12.3375 46.7767C12.2661 46.741 12.1947 46.7053 12.1211 46.6685C12.33 46.5366 12.5388 46.4047 12.7477 46.2728C12.9322 46.1562 13.1168 46.0396 13.3014 45.923C13.7697 45.6271 14.2382 45.3314 14.7071 45.0362C18.7935 42.5188 18.7935 42.5188 22.6189 39.6338C22.7216 39.549 22.8243 39.4642 22.9301 39.3768C23.6488 38.489 23.7303 37.3188 23.8703 36.2248C23.8933 36.0518 23.9163 35.8789 23.9393 35.7059C24.3232 32.77 24.5138 29.8185 24.6752 26.8633Z" fill="#9F1111"/>
<path d="M24.0262 25.7852C24.1333 25.8387 24.1333 25.8387 24.2426 25.8934C24.1964 25.9624 24.1502 26.0315 24.1026 26.1026C23.2154 27.4286 22.3331 28.7571 21.4699 30.0989C21.1914 30.5309 20.9109 30.9617 20.6306 31.3926C20.5114 31.5759 20.3922 31.7592 20.273 31.9426C20.2136 32.0339 20.1542 32.1252 20.093 32.2193C19.7986 32.6719 19.5044 33.1247 19.2102 33.5774C19.0929 33.7577 18.9757 33.9381 18.8584 34.1185C18.8004 34.2078 18.7424 34.2971 18.6826 34.3891C17.0998 36.8241 15.517 39.2592 13.9342 41.6942C13.8761 41.7836 13.818 41.873 13.7582 41.965C13.6414 42.1447 13.5246 42.3244 13.4078 42.504C13.1077 42.9656 12.8078 43.4273 12.5082 43.8892C11.8802 44.8571 11.2504 45.8235 10.6063 46.7808C10.5706 46.7094 10.5348 46.638 10.498 46.5644C10.6069 46.3131 10.7226 46.0758 10.8498 45.8339C10.9312 45.6756 11.0125 45.5174 11.0937 45.3591C11.1377 45.274 11.1816 45.1888 11.2269 45.1011C11.3666 44.8274 11.5025 44.5521 11.6374 44.276C12.3064 42.9102 13.029 41.583 13.788 40.2653C13.9547 39.974 14.1189 39.6814 14.2821 39.3881C16.1681 36.0135 18.4276 32.834 20.8177 29.7994C20.9863 29.5852 21.1542 29.3706 21.3218 29.1558C21.8492 28.4808 22.3834 27.8124 22.9279 27.1511C23.2983 26.6992 23.6623 26.2423 24.0262 25.7852Z" fill="#FC7272"/>
<path d="M25.3242 25.6758C25.6009 25.9306 25.7912 26.2033 25.9909 26.5213C26.058 26.6273 26.1251 26.7334 26.1942 26.8426C26.2665 26.9576 26.3388 27.0725 26.4132 27.1909C27.0606 28.2125 27.7211 29.2238 28.3951 30.228C28.9416 31.043 29.4823 31.86 29.9965 32.696C30.4222 33.3852 30.8663 34.0622 31.3104 34.7396C31.3503 34.8004 31.3901 34.8612 31.4312 34.9239C31.6298 35.2267 31.8284 35.5295 32.027 35.8323C32.3463 36.3196 32.6639 36.8079 32.9811 37.2965C33.0375 37.3832 33.0938 37.4699 33.1519 37.5593C33.2641 37.7322 33.3764 37.9051 33.4887 38.078C33.7793 38.5256 34.0702 38.973 34.361 39.4204C34.4783 39.6007 34.5955 39.7811 34.7127 39.9615C34.7708 40.0508 34.8288 40.1401 34.8886 40.2321C35.4162 41.0437 35.4162 41.0437 35.592 41.3143C35.7094 41.4948 35.8267 41.6752 35.944 41.8557C36.2362 42.305 36.5281 42.7545 36.8193 43.2044C37.6663 44.5119 38.5264 45.8102 39.3935 47.1044C39.3578 47.1758 39.3221 47.2472 39.2853 47.3208C38.4867 46.3676 37.7025 45.4081 36.9627 44.4084C36.5575 43.8614 36.141 43.3243 35.7206 42.7889C34.9698 41.8293 34.2551 40.8463 33.5493 39.8533C33.4932 39.7747 33.4371 39.6961 33.3793 39.6152C32.6216 38.5537 31.8796 37.4834 31.1684 36.3901C31.0957 36.2786 31.0957 36.2786 31.0215 36.1648C29.1153 33.2277 27.4451 30.1412 25.8721 27.0151C25.7886 26.8495 25.7886 26.8495 25.7034 26.6806C25.6532 26.5798 25.603 26.4789 25.5512 26.375C25.5072 26.2866 25.4631 26.1982 25.4177 26.1071C25.3242 25.8922 25.3242 25.8922 25.3242 25.6758Z" fill="#FC7272"/>
<path d="M44.697 23.6211C44.8041 23.6747 44.8041 23.6747 44.9134 23.7293C44.5944 24.0537 44.2747 24.3773 43.9543 24.7003C43.8454 24.8104 43.7366 24.9206 43.6281 25.031C43.4722 25.1895 43.3157 25.3473 43.159 25.5049C43.0649 25.6001 42.9708 25.6953 42.8739 25.7934C42.6407 26.002 42.6407 26.002 42.4243 26.002C42.4243 26.0735 42.4243 26.1449 42.4243 26.2185C42.29 26.3502 42.29 26.3502 42.0894 26.5127C41.6437 26.8918 41.2299 27.2952 40.8178 27.71C40.751 27.7771 40.6842 27.8443 40.6153 27.9135C40.4064 28.1239 40.1978 28.3346 39.9892 28.5453C37.9435 30.6126 37.9435 30.6126 37.2295 31.0886C37.1174 31.0293 37.0054 30.97 36.89 30.909C35.8154 30.3413 34.7377 29.7796 33.658 29.2217C33.5916 29.1874 33.5252 29.1531 33.4567 29.1177C33.1851 28.9774 32.9135 28.8371 32.6419 28.6968C30.7048 27.6961 28.77 26.6913 26.8398 25.6774C27.2341 25.5459 27.3022 25.5999 27.671 25.7657C27.7763 25.812 27.8816 25.8583 27.9901 25.906C28.1061 25.9578 28.222 26.0096 28.3415 26.0629C30.8755 27.1636 33.4735 28.2157 36.1472 28.9241C36.2274 28.9459 36.3076 28.9677 36.3903 28.9901C37.3503 29.2039 38.0335 28.8786 38.8528 28.383C39.997 27.635 41.0501 26.7675 42.0996 25.8938C42.1637 25.8406 42.2278 25.7874 42.2938 25.7325C43.1146 25.0497 43.9127 24.3456 44.697 23.6211Z" fill="#9F1010"/>
<path d="M1.4082 19.7266C1.97796 19.7907 2.52513 19.8817 3.08442 20.0119C3.15926 20.0292 3.2341 20.0465 3.3112 20.0643C3.47104 20.1013 3.63084 20.1384 3.79059 20.1757C4.13114 20.2553 4.47191 20.3339 4.81267 20.4125C4.9854 20.4524 5.15811 20.4923 5.33082 20.5322C6.04938 20.6983 6.76893 20.8596 7.4891 21.0185C8.68928 21.2838 9.88852 21.5532 11.0876 21.8234C12.5793 22.1596 14.0716 22.4932 15.5645 22.8242C16.8293 23.1047 18.0932 23.3887 19.3567 23.6747C20.7323 23.986 22.1091 24.2919 23.4861 24.5967C23.4861 24.6324 23.4861 24.6681 23.4861 24.7049C22.2406 24.6466 21.0243 24.4901 19.7929 24.2991C19.6007 24.2697 19.4084 24.2403 19.2161 24.2109C17.6055 23.9636 15.9982 23.6994 14.3952 23.4062C14.2576 23.3811 14.12 23.356 13.9782 23.3302C11.569 22.8884 9.19333 22.3734 6.863 21.6116C6.49359 21.4911 6.12249 21.3808 5.74857 21.2752C4.28128 20.8605 2.84656 20.339 1.4082 19.8348C1.4082 19.7991 1.4082 19.7634 1.4082 19.7266Z" fill="#FC7171"/>
<path d="M27.3809 26.3242C27.8945 26.4798 28.3604 26.6947 28.8347 26.9423C28.9493 27.0014 28.9493 27.0014 29.0662 27.0617C29.3141 27.1897 29.5616 27.3184 29.8092 27.4471C29.9814 27.5362 30.1537 27.6253 30.3259 27.7143C30.8237 27.9718 31.3209 28.2301 31.8181 28.4887C32.0048 28.5858 32.0048 28.5858 32.1953 28.6848C33.0443 29.1264 33.0443 29.1264 33.4193 29.3246C33.9583 29.6088 34.5006 29.8829 35.0488 30.1489C35.1732 30.2104 35.2976 30.272 35.4258 30.3354C35.6658 30.454 35.907 30.5704 36.1493 30.6842C36.2574 30.7382 36.3655 30.7921 36.4768 30.8477C36.5726 30.8938 36.6685 30.94 36.7672 30.9875C37.4423 31.5558 37.4669 32.6905 37.5993 33.5085C37.6231 33.6515 37.647 33.7946 37.6709 33.9376C37.7347 34.3195 37.7975 34.7015 37.8601 35.0836C37.9252 35.48 37.9912 35.8762 38.0572 36.2724C38.077 36.3909 38.077 36.3909 38.0971 36.5118C38.1237 36.6716 38.1504 36.8313 38.177 36.9911C38.2169 37.2311 38.2568 37.4711 38.2966 37.7112C38.4591 38.6897 38.6262 39.6673 38.7986 40.6442C38.8191 40.7604 38.8396 40.8765 38.8607 40.9962C38.9373 41.4302 39.014 41.8641 39.0918 42.2979C39.1438 42.5879 39.1951 42.8779 39.2463 43.168C39.2615 43.2512 39.2766 43.3344 39.2922 43.4202C39.3693 43.8597 39.4092 44.2763 39.3938 44.7225C39.3581 44.7225 39.3224 44.7225 39.2856 44.7225C39.2666 44.6324 39.2477 44.5424 39.2281 44.4496C39.0134 43.4318 38.7974 42.4143 38.5805 41.397C38.5308 41.164 38.4813 40.9309 38.4318 40.6978C38.0862 39.0731 37.7226 37.4539 37.324 35.8413C37.2902 35.7031 37.2564 35.5649 37.2215 35.4225C36.7222 33.1613 36.7222 33.1613 35.2813 31.4581C35.2162 31.4129 35.151 31.3677 35.0839 31.3211C34.1536 30.6808 33.2024 30.071 32.251 29.4627C32.1261 29.3828 32.1261 29.3828 31.9987 29.3013C31.1508 28.7599 30.2983 28.2264 29.4401 27.7016C29.3754 27.662 29.3108 27.6224 29.2442 27.5816C28.9221 27.3844 28.5997 27.1876 28.2768 26.9916C28.1604 26.9205 28.044 26.8494 27.9241 26.7761C27.8193 26.7124 27.7145 26.6487 27.6065 26.5831C27.5321 26.5334 27.4576 26.4837 27.3809 26.4324C27.3809 26.3967 27.3809 26.361 27.3809 26.3242Z" fill="#9F1010"/>
<path d="M1.62305 19.3947C2.41282 19.3693 3.17452 19.4665 3.95665 19.5706C4.06381 19.5847 4.06381 19.5847 4.17314 19.5991C7.1339 19.9905 10.085 20.4075 12.9867 21.1263C13.0936 21.1525 13.2006 21.1787 13.3107 21.2058C14.7839 21.5697 16.2342 21.9973 17.6832 22.4466C18.0895 22.5715 18.4972 22.6915 18.9052 22.8106C21.962 23.7054 21.962 23.7054 23.2681 24.1566C22.8251 24.3345 22.4196 24.1943 21.9761 24.0852C21.8913 24.0652 21.8065 24.0452 21.7192 24.0246C21.5367 23.9814 21.3544 23.9379 21.1722 23.8939C20.6903 23.7777 20.2076 23.6647 19.725 23.5512C19.6288 23.5285 19.5326 23.5058 19.4335 23.4824C18.6507 23.2979 17.866 23.1251 17.0789 22.9594C15.9232 22.7148 14.769 22.4644 13.6157 22.2086C13.5319 22.19 13.448 22.1714 13.3616 22.1522C12.3526 21.9281 11.3459 21.6967 10.3419 21.451C9.06935 21.1398 7.78965 20.8649 6.50877 20.5905C5.35436 20.343 4.20166 20.0888 3.05027 19.8276C2.94018 19.8027 2.94018 19.8027 2.82786 19.7772C2.4262 19.686 2.02459 19.5946 1.62305 19.5029C1.62305 19.4672 1.62305 19.4315 1.62305 19.3947Z" fill="#FA5B5B"/>
<path d="M48.3756 19.3963C48.0724 19.5604 47.7951 19.6601 47.4586 19.7329C47.3148 19.7645 47.3148 19.7645 47.1681 19.7967C47.0644 19.8189 46.9606 19.8411 46.8537 19.8639C46.6902 19.8996 46.6902 19.8996 46.5235 19.936C46.289 19.987 46.0545 20.0379 45.8199 20.0884C45.4511 20.168 45.0824 20.2482 44.7137 20.3286C44.2186 20.4366 43.7234 20.5443 43.2282 20.6518C42.2897 20.8556 41.3518 21.062 40.4143 21.27C40.3353 21.2875 40.2563 21.305 40.1749 21.323C39.0812 21.5656 37.9911 21.8212 36.9027 22.0868C35.9847 22.3092 35.0622 22.5064 34.1379 22.701C32.8233 22.9799 31.5147 23.2842 30.2062 23.5904C29.6974 23.7093 29.1882 23.8262 28.6786 23.9418C28.5854 23.9631 28.4923 23.9843 28.3963 24.0063C28.1142 24.0702 27.8319 24.1326 27.5495 24.1946C27.4629 24.2143 27.3764 24.2341 27.2872 24.2544C26.8812 24.342 26.5867 24.3883 26.1895 24.2665C26.6471 24.1129 27.1048 23.9597 27.5626 23.8065C27.6901 23.7637 27.8177 23.7209 27.9492 23.6767C30.1363 22.9457 32.3474 22.3402 34.5801 21.7672C34.8331 21.7011 35.0857 21.6333 35.3378 21.564C36.4178 21.2675 37.5035 21.029 38.6015 20.81C38.6944 20.7914 38.7873 20.7727 38.883 20.7535C40.6382 20.403 42.399 20.1395 44.1738 19.9114C44.8114 19.8294 45.4471 19.7372 46.0826 19.6399C46.1646 19.6273 46.2466 19.6148 46.3311 19.6019C46.406 19.5904 46.481 19.579 46.5582 19.5671C47.7748 19.3817 47.7749 19.3817 48.3756 19.3963Z" fill="#FB7070"/>
<path d="M24.7836 2.40234C24.8193 2.40234 24.855 2.40234 24.8918 2.40234C24.8918 9.65234 24.8918 16.9023 24.8918 24.372C24.8561 24.372 24.8204 24.372 24.7836 24.372C24.2494 21.5263 24.1058 18.7286 24.1004 15.8358C24.1002 15.7246 24.1002 15.7246 24.0999 15.6112C24.0943 13.1301 24.1794 10.6615 24.3372 8.18562C24.3419 8.11109 24.3466 8.03655 24.3515 7.95976C24.4698 6.10504 24.6141 4.25306 24.7836 2.40234Z" fill="#FF7272"/>
<path d="M2.48989 19.6172C3.9471 19.8932 5.39036 20.2171 6.8339 20.5571C6.90428 20.5736 6.97467 20.5902 7.04718 20.6073C7.15333 20.6323 7.15333 20.6323 7.26163 20.6578C9.35495 21.15 11.4552 21.6095 13.5577 22.0604C14.7099 22.3079 15.8578 22.568 17.0026 22.8479C17.9266 23.0733 18.8541 23.2804 19.7828 23.4849C21.0915 23.7733 22.3968 24.0755 23.702 24.3791C23.702 24.4862 23.702 24.5934 23.702 24.7038C22.3697 24.4484 21.0422 24.1825 19.7247 23.8583C18.6081 23.584 17.4872 23.3349 16.363 23.0939C16.0189 23.0201 15.6747 22.9463 15.3306 22.8724C15.2445 22.8539 15.1583 22.8354 15.0695 22.8164C14.1335 22.6152 13.1986 22.4089 12.264 22.2011C12.1817 22.1828 12.0994 22.1645 12.0147 22.1456C10.9278 21.9037 9.84213 21.6567 8.75762 21.4043C6.59927 20.9036 4.43558 20.4258 2.27344 19.9419C2.34487 19.9061 2.41629 19.8704 2.48989 19.8336C2.48989 19.7622 2.48989 19.6908 2.48989 19.6172Z" fill="#831717"/>
<path d="M24.7829 2.40234C24.8186 2.40234 24.8543 2.40234 24.8911 2.40234C24.8911 9.65234 24.8911 16.9023 24.8911 24.372C24.8554 24.372 24.8197 24.372 24.7829 24.372C24.7471 18.2292 24.7114 12.0863 24.6746 5.75732C24.6389 5.75732 24.6032 5.75732 24.5664 5.75732C24.5815 5.34018 24.5976 4.92307 24.6138 4.50597C24.618 4.38843 24.6223 4.2709 24.6266 4.1498C24.65 3.55991 24.6835 2.98451 24.7829 2.40234Z" fill="#DA5D5D"/>
<path d="M24.0264 25.7852C24.0978 25.8209 24.1693 25.8566 24.2429 25.8934C24.1116 26.1064 23.9781 26.3181 23.8438 26.5292C23.7697 26.6472 23.6956 26.7653 23.6193 26.8869C23.3675 27.2042 23.2201 27.3022 22.8359 27.4085C23.0121 27.0019 23.2704 26.6924 23.5529 26.3533C23.6414 26.2468 23.7298 26.1402 23.821 26.0304C23.8888 25.9494 23.9566 25.8685 24.0264 25.7852Z" fill="#F36767"/>
<path d="M21.8669 23.7458C21.9881 23.7767 21.9881 23.7767 22.1117 23.8083C22.1971 23.8298 22.2825 23.8513 22.3704 23.8734C22.6735 23.959 22.9719 24.0536 23.2684 24.1601C22.8382 24.3241 22.4886 24.2141 22.0508 24.1127C21.9141 24.0816 21.7774 24.0505 21.6365 24.0184C21.5322 23.9937 21.4278 23.969 21.3203 23.9436C21.645 23.7272 21.645 23.7272 21.8669 23.7458Z" fill="#EB5454"/>
<path d="M11.2551 45.3672C11.2909 45.4743 11.3266 45.5815 11.3634 45.6919C11.2082 45.9603 11.2082 45.9603 10.9913 46.2533C10.9201 46.3508 10.8488 46.4483 10.7753 46.5488C10.6914 46.6603 10.6914 46.6603 10.6058 46.7741C10.4976 46.5577 10.4976 46.5577 10.5703 46.3311C10.6088 46.2451 10.6473 46.1592 10.687 46.0707C10.7244 45.9847 10.7617 45.8988 10.8003 45.8102C10.9305 45.5836 10.9305 45.5836 11.2551 45.3672Z" fill="#F46B6B"/>
<path d="M25.3242 25.6758C25.5993 25.925 25.7648 26.1815 25.9397 26.5078C25.987 26.5952 26.0343 26.6827 26.0831 26.7728C26.1184 26.8394 26.1537 26.9059 26.19 26.9745C26.0829 26.9745 25.9757 26.9745 25.8653 26.9745C25.7746 26.7989 25.6846 26.623 25.5948 26.4469C25.5446 26.3489 25.4943 26.251 25.4426 26.1501C25.3242 25.8922 25.3242 25.8922 25.3242 25.6758Z" fill="#F26464"/>
<path d="M38.5293 46.1289C38.6007 46.1289 38.6722 46.1289 38.7457 46.1289C38.9089 46.342 38.9089 46.342 39.084 46.6159C39.1423 46.7063 39.2006 46.7967 39.2607 46.8899C39.305 46.9602 39.3494 47.0305 39.3951 47.1029C39.3594 47.1744 39.3237 47.2458 39.2869 47.3194C39.16 47.1621 39.0339 47.0041 38.9081 46.8459C38.8026 46.7141 38.8026 46.7141 38.695 46.5796C38.5293 46.3454 38.5293 46.3454 38.5293 46.1289Z" fill="#ED6262"/>
</svg>
