<svg width="50" height="50" viewBox="0 0 50 50" fill="none" xmlns="http://www.w3.org/2000/svg">
<path d="M27.7017 0.811445C28.7318 1.58932 29.5813 2.57915 29.7805 3.89508C29.9112 5.33811 29.8158 6.63784 28.9138 7.83286C28.7554 8.02024 28.6029 8.192 28.416 8.35079C28.2341 8.56316 28.2356 8.67269 28.2358 8.94953C28.2352 9.03641 28.2346 9.12328 28.234 9.21279C28.2349 9.30637 28.2358 9.39995 28.2367 9.49637C28.2366 9.59286 28.2366 9.68937 28.2365 9.78887C28.2368 9.99312 28.2378 10.1974 28.2394 10.4015C28.2418 10.7136 28.2415 11.0256 28.2409 11.3377C28.2414 11.5362 28.2421 11.7347 28.243 11.9331C28.2429 12.0729 28.2429 12.0729 28.2427 12.2155C28.2489 12.7783 28.2572 13.2242 28.6752 13.6422C28.9571 13.6954 28.9571 13.6954 29.2914 13.7207C29.4828 13.7386 29.4828 13.7386 29.6781 13.7569C29.8169 13.7689 29.9557 13.781 30.0945 13.7929C30.2361 13.8057 30.3776 13.8185 30.5192 13.8315C30.8059 13.8575 31.0925 13.8828 31.3792 13.9077C31.7487 13.9398 32.118 13.9736 32.4873 14.0077C32.9771 14.0521 33.467 14.0911 33.9575 14.1258C34.1753 14.1426 34.3917 14.1647 34.6089 14.1885C35.2284 14.2349 35.2284 14.2349 35.7621 13.953C35.9178 13.7934 36.0693 13.6296 36.2159 13.4616C36.5756 13.0567 36.9148 12.9576 37.4441 12.9082C38.1507 12.8826 38.7596 12.8854 39.3267 13.3407C39.8336 13.8235 40.1913 14.2613 40.2648 14.9756C40.2741 15.8313 40.2429 16.4232 39.641 17.0552C38.9472 17.6965 38.4017 17.8103 37.4618 17.7927C36.7467 17.7294 36.3884 17.4541 35.9164 16.9331C35.8596 16.8621 35.8027 16.7911 35.7441 16.718C35.0557 16.2461 33.8552 16.6654 33.0789 16.8059C32.9324 16.832 32.786 16.8581 32.6396 16.8841C32.3343 16.9387 32.0292 16.9938 31.7241 17.0494C31.3337 17.1204 30.9429 17.1891 30.552 17.2575C30.2502 17.3104 29.9486 17.365 29.6471 17.4198C29.5032 17.4459 29.359 17.4713 29.2149 17.4963C29.0136 17.5313 28.8128 17.5684 28.6119 17.6058C28.4406 17.6365 28.4406 17.6365 28.2659 17.668C27.9271 17.7764 27.7806 17.8789 27.5699 18.164C27.5135 18.3951 27.5135 18.3951 27.5273 18.6468C27.5281 18.7433 27.5289 18.8398 27.5297 18.9392C27.5327 19.044 27.5357 19.1488 27.5388 19.2568C27.5404 19.3673 27.5421 19.4777 27.5438 19.5915C27.5501 19.9531 27.5596 20.3146 27.5699 20.6761C27.5729 20.7975 27.5759 20.9188 27.5791 21.0439C27.5985 21.7981 27.6229 22.5521 27.6502 23.306C27.6642 23.6959 27.6774 24.0858 27.6906 24.4758C27.6993 24.727 27.7082 24.9782 27.717 25.2294C27.7209 25.3443 27.7248 25.4593 27.7287 25.5777C27.7405 26.796 27.7405 26.796 28.1017 27.939C28.1482 28.0311 28.1948 28.1232 28.2426 28.218C28.2921 28.3136 28.3416 28.4092 28.3925 28.5077C29.9215 31.5831 30.4805 34.8811 29.4665 38.2109C29.2063 38.9547 28.8452 39.6348 28.4632 40.3227C28.2689 40.6563 28.2689 40.6563 28.1727 40.9742C31.3 40.4641 34.0683 39.399 36.5131 37.3567C36.6051 37.2952 36.6972 37.2337 36.7921 37.1703C36.8658 37.0992 36.9396 37.0281 37.0155 36.9548C37.0155 36.7558 37.0155 36.5568 37.0155 36.3519C36.2196 36.3187 35.4238 36.2856 34.6038 36.2514C34.9391 35.9998 35.2675 35.7915 35.6275 35.5794C36.1527 35.2651 36.6028 34.9163 37.0449 34.4897C37.2165 34.3422 37.2165 34.3422 37.4174 34.3422C37.4423 34.2848 37.4671 34.2274 37.4927 34.1683C37.638 33.9045 37.811 33.7233 38.0203 33.5069C39.6134 31.7603 40.6105 29.4865 41.3272 27.2587C41.5048 26.727 41.5048 26.727 41.8388 26.5043C42.1214 26.4415 42.1214 26.4415 42.4417 26.5043C42.9147 26.9926 43.2415 27.6204 43.5533 28.2189C43.5967 28.3021 43.6401 28.3854 43.6848 28.4712C44.0574 29.2032 44.3383 29.9295 44.5519 30.7247C44.5837 30.8392 44.6156 30.9537 44.6484 31.0717C45.2652 33.6404 44.7838 36.2563 43.4281 38.4976C42.8131 39.4627 42.0409 40.372 41.1354 41.0747C41.1022 41.0747 41.069 41.0747 41.0349 41.0747C41.0017 40.4115 40.9686 39.7483 40.9344 39.0649C40.3598 38.9967 40.3598 38.9967 40.1313 39.2503C40.0689 39.3383 40.0064 39.4264 39.9421 39.5172C38.9498 40.8097 37.7804 41.9003 36.4125 42.7829C36.3274 42.8402 36.2423 42.8974 36.1547 42.9564C34.9333 43.7412 33.5922 44.0858 32.1922 44.3907C29.7877 44.9229 27.9377 46.1228 26.5901 48.2155C26.3365 48.6133 26.1079 49.0167 25.8992 49.4401C25.7211 49.7682 25.6699 49.8122 25.3152 49.9928C24.8763 50.0236 24.719 49.9599 24.3543 49.7164C24.1869 49.4636 24.0784 49.1929 23.965 48.9126C23.5062 47.865 22.9584 47.0055 22.0432 46.2999C21.9422 46.3605 21.8414 46.4212 21.7373 46.4836C20.8867 46.9845 20.096 47.3772 19.129 47.6062C19.0528 47.6255 18.9765 47.6446 18.8979 47.6644C17.0212 47.9576 15.2435 47.5534 13.6793 46.4786C12.4971 45.5559 11.6045 44.269 11.2912 42.7829C11.2879 42.6425 11.2894 42.5018 11.2947 42.3614C11.324 41.4118 11.324 41.4118 10.9819 40.553C10.724 40.2994 10.724 40.2994 10.4438 40.0789C10.1323 39.8252 9.94545 39.5458 9.73842 39.2055C9.54332 38.9976 9.54332 38.9976 8.98004 39.0649C8.94687 39.7282 8.91371 40.3914 8.87955 41.0747C7.02624 39.9627 5.77217 37.5998 5.23106 35.5567C4.88161 33.997 4.93097 32.2625 5.36256 30.7247C5.39326 30.6086 5.42395 30.4923 5.45558 30.3726C5.69341 29.5709 6.03328 28.8464 6.41765 28.1058C6.46416 28.0161 6.51066 27.9263 6.55857 27.8339C6.82099 27.343 7.08383 26.9049 7.47275 26.5043C7.78049 26.4415 7.78049 26.4415 8.07566 26.5043C8.49594 26.8252 8.60514 27.2219 8.74766 27.7101C9.43539 29.893 10.4847 31.9124 11.9946 33.6388C12.1128 33.7942 12.1128 33.7942 12.2333 33.9528C12.9222 34.7074 13.7492 35.2607 14.6225 35.7765C14.9087 35.9499 14.9087 35.9499 15.3106 36.2514C14.1169 36.3011 14.1169 36.3011 12.899 36.3519C12.833 36.9334 12.833 36.9334 13.1132 37.2017C13.2125 37.2798 13.3117 37.3579 13.4139 37.4383C13.468 37.4811 13.5221 37.5239 13.5779 37.5679C14.1937 38.0447 14.8424 38.4666 15.5116 38.864C15.5689 38.8985 15.6262 38.9329 15.6852 38.9684C17.1349 39.8274 19.0162 40.7493 20.7368 40.5723C21.25 40.334 21.4216 40.0773 21.6412 39.5674C21.6956 39.2893 21.6956 39.2893 21.7042 38.9896C21.7139 38.8036 21.7139 38.8036 21.7239 38.6137C21.7299 38.4627 21.7359 38.3116 21.7417 38.1606C21.7454 38.0717 21.7491 37.9828 21.753 37.8912C21.7854 37.1104 21.8127 36.3294 21.8394 35.5484C21.8483 35.2949 21.8571 35.0415 21.8661 34.788C21.8845 34.2587 21.9028 33.7294 21.921 33.2001C21.9418 32.5923 21.9631 31.9845 21.9845 31.3768C22.0053 30.7869 22.0258 30.1971 22.0461 29.6072C22.0548 29.3586 22.0635 29.1099 22.0723 28.8613C22.0955 28.2011 22.1171 27.5409 22.1355 26.8805C22.1429 26.6292 22.1523 26.378 22.162 26.1269C22.1657 25.9919 22.1691 25.857 22.1725 25.722C22.1761 25.6123 22.1797 25.5026 22.1834 25.3895C22.1012 24.7859 21.6495 24.4094 21.2392 23.9922C21.0907 23.8219 20.9457 23.6491 20.8006 23.4759C20.3795 22.9737 19.9447 22.4892 19.4934 22.0139C18.189 20.6102 16.862 18.8651 16.3112 17.0065C16.2412 16.7457 16.2412 16.7457 16.0293 16.6544C15.7899 16.6164 15.5517 16.5822 15.3106 16.5562C15.1973 16.5351 15.1973 16.5351 15.0818 16.5135C14.8263 16.4834 14.6543 16.4842 14.4062 16.5562C14.1507 16.7661 13.936 16.9956 13.7126 17.2392C13.2391 17.7366 12.7597 17.7822 12.1013 17.806C11.3736 17.7868 10.9189 17.6753 10.3904 17.1721C9.74912 16.4784 9.63511 15.9331 9.65281 14.9932C9.72267 14.2032 10.0901 13.788 10.6785 13.285C11.3317 12.8349 12.0319 12.8709 12.7985 12.9388C13.3317 13.0753 13.6191 13.3534 13.9729 13.7615C14.3282 14.1453 14.5914 14.2075 15.1096 14.245C15.3106 14.2487 15.5117 14.25 15.7125 14.245C15.7079 14.1198 15.7033 13.9946 15.6984 13.8656C15.6251 11.0675 16.5966 8.8114 18.4956 6.75147C19.5251 5.66782 19.5251 5.66782 19.8557 5.46753C20.0634 5.30796 20.0634 5.30796 20.0805 5.0071C20.0815 4.89091 20.0826 4.77472 20.0837 4.65501C20.151 3.23478 20.7174 2.11647 21.7479 1.14116C23.4218 -0.235677 25.8879 -0.392315 27.7017 0.811445ZM23.0758 3.41072C22.9538 3.60185 22.8449 3.79144 22.7466 3.99557C23.0334 4.19364 23.0334 4.19364 23.2929 4.32844C23.6808 4.58386 23.9061 4.86173 24.0528 5.30188C24.0905 5.87671 24.0529 6.20204 23.7514 6.70868C23.7182 6.775 23.6851 6.84133 23.6509 6.90965C24.276 7.25062 24.855 7.2955 25.5602 7.21111C26.2444 7.00174 26.7352 6.56076 27.0988 5.94876C27.3731 5.35656 27.3863 4.67979 27.195 4.05877C26.9189 3.46277 26.4737 2.97315 25.889 2.66296C24.8588 2.32839 23.7571 2.54876 23.0758 3.41072ZM21.5407 8.41694C20.5176 9.35299 19.7204 10.4295 19.2295 11.7329C19.1926 11.8309 19.1926 11.8309 19.1549 11.9308C18.954 12.5807 19.0116 13.2713 19.0286 13.9437C19.3889 13.9215 19.7488 13.8953 20.1088 13.8682C20.2109 13.8621 20.3129 13.8559 20.4181 13.8494C20.5166 13.8417 20.6149 13.8339 20.7164 13.8258C20.807 13.8196 20.8974 13.8133 20.9907 13.8067C21.3116 13.7241 21.4373 13.5986 21.6412 13.3407C21.7348 13.0518 21.7539 12.7898 21.7531 12.4872C21.7531 12.3545 21.7531 12.3545 21.7531 12.2191C21.7526 12.1245 21.7521 12.0299 21.7514 11.9323C21.7513 11.8348 21.7512 11.7372 21.751 11.6367C21.7505 11.3254 21.7493 11.0142 21.7479 10.703C21.7474 10.4918 21.747 10.2806 21.7466 10.0695C21.7455 9.5521 21.7437 9.03476 21.7417 8.51742C21.6754 8.48426 21.609 8.4511 21.5407 8.41694ZM20.3349 17.4606C20.5464 17.9179 20.8029 18.31 21.1137 18.7041C21.1577 18.7607 21.2019 18.8173 21.2472 18.8755C21.7716 19.5457 21.7716 19.5457 22.3445 20.1738C22.3778 20.1738 22.4109 20.1738 22.4451 20.1738C22.4597 19.8493 22.4686 19.5249 22.4765 19.2002C22.4807 19.1087 22.4849 19.017 22.4892 18.9225C22.4975 18.4663 22.4969 18.237 22.2264 17.8563C21.9309 17.6536 21.7422 17.5787 21.39 17.5297C21.2978 17.5156 21.2056 17.5014 21.1105 17.4869C20.8499 17.4618 20.5965 17.4554 20.3349 17.4606ZM16.4159 44.0893C16.7274 44.4007 16.9577 44.3897 17.3957 44.397C17.5034 44.3949 17.6113 44.3928 17.7223 44.3907C17.7223 44.3576 17.7223 44.3244 17.7223 44.2903C17.2912 44.2239 16.8601 44.1576 16.4159 44.0893Z" fill="#9A5C3E"/>
<path d="M27.7021 0.811445C28.7321 1.58932 29.5817 2.57916 29.7808 3.89509C29.9116 5.33811 29.8162 6.63784 28.9141 7.83286C28.7558 8.02024 28.6033 8.19201 28.4163 8.3508C28.2344 8.56317 28.236 8.67269 28.2362 8.94953C28.2355 9.03641 28.2349 9.12329 28.2343 9.2128C28.2352 9.30637 28.2362 9.39996 28.2371 9.49637C28.2371 9.59286 28.237 9.68937 28.237 9.78887C28.2372 9.99313 28.2381 10.1974 28.2399 10.4015C28.2422 10.7136 28.2419 11.0256 28.2412 11.3377C28.2418 11.5362 28.2425 11.7347 28.2434 11.9331C28.2433 12.0729 28.2433 12.0729 28.2431 12.2155C28.2492 12.7783 28.2576 13.2242 28.6755 13.6422C28.9575 13.6954 28.9575 13.6954 29.2918 13.7207C29.4832 13.7386 29.4832 13.7386 29.6785 13.7569C29.8173 13.7689 29.9561 13.781 30.0949 13.7929C30.2365 13.8057 30.378 13.8185 30.5195 13.8315C30.8062 13.8575 31.0929 13.8828 31.3797 13.9077C31.7491 13.9398 32.1184 13.9736 32.4877 14.0077C32.9774 14.0521 33.4673 14.0911 33.9579 14.1258C34.1757 14.1426 34.3922 14.1647 34.6093 14.1885C35.2287 14.2349 35.2287 14.2349 35.7625 13.953C35.9182 13.7934 36.0697 13.6296 36.2162 13.4616C36.576 13.0567 36.9151 12.9576 37.4444 12.9082C38.151 12.8826 38.76 12.8854 39.327 13.3407C39.834 13.8235 40.1918 14.2613 40.2651 14.9756C40.2746 15.8313 40.2432 16.4232 39.6414 17.0552C38.9475 17.6965 38.4021 17.8103 37.4621 17.7927C36.7472 17.7294 36.3888 17.4541 35.9168 16.9331C35.8599 16.8621 35.803 16.7911 35.7445 16.718C35.0561 16.2461 33.8556 16.6654 33.0792 16.8059C32.9328 16.832 32.7864 16.8581 32.6399 16.8841C32.3347 16.9387 32.0296 16.9938 31.7245 17.0494C31.3341 17.1204 30.9434 17.1891 30.5525 17.2575C30.2506 17.3104 29.9491 17.365 29.6475 17.4198C29.5035 17.4459 29.3594 17.4713 29.2152 17.4963C29.014 17.5313 28.8131 17.5684 28.6122 17.6058C28.4409 17.6365 28.4409 17.6365 28.2662 17.668C27.9279 17.7763 27.7812 17.8798 27.5702 18.164C27.5137 18.3875 27.5137 18.3875 27.5274 18.6307C27.5285 18.7718 27.5285 18.7718 27.5298 18.9158C27.5328 19.0188 27.5357 19.1219 27.5388 19.2281C27.5405 19.3376 27.542 19.4472 27.5438 19.56C27.5501 19.9322 27.5599 20.3041 27.5702 20.6761C27.5736 20.8119 27.5769 20.9477 27.5802 21.0834C27.6034 22.03 27.6325 22.9765 27.6633 23.923C27.6758 24.3064 27.6877 24.6899 27.6998 25.0734C27.7231 25.8183 27.747 26.5633 27.7712 27.3082C27.4568 27.0101 27.2518 26.6658 27.0301 26.2971C25.744 24.204 24.1864 22.1157 22.4454 20.3747C22.4198 20.1553 22.4198 20.1553 22.4179 19.8857C22.4159 19.7883 22.4138 19.6911 22.4117 19.5908C22.4091 19.3857 22.4072 19.1805 22.4062 18.9753C22.3988 18.4135 22.3988 18.4135 22.1927 17.9033C21.8395 17.7034 21.5005 17.6523 21.1015 17.5988C20.952 17.5769 20.8026 17.5547 20.6532 17.5321C20.5544 17.5185 20.5544 17.5185 20.4536 17.5047C20.2348 17.4606 20.2348 17.4606 19.9487 17.3635C19.6216 17.2563 19.3064 17.1917 18.9673 17.1337C18.8419 17.1121 18.7164 17.0906 18.5872 17.0683C18.4573 17.0465 18.3275 17.0246 18.1936 17.0022C18.0006 16.9688 18.0006 16.9688 17.8037 16.9349C17.1411 16.822 16.482 16.7252 15.8134 16.6567C15.7305 16.6381 15.6476 16.6194 15.5622 16.6002C15.4793 16.5857 15.3964 16.5712 15.3109 16.5562C15.2452 16.5437 15.1793 16.5311 15.1115 16.5181C14.8499 16.4897 14.6627 16.4899 14.4066 16.5562C14.1499 16.7654 13.9367 16.9953 13.7131 17.2392C13.2394 17.7366 12.7601 17.7822 12.1017 17.806C11.3739 17.7868 10.9192 17.6753 10.3907 17.1722C9.74946 16.4784 9.63556 15.9331 9.65315 14.9932C9.72302 14.2032 10.0905 13.788 10.6788 13.285C11.3321 12.8349 12.0323 12.871 12.7988 12.9388C13.332 13.0753 13.6194 13.3534 13.9733 13.7615C14.3287 14.1453 14.5917 14.2075 15.11 14.245C15.3109 14.2487 15.512 14.25 15.713 14.245C15.7082 14.1198 15.7036 13.9946 15.6988 13.8656C15.6255 11.0675 16.597 8.8114 18.4959 6.75147C19.5254 5.66782 19.5254 5.66782 19.856 5.46753C20.0638 5.30796 20.0638 5.30796 20.0809 5.0071C20.082 4.89091 20.083 4.77472 20.084 4.65501C20.1513 3.23478 20.7178 2.11647 21.7483 1.14116C23.4221 -0.235677 25.8884 -0.392315 27.7021 0.811445ZM23.0762 3.41072C22.9541 3.60185 22.8454 3.79144 22.7469 3.99557C23.0338 4.19364 23.0338 4.19364 23.2933 4.32844C23.6812 4.58386 23.9065 4.86173 24.0532 5.30188C24.0909 5.87671 24.0533 6.20204 23.7518 6.70868C23.7186 6.775 23.6854 6.84133 23.6513 6.90965C24.2764 7.25062 24.8554 7.2955 25.5605 7.21111C26.2449 7.00174 26.7355 6.56076 27.0991 5.94876C27.3735 5.35656 27.3866 4.67979 27.1954 4.05877C26.9193 3.46277 26.474 2.97315 25.8894 2.66296C24.8592 2.32839 23.7575 2.54876 23.0762 3.41072ZM21.5411 8.41694C20.518 9.35299 19.7207 10.4295 19.2299 11.7329C19.1929 11.8309 19.1929 11.8309 19.1553 11.9308C18.9543 12.5807 19.0119 13.2713 19.0289 13.9437C19.3893 13.9215 19.7492 13.8953 20.1091 13.8682C20.2112 13.8621 20.3133 13.8559 20.4184 13.8494C20.5169 13.8417 20.6154 13.8339 20.7167 13.8258C20.8073 13.8196 20.8978 13.8133 20.9911 13.8067C21.3119 13.7241 21.4376 13.5986 21.6416 13.3407C21.7351 13.0518 21.7544 12.7898 21.7534 12.4872C21.7534 12.3545 21.7534 12.3545 21.7534 12.2191C21.7529 12.1245 21.7524 12.0299 21.7519 11.9323C21.7517 11.8348 21.7516 11.7372 21.7514 11.6367C21.7509 11.3254 21.7496 11.0142 21.7483 10.703C21.7478 10.4918 21.7474 10.2806 21.747 10.0695C21.7458 9.5521 21.7441 9.03476 21.742 8.51742C21.6757 8.48426 21.6094 8.4511 21.5411 8.41694Z" fill="#FEBF08"/>
<path d="M22.2441 25.0973C22.7982 25.6463 22.7982 25.6463 23.0205 25.9588C23.0912 26.058 23.0912 26.058 23.1633 26.1592C23.2123 26.2295 23.2613 26.2997 23.3118 26.3722C23.3638 26.4466 23.416 26.5211 23.4696 26.5978C24.3798 27.9133 25.1862 29.2741 25.8616 30.7244C25.9026 30.8125 25.9437 30.9006 25.986 30.9913C26.091 31.2347 26.1797 31.4778 26.2635 31.7293C26.3195 31.891 26.3195 31.891 26.3766 32.0559C26.9989 34.1303 26.8468 36.351 25.8655 38.2761C25.2142 39.4798 24.311 40.5174 23.249 41.3759C23.1676 41.4481 23.0862 41.5205 23.0025 41.5949C21.6509 42.7765 19.6007 44.4953 17.7223 44.3905C15.9521 44.1324 14.3266 43.3424 12.899 42.2803C12.8186 42.221 12.7384 42.1618 12.6556 42.1008C11.5888 41.2799 10.518 40.3587 9.76466 39.235C9.55114 38.996 9.55115 38.996 8.98004 39.0647C8.94687 39.7279 8.91371 40.3911 8.87955 41.0744C7.02624 39.9624 5.77217 37.5995 5.23106 35.5564C4.88161 33.9967 4.93097 32.2623 5.36256 30.7244C5.39326 30.6083 5.42395 30.4921 5.45558 30.3723C5.69341 29.5706 6.03328 28.8462 6.41765 28.1055C6.46416 28.0158 6.51066 27.9261 6.55857 27.8336C6.82099 27.3427 7.08383 26.9046 7.47275 26.504C7.78049 26.4412 7.78049 26.4412 8.07566 26.504C8.49594 26.8249 8.60514 27.2217 8.74766 27.7098C9.43538 29.8927 10.4847 31.9121 11.9946 33.6385C12.1128 33.7939 12.1128 33.7939 12.2333 33.9525C12.9222 34.7071 13.7492 35.2605 14.6225 35.7762C14.9087 35.9496 14.9087 35.9496 15.3106 36.2511C14.5148 36.2843 13.7189 36.3175 12.899 36.3517C12.833 36.9331 12.833 36.9331 13.1132 37.2014C13.2125 37.2795 13.3117 37.3577 13.4139 37.4381C13.468 37.4808 13.5221 37.5236 13.5779 37.5676C14.1937 38.0444 14.8424 38.4663 15.5116 38.8638C15.5689 38.8982 15.6262 38.9326 15.6853 38.9681C17.1349 39.8272 19.0162 40.7491 20.7368 40.572C21.25 40.3337 21.4216 40.077 21.6412 39.5672C21.6957 39.289 21.6957 39.289 21.7044 38.9893C21.7109 38.8653 21.7174 38.7413 21.7241 38.6135C21.7301 38.4625 21.736 38.3114 21.7417 38.1604C21.7471 38.0269 21.7471 38.0269 21.7527 37.8909C21.7791 37.2332 21.802 36.5755 21.8237 35.9176C21.8361 35.5409 21.8489 35.1643 21.8618 34.7877C21.889 33.9881 21.9159 33.1884 21.9426 32.3887C21.9737 31.4615 22.005 30.5342 22.0367 29.607C22.0491 29.2383 22.0614 28.8697 22.0735 28.5011C22.1118 27.3648 22.155 26.2308 22.2441 25.0973Z" fill="#FEBF08"/>
<path d="M42.4419 26.5037C42.9149 26.992 43.2417 27.6197 43.5535 28.2182C43.5969 28.3015 43.6403 28.3847 43.685 28.4704C44.0576 29.2026 44.3385 29.9289 44.5521 30.7241C44.5839 30.8385 44.6158 30.953 44.6486 31.0711C45.2654 33.6398 44.784 36.2556 43.4283 38.4969C42.8134 39.4621 42.0411 40.3714 41.1356 41.074C41.1024 41.074 41.0692 41.074 41.0351 41.074C41.0019 40.4108 40.9687 39.7477 40.9346 39.0643C40.36 38.9961 40.36 38.9961 40.1315 39.2496C40.0691 39.3377 40.0066 39.4258 39.9423 39.5165C38.95 40.809 37.7807 41.8996 36.4127 42.7823C36.3276 42.8395 36.2425 42.8968 36.1549 42.9558C34.9335 43.7406 33.5924 44.0851 32.1923 44.3901C29.7878 44.9222 27.9379 46.122 26.5903 48.2147C26.3368 48.6126 26.108 49.0161 25.8994 49.4394C25.7213 49.7676 25.6701 49.8115 25.3154 49.9921C24.8765 50.023 24.7192 49.9593 24.3545 49.7158C24.1871 49.463 24.0785 49.1923 23.9651 48.9119C23.5221 47.8977 22.9599 47.0542 22.1438 46.2993C22.2704 45.9197 22.3891 45.8844 22.7279 45.6838C24.8324 44.3857 26.6976 42.7283 28.0724 40.6721C28.1057 40.7716 28.1388 40.8711 28.1729 40.9736C31.3002 40.4634 34.0685 39.3984 36.5133 37.3561C36.6054 37.2946 36.6975 37.2331 36.7923 37.1697C36.866 37.0986 36.9398 37.0274 37.0157 36.9541C37.0157 36.7552 37.0157 36.5562 37.0157 36.3512C36.2198 36.3181 35.424 36.285 34.604 36.2507C34.9394 35.9992 35.2676 35.7909 35.6277 35.5788C36.1529 35.2644 36.603 34.9157 37.0451 34.4891C37.2167 34.3415 37.2167 34.3415 37.4176 34.3415C37.4424 34.2841 37.4673 34.2267 37.493 34.1677C37.6382 33.9039 37.8112 33.7227 38.0205 33.5062C39.6137 31.7597 40.6107 29.4858 41.3274 27.2581C41.5304 26.65 41.7746 26.3728 42.4419 26.5037Z" fill="#FF9800"/>
<path d="M42.2409 26.504C43.024 29.5897 42.5058 32.6553 40.9499 35.395C40.0554 36.8975 38.7951 38.2047 37.4176 39.2657C37.3246 39.3424 37.2316 39.4193 37.1358 39.4984C34.51 41.6229 31.1872 43.0876 27.9908 44.1078C26.0432 44.7384 24.6909 45.8856 23.7516 47.7064C23.6853 47.8059 23.6189 47.9054 23.5506 48.0079C23.4996 47.9351 23.4485 47.8623 23.396 47.7873C23.0107 47.2462 22.6317 46.751 22.1438 46.2996C22.2704 45.92 22.3891 45.8848 22.7279 45.6842C24.8324 44.3861 26.6976 42.7286 28.0724 40.6725C28.1057 40.772 28.1388 40.8714 28.1729 40.9739C31.3002 40.4638 34.0685 39.3988 36.5133 37.3564C36.6054 37.2949 36.6975 37.2334 36.7923 37.17C36.866 37.0989 36.9398 37.0278 37.0157 36.9545C37.0157 36.7555 37.0157 36.5566 37.0157 36.3516C36.2198 36.3184 35.424 36.2853 34.604 36.2511C34.9394 35.9995 35.2676 35.7911 35.6277 35.5791C36.1529 35.2648 36.603 34.916 37.0451 34.4895C37.2167 34.3418 37.2167 34.3418 37.4176 34.3418C37.4424 34.2845 37.4673 34.2271 37.493 34.1679C37.6382 33.9042 37.8112 33.723 38.0205 33.5066C39.6137 31.7601 40.6107 29.4861 41.3274 27.2585C41.5132 26.7017 41.62 26.504 42.2409 26.504Z" fill="#FEBF07"/>
<path d="M23.8519 40.6725C23.9514 40.772 23.9514 40.772 24.0528 40.8734C24.3505 40.984 24.6492 41.0843 24.9517 41.1806C25.3146 41.3024 25.4413 41.3483 25.6606 41.6773C24.7357 42.7151 24.7357 42.7151 24.2538 43.1846C24.2047 43.2382 24.1556 43.2918 24.1051 43.3471C23.1393 44.3747 21.8814 45.3307 20.6363 45.9982C20.5701 45.9982 20.5037 45.9982 20.4354 45.9982C20.5349 46.1412 20.5349 46.1412 20.6363 46.2871C20.8373 46.6011 20.8373 46.6011 20.8373 46.8021C20.9037 46.8352 20.9699 46.8684 21.0382 46.9026C19.3893 47.7386 17.5272 48.0093 15.7235 47.5149C13.9256 46.8824 12.563 45.7685 11.7305 44.0533C11.4882 43.4866 11.2769 42.969 11.2814 42.3477C11.2819 42.2273 11.2819 42.2273 11.2824 42.1044C11.2832 42.0215 11.284 41.9385 11.2849 41.8531C11.2854 41.7688 11.2859 41.6843 11.2863 41.5972C11.2875 41.3895 11.2893 41.1817 11.2912 40.9739C11.6101 41.1154 11.8258 41.2854 12.0762 41.5266C13.5329 42.8309 15.7306 44.2737 17.7223 44.3276C17.8445 44.3325 17.9669 44.3375 18.0928 44.3425C19.1531 44.2772 20.0967 43.5887 20.9441 43.0088C21.0945 42.9084 21.0945 42.9084 21.2481 42.8062C22.1831 42.1752 23.0742 41.4922 23.8519 40.6725Z" fill="#9B5D3E"/>
<path d="M23.0485 4.09759C23.5108 4.28251 23.7607 4.61166 24.0534 5.00197C24.2181 5.49626 24.21 5.93176 24.0534 6.42133C23.7239 6.89495 23.2647 7.16591 22.7926 7.48741C21.1462 8.63895 19.6147 10.2869 19.163 12.3052C19.0989 12.753 19.0773 13.2044 19.0538 13.6559C19.0291 13.9452 19.0291 13.9452 18.9286 14.0456C18.7681 14.0686 18.6066 14.0853 18.445 14.0994C18.3452 14.1082 18.2453 14.1169 18.1424 14.1259C18.0371 14.1346 17.9317 14.1434 17.8233 14.1524C17.67 14.1661 17.67 14.1661 17.5136 14.1801C16.9109 14.2316 16.3179 14.2561 15.7131 14.2466C15.6029 11.2859 16.464 8.94622 18.4988 6.75143C18.5743 6.67151 18.6499 6.59159 18.7277 6.50924C18.8001 6.43036 18.8724 6.35148 18.947 6.2702C19.4875 5.70079 20.0656 5.30214 20.7373 4.90148C20.9408 4.77225 21.1439 4.64246 21.3466 4.5121C21.9521 4.12461 22.3259 4.03585 23.0485 4.09759Z" fill="#9A5C3E"/>
<path d="M34.1142 15.6094C34.4132 15.8386 34.5987 16.1456 34.8051 16.4571C33.933 16.6674 33.0605 16.8436 32.1764 16.9937C31.9305 17.0366 31.6847 17.0797 31.439 17.1227C31.0567 17.1893 30.6744 17.2555 30.2919 17.3204C29.9191 17.3838 29.5467 17.4493 29.1743 17.515C29.0596 17.5339 28.9449 17.553 28.8266 17.5724C28.7202 17.5916 28.6138 17.6107 28.5043 17.6304C28.4109 17.6464 28.3176 17.6625 28.2214 17.679C27.9105 17.7843 27.7694 17.9059 27.5701 18.1654C27.5137 18.3889 27.5137 18.3889 27.5273 18.6321C27.5285 18.7732 27.5285 18.7732 27.5296 18.9172C27.5326 19.0203 27.5356 19.1234 27.5387 19.2296C27.5403 19.3391 27.542 19.4485 27.5436 19.5614C27.55 19.9336 27.5598 20.3055 27.5701 20.6775C27.5735 20.8133 27.5769 20.949 27.5801 21.0847C27.6033 22.0315 27.6324 22.9779 27.6633 23.9245C27.6756 24.3079 27.6876 24.6914 27.6996 25.0748C27.723 25.8197 27.7468 26.5647 27.771 27.3096C27.555 27.0986 27.3886 26.8992 27.2309 26.6412C27.1879 26.5714 27.1449 26.5016 27.1006 26.4298C27.0566 26.3575 27.0126 26.285 26.9672 26.2105C26.8794 26.0672 26.7915 25.9239 26.7034 25.7807C26.6648 25.7174 26.6262 25.6541 26.5865 25.5888C26.4673 25.3954 26.4673 25.3954 26.3097 25.218C26.1388 24.9617 26.1212 24.8184 26.1106 24.513C26.1046 24.3683 26.1046 24.3683 26.0985 24.2207C26.0956 24.1164 26.0928 24.012 26.0899 23.9045C26.0859 23.795 26.0819 23.6855 26.0776 23.5728C26.0693 23.3398 26.0617 23.1067 26.0547 22.8737C26.0442 22.5263 26.0319 22.179 26.019 21.8317C25.9988 21.2612 25.983 20.6906 25.9702 20.1197C25.9649 19.8845 25.9589 19.6493 25.9525 19.4141C25.9435 19.0663 25.9374 18.7186 25.9321 18.3707C25.9275 18.2119 25.9275 18.2119 25.9228 18.05C25.9165 17.3398 25.9165 17.3398 26.1123 17.0031C26.4628 16.8028 26.8166 16.7305 27.2094 16.6617C27.293 16.6457 27.3766 16.6298 27.4627 16.6134C27.7348 16.5619 28.0073 16.5127 28.2797 16.4635C28.4669 16.4286 28.654 16.3936 28.841 16.3584C29.2141 16.2886 29.5875 16.2196 29.9609 16.1514C30.4196 16.0675 30.8777 15.9803 31.3356 15.8916C31.5751 15.8456 31.8147 15.7996 32.0542 15.7538C32.1616 15.7329 32.2691 15.712 32.3797 15.6906C33.576 15.4668 33.576 15.4668 34.1142 15.6094Z" fill="#FE9800"/>
<path d="M26.7665 0.478333C27.5084 0.497348 27.9873 1.00443 28.4928 1.49456C29.5651 2.6337 29.8522 3.86826 29.8188 5.3919C29.7614 6.49407 29.3255 7.4103 28.5753 8.21571C28.523 8.25851 28.4707 8.30132 28.4169 8.34543C28.2222 8.57899 28.2339 8.72932 28.2303 9.03104C28.2284 9.13564 28.2263 9.24022 28.2243 9.34799C28.2233 9.5171 28.2233 9.5171 28.2223 9.6896C28.2206 9.80515 28.2187 9.9207 28.2169 10.0398C28.2114 10.4094 28.208 10.779 28.2047 11.1486C28.2013 11.399 28.1979 11.6494 28.1943 11.8997C28.1858 12.5139 28.1789 13.1281 28.1733 13.7424C27.6841 13.7319 27.2874 13.711 26.8586 13.4619C26.5578 12.9582 26.5943 12.4754 26.5993 11.8991C26.5988 11.7784 26.5983 11.6576 26.5978 11.5332C26.5975 11.2781 26.5984 11.023 26.6006 10.768C26.6032 10.3775 26.6006 9.98738 26.5974 9.59699C26.5977 9.34905 26.5983 9.1011 26.5993 8.85316C26.5983 8.73644 26.5973 8.61971 26.5962 8.49946C26.608 7.68753 26.608 7.68753 26.9108 7.2975C27.0383 7.20487 27.0383 7.20487 27.1684 7.11037C28.0927 5.94332 28.2729 4.64205 28.1733 3.19143C28.0093 2.15369 27.3779 1.30564 26.7665 0.478333Z" fill="#FF9800"/>
<path d="M25.9716 38.7391C26.9178 38.9061 27.866 39.1266 28.6753 39.6662C28.6187 40.0623 28.5066 40.3446 28.2734 40.6711C28.2071 40.6711 28.1408 40.6711 28.0724 40.6711C28.0492 40.7415 28.0261 40.812 28.0022 40.8846C27.8462 41.2293 27.6335 41.4934 27.3879 41.7765C27.3148 41.8612 27.3148 41.8612 27.2403 41.9477C25.9616 43.4133 24.5347 44.5938 22.9218 45.6773C22.7281 45.8084 22.5361 45.9418 22.344 46.0753C22.2082 46.1685 22.0723 46.2617 21.9365 46.3548C21.873 46.3992 21.8096 46.4437 21.7442 46.4894C21.4039 46.7201 21.2607 46.8007 20.8375 46.8007C20.4355 46.2872 20.4355 46.2871 20.4355 45.9968C20.6777 45.836 20.9203 45.686 21.1703 45.5384C21.8804 45.1067 22.5242 44.638 23.1486 44.0876C23.2411 44.0061 23.3336 43.9246 23.4289 43.8407C23.8866 43.4364 23.8866 43.4364 24.3199 43.0066C24.4549 42.8818 24.4549 42.8818 24.6559 42.8818C24.6816 42.8243 24.7072 42.7667 24.7337 42.7075C24.87 42.4556 25.0297 42.2655 25.2211 42.0527C25.2846 41.9818 25.3481 41.9108 25.4135 41.8377C25.4619 41.7843 25.5103 41.731 25.5602 41.6759C25.3011 41.3586 25.0222 41.2747 24.637 41.1546C24.5279 41.1201 24.4187 41.0855 24.3061 41.0499C24.1808 41.0116 24.1808 41.0116 24.053 40.9725C24.053 40.4674 24.2559 40.2814 24.5743 39.9237C24.6227 39.8674 24.6713 39.8112 24.7212 39.7532C24.8182 39.6416 24.9164 39.5312 25.0158 39.4219C25.1493 39.2743 25.2775 39.122 25.4053 38.9695C25.6608 38.7619 25.6608 38.7619 25.9716 38.7391Z" fill="#995B3E"/>
<path d="M22.2444 25.0973C22.6594 25.4873 22.9868 25.9056 23.312 26.3722C23.3642 26.4466 23.4163 26.5211 23.47 26.5978C24.3802 27.9133 25.1865 29.2741 25.8619 30.7244C25.903 30.8125 25.944 30.9006 25.9863 30.9913C26.0914 31.2347 26.1801 31.4778 26.2638 31.7293C26.3011 31.837 26.3385 31.9448 26.3769 32.0559C26.964 34.0126 26.9085 36.2498 25.951 38.0744C25.7653 38.4123 25.5669 38.7399 25.3595 39.0647C25.2291 38.6737 25.3425 38.4149 25.4536 38.0347C25.6744 37.2203 25.707 36.494 25.661 35.6483C25.6588 35.5559 25.6568 35.4636 25.6547 35.3684C25.5661 33.5334 24.6718 31.7085 23.7643 30.1467C23.7228 30.0749 23.6813 30.0033 23.6386 29.9295C23.4362 29.5909 23.2315 29.2857 22.962 28.997C22.0573 27.997 22.1518 26.9683 22.2091 25.6632C22.2202 25.4745 22.2317 25.2859 22.2444 25.0973Z" fill="#FD9701"/>
<path d="M23.1487 21.0775C23.4035 21.2813 23.4035 21.2813 23.6574 21.5737C23.7041 21.6272 23.7508 21.6806 23.7989 21.7358C25.5099 23.7266 27.0449 25.9304 28.286 28.2434C28.3252 28.3161 28.3645 28.3889 28.405 28.4638C28.6754 28.9789 28.6754 28.9789 28.6754 29.3173C28.4663 29.3708 28.2569 29.4229 28.0473 29.4743C27.9307 29.5035 27.8142 29.5327 27.6941 29.5627C27.3845 29.6161 27.2522 29.6282 26.9671 29.5183C26.8275 29.2671 26.7137 29.0284 26.6028 28.7647C25.5717 26.4539 24.0609 24.3825 22.4539 22.44C22.1721 22.0943 21.9045 21.7391 21.6414 21.379C21.7791 21.3276 21.9174 21.2777 22.0559 21.2283C22.1713 21.1863 22.1713 21.1863 22.2891 21.1435C22.6007 21.0634 22.8281 21.0347 23.1487 21.0775Z" fill="#8D4D32"/>
<path d="M16.6171 44.3924C18.6193 44.2824 18.6193 44.2824 19.2431 44.8085C19.3359 44.901 19.3359 44.901 19.4307 44.9953C19.5453 45.1002 19.5453 45.1002 19.6623 45.2073C19.8638 45.3983 20.0576 45.5852 20.2346 45.7992C20.2346 45.8655 20.2346 45.9318 20.2346 46.0001C20.3009 46.0001 20.3673 46.0001 20.4356 46.0001C20.8375 46.5439 20.8375 46.5439 20.8375 46.8041C20.9038 46.8372 20.9701 46.8703 21.0384 46.9045C20.8714 46.985 20.7038 47.0643 20.536 47.1432C20.4428 47.1875 20.3496 47.2318 20.2534 47.2774C19.477 47.5914 18.8025 47.6347 17.9737 47.6205C17.8718 47.6196 17.77 47.6187 17.6652 47.6178C17.4163 47.6154 17.1675 47.6121 16.9186 47.6079C16.9102 47.51 16.9102 47.51 16.9017 47.4101C16.8761 47.1097 16.8502 46.8093 16.8243 46.5089C16.8157 46.4062 16.8069 46.3036 16.7979 46.1978C16.7459 45.5948 16.6867 44.9936 16.6171 44.3924Z" fill="#9F7157"/>
<path d="M19.4307 8.2157C19.4971 8.2157 19.5634 8.2157 19.6317 8.2157C19.8017 8.41784 19.8017 8.41784 19.9897 8.68672C20.052 8.77415 20.1143 8.86158 20.1785 8.95167C20.3403 9.22924 20.4246 9.40225 20.4356 9.72292C20.3057 9.98202 20.3057 9.98202 20.1153 10.2505C19.3758 11.348 19.1219 12.3398 19.0535 13.6541C19.0288 13.9433 19.0288 13.9434 18.9283 14.0439C18.674 14.0512 18.4226 14.0531 18.1684 14.0502C18.0613 14.0494 18.0613 14.0494 17.9519 14.0487C17.775 14.0476 17.598 14.0457 17.4211 14.0439C17.0297 12.4016 17.4722 11.028 18.3282 9.61704C18.6592 9.12274 19.0169 8.64392 19.4307 8.2157Z" fill="#8D4D32"/>
<path d="M38.2215 12.9384C38.9852 13.0112 39.4176 13.3966 39.9 13.9554C40.3417 14.5956 40.2975 15.3049 40.2313 16.0535C40.0624 16.7227 39.5817 17.1775 39.0255 17.5608C38.3777 17.8868 37.5426 17.8851 36.8528 17.6856C36.4679 17.5062 36.2762 17.3424 36.1113 16.9579C36.1807 16.9504 36.2499 16.9429 36.3213 16.9351C37.135 16.8212 37.7384 16.5904 38.2887 15.9629C38.7204 15.3135 38.7258 14.5984 38.6236 13.8429C38.5175 13.5652 38.3981 13.3821 38.2215 13.1395C38.2215 13.0731 38.2215 13.0068 38.2215 12.9384Z" fill="#FF9900"/>
<path d="M16.3157 16.6564C17.0278 16.7405 17.7375 16.8412 18.4461 16.9515C18.5839 16.9726 18.7219 16.9929 18.8599 17.0124C19.0616 17.0409 19.2625 17.0721 19.4636 17.1039C19.5828 17.1217 19.7018 17.1395 19.8245 17.1578C20.2048 17.2826 20.3178 17.4327 20.536 17.7619C20.6479 17.9172 20.6479 17.9172 20.7622 18.0758C20.938 18.3647 20.938 18.3647 20.938 18.6662C20.8466 18.687 20.7554 18.7079 20.6612 18.7294C19.6842 18.9688 18.8203 19.3186 17.9234 19.7715C17.4484 19.353 17.1825 18.8861 16.8934 18.3271C16.8486 18.2441 16.8038 18.1612 16.7576 18.0758C16.5058 17.5951 16.3536 17.1991 16.3157 16.6564Z" fill="#9B5D3D"/>
<path d="M11.2911 40.9739C11.6099 41.1154 11.8256 41.2854 12.0762 41.5266C12.4835 41.8968 12.9125 42.2085 13.3699 42.5126C13.4331 42.5548 13.4963 42.5971 13.5616 42.6406C13.9322 42.8834 14.3065 43.0947 14.7076 43.285C14.3375 44.2741 13.6374 45.0587 12.8988 45.7972C11.9329 44.5914 11.2452 43.4245 11.2785 41.8343C11.2794 41.7513 11.2804 41.6681 11.2813 41.5825C11.2837 41.3796 11.2873 41.1768 11.2911 40.9739Z" fill="#A17255"/>
<path d="M29.6803 32.4327C30.0216 33.1607 29.9979 33.956 29.9943 34.7439C29.9949 34.8721 29.9949 34.8721 29.9956 35.0029C29.9934 36.3844 29.9934 36.3844 29.6803 36.854C29.1291 36.68 28.6142 36.4677 28.0725 36.2511C28.0725 35.1568 28.0725 34.0625 28.0725 32.9351C29.3286 32.4327 29.3286 32.4327 29.6803 32.4327Z" fill="#8D4D32"/>
<path d="M23.852 40.6725C23.9183 40.7388 23.9846 40.8051 24.053 40.8734C24.3506 40.984 24.6494 41.0843 24.9519 41.1806C25.3147 41.3024 25.4415 41.3483 25.6607 41.6773C24.7336 42.7176 24.7336 42.7176 24.2539 43.1846C24.1261 43.3122 23.9984 43.4399 23.8708 43.5677C23.764 43.6745 23.6573 43.7812 23.5505 43.888C23.4833 43.8611 23.416 43.8341 23.3468 43.8063C23.1259 43.718 22.9047 43.6303 22.6834 43.5426C22.5517 43.4902 22.42 43.4379 22.2882 43.3856C22.2219 43.3594 22.1556 43.3332 22.0874 43.3062C21.764 43.1776 21.4467 43.046 21.1389 42.8831C21.2265 42.8234 21.314 42.7637 21.4042 42.7022C22.2867 42.0912 23.0925 41.432 23.852 40.6725Z" fill="#9F7156"/>
<path d="M19.6316 19.0686C19.851 19.2648 20.0325 19.4498 20.2219 19.6716C20.2745 19.7311 20.327 19.7906 20.3812 19.8519C20.486 19.9707 20.5903 20.0901 20.6939 20.2101C20.8176 20.3522 20.9445 20.4914 21.0721 20.6301C21.5408 21.1409 21.5408 21.1409 21.5408 21.4803C21.4645 21.5143 21.3882 21.5481 21.3096 21.5831C21.2097 21.628 21.1099 21.6728 21.007 21.719C20.9079 21.7633 20.8088 21.8076 20.7067 21.8532C20.3463 22.0253 20.157 22.1493 19.9331 22.4851C19.1187 21.6348 18.4161 20.7221 17.7224 19.772C17.7837 19.7416 17.8451 19.7111 17.9082 19.6796C18.0619 19.6025 18.2143 19.5228 18.3657 19.4415C18.4498 19.3973 18.5339 19.3529 18.6205 19.3074C18.7043 19.2625 18.788 19.2177 18.8744 19.1715C19.1697 19.0524 19.3178 19.0043 19.6316 19.0686Z" fill="#A07255"/>
<path d="M16.2148 10.3277C16.8251 10.2769 17.1968 10.4241 17.7221 10.7297C17.7004 10.7838 17.6785 10.8379 17.6562 10.8938C17.3103 11.9154 17.3932 12.9817 17.4207 14.0457C17.5864 14.0457 17.7522 14.0457 17.9231 14.0457C17.9231 14.0789 17.9231 14.112 17.9231 14.1462C16.8288 14.196 16.8288 14.196 15.7124 14.2467C15.6352 11.487 15.6352 11.487 16.2148 10.3277Z" fill="#A17255"/>
<path d="M23.9852 24.2733C24.357 24.6851 24.6425 25.1648 24.9386 25.6318C25.0286 25.7722 25.0286 25.7722 25.1205 25.9154C25.2677 26.1451 25.4143 26.3749 25.5603 26.6053C25.3242 26.8502 25.0996 27.0126 24.8004 27.1768C24.7215 27.2208 24.6427 27.2646 24.5614 27.3099C24.3545 27.4092 24.3545 27.4092 24.1535 27.4092C24.1204 27.4755 24.0872 27.5418 24.0531 27.6101C23.9815 27.5045 23.9097 27.399 23.836 27.2902C23.7388 27.1477 23.6416 27.0052 23.5443 26.8628C23.4943 26.7893 23.4442 26.7158 23.3927 26.6401C23.0672 26.1657 22.728 25.7126 22.3495 25.2786C22.2443 25.098 22.2443 25.098 22.247 24.8903C22.3855 24.6151 22.5517 24.5545 22.8284 24.426C22.9161 24.3842 23.0037 24.3423 23.0941 24.2992C23.1784 24.2644 23.2627 24.2295 23.3497 24.1936C23.4163 24.1619 23.483 24.1301 23.5518 24.0974C23.7516 24.0932 23.7516 24.0932 23.9852 24.2733Z" fill="#9F7057"/>
<path d="M20.536 5.00018C20.8507 5.14301 21.0969 5.31526 21.3588 5.54029C21.4285 5.5991 21.4984 5.6579 21.5703 5.7185C21.7543 5.91807 21.8032 6.04144 21.8424 6.30649C21.7899 6.34678 21.7374 6.38706 21.6834 6.42856C21.1398 6.84839 20.6082 7.28026 20.0819 7.72153C19.8686 7.88642 19.6762 8.00708 19.4307 8.11523C19.3773 8.05603 19.324 7.99683 19.2689 7.93585C19.198 7.86033 19.127 7.78481 19.0539 7.707C18.9839 7.63123 18.9139 7.55546 18.8419 7.47738C18.6446 7.28816 18.6446 7.28816 18.4195 7.32077C18.215 7.4164 18.067 7.5198 17.8982 7.66932C17.8071 7.75015 17.7159 7.83097 17.6219 7.91426C17.8664 7.35482 18.3145 6.94728 18.7273 6.50746C18.8028 6.4265 18.8783 6.34554 18.9561 6.26213C19.4397 5.75986 19.9389 5.36017 20.536 5.00018Z" fill="#A07156"/>
<path d="M25.4598 26.7051C25.9123 27.1575 25.9123 27.1575 26.0882 27.4952C26.1264 27.5678 26.1646 27.6404 26.2039 27.7152C26.2423 27.7901 26.2807 27.865 26.3203 27.9422C26.3591 28.016 26.3979 28.0898 26.4378 28.1658C26.6164 28.5088 26.7828 28.8496 26.9259 29.209C27.0455 29.5421 27.0455 29.5421 27.3691 29.7196C27.2624 29.7365 27.2624 29.7365 27.1535 29.7537C26.8413 29.8259 26.5838 29.9393 26.2951 30.0775C25.7823 30.3225 25.7823 30.3225 25.5603 30.3225C25.5092 30.217 25.4582 30.1114 25.4056 30.0026C24.8957 28.9593 24.8957 28.9593 24.2572 27.991C24.1536 27.8104 24.1536 27.8104 24.1536 27.4085C24.5846 27.1763 25.0156 26.9442 25.4598 26.7051Z" fill="#995B3E"/>
<path d="M27.1681 29.8204C27.6195 30.6959 28.1284 32.0381 27.9719 33.0359C27.7082 33.2487 27.7082 33.2487 27.3691 33.4253C27.2571 33.4852 27.1452 33.5451 27.0299 33.6067C26.9429 33.6504 26.8558 33.6943 26.7661 33.7393C26.5552 33.3752 26.4749 32.9898 26.383 32.5838C26.2326 31.9424 26.0281 31.3587 25.7467 30.7605C25.6608 30.5238 25.6608 30.5238 25.7613 30.2223C26.0023 30.0795 26.0023 30.0795 26.3014 29.946C26.3996 29.901 26.4977 29.8559 26.5989 29.8094C26.8666 29.72 26.8666 29.72 27.1681 29.8204Z" fill="#9F7057"/>
<path d="M28.0724 36.2511C28.4701 36.3012 28.798 36.4395 29.159 36.6091C29.2569 36.6548 29.355 36.7006 29.456 36.7477C29.53 36.7828 29.604 36.8179 29.6802 36.854C29.7134 36.7877 29.7465 36.7213 29.7807 36.653C29.7143 37.7368 29.2963 38.8234 28.7758 39.7681C28.5999 39.6887 28.4241 39.609 28.2482 39.5294C28.1504 39.4852 28.0524 39.4408 27.9516 39.3952C27.7214 39.2891 27.4943 39.1797 27.2686 39.0647C27.2868 39.0122 27.3051 38.9598 27.3239 38.9057C27.6109 38.0655 27.857 37.2329 27.972 36.3516C28.0051 36.3184 28.0382 36.2853 28.0724 36.2511Z" fill="#9A5C3E"/>
<path d="M22.6714 4.07166C23.1352 4.10259 23.3671 4.20845 23.6897 4.54189C24.0769 4.98666 24.187 5.30996 24.174 5.90041C24.1322 6.32219 23.979 6.59651 23.6637 6.87701C23.3616 7.11077 23.1112 7.29131 22.7468 7.41279C22.4439 7.02448 22.1674 6.64483 21.9429 6.20698C22.0434 5.86155 22.0434 5.86155 22.1494 5.70416C22.3312 5.3202 22.2594 4.88419 22.2451 4.46811C22.2448 4.33404 22.2448 4.33404 22.2444 4.19726C22.3448 4.09678 22.3448 4.09678 22.6714 4.07166Z" fill="#8E4E32"/>
<path d="M17.7227 10.8284C17.9676 10.9351 17.9676 10.9351 18.1304 11.0242C18.3308 11.1371 18.3308 11.1371 18.574 11.2322C18.8973 11.4056 19.0425 11.513 19.2299 11.8332C19.2944 12.5266 19.1832 13.2664 19.0289 13.9434C18.9284 14.0439 18.9284 14.0439 18.589 14.0537C18.4488 14.0531 18.3087 14.0518 18.1685 14.0502C18.0614 14.0495 18.0614 14.0495 17.952 14.0487C17.7751 14.0476 17.5982 14.0458 17.4212 14.0439C17.1644 12.9814 17.1909 11.7945 17.7227 10.8284Z" fill="#9A5C3E"/>
<path d="M26.5652 35.9508C27.1161 35.9402 27.5466 36.0042 28.0724 36.1518C27.9363 37.1461 27.7491 38.1733 27.2686 39.0659C27.1549 39.0502 27.0411 39.0345 26.924 39.0183C26.7751 38.9986 26.6262 38.9788 26.4773 38.9591C26.4023 38.9487 26.3273 38.9383 26.25 38.9275C25.8441 38.8584 25.8441 38.8584 25.4598 38.9653C25.5924 38.6243 25.7401 38.2961 25.8994 37.9668C26.2 37.314 26.3839 36.6446 26.5652 35.9508Z" fill="#A07056"/>
<path d="M27.168 39.0647C28.229 39.3552 28.229 39.3552 28.6754 39.6676C28.6188 40.0636 28.5066 40.346 28.2735 40.6725C28.2071 40.6725 28.1408 40.6725 28.0724 40.6725C28.0488 40.7433 28.0253 40.8142 28.001 40.8871C27.8474 41.2283 27.6476 41.4732 27.4068 41.759C27.3246 41.857 27.2424 41.9551 27.1579 42.0561C27.0949 42.13 27.032 42.204 26.9671 42.2802C26.6053 42.2258 26.3721 42.1444 26.0815 41.9223C26.0208 41.8765 25.96 41.8308 25.8975 41.7836C25.8525 41.7486 25.8076 41.7135 25.7612 41.6773C25.8987 41.3001 26.0728 40.9872 26.2951 40.6536C26.6278 40.1413 26.9081 39.6169 27.168 39.0647Z" fill="#8D4D32"/>
<path d="M23.1487 21.0789C23.3585 21.2516 23.5111 21.4012 23.6825 21.6064C23.7293 21.6601 23.7763 21.7137 23.8245 21.7691C25.1584 23.3183 25.1584 23.3183 25.1584 23.6915C24.6941 23.8242 24.2299 23.9568 23.7516 24.0934C23.5371 23.8106 23.5371 23.8106 23.3183 23.522C22.7829 22.8212 22.2167 22.149 21.6414 21.4808C21.6746 21.4145 21.7077 21.3481 21.7419 21.2798C22.2182 21.1345 22.6484 21.0164 23.1487 21.0789Z" fill="#8C4C32"/>
<path d="M25.1583 23.59C25.6705 24.0484 26.0206 24.6004 26.3956 25.1726C26.4604 25.2702 26.5252 25.3677 26.592 25.4681C27.0676 26.1878 27.0676 26.1878 27.0676 26.3031C26.984 26.3236 26.9005 26.3443 26.8144 26.3655C26.7052 26.3926 26.596 26.4196 26.4835 26.4475C26.3751 26.4744 26.2666 26.5011 26.155 26.5288C25.9548 26.5805 25.7565 26.6396 25.5602 26.7051C25.3125 26.3476 25.0657 25.9894 24.8192 25.6311C24.749 25.5299 24.6788 25.4286 24.6065 25.3243C24.5391 25.2262 24.4717 25.1281 24.4023 25.027C24.3092 24.892 24.3092 24.892 24.2141 24.7544C24.053 24.4943 24.053 24.4943 23.8521 23.9919C24.2831 23.8592 24.7142 23.7266 25.1583 23.59Z" fill="#995B3E"/>
<path d="M23.4501 43.888C24.1768 44.2648 24.1768 44.2648 24.3545 44.6918C23.8951 45.0094 23.435 45.3258 22.9741 45.6412C22.7551 45.7915 22.5367 45.9429 22.3185 46.0943C22.1849 46.1859 22.0513 46.2773 21.9177 46.3687C21.8555 46.4123 21.7933 46.4559 21.7293 46.5008C21.3932 46.7287 21.2565 46.802 20.8375 46.802C20.4355 46.2885 20.4355 46.2885 20.4355 45.9982C20.6777 45.8374 20.9203 45.6874 21.1703 45.5397C21.8023 45.1572 22.3725 44.7525 22.9339 44.2711C23.1486 44.089 23.1486 44.089 23.4501 43.888Z" fill="#8D4E32"/>
<path d="M18.2249 17.0584C18.8755 17.0374 19.5128 17.0426 20.1341 17.2594C20.3727 17.4855 20.3727 17.4855 20.536 17.7618C20.648 17.9173 20.648 17.9173 20.7622 18.0759C20.938 18.3647 20.938 18.3647 20.938 18.6662C20.4738 18.7657 20.0095 18.8652 19.5312 18.9677C19.0231 18.3562 18.5819 17.769 18.2249 17.0584Z" fill="#8E4E32"/>
<path d="M11.4924 14.3452C11.8476 14.3991 11.8476 14.3991 11.9947 14.5463C12.0074 14.7974 12.0074 14.7974 11.9947 15.0486C11.8943 15.1491 11.8943 15.1491 11.6494 15.168C11.3919 15.1491 11.3919 15.1491 11.1909 14.9482C11.2278 14.6533 11.2778 14.5599 11.4924 14.3452Z" fill="#F4DF80"/>
<path d="M18.3253 6.90936C18.3916 7.00883 18.4579 7.10831 18.5262 7.21081C18.261 7.44294 17.9957 7.67506 17.7224 7.91421C17.7224 7.55356 17.7891 7.50136 18.0238 7.24221C18.0798 7.17965 18.1358 7.11709 18.1934 7.05263C18.2369 7.00535 18.2804 6.95807 18.3253 6.90936Z" fill="#B6792E"/>
</svg>
