<svg width="50" height="50" viewBox="0 0 50 50" fill="none" xmlns="http://www.w3.org/2000/svg">
<g clip-path="url(#clip0_1_2859)">
<path d="M24.9723 2.0002C25.0842 2.0001 25.0842 2.0001 25.1982 2C26.2757 2.00151 27.2963 2.03863 28.3433 2.31661C28.4412 2.34089 28.4412 2.34089 28.5413 2.36566C30.1517 2.76734 31.5986 3.43974 32.9818 4.35121C33.3666 4.60919 33.3666 4.60919 33.7953 4.75053C34.0612 4.63726 34.2857 4.52067 34.5315 4.37326C36.378 3.33597 38.498 2.56009 40.6102 2.31661C40.739 2.30061 40.739 2.30061 40.8703 2.28428C43.1048 2.04211 45.6382 2.2938 47.4846 3.70181C48.901 4.85423 49.6414 6.26987 49.9565 8.06065C49.9964 8.50179 50.003 8.93827 49.999 9.3811C49.9981 9.50001 49.9972 9.61903 49.9964 9.74164C49.9538 11.9945 49.2315 14.1038 48.3196 16.1473C47.6104 17.7394 47.5125 19.3394 47.4985 21.0658C47.497 21.2007 47.4955 21.3356 47.4939 21.4705C47.487 22.0372 47.4812 22.6041 47.4762 23.1708C47.473 23.5199 47.469 23.8689 47.4644 24.218C47.4621 24.412 47.4608 24.606 47.4595 24.8C47.437 26.4875 47.271 28.2453 46.1055 29.5513C45.3381 30.2894 44.2809 30.4667 43.2492 30.4607C41.9363 30.4096 40.6819 30.0413 39.4408 29.6366C39.2479 29.5767 39.0542 29.5262 38.8578 29.4792C38.8069 29.5758 38.7561 29.6724 38.7037 29.772C38.1906 30.7273 37.6169 31.5773 36.9106 32.3998C36.8408 32.4813 36.8408 32.4813 36.7695 32.5645C36.0189 33.4298 35.1952 34.2419 34.2485 34.8934C34.0544 35.0261 34.0544 35.0261 34.0386 35.3266C34.1191 35.9605 34.3071 36.5258 34.7687 36.9756C34.7687 37.0398 34.7687 37.1041 34.7687 37.1703C34.821 37.1959 34.8732 37.2215 34.927 37.2479C36.4883 38.0387 36.4883 38.0387 36.7159 38.6307C36.7746 39.1097 36.7827 39.5366 36.6003 39.9876C36.2712 40.3621 35.9603 40.6373 35.4515 40.6983C33.8744 40.7488 32.2976 39.9858 31.1221 38.9752C30.6899 38.5436 30.3463 38.0607 29.9983 37.5597C29.9016 37.4295 29.8044 37.2995 29.7062 37.1703C29.4171 37.2345 29.128 37.2989 28.83 37.3651C28.7979 37.4995 28.7658 37.6341 28.7326 37.7727C27.946 40.6244 26.552 43.469 24.6437 45.7377C24.5974 45.7933 24.551 45.849 24.5033 45.9063C23.8517 46.6797 23.2456 47.3919 22.1908 47.5312C21.158 47.5743 20.5055 47.2689 19.7397 46.6021C19.3433 46.1447 19.3386 45.6404 19.3499 45.06C19.4077 44.5915 19.623 44.2793 19.8732 43.8879C20.8183 42.2345 21.1332 40.5259 21.1936 38.6367C21.1979 38.5144 21.202 38.3921 21.2063 38.2661C21.2167 37.9658 21.2265 37.6654 21.2362 37.3651C20.9471 37.3008 20.658 37.2365 20.36 37.1703C20.3024 37.2479 20.2448 37.3254 20.1855 37.4054C20.0269 37.6184 19.8673 37.8308 19.707 38.0427C19.5882 38.2003 19.4697 38.3583 19.3549 38.5189C18.4587 39.7115 16.8072 40.3824 15.3948 40.6752C14.8014 40.7464 14.3478 40.7235 13.8371 40.3831C13.5083 40.0986 13.3727 39.9023 13.3237 39.4628C13.3044 38.9291 13.3074 38.5218 13.6591 38.1012C14.0918 37.7316 14.6175 37.5005 15.1298 37.2616C15.3574 37.1377 15.3896 37.0182 15.4922 36.7809C15.5564 36.6845 15.6207 36.5881 15.6869 36.4889C15.9669 36.0114 16.0088 35.4719 16.0763 34.9311C16.0218 34.9065 15.9671 34.8819 15.9109 34.8566C15.4697 34.6198 15.0986 34.2748 14.7133 33.9575C14.6503 33.9068 14.5873 33.8561 14.5224 33.8038C14.081 33.4404 13.7179 33.0312 13.3503 32.5945C13.2406 32.4718 13.2406 32.4718 13.1286 32.3466C12.4489 31.5692 11.9274 30.7297 11.4108 29.8383C11.3041 29.6582 11.3041 29.6582 11.1111 29.4792C10.9934 29.5179 10.8757 29.5567 10.7544 29.5967C8.82816 30.2237 6.61774 30.9247 4.65515 30.0511C3.74749 29.5522 3.22411 28.6818 2.93925 27.7061C2.67839 26.6301 2.62599 25.5894 2.61713 24.4866C2.61562 24.3521 2.61404 24.2176 2.6124 24.0831C2.6056 23.5171 2.59972 22.951 2.59467 22.3849C2.576 18.9785 2.576 18.9785 1.58842 15.7458C1.14706 14.759 0.777812 13.7782 0.499246 12.7338C0.478909 12.66 0.458583 12.5863 0.437637 12.5103C-0.0619611 10.6397 -0.247287 8.32485 0.499246 6.50294C0.545431 6.38798 0.591605 6.27303 0.639192 6.15459C1.34978 4.57626 2.57313 3.53109 4.14365 2.83762C5.06167 2.48972 6.03913 2.2542 7.02214 2.21925C7.12242 2.21536 7.22269 2.21147 7.32599 2.20747C10.2186 2.15164 13.6456 2.97547 16.0497 4.64253C16.2678 4.77799 16.2678 4.77799 16.5095 4.69348C16.7878 4.53915 17.0561 4.37535 17.3237 4.20289C19.684 2.72535 22.1838 2.00239 24.9723 2.0002Z" fill="#A5AFBB"/>
<path d="M7.32599 2.20644C10.3791 2.14752 13.854 3.076 16.3684 4.84685C16.2446 5.21821 16.079 5.31351 15.7721 5.55269C15.0151 6.159 14.4169 6.79576 13.8371 7.57285C13.4373 7.44668 13.0663 7.29418 12.6871 7.11649C10.6061 6.20994 7.7391 5.42123 5.52224 6.2764C4.62865 6.72992 4.16593 7.28702 3.8474 8.23647C3.44986 10.4587 4.36026 12.7727 5.2393 14.7651C6.23041 17.0261 6.26878 19.3048 6.29805 21.7444C6.30237 22.0658 6.30694 22.3873 6.31195 22.7087C6.31499 22.9062 6.31763 23.1038 6.31976 23.3013C6.31675 24.9398 6.31675 24.9398 7.05865 26.3444C7.5857 26.7836 8.10496 26.9379 8.77305 26.9989C8.90957 27.0117 8.90957 27.0117 9.0487 27.0246C9.19012 27.0373 9.19012 27.0373 9.33436 27.0502C9.43012 27.0592 9.52588 27.068 9.62457 27.0771C9.86044 27.0988 10.0963 27.1204 10.3323 27.1415C10.3628 27.2157 10.3935 27.2899 10.425 27.3663C10.4667 27.4668 10.5084 27.5673 10.5513 27.6709C10.5952 27.7771 10.6391 27.8833 10.6845 27.9926C10.83 28.3356 10.9865 28.6721 11.1499 29.0069C11.2085 29.186 11.2085 29.186 11.1111 29.4781C10.9519 29.5602 10.9519 29.5602 10.7449 29.6242C10.6307 29.66 10.6307 29.66 10.5141 29.6967C10.391 29.7331 10.391 29.7331 10.2653 29.7701C10.1392 29.8083 10.1392 29.8083 10.0106 29.8472C8.29572 30.3568 6.36546 30.8113 4.65515 30.05C3.74749 29.5511 3.22411 28.6808 2.93925 27.7051C2.67839 26.6292 2.62599 25.5884 2.61713 24.4856C2.61562 24.351 2.61404 24.2165 2.6124 24.0821C2.6056 23.516 2.59972 22.95 2.59467 22.3839C2.576 18.9774 2.576 18.9774 1.58842 15.7447C1.14706 14.7581 0.777812 13.7772 0.499246 12.7327C0.478909 12.659 0.458583 12.5853 0.437637 12.5094C-0.0619611 10.6386 -0.247287 8.32383 0.499246 6.50192C0.545431 6.38696 0.591605 6.27201 0.639192 6.15356C1.34978 4.57524 2.57313 3.53007 4.14365 2.83659C5.17305 2.44648 6.22795 2.24903 7.32599 2.20644Z" fill="#77889A"/>
<path d="M47.7967 3.96234C49.0953 5.1335 49.8279 6.63967 49.9859 8.38661C49.9989 8.71859 50.0019 9.04848 49.999 9.38076C49.9981 9.49979 49.9972 9.6187 49.9963 9.74131C49.9538 11.9941 49.2315 14.1035 48.3195 16.1471C47.6103 17.7391 47.5124 19.339 47.4985 21.0655C47.497 21.2003 47.4954 21.3352 47.4938 21.4701C47.487 22.037 47.481 22.6037 47.476 23.1706C47.4729 23.5196 47.4689 23.8686 47.4643 24.2177C47.4621 24.4117 47.4608 24.6057 47.4595 24.7997C47.4369 26.4872 47.271 28.2449 46.1055 29.551C45.3381 30.2891 44.2808 30.4663 43.2492 30.4604C41.8009 30.4039 40.1463 30.0556 38.8578 29.3814C39.0142 28.8869 39.2059 28.4116 39.4054 27.9333C39.437 27.857 39.4686 27.7807 39.5011 27.7021C39.5786 27.5154 39.6563 27.3288 39.734 27.1422C39.8046 27.1349 39.8753 27.1276 39.9481 27.12C40.2703 27.086 40.5923 27.0502 40.9144 27.0145C41.0811 26.9972 41.0811 26.9972 41.2514 26.9797C42.0867 26.8849 42.6833 26.7437 43.2388 26.0713C43.7777 25.1581 43.7388 24.145 43.7495 23.1122C43.7528 22.8984 43.7559 22.6846 43.7592 22.4709C43.7638 22.14 43.7681 21.8093 43.772 21.4785C43.7856 20.3588 43.8073 19.2441 43.9115 18.1288C43.919 18.0483 43.9264 17.9678 43.9341 17.885C44.0758 16.5137 44.5504 15.3153 45.1137 14.0672C45.518 13.1602 45.8163 12.2344 46.0621 11.2732C46.0809 11.2017 46.0996 11.1304 46.119 11.057C46.4035 9.89848 46.4726 8.43976 45.8675 7.37884C45.4235 6.65609 44.745 6.34431 43.9545 6.10141C43.466 5.98569 42.984 5.98651 42.4843 5.99151C42.3416 5.9925 42.3416 5.9925 42.1959 5.99351C41.5204 6.00317 40.879 6.05075 40.2207 6.21056C40.1086 6.23666 39.9966 6.26277 39.8811 6.28966C38.8039 6.55813 37.7182 6.90057 36.7342 7.42143C36.4239 7.57355 36.4239 7.57355 36.1318 7.4762C35.9879 7.31501 35.8508 7.14767 35.718 6.97724C35.1117 6.22035 34.4749 5.62201 33.6979 5.04228C33.8366 4.62594 34.1368 4.5329 34.5071 4.34253C34.5808 4.30428 34.6546 4.26602 34.7306 4.2266C36.5521 3.30231 38.5717 2.55126 40.6102 2.3163C40.696 2.30562 40.7818 2.29496 40.8703 2.28397C43.2593 2.02504 45.9112 2.34472 47.7967 3.96234Z" fill="#77889A"/>
<path d="M45.408 6.7192C46.2283 7.56381 46.3983 8.46338 46.3958 9.60032C46.3529 11.5271 45.5442 13.3691 44.7717 15.1055C44.3476 16.0889 44.1096 17.0616 44.0096 18.1233C44.0014 18.211 43.9931 18.2988 43.9845 18.3892C43.877 19.6289 43.8798 20.8726 43.8681 22.1161C43.8331 25.522 43.8331 25.522 43.0985 26.332C42.1485 27.1893 40.9551 27.0907 39.7336 27.1413C39.7513 27.0798 39.769 27.0183 39.7871 26.9549C40.4918 24.4473 40.7808 21.6163 40.123 19.0607C40.1011 18.9739 40.0791 18.8872 40.0565 18.7977C39.9334 18.3139 39.8066 17.8312 39.6772 17.3489C39.5107 16.723 39.3762 16.0932 39.2468 15.4585C39.2126 15.3103 39.1781 15.1623 39.1433 15.0142C39.0678 14.6811 39.019 14.3488 38.973 14.0103C38.6236 11.7195 37.7353 9.51956 36.326 7.66995C36.5894 7.34805 36.939 7.20973 37.3118 7.0493C37.3799 7.01972 37.448 6.99014 37.5181 6.95966C38.27 6.6425 39.0446 6.42316 39.8309 6.2096C39.9413 6.17509 40.0515 6.14058 40.1652 6.10502C41.7763 5.68683 44.0674 5.59679 45.408 6.7192Z" fill="#FEBEC4"/>
<path d="M7.67286 5.8638C7.82975 5.86416 7.82975 5.86416 7.98982 5.86451C9.92596 5.90774 12.0903 6.5384 13.7394 7.57363C13.5596 7.89586 13.3769 8.213 13.178 8.52401C11.9426 10.4624 11.2766 12.4672 10.9298 14.7365C10.7539 15.8729 10.5288 16.954 10.1729 18.0483C9.30542 20.7488 9.33727 24.0402 10.2571 26.7202C10.3319 26.9476 10.3319 26.9476 10.3319 27.1423C10.0073 27.1344 9.68281 27.1234 9.35835 27.1119C9.22183 27.1086 9.22183 27.1086 9.08259 27.1052C8.25455 27.0734 7.58732 26.8908 6.92444 26.3635C6.15871 25.3638 6.23201 24.2235 6.21898 23.0172C6.21577 22.8085 6.21254 22.5998 6.20929 22.3911C6.20471 22.0695 6.20038 21.7478 6.19652 21.4262C6.18272 20.3252 6.1593 19.2295 6.05697 18.1326C6.04955 18.052 6.04211 17.9713 6.03446 17.8882C5.89306 16.515 5.41776 15.3168 4.85485 14.0666C4.04618 12.2494 3.21422 9.83955 3.86987 7.85353C4.20318 7.08435 4.71288 6.57567 5.46409 6.21063C6.19606 5.95129 6.89955 5.86195 7.67286 5.8638Z" fill="#FEBEC4"/>
<path d="M38.76 6.6026C38.888 6.75352 38.888 6.75352 39.0167 6.96693C39.0645 7.04577 39.1124 7.12462 39.1616 7.20587C39.2118 7.29192 39.262 7.37797 39.3137 7.46663C39.3656 7.55463 39.4175 7.64263 39.4709 7.7333C39.9512 8.56273 40.3556 9.4111 40.7071 10.3022C40.7528 10.4171 40.7984 10.5321 40.8455 10.6505C41.3395 12.0106 41.5727 13.4657 41.7887 14.8923C41.909 15.6852 42.1039 16.4308 42.3427 17.1962C42.5548 17.8772 42.7258 18.5558 42.849 19.2589C42.8689 19.3692 42.8889 19.4794 42.9094 19.5929C43.235 21.7167 43.1245 23.9457 42.69 26.045C42.6516 26.2851 42.6482 26.5126 42.6542 26.7555C42.2333 26.953 41.8156 27.0106 41.3582 27.0597C41.288 27.0681 41.2178 27.0765 41.1454 27.0852C40.672 27.1386 40.2099 27.1524 39.7336 27.1448C39.7513 27.0834 39.769 27.0219 39.7871 26.9585C40.4918 24.4509 40.7808 21.6199 40.123 19.0643C40.1011 18.9775 40.0791 18.8907 40.0565 18.8013C39.9334 18.3175 39.8066 17.8347 39.6772 17.3525C39.5107 16.7265 39.3762 16.0967 39.2468 15.4621C39.2126 15.3139 39.1781 15.1659 39.1433 15.0179C39.0678 14.6847 39.019 14.3523 38.973 14.0138C38.6236 11.723 37.7353 9.52317 36.326 7.67351C36.5276 7.45316 36.703 7.32425 36.9771 7.20728C37.0452 7.17791 37.1132 7.14854 37.1832 7.11829C37.2538 7.08867 37.3243 7.05905 37.397 7.02854C37.4676 6.99816 37.538 6.96779 37.6107 6.9365C38.3908 6.6026 38.3908 6.6026 38.76 6.6026Z" fill="#FE8997"/>
<path d="M11.3057 6.6026C12.2037 6.73088 12.947 7.15797 13.7397 7.57617C13.4993 8.00255 13.2495 8.41762 12.9851 8.82958C11.8424 10.6635 11.2551 12.6121 10.93 14.7392C10.7541 15.8756 10.529 16.9566 10.1732 18.0508C9.30563 20.7513 9.33748 24.0428 10.2573 26.7228C10.3322 26.9502 10.3322 26.9501 10.3322 27.1448C10.0055 27.1341 9.679 27.1213 9.35248 27.1083C9.26074 27.1054 9.16889 27.1023 9.07432 27.0992C8.55812 27.0776 8.08547 27.055 7.60617 26.8528C7.40168 26.5383 7.37755 26.1482 7.3141 25.7819C7.28687 25.6493 7.25962 25.5167 7.23233 25.3841C6.82965 23.2664 6.86917 20.9766 7.3141 18.8695C7.32972 18.7945 7.34535 18.7195 7.36145 18.6423C7.51201 17.9345 7.6853 17.2416 7.92601 16.5585C8.15544 15.8325 8.27559 15.0751 8.38719 14.3236C8.80965 11.4868 9.71378 8.99556 11.3057 6.6026Z" fill="#FE8997"/>
<path d="M16.0762 35.0291C16.539 35.1944 16.9477 35.4366 17.3723 35.6802C17.9629 36.014 18.5568 36.3226 19.1795 36.5929C19.2436 36.6209 19.3077 36.6487 19.3739 36.6774C19.6661 36.8012 19.951 36.9128 20.2625 36.9763C20.0597 38.0331 19.0549 38.9303 18.2161 39.5155C17.1306 40.214 15.7468 40.8788 14.4211 40.6759C14.0094 40.5234 13.7306 40.3298 13.4475 39.9943C13.2815 39.4963 13.244 38.9316 13.4213 38.4302C13.8002 37.8187 14.5012 37.5554 15.1296 37.2623C15.3573 37.1384 15.3893 37.0189 15.4921 36.7815C15.5563 36.6831 15.6205 36.5848 15.6867 36.4834C15.9503 36.0329 16.0061 35.5394 16.0762 35.0291Z" fill="#E7E7E7"/>
<path d="M33.9896 35.0291C33.998 35.0974 34.0064 35.1656 34.0151 35.2361C34.1007 35.8145 34.2207 36.2398 34.5619 36.7177C34.6711 36.8789 34.6711 36.8789 34.7684 37.171C34.9391 37.2748 34.9391 37.2748 35.1579 37.3657C36.5012 38.0738 36.5012 38.0738 36.7156 38.6313C36.7743 39.1104 36.7823 39.5373 36.6 39.9883C36.2708 40.3627 35.96 40.638 35.4511 40.699C33.8742 40.7493 32.2977 39.9866 31.1221 38.9763C30.608 38.4629 30.2055 37.8716 29.8032 37.2684C29.8032 37.1719 29.8032 37.0755 29.8032 36.9763C29.8943 36.9454 29.9853 36.9146 30.079 36.8827C30.8657 36.6065 31.6094 36.2834 32.3467 35.8931C32.4239 35.8524 32.5011 35.8115 32.5805 35.7694C32.9123 35.5905 33.234 35.4078 33.5446 35.1942C33.7949 35.0291 33.7949 35.0291 33.9896 35.0291Z" fill="#EAEAEA"/>
<path d="M33.9896 35.0291C33.998 35.0974 34.0064 35.1656 34.0151 35.2361C34.0995 35.8063 34.2133 36.2292 34.5525 36.6987C34.6921 36.9109 34.7776 37.128 34.8658 37.3657C33.9536 38.0184 32.6755 38.9104 31.5557 39.1181C31.0905 39.0137 30.8541 38.7168 30.57 38.3575C30.5281 38.3067 30.4864 38.256 30.4433 38.2037C29.8032 37.415 29.8032 37.415 29.8032 36.9763C29.8943 36.9454 29.9853 36.9146 30.079 36.8827C30.8657 36.6065 31.6094 36.2834 32.3467 35.8931C32.4239 35.8524 32.5011 35.8115 32.5805 35.7694C32.9123 35.5905 33.234 35.4078 33.5446 35.1942C33.7949 35.0291 33.7949 35.0291 33.9896 35.0291Z" fill="#D2D1D7"/>
<path d="M16.0766 35.0291C16.5395 35.1944 16.9482 35.4366 17.3727 35.6802C17.9634 36.014 18.5574 36.3226 19.1799 36.5929C19.244 36.6209 19.3082 36.6487 19.3744 36.6774C19.6665 36.8012 19.9514 36.9128 20.2629 36.9763C20.1275 37.6824 19.5307 38.4504 18.9973 38.9234C18.787 39.0596 18.787 39.0596 18.5106 39.1181C18.2215 39.0474 17.9628 38.9239 17.6952 38.7956C17.6187 38.7602 17.5423 38.7248 17.4636 38.6884C16.9373 38.4389 16.4262 38.1663 15.9245 37.8707C15.8625 37.8344 15.8005 37.7982 15.7366 37.7609C15.31 37.4997 15.31 37.4997 15.2004 37.171C15.3119 36.9713 15.3119 36.9713 15.4742 36.7512C15.8647 36.1917 15.9954 35.706 16.0766 35.0291Z" fill="#D2D1D7"/>
<path d="M13.9349 3.6814C14.7787 3.91826 15.5092 4.32957 16.2714 4.75231C16.2714 4.88082 16.2714 5.00933 16.2714 5.14175C16.0611 5.34749 16.0611 5.34749 15.7786 5.56159C15.0135 6.16211 14.4188 6.79643 13.8375 7.57566C13.4014 7.43718 12.9852 7.27143 12.5657 7.08888C12.1802 6.92141 11.7948 6.75592 11.4036 6.6021C12.0702 5.48821 13.0123 4.58348 13.9349 3.6814Z" fill="#5F7080"/>
<path d="M36.1247 3.75282C36.4752 3.96054 36.7408 4.25402 37.0262 4.54172C37.0908 4.60643 37.1554 4.67114 37.2219 4.7378C37.7614 5.28774 38.2269 5.86636 38.663 6.50103C38.4694 6.69464 38.3557 6.75609 38.1078 6.85699C38.0364 6.88624 37.9649 6.91548 37.8914 6.9456C37.8167 6.9756 37.742 7.00559 37.6651 7.03649C37.5919 7.06649 37.5188 7.09648 37.4434 7.12739C37.0428 7.2903 36.6415 7.44062 36.2291 7.57196C36.1654 7.49302 36.1016 7.41408 36.0359 7.33275C35.3443 6.48914 34.6121 5.65022 33.6979 5.04068C33.8101 4.70389 33.8496 4.69017 34.1496 4.53527C34.2218 4.49755 34.294 4.45984 34.3683 4.42099C34.4442 4.38252 34.5202 4.34405 34.5984 4.30442C34.6728 4.26558 34.7472 4.22674 34.8239 4.18672C35.0315 4.07933 35.2404 3.9753 35.4503 3.8724C35.5401 3.82734 35.6299 3.7823 35.7226 3.73588C35.937 3.67769 35.937 3.67769 36.1247 3.75282Z" fill="#5F7080"/>
<path d="M42.4597 26.9469C42.339 27.3204 42.217 27.6935 42.0946 28.0664C42.0438 28.2238 42.0438 28.2238 41.992 28.3844C41.7984 28.9722 41.585 29.5174 41.2914 30.0623C40.708 30.0315 40.1895 29.9125 39.6364 29.7337C39.571 29.7134 39.5056 29.693 39.4384 29.6721C39.253 29.6097 39.253 29.6097 38.9549 29.4782C38.7513 28.8676 39.1098 28.1644 39.3747 27.6063C39.6343 27.1866 39.8463 27.0561 40.3239 26.9385C41.0111 26.8353 41.7905 26.7238 42.4597 26.9469Z" fill="#5F7080"/>
<path d="M7.70312 26.8514C9.00431 26.996 9.00431 26.996 10.3318 27.1435C10.4924 27.529 10.653 27.9146 10.8186 28.3118C10.9822 28.6611 10.9822 28.6611 11.1494 29.0088C11.208 29.188 11.208 29.188 11.1106 29.48C10.9375 29.5669 10.9375 29.5669 10.7136 29.6363C10.6327 29.6618 10.5517 29.6872 10.4683 29.7134C10.3405 29.7514 10.3405 29.7514 10.2101 29.7904C10.1264 29.8169 10.0427 29.8435 9.95638 29.8708C9.54638 29.9969 9.20627 30.0789 8.77409 30.0642C7.70312 27.6758 7.70312 27.6758 7.70312 26.8514Z" fill="#5F7080"/>
<path d="M32.2862 28.2612C32.6849 28.3181 32.7715 28.3891 33.0163 28.6992C33.0667 28.9428 33.0667 28.9428 33.068 29.2133C33.0686 29.3114 33.069 29.4094 33.0695 29.5104C33.068 29.6121 33.0665 29.714 33.065 29.8188C33.0665 29.9206 33.068 30.0224 33.0695 30.1273C33.069 30.2253 33.0686 30.3232 33.068 30.4242C33.0676 30.5136 33.0671 30.6028 33.0667 30.6949C33.0008 31.0135 32.8809 31.1301 32.6269 31.3278C32.2862 31.3765 32.2862 31.3765 31.9454 31.3278C31.6913 31.1301 31.5715 31.0135 31.5055 30.6949C31.5049 30.561 31.5049 30.561 31.5042 30.4242C31.5038 30.3263 31.5032 30.2282 31.5027 30.1273C31.5042 30.0255 31.5057 29.9237 31.5073 29.8188C31.5057 29.717 31.5042 29.6153 31.5027 29.5104C31.5032 29.4124 31.5037 29.3143 31.5042 29.2133C31.5046 29.1241 31.5051 29.0348 31.5055 28.9428C31.6001 28.4858 31.8397 28.3249 32.2862 28.2612Z" fill="#343B42"/>
<path d="M17.7799 28.2612C18.1786 28.3181 18.2653 28.3891 18.51 28.6992C18.5605 28.9428 18.5605 28.9428 18.5618 29.2133C18.5623 29.3114 18.5628 29.4094 18.5633 29.5104C18.5618 29.6121 18.5603 29.714 18.5587 29.8188C18.5603 29.9206 18.5618 30.0224 18.5633 30.1273C18.5628 30.2253 18.5623 30.3232 18.5618 30.4242C18.5614 30.5136 18.5609 30.6028 18.5605 30.6949C18.4945 31.0135 18.3747 31.1301 18.1206 31.3278C17.7799 31.3765 17.7799 31.3765 17.4392 31.3278C17.185 31.1301 17.0653 31.0135 16.9993 30.6949C16.9986 30.561 16.9986 30.561 16.998 30.4242C16.9975 30.3263 16.997 30.2282 16.9965 30.1273C16.998 30.0255 16.9995 29.9237 17.001 29.8188C16.9995 29.717 16.998 29.6153 16.9965 29.5104C16.997 29.4124 16.9974 29.3143 16.998 29.2133C16.9984 29.1241 16.9989 29.0348 16.9993 28.9428C17.0939 28.4858 17.3335 28.3249 17.7799 28.2612Z" fill="#343B42"/>
</g>
<defs>
<clipPath id="clip0_1_2859">
<rect width="50" height="50" fill="white"/>
</clipPath>
</defs>
</svg>
