<svg width="50" height="50" viewBox="0 0 50 50" fill="none" xmlns="http://www.w3.org/2000/svg">
<path d="M25.3306 49.3454C24.2012 48.3441 23.1315 47.5881 22.5776 47.4006C22.2862 47.3006 21.9684 47.4006 20.4628 48.1616C19.7998 48.4907 19.1836 48.7582 19.0938 48.7582C18.9609 48.7582 18.9179 48.7124 18.8635 48.5124C18.7572 48.1207 18.5438 46.7756 18.4368 45.818C18.2272 43.9437 18.2186 44.0171 18.6308 44.1288C18.7746 44.1704 19.4277 44.4412 20.0822 44.7376C20.7365 45.0334 21.5516 45.3889 21.8933 45.5276L22.5144 45.7818L24.3205 44.8739C25.3138 44.3742 26.1396 43.9792 26.1557 43.995C26.2008 44.0408 26.3231 46.3998 26.3691 48.1061C26.4113 49.6792 26.3775 50 26.1667 50C26.1118 50 25.7357 49.7029 25.3306 49.3454ZM27.7843 47.4219C27.6219 46.9998 27.7633 46.3777 28.0669 46.1814C28.5468 45.8689 32.0033 44.7455 34.1137 44.2129C34.9606 44.0004 35.3823 43.9254 35.7473 43.9254H36.2395L36.2015 44.3662C36.1467 44.9922 36.0758 45.1089 35.6493 45.2751C34.8572 45.5834 28.699 47.4402 28.0953 47.5519C27.8739 47.5935 27.8455 47.5927 27.7843 47.4219ZM22.0182 44.4787C21.7567 44.0525 21.6344 43.5854 21.5911 42.8474C21.5405 41.9857 21.6463 41.3394 21.9369 40.7302C22.0643 40.4635 22.1453 40.2248 22.1166 40.1994C22.0871 40.1576 21.8268 40.1034 21.5362 40.0409C20.7977 39.8826 19.4239 39.4234 18.5611 39.0426C15.8098 37.8279 14.2221 36.3295 13.7357 34.4881C13.365 33.0847 13.6627 31.1029 14.4618 29.6545C15.5656 27.6534 17.9624 25.4271 20.0273 24.4845C21.2214 23.9395 23.5968 23.2756 25.3585 22.9948C25.9202 22.9031 26.4497 22.8073 26.5351 22.774C26.6853 22.7198 26.6815 22.7115 26.4268 22.5865C26.2817 22.5156 25.8332 22.3365 25.4298 22.1906C22.3122 21.0614 19.48 19.7617 17.9967 18.7795C16.3895 17.7157 14.2766 15.7101 12.6445 13.6992C10.8234 11.4548 9.42242 8.76507 8.77534 6.27114C8.58596 5.54069 8.20152 3.27594 8.04597 1.97252L8 1.58915L8.52109 1.87251C14.6219 5.17357 16.8534 6.60951 19.6189 9.01508C22.0069 11.0919 23.2555 12.5586 28.3493 19.2704L30.9227 22.661L30.9982 19.5642C31.105 15.1859 31.1396 14.7643 31.5168 13.2512C32.527 9.20177 34.5664 5.76528 37.8591 2.56423C39.2819 1.1808 40.8162 -0.0997088 40.9235 0.00613387C41.0842 0.164478 40.972 6.98911 40.7688 9.41385C40.2617 15.4672 38.8647 19.42 36.0524 22.7585C34.8648 24.1686 34.7238 24.3461 34.7238 24.432C34.7238 24.482 34.9169 24.782 35.153 25.0979C36.5975 27.0426 37.4352 28.676 37.8445 30.3453C38.3131 32.2571 37.9335 37.3583 37.1604 39.5418C36.7534 40.6906 36.3767 41.069 34.8473 41.8661C33.0461 42.8045 28.073 44.7526 27.8404 44.6104C27.7852 44.5687 27.7776 44.2396 27.8109 43.3712C27.8535 42.2857 27.8489 42.1724 27.7451 42.1157C27.5819 42.0241 27.2652 42.1149 26.8059 42.3824C26.3359 42.6532 22.4417 44.6926 22.2956 44.7426C22.2298 44.7426 22.1361 44.68 22.0172 44.4842L22.0182 44.4787ZM21.6184 30.5366C22.4808 30.2366 22.7092 29.8341 22.6727 28.6756C22.639 27.5993 22.4289 27.2826 21.5878 27.0372C21.1069 26.8955 20.4514 26.908 20.1009 27.0789C19.7808 27.2205 19.4412 27.5693 19.2769 27.9289C19.1187 28.2748 19.1166 29.3098 19.273 29.7107C19.5865 30.5124 20.6442 30.8936 21.6184 30.5553V30.5366Z" fill="#B1B1B1"/>
</svg>
