<svg width="50" height="50" viewBox="0 0 50 50" fill="none" xmlns="http://www.w3.org/2000/svg">
<g clip-path="url(#clip0_1_3059)">
<g filter="url(#filter0_d_1_3059)">
<path d="M23.6596 2.00564C28.1912 1.93519 32.9428 2.49399 36.5993 5.4271C36.6568 5.47315 36.7144 5.51921 36.7738 5.56665C39.5716 7.83048 41.0356 10.7248 42.0638 14.1119C42.1491 14.1089 42.1491 14.1089 42.2362 14.1057C44.2401 14.0435 45.9515 14.2453 47.5528 15.5879C49.1053 17.0775 49.8855 19.2549 49.9836 21.3813C49.9872 21.7028 49.9904 22.0242 49.9914 22.3456C49.9922 22.5497 49.9953 22.7536 49.9983 22.9576C50.0121 24.6841 49.6456 26.644 48.6017 28.0663C48.2982 28.3378 48.1747 28.3601 47.7661 28.353C47.3828 28.2484 47.2872 28.1761 47.0404 27.8711C46.9145 27.6095 46.8182 27.3402 46.7233 27.0661C46.6971 26.9934 46.6709 26.9207 46.644 26.8458C46.5801 26.6674 46.5173 26.4887 46.455 26.3098C46.3021 26.2972 46.3021 26.2972 46.1461 26.2843C43.9089 26.0794 41.6594 25.5687 39.7405 24.3517C39.4577 24.2312 39.3296 24.2639 39.0388 24.3582C37.1842 25.1946 35.6009 26.524 34.7902 28.417C34.3659 29.5585 34.2191 30.5952 34.2208 31.8111C34.2208 31.9092 34.2208 31.9093 34.2209 32.0095C34.2252 33.4158 34.3874 34.7834 34.6477 36.1656C34.6654 36.26 34.6831 36.3543 34.7015 36.4515C35.185 38.9138 36.2013 41.0847 37.7616 43.0383C37.8678 43.1917 37.8678 43.1917 37.9654 43.4844C37.0654 43.555 36.1843 43.2908 35.4284 42.8013C35.4605 42.912 35.4927 43.0227 35.5259 43.1368C35.9406 45.0374 35.4158 46.9628 34.5501 48.6563C32.6684 48.7211 30.7896 48.2313 29.3863 46.9292C29.0304 46.5358 28.7626 46.0904 28.5001 45.6313C28.4702 45.7021 28.4404 45.7731 28.4098 45.8463C27.8874 46.994 27.0419 47.9829 25.963 48.6563C25.8986 48.6563 25.8342 48.6563 25.7678 48.6563C25.7664 48.5854 25.765 48.5144 25.7636 48.4414C25.7056 47.2163 25.3059 46.2764 24.4017 45.4361C24.3373 45.4039 24.2729 45.3717 24.2065 45.3384C24.1993 45.4046 24.192 45.4708 24.1844 45.539C24.039 46.5681 23.5718 47.4279 22.7429 48.0708C21.8055 48.6563 21.8055 48.6563 21.4743 48.6563C21.4647 48.5642 21.4551 48.4721 21.4453 48.3772C21.2119 46.3729 20.4634 45.0009 19.0347 43.582C18.9745 43.6633 18.9143 43.7448 18.8521 43.8287C17.9196 45.0747 16.876 45.9885 15.6194 46.8998C15.5551 46.8676 15.4906 46.8354 15.4243 46.8022C15.4335 46.6994 15.4429 46.5967 15.4524 46.4908C15.5818 44.8917 15.5245 43.3134 14.4519 42.0244C13.7915 41.3628 13.005 41.1232 12.1065 40.9473C12.0582 41.0298 12.0098 41.1123 11.9602 41.1973C11.4731 41.9176 10.8 42.3855 9.95975 42.6062C9.68638 42.6157 9.68638 42.6157 9.47181 42.6062C9.4879 42.5296 9.50399 42.4532 9.52062 42.3744C9.6517 41.4239 9.54225 40.7312 9.08149 39.8739C8.95182 39.7109 8.82182 39.5481 8.69117 39.386C8.69117 39.3215 8.69117 39.2572 8.69117 39.1907C8.60476 39.2285 8.51834 39.2663 8.42931 39.3051C7.21128 39.8227 5.92495 40.2176 4.59279 40.2642C4.48297 40.268 4.37316 40.2719 4.26002 40.276C3.37558 40.2915 2.53667 40.2075 1.66536 40.069C1.66536 40.0047 1.66536 39.9402 1.66536 39.8739C1.80993 39.7552 1.95931 39.6423 2.11057 39.5323C2.83604 38.9622 3.3825 38.3106 3.51787 37.3748C3.52112 36.8773 3.34151 36.5153 3.04978 36.123C2.76248 35.9178 2.60674 35.8729 2.25084 35.8729C1.77805 36.0275 1.37062 36.2453 0.982288 36.5561C0.917886 36.5561 0.853484 36.5561 0.787125 36.5561C0.447507 34.3779 0.194312 32.1276 0.299225 29.9203C0.303236 29.831 0.307246 29.7416 0.311377 29.6496C0.603506 23.7611 0.603507 23.7611 2.34842 22.0161C1.68033 22.0586 1.18678 22.2031 0.591974 22.5041C0.486681 22.5567 0.381399 22.6093 0.272921 22.6634C0.141041 22.7295 0.141041 22.7295 0.00648667 22.7969C-0.0938826 19.4104 0.970114 16.1867 3.22665 13.6241C3.29798 13.5409 3.36929 13.4578 3.44278 13.3721C4.22552 12.4765 5.06377 11.7513 6.06492 11.1136C6.40874 10.9103 6.40874 10.9103 6.64197 10.599C5.48773 10.4112 4.47747 10.4201 3.32424 10.599C3.06419 10.6331 2.80394 10.665 2.54359 10.6966C3.06112 9.85552 3.74127 9.17932 4.4952 8.54976C4.57696 8.47779 4.65872 8.40584 4.74296 8.33171C9.84681 3.91675 17.0366 2.1266 23.6596 2.00564Z" fill="#F2F2F2"/>
<path d="M22.7441 7.28189C23.243 7.61075 23.3336 8.03355 23.4589 8.58749C23.5211 8.82901 23.5905 9.02086 23.72 9.23358C23.9346 9.34727 23.9346 9.34727 24.2078 9.42869C24.3193 9.47825 24.4307 9.52782 24.5455 9.5789C25.0628 9.77325 25.5643 9.76086 26.1106 9.75195C26.2077 9.75227 26.3047 9.7526 26.4045 9.75292C27.2365 9.74684 27.9144 9.56173 28.6968 9.30075C29.7692 8.9513 30.9126 8.65358 32.0082 9.09934C32.1425 9.17293 32.2747 9.25021 32.4046 9.33119C32.4717 9.36804 32.5388 9.40488 32.6078 9.44282C33.2468 9.8239 33.7371 10.3539 34.253 10.8818C34.5959 11.2326 34.9514 11.5588 35.3321 11.8682C35.4249 11.9442 35.5178 12.0202 35.6134 12.0986C36.7202 12.9869 37.8393 13.678 39.2353 14.0151C39.3232 14.037 39.4111 14.0589 39.5018 14.0814C40.2861 14.2506 41.294 14.3698 42.0651 14.1127C44.0856 13.9429 45.9589 14.2511 47.554 15.5887C49.1066 17.0782 49.8869 19.2556 49.9849 21.382C49.9886 21.7035 49.9917 22.0248 49.9926 22.3464C49.9936 22.5504 49.9966 22.7544 49.9997 22.9584C50.0134 24.6848 49.647 26.6448 48.6031 28.067C48.2996 28.3386 48.1761 28.3609 47.7675 28.3537C47.384 28.2491 47.2886 28.1769 47.0418 27.8719C46.9159 27.6103 46.8196 27.341 46.7246 27.0668C46.6985 26.9941 46.6723 26.9215 46.6453 26.8465C46.5813 26.6682 46.5187 26.4894 46.4563 26.3106C46.3035 26.2979 46.3035 26.2979 46.1475 26.285C43.4016 26.0335 40.8782 25.2748 38.6681 23.5904C37.0661 22.3703 35.6328 21.7178 33.633 21.4466C32.3083 21.2611 30.9584 21.0135 30.0139 19.9981C29.6781 19.4805 29.7239 18.9051 29.77 18.3088C29.8431 18.0533 29.9347 17.8603 30.0627 17.6257C30.6339 17.7057 31.1725 17.8678 31.7231 18.0339C32.6793 18.3106 33.6323 18.3202 34.6213 18.337C36.6462 18.3718 38.4719 18.5604 40.4062 19.187C40.3722 19.087 40.3381 18.987 40.303 18.884C40.2581 18.7512 40.2133 18.6184 40.1684 18.4856C40.1347 18.387 40.1347 18.387 40.1004 18.2865C39.916 17.7388 39.807 17.264 39.8086 16.6865C39.8083 16.5946 39.8081 16.5028 39.8079 16.4082C39.8208 16.1619 39.8208 16.1619 39.9184 15.8692C39.8545 15.8726 39.7906 15.8759 39.7247 15.8794C37.6522 15.9409 35.8592 14.8099 34.3879 13.4406C34.1572 13.231 33.9184 13.0364 33.6732 12.8441C33.6636 12.9266 33.6541 13.0091 33.6442 13.0942C33.5104 14.1094 33.3279 14.7765 32.5148 15.4324C31.8833 15.8704 31.2127 15.982 30.453 15.8692C29.5283 15.55 28.9518 14.9662 28.5014 14.1127C28.4221 13.8749 28.4221 13.8749 28.4039 13.6248C28.3955 13.5641 28.3873 13.5036 28.3787 13.4411C28.32 12.7291 28.5968 12.1577 28.9893 11.5755C29.3369 11.23 29.722 11.0072 30.1603 10.7949C29.6249 10.9161 29.1279 11.078 28.6184 11.2828C27.7954 11.5401 26.9754 11.6111 26.1168 11.6061C26.0186 11.6055 25.9203 11.605 25.819 11.6043C24.4644 11.5823 23.4218 11.2579 22.4148 10.3252C21.8022 9.68042 21.5269 8.86586 21.54 7.98403C21.5731 7.76981 21.5731 7.76981 21.7744 7.47096C22.1374 7.23154 22.3171 7.20563 22.7441 7.28189Z" fill="#EFC419"/>
<path d="M22.7441 7.28189C23.243 7.61075 23.3336 8.03355 23.4589 8.58749C23.5211 8.82901 23.5905 9.02086 23.72 9.23358C23.9346 9.34727 23.9346 9.34727 24.2078 9.42869C24.3193 9.47825 24.4307 9.52782 24.5455 9.5789C25.0628 9.77325 25.5643 9.76086 26.1106 9.75195C26.2077 9.75227 26.3047 9.7526 26.4045 9.75292C27.2365 9.74684 27.9144 9.56173 28.6968 9.30075C29.7692 8.9513 30.9126 8.65358 32.0082 9.09934C32.1425 9.17293 32.2747 9.25021 32.4046 9.33119C32.4717 9.36804 32.5388 9.40488 32.6078 9.44282C33.2468 9.8239 33.7371 10.3539 34.253 10.8818C34.5959 11.2326 34.9514 11.5588 35.3321 11.8682C35.4249 11.9442 35.5178 12.0202 35.6134 12.0986C37.3905 13.525 39.2011 14.1567 41.4797 14.3079C41.3217 14.4132 41.1635 14.5185 41.0047 14.6227C40.6231 14.8886 40.3849 15.0932 40.1806 15.5154C40.0662 15.7148 40.0662 15.7148 39.9184 15.8692C39.5498 15.9663 39.2185 15.925 38.8449 15.8692C38.7542 15.8557 38.6633 15.8423 38.5697 15.8284C36.9723 15.5041 35.5603 14.5317 34.3879 13.4406C34.1572 13.231 33.9184 13.0364 33.6732 12.8441C33.6636 12.9266 33.6541 13.0091 33.6442 13.0942C33.5104 14.1094 33.3279 14.7765 32.5148 15.4324C31.8833 15.8704 31.2127 15.982 30.453 15.8692C29.5283 15.55 28.9518 14.9662 28.5014 14.1127C28.4221 13.8749 28.4221 13.8749 28.4039 13.6248C28.3955 13.5641 28.3873 13.5036 28.3787 13.4411C28.32 12.7291 28.5968 12.1577 28.9893 11.5755C29.3368 11.23 29.722 11.0072 30.1603 10.7949C29.6249 10.9161 29.1279 11.078 28.6184 11.2828C27.7954 11.5401 26.9754 11.6111 26.1168 11.6061C26.0186 11.6055 25.9203 11.605 25.819 11.6043C24.4644 11.5823 23.4218 11.2579 22.4148 10.3252C21.8022 9.68042 21.5269 8.86586 21.54 7.98403C21.5731 7.76981 21.5731 7.76981 21.7744 7.47096C22.1374 7.23154 22.3171 7.20563 22.7441 7.28189Z" fill="#B4B9BC"/>
<path d="M32.5006 11.0875C32.9977 11.4629 33.4044 11.9449 33.5739 12.5511C33.6729 13.3469 33.6213 14.1079 33.1836 14.7956C32.6472 15.4132 32.0827 15.795 31.2717 15.9025C30.4417 15.9492 29.836 15.6774 29.2011 15.1554C28.8312 14.7009 28.4462 14.2267 28.4022 13.6246C28.3938 13.564 28.3856 13.5033 28.377 13.4408C28.3182 12.7278 28.5966 12.1594 28.9876 11.5754C29.9406 10.5754 31.3121 10.4103 32.5006 11.0875Z" fill="#EFC41D"/>
<path d="M42.492 22.3331C43.0556 22.4907 43.4852 22.9041 43.918 23.2826C43.9694 23.3275 44.0207 23.3723 44.0735 23.4185C44.4191 23.7238 44.755 24.0381 45.0889 24.356C45.1886 24.448 45.1886 24.448 45.2902 24.5417C45.7494 24.9772 46.1288 25.4724 46.4551 26.0149C46.4551 26.0794 46.4551 26.1437 46.4551 26.2101C46.0965 26.2229 45.7403 26.2197 45.3818 26.2101C45.2858 26.2094 45.1898 26.2086 45.0909 26.2079C44.2641 26.1445 43.8719 25.7435 43.3424 25.1611C42.9536 24.7379 42.4994 24.4155 42.0361 24.0785C41.6946 23.8072 41.5007 23.627 41.4358 23.1911C41.5275 22.5487 41.8646 22.2951 42.492 22.3331Z" fill="#F19C1E"/>
<path d="M44.035 15.8531C44.4071 15.969 44.4071 15.969 44.6571 16.1703C44.8025 16.4673 44.8625 16.6803 44.8058 17.0101C44.5626 17.5324 43.9501 18.1492 43.4313 18.4087C43.0438 18.4452 42.8108 18.4406 42.4616 18.2623C42.2365 17.9893 42.1773 17.8024 42.2005 17.4473C42.3212 17.024 42.6328 16.7536 42.9434 16.4569C42.9995 16.3967 43.0556 16.3365 43.1134 16.2743C43.4072 15.9812 43.6094 15.8264 44.035 15.8531Z" fill="#F19C1E"/>
<path d="M32.095 12.0451C32.5824 12.3 32.5824 12.3 32.9245 12.7246C33.0559 13.5721 33.0579 13.8851 32.5824 14.5933C31.9658 15.023 31.6655 15.0667 30.9334 14.9329C30.3209 14.4926 30.1321 14.2465 30 13.489C30.214 12.2629 30.9271 11.8531 32.095 12.0451Z" fill="#394B5C"/>
<path d="M30.4726 12C30.6987 12.0404 30.791 12.0822 30.9418 12.2552C31.0039 12.4414 31.0039 12.4414 30.997 12.6415C30.8901 12.8312 30.8901 12.8312 30.721 12.9726C30.5517 13.0164 30.4596 13.0011 30.2794 12.9726C30.0977 12.8561 30.0649 12.7715 30 12.5656C30.0035 12.3656 30.0035 12.3656 30.1139 12.1759C30.2794 12.0345 30.2794 12.0345 30.4726 12Z" fill="#C1C8BD"/>
</g>
</g>
<defs>
<filter id="filter0_d_1_3059" x="-3" y="-1" width="56" height="52.6619" filterUnits="userSpaceOnUse" color-interpolation-filters="sRGB">
<feFlood flood-opacity="0" result="BackgroundImageFix"/>
<feColorMatrix in="SourceAlpha" type="matrix" values="0 0 0 0 0 0 0 0 0 0 0 0 0 0 0 0 0 0 127 0" result="hardAlpha"/>
<feOffset/>
<feGaussianBlur stdDeviation="1.5"/>
<feComposite in2="hardAlpha" operator="out"/>
<feColorMatrix type="matrix" values="0 0 0 0 0.586538 0 0 0 0 0.586538 0 0 0 0 0.586538 0 0 0 1 0"/>
<feBlend mode="normal" in2="BackgroundImageFix" result="effect1_dropShadow_1_3059"/>
<feBlend mode="normal" in="SourceGraphic" in2="effect1_dropShadow_1_3059" result="shape"/>
</filter>
<clipPath id="clip0_1_3059">
<rect width="50" height="50" fill="white"/>
</clipPath>
</defs>
</svg>
