<svg width="50" height="50" viewBox="0 0 50 50" fill="none" xmlns="http://www.w3.org/2000/svg">
<path d="M23.4066 8.30097C24.4519 9.21047 24.4519 9.21047 24.9024 9.66968C25.2116 9.53436 25.4011 9.37995 25.6287 9.13257C28.2287 6.4748 32.1449 5.0301 35.8166 4.95428C39.3204 4.92406 42.301 6.18032 44.7998 8.62598C47.5458 11.3964 48.8579 15.3388 48.8459 19.1942C48.7681 24.1617 46.605 28.7547 43.4571 32.5212C43.3807 32.6145 43.3042 32.7078 43.2255 32.8039C41.2834 35.1561 39.0452 37.2189 36.6211 39.0642C36.5206 39.1408 36.5206 39.1408 36.418 39.2189C34.2712 40.846 32.0059 42.2867 29.6875 43.6541C29.6096 43.7004 29.5316 43.7468 29.4513 43.7946C27.5034 44.9439 25.1847 45.3843 22.9695 44.8221C20.28 44.0162 17.7917 42.2461 15.5274 40.6267C15.457 40.5768 15.3866 40.5269 15.314 40.4754C13.5405 39.2168 11.8427 37.8817 10.249 36.4008C10.0619 36.2269 9.87304 36.0563 9.68212 35.8866C8.4702 34.8039 7.34019 33.6134 6.34769 32.3259C6.28212 32.2417 6.28212 32.2417 6.21522 32.1557C2.81355 27.7726 0.589221 22.5161 1.29398 16.8917C1.73546 13.779 2.99742 10.9656 5.17582 8.69312C5.24971 8.61305 5.3236 8.53299 5.39974 8.4505C10.125 3.48625 18.3891 4.12393 23.4066 8.30097Z" fill="#FF3232"/>
</svg>
