<svg width="24" height="24" viewBox="0 0 24 24" fill="none" xmlns="http://www.w3.org/2000/svg">
<path fill-rule="evenodd" clip-rule="evenodd" d="M5.02843 16.8437C4.81078 17.0614 4.44543 17.0114 4.30742 16.7363C3.44895 15.025 3 13.1486 3 11.2441V5.9022C3 5.76717 3.10049 5.65725 3.23239 5.64155C3.32789 5.63053 3.42291 5.6176 3.51782 5.60277C3.76736 5.56376 4.01178 5.71492 4.07151 5.96032L4.1599 6.32347C4.19835 6.48141 4.09287 6.65351 4.09287 6.81607V11.2441C4.09287 12.9455 4.48742 14.6303 5.2429 16.1667C5.33307 16.3501 5.30066 16.5715 5.15618 16.716L5.02843 16.8437ZM18.9231 16.7189C18.7787 16.5745 18.7462 16.3533 18.8362 16.17C19.5923 14.6308 19.9897 12.9457 19.9897 11.2441V6.81607C19.9897 6.65342 19.8818 6.4796 19.9208 6.32167L20.0098 5.95999C20.0703 5.71477 20.3151 5.56402 20.5647 5.603C20.659 5.61774 20.7533 5.63059 20.847 5.64155C20.9789 5.65725 21.0794 5.76717 21.0794 5.9022V11.2441C21.0794 13.1487 20.6305 15.0276 19.772 16.7394C19.634 17.0145 19.2686 17.0645 19.051 16.8469L18.9231 16.7189ZM17.1604 19.6185C17.3398 19.7986 17.342 20.0898 17.1586 20.2657C15.7385 21.6279 14.0173 22.6747 12.1229 23.3159C12.0695 23.3347 12.0099 23.3347 11.9565 23.3159C10.0622 22.6747 8.34095 21.6279 6.92081 20.2657C6.73743 20.0898 6.73968 19.7986 6.91899 19.6185L7.03139 19.5057C7.21484 19.3215 7.51305 19.324 7.70127 19.5033C8.91204 20.6569 10.3601 21.563 11.9471 22.1571C12.0067 22.179 12.0727 22.179 12.1324 22.1571C13.719 21.5631 15.1694 20.6572 16.3781 19.5041C16.5663 19.3245 16.8648 19.3217 17.0485 19.5061L17.1604 19.6185ZM16.7658 4.83943C16.6096 4.99559 16.3647 5.02111 16.1839 4.89429C15.348 4.30801 14.6102 3.64946 13.8973 2.97847C13.6115 2.70525 13.3257 2.41947 13.0274 2.15568C12.9803 2.11485 12.9206 2.08973 12.8547 2.08973H11.2248C11.1588 2.08973 11.0992 2.11485 11.0521 2.15568C10.8479 2.33782 10.6501 2.52939 10.4554 2.71467C9.67151 3.47306 8.83665 4.234 7.89565 4.8941C7.71478 5.02098 7.46972 4.99552 7.31349 4.83929L7.07627 4.60207C6.95526 4.48106 6.91376 4.24299 7.0558 4.14753C8.12498 3.42898 9.01214 2.58546 9.70167 1.92957C10.0691 1.58098 10.3863 1.2795 10.6626 1.05967C10.7097 1.02198 10.7663 1 10.8259 1H13.2535C13.3132 1 13.3728 1.02198 13.4168 1.05967C13.6963 1.2795 14.0135 1.58098 14.3778 1.92957C15.0699 2.58524 15.9545 3.42843 17.0227 4.1446C17.1671 4.24139 17.1275 4.48061 17.0032 4.60207L16.7658 4.83943Z" fill="#07060B"/>
<path fill-rule="evenodd" clip-rule="evenodd" d="M8.62764 13.5711L17.3015 4.89727C17.3329 4.86272 17.3769 4.84074 17.424 4.82818L19.5846 4.30059C19.7824 4.25034 19.9552 4.42306 19.9049 4.62091L19.3773 6.78152C19.3648 6.82863 19.3428 6.8726 19.3082 6.904L10.6344 15.5779L8.62764 13.5711Z" fill="#07060B"/>
<path fill-rule="evenodd" clip-rule="evenodd" d="M10.0628 18.1656C9.87439 18.1656 9.69853 18.0933 9.56349 17.9614L6.24406 14.642C5.97084 14.3657 5.97084 13.9197 6.24406 13.6434L6.67744 13.21C6.9538 12.9368 7.39974 12.9368 7.67609 13.21L10.9955 16.5294C11.2687 16.8058 11.2687 17.2517 10.9955 17.5281L10.5621 17.9614C10.4302 18.0933 10.2512 18.1656 10.0628 18.1656Z" fill="#07060B"/>
<path fill-rule="evenodd" clip-rule="evenodd" d="M5.50292 20.0404C5.25482 20.0404 5.00987 19.9462 4.81831 19.7578L4.44774 19.3872C4.07088 19.0072 4.07088 18.3948 4.44774 18.018L6.73711 15.7255L8.4769 17.4653L6.18753 19.7578C5.99911 19.9462 5.75101 20.0404 5.50292 20.0404Z" fill="#07060B"/>
<path fill-rule="evenodd" clip-rule="evenodd" d="M9.73621 11.869L4.7712 6.90714C4.73665 6.8726 4.71467 6.82863 4.70211 6.78152L4.17452 4.62091C4.12427 4.42306 4.30014 4.25034 4.49484 4.30059L6.65545 4.82818C6.70256 4.84074 6.74653 4.86586 6.78107 4.89727L11.7429 9.86228L9.73621 11.869ZM13.4451 15.5779L12.3365 14.4693L14.3432 12.4626L15.4518 13.5711L13.4451 15.5779Z" fill="#07060B"/>
<path fill-rule="evenodd" clip-rule="evenodd" d="M14.0166 18.1656C13.8282 18.1656 13.6492 18.0933 13.5173 17.9614L13.0839 17.5281C12.8107 17.2517 12.8107 16.8058 13.0839 16.5294L16.4033 13.21C16.6797 12.9368 17.1256 12.9368 17.402 13.21L17.8354 13.6434C18.1117 13.9197 18.1117 14.3657 17.8354 14.642L14.5159 17.9614C14.3809 18.0933 14.205 18.1656 14.0166 18.1656Z" fill="#07060B"/>
<path fill-rule="evenodd" clip-rule="evenodd" d="M18.5765 20.0404C18.3284 20.0404 18.0803 19.9462 17.8919 19.7578L15.6025 17.4684L17.3423 15.7286L19.6317 18.018C20.0085 18.3948 20.0085 19.0072 19.6317 19.3872L19.2611 19.7578C19.0727 19.9462 18.8246 20.0404 18.5765 20.0404Z" fill="#07060B"/>
</svg>
