<svg width="24" height="24" viewBox="0 0 24 24" fill="none" xmlns="http://www.w3.org/2000/svg">
<path fill-rule="evenodd" clip-rule="evenodd" d="M4.63171 17.0286C4.40298 17.2626 4.01903 17.2089 3.87399 16.9132C2.97181 15.0739 2.5 13.0572 2.5 11.0102V5.26883C2.5 5.12369 2.60561 5.00556 2.74422 4.98868C2.84458 4.97684 2.94444 4.96294 3.04419 4.94699C3.30643 4.90507 3.5633 5.06754 3.62607 5.33129L3.71896 5.72159C3.75936 5.89135 3.64851 6.07632 3.64851 6.25104V11.0102C3.64851 12.8388 4.06316 14.6497 4.85711 16.301C4.95186 16.4981 4.91781 16.7361 4.76596 16.8913L4.63171 17.0286ZM19.2338 16.8945C19.0821 16.7393 19.0479 16.5015 19.1426 16.3045C19.9371 14.6502 20.3548 12.8391 20.3548 11.0102V6.25104C20.3548 6.07622 20.2414 5.8894 20.2823 5.71966L20.376 5.33094C20.4394 5.06738 20.6968 4.90535 20.959 4.94725C21.0582 4.96309 21.1572 4.9769 21.2558 4.98868C21.3944 5.00556 21.5 5.12369 21.5 5.26883V11.0102C21.5 13.0572 21.0282 15.0767 20.126 16.9165C19.981 17.2122 19.597 17.2659 19.3683 17.032L19.2338 16.8945ZM17.3815 20.011C17.5699 20.2045 17.5723 20.5175 17.3795 20.7066C15.8871 22.1706 14.0782 23.2957 12.0875 23.9848C12.0314 24.0051 11.9686 24.0051 11.9125 23.9848C9.92177 23.2957 8.1129 22.1706 6.62045 20.7066C6.42773 20.5175 6.4301 20.2045 6.61854 20.011L6.73666 19.8897C6.92945 19.6917 7.24285 19.6944 7.44065 19.8872C8.71307 21.1269 10.2348 22.1008 11.9026 22.7393C11.9653 22.763 12.0347 22.763 12.0974 22.7393C13.7648 22.101 15.289 21.1274 16.5593 19.8879C16.7571 19.6949 17.0708 19.692 17.2638 19.8901L17.3815 20.011ZM16.9667 4.12657C16.8026 4.29441 16.5452 4.32184 16.3552 4.18553C15.4768 3.55541 14.7014 2.84761 13.9521 2.12643C13.6518 1.83278 13.3515 1.52563 13.038 1.24211C12.9884 1.19823 12.9257 1.17123 12.8564 1.17123H11.1436C11.0743 1.17123 11.0116 1.19823 10.962 1.24211C10.7475 1.43787 10.5396 1.64377 10.335 1.84291C9.51121 2.65802 8.63384 3.47587 7.64493 4.18533C7.45484 4.3217 7.19731 4.29433 7.03312 4.12642L6.78383 3.87146C6.65665 3.74139 6.61304 3.48552 6.76231 3.38292C7.88593 2.61064 8.81827 1.70403 9.5429 0.999086C9.92904 0.624429 10.2624 0.300401 10.5528 0.0641305C10.6023 0.023627 10.6617 0 10.7244 0H13.2756C13.3383 0 13.401 0.023627 13.4472 0.0641305C13.7409 0.300401 14.0743 0.624429 14.4571 0.999086C15.1844 1.7038 16.1141 2.61005 17.2367 3.37977C17.3884 3.48381 17.3469 3.74092 17.2162 3.87146L16.9667 4.12657Z" fill="#07060B"/>
<path fill-rule="evenodd" clip-rule="evenodd" d="M8.41419 13.5113L17.5297 4.18873C17.5627 4.15161 17.6089 4.12798 17.6584 4.11448L19.929 3.54743C20.137 3.49342 20.3185 3.67907 20.2657 3.89171L19.7112 6.21391C19.698 6.26454 19.6749 6.31179 19.6386 6.34554L10.5231 15.6681L8.41419 13.5113Z" fill="#07060B"/>
<path fill-rule="evenodd" clip-rule="evenodd" d="M9.92244 18.4493C9.72442 18.4493 9.5396 18.3717 9.39769 18.2299L5.90924 14.6623C5.62211 14.3652 5.62211 13.8859 5.90924 13.5889L6.36469 13.1231C6.65511 12.8295 7.12376 12.8295 7.41419 13.1231L10.9026 16.6908C11.1898 16.9878 11.1898 17.4671 10.9026 17.7642L10.4472 18.2299C10.3086 18.3717 10.1205 18.4493 9.92244 18.4493Z" fill="#07060B"/>
<path fill-rule="evenodd" clip-rule="evenodd" d="M5.13036 20.4644C4.86964 20.4644 4.61221 20.3631 4.41089 20.1606L4.02145 19.7623C3.62541 19.3539 3.62541 18.6957 4.02145 18.2907L6.42739 15.8267L8.25577 17.6966L5.84983 20.1606C5.65181 20.3631 5.39109 20.4644 5.13036 20.4644Z" fill="#07060B"/>
<path fill-rule="evenodd" clip-rule="evenodd" d="M9.57921 11.6819L4.36139 6.34892C4.32508 6.31179 4.30198 6.26454 4.28878 6.21391L3.73432 3.89171C3.68152 3.67907 3.86634 3.49342 4.07096 3.54743L6.34158 4.11448C6.39109 4.12798 6.43729 4.15498 6.4736 4.18873L11.6881 9.52507L9.57921 11.6819ZM13.4769 15.6681L12.3119 14.4766L14.4208 12.3198L15.5858 13.5113L13.4769 15.6681Z" fill="#07060B"/>
<path fill-rule="evenodd" clip-rule="evenodd" d="M14.0776 18.4493C13.8795 18.4493 13.6914 18.3717 13.5528 18.2299L13.0974 17.7642C12.8102 17.4671 12.8102 16.9878 13.0974 16.6908L16.5858 13.1231C16.8762 12.8295 17.3449 12.8295 17.6353 13.1231L18.0908 13.5889C18.3812 13.8859 18.3812 14.3652 18.0908 14.6623L14.6023 18.2299C14.4604 18.3717 14.2756 18.4493 14.0776 18.4493Z" fill="#07060B"/>
<path fill-rule="evenodd" clip-rule="evenodd" d="M18.8696 20.4644C18.6089 20.4644 18.3482 20.3631 18.1502 20.1606L15.7442 17.7L17.5726 15.8301L19.9785 18.2907C20.3746 18.6957 20.3746 19.3539 19.9785 19.7623L19.5891 20.1606C19.3911 20.3631 19.1304 20.4644 18.8696 20.4644Z" fill="#07060B"/>
</svg>
