<svg width="50" height="50" viewBox="0 0 50 50" fill="none" xmlns="http://www.w3.org/2000/svg">
<g clip-path="url(#clip0_1_2736)">
<g filter="url(#filter0_d_1_2736)">
<path d="M11.0963 15.5492C11.187 16.8413 11.0513 18.0057 10.7437 19.2575C10.1715 21.6101 10.3544 23.5328 11.5999 25.6225C12.2587 26.6786 13.0894 27.8284 14.1182 28.5438C14.1289 28.4707 14.1395 28.3976 14.1505 28.3223C14.3883 27.3421 15.2273 26.7421 16.0322 26.227C16.119 26.1708 16.206 26.1147 16.2954 26.057C17.6414 25.2196 17.6414 25.2196 18.1476 25.2196C18.0012 25.5471 17.8153 25.7866 17.581 26.057C16.4014 27.5212 15.7659 29.2835 15.7299 31.1628C17.3143 32.2381 19.1972 32.7722 21.0007 33.3589C21.4991 33.5213 21.9907 33.6928 22.4791 33.8827C22.4791 33.9159 22.4791 33.9491 22.4791 33.9834C20.4105 34.0279 18.5585 33.7786 16.5602 33.2298C16.324 33.1661 16.324 33.1661 16.0322 33.1776C17.553 34.4737 20.0951 34.6033 21.9997 34.7904C22.1006 34.8009 22.2016 34.8113 22.3056 34.8219C22.3951 34.8304 22.4848 34.8387 22.5771 34.8474C22.6782 34.8684 22.6782 34.8684 22.7813 34.89C22.8145 34.9565 22.8478 35.0229 22.882 35.0914C20.7546 35.5153 18.5453 35.5379 16.4351 34.9908C16.4856 35.1925 16.4856 35.1925 16.6366 35.3937C16.8813 35.4936 17.0932 35.5616 17.3481 35.6203C17.4202 35.6373 17.4923 35.6543 17.5666 35.672C18.3697 35.8453 19.1444 35.8325 19.9608 35.7966C20.176 35.7885 20.3912 35.7806 20.6065 35.7725C21.1972 35.7499 21.7879 35.7239 22.3784 35.6959C22.0845 36.0167 21.7722 36.1279 21.3648 36.2562C21.2621 36.2889 21.2621 36.2889 21.1575 36.3224C19.9859 36.6891 18.8642 36.7563 17.6439 36.804C19.1665 37.4843 20.5155 37.554 22.0931 36.9716C22.7448 36.7063 23.319 36.304 23.8894 35.8974C23.968 35.8478 24.0465 35.7984 24.1274 35.7474C24.3103 35.6065 24.3103 35.6065 24.3458 35.3807C24.3357 34.5887 24.1634 33.9231 23.6627 33.2971C23.2366 32.9582 22.7928 32.6804 22.3064 32.4354C21.5127 32.0326 21.0271 31.5999 20.5715 30.8354C20.3266 29.9712 20.4189 29.1622 20.7667 28.3424C20.7999 28.3424 20.8331 28.3424 20.8674 28.3424C20.8845 28.4238 20.9017 28.5052 20.9193 28.589C20.9437 28.6967 20.9681 28.8044 20.9933 28.9153C21.0166 29.0216 21.04 29.128 21.0642 29.2375C21.1845 29.5958 21.299 29.7933 21.5725 30.0548C21.9071 30.1841 21.9071 30.1841 22.2839 30.2562C22.7737 30.3679 23.1911 30.4958 23.6376 30.7348C24.3712 31.0879 25.2076 31.1023 25.9875 30.8803C26.1519 30.8137 26.3146 30.7426 26.475 30.6671C26.722 30.5529 26.9646 30.4756 27.2262 30.4011C27.3087 30.3765 27.3913 30.352 27.4764 30.3267C27.6323 30.2811 27.7886 30.2372 27.9455 30.1953C28.3549 30.0702 28.4971 29.989 28.7623 29.633C28.9469 29.2508 29.0403 28.8571 29.1275 28.4431C29.5361 28.9226 29.5625 29.4047 29.5513 30.0151C29.4916 30.7054 29.2388 31.2637 28.7667 31.77C28.3445 32.1145 27.8599 32.3411 27.3757 32.5865C26.6119 32.9755 26.0991 33.3593 25.8033 34.1848C25.6682 34.662 25.5707 35.1075 25.7026 35.5951C26.0127 35.9543 26.3988 36.1753 26.8106 36.401C26.8749 36.4371 26.939 36.4734 27.0053 36.5106C28.3831 37.2707 29.7795 37.6474 31.3437 37.2069C31.6869 37.0873 32.0203 36.9547 32.3509 36.804C32.2291 36.8001 32.1074 36.7964 31.9819 36.7925C30.4914 36.7369 29.0795 36.5557 27.7172 35.8974C27.684 35.8308 27.6508 35.7644 27.6165 35.6959C27.747 35.7031 27.8775 35.7104 28.012 35.7179C30.7167 35.8967 30.7167 35.8967 33.3583 35.3937C33.48 35.1922 33.48 35.1922 33.5598 34.9908C33.4563 35.0114 33.3527 35.032 33.2462 35.0533C28.7033 35.9443 28.7033 35.9443 27.1128 34.9908C27.301 34.8026 27.6153 34.8344 27.8683 34.8062C28.0061 34.7903 28.1439 34.7744 28.2817 34.7585C28.3541 34.7501 28.4265 34.7419 28.501 34.7333C30.0657 34.5521 31.5535 34.3144 33.0435 33.7819C33.1114 33.758 33.1792 33.7342 33.2491 33.7096C33.63 33.5645 33.8564 33.4326 34.0635 33.0768C34.0033 33.0939 33.9432 33.111 33.8813 33.1288C31.7467 33.725 29.7365 34.0255 27.5157 33.9834C27.6165 33.7819 27.6165 33.7819 27.9368 33.6576C28.0799 33.6107 28.2231 33.5646 28.3665 33.5191C28.4433 33.4939 28.52 33.4689 28.5991 33.443C28.8464 33.3622 29.094 33.2824 29.3415 33.2027C31.5306 32.5066 31.5306 32.5066 33.6038 31.528C33.6691 31.4923 33.7343 31.4566 33.8016 31.4198C33.9565 31.3349 34.1107 31.2491 34.2649 31.1628C34.3173 29.2075 33.4704 27.5484 32.349 26.0023C32.1671 25.7478 32.004 25.4901 31.8473 25.2196C33.2578 25.6088 34.8678 26.5037 35.6311 27.782C35.6749 27.865 35.7186 27.9479 35.7637 28.0334C35.8714 28.2554 35.8714 28.2554 36.0781 28.4431C37.8687 26.791 39.4691 24.5014 39.6214 22.0098C39.6427 21.179 39.5126 20.4377 39.3079 19.6352C39.2523 19.4087 39.1968 19.1822 39.1415 18.9556C39.1166 18.8574 39.0919 18.7591 39.0663 18.658C38.9541 18.175 38.8859 17.7176 38.8888 17.2216C38.8892 17.1235 38.8895 17.0255 38.8898 16.9244C38.8906 16.8238 38.8914 16.7232 38.8924 16.6195C38.8928 16.5165 38.8933 16.4136 38.8937 16.3075C38.8949 16.0547 38.8966 15.8019 38.8987 15.5492C40.357 16.2328 41.3581 18.7557 41.9002 20.1948C42.6177 22.2321 42.8371 24.6158 41.9207 26.6299C41.1767 28.1212 40.1595 29.4796 39.1001 30.7599C39.0314 30.8461 38.9627 30.9321 38.8919 31.0208C38.4641 31.5544 38.0197 32.0692 37.5576 32.5731C37.5068 32.6287 37.4562 32.6844 37.4039 32.7417C37.1475 33.0183 36.8935 33.2665 36.5818 33.4797C36.5486 33.2803 36.5153 33.0808 36.481 32.8753C35.5968 33.7269 35.1319 34.6801 34.6383 35.7864C34.0919 36.9687 33.0959 37.9891 31.8725 38.4597C31.5136 38.5852 31.2202 38.6343 30.84 38.6171C30.831 38.7179 30.822 38.8187 30.8129 38.9225C30.7502 39.3568 30.5793 39.6973 30.3678 40.0778C30.3319 40.1438 30.296 40.2097 30.2589 40.2777C29.9958 40.7495 29.7128 41.1546 29.3289 41.5384C29.2957 41.5384 29.2625 41.5384 29.2283 41.5384C29.2306 41.4699 29.2329 41.4013 29.2354 41.3306C29.2518 40.4445 29.1511 39.5928 29.0268 38.7178C28.9174 38.7324 28.8078 38.7469 28.6951 38.762C26.1139 39.0709 23.446 39.0203 20.8674 38.7178C20.7674 39.6606 20.7559 40.5919 20.7667 41.5384C20.3119 41.1932 20.0143 40.8597 19.7404 40.3548C19.7052 40.2928 19.6699 40.2309 19.6335 40.1672C19.4394 39.8167 19.3147 39.4995 19.2367 39.1082C19.1879 38.8905 19.1879 38.8905 19.0542 38.7178C18.7357 38.5761 18.4224 38.4939 18.0838 38.4114C17.5955 38.2725 17.2342 38.02 16.8381 37.7105C16.7126 37.6154 16.7126 37.6154 16.5846 37.5185C15.8374 36.8887 15.4518 36.0651 15.0752 35.1859C14.6764 34.2556 14.2592 33.4749 13.4132 32.8753C13.4132 33.0747 13.4132 33.2742 13.4132 33.4797C12.4064 32.9119 11.7017 31.8538 10.9955 30.9614C10.9467 30.8997 10.8978 30.838 10.8475 30.7745C9.01484 28.4475 7.2248 26.12 7.46985 23.0035C7.64016 21.6031 9.16141 15.5492 11.0963 15.5492Z" fill="white"/>
<path d="M9.17919 0.103331C9.55698 0.276503 9.8686 0.498865 10.1897 0.760848C11.4788 1.78514 12.9667 2.36239 14.5212 2.85736C14.5945 2.88271 14.6677 2.90807 14.7432 2.9342C15.8964 3.3241 16.6232 3.04192 17.6966 2.58193C22.1058 0.700143 27.0391 0.747479 31.5105 2.31474C31.5758 2.33761 31.641 2.36048 31.7082 2.38404C32.0283 2.49699 32.3469 2.61258 32.6649 2.73128C33.764 3.13122 34.4836 3.12962 35.5933 2.79441C35.6861 2.76684 35.779 2.73928 35.8746 2.71088C37.6045 2.18427 39.0654 1.32933 40.5187 0.266239C40.9201 -0.00114859 41.352 -0.0272231 41.8199 0.0368316C42.8897 0.603192 43.4754 1.63804 43.8346 2.75663C44.6008 5.58486 43.4774 8.4466 42.4344 11.0582C42.1299 11.822 42.1299 11.822 42.1221 12.6285C42.2113 12.8539 42.2113 12.8539 42.3613 13.0441C42.417 13.1216 42.4727 13.1993 42.5302 13.2793C42.6669 13.4574 42.8052 13.6341 42.9449 13.8097C45.4764 17.0061 47.305 20.816 46.8879 24.9704C46.7665 25.9382 46.5823 26.9199 46.2522 27.8392C46.1857 27.806 46.1192 27.7728 46.0507 27.7385C45.9819 27.5093 45.9819 27.5093 45.92 27.2045C45.8966 27.0925 45.8731 26.9805 45.8489 26.865C45.8241 26.7439 45.7993 26.6229 45.7737 26.4982C44.7002 21.4877 42.4881 16.786 39.503 12.6285C39.6665 12.2076 39.9776 11.9335 40.2964 11.6275C40.6634 11.2724 41.0056 10.9205 41.3162 10.513C41.2262 10.4643 41.136 10.4155 41.0432 10.3651C40.2694 9.93901 39.5629 9.48967 38.8987 8.90136C38.8301 8.84111 38.7616 8.78086 38.6909 8.71878C38.1515 8.21541 37.8388 7.65397 37.7725 6.90165C37.8492 5.98484 38.6785 5.09437 39.2009 4.36836C38.7994 4.45126 38.528 4.63637 38.1935 4.87203C38.127 4.83878 38.0606 4.80555 37.9921 4.77129C38.5607 3.96436 39.1672 3.20688 39.8053 2.45443C38.9645 2.86906 38.1281 3.29061 37.3011 3.73209C37.2274 3.7714 37.1538 3.81071 37.0778 3.85121C36.7763 4.01231 36.4749 4.17369 36.1737 4.33548C35.9496 4.45583 35.725 4.57563 35.5005 4.69535C35.4327 4.73196 35.3649 4.76858 35.2951 4.8063C34.522 5.21759 34.522 5.21759 34.1472 5.11363C34.0683 5.07961 33.9893 5.04559 33.908 5.01054C33.8178 4.9729 33.7275 4.93527 33.6345 4.8965C33.5371 4.85519 33.4397 4.81386 33.3395 4.77129C31.4315 3.99514 29.4502 3.47285 27.4151 3.15956C27.3354 3.14722 27.2558 3.1349 27.1738 3.12218C23.4043 2.56663 19.5032 3.55483 16.0358 5.00088C15.436 5.21333 15.436 5.21333 15.1032 5.09389C15.0278 5.05041 14.9523 5.00693 14.8745 4.96214C14.788 4.91343 14.7014 4.86474 14.6123 4.81455C14.5199 4.7608 14.4276 4.70705 14.3323 4.65168C14.1344 4.53998 13.9364 4.42849 13.7382 4.31721C13.6356 4.25926 13.533 4.20131 13.4274 4.14162C12.9075 3.85221 12.3799 3.57816 11.8518 3.30436C11.755 3.25403 11.6584 3.20369 11.5586 3.15181C11.1041 2.91566 10.6487 2.68167 10.1897 2.45443C10.27 2.54572 10.3502 2.637 10.4328 2.73105C11.0023 3.38391 11.5539 4.02687 12.0029 4.77129C11.656 4.77129 11.5246 4.69112 11.2284 4.51946C11.147 4.47271 11.0657 4.42597 10.9818 4.3778C10.9198 4.34145 10.8579 4.30509 10.7941 4.26763C10.8621 4.37579 10.9301 4.48397 11.0003 4.59541C11.091 4.74008 11.1818 4.88475 11.2726 5.02943C11.3172 5.10039 11.3619 5.17135 11.4079 5.24447C12.2993 6.66681 12.2993 6.66681 12.2043 7.28963C11.7433 8.66116 10.5907 9.43027 9.38381 10.1101C9.25299 10.1848 9.12222 10.2596 8.99149 10.3345C8.83664 10.4229 8.83664 10.4229 8.67867 10.513C8.92412 10.7755 9.1697 11.0378 9.41528 11.3001C9.48481 11.3745 9.5544 11.4487 9.62598 11.5254C9.69324 11.5971 9.76039 11.6688 9.8296 11.7427C9.89139 11.8087 9.95308 11.8746 10.0166 11.9426C10.1726 12.1068 10.3309 12.2677 10.4918 12.427C10.3379 12.8728 10.0968 13.2382 9.83084 13.6232C7.13661 17.6042 5.20056 21.9854 4.17204 26.6808C4.08441 27.0765 3.98432 27.4584 3.84347 27.8392C2.695 26.1165 2.9383 23.2233 3.30203 21.2979C3.92227 18.3017 5.57246 15.6435 7.48089 13.2928C7.82621 12.819 7.89686 12.5339 7.81558 11.9482C7.73997 11.555 7.6046 11.1862 7.4679 10.8105C7.40576 10.6341 7.34367 10.4578 7.28158 10.2814C7.18462 10.0087 7.08722 9.73632 6.9892 9.4641C6.1524 7.13173 5.36931 4.52039 6.4464 2.12666C6.98121 1.00568 7.69612 -0.393966 9.17919 0.103331Z" fill="white"/>
<path d="M33.5601 7.08759C34.0938 7.37223 34.569 7.70709 35.0541 8.06777C35.2845 8.23278 35.5136 8.38879 35.7521 8.54074C37.218 9.47446 38.186 10.5838 38.5967 12.3257C38.6864 13.3379 38.5554 14.1659 38.1399 15.0856C37.3535 16.875 37.6632 18.6786 38.0145 20.5426C38.2431 21.7635 38.3135 22.7102 37.7216 23.8282C37.1708 24.4981 36.5304 24.8699 35.6754 25.0181C34.5427 25.126 33.6635 24.8958 32.7255 24.2626C32.5527 24.1115 32.5527 24.1115 32.4519 23.8093C32.5837 23.8054 32.5837 23.8054 32.718 23.8014C33.6615 23.7565 34.6342 23.6556 35.4236 23.0853C36.0852 22.3409 36.1457 21.5842 36.1127 20.6181C36.0816 20.1073 35.9771 19.6224 35.8423 19.1291C35.7762 18.8734 35.7762 18.8734 35.7762 18.5712C35.7097 18.5712 35.6432 18.5712 35.5747 18.5712C35.5706 18.6646 35.5664 18.7582 35.5621 18.8545C35.4285 19.7466 34.875 20.4666 34.1935 21.0238C33.2649 21.6942 32.2756 21.8714 31.1424 21.7946C31.0072 21.7648 30.8724 21.7327 30.7395 21.6939C30.7114 21.78 30.6831 21.8661 30.6541 21.9548C30.5794 22.1757 30.5014 22.3954 30.4188 22.6135C30.0233 23.6967 29.8647 24.7821 29.7322 25.9247C29.0731 25.3163 28.9629 24.1674 28.9071 23.3123C28.8491 21.6645 29.3606 20.0856 30.1103 18.6314C30.5134 17.8448 30.6301 17.3219 30.4373 16.4558C30.4234 16.3919 30.4094 16.328 30.3951 16.2621C30.1595 15.2303 29.7637 14.3571 29.2175 13.4535C29.027 13.1316 29.027 13.1316 28.9263 12.8294C29.8768 13.0185 30.8622 13.2936 31.5516 14.0193C32.0924 14.9088 31.9691 15.9542 31.9484 16.9594C32.0399 16.9438 32.1315 16.928 32.2257 16.9118C33.3276 16.7412 34.374 16.7166 35.474 16.9594C35.5106 16.8134 35.5106 16.8134 35.5479 16.6643C35.853 15.4725 35.853 15.4725 36.0973 14.9322C36.5203 13.9181 36.4112 12.9437 36.0784 11.9228C35.9011 11.5093 35.6948 11.1155 35.4802 10.7203C35.4232 10.6128 35.3663 10.5052 35.3075 10.3944C34.8636 9.56353 34.4007 8.74332 33.9235 7.93105C33.8756 7.84917 33.8278 7.76729 33.7785 7.68293C33.7362 7.6114 33.6938 7.53985 33.6502 7.46615C33.5601 7.28905 33.5601 7.28905 33.5601 7.08759ZM33.8622 17.9668C33.8524 18.0325 33.8425 18.0982 33.8323 18.1659C33.7065 18.9017 33.5173 19.4005 32.9053 19.8618C32.3916 20.2225 31.8533 20.2282 31.2432 20.1829C30.8844 20.0821 30.8844 20.0821 30.6388 19.9815C30.4027 20.2507 30.4027 20.2507 30.3366 20.5858C31.0997 20.984 31.7813 20.9963 32.6031 20.7432C33.4201 20.4153 34.1541 19.8006 34.5064 18.9804C34.6139 18.6142 34.6505 18.2463 34.6681 17.866C34.3615 17.8578 34.1572 17.8684 33.8622 17.9668ZM31.9484 18.5712C31.8486 18.621 31.8486 18.621 31.7468 18.672C31.7468 18.8049 31.7468 18.9379 31.7468 19.0749C31.8799 19.1081 32.0128 19.1413 32.1498 19.1755C32.2162 19.0426 32.2828 18.9096 32.3513 18.7726C32.1616 18.661 32.1616 18.661 31.9484 18.5712Z" fill="white"/>
<path d="M16.4355 7.18835C16.2913 7.57301 16.1142 7.92207 15.9121 8.27951C15.8487 8.39246 15.7853 8.5054 15.7199 8.62177C15.67 8.71026 15.67 8.71026 15.619 8.80055C13.974 11.3924 13.974 11.3924 13.7283 14.3152C13.8249 14.6593 13.9342 14.9979 14.0498 15.336C14.084 15.4362 14.084 15.4362 14.1188 15.5383C14.1848 15.729 14.253 15.9189 14.3214 16.1088C14.418 16.446 14.4406 16.7118 14.4209 17.0603C14.5038 17.0285 14.5869 16.9968 14.6723 16.9642C15.0621 16.8478 15.4337 16.8052 15.8375 16.7832C15.949 16.7767 15.949 16.7767 16.0626 16.77C16.7443 16.74 17.3787 16.8188 18.0473 16.9595C18.0449 16.8632 18.0426 16.767 18.0402 16.6679C18.0114 14.6047 18.0114 14.6047 18.4816 13.9564C19.1521 13.2744 20.1349 12.9619 21.0693 12.9301C21.0231 13.0081 20.9769 13.086 20.9292 13.1662C20.7388 13.4894 20.5509 13.8138 20.3641 14.1389C20.3237 14.2082 20.2834 14.2777 20.2418 14.349C19.7451 15.2624 19.2926 16.6156 19.4576 17.6646C19.6044 18.0536 19.7942 18.4169 19.9864 18.7853C21.0037 20.818 21.4203 22.8889 20.784 25.1051C20.6716 25.4067 20.5458 25.6595 20.3641 25.9247C20.3309 25.9247 20.2976 25.9247 20.2634 25.9247C20.2537 25.8359 20.2537 25.8359 20.2437 25.7453C20.0874 24.3696 19.9129 23.0357 19.2561 21.7947C19.1683 21.7982 19.0805 21.8017 18.9901 21.8053C17.6359 21.836 16.4661 21.633 15.4282 20.7086C14.8785 20.1306 14.4209 19.3816 14.4209 18.5712C14.3544 18.5712 14.2879 18.5712 14.2194 18.5712C14.1878 18.7265 14.1563 18.8818 14.125 19.0372C14.1074 19.1236 14.0899 19.21 14.0718 19.2992C13.8528 20.434 13.6779 21.6566 14.2615 22.7032C14.8447 23.4334 15.7163 23.6431 16.6106 23.7562C16.9218 23.7803 17.2318 23.7991 17.5436 23.8093C17.3051 24.371 16.85 24.5791 16.3089 24.8152C15.3515 25.15 14.2649 25.1848 13.3376 24.7478C12.5888 24.309 12.0443 23.751 11.8018 22.9027C11.6649 21.8182 11.8704 20.7949 12.1067 19.7391C12.5254 17.8322 12.4067 16.1992 11.5833 14.432C11.2243 13.6075 11.3 12.5147 11.5901 11.6808C12.288 10.0349 13.1593 9.19279 14.6554 8.28501C15.1393 7.99051 15.5898 7.66712 16.0393 7.32214C16.2341 7.18835 16.2341 7.18835 16.4355 7.18835ZM15.3275 17.8661C15.3865 18.8101 15.6315 19.4645 16.3282 20.122C17.1206 20.7376 17.9632 20.9791 18.9539 20.8881C19.2107 20.8099 19.4196 20.7108 19.659 20.5859C19.5593 20.4197 19.4595 20.2535 19.3568 20.0822C19.2633 20.1071 19.2633 20.1071 19.1679 20.1326C18.2745 20.2756 17.5966 20.2098 16.8384 19.6793C16.3293 19.2094 16.223 18.6327 16.1333 17.9669C15.8674 17.9335 15.6015 17.9003 15.3275 17.8661ZM17.8458 18.5712C17.7461 18.7208 17.7461 18.7208 17.6444 18.8735C17.744 19.023 17.744 19.023 17.8458 19.1756C17.9788 19.1424 18.1117 19.1092 18.2487 19.0749C18.2155 18.9086 18.1823 18.7425 18.148 18.5712C18.0483 18.5712 17.9486 18.5712 17.8458 18.5712Z" fill="white"/>
<path d="M9.08186 30.8607C9.29734 31.0762 9.35832 31.2513 9.45439 31.5351C10.0498 33.2875 10.9589 34.9489 12.1039 36.4011C12.1781 36.4964 12.2524 36.5917 12.3289 36.6899C13.0401 37.58 13.8125 38.4205 14.6222 39.2215C14.5077 37.8894 14.3014 36.5994 14.0178 35.2929C14.0843 35.2929 14.1508 35.2929 14.2193 35.2929C14.4054 35.5414 14.5809 35.7913 14.7544 36.0485C15.2394 36.7543 15.7527 37.4244 16.3066 38.0777C16.8797 38.7623 17.0961 39.3948 17.2728 40.2603C17.8333 42.8398 18.9528 44.9992 20.5654 47.0787C20.0762 47.0167 19.6909 46.8107 19.2622 46.5813C19.1869 46.5413 19.1117 46.5012 19.0342 46.4598C18.2896 46.0535 17.6119 45.5786 16.9391 45.0641C16.8503 44.9968 16.7616 44.9296 16.6703 44.8603C15.9869 44.3278 15.3536 43.7431 14.723 43.1501C14.6588 43.0914 14.5946 43.0327 14.5285 42.9723C13.9714 42.4446 13.5123 41.8285 13.0495 41.2188C12.9605 41.1016 12.871 40.9848 12.7809 40.8683C10.7207 38.1969 8.87987 34.3244 9.08186 30.8607Z" fill="white"/>
<path d="M40.8126 30.8607C40.846 30.8607 40.8792 30.8607 40.9134 30.8607C40.8282 35.7602 38.1758 40.3046 34.7565 43.6633C33.3593 45.0057 31.5676 46.4063 29.732 47.0787C29.6655 47.0455 29.599 47.0123 29.5305 46.978C29.6012 46.8853 29.6718 46.7926 29.7447 46.6971C31.3402 44.5789 32.4895 42.2423 32.8611 39.593C33.0184 38.8083 33.4924 38.3153 34.0057 37.7298C34.4425 37.23 34.8126 36.6885 35.1845 36.1398C35.2315 36.0715 35.2784 36.0032 35.3267 35.9327C35.3877 35.8421 35.3877 35.8421 35.45 35.7497C35.5745 35.5951 35.5745 35.5951 35.8768 35.3937C35.8155 35.9252 35.7317 36.4429 35.6249 36.9677C35.4771 37.7182 35.4077 38.4566 35.3731 39.2215C36.0985 38.5204 36.7725 37.8068 37.3877 37.0054C37.4412 36.9363 37.4946 36.8672 37.5496 36.7959C38.9652 34.9534 40.0119 33.0421 40.8126 30.8607Z" fill="white"/>
<path d="M25.1803 5.13392C25.3118 5.21083 25.4426 5.28898 25.5728 5.36816C26.0414 5.58645 26.5736 5.53091 27.0816 5.5323C28.7422 5.56986 30.1887 5.78103 31.4823 6.94256C32.2626 7.79715 32.6519 8.86887 32.7541 10.0086C32.4258 9.86124 32.1783 9.67402 31.9042 9.44201C30.1871 8.05219 28.5002 7.28196 26.2976 7.46179C26.2136 7.46809 26.1296 7.47438 26.0432 7.48086C25.9303 7.4907 25.9303 7.4907 25.8151 7.50072C25.565 7.48849 25.4197 7.40208 25.1991 7.28883C24.8994 7.31881 24.6629 7.35544 24.3933 7.49031C24.2062 7.4877 24.2062 7.4877 23.9789 7.46748C21.5866 7.28129 19.748 8.07435 17.9172 9.59583C17.8541 9.65102 17.791 9.7062 17.7259 9.76314C17.4427 10.0086 17.4427 10.0086 17.2412 10.0086C17.4844 8.6363 17.8556 7.50605 18.9536 6.5837C20.3259 5.69671 21.5873 5.54405 23.1984 5.53702C23.9492 5.52824 23.9492 5.52824 24.629 5.24505C24.9483 5.05617 24.9483 5.05617 25.1803 5.13392Z" fill="white"/>
<path d="M43.6332 24.4138C45.1849 26.7413 44.8934 30.5186 44.4121 33.118C43.8512 35.9114 42.431 38.2392 40.4097 40.2289C40.3433 40.1956 40.2767 40.1623 40.2083 40.1281C40.2605 40.0075 40.3129 39.8868 40.3668 39.7626C41.6286 36.8298 42.2399 33.8678 42.4243 30.6844C42.4888 29.5799 42.573 28.5141 42.8274 27.4358C42.8617 27.2897 42.8617 27.2897 42.8968 27.1408C43.3744 25.1407 43.3744 25.1407 43.6332 24.4138Z" fill="white"/>
<path d="M6.26116 24.4138C6.32764 24.447 6.39412 24.4802 6.46262 24.5144C6.54703 24.7889 6.54703 24.7889 6.62946 25.1535C6.64435 25.2182 6.65924 25.283 6.67458 25.3497C6.72224 25.558 6.76872 25.7666 6.81519 25.975C6.84646 26.1125 6.8778 26.25 6.90923 26.3874C6.99648 26.7702 7.08236 27.1532 7.16775 27.5364C7.18514 27.6075 7.20253 27.6786 7.22045 27.7519C7.34998 28.2946 7.4112 28.8191 7.44083 29.3756C7.45177 29.5536 7.46276 29.7315 7.47382 29.9094C7.4793 30.0011 7.48479 30.0927 7.49043 30.1872C7.58948 31.8082 7.71005 33.4042 8.07436 34.9907C8.10528 35.1291 8.10528 35.1291 8.13682 35.2703C8.52748 36.9835 9.13464 38.6006 9.78684 40.2289C8.04245 39.4488 6.7606 36.8158 6.11005 35.1186C4.87904 31.7263 4.93093 27.7683 6.26116 24.4138Z" fill="white"/>
<path d="M24.796 8.3955C24.4654 9.21425 23.8955 9.79215 23.285 10.4101C23.211 10.4867 23.137 10.5631 23.0608 10.6419C22.2095 11.4629 21.1241 11.8688 20.0364 12.28C18.6668 12.7865 18.6668 12.7865 17.6759 13.8162C17.3557 14.5915 17.2066 15.4333 17.0396 16.2527C16.383 16.1788 16.0654 15.9264 15.6293 15.4468C15.2381 14.9082 15.1362 14.3897 15.2264 13.7344C15.4855 12.3256 17.0566 11.3694 18.1476 10.6116C20.1246 9.2839 22.3616 8.30003 24.796 8.3955Z" fill="white"/>
<path d="M25.2998 8.39716C28.1024 8.4726 30.4732 9.46997 32.6533 11.2177C32.7521 11.2949 32.851 11.3719 32.9528 11.4514C33.7997 12.124 34.6152 12.8214 34.8037 13.9446C34.8307 14.5432 34.6791 15.0731 34.3143 15.5445C33.9344 15.9509 33.58 16.1734 33.0562 16.3551C32.9284 15.9241 32.8199 15.4955 32.7246 15.0557C32.4856 13.9926 32.1359 13.3875 31.2096 12.7825C30.7242 12.5034 30.2047 12.3144 29.6817 12.118C27.961 11.4658 26.5168 10.5926 25.5013 9.00156C25.4279 8.80224 25.3592 8.60103 25.2998 8.39716Z" fill="white"/>
<path d="M19.8604 43.0494C20.2917 43.1097 20.5974 43.2634 20.9748 43.4775C21.7508 43.9061 22.5508 44.2816 23.3546 44.6548C23.4177 44.6842 23.4807 44.7137 23.5458 44.744C23.7278 44.829 23.9101 44.9132 24.0923 44.9975C24.1988 45.0467 24.3052 45.0959 24.4149 45.1466C24.5075 45.1858 24.6001 45.225 24.6956 45.2655C24.7593 45.2941 24.8229 45.3229 24.8885 45.3524C25.2412 45.3755 25.5284 45.1999 25.8375 45.0482C25.9096 45.014 25.9817 44.9797 26.056 44.9445C26.2872 44.8343 26.5176 44.7226 26.748 44.6107C26.8992 44.5385 27.0505 44.4664 27.2017 44.3943C27.784 44.1161 28.3658 43.838 28.9383 43.5401C29.0029 43.5066 29.0677 43.4732 29.1343 43.4388C29.3094 43.348 29.4838 43.2559 29.6581 43.1637C29.9338 43.0494 29.9338 43.0494 30.2359 43.1501C28.4322 45.3011 28.4322 45.3011 27.8183 45.8132C26.5427 46.8994 25.62 48.4225 25.0986 50C25.032 50 24.9656 50 24.897 50C24.8688 49.9194 24.8407 49.839 24.8117 49.7559C24.3329 48.4442 23.7095 47.4397 22.7399 46.4387C22.4456 46.1332 22.1577 45.8216 21.8688 45.511C21.7495 45.383 21.63 45.2549 21.5107 45.1269C21.4533 45.0655 21.396 45.0039 21.3369 44.9404C21.1807 44.7733 21.0239 44.6071 20.8669 44.4407C20.7779 44.3452 20.6888 44.2495 20.597 44.1511C20.5197 44.0689 20.4424 43.9867 20.3629 43.902C20.146 43.6331 20.0036 43.3627 19.8604 43.0494Z" fill="white"/>
<path d="M31.9105 5.21012C32.312 5.59735 32.6315 6.07159 32.8549 6.58261C32.8216 6.6491 32.7883 6.71559 32.7541 6.78408C32.6203 6.70733 32.6203 6.70733 32.4838 6.62904C30.7362 5.64887 28.8597 5.04878 26.8612 4.88274C26.1448 4.82276 25.6401 4.66869 25.0984 4.16502C24.6798 4.36612 24.6798 4.36612 24.2929 4.61989C23.8299 4.8487 23.3541 4.86408 22.8445 4.91422C20.9798 5.12444 19.2791 5.62366 17.6515 6.57238C17.4427 6.68335 17.4427 6.68335 17.2412 6.68335C17.2757 6.13096 17.5991 5.77649 17.9464 5.37382C17.9965 5.31434 18.0465 5.25487 18.0982 5.1936C21.2111 2.02284 28.6615 2.60475 31.9105 5.21012Z" fill="white"/>
<path d="M25.2998 10.3107C26.2991 10.8474 27.0117 11.9073 27.7033 12.7743C27.9186 13.0381 27.9186 13.0381 28.1801 13.289C28.3913 13.5026 28.5453 13.6943 28.6996 13.9497C28.7405 14.0165 28.7816 14.0832 28.8239 14.1519C29.0461 14.5605 29.0706 14.8888 29.0269 15.3473C28.8352 15.8417 28.6688 16.2577 28.2211 16.5561C28.1795 16.4646 28.1379 16.373 28.0951 16.2788C27.0262 13.6934 27.0262 13.6934 25.0984 11.8217C24.5095 11.9198 24.07 12.4176 23.7295 12.8811C23.6888 12.9386 23.6481 12.9963 23.6062 13.0557C23.5629 13.1168 23.5196 13.1778 23.4749 13.2408C22.9954 13.9363 22.631 14.6826 22.2778 15.4481C22.2244 15.563 22.1711 15.6779 22.1161 15.7963C22.0004 16.0488 21.8862 16.302 21.7741 16.5561C21.3178 16.2478 21.1344 15.9728 20.9682 15.4481C20.8746 14.7339 21.0694 14.2278 21.4719 13.6349C21.7098 13.3727 21.959 13.1295 22.216 12.8861C22.5621 12.5462 22.8575 12.1748 23.1608 11.7969C23.3918 11.5123 23.6284 11.2343 23.8707 10.9592C23.942 10.878 24.0132 10.7968 24.0867 10.7133C24.4594 10.349 24.78 10.2307 25.2998 10.3107Z" fill="white"/>
<path d="M25.2995 13.4337C26.2092 14.3131 26.8815 15.369 27.5157 16.4557C27.5618 16.5304 27.608 16.6051 27.6554 16.682C27.9513 17.1981 28.0134 17.6809 27.9186 18.2689C27.661 19.0022 27.661 19.0022 27.3143 19.1755C27.2702 19.0638 27.2702 19.0638 27.2254 18.9498C26.4731 17.0396 26.4731 17.0396 25.5475 15.2091C25.3156 14.7926 25.2882 14.4895 25.2933 14.0193C25.2942 13.9098 25.2951 13.8003 25.296 13.6876C25.2972 13.6038 25.2984 13.5201 25.2995 13.4337Z" fill="white"/>
<path d="M24.494 13.4337C24.5605 13.4337 24.6269 13.4337 24.6954 13.4337C24.701 13.5722 24.7048 13.7108 24.708 13.8493C24.7104 13.9264 24.7128 14.0035 24.7151 14.0831C24.6616 14.7827 24.2769 15.403 23.9714 16.0214C23.4695 17.0509 23.0511 18.0923 22.6808 19.1755C22.2499 18.7578 22.0706 18.4512 22.0386 17.8471C22.0768 16.6846 22.8461 15.759 23.4867 14.844C23.5809 14.7072 23.6751 14.5704 23.7692 14.4336C23.8596 14.3038 23.9501 14.174 24.0407 14.0445C24.1043 13.9524 24.1043 13.9524 24.1693 13.8584C24.2724 13.713 24.3826 13.5729 24.494 13.4337Z" fill="white"/>
</g>
</g>
<defs>
<filter id="filter0_d_1_2736" x="0" y="-3" width="49.9473" height="56" filterUnits="userSpaceOnUse" color-interpolation-filters="sRGB">
<feFlood flood-opacity="0" result="BackgroundImageFix"/>
<feColorMatrix in="SourceAlpha" type="matrix" values="0 0 0 0 0 0 0 0 0 0 0 0 0 0 0 0 0 0 127 0" result="hardAlpha"/>
<feOffset/>
<feGaussianBlur stdDeviation="1.5"/>
<feComposite in2="hardAlpha" operator="out"/>
<feColorMatrix type="matrix" values="0 0 0 0 0.5 0 0 0 0 0.5 0 0 0 0 0.5 0 0 0 1 0"/>
<feBlend mode="normal" in2="BackgroundImageFix" result="effect1_dropShadow_1_2736"/>
<feBlend mode="normal" in="SourceGraphic" in2="effect1_dropShadow_1_2736" result="shape"/>
</filter>
<clipPath id="clip0_1_2736">
<rect width="50" height="50" fill="white"/>
</clipPath>
</defs>
</svg>
