<svg width="50" height="50" viewBox="0 0 50 50" fill="none" xmlns="http://www.w3.org/2000/svg">
<path d="M26.4647 1.27107C26.7027 1.48469 26.7027 1.48469 26.8553 1.75935C26.8235 2.27666 26.6139 2.67877 26.3853 3.13264C25.3569 5.2413 25.1519 7.52035 25.8787 9.76716C25.8986 9.83045 25.9185 9.89374 25.939 9.95895C26.4786 11.6351 27.3646 13.1351 28.3829 14.5608C28.6009 14.868 28.8122 15.1795 29.022 15.4923C29.0823 15.5816 29.0823 15.5816 29.1439 15.6727C29.344 15.9735 29.5309 16.2764 29.7026 16.5943C29.7362 16.6562 29.7698 16.7182 29.8044 16.782C29.8948 16.9516 29.9825 17.1227 30.0699 17.2939C30.3318 17.6618 30.5492 17.7808 30.9569 17.9703C31.2325 17.9757 31.2325 17.9757 31.4451 17.775C32.1707 16.6363 32.112 15.2551 31.8484 13.9904C31.6494 13.1829 31.3285 12.3659 30.9569 11.6226C30.937 11.4216 30.937 11.4216 30.9324 11.1893C30.9299 11.1129 30.9274 11.0365 30.9248 10.9577C30.9569 10.7437 30.9569 10.7437 31.0683 10.5694C31.3384 10.3929 31.5184 10.4133 31.8358 10.4508C33.8979 11.3306 35.2561 13.687 36.0655 15.6876C37.1892 18.6508 37.3659 22.0049 36.1029 24.9531C35.605 25.9799 34.9489 27.071 34.0819 27.8336C34.0174 27.8336 33.953 27.8336 33.8866 27.8336C33.881 28.1625 33.881 28.1625 33.9842 28.5172C34.3806 28.8326 34.7048 28.9754 35.2251 28.9452C36.5682 28.7209 37.8382 27.9799 38.6694 26.899C39.284 25.981 39.6507 25.0135 39.6689 23.906C39.6716 23.7908 39.6744 23.6756 39.6773 23.5569C39.6823 23.3156 39.6867 23.0742 39.6902 22.8329C39.6948 22.6601 39.6948 22.6601 39.6994 22.4838C39.7013 22.379 39.7033 22.2742 39.7053 22.1663C39.7512 21.8392 39.8429 21.6521 40.0389 21.3883C40.3409 21.2577 40.4922 21.2807 40.8079 21.3699C42.2279 22.3639 42.7243 24.7756 43.0109 26.3944C43.1655 27.3586 43.2325 28.3231 43.2616 29.2984C43.2656 29.3995 43.2696 29.5006 43.2738 29.6047C43.3493 33.1433 42.5308 36.3188 40.8547 39.403C40.7525 39.594 40.6563 39.7881 40.5627 39.9834C40.4126 40.2681 40.2354 40.4917 40.0267 40.7364C39.7131 41.1101 39.4161 41.4891 39.1295 41.8839C38.4295 42.8249 37.6307 43.6962 36.7186 44.4351C36.609 44.5264 36.4994 44.6177 36.3898 44.709C32.8146 47.6585 27.9776 49.2121 23.3431 48.7846C20.3121 48.4586 17.0361 47.4499 14.6483 45.5093C14.5508 45.4316 14.4534 45.3538 14.353 45.2736C13.0258 44.1943 11.8506 42.9822 10.8397 41.6031C10.7922 41.5394 10.7448 41.4758 10.696 41.4102C7.24099 36.7569 6.16752 31.223 6.97 25.523C7.42167 22.6542 8.62029 19.9055 10.3514 17.5797C10.395 17.5209 10.4385 17.4621 10.4834 17.4016C11.0214 16.688 11.6102 15.9344 12.5303 15.7608C12.7928 15.8218 12.7928 15.8218 13.0308 15.9622C13.2611 16.3399 13.1632 16.6679 13.0858 17.0914C13.0318 17.2838 12.9688 17.4709 12.9034 17.6597C12.2279 19.6578 12.4444 21.8693 13.3421 23.7503C14.0496 25.1327 15.1721 26.4187 16.6807 26.918C17.5 27.1256 18.1676 27.1163 18.9451 26.7594C19.765 26.2233 20.103 25.3405 20.3123 24.4156C20.6606 22.3286 20.0605 20.43 19.4518 18.4582C18.9354 16.778 18.5959 15.1881 18.6156 13.4232C18.616 13.3579 18.6165 13.2926 18.6169 13.2254C18.6252 12.2073 18.683 11.2422 18.9451 10.2554C18.9645 10.1789 18.9839 10.1024 19.0039 10.0236C19.4449 8.31591 20.1352 6.88587 21.1912 5.47029C21.303 5.31488 21.303 5.31488 21.4171 5.15634C21.9665 4.41092 22.591 3.74749 23.242 3.08992C23.3219 3.00865 23.4018 2.92738 23.4842 2.84365C25.414 0.928444 25.414 0.928444 26.4647 1.27107Z" fill="#FE6A00"/>
</svg>
