<svg width="50" height="50" viewBox="0 0 50 50" fill="none" xmlns="http://www.w3.org/2000/svg">
<path d="M2.28761 1.11454C2.71207 1.23329 3.12671 1.37288 3.54206 1.52017C3.72143 1.58342 3.72143 1.58342 3.90443 1.64795C8.17774 3.1885 11.9595 5.28975 15.2902 8.37834C15.4005 8.48048 15.4005 8.48048 15.513 8.58476C15.9479 8.99512 16.3362 9.42143 16.71 9.8881C17.4306 9.74929 18.1457 9.59524 18.8597 9.42512C23.2606 8.38453 27.6692 8.53262 32.0407 9.63738C32.1331 9.66 32.2255 9.68262 32.3207 9.70584C32.5412 9.75976 32.7612 9.81584 32.9811 9.87215C33.3005 9.92203 33.3005 9.92203 33.5206 9.71917C33.6137 9.59453 33.6137 9.59453 33.7088 9.4675C33.7794 9.37846 33.8501 9.28929 33.9229 9.1975C33.9936 9.1081 34.0642 9.01869 34.137 8.92667C37.4151 5.40268 41.8359 3.25516 46.2759 1.59529C46.3699 1.55967 46.4641 1.52405 46.5611 1.48736C46.8057 1.39571 47.0512 1.307 47.2974 1.2197C47.43 1.17229 47.5626 1.12488 47.6993 1.07604C48.1659 0.975559 48.4635 0.967821 48.9199 1.11454C49.3559 1.79239 49.415 2.61236 49.5284 3.39807C49.5487 3.53672 49.5689 3.67536 49.5899 3.8182C50.458 9.91369 50.0353 16.0075 47.4769 21.693C47.1007 22.5752 47.3378 23.3147 47.5697 24.1964C48.7447 28.6947 48.1881 33.4556 45.9153 37.531C42.7656 42.7955 37.7512 46.387 31.8535 47.9872C25.0368 49.6856 17.7295 48.8745 11.6621 45.2309C10.7325 44.6513 9.84667 44.0174 9.0181 43.2999C8.92417 43.2192 8.83024 43.1385 8.73358 43.0554C8.42251 42.7816 8.11846 42.5017 7.8162 42.2182C7.7556 42.1617 7.695 42.1051 7.6325 42.0469C4.06904 38.6972 1.97147 34.0551 1.81156 29.1673C1.78084 27.3656 2.05485 25.651 2.51343 23.9138C2.74057 23.0054 2.87234 22.3351 2.4679 21.4561C2.3995 21.2985 2.33178 21.1405 2.26461 20.9824C2.2288 20.8987 2.19299 20.815 2.1561 20.7288C-0.250724 14.8862 -0.439724 8.75655 0.597491 2.60185C0.614967 2.4936 0.632431 2.38535 0.650431 2.27382C0.729562 1.84601 0.811847 1.52961 1.04115 1.15679C1.47228 0.911036 1.82804 1.00001 2.28761 1.11454Z" fill="#FEC9E1"/>
<path d="M31.1328 29.7174C32.4246 30.7499 33.6236 31.9913 33.8971 33.6836C34.0189 35.3699 33.8038 36.6657 32.6783 38.0004C32.5677 38.1243 32.5677 38.1243 32.4548 38.2506C32.386 38.3319 32.3172 38.4133 32.2464 38.4971C31.5591 39.2535 30.7111 39.718 29.8107 40.1736C29.6928 40.2335 29.5749 40.2932 29.4534 40.3548C27.0446 41.4614 23.7624 41.5572 21.2774 40.6543C20.0635 40.1882 18.9911 39.6231 18.0324 38.7313C17.9553 38.6637 17.8781 38.596 17.7986 38.5262C16.8411 37.6412 16.173 36.4589 16.0756 35.1535C16.0167 33.4357 16.4417 32.1883 17.5602 30.8652C20.9078 27.3317 27.181 27.0151 31.1328 29.7174Z" fill="#FE97CA"/>
<path d="M46.1426 5.9227C46.8623 7.20426 46.677 9.13022 46.6886 10.5612C46.6901 10.649 46.6916 10.7369 46.693 10.8275C46.721 12.8125 46.2491 14.5536 45.5694 16.4127C45.4957 16.6215 45.4957 16.6215 45.4206 16.8345C44.7483 18.6995 44.7483 18.6995 44.2323 19.5C43.8042 19.6878 43.8042 19.6878 43.391 19.6202C43.128 19.4246 42.986 19.2745 42.7901 19.0193C40.9451 16.685 38.9726 14.923 36.4352 13.3705C36.0596 13.1301 36.0596 13.1301 35.9394 12.8897C35.8971 12.4719 35.8986 12.2387 36.1127 11.8724C36.4104 11.5253 36.71 11.1815 37.0212 10.8466C37.0875 10.775 37.1538 10.7033 37.2221 10.6296C38.7662 8.98343 43.6874 4.58625 46.1426 5.9227Z" fill="#FF97CB"/>
<path d="M4.93145 5.80115C5.3382 5.9121 5.72647 6.05926 6.11828 6.21429C6.22873 6.25735 6.33917 6.30043 6.45296 6.34481C9.23432 7.45643 12.5896 9.45202 14.0656 12.1711C14.1407 12.5617 14.1407 12.5617 14.0656 12.8921C13.6804 13.3539 13.2012 13.6199 12.691 13.9212C11.8172 14.453 11.0437 15.0462 10.2848 15.7301C10.0997 15.8965 9.91229 16.0602 9.72432 16.2236C8.7342 17.095 7.83837 18.0433 7.13235 19.1644C6.85442 19.5024 6.85443 19.5024 6.42626 19.6451C6.01313 19.6226 6.01313 19.6226 5.76445 19.4187C5.522 19.1294 5.39238 18.8841 5.2521 18.5348C5.20367 18.4149 5.15525 18.2949 5.10535 18.1713C5.0554 18.043 5.00545 17.9145 4.95398 17.7823C4.90178 17.6499 4.84958 17.5175 4.79579 17.3812C4.08871 15.555 3.3562 13.6577 3.34461 11.6805C3.34392 11.5876 3.34325 11.4948 3.34253 11.399C3.3414 11.2026 3.34061 11.0062 3.34015 10.8096C3.339 10.5164 3.33527 10.2232 3.33147 9.93C3.32483 8.95988 3.3667 8.01952 3.52865 7.06166C3.54267 6.97619 3.5567 6.89066 3.57116 6.80256C3.63447 6.46819 3.69763 6.20566 3.89935 5.9282C4.24258 5.69963 4.5295 5.76 4.93145 5.80115Z" fill="#FF97CB"/>
<path d="M20.0754 40.0532C20.17 40.0969 20.17 40.0969 20.2665 40.1414C23.0829 41.3599 26.4066 41.4164 29.2772 40.3311C29.4958 40.2404 29.714 40.1486 29.9307 40.0532C29.8079 41.0672 29.5121 41.8625 28.7279 42.5475C28.0628 43.0231 27.3397 43.2911 26.5654 43.5386C26.4465 43.5782 26.3275 43.618 26.205 43.6588C24.4618 43.8142 22.8287 43.6673 21.3975 42.5772C20.747 42.0174 20.2071 41.3426 20.0979 40.4738C20.0906 40.335 20.0831 40.1962 20.0754 40.0532Z" fill="#FFB2DC"/>
<path d="M34.3771 22.9905C34.8295 23.2389 35.2246 23.4838 35.4587 23.952C35.5071 24.46 35.5156 24.7743 35.3235 25.2441C34.9303 25.7158 34.5715 25.9598 33.9639 26.0703C33.396 25.9707 33.0674 25.7072 32.6944 25.2741C32.5448 24.8254 32.495 24.4173 32.5742 23.952C32.9805 23.2093 33.5449 22.8907 34.3771 22.9905Z" fill="#460528"/>
<path d="M16.3502 22.9905C16.8026 23.2389 17.1977 23.4838 17.4319 23.952C17.4802 24.46 17.4888 24.7743 17.2966 25.2441C16.9035 25.7158 16.5447 25.9598 15.937 26.0703C15.3691 25.9707 15.0405 25.7072 14.6676 25.2741C14.518 24.8254 14.4682 24.4173 14.5473 23.952C14.9536 23.2093 15.518 22.8907 16.3502 22.9905Z" fill="#460528"/>
<path d="M28.71 33.2699C29.0909 33.3528 29.3063 33.5267 29.57 33.8071C29.7626 34.1921 29.7496 34.591 29.6903 35.0089C29.4349 35.4227 29.3118 35.5758 28.849 35.7301C28.3442 35.7767 28.0923 35.7852 27.6622 35.5047C27.315 35.1576 27.2916 35.059 27.2415 34.5582C27.2491 34.1821 27.3041 33.9376 27.5194 33.6267C27.9522 33.2735 28.1671 33.2337 28.71 33.2699Z" fill="#DD3D95"/>
<path d="M21.7393 33.2699C22.1202 33.3528 22.3356 33.5267 22.5994 33.8071C22.7919 34.1921 22.7788 34.591 22.7196 35.0089C22.4643 35.4227 22.3412 35.5758 21.8783 35.7301C21.3735 35.7767 21.1216 35.7852 20.6915 35.5047C20.3443 35.1576 20.3209 35.059 20.2708 34.5582C20.2784 34.1821 20.3334 33.9376 20.5487 33.6267C20.9815 33.2735 21.1963 33.2337 21.7393 33.2699Z" fill="#DD3D95"/>
</svg>
