<svg width="24" height="24" viewBox="0 0 24 24" fill="none" xmlns="http://www.w3.org/2000/svg">
<path d="M22.9082 5.75521C22.7603 5.55518 22.4848 5.48518 22.2654 5.6052C19.5467 7.11362 15.9402 5.32266 12.829 4.46192V4.34733C12.829 3.88712 13.0361 3.46126 13.3621 3.13009C13.7059 2.78081 13.9109 2.29949 13.8883 1.77096C13.8471 0.808337 13.0129 0.0138684 12.0302 0.000191743C10.9718 -0.0145361 10.105 0.821074 10.105 1.85005C10.105 2.35503 10.3148 2.80975 10.6519 3.14308C10.9773 3.46487 11.1711 3.89188 11.1711 4.34498V4.46189C8.05604 5.32352 4.45285 7.11344 1.73447 5.6052C1.52818 5.48962 1.24512 5.54158 1.09172 5.75521C0.918277 5.99519 0.999899 6.33022 1.26006 6.47523C2.17826 6.97525 3.16279 7.17024 4.16769 7.17024C4.27211 7.17024 4.3776 7.16148 4.48254 7.15751L2.04573 13.0683C1.7121 13.0683 1.47482 13.3821 1.56463 13.697C1.92302 14.9536 3.33272 15.8917 5.01427 15.8917C6.70012 15.8917 8.1104 14.9537 8.46888 13.697C8.55873 13.3821 8.32165 13.0683 7.98801 13.0683L5.51358 7.06715C7.45613 6.78639 9.37516 6.01462 11.1711 5.48882V18.1146C11.1711 20.3348 9.33495 22.1345 7.06997 22.1345C6.32226 22.1345 5.71967 22.7248 5.71967 23.4527V24H18.2798V23.4527C18.2799 22.7248 17.6777 22.1345 16.93 22.1345C14.665 22.1345 12.829 20.3348 12.829 18.1146V5.48888C14.6181 6.01284 16.544 6.78633 18.4859 7.06708L16.0119 13.0684C15.6783 13.0684 15.4407 13.3821 15.5305 13.6971C15.8889 14.9537 17.2992 15.8918 18.9851 15.8918C20.6666 15.8918 22.0763 14.9537 22.4347 13.6971C22.5245 13.3821 22.2875 13.0684 21.9538 13.0684L19.517 7.15754C19.6221 7.16158 19.7277 7.17027 19.8323 7.17027C20.8371 7.17027 21.8217 6.97528 22.7348 6.47526C22.9963 6.32761 23.0844 5.99985 22.9082 5.75521ZM6.90435 13.0664H3.12906L5.01668 8.48774L6.90435 13.0664ZM20.8706 13.0664H17.0952L18.9829 8.48774L20.8706 13.0664Z" fill="white"/>
</svg>
