<svg width="50" height="50" viewBox="0 0 50 50" fill="none" xmlns="http://www.w3.org/2000/svg">
<path d="M23.7669 4.00519C27.936 3.94037 32.3075 4.45447 35.6715 7.15294C35.7244 7.19531 35.7774 7.23768 35.832 7.28133C38.406 9.36406 39.7529 12.0268 40.6988 15.143C40.7773 15.1402 40.7773 15.1402 40.8574 15.1373C42.701 15.0801 44.2755 15.2657 45.7487 16.5009C47.177 17.8713 47.8948 19.8746 47.9851 21.8309C47.9884 22.1266 47.9913 22.4223 47.9922 22.718C47.993 22.9058 47.9958 23.0934 47.9986 23.2811C48.0113 24.8694 47.6741 26.6726 46.7137 27.9811C46.4345 28.2309 46.3209 28.2514 45.945 28.2448C45.5923 28.1486 45.5044 28.0821 45.2773 27.8015C45.1615 27.5608 45.0729 27.3131 44.9856 27.0609C44.9615 26.994 44.9374 26.9271 44.9126 26.8582C44.8538 26.6941 44.7961 26.5297 44.7387 26.3651C44.5981 26.3535 44.5981 26.3535 44.4546 26.3416C42.3963 26.1531 40.3268 25.6833 38.5614 24.5636C38.3012 24.4528 38.1834 24.4829 37.9158 24.5696C36.2096 25.3391 34.7529 26.5622 34.0071 28.3037C33.6167 29.3539 33.4817 30.3077 33.4832 31.4263C33.4832 31.5166 33.4832 31.5166 33.4833 31.6088C33.4873 32.9026 33.6365 34.1608 33.876 35.4325C33.8923 35.5193 33.9086 35.6061 33.9255 35.6955C34.3703 37.9608 35.3053 39.958 36.7408 41.7554C36.8385 41.8965 36.8385 41.8965 36.9283 42.1658C36.1003 42.2307 35.2897 41.9877 34.5942 41.5373C34.6238 41.6392 34.6534 41.741 34.6839 41.846C35.0655 43.5945 34.5826 45.3659 33.7862 46.9239C32.055 46.9836 30.3265 46.5329 29.0355 45.335C28.7081 44.9731 28.4617 44.5633 28.2202 44.1409C28.1927 44.2061 28.1653 44.2714 28.1371 44.3387C27.6565 45.3946 26.8786 46.3044 25.886 46.9239C25.8268 46.9239 25.7675 46.9239 25.7065 46.9239C25.7052 46.8587 25.7039 46.7934 25.7026 46.7262C25.6492 45.5991 25.2815 44.7344 24.4496 43.9613C24.3904 43.9317 24.3311 43.9021 24.2701 43.8715C24.2634 43.9324 24.2567 43.9933 24.2497 44.056C24.116 45.0028 23.6861 45.7938 22.9235 46.3853C22.0611 46.9239 22.0611 46.9239 21.7564 46.9239C21.7476 46.8392 21.7388 46.7545 21.7297 46.6672C21.515 44.8232 20.8264 43.561 19.512 42.2556C19.4566 42.3304 19.4012 42.4053 19.344 42.4825C18.4861 43.6289 17.526 44.4696 16.3699 45.308C16.3107 45.2783 16.2514 45.2487 16.1904 45.2182C16.1989 45.1236 16.2075 45.0291 16.2163 44.9317C16.3353 43.4605 16.2826 42.0085 15.2958 40.8226C14.6882 40.2139 13.9646 39.9935 13.138 39.8316C13.0936 39.9075 13.0491 39.9834 13.0034 40.0616C12.5553 40.7243 11.936 41.1548 11.163 41.3578C10.9115 41.3666 10.9115 41.3666 10.7141 41.3578C10.7289 41.2874 10.7437 41.2171 10.759 41.1446C10.8796 40.2701 10.7789 39.6328 10.355 38.8441C10.2357 38.6941 10.1161 38.5444 9.99591 38.3952C9.99591 38.3359 9.99591 38.2767 9.99591 38.2156C9.91641 38.2503 9.8369 38.2851 9.75499 38.3208C8.6344 38.797 7.45097 39.1603 6.22538 39.2032C6.12435 39.2067 6.02332 39.2103 5.91923 39.214C5.10555 39.2283 4.33375 39.151 3.53214 39.0236C3.53214 38.9644 3.53214 38.9051 3.53214 38.8441C3.66514 38.7349 3.80257 38.631 3.94173 38.5298C4.60917 38.0053 5.11191 37.4059 5.23645 36.5449C5.23944 36.0872 5.0742 35.7542 4.80581 35.3933C4.54149 35.2045 4.39821 35.1632 4.07078 35.1632C3.63581 35.3054 3.26098 35.5058 2.90371 35.7917C2.84446 35.7917 2.78521 35.7917 2.72416 35.7917C2.41171 33.7878 2.17877 31.7175 2.27529 29.6868C2.27898 29.6046 2.28267 29.5224 2.28647 29.4377C2.55523 24.0203 2.55523 24.0203 4.16056 22.4149C3.54591 22.454 3.09184 22.5869 2.54462 22.8638C2.44775 22.9122 2.35089 22.9606 2.25109 23.0104C2.12976 23.0712 2.12976 23.0712 2.00597 23.1332C1.91363 20.0176 2.89251 17.0518 4.96853 14.6942C5.03415 14.6177 5.09976 14.5412 5.16737 14.4624C5.88749 13.6384 6.65869 12.9712 7.57975 12.3845C7.89606 12.1975 7.89606 12.1975 8.11064 11.9111C7.04873 11.7383 6.11929 11.7465 5.05831 11.9111C4.81907 11.9425 4.57964 11.9718 4.34011 12.0009C4.81624 11.2271 5.44198 10.605 6.1356 10.0258C6.21082 9.95959 6.28604 9.89339 6.36354 9.82519C11.0591 5.76342 17.6737 4.11647 23.7669 4.00519Z" fill="#D5D7D8"/>
<path d="M22.9246 8.85934C23.3836 9.16189 23.4669 9.55087 23.5822 10.0605C23.6394 10.2827 23.7033 10.4592 23.8224 10.6549C24.0198 10.7595 24.0198 10.7595 24.2712 10.8344C24.3738 10.88 24.4763 10.9256 24.5819 10.9726C25.0578 11.1514 25.5192 11.14 26.0218 11.1318C26.1111 11.1321 26.2003 11.1324 26.2922 11.1327C27.0576 11.1271 27.6813 10.9568 28.4011 10.7167C29.3877 10.3952 30.4396 10.1213 31.4476 10.5314C31.5711 10.5991 31.6928 10.6702 31.8123 10.7447C31.874 10.7786 31.9357 10.8125 31.9992 10.8474C32.5871 11.198 33.0382 11.6856 33.5128 12.1713C33.8283 12.494 34.1553 12.7941 34.5056 13.0788C34.591 13.1487 34.6764 13.2186 34.7644 13.2907C35.7826 14.108 36.8122 14.7438 38.0965 15.0539C38.1774 15.0741 38.2583 15.0942 38.3417 15.1149C39.0633 15.2706 39.9905 15.3802 40.7 15.1437C42.5588 14.9875 44.2823 15.271 45.7498 16.5016C47.1782 17.872 47.896 19.8752 47.9862 21.8315C47.9896 22.1273 47.9925 22.4229 47.9933 22.7187C47.9942 22.9064 47.997 23.0941 47.9998 23.2818C48.0124 24.8701 47.6753 26.6733 46.7149 27.9817C46.4357 28.2316 46.3221 28.2521 45.9462 28.2455C45.5934 28.1492 45.5056 28.0828 45.2785 27.8022C45.1627 27.5615 45.0741 27.3138 44.9867 27.0615C44.9627 26.9946 44.9386 26.9278 44.9138 26.8588C44.8549 26.6948 44.7973 26.5303 44.7399 26.3658C44.5993 26.3541 44.5993 26.3541 44.4558 26.3423C41.9295 26.1109 39.608 25.4129 37.5747 23.8632C36.1009 22.7407 34.7822 22.1404 32.9424 21.8909C31.7237 21.7203 30.4818 21.4925 29.6128 20.5583C29.3039 20.0821 29.346 19.5527 29.3884 19.0041C29.4557 18.7691 29.54 18.5915 29.6577 18.3757C30.1832 18.4493 30.6787 18.5984 31.1853 18.7512C32.065 19.0058 32.9418 19.0146 33.8516 19.0301C35.7146 19.0621 37.3942 19.2356 39.1738 19.8121C39.1425 19.7201 39.1111 19.6281 39.0788 19.5333C39.0375 19.4111 38.9963 19.289 38.955 19.1668C38.924 19.0761 38.924 19.0761 38.8924 18.9836C38.7228 18.4797 38.6225 18.0429 38.624 17.5116C38.6237 17.4271 38.6235 17.3426 38.6233 17.2556C38.6352 17.029 38.6352 17.029 38.725 16.7597C38.6662 16.7628 38.6074 16.7659 38.5468 16.7691C36.6401 16.8257 34.9905 15.7851 33.6369 14.5254C33.4247 14.3325 33.205 14.1535 32.9794 13.9766C32.9706 14.0525 32.9618 14.1284 32.9527 14.2067C32.8296 15.1407 32.6617 15.7544 31.9137 16.3578C31.3327 16.7608 30.7157 16.8635 30.0168 16.7597C29.1661 16.466 28.6357 15.9289 28.2213 15.1437C28.1484 14.9249 28.1484 14.9249 28.1316 14.6948C28.1239 14.639 28.1163 14.5833 28.1084 14.5258C28.0544 13.8708 28.3091 13.3451 28.6702 12.8095C28.99 12.4916 29.3443 12.2866 29.7475 12.0913C29.2549 12.2028 28.7977 12.3518 28.329 12.5402C27.5718 12.7769 26.8174 12.8422 26.0275 12.8376C25.9371 12.8371 25.8467 12.8366 25.7535 12.836C24.5073 12.8157 23.5481 12.5173 22.6216 11.6592C22.058 11.066 21.8048 10.3166 21.8168 9.50531C21.8473 9.30823 21.8473 9.30823 22.0325 9.03329C22.3664 8.81302 22.5317 8.78918 22.9246 8.85934Z" fill="#EFC419"/>
<path d="M22.9246 8.85934C23.3836 9.16189 23.4669 9.55087 23.5822 10.0605C23.6394 10.2827 23.7033 10.4592 23.8224 10.6549C24.0198 10.7595 24.0198 10.7595 24.2712 10.8344C24.3738 10.88 24.4763 10.9256 24.5819 10.9726C25.0578 11.1514 25.5192 11.14 26.0218 11.1318C26.1111 11.1321 26.2003 11.1324 26.2922 11.1327C27.0576 11.1271 27.6813 10.9568 28.4011 10.7167C29.3877 10.3952 30.4396 10.1213 31.4476 10.5314C31.5711 10.5991 31.6928 10.6702 31.8123 10.7447C31.874 10.7786 31.9357 10.8125 31.9992 10.8474C32.5871 11.198 33.0382 11.6856 33.5128 12.1713C33.8283 12.494 34.1553 12.7941 34.5056 13.0788C34.591 13.1487 34.6764 13.2186 34.7644 13.2907C36.3993 14.603 38.0651 15.1842 40.1614 15.3233C40.016 15.4202 39.8705 15.517 39.7244 15.6129C39.3733 15.8575 39.1542 16.0458 38.9662 16.4342C38.861 16.6176 38.861 16.6176 38.725 16.7597C38.3859 16.849 38.0811 16.811 37.7374 16.7597C37.6539 16.7473 37.5703 16.7349 37.4842 16.7222C36.0146 16.4238 34.7155 15.5292 33.6369 14.5254C33.4247 14.3325 33.205 14.1535 32.9794 13.9766C32.9706 14.0525 32.9618 14.1284 32.9527 14.2067C32.8296 15.1407 32.6617 15.7544 31.9137 16.3578C31.3327 16.7608 30.7157 16.8635 30.0168 16.7597C29.1661 16.466 28.6357 15.9289 28.2213 15.1437C28.1484 14.9249 28.1484 14.9249 28.1316 14.6948C28.1239 14.639 28.1163 14.5833 28.1084 14.5258C28.0544 13.8708 28.3091 13.3451 28.6702 12.8095C28.9899 12.4916 29.3443 12.2866 29.7475 12.0913C29.2549 12.2028 28.7977 12.3518 28.329 12.5402C27.5718 12.7769 26.8174 12.8422 26.0275 12.8376C25.9371 12.8371 25.8467 12.8366 25.7535 12.836C24.5073 12.8157 23.5481 12.5173 22.6216 11.6592C22.058 11.066 21.8048 10.3166 21.8168 9.50531C21.8473 9.30823 21.8473 9.30823 22.0325 9.03329C22.3664 8.81302 22.5317 8.78918 22.9246 8.85934Z" fill="#989EA2"/>
<path d="M31.9005 12.3605C32.3579 12.7059 32.732 13.1494 32.888 13.7071C32.9791 14.4392 32.9316 15.1393 32.5289 15.772C32.0354 16.3402 31.5161 16.6915 30.7699 16.7904C30.0063 16.8333 29.4491 16.5833 28.865 16.103C28.5247 15.6849 28.1705 15.2486 28.13 14.6947C28.1223 14.6389 28.1147 14.5831 28.1068 14.5256C28.0527 13.8696 28.3088 13.3467 28.6686 12.8094C29.5453 11.8894 30.8071 11.7375 31.9005 12.3605Z" fill="#EFC41D"/>
<path d="M41.0928 22.7065C41.6113 22.8515 42.0066 23.2318 42.4047 23.5801C42.452 23.6214 42.4992 23.6626 42.5478 23.7051C42.8658 23.986 43.1748 24.2751 43.482 24.5676C43.5737 24.6522 43.5737 24.6522 43.6672 24.7384C44.0896 25.1391 44.4387 25.5947 44.7389 26.0938C44.7389 26.1531 44.7389 26.2123 44.7389 26.2734C44.409 26.2851 44.0813 26.2822 43.7514 26.2734C43.6631 26.2727 43.5748 26.272 43.4838 26.2713C42.7232 26.213 42.3623 25.8441 41.8752 25.3083C41.5175 24.9189 41.0996 24.6223 40.6734 24.3123C40.3592 24.0627 40.1808 23.8969 40.1211 23.4959C40.2055 22.9049 40.5156 22.6716 41.0928 22.7065Z" fill="#F19C1E"/>
<path d="M42.5124 16.7449C42.8547 16.8515 42.8547 16.8515 43.0847 17.0367C43.2185 17.3099 43.2737 17.5059 43.2215 17.8093C42.9978 18.2898 42.4343 18.8573 41.957 19.096C41.6005 19.1296 41.3861 19.1254 41.0648 18.9613C40.8577 18.7102 40.8033 18.5382 40.8246 18.2115C40.9357 17.8221 41.2223 17.5733 41.5081 17.3004C41.5597 17.245 41.6113 17.1896 41.6645 17.1324C41.9348 16.8627 42.1208 16.7203 42.5124 16.7449Z" fill="#F19C1E"/>
<path d="M31.6315 13.6176C31.8952 13.7523 31.8952 13.7523 32.0803 13.9767C32.1514 14.4246 32.1525 14.59 31.8952 14.9643C31.5616 15.1914 31.3991 15.2145 31.003 15.1438C30.6716 14.9111 30.5695 14.781 30.498 14.3807C30.6138 13.7327 30.9996 13.5161 31.6315 13.6176Z" fill="#394B5C"/>
<path d="M29.7003 12.75C30.068 12.8157 30.2181 12.8838 30.4634 13.1652C30.5644 13.4682 30.5644 13.4682 30.5532 13.7937C30.3793 14.1023 30.3793 14.1023 30.1043 14.3323C29.829 14.4036 29.6791 14.3788 29.3861 14.3323C29.0905 14.1428 29.0371 14.0052 28.9316 13.6702C28.9373 13.3448 28.9373 13.3448 29.1168 13.0362C29.3861 12.8061 29.3861 12.8061 29.7003 12.75Z" fill="#C6C9C5"/>
<path d="M30.1047 12.0024C29.7826 12.1699 29.4513 12.3099 29.1172 12.4513C29.1468 12.3328 29.1764 12.2143 29.207 12.0922C29.5104 11.9988 29.7885 11.9952 30.1047 12.0024Z" fill="#D2D0BB"/>
</svg>
