<svg width="50" height="50" viewBox="0 0 50 50" fill="none" xmlns="http://www.w3.org/2000/svg">
<g clip-path="url(#clip0_1_2997)">
<path d="M23.8651 0.00656437C23.9537 0.00561171 24.0422 0.00467028 24.1334 0.00369494C26.1257 -0.0132715 28.0549 0.0127794 30.014 0.419145C30.1443 0.445706 30.1443 0.445706 30.2773 0.472812C32.3451 0.9093 34.3483 1.63379 36.2442 2.56077C36.315 2.59499 36.3858 2.62919 36.4587 2.66444C39.5967 4.19635 42.6151 6.6807 44.7133 9.47238C44.7596 9.53328 44.8057 9.59419 44.8534 9.6569C47.5615 13.2422 49.3196 17.3609 49.8727 21.8354C49.8811 21.9001 49.8895 21.9646 49.8981 22.0312C49.9662 22.588 49.9871 23.1373 49.9898 23.6979C49.9905 23.7901 49.9911 23.8822 49.9919 23.9771C50.0139 27.7927 50.0139 27.7927 49.678 29.4284C49.649 29.5763 49.649 29.5763 49.6194 29.7272C48.8196 33.7265 47.1224 37.3241 44.616 40.5259C44.5747 40.579 44.5333 40.6319 44.4908 40.6865C43.3516 42.1314 42.0022 43.5128 40.5274 44.6145C40.3951 44.7176 40.263 44.8208 40.1308 44.924C38.966 45.8206 37.7393 46.56 36.4389 47.2428C36.3658 47.2812 36.2929 47.3196 36.2177 47.3591C33.7182 48.651 30.9469 49.4167 28.1645 49.7738C28.0995 49.7824 28.0345 49.7909 27.9676 49.7996C27.4111 49.8674 26.8622 49.8882 26.3019 49.891C26.2098 49.8917 26.1176 49.8924 26.0227 49.893C22.1713 49.9153 22.1713 49.9153 20.5714 49.5791C20.4749 49.5593 20.3785 49.5394 20.2791 49.519C15.5775 48.525 11.2878 46.4059 7.81899 43.0569C7.75314 42.9937 7.68729 42.9306 7.61945 42.8655C6.69762 41.9767 5.84868 41.0733 5.09328 40.0391C5.00975 39.9271 4.92623 39.8152 4.8427 39.7031C4.25495 38.9058 3.73096 38.0781 3.2437 37.2161C3.20454 37.1472 3.16539 37.0784 3.12505 37.0075C1.80124 34.6562 0.917457 32.0781 0.420645 29.4284C0.405947 29.3546 0.391249 29.2809 0.376109 29.2048C-0.148886 26.4683 -0.11526 23.2979 0.420645 20.5698C0.436319 20.4827 0.451992 20.3955 0.468131 20.3057C1.33781 15.4986 3.66425 11.1277 7.04021 7.62279C7.09696 7.56339 7.15371 7.50399 7.21219 7.44279C7.99418 6.62776 8.79826 5.88898 9.7034 5.21346C9.85436 5.09854 10.0012 4.97818 10.1478 4.85754C13.8594 1.83324 19.091 0.0494114 23.8651 0.00656437Z" fill="#990114"/>
<path d="M30.988 11.6188C31.0834 11.6624 31.0834 11.6624 31.1807 11.7067C34.7611 13.3586 37.4208 16.3486 38.8031 20.0169C40.1561 23.7104 39.8453 27.7209 38.2366 31.2764C36.6101 34.7187 33.5744 37.3786 30.0336 38.7018C28.4708 39.2559 26.8944 39.4703 25.2446 39.5574C25.1289 39.5644 25.0132 39.5715 24.894 39.5786C23.3315 39.6271 21.7488 39.2897 20.2799 38.7786C20.099 38.7157 20.099 38.7157 19.9144 38.6516C17.965 37.9197 16.3379 36.7945 14.8285 35.3715C14.758 35.3072 14.6874 35.243 14.6148 35.1768C12.1411 32.836 10.5968 29.2573 10.4784 25.874C10.4746 25.7723 10.471 25.6706 10.4672 25.5658C10.3429 21.4732 11.736 17.8244 14.5263 14.8165C18.7058 10.4243 25.4559 9.08307 30.988 11.6188Z" fill="#E0E0E3"/>
<path d="M25.0493 0.0310059C25.0493 3.4362 25.0493 6.84138 25.0493 10.3497C24.0374 10.4461 24.0374 10.4461 23.005 10.5445C19.0373 11.2447 15.5329 13.2405 13.162 16.5537C11.9143 18.3616 11.183 20.281 10.7394 22.4207C10.7222 22.4993 10.7048 22.5778 10.6871 22.6588C10.0389 26.2362 10.9932 30.0546 12.9825 33.0543C15.3535 36.4049 18.6727 38.5911 22.734 39.2992C23.5026 39.4215 24.2742 39.4832 25.0493 39.5537C25.0493 42.9589 25.0493 46.3641 25.0493 49.8724C18.5921 49.8724 12.4896 47.5674 7.81899 43.0582C7.75314 42.995 7.68729 42.9318 7.61945 42.8667C6.69762 41.9779 5.84868 41.0746 5.09328 40.0404C5.00975 39.9285 4.92623 39.8163 4.8427 39.7044C4.25495 38.9071 3.73096 38.0794 3.2437 37.2173C3.20454 37.1485 3.16539 37.0797 3.12505 37.0088C1.80124 34.6574 0.917457 32.0793 0.420645 29.4297C0.405947 29.3559 0.391249 29.2821 0.376109 29.206C-0.148886 26.4695 -0.11526 23.2991 0.420645 20.5711C0.436319 20.484 0.451992 20.3968 0.468131 20.307C1.33781 15.4999 3.66425 11.129 7.04021 7.62404C7.09696 7.56464 7.15371 7.50524 7.21219 7.44403C7.99418 6.62901 8.79826 5.89022 9.7034 5.21471C9.85436 5.09979 10.0012 4.97943 10.1478 4.85879C14.2974 1.4776 19.7956 0.0310059 25.0493 0.0310059Z" fill="#E70121"/>
<path d="M23.5003 10.4421C23.591 10.4423 23.6816 10.4426 23.7751 10.443C23.8686 10.4438 23.9619 10.4445 24.0582 10.4455C24.1534 10.4459 24.2488 10.4462 24.347 10.4467C24.5813 10.448 24.8155 10.4495 25.0498 10.4515C25.0873 11.201 25.1126 11.9502 25.1301 12.7004C25.1374 12.9549 25.1474 13.2094 25.1601 13.4637C25.2684 15.6875 25.2684 15.6875 24.7457 16.3809C24.3982 16.76 24.0048 17.0625 23.5897 17.3631C23.4444 17.4901 23.3001 17.6184 23.1581 17.7491C23.0708 17.823 23.0708 17.823 22.9817 17.8984C22.6521 18.1804 22.3407 18.4823 22.0261 18.7808C21.6054 19.1788 21.1848 19.5768 20.7582 19.9686C18.4939 22.0151 18.4938 22.0151 17.5025 24.8007C17.5008 24.9802 17.502 25.1598 17.5056 25.3395C17.5075 25.4808 17.5075 25.4808 17.5095 25.625C17.5471 26.9183 18.0238 27.8282 18.9186 28.7629C19.3295 29.1423 19.7609 29.4206 20.2799 29.6287C20.4077 29.6815 20.4077 29.6815 20.5381 29.7352C20.96 29.8494 21.348 29.8482 21.7827 29.8417C21.9026 29.8416 21.9026 29.8416 22.0247 29.8415C22.4909 29.8382 22.9353 29.8035 23.3951 29.7261C23.322 30.0547 23.322 30.0547 23.2003 30.4075C23.0075 30.5039 23.0075 30.5039 22.8109 30.6023C22.8109 31.0519 22.8109 31.5017 22.8109 31.9651C23.5498 31.9651 24.2886 31.9651 25.0498 31.9651C25.0498 34.4386 25.0498 36.9123 25.0498 39.4607C20.926 39.4607 17.5352 38.0471 14.5912 35.1715C12.169 32.7395 10.5987 29.3134 10.4784 25.8749C10.4746 25.7732 10.471 25.6714 10.4672 25.5665C10.3429 21.474 11.736 17.8252 14.5263 14.8173C16.7086 12.5237 19.4476 11.1856 22.5188 10.5489C22.5935 10.5321 22.6681 10.5153 22.7449 10.498C23.0033 10.4519 23.2381 10.4404 23.5003 10.4421Z" fill="#F0F0F0"/>
<path d="M24.9514 15.8998C25.2908 16.0443 25.5007 16.2368 25.7545 16.5021C26.0841 16.8455 26.4297 17.159 26.7889 17.4703C27.1317 17.7716 27.4617 18.0862 27.7927 18.4004C28.2454 18.8286 28.6988 19.2557 29.1587 19.6762C32.5882 22.8135 32.5882 22.8135 32.7631 25.0671C32.8132 26.4586 32.3505 27.5448 31.4638 28.6046C30.9781 29.1237 30.4789 29.4617 29.8187 29.723C29.7328 29.7588 29.6468 29.7945 29.5582 29.8314C29.1216 29.9479 28.711 29.9461 28.2612 29.9421C28.1758 29.9428 28.0906 29.9436 28.0027 29.9444C27.5308 29.9429 27.1464 29.9065 26.7036 29.723C26.7637 29.8511 26.8248 29.9788 26.8861 30.1063C26.92 30.1775 26.9539 30.2486 26.9889 30.3219C27.0803 30.5177 27.0803 30.5177 27.2877 30.5992C27.2877 31.0489 27.2877 31.4987 27.2877 31.962C25.81 31.962 24.3323 31.962 22.8098 31.962C22.8098 30.5992 22.8098 30.5992 23.1992 30.2097C23.3212 29.9535 23.3212 29.9535 23.3938 29.723C23.3 29.7544 23.2061 29.7858 23.1094 29.8181C22.1601 30.0876 20.922 30.0553 20.0206 29.6569C18.937 29.0475 18.1219 28.1468 17.6504 26.9974C17.5971 26.8702 17.5971 26.8702 17.5428 26.7407C17.2654 25.6978 17.2919 24.3247 17.787 23.3609C17.8382 23.276 17.8896 23.191 17.9425 23.1035C17.9968 23.0095 18.0511 22.9154 18.1071 22.8187C18.6061 22.0154 19.2333 21.3445 19.8894 20.6698C19.9551 20.6014 20.0206 20.533 20.0882 20.4626C20.4287 20.1144 20.7892 19.795 21.1579 19.4774C21.3989 19.2631 21.623 19.0348 21.8487 18.8047C22.0234 18.633 22.2031 18.4725 22.3889 18.313C22.8213 17.9369 23.2391 17.5469 23.6555 17.1532C23.7268 17.0861 23.7981 17.0189 23.8716 16.9497C24.2372 16.605 24.5986 16.2575 24.9514 15.8998Z" fill="#17171A"/>
<path d="M24.9514 15.8998C25.0478 15.948 25.0478 15.948 25.1462 15.9972C25.1139 21.2655 25.0819 26.534 25.0487 31.962C24.3099 31.962 23.571 31.962 22.8098 31.962C22.7614 30.6561 22.7614 30.6561 22.9984 30.377C23.0646 30.3219 23.1309 30.2667 23.1992 30.2097C23.3212 29.9535 23.3212 29.9535 23.3938 29.723C23.3 29.7544 23.2061 29.7858 23.1094 29.8181C22.1601 30.0876 20.922 30.0553 20.0206 29.6569C18.937 29.0475 18.1219 28.1468 17.6504 26.9974C17.5971 26.8702 17.5971 26.8702 17.5428 26.7407C17.2654 25.6978 17.2919 24.3247 17.787 23.3609C17.8382 23.276 17.8896 23.191 17.9425 23.1035C17.9968 23.0095 18.0511 22.9154 18.1071 22.8187C18.6061 22.0154 19.2333 21.3445 19.8894 20.6698C19.9551 20.6014 20.0206 20.533 20.0882 20.4626C20.4287 20.1144 20.7892 19.795 21.1579 19.4774C21.3989 19.2631 21.623 19.0348 21.8487 18.8047C22.0234 18.633 22.2031 18.4725 22.3889 18.313C22.8213 17.9369 23.2391 17.5469 23.6555 17.1532C23.7268 17.0861 23.7981 17.0189 23.8716 16.9497C24.2372 16.605 24.5986 16.2575 24.9514 15.8998Z" fill="#3C3A41"/>
<path d="M23.5887 0.0310059C23.5887 2.50459 23.5887 4.97817 23.5887 7.52669C22.9463 7.62307 22.3038 7.71944 21.6418 7.81874C20.3807 8.11779 19.1522 8.46801 17.9722 9.01012C17.705 9.09835 17.6161 9.09642 17.3586 8.98687C17.1961 8.7673 17.1961 8.7673 17.0346 8.47357C16.9734 8.36424 16.9124 8.25502 16.8495 8.14252C16.8175 8.08377 16.7854 8.02514 16.7524 7.96469C16.6174 7.71743 16.4796 7.47173 16.3419 7.22593C16.2703 7.09798 16.1987 6.96995 16.1274 6.84184C15.7504 6.16672 15.3572 5.50166 14.9614 4.83749C14.8665 4.67781 14.8665 4.67781 14.7696 4.51489C14.401 3.89548 14.0306 3.27716 13.6593 2.65937C16.6909 1.12901 20.1649 0.0310059 23.5887 0.0310059Z" fill="#F0F0F0"/>
<path d="M2.65943 13.7556C3.22911 14.0876 3.79865 14.4199 4.36717 14.7538C5.50388 15.4206 6.64613 16.0755 7.79947 16.7132C8.27368 16.9763 8.73719 17.2412 9.18165 17.5522C9.14514 17.6547 9.10862 17.7572 9.07096 17.8628C8.9656 18.1592 8.86161 18.456 8.75806 18.753C8.66563 19.0175 8.56968 19.2783 8.4675 19.5394C7.96599 20.878 7.8702 22.111 7.6241 23.5876C5.15053 23.5876 2.67695 23.5876 0.128418 23.5876C0.243259 21.5206 0.243259 21.5206 0.383957 20.7098C0.400618 20.6127 0.417267 20.5158 0.434437 20.4157C0.854696 18.0991 1.63492 15.8717 2.65943 13.7556Z" fill="#F0EFF0"/>
<path d="M10.6424 34.976C10.9683 35.2933 11.265 35.6187 11.549 35.9737C12.1734 36.7431 12.7974 37.4594 13.5628 38.091C13.653 38.1659 13.7433 38.2406 13.8362 38.3177C14.2265 38.639 14.6162 38.9589 15.023 39.2593C14.9652 39.6597 14.8329 39.9452 14.6302 40.2939C14.5372 40.4552 14.5372 40.4552 14.4422 40.6198C14.3742 40.7361 14.3061 40.8525 14.2381 40.9689C14.1683 41.0893 14.0987 41.2099 14.0291 41.3304C13.8835 41.5824 13.7376 41.8342 13.5914 42.086C13.264 42.6505 12.941 43.2177 12.6177 43.7848C12.4567 44.0667 12.2957 44.3485 12.1345 44.6305C12.0782 44.7291 12.0217 44.8278 11.9636 44.9295C11.7828 45.246 11.6019 45.5624 11.4212 45.8788C10.093 45.075 8.93291 44.1309 7.81935 43.0557C7.72058 42.9609 7.72058 42.9609 7.61981 42.8643C6.74867 42.0244 5.93276 41.1738 5.21357 40.1996C5.08897 40.0317 4.96179 39.8662 4.83393 39.7007C4.21753 38.8978 4.21753 38.8978 4.21753 38.6752C4.27749 38.642 4.33745 38.6089 4.39923 38.5747C5.84399 37.775 7.27098 36.9509 8.68942 36.1054C9.33564 35.7204 9.98662 35.3445 10.6424 34.976Z" fill="#F0F0F0"/>
<path d="M38.7748 4.12006C39.3772 4.43161 39.9043 4.78018 40.4237 5.21521C40.4916 5.27139 40.5595 5.32757 40.6295 5.38547C40.8234 5.54674 41.0162 5.70918 41.2085 5.87229C41.3366 5.98071 41.3366 5.98071 41.4671 6.09132C42.6384 7.11825 43.7693 8.23304 44.7131 9.4741C44.8181 9.60793 44.9231 9.74164 45.0283 9.87524C45.1383 10.0172 45.2482 10.1593 45.3579 10.3016C45.4111 10.3693 45.4643 10.437 45.5191 10.5067C45.5675 10.5706 45.6161 10.6343 45.666 10.7001C45.7099 10.757 45.7538 10.8138 45.7989 10.8725C45.8261 10.9251 45.8532 10.9776 45.8812 11.0317C45.7405 11.4539 45.4219 11.5469 45.0476 11.7435C44.8867 11.8305 44.7258 11.9177 44.5651 12.0051C44.4787 12.0521 44.3922 12.099 44.3032 12.1473C43.8267 12.4102 43.3574 12.6854 42.8878 12.9604C42.7415 13.0456 42.7415 13.0456 42.5924 13.1325C42.086 13.4284 41.5819 13.7277 41.0804 14.0319C40.9823 14.091 40.8842 14.1502 40.7831 14.2111C40.5956 14.3243 40.4085 14.4384 40.2221 14.5534C40.1384 14.6037 40.0547 14.6542 39.9685 14.7061C39.8952 14.7509 39.8219 14.7958 39.7463 14.842C39.5536 14.9255 39.5536 14.9255 39.2616 14.8282C39.1117 14.6466 38.9732 14.4652 38.8357 14.2745C37.9994 13.1549 37.0645 12.1729 35.9518 11.3237C35.7835 11.1918 35.6152 11.0601 35.4469 10.9283C35.3233 10.8328 35.1996 10.7374 35.0757 10.6422C35.2342 10.0405 35.5569 9.54113 35.8727 9.01172C35.9959 8.80316 36.119 8.59448 36.242 8.38581C36.306 8.27738 36.3701 8.16907 36.4361 8.05736C36.8262 7.39369 37.2085 6.7255 37.592 6.05796C38.6156 4.27931 38.6156 4.27931 38.7748 4.12006Z" fill="#E0E0E3"/>
<path d="M42.4745 26.4126C44.948 26.4126 47.4216 26.4126 49.9701 26.4126C49.8126 29.0909 49.3994 34.0896 47.3418 36.1472C47.254 36.095 47.1661 36.0429 47.0756 35.989C45.8247 35.2483 44.5619 34.5285 43.2989 33.8088C42.7886 33.5178 42.2786 33.2263 41.7687 32.9348C41.6019 32.8394 41.4351 32.7442 41.2682 32.6488C41.1512 32.5819 41.034 32.5149 40.9169 32.448C41.0628 32.0027 41.2121 31.559 41.3728 31.1186C41.9468 29.5411 42.2641 28.0957 42.4745 26.4126Z" fill="#E0E0E3"/>
<path d="M32.643 40.9146C32.778 41.0999 32.778 41.0999 32.9182 41.3461C32.9713 41.4382 33.0244 41.5304 33.079 41.6253C33.136 41.726 33.1928 41.8267 33.2513 41.9306C33.3109 42.0343 33.3704 42.1381 33.4316 42.245C33.5584 42.4662 33.6849 42.6877 33.811 42.9093C34.0665 43.3579 34.3254 43.8046 34.584 44.2515C34.7689 44.571 34.9531 44.8908 35.1371 45.2107C35.3342 45.5535 35.532 45.8957 35.7311 46.2374C35.7684 46.3019 35.8057 46.3663 35.8443 46.4326C35.9378 46.594 36.0317 46.7553 36.1257 46.9166C36.2448 47.1447 36.2448 47.1447 36.2448 47.3394C33.9829 48.4832 31.5404 49.2473 29.0411 49.6575C28.9749 49.6684 28.9088 49.6793 28.8406 49.6905C28.0967 49.8004 27.3639 49.8231 26.6074 49.8704C26.6074 47.3969 26.6074 44.9232 26.6074 42.3748C27.3784 42.2463 28.1495 42.1178 28.9438 41.9853C30.0262 41.6908 31.0469 41.3627 32.0714 40.9149C32.3509 40.8172 32.3509 40.8172 32.643 40.9146Z" fill="#E0E0E3"/>
</g>
<defs>
<clipPath id="clip0_1_2997">
<rect width="50" height="50" fill="white"/>
</clipPath>
</defs>
</svg>
