<svg width="50" height="50" viewBox="0 0 50 50" fill="none" xmlns="http://www.w3.org/2000/svg">
<path d="M5.23475 5.07128C5.48289 5.14058 5.72801 5.21636 5.97331 5.29512C6.06579 5.32439 6.15827 5.35367 6.25355 5.38383C9.50555 6.42883 12.5628 7.80441 15.4196 9.69079C15.494 9.73894 15.494 9.73894 15.5698 9.78806C15.6983 9.87167 15.8251 9.95768 15.9518 10.0439C16.0185 10.0892 16.0852 10.1344 16.154 10.1811C16.6314 10.654 16.6159 11.2823 16.6464 11.9141C16.6548 12.0626 16.6548 12.0626 16.6634 12.2141C16.6786 12.4844 16.6928 12.7547 16.7065 13.0251C16.7212 13.3094 16.7371 13.5937 16.7528 13.8779C16.779 14.3557 16.8044 14.8334 16.8293 15.3113C16.8611 15.9216 16.8941 16.5319 16.9276 17.1422C16.9565 17.67 16.9849 18.1977 17.0132 18.7255C17.0222 18.8935 17.0313 19.0616 17.0404 19.2296C17.0573 19.5452 17.0739 19.8608 17.0903 20.1764C17.0953 20.2682 17.1003 20.3599 17.1054 20.4544C17.1368 21.0699 17.1444 21.6833 17.139 22.2996C17.2144 22.3239 17.2898 22.3482 17.3675 22.3732C17.6592 22.4732 17.9257 22.6047 18.1976 22.7479C18.2496 22.775 18.3017 22.802 18.3552 22.8299C18.5197 22.9154 18.6839 23.0015 18.8482 23.0876C18.9603 23.1461 19.0725 23.2045 19.1846 23.2629C19.4582 23.4053 19.7315 23.5483 20.0047 23.6914C19.9602 23.6064 19.9158 23.5213 19.87 23.4337C19.251 22.2354 18.8057 21.0241 19.1769 19.6565C19.2035 19.5848 19.2301 19.513 19.2575 19.439C19.3849 19.0582 19.3136 18.8712 19.1398 18.5128C19.093 18.4245 19.0461 18.3362 18.9978 18.2451C18.5138 17.256 18.4322 16.1647 18.4294 15.0809C18.4286 14.8958 18.426 14.7108 18.4234 14.5257C18.4229 14.4067 18.4225 14.2877 18.4222 14.1687C18.4214 14.0616 18.4206 13.9545 18.4198 13.8442C18.458 13.4455 18.5589 13.1166 18.8328 12.8123C19.1069 12.6789 19.3749 12.6017 19.6772 12.6383C20.1054 12.8434 20.3758 13.0701 20.6904 13.4315C20.768 13.5193 20.8459 13.6071 20.9238 13.6947C20.981 13.7592 20.981 13.7592 21.0394 13.8251C21.1999 14.0024 21.3692 14.1698 21.5398 14.3372C21.7595 14.5537 21.9686 14.7733 22.1692 15.0076C22.2135 15.057 22.2579 15.1065 22.3035 15.1575C22.4609 15.3402 22.4609 15.3402 22.6091 15.5471C22.9824 16.0086 23.2677 16.2018 23.8519 16.2703C24.2247 16.2958 24.5948 16.298 24.9683 16.292C25.0458 16.2918 25.1232 16.2917 25.203 16.2915C26.3907 16.2882 26.3907 16.2882 27.399 15.7206C27.5924 15.4993 27.7607 15.2737 27.9155 15.024C28.2284 14.5388 28.656 14.1301 29.0672 13.7283C29.2847 13.5157 29.4896 13.309 29.679 13.071C29.8736 12.8293 30.0276 12.7398 30.3209 12.6383C30.6668 12.6213 30.9126 12.683 31.2113 12.8583C31.5499 13.2268 31.5707 13.6422 31.5765 14.1261C31.5772 14.1814 31.5779 14.2368 31.5786 14.2938C31.5802 14.472 31.5802 14.6502 31.5797 14.8285C31.5797 14.8891 31.5797 14.9498 31.5797 15.0124C31.5756 16.4408 31.3331 17.6122 30.7111 18.9075C30.636 19.1459 30.6626 19.2142 30.761 19.439C31.1657 20.6604 30.9032 21.9459 30.3481 23.0665C30.2347 23.2783 30.1161 23.4849 29.9934 23.6914C31.2828 23.0587 31.2828 23.0587 32.5456 22.3754C32.6953 22.2996 32.6953 22.2996 32.859 22.2996C32.8582 22.2027 32.8582 22.2027 32.8573 22.1039C32.8542 21.4597 32.8729 20.8197 32.9078 20.1764C32.9156 20.0267 32.9156 20.0267 32.9235 19.8738C32.9377 19.6035 32.9521 19.3333 32.9667 19.063C32.9758 18.8936 32.9849 18.7243 32.994 18.5549C33.0225 18.0236 33.0513 17.4922 33.0804 16.9608C33.1139 16.35 33.1465 15.7392 33.1783 15.1283C33.2031 14.6538 33.2287 14.1794 33.2549 13.705C33.2705 13.4225 33.2857 13.14 33.3001 12.8575C33.3161 12.543 33.3338 12.2285 33.3517 11.9141C33.3562 11.8214 33.3606 11.7286 33.3652 11.6331C33.3969 11.105 33.4306 10.615 33.8049 10.2074C33.8732 10.1603 33.8732 10.1603 33.9429 10.1123C33.9956 10.0753 34.0483 10.0383 34.1026 10.0002C34.16 9.96228 34.2174 9.92433 34.2765 9.88524C34.3375 9.84371 34.3985 9.80218 34.4613 9.75939C37.4057 7.78478 40.6365 6.36446 44.0094 5.30024C44.0969 5.27215 44.1844 5.24406 44.2745 5.21512C44.7433 5.07135 45.1408 4.98016 45.6316 5.02391C45.8362 5.14672 45.8363 5.14672 45.9591 5.35141C46.0234 5.67841 46.0161 5.91966 45.8311 6.20086C45.5836 6.36585 45.3468 6.43111 45.0584 6.49766C45.0483 6.60035 45.0382 6.70304 45.0277 6.80885C44.9689 7.33853 44.8678 7.86014 44.7687 8.38351C44.5779 9.43499 44.5479 10.4919 44.5467 11.5586C44.5466 11.6167 44.5465 11.6748 44.5464 11.7347C44.4972 14.3945 44.4972 14.3945 45.6316 16.6502C45.8575 16.9283 45.9797 17.1239 46 17.4792C45.9591 17.7964 45.9591 17.7964 45.8209 17.996C45.6074 18.1403 45.4795 18.1932 45.2222 18.2058C44.9919 18.129 44.9919 18.129 44.8128 18.042C44.7848 18.1063 44.7848 18.1063 44.7562 18.1719C44.6418 18.383 44.5053 18.5689 44.3603 18.7599C42.9573 20.6081 40.9941 23.542 41.1417 25.955C41.1524 26.0269 41.1631 26.0988 41.1742 26.173C41.1856 26.2538 41.1969 26.3347 41.2087 26.418C41.221 26.5027 41.2334 26.5875 41.2461 26.6748C41.4729 28.3682 41.4729 28.3682 41.3741 28.9314C41.2085 29.1369 41.0972 29.2389 40.8521 29.3357C40.5648 29.3425 40.391 29.2377 40.1459 29.0952C40.1459 29.0412 40.1459 28.9871 40.1459 28.9314C37.9545 29.8935 35.9779 31.3225 34.313 33.045C34.1606 33.1974 34.0008 33.3361 33.8364 33.4755C33.5677 33.7074 33.3371 33.9537 33.1079 34.2242C32.9389 34.4194 32.7645 34.6082 32.5881 34.7967C32.11 35.3084 31.6559 35.8323 31.2215 36.3821C31.1791 36.4354 31.1367 36.4887 31.093 36.5436C30.2619 37.589 29.4518 38.6407 28.8113 39.8157C28.1916 40.9514 27.4093 41.9647 26.5547 42.9321C26.4868 43.0109 26.4189 43.0898 26.349 43.171C25.6683 43.9507 25.6683 43.9507 25.2066 44.032C24.737 44.0327 24.4625 43.9926 24.0984 43.669C23.9558 43.5178 23.8203 43.3629 23.6868 43.2036C23.5082 42.9938 23.3201 42.795 23.1313 42.5943C22.2812 41.6571 21.6523 40.5931 21.011 39.5084C20.5304 38.6956 19.9824 37.9535 19.4024 37.2099C19.276 37.0476 19.1502 36.8847 19.0247 36.7217C18.6327 36.2149 18.2305 35.7252 17.7966 35.2531C17.6493 35.0928 17.5062 34.93 17.3642 34.765C16.4876 33.7557 16.4876 33.7557 15.5114 32.8461C15.3297 32.6908 15.1572 32.5273 14.9841 32.3625C13.561 31.0155 11.735 29.5591 9.85214 28.9314C9.82512 29.0125 9.7981 29.0936 9.77026 29.1771C9.43295 29.3226 9.26975 29.3677 8.92081 29.2385C8.70589 29.0952 8.70589 29.0952 8.62401 28.9314C8.57895 28.3551 8.60546 27.7919 8.69341 27.2213C8.87256 26.0589 8.86745 25.2043 8.46026 24.1008C8.41181 23.9606 8.36342 23.8204 8.31506 23.6802C7.6416 21.7833 6.68128 20.064 5.42257 18.4956C5.26713 18.2877 5.26713 18.2877 5.18526 18.042C5.05861 18.0902 5.05861 18.0902 4.9294 18.1393C4.61213 18.2058 4.61213 18.2058 4.3358 18.1035C4.12088 17.9602 4.12088 17.9602 4.03901 17.7964C3.9668 17.4065 3.98202 17.2329 4.19476 16.8913C4.41813 16.5865 4.65937 16.2956 4.90447 16.0081C5.04147 15.8013 5.07539 15.6455 5.11426 15.4013C5.12787 15.3177 5.14149 15.2342 5.15551 15.1481C5.16871 15.0612 5.1819 14.9743 5.19549 14.8847C5.20932 14.8 5.22314 14.7153 5.23739 14.6281C5.395 13.6371 5.44765 12.6634 5.44623 11.6609C5.44621 11.6014 5.44619 11.5418 5.44617 11.4805C5.44387 10.1403 5.32321 8.85211 5.07588 7.53581C5.01347 7.18998 4.97143 6.84746 4.93963 6.49766C4.88834 6.48278 4.83705 6.4679 4.7842 6.45256C4.71728 6.43198 4.65037 6.4114 4.58143 6.3902C4.51494 6.37025 4.44845 6.3503 4.37994 6.32975C4.20276 6.25203 4.20276 6.25203 4.03901 6.00641C3.98517 5.44113 3.98517 5.44113 4.16182 5.14672C4.50499 4.94081 4.85652 4.98725 5.23475 5.07128Z" fill="#824D50"/>
<path d="M19.9229 12.7174C20.283 12.9599 20.5393 13.264 20.8193 13.5931C21.0168 13.815 21.226 14.0237 21.4375 14.2321C21.6944 14.4854 21.945 14.7406 22.1795 15.015C22.2221 15.0628 22.2647 15.1106 22.3086 15.1598C22.461 15.3374 22.461 15.3374 22.6082 15.5433C22.9818 16.0051 23.2673 16.199 23.852 16.2675C24.2248 16.293 24.5949 16.2952 24.9684 16.2892C25.0459 16.289 25.1233 16.2889 25.2031 16.2887C26.3908 16.2854 26.3908 16.2854 27.399 15.7178C27.5924 15.4965 27.7608 15.271 27.9156 15.0212C28.2285 14.536 28.6561 14.1273 29.0673 13.7255C29.2848 13.5129 29.4897 13.3063 29.6791 13.0682C29.8737 12.8265 30.0277 12.737 30.321 12.6355C30.6669 12.6185 30.9127 12.6802 31.2114 12.8556C31.55 13.224 31.5708 13.6394 31.5766 14.1233C31.5773 14.1787 31.578 14.234 31.5787 14.291C31.5803 14.4692 31.5803 14.6474 31.5798 14.8257C31.5798 14.8864 31.5798 14.9471 31.5798 15.0096C31.5757 16.438 31.3332 17.6095 30.7112 18.9047C30.6361 19.1431 30.6627 19.2114 30.7611 19.4363C31.1667 20.6605 30.8903 21.9169 30.3635 23.0484C29.4673 24.6931 27.8022 25.9695 26.0369 26.5332C24.777 26.8634 23.5419 26.5133 22.4431 25.8802C21.8908 25.543 21.4425 25.1271 20.9872 24.6712C20.9073 24.5966 20.8272 24.5223 20.7467 24.4482C19.7515 23.5085 19.1051 22.3209 19.0642 20.9356C19.0616 20.4065 19.0744 19.9384 19.2576 19.4363C19.385 19.0554 19.3137 18.8684 19.1399 18.5101C19.0931 18.4217 19.0462 18.3334 18.9979 18.2424C18.5139 17.2532 18.4323 16.1619 18.4294 15.0781C18.4286 14.893 18.4261 14.708 18.4235 14.523C18.423 14.4039 18.4226 14.2849 18.4222 14.1659C18.4215 14.0588 18.4207 13.9517 18.4199 13.8414C18.4586 13.4365 18.5527 13.0962 18.8585 12.8095C19.2174 12.6076 19.5332 12.6111 19.9229 12.7174Z" fill="#965A50"/>
<path d="M34.6604 12.9648C34.9071 13.1935 35.0712 13.4121 35.2297 13.7081C35.2733 13.789 35.317 13.8699 35.3619 13.9532C35.4074 14.0391 35.4528 14.125 35.4997 14.2134C35.547 14.302 35.5944 14.3906 35.6432 14.4818C35.9821 15.1182 36.3146 15.7572 36.6289 16.4061C36.7122 16.5773 36.7971 16.7477 36.8819 16.9182C38.6874 20.587 40.0059 24.815 40.0642 28.9305C40.0144 28.9551 39.9647 28.9797 39.9134 29.0051C38.8061 29.557 37.7718 30.1424 36.7892 30.8955C36.7143 30.9525 36.6393 31.0095 36.5621 31.0682C36.3615 31.2253 36.1655 31.3865 35.9704 31.5505C35.926 31.5876 35.8816 31.6248 35.8358 31.6631C35.3096 32.1042 34.7937 32.5471 34.316 33.0412C34.1626 33.1946 34.002 33.3343 33.8366 33.4746C33.5678 33.7064 33.3372 33.9527 33.108 34.2233C32.939 34.4185 32.7646 34.6072 32.5883 34.7958C32.1103 35.3072 31.6548 35.8308 31.2217 36.3811C31.1779 36.4366 31.1342 36.4921 31.0892 36.5492C30.5187 37.2745 29.9543 38.0027 29.4204 38.7555C29.3386 38.5918 29.3386 38.5918 29.3842 38.441C29.41 38.3806 29.4358 38.3201 29.4623 38.2579C29.4905 38.1904 29.5186 38.1229 29.5476 38.0534C29.5783 37.9812 29.6089 37.9089 29.6405 37.8344C29.9156 37.1654 30.1461 36.5108 30.3211 35.808C30.335 35.7539 30.3489 35.6998 30.3632 35.6441C31.0505 32.9619 31.009 30.1107 30.0498 27.4926C29.8384 26.8867 29.8043 26.2772 30.0345 25.6708C30.4251 24.9451 31.1275 24.6076 31.846 24.2687C32.0204 24.184 32.1947 24.099 32.3689 24.0138C32.4527 23.9729 32.5366 23.932 32.623 23.8899C32.9373 23.7335 33.2451 23.5678 33.55 23.3937C33.6377 23.3437 33.7254 23.2936 33.8158 23.2421C34.014 23.1344 34.014 23.1344 34.0873 22.9536C34.1036 22.8217 34.1155 22.6893 34.1252 22.5568C34.1314 22.4727 34.1377 22.3886 34.1441 22.302C34.1538 22.1627 34.1538 22.1627 34.1637 22.0207C34.1708 21.923 34.1778 21.8254 34.185 21.7247C34.2717 20.4875 34.3407 19.2493 34.4094 18.011C34.4235 17.7574 34.4379 17.5039 34.4522 17.2503C34.5331 15.8222 34.6073 14.3943 34.6604 12.9648Z" fill="#955950"/>
<path d="M15.1736 13.0469C15.3092 13.2867 15.3607 13.4702 15.3751 13.7445C15.3815 13.8552 15.3815 13.8552 15.388 13.9681C15.3919 14.0484 15.3957 14.1288 15.3997 14.2116C15.4068 14.3392 15.4068 14.3392 15.4139 14.4695C15.4293 14.7512 15.4436 15.033 15.4579 15.3148C15.4684 15.5108 15.479 15.7068 15.4897 15.9028C15.5176 16.4195 15.5447 16.9362 15.5715 17.453C15.6146 18.2786 15.659 19.1042 15.7033 19.9298C15.7187 20.2177 15.7337 20.5057 15.7486 20.7936C15.758 20.9713 15.7674 21.149 15.7768 21.3267C15.7809 21.4062 15.7849 21.4858 15.7891 21.5677C15.7834 22.3935 15.7834 22.3935 16.0396 23.1427C16.3058 23.3287 16.5823 23.4733 16.8738 23.6155C17.0003 23.6789 17.1269 23.7424 17.2534 23.8059C17.4514 23.9043 17.6495 24.0024 17.8479 24.1001C19.7235 25.0272 19.7235 25.0272 20.0343 25.8616C20.2259 26.6138 20.0475 27.2291 19.7936 27.9361C19.6285 28.4005 19.505 28.8626 19.4055 29.3451C19.386 29.4386 19.386 29.4386 19.3661 29.5339C18.789 32.4305 19.3148 35.3938 20.4585 38.0787C20.4858 38.1436 20.5131 38.2084 20.5412 38.2753C20.566 38.3326 20.5907 38.3899 20.6162 38.449C20.6592 38.5919 20.6592 38.5919 20.5774 38.7557C20.5494 38.7191 20.5214 38.6825 20.4926 38.6448C20.2621 38.343 20.0314 38.0414 19.8005 37.7399C19.6312 37.5187 19.4623 37.2971 19.2945 37.0747C18.5698 36.1193 17.7834 35.2196 16.9749 34.3344C16.8946 34.2455 16.8143 34.1566 16.734 34.0677C16.3449 33.6388 15.9594 33.2198 15.5139 32.8482C15.3313 32.6917 15.1576 32.5273 14.9835 32.3615C14.3232 31.7366 13.6164 31.1838 12.8811 30.65C12.8303 30.6131 12.7794 30.5761 12.727 30.5381C11.8476 29.9075 10.8985 29.4167 9.93359 28.9306C9.99157 27.2933 10.2376 25.6991 10.5886 24.1C10.6018 24.0382 10.6151 23.9765 10.6287 23.9128C11.4639 20.0785 13.1602 16.3915 15.1736 13.0469Z" fill="#95594F"/>
<path d="M14.2735 11.9805C14.1289 12.3958 13.9012 12.7593 13.6799 13.137C11.6021 16.7447 9.97511 20.6285 9.19335 24.7312C9.1747 24.8277 9.15604 24.9242 9.13682 25.0236C9.11271 25.1527 9.11271 25.1527 9.08811 25.2845C9.03352 25.4899 9.03352 25.4899 8.86977 25.6536C8.84782 25.5613 8.82586 25.4689 8.80325 25.3738C8.18087 22.8398 7.06096 20.5379 5.4307 18.5007C5.29545 18.3221 5.19318 18.1614 5.10352 17.9574C6.98561 15.4054 10.8643 11.9805 14.2735 11.9805Z" fill="#955950"/>
<path d="M35.7246 11.9805C36.1965 12.0304 36.6141 12.1538 37.0602 12.3131C37.1317 12.3385 37.2033 12.364 37.277 12.3902C40.2503 13.4676 43.074 15.3276 44.8946 17.9574C44.7324 18.2418 44.5508 18.5033 44.353 18.7642C42.8195 20.7933 41.6048 23.1387 41.1284 25.6536C41.0743 25.6266 41.0203 25.5996 40.9646 25.5717C40.91 25.377 40.91 25.377 40.8613 25.1163C40.8427 25.02 40.824 24.9237 40.8048 24.8245C40.7849 24.7198 40.7651 24.6152 40.7446 24.5074C39.9318 20.4 38.3177 16.3919 36.1396 12.8163C35.9743 12.5444 35.8317 12.2805 35.7246 11.9805Z" fill="#955950"/>
<path d="M19.7594 27.8672C19.7864 27.8672 19.8134 27.8672 19.8412 27.8672C19.8444 28.0206 19.8444 28.0206 19.8476 28.1771C19.8971 29.8797 20.1897 31.4962 20.7419 33.1072C20.7773 33.2113 20.7773 33.2113 20.8135 33.3175C21.8043 36.1785 23.4425 38.8244 26.2329 40.1894C26.8401 40.461 27.4578 40.6028 28.1106 40.7216C28.0618 41.0603 27.8712 41.3057 27.6757 41.5761C27.6398 41.6261 27.604 41.6761 27.567 41.7276C27.2282 42.1893 26.8492 42.606 26.4536 43.0192C26.2968 43.1831 26.149 43.3512 26.0049 43.5264C25.7653 43.8144 25.5971 43.971 25.2181 44.0225C24.7449 44.0444 24.4634 43.9932 24.0987 43.6691C23.9561 43.5179 23.8206 43.363 23.6871 43.2037C23.5085 42.994 23.3204 42.7951 23.1316 42.5945C22.2797 41.6552 21.6416 40.5871 21.0039 39.4964C20.9275 39.3668 20.8483 39.2388 20.7681 39.1116C20.5038 38.6441 20.3484 38.1153 20.1687 37.6103C20.1419 37.5359 20.1152 37.4616 20.0875 37.3849C19.68 36.2455 19.3657 35.1235 19.1862 33.9259C19.1705 33.8259 19.1548 33.7258 19.1386 33.6228C18.9281 31.8451 18.938 29.51 19.7594 27.8672Z" fill="#64464B"/>
<path d="M45.0585 6.5C44.9958 7.13605 44.8877 7.75813 44.7688 8.38585C44.578 9.43737 44.5482 10.4942 44.5468 11.5609C44.5467 11.619 44.5465 11.6771 44.5464 11.737C44.5462 13.1516 44.7144 14.5264 44.9767 15.9156C44.9226 15.9156 44.8686 15.9156 44.8129 15.9156C44.7061 15.804 44.7061 15.804 44.5775 15.6444C42.4145 13.1105 39.0019 11.4079 35.8066 10.6756C35.8066 10.6216 35.8066 10.5676 35.8066 10.5119C35.9421 10.4112 35.9421 10.4112 36.1345 10.2976C36.2417 10.234 36.2417 10.234 36.3511 10.169C36.4298 10.1234 36.5085 10.0778 36.5896 10.0309C36.6712 9.98337 36.7528 9.93588 36.8368 9.88694C38.9755 8.65247 41.178 7.66539 43.5183 6.88379C43.5771 6.86405 43.636 6.8443 43.6967 6.82396C43.8633 6.76846 44.0302 6.71381 44.1972 6.65959C44.2926 6.62864 44.3879 6.59768 44.4861 6.56578C44.731 6.5 44.731 6.5 45.0585 6.5Z" fill="#955950"/>
<path d="M4.93945 6.5C5.53526 6.57319 6.07675 6.74956 6.64348 6.94008C6.69734 6.95808 6.75121 6.97608 6.80671 6.99463C7.92924 7.37151 9.01808 7.8144 10.0976 8.30125C10.2133 8.35318 10.2133 8.35318 10.3313 8.40615C11.3249 8.85572 12.274 9.36167 13.2088 9.92288C13.3555 10.0104 13.5034 10.0958 13.6515 10.1809C13.7266 10.2242 13.8018 10.2676 13.8792 10.3123C13.9411 10.3479 14.0031 10.3834 14.0669 10.4201C14.1285 10.4655 14.1285 10.4655 14.1913 10.5119C14.1913 10.5659 14.1913 10.62 14.1913 10.6756C14.1087 10.6957 14.0261 10.7157 13.9409 10.7364C11.0573 11.4689 8.3122 12.8593 6.16758 14.9331C6.04546 15.0397 5.92272 15.1455 5.79914 15.2504C5.56467 15.4531 5.36818 15.6639 5.18508 15.9156C5.13104 15.8886 5.077 15.8616 5.02133 15.8338C5.03082 15.779 5.04031 15.7241 5.05009 15.6677C5.09375 15.4144 5.13686 15.161 5.17996 14.9076C5.1949 14.8214 5.20983 14.7352 5.22522 14.6464C5.39397 13.6492 5.44748 12.6736 5.44606 11.6632C5.44603 11.6037 5.44601 11.5442 5.44599 11.4828C5.44369 10.1427 5.32303 8.85445 5.0757 7.53815C5.01329 7.19232 4.97125 6.8498 4.93945 6.5Z" fill="#955950"/>
<path d="M30.9761 12.7174C31.3468 12.935 31.4398 13.1293 31.5492 13.5362C31.573 13.8166 31.573 13.8166 31.5767 14.1234C31.5778 14.2064 31.5778 14.2064 31.5788 14.291C31.5804 14.4693 31.5804 14.6475 31.5799 14.8257C31.5799 14.8864 31.5799 14.9471 31.5799 15.0096C31.5757 16.4809 31.3187 17.7001 30.6486 19.0218C30.5946 19.0218 30.5405 19.0218 30.4848 19.0218C30.3873 18.8686 30.3873 18.8686 30.275 18.6585C29.4597 17.2723 28.1023 16.7586 26.6367 16.3199C26.9346 15.964 27.2408 15.6263 27.5732 15.3016C27.8792 15.0001 28.1687 14.6906 28.4472 14.3636C28.7157 14.064 29.0059 13.7856 29.2935 13.5045C29.5044 13.2957 29.5044 13.2957 29.6792 13.0683C30.0349 12.6266 30.4574 12.5613 30.9761 12.7174Z" fill="#824D51"/>
<path d="M19.9229 12.7204C20.283 12.963 20.5393 13.267 20.8193 13.5961C21.0168 13.818 21.226 14.0267 21.4375 14.2351C21.7412 14.5346 22.0286 14.8418 22.3052 15.1664C22.6403 15.5407 23.0036 15.8889 23.3616 16.241C23.1388 16.4639 22.8841 16.5055 22.5889 16.589C21.3721 16.9549 20.3692 17.6055 19.6772 18.6973C19.6211 18.8056 19.566 18.9146 19.5135 19.0248C19.4594 19.0248 19.4054 19.0248 19.3497 19.0248C18.702 17.7443 18.4332 16.5174 18.4294 15.0811C18.4286 14.896 18.4261 14.711 18.4235 14.526C18.423 14.4069 18.4226 14.2879 18.4222 14.1689C18.4215 14.0618 18.4207 13.9548 18.4199 13.8444C18.4586 13.4395 18.5527 13.0992 18.8585 12.8125C19.2174 12.6106 19.5332 12.6141 19.9229 12.7204Z" fill="#824D51"/>
<path d="M26.217 21.8372C26.7009 22.3167 26.9779 22.9299 27.005 23.6129C26.9515 24.4284 26.7423 24.9629 26.1821 25.5651C25.7272 25.9539 25.3342 26.0327 24.7506 26.0154C24.1698 25.9358 23.7632 25.5462 23.4006 25.1058C23.0488 24.5586 22.9355 23.8371 23.0341 23.1984C23.2258 22.4844 23.5484 21.9587 24.1803 21.5609C24.8613 21.2507 25.6397 21.3769 26.217 21.8372Z" fill="#AE6D59"/>
<path d="M28.3204 20.082C28.6306 20.1779 28.7337 20.2421 28.9293 20.4965C29.0159 20.9977 29.0297 21.4833 28.7553 21.9191C28.4745 22.0778 28.3453 22.1181 28.0287 22.0522C27.7933 21.9191 27.7933 21.9191 27.6193 21.6428C27.5549 21.2078 27.5143 20.7404 27.6919 20.328C27.8828 20.1041 28.0335 20.0871 28.3204 20.082Z" fill="#FBFAF9"/>
<path d="M21.7706 20.082C22.0808 20.1779 22.1839 20.2421 22.3795 20.4965C22.4661 20.9977 22.4799 21.4833 22.2055 21.9191C21.9247 22.0778 21.7955 22.1181 21.4789 22.0522C21.2435 21.9191 21.2435 21.9191 21.0695 21.6428C21.0051 21.2078 20.9645 20.7404 21.1421 20.328C21.333 20.1041 21.4837 20.0871 21.7706 20.082Z" fill="#FBFAF9"/>
</svg>
