<svg width="50" height="50" viewBox="0 0 50 50" fill="none" xmlns="http://www.w3.org/2000/svg">
<path d="M17.718 4.6595C17.9323 4.80461 18.1338 4.95763 18.3349 5.12041C18.4725 5.22023 18.4725 5.22023 18.6129 5.32207C18.9571 5.65098 19.2082 6.03173 19.4686 6.42851C19.8155 6.37014 20.0745 6.19925 20.3734 6.01973C22.3875 4.84656 24.6818 4.36805 26.9903 4.90784C28.2035 5.22931 29.3303 5.82286 30.3696 6.51572C30.4458 6.40662 30.4458 6.40662 30.5236 6.29532C31.3549 5.13988 32.3534 4.38356 33.7707 4.07392C35.3177 3.94046 36.6327 4.11523 37.8695 5.12041C37.9412 5.17436 38.013 5.22832 38.0869 5.28392C38.9136 5.98445 39.5365 7.10402 39.6305 8.19321C39.6803 9.70048 39.5502 10.8826 38.5672 12.097C38.5006 12.1887 38.4341 12.2805 38.3655 12.375C37.6326 13.142 36.4865 13.8223 35.4011 13.8479C35.3235 13.8457 35.246 13.8435 35.1661 13.8411C35.1849 13.9105 35.2038 13.9799 35.2233 14.0513C35.6205 15.7706 35.6428 17.8255 35.0789 19.5096C35.0597 19.5675 35.0405 19.6254 35.0208 19.685C34.4734 21.2845 33.4664 22.518 32.201 23.6084C32.5606 23.9893 32.9564 24.3001 33.3728 24.6167C36.2043 26.7959 38.5888 29.5261 39.6137 33.0267C39.6137 33.1419 39.6137 33.257 39.6137 33.3756C39.6706 33.3398 39.7274 33.3041 39.786 33.2672C39.8623 33.2203 39.9385 33.1733 40.017 33.1249C40.0919 33.0783 40.1668 33.0318 40.2439 32.9838C40.9818 32.5827 41.8442 32.566 42.6585 32.7287C43.8277 33.1351 44.6347 34.2774 45.158 35.3428C45.7514 36.6077 45.9294 37.8831 45.9254 39.2675C45.9253 39.3599 45.9253 39.3599 45.9252 39.4541C45.9218 40.4277 45.8571 41.3429 45.5438 42.2707C45.5247 42.3285 45.5055 42.3862 45.4858 42.4457C45.0425 43.7414 44.3276 45.0343 43.0638 45.6773C40.7818 46.7066 37.125 45.3944 34.915 44.5773C33.4014 43.9886 31.9386 43.2496 30.5816 42.3579C30.5135 42.3133 30.4453 42.2686 30.3751 42.2227C30.3167 42.1834 30.2584 42.1441 30.1983 42.1037C29.7426 41.8608 29.37 41.9513 28.8925 42.08C27.6025 42.4232 26.3446 42.4801 25.0172 42.4778C24.8903 42.4779 24.8903 42.4779 24.7608 42.478C23.3531 42.4767 21.9738 42.4186 20.6204 41.9921C20.2659 41.9031 20.0408 41.9373 19.7175 42.1078C19.6552 42.1488 19.593 42.1897 19.5289 42.2319C19.4219 42.3008 19.4219 42.3008 19.3128 42.3711C19.1983 42.4455 19.1983 42.4455 19.0816 42.5214C15.9499 44.5028 11.0637 46.6189 7.25879 45.8827C6.09625 45.4836 5.28589 44.3242 4.76744 43.2685C4.17403 42.0036 3.99605 40.7283 4.00007 39.3438C4.00011 39.2822 4.00016 39.2207 4.00021 39.1572C4.00365 38.1837 4.06831 37.2684 4.3816 36.3406C4.40075 36.2829 4.41991 36.2251 4.43964 36.1656C4.88294 34.8699 5.59783 33.577 6.86158 32.9341C7.56749 32.6157 8.4051 32.5407 9.16136 32.7437C9.35066 32.8273 9.52443 32.9195 9.7013 33.0267C9.76155 33.06 9.82181 33.0933 9.88389 33.1276C10.028 33.2076 10.1701 33.2912 10.3118 33.3756C10.3183 33.2951 10.3248 33.2146 10.3315 33.1317C10.4006 32.6551 10.5947 32.2252 10.7805 31.784C10.8192 31.692 10.8578 31.6 10.8977 31.5051C12.0507 28.8272 13.907 26.6451 16.2007 24.8725C16.2703 24.8186 16.34 24.7648 16.4117 24.7092C16.5502 24.6024 16.6888 24.4959 16.8278 24.3897C17.1803 24.1185 17.5063 23.8448 17.8117 23.5211C17.7624 23.4992 17.7132 23.4773 17.6624 23.4547C16.2341 22.6821 15.2875 20.9343 14.8222 19.4368C14.5452 18.4984 14.4774 17.6124 14.4759 16.6372C14.4757 16.577 14.4755 16.5168 14.4753 16.4547C14.4742 15.5599 14.523 14.7091 14.7594 13.8411C14.6831 13.8393 14.6831 13.8393 14.6054 13.8374C13.6356 13.781 12.8255 13.3672 12.0559 12.7946C11.966 12.7299 11.876 12.6651 11.7834 12.5984C10.9417 11.7934 10.3365 10.6299 10.2709 9.45795C10.2679 9.30025 10.267 9.1425 10.2681 8.98478C10.2686 8.90134 10.2691 8.8179 10.2697 8.73193C10.2978 7.60148 10.6399 6.70198 11.3582 5.81806C11.4122 5.74634 11.4662 5.67462 11.5218 5.60073C12.9913 3.86647 15.795 3.53241 17.718 4.6595Z" fill="#D29C6A"/>
<path d="M9.36347 32.8312C9.47764 32.8939 9.59054 32.959 9.7014 33.0274C9.78773 33.0724 9.87407 33.1173 9.96302 33.1637C11.1165 34.1009 11.9528 35.6593 12.1432 37.1262C12.2317 37.0971 12.3201 37.068 12.4113 37.0381C12.7393 36.9304 13.0674 36.8233 13.3957 36.7163C13.5377 36.6699 13.6798 36.6234 13.8217 36.5767C14.0258 36.5097 14.2299 36.4432 14.4341 36.3767C14.4976 36.3557 14.5612 36.3348 14.6266 36.3131C14.8847 36.2296 15.0968 36.1669 15.3699 36.1669C15.3838 36.2293 15.3976 36.2917 15.4118 36.3559C15.8372 38.1726 16.6177 39.7348 18.2042 40.778C18.6984 41.0713 19.2124 41.3252 19.7303 41.5737C19.8467 41.6316 19.9631 41.6897 20.0792 41.7481C17.5859 44.4897 12.2145 45.7671 8.65218 45.962C7.66151 45.9971 6.96445 45.8765 6.19672 45.2201C4.78297 43.8594 4.0609 42.0043 4.00357 40.0527C4.00094 39.8165 3.99948 39.5807 4.00017 39.3445C4.00022 39.2829 4.00026 39.2213 4.00031 39.1579C4.00376 38.1843 4.06841 37.2691 4.3817 36.3413C4.41043 36.2547 4.41043 36.2547 4.43974 36.1663C4.88304 34.8706 5.59794 33.5777 6.86168 32.9348C7.60626 32.5989 8.59322 32.4949 9.36347 32.8312Z" fill="#E0AB78"/>
<path d="M43.0761 32.8995C44.5807 33.8498 45.3728 35.4679 45.7652 37.1507C45.9117 37.8541 45.9277 38.5506 45.9257 39.267C45.9256 39.3286 45.9256 39.3902 45.9255 39.4536C45.9221 40.4272 45.8574 41.3424 45.5441 42.2702C45.525 42.328 45.5058 42.3857 45.4861 42.4452C45.0428 43.7409 44.3279 45.0338 43.0642 45.6767C40.7821 46.706 37.1253 45.3939 34.9153 44.5768C30.6194 42.906 30.6194 42.906 29.8467 41.747C29.9402 41.7002 30.0337 41.6534 30.1301 41.6053C30.1937 41.5731 30.2574 41.5409 30.3229 41.5078C30.4786 41.4307 30.6354 41.356 30.793 41.283C31.4226 40.9853 31.9434 40.6405 32.4629 40.1772C32.5558 40.0951 32.5558 40.0951 32.6506 40.0113C33.7218 39.006 34.2851 37.5876 34.5559 36.1657C35.2587 36.3049 35.9306 36.5207 36.6108 36.7434C36.7248 36.7805 36.8389 36.8175 36.9529 36.8545C37.2296 36.9443 37.5062 37.0345 37.7826 37.125C37.7968 37.0426 37.7968 37.0426 37.8112 36.9585C37.902 36.4644 38.0236 36.0186 38.2296 35.5607C38.256 35.5011 38.2825 35.4415 38.3098 35.3802C38.5619 34.8339 38.885 34.3643 39.2652 33.8983C39.31 33.8393 39.3549 33.7803 39.4011 33.7195C40.2509 32.644 41.833 32.3062 43.0761 32.8995Z" fill="#E0AB78"/>
<path d="M29.5959 34.1324C30.1926 34.6891 30.542 35.3632 30.5712 36.1818C30.5554 36.9755 30.1884 37.5752 29.6491 38.1375C28.1022 39.4857 26.0388 39.7533 24.0616 39.67C22.5924 39.5673 21.0242 38.9194 20.0122 37.8312C19.5472 37.2602 19.3144 36.6154 19.3398 35.8759C19.472 35.1326 19.9097 34.4321 20.515 33.9852C23.2114 32.2545 26.9822 32.0606 29.5959 34.1324Z" fill="#E0AB78"/>
<path d="M17.7179 4.6595C17.9322 4.80461 18.1337 4.95768 18.3348 5.12041C18.4247 5.18516 18.5147 5.24991 18.6073 5.31662C18.9807 5.67378 19.263 6.09152 19.5557 6.51572C19.4264 6.83685 19.2525 6.98585 18.978 7.19158C16.9939 8.74539 15.6361 11.1033 15.0001 13.5213C14.9337 13.7539 14.9337 13.7539 14.8465 13.8411C13.7972 13.9058 12.8519 13.439 12.0558 12.7946C11.9641 12.7281 11.8723 12.6615 11.7778 12.593C10.9383 11.7907 10.3362 10.6257 10.2708 9.45795C10.2678 9.30025 10.2669 9.1425 10.268 8.98478C10.2685 8.90134 10.269 8.8179 10.2696 8.73193C10.2977 7.60148 10.6398 6.70198 11.3581 5.81806C11.4121 5.74634 11.4661 5.67462 11.5217 5.60073C12.9912 3.86647 15.7949 3.53241 17.7179 4.6595Z" fill="#8F5C32"/>
<path d="M37.4875 4.82013C37.6163 4.91797 37.7435 5.0179 37.869 5.11991C37.9408 5.17387 38.0125 5.22783 38.0864 5.28342C38.9131 5.98396 39.5361 7.10352 39.63 8.19271C39.6798 9.69998 39.5497 10.8821 38.5667 12.0965C38.5002 12.1882 38.4336 12.28 38.365 12.3745C37.6471 13.1258 36.5527 13.7683 35.4977 13.8566C35.3578 13.8569 35.218 13.8497 35.0784 13.8406C35.046 13.7399 35.0136 13.6392 34.9803 13.5354C34.9263 13.3754 34.8717 13.2155 34.8168 13.0558C34.7817 12.9532 34.7466 12.8507 34.7105 12.7451C33.8726 10.3679 32.398 8.2032 30.3691 6.68964C30.9014 5.49729 31.8598 4.71463 33.0671 4.24238C34.5502 3.80223 36.1975 3.94249 37.4875 4.82013Z" fill="#8F5D32"/>
<path d="M31.9396 23.6055C32.4346 23.8245 32.8404 24.1968 33.2636 24.5283C33.4177 24.6485 33.5727 24.7674 33.728 24.886C36.553 27.0546 38.6936 29.8664 39.7001 33.3195C39.7011 33.5471 39.7011 33.5471 39.5624 33.7399C39.4949 33.8022 39.4273 33.8645 39.3577 33.9286C38.513 34.8049 38.1251 35.9764 37.7825 37.1226C37.3512 37.0723 36.9686 36.9799 36.5592 36.8361C36.5039 36.8169 36.4487 36.7976 36.3917 36.7778C36.2174 36.717 36.0434 36.6555 35.8694 36.5939C35.7503 36.5522 35.6313 36.5106 35.5122 36.4691C35.2223 36.3677 34.9326 36.2657 34.643 36.1633C34.6451 36.0502 34.6451 36.0502 34.6472 35.9348C34.7118 31.8269 33.7914 28.1433 30.8931 25.088C30.8045 25.0003 30.7156 24.913 30.626 24.8264C30.457 24.652 30.457 24.652 30.457 24.4775C30.5421 24.4292 30.6272 24.3809 30.7149 24.3311C30.827 24.2673 30.9391 24.2034 31.0511 24.1396C31.1072 24.1078 31.1632 24.076 31.221 24.0432C31.4658 23.9036 31.7049 23.7619 31.9396 23.6055Z" fill="#8F5D32"/>
<path d="M17.8118 23.6055C18.195 23.7447 18.5348 23.9351 18.8856 24.1396C18.9418 24.1721 18.9981 24.2046 19.0561 24.2381C19.1938 24.3176 19.3313 24.3976 19.4688 24.4775C19.3376 24.7917 19.1556 24.9725 18.9074 25.2025C16.6735 27.4042 15.3109 30.803 15.2665 33.9248C15.2653 34.2331 15.2681 34.5414 15.2719 34.8498C15.2728 34.9782 15.2735 35.1067 15.2743 35.2352C15.2761 35.5446 15.2791 35.854 15.2828 36.1633C14.892 36.3006 14.5009 36.4372 14.1096 36.5732C13.9766 36.6195 13.8436 36.666 13.7107 36.7128C13.5195 36.7799 13.3281 36.8464 13.1366 36.9128C13.0774 36.9337 13.0182 36.9547 12.9571 36.9763C12.6652 37.0767 12.4565 37.1226 12.1433 37.1226C12.1126 37.0224 12.0819 36.9223 12.0503 36.8191C11.6816 35.646 11.3025 34.6136 10.3579 33.7747C10.2075 33.5178 10.2113 33.4708 10.2663 33.1908C10.4032 32.7038 10.5905 32.2362 10.7861 31.7703C10.8244 31.679 10.8626 31.5877 10.9021 31.4937C12.2216 28.4251 14.4236 26.2401 17.0235 24.2278C17.2883 24.0228 17.5512 23.8157 17.8118 23.6055Z" fill="#8F5D32"/>
<path d="M4.4537 36.8594C5.43901 36.9325 6.30291 37.3185 7.08493 37.9106C7.17307 37.9736 7.2612 38.0365 7.35201 38.1014C8.16558 38.8087 8.73754 39.9062 8.9163 40.9629C8.9394 41.3482 8.93664 41.7325 8.93334 42.1184C8.93309 42.2277 8.93284 42.3371 8.93259 42.4497C8.93178 42.7382 8.93022 43.0266 8.92828 43.3151C8.92648 43.6103 8.9257 43.9056 8.92482 44.2008C8.9229 44.7784 8.91999 45.3561 8.9163 45.9337C8.6935 45.9371 8.47075 45.9396 8.24794 45.9415C8.18531 45.9426 8.12269 45.9436 8.05817 45.9447C7.16791 45.9506 6.61452 45.622 5.97848 45.0099C4.53234 43.5051 3.9975 41.5345 4.00991 39.4893C4.01085 39.3062 4.00991 39.1232 4.0088 38.9401C4.00813 38.2663 4.02972 37.6055 4.20707 36.9514C4.29427 36.8641 4.29427 36.8641 4.4537 36.8594Z" fill="#BF8958"/>
<path d="M45.6313 36.863C46.1922 38.4335 46.074 40.7005 45.5441 42.2698C45.5249 42.3276 45.5058 42.3853 45.486 42.4448C45.0427 43.7405 44.3278 45.0334 43.0641 45.6764C42.5926 45.889 42.2055 45.9438 41.6906 45.938C41.6252 45.9376 41.5598 45.9372 41.4925 45.9368C41.3314 45.9358 41.1703 45.9342 41.0092 45.9325C41.0011 45.304 40.9949 44.6755 40.9912 44.0469C40.9894 43.7549 40.9867 43.463 40.9829 43.171C40.9787 42.8339 40.9767 42.4969 40.9752 42.1598C40.9734 42.0569 40.9716 41.954 40.9697 41.848C40.9694 40.5347 41.4287 39.2899 42.3327 38.3251C43.1789 37.5061 44.4278 36.8028 45.6313 36.863Z" fill="#BF8958"/>
<path d="M26.8813 17.7623C27.26 18.027 27.5777 18.2855 27.7534 18.7216C27.7929 19.1304 27.7986 19.3304 27.6116 19.6973C27.0918 20.3129 26.464 20.6938 25.6604 20.8146C24.4946 20.8797 23.5479 20.7931 22.6081 20.0297C22.2659 19.6534 22.1394 19.4209 22.1479 18.9039C22.2077 18.4529 22.5454 18.135 22.8891 17.8639C24.0617 17.0959 25.6704 17.083 26.8813 17.7623Z" fill="#905D32"/>
<path d="M24.2656 20.8164C24.726 20.8164 25.1865 20.8164 25.6609 20.8164C25.6609 21.2481 25.6609 21.6798 25.6609 22.1245C26.544 21.9524 27.314 21.7338 28.1068 21.3035C28.3644 21.1652 28.3644 21.1652 28.8004 20.9908C29.0306 21.3074 29.2609 21.6239 29.4981 21.9501C29.094 22.7581 27.9583 23.0577 27.1434 23.3454C26.8828 23.4228 26.6273 23.4797 26.3586 23.5198C26.3006 23.5294 26.2426 23.5389 26.1828 23.5488C24.21 23.8228 22.418 23.3956 20.7238 22.3831C20.6551 22.3265 20.5864 22.27 20.5156 22.2117C20.5156 21.8101 20.589 21.7198 20.8209 21.4051C20.8775 21.3273 20.9342 21.2495 20.9925 21.1693C21.0366 21.1104 21.0807 21.0515 21.1261 20.9908C21.471 21.1198 21.7838 21.2841 22.1072 21.4596C22.7943 21.8192 23.5088 21.977 24.2656 22.1245C24.2656 21.6928 24.2656 21.2612 24.2656 20.8164Z" fill="#BF8958"/>
<path d="M29.3217 12.3893C29.7705 12.5389 30.0736 12.86 30.3164 13.2562C30.6664 14.0191 30.6453 14.8574 30.3805 15.6456C30.1914 16.0375 29.8927 16.4362 29.4975 16.6338C29.1387 16.6833 28.9225 16.7073 28.608 16.519C28.0775 16.0807 27.8691 15.6524 27.7533 14.9769C27.6855 14.1905 27.7452 13.4982 28.2561 12.8686C28.5737 12.5566 28.863 12.3423 29.3217 12.3893Z" fill="#905E33"/>
<path d="M20.9497 12.3893C21.3985 12.5389 21.7016 12.86 21.9444 13.2562C22.2944 14.0191 22.2732 14.8574 22.0084 15.6456C21.8193 16.0375 21.5207 16.4362 21.1254 16.6338C20.7666 16.6833 20.5505 16.7073 20.236 16.519C19.7054 16.0807 19.497 15.6524 19.3813 14.9769C19.3134 14.1905 19.3731 13.4982 19.8841 12.8686C20.2016 12.5566 20.4909 12.3423 20.9497 12.3893Z" fill="#905E33"/>
</svg>
