<svg width="50" height="50" viewBox="0 0 50 50" fill="none" xmlns="http://www.w3.org/2000/svg">
<path d="M12.3103 4.03828C12.6363 4.20127 12.8605 4.37892 13.0472 4.69323C13.126 4.94535 13.1401 5.17587 13.142 5.43928C13.1428 5.52377 13.1436 5.60826 13.1444 5.69531C13.1449 5.78753 13.1453 5.87974 13.1458 5.97476C13.1466 6.07222 13.1475 6.16969 13.1483 6.27011C13.1504 6.537 13.1522 6.80389 13.1539 7.07079C13.1557 7.34985 13.1579 7.62891 13.1601 7.90797C13.1642 8.43624 13.1678 8.96451 13.1714 9.49278C13.1754 10.0943 13.1799 10.6958 13.1845 11.2973C13.1938 12.5344 13.2025 13.7716 13.2109 15.0087C14.274 15.5412 15.3372 16.0735 16.4005 16.6056C16.8942 16.8527 17.3878 17.0998 17.8814 17.3471C18.3575 17.5856 18.8337 17.8239 19.3099 18.0621C19.4918 18.1532 19.6737 18.2443 19.8556 18.3354C20.1098 18.4628 20.364 18.59 20.6183 18.7171C20.694 18.7551 20.7697 18.7931 20.8476 18.8322C20.9515 18.884 20.9515 18.884 21.0574 18.9369C21.1176 18.967 21.1777 18.9971 21.2397 19.0282C21.4092 19.1113 21.4092 19.1113 21.6434 19.184C21.6752 19.0938 21.6752 19.0938 21.7076 19.0018C22.0462 18.2288 22.8104 17.7036 23.5638 17.3778C24.6335 16.9987 25.7234 17.0801 26.7592 17.5208C27.4181 17.8661 27.9622 18.3908 28.3566 19.0203C28.3566 19.0743 28.3566 19.1284 28.3566 19.184C30.054 18.3867 31.7285 17.5439 33.4049 16.7036C33.7875 16.5119 34.1702 16.3204 34.5528 16.1288C35.2983 15.7556 36.0437 15.3823 36.789 15.0087C36.7893 14.9323 36.7893 14.9323 36.7896 14.8543C36.7945 13.6134 36.8007 12.3725 36.8083 11.1316C36.812 10.5315 36.8152 9.93139 36.8174 9.33128C36.8193 8.80809 36.822 8.28492 36.8258 7.76174C36.8277 7.48484 36.8293 7.20795 36.8298 6.93104C36.8306 6.62156 36.8329 6.31211 36.8355 6.00264C36.8354 5.9113 36.8353 5.81997 36.8352 5.72587C36.8411 5.23726 36.8749 4.87655 37.1165 4.44763C37.5338 4.06091 37.8078 4.00903 38.3641 4.01558C38.7783 4.05718 38.9843 4.25982 39.2555 4.55586C39.5193 4.96656 39.455 5.46955 39.4525 5.93946C39.4531 6.04978 39.4538 6.1601 39.4546 6.27041C39.4565 6.56915 39.4562 6.86785 39.4555 7.16659C39.4551 7.41642 39.4557 7.66624 39.4563 7.91607C39.4577 8.50573 39.4574 9.09538 39.456 9.68504C39.4546 10.2923 39.4559 10.8995 39.4586 11.5068C39.4608 12.0291 39.4614 12.5514 39.4607 13.0737C39.4603 13.3853 39.4604 13.6968 39.4621 14.0083C39.4636 14.3015 39.4631 14.5945 39.4611 14.8877C39.4605 15.0457 39.4619 15.2038 39.4634 15.3619C39.458 15.8555 39.443 16.2677 39.141 16.6735C38.8536 16.9504 38.5104 17.1109 38.1532 17.2812C38.07 17.3226 37.9869 17.3641 37.9011 17.4068C37.7267 17.4937 37.5519 17.5797 37.3767 17.6651C37.051 17.8243 36.7279 17.9884 36.4046 18.1525C35.9983 18.3585 35.5908 18.562 35.1833 18.7657C35.0065 18.8543 34.8297 18.9428 34.6529 19.0314C34.2872 19.2145 33.9214 19.3974 33.5556 19.5803C33.0861 19.8151 32.6168 20.0503 32.1475 20.2856C31.7848 20.4675 31.4219 20.649 31.0589 20.8305C30.8855 20.9172 30.7122 21.004 30.539 21.091C30.299 21.2113 30.0588 21.3313 29.8186 21.4512C29.7471 21.4872 29.6757 21.5231 29.602 21.5602C29.537 21.5925 29.472 21.6249 29.405 21.6582C29.3484 21.6865 29.2919 21.7148 29.2336 21.7439C29.0934 21.8039 29.0934 21.8039 28.9297 21.8039C28.9297 22.1821 28.9297 22.5603 28.9297 22.95C29.0874 22.8756 29.2452 22.8012 29.4078 22.7246C30.5685 22.178 31.7313 21.6367 32.9003 21.108C33.7904 20.7054 34.6772 20.2963 35.561 19.8799C36.4448 19.4635 37.3316 19.0545 38.2217 18.6519C39.3052 18.1618 40.3835 17.6612 41.4592 17.1544C41.6072 17.0847 41.7553 17.0152 41.9034 16.9457C42.101 16.8528 42.2983 16.7594 42.4954 16.6653C42.6386 16.5977 42.6386 16.5977 42.7846 16.5287C42.8697 16.4883 42.9547 16.4478 43.0423 16.4061C43.2567 16.3186 43.2567 16.3186 43.5023 16.3186C43.5014 16.1785 43.5014 16.1785 43.5006 16.0354C43.4956 15.1549 43.492 14.2743 43.4895 13.3937C43.4883 12.941 43.4865 12.4883 43.4837 12.0356C43.4811 11.5987 43.4796 11.1618 43.479 10.7249C43.4785 10.5582 43.4776 10.3915 43.4763 10.2248C43.4745 9.99141 43.4743 9.75801 43.4744 9.52456C43.4731 9.42113 43.4731 9.42113 43.4717 9.3156C43.4737 8.93383 43.5025 8.68838 43.7479 8.37734C44.1575 8.01766 44.3952 7.93969 44.9314 7.94433C45.3247 7.98903 45.6295 8.24209 45.8765 8.54108C45.9527 8.76972 45.9691 8.90911 45.9704 9.14548C45.9712 9.25548 45.9713 9.25548 45.9722 9.36771C45.9725 9.48809 45.9725 9.48809 45.9728 9.61091C45.9736 9.73794 45.9736 9.73794 45.9744 9.86754C45.9761 10.1482 45.977 10.4289 45.9778 10.7096C45.9782 10.8055 45.9785 10.9013 45.9788 11C45.9806 11.5069 45.9817 12.0139 45.9825 12.5209C45.9834 13.0448 45.9862 13.5687 45.9895 14.0926C45.9916 14.4952 45.9923 14.8979 45.9926 15.3005C45.993 15.4937 45.9939 15.6868 45.9955 15.8799C45.9974 16.1502 45.9974 16.4204 45.9968 16.6907C45.9978 16.7704 45.9989 16.8502 46 16.9324C45.9964 17.3963 45.9495 17.675 45.6308 18.0379C45.4785 18.1645 45.4785 18.1645 45.3235 18.2538C45.2664 18.2869 45.2092 18.32 45.1503 18.3541C44.8796 18.4986 44.6054 18.6314 44.3257 18.7577C44.2645 18.7859 44.2033 18.814 44.1403 18.8429C43.9397 18.9349 43.7389 19.0262 43.5381 19.1175C43.3955 19.1828 43.253 19.2481 43.1105 19.3134C42.8148 19.449 42.5189 19.5843 42.223 19.7195C41.609 20.0003 40.9961 20.2836 40.3832 20.5668C40.0535 20.7192 39.7236 20.8714 39.3938 21.0235C38.9145 21.2447 38.4352 21.4661 37.956 21.6875C37.6739 21.8179 37.3919 21.9482 37.1098 22.0784C36.9782 22.1393 36.8465 22.2001 36.7149 22.261C35.6773 22.7407 34.6372 23.2148 33.5962 23.6868C33.6741 23.6871 33.7519 23.6874 33.8322 23.6877C34.567 23.6908 35.3017 23.6955 36.0365 23.7019C36.4142 23.7051 36.7919 23.7078 37.1697 23.709C37.5344 23.7103 37.899 23.7131 38.2637 23.717C38.4027 23.7182 38.5417 23.7189 38.6807 23.7189C38.8757 23.7191 39.0706 23.7213 39.2656 23.724C39.3228 23.7236 39.38 23.7232 39.4389 23.7228C39.9236 23.733 40.2085 23.9211 40.5508 24.249C40.9084 24.6621 41.2496 25.0858 41.585 25.5169C41.878 25.8934 42.1771 26.2646 42.4789 26.6341C42.8479 27.0862 43.2115 27.542 43.5705 28.002C43.8587 28.3703 44.153 28.7332 44.4489 29.0953C44.7841 29.5064 45.1166 29.9194 45.4415 30.3387C45.506 30.4219 45.5705 30.505 45.6369 30.5907C45.9829 31.0707 46.0248 31.4502 45.9583 32.0375C45.7849 32.4349 45.5451 32.6321 45.1572 32.8047C44.7345 32.9247 44.3812 32.8532 44.0028 32.6432C43.6966 32.4073 43.478 32.1462 43.2413 31.843C43.1951 31.785 43.1489 31.7269 43.1012 31.6671C42.9613 31.491 42.8223 31.3141 42.6836 31.1369C42.6063 31.0386 42.529 30.9403 42.4517 30.8421C42.3423 30.7028 42.233 30.5635 42.124 30.424C41.8374 30.0576 41.545 29.6962 41.2509 29.3358C40.9579 28.9767 40.6659 28.617 40.3805 28.2518C40.3072 28.1585 40.2335 28.0656 40.159 27.9733C39.9625 27.728 39.7819 27.4819 39.6161 27.2148C39.1792 26.5412 39.1792 26.5412 38.4827 26.1991C38.0665 26.1497 37.6532 26.1681 37.2355 26.1867C37.0827 26.189 36.9299 26.1908 36.7771 26.192C36.378 26.1966 35.9794 26.2087 35.5804 26.2223C35.1721 26.235 34.7638 26.2405 34.3554 26.2467C33.5563 26.2598 32.7576 26.2807 31.9588 26.3066C32.0148 26.3434 32.0148 26.3434 32.0719 26.3808C34.0241 27.6616 35.9703 28.9507 37.9041 30.2591C38.0079 30.3293 38.0079 30.3293 38.1138 30.4009C38.248 30.4918 38.3822 30.5828 38.5163 30.6738C38.8234 30.8821 39.1314 31.0885 39.4429 31.2903C39.4992 31.3271 39.5556 31.3638 39.6137 31.4017C39.7175 31.4691 39.8216 31.536 39.9261 31.6022C40.3051 31.8491 40.5739 32.0943 40.7187 32.5287C40.7269 32.6968 40.7301 32.8652 40.7308 33.0336C40.7317 33.1921 40.7317 33.1921 40.7326 33.3539C40.7328 33.4713 40.733 33.5887 40.7332 33.7061C40.7337 33.8296 40.7343 33.953 40.7349 34.0765C40.7366 34.4821 40.7374 34.8877 40.7382 35.2934C40.7386 35.433 40.7389 35.5727 40.7393 35.7123C40.7408 36.3684 40.742 37.0244 40.7427 37.6805C40.7435 38.4377 40.7456 39.195 40.7489 39.9523C40.7514 40.5376 40.7526 41.123 40.7529 41.7084C40.7531 42.058 40.7538 42.4076 40.7559 42.7572C40.7578 43.0861 40.7581 43.415 40.7573 43.744C40.7572 43.8645 40.7577 43.9851 40.7589 44.1057C40.7603 44.2706 40.7595 44.4355 40.7587 44.6004C40.7589 44.6927 40.7591 44.7849 40.7593 44.8799C40.6943 45.2911 40.4812 45.5444 40.1815 45.8222C39.782 46.011 39.4339 46.0173 38.9995 45.9552C38.6088 45.7847 38.432 45.563 38.2488 45.1806C38.1074 44.7484 38.1386 44.2964 38.1436 43.8463C38.1437 43.7333 38.1437 43.6202 38.1435 43.5072C38.1434 43.2021 38.1453 42.897 38.1476 42.5919C38.1497 42.2724 38.1498 41.953 38.1502 41.6335C38.1512 41.0292 38.1539 40.425 38.1572 39.8208C38.1609 39.1326 38.1627 38.4444 38.1643 37.7561C38.1677 36.3411 38.1735 34.9261 38.1808 33.5111C38.1165 33.486 38.0523 33.461 37.9861 33.4351C37.7895 33.3548 37.6336 33.2677 37.459 33.1485C37.4001 33.1086 37.3411 33.0686 37.2804 33.0275C37.1852 32.9622 37.1852 32.9622 37.0881 32.8955C37.0202 32.8494 36.9523 32.8033 36.8824 32.7559C36.7353 32.656 36.5883 32.5559 36.4414 32.4557C36.0478 32.1872 35.6531 31.9201 35.2585 31.6531C35.1766 31.5976 35.0947 31.5422 35.0103 31.4851C34.0947 30.8661 33.1732 30.2562 32.2505 29.6479C32.1719 29.596 32.0933 29.5441 32.0124 29.4907C31.7901 29.3439 31.5676 29.1973 31.3451 29.0509C31.2462 28.9855 31.2462 28.9855 31.1453 28.9189C31.0844 28.8789 31.0236 28.839 30.9609 28.7978C30.9082 28.7632 30.8556 28.7285 30.8013 28.6928C30.6454 28.5968 30.4864 28.5147 30.3214 28.4352C30.3648 28.4779 30.4082 28.5205 30.4529 28.5645C30.8632 28.9683 31.2728 29.3728 31.6814 29.7783C31.8915 29.9867 32.1019 30.1948 32.313 30.4021C32.5171 30.6026 32.7203 30.8039 32.9229 31.0057C33.0374 31.1192 33.1527 31.232 33.2679 31.3447C33.7267 31.8033 34.1022 32.2006 34.2103 32.8618C34.2102 32.9406 34.21 33.0193 34.2099 33.1005C34.2102 33.2344 34.2102 33.2344 34.2106 33.371C34.2088 33.4645 34.2069 33.558 34.2051 33.6544C34.2039 33.7519 34.2028 33.8495 34.2016 33.95C34.1466 36.6204 33.2521 39.0005 31.3351 40.8866C29.4448 42.6809 27.0352 43.4203 24.4675 43.3639C21.9053 43.2587 19.7101 42.0246 17.9836 40.1789C17.7223 39.8878 17.5092 39.5743 17.3043 39.2419C17.2506 39.1572 17.1969 39.0725 17.1415 38.9851C16.1519 37.3755 15.8205 35.5793 15.8051 33.7107C15.8027 33.6141 15.8004 33.5174 15.7979 33.4179C15.7972 33.3236 15.7965 33.2293 15.7958 33.1322C15.794 33.0054 15.794 33.0054 15.7922 32.8761C15.9049 32.0982 16.4367 31.6333 16.9781 31.1037C17.0585 31.0239 17.1388 30.9441 17.219 30.8642C17.4288 30.6556 17.6395 30.4481 17.8505 30.2408C18.0662 30.0284 18.281 29.8151 18.4959 29.6019C18.9165 29.1848 19.3381 28.7687 19.7604 28.3534C19.2038 28.706 18.6494 29.0618 18.099 29.4241C17.9942 29.493 17.9942 29.493 17.8873 29.5633C17.6605 29.7125 17.4338 29.8619 17.2071 30.0112C17.1293 30.0624 17.0515 30.1137 16.9713 30.1664C16.0769 30.7553 15.185 31.3475 14.2985 31.9482C14.2226 31.9997 14.1467 32.0511 14.0685 32.1041C13.7049 32.3506 13.3417 32.5977 12.979 32.8455C12.8488 32.934 12.7187 33.0225 12.5886 33.111C12.5292 33.1519 12.4699 33.1927 12.4087 33.2347C12.0014 33.5111 12.0014 33.5111 11.8191 33.5111C11.8194 33.5696 11.8197 33.628 11.82 33.6883C11.8273 35.1123 11.8327 36.5364 11.8361 37.9604C11.8378 38.6491 11.8401 39.3378 11.8438 40.0264C11.8471 40.6268 11.8492 41.2272 11.8499 41.8276C11.8504 42.1454 11.8514 42.4631 11.8538 42.7809C11.856 43.0803 11.8567 43.3797 11.8562 43.6792C11.8563 43.8407 11.8581 44.0023 11.8599 44.1639C11.8572 44.7463 11.8104 45.1349 11.4917 45.6277C11.194 45.9181 10.9541 45.9786 10.5502 45.9961C10.1473 45.9797 9.91158 45.9085 9.60868 45.6277C9.33477 45.275 9.24022 45.0483 9.23962 44.6027C9.2387 44.4967 9.23777 44.3908 9.23682 44.2817C9.23746 44.1653 9.23813 44.0489 9.23883 43.9325C9.23839 43.8091 9.2378 43.6858 9.23709 43.5624C9.2356 43.2282 9.23618 42.8939 9.23721 42.5597C9.23804 42.2094 9.23727 41.8592 9.23676 41.5089C9.23617 40.9207 9.23695 40.3325 9.23851 39.7443C9.24029 39.0649 9.23971 38.3856 9.23791 37.7063C9.23642 37.1224 9.23622 36.5385 9.23707 35.9545C9.23758 35.6061 9.23765 35.2576 9.23657 34.9092C9.23562 34.5814 9.23628 34.2537 9.23817 33.926C9.2386 33.806 9.23848 33.686 9.23776 33.5659C9.23159 32.44 9.23159 32.44 9.60868 31.9556C9.78009 31.7943 9.78009 31.7943 9.97709 31.6598C10.057 31.6047 10.1369 31.5497 10.2192 31.493C10.3158 31.4287 10.4125 31.3646 10.5092 31.3007C10.5935 31.2444 10.5935 31.2444 10.6795 31.187C11.0902 30.9132 11.5028 30.6422 11.916 30.3719C13.4619 29.3603 14.9974 28.334 16.5267 27.2976C16.598 27.2494 16.6694 27.2011 16.7428 27.1513C16.8755 27.0615 17.0081 26.9715 17.1407 26.8814C17.1996 26.8415 17.2586 26.8016 17.3193 26.7604C17.3701 26.7259 17.4209 26.6915 17.4732 26.6559C17.6594 26.5342 17.8497 26.4202 18.0411 26.3066C17.1644 26.2742 16.2878 26.2496 15.4106 26.2345C15.0031 26.2273 14.596 26.2175 14.1888 26.2017C12.3602 26.028 12.3602 26.028 10.7077 26.5982C10.4489 26.8751 10.2708 27.1707 10.1118 27.5133C9.94714 27.8384 9.71287 28.1111 9.48587 28.3943C9.39795 28.5097 9.31029 28.6254 9.223 28.7413C8.90127 29.162 8.56357 29.569 8.22517 29.9762C7.92172 30.3419 7.6241 30.7112 7.33171 31.0857C7.29525 31.1321 7.2588 31.1785 7.22124 31.2263C7.04909 31.4455 6.87875 31.6655 6.71066 31.8878C6.05262 32.7367 6.05262 32.7367 5.51525 32.8562C5.02358 32.8864 4.66557 32.7711 4.28722 32.4468C3.99763 32.1283 3.98912 31.781 4.00452 31.3669C4.07005 30.9606 4.27576 30.713 4.53283 30.4001C4.6122 30.3012 4.6915 30.2023 4.77076 30.1033C4.95316 29.8768 5.13701 29.6515 5.32177 29.4269C5.56803 29.127 5.80883 28.8232 6.04739 28.5171C6.41428 28.0471 6.78909 27.5841 7.16605 27.1221C7.45188 26.7713 7.73368 26.4177 8.01224 26.061C8.34764 25.6328 8.68485 25.206 9.02536 24.7818C9.09114 24.6989 9.09114 24.6989 9.15824 24.6143C9.43214 24.2747 9.70273 23.9673 10.0999 23.7687C10.2997 23.7587 10.4973 23.7535 10.6972 23.7519C10.7587 23.7511 10.8202 23.7503 10.8835 23.7494C11.0873 23.7469 11.2911 23.7448 11.4949 23.7428C11.636 23.7411 11.7771 23.7394 11.9182 23.7376C12.2899 23.7331 12.6616 23.7291 13.0334 23.7251C13.4126 23.721 13.7917 23.7165 14.1709 23.7119C14.9152 23.7031 15.6595 23.6948 16.4038 23.6868C14.3552 22.7368 12.3059 21.7885 10.2554 20.8427C9.9133 20.6849 9.57118 20.5271 9.22909 20.3692C9.08954 20.3047 8.94998 20.2404 8.81043 20.176C8.47017 20.019 8.12999 19.8618 7.78998 19.7043C7.24784 19.4532 6.70575 19.2025 6.15961 18.9602C6.00711 18.8926 5.85483 18.8245 5.70259 18.7563C5.52322 18.6761 5.3434 18.597 5.16305 18.5191C4.6412 18.2847 4.30419 18.0718 4.04161 17.5467C4.03358 17.4304 4.03056 17.3137 4.03012 17.1972C4.02965 17.1238 4.02918 17.0505 4.0287 16.9749C4.02861 16.8942 4.02852 16.8136 4.02842 16.7304C4.02802 16.6456 4.02761 16.5608 4.02719 16.4734C4.02599 16.1919 4.02544 15.9104 4.02498 15.6288C4.02451 15.4336 4.02404 15.2384 4.02357 15.0433C4.02271 14.6336 4.02223 14.2238 4.02195 13.8141C4.0215 13.2888 4.01953 12.7636 4.0172 12.2383C4.01568 11.835 4.01525 11.4316 4.01512 11.0283C4.01488 10.8346 4.01422 10.6409 4.01314 10.4473C4.01175 10.1764 4.0119 9.90557 4.01243 9.6347C4.01168 9.55451 4.01092 9.47433 4.01015 9.39172C4.01264 8.98697 4.0193 8.70339 4.28722 8.37734C4.69685 8.01766 4.93457 7.93969 5.4708 7.94433C5.86407 7.98903 6.16882 8.24209 6.4158 8.54108C6.52323 8.86337 6.50839 9.17009 6.50697 9.50598C6.50698 9.57947 6.50699 9.65297 6.507 9.7287C6.50694 9.9719 6.50631 10.2151 6.50567 10.4583C6.50551 10.6268 6.5054 10.7953 6.50532 10.9638C6.505 11.4076 6.5042 11.8513 6.50329 12.2951C6.50246 12.7478 6.50208 13.2005 6.50167 13.6533C6.50079 14.5417 6.49939 15.4302 6.49767 16.3186C6.55987 16.3299 6.62207 16.3411 6.68615 16.3527C6.96802 16.4137 7.20081 16.5272 7.46091 16.6519C7.51473 16.6775 7.56856 16.7031 7.62401 16.7295C7.74038 16.7848 7.85666 16.8404 7.97285 16.8962C8.28675 17.0468 8.60138 17.1958 8.91599 17.3449C8.98064 17.3755 9.04528 17.4062 9.11189 17.4378C9.7552 17.7423 10.4029 18.0367 11.0516 18.3295C11.9384 18.7303 12.8218 19.1376 13.7021 19.5525C14.6414 19.995 15.5845 20.4285 16.5305 20.8563C17.516 21.3022 18.4964 21.7582 19.4746 22.2196C20.004 22.4691 20.5342 22.7152 21.0703 22.95C21.0703 22.5718 21.0703 22.1935 21.0703 21.8039C20.8271 21.7228 20.8271 21.7228 20.5791 21.6401C20.4409 21.578 20.304 21.5131 20.1684 21.4455C20.0898 21.4065 20.0112 21.3674 19.9302 21.3272C19.8453 21.2847 19.7605 21.2422 19.6731 21.1983C19.5826 21.1533 19.4922 21.1083 19.399 21.0619C19.1519 20.9389 18.905 20.8155 18.6581 20.692C18.4517 20.5887 18.2451 20.4857 18.0386 20.3826C17.5513 20.1394 17.0641 19.8958 16.577 19.652C16.0752 19.4008 15.5731 19.1503 15.0708 18.9C14.6389 18.6848 14.2071 18.4691 13.7755 18.2532C13.518 18.1244 13.2605 17.9957 13.0028 17.8674C12.7154 17.7243 12.4284 17.5805 12.1415 17.4365C12.0564 17.3943 11.9714 17.3521 11.8838 17.3087C10.7965 16.761 10.7965 16.761 10.5911 16.1549C10.5554 15.7931 10.5567 15.4331 10.558 15.0698C10.5576 14.9592 10.557 14.8486 10.5563 14.7381C10.5549 14.4387 10.5549 14.1393 10.5554 13.8399C10.5557 13.5896 10.5552 13.3394 10.5547 13.0891C10.5535 12.4987 10.5536 11.9083 10.5546 11.3178C10.5555 10.7093 10.5544 10.1007 10.5522 9.49215C10.5504 8.969 10.5498 8.44587 10.5503 7.92272C10.5506 7.61055 10.5504 7.2984 10.549 6.98622C10.5477 6.69269 10.548 6.3992 10.5496 6.10566C10.55 5.94698 10.5488 5.78829 10.5476 5.62961C10.5521 5.1037 10.5558 4.76111 10.9186 4.36576C11.3367 3.97824 11.7662 3.95731 12.3103 4.03828Z" fill="#FE5B78"/>
<path d="M38.5902 4.03955C38.969 4.21863 39.25 4.46604 39.4089 4.85824C39.4582 5.21886 39.4544 5.57721 39.4525 5.94073C39.4531 6.05105 39.4538 6.16137 39.4547 6.27168C39.4565 6.57042 39.4563 6.86912 39.4556 7.16786C39.4551 7.41769 39.4557 7.66751 39.4563 7.91734C39.4577 8.507 39.4574 9.09665 39.4561 9.68631C39.4547 10.2936 39.456 10.9008 39.4586 11.5081C39.4608 12.0304 39.4614 12.5527 39.4607 13.075C39.4603 13.3865 39.4605 13.6981 39.4622 14.0096C39.4637 14.3027 39.4632 14.5958 39.4612 14.889C39.4606 15.047 39.462 15.2051 39.4634 15.3632C39.4581 15.8568 39.4431 16.269 39.141 16.6748C38.8537 16.9517 38.5105 17.1122 38.1533 17.2824C38.0701 17.3239 37.9869 17.3654 37.9012 17.4081C37.7267 17.4949 37.5519 17.581 37.3767 17.6664C37.051 17.8256 36.7279 17.9896 36.4047 18.1538C35.9984 18.3598 35.5908 18.5632 35.1834 18.767C35.0066 18.8555 34.8298 18.9441 34.653 19.0326C34.2873 19.2157 33.9215 19.3987 33.5556 19.5816C33.0861 19.8164 32.6168 20.0516 32.1476 20.2869C31.7848 20.4687 31.4219 20.6503 31.0589 20.8317C30.8856 20.9185 30.7123 21.0053 30.539 21.0922C30.2991 21.2126 30.0589 21.3326 29.8186 21.4525C29.7114 21.5064 29.7114 21.5064 29.602 21.5615C29.537 21.5938 29.472 21.6261 29.405 21.6594C29.3485 21.6877 29.2919 21.7161 29.2336 21.7452C29.0934 21.8051 29.0934 21.8051 28.9297 21.8051C28.9297 22.1834 28.9297 22.5616 28.9297 22.9513C29.0875 22.8769 29.2452 22.8025 29.4078 22.7258C30.5685 22.1792 31.7313 21.6379 32.9003 21.1092C33.7905 20.7066 34.6773 20.2976 35.561 19.8812C36.4448 19.4648 37.3316 19.0558 38.2218 18.6532C39.3053 18.1631 40.3835 17.6625 41.4593 17.1557C41.6073 17.086 41.7554 17.0165 41.9035 16.947C42.1011 16.8541 42.2983 16.7606 42.4954 16.6666C42.6386 16.599 42.6386 16.599 42.7847 16.53C42.8697 16.4895 42.9547 16.4491 43.0423 16.4074C43.2567 16.3199 43.2567 16.3199 43.5023 16.3199C43.5015 16.1797 43.5015 16.1797 43.5006 16.0367C43.4957 15.1561 43.492 14.2756 43.4896 13.395C43.4883 12.9423 43.4866 12.4895 43.4838 12.0368C43.4811 11.6 43.4796 11.1631 43.479 10.7262C43.4785 10.5595 43.4777 10.3928 43.4763 10.2261C43.4745 9.99268 43.4743 9.75928 43.4744 9.52583C43.4735 9.45688 43.4726 9.38792 43.4717 9.31687C43.4738 8.9351 43.5025 8.68965 43.7479 8.37861C44.1575 8.01893 44.3953 7.94096 44.9315 7.9456C45.3248 7.9903 45.6295 8.24336 45.8765 8.54235C45.9527 8.77099 45.9691 8.91038 45.9704 9.14675C45.9713 9.25675 45.9713 9.25675 45.9722 9.36898C45.9724 9.44923 45.9726 9.52949 45.9728 9.61218C45.9734 9.69687 45.9739 9.78156 45.9745 9.86881C45.9761 10.1495 45.977 10.4302 45.9779 10.7109C45.9782 10.8067 45.9785 10.9025 45.9789 11.0012C45.9806 11.5082 45.9818 12.0152 45.9825 12.5222C45.9834 13.0461 45.9862 13.5699 45.9895 14.0938C45.9916 14.4965 45.9923 14.8991 45.9926 15.3018C45.993 15.4949 45.994 15.6881 45.9955 15.8812C45.9975 16.1515 45.9974 16.4217 45.9968 16.6919C45.9984 16.8116 45.9984 16.8116 46 16.9336C45.9964 17.3976 45.9495 17.6763 45.6309 18.0392C45.4785 18.1657 45.4785 18.1657 45.3236 18.2551C45.2664 18.2882 45.2092 18.3213 45.1503 18.3554C44.8796 18.4999 44.6054 18.6327 44.3258 18.759C44.2646 18.7871 44.2034 18.8152 44.1403 18.8442C43.9397 18.9361 43.7389 19.0275 43.5381 19.1188C43.3956 19.184 43.253 19.2493 43.1105 19.3147C42.8148 19.4502 42.519 19.5856 42.2231 19.7208C41.609 20.0015 40.9961 20.2848 40.3832 20.5681C40.0535 20.7205 39.7237 20.8726 39.3938 21.0248C38.9145 21.246 38.4352 21.4673 37.956 21.6888C37.674 21.8191 37.3919 21.9494 37.1098 22.0797C36.9782 22.1405 36.8465 22.2014 36.7149 22.2622C35.6774 22.742 34.6373 23.216 33.5962 23.6881C33.6741 23.6884 33.752 23.6887 33.8322 23.689C34.567 23.692 35.3018 23.6968 36.0365 23.7032C36.4143 23.7064 36.792 23.709 37.1697 23.7103C37.5344 23.7115 37.8991 23.7144 38.2638 23.7183C38.4027 23.7195 38.5417 23.7201 38.6807 23.7202C38.8757 23.7204 39.0706 23.7226 39.2656 23.7253C39.3228 23.7249 39.38 23.7245 39.4389 23.724C39.9236 23.7343 40.2085 23.9224 40.5509 24.2503C40.9084 24.6633 41.2496 25.0871 41.585 25.5181C41.8781 25.8947 42.1771 26.2659 42.4789 26.6354C42.8479 27.0875 43.2115 27.5433 43.5706 28.0033C43.8587 28.3716 44.1531 28.7345 44.4489 29.0966C44.7842 29.5077 45.1166 29.9207 45.4416 30.34C45.506 30.4231 45.5705 30.5063 45.637 30.592C45.9829 31.0719 46.0248 31.4515 45.9584 32.0387C45.785 32.4361 45.5451 32.6333 45.1573 32.8059C44.7345 32.926 44.3812 32.8544 44.0028 32.6444C43.6966 32.4086 43.478 32.1475 43.2413 31.8443C43.1951 31.7863 43.1489 31.7282 43.1013 31.6684C42.9613 31.4923 42.8223 31.3153 42.6836 31.1382C42.6063 31.0399 42.5291 30.9416 42.4518 30.8433C42.3424 30.7041 42.2331 30.5648 42.1241 30.4252C41.8374 30.0589 41.545 29.6975 41.2509 29.3371C40.9579 28.9779 40.6659 28.6183 40.3805 28.253C40.3072 28.1598 40.2335 28.0669 40.159 27.9745C39.9625 27.7293 39.7819 27.4831 39.6161 27.2161C39.1793 26.5425 39.1793 26.5425 38.4828 26.2004C38.0665 26.1509 37.6532 26.1694 37.2355 26.188C37.0827 26.1903 36.93 26.192 36.7772 26.1933C36.378 26.1979 35.9794 26.2099 35.5804 26.2236C35.1722 26.2362 34.7638 26.2418 34.3554 26.248C33.5563 26.2611 32.7576 26.282 31.9588 26.3079C32.0148 26.3446 32.0148 26.3446 32.0719 26.3821C34.0242 27.6628 35.9703 28.9519 37.9042 30.2604C38.0079 30.3306 38.0079 30.3306 38.1138 30.4022C38.248 30.4931 38.3822 30.5841 38.5163 30.6751C38.8234 30.8834 39.1315 31.0898 39.4429 31.2916C39.4993 31.3283 39.5557 31.3651 39.6138 31.403C39.7175 31.4704 39.8216 31.5373 39.9261 31.6035C40.3051 31.8504 40.574 32.0956 40.7188 32.53C40.727 32.6981 40.7302 32.8665 40.7308 33.0348C40.7317 33.1934 40.7317 33.1934 40.7326 33.3552C40.7328 33.4726 40.733 33.59 40.7333 33.7074C40.7338 33.8309 40.7343 33.9543 40.7349 34.0778C40.7366 34.4834 40.7375 34.889 40.7383 35.2946C40.7386 35.4343 40.7389 35.5739 40.7393 35.7136C40.7408 36.3696 40.742 37.0257 40.7427 37.6817C40.7435 38.439 40.7456 39.1963 40.749 39.9535C40.7514 40.5389 40.7526 41.1243 40.7529 41.7096C40.7531 42.0592 40.7538 42.4088 40.7559 42.7584C40.7578 43.0874 40.7581 43.4163 40.7573 43.7452C40.7573 43.8658 40.7578 43.9864 40.7589 44.107C40.7604 44.2719 40.7596 44.4368 40.7587 44.6017C40.7589 44.6939 40.7591 44.7861 40.7593 44.8811C40.6944 45.2924 40.4812 45.5456 40.1815 45.8234C39.7821 46.0123 39.4339 46.0186 38.9995 45.9565C38.6088 45.786 38.432 45.5643 38.2489 45.1818C38.1074 44.7497 38.1386 44.2977 38.1437 43.8475C38.1438 43.7345 38.1437 43.6215 38.1435 43.5085C38.1434 43.2034 38.1453 42.8983 38.1476 42.5932C38.1497 42.2737 38.1499 41.9542 38.1503 41.6347C38.1513 41.0305 38.154 40.4263 38.1573 39.8221C38.1609 39.1338 38.1627 38.4456 38.1644 37.7574C38.1678 36.3424 38.1735 34.9274 38.1808 33.5124C38.1166 33.4873 38.0523 33.4622 37.9861 33.4364C37.7896 33.356 37.6336 33.269 37.459 33.1498C37.4001 33.1099 37.3411 33.0699 37.2804 33.0288C37.2169 32.9852 37.1535 32.9416 37.0881 32.8968C37.0202 32.8507 36.9524 32.8046 36.8825 32.7571C36.7354 32.6572 36.5884 32.5572 36.4415 32.457C36.0478 32.1885 35.6532 31.9214 35.2585 31.6543C35.1357 31.5712 35.1357 31.5712 35.0104 31.4863C34.0948 30.8673 33.1732 30.2575 32.2505 29.6492C32.1719 29.5973 32.0934 29.5454 32.0124 29.4919C31.7901 29.3451 31.5677 29.1986 31.3451 29.0521C31.2462 28.9868 31.2462 28.9868 31.1453 28.9201C31.0845 28.8802 31.0236 28.8403 30.9609 28.7991C30.9083 28.7645 30.8556 28.7298 30.8014 28.6941C30.6454 28.5981 30.4864 28.5159 30.3215 28.4365C30.3648 28.4792 30.4082 28.5218 30.4529 28.5657C30.8633 28.9695 31.2728 29.3741 31.6815 29.7796C31.8916 29.988 32.102 30.196 32.313 30.4034C32.5171 30.6039 32.7203 30.8051 32.923 31.007C33.0374 31.1205 33.1527 31.2332 33.268 31.3459C33.7267 31.8045 34.1023 32.2019 34.2104 32.8631C34.2102 32.9419 34.2101 33.0206 34.2099 33.1018C34.2101 33.191 34.2104 33.2803 34.2106 33.3722C34.2088 33.4658 34.207 33.5593 34.2051 33.6557C34.204 33.7532 34.2028 33.8507 34.2016 33.9512C34.1466 36.6217 33.2521 39.0017 31.3352 40.8879C29.5901 42.5443 27.3818 43.3367 25 43.3367C25 34.6913 25 26.0459 25 17.1386C26.2321 17.2506 27.1284 17.5472 27.9613 18.485C28.3566 18.9767 28.3566 18.9767 28.3566 19.1853C30.054 18.388 31.7286 17.5451 33.405 16.7049C33.7875 16.5132 34.1702 16.3216 34.5529 16.1301C35.2984 15.7569 36.0438 15.3835 36.7891 15.01C36.7894 14.9336 36.7894 14.9336 36.7897 14.8556C36.7945 13.6147 36.8007 12.3738 36.8084 11.1329C36.8121 10.5328 36.8153 9.93266 36.8174 9.33255C36.8193 8.80936 36.8221 8.28619 36.8258 7.76301C36.8278 7.48611 36.8293 7.20922 36.8298 6.93231C36.8306 6.62283 36.8329 6.31338 36.8355 6.00391C36.8354 5.91257 36.8353 5.82124 36.8352 5.72714C36.8411 5.23853 36.8749 4.87782 37.1165 4.4489C37.5863 4.01351 37.9642 3.97668 38.5902 4.03955Z" fill="#FD2E55"/>
<path d="M5.67899 7.96811C6.06025 8.16914 6.35986 8.37337 6.49767 8.7868C6.50517 9.02723 6.50798 9.26568 6.50697 9.50609C6.50698 9.57959 6.50699 9.65309 6.507 9.72882C6.50694 9.97201 6.50631 10.2152 6.50567 10.4584C6.50551 10.6269 6.5054 10.7954 6.50532 10.964C6.505 11.4077 6.5042 11.8514 6.50329 12.2952C6.50246 12.7479 6.50208 13.2006 6.50167 13.6534C6.50079 14.5418 6.49939 15.4303 6.49767 16.3187C6.55987 16.33 6.62207 16.3412 6.68615 16.3528C6.96802 16.4138 7.20081 16.5273 7.46091 16.652C7.54164 16.6904 7.54164 16.6904 7.62401 16.7296C7.74038 16.785 7.85666 16.8405 7.97285 16.8963C8.28675 17.0469 8.60138 17.1959 8.91599 17.345C8.98064 17.3757 9.04528 17.4063 9.11189 17.4379C9.7552 17.7424 10.4029 18.0368 11.0516 18.3297C11.9384 18.7304 12.8218 19.1378 13.7021 19.5526C14.5859 19.969 15.4727 20.3779 16.3628 20.7806C17.2918 21.201 18.218 21.627 19.1413 22.0598C19.1959 22.0854 19.2505 22.1109 19.3067 22.1373C19.463 22.2104 19.6192 22.2838 19.7754 22.3572C19.8637 22.3987 19.952 22.4402 20.0429 22.4829C20.4148 22.6618 20.7835 22.8466 21.1521 23.032C21.173 23.5999 21.1873 24.1677 21.1971 24.7359C21.2012 24.9289 21.2068 25.1219 21.2139 25.3148C21.279 27.1248 21.279 27.1248 20.8416 27.5978C20.6738 27.7238 20.5106 27.8335 20.3335 27.9441C20.217 28.0249 20.1009 28.1062 19.9851 28.1878C19.6392 28.4279 19.2874 28.6576 18.9331 28.8851C18.532 29.1427 18.1329 29.4037 17.7335 29.664C17.6511 29.7176 17.5687 29.7711 17.4839 29.8263C16.5899 30.4082 15.7059 31.0046 14.8227 31.6027C14.6778 31.7007 14.5329 31.7988 14.3879 31.8968C14.2842 31.967 14.2842 31.967 14.1783 32.0386C13.9176 32.2151 13.6567 32.3913 13.3958 32.5675C13.2115 32.6921 13.0276 32.8171 12.8436 32.9422C12.7312 33.0181 12.6188 33.0941 12.5064 33.17C12.4554 33.2049 12.4043 33.2397 12.3518 33.2757C12.0015 33.5112 12.0015 33.5112 11.8191 33.5112C11.8194 33.5697 11.8197 33.6282 11.82 33.6884C11.8273 35.1124 11.8327 36.5365 11.8361 37.9605C11.8378 38.6492 11.8401 39.3379 11.8438 40.0265C11.8471 40.6269 11.8492 41.2273 11.8499 41.8277C11.8504 42.1455 11.8514 42.4632 11.8538 42.781C11.856 43.0804 11.8567 43.3798 11.8562 43.6793C11.8563 43.8409 11.8581 44.0025 11.8599 44.164C11.8572 44.7464 11.8104 45.135 11.4917 45.6278C11.194 45.9182 10.9541 45.9787 10.5502 45.9963C10.1473 45.9799 9.91158 45.9086 9.60868 45.6278C9.33477 45.2751 9.24022 45.0484 9.23962 44.6028C9.2387 44.4968 9.23777 44.3909 9.23682 44.2818C9.23746 44.1654 9.23813 44.049 9.23883 43.9326C9.23839 43.8092 9.2378 43.6859 9.23709 43.5625C9.2356 43.2283 9.23618 42.8941 9.23721 42.5598C9.23805 42.2096 9.23727 41.8593 9.23676 41.5091C9.23617 40.9208 9.23695 40.3326 9.23851 39.7444C9.24029 39.0651 9.23972 38.3857 9.23791 37.7064C9.23642 37.1225 9.23622 36.5386 9.23707 35.9547C9.23758 35.6062 9.23765 35.2578 9.23657 34.9093C9.23562 34.5816 9.23628 34.2539 9.23817 33.9261C9.2386 33.8061 9.23848 33.6861 9.23776 33.566C9.23159 32.4401 9.23159 32.4401 9.60868 31.9557C9.78009 31.7944 9.78009 31.7944 9.97709 31.6599C10.057 31.6049 10.1369 31.5498 10.2192 31.4931C10.3158 31.4288 10.4125 31.3647 10.5092 31.3008C10.5935 31.2445 10.5935 31.2445 10.6795 31.1872C11.0902 30.9133 11.5028 30.6423 11.916 30.372C13.4619 29.3605 14.9974 28.3342 16.5267 27.2978C16.5981 27.2495 16.6694 27.2012 16.7428 27.1514C16.8755 27.0616 17.0081 26.9716 17.1407 26.8815C17.1996 26.8416 17.2586 26.8017 17.3193 26.7605C17.3701 26.726 17.4209 26.6916 17.4732 26.6561C17.6594 26.5343 17.8497 26.4203 18.0411 26.3068C17.1644 26.2744 16.2878 26.2497 15.4106 26.2347C15.0031 26.2274 14.596 26.2176 14.1888 26.2018C12.3602 26.0282 12.3602 26.0282 10.7077 26.5983C10.4489 26.8752 10.2708 27.1708 10.1118 27.5134C9.94714 27.8385 9.71287 28.1112 9.48587 28.3944C9.39795 28.5099 9.31029 28.6255 9.223 28.7414C8.90128 29.1621 8.56357 29.5691 8.22517 29.9764C7.92172 30.342 7.6241 30.7113 7.33171 31.0859C7.29525 31.1323 7.2588 31.1786 7.22124 31.2264C7.04909 31.4456 6.87875 31.6656 6.71066 31.8879C6.05262 32.7369 6.05262 32.7369 5.51525 32.8563C5.02358 32.8865 4.66557 32.7712 4.28722 32.4469C3.99763 32.1284 3.98912 31.7811 4.00452 31.367C4.07005 30.9607 4.27576 30.7132 4.53283 30.4002C4.6122 30.3013 4.6915 30.2024 4.77076 30.1034C4.95316 29.8769 5.13701 29.6517 5.32177 29.4271C5.56803 29.1271 5.80883 28.8233 6.04739 28.5172C6.41428 28.0473 6.78909 27.5842 7.16605 27.1223C7.45188 26.7714 7.73368 26.4178 8.01224 26.0612C8.34764 25.6329 8.68485 25.2062 9.02536 24.782C9.09114 24.699 9.09114 24.699 9.15824 24.6144C9.43214 24.2748 9.70273 23.9674 10.0999 23.7688C10.2997 23.7588 10.4973 23.7536 10.6972 23.752C10.7587 23.7512 10.8202 23.7504 10.8835 23.7496C11.0873 23.747 11.2911 23.7449 11.4949 23.7429C11.636 23.7412 11.7771 23.7395 11.9182 23.7378C12.2899 23.7332 12.6616 23.7292 13.0334 23.7253C13.4126 23.7211 13.7917 23.7166 14.1709 23.7121C14.9152 23.7032 15.6595 23.6949 16.4038 23.687C14.3552 22.7369 12.3059 21.7886 10.2554 20.8428C9.9133 20.685 9.57118 20.5272 9.22909 20.3693C9.08954 20.3049 8.94998 20.2405 8.81043 20.1761C8.47017 20.0191 8.12999 19.8619 7.78998 19.7044C7.24784 19.4534 6.70575 19.2026 6.15961 18.9604C6.00711 18.8927 5.85483 18.8246 5.70259 18.7564C5.52322 18.6763 5.3434 18.5971 5.16305 18.5192C4.6412 18.2848 4.30419 18.0719 4.04161 17.5468C4.03358 17.4305 4.03056 17.3138 4.03012 17.1973C4.02965 17.1239 4.02918 17.0506 4.0287 16.975C4.02861 16.8944 4.02852 16.8137 4.02842 16.7306C4.02802 16.6457 4.02761 16.5609 4.02719 16.4736C4.02599 16.192 4.02544 15.9105 4.02498 15.6289C4.02451 15.4338 4.02404 15.2386 4.02357 15.0434C4.02271 14.6337 4.02223 14.224 4.02195 13.8142C4.0215 13.289 4.01953 12.7637 4.0172 12.2384C4.01568 11.8351 4.01525 11.4317 4.01512 11.0284C4.01488 10.8347 4.01422 10.641 4.01314 10.4474C4.01175 10.1765 4.0119 9.90569 4.01243 9.63481C4.01168 9.55463 4.01092 9.47445 4.01015 9.39183C4.01264 8.98709 4.0193 8.70351 4.28722 8.37746C4.74788 7.97297 5.07273 7.8992 5.67899 7.96811Z" fill="#ED0046"/>
<path d="M45.1396 7.96811C45.5209 8.16914 45.8205 8.37337 45.9583 8.7868C45.9662 8.9062 45.9697 9.02593 45.9704 9.14559C45.9713 9.2556 45.9713 9.2556 45.9721 9.36782C45.9724 9.44808 45.9726 9.52834 45.9728 9.61103C45.9734 9.69572 45.9739 9.7804 45.9744 9.86766C45.9761 10.1484 45.977 10.4291 45.9778 10.7098C45.9782 10.8056 45.9785 10.9014 45.9788 11.0001C45.9805 11.5071 45.9817 12.014 45.9825 12.521C45.9834 13.0449 45.9862 13.5688 45.9895 14.0927C45.9916 14.4953 45.9923 14.898 45.9926 15.3006C45.993 15.4938 45.9939 15.6869 45.9954 15.88C45.9974 16.1503 45.9974 16.4205 45.9968 16.6908C45.9978 16.7705 45.9989 16.8503 46 16.9325C45.9964 17.3964 45.9495 17.6752 45.6308 18.038C45.4785 18.1646 45.4785 18.1646 45.3235 18.254C45.2664 18.2871 45.2092 18.3202 45.1503 18.3543C44.8796 18.4988 44.6054 18.6315 44.3257 18.7579C44.2645 18.786 44.2033 18.8141 44.1403 18.843C43.9397 18.935 43.7389 19.0263 43.5381 19.1176C43.3955 19.1829 43.253 19.2482 43.1105 19.3135C42.8148 19.4491 42.5189 19.5844 42.223 19.7196C41.609 20.0004 40.9961 20.2837 40.3832 20.567C40.0535 20.7193 39.7236 20.8715 39.3938 21.0237C38.9145 21.2449 38.4352 21.4662 37.956 21.6876C37.6739 21.818 37.3919 21.9483 37.1098 22.0786C36.9782 22.1394 36.8465 22.2002 36.7149 22.2611C35.6773 22.7408 34.6372 23.2149 33.5962 23.687C33.6741 23.6873 33.7519 23.6876 33.8322 23.6879C34.567 23.6909 35.3017 23.6956 36.0365 23.702C36.4142 23.7052 36.7919 23.7079 37.1697 23.7091C37.5344 23.7104 37.899 23.7132 38.2637 23.7171C38.4027 23.7183 38.5417 23.719 38.6807 23.719C38.8757 23.7192 39.0706 23.7214 39.2656 23.7241C39.3228 23.7237 39.38 23.7233 39.4389 23.7229C39.9236 23.7332 40.2085 23.9212 40.5508 24.2492C40.9084 24.6622 41.2496 25.0859 41.585 25.517C41.878 25.8935 42.1771 26.2647 42.4789 26.6342C42.8479 27.0863 43.2115 27.5421 43.5705 28.0022C43.8587 28.3704 44.153 28.7333 44.4489 29.0954C44.7841 29.5065 45.1166 29.9195 45.4415 30.3388C45.506 30.422 45.5705 30.5051 45.6369 30.5908C45.9829 31.0708 46.0248 31.4503 45.9583 32.0376C45.7849 32.435 45.5451 32.6322 45.1572 32.8048C44.7345 32.9248 44.3812 32.8533 44.0028 32.6433C43.6966 32.4074 43.478 32.1463 43.2413 31.8432C43.1951 31.7851 43.1489 31.7271 43.1012 31.6673C42.9613 31.4911 42.8223 31.3142 42.6836 31.137C42.6063 31.0387 42.529 30.9405 42.4517 30.8422C42.3423 30.7029 42.233 30.5636 42.124 30.4241C41.8374 30.0577 41.545 29.6963 41.2509 29.3359C40.9579 28.9768 40.6659 28.6171 40.3805 28.2519C40.3072 28.1586 40.2335 28.0657 40.159 27.9734C39.9625 27.7282 39.7819 27.482 39.6161 27.2149C39.1792 26.5414 39.1792 26.5414 38.4827 26.1992C38.0665 26.1498 37.6532 26.1682 37.2355 26.1868C37.0827 26.1891 36.9299 26.1909 36.7771 26.1921C36.378 26.1968 35.9794 26.2088 35.5804 26.2224C35.1721 26.2351 34.7638 26.2406 34.3554 26.2468C33.5563 26.2599 32.7576 26.2808 31.9588 26.3068C31.9961 26.3312 32.0334 26.3557 32.0719 26.3809C34.0241 27.6617 35.9703 28.9508 37.9041 30.2592C37.9733 30.306 38.0425 30.3528 38.1138 30.4011C38.248 30.4919 38.3822 30.5829 38.5163 30.674C38.8234 30.8822 39.1314 31.0886 39.4429 31.2904C39.4992 31.3272 39.5556 31.3639 39.6137 31.4018C39.7175 31.4692 39.8216 31.5361 39.9261 31.6023C40.3051 31.8492 40.5739 32.0944 40.7187 32.5288C40.7269 32.6969 40.7301 32.8653 40.7308 33.0337C40.7317 33.1922 40.7317 33.1922 40.7326 33.354C40.7328 33.4714 40.733 33.5888 40.7332 33.7062C40.7337 33.8297 40.7343 33.9532 40.7349 34.0766C40.7366 34.4822 40.7374 34.8879 40.7382 35.2935C40.7386 35.4331 40.7389 35.5728 40.7393 35.7124C40.7408 36.3685 40.742 37.0245 40.7427 37.6806C40.7435 38.4379 40.7456 39.1951 40.7489 39.9524C40.7514 40.5378 40.7526 41.1231 40.7529 41.7085C40.7531 42.0581 40.7538 42.4077 40.7559 42.7573C40.7578 43.0862 40.7581 43.4151 40.7573 43.7441C40.7572 43.8647 40.7577 43.9853 40.7589 44.1058C40.7603 44.2707 40.7595 44.4357 40.7587 44.6006C40.7589 44.6928 40.7591 44.785 40.7593 44.88C40.6943 45.2912 40.4812 45.5445 40.1815 45.8223C39.782 46.0111 39.4339 46.0175 38.9995 45.9553C38.6088 45.7848 38.432 45.5631 38.2488 45.1807C38.1074 44.7485 38.1386 44.2965 38.1436 43.8464C38.1437 43.7334 38.1437 43.6204 38.1435 43.5073C38.1434 43.2022 38.1453 42.8971 38.1476 42.592C38.1497 42.2726 38.1498 41.9531 38.1502 41.6336C38.1512 41.0293 38.1539 40.4251 38.1572 39.8209C38.1609 39.1327 38.1627 38.4445 38.1643 37.7562C38.1677 36.3412 38.1735 34.9262 38.1808 33.5112C38.1165 33.4862 38.0523 33.4611 37.9861 33.4352C37.7895 33.3549 37.6336 33.2678 37.459 33.1486C37.4 33.1087 37.3411 33.0687 37.2803 33.0276C37.1852 32.9623 37.1852 32.9623 37.0881 32.8956C36.9863 32.8265 36.9863 32.8265 36.8825 32.7561C36.7355 32.6562 36.5885 32.5562 36.4417 32.456C36.0468 32.1867 35.6511 31.9186 35.2553 31.6506C35.1732 31.5951 35.0912 31.5395 35.0066 31.4822C33.962 30.776 32.9074 30.0851 31.8521 29.395C31.2348 28.9907 30.618 28.5857 30.0135 28.1626C29.9296 28.104 29.8457 28.0455 29.7593 27.9851C29.6731 27.9178 29.5876 27.8494 29.5027 27.7804C29.445 27.7356 29.3872 27.6908 29.3277 27.6446C28.9842 27.3483 28.8085 27.136 28.7734 26.6753C28.7735 26.5055 28.7772 26.3357 28.7838 26.166C28.7848 26.0761 28.7857 25.9862 28.7866 25.8935C28.7903 25.6081 28.7985 25.3231 28.8069 25.0378C28.8101 24.8436 28.8131 24.6493 28.8158 24.4551C28.823 23.9806 28.8339 23.5063 28.8478 23.032C29.7953 22.5505 30.753 22.0951 31.7183 21.6505C31.8656 21.5824 32.0129 21.5144 32.1602 21.4463C32.5381 21.2717 32.9161 21.0974 33.2941 20.9231C33.6397 20.7637 33.9852 20.6041 34.3307 20.4445C34.9247 20.1702 35.5187 19.8961 36.1127 19.6221C36.6435 19.3773 37.1742 19.1324 37.7048 18.8875C38.0354 18.7349 38.366 18.5823 38.6966 18.4299C39.3216 18.1418 39.9463 17.853 40.5701 17.5622C40.8656 17.4246 41.1612 17.2872 41.4569 17.1498C41.5981 17.0841 41.7392 17.0183 41.8803 16.9522C42.0756 16.8608 42.2712 16.7699 42.4668 16.6792C42.5243 16.652 42.5819 16.6249 42.6412 16.597C42.9284 16.4644 43.1918 16.3743 43.5023 16.3187C43.5014 16.1786 43.5014 16.1786 43.5006 16.0356C43.4956 15.155 43.492 14.2744 43.4895 13.3938C43.4883 12.9411 43.4865 12.4884 43.4837 12.0357C43.4811 11.5988 43.4796 11.1619 43.479 10.7251C43.4785 10.5584 43.4776 10.3917 43.4763 10.225C43.4745 9.99153 43.4743 9.75813 43.4744 9.52468C43.4735 9.45572 43.4726 9.38677 43.4717 9.31572C43.4737 8.93395 43.5025 8.6885 43.7479 8.37746C44.2085 7.97297 44.5334 7.8992 45.1396 7.96811Z" fill="#D5003B"/>
<path d="M12.3106 4.03828C12.6365 4.20127 12.8608 4.37892 13.0474 4.69323C13.1262 4.94535 13.1403 5.17587 13.1422 5.43928C13.143 5.52377 13.1438 5.60826 13.1446 5.69531C13.1453 5.83363 13.1453 5.83363 13.1461 5.97476C13.1469 6.07222 13.1477 6.16969 13.1485 6.27011C13.1507 6.537 13.1524 6.80389 13.1541 7.07079C13.1559 7.34985 13.1581 7.62891 13.1603 7.90797C13.1644 8.43624 13.1681 8.96451 13.1716 9.49278C13.1761 10.1533 13.181 10.8138 13.186 11.4743C13.1949 12.6524 13.203 13.8306 13.2111 15.0087C15.9668 16.3866 18.7225 17.7644 21.5617 19.184C21.5159 19.3673 21.4695 19.5505 21.421 19.7331C21.2462 20.4281 21.181 21.0903 21.1524 21.8039C20.8508 21.7547 20.609 21.6704 20.336 21.5341C20.2561 21.4945 20.1763 21.4549 20.094 21.4141C19.9639 21.3487 19.9639 21.3487 19.8313 21.282C19.7393 21.2362 19.6472 21.1904 19.5524 21.1432C19.3005 21.0178 19.0489 20.8918 18.7973 20.7656C18.5337 20.6335 18.2698 20.5018 18.006 20.3701C17.5629 20.1488 17.12 19.927 16.6772 19.7051C16.1659 19.4487 15.6542 19.1931 15.1424 18.9379C14.7024 18.7185 14.2627 18.4987 13.8231 18.2785C13.5608 18.1472 13.2984 18.016 13.0358 17.8851C12.7429 17.7391 12.4505 17.5922 12.158 17.4453C12.0713 17.4023 11.9846 17.3592 11.8953 17.3148C10.7966 16.7606 10.7966 16.7606 10.5913 16.1549C10.5557 15.7931 10.5569 15.4331 10.5582 15.0698C10.5578 14.9592 10.5572 14.8486 10.5565 14.7381C10.5551 14.4387 10.5552 14.1393 10.5556 13.8399C10.5559 13.5896 10.5554 13.3394 10.5549 13.0891C10.5537 12.4987 10.5539 11.9083 10.5548 11.3178C10.5557 10.7093 10.5546 10.1007 10.5524 9.49215C10.5506 8.969 10.55 8.44587 10.5505 7.92272C10.5508 7.61055 10.5506 7.2984 10.5492 6.98622C10.5479 6.69269 10.5483 6.3992 10.5498 6.10566C10.5502 5.94698 10.5491 5.78829 10.5479 5.62961C10.5523 5.1037 10.556 4.76111 10.9188 4.36576C11.3369 3.97824 11.7664 3.95731 12.3106 4.03828Z" fill="#ED0046"/>
<path d="M38.5902 4.03955C38.969 4.21863 39.25 4.46604 39.4089 4.85824C39.4582 5.21886 39.4544 5.57721 39.4525 5.94073C39.4531 6.05105 39.4538 6.16137 39.4547 6.27168C39.4565 6.57042 39.4563 6.86912 39.4555 7.16786C39.4551 7.41769 39.4557 7.66751 39.4563 7.91734C39.4577 8.507 39.4574 9.09665 39.4561 9.68631C39.4547 10.2936 39.456 10.9008 39.4586 11.5081C39.4608 12.0304 39.4614 12.5527 39.4607 13.075C39.4603 13.3865 39.4605 13.6981 39.4622 14.0096C39.4637 14.3027 39.4632 14.5958 39.4612 14.889C39.4606 15.047 39.462 15.2051 39.4634 15.3631C39.4581 15.8568 39.4431 16.269 39.141 16.6748C38.8536 16.9517 38.5103 17.1122 38.1531 17.2824C38.0699 17.3239 37.9867 17.3654 37.901 17.4081C37.7265 17.4949 37.5517 17.581 37.3766 17.6664C37.0512 17.8255 36.7284 17.9896 36.4056 18.1538C35.9999 18.3598 35.593 18.5632 35.1862 18.767C35.0998 18.8104 35.0133 18.8537 34.9242 18.8984C34.4696 19.1263 34.0149 19.354 33.5601 19.5816C33.0913 19.8162 32.6228 20.0515 32.1543 20.2869C31.7919 20.4688 31.4293 20.6503 31.0667 20.8317C30.8936 20.9184 30.7206 21.0052 30.5477 21.0922C30.308 21.2128 30.068 21.3327 29.8279 21.4525C29.7212 21.5064 29.7212 21.5064 29.6122 21.5615C29.5471 21.5938 29.482 21.6261 29.4149 21.6594C29.3584 21.6877 29.3019 21.7161 29.2437 21.7452C29.0934 21.8051 29.0934 21.8051 28.8478 21.8051C28.8447 21.6524 28.8447 21.6524 28.8414 21.4965C28.8198 20.7916 28.7948 20.1633 28.5072 19.5074C28.4385 19.3491 28.4385 19.3491 28.4385 19.1853C31.1942 17.8075 33.9499 16.4296 36.7891 15.01C36.7921 14.2956 36.7952 13.5813 36.7983 12.8453C36.8011 12.3351 36.8041 11.825 36.8073 11.3149C36.8113 10.6541 36.8151 9.99333 36.8174 9.33255C36.8193 8.80936 36.8221 8.28619 36.8258 7.76301C36.8278 7.48611 36.8293 7.20922 36.8298 6.93231C36.8306 6.62283 36.8329 6.31338 36.8355 6.00391C36.8354 5.86691 36.8354 5.86691 36.8352 5.72714C36.8411 5.23853 36.8749 4.87782 37.1165 4.4489C37.5863 4.01351 37.9641 3.97668 38.5902 4.03955Z" fill="#D5003B"/>
</svg>
