<svg width="50" height="50" viewBox="0 0 50 50" fill="none" xmlns="http://www.w3.org/2000/svg">
<path d="M18.0363 6.06695C18.4768 6.07042 18.917 6.06972 19.3574 6.06628C19.4207 6.0658 19.484 6.06531 19.5491 6.06481C19.6777 6.06381 19.8063 6.06281 19.9349 6.0618C21.1348 6.05291 22.3344 6.05752 23.5343 6.06664C24.6253 6.07455 25.7156 6.06669 26.8066 6.05113C27.9342 6.03518 29.0614 6.02941 30.1891 6.03452C30.3174 6.03507 30.4456 6.03561 30.5739 6.03613C30.6684 6.03652 30.6684 6.03652 30.7649 6.03691C31.2031 6.03806 31.641 6.03282 32.0792 6.02493C36.4408 5.95158 36.4408 5.95158 37.8796 7.32856C38.3603 7.82606 38.7811 8.36113 39.1801 8.92525C39.5041 9.37192 39.8898 9.77686 40.2812 10.1649C40.3456 10.2291 40.4101 10.2932 40.4765 10.3594C40.5778 10.4595 40.5778 10.4595 40.681 10.5616C40.7524 10.6327 40.8238 10.7037 40.8974 10.7769C41.1236 11.002 41.35 11.2268 41.5766 11.4516C41.8754 11.7479 42.1739 12.0446 42.4721 12.3415C42.5734 12.4416 42.5734 12.4416 42.6767 12.5438C43.0363 12.9017 43.377 13.2685 43.7082 13.6528C43.9961 13.9772 44.3058 14.2798 44.6142 14.5846C44.6836 14.6537 44.753 14.7227 44.8245 14.7939C45.0443 15.0126 45.2643 15.231 45.4845 15.4493C45.7749 15.7373 46.0649 16.0255 46.3548 16.314C46.4531 16.4111 46.4531 16.4111 46.5533 16.5103C46.9154 16.8707 47.2609 17.2394 47.5928 17.628C47.7283 17.7875 47.7283 17.7875 47.8831 17.9299C47.9999 18.0546 47.9999 18.0546 47.9971 18.2227C47.8769 18.4868 47.706 18.6589 47.5058 18.8687C47.1947 19.1999 46.8975 19.5357 46.6131 19.8906C46.2844 20.2981 45.9384 20.6829 45.5821 21.0658C45.3134 21.3562 45.0589 21.654 44.8107 21.9625C44.4842 22.3683 44.1399 22.7511 43.7853 23.1321C43.5167 23.4225 43.2621 23.7203 43.014 24.0287C42.6874 24.4346 42.3432 24.8173 41.9886 25.1983C41.7199 25.4887 41.4654 25.7865 41.2172 26.095C40.8907 26.5008 40.5464 26.8836 40.1918 27.2646C39.9232 27.555 39.6686 27.8528 39.4205 28.1612C39.1331 28.5184 38.8342 28.8589 38.5221 29.1943C38.1368 29.6085 37.7761 30.0368 37.4213 30.4776C37.1403 30.8173 36.841 31.1388 36.5426 31.463C36.3277 31.7024 36.1242 31.9477 35.9225 32.1982C35.5938 32.6057 35.2478 32.9905 34.8915 33.3735C34.6228 33.6639 34.3683 33.9617 34.1201 34.2701C33.7936 34.676 33.4493 35.0587 33.0947 35.4397C32.8261 35.7301 32.5715 36.0279 32.3234 36.3363C31.9969 36.7422 31.6526 37.1249 31.298 37.506C31.0294 37.7964 30.7748 38.0942 30.5267 38.4026C30.2001 38.8084 29.8559 39.1912 29.5013 39.5722C29.2326 39.8626 28.9781 40.1604 28.7299 40.4688C28.4034 40.8747 28.0591 41.2574 27.7045 41.6385C27.4359 41.9289 27.1813 42.2267 26.9332 42.5351C26.5646 42.9932 26.1733 43.4239 25.7723 43.8535C25.5366 44.1117 25.3134 44.3761 25.0915 44.6462C24.7684 44.5119 24.5857 44.3294 24.356 44.0679C24.285 43.9872 24.214 43.9065 24.1409 43.8233C23.9338 43.5801 23.7315 43.3338 23.5306 43.0853C23.1999 42.6762 22.8521 42.2893 22.494 41.9045C22.1544 41.5373 21.8397 41.1534 21.5262 40.7636C21.3005 40.4922 21.0647 40.2331 20.8243 39.9747C20.4389 39.5606 20.0783 39.1323 19.7235 38.6914C19.5137 38.4379 19.2953 38.1954 19.0725 37.9534C18.7783 37.6339 18.497 37.3091 18.2247 36.9708C17.896 36.5633 17.55 36.1785 17.1937 35.7956C16.854 35.4284 16.5394 35.0444 16.2258 34.6547C16.0001 34.3833 15.7643 34.1242 15.5239 33.8658C15.1404 33.4537 14.7821 33.0273 14.4291 32.5885C14.2034 32.317 13.9676 32.0579 13.7272 31.7996C13.3437 31.3874 12.9854 30.961 12.6323 30.5222C12.4066 30.2508 12.1709 29.9917 11.9305 29.7333C11.5469 29.3212 11.1886 28.8948 10.8356 28.456C10.6099 28.1845 10.3741 27.9254 10.1337 27.6671C9.7502 27.255 9.3919 26.8285 9.03885 26.3897C8.81316 26.1183 8.5774 25.8592 8.337 25.6008C7.95347 25.1887 7.59516 24.7623 7.24211 24.3235C7.01642 24.052 6.78067 23.7929 6.54026 23.5346C6.15673 23.1225 5.79843 22.696 5.44538 22.2572C5.21969 21.9858 4.98393 21.7267 4.74353 21.4684C4.43142 21.133 4.13258 20.7925 3.84516 20.4352C3.47656 19.9771 3.08522 19.5464 2.6843 19.1168C2.60787 19.0331 2.53144 18.9494 2.45269 18.8631C2.40898 18.8172 2.36526 18.7713 2.32022 18.724C2.00447 18.3768 2.00447 18.3768 2 18.1318C2.11509 17.9258 2.24646 17.7891 2.419 17.6278C2.65826 17.4028 2.87878 17.1709 3.09203 16.9215C3.4466 16.5147 3.82378 16.1346 4.20732 15.7553C4.27871 15.6842 4.35011 15.6132 4.42367 15.54C4.72604 15.2391 5.02895 14.9387 5.33181 14.6383C5.55421 14.4175 5.77633 14.1965 5.99844 13.9754C6.06593 13.9087 6.13341 13.8419 6.20295 13.7732C6.56254 13.4152 6.90333 13.0484 7.23445 12.6642C7.52238 12.3397 7.83211 12.0372 8.14048 11.7323C8.20988 11.6632 8.27929 11.5942 8.35079 11.523C8.64458 11.2307 8.9389 10.9389 9.23317 10.6471C9.44933 10.4326 9.6652 10.2178 9.88107 10.0029C9.94659 9.93817 10.0121 9.87339 10.0796 9.80665C10.1423 9.74427 10.205 9.6819 10.2695 9.61763C10.3508 9.5371 10.3508 9.5371 10.4337 9.45493C10.8714 8.99417 11.2573 8.53264 11.6074 8.00078C13.2053 5.80773 15.5392 6.04674 18.0363 6.06695Z" fill="#CE0044"/>
<path d="M13.4132 6.37891C13.6138 6.67985 13.6642 6.90284 13.7423 7.25517C13.7561 7.31624 13.7698 7.37731 13.784 7.44023C13.8293 7.64221 13.8739 7.84435 13.9185 8.0465C13.9829 8.33455 14.0478 8.62251 14.1126 8.91048C14.1291 8.98409 14.1456 9.05769 14.1626 9.13353C14.3137 9.80641 14.472 10.4775 14.6317 11.1484C14.8979 12.2678 15.1516 13.3893 15.3945 14.514C15.6443 15.6698 15.9156 16.8197 16.1981 17.9678C16.5922 17.5993 16.8996 17.1921 17.2144 16.755C17.6766 16.1202 18.146 15.4918 18.6237 14.8685C19.0789 14.2738 19.5287 13.6759 19.9713 13.0717C20.4731 12.3865 20.9858 11.7101 21.502 11.0357C21.9475 10.4526 22.3842 9.86362 22.8177 9.27158C23.2935 8.62339 23.7805 7.98401 24.2697 7.34588C24.3275 7.27043 24.3853 7.19499 24.4448 7.11725C24.4961 7.05049 24.5474 6.98373 24.6002 6.91494C24.709 6.76969 24.8116 6.61976 24.9123 6.46874C25.2232 6.59787 25.3763 6.75067 25.5769 7.01864C25.6341 7.09438 25.6913 7.17012 25.7503 7.24815C25.8413 7.37096 25.8413 7.37096 25.9342 7.49625C25.9979 7.58102 26.0616 7.66579 26.1272 7.75313C26.5859 8.36506 27.0393 8.981 27.4914 9.59792C27.8832 10.1318 28.2829 10.6593 28.6854 11.1852C29.1933 11.8487 29.6929 12.5176 30.1867 13.1918C30.5785 13.7255 30.9781 14.2529 31.3805 14.7786C32.0503 15.654 32.7084 16.5376 33.3569 17.4288C33.4015 17.4898 33.446 17.5507 33.4919 17.6135C33.8061 18.0471 33.8061 18.0471 33.8061 18.1475C30.9008 18.1475 27.9955 18.1475 25.0021 18.1475C25.0021 26.8338 25.0021 35.5201 25.0021 44.4697C24.839 44.225 24.759 44.0435 24.6673 43.7684C24.6373 43.679 24.6072 43.5895 24.5763 43.4974C24.5274 43.3496 24.5274 43.3496 24.4774 43.1988C24.4425 43.0943 24.4075 42.9898 24.3715 42.8822C24.2745 42.5919 24.1779 42.3014 24.0814 42.0109C23.9772 41.6977 23.8727 41.3847 23.7681 41.0717C23.5634 40.4583 23.3591 39.8447 23.1549 39.2311C22.9172 38.5168 22.6791 37.8027 22.441 37.0885C22.0161 35.8143 21.5917 34.5399 21.1675 33.2655C20.7557 32.0285 20.3436 30.7916 19.9312 29.5548C19.4823 28.2086 19.0336 26.8625 18.5852 25.5162C18.5373 25.3726 18.4895 25.2291 18.4417 25.0856C18.4064 24.9796 18.4064 24.9796 18.3704 24.8715C18.2045 24.3735 18.0385 23.8756 17.8725 23.3776C17.6702 22.7708 17.468 22.1639 17.2661 21.5569C17.1631 21.2471 17.06 20.9374 16.9566 20.6277C16.8446 20.2922 16.7331 19.9566 16.6215 19.6209C16.5887 19.5228 16.5559 19.4247 16.5221 19.3235C16.4774 19.1887 16.4774 19.1887 16.4318 19.0511C16.406 18.9736 16.3802 18.8962 16.3536 18.8163C16.2881 18.5971 16.243 18.372 16.1981 18.1475C11.514 18.1475 6.82994 18.1475 2.00391 18.1475C3.02303 16.9585 4.10967 15.8523 5.22118 14.7506C5.49903 14.4751 5.77657 14.1994 6.05393 13.9234C6.11608 13.862 6.17823 13.8006 6.24226 13.7374C6.53148 13.4496 6.81103 13.1584 7.07747 12.8494C7.41398 12.4593 7.77469 12.0974 8.14088 11.7354C8.21028 11.6664 8.27968 11.5973 8.35119 11.5261C8.64498 11.2338 8.9393 10.942 9.23357 10.6502C9.44972 10.4357 9.6656 10.2209 9.88146 10.0061C9.94699 9.94129 10.0125 9.87651 10.08 9.80977C10.439 9.45248 10.7796 9.08589 11.1102 8.70227C11.3268 8.45556 11.5568 8.22399 11.7901 7.99316C11.8371 7.94632 11.8841 7.89948 11.9325 7.85122C12.0796 7.70461 12.227 7.55831 12.3744 7.41203C12.4755 7.31145 12.5765 7.21085 12.6775 7.11023C12.9225 6.86622 13.1677 6.62248 13.4132 6.37891Z" fill="#F43141"/>
<path d="M13.502 6.37828C16.3973 6.31654 19.2924 6.26898 22.1882 6.24066C22.5316 6.23729 22.8749 6.2338 23.2183 6.23024C23.2866 6.22953 23.3549 6.22882 23.4253 6.22809C24.5261 6.21643 25.6264 6.19521 26.7268 6.17035C27.8596 6.14497 28.9921 6.13014 30.125 6.12471C30.7602 6.12137 31.3945 6.11341 32.0293 6.09333C36.3477 5.96068 36.3477 5.96068 37.6944 7.14561C38.2586 7.68522 38.7327 8.28942 39.1799 8.9272C39.5024 9.37503 39.8893 9.77941 40.2806 10.1674C40.345 10.2316 40.4095 10.2957 40.4759 10.3619C40.5772 10.462 40.5772 10.462 40.6804 10.5641C40.7518 10.6352 40.8232 10.7062 40.8968 10.7794C41.123 11.0045 41.3495 11.2293 41.576 11.4541C41.8748 11.7504 42.1733 12.0471 42.4716 12.344C42.5728 12.4441 42.5728 12.4441 42.6761 12.5463C43.0357 12.9042 43.3765 13.271 43.7076 13.6553C43.9955 13.9797 44.3052 14.2822 44.6136 14.5871C44.683 14.6562 44.7524 14.7252 44.8239 14.7964C45.0437 15.0151 45.2638 15.2335 45.4839 15.4518C45.7743 15.7398 46.0643 16.028 46.3542 16.3165C46.4525 16.4136 46.4525 16.4136 46.5528 16.5128C46.9149 16.8732 47.2604 17.2419 47.5922 17.6305C47.7225 17.7792 47.8579 17.919 47.9993 18.0571C47.9697 18.146 47.94 18.2349 47.9095 18.3266C46.0798 18.3337 44.2502 18.3363 42.4205 18.3333C41.5709 18.3321 40.7214 18.3323 39.8718 18.3361C39.1313 18.3394 38.3909 18.3399 37.6504 18.337C37.2583 18.3355 36.8663 18.3355 36.4742 18.3389C36.105 18.342 35.736 18.3413 35.3668 18.3377C35.2315 18.3371 35.0961 18.3378 34.9607 18.3401C33.9366 18.3558 33.9366 18.3558 33.6081 18.0584C33.4699 17.8533 33.3662 17.6539 33.2661 17.4282C33.1604 17.2829 33.0531 17.1388 32.9433 16.9966C32.8866 16.9229 32.83 16.8491 32.7717 16.7732C32.7125 16.6966 32.6533 16.62 32.5923 16.5411C32.1218 15.928 31.6563 15.3119 31.1999 14.6882C30.7574 14.084 30.3075 13.4861 29.8523 12.8914C29.3444 12.2279 28.8448 11.559 28.3511 10.8849C27.9007 10.2714 27.4399 9.66633 26.9766 9.06259C26.6721 8.66479 26.3714 8.26483 26.0774 7.85919C25.9913 7.74063 25.9913 7.74063 25.9035 7.61968C25.7946 7.46909 25.6863 7.31809 25.5786 7.16664C25.5301 7.09964 25.4816 7.03265 25.4317 6.96363C25.3896 6.90459 25.3475 6.84556 25.304 6.78474C25.1783 6.62231 25.1783 6.62231 24.9113 6.55796C24.8807 6.59978 24.8501 6.64161 24.8186 6.68471C24.1986 7.53198 23.5731 8.37443 22.9349 9.20814C22.4797 9.80281 22.0298 10.4007 21.5873 11.0049C21.0855 11.6901 20.5728 12.3665 20.0566 13.0409C19.663 13.5562 19.2754 14.0753 18.8922 14.5983C18.3209 15.3783 17.7364 16.1477 17.1488 16.9155C16.8591 17.2942 16.5722 17.675 16.287 18.0571C16.2277 18.0274 16.1684 17.9978 16.1073 17.9672C16.0377 17.7578 16.0377 17.7578 15.9711 17.477C15.9461 17.3727 15.9211 17.2684 15.8953 17.1609C15.8689 17.0471 15.8425 16.9334 15.8153 16.8162C15.7874 16.6979 15.7593 16.5796 15.7313 16.4613C15.5203 15.5657 15.3265 14.6667 15.1369 13.7663C14.9742 12.9972 14.7956 12.233 14.6094 11.4693C14.3402 10.3614 14.0927 9.24858 13.844 8.13589C13.7493 7.71752 13.6504 7.30018 13.5505 6.883C13.502 6.64779 13.502 6.64779 13.502 6.37828Z" fill="#A00031"/>
<path d="M33.806 18.2344C38.4604 18.2344 43.1148 18.2344 47.9103 18.2344C47.7259 18.6032 47.4995 18.8817 47.2309 19.1889C47.1826 19.2447 47.1343 19.3006 47.0845 19.3581C46.7404 19.7546 46.389 20.1441 46.036 20.5326C45.8342 20.761 45.6423 20.9954 45.451 21.2327C45.1203 21.6418 44.7725 22.0287 44.4145 22.4135C44.1458 22.7039 43.8912 23.0017 43.6431 23.3102C43.3165 23.716 42.9723 24.0988 42.6177 24.4798C42.349 24.7702 42.0945 25.068 41.8463 25.3764C41.5198 25.7823 41.1755 26.165 40.8209 26.546C40.5523 26.8364 40.2978 27.1342 40.0496 27.4426C39.7231 27.8485 39.3788 28.2312 39.0242 28.6123C38.7556 28.9027 38.501 29.2005 38.2529 29.5089C37.9263 29.9147 37.5821 30.2975 37.2275 30.6785C36.9588 30.9689 36.7043 31.2667 36.4561 31.5751C36.1296 31.981 35.7853 32.3637 35.4307 32.7448C35.1621 33.0352 34.9076 33.333 34.6594 33.6414C34.3329 34.0472 33.9886 34.43 33.634 34.811C33.3654 35.1014 33.1108 35.3992 32.8627 35.7076C32.5753 36.0648 32.2764 36.4054 31.9643 36.7407C31.5789 37.1549 31.2183 37.5832 30.8635 38.0241C30.5825 38.3637 30.2832 38.6852 29.9847 39.0095C29.7699 39.2489 29.5663 39.4941 29.3647 39.7447C29.036 40.1521 28.69 40.537 28.3337 40.9199C28.065 41.2103 27.8105 41.5081 27.5623 41.8165C27.2363 42.2217 26.8929 42.6041 26.5385 42.9842C26.1825 43.3684 25.8541 43.7696 25.5298 44.181C25.3613 44.3769 25.3613 44.3769 25.0918 44.5565C25.2214 43.9167 25.4053 43.3087 25.6131 42.6902C25.6649 42.5342 25.6649 42.5342 25.7178 42.375C25.8132 42.0882 25.909 41.8016 26.0049 41.515C26.1085 41.2052 26.2117 40.8952 26.3149 40.5852C26.5168 39.979 26.7191 39.3729 26.9216 38.7668C27.1574 38.0611 27.3927 37.3553 27.628 36.6494C28.0477 35.3905 28.4677 34.1317 28.888 32.873C29.296 31.6511 29.7038 30.4291 30.1113 29.207C30.1364 29.1317 30.1615 29.0563 30.1874 28.9787C30.238 28.8269 30.2886 28.675 30.3393 28.5232C30.3642 28.4484 30.3892 28.3735 30.4149 28.2963C30.4398 28.2216 30.4647 28.1469 30.4904 28.07C30.8786 26.9056 31.2671 25.7413 31.6555 24.577C31.7964 24.1547 31.9373 23.7325 32.0781 23.3102C32.3014 22.6409 32.5247 21.9716 32.7482 21.3024C32.8503 20.9966 32.9524 20.6907 33.0544 20.3848C33.1648 20.0538 33.2753 19.7229 33.3859 19.392C33.4184 19.2945 33.4509 19.197 33.4843 19.0965C33.5286 18.9644 33.5286 18.9644 33.5737 18.8295C33.612 18.7149 33.612 18.7149 33.651 18.5979C33.7161 18.414 33.7161 18.414 33.806 18.2344Z" fill="#A00031"/>
<path d="M36.4998 6.37891C37.0534 6.83344 37.5578 7.33335 38.0627 7.84029C38.206 7.98411 38.3499 8.12745 38.4937 8.27074C38.5871 8.36418 38.6804 8.45764 38.7738 8.55113C38.8568 8.63426 38.9398 8.7174 39.0254 8.80305C39.2193 9.00159 39.402 9.20751 39.5832 9.41778C39.931 9.81862 40.3028 10.1917 40.68 10.5647C40.7514 10.6358 40.8228 10.7069 40.8963 10.7801C41.1225 11.0052 41.349 11.23 41.5755 11.4547C41.8743 11.7511 42.1728 12.0478 42.4711 12.3446C42.5386 12.4114 42.6061 12.4781 42.6756 12.5469C43.0352 12.9048 43.376 13.2716 43.7071 13.6559C43.9951 13.9803 44.3048 14.2829 44.6132 14.5877C44.6826 14.6568 44.752 14.7259 44.8235 14.797C45.0432 15.0157 45.2633 15.2341 45.4834 15.4524C45.7738 15.7404 46.0639 16.0286 46.3537 16.3171C46.452 16.4143 46.452 16.4143 46.5523 16.5134C47.0717 17.0303 47.5589 17.5609 47.9989 18.1475C43.3444 18.1475 38.69 18.1475 33.8945 18.1475C33.9956 17.2378 33.9956 17.2378 34.0858 16.84C34.1061 16.7494 34.1264 16.6588 34.1473 16.5655C34.1695 16.4687 34.1917 16.3719 34.2146 16.2722C34.2381 16.1679 34.2616 16.0637 34.2858 15.9562C34.3644 15.6085 34.4438 15.2609 34.5234 14.9134C34.5374 14.8522 34.5514 14.791 34.5658 14.728C34.6393 14.4072 34.7127 14.0865 34.7862 13.7658C34.8086 13.668 34.8086 13.668 34.8315 13.5682C34.862 13.4352 34.8925 13.3021 34.9231 13.1691C35.1437 12.2077 35.3584 11.2451 35.5677 10.2812C35.7652 9.37239 35.9661 8.46447 36.1741 7.55801C36.1967 7.45917 36.2192 7.36032 36.2424 7.25848C36.2632 7.16856 36.284 7.07865 36.3054 6.98601C36.3325 6.86808 36.3325 6.86808 36.3602 6.74777C36.4099 6.55858 36.4099 6.55858 36.4998 6.37891Z" fill="#F43140"/>
<path d="M13.4132 6.37891C13.6138 6.67985 13.6642 6.90284 13.7423 7.25517C13.7561 7.31624 13.7698 7.37731 13.784 7.44023C13.8293 7.64221 13.8739 7.84435 13.9185 8.0465C13.9829 8.33455 14.0478 8.62251 14.1126 8.91048C14.1291 8.98409 14.1456 9.05769 14.1626 9.13353C14.3137 9.80644 14.4721 10.4775 14.6317 11.1484C14.9135 12.3333 15.182 13.5205 15.4391 14.7109C15.5556 15.2498 15.6733 15.7882 15.7981 16.3252C15.8193 16.4166 15.8405 16.5081 15.8624 16.6023C15.9014 16.7692 15.9407 16.9359 15.9806 17.1026C15.9976 17.1754 16.0146 17.2482 16.0321 17.3232C16.0543 17.4164 16.0543 17.4164 16.077 17.5115C16.1083 17.6983 16.1083 17.6983 16.1083 18.1475C11.4538 18.1475 6.79939 18.1475 2.00391 18.1475C3.02303 16.9585 4.10967 15.8523 5.22118 14.7506C5.49903 14.4751 5.77657 14.1994 6.05393 13.9234C6.11608 13.862 6.17823 13.8006 6.24226 13.7374C6.53148 13.4496 6.81103 13.1584 7.07747 12.8494C7.41398 12.4593 7.77469 12.0974 8.14088 11.7354C8.21028 11.6664 8.27968 11.5973 8.35119 11.5261C8.64498 11.2338 8.9393 10.942 9.23357 10.6502C9.44972 10.4357 9.6656 10.2209 9.88146 10.0061C9.94699 9.94129 10.0125 9.87651 10.08 9.80977C10.439 9.45248 10.7796 9.08589 11.1102 8.70227C11.3268 8.45556 11.5568 8.22399 11.7901 7.99316C11.8371 7.94632 11.8841 7.89948 11.9325 7.85122C12.0796 7.70461 12.227 7.55831 12.3744 7.41203C12.4755 7.31145 12.5765 7.21085 12.6775 7.11023C12.9225 6.86622 13.1677 6.62248 13.4132 6.37891Z" fill="#FD7D51"/>
<path d="M13.502 6.37891C17.3264 6.37891 21.1507 6.37891 25.091 6.37891C24.4879 7.18302 24.4879 7.18302 24.2684 7.46151C23.6732 8.22009 23.0902 8.98577 22.521 9.76404C22.1263 10.3026 21.7237 10.8347 21.3178 11.3648C20.8627 11.9595 20.4128 12.5574 19.9703 13.1616C19.4691 13.8458 18.9576 14.5214 18.4417 15.1945C17.9718 15.8089 17.512 16.4303 17.0599 17.0581C16.7946 17.4228 16.5267 17.7495 16.1971 18.0577C15.9424 17.4438 15.8069 16.8269 15.675 16.1767C15.5034 15.3538 15.3243 14.5341 15.1247 13.7174C14.896 12.7789 14.6801 11.8379 14.4688 10.8953C14.4424 10.7774 14.416 10.6595 14.3895 10.5416C14.3762 10.4822 14.3629 10.4227 14.3491 10.3615C14.2415 9.88259 14.1315 9.4042 14.021 8.92592C13.9876 8.78074 13.9541 8.63556 13.9206 8.49038C13.8717 8.27797 13.8226 8.06559 13.7732 7.85328C13.7276 7.65712 13.6823 7.46089 13.6371 7.26464C13.598 7.09575 13.598 7.09575 13.558 6.92345C13.502 6.64842 13.502 6.64842 13.502 6.37891Z" fill="#CE0045"/>
<path d="M24.9134 6.46875C24.9431 6.46875 24.9727 6.46875 25.0032 6.46875C25.0032 10.3227 25.0032 14.1767 25.0032 18.1475C22.1276 18.1475 19.2519 18.1475 16.2891 18.1475C16.4259 17.8055 16.5011 17.6302 16.7172 17.3608C16.7669 17.2981 16.8165 17.2354 16.8677 17.1708C16.9213 17.104 16.975 17.0372 17.0302 16.9684C17.4788 16.4012 17.9176 15.8288 18.3441 15.2447C18.7901 14.6347 19.2435 14.0311 19.7029 13.4311C20.1581 12.8364 20.6079 12.2385 21.0504 11.6344C21.4929 11.0302 21.9428 10.4323 22.398 9.83763C22.9731 9.08623 23.538 8.32797 24.0972 7.56469C24.1896 7.43893 24.282 7.31318 24.3744 7.18744C24.4497 7.08437 24.4497 7.08437 24.5266 6.97921C24.5753 6.91325 24.6239 6.84728 24.6741 6.77932C24.7398 6.68983 24.7398 6.68983 24.8069 6.59853C24.8596 6.53429 24.8596 6.53429 24.9134 6.46875Z" fill="#FD7D51"/>
</svg>
