<svg width="50" height="50" viewBox="0 0 50 50" fill="none" xmlns="http://www.w3.org/2000/svg">
<path d="M41.851 5.59855C42.161 5.87307 42.4626 6.15555 42.7627 6.44091C42.8459 6.51723 42.8459 6.51723 42.9309 6.59509C45.2073 8.74712 46.8153 12.2587 46.9823 15.3881C46.9872 15.5695 46.9896 15.7507 46.9907 15.9321C46.9913 15.9986 46.9919 16.0652 46.9926 16.1338C47.0127 18.9307 47.0127 18.9307 46.7098 20.1242C46.6928 20.1925 46.6758 20.2609 46.6584 20.3313C45.6613 24.2235 43.2526 27.4889 39.8064 29.5578C36.3985 31.5379 32.2894 32.0858 28.4757 31.0927C26.7147 30.6078 25.1501 29.8278 23.6412 28.8078C23.2882 28.95 23.0453 29.1984 22.7795 29.4615C22.7315 29.5087 22.6835 29.5559 22.6341 29.6045C22.5331 29.7042 22.4323 29.8042 22.3318 29.9044C22.1781 30.057 22.0229 30.2079 21.8676 30.3589C21.7694 30.4562 21.6714 30.5536 21.5734 30.6511C21.527 30.6958 21.4806 30.7405 21.4328 30.7866C21.1436 31.0793 21.035 31.2909 21.0098 31.7023C21.0578 31.7046 21.1059 31.7068 21.1554 31.7092C22.6674 31.8173 24.4363 32.4149 25.5709 33.4566C25.9453 33.9279 26.1113 34.3489 26.13 34.9532C26.1343 35.0465 26.1386 35.1397 26.1431 35.2358C26.0129 36.1594 25.3949 36.7662 24.7547 37.3948C24.6663 37.483 24.5779 37.5714 24.4896 37.6599C24.3056 37.8438 24.1208 38.027 23.9354 38.2096C23.6989 38.4425 23.4641 38.677 23.2297 38.912C23.0478 39.0942 22.8652 39.2757 22.6825 39.457C22.5956 39.5432 22.509 39.6296 22.4225 39.7161C21.7474 40.3903 21.1915 40.9125 20.2039 40.9396C19.5114 40.9286 19.035 40.7276 18.5483 40.2324C17.5426 39.0104 17.047 37.3722 16.8873 35.8248C16.3956 35.9301 16.1143 36.0967 15.7638 36.4613C15.7169 36.5083 15.6701 36.5552 15.6218 36.6036C15.468 36.7582 15.3157 36.9142 15.1635 37.0703C15.056 37.1788 14.9485 37.2872 14.8408 37.3955C14.5579 37.6806 14.2763 37.9669 13.995 38.2535C13.5997 38.6559 13.2026 39.0566 12.8057 39.4574C12.5947 39.6706 12.3841 39.8842 12.174 40.0982C11.7448 40.5344 11.3142 40.9606 10.848 41.3575C10.4351 41.7272 10.0514 42.1284 9.66204 42.5225C9.49666 42.6899 9.33092 42.8568 9.16506 43.0237C8.69402 43.4977 8.22335 43.972 7.75359 44.4473C7.465 44.7391 7.17578 45.0304 6.88613 45.3212C6.77647 45.4316 6.66705 45.5422 6.55789 45.6531C6.40514 45.8081 6.25159 45.9624 6.09783 46.1165C6.05357 46.1618 6.00931 46.2072 5.96371 46.2539C5.44932 46.7654 4.91976 47.0601 4.19077 47.074C3.52989 47.0643 3.03262 46.8672 2.54992 46.4121C2.05103 45.8614 2.02029 45.323 2 44.5941C2.12418 43.5233 3.20482 42.7101 3.92455 42.0024C4.05614 41.8717 4.18764 41.7409 4.31906 41.6101C4.6637 41.2673 5.00935 40.9255 5.35527 40.5839C5.90875 40.0371 6.46059 39.4886 7.01261 38.9402C7.20448 38.7499 7.39673 38.5599 7.58906 38.3701C7.70792 38.2523 7.82678 38.1346 7.94563 38.0169C7.99837 37.9651 8.05111 37.9132 8.10544 37.8597C8.42788 37.5398 8.72951 37.2071 9.02651 36.8635C9.20874 36.6562 9.40146 36.4623 9.59914 36.2697C9.71718 36.1542 9.71718 36.1542 9.83761 36.0364C9.96195 35.9152 9.96195 35.9152 10.0888 35.7916C10.2665 35.617 10.4438 35.4421 10.6212 35.2672C10.8989 34.9937 11.177 34.7207 11.4563 34.449C11.684 34.2276 11.9103 34.0048 12.1358 33.7812C12.2214 33.6967 12.3075 33.6128 12.3941 33.5293C12.9402 33.0425 12.9402 33.0425 13.2126 32.3917C13.2095 32.3089 13.2065 32.2262 13.2033 32.1409C13.1499 32.1396 13.0966 32.1384 13.0416 32.1371C11.4398 32.0499 9.68009 31.3111 8.5271 30.1893C8.19425 29.6468 8.04099 29.0583 8.14427 28.425C8.35795 27.593 9.01492 26.9819 9.60706 26.3991C9.69164 26.3147 9.77616 26.2303 9.86061 26.1458C10.0364 25.9703 10.2128 25.7953 10.3896 25.6208C10.6153 25.3982 10.8397 25.1744 11.0638 24.9502C11.2377 24.7764 11.4121 24.6029 11.5866 24.4297C11.7095 24.3076 11.8321 24.1853 11.9548 24.0629C12.6116 23.4159 13.1184 22.9795 14.075 22.9036C14.6838 22.9212 15.179 23.1846 15.6593 23.545C16.6014 24.7103 17.4319 26.4982 17.3258 28.0184C17.8972 27.9953 18.1322 27.8112 18.5178 27.404C18.5695 27.3516 18.6212 27.2991 18.6745 27.2451C18.8384 27.0783 19.0003 26.9097 19.1623 26.741C19.2735 26.6272 19.3848 26.5135 19.4962 26.3999C19.7683 26.1221 20.0386 25.8427 20.3081 25.5624C20.1683 25.1955 19.9921 24.9009 19.7708 24.5756C17.8063 21.5836 17.1264 17.663 17.8159 14.1613C18.0528 13.0385 18.3298 11.9567 18.817 10.9143C18.8429 10.858 18.8689 10.8017 18.8957 10.7437C20.5001 7.29708 23.3352 4.45717 26.9275 3.11466C27.863 2.77723 28.7985 2.48157 29.7811 2.31839C29.8823 2.30052 29.9835 2.28266 30.0878 2.26425C34.2625 1.63001 38.6563 2.82063 41.851 5.59855Z" fill="#E48C9B"/>
<path d="M31.0968 18.7227C31.3634 19.2559 30.784 20.4768 30.6024 21.028C29.6255 23.8992 28.0431 26.4143 25.8553 28.5195C25.5913 28.7939 25.4504 28.9736 25.4448 29.3634C25.4627 29.6707 25.4627 29.6707 25.5709 29.8622C25.0235 29.7147 24.6058 29.4153 24.1452 29.0975C24.0555 29.0385 24.0555 29.0385 23.9639 28.9782C23.8835 28.9234 23.8835 28.9234 23.8015 28.8675C23.6418 28.7922 23.6418 28.7922 23.4775 28.857C23.2195 29.0336 23.001 29.2442 22.7795 29.4634C22.7075 29.5342 22.7075 29.5342 22.6341 29.6064C22.5331 29.7061 22.4323 29.8061 22.3318 29.9063C22.1781 30.0589 22.0229 30.2098 21.8676 30.3608C21.7694 30.4581 21.6714 30.5555 21.5734 30.653C21.527 30.6977 21.4806 30.7424 21.4328 30.7885C21.1436 31.0812 21.035 31.2928 21.0098 31.7042C21.0578 31.7065 21.1059 31.7087 21.1554 31.7111C22.6674 31.8192 24.4363 32.4168 25.5709 33.4585C25.9453 33.9298 26.1113 34.3508 26.13 34.9551C26.1343 35.0484 26.1386 35.1416 26.1431 35.2378C26.0129 36.1613 25.3949 36.7681 24.7547 37.3967C24.6663 37.485 24.5779 37.5733 24.4896 37.6618C24.3056 37.8457 24.1208 38.0289 23.9354 38.2115C23.6989 38.4444 23.4641 38.6789 23.2297 38.9139C23.0478 39.0961 22.8652 39.2776 22.6825 39.4589C22.5956 39.5451 22.509 39.6315 22.4225 39.718C21.7474 40.3922 21.1915 40.9144 20.2039 40.9415C19.5114 40.9305 19.035 40.7295 18.5483 40.2343C17.5426 39.0123 17.047 37.3741 16.8873 35.8267C16.3956 35.932 16.1143 36.0986 15.7638 36.4632C15.6935 36.5337 15.6935 36.5337 15.6218 36.6055C15.468 36.7601 15.3157 36.9161 15.1635 37.0722C15.056 37.1807 14.9485 37.2891 14.8408 37.3974C14.5579 37.6825 14.2763 37.9688 13.995 38.2554C13.5997 38.6578 13.2026 39.0585 12.8057 39.4593C12.5947 39.6725 12.3841 39.8861 12.174 40.1001C11.7448 40.5363 11.3142 40.9625 10.848 41.3595C10.4351 41.7291 10.0514 42.1303 9.66204 42.5244C9.49666 42.6918 9.33092 42.8587 9.16506 43.0256C8.69402 43.4996 8.22335 43.9739 7.75359 44.4492C7.465 44.7411 7.17578 45.0323 6.88613 45.3231C6.77647 45.4335 6.66705 45.5441 6.55789 45.655C6.40514 45.81 6.25159 45.9643 6.09783 46.1184C6.05357 46.1637 6.00931 46.2091 5.96371 46.2558C5.44932 46.7673 4.91976 47.062 4.19077 47.0759C3.52989 47.0662 3.03262 46.8691 2.54992 46.414C2.05103 45.8633 2.02029 45.3249 2 44.596C2.12418 43.5252 3.20482 42.712 3.92455 42.0043C4.05614 41.8736 4.18764 41.7428 4.31906 41.612C4.6637 41.2692 5.00935 40.9274 5.35527 40.5858C5.90875 40.039 6.46059 39.4905 7.01261 38.9421C7.20448 38.7518 7.39673 38.5618 7.58906 38.372C7.70792 38.2543 7.82678 38.1365 7.94563 38.0188C7.99837 37.967 8.05111 37.9151 8.10544 37.8616C8.42788 37.5417 8.72951 37.209 9.02651 36.8654C9.20874 36.6581 9.40146 36.4642 9.59914 36.2716C9.67784 36.1946 9.75653 36.1176 9.83761 36.0383C9.96195 35.9171 9.96195 35.9171 10.0888 35.7935C10.2665 35.6189 10.4438 35.444 10.6212 35.2691C10.8989 34.9956 11.177 34.7226 11.4563 34.4509C11.684 34.2295 11.9103 34.0067 12.1358 33.7831C12.2214 33.6986 12.3075 33.6147 12.3941 33.5312C12.9402 33.0444 12.9402 33.0444 13.2126 32.3936C13.2095 32.3108 13.2065 32.2281 13.2033 32.1428C13.1499 32.1415 13.0966 32.1403 13.0416 32.139C11.4398 32.0518 9.68009 31.313 8.5271 30.1912C8.19425 29.6487 8.04099 29.0602 8.14427 28.4269C8.35795 27.5949 9.01492 26.9838 9.60706 26.401C9.69164 26.3166 9.77616 26.2322 9.86061 26.1477C10.0364 25.9722 10.2128 25.7972 10.3896 25.6227C10.6153 25.4001 10.8397 25.1763 11.0638 24.9521C11.2377 24.7783 11.4121 24.6048 11.5866 24.4316C11.7095 24.3095 11.8321 24.1872 11.9548 24.0648C12.6116 23.4178 13.1184 22.9814 14.075 22.9055C14.6838 22.9231 15.179 23.1865 15.6593 23.5469C16.6014 24.7122 17.4319 26.5001 17.3258 28.0203C17.8972 27.9972 18.1322 27.8131 18.5178 27.4059C18.5954 27.3273 18.5954 27.3273 18.6745 27.247C18.8384 27.0802 19.0003 26.9116 19.1623 26.7429C19.2735 26.6291 19.3848 26.5154 19.4962 26.4018C19.7683 26.124 20.0386 25.8446 20.3081 25.5643C20.1683 25.1974 19.9921 24.9028 19.7708 24.5775C19.0961 23.5548 18.5116 22.3693 18.203 21.1786C18.2319 21.0918 18.2608 21.005 18.2907 20.9155C18.3263 20.9569 18.362 20.9982 18.3988 21.0408C18.5796 21.2016 18.6936 21.2324 18.9293 21.278C19.0033 21.2926 19.0772 21.3072 19.1534 21.3222C19.2305 21.3363 19.3076 21.3505 19.3871 21.365C19.4615 21.3798 19.5359 21.3946 19.6125 21.4099C22.1454 21.8958 24.6374 21.6414 27.062 20.8278C27.1245 20.8071 27.187 20.7864 27.2515 20.7651C28.6524 20.2946 29.9085 19.5968 31.0968 18.7227Z" fill="#E38B9A"/>
<path d="M20.0449 29.9492C20.2204 29.9492 20.2204 29.9492 20.3879 30.1103C20.8323 30.6345 21.0334 31.01 21.0098 31.7035C21.0819 31.7069 21.0819 31.7069 21.1554 31.7103C22.6674 31.8185 24.4363 32.4161 25.5709 33.4577C25.9453 33.9291 26.1113 34.3501 26.13 34.9544C26.1343 35.0476 26.1386 35.1409 26.1431 35.237C26.0129 36.1606 25.3949 36.7673 24.7547 37.3959C24.6663 37.4842 24.5779 37.5726 24.4896 37.661C24.3056 37.845 24.1208 38.0281 23.9354 38.2107C23.6989 38.4437 23.4641 38.6782 23.2297 38.9132C23.0478 39.0954 22.8652 39.2769 22.6825 39.4582C22.5956 39.5444 22.509 39.6307 22.4225 39.7173C21.7474 40.3915 21.1915 40.9137 20.2039 40.9408C19.5114 40.9297 19.035 40.7288 18.5483 40.2336C17.5426 39.0115 17.047 37.3734 16.8873 35.826C16.3956 35.9312 16.1143 36.0979 15.7638 36.4625C15.6935 36.5329 15.6935 36.5329 15.6218 36.6048C15.468 36.7593 15.3157 36.9154 15.1635 37.0715C15.056 37.18 14.9485 37.2884 14.8408 37.3967C14.5579 37.6817 14.2763 37.968 13.995 38.2547C13.5997 38.6571 13.2026 39.0578 12.8057 39.4586C12.5947 39.6717 12.3841 39.8854 12.174 40.0994C11.7448 40.5355 11.3142 40.9617 10.848 41.3587C10.4351 41.7283 10.0514 42.1296 9.66204 42.5237C9.49666 42.691 9.33092 42.858 9.16506 43.0249C8.69402 43.4988 8.22335 43.9732 7.75359 44.4484C7.465 44.7403 7.17578 45.0316 6.88613 45.3224C6.77647 45.4328 6.66705 45.5434 6.55789 45.6542C6.40514 45.8093 6.25159 45.9636 6.09783 46.1176C6.05357 46.163 6.00931 46.2083 5.96371 46.255C5.44932 46.7666 4.91976 47.0613 4.19077 47.0752C3.52989 47.0655 3.03262 46.8683 2.54992 46.4133C2.05103 45.8626 2.02029 45.3242 2 44.5953C2.12418 43.5245 3.20482 42.7113 3.92455 42.0036C4.05614 41.8729 4.18764 41.7421 4.31906 41.6112C4.66371 41.2684 5.00935 40.9266 5.35527 40.5851C5.90875 40.0382 6.46059 39.4897 7.01261 38.9414C7.20448 38.7511 7.39673 38.5611 7.58906 38.3712C7.70792 38.2535 7.82678 38.1358 7.94563 38.0181C7.99837 37.9662 8.05111 37.9144 8.10544 37.8609C8.42758 37.5413 8.72921 37.2091 9.02593 36.8657C9.21224 36.6532 9.4085 36.4526 9.60859 36.2531C9.68932 36.1724 9.77005 36.0916 9.85323 36.0085C9.93917 35.923 10.0251 35.8375 10.1111 35.752C10.2007 35.6626 10.2903 35.5731 10.3798 35.4836C10.6134 35.2504 10.8472 35.0175 11.081 34.7846C11.3205 34.546 11.5598 34.3071 11.799 34.0683C12.2669 33.6014 12.735 33.1348 13.2033 32.6683C13.3787 32.8438 13.3787 32.8438 13.5216 33.1161C13.7565 33.5357 14.0852 33.8519 14.4258 34.1869C14.4875 34.2496 14.5492 34.3123 14.6127 34.3769C14.673 34.4368 14.7334 34.4968 14.7955 34.5586C14.8498 34.6126 14.904 34.6666 14.9599 34.7222C15.3005 34.9957 15.6538 35.0826 16.0899 35.0694C16.7351 34.954 17.246 34.3658 17.6866 33.9213C17.7512 33.857 17.8158 33.7927 17.8823 33.7264C18.0177 33.5912 18.1528 33.4556 18.2876 33.3197C18.4935 33.1124 18.7008 32.9065 18.9083 32.7007C19.0402 32.5686 19.1721 32.4364 19.3038 32.3041C19.3655 32.243 19.4272 32.1818 19.4907 32.1188C19.889 31.7148 20.1954 31.3694 20.2478 30.7825C20.2206 30.4783 20.1556 30.2328 20.0449 29.9492Z" fill="#E38B9A"/>
<path d="M38.8158 3.63672C40.278 4.32114 41.4983 5.26063 42.6752 6.35583C42.7336 6.40954 42.7921 6.46324 42.8523 6.51858C44.4842 8.07731 45.8957 10.3818 46.4468 12.5835C46.4136 12.7928 46.4136 12.7928 46.3591 12.9343C46.3591 12.8764 46.3591 12.8185 46.3591 12.7589C42.6124 11.6876 38.5601 11.9907 35.1178 13.88C34.5824 14.1825 34.0531 14.4887 33.5544 14.8493C33.2899 15.0394 33.2899 15.0394 33.2021 15.0394C33.2518 14.4323 33.3738 13.8831 33.553 13.3016C33.58 13.2139 33.607 13.1261 33.6348 13.0357C33.9167 12.1485 34.2818 11.3122 34.6933 10.4783C34.7252 10.413 34.757 10.3477 34.7899 10.2804C35.7664 8.29838 37.1279 6.61031 38.7031 5.07062C38.9408 4.82634 39.0705 4.68215 39.1063 4.33842C39.0759 4.04631 39.033 3.99312 38.8158 3.81215C38.8158 3.75425 38.8158 3.69636 38.8158 3.63672Z" fill="#ECEAFC"/>
<path d="M34.0791 17.9336C34.658 17.9882 35.1904 18.1128 35.7457 18.2844C35.8049 18.3027 35.8641 18.321 35.9251 18.3398C39.0342 19.3178 41.8069 21.0397 44.0236 23.4321C44.2533 23.6647 44.3389 23.7219 44.665 23.8213C44.9556 23.8104 45.1309 23.7489 45.3941 23.635C44.6863 24.9359 43.8802 26.078 42.8504 27.1435C42.7792 27.2192 42.708 27.295 42.6346 27.373C41.0243 29.0458 38.7213 30.4711 36.4474 31.0029C36.3605 30.9739 36.2737 30.945 36.1842 30.9151C36.2451 30.8422 36.2451 30.8422 36.3072 30.7678C37.415 29.1589 36.9996 25.8185 36.6676 24.0162C36.2566 21.9838 35.4715 19.918 34.1905 18.2639C34.0791 18.109 34.0791 18.109 34.0791 17.9336Z" fill="#ECEAFC"/>
<path d="M28.2024 2.84554C28.1618 2.87935 28.1212 2.91315 28.0794 2.94798C27.3122 3.82776 27.4676 5.76751 27.4733 6.89131C27.4735 6.95868 27.4737 7.02606 27.4739 7.09548C27.4869 9.99357 28.2796 12.6878 29.869 15.1254C29.9239 15.2098 29.9789 15.2943 30.0355 15.3813C30.1538 15.5604 30.2733 15.7383 30.3953 15.9148C26.9249 15.2942 23.8529 13.6387 21.2731 11.266C21.095 11.1081 20.916 10.9514 20.7358 10.7959C20.6244 10.6984 20.5148 10.5987 20.4069 10.4971C20.1054 10.2125 20.1054 10.2125 19.7217 10.0819C19.5127 10.1271 19.3515 10.1924 19.168 10.3012C19.6936 8.8926 20.6902 7.69512 21.7117 6.61721C21.7855 6.53874 21.8593 6.46027 21.9354 6.37942C23.014 5.26493 26.4846 2.27294 28.2024 2.84554Z" fill="#ECEAFC"/>
<path d="M31.097 18.7227C31.3636 19.2559 30.7842 20.4768 30.6026 21.028C29.6256 23.8992 28.0432 26.4143 25.8554 28.5195C25.5914 28.7939 25.4506 28.9736 25.4449 29.3634C25.4629 29.6707 25.4629 29.6707 25.571 29.8622C25.1079 29.7325 24.7397 29.5197 24.3376 29.2647C24.2767 29.2273 24.2158 29.1899 24.1531 29.1514C23.7906 28.9239 23.4978 28.6846 23.2028 28.3711C23.0631 28.2421 22.9224 28.1142 22.7807 27.9874C22.7042 27.9186 22.6278 27.8499 22.549 27.779C22.4145 27.6602 22.2788 27.5428 22.1406 27.4282C21.7173 27.076 21.3767 26.6865 21.035 26.255C20.9052 26.0918 20.7726 25.9308 20.6368 25.7726C19.5327 24.4822 18.6403 22.8272 18.2031 21.1786C18.2465 21.0484 18.2465 21.0484 18.2908 20.9155C18.3265 20.9569 18.3622 20.9982 18.3989 21.0408C18.5798 21.2016 18.6937 21.2324 18.9295 21.278C19.0034 21.2926 19.0774 21.3072 19.1536 21.3222C19.2692 21.3434 19.2692 21.3434 19.3873 21.365C19.4617 21.3798 19.5361 21.3946 19.6127 21.4099C22.1456 21.8958 24.6375 21.6414 27.0622 20.8278C27.1247 20.8071 27.1872 20.7864 27.2516 20.7651C28.6525 20.2946 29.9086 19.5968 31.097 18.7227Z" fill="#ECEAFC"/>
<path d="M12.5018 33.3711C12.6317 33.5439 12.7612 33.7168 12.8879 33.8919C13.3457 34.5069 13.8828 35.0314 14.4315 35.5639C13.9448 36.1566 13.4037 36.6922 12.8615 37.2332C12.7597 37.3351 12.6579 37.437 12.5562 37.5389C12.3435 37.7516 12.1308 37.9642 11.9179 38.1767C11.6466 38.4474 11.3758 38.7185 11.1051 38.9897C10.8952 39.2 10.685 39.41 10.4748 39.62C10.375 39.7198 10.2752 39.8197 10.1754 39.9196C9.70648 40.3893 9.23628 40.8507 8.73166 41.2825C8.38589 41.5916 8.06536 41.9269 7.74115 42.2584C7.56322 42.4401 7.38442 42.6209 7.20568 42.8017C6.87456 43.1368 6.54381 43.4723 6.2145 43.8092C5.98376 44.0451 5.75193 44.28 5.51937 44.5142C5.43172 44.6029 5.34447 44.6919 5.25766 44.7814C4.67868 45.3777 4.17031 45.8526 3.32239 45.9514C3.17975 45.9465 3.17975 45.9465 3.03424 45.9415C2.93756 45.9393 2.84089 45.9372 2.74129 45.935C2.50248 45.9141 2.50248 45.9141 2.32705 45.8264C2.28363 45.9132 2.28363 45.9132 2.23934 46.0018C2.06849 45.6401 2.02997 45.3315 2.02005 44.9328C2.01327 44.7708 2.01327 44.7708 2.00635 44.6056C2.10674 43.5325 3.20802 42.7094 3.92473 42.0047C4.05632 41.874 4.18782 41.7432 4.31924 41.6123C4.66389 41.2695 5.00953 40.9277 5.35545 40.5862C5.90893 40.0393 6.46077 39.4908 7.01279 38.9425C7.20466 38.7521 7.39691 38.5622 7.58924 38.3723C7.7081 38.2546 7.82696 38.1369 7.94581 38.0192C7.99855 37.9673 8.05129 37.9154 8.10562 37.862C8.42904 37.5411 8.73215 37.2076 9.03004 36.8629C9.1948 36.6743 9.36701 36.4953 9.54435 36.3186C9.61104 36.2519 9.67772 36.1852 9.74643 36.1165C9.81616 36.0472 9.8859 35.9779 9.95776 35.9066C10.0309 35.8336 10.104 35.7606 10.1793 35.6854C10.4105 35.4546 10.6421 35.2242 10.8736 34.9938C11.0314 34.8364 11.1892 34.679 11.3469 34.5216C11.7317 34.1379 12.1166 33.7544 12.5018 33.3711Z" fill="#EBB09B"/>
<path d="M42.6749 12.1452C43.8946 12.0696 45.2423 12.2546 46.3589 12.7591C46.3589 12.817 46.3589 12.8749 46.3589 12.9346C46.4168 12.9346 46.4747 12.9346 46.5343 12.9346C46.5914 13.183 46.648 13.4315 46.7043 13.6801C46.7283 13.7843 46.7283 13.7843 46.7527 13.8905C46.7761 13.994 46.7761 13.994 46.7999 14.0995C46.8141 14.162 46.8283 14.2245 46.843 14.2888C46.9463 14.8389 46.9872 15.3767 46.9907 15.935C46.9913 16.0015 46.9919 16.0681 46.9926 16.1367C47.0127 18.9382 47.0127 18.9382 46.7097 20.1271C46.6923 20.1963 46.6749 20.2656 46.6569 20.337C46.4383 21.1785 46.156 21.9956 45.8326 22.8023C45.8056 22.8721 45.7786 22.9418 45.7508 23.0137C45.5694 23.446 45.4029 23.7013 44.9555 23.8987C44.6233 23.9222 44.4334 23.8824 44.1684 23.6765C43.9808 23.4991 43.8042 23.3152 43.6288 23.1257C43.5082 22.9989 43.3873 22.8722 43.2663 22.7458C43.2102 22.6859 43.1541 22.626 43.0963 22.5643C42.9304 22.3905 42.9304 22.3905 42.6701 22.2257C42.6138 22.1699 42.5575 22.1142 42.4995 22.0567C42.5026 21.7782 42.5026 21.7782 42.5872 21.4428C42.6028 21.3805 42.6184 21.3183 42.6345 21.2542C42.6875 21.0477 42.744 20.8423 42.801 20.6369C43.3853 18.4697 43.5504 16.0954 43.0258 13.8994C42.9939 13.7619 42.9621 13.6244 42.9302 13.4869C42.8834 13.2861 42.836 13.0856 42.7864 12.8855C42.7236 12.6314 42.6749 12.4081 42.6749 12.1452Z" fill="#CC5C70"/>
<path d="M20.0447 29.9492C20.1026 29.9492 20.1605 29.9492 20.2202 29.9492C20.3877 30.1288 20.3877 30.1288 20.5765 30.3659C20.639 30.4432 20.7015 30.5205 20.766 30.6002C21.0326 30.987 21.0417 31.3253 21.0096 31.7912C20.826 32.2511 20.5547 32.5418 20.2037 32.8766C20.1302 32.9484 20.1302 32.9484 20.0552 33.0216C19.9353 33.1383 19.8147 33.2543 19.6939 33.37C19.768 33.4569 19.8422 33.5437 19.9186 33.6332C19.9659 33.6893 20.0132 33.7453 20.0619 33.8031C20.1689 33.9255 20.2802 34.0443 20.3949 34.1595C20.8316 34.6084 20.8316 34.6084 20.8451 35.0201C20.6944 35.4471 20.6944 35.4471 20.4833 35.5629C20.1173 35.6249 19.9109 35.6491 19.5983 35.4405C19.4828 35.3388 19.3698 35.234 19.2601 35.126C19.0357 34.9054 18.7969 34.7098 18.5536 34.5103C18.4764 34.5906 18.3992 34.6709 18.3196 34.7536C18.2167 34.8589 18.1138 34.9642 18.0109 35.0695C17.9602 35.1224 17.9095 35.1753 17.8572 35.2298C17.4892 35.6041 17.2273 35.8096 16.6863 35.8447C16.2966 35.9273 16.1091 36.0946 15.8433 36.3729C15.7955 36.4207 15.7478 36.4685 15.6986 36.5177C15.5417 36.6754 15.3868 36.8348 15.2318 36.9944C15.1224 37.105 15.0129 37.2155 14.9032 37.3259C14.6149 37.6166 14.3282 37.9089 14.0419 38.2016C13.6954 38.5552 13.3473 38.9072 12.9992 39.2592C12.728 39.5336 12.4571 39.8082 12.1871 40.0838C11.7534 40.5256 11.3191 40.9581 10.8471 41.3595C10.4343 41.7287 10.0509 42.1298 9.66183 42.5237C9.49645 42.691 9.33071 42.858 9.16485 43.0249C8.69381 43.4988 8.22314 43.9732 7.75338 44.4484C7.4648 44.7403 7.17557 45.0316 6.88592 45.3224C6.77626 45.4328 6.66684 45.5434 6.55768 45.6542C6.40493 45.8093 6.25138 45.9636 6.09762 46.1176C6.05336 46.163 6.0091 46.2083 5.9635 46.255C5.44911 46.7666 4.91955 47.0613 4.19057 47.0752C3.50671 47.0652 3.05247 46.846 2.53258 46.4126C2.38238 46.2236 2.35831 46.0617 2.32666 45.8253C2.41248 45.8294 2.4983 45.8334 2.58672 45.8376C2.70171 45.8408 2.8167 45.844 2.93517 45.8472C3.04813 45.8513 3.16108 45.8554 3.27746 45.8596C4.2589 45.8095 4.85886 45.1044 5.50112 44.4449C5.60244 44.3425 5.70386 44.2402 5.80538 44.1381C6.07125 43.8701 6.33582 43.6008 6.60009 43.3311C6.97191 42.9523 7.34548 42.5751 7.71888 42.1977C7.91724 41.9973 8.11509 41.7963 8.31254 41.595C8.72801 41.1724 9.14615 40.7611 9.59734 40.3763C10.0327 39.9888 10.4375 39.567 10.8485 39.154C10.9498 39.0526 11.051 38.9512 11.1523 38.8498C11.4167 38.5851 11.6808 38.3202 11.9448 38.0552C12.2151 37.7839 12.4857 37.5129 12.7563 37.2419C13.2856 36.7117 13.8146 36.1812 14.3434 35.6506C14.2601 35.5525 14.1767 35.4545 14.0933 35.3566C14.0468 35.302 14.0004 35.2474 13.9526 35.1912C13.7839 34.9988 13.6027 34.8232 13.4169 34.6474C13.0907 34.3239 12.7523 33.9835 12.5891 33.5455C12.6077 33.3095 12.6555 33.2169 12.8197 33.0452C12.9767 32.9196 13.1338 32.794 13.2908 32.6683C13.3334 32.7681 13.3761 32.8678 13.42 32.9705C13.6571 33.444 14.0056 33.7823 14.3817 34.1485C14.4476 34.215 14.5135 34.2815 14.5813 34.35C15.0057 34.7695 15.2973 35.0051 15.9058 35.075C16.6458 35.0525 17.1979 34.4141 17.6864 33.9213C17.751 33.857 17.8156 33.7927 17.8821 33.7264C18.0175 33.5912 18.1526 33.4556 18.2874 33.3197C18.4933 33.1124 18.7006 32.9065 18.9081 32.7007C19.04 32.5686 19.1719 32.4364 19.3036 32.3041C19.3653 32.243 19.427 32.1818 19.4905 32.1188C19.8888 31.7148 20.1952 31.3694 20.2476 30.7825C20.2204 30.4783 20.1554 30.2328 20.0447 29.9492Z" fill="#E58E73"/>
<path d="M38.8157 3.63672C40.2778 4.32114 41.4981 5.26063 42.675 6.35583C42.7335 6.40954 42.7919 6.46324 42.8522 6.51858C44.484 8.07731 45.8955 10.3818 46.4467 12.5835C46.4135 12.7928 46.4135 12.7928 46.359 12.9343C46.359 12.8764 46.359 12.8185 46.359 12.7589C45.4538 12.5001 44.559 12.3405 43.6231 12.2361C43.4993 12.2218 43.4993 12.2218 43.373 12.2073C43.2997 12.1994 43.2264 12.1915 43.1509 12.1834C42.9127 12.1403 42.7165 12.0773 42.4996 11.9695C42.3694 11.717 42.3694 11.717 42.2584 11.3939C41.5735 9.53577 40.4654 7.93461 39.0788 6.53125C39.0355 6.48719 38.9921 6.44312 38.9475 6.39771C38.701 6.14766 38.4524 5.89988 38.2017 5.65412C38.2356 5.61489 38.2695 5.57565 38.3044 5.53523C38.3992 5.42518 38.4936 5.31472 38.5875 5.20391C38.7008 5.0718 38.8179 4.94301 38.9363 4.81536C39.1162 4.54547 39.1272 4.39364 39.0788 4.07528C38.9545 3.92169 38.9545 3.92169 38.8157 3.81215C38.8157 3.75425 38.8157 3.69636 38.8157 3.63672Z" fill="#D2D2FB"/>
<path d="M42.4117 21.9688C42.7794 22.2188 43.1042 22.4794 43.4119 22.8003C43.4911 22.8828 43.4911 22.8828 43.572 22.967C43.678 23.0786 43.7828 23.1913 43.8863 23.3052C44.1435 23.5758 44.2927 23.709 44.659 23.8145C44.9535 23.8108 45.1341 23.7692 45.394 23.6353C44.6862 24.9362 43.8801 26.0784 42.8503 27.1438C42.7791 27.2196 42.7078 27.2953 42.6344 27.3734C41.0242 29.0462 38.7211 30.4714 36.4472 31.0032C36.3604 30.9743 36.2735 30.9453 36.1841 30.9155C36.2246 30.8678 36.265 30.8201 36.3067 30.7709C36.7096 30.1793 36.7532 29.3337 36.7981 28.635C36.856 28.7218 36.9139 28.8086 36.9735 28.8981C37.6291 28.4407 38.2356 27.9571 38.8155 27.407C38.8986 27.3295 38.9817 27.2521 39.0673 27.1723C40.5449 25.7672 41.7641 23.9118 42.4117 21.9688Z" fill="#D2D2FB"/>
<path d="M24.7816 33.0195C25.3768 33.2381 25.6836 33.6243 26.0096 34.1598C26.103 34.4399 26.1211 34.66 26.1302 34.9547C26.1345 35.048 26.1388 35.1413 26.1432 35.2374C26.0131 36.161 25.3951 36.7677 24.7549 37.3963C24.6664 37.4846 24.5781 37.5729 24.4898 37.6614C24.3057 37.8453 24.1209 38.0285 23.9355 38.2111C23.6991 38.4441 23.4642 38.6785 23.2299 38.9136C23.048 39.0957 22.8654 39.2772 22.6826 39.4585C22.5958 39.5447 22.5092 39.6311 22.4227 39.7176C21.7476 40.3918 21.1917 40.9141 20.2041 40.9411C19.5906 40.9313 19.1509 40.7945 18.6999 40.37C18.2031 39.8287 18.2031 39.8287 18.2031 39.598C18.2963 39.6021 18.3895 39.6062 18.4855 39.6104C19.6656 39.6474 20.1665 39.4048 21.0352 38.5992C21.5575 38.1074 22.0674 37.6026 22.5766 37.0973C22.7203 36.955 22.8644 36.8133 23.009 36.672C23.2206 36.4653 23.4306 36.2572 23.6403 36.0487C23.7044 35.9867 23.7684 35.9246 23.8344 35.8606C24.3401 35.3529 24.7837 34.7699 24.8244 34.0303C24.8216 33.9089 24.8165 33.7876 24.809 33.6664C24.807 33.6034 24.8051 33.5405 24.803 33.4756C24.798 33.3235 24.7901 33.1715 24.7816 33.0195Z" fill="#CD5D70"/>
<path d="M20.0449 29.9492C20.1028 29.9492 20.1607 29.9492 20.2204 29.9492C20.3879 30.1288 20.3879 30.1288 20.5767 30.3659C20.6705 30.4819 20.6705 30.4819 20.7662 30.6002C21.0328 30.987 21.0419 31.3253 21.0098 31.7912C20.8262 32.2511 20.5549 32.5418 20.2039 32.8766C20.1304 32.9484 20.1304 32.9484 20.0554 33.0216C19.9355 33.1383 19.8149 33.2543 19.6941 33.37C19.7682 33.4569 19.8424 33.5437 19.9188 33.6332C19.9661 33.6893 20.0134 33.7453 20.0621 33.8031C20.1691 33.9255 20.2804 34.0443 20.3951 34.1595C20.8318 34.6084 20.8318 34.6084 20.8453 35.0201C20.6946 35.4471 20.6946 35.4471 20.4835 35.5629C20.1175 35.6249 19.9111 35.6491 19.5985 35.4405C19.483 35.3388 19.37 35.234 19.2603 35.126C19.0359 34.9054 18.7971 34.7098 18.5538 34.5103C18.438 34.6307 18.438 34.6307 18.3198 34.7536C18.2169 34.8589 18.114 34.9642 18.0111 35.0695C17.9604 35.1224 17.9097 35.1753 17.8574 35.2298C17.4721 35.6217 17.1982 35.8004 16.6406 35.8644C16.2062 35.8529 15.9014 35.6575 15.5716 35.3874C15.3523 35.1407 15.3523 35.1407 15.2207 34.9489C15.2641 34.9633 15.3075 34.9778 15.3523 34.9927C15.9545 35.1132 16.2851 35.0661 16.7877 34.7363C17.1162 34.4938 17.3997 34.2108 17.6866 33.9213C17.7512 33.857 17.8158 33.7927 17.8823 33.7264C18.0177 33.5912 18.1528 33.4556 18.2876 33.3197C18.4935 33.1124 18.7008 32.9065 18.9083 32.7007C19.0402 32.5686 19.1721 32.4364 19.3038 32.3041C19.3655 32.243 19.4272 32.1818 19.4907 32.1188C19.889 31.7148 20.1954 31.3694 20.2478 30.7825C20.2206 30.4783 20.1556 30.2328 20.0449 29.9492Z" fill="#CC5C70"/>
<path d="M38.0918 3.25714C38.1551 3.28216 38.2184 3.30717 38.2836 3.33295C38.4577 3.40619 38.4577 3.40619 38.7277 3.54769C38.7711 3.67795 38.7711 3.67795 38.8154 3.81083C38.9457 3.85425 38.9457 3.85425 39.0785 3.89855C39.2042 4.14993 39.1948 4.32119 39.1662 4.60025C39.0059 4.84043 39.0059 4.84043 38.7935 5.06623C38.7243 5.14187 38.6551 5.21751 38.5838 5.29545C38.2682 5.57289 38.2682 5.57289 38.026 5.5651C37.8432 5.44376 37.687 5.32331 37.5216 5.18135C36.9344 4.70384 36.3118 4.33709 35.6438 3.98412C35.502 3.90897 35.3613 3.83164 35.2209 3.75396C34.0185 3.11291 32.7013 2.71044 31.3598 2.49513C31.261 2.47863 31.1621 2.46212 31.0603 2.44511C30.9855 2.43267 30.9106 2.42024 30.8335 2.40742C30.8335 2.34953 30.8335 2.29164 30.8335 2.23199C33.0659 1.57999 36.0074 2.42438 38.0918 3.25714Z" fill="#CD5F73"/>
<path d="M20.3959 25.4766C20.923 25.9867 21.4164 26.5332 21.876 27.1047C22.2336 27.5274 22.6819 27.8546 23.115 28.1957C23.2612 28.3125 23.4074 28.4295 23.5535 28.5465C23.4097 28.9125 23.1419 29.1589 22.8683 29.4305C22.8183 29.4806 22.7684 29.5308 22.7169 29.5824C22.6115 29.6879 22.506 29.7931 22.4002 29.8982C22.2378 30.0596 22.0764 30.2219 21.9151 30.3844C21.8126 30.4868 21.71 30.5891 21.6074 30.6914C21.559 30.7402 21.5105 30.789 21.4607 30.8392C21.1177 31.1779 21.1177 31.1779 20.9221 31.1779C20.8896 31.0893 20.857 31.0006 20.8235 30.9093C20.6627 30.5288 20.4132 30.2485 20.1327 29.9499C20.5448 29.4534 20.9877 28.998 21.4484 28.5465C21.2672 28.157 21.0005 27.9152 20.6909 27.6204C20.2873 27.2277 19.943 26.8048 19.6064 26.3537C19.6885 26.2567 19.7708 26.1599 19.8531 26.0631C19.8989 26.0092 19.9447 25.9553 19.9919 25.8997C20.1215 25.7525 20.2556 25.6135 20.3959 25.4766Z" fill="#E58E73"/>
<path d="M19.5188 26.3516C19.8438 26.5008 19.9979 26.6624 20.215 26.9491C20.4111 27.2031 20.6016 27.4463 20.8345 27.6673C21.0099 27.8427 21.0099 27.8427 21.0099 28.0181C21.0642 28.0398 21.1184 28.0615 21.1744 28.0839C21.3936 28.2129 21.4338 28.3176 21.5362 28.5444C21.326 28.7673 21.1134 28.9877 20.9003 29.2077C20.8404 29.2712 20.7806 29.3347 20.719 29.4001C20.6608 29.4598 20.6026 29.5194 20.5426 29.5808C20.4893 29.6364 20.436 29.692 20.3811 29.7493C20.2205 29.8601 20.2205 29.8601 20.0451 29.8528C19.8308 29.7546 19.7089 29.6373 19.5469 29.4661C19.4871 29.4042 19.4272 29.3424 19.3656 29.2786C19.2418 29.148 19.118 29.0174 18.9942 28.8867C18.6624 28.5436 18.3858 28.2833 17.9399 28.1058C18.0651 27.82 18.2177 27.632 18.4395 27.4137C18.5336 27.3204 18.5336 27.3204 18.6297 27.2253C18.6951 27.1613 18.7606 27.0973 18.828 27.0313C18.8942 26.966 18.9603 26.9006 19.0285 26.8333C19.1915 26.6723 19.355 26.5118 19.5188 26.3516Z" fill="#EAB09B"/>
<path d="M36.7106 29.1602C36.7462 29.8018 36.63 30.3446 36.3597 30.9285C36.0698 31.1951 35.7143 31.2167 35.3346 31.2817C35.258 31.2961 35.1814 31.3106 35.1025 31.3254C34.2246 31.4873 33.3776 31.5448 32.4858 31.5447C32.2907 31.5449 32.0956 31.5465 31.9004 31.5481C31.7763 31.5484 31.6521 31.5485 31.528 31.5486C31.4158 31.549 31.3036 31.5493 31.188 31.5497C30.9215 31.5284 30.9215 31.5284 30.7461 31.353C30.8162 31.337 30.8863 31.3211 30.9585 31.3047C31.1623 31.258 31.3659 31.211 31.5694 31.1635C31.7576 31.1198 31.946 31.0768 32.1348 31.0354C33.4692 30.728 35.5147 29.1602 36.7106 29.1602Z" fill="#CD6074"/>
<path d="M14.1519 28.2188C14.8048 28.3724 15.2517 29.013 15.6595 29.5125C15.3411 29.8309 15.0227 30.1493 14.6946 30.4774C13.6463 29.6177 13.6463 29.6177 13.4502 29.0191C13.4666 28.7231 13.4666 28.7231 13.6476 28.4654C13.9052 28.2845 13.9052 28.2845 14.1519 28.2188Z" fill="#CC5C70"/>
</svg>
