<svg width="50" height="50" viewBox="0 0 50 50" fill="none" xmlns="http://www.w3.org/2000/svg">
<path d="M9.25271 12.165C9.39535 12.1651 9.538 12.1651 9.68064 12.1648C10.0645 12.1647 10.4483 12.1673 10.8321 12.1705C11.2345 12.1734 11.6369 12.1737 12.0393 12.1742C12.7998 12.1756 13.5602 12.1794 14.3207 12.184C15.1871 12.1891 16.0535 12.1916 16.9199 12.1939C18.7008 12.1987 20.4817 12.2071 22.2625 12.217C22.2625 13.4252 22.2625 14.6334 22.2625 15.8783C18.9399 15.8783 15.6173 15.8783 12.194 15.8783C13.2465 18.848 14.2991 21.8175 15.3661 24.7821C15.7015 25.7147 16.0345 26.6481 16.3623 27.5834C16.3942 27.6738 16.4261 27.7642 16.4589 27.8574C16.4879 27.9404 16.5168 28.0234 16.5466 28.1089C16.5723 28.1821 16.598 28.2553 16.6244 28.3308C16.6791 28.5099 16.6791 28.5099 16.6791 28.6929C16.7585 28.692 16.838 28.691 16.9198 28.69C17.2143 28.6869 17.5087 28.6846 17.8031 28.6829C17.9306 28.6819 18.0581 28.6807 18.1856 28.6791C18.3687 28.6769 18.5518 28.676 18.735 28.675C18.9003 28.6736 18.9003 28.6736 19.0691 28.6721C19.3335 28.6929 19.3335 28.6929 19.5166 28.876C19.7287 30.7316 19.1024 32.678 17.9548 34.1391C17.8356 34.2772 17.7155 34.4146 17.5944 34.551C17.546 34.6124 17.4976 34.6738 17.4478 34.737C16.2809 36.1856 14.3879 37.1424 12.5601 37.3886C10.3031 37.5833 8.10971 37.2559 6.29015 35.8268C6.15206 35.7076 6.01469 35.5875 5.87826 35.4664C5.8169 35.418 5.75555 35.3696 5.69233 35.3198C4.22575 34.1384 3.32409 32.2695 3.04075 30.4321C2.99153 29.9131 2.98153 29.3941 3.04075 28.876C3.22382 28.6929 3.22382 28.6929 3.48827 28.6721C3.59852 28.6731 3.70877 28.6741 3.82235 28.675C4.00111 28.6759 4.00111 28.6759 4.18348 28.6768C4.30981 28.6784 4.43615 28.6799 4.56248 28.6815C4.68953 28.6824 4.81658 28.6832 4.94363 28.684C5.25519 28.6861 5.56671 28.6892 5.87826 28.6929C5.89406 28.6385 5.90987 28.584 5.92616 28.5279C6.09992 27.9379 6.29401 27.3573 6.49896 26.7775C6.53246 26.6822 6.56597 26.587 6.60049 26.4888C6.71038 26.1765 6.82061 25.8643 6.93088 25.5522C7.00815 25.333 7.08542 25.1138 7.16268 24.8947C7.84886 22.95 8.54295 21.0083 9.24028 19.0676C9.26903 18.9876 9.29777 18.9076 9.32738 18.8251C9.67013 17.8724 10.0173 16.9214 10.3633 15.9698C7.64483 15.9245 7.64483 15.9245 4.8714 15.8783C4.8714 14.8098 5.23253 13.9981 5.96979 13.2238C6.90943 12.333 8.00535 12.149 9.25271 12.165ZM11.1871 16.7021C11.1551 16.7926 11.1551 16.7926 11.1224 16.8849C10.0496 19.9135 8.97388 22.9411 7.88791 25.9651C7.82309 26.1456 7.75829 26.3262 7.69353 26.5067C7.55798 26.8846 7.42215 27.2623 7.2849 27.6396C7.252 27.7304 7.252 27.7304 7.21844 27.8231C7.16236 27.9779 7.106 28.1326 7.04961 28.2873C6.96714 28.4998 6.96714 28.4998 6.97664 28.6929C9.81598 28.6929 12.6553 28.6929 15.5807 28.6929C15.3958 28.0152 15.2024 27.364 14.9632 26.7067C14.9299 26.6143 14.8967 26.5219 14.8624 26.4267C14.7532 26.1236 14.6435 25.8207 14.5338 25.5179C14.457 25.3049 14.3802 25.0919 14.3035 24.879C14.1832 24.5449 14.0628 24.2108 13.9423 23.8767C13.646 23.0552 13.3514 22.2332 13.0578 21.4107C13.0267 21.3234 13.0267 21.3234 12.9949 21.2345C12.8518 20.8335 12.7088 20.4326 12.5658 20.0316C12.4144 19.607 12.2629 19.1825 12.1114 18.758C12.0788 18.6665 12.0461 18.5749 12.0125 18.4806C11.8006 17.887 11.5863 17.2942 11.3702 16.7021C11.3098 16.7021 11.2494 16.7021 11.1871 16.7021Z" fill="#DCDCDC"/>
<path d="M27.7549 12.2153C29.6215 12.2049 31.4882 12.1965 33.3548 12.1916C34.2217 12.1892 35.0885 12.186 35.9553 12.1808C36.7111 12.1762 37.467 12.1733 38.2229 12.1722C38.6228 12.1716 39.0226 12.1703 39.4225 12.1669C39.7997 12.1638 40.1768 12.1628 40.554 12.1635C40.6917 12.1634 40.8294 12.1625 40.967 12.1607C42.1409 12.1464 43.1741 12.394 44.0476 13.2222C44.7849 13.9964 45.146 14.8082 45.146 15.8766C43.3337 15.9068 41.5213 15.937 39.6541 15.9682C39.8995 16.6516 40.1449 17.335 40.3978 18.0391C40.9112 19.47 41.4231 20.9015 41.9313 22.3344C41.9536 22.3971 41.9758 22.4599 41.9988 22.5245C42.2169 23.1397 42.4349 23.7549 42.6527 24.3702C42.7537 24.6558 42.8549 24.9414 42.956 25.227C42.9944 25.3352 43.0327 25.4434 43.0722 25.555C43.3515 26.3426 43.636 27.1282 43.9269 27.9116C43.955 27.9881 43.9832 28.0646 44.0122 28.1433C44.0368 28.2098 44.0615 28.2763 44.0869 28.3448C44.1392 28.5082 44.1392 28.5082 44.1392 28.6913C44.2186 28.6903 44.2981 28.6893 44.3799 28.6884C44.6744 28.6852 44.9688 28.6829 45.2632 28.6812C45.3907 28.6803 45.5182 28.679 45.6457 28.6775C45.8288 28.6752 46.0119 28.6743 46.1951 28.6734C46.3604 28.672 46.3604 28.672 46.5292 28.6705C46.7936 28.6913 46.7936 28.6913 46.9767 28.8743C47.1888 30.73 46.5625 32.6763 45.4149 34.1375C45.2957 34.2756 45.1756 34.413 45.0545 34.5494C45.0061 34.6107 44.9577 34.6721 44.9079 34.7353C43.741 36.1839 41.848 37.1407 40.0202 37.3869C37.7632 37.5816 35.5698 37.2542 33.7503 35.8251C33.6122 35.7059 33.4748 35.5858 33.3384 35.4647C33.277 35.4163 33.2156 35.368 33.1524 35.3181C31.6858 34.1367 30.7842 32.2678 30.5009 30.4304C30.4516 29.9115 30.4416 29.3924 30.5009 28.8743C30.6839 28.6913 30.6839 28.6913 30.9484 28.6705C31.0586 28.6714 31.1689 28.6724 31.2825 28.6734C31.4612 28.6743 31.4612 28.6743 31.6436 28.6752C31.7699 28.6767 31.8962 28.6783 32.0226 28.6798C32.1496 28.6807 32.2767 28.6816 32.4037 28.6823C32.7153 28.6845 33.0268 28.6875 33.3384 28.6913C33.3542 28.6368 33.37 28.5823 33.3863 28.5262C33.56 27.9362 33.7541 27.3557 33.9591 26.7759C33.9926 26.6806 34.0261 26.5853 34.0606 26.4871C34.1705 26.1748 34.2807 25.8627 34.391 25.5505C34.4682 25.3314 34.5455 25.1122 34.6228 24.893C35.309 22.9484 36.003 21.0066 36.7004 19.066C36.7291 18.9859 36.7579 18.9059 36.7875 18.8234C37.1302 17.8707 37.4774 16.9197 37.8234 15.9682C34.5008 15.9379 31.1782 15.9077 27.7549 15.8766C27.7549 14.6684 27.7549 13.4601 27.7549 12.2153ZM38.6472 16.7004C38.6152 16.7909 38.6152 16.7909 38.5825 16.8832C37.5097 19.9119 36.434 22.9394 35.348 25.9634C35.2832 26.144 35.2184 26.3245 35.1536 26.505C35.0181 26.8829 34.8822 27.2607 34.745 27.6379C34.7121 27.7288 34.7121 27.7288 34.6785 27.8214C34.6225 27.9762 34.5661 28.1309 34.5097 28.2856C34.4272 28.4982 34.4272 28.4982 34.4367 28.6913C37.2761 28.6913 40.1154 28.6913 43.0408 28.6913C42.8559 28.0135 42.6625 27.3623 42.4233 26.7051C42.39 26.6127 42.3568 26.5202 42.3225 26.425C42.2133 26.122 42.1036 25.8191 41.9939 25.5162C41.9171 25.3033 41.8403 25.0903 41.7636 24.8773C41.6433 24.5432 41.5229 24.2091 41.4024 23.8751C41.1061 23.0536 40.8115 22.2315 40.5179 21.409C40.4868 21.3218 40.4868 21.3218 40.455 21.2328C40.3119 20.8319 40.1689 20.4309 40.0259 20.0299C39.8745 19.6054 39.723 19.1809 39.5715 18.7563C39.5389 18.6648 39.5062 18.5733 39.4726 18.479C39.2607 17.8853 39.0464 17.2926 38.8303 16.7004C38.7699 16.7004 38.7095 16.7004 38.6472 16.7004Z" fill="#DCDCDC"/>
<path d="M27.35 3.67255C28.2172 4.30862 28.9016 5.19602 29.1277 6.26802C29.2464 7.55016 29.1427 8.67499 28.3611 9.74056C28.0097 10.1579 27.615 10.5008 27.1712 10.8161C26.995 10.9363 26.995 10.9363 26.931 11.2108C26.9222 11.3701 26.9187 11.5297 26.9183 11.6892C26.9178 11.7889 26.9173 11.8886 26.9167 11.9913C26.9167 12.1013 26.9166 12.2112 26.9165 12.3245C26.916 12.441 26.9156 12.5575 26.9151 12.6775C26.9139 13.0015 26.9132 13.3254 26.9126 13.6493C26.9119 13.9984 26.9106 14.3475 26.9094 14.6966C26.9074 15.3017 26.9058 15.9067 26.9043 16.5118C26.9022 17.3866 26.8997 18.2614 26.897 19.1362C26.8926 20.5554 26.8886 21.9746 26.8849 23.3939C26.8813 24.7727 26.8775 26.1515 26.8735 27.5304C26.8733 27.6153 26.873 27.7003 26.8727 27.7878C26.8715 28.214 26.8702 28.6402 26.869 29.0664C26.8585 32.6035 26.8488 36.1406 26.8394 39.6776C25.6312 39.6776 24.423 39.6776 23.1781 39.6776C23.1776 39.322 23.1771 38.9664 23.1765 38.6C23.1715 35.3405 23.1651 32.081 23.1572 28.8215C23.1561 28.3945 23.1551 27.9674 23.1541 27.5404C23.1539 27.4554 23.1537 27.3704 23.1535 27.2828C23.1503 25.9055 23.148 24.5281 23.1461 23.1508C23.1441 21.738 23.141 20.3252 23.1371 18.9124C23.1346 18.0403 23.133 17.1682 23.1324 16.2961C23.1319 15.6984 23.1305 15.1008 23.1282 14.5031C23.1269 14.1581 23.1261 13.813 23.1264 13.468C23.1268 13.0942 23.125 12.7204 23.1231 12.3466C23.1235 12.2371 23.124 12.1277 23.1244 12.0149C23.1236 11.9149 23.1227 11.8148 23.1218 11.7117C23.1216 11.6254 23.1215 11.5391 23.1213 11.4502C23.0695 11.0925 22.9187 10.8437 22.6443 10.6108C22.5546 10.551 22.5546 10.551 22.463 10.49C21.67 9.91587 21.0943 9.06799 20.8898 8.09868C20.7711 6.81653 20.8749 5.69171 21.6564 4.62614C23.083 2.95209 25.4492 2.46004 27.35 3.67255Z" fill="#DCDCDC"/>
<path d="M12.1943 44.2539C20.6519 44.2539 29.1095 44.2539 37.8234 44.2539C37.8234 45.1601 37.8234 46.0663 37.8234 46.9999C29.3658 46.9999 20.9082 46.9999 12.1943 46.9999C12.1943 46.0937 12.1943 45.1875 12.1943 44.2539Z" fill="#DCDCDC"/>
<path d="M17.6855 40.5938C22.5185 40.5938 27.3514 40.5938 32.3307 40.5938C32.3307 41.4999 32.3307 42.4061 32.3307 43.3397C27.4978 43.3397 22.6649 43.3397 17.6855 43.3397C17.6855 42.4336 17.6855 41.5274 17.6855 40.5938Z" fill="#DCDCDC"/>
</svg>
