<svg width="50" height="50" viewBox="0 0 50 50" fill="none" xmlns="http://www.w3.org/2000/svg">
<path d="M27.027 0C31.116 2.88634 32.5079 5.43143 34.2457 10.0771C35.1411 12.1762 36.1847 13.7977 37.5422 15.625C39.5275 18.3005 40.6668 20.7927 41.781 23.9126C42.7126 26.0008 43.9494 27.6423 45.3125 29.4763C49.3519 35.2835 50 41.6969 50 48.6486C33.5 48.6486 17 48.6486 0 48.6486C1.5015 36.6366 1.5015 36.6366 4.43412 31.7172C5.29955 29.9463 5.64501 28.7127 5.99398 26.8106C6.68893 23.3657 8.23673 20.838 10.1774 17.9476C10.7908 17.0055 11.404 16.0633 12.017 15.1209C12.2879 14.7137 12.5589 14.3066 12.838 13.8871C13.5568 12.8121 13.5568 12.8121 14.1892 11.4865C15.8741 12.2999 17.3523 13.1448 18.9189 14.1892C19.3344 13.448 19.7498 12.7068 20.1779 11.9431C20.7295 10.9604 21.2811 9.97764 21.8328 8.99493C22.1058 8.50761 22.3789 8.0203 22.6602 7.51821C24.0804 4.98951 25.5174 2.47693 27.027 0Z" fill="#303845"/>
<path d="M26.0795 43.1219C28.636 44.0083 29.8605 43.9893 32.4324 43.2433C33.3911 42.7665 34.3358 42.2604 35.2618 41.723C38.5941 40.1638 40.8317 40.7488 44.2356 41.8867C46.2412 42.6852 48.1227 43.5291 50 44.5946C50 45.9325 50 47.2703 50 48.6487C33.5 48.6487 17 48.6487 0 48.6487C0.222973 47.0879 0.445946 45.5271 0.675676 43.919C2.82316 43.0992 4.97885 42.3036 7.13682 41.5119C7.74173 41.2806 8.34663 41.0494 8.96986 40.8111C15.7419 38.3553 19.7419 40.0826 26.0795 43.1219Z" fill="#4B7838"/>
<path d="M27.0271 0C31.0712 2.79454 33.4101 5.94161 34.4595 10.8108C34.185 12.7085 34.185 12.7085 33.7839 14.1892C32.099 13.3758 30.6207 12.5309 29.0541 11.4865C28.7475 12.0439 28.441 12.6014 28.1251 13.1757C27.7627 13.7331 27.4004 14.2905 27.0271 14.8649C26.5812 14.8649 26.1352 14.8649 25.6758 14.8649C25.6427 15.3936 25.6096 15.9222 25.5755 16.467C25.5249 17.1507 25.4744 17.8344 25.4224 18.5389C25.3753 19.2208 25.3283 19.9028 25.2798 20.6055C25.1875 21.1638 25.0952 21.7221 25.0001 22.2973C23.6487 22.973 23.6487 22.973 21.7484 22.4662C19.4461 22.0313 19.4461 22.0313 17.6521 23.9443C16.9414 24.8013 16.9414 24.8013 16.2163 25.6757C15.6519 25.1531 15.6519 25.1531 15.0761 24.6199C13.5855 23.4798 13.5855 23.4798 11.8666 23.7753C10.1215 24.3287 8.43939 24.9546 6.75684 25.6757C7.18375 23.5922 7.88649 22.0177 8.97654 20.1964C9.2792 19.6868 9.58187 19.1773 9.89371 18.6523C10.2103 18.1271 10.5269 17.6019 10.8531 17.0608C11.1723 16.5252 11.4916 15.9895 11.8204 15.4376C12.607 14.1187 13.3967 12.8018 14.1893 11.4865C15.8741 12.2999 17.3524 13.1448 18.919 14.1892C19.3345 13.448 19.7499 12.7068 20.178 11.9431C20.7296 10.9604 21.2812 9.97764 21.8328 8.99493C22.1059 8.50761 22.379 8.0203 22.6603 7.51821C24.0805 4.98951 25.5175 2.47693 27.0271 0Z" fill="#B3BCC9"/>
<path d="M27.027 0C31.0712 2.79454 33.41 5.94161 34.4595 10.8108C34.185 12.7085 34.185 12.7085 33.7838 14.1892C32.0989 13.3758 30.6206 12.5309 29.054 11.4865C28.7475 12.0439 28.4409 12.6014 28.125 13.1757C27.7627 13.7331 27.4003 14.2905 27.027 14.8649C26.5811 14.8649 26.1351 14.8649 25.6757 14.8649C24.5777 13.1757 24.5777 13.1757 23.6486 11.4865C22.5338 11.9324 21.4189 12.3784 20.2703 12.8378C21.1414 11.0774 22.0144 9.31801 22.8885 7.55912C23.135 7.06048 23.3815 6.56184 23.6354 6.04809C23.875 5.56687 24.1145 5.08565 24.3613 4.58984C24.5806 4.14754 24.8 3.70525 25.0261 3.24954C25.6757 2.02703 25.6757 2.02703 27.027 0Z" fill="#B4BDCA"/>
<path d="M16.8919 39.8649C17.7365 41.2585 17.7365 41.2585 18.2432 42.5676C17.5743 42.7906 16.9054 43.0136 16.2162 43.2433C16.8851 43.9122 17.554 44.5811 18.2432 45.2703C16.3292 45.4993 14.4148 45.7239 12.5 45.946C11.6978 46.0427 11.6978 46.0427 10.8794 46.1413C7.45249 46.5346 4.12503 46.685 0.675659 46.6217C0.675659 45.7298 0.675659 44.8379 0.675659 43.919C2.8674 43.1048 5.06473 42.3069 7.2635 41.5119C7.88538 41.2806 8.50727 41.0494 9.148 40.8111C9.74898 40.5955 10.35 40.38 10.9692 40.1579C11.5211 39.9562 12.0731 39.7545 12.6418 39.5467C14.3582 39.1502 15.2664 39.2089 16.8919 39.8649Z" fill="#8DC332"/>
<path d="M38.5135 40.5406C39.6825 40.8477 40.8507 41.158 42.0185 41.4696C42.9945 41.7283 42.9945 41.7283 43.9901 41.9922C45.8257 42.5323 47.5617 43.1778 49.3243 43.919C49.3243 45.2568 49.3243 46.5946 49.3243 47.973C43.527 47.973 37.7297 47.973 31.7567 47.973C34.0122 46.8453 36.1226 46.031 38.5135 45.2703C38.5135 43.7095 38.5135 42.1487 38.5135 40.5406Z" fill="#467338"/>
<path d="M14.1893 11.4865C14.6352 11.4865 15.0812 11.4865 15.5406 11.4865C15.6731 12.9921 15.7984 14.4985 15.9207 16.005C15.9912 16.8438 16.0618 17.6826 16.1345 18.5467C16.2061 20.6475 16.0624 22.3027 15.5406 24.3243C14.8438 24.171 14.147 24.0177 13.4291 23.8598C10.484 23.6223 9.23838 24.1625 6.75684 25.6756C7.42942 22.4331 9.09971 19.8837 10.7687 17.0608C11.0766 16.5251 11.3844 15.9895 11.7017 15.4376C11.9991 14.9315 12.2966 14.4255 12.603 13.9041C12.8747 13.4401 13.1464 12.9761 13.4263 12.498C13.6781 12.1642 13.9299 11.8304 14.1893 11.4865Z" fill="#E1E4EB"/>
<path d="M12.4156 23.1419C12.7779 23.3091 13.1402 23.4763 13.5135 23.6486C12.6983 24.2967 12.6983 24.2967 11.8666 24.9578C10.0365 27.1449 9.95667 27.4287 9.88178 30.0676C9.73546 32.8292 9.73546 32.8292 8.44597 34.1322C7.60792 34.6839 6.75594 35.2151 5.89107 35.7237C4.27373 36.786 3.57384 38.171 2.70272 39.8649C2.47975 39.8649 2.25678 39.8649 2.02705 39.8649C1.56104 36.23 2.76656 34.2043 4.57931 31.1998C5.51881 29.6622 5.51881 29.6622 6.03887 27.4915C7.14394 24.6964 9.30661 22.8146 12.4156 23.1419Z" fill="#646C7F"/>
<path d="M26.3513 0.67572C26.7973 0.898693 27.2432 1.12167 27.7027 1.3514C29.0157 5.75927 27.5733 8.79015 25.6757 12.8379C25.0067 12.3919 24.3378 11.946 23.6486 11.4865C21.8436 12.0282 21.8436 12.0282 20.2703 12.8379C22.2973 8.78383 24.3243 4.72977 26.3513 0.67572Z" fill="#E2E5EB"/>
<path d="M23.6487 10.8108C24.6965 11.8982 24.6965 11.8982 25.6757 13.5135C25.578 15.5511 25.578 15.5511 25.1267 17.7365C24.983 18.4646 24.8393 19.1928 24.6912 19.943C24.5702 20.4969 24.4491 21.0509 24.3244 21.6216C22.1028 19.5201 20.3802 17.5566 18.9189 14.8648C22.1284 11.5709 22.1284 11.5709 23.6487 10.8108Z" fill="#949AAB"/>
<path d="M38.5135 41.2162C39.2737 43.75 39.2737 43.75 38.5135 45.2702C38.9595 45.4932 39.4054 45.7162 39.8649 45.9459C34.1699 47.4903 34.1699 47.4903 31.0811 47.2973C30.6351 46.4054 30.1892 45.5135 29.7297 44.5946C30.9389 44.0284 32.1498 43.4661 33.3615 42.9054C34.0356 42.5918 34.7098 42.2783 35.4044 41.9552C37.1622 41.2162 37.1622 41.2162 38.5135 41.2162Z" fill="#8BC032"/>
<path d="M29.0541 14.8649C31.0352 16.7925 32.867 18.683 34.4595 20.946C34.2365 21.392 34.0135 21.8379 33.7838 22.2974C32.9895 21.4443 32.2026 20.5843 31.4189 19.7213C30.98 19.2432 30.541 18.765 30.0887 18.2723C29.0541 16.892 29.0541 16.892 29.0541 14.8649Z" fill="#505666"/>
<path d="M18.2433 26.3514C20.1859 26.8159 20.1859 26.8159 22.2973 27.7027C23.2264 29.4764 23.2264 29.4764 23.6487 31.0811C22.7459 30.4221 21.8454 29.7599 20.946 29.0963C20.4443 28.7279 19.9426 28.3595 19.4257 27.9799C19.0355 27.6654 18.6453 27.351 18.2433 27.0271C18.2433 26.8041 18.2433 26.5811 18.2433 26.3514Z" fill="#474E5C"/>
<path d="M26.3513 25C30.2598 27.9938 30.2598 27.9938 30.9966 29.9409C31.0384 30.5053 31.0384 30.5053 31.081 31.0811C29.0783 29.1838 27.402 27.5789 26.3513 25Z" fill="#49505D"/>
</svg>
