<svg width="50" height="50" viewBox="0 0 50 50" fill="none" xmlns="http://www.w3.org/2000/svg">
<path d="M24.9659 3.00009C25.0557 3.00012 25.0557 3.00012 25.1473 3.00015C26.1605 3.0032 27.1145 3.09725 28.0915 3.37537C28.1774 3.39878 28.1774 3.39878 28.2649 3.42266C31.1662 4.23163 33.6535 6.3266 35.1227 8.92985C35.4659 9.56339 35.7454 10.2099 35.9781 10.8917C36.0129 10.9927 36.0129 10.9927 36.0484 11.0958C36.46 12.383 36.5389 13.6775 36.5761 15.0188C36.6446 17.4174 36.9067 19.7185 37.356 22.0751C37.412 22.0849 37.4681 22.0948 37.5259 22.1049C40.1103 22.5848 42.1207 25.1695 43.5323 27.2218C43.8106 27.6392 44.0621 28.0694 44.3043 28.5085C44.342 28.5764 44.3797 28.6442 44.4185 28.7142C45.4408 30.5692 46.3023 32.5041 46.3255 34.6577C46.3268 34.7336 46.3281 34.8094 46.3294 34.8875C46.3201 35.4717 46.2021 36.0852 45.8131 36.5424C45.3665 36.9349 44.9799 37.0199 44.4058 37.015C44.2199 37.0007 44.0553 36.962 43.8754 36.9148C43.8606 36.9859 43.8606 36.9859 43.8455 37.0584C43.3718 39.293 42.5462 41.0919 40.6696 42.4907C40.5299 42.5762 40.5299 42.5762 40.3583 42.5762C40.3789 42.6477 40.3789 42.6477 40.3999 42.7206C40.6079 43.6552 40.3539 44.6026 39.8698 45.4075C39.3223 46.2435 38.5674 46.6926 37.6133 46.9509C37.2575 46.9956 36.9071 46.9973 36.5488 46.9944C36.4456 46.995 36.3425 46.9955 36.2362 46.9961C35.9526 46.9972 35.6691 46.9968 35.3855 46.9957C35.0786 46.9949 34.7717 46.9962 34.4648 46.9971C33.8647 46.9986 33.2646 46.9983 32.6645 46.9973C32.1765 46.9965 31.6885 46.9964 31.2005 46.9968C31.131 46.9968 31.0614 46.9969 30.9897 46.9969C30.8483 46.9971 30.7068 46.9972 30.5654 46.9973C29.2412 46.9983 27.917 46.9971 26.5927 46.9953C25.4578 46.9938 24.3228 46.994 23.1879 46.9956C21.8682 46.9974 20.5485 46.9982 19.2289 46.9971C19.088 46.997 18.9471 46.9969 18.8063 46.9968C18.737 46.9967 18.6677 46.9967 18.5963 46.9966C18.1092 46.9963 17.6221 46.9968 17.135 46.9976C16.541 46.9986 15.947 46.9983 15.353 46.9965C15.0502 46.9956 14.7474 46.9953 14.4447 46.9964C14.1158 46.9976 13.7869 46.9962 13.4581 46.9944C13.3633 46.9952 13.2686 46.996 13.171 46.9968C12.2386 46.9874 11.3931 46.7035 10.6779 46.0931C10.1831 45.5842 9.85875 45.0547 9.64847 44.3775C9.63166 44.3247 9.61486 44.2718 9.59754 44.2174C9.54886 43.9618 9.55473 43.7153 9.55733 43.4554C9.5581 43.355 9.55888 43.2546 9.55967 43.1512C9.56067 43.0746 9.56167 42.9981 9.56269 42.9193C9.50298 42.8982 9.44327 42.877 9.38174 42.8553C7.72007 42.1345 6.64039 40.5916 5.95986 38.9735C5.71542 38.3087 5.56714 37.6113 5.44517 36.9148C5.39607 36.9284 5.34697 36.942 5.29639 36.956C4.7495 37.0814 4.28063 37.0384 3.79119 36.7596C3.3617 36.4619 3.17969 36.0328 3.04328 35.5423C3.0037 35.2502 2.99828 34.963 3.00039 34.6685C3.00094 34.5863 3.00149 34.5042 3.00206 34.4195C3.06922 31.7258 4.49991 29.0194 6.04564 26.8787C6.10394 26.7964 6.10394 26.7964 6.16342 26.7125C7.48641 24.851 9.3494 22.5599 11.7072 22.0751C12.0223 22.0628 12.3357 22.0655 12.6508 22.0751C13.0101 20.191 13.3103 18.3291 13.3786 16.4097C13.382 16.3165 13.3854 16.2233 13.3888 16.1274C13.4053 15.6572 13.4196 15.187 13.4306 14.7167C13.518 11.5488 14.5608 8.81941 16.6826 6.4634C16.7334 6.40634 16.7843 6.34929 16.8367 6.2905C18.1537 4.89532 19.9846 3.9406 21.8027 3.39146C21.8576 3.37473 21.9124 3.35801 21.969 3.34078C22.9528 3.06111 23.9475 2.99722 24.9659 3.00009Z" fill="#F4F9FB"/>
<path d="M12.6508 22.0772C12.6142 22.7379 12.4702 23.3299 12.2702 23.9589C12.2253 24.1028 12.2253 24.1028 12.1794 24.2496C11.9199 25.0665 11.6254 25.8689 11.3229 26.6708C11.0516 27.3911 10.8006 28.1125 10.5921 28.8537C10.561 28.9625 10.5299 29.0713 10.4979 29.1834C10.1012 30.8114 10.5853 32.6184 11.3986 34.0389C11.8257 34.7243 12.3733 35.2384 13.1655 35.4586C13.914 35.5669 14.4111 35.4011 15.0527 35.0297C15.1376 35.0014 15.2226 34.9731 15.3101 34.944C15.3269 35.0095 15.3437 35.0751 15.361 35.1427C15.6808 36.2881 16.2135 37.5768 17.2385 38.2595C17.6559 38.4875 18.0024 38.6269 18.484 38.5467C18.9735 38.3838 19.2719 38.1316 19.5797 37.7224C19.6318 37.6633 19.6318 37.6633 19.6849 37.6031C19.7416 37.6031 19.7982 37.6031 19.8565 37.6031C19.8958 37.6874 19.8958 37.6874 19.9359 37.7733C20.6573 39.2119 21.8957 40.23 23.4188 40.7431C24.9154 41.1773 26.4888 40.907 27.8449 40.2103C28.8912 39.5985 29.6273 38.6842 30.1503 37.6031C30.2069 37.6031 30.2635 37.6031 30.3219 37.6031C30.4189 37.7084 30.5112 37.8183 30.6007 37.9301C30.9523 38.3389 31.2555 38.5499 31.8016 38.5949C32.4658 38.5681 32.9795 38.1501 33.4261 37.6889C34.0864 36.8939 34.4332 35.9295 34.6967 34.944C34.9581 35.042 35.1527 35.1347 35.383 35.2978C35.8398 35.5594 36.3336 35.5336 36.8413 35.4586C37.8008 35.1508 38.3792 34.5446 38.8357 33.668C39.6674 31.8826 39.8824 29.9651 39.2432 28.0817C39.0174 27.4646 38.7748 26.8548 38.5274 26.2462C38.1925 25.4189 37.9046 24.5987 37.683 23.7338C37.6607 23.6497 37.6385 23.5656 37.6155 23.479C37.4943 23.0115 37.4033 22.5579 37.356 22.0772C39.4315 22.3435 41.2276 24.1998 42.4765 25.7776C43.1506 26.6503 43.7717 27.5448 44.3043 28.5106C44.342 28.5784 44.3797 28.6463 44.4185 28.7163C45.4408 30.5713 46.3023 32.5062 46.3255 34.6598C46.3268 34.7356 46.3281 34.8115 46.3294 34.8896C46.3201 35.4738 46.2021 36.0873 45.8131 36.5445C45.3665 36.9369 44.9799 37.022 44.4058 37.0171C44.2199 37.0028 44.0553 36.9641 43.8754 36.9169C43.8606 36.9879 43.8606 36.9879 43.8455 37.0604C43.3718 39.2951 42.5462 41.094 40.6696 42.4928C40.5299 42.5783 40.5299 42.5783 40.3583 42.5783C40.372 42.6259 40.3858 42.6736 40.3999 42.7227C40.6079 43.6572 40.3539 44.6047 39.8698 45.4096C39.3223 46.2456 38.5674 46.6947 37.6133 46.953C37.2575 46.9976 36.9071 46.9994 36.5488 46.9965C36.3941 46.9973 36.3941 46.9973 36.2362 46.9982C35.9526 46.9993 35.6691 46.9989 35.3855 46.9978C35.0786 46.997 34.7717 46.9982 34.4648 46.9992C33.8647 47.0007 33.2646 47.0004 32.6645 46.9994C32.1765 46.9986 31.6885 46.9985 31.2005 46.9989C31.131 46.9989 31.0614 46.999 30.9897 46.999C30.8483 46.9991 30.7069 46.9993 30.5654 46.9994C29.2412 47.0003 27.917 46.9992 26.5927 46.9974C25.4578 46.9958 24.3228 46.9961 23.1879 46.9977C21.8682 46.9995 20.5485 47.0002 19.2289 46.9992C19.088 46.9991 18.9471 46.999 18.8063 46.9989C18.737 46.9988 18.6677 46.9988 18.5963 46.9987C18.1092 46.9984 17.6221 46.9989 17.135 46.9997C16.541 47.0007 15.947 47.0004 15.353 46.9986C15.0502 46.9977 14.7474 46.9973 14.4447 46.9985C14.1158 46.9997 13.7869 46.9982 13.4581 46.9965C13.3633 46.9973 13.2686 46.9981 13.171 46.9988C12.2386 46.9895 11.3931 46.7056 10.6779 46.0952C10.1831 45.5863 9.85875 45.0567 9.64847 44.3796C9.63166 44.3267 9.61486 44.2739 9.59754 44.2194C9.54886 43.9639 9.55473 43.7173 9.55733 43.4575C9.5581 43.3571 9.55888 43.2567 9.55967 43.1532C9.56067 43.0767 9.56167 43.0002 9.56269 42.9214C9.50298 42.9002 9.44327 42.8791 9.38174 42.8574C7.72007 42.1366 6.64039 40.5937 5.95986 38.9756C5.71542 38.3108 5.56714 37.6134 5.44517 36.9169C5.39607 36.9305 5.34697 36.9441 5.29639 36.9581C4.7495 37.0835 4.28063 37.0404 3.79119 36.7617C3.3617 36.464 3.17969 36.0349 3.04328 35.5444C3.0037 35.2523 2.99828 34.9651 3.00039 34.6705C3.00094 34.5884 3.00149 34.5063 3.00206 34.4216C3.06922 31.7279 4.49991 29.0215 6.04564 26.8808C6.08451 26.8259 6.12338 26.7711 6.16342 26.7145C7.61614 24.6705 9.8718 21.8709 12.6508 22.0772Z" fill="#FECCBD"/>
<path d="M24.9655 3.00009C25.0553 3.00012 25.0553 3.00012 25.1469 3.00015C26.1593 3.00319 27.1153 3.09495 28.0911 3.37537C28.1511 3.39235 28.211 3.40932 28.2728 3.42681C28.9603 3.62687 29.6084 3.88634 30.2357 4.23316C29.9194 4.49672 29.5877 4.71917 29.2385 4.93547C26.7189 6.53189 24.9478 9.05155 24.2812 11.9606C24.1039 12.8424 24.0208 13.7157 23.9736 14.6124C23.9093 14.6322 23.8449 14.6519 23.7786 14.6723C22.7281 15.0071 21.8173 15.4001 21.1375 16.3065C20.817 17.4174 21.3012 18.3134 21.812 19.2766C21.8896 19.4262 21.967 19.5759 22.0444 19.7256C22.1646 19.9576 22.2855 20.1892 22.4081 20.42C22.5277 20.6455 22.6445 20.8723 22.761 21.0994C22.7978 21.1673 22.8347 21.2352 22.8728 21.3052C23.2328 22.0186 23.0897 22.6261 22.8739 23.3725C22.8508 23.4531 22.8508 23.4531 22.8272 23.5352C22.7777 23.7064 22.727 23.8772 22.6762 24.048C22.6591 24.1063 22.642 24.1647 22.6244 24.2248C22.3505 25.1579 22.0393 26.0695 21.6575 26.9645C21.7773 26.9587 21.7773 26.9587 21.8994 26.9527C22.1722 26.9645 22.1722 26.9645 22.4188 27.1521C22.6011 27.3934 22.6011 27.3934 22.6494 27.6132C22.5831 27.9005 22.4944 27.988 22.258 28.1654C21.8477 28.3696 21.5177 28.4358 21.057 28.4227C20.6487 30.4208 20.8276 32.417 21.9149 34.1699C22.2858 34.7105 22.8161 35.2114 23.4489 35.4254C24.1533 35.5463 24.7592 35.5296 25.3629 35.1299C25.5177 35.0277 25.5177 35.0277 25.775 34.9419C25.8 35.03 25.825 35.1181 25.8508 35.2089C26.2012 36.4093 26.6845 37.6663 27.8231 38.3355C28.2317 38.5235 28.5861 38.6064 29.0347 38.5446C29.2555 38.4507 29.4325 38.334 29.6352 38.2015C29.749 38.1431 29.8631 38.0852 29.9783 38.0299C29.2893 39.408 28.0803 40.266 26.669 40.7872C26.1076 40.9701 25.5899 40.9976 25.003 40.9893C24.9099 40.9906 24.8168 40.9919 24.7209 40.9933C23.2115 40.9861 21.9497 40.2631 20.8748 39.2523C20.4375 38.8036 19.9723 38.2307 19.8561 37.601C19.7995 37.601 19.7429 37.601 19.6845 37.601C19.6621 37.6521 19.6396 37.7032 19.6165 37.7558C19.4135 38.125 19.0626 38.3763 18.698 38.5767C18.1257 38.7198 17.7372 38.6082 17.2324 38.3321C16.3381 37.7678 15.7226 36.617 15.3955 35.6281C15.35 35.3969 15.3268 35.1775 15.3097 34.9419C15.2507 34.978 15.1918 35.0142 15.1311 35.0515C15.0538 35.0984 14.9765 35.1454 14.8968 35.1939C14.8202 35.2406 14.7436 35.2874 14.6646 35.3356C14.1854 35.608 13.7027 35.6078 13.1651 35.5423C12.1904 35.2103 11.6032 34.6434 11.1415 33.7423C10.1689 31.6624 10.103 29.803 10.849 27.6507C11.0567 27.0794 11.2778 26.5135 11.5011 25.9482C12.0858 24.4626 12.5298 22.9503 12.7827 21.3722C12.829 21.0885 12.8783 20.8053 12.9272 20.522C13.2536 18.589 13.4027 16.6747 13.4468 14.7129C13.4735 13.5869 13.5544 12.5274 13.8514 11.4386C13.8669 11.3811 13.8823 11.3236 13.8983 11.2644C14.4061 9.44604 15.4297 7.85418 16.6822 6.4634C16.733 6.40634 16.7839 6.34929 16.8363 6.2905C18.1533 4.89532 19.9843 3.9406 21.8023 3.39146C21.8572 3.37473 21.9121 3.35801 21.9686 3.34078C22.9524 3.06111 23.9471 2.99722 24.9655 3.00009Z" fill="#E0F0F9"/>
<path d="M37.3559 22.0742C39.4314 22.3405 41.2276 24.1968 42.4765 25.7746C43.1506 26.6473 43.7716 27.5419 44.3043 28.5076C44.3419 28.5755 44.3796 28.6434 44.4185 28.7133C45.4408 30.5684 46.3022 32.5032 46.3255 34.6569C46.3267 34.7327 46.328 34.8085 46.3293 34.8866C46.3201 35.4709 46.2021 36.0843 45.813 36.5415C45.3665 36.934 44.9799 37.0191 44.4058 37.0141C44.2199 36.9998 44.0552 36.9612 43.8753 36.9139C43.8606 36.985 43.8606 36.985 43.8455 37.0575C43.3718 39.2921 42.5462 41.091 40.6696 42.4899C40.5299 42.5753 40.5299 42.5753 40.3583 42.5753C40.372 42.623 40.3857 42.6706 40.3998 42.7197C40.6079 43.6543 40.3539 44.6017 39.8697 45.4067C39.3227 46.2419 38.5672 46.6932 37.6133 46.95C37.2509 46.9946 36.8938 46.9962 36.5289 46.993C36.4249 46.9935 36.3209 46.994 36.2137 46.9944C35.9311 46.9953 35.6487 46.9947 35.3661 46.9933C35.0687 46.9921 34.7712 46.9926 34.4738 46.9929C33.9745 46.9932 33.4753 46.992 32.976 46.99C32.4011 46.9877 31.8262 46.9876 31.2512 46.9886C30.6952 46.9895 30.1393 46.989 29.5833 46.9878C29.348 46.9873 29.1127 46.9873 28.8774 46.9877C28.5479 46.9879 28.2186 46.9865 27.8891 46.9847C27.7448 46.9852 27.7448 46.9852 27.5976 46.9858C26.5433 46.976 25.6031 46.7272 24.8124 46.0031C24.1503 45.3014 23.7314 44.4775 23.7109 43.5061C23.7442 42.6087 23.9778 41.7402 24.4029 40.9455C24.5098 40.9453 24.6167 40.9451 24.7269 40.9448C26.3762 40.9171 27.7508 40.4931 28.9708 39.3372C29.465 38.8225 29.8402 38.2412 30.1503 37.6001C30.2069 37.6001 30.2635 37.6001 30.3218 37.6001C30.4189 37.7055 30.5111 37.8153 30.6006 37.9272C30.9523 38.336 31.2555 38.5469 31.8016 38.592C32.4657 38.5652 32.9795 38.1471 33.4261 37.6859C34.0863 36.891 34.4331 35.9265 34.6967 34.941C34.958 35.039 35.1527 35.1318 35.383 35.2948C35.8398 35.5564 36.3336 35.5306 36.8412 35.4557C37.8007 35.1479 38.3792 34.5416 38.8357 33.665C39.6674 31.8797 39.8824 29.9622 39.2431 28.0787C39.0174 27.4617 38.7747 26.8518 38.5274 26.2432C38.1925 25.4159 37.9045 24.5957 37.683 23.7308C37.6607 23.6467 37.6384 23.5626 37.6155 23.476C37.4943 23.0085 37.4033 22.5549 37.3559 22.0742Z" fill="#FEDDCE"/>
<path d="M12.6508 22.0772C12.6142 22.7379 12.4702 23.3299 12.2702 23.9589C12.2253 24.1028 12.2253 24.1028 12.1794 24.2496C11.9199 25.0665 11.6254 25.8689 11.3229 26.6708C11.0516 27.3911 10.8006 28.1125 10.5921 28.8537C10.561 28.9625 10.5299 29.0713 10.4979 29.1834C10.1271 30.7049 10.5212 32.4834 11.2783 33.8288C11.4096 34.0367 11.5444 34.2399 11.6871 34.44C11.793 34.6008 11.793 34.6008 11.8788 34.8582C11.7679 35.1038 11.7679 35.1038 11.6054 35.3997C11.0734 36.4331 10.9215 37.2444 10.9566 38.4019C10.9827 39.3907 10.8233 40.0101 10.3403 40.8568C10.1728 41.1822 10.0652 41.5281 9.95407 41.8759C9.92237 41.9737 9.92237 41.9737 9.89003 42.0735C9.80048 42.3543 9.71806 42.6351 9.64847 42.9214C9.23998 42.8784 8.96321 42.6866 8.64054 42.4496C8.58762 42.4111 8.5347 42.3725 8.48018 42.3328C6.68513 40.9991 5.8225 39.0716 5.44517 36.9169C5.39607 36.9305 5.34697 36.9441 5.29639 36.9581C4.7495 37.0835 4.28063 37.0404 3.79119 36.7617C3.3617 36.464 3.17969 36.0349 3.04328 35.5444C3.0037 35.2523 2.99828 34.9651 3.00039 34.6705C3.00094 34.5884 3.00149 34.5063 3.00206 34.4216C3.06922 31.7279 4.49992 29.0215 6.04564 26.8808C6.08451 26.8259 6.12338 26.7711 6.16342 26.7145C7.61614 24.6705 9.8718 21.8709 12.6508 22.0772Z" fill="#C38778"/>
<path d="M37.3564 22.0742C39.4319 22.3405 41.2281 24.1968 42.477 25.7746C43.1511 26.6473 43.7721 27.5419 44.3048 28.5076C44.3425 28.5755 44.3802 28.6434 44.419 28.7133C45.4413 30.5684 46.3027 32.5032 46.326 34.6569C46.3273 34.7327 46.3285 34.8085 46.3298 34.8866C46.3206 35.4709 46.2026 36.0843 45.8135 36.5415C45.367 36.934 44.9804 37.0191 44.4063 37.0141C44.2204 36.9998 44.0557 36.9612 43.8759 36.9139C43.8611 36.985 43.8611 36.985 43.846 37.0575C43.371 39.2979 42.5437 41.0737 40.6785 42.4899C40.5304 42.5753 40.5304 42.5753 40.273 42.5753C40.2554 42.5244 40.2377 42.4735 40.2196 42.4211C39.7948 41.1887 39.7948 41.1887 39.2383 40.0127C38.9271 39.4157 38.9271 39.4157 39.0305 38.9977C39.313 37.6604 38.8873 36.3501 38.2394 35.192C38.1285 34.941 38.1285 34.941 38.1375 34.7577C38.2308 34.5634 38.3477 34.4125 38.4823 34.2441C39.5124 32.8083 39.7968 30.9155 39.5429 29.1925C39.3516 28.1682 38.9183 27.2039 38.5279 26.2432C38.193 25.4159 37.905 24.5957 37.6835 23.7308C37.6612 23.6467 37.6389 23.5626 37.616 23.476C37.4948 23.0085 37.4038 22.5549 37.3564 22.0742Z" fill="#D79B8C"/>
<path d="M28.1582 15.4828C28.5966 15.8498 28.9925 16.2596 29.0698 16.8437C29.09 17.6475 28.9163 18.1944 28.5442 18.8999C28.4686 19.0498 28.4686 19.0498 28.3915 19.2026C28.2857 19.4121 28.1784 19.6208 28.0698 19.8288C27.9314 20.094 27.7956 20.3605 27.6609 20.6276C27.5309 20.885 27.3996 21.1416 27.2682 21.3982C27.2198 21.4931 27.1713 21.588 27.1214 21.6858C26.7475 22.4024 26.4282 22.9151 25.6903 23.2773C25.0427 23.4699 24.5312 23.3831 23.9281 23.095C23.3285 22.6374 23.0122 21.9158 22.6863 21.2548C22.6396 21.1614 22.5929 21.068 22.5449 20.9717C22.447 20.7755 22.3495 20.5791 22.2523 20.3826C22.1033 20.0814 21.9531 19.7808 21.8028 19.4803C21.7077 19.2891 21.6125 19.0979 21.5175 18.9066C21.4727 18.8167 21.4278 18.7268 21.3816 18.6342C21.3403 18.5506 21.2991 18.467 21.2565 18.3808C21.2202 18.3074 21.1838 18.2341 21.1464 18.1585C20.9089 17.6218 20.8431 16.9448 21.044 16.3879C21.5573 15.5078 22.4693 14.9714 23.4268 14.6961C25.0631 14.3325 26.7816 14.463 28.1582 15.4828Z" fill="#FEE45D"/>
<path d="M27.3068 14.9262C27.3981 14.9836 27.3981 14.9836 27.4914 15.0422C27.6 15.1075 27.6 15.1075 27.7109 15.1742C28.2666 15.5359 28.7753 15.9618 29.0355 16.5862C29.1516 17.4689 28.9594 18.1088 28.5476 18.8801C28.4981 18.9774 28.4486 19.0747 28.3976 19.1749C28.2673 19.43 28.135 19.6838 28.0016 19.9372C27.8652 20.1975 27.7317 20.4591 27.5979 20.7206C27.3362 21.2309 27.0718 21.7398 26.8051 22.2476C26.6285 22.0221 26.4851 21.8004 26.3573 21.5443C26.3221 21.4741 26.2869 21.404 26.2506 21.3317C26.2133 21.2565 26.176 21.1814 26.1376 21.104C26.0791 20.9869 26.0791 20.9869 26.0194 20.8674C25.9371 20.7025 25.8549 20.5374 25.7729 20.3723C25.6479 20.1208 25.5224 19.8696 25.3968 19.6184C25.3167 19.4578 25.2366 19.2971 25.1565 19.1364C25.1192 19.0618 25.082 18.9871 25.0436 18.9103C24.2933 17.3981 24.2933 17.3981 24.5423 16.4743C24.8865 15.688 25.6718 15.2201 26.4282 14.8827C26.7875 14.7619 26.9697 14.7618 27.3068 14.9262Z" fill="#FEF38E"/>
<path d="M35.1252 42.7461C35.3718 42.8801 35.3718 42.8801 35.5541 43.0892C35.6081 43.425 35.6124 43.6034 35.4201 43.888C35.211 44.0328 35.211 44.0328 34.9094 44.0921C34.5904 44.1728 34.5904 44.1728 34.4889 44.4543C34.4562 44.6119 34.4562 44.6119 34.4229 44.7726C34.4103 44.8288 34.3977 44.885 34.3847 44.9429C34.3579 45.0627 34.3321 45.1827 34.3073 45.3029C34.2398 45.6214 34.159 45.9365 34.0797 46.2523C34.0654 46.312 34.0511 46.3716 34.0363 46.4331C33.9339 46.8539 33.9339 46.8539 33.8385 46.9493C33.6214 46.9555 33.4067 46.9572 33.1898 46.9546C33.0983 46.954 33.0983 46.954 33.005 46.9534C32.8539 46.9524 32.7028 46.9509 32.5518 46.9493C32.6663 46.2802 32.8044 45.6198 32.9646 44.9603C32.9848 44.8721 33.0049 44.7839 33.0257 44.693C33.1758 44.0775 33.3583 43.527 33.8499 43.103C33.9063 43.0719 33.9627 43.0408 34.0208 43.0088C34.0776 42.9762 34.1344 42.9436 34.193 42.91C34.5149 42.7531 34.7701 42.7106 35.1252 42.7461Z" fill="#F4B9AB"/>
<path d="M15.6535 42.8343C16.2 43.0967 16.5033 43.4038 16.7687 43.9494C16.8392 44.168 16.8998 44.3771 16.9523 44.5995C16.967 44.659 16.9818 44.7184 16.997 44.7797C17.0277 44.9041 17.0579 45.0287 17.0878 45.1534C17.1335 45.3443 17.1805 45.5348 17.2277 45.7253C17.4549 46.652 17.4549 46.652 17.4549 46.9517C17.0303 46.9517 16.6057 46.9517 16.1682 46.9517C16.1019 46.7159 16.0358 46.48 15.9698 46.244C15.9502 46.174 15.9305 46.1039 15.9102 46.0317C15.7756 45.5488 15.6545 45.0645 15.5483 44.5744C15.4742 44.3554 15.4074 44.2606 15.2246 44.121C15.0251 44.0615 14.825 44.0042 14.6241 43.9494C14.4526 43.7779 14.4526 43.7779 14.415 43.4455C14.4241 43.1686 14.4441 43.1028 14.6188 42.8719C14.9934 42.696 15.261 42.7147 15.6535 42.8343Z" fill="#F4B9AB"/>
<path d="M18.9775 11.2307C19.2489 11.3015 19.5177 11.3787 19.7867 11.4582C19.8793 11.484 19.9719 11.5097 20.0674 11.5363C20.201 11.5753 20.201 11.5753 20.3373 11.615C20.4179 11.6384 20.4985 11.6617 20.5816 11.6858C20.8332 11.7942 20.9703 11.9116 21.1431 12.123C21.1842 12.4044 21.1669 12.5776 21.0627 12.8414C20.7774 13.0661 20.4636 13.0072 20.1138 12.9808C20.1177 13.0511 20.1217 13.1214 20.1258 13.1939C20.1305 13.3325 20.1305 13.3325 20.1352 13.474C20.1392 13.5656 20.1432 13.6571 20.1473 13.7514C20.1138 14.0101 20.1138 14.0101 19.9596 14.2122C19.7706 14.3532 19.7706 14.3532 19.4704 14.4015C19.1702 14.3532 19.1702 14.3532 18.9812 14.1803C18.7779 13.8427 18.7877 13.5964 18.8056 13.2113C18.8071 13.1478 18.8087 13.0843 18.8103 13.0188C18.8143 12.8631 18.8205 12.7075 18.827 12.5519C18.7209 12.5448 18.6147 12.5377 18.5054 12.5304C18.2551 12.4976 18.1431 12.4676 17.9263 12.3267C17.7451 12.0398 17.7501 11.8554 17.7977 11.5225C18.0918 11.0637 18.4985 11.1267 18.9775 11.2307Z" fill="#4B5762"/>
<path d="M31.8666 11.1825C32.0757 11.3165 32.0757 11.3165 32.2097 11.5256C32.258 11.8258 32.258 11.8258 32.2097 12.126C31.906 12.4758 31.625 12.5015 31.1803 12.5549C31.1843 12.649 31.1883 12.7431 31.1924 12.8401C31.1956 12.9648 31.1987 13.0896 31.2018 13.2143C31.2061 13.3071 31.2061 13.3071 31.2105 13.4018C31.2165 13.7321 31.2011 13.8929 31.0262 14.1834C30.8372 14.3563 30.8372 14.3563 30.537 14.4045C30.1871 14.3483 30.1051 14.2904 29.8936 14.0131C29.8601 13.7545 29.8601 13.7545 29.8722 13.477C29.8753 13.3846 29.8784 13.2922 29.8815 13.1969C29.8855 13.1266 29.8895 13.0563 29.8936 12.9838C29.8409 12.9878 29.7881 12.9918 29.7338 12.9959C29.1689 13.0211 29.1689 13.0211 28.9446 12.8444C28.8416 12.5834 28.8294 12.4046 28.8642 12.126C28.9963 11.8957 29.0814 11.7993 29.3292 11.6981C29.4094 11.6789 29.4896 11.6596 29.5723 11.6398C29.6597 11.6181 29.7471 11.5964 29.8371 11.574C29.9283 11.5527 30.0195 11.5314 30.1134 11.5095C30.2941 11.4655 30.4747 11.4214 30.6553 11.3771C30.7354 11.3582 30.8155 11.3393 30.898 11.3198C31.5317 11.1536 31.5317 11.1536 31.8666 11.1825Z" fill="#4B5762"/>
<path d="M35.8982 28.0813C36.1355 28.328 36.1962 28.5143 36.2038 28.8534C36.1812 29.5872 35.8487 30.2368 35.3192 30.7405C34.7598 31.1754 34.1416 31.4129 33.4286 31.3791C33.239 31.3409 33.239 31.3409 32.9655 31.164C32.81 30.912 32.81 30.912 32.8047 30.6011C32.9066 30.2775 32.956 30.222 33.239 30.0543C33.4638 30.0037 33.4638 30.0037 33.7054 29.9738C34.0962 29.9103 34.34 29.846 34.6115 29.5396C34.7998 29.2026 34.8356 28.8283 34.8896 28.4506C35.0574 27.9401 35.4385 27.956 35.8982 28.0813Z" fill="#BFE4F4"/>
<path d="M14.5918 27.9883C14.9154 28.0902 14.9709 28.1396 15.1386 28.4225C15.1892 28.6474 15.1892 28.6474 15.2191 28.889C15.2822 29.2801 15.3512 29.5196 15.6533 29.795C15.992 29.9973 16.3349 30.0239 16.7206 30.0731C16.9401 30.1381 16.9401 30.1381 17.0982 30.2966C17.2516 30.5822 17.1949 30.7763 17.1116 31.0817C16.8649 31.319 16.6786 31.3797 16.3396 31.3873C15.6057 31.3647 14.9561 31.0322 14.4524 30.5027C14.0175 29.9434 13.78 29.3252 13.8137 28.6122C13.8519 28.4225 13.8519 28.4225 14.0288 28.1491C14.2808 27.9936 14.2808 27.9936 14.5918 27.9883Z" fill="#BEE4F4"/>
<path d="M31.0084 25.8482C31.2122 25.9823 31.2122 25.9823 31.3516 26.1914C31.434 26.6582 31.3042 26.9812 31.0667 27.3742C30.6776 27.8864 30.1023 28.2999 29.4644 28.4216C28.7865 28.4905 28.1556 28.4742 27.5772 28.0785C27.4056 27.8211 27.4056 27.8211 27.4217 27.5209C27.4914 27.2207 27.4914 27.2207 27.5879 27.0545C27.8403 26.9115 28.0658 26.9427 28.3492 26.9634C28.4058 26.9917 28.4624 27.02 28.5208 27.0491C29.0173 27.0828 29.3741 27.0647 29.8075 26.7918C29.9614 26.5753 30.0898 26.3557 30.214 26.121C30.4071 25.7874 30.6468 25.8121 31.0084 25.8482Z" fill="#BFE4F4"/>
<path d="M19.5134 25.8492C19.7873 26.0605 19.9536 26.3167 20.1138 26.6212C20.1138 26.6778 20.1138 26.7344 20.1138 26.7928C20.1811 26.8193 20.2483 26.8458 20.3176 26.8732C20.5428 26.9643 20.5428 26.9643 20.7143 27.0501C20.8808 27.0638 20.8808 27.0638 21.0682 27.0608C21.1369 27.0607 21.2057 27.0606 21.2766 27.0605C21.4752 27.0506 21.6563 27.0193 21.8509 26.9804C22.1726 26.9643 22.1726 26.9643 22.4299 27.1466C22.6015 27.3932 22.6015 27.3932 22.6498 27.613C22.5835 27.9003 22.4948 27.9879 22.2584 28.1652C21.6336 28.4776 20.9841 28.5379 20.3042 28.3602C19.5756 28.0903 19.1342 27.6806 18.7534 27.0072C18.6195 26.7138 18.5923 26.5086 18.6556 26.1923C18.89 25.8406 19.1013 25.7805 19.5134 25.8492Z" fill="#BEE4F4"/>
<path d="M23.8025 31.5966C23.9088 31.679 24.0123 31.7653 24.1135 31.8539C24.487 32.1544 24.7979 32.1849 25.2695 32.1635C25.608 32.0924 25.799 31.9366 26.055 31.7125C26.2044 31.5966 26.2044 31.5966 26.4832 31.543C26.7852 31.6116 26.8901 31.6815 27.0622 31.9397C27.1255 32.2446 27.1316 32.4342 26.9574 32.7003C26.504 33.1998 25.9783 33.442 25.3121 33.5162C24.4844 33.5441 23.8208 33.4143 23.1913 32.8565C22.9823 32.6262 22.9453 32.5433 22.8857 32.2238C22.9955 31.6952 23.2672 31.4936 23.8025 31.5966Z" fill="#BEE4F4"/>
</svg>
