<svg width="50" height="50" viewBox="0 0 50 50" fill="none" xmlns="http://www.w3.org/2000/svg">
<path d="M9.87564 0.832554C12.2923 2.37914 14.0159 4.80582 15.4859 7.21632C15.5267 7.28317 15.5676 7.35002 15.6098 7.4189C17.4982 10.5468 18.8652 13.966 19.7948 17.4918C20.2355 17.3507 20.6562 17.1886 21.0792 17.0015C23.7389 15.8814 26.7263 16.0385 29.3938 17.0188C29.7386 17.1603 29.7386 17.1603 30.1007 17.3434C30.3787 17.5081 30.3787 17.5081 30.6225 17.4918C30.6481 17.3956 30.6481 17.3956 30.6742 17.2975C32.1182 11.9463 34.5891 6.60484 38.467 2.57578C38.5402 2.49558 38.6134 2.4154 38.6889 2.33278C39.7994 1.15023 41.3205 0.139152 42.9625 0C43.7766 0.0184022 44.4501 0.327978 45.0203 0.90463C46.0885 2.21894 46.2443 4.07411 46.2356 5.704C46.235 5.82847 46.2343 5.95296 46.2338 6.08121C46.1328 13.2036 42.791 20.7302 38.246 26.11C38.3862 26.4966 38.546 26.7972 38.7997 27.1203C38.8654 27.2042 38.9309 27.2882 38.9985 27.3748C39.1012 27.5041 39.1012 27.5041 39.2059 27.6361C39.2722 27.7211 39.3385 27.806 39.4068 27.8936C39.7342 28.3102 40.0683 28.7157 40.4226 29.11C41.4495 30.2721 42.0895 31.7979 42.4445 33.2917C42.6017 33.2924 42.6017 33.2924 42.762 33.2931C43.1517 33.2961 43.5413 33.3015 43.9308 33.3086C44.0993 33.3112 44.2678 33.3127 44.4362 33.3133C44.6788 33.3143 44.921 33.3189 45.1635 33.3241C45.3093 33.3258 45.4552 33.3276 45.6054 33.3293C45.9801 33.4023 45.9801 33.4023 46.2526 33.6583C46.422 33.9546 46.422 33.9546 46.4152 34.3552C46.3163 34.7114 46.2728 34.8488 45.9801 35.0595C45.663 35.2181 45.3906 35.1824 45.0367 35.1808C44.8928 35.1805 44.749 35.1801 44.6007 35.1797C44.4482 35.1788 44.2957 35.1779 44.1432 35.1769C43.99 35.1764 43.8366 35.1758 43.6832 35.1754C43.3071 35.1741 42.931 35.1724 42.5551 35.1701C42.5576 35.2609 42.5602 35.3518 42.5628 35.4454C42.5755 36.232 42.527 36.948 42.3341 37.7113C42.4355 37.7101 42.5369 37.709 42.6415 37.7078C43.0187 37.704 43.3959 37.7013 43.7731 37.6991C43.9363 37.698 44.0993 37.6965 44.2625 37.6946C44.4972 37.6919 44.7319 37.6907 44.9667 37.6897C45.1079 37.6886 45.2491 37.6874 45.3945 37.6862C45.7369 37.7097 45.9196 37.744 46.201 37.9322C46.4328 38.2301 46.4215 38.3845 46.4014 38.7678C46.3109 39.1504 46.2786 39.2491 45.9801 39.4791C45.6564 39.4996 45.355 39.5014 45.0323 39.489C44.8406 39.4867 44.6488 39.4845 44.457 39.4828C44.1552 39.4784 43.8539 39.4722 43.5522 39.4606C42.5995 39.4137 42.5995 39.4137 41.6712 39.5896C41.2628 39.9828 41.1029 40.3963 40.8977 40.9155C40.6254 41.304 40.3256 41.6629 40.0139 42.0204C39.9553 42.0881 39.8968 42.1559 39.8365 42.2258C38.6217 43.5335 36.8296 44.5047 35.0743 44.7938C34.7979 44.8681 34.7979 44.8681 34.7105 45.1382C34.674 45.2396 34.6376 45.341 34.6 45.4455C34.4139 45.6721 34.2288 45.8834 34.0268 46.0946C33.9716 46.1532 33.9163 46.2118 33.8593 46.2722C33.7497 46.3879 33.64 46.5033 33.5297 46.6184C33.4143 46.7402 33.302 46.865 33.1908 46.9906C31.6032 48.7317 28.8456 49.8643 26.518 49.9952C23.0039 50.0591 19.9251 49.5102 17.2808 47.0135C17.1989 46.9337 17.117 46.8537 17.0326 46.7714C16.9519 46.6949 16.8712 46.6184 16.7879 46.5396C16.3298 46.0968 15.9402 45.6514 15.5963 45.1141C15.5963 45.0412 15.5963 44.9682 15.5963 44.8931C15.5224 44.8794 15.4485 44.8657 15.3724 44.8516C12.9665 44.335 10.8867 42.9114 9.49064 40.8917C9.29858 40.584 9.29858 40.584 9.22886 40.3305C9.11162 39.9904 9.02334 39.8237 8.74615 39.5896C8.05322 39.4102 7.29345 39.4856 6.58476 39.5067C6.28562 39.5132 5.98667 39.5183 5.68747 39.5202C5.50162 39.5216 5.31576 39.5257 5.13005 39.533C4.69194 39.5384 4.48667 39.5237 4.15538 39.2252C3.93741 38.8189 3.98402 38.5914 4.10572 38.1532C4.28016 37.9257 4.40309 37.8388 4.65815 37.7113C4.91494 37.7018 5.17201 37.6994 5.42897 37.7005C5.54253 37.7007 5.54253 37.7007 5.65839 37.7009C5.90043 37.7016 6.14247 37.703 6.3845 37.7044C6.54851 37.705 6.71251 37.7054 6.87651 37.7058C7.27876 37.7071 7.681 37.709 8.08324 37.7113C8.06728 37.6482 8.05133 37.5851 8.0349 37.5201C7.85416 36.7306 7.83948 35.9775 7.86226 35.1701C7.76751 35.1712 7.67277 35.1724 7.57515 35.1736C7.22263 35.1774 6.87013 35.1801 6.5176 35.1821C6.36521 35.1833 6.21281 35.1848 6.06043 35.1867C5.84103 35.1894 5.62162 35.1905 5.40221 35.1916C5.27029 35.1928 5.13837 35.1939 5.00245 35.1951C4.67079 35.1709 4.49082 35.1297 4.21621 34.9491C3.98453 34.6512 3.99577 34.4968 4.01595 34.1134C4.13462 33.6114 4.13462 33.6114 4.43717 33.4023C4.7142 33.3656 4.96546 33.3482 5.24296 33.3456C5.35997 33.3427 5.35997 33.3427 5.47934 33.3396C5.72811 33.3337 5.97686 33.33 6.22568 33.3263C6.39451 33.3226 6.56332 33.3188 6.73215 33.3149C7.14566 33.3054 7.55917 33.298 7.97275 33.2917C8.00605 33.173 8.03935 33.0543 8.07366 32.932C8.52798 31.3402 9.20292 30.0207 10.2929 28.7617C10.9506 27.9723 11.5764 27.1689 12.1712 26.331C12.0275 26.024 11.868 25.7658 11.6572 25.501C11.5993 25.4274 11.5415 25.3537 11.4819 25.2778C11.389 25.1599 11.389 25.1599 11.2942 25.0395C7.727 20.4325 5.45616 14.8076 4.43717 9.09467C4.42267 9.01608 4.40816 8.9376 4.39321 8.85673C3.97838 6.53523 3.78051 3.24108 5.17563 1.19854C6.49431 -0.438576 8.22999 -0.111456 9.87564 0.832554Z" fill="#DADADA"/>
<path d="M44.5432 0.47744C45.7239 1.41503 46.0248 2.92018 46.2005 4.34456C46.2312 4.7986 46.2374 5.24996 46.235 5.70495C46.2344 5.82942 46.2337 5.95391 46.2331 6.08216C46.1322 13.206 42.7842 20.9058 38.1349 26.2214C37.6459 25.7642 37.2628 25.2576 36.8712 24.7159C36.7337 24.5277 36.5962 24.3393 36.4586 24.151C36.3886 24.0547 36.3186 23.9586 36.2466 23.8594C35.9128 23.4006 35.5774 22.9428 35.2416 22.4855C35.1781 22.3987 35.1145 22.3119 35.0491 22.2225C34.7482 21.8138 34.4436 21.4096 34.1255 21.0142C34.069 20.9439 34.0124 20.8736 33.9543 20.8011C33.8494 20.6717 33.7435 20.543 33.6367 20.4152C33.3529 20.0663 33.2133 19.817 33.1631 19.3711C33.2142 19.1255 33.2142 19.1255 33.3068 18.8747C33.3413 18.7799 33.3758 18.6851 33.4115 18.5874C33.4503 18.4859 33.4891 18.3845 33.5291 18.28C33.5688 18.1736 33.6086 18.0671 33.6497 17.9576C34.3138 16.2087 35.0657 14.4926 35.9307 12.8336C36.0356 12.6314 36.1381 12.4281 36.2403 12.2246C37.1692 10.401 38.5213 7.77166 40.4551 6.8858C40.8194 6.86681 40.8194 6.86681 41.1181 6.8858C41.4439 5.09863 41.355 3.1126 40.8971 1.36135C40.8582 1.14074 40.8207 0.919841 40.7867 0.698418C40.9773 0.607907 41.1685 0.518309 41.3598 0.429092C41.4661 0.379103 41.5725 0.329114 41.6822 0.277603C42.6698 -0.128897 43.6254 -0.0581142 44.5432 0.47744Z" fill="#C2C1C1"/>
<path d="M9.87513 0.831612C12.2919 2.3782 14.0153 4.80489 15.4853 7.21538C15.5262 7.28223 15.5671 7.34908 15.6093 7.41795C17.306 10.2284 19.7944 14.4983 19.7944 17.8223C19.5751 17.9811 19.5751 17.9811 19.2695 18.1538C17.504 19.2339 16.3481 20.8801 15.1664 22.5366C15.0518 22.6962 14.9372 22.8558 14.8224 23.0153C14.762 23.1002 14.7014 23.1852 14.6391 23.2728C14.5804 23.3537 14.5216 23.4347 14.4612 23.5182C14.4085 23.5913 14.3559 23.6646 14.3015 23.7401C14.2547 23.7926 14.2078 23.8451 14.1595 23.8993C14.0865 23.8993 14.0137 23.8993 13.9385 23.8993C12.5737 21.5011 11.404 19.0694 10.403 16.4964C10.372 16.418 10.3409 16.3395 10.3089 16.2585C9.35299 13.8255 8.02258 10.0775 8.85011 7.43419C9.06665 7.02757 9.06665 7.02757 9.29809 6.88391C9.7623 6.90923 10.1072 6.99839 10.5135 7.21538C8.97045 5.12517 7.33636 2.97088 5.09961 1.58044C5.2535 0.999036 5.61348 0.69359 6.09399 0.365058C7.38959 -0.328007 8.68204 0.147199 9.87513 0.831612Z" fill="#C2C1C1"/>
<path d="M41.1179 6.88393C41.535 7.18517 41.6431 7.5047 41.7809 7.98882C42.3449 13.0366 39.1885 19.8328 36.4775 23.8993C36.4046 23.8993 36.3316 23.8993 36.2565 23.8993C36.1171 23.7395 36.1171 23.7395 35.9596 23.5147C35.9011 23.4322 35.8426 23.3498 35.7824 23.2649C35.7201 23.1757 35.6578 23.0866 35.5936 22.9946C35.4637 22.8117 35.3337 22.6288 35.2035 22.446C35.1064 22.3098 35.1064 22.3098 35.0075 22.1708C34.7491 21.8118 34.4829 21.4594 34.2125 21.1094C34.0877 20.9479 34.0877 20.9479 33.9604 20.7831C33.7383 20.4916 33.7383 20.4916 33.5578 20.3146C33.2767 20.0216 33.1637 19.8678 33.1577 19.4563C33.3077 18.9136 33.4874 18.3899 33.6877 17.8637C33.7311 17.7494 33.7745 17.6349 33.8191 17.5171C38.0387 6.58785 38.0387 6.58785 41.1179 6.88393Z" fill="#E8A5AA"/>
<path d="M9.66458 6.89162C11.1173 7.26098 12.0736 8.78161 12.8341 9.97846C12.9512 10.1619 12.9512 10.1619 13.0707 10.3491C14.627 12.8454 15.8644 15.5415 16.8946 18.2927C16.9329 18.3933 16.9714 18.494 17.011 18.5977C17.0449 18.6913 17.0788 18.785 17.1138 18.8814C17.1437 18.9628 17.1735 19.0441 17.2044 19.128C17.2841 19.52 17.216 19.8051 17.0061 20.1431C16.9489 20.2138 16.8918 20.2843 16.8328 20.357C16.769 20.4371 16.7051 20.5173 16.6394 20.5998C16.5366 20.7259 16.5366 20.7259 16.4319 20.8546C16.2907 21.0318 16.1497 21.2092 16.0089 21.3868C15.939 21.4749 15.8693 21.5629 15.7972 21.6537C15.4185 22.1393 15.0651 22.6426 14.7111 23.1465C14.6386 23.2493 14.5662 23.3521 14.4914 23.4581C14.4315 23.545 14.3715 23.6318 14.3098 23.7214C14.2603 23.7803 14.2109 23.8393 14.16 23.9001C14.0871 23.9001 14.0141 23.9001 13.939 23.9001C12.5741 21.5019 11.4046 19.0702 10.4035 16.4973C10.3724 16.4188 10.3414 16.3402 10.3095 16.2593C9.3535 13.8262 8.0231 10.0783 8.85062 7.43501C9.07861 7.00687 9.15319 6.88198 9.66458 6.89162Z" fill="#E8A5AA"/>
<path d="M31.1677 44.8512C31.8514 44.932 32.5441 44.9023 33.2318 44.898C33.3864 44.8974 33.5411 44.897 33.6957 44.8964C34.0705 44.8952 34.4453 44.8934 34.82 44.8911C34.6386 45.3849 34.3862 45.7158 34.0258 46.0926C33.9706 46.1512 33.9153 46.2098 33.8583 46.2702C33.7488 46.3859 33.639 46.5013 33.5288 46.6164C33.4133 46.7382 33.3011 46.863 33.1899 46.9886C31.6023 48.7297 28.8446 49.8623 26.517 49.9932C23.9952 50.039 21.9926 49.7988 19.6833 48.7582C19.6833 48.7218 19.6833 48.6852 19.6833 48.6477C19.7673 48.6495 19.8511 48.6512 19.9376 48.653C23.509 48.717 26.6405 48.1825 29.4062 45.775C29.6546 45.5048 29.8971 45.2357 30.1256 44.9485C30.5029 44.7181 30.74 44.7897 31.1677 44.8512Z" fill="#C2C1C1"/>
<path d="M23.7727 35.5011C24.05 35.6864 24.262 35.9167 24.4839 36.1641C24.5437 36.2273 24.6035 36.2905 24.665 36.3557C24.8113 36.511 24.9552 36.6689 25.0985 36.827C25.6426 36.6093 25.9622 36.1633 26.3437 35.7351C26.7282 35.4369 26.9432 35.4431 27.4187 35.5011C27.7506 35.7223 27.8402 35.8611 27.9367 36.2469C27.8035 36.8764 27.3249 37.3029 26.8292 37.6931C26.4015 38.0483 26.1299 38.3142 26.0094 38.8682C25.9864 39.306 25.9872 39.7385 26.0032 40.1761C26.0099 40.4728 26.0129 40.769 26.0148 41.0657C26.0188 41.1959 26.0229 41.3261 26.027 41.4603C25.9824 41.799 25.9824 41.799 25.7801 42.0623C25.5405 42.2409 25.5405 42.2409 25.209 42.2963C24.7963 42.2274 24.6882 42.1283 24.4357 41.799C24.4017 41.4708 24.4017 41.4708 24.4265 41.089C24.434 40.8793 24.4341 40.8793 24.4417 40.6653C24.4444 40.592 24.447 40.5188 24.4498 40.4433C24.5031 39.0963 24.5031 39.0963 23.9544 37.9047C23.6121 37.5455 23.2386 37.234 22.8308 36.9516C22.6679 36.827 22.6679 36.827 22.5573 36.606C22.5148 36.2146 22.511 36.0135 22.73 35.6807C23.1082 35.4285 23.3236 35.4441 23.7727 35.5011Z" fill="#888888"/>
<path d="M42.6981 37.7025C43.1011 37.6967 43.5041 37.6928 43.9071 37.6902C44.0644 37.6891 44.2218 37.6878 44.3791 37.6862C44.6008 37.6842 44.8224 37.684 45.0442 37.6838C45.2355 37.6831 45.2355 37.6831 45.4306 37.6825C45.7529 37.7088 45.9331 37.7556 46.2017 37.9303C46.4333 38.2281 46.4221 38.3825 46.4019 38.7659C46.2862 39.2551 46.2862 39.2551 45.9807 39.4772C45.6971 39.52 45.6971 39.52 45.3534 39.5217C45.1604 39.5239 45.1604 39.5239 44.9634 39.526C44.8243 39.5256 44.6852 39.5253 44.5418 39.525C44.3988 39.5256 44.2559 39.5262 44.1087 39.5268C43.8061 39.5278 43.5035 39.5275 43.2009 39.5264C42.814 39.5251 42.427 39.5274 42.0399 39.5306C41.67 39.5331 41.3002 39.5324 40.9303 39.5319C40.7916 39.5331 40.6529 39.5344 40.5099 39.5356C40.3806 39.5347 40.2511 39.5336 40.1179 39.5326C40.0043 39.5325 39.8907 39.5325 39.7736 39.5325C39.3768 39.4619 39.1909 39.3196 38.9095 39.0352C38.8432 38.6221 38.8357 38.3822 39.0567 38.0217C39.5332 37.6953 40.0294 37.7442 40.5945 37.737C40.7186 37.7339 40.8428 37.7309 40.9707 37.7277C41.5465 37.7154 42.1223 37.711 42.6981 37.7025Z" fill="#C2C1C1"/>
<path d="M5.35208 37.6975C5.49632 37.6973 5.64056 37.697 5.78917 37.6967C5.94616 37.6972 6.10315 37.6977 6.26014 37.6984C6.33881 37.6986 6.41749 37.6988 6.49855 37.6991C7.06361 37.7012 7.62862 37.7061 8.19366 37.7122C8.41209 37.7142 8.41209 37.7142 8.63495 37.7164C9.0312 37.7214 9.42718 37.7299 9.82336 37.7398C10.0025 37.7421 10.0025 37.7421 10.1852 37.7445C10.9918 37.7707 10.9918 37.7707 11.3611 38.0285C11.5679 38.3603 11.5788 38.5435 11.5083 38.9275C11.3256 39.2111 11.2434 39.322 10.9559 39.48C10.4684 39.5645 9.9851 39.5574 9.49141 39.5534C9.34858 39.5539 9.20572 39.5545 9.05852 39.555C8.75676 39.5558 8.45508 39.5546 8.15333 39.5521C7.767 39.5489 7.3809 39.5507 6.99459 39.554C6.62531 39.5565 6.25609 39.5548 5.88681 39.5534C5.67895 39.555 5.67895 39.555 5.46689 39.5567C5.3382 39.555 5.20951 39.5533 5.07691 39.5515C4.96376 39.5511 4.8506 39.5507 4.73402 39.5501C4.43712 39.48 4.43712 39.48 4.17573 39.2243C3.99517 38.9275 3.99517 38.9275 4.00207 38.5271C4.101 38.1709 4.14444 38.0334 4.43712 37.8226C4.74739 37.6675 5.00512 37.6978 5.35208 37.6975Z" fill="#C2C1C1"/>
<path d="M40.1164 33.3411C40.2455 33.3393 40.3745 33.3376 40.5075 33.3358C40.6458 33.3364 40.7841 33.3369 40.9268 33.3375C41.141 33.3364 41.141 33.3364 41.3596 33.3354C41.6614 33.3342 41.9631 33.3348 42.2648 33.3364C42.6511 33.3382 43.0373 33.3356 43.4236 33.3318C43.7928 33.3288 44.1621 33.3299 44.5313 33.3305C44.6699 33.3291 44.8085 33.3276 44.9513 33.3262C45.1443 33.3282 45.1443 33.3282 45.3412 33.3303C45.4544 33.3304 45.5675 33.3305 45.6841 33.3306C45.9811 33.4001 45.9811 33.4001 46.2424 33.6556C46.4229 33.9525 46.4229 33.9525 46.4161 34.353C46.3172 34.7092 46.2737 34.8466 45.9811 35.0574C45.6908 35.2025 45.4752 35.1821 45.1502 35.1826C45.0227 35.1828 44.8951 35.183 44.7637 35.1833C44.6253 35.1828 44.487 35.1823 44.3445 35.1817C44.1321 35.1808 44.1321 35.1808 43.9154 35.1801C43.5391 35.178 43.1628 35.1745 42.7864 35.1704C42.6331 35.1687 42.4797 35.1672 42.3263 35.1657C41.8112 35.1611 41.2963 35.1517 40.7813 35.1403C40.6448 35.1387 40.5083 35.1371 40.3676 35.1355C40.1774 35.1302 40.1774 35.1302 39.9833 35.1248C39.8718 35.1224 39.7602 35.1201 39.6453 35.1177C39.273 35.0412 39.1396 34.9139 38.9099 34.6154C38.8477 34.2287 38.8477 34.2287 38.9099 33.842C39.3007 33.4476 39.567 33.3444 40.1164 33.3411Z" fill="#C2C1C1"/>
<path d="M5.06465 33.3551C5.2577 33.3525 5.2577 33.3525 5.45465 33.3498C5.66337 33.3498 5.66336 33.3498 5.8763 33.3497C6.01921 33.3488 6.16213 33.3481 6.30936 33.3472C6.61196 33.3457 6.91453 33.3454 7.21714 33.3461C7.60418 33.3467 7.99107 33.3434 8.37809 33.3389C8.748 33.3354 9.11789 33.3359 9.4878 33.3359C9.62649 33.334 9.76519 33.3323 9.90812 33.3304C10.9779 33.3389 10.9779 33.3389 11.3202 33.6607C11.5514 34.0207 11.5889 34.1971 11.5086 34.6169C11.2777 34.912 11.144 35.0429 10.7731 35.1191C10.6616 35.1214 10.5501 35.1238 10.4352 35.1262C10.2449 35.1315 10.2449 35.1315 10.0508 35.1371C9.84606 35.1394 9.84606 35.1394 9.63714 35.1417C9.4966 35.1447 9.35602 35.1477 9.21121 35.1509C8.83791 35.1582 8.46472 35.1632 8.09138 35.1669C7.86268 35.1694 7.634 35.1726 7.40531 35.1762C6.96615 35.1828 6.52698 35.1869 6.08778 35.19C5.95128 35.1915 5.81477 35.1929 5.67413 35.1945C5.54729 35.1946 5.42045 35.1947 5.28977 35.1948C5.17825 35.1952 5.06671 35.1957 4.95181 35.1962C4.64917 35.1685 4.47161 35.1098 4.21641 34.9484C3.98475 34.6504 3.99599 34.4961 4.01616 34.1127C4.17079 33.4586 4.4128 33.3604 5.06465 33.3551Z" fill="#C2C1C1"/>
<path d="M19.973 28.3203C20.4584 28.4641 20.4584 28.4641 20.6773 28.7623C20.7203 29.0464 20.7203 29.0464 20.7214 29.3834C20.7218 29.5049 20.7222 29.6264 20.7227 29.7517C20.7215 29.8787 20.7202 30.0056 20.7189 30.1365C20.7201 30.263 20.7214 30.3895 20.7227 30.52C20.7222 30.6416 20.7218 30.7634 20.7214 30.8888C20.721 31 20.7207 31.1113 20.7203 31.226C20.6706 31.5715 20.5953 31.7238 20.3459 31.9664C19.7415 32.0528 19.7415 32.0528 19.462 31.9664C19.1634 31.7219 19.0372 31.522 18.9765 31.1393C18.9565 30.8062 18.9544 30.477 18.958 30.1434C18.9553 30.0293 18.9527 29.9152 18.95 29.7977C18.951 29.2571 18.9538 28.9652 19.2752 28.5172C19.5726 28.3203 19.5726 28.3203 19.973 28.3203Z" fill="#868686"/>
<path d="M31.0637 28.4293C31.5425 28.9226 31.4478 29.4871 31.4435 30.1349C31.4457 30.2495 31.4478 30.3642 31.4501 30.4822C31.4498 30.9879 31.4482 31.3191 31.1953 31.7647C30.9532 31.9649 30.9532 31.9649 30.5664 32.0271C30.1162 31.9547 30.0138 31.8758 29.7378 31.523C29.6472 31.0669 29.6712 30.6059 29.6757 30.1419C29.6731 30.0158 29.6704 29.8897 29.6677 29.7599C29.6692 28.8433 29.6692 28.8433 29.9928 28.4534C30.4014 28.2684 30.6374 28.303 31.0637 28.4293Z" fill="#868686"/>
</svg>
