<svg width="50" height="50" viewBox="0 0 50 50" fill="none" xmlns="http://www.w3.org/2000/svg">
<path d="M5.31633 17.0476C4.9955 13.8651 6.34857 10.3074 8.31451 7.84688C13.8503 0.918522 24.7862 0.0820261 31.5491 5.68782C36.9258 10.1449 38.3639 17.3899 34.7513 23.4158C35.099 23.425 35.4583 23.4836 35.807 23.5167C36.2708 23.5608 36.7361 23.5864 37.2018 23.5935C40.2275 23.6498 43.2323 23.1364 45.9497 21.7593C46.2389 21.6129 46.9864 21.221 47.3043 20.9537C48.1502 20.2426 49.447 20.0693 49.9188 21.3094C50.1045 21.7977 49.9024 23.1506 49.9813 23.7035C49.9884 24.9807 49.9808 26.2394 49.9706 27.5144C49.7655 33.2709 47.269 38.3805 43.1162 42.3006C39.7468 45.4437 35.4863 47.4655 30.9208 48.088C29.3677 48.2966 26.6674 48.3597 25.0306 48.2887C19.6279 48.0538 12.4652 47.1799 8.47291 43.1444C8.1342 42.802 7.83002 42.3806 7.54302 42.0023C5.79711 39.7009 4.65519 36.7541 4.73531 33.8469C4.81241 31.05 6.00313 28.2709 8.08972 26.3975C8.35017 26.1635 8.70252 25.8592 9.03181 25.7214C8.68187 25.4376 7.71363 24.1896 7.49476 23.7553C7.47848 23.7495 7.4622 23.7436 7.44592 23.7378C7.3815 23.7587 7.31607 23.7764 7.24987 23.7908C5.67737 24.1357 4.22853 23.6791 2.90078 22.8319C2.24671 22.4146 0.165572 20.7924 0.0198844 20.0662C-0.0404224 19.7657 0.0343874 19.4827 0.27254 19.2812C0.593474 19.0096 1.68251 18.7261 2.12865 18.5603C2.53707 18.4084 5.15636 17.2954 5.31633 17.0476Z" fill="#F6B834"/>
<path d="M5.31633 17.0477L5.35773 17.0647C5.62663 16.9693 5.88133 16.8633 6.16754 16.9811C6.38059 17.0688 6.49155 17.2955 6.56233 17.5048C6.67943 17.851 6.78113 18.2076 6.89902 18.555C7.14482 19.303 7.45799 20.027 7.83467 20.7182C7.93438 20.8996 8.24842 21.4476 8.35761 21.5684C9.04123 22.3245 9.24484 22.9994 8.12777 23.4704C8.04213 23.5065 7.53908 23.6937 7.49476 23.7555C7.47848 23.7496 7.4622 23.7437 7.44592 23.7378C7.3815 23.7587 7.31608 23.7764 7.24987 23.7909C5.67737 24.1358 4.22853 23.6791 2.90078 22.832C2.24671 22.4146 0.165572 20.7925 0.0198844 20.0664C-0.0404224 19.7658 0.0343874 19.4828 0.27254 19.2813C0.593474 19.0097 1.68251 18.7262 2.12865 18.5603C2.53708 18.4085 5.15636 17.2954 5.31633 17.0477Z" fill="#F95F54"/>
<path d="M42.3079 29.4654C43.0949 29.4535 43.8149 29.5823 43.8212 30.5999C43.824 31.036 43.7118 31.5785 43.6262 32.0107C43.1101 34.5595 41.8403 36.8947 39.9813 38.7131C37.8922 40.7606 35.1684 42.0355 32.2582 42.328C31.7122 42.3821 31.1542 42.3958 30.607 42.3983C28.8681 42.4069 27.1291 42.3978 25.3906 42.3958C23.4839 42.3933 21.7519 41.6421 20.4135 40.2937C20.238 40.117 20.0793 39.9182 19.9119 39.7335C19.9416 39.736 19.9965 39.7413 20.0221 39.7568C20.4194 39.9968 20.8226 40.214 21.2511 40.3955C21.7711 40.6168 22.3189 40.7661 22.8791 40.839C23.459 40.9132 24.1032 40.9132 24.6858 40.9157L26.7589 40.9188C27.9921 40.9195 29.4774 40.9525 30.6796 40.8608C32.9993 40.6838 35.5763 39.6426 37.4158 38.212C40.1469 36.065 41.9079 32.9165 42.3079 29.4654Z" fill="#ECB54C"/>
<path d="M12.3712 18.613C11.063 17.0036 11.8188 13.4193 14.3627 13.8141C14.5616 13.845 14.9675 14.0257 15.1184 14.1575C15.7174 14.586 16.057 15.3306 16.1776 16.0406C16.3767 17.2139 15.9305 18.6253 14.8424 19.2244C14.1816 19.5862 13.4365 19.5044 12.837 19.0635C12.6619 18.9353 12.5052 18.7837 12.3712 18.613Z" fill="#474647"/>
<path d="M15.1184 14.1578C15.7174 14.5864 16.057 15.3309 16.1775 16.0409C16.3767 17.2142 15.9304 18.6256 14.8424 19.2246C14.1816 19.5864 13.4364 19.5047 12.8369 19.0639C12.6618 18.9356 12.5051 18.784 12.3711 18.6132C12.6246 18.5849 12.9201 18.7007 13.187 18.7015C14.9582 18.7073 15.7185 16.6219 15.3931 15.1341C15.3225 14.8111 15.1718 14.4872 15.1184 14.1578Z" fill="#2D2D2D"/>
<path d="M12.9215 15.1332C13.1381 15.0761 13.3686 15.1402 13.5247 15.3008C13.6807 15.4614 13.738 15.6938 13.6746 15.9085C13.6111 16.1233 13.4369 16.2872 13.2185 16.3373C12.8886 16.4131 12.5587 16.2101 12.4777 15.8813C12.3965 15.5526 12.5942 15.2195 12.9215 15.1332Z" fill="#E5E5FE"/>
<path d="M20.899 5.42513C22.7517 5.30287 25.1197 5.90156 26.7824 6.68525C28.2341 7.3482 29.4549 8.28467 30.5464 9.442C31.0676 9.99436 31.9686 11.0378 30.7336 11.4461C30.5096 11.488 30.3866 11.473 30.1886 11.3268C29.8422 11.0711 29.5412 10.6124 29.2364 10.3092C28.5051 9.58191 27.7404 8.96082 26.8406 8.45374C25.7107 7.81478 24.4412 7.38256 23.1682 7.13944C22.4347 6.99938 21.6783 7.01802 20.9398 6.92829C20.6578 6.89401 20.2961 6.66234 20.2513 6.35848C20.1789 5.86764 20.4014 5.51001 20.899 5.42513Z" fill="#ECB54C"/>
<path d="M8.86928 32.4968C9.21465 32.4828 9.6281 32.6512 9.71257 33.0291C9.78955 33.3738 9.71798 33.8852 9.71673 34.2565C9.71163 35.7212 10.2743 37.1753 11.0635 38.3928C11.3743 38.8754 11.7707 39.2975 12.0093 39.8155C12.0484 39.9008 11.9849 40.2196 11.9265 40.3019C11.7612 40.5788 11.6317 40.6501 11.3484 40.739C10.7147 40.8563 10.1422 39.8072 9.83324 39.3455C8.74603 37.7211 8.0571 35.7527 8.15305 33.7829C8.18317 33.1643 8.17878 32.7152 8.86928 32.4968Z" fill="#ECB54C"/>
<path d="M32.2117 13.1216C32.3447 13.1308 32.4847 13.1581 32.603 13.2219C32.8421 13.3511 32.9367 13.6236 33.0061 13.87C33.1704 14.4533 33.5123 16.3111 33.2146 16.8094C33.0648 17.0602 32.8387 17.1192 32.5744 17.1866C31.8313 17.146 31.7532 16.4681 31.7518 15.8823C31.75 15.2398 31.5786 14.6736 31.4602 14.0514C31.3541 13.4932 31.6707 13.1675 32.2117 13.1216Z" fill="#ECB54C"/>
<path d="M34.2615 29.0404C35.1631 29.0018 36.1861 29.0386 37.0975 29.0307C37.6075 29.0262 38.8095 28.9967 39.23 29.0785C39.6143 29.3979 39.5637 29.8199 39.0858 29.9989C38.2175 30.0611 37.1079 30.007 36.2229 30.0238C35.8191 30.0313 34.5569 30.0438 34.2036 29.9925C33.7541 29.7124 33.7892 29.2783 34.2615 29.0404Z" fill="#ECB54C"/>
<path d="M10.4201 29.0381C10.8172 29.0061 11.1757 29.163 11.3291 29.5521C11.3993 29.7322 11.3909 29.933 11.3059 30.1065C11.1802 30.3638 10.5348 31.1627 10.2945 31.3811C10.2533 31.4185 10.1186 31.4673 10.0592 31.4886C9.40106 31.6364 8.92186 31.0543 9.16738 30.4584C9.36551 29.9774 9.93303 29.2545 10.4201 29.0381Z" fill="#ECB54C"/>
<path d="M32.2548 29.0214C32.5585 28.9937 32.8884 29.1244 32.9402 29.4569C32.9618 29.5867 32.9265 29.7196 32.8437 29.8218C32.698 29.9999 32.5433 30.0045 32.3363 30.0189C32.2284 30.0246 32.0785 30.0047 31.9675 29.9938C31.4022 29.6001 31.6001 29.0767 32.2548 29.0214Z" fill="#ECB54C"/>
</svg>
