<svg width="24" height="24" viewBox="0 0 24 24" fill="none" xmlns="http://www.w3.org/2000/svg">
<path d="M21.9198 6.2063C21.7849 6.02019 21.5337 5.95506 21.3336 6.06673C18.8541 7.47019 15.565 5.80385 12.7275 5.003V4.89639C12.7275 4.4682 12.9164 4.07197 13.2137 3.76385C13.5273 3.43887 13.7142 2.99104 13.6936 2.49929C13.6561 1.60365 12.8953 0.864466 11.999 0.851741C11.0338 0.838038 10.2432 1.6155 10.2432 2.57288C10.2432 3.04272 10.4346 3.4658 10.742 3.77593C11.0388 4.07533 11.2155 4.47263 11.2155 4.8942V5.00297C8.37459 5.80465 5.08846 7.47002 2.60929 6.06673C2.42115 5.95919 2.163 6.00754 2.0231 6.2063C1.86492 6.42958 1.93936 6.7413 2.17663 6.87622C3.01403 7.34145 3.91192 7.52287 4.8284 7.52287C4.92363 7.52287 5.01984 7.51472 5.11554 7.51102L2.89316 13.0106C2.58889 13.0106 2.37249 13.3025 2.4544 13.5955C2.78125 14.7647 4.0669 15.6375 5.60048 15.6375C7.13798 15.6375 8.42416 14.7648 8.7511 13.5955C8.83304 13.3025 8.61682 13.0106 8.31254 13.0106L6.05585 7.42695C7.82747 7.16573 9.57763 6.44766 11.2155 5.95845V17.7057C11.2155 19.7714 9.54096 21.4459 7.47529 21.4459C6.79337 21.4459 6.24381 21.9951 6.24381 22.6724V23.1816H17.6987V22.6724C17.6988 21.9951 17.1496 21.4459 16.4677 21.4459C14.402 21.4459 12.7275 19.7714 12.7275 17.7057V5.9585C14.3592 6.446 16.1156 7.16567 17.8867 7.42689L15.6304 13.0107C15.3261 13.0107 15.1094 13.3025 15.1913 13.5956C15.5182 14.7648 16.8044 15.6376 18.3419 15.6376C19.8755 15.6376 21.1611 14.7648 21.488 13.5956C21.5699 13.3025 21.3537 13.0107 21.0494 13.0107L18.827 7.51105C18.9229 7.51481 19.0192 7.5229 19.1146 7.5229C20.031 7.5229 20.9289 7.34147 21.7617 6.87625C22.0002 6.73887 22.0805 6.43392 21.9198 6.2063ZM7.32424 13.0088H3.88116L5.60268 8.74869L7.32424 13.0088ZM20.0615 13.0088H16.6183L18.3399 8.74869L20.0615 13.0088Z" fill="#07060B"/>
</svg>
