<svg width="50" height="50" viewBox="0 0 50 50" fill="none" xmlns="http://www.w3.org/2000/svg">
<path d="M24.2968 1.00681C24.4228 1.00542 24.4228 1.00542 24.5514 1.00401C26.4285 0.987637 28.2479 1.00347 30.0903 1.40643C30.2298 1.43674 30.2298 1.43674 30.3721 1.46766C32.2048 1.88019 33.9989 2.48469 35.6539 3.3792C35.8536 3.4871 36.0546 3.59251 36.2555 3.69806C37.7545 4.49672 39.0976 5.46782 40.3677 6.59225C40.4957 6.70456 40.4957 6.70456 40.6263 6.81913C41.47 7.56797 42.2094 8.35062 42.9135 9.23231C42.9756 9.30694 43.0377 9.38156 43.1017 9.45845C44.0265 10.5786 44.7834 11.8151 45.4592 13.0981C45.4936 13.1626 45.528 13.2271 45.5634 13.2936C46.6518 15.3657 47.3486 17.6763 47.7222 19.9811C47.7343 20.0529 47.7464 20.1246 47.7588 20.1985C48.112 22.3945 48.0847 24.8766 47.6279 27.0527C47.6091 27.1447 47.5904 27.2366 47.5711 27.3314C47.174 29.2381 46.5553 31.0136 45.6409 32.733C45.5603 32.8856 45.4829 33.0399 45.4058 33.1943C44.4044 35.1544 43.0357 36.896 41.5389 38.4987C41.3439 38.7086 41.1551 38.9217 40.9688 39.1392C40.3796 39.8169 39.7296 40.4249 39.0477 41.0073C38.9528 41.0903 38.8581 41.1734 38.7633 41.2566C37.9133 41.9994 37.0301 42.6906 36.1248 43.3645C36.0577 43.4147 35.9906 43.4649 35.9215 43.5166C33.0531 45.6557 29.908 47.4095 26.6665 48.9157C26.5822 48.9555 26.4978 48.9954 26.4109 49.0365C26.3323 49.0722 26.2536 49.108 26.1726 49.1448C26.1049 49.1759 26.0371 49.207 25.9674 49.239C25.5007 49.3819 25.1369 49.3142 24.7034 49.1109C24.6129 49.069 24.5223 49.027 24.429 48.9839C24.2852 48.9151 24.2852 48.9151 24.1384 48.8449C24.0379 48.7977 23.9374 48.7505 23.8338 48.7018C23.5301 48.5583 23.2272 48.4131 22.9245 48.2674C22.8409 48.2277 22.7573 48.188 22.6712 48.147C21.3289 47.5074 20.0513 46.7673 18.7758 46.0045C18.6967 45.9577 18.6177 45.9108 18.5362 45.8626C16.5586 44.691 14.6907 43.3329 12.93 41.8559C12.7883 41.7388 12.7883 41.7388 12.6438 41.6194C10.9546 40.2167 9.38235 38.6839 8.02702 36.9529C7.95628 36.8661 7.88554 36.7793 7.81266 36.6899C6.23825 34.7181 5.03857 32.5227 4.16122 30.1642C4.1379 30.1028 4.11458 30.0413 4.09055 29.9781C3.80656 29.223 3.61118 28.4577 3.43638 27.6715C3.41728 27.5862 3.39817 27.5009 3.37849 27.413C3.09974 26.1009 2.99355 24.808 3.0003 23.4698C3.00047 23.3983 3.00065 23.3269 3.00082 23.2534C3.00591 21.9897 3.08704 20.7552 3.31263 19.5097C3.32781 19.4254 3.34298 19.3412 3.35862 19.2544C4.05056 15.58 5.62902 12.1031 8.02702 9.23231C8.09481 9.15015 8.09481 9.15015 8.16398 9.06634C9.12299 7.90686 10.1388 6.85952 11.3271 5.93224C11.4209 5.85676 11.5147 5.78128 11.6114 5.70352C12.3301 5.13066 13.0828 4.63097 13.8716 4.15988C13.9945 4.08648 14.117 4.01252 14.2391 3.93788C17.1896 2.13918 20.8353 1.0384 24.2968 1.00681Z" fill="#64C27C"/>
<path d="M25.4702 1.02734C25.4702 12.9755 25.4702 24.9236 25.4702 37.2338C23.7589 37.2338 22.0476 37.2338 20.2844 37.2338C20.5424 38.9106 20.9868 40.1961 22.3138 41.3088C23.277 42.0016 24.31 42.2746 25.4702 42.4197C25.4702 44.6911 25.4702 46.9624 25.4702 49.3027C25.134 49.2354 24.9123 49.1844 24.6132 49.05C24.5039 49.0011 24.5039 49.0011 24.3925 48.9512C24.3145 48.9155 24.2365 48.8798 24.1561 48.843C24.0734 48.8053 23.9906 48.7676 23.9054 48.7287C22.1364 47.9155 20.4457 47.0032 18.7758 46.0026C18.6213 45.911 18.4667 45.8194 18.3121 45.7278C16.4151 44.5954 14.6219 43.2733 12.93 41.8539C12.7883 41.7369 12.7883 41.7369 12.6438 41.6175C10.9546 40.2148 9.38235 38.6819 8.02702 36.951C7.95628 36.8642 7.88554 36.7774 7.81266 36.688C6.23825 34.7162 5.03857 32.5207 4.16122 30.1623C4.1379 30.1008 4.11458 30.0394 4.09055 29.9761C3.80656 29.221 3.61118 28.4558 3.43638 27.6695C3.41728 27.5842 3.39817 27.4989 3.37849 27.411C3.09974 26.099 2.99355 24.8061 3.0003 23.4678C3.00047 23.3964 3.00065 23.325 3.00082 23.2514C3.00591 21.9877 3.08704 20.7533 3.31263 19.5077C3.32781 19.4235 3.34298 19.3393 3.35862 19.2525C4.05056 15.5781 5.62902 12.1011 8.02702 9.23038C8.09481 9.14822 8.09481 9.14822 8.16398 9.06441C9.12299 7.90493 10.1388 6.85759 11.3271 5.93031C11.4209 5.85483 11.5147 5.77935 11.6114 5.70158C12.3301 5.12873 13.0828 4.62904 13.8716 4.15795C13.9945 4.08455 14.117 4.01059 14.2391 3.93595C17.6372 1.86436 21.5301 1.02734 25.4702 1.02734Z" fill="#90DB5A"/>
<path d="M38.1811 18.5553C38.2684 18.5552 38.3557 18.5551 38.4456 18.555C38.6294 18.5549 38.8131 18.5551 38.9969 18.5555C39.2764 18.556 39.5559 18.5555 39.8354 18.5549C40.0147 18.555 40.194 18.5551 40.3733 18.5553C40.456 18.5551 40.5388 18.5549 40.624 18.5547C41.9626 18.5597 41.9626 18.5597 42.1593 18.7564C42.3354 19.8333 42.3828 20.9081 42.3773 21.9975C42.3771 22.0693 42.377 22.141 42.3768 22.2149C42.3724 23.3123 42.3317 24.3818 42.065 25.4508C42.0493 25.5148 42.0336 25.5789 42.0175 25.6449C41.5107 27.6308 40.4732 29.4629 38.6841 30.5514C36.7659 31.6681 34.7198 32.0697 32.5183 32.0686C32.4563 32.0687 32.3942 32.0688 32.3303 32.0688C31.26 32.0687 30.2086 32.0022 29.1476 31.8624C28.6859 28.5444 28.5917 24.6721 30.6562 21.8443C30.7498 21.7259 30.8441 21.608 30.939 21.4907C30.9791 21.4369 31.0192 21.383 31.0606 21.3275C32.3815 19.6397 34.5735 18.9919 36.5963 18.6621C36.742 18.6373 36.742 18.6373 36.8907 18.6121C37.3234 18.5597 37.7458 18.5543 38.1811 18.5553Z" fill="#1E2E3B"/>
<path d="M10.6025 18.5458C10.6943 18.5453 10.7862 18.5448 10.8808 18.5442C11.0746 18.5433 11.2683 18.5427 11.4621 18.5423C11.754 18.5414 12.0459 18.5385 12.3378 18.5355C13.3919 18.53 14.3583 18.5844 15.3813 18.8479C15.4732 18.8689 15.5651 18.8899 15.6598 18.9116C17.4777 19.3318 19.3558 20.3692 20.3786 21.9594C21.6047 23.936 22.0013 25.9492 21.9992 28.2531C21.9993 28.3629 21.9993 28.3629 21.9994 28.4749C21.9992 29.6126 21.9499 30.7313 21.7929 31.8596C18.4117 32.3312 14.7222 32.2457 11.8128 30.2622C10.0354 28.9024 9.11644 26.9687 8.78119 24.788C8.7651 24.6866 8.74901 24.5852 8.73243 24.4807C8.60385 23.6087 8.56236 22.7585 8.56904 21.8769C8.56924 21.8115 8.56944 21.7461 8.56964 21.6788C8.57933 18.9554 8.57933 18.9554 8.87548 18.6593C9.45231 18.5665 10.0191 18.5485 10.6025 18.5458Z" fill="#3C5D75"/>
<path d="M20.2842 37.2344C23.7068 37.2344 27.1295 37.2344 30.6558 37.2344C30.6558 38.6704 30.1615 39.8914 29.1767 40.9411C28.0297 42.0173 26.6348 42.5056 25.0649 42.4563C23.5316 42.2978 22.3149 41.5684 21.3206 40.4077C20.6028 39.4507 20.2842 38.4177 20.2842 37.2344Z" fill="#1E2E3B"/>
<path d="M20.2842 37.2344C21.9955 37.2344 23.7068 37.2344 25.47 37.2344C25.47 38.9457 25.47 40.657 25.47 42.4202C23.9577 42.4202 22.817 41.8791 21.7287 40.8556C20.7518 39.8425 20.2842 38.6305 20.2842 37.2344Z" fill="#3C5D75"/>
</svg>
