<svg width="50" height="50" viewBox="0 0 50 50" fill="none" xmlns="http://www.w3.org/2000/svg">
<g clip-path="url(#clip0_1_2721)">
<path d="M43.7353 0.0158272C43.8504 0.0152818 43.9656 0.014725 44.0842 0.0141455C44.3253 0.0132366 44.5664 0.012589 44.8076 0.0122141C45.1751 0.0112597 45.5425 0.00822598 45.91 0.00516963C46.1456 0.00453337 46.3812 0.00402218 46.617 0.00364724C46.7802 0.0018407 46.7802 0.00184062 46.9466 0C47.8942 0.0026814 48.6187 0.15943 49.3198 0.818521C49.7904 1.35525 49.9857 1.96509 49.9911 2.6702C49.992 2.76817 49.993 2.86615 49.9939 2.9671C49.9943 3.07308 49.9948 3.17907 49.9952 3.28825C49.9959 3.39883 49.9966 3.50939 49.9973 3.62331C49.999 3.98303 49.9997 4.34274 49.9998 4.70247C49.9999 4.88576 49.9999 4.88576 50 5.07275C49.9984 6.88989 49.9556 8.66661 49.683 10.466C49.6663 10.5804 49.6495 10.6948 49.6323 10.8128C48.6738 17.2273 46.2955 23.1478 42.0797 28.1097C41.9856 28.2221 41.8914 28.3344 41.7972 28.4467C41.2956 29.0418 40.7859 29.6145 40.2272 30.1573C40.0455 30.3389 39.8807 30.5264 39.7158 30.7234C39.2688 31.2439 38.7546 31.6937 38.2464 32.153C38.0863 32.2984 37.9278 32.4454 37.7697 32.593C37.6732 32.6827 37.5766 32.7723 37.48 32.8618C37.3941 32.9418 37.3083 33.0217 37.2199 33.1041C37.0109 33.2762 37.0109 33.2762 36.8159 33.2762C36.8172 33.341 36.8185 33.4059 36.8199 33.4727C36.8298 34.3647 36.7695 35.2476 36.7016 36.1362C36.6927 36.2548 36.6927 36.2548 36.6835 36.3759C36.6521 36.7939 36.6199 37.2119 36.5874 37.6299C36.5542 38.0575 36.5228 38.4853 36.4919 38.9131C36.4673 39.246 36.4416 39.5786 36.4155 39.9114C36.4034 40.0689 36.3916 40.2265 36.3805 40.3841C36.2586 42.0944 35.9373 43.3228 34.6192 44.482C34.254 44.7849 33.8665 45.0436 33.4681 45.3005C33.3828 45.3564 33.2975 45.4123 33.2095 45.4698C32.9337 45.6503 32.6571 45.83 32.3807 46.0095C32.0922 46.1977 31.8039 46.3862 31.5156 46.5748C31.3218 46.7016 31.1279 46.8283 30.934 46.9549C30.3253 47.3527 29.7195 47.7542 29.1163 48.1601C29.042 48.2099 28.9678 48.2598 28.8913 48.3113C28.6122 48.499 28.333 48.6867 28.0545 48.8756C27.8676 49.0023 27.6802 49.1284 27.4927 49.2544C27.3887 49.3248 27.2849 49.3951 27.1778 49.4676C26.3722 49.9573 25.6677 50.0352 24.7286 49.9452C24.099 49.7796 23.5102 49.4333 23.1439 48.8843C22.7268 48.1173 22.613 47.323 22.4866 46.4725C22.4624 46.3181 22.4382 46.1638 22.4138 46.0094C22.3639 45.6923 22.315 45.375 22.2668 45.0577C22.1968 44.5982 22.1232 44.1394 22.0488 43.6806C22.0146 43.4686 21.9805 43.2566 21.9465 43.0446C21.9249 42.9102 21.9033 42.7758 21.8816 42.6415C21.8515 42.4546 21.8222 42.2676 21.7929 42.0805C21.7762 41.9753 21.7595 41.87 21.7422 41.7615C21.7068 41.4645 21.7004 41.1784 21.7068 40.8796C21.6103 40.9117 21.5137 40.9439 21.4143 40.9771C21.1854 40.9965 20.9556 41.0075 20.7259 41.0137C20.6042 41.0184 20.4824 41.0232 20.357 41.0281C19.3721 40.9646 18.6621 40.2451 18.0065 39.5818C17.9141 39.49 17.8216 39.3985 17.729 39.3069C17.4799 39.0601 17.2325 38.8117 16.9853 38.563C16.7251 38.3016 16.4638 38.0415 16.2027 37.7811C15.7645 37.3438 15.3274 36.9055 14.8909 36.4666C14.3878 35.9609 13.883 35.4569 13.3773 34.9538C12.9413 34.5201 12.5063 34.0854 12.072 33.6499C11.8135 33.3906 11.5546 33.1316 11.2948 32.8734C11.0506 32.6306 10.8075 32.3866 10.5654 32.1416C10.435 32.0103 10.3035 31.8802 10.1718 31.7501C9.59659 31.1648 9.03872 30.5088 8.98361 29.6546C8.99077 29.4719 8.99077 29.4719 8.99804 29.2856C9.00134 29.1621 9.00463 29.0386 9.00793 28.9113C9.03463 28.5972 9.03463 28.5972 9.13211 28.3047C9.06292 28.2998 8.99373 28.2951 8.92237 28.2901C8.15874 28.2319 7.40603 28.1352 6.64909 28.0195C6.5278 28.0011 6.40651 27.9827 6.28154 27.9637C6.02683 27.9249 5.77215 27.8858 5.5175 27.8465C5.25871 27.8066 4.99982 27.7674 4.74082 27.7288C4.36338 27.6724 3.98617 27.6147 3.60899 27.5565C3.49453 27.5396 3.38006 27.5228 3.26214 27.5054C2.13765 27.3283 1.14796 27.1008 0.432199 26.1663C0.132222 25.6413 0.0347377 25.1792 0.0240121 24.5761C0.0201149 24.457 0.0162178 24.3378 0.012207 24.2151C0.0791853 23.2991 0.786735 22.4683 1.28514 21.737C1.44043 21.5072 1.59526 21.2772 1.75006 21.0471C1.79242 20.9841 1.83479 20.9213 1.87844 20.8565C2.26609 20.28 2.64773 19.6997 3.02869 19.1187C3.09124 19.0235 3.15378 18.9282 3.21822 18.83C3.471 18.4449 3.72375 18.0597 3.97587 17.6741C4.15432 17.4012 4.33321 17.1287 4.51219 16.8563C4.56495 16.7752 4.61769 16.6943 4.67203 16.611C5.44355 15.4386 6.24897 14.2552 7.66994 13.8777C9.13121 13.6402 10.625 13.5721 12.1003 13.4599C12.461 13.4324 12.8218 13.4043 13.1826 13.3759C13.4644 13.3538 13.7463 13.3323 14.0281 13.3107C14.2247 13.2956 14.4214 13.2801 14.6181 13.2647C15.3256 13.2115 16.0259 13.1818 16.7354 13.1953C16.7628 13.1366 16.7901 13.0779 16.8183 13.0173C16.9808 12.7102 17.2169 12.4766 17.4543 12.2266C17.5608 12.1132 17.6673 11.9997 17.7737 11.8862C17.8282 11.8285 17.8826 11.7707 17.9386 11.7111C18.0918 11.5472 18.2427 11.3814 18.393 11.2145C19.0241 10.5152 19.6859 9.86631 20.3867 9.23709C20.5282 9.10916 20.6679 8.97929 20.8074 8.8492C21.4416 8.25963 22.1045 7.71965 22.7916 7.19396C22.976 7.05266 23.1593 6.91007 23.3425 6.76744C29.0596 2.35793 36.5388 0.0434479 43.7353 0.0158272Z" fill="#D6D5FA"/>
<path d="M16.7354 13.1936C16.4446 13.5853 16.1521 13.9745 15.8463 14.3547C14.3349 16.2396 13.0988 18.2801 11.959 20.4072C11.9083 20.4976 11.8575 20.5879 11.8052 20.6811C11.7588 20.767 11.7122 20.8529 11.6642 20.9414C11.6224 21.0171 11.5805 21.0927 11.5373 21.1707C11.4478 21.3801 11.4478 21.3801 11.5471 21.5707C11.6664 21.7716 11.7874 21.9169 11.9524 22.0817C12.0112 22.1409 12.07 22.2001 12.1305 22.2611C12.1952 22.3252 12.2599 22.3892 12.3265 22.4553C12.3951 22.5241 12.4638 22.5929 12.5344 22.6638C12.7651 22.8947 12.9964 23.1249 13.2277 23.3552C13.393 23.5204 13.5582 23.6858 13.7234 23.851C14.1258 24.2535 14.5287 24.6555 14.9317 25.0572C15.4007 25.5249 15.8691 25.993 16.3375 26.4612C17.1728 27.2961 18.0086 28.1305 18.8446 28.9647C19.6566 29.775 20.4685 30.5856 21.2801 31.3964C21.3552 31.4714 21.3552 31.4714 21.4318 31.5478C21.6828 31.7986 21.9338 32.0492 22.1848 32.3C24.2668 34.3801 26.3496 36.4595 28.4328 38.5383C31.3021 37.6023 34.0492 35.5714 36.3254 33.6229C36.5234 33.4695 36.5234 33.4695 36.8159 33.372C36.8369 34.2938 36.7716 35.2067 36.7016 36.125C36.6957 36.2042 36.6897 36.2833 36.6835 36.3649C36.652 36.7835 36.6199 37.2022 36.5874 37.6208C36.5542 38.0492 36.5229 38.4778 36.4919 38.9064C36.4673 39.2396 36.4416 39.5727 36.4155 39.906C36.4034 40.0637 36.3916 40.2216 36.3805 40.3794C36.2588 42.0909 35.9383 43.3202 34.6192 44.4803C34.254 44.7832 33.8665 45.0419 33.4681 45.2988C33.3828 45.3547 33.2975 45.4106 33.2095 45.4681C32.9337 45.6486 32.6571 45.8282 32.3807 46.0078C32.0922 46.196 31.8039 46.3845 31.5156 46.5731C31.3218 46.6999 31.1279 46.8266 30.934 46.9532C30.3253 47.351 29.7195 47.7525 29.1163 48.1584C29.042 48.2082 28.9678 48.2581 28.8913 48.3096C28.6122 48.4973 28.333 48.6851 28.0545 48.8739C27.8676 49.0007 27.6802 49.1267 27.4927 49.2527C27.3887 49.323 27.2849 49.3934 27.1778 49.4659C26.3722 49.9556 25.6677 50.0335 24.7286 49.9435C24.099 49.7779 23.5102 49.4315 23.1439 48.8825C22.7268 48.1156 22.613 47.3213 22.4866 46.4708C22.4624 46.3163 22.4382 46.162 22.4138 46.0078C22.3639 45.6906 22.315 45.3733 22.2668 45.056C22.1968 44.5965 22.1232 44.1377 22.0488 43.6789C22.0146 43.4669 21.9805 43.2549 21.9465 43.0429C21.9249 42.9085 21.9033 42.7741 21.8816 42.6398C21.8515 42.4528 21.8222 42.2658 21.7929 42.0788C21.7762 41.9736 21.7595 41.8683 21.7422 41.7598C21.7068 41.4628 21.7004 41.1767 21.7068 40.8779C21.6103 40.91 21.5137 40.9422 21.4143 40.9753C21.1854 40.9948 20.9556 41.0058 20.7259 41.0119C20.6042 41.0167 20.4824 41.0215 20.357 41.0264C19.3721 40.9629 18.6621 40.2434 18.0065 39.5801C17.9141 39.4884 17.8216 39.3967 17.729 39.3052C17.4799 39.0584 17.2325 38.81 16.9853 38.5613C16.7251 38.3 16.4638 38.0398 16.2027 37.7794C15.7645 37.342 15.3274 36.9038 14.8909 36.4649C14.3878 35.9592 13.883 35.4552 13.3773 34.9521C12.9413 34.5184 12.5063 34.0837 12.072 33.6482C11.8135 33.3889 11.5546 33.1299 11.2948 32.8717C11.0506 32.6289 10.8075 32.3849 10.5654 32.1399C10.435 32.0086 10.3035 31.8785 10.1718 31.7484C9.59659 31.1631 9.03872 30.5071 8.98361 29.6529C8.98839 29.5311 8.99316 29.4093 8.99804 29.2839C9.00134 29.1604 9.00463 29.0369 9.00793 28.9096C9.03463 28.5954 9.03463 28.5954 9.13211 28.303C9.06292 28.2981 8.99373 28.2933 8.92237 28.2883C8.15874 28.2303 7.40603 28.1335 6.64909 28.0178C6.5278 27.9994 6.40651 27.981 6.28154 27.962C6.02682 27.9232 5.77215 27.8841 5.5175 27.8448C5.25871 27.8049 4.99982 27.7657 4.74082 27.7271C4.36338 27.6707 3.98617 27.613 3.60899 27.5548C3.49453 27.5379 3.38007 27.5211 3.26214 27.5037C2.13765 27.3266 1.14796 27.0991 0.432199 26.1646C0.132222 25.6395 0.0347377 25.1775 0.0240121 24.5744C0.0201149 24.4553 0.0162178 24.3362 0.012207 24.2134C0.0791853 23.2974 0.786735 22.4666 1.28514 21.7354C1.44043 21.5055 1.59526 21.2754 1.75006 21.0454C1.79242 20.9824 1.83479 20.9196 1.87844 20.8548C2.26609 20.2783 2.64773 19.698 3.02869 19.117C3.12251 18.9741 3.12251 18.9741 3.21822 18.8283C3.471 18.4432 3.72375 18.058 3.97587 17.6724C4.15432 17.3995 4.33321 17.127 4.51219 16.8545C4.56495 16.7735 4.61769 16.6926 4.67204 16.6092C5.44355 15.4369 6.24897 14.2535 7.66994 13.876C9.13121 13.6384 10.625 13.5704 12.1003 13.4581C12.461 13.4306 12.8218 13.4026 13.1826 13.3742C13.4644 13.3521 13.7463 13.3305 14.0281 13.3089C14.2247 13.2938 14.4214 13.2784 14.6181 13.2629C15.3256 13.2098 16.0259 13.1801 16.7354 13.1936Z" fill="#476388"/>
<path d="M43.7365 0.0158272C43.8516 0.0152818 43.9667 0.014725 44.0853 0.0141455C44.3265 0.0132366 44.5676 0.012589 44.8087 0.0122141C45.1762 0.0112597 45.5436 0.00822598 45.911 0.00516963C46.1468 0.00453337 46.3824 0.00402218 46.6181 0.00364724C46.7812 0.0018407 46.7812 0.00184062 46.9477 0C47.8993 0.00269277 48.5954 0.152499 49.2943 0.815465C49.2321 0.877364 49.1701 0.939264 49.1061 1.00304C48.7084 1.4007 48.3135 1.80106 47.9181 2.20089C47.016 3.11256 46.1124 4.02276 45.208 4.9321C44.6608 5.48235 44.1142 6.03314 43.5687 6.58519C43.0919 7.06782 42.6142 7.5494 42.135 8.02978C41.8818 8.28383 41.629 8.53834 41.3774 8.79421C41.0975 9.07894 40.8151 9.36139 40.5327 9.64362C40.4495 9.72884 40.3663 9.81416 40.2807 9.90199C40.165 10.0164 40.165 10.0164 40.0471 10.1331C39.9473 10.2336 39.9473 10.2336 39.8456 10.3362C39.6439 10.466 39.6439 10.466 39.3916 10.4495C39.0758 10.3407 38.8668 10.1647 38.6082 9.95414C37.1496 8.81534 35.2378 8.36405 33.4052 8.51641C31.9246 8.71456 30.641 9.29527 29.5062 10.271C29.4117 10.3451 29.3172 10.4193 29.2199 10.4956C28.904 10.7594 28.6692 11.0561 28.434 11.392C28.392 11.4515 28.3502 11.5109 28.3071 11.5723C27.4362 12.8438 27.0477 14.1147 27.0387 15.6445C27.0382 15.734 27.0377 15.8236 27.0371 15.9158C27.0551 17.6153 27.6732 19.4221 28.8996 20.6278C29.0188 20.7988 29.0188 20.7988 28.9992 20.9805C28.9015 21.2416 28.7704 21.3757 28.5728 21.5723C28.4981 21.6476 28.4233 21.7227 28.3463 21.8002C28.2637 21.8817 28.1811 21.9633 28.096 22.0473C28.0094 22.1338 27.9229 22.2204 27.8337 22.3096C27.5966 22.5469 27.3585 22.7833 27.1202 23.0195C26.8714 23.2665 26.6233 23.5144 26.3752 23.7622C25.9052 24.2313 25.4345 24.6996 24.9635 25.1676C24.4273 25.7006 23.8921 26.2342 23.3568 26.7681C22.2557 27.8661 21.1536 28.963 20.0508 30.0593C19.7435 29.9232 19.5361 29.7638 19.2995 29.5263C19.194 29.4215 19.194 29.4214 19.0866 29.3143C19.0105 29.2375 18.9344 29.1607 18.856 29.0816C18.7751 29.0009 18.6943 28.92 18.6109 28.8367C18.3436 28.5692 18.0769 28.3011 17.8104 28.0328C17.6252 27.8473 17.44 27.6619 17.2547 27.4764C16.8169 27.038 16.3797 26.5991 15.9425 26.16C15.4448 25.6601 14.9465 25.1608 14.4482 24.6614C13.4232 23.6344 12.3991 22.6067 11.3752 21.5786C11.4923 21.2207 11.6127 20.885 11.7861 20.5506C11.8284 20.4691 11.8705 20.3876 11.914 20.3037C11.9595 20.2178 12.0048 20.1319 12.0515 20.0434C12.1227 19.9082 12.1227 19.9082 12.1955 19.7702C13.3552 17.5944 14.739 15.4739 16.3661 13.6162C16.5304 13.4274 16.6593 13.2591 16.7887 13.0431C16.9753 12.7327 17.2135 12.4818 17.4616 12.2206C17.5671 12.108 17.6728 11.9954 17.7783 11.8828C17.8321 11.8257 17.8859 11.7685 17.9413 11.7097C18.0939 11.5462 18.2442 11.3811 18.3937 11.215C19.025 10.5155 19.6869 9.86643 20.3879 9.23709C20.5294 9.10916 20.669 8.97929 20.8086 8.8492C21.4428 8.25963 22.1056 7.71965 22.7928 7.19396C22.9771 7.05266 23.1605 6.91007 23.3437 6.76744C29.0607 2.35793 36.5399 0.0434479 43.7365 0.0158272Z" fill="#F0F0FA"/>
<path d="M38.4126 9.69181C38.8525 10.018 39.2529 10.3758 39.6437 10.7591C39.7047 10.8178 39.7658 10.8765 39.8288 10.937C41.1804 12.3467 41.6511 14.3208 41.6195 16.216C41.542 18.2208 40.539 19.9525 39.1174 21.3163C37.432 22.7581 35.469 23.1943 33.2934 23.0684C31.4215 22.8881 29.7393 21.8191 28.5312 20.4096C27.2113 18.6058 26.7187 16.5664 26.9977 14.3535C27.3244 12.5917 28.4275 10.9263 29.8391 9.85701C30.2627 9.57058 30.7064 9.33095 31.1631 9.1019C31.2542 9.0527 31.3453 9.00339 31.4391 8.95272C33.666 7.92024 36.4157 8.35167 38.4126 9.69181Z" fill="#466388"/>
<path d="M16.7354 13.1936C16.4446 13.5853 16.1521 13.9745 15.8463 14.3547C12.8765 18.0583 10.6479 22.377 9.48786 26.9837C9.3748 27.4249 9.25289 27.8637 9.13211 28.303C8.29781 28.2445 7.47573 28.1442 6.64909 28.0178C6.5278 27.9994 6.40651 27.981 6.28154 27.962C6.02682 27.9232 5.77215 27.8841 5.5175 27.8448C5.25871 27.8049 4.99982 27.7657 4.74082 27.7271C4.36338 27.6707 3.98617 27.613 3.60899 27.5548C3.49453 27.5379 3.38007 27.5211 3.26214 27.5037C2.13765 27.3266 1.14796 27.0991 0.432199 26.1646C0.132222 25.6395 0.0347377 25.1775 0.0240121 24.5744C0.0201149 24.4553 0.0162178 24.3362 0.012207 24.2134C0.0791853 23.2974 0.786735 22.4666 1.28514 21.7354C1.44043 21.5055 1.59526 21.2754 1.75006 21.0454C1.79242 20.9824 1.83479 20.9196 1.87844 20.8548C2.26609 20.2783 2.64773 19.698 3.02869 19.117C3.12251 18.9741 3.12251 18.9741 3.21822 18.8283C3.471 18.4432 3.72375 18.058 3.97587 17.6724C4.15432 17.3995 4.33321 17.127 4.51219 16.8545C4.56495 16.7735 4.61769 16.6926 4.67204 16.6092C5.44355 15.4369 6.24897 14.2535 7.66994 13.876C9.13121 13.6384 10.625 13.5704 12.1003 13.4581C12.461 13.4306 12.8218 13.4026 13.1826 13.3742C13.4644 13.3521 13.7463 13.3305 14.0281 13.3089C14.2247 13.2938 14.4214 13.2784 14.6181 13.2629C15.3256 13.2098 16.0259 13.1801 16.7354 13.1936Z" fill="#E45A6E"/>
<path d="M36.8164 33.3711C36.8374 34.2929 36.7721 35.2059 36.7021 36.1241C36.6962 36.2033 36.6902 36.2825 36.684 36.364C36.6524 36.7827 36.6204 37.2013 36.5879 37.6199C36.5547 38.0483 36.5234 38.4769 36.4924 38.9055C36.4678 39.2387 36.4421 39.5719 36.416 39.9051C36.4038 40.0629 36.3921 40.2207 36.381 40.3786C36.2593 42.09 35.9388 43.3193 34.6197 44.4794C34.2545 44.7824 33.867 45.041 33.4686 45.2979C33.3406 45.3817 33.3406 45.3817 33.21 45.4673C32.9342 45.6478 32.6576 45.8273 32.3812 46.0069C32.0927 46.1951 31.8044 46.3837 31.5161 46.5722C31.3222 46.699 31.1284 46.8257 30.9345 46.9523C30.3258 47.3501 29.72 47.7516 29.1168 48.1576C29.0054 48.2323 29.0054 48.2323 28.8918 48.3087C28.6127 48.4964 28.3335 48.6842 28.055 48.873C27.8681 48.9998 27.6806 49.1259 27.4932 49.2519C27.3892 49.3223 27.2854 49.3925 27.1783 49.465C26.3727 49.9547 25.6682 50.0326 24.7291 49.9426C24.0995 49.777 23.5107 49.4307 23.1444 48.8816C22.7273 48.1147 22.6135 47.3204 22.4871 46.4699C22.4629 46.3156 22.4387 46.1612 22.4143 46.0069C22.3644 45.6898 22.3155 45.3725 22.2673 45.0551C22.1973 44.5956 22.1237 44.1368 22.0492 43.678C22.015 43.466 21.981 43.254 21.947 43.042C21.9255 42.9076 21.9038 42.7733 21.8821 42.6389C21.852 42.452 21.8227 42.2649 21.7934 42.078C21.7767 41.9727 21.76 41.8674 21.7427 41.759C21.7073 41.4619 21.7009 41.1759 21.7073 40.877C21.7891 40.8556 21.8709 40.8343 21.9552 40.8123C22.2835 40.7257 22.6114 40.6379 22.9392 40.5492C23.0934 40.5076 23.2476 40.4664 23.4019 40.4253C27.6386 39.2951 31.4501 37.2871 34.9765 34.7053C35.0514 34.6506 35.1265 34.5957 35.2038 34.5392C35.6444 34.2126 36.0589 33.8693 36.4622 33.4974C36.6214 33.3711 36.6214 33.3711 36.8164 33.3711Z" fill="#D82E44"/>
<path d="M19.8548 30.1534C20.1596 30.2888 20.367 30.4461 20.6024 30.6813C20.6718 30.7503 20.7412 30.8191 20.8128 30.89C20.888 30.9657 20.9631 31.0413 21.0406 31.1191C21.1605 31.2384 21.1605 31.2384 21.2827 31.3602C21.547 31.6236 21.8105 31.8876 22.0738 32.1518C22.2569 32.3346 22.4399 32.5174 22.623 32.7002C23.0064 33.0834 23.3896 33.467 23.7724 33.8508C24.2154 34.2948 24.6592 34.7383 25.1034 35.1814C25.4846 35.5617 25.8653 35.9423 26.2458 36.3233C26.4731 36.551 26.7005 36.7783 26.9283 37.0056C27.1818 37.2586 27.4346 37.5122 27.6873 37.7659C27.7633 37.8415 27.8392 37.917 27.9175 37.995C27.9859 38.0638 28.0542 38.1327 28.1246 38.2037C28.1845 38.2636 28.2444 38.3235 28.3061 38.3854C28.4327 38.5367 28.4327 38.5367 28.4327 38.7317C21.6187 41.5943 21.6187 41.5943 19.7458 40.8968C18.9915 40.5518 18.4516 40.0318 17.8767 39.4502C17.7751 39.349 17.6736 39.2479 17.5719 39.1468C17.3608 38.9365 17.1507 38.7253 16.9411 38.5134C16.6723 38.2417 16.4012 37.9723 16.1295 37.7035C15.9201 37.4959 15.712 37.2872 15.5042 37.0781C15.4045 36.9782 15.3047 36.8787 15.2043 36.7795C15.065 36.6414 14.9275 36.5017 14.79 36.3618C14.672 36.2432 14.672 36.2432 14.5516 36.1223C14.3959 35.9047 14.3959 35.9047 14.3887 35.7147C14.5423 35.4217 14.7627 35.2074 14.9966 34.9784C15.049 34.926 15.1013 34.8736 15.1551 34.8198C15.328 34.6471 15.5019 34.4755 15.6757 34.3039C15.7958 34.1843 15.9159 34.0647 16.0359 33.945C16.3518 33.6302 16.6685 33.3164 16.9854 33.0027C17.3087 32.6824 17.6312 32.3613 17.9537 32.0402C18.5865 31.4104 19.2204 30.7816 19.8548 30.1534Z" fill="#364A67"/>
<path d="M36.9192 12.1971C37.8238 12.9239 38.4495 13.8945 38.6677 15.0483C38.7658 16.4227 38.4781 17.616 37.5772 18.6672C36.7211 19.5779 35.7462 20.1132 34.4868 20.1683C33.2308 20.1878 32.2372 19.8908 31.2739 19.0537C30.4279 18.2308 29.8968 17.1283 29.8662 15.9415C29.8542 14.5849 30.2271 13.5903 31.1718 12.5892C32.8001 11.0531 35.0824 10.9355 36.9192 12.1971Z" fill="#4ABCFC"/>
<path d="M39.3511 10.6606C40.3447 11.1275 40.8338 12.3115 41.2032 13.2926C41.8629 15.141 41.7527 17.0809 40.9514 18.8634C40.0512 20.7389 38.4884 22.055 36.5558 22.7862C34.6312 23.3538 32.5643 23.1865 30.7791 22.279C30.1646 21.9163 29.5155 21.4953 29.116 20.896C29.7593 20.2527 30.4027 19.6093 31.0656 18.9464C31.5024 19.1212 31.7981 19.3034 32.1697 19.5767C32.8253 19.9533 33.4726 20.071 34.2213 20.0613C34.3022 20.0607 34.3832 20.0599 34.4665 20.0591C35.5853 20.0292 36.5055 19.6127 37.3197 18.8455C38.2668 17.8418 38.6284 16.7362 38.6014 15.3721C38.5179 14.4707 38.1467 13.7599 37.6346 13.0272C37.4991 12.8052 37.4991 12.8052 37.4991 12.5127C37.6691 12.3096 37.6691 12.3096 37.9042 12.0791C38.0296 11.9551 38.0296 11.9551 38.1574 11.8286C38.2457 11.7429 38.3341 11.657 38.4251 11.5685C38.5134 11.4814 38.6018 11.3944 38.6928 11.3047C38.9116 11.0893 39.131 10.8747 39.3511 10.6606Z" fill="#354A68"/>
<path d="M11.6003 38.0248C11.9991 38.3587 12.1254 38.6018 12.2399 39.1093C12.2832 39.6119 12.1306 39.9794 11.8218 40.3667C11.3693 40.8807 10.8956 41.3699 10.4112 41.8539C10.2853 41.9803 10.2853 41.9803 10.157 42.1092C9.92892 42.338 9.70077 42.5665 9.4724 42.7949C9.32947 42.9379 9.18665 43.081 9.04383 43.224C8.54481 43.7239 8.04557 44.2236 7.54607 44.723C7.08145 45.1876 6.61736 45.6527 6.15354 46.1181C5.75402 46.5188 5.35413 46.9193 4.95394 47.3194C4.71545 47.5579 4.47713 47.7965 4.23917 48.0355C3.97424 48.3015 3.70852 48.5668 3.44272 48.8321C3.32527 48.9503 3.32527 48.9503 3.20545 49.0709C3.13277 49.1433 3.06008 49.2156 2.9852 49.29C2.92256 49.3527 2.85992 49.4154 2.79539 49.48C2.28177 49.9292 1.89293 49.994 1.22571 49.976C0.845165 49.9296 0.636936 49.8147 0.359831 49.5518C0.106484 49.1944 0.0211672 48.9353 0.0125662 48.4978C0.00841915 48.4026 0.00427207 48.3075 0 48.2096C0.173439 47.3991 0.967998 46.7711 1.53416 46.2076C1.62093 46.1206 1.7077 46.0334 1.79711 45.9437C2.03309 45.7068 2.26967 45.4706 2.50641 45.2345C2.75496 44.9863 3.00302 44.7379 3.25118 44.4894C3.66748 44.0727 4.0842 43.6564 4.50114 43.2405C4.98258 42.7601 5.46331 42.279 5.94368 41.7975C6.35726 41.383 6.77121 40.969 7.18549 40.5552C7.43245 40.3085 7.67927 40.0618 7.92575 39.8146C8.20032 39.5395 8.47562 39.2651 8.75092 38.9908C8.87272 38.8684 8.87272 38.8684 8.99702 38.7436C9.07223 38.6688 9.14756 38.594 9.22516 38.5171C9.29004 38.4522 9.35492 38.3874 9.42184 38.3206C10.0984 37.7276 10.7926 37.5982 11.6003 38.0248Z" fill="#FCB339"/>
<path d="M37.303 12.6091C38.1044 13.3162 38.5996 14.288 38.695 15.3514C38.7352 16.7673 38.3069 17.8887 37.3436 18.9132C36.3825 19.8386 35.3153 20.1791 34.0018 20.1677C32.9164 20.1256 31.9292 19.7325 31.1619 18.9452C31.1619 18.8808 31.1619 18.8165 31.1619 18.7503C31.2893 18.6245 31.2893 18.6245 31.4752 18.4726C32.0701 17.9662 32.6144 17.4091 33.1659 16.8566C33.2824 16.74 33.3991 16.6234 33.5158 16.5069C33.7587 16.2642 34.0014 16.0212 34.2441 15.7781C34.5553 15.4662 34.8671 15.1549 35.1789 14.8436C35.4192 14.6038 35.6592 14.3636 35.8991 14.1234C36.0141 14.0084 36.1291 13.8934 36.2441 13.7785C36.4042 13.6188 36.5639 13.4587 36.7236 13.2985C36.8145 13.2075 36.9054 13.1165 36.9991 13.0226C37.208 12.8223 37.208 12.8223 37.303 12.6091Z" fill="#058FFA"/>
<path d="M15.664 42.2422C16.093 42.4647 16.3415 42.6778 16.5414 43.1195C16.6811 43.6036 16.6195 44.0182 16.4439 44.4842C16.2811 44.6999 16.1362 44.8685 15.9446 45.0529C15.894 45.104 15.8432 45.1552 15.7909 45.2079C15.6244 45.375 15.4557 45.54 15.287 45.705C15.1701 45.8213 15.0533 45.9378 14.9366 46.0543C14.6924 46.2976 14.4475 46.5398 14.2016 46.7813C13.8867 47.0907 13.5735 47.4018 13.2609 47.7135C13.02 47.9536 12.7785 48.1932 12.5369 48.4325C12.4212 48.5471 12.3057 48.6618 12.1901 48.7765C12.0287 48.9365 11.8666 49.0959 11.7044 49.2551C11.6569 49.3025 11.6094 49.3497 11.5604 49.3985C11.1629 49.786 10.8724 49.9709 10.3149 49.9796C9.84615 49.9686 9.58585 49.8747 9.23045 49.5531C8.82324 49.1139 8.79541 48.7405 8.78882 48.1671C8.89664 47.6025 9.31805 47.1987 9.71129 46.802C9.75776 46.7548 9.80434 46.7077 9.85218 46.659C10.0045 46.5048 10.1576 46.3515 10.3107 46.1981C10.4178 46.0904 10.5249 45.9827 10.6319 45.8749C10.8559 45.6498 11.0802 45.4251 11.3048 45.2007C11.5916 44.9138 11.877 44.6258 12.162 44.3373C12.3826 44.1146 12.604 43.8929 12.8257 43.6712C12.9312 43.5654 13.0366 43.4593 13.1416 43.3528C13.2887 43.2038 13.437 43.0559 13.5857 42.9085C13.6695 42.8243 13.7535 42.7401 13.8399 42.6534C14.4098 42.1874 14.952 42.0516 15.664 42.2422Z" fill="#F57920"/>
<path d="M7.35963 33.7326C7.67667 34.0678 7.85437 34.3896 7.87481 34.8589C7.8223 35.6197 7.42147 36.0833 6.89241 36.6133C6.82196 36.6842 6.82196 36.6842 6.75008 36.7567C6.59634 36.9112 6.44188 37.0652 6.28737 37.219C6.17956 37.327 6.07177 37.4349 5.96402 37.5429C5.73884 37.7684 5.51332 37.9936 5.28755 38.2184C4.99845 38.5063 4.71023 38.7953 4.42225 39.0844C4.20017 39.3072 3.97762 39.5295 3.75492 39.7517C3.64845 39.858 3.54211 39.9645 3.43594 40.0712C3.28759 40.22 3.13863 40.3682 2.98948 40.5162C2.86267 40.6428 2.86267 40.6428 2.7333 40.772C2.27242 41.1832 1.90789 41.2149 1.30419 41.2019C0.800254 41.1434 0.553497 40.8883 0.225457 40.5257C0.0159665 40.0906 -0.0313672 39.6966 0.0670494 39.2219C0.322146 38.8021 0.610102 38.4578 0.954162 38.1084C1.0024 38.0592 1.05065 38.01 1.10036 37.9592C1.25851 37.7983 1.4174 37.638 1.57644 37.478C1.63102 37.4229 1.68562 37.3676 1.74187 37.3108C2.03045 37.0194 2.31958 36.7284 2.60919 36.4379C2.90726 36.1388 3.20346 35.8379 3.49928 35.5366C3.72811 35.3041 3.95824 35.0729 4.18874 34.8421C4.29851 34.7318 4.40779 34.6209 4.51655 34.5096C4.66907 34.3537 4.82335 34.1998 4.97818 34.0462C5.06531 33.9584 5.15246 33.8706 5.24224 33.78C5.93199 33.2645 6.64479 33.3037 7.35963 33.7326Z" fill="#FDB339"/>
<path d="M11.9594 38.3419C12.2076 38.8979 12.3454 39.3097 12.1544 39.9016C11.7665 40.5421 11.2146 41.0641 10.6877 41.5886C10.6009 41.6757 10.5141 41.7628 10.4246 41.8525C10.1887 42.0894 9.95211 42.3256 9.71544 42.5618C9.46684 42.8099 9.21881 43.0583 8.97067 43.3068C8.55437 43.7235 8.13762 44.1398 7.72065 44.5557C7.23921 45.0362 6.75848 45.5173 6.27811 45.9987C5.86454 46.4132 5.45058 46.8273 5.0363 47.241C4.78935 47.4877 4.54252 47.7344 4.29604 47.9816C4.02153 48.2567 3.74623 48.5311 3.47084 48.8055C3.38965 48.8871 3.30847 48.9687 3.22482 49.0526C3.14954 49.1274 3.07425 49.2022 2.99668 49.2792C2.93176 49.344 2.86684 49.4088 2.79994 49.4756C2.38997 49.8349 2.07594 49.984 1.5293 49.9847C1.43078 49.9865 1.33227 49.9884 1.23076 49.9903C0.878773 49.9309 0.725183 49.78 0.457031 49.5521C1.91269 48.0896 3.36919 46.6279 4.82669 45.1672C5.50336 44.489 6.17977 43.8105 6.85553 43.1314C7.44436 42.5397 8.03366 41.9484 8.62368 41.3578C8.93613 41.0449 9.24835 40.7318 9.56001 40.418C9.85315 40.1229 10.1469 39.8285 10.4411 39.5347C10.5493 39.4265 10.6571 39.318 10.7648 39.2093C10.9113 39.0613 11.0586 38.9143 11.2062 38.7675C11.2887 38.6848 11.3711 38.6021 11.456 38.517C11.667 38.3419 11.667 38.3419 11.9594 38.3419Z" fill="#F57B22"/>
</g>
<defs>
<clipPath id="clip0_1_2721">
<rect width="50" height="50" fill="white"/>
</clipPath>
</defs>
</svg>
