<svg width="50" height="50" viewBox="0 0 50 50" fill="none" xmlns="http://www.w3.org/2000/svg">
<path d="M10.4056 2.76595C12.6289 4.18881 14.2146 6.42136 15.567 8.63902C15.6046 8.70052 15.6422 8.76202 15.681 8.82539C17.4184 11.7031 18.676 14.8487 19.5312 18.0925C19.9367 17.9627 20.3237 17.8135 20.7129 17.6414C23.1598 16.6109 25.9082 16.7554 28.3623 17.6573C28.6795 17.7875 28.6795 17.7875 29.0127 17.9559C29.2684 18.1075 29.2684 18.1075 29.4927 18.0925C29.5163 18.004 29.5163 18.004 29.5403 17.9137C30.8688 12.9906 33.142 8.07646 36.7097 4.36972C36.777 4.29594 36.8444 4.22217 36.9138 4.14616C37.9355 3.05821 39.3349 2.12802 40.8455 2C41.5945 2.01693 42.2141 2.30174 42.7387 2.83226C43.7215 4.04143 43.8648 5.74818 43.8568 7.24768C43.8562 7.3622 43.8556 7.47673 43.8551 7.59472C43.7622 14.1473 40.6878 21.0718 36.5064 26.0212C36.6353 26.3769 36.7824 26.6534 37.0158 26.9507C37.0762 27.0279 37.1365 27.1052 37.1987 27.1848C37.2931 27.3038 37.2931 27.3038 37.3895 27.4252C37.4505 27.5034 37.5115 27.5815 37.5743 27.6621C37.8755 28.0454 38.1829 28.4185 38.5088 28.7812C39.4536 29.8504 40.0424 31.2541 40.369 32.6284C40.5136 32.629 40.5136 32.629 40.6611 32.6297C41.0196 32.6324 41.378 32.6374 41.7364 32.6439C41.8914 32.6463 42.0464 32.6477 42.2013 32.6483C42.4245 32.6492 42.6474 32.6534 42.8705 32.6582C43.0046 32.6598 43.1388 32.6614 43.277 32.663C43.6217 32.7301 43.6217 32.7301 43.8724 32.9657C44.0283 33.2383 44.0283 33.2383 44.022 33.6068C43.931 33.9345 43.891 34.0609 43.6217 34.2548C43.33 34.4007 43.0794 34.3678 42.7538 34.3664C42.6214 34.3661 42.4891 34.3657 42.3527 34.3654C42.2124 34.3645 42.0721 34.3637 41.9318 34.3628C41.7908 34.3623 41.6497 34.3618 41.5086 34.3614C41.1626 34.3602 40.8166 34.3586 40.4707 34.3565C40.473 34.4401 40.4754 34.5237 40.4778 34.6098C40.4895 35.3335 40.4449 35.9922 40.2674 36.6944C40.3607 36.6933 40.454 36.6923 40.5502 36.6912C40.8972 36.6877 41.2443 36.6852 41.5913 36.6832C41.7414 36.6822 41.8914 36.6808 42.0415 36.6791C42.2575 36.6766 42.4734 36.6755 42.6894 36.6746C42.8193 36.6735 42.9492 36.6724 43.083 36.6713C43.398 36.693 43.5661 36.7245 43.825 36.8977C44.0382 37.1717 44.0278 37.3138 44.0093 37.6664C43.9261 38.0184 43.8964 38.1092 43.6217 38.3208C43.3239 38.3397 43.0466 38.3413 42.7498 38.3299C42.5734 38.3278 42.3969 38.3258 42.2205 38.3242C41.9428 38.3202 41.6656 38.3145 41.3881 38.3038C40.5116 38.2606 40.5116 38.2606 39.6575 38.4225C39.2818 38.7842 39.1347 39.1646 38.9459 39.6423C38.6954 39.9997 38.4196 40.3299 38.1328 40.6588C38.0789 40.7211 38.0251 40.7835 37.9696 40.8478C36.852 42.0509 35.2033 42.9444 33.5884 43.2103C33.3341 43.2787 33.3341 43.2787 33.2537 43.5272C33.2201 43.6205 33.1866 43.7138 33.152 43.8099C32.9808 44.0184 32.8105 44.2128 32.6247 44.4071C32.5739 44.461 32.523 44.5149 32.4706 44.5705C32.3698 44.6769 32.2688 44.7831 32.1674 44.889C32.0612 45.001 31.9579 45.1158 31.8556 45.2314C30.395 46.8332 27.858 47.8752 25.7166 47.9956C22.4836 48.0544 19.6511 47.5494 17.2184 45.2525C17.143 45.179 17.0677 45.1054 16.99 45.0297C16.9158 44.9593 16.8415 44.889 16.7649 44.8165C16.3434 44.4091 15.985 43.9993 15.6686 43.505C15.6686 43.4379 15.6686 43.3708 15.6686 43.3017C15.6006 43.2891 15.5326 43.2765 15.4626 43.2635C13.2492 42.7882 11.3358 41.4785 10.0514 39.6204C9.87471 39.3373 9.87471 39.3373 9.81056 39.1041C9.7027 38.7912 9.62149 38.6378 9.36647 38.4225C8.72897 38.2574 8.02999 38.3268 7.37799 38.3462C7.10278 38.3522 6.82775 38.3569 6.55248 38.3586C6.3815 38.3599 6.21051 38.3637 6.03966 38.3704C5.63659 38.3754 5.44775 38.3618 5.14296 38.0872C4.94243 37.7134 4.98531 37.5041 5.09727 37.101C5.25776 36.8917 5.37085 36.8117 5.60551 36.6944C5.84175 36.6857 6.07826 36.6835 6.31466 36.6845C6.41914 36.6847 6.41914 36.6847 6.52573 36.6849C6.74841 36.6855 6.97108 36.6868 7.19375 36.6881C7.34464 36.6886 7.49552 36.689 7.6464 36.6894C8.01647 36.6906 8.38653 36.6923 8.75659 36.6944C8.74191 36.6364 8.72724 36.5783 8.71212 36.5185C8.54584 35.7922 8.53233 35.0993 8.55329 34.3565C8.46612 34.3575 8.37896 34.3586 8.28915 34.3597C7.96483 34.3632 7.64053 34.3657 7.3162 34.3676C7.176 34.3687 7.0358 34.37 6.89561 34.3718C6.69376 34.3743 6.4919 34.3753 6.29004 34.3763C6.16868 34.3774 6.04731 34.3784 5.92226 34.3795C5.61714 34.3573 5.45156 34.3194 5.19892 34.1532C4.98578 33.8791 4.99612 33.7371 5.01468 33.3844C5.12386 32.9225 5.12386 32.9225 5.40221 32.7301C5.65707 32.6964 5.88823 32.6804 6.14353 32.678C6.25118 32.6753 6.25118 32.6753 6.361 32.6725C6.58987 32.667 6.81872 32.6636 7.04764 32.6602C7.20296 32.6568 7.35827 32.6533 7.51359 32.6497C7.89402 32.641 8.27445 32.6342 8.65494 32.6284C8.68558 32.5192 8.71621 32.41 8.74778 32.2975C9.16575 30.833 9.7867 29.6191 10.7895 28.4608C11.3946 27.7345 11.9703 26.9954 12.5175 26.2245C12.3853 25.9421 12.2386 25.7046 12.0446 25.4609C11.9914 25.3932 11.9382 25.3254 11.8834 25.2556C11.7979 25.1471 11.7979 25.1471 11.7107 25.0364C8.42885 20.7979 6.33968 15.623 5.40221 10.3671C5.38887 10.2948 5.37552 10.2226 5.36176 10.1482C4.98012 8.01242 4.79808 4.9818 6.08159 3.10266C7.29478 1.59651 8.8916 1.89746 10.4056 2.76595Z" fill="#E7E7E7"/>
<path d="M42.2998 2.43926C43.3861 3.30184 43.6629 4.68658 43.8245 5.99701C43.8528 6.41473 43.8585 6.82998 43.8563 7.24857C43.8557 7.36309 43.8551 7.47762 43.8545 7.59561C43.7617 14.1495 40.6815 21.2334 36.4042 26.1237C35.9543 25.7031 35.6018 25.237 35.2416 24.7387C35.1151 24.5655 34.9886 24.3922 34.862 24.219C34.7976 24.1304 34.7332 24.0419 34.6669 23.9507C34.3598 23.5286 34.0513 23.1074 33.7423 22.6867C33.6839 22.6068 33.6254 22.527 33.5652 22.4447C33.2884 22.0687 33.0082 21.6969 32.7155 21.3331C32.6635 21.2684 32.6115 21.2037 32.558 21.137C32.4615 21.018 32.3641 20.8996 32.2658 20.782C32.0047 20.461 31.8763 20.2317 31.8301 19.8214C31.8771 19.5955 31.8771 19.5955 31.9623 19.3648C31.9941 19.2775 32.0258 19.1903 32.0586 19.1004C32.0943 19.0071 32.13 18.9138 32.1668 18.8176C32.2034 18.7197 32.24 18.6218 32.2778 18.521C32.8888 16.912 33.5805 15.3332 34.3763 13.8069C34.4728 13.6209 34.5671 13.4339 34.6611 13.2467C35.5157 11.5689 36.7597 9.14995 38.5388 8.33496C38.8739 8.31749 38.8739 8.31749 39.1487 8.33496C39.4485 6.69076 39.3667 4.86361 38.9454 3.25246C38.9096 3.0495 38.8751 2.84627 38.8438 2.64256C39.0192 2.55929 39.1951 2.47686 39.3711 2.39478C39.4689 2.34879 39.5668 2.3028 39.6677 2.25541C40.5763 1.88143 41.4554 1.94655 42.2998 2.43926Z" fill="#CECECE"/>
<path d="M10.4052 2.76505C12.6286 4.18791 14.2142 6.42047 15.5666 8.63812C15.6042 8.69962 15.6418 8.76113 15.6806 8.82449C17.2416 11.4101 19.5309 15.3384 19.5309 18.3965C19.3292 18.5426 19.3292 18.5426 19.048 18.7015C17.4238 19.6952 16.3603 21.2097 15.2732 22.7337C15.1677 22.8805 15.0623 23.0273 14.9567 23.1741C14.9011 23.2522 14.8454 23.3304 14.7881 23.411C14.7341 23.4854 14.68 23.5599 14.6244 23.6367C14.5759 23.704 14.5275 23.7714 14.4775 23.8409C14.4344 23.8892 14.3913 23.9375 14.3468 23.9873C14.2797 23.9873 14.2127 23.9873 14.1435 23.9873C12.8879 21.781 11.8118 19.5438 10.8908 17.1767C10.8623 17.1045 10.8337 17.0323 10.8043 16.9578C9.92483 14.7194 8.70086 11.2713 9.46218 8.83943C9.6614 8.46534 9.6614 8.46534 9.87433 8.33317C10.3014 8.35646 10.6187 8.43849 10.9925 8.63812C9.5729 6.71513 8.06953 4.73318 6.01172 3.45397C6.1533 2.91908 6.48448 2.63807 6.92655 2.33582C8.1185 1.6982 9.30756 2.13539 10.4052 2.76505Z" fill="#CECECE"/>
<path d="M39.1486 8.33327C39.5323 8.61041 39.6318 8.90438 39.7585 9.34977C40.2774 13.9937 37.3735 20.2462 34.8794 23.9874C34.8123 23.9874 34.7452 23.9874 34.6761 23.9874C34.5478 23.8404 34.5478 23.8404 34.4029 23.6336C34.3491 23.5577 34.2953 23.4819 34.2399 23.4038C34.1826 23.3217 34.1253 23.2397 34.0662 23.1551C33.9467 22.9868 33.8271 22.8186 33.7073 22.6504C33.618 22.5251 33.618 22.5251 33.527 22.3972C33.2893 22.0669 33.0444 21.7427 32.7956 21.4207C32.6808 21.2721 32.6808 21.2721 32.5637 21.1205C32.3593 20.8523 32.3593 20.8523 32.1933 20.6895C31.9347 20.4199 31.8307 20.2784 31.8252 19.8999C31.9632 19.4006 32.1285 18.9188 32.3128 18.4347C32.3527 18.3295 32.3926 18.2242 32.4337 18.1158C36.3157 8.06088 36.3157 8.06088 39.1486 8.33327Z" fill="#FCB4BA"/>
<path d="M10.2115 8.34031C11.548 8.68012 12.4278 10.0791 13.1275 11.1802C13.2352 11.349 13.2352 11.349 13.3451 11.5212C14.7769 13.8178 15.9153 16.2982 16.8631 18.8293C16.8984 18.9219 16.9338 19.0145 16.9702 19.1099C17.0014 19.196 17.0326 19.2822 17.0648 19.3709C17.0923 19.4458 17.1197 19.5206 17.1481 19.5978C17.2215 19.9584 17.1588 20.2207 16.9657 20.5317C16.9131 20.5967 16.8605 20.6616 16.8063 20.7285C16.7476 20.8022 16.6888 20.8759 16.6283 20.9518C16.5338 21.0679 16.5338 21.0679 16.4374 21.1863C16.3075 21.3493 16.1778 21.5125 16.0483 21.6759C15.984 21.7569 15.9198 21.8379 15.8535 21.9214C15.5051 22.3682 15.18 22.8312 14.8543 23.2948C14.7876 23.3894 14.721 23.484 14.6522 23.5815C14.5971 23.6614 14.5419 23.7413 14.4851 23.8237C14.4396 23.8779 14.3941 23.9322 14.3473 23.9881C14.2802 23.9881 14.2131 23.9881 14.144 23.9881C12.8883 21.7818 11.8123 19.5446 10.8913 17.1775C10.8627 17.1053 10.8342 17.033 10.8048 16.9586C9.9253 14.7201 8.70133 11.2721 9.46265 8.84023C9.6724 8.44634 9.74102 8.33144 10.2115 8.34031Z" fill="#FCB4BA"/>
<path d="M29.9943 43.2632C30.6233 43.3375 31.2606 43.3102 31.8933 43.3062C32.0355 43.3057 32.1778 43.3053 32.3201 43.3048C32.6649 43.3037 33.0097 43.302 33.3544 43.2999C33.1875 43.7542 32.9553 44.0586 32.6238 44.4053C32.573 44.4592 32.5221 44.5131 32.4697 44.5687C32.3689 44.6751 32.2679 44.7813 32.1665 44.8872C32.0603 44.9992 31.957 45.114 31.8547 45.2296C30.3941 46.8314 27.8571 47.8734 25.7157 47.9938C23.3956 48.036 21.5532 47.815 19.4287 46.8576C19.4287 46.8241 19.4287 46.7905 19.4287 46.756C19.5059 46.7576 19.583 46.7592 19.6626 46.7608C22.9483 46.8197 25.8293 46.328 28.3737 44.1131C28.6023 43.8645 28.8254 43.6169 29.0356 43.3527C29.3827 43.1407 29.6008 43.2066 29.9943 43.2632Z" fill="#CECECE"/>
<path d="M23.191 34.6611C23.4461 34.8315 23.6411 35.0434 23.8453 35.271C23.9003 35.3292 23.9553 35.3873 24.0119 35.4473C24.1465 35.5902 24.2789 35.7354 24.4107 35.8809C24.9113 35.6806 25.2053 35.2703 25.5563 34.8763C25.91 34.602 26.1078 34.6077 26.5453 34.6611C26.8506 34.8646 26.9331 34.9923 27.0218 35.3472C26.8993 35.9263 26.459 36.3187 26.0029 36.6777C25.6095 37.0045 25.3596 37.2491 25.2487 37.7588C25.2276 38.1616 25.2283 38.5595 25.243 38.9621C25.2492 39.235 25.2519 39.5075 25.2537 39.7805C25.2574 39.9003 25.2611 40.0201 25.2649 40.1435C25.2239 40.4551 25.2239 40.4551 25.0378 40.6974C24.8173 40.8617 24.8173 40.8617 24.5124 40.9126C24.1327 40.8493 24.0332 40.7581 23.8009 40.4551C23.7696 40.1532 23.7696 40.1532 23.7925 39.8019C23.7994 39.609 23.7994 39.609 23.8064 39.4121C23.8089 39.3447 23.8113 39.2773 23.8139 39.2079C23.8629 37.9686 23.8629 37.9686 23.3581 36.8724C23.0432 36.5419 22.6996 36.2553 22.3244 35.9955C22.1745 35.8809 22.1745 35.8809 22.0728 35.6776C22.0337 35.3175 22.0302 35.1325 22.2317 34.8263C22.5796 34.5943 22.7778 34.6086 23.191 34.6611Z" fill="#9C9C9C"/>
<path d="M40.6022 36.6864C40.973 36.6811 41.3437 36.6775 41.7145 36.6751C41.8592 36.6741 42.004 36.6729 42.1487 36.6714C42.3527 36.6696 42.5566 36.6694 42.7606 36.6692C42.9366 36.6686 42.9366 36.6686 43.1161 36.668C43.4126 36.6922 43.5784 36.7353 43.8255 36.896C44.0386 37.17 44.0283 37.312 44.0097 37.6647C43.9033 38.1148 43.9033 38.1148 43.6222 38.3191C43.3613 38.3585 43.3613 38.3585 43.0451 38.3601C42.8675 38.3621 42.8675 38.3621 42.6863 38.364C42.5583 38.3637 42.4303 38.3634 42.2984 38.3631C42.1669 38.3637 42.0354 38.3642 41.9 38.3648C41.6216 38.3657 41.3432 38.3654 41.0648 38.3644C40.7088 38.3632 40.3528 38.3653 39.9967 38.3683C39.6564 38.3706 39.3161 38.3699 38.9758 38.3695C38.8482 38.3706 38.7206 38.3718 38.5891 38.3729C38.4701 38.372 38.351 38.371 38.2284 38.3701C38.1239 38.37 38.0194 38.37 37.9117 38.37C37.5466 38.3051 37.3756 38.1741 37.1167 37.9125C37.0557 37.5324 37.0488 37.3117 37.2521 36.9801C37.6905 36.6798 38.147 36.7248 38.6669 36.7181C38.7811 36.7153 38.8953 36.7125 39.013 36.7096C39.5427 36.6983 40.0725 36.6942 40.6022 36.6864Z" fill="#CECECE"/>
<path d="M6.24392 36.6817C6.37662 36.6815 6.50932 36.6812 6.64604 36.681C6.79047 36.6814 6.9349 36.6819 7.07933 36.6825C7.15171 36.6827 7.2241 36.6829 7.29867 36.6832C7.81853 36.6851 8.33834 36.6896 8.85817 36.6952C9.05913 36.6971 9.05913 36.6971 9.26416 36.6991C9.62871 36.7037 9.99301 36.7115 10.3575 36.7206C10.5223 36.7227 10.5223 36.7227 10.6904 36.7249C11.4325 36.749 11.4325 36.749 11.7722 36.9862C11.9625 37.2915 11.9725 37.46 11.9076 37.8133C11.7396 38.0742 11.6639 38.1762 11.3994 38.3216C10.9509 38.3993 10.5063 38.3928 10.0521 38.3891C9.9207 38.3896 9.78927 38.3901 9.65385 38.3906C9.37623 38.3913 9.09868 38.3902 8.82107 38.3879C8.46565 38.385 8.11043 38.3866 7.75503 38.3897C7.41529 38.392 7.07561 38.3904 6.73587 38.3891C6.54464 38.3906 6.54464 38.3906 6.34954 38.3922C6.23115 38.3906 6.11275 38.389 5.99076 38.3874C5.88666 38.387 5.78256 38.3866 5.6753 38.3861C5.40215 38.3216 5.40215 38.3216 5.16167 38.0864C4.99556 37.8133 4.99556 37.8133 5.00191 37.4449C5.09292 37.1172 5.13289 36.9907 5.40215 36.7968C5.6876 36.6541 5.92471 36.682 6.24392 36.6817Z" fill="#CECECE"/>
<path d="M38.2271 32.6739C38.3458 32.6723 38.4645 32.6707 38.5869 32.6691C38.7141 32.6696 38.8414 32.6701 38.9726 32.6706C39.1697 32.6696 39.1697 32.6696 39.3708 32.6687C39.6485 32.6676 39.926 32.6681 40.2036 32.6696C40.559 32.6713 40.9143 32.6689 41.2697 32.6654C41.6094 32.6626 41.9491 32.6636 42.2888 32.6642C42.4163 32.6629 42.5438 32.6615 42.6752 32.6602C42.8527 32.6621 42.8527 32.6621 43.0339 32.664C43.138 32.6641 43.2421 32.6642 43.3494 32.6643C43.6226 32.7282 43.6226 32.7282 43.863 32.9633C44.0291 33.2364 44.0291 33.2364 44.0228 33.6049C43.9318 33.9326 43.8918 34.059 43.6226 34.2529C43.3555 34.3864 43.1572 34.3677 42.8582 34.3681C42.7409 34.3683 42.6235 34.3685 42.5026 34.3688C42.3753 34.3683 42.248 34.3678 42.1169 34.3673C41.9215 34.3665 41.9215 34.3665 41.7222 34.3658C41.376 34.3639 41.0298 34.3607 40.6835 34.3569C40.5424 34.3553 40.4013 34.3539 40.2602 34.3526C39.7863 34.3483 39.3126 34.3397 38.8388 34.3292C38.7132 34.3277 38.5876 34.3263 38.4582 34.3248C38.2832 34.3199 38.2832 34.3199 38.1046 34.3149C38.002 34.3127 37.8994 34.3106 37.7937 34.3084C37.4511 34.238 37.3284 34.1209 37.1171 33.8463C37.0599 33.4905 37.0599 33.4905 37.1171 33.1348C37.4766 32.7719 37.7216 32.677 38.2271 32.6739Z" fill="#CECECE"/>
<path d="M5.9795 32.6868C6.15711 32.6844 6.15711 32.6844 6.3383 32.6819C6.53032 32.6819 6.53032 32.6819 6.72622 32.6818C6.8577 32.681 6.98918 32.6803 7.12464 32.6795C7.40303 32.6781 7.68139 32.6779 7.95979 32.6785C8.31587 32.6791 8.67181 32.676 9.02787 32.6719C9.36819 32.6687 9.70849 32.6691 10.0488 32.6691C10.1764 32.6674 10.304 32.6658 10.4355 32.6641C11.4197 32.6719 11.4197 32.6719 11.7346 32.9679C11.9473 33.2991 11.9818 33.4614 11.9079 33.8476C11.6955 34.1191 11.5725 34.2396 11.2313 34.3097C11.1287 34.3118 11.0261 34.314 10.9204 34.3162C10.7453 34.3211 10.7453 34.3211 10.5668 34.3262C10.3784 34.3283 10.3784 34.3283 10.1862 34.3305C10.0569 34.3332 9.92757 34.336 9.79434 34.3389C9.4509 34.3456 9.10757 34.3502 8.7641 34.3536C8.55369 34.3559 8.34331 34.3589 8.13291 34.3622C7.72888 34.3683 7.32485 34.372 6.92078 34.3749C6.7952 34.3763 6.66961 34.3776 6.54022 34.379C6.42353 34.3791 6.30684 34.3792 6.18661 34.3793C6.08401 34.3797 5.9814 34.3801 5.87569 34.3806C5.59726 34.3551 5.4339 34.3011 5.19912 34.1526C4.98599 33.8785 4.99633 33.7365 5.01489 33.3838C5.15715 32.782 5.3798 32.6917 5.9795 32.6868Z" fill="#CECECE"/>
<path d="M19.6951 28.0547C20.1417 28.187 20.1417 28.187 20.3431 28.4613C20.3826 28.7227 20.3826 28.7227 20.3836 29.0327C20.384 29.1445 20.3844 29.2563 20.3848 29.3716C20.3837 29.4884 20.3825 29.6052 20.3813 29.7256C20.3824 29.842 20.3836 29.9584 20.3848 30.0784C20.3844 30.1903 20.384 30.3023 20.3836 30.4177C20.3833 30.52 20.383 30.6224 20.3826 30.7279C20.3369 31.0458 20.2676 31.1859 20.0382 31.4091C19.4821 31.4886 19.4821 31.4886 19.225 31.4091C18.9503 31.1842 18.8342 31.0003 18.7783 30.6482C18.7599 30.3417 18.758 30.0389 18.7613 29.7319C18.7588 29.627 18.7564 29.522 18.7539 29.4139C18.7549 28.9165 18.7574 28.648 19.0531 28.2358C19.3267 28.0547 19.3267 28.0547 19.6951 28.0547Z" fill="#9D9D9D"/>
<path d="M29.8986 28.1549C30.3391 28.6087 30.252 29.1281 30.248 29.7241C30.25 29.8295 30.252 29.935 30.2541 30.0436C30.2538 30.5088 30.2523 30.8135 30.0197 31.2235C29.7969 31.4077 29.7969 31.4077 29.4411 31.4649C29.0269 31.3983 28.9327 31.3257 28.6788 31.0011C28.5954 30.5815 28.6175 30.1574 28.6216 29.7305C28.6192 29.6145 28.6168 29.4985 28.6143 29.3791C28.6157 28.5358 28.6157 28.5358 28.9134 28.1771C29.2893 28.0069 29.5064 28.0387 29.8986 28.1549Z" fill="#9D9D9D"/>
</svg>
