<svg width="50" height="50" viewBox="0 0 50 50" fill="none" xmlns="http://www.w3.org/2000/svg">
<path d="M25.4026 4C25.4669 4 25.5312 4 25.5974 4C25.6254 4.05904 25.6535 4.11809 25.6824 4.17892C26.6183 6.14378 27.59 8.09019 28.5678 10.0345C28.8278 10.552 29.0866 11.0701 29.3441 11.5889C29.4427 11.7873 29.5415 11.9855 29.6406 12.1835C30.1308 13.1653 30.5774 14.1272 30.9108 15.1735C31.2655 16.2332 31.7184 17.5481 32.7264 18.1543C33.8541 18.6439 35.1861 18.6234 36.3942 18.6958C38.2971 18.8162 40.1797 19.1334 42.0637 19.4166C42.871 19.5379 43.6788 19.6549 44.487 19.7699C44.8125 19.8166 45.1381 19.8634 45.4636 19.9102C45.6713 19.9399 45.8791 19.9695 46.0868 19.9987C46.3732 20.0392 46.6594 20.0806 46.9456 20.1224C47.0305 20.1341 47.1153 20.1458 47.2027 20.1579C47.783 20.244 47.783 20.244 48 20.461C47.6955 20.7679 47.3908 21.0745 47.0857 21.3807C46.9822 21.4846 46.8789 21.5886 46.7757 21.6927C46.626 21.8436 46.476 21.9942 46.3259 22.1447C46.2361 22.2349 46.1463 22.3252 46.0538 22.4182C45.8366 22.6318 45.611 22.8326 45.3804 23.0317C44.9859 23.3738 44.6167 23.736 44.25 24.1075C44.1507 24.2074 44.1507 24.2074 44.0493 24.3094C43.84 24.5199 43.631 24.7307 43.4221 24.9416C43.1464 25.2199 42.8704 25.4978 42.5942 25.7756C42.5324 25.8381 42.4707 25.9006 42.4071 25.965C42.0432 26.331 41.6668 26.6746 41.2762 27.0119C40.9626 27.2897 40.6694 27.5868 40.3752 27.8849C40.3111 27.9494 40.2471 28.0138 40.1811 28.0802C39.9787 28.2838 39.7766 28.4876 39.5747 28.6916C39.3081 28.9607 39.0412 29.2295 38.7741 29.4982C38.6848 29.5888 38.6848 29.5888 38.5936 29.6812C38.1063 30.1712 37.6081 30.663 37.0361 31.0536C36.6222 31.7014 37.1021 33.0352 37.2296 33.7561C37.2538 33.8948 37.278 34.0334 37.3021 34.1721C37.3538 34.4685 37.4057 34.7648 37.4577 35.0611C37.5401 35.5297 37.6217 35.9984 37.7032 36.4671C37.9349 37.7992 38.1676 39.1311 38.4009 40.4628C38.53 41.2001 38.6586 41.9374 38.7866 42.6748C38.8675 43.1408 38.9491 43.6067 39.0313 44.0725C39.0821 44.3617 39.1323 44.651 39.1823 44.9403C39.2056 45.0745 39.2292 45.2086 39.2531 45.3427C39.2856 45.5256 39.3171 45.7086 39.3485 45.8917C39.3664 45.9941 39.3843 46.0965 39.4028 46.202C39.4273 46.4546 39.4117 46.6189 39.3312 46.8571C36.2212 45.2673 36.2212 45.2673 35.0698 44.6291C34.1148 44.1002 33.1442 43.6035 32.1721 43.1071C31.1879 42.6046 30.2055 42.101 29.2378 41.567C28.9924 41.4323 28.747 41.2978 28.5015 41.1633C28.2985 41.052 28.0957 40.9405 27.8929 40.8288C27.5938 40.6644 27.2934 40.5023 26.9924 40.3414C26.819 40.2481 26.6468 40.1528 26.4745 40.0575C26.3689 40.0014 26.2633 39.9453 26.1544 39.8875C26.0142 39.8115 26.0142 39.8115 25.8712 39.7339C25.4387 39.6004 25.1636 39.7734 24.7704 39.9581C24.6913 39.9999 24.6123 40.0416 24.5309 40.0846C24.3965 40.1552 24.3965 40.1552 24.2594 40.2272C24.1645 40.2776 24.0697 40.328 23.972 40.3799C23.8722 40.4324 23.7724 40.485 23.6696 40.5392C23.4659 40.6465 23.2623 40.754 23.0588 40.8617C22.8096 40.9935 22.5599 41.1247 22.3101 41.2554C21.6404 41.6059 20.9725 41.9594 20.3068 42.3176C20.0817 42.4388 19.8566 42.5599 19.6315 42.681C19.5744 42.7117 19.5173 42.7424 19.4585 42.7741C18.4634 43.3089 17.4611 43.8289 16.4559 44.3443C15.5451 44.8115 14.644 45.2932 13.7481 45.7885C13.0372 46.179 12.3132 46.529 11.5714 46.8571C11.6456 46.0925 11.772 45.3399 11.9034 44.5833C11.9274 44.4439 11.9515 44.3044 11.9754 44.165C12.0268 43.8663 12.0784 43.5677 12.1301 43.2691C12.2118 42.7968 12.2931 42.3244 12.3744 41.852C12.5907 40.5942 12.8077 39.3366 13.0249 38.0789C13.1678 37.2513 13.3105 36.4236 13.4527 35.5958C13.5335 35.1262 13.6145 34.6568 13.6959 34.1874C13.7464 33.8956 13.7965 33.6038 13.8466 33.3119C13.8698 33.1767 13.8932 33.0415 13.9168 32.9063C13.9489 32.7217 13.9805 32.537 14.0121 32.3523C14.0299 32.249 14.0478 32.1457 14.0661 32.0393C14.1017 31.7763 14.1246 31.5373 14.1039 31.2727C13.919 31.0249 13.919 31.0249 13.6656 30.7979C13.5842 30.7198 13.5029 30.6417 13.419 30.5612C13.2055 30.3645 12.9865 30.1748 12.7665 29.9853C12.3752 29.6432 12.0064 29.2837 11.6414 28.9138C11.5774 28.8493 11.5133 28.7849 11.4473 28.7185C11.1769 28.4465 10.9071 28.174 10.6372 27.9014C10.4385 27.7009 10.2394 27.5007 10.0404 27.3005C9.9808 27.2401 9.92122 27.1797 9.85983 27.1175C9.56316 26.8192 9.26136 26.5329 8.94289 26.2578C8.55095 25.9192 8.18517 25.5597 7.82143 25.1912C7.7552 25.1246 7.68896 25.058 7.62073 24.9893C7.34101 24.708 7.06189 24.4262 6.78272 24.1444C6.57721 23.9371 6.37141 23.7301 6.16558 23.5231C6.07302 23.4294 6.07302 23.4294 5.97858 23.3337C5.60921 22.9623 5.22748 22.6122 4.83105 22.27C4.61812 22.0839 4.41667 21.8888 4.21753 21.6881C4.14534 21.6156 4.07314 21.5431 3.99876 21.4684C3.92631 21.3951 3.85386 21.3218 3.77922 21.2463C3.66603 21.1325 3.66603 21.1325 3.55055 21.0163C3.36681 20.8315 3.1833 20.6464 3 20.461C3.25586 20.2052 3.42021 20.2131 3.77702 20.1621C3.96322 20.1349 3.96322 20.1349 4.15319 20.1071C4.29155 20.0877 4.4299 20.0683 4.56826 20.049C4.71337 20.028 4.85847 20.0071 5.00356 19.986C5.39831 19.9289 5.7932 19.8729 6.18812 19.817C6.6011 19.7584 7.01395 19.6988 7.42682 19.6393C8.20954 19.5267 8.99239 19.4148 9.77527 19.3033C10.9237 19.1397 12.0719 18.9749 13.2201 18.8101C13.3895 18.7857 13.5589 18.7614 13.7283 18.7371C13.8111 18.7252 13.8938 18.7134 13.979 18.7011C14.4708 18.6305 14.9627 18.5602 15.4546 18.4901C15.7608 18.4464 16.067 18.4026 16.3732 18.3588C16.5151 18.3386 16.6571 18.3183 16.799 18.2982C16.9929 18.2706 17.1868 18.2429 17.3807 18.2151C17.4892 18.1997 17.5976 18.1842 17.7094 18.1683C17.8532 18.1461 17.8532 18.1461 18 18.1234C18.0896 18.1102 18.1793 18.0971 18.2716 18.0835C18.5116 18.0436 18.5116 18.0436 18.6567 17.7927C18.7333 17.637 18.7333 17.637 18.8114 17.4782C18.8402 17.421 18.8689 17.3638 18.8985 17.3048C18.9936 17.1145 19.0862 16.9231 19.1787 16.7316C19.2452 16.5973 19.3118 16.463 19.3786 16.3288C19.5549 15.9733 19.7291 15.6169 19.9029 15.2601C20.0758 14.9062 20.2508 14.5533 20.4256 14.2003C21.0534 12.9302 21.6711 11.6555 22.2792 10.3759C22.852 9.17526 23.4535 7.98873 24.0511 6.80032C24.2307 6.44328 24.4101 6.0862 24.5893 5.72897C24.6996 5.50915 24.81 5.28942 24.9207 5.06978C24.9699 4.97173 25.019 4.87368 25.0697 4.77266C25.1346 4.64361 25.1346 4.64361 25.2009 4.51195C25.3144 4.2843 25.3144 4.2843 25.4026 4Z" fill="#7D0E0E"/>
<path d="M25.5977 25.9141C26.0353 26.3517 26.0353 26.3517 26.2186 26.6636C26.2596 26.7324 26.3007 26.8012 26.343 26.8721C26.3863 26.9457 26.4296 27.0192 26.4743 27.0951C26.8455 27.7141 27.2278 28.3226 27.6309 28.9214C28.0439 29.5351 28.4521 30.1514 28.8546 30.772C28.9071 30.8531 28.9597 30.9342 29.0139 31.0178C29.1206 31.1823 29.2273 31.347 29.3339 31.5116C29.5978 31.9187 29.8624 32.3255 30.1269 32.7322C30.2324 32.8946 30.3379 33.0569 30.4434 33.2193C30.4957 33.2996 30.5479 33.38 30.6017 33.4628C34.8753 40.0374 34.8753 40.0374 35.0334 40.2808C35.1393 40.4436 35.2451 40.6064 35.3509 40.7692C35.61 41.1677 35.869 41.5663 36.1278 41.9649C36.9979 43.3049 37.8721 44.6422 38.747 45.979C38.6827 46.0111 38.6184 46.0433 38.5522 46.0764C38.3048 45.9719 38.3048 45.9719 37.9906 45.8074C37.9341 45.778 37.8776 45.7487 37.8193 45.7185C37.633 45.6214 37.4473 45.5232 37.2616 45.425C37.1315 45.3569 37.0013 45.2888 36.8711 45.2208C36.0609 44.7964 35.2573 44.3606 34.4568 43.9183C33.5748 43.4343 32.6786 42.9787 31.7827 42.5212C30.7905 42.0145 29.8001 41.5065 28.8241 40.9689C27.7572 40.3827 26.6769 39.8213 25.5977 39.2582C25.5977 34.8546 25.5977 30.4511 25.5977 25.9141Z" fill="#FD1B1B"/>
<path d="M3.87695 20.7539C4.60723 20.8148 5.29183 20.9707 6.00155 21.1496C6.25514 21.2121 6.50876 21.2745 6.76251 21.3364C6.82865 21.3526 6.8948 21.3687 6.96295 21.3854C7.72777 21.5711 8.49595 21.7413 9.26453 21.9106C9.41207 21.9431 9.55961 21.9756 9.70715 22.0082C9.93363 22.0581 10.1601 22.1081 10.3866 22.1579C11.2693 22.3526 12.151 22.5517 13.0328 22.7507C14.3574 23.0493 15.6826 23.3455 17.0083 23.6394C18.1257 23.8872 19.2423 24.1382 20.3586 24.391C21.9091 24.7417 23.4613 25.0853 25.0133 25.4292C25.0133 25.4935 25.0133 25.5578 25.0133 25.624C24.8752 25.6945 24.8752 25.6945 24.7344 25.7664C22.6092 26.847 22.6092 26.847 20.5084 27.9739C19.5299 28.5151 18.5378 29.0285 17.5422 29.5376C16.975 29.8279 16.4095 30.1195 15.8514 30.4272C15.7227 30.4976 15.7227 30.4976 15.5914 30.5695C15.4368 30.6545 15.283 30.7409 15.1299 30.8287C14.928 30.9393 14.928 30.9393 14.5912 31.0786C14.2039 30.9558 13.9274 30.6535 13.6374 30.3804C13.5825 30.3292 13.5276 30.278 13.471 30.2252C12.7788 29.5747 12.112 28.8985 11.4439 28.2235C11.1909 27.9679 10.9376 27.7126 10.6841 27.4576C10.6282 27.4008 10.5723 27.3441 10.5146 27.2857C10.2275 26.9968 9.93437 26.7207 9.62611 26.4544C9.2415 26.1218 8.88186 25.7697 8.52488 25.4079C8.46081 25.3435 8.39674 25.279 8.33073 25.2127C8.06033 24.9407 7.79052 24.6681 7.52066 24.3956C7.32192 24.1951 7.12288 23.9949 6.92383 23.7947C6.86425 23.7343 6.80467 23.6739 6.74328 23.6117C6.37872 23.2451 6.00128 22.9 5.61005 22.5621C5.40542 22.3836 5.21054 22.1975 5.01839 22.0057C4.91669 21.9042 4.91669 21.9042 4.81293 21.8006C4.74513 21.7324 4.67733 21.6642 4.60747 21.594C4.53666 21.5236 4.46584 21.4531 4.39288 21.3806C4.29269 21.2802 4.29269 21.2802 4.19047 21.1778C4.13014 21.1173 4.06981 21.0569 4.00765 20.9946C3.87695 20.8513 3.87695 20.8513 3.87695 20.7539Z" fill="#FE1B1B"/>
<path d="M47.1229 20.852C45.6718 22.3215 45.6718 22.3215 45.0725 22.8259C44.8212 23.0495 44.5882 23.2903 44.3531 23.5305C43.9793 23.9109 43.5931 24.2477 43.1656 24.5662C42.8846 24.7875 42.6238 25.0279 42.3624 25.2716C41.825 25.771 41.2669 26.2372 40.6944 26.6961C40.5842 26.7871 40.4741 26.8781 40.3641 26.9693C39.7008 27.5151 39.0215 28.0253 38.308 28.5042C38.2358 28.5529 38.1636 28.6017 38.0892 28.6519C37.3013 29.1716 36.6511 29.46 35.7026 29.2858C35.4685 29.2294 35.239 29.1642 35.0085 29.0947C34.921 29.0689 34.8336 29.0431 34.7435 29.0165C31.8412 28.1368 28.8003 26.9828 26.084 25.6247C26.084 25.5604 26.084 25.4961 26.084 25.4299C28.113 24.9649 30.142 24.5008 32.1777 24.0663C33.6796 23.7455 35.1753 23.4007 36.6706 23.0506C37.8132 22.7831 38.9571 22.5228 40.1031 22.2704C40.9066 22.0934 41.7092 21.9126 42.5119 21.7319C42.7672 21.6745 43.0226 21.6172 43.278 21.5599C43.987 21.4006 44.6959 21.2407 45.4032 21.0738C45.5038 21.0502 45.6045 21.0266 45.7082 21.0023C45.8861 20.9604 46.0638 20.9179 46.2413 20.8746C46.7983 20.7438 46.7983 20.7438 47.1229 20.852Z" fill="#C61414"/>
<path d="M25.2075 26.1094C25.2396 26.1094 25.2718 26.1094 25.3049 26.1094C25.3319 27.236 25.2534 28.3581 25.1831 29.4819C25.1767 29.5851 25.1703 29.6882 25.1638 29.7944C25.0558 31.5125 24.8978 33.2169 24.6687 34.9229C24.6258 35.2444 24.586 35.5661 24.547 35.8881C24.272 38.084 24.272 38.084 23.4542 38.7717C23.406 38.8177 23.3578 38.8636 23.3081 38.911C21.0049 41.06 17.9439 42.7135 15.256 44.3366C15.1751 44.3856 15.0941 44.4345 15.0106 44.485C14.8554 44.5785 14.6998 44.6717 14.544 44.7643C14.4748 44.8059 14.4055 44.8476 14.3341 44.8906C14.273 44.927 14.2118 44.9634 14.1488 45.001C13.9897 45.0979 13.9897 45.0979 13.9088 45.2977C13.7472 45.3645 13.5847 45.4291 13.4218 45.4925C13.1649 45.6446 12.9141 45.8045 12.6627 45.9654C12.5918 46.0022 12.5208 46.039 12.4477 46.0769C12.3834 46.0448 12.3192 46.0126 12.2529 45.9795C12.3226 45.8755 12.3923 45.7716 12.4641 45.6645C13.1607 44.6234 13.8472 43.5762 14.5281 42.5249C14.792 42.1177 15.0566 41.711 15.3211 41.3042C15.4266 41.1418 15.5322 40.9795 15.6377 40.8172C17.9591 37.2457 20.2805 33.6743 22.602 30.1029C22.6804 29.9822 22.6804 29.9822 22.7604 29.859C22.8653 29.6978 22.9701 29.5366 23.0749 29.3754C23.3497 28.9526 23.6244 28.5298 23.899 28.1069C23.956 28.0191 24.013 27.9314 24.0717 27.8409C24.1805 27.6735 24.2892 27.5061 24.3978 27.3387C24.4943 27.1901 24.591 27.0416 24.6878 26.8933C24.7712 26.7653 24.8543 26.6372 24.9369 26.5088C25.0246 26.374 25.1156 26.2414 25.2075 26.1094Z" fill="#C61414"/>
<path d="M25.0134 25.9141C24.8805 26.279 24.7138 26.5806 24.4963 26.9018C24.4 27.0449 24.4 27.0449 24.3018 27.1909C24.199 27.3423 24.199 27.3423 24.0942 27.4969C23.9515 27.7089 23.809 27.9209 23.6665 28.133C23.5967 28.2367 23.527 28.3404 23.4551 28.4473C23.2017 28.8261 22.9528 29.2077 22.7062 29.591C22.6643 29.656 22.6224 29.7211 22.5793 29.7881C22.4939 29.9207 22.4085 30.0534 22.3232 30.186C22.0725 30.5749 21.82 30.9625 21.5678 31.3503C21.4605 31.5153 21.3532 31.6803 21.2459 31.8453C21.1924 31.9275 21.139 32.0097 21.0839 32.0944C20.819 32.5018 20.5542 32.9092 20.2894 33.3167C20.1838 33.479 20.0783 33.6413 19.9728 33.8037C19.9206 33.884 19.8683 33.9644 19.8145 34.0472C15.541 40.6219 15.541 40.6219 15.3827 40.8654C15.2773 41.0275 15.1719 41.1896 15.0666 41.3517C14.8004 41.7612 14.5342 42.1707 14.2679 42.5802C14.2146 42.6622 14.1612 42.7442 14.1063 42.8287C14.0005 42.9914 13.8947 43.1541 13.7888 43.3167C13.5281 43.7174 13.2685 44.1187 13.0108 44.5214C12.9363 44.6375 12.9363 44.6375 12.8604 44.7559C12.7662 44.9028 12.6723 45.0499 12.5787 45.1972C12.4729 45.3621 12.3637 45.5247 12.2537 45.6868C12.2215 45.6868 12.1894 45.6868 12.1562 45.6868C12.2071 44.5503 12.4051 43.445 12.6006 42.3264C12.6357 42.1234 12.6707 41.9204 12.7056 41.7174C12.8787 40.7149 13.0554 39.713 13.2338 38.7115C13.2498 38.6207 13.2659 38.5299 13.2825 38.4363C13.3628 37.9836 13.4451 37.5314 13.5315 37.0797C13.7043 36.1627 13.8367 35.2611 13.9065 34.3303C14.131 31.6702 14.131 31.6702 14.7846 31.06C15.4787 30.5183 16.3154 30.2276 17.1398 29.9457C17.6553 29.766 18.115 29.5008 18.5848 29.2258C19.4995 28.7172 20.4295 28.2394 21.3609 27.7623C22.3138 27.2739 23.2584 26.7732 24.1931 26.2504C24.2736 26.2057 24.354 26.161 24.437 26.115C24.5413 26.0564 24.5413 26.0564 24.6477 25.9966C24.8186 25.9141 24.8186 25.9141 25.0134 25.9141Z" fill="#FE1B1B"/>
<path d="M25.3053 5.07031C25.3374 5.07031 25.3696 5.07031 25.4027 5.07031C25.4027 11.6596 25.4027 18.2489 25.4027 25.0378C25.0492 24.8611 24.9427 24.7891 24.7087 24.5021C24.2859 24.0028 23.8231 23.5487 23.3572 23.0898C22.8458 22.5861 22.3471 22.0816 21.8798 21.5367C21.5147 21.1271 21.1181 20.7474 20.7273 20.3625C20.0356 19.6811 19.3569 19.0024 18.7793 18.2197C18.8297 18.1193 18.8802 18.0189 18.9322 17.9154C19.1254 17.5309 19.3183 17.1461 19.5111 16.7614C19.5935 16.5971 19.6759 16.4329 19.7584 16.2687C20.2301 15.3301 20.694 14.3885 21.1447 13.4397C21.7539 12.1584 22.391 10.8913 23.0285 9.62388C23.2552 9.17301 23.4818 8.72204 23.708 8.2709C23.7619 8.16351 23.8157 8.05613 23.8712 7.94548C24.2426 7.20234 24.6038 6.45499 24.954 5.70162C25.1985 5.17713 25.1985 5.17713 25.3053 5.07031Z" fill="#FE1B1B"/>
<path d="M25.9873 25.9141C26.3865 26.0513 26.7135 26.254 27.0622 26.4867C27.2475 26.6048 27.2475 26.6048 27.4541 26.6412C27.6431 26.6933 27.6431 26.6933 27.7674 26.8216C27.9828 27.0317 28.2163 27.1674 28.4749 27.3215C28.5845 27.3872 28.6941 27.453 28.8071 27.5207C28.8654 27.5555 28.9237 27.5902 28.9837 27.6261C29.2936 27.811 29.6024 27.9976 29.9112 28.1844C29.9742 28.2225 30.0373 28.2607 30.1022 28.2999C31.4684 29.1283 32.8109 29.9962 34.1326 30.8938C34.2058 30.9433 34.279 30.9928 34.3544 31.0438C34.5548 31.1814 34.7518 31.323 34.9483 31.466C35.0093 31.507 35.0703 31.5481 35.1332 31.5903C36.1265 32.3248 36.3027 33.831 36.5859 34.9664C36.6067 35.0485 36.6275 35.1307 36.6489 35.2153C37.0852 36.9394 37.4633 38.6746 37.8271 40.4152C37.9229 40.8722 38.0203 41.3287 38.1178 41.7853C38.1658 42.0102 38.2136 42.2352 38.2611 42.4602C38.3682 42.9646 38.4825 43.4655 38.6101 43.9651C38.7165 44.3845 38.8022 44.7959 38.8627 45.2241C38.8782 45.3311 38.8936 45.4381 38.9095 45.5483C38.9202 45.6261 38.9309 45.704 38.9418 45.7842C38.6074 45.479 38.3808 45.1407 38.1505 44.7554C37.6874 43.9971 37.1966 43.2587 36.7016 42.5212C36.1976 41.7695 35.6981 41.0165 35.2239 40.2455C34.8408 39.6251 34.441 39.0157 34.0413 38.4059C34.0054 38.3512 33.9695 38.2965 33.9326 38.2401C33.7539 37.9676 33.5751 37.695 33.3963 37.4225C33.109 36.984 32.8231 36.5445 32.5376 36.1048C32.4869 36.0267 32.4362 35.9487 32.384 35.8682C32.2829 35.7126 32.1819 35.557 32.0809 35.4014C31.8193 34.9986 31.5575 34.5959 31.2957 34.1933C31.1902 34.0309 31.0847 33.8686 30.9792 33.7063C30.927 33.6259 30.8747 33.5456 30.8209 33.4628C30.6626 33.2193 30.5044 32.9758 30.3461 32.7322C30.2938 32.6519 30.2416 32.5715 30.1877 32.4887C30.0824 32.3266 29.977 32.1645 29.8717 32.0024C29.6055 31.5929 29.3393 31.1834 29.073 30.7739C28.5321 29.9421 27.9914 29.1102 27.4529 28.2768C27.2207 27.9173 26.9878 27.5582 26.754 27.1997C26.7041 27.1231 26.6543 27.0466 26.603 26.9677C26.5067 26.8198 26.4103 26.6721 26.3137 26.5245C25.9873 26.0224 25.9873 26.0224 25.9873 25.9141Z" fill="#C61414"/>
<path d="M18.8452 18.643C18.8978 18.6981 18.9504 18.7532 19.0046 18.81C19.0564 18.8634 19.1083 18.9168 19.1617 18.9717C19.2774 19.0987 19.3921 19.2267 19.5039 19.3571C19.9826 19.9149 20.4961 20.4311 21.0196 20.9468C21.9575 21.8707 21.9575 21.8707 22.333 22.3093C22.8317 22.8912 23.3907 23.4159 23.9386 23.9509C24.0225 24.0337 24.1064 24.1165 24.1928 24.2018C24.2685 24.2759 24.3443 24.35 24.4223 24.4264C24.6246 24.6493 24.7704 24.8723 24.9157 25.1351C24.129 25.09 23.3766 24.9229 22.612 24.742C22.312 24.671 22.0116 24.6014 21.7113 24.5317C21.554 24.4952 21.3968 24.4587 21.2395 24.4221C20.4227 24.2321 19.6042 24.05 18.7854 23.8689C18.6399 23.8366 18.4944 23.8043 18.3489 23.7721C17.6796 23.6237 17.0102 23.4757 16.3407 23.3282C15.9624 23.2448 15.5841 23.1612 15.2059 23.0775C15.1318 23.0611 15.0577 23.0447 14.9814 23.0278C14.0881 22.8299 13.197 22.6253 12.3082 22.4078C11.3154 22.1651 10.3183 21.9465 9.31911 21.7321C6.97306 21.228 6.97306 21.228 5.96319 21.0032C5.83136 20.9739 5.69947 20.9449 5.56753 20.9161C5.38606 20.8764 5.20477 20.8359 5.0235 20.7954C4.92147 20.7728 4.81944 20.7502 4.71431 20.7269C4.46115 20.6546 4.46115 20.6546 4.16895 20.4598C6.00354 20.1905 7.83826 19.9221 9.67314 19.6547C10.5251 19.5305 11.377 19.406 12.2288 19.2809C12.9711 19.1719 13.7135 19.0633 14.456 18.9555C14.8492 18.8983 15.2424 18.8409 15.6355 18.7828C16.0054 18.7282 16.3754 18.6743 16.7455 18.621C16.8814 18.6012 17.0173 18.5812 17.1531 18.561C17.3384 18.5334 17.5238 18.5068 17.7093 18.4803C17.8131 18.4651 17.9169 18.4499 18.0238 18.4343C18.362 18.4092 18.579 18.429 18.8452 18.643Z" fill="#FE1B1B"/>
<path d="M33.5346 18.5209C33.6827 18.543 33.6827 18.543 33.8338 18.5656C34.0396 18.5965 34.2453 18.6282 34.4508 18.6608C34.8196 18.7189 35.189 18.7712 35.5587 18.8233C36.0131 18.8876 36.4671 18.9548 36.9212 19.0215C37.1211 19.0508 37.321 19.08 37.5209 19.1092C38.0414 19.1853 38.5618 19.2615 39.0823 19.3379C39.9112 19.4594 40.7402 19.5806 41.5692 19.7019C41.7692 19.7311 41.9691 19.7604 42.1691 19.7897C43.7225 20.017 45.2763 20.2418 46.8307 20.4616C46.5001 20.6821 46.2474 20.7382 45.8601 20.8254C45.7923 20.8408 45.7245 20.8562 45.6546 20.8721C45.4319 20.9226 45.2091 20.9722 44.9862 21.0217C44.8306 21.0567 44.6751 21.0918 44.5196 21.1269C43.4843 21.3598 42.4471 21.5842 41.4091 21.8045C39.7598 22.1552 38.1161 22.5311 36.4737 22.9127C36.1558 22.9865 35.8378 23.0603 35.5199 23.1341C35.4001 23.1619 35.4001 23.1619 35.278 23.1902C33.9596 23.4958 32.6384 23.7862 31.315 24.0687C30.5464 24.2332 29.7793 24.4022 29.0137 24.5796C28.9349 24.5978 28.8561 24.616 28.7749 24.6348C28.3973 24.7222 28.0198 24.8104 27.6425 24.8996C27.5075 24.931 27.3726 24.9625 27.2376 24.9939C27.0616 25.0354 27.0616 25.0354 26.882 25.0778C26.6058 25.1303 26.3639 25.1494 26.084 25.137C26.2221 24.9752 26.3604 24.8136 26.4991 24.6524C26.6014 24.5332 26.7032 24.4134 26.804 24.2929C27.4376 23.5472 28.1473 22.873 28.8425 22.1856C29.5436 21.4917 30.236 20.8031 30.8504 20.0295C31.0575 19.772 31.2727 19.5235 31.4898 19.2745C31.5562 19.1873 31.6227 19.1001 31.6911 19.0103C32.2731 18.3669 32.7359 18.3871 33.5346 18.5209Z" fill="#FE1B1B"/>
<path d="M25.5977 5.07031C25.902 5.37466 26.0552 5.66672 26.2308 6.05043C26.2595 6.11063 26.2883 6.17084 26.3179 6.23287C26.4781 6.5783 26.6047 6.92003 26.7094 7.28622C26.8759 7.86304 27.1064 8.40744 27.3387 8.96033C30.5326 16.6868 30.5326 16.6868 29.7365 18.7702C29.0166 20.3853 28.0657 21.8352 27.0587 23.2846C26.9643 23.4206 26.9643 23.4206 26.868 23.5593C26.6933 23.8095 26.5173 24.0587 26.3404 24.3073C26.2876 24.3819 26.2349 24.4565 26.1806 24.5334C26.0563 24.7053 25.9251 24.8722 25.7925 25.0378C25.7282 25.0378 25.6639 25.0378 25.5977 25.0378C25.5977 18.4486 25.5977 11.8593 25.5977 5.07031Z" fill="#C51414"/>
<path d="M26.5715 7.01953C26.8027 7.30989 26.9735 7.60459 27.1392 7.93641C27.1923 8.04226 27.2453 8.1481 27.3 8.25715C27.3854 8.42895 27.3854 8.42895 27.4725 8.60423C27.5328 8.72498 27.5931 8.84571 27.6535 8.96643C27.7805 9.22055 27.9072 9.47479 28.0337 9.72914C28.1924 10.048 28.3515 10.3666 28.5108 10.6852C29.1504 11.9645 29.7822 13.2468 30.3954 14.539C30.652 15.0783 30.9162 15.6127 31.1909 16.143C31.2391 16.2365 31.2391 16.2365 31.2882 16.3319C31.4147 16.5771 31.5413 16.8221 31.6702 17.0661C31.7675 17.2508 31.8629 17.4364 31.9579 17.6223C32.0134 17.7285 32.0688 17.8346 32.1259 17.9439C32.2209 18.2208 32.2209 18.2208 32.1742 18.4178C31.9631 18.6924 31.7245 18.9338 31.477 19.1751C31.4227 19.2289 31.3684 19.2827 31.3124 19.3381C31.1388 19.51 30.9646 19.6812 30.7903 19.8523C30.5623 20.0767 30.3346 20.3014 30.1073 20.5265C30.0246 20.6084 30.0246 20.6084 29.9403 20.6919C29.6079 21.0231 29.2944 21.3637 28.9906 21.7214C28.5686 22.1951 28.1065 22.6333 27.6551 23.0788C27.4522 23.2791 27.2495 23.4798 27.0471 23.6807C26.9581 23.7686 26.8691 23.8565 26.7774 23.947C26.5686 24.1442 26.5686 24.1442 26.4741 24.3572C26.4098 24.3251 26.3455 24.2929 26.2793 24.2598C26.314 24.2115 26.3487 24.1632 26.3844 24.1134C29.041 20.6663 29.041 20.6663 29.8832 16.565C29.7736 15.9343 29.5877 15.3242 29.3962 14.7143C29.369 14.6276 29.3418 14.5409 29.3138 14.4516C28.7095 12.5637 27.958 10.7273 27.2236 8.8873C27.1757 8.76721 27.1757 8.76721 27.1269 8.64469C26.9883 8.29873 26.8473 7.95528 26.6951 7.61505C26.5715 7.31174 26.5715 7.31174 26.5715 7.01953Z" fill="#9F1010"/>
<path d="M25.2079 27.2773C25.24 27.2773 25.2722 27.2773 25.3053 27.2773C25.3053 31.2309 25.3053 35.1845 25.3053 39.2579C23.7736 40.1331 23.7736 40.1331 23.2233 40.413C23.1013 40.4754 22.9794 40.5378 22.8574 40.6001C22.796 40.6314 22.7345 40.6627 22.6712 40.6949C21.7321 41.1731 20.7972 41.6572 19.8751 42.1678C18.7908 42.7674 17.688 43.3304 16.5846 43.8938C16.4796 43.9474 16.4796 43.9474 16.3726 44.0021C16.235 44.0725 16.0974 44.1427 15.9597 44.2128C15.6346 44.3791 15.3118 44.5483 14.9925 44.7255C14.9045 44.7741 14.9045 44.7741 14.8147 44.8237C14.6567 44.9116 14.4993 45.0005 14.342 45.0895C14.2635 45.1258 14.1849 45.1621 14.104 45.1994C14.0397 45.1673 13.9754 45.1351 13.9092 45.102C14.0972 44.9833 14.2851 44.8646 14.4731 44.7459C14.6392 44.6409 14.8053 44.536 14.9714 44.4311C15.393 44.1648 15.8146 43.8986 16.2366 43.633C19.9143 41.3673 19.9143 41.3673 23.3572 38.7708C23.4496 38.6945 23.5421 38.6182 23.6373 38.5395C24.2841 37.7405 24.3575 36.6873 24.4834 35.7027C24.5042 35.547 24.5249 35.3914 24.5456 35.2357C24.8911 32.5934 25.0626 29.9371 25.2079 27.2773Z" fill="#9F1111"/>
<path d="M24.6236 26.3047C24.72 26.3529 24.72 26.3529 24.8184 26.4021C24.7768 26.4642 24.7352 26.5264 24.6923 26.5904C23.8939 27.7838 23.0998 28.9794 22.323 30.187C22.0723 30.5759 21.8198 30.9636 21.5676 31.3514C21.4603 31.5164 21.353 31.6814 21.2457 31.8464C21.1922 31.9286 21.1388 32.0107 21.0837 32.0954C20.8188 32.5028 20.554 32.9102 20.2892 33.3177C20.1836 33.48 20.0781 33.6424 19.9726 33.8047C19.9204 33.885 19.8681 33.9654 19.8143 34.0482C18.3898 36.2398 16.9653 38.4313 15.5408 40.6229C15.4885 40.7033 15.4362 40.7837 15.3824 40.8666C15.2773 41.0283 15.1721 41.19 15.067 41.3517C14.7969 41.7671 14.527 42.1826 14.2574 42.5983C13.6922 43.4695 13.1253 44.3392 12.5456 45.2008C12.5135 45.1365 12.4814 45.0722 12.4482 45.006C12.5462 44.7798 12.6504 44.5663 12.7648 44.3485C12.838 44.2061 12.9112 44.0637 12.9843 43.9212C13.0239 43.8446 13.0635 43.768 13.1042 43.689C13.2299 43.4427 13.3522 43.1949 13.4736 42.9465C14.0758 41.7172 14.7261 40.5228 15.4092 39.3368C15.5593 39.0746 15.707 38.8113 15.8539 38.5474C17.5513 35.5102 19.5848 32.6486 21.736 29.9175C21.8877 29.7248 22.0388 29.5316 22.1896 29.3382C22.6643 28.7307 23.1451 28.1292 23.6351 27.534C23.9684 27.1273 24.2961 26.7161 24.6236 26.3047Z" fill="#FC7272"/>
<path d="M25.792 26.207C26.041 26.4363 26.2122 26.6818 26.392 26.968C26.4524 27.0634 26.5128 27.1589 26.575 27.2572C26.64 27.3606 26.7051 27.4641 26.7721 27.5707C27.3548 28.4901 27.9492 29.4002 28.5558 30.304C29.0477 31.0376 29.5343 31.7728 29.9971 32.5252C30.3802 33.1455 30.7799 33.7548 31.1796 34.3645C31.2154 34.4192 31.2513 34.4739 31.2883 34.5303C31.467 34.8029 31.6457 35.0754 31.8245 35.3479C32.1118 35.7865 32.3977 36.2259 32.6832 36.6656C32.7339 36.7437 32.7846 36.8218 32.8369 36.9022C32.9379 37.0578 33.039 37.2134 33.14 37.369C33.4015 37.7719 33.6633 38.1745 33.9251 38.5772C34.0306 38.7395 34.1361 38.9018 34.2417 39.0642C34.2939 39.1445 34.3461 39.2249 34.3999 39.3077C34.8748 40.0382 34.8748 40.0382 35.033 40.2817C35.1386 40.4441 35.2442 40.6065 35.3498 40.7689C35.6128 41.1733 35.8755 41.5779 36.1376 41.9828C36.8999 43.1595 37.674 44.328 38.4543 45.4927C38.4222 45.557 38.39 45.6213 38.3569 45.6876C37.6382 44.8297 36.9325 43.9661 36.2666 43.0664C35.902 42.5741 35.5271 42.0907 35.1487 41.6088C34.473 40.7452 33.8297 39.8605 33.1946 38.9668C33.1441 38.8961 33.0936 38.8253 33.0416 38.7525C32.3596 37.7971 31.6918 36.8338 31.0517 35.8499C30.9863 35.7495 30.9863 35.7495 30.9196 35.6471C29.204 33.0037 27.7008 30.2259 26.2851 27.4124C26.2099 27.2634 26.2099 27.2634 26.1332 27.1114C26.088 27.0206 26.0429 26.9299 25.9963 26.8363C25.9566 26.7568 25.917 26.6772 25.8761 26.5953C25.792 26.4018 25.792 26.4018 25.792 26.207Z" fill="#FC7272"/>
<path d="M43.2277 24.3555C43.3241 24.4037 43.3241 24.4037 43.4225 24.4529C43.1354 24.7448 42.8476 25.0361 42.5593 25.3268C42.4612 25.4258 42.3633 25.525 42.2656 25.6244C42.1254 25.767 41.9845 25.909 41.8435 26.0509C41.7588 26.1366 41.6741 26.2223 41.5869 26.3106C41.377 26.4983 41.377 26.4983 41.1822 26.4983C41.1822 26.5626 41.1822 26.6269 41.1822 26.6931C41.0614 26.8117 41.0614 26.8117 40.8809 26.9579C40.4797 27.2991 40.1073 27.6622 39.7364 28.0355C39.6763 28.0959 39.6161 28.1564 39.5542 28.2187C39.3661 28.408 39.1784 28.5976 38.9907 28.7873C37.1495 30.6478 37.1495 30.6478 36.5069 31.0762C36.4061 31.0229 36.3053 30.9695 36.2014 30.9145C35.2342 30.4036 34.2644 29.8982 33.2926 29.3961C33.2328 29.3652 33.173 29.3343 33.1114 29.3024C32.867 29.1761 32.6225 29.0498 32.3781 28.9236C30.6347 28.023 28.8934 27.1187 27.1562 26.2061C27.5111 26.0878 27.5724 26.1364 27.9043 26.2856C27.9991 26.3273 28.0938 26.369 28.1915 26.4119C28.2958 26.4585 28.4002 26.5051 28.5077 26.5531C30.7883 27.5437 33.1265 28.4907 35.5329 29.1282C35.6051 29.1478 35.6773 29.1674 35.7516 29.1876C36.6157 29.38 37.2306 29.0872 37.9679 28.6412C38.9977 27.968 39.9455 27.1872 40.89 26.4009C40.9477 26.353 41.0054 26.3051 41.0648 26.2558C41.8035 25.6412 42.5218 25.0076 43.2277 24.3555Z" fill="#9F1010"/>
<path d="M4.2666 20.8516C4.77939 20.9093 5.27184 20.9911 5.7752 21.1084C5.84255 21.1239 5.90991 21.1395 5.9793 21.1555C6.12316 21.1888 6.26697 21.2222 6.41075 21.2558C6.71724 21.3274 7.02394 21.3981 7.33062 21.4689C7.48608 21.5048 7.64152 21.5407 7.79696 21.5766C8.44366 21.7261 9.09126 21.8713 9.73941 22.0143C10.8196 22.2531 11.8989 22.4955 12.978 22.7387C14.3206 23.0413 15.6636 23.3415 17.0072 23.6394C18.1455 23.8918 19.2831 24.1475 20.4203 24.4049C21.6583 24.685 22.8974 24.9604 24.1367 25.2347C24.1367 25.2668 24.1367 25.299 24.1367 25.3321C23.0157 25.2796 21.921 25.1387 20.8129 24.9668C20.6398 24.9404 20.4668 24.9139 20.2937 24.8875C18.8441 24.6649 17.3976 24.4271 15.9549 24.1633C15.8311 24.1407 15.7072 24.1181 15.5796 24.0948C13.4113 23.6973 11.2732 23.2337 9.17592 22.5481C8.84345 22.4397 8.50946 22.3404 8.17293 22.2454C6.85237 21.8721 5.56112 21.4028 4.2666 20.949C4.2666 20.9168 4.2666 20.8847 4.2666 20.8516Z" fill="#FC7171"/>
<path d="M27.6426 26.793C28.1049 26.933 28.5242 27.1264 28.951 27.3492C29.0542 27.4024 29.0542 27.4024 29.1594 27.4567C29.3825 27.5719 29.6053 27.6877 29.828 27.8035C29.9831 27.8837 30.1381 27.9639 30.2931 28.0441C30.7411 28.2758 31.1886 28.5083 31.6361 28.741C31.8042 28.8284 31.8042 28.8284 31.9756 28.9175C32.7396 29.315 32.7396 29.315 33.0772 29.4933C33.5622 29.7491 34.0504 29.9958 34.5437 30.2352C34.6557 30.2906 34.7677 30.346 34.883 30.403C35.0991 30.5097 35.3161 30.6145 35.5341 30.717C35.6314 30.7655 35.7287 30.8141 35.829 30.8641C35.9152 30.9056 36.0014 30.9471 36.0903 30.9899C36.6979 31.5014 36.72 32.5226 36.8391 33.2588C36.8606 33.3876 36.8821 33.5163 36.9036 33.645C36.9611 33.9887 37.0176 34.3326 37.0739 34.6765C37.1325 35.0332 37.1919 35.3897 37.2513 35.7463C37.2691 35.853 37.2691 35.853 37.2872 35.9618C37.3112 36.1056 37.3351 36.2494 37.3591 36.3931C37.395 36.6092 37.4309 36.8252 37.4667 37.0412C37.613 37.9219 37.7634 38.8018 37.9186 39.6809C37.937 39.7855 37.9554 39.8901 37.9744 39.9978C38.0433 40.3884 38.1124 40.7789 38.1824 41.1693C38.2292 41.4303 38.2754 41.6913 38.3215 41.9524C38.3351 42.0273 38.3488 42.1022 38.3628 42.1793C38.4322 42.5749 38.4681 42.9499 38.4543 43.3514C38.4221 43.3514 38.39 43.3514 38.3569 43.3514C38.3398 43.2704 38.3227 43.1893 38.3051 43.1058C38.1118 42.1898 37.9174 41.2741 37.7222 40.3585C37.6775 40.1488 37.6329 39.939 37.5884 39.7292C37.2774 38.267 36.9502 36.8096 36.5914 35.3583C36.561 35.2339 36.5306 35.1096 36.4992 34.9814C36.0498 32.9464 36.0498 32.9464 34.753 31.4135C34.6944 31.3728 34.6357 31.3321 34.5754 31.2902C33.7381 30.7139 32.882 30.165 32.0257 29.6176C31.9133 29.5457 31.9133 29.5457 31.7986 29.4723C31.0355 28.9851 30.2683 28.505 29.4959 28.0326C29.4377 27.9969 29.3795 27.9613 29.3196 27.9246C29.0297 27.7471 28.7395 27.57 28.449 27.3936C28.3442 27.3296 28.2394 27.2656 28.1315 27.1997C28.0372 27.1424 27.9429 27.085 27.8457 27.0259C27.7787 26.9812 27.7116 26.9365 27.6426 26.8904C27.6426 26.8582 27.6426 26.8261 27.6426 26.793Z" fill="#9F1010"/>
<path d="M4.46094 20.5584C5.17173 20.5355 5.85726 20.623 6.56118 20.7167C6.65763 20.7294 6.65763 20.7294 6.75602 20.7423C9.42071 21.0945 12.0767 21.4699 14.6882 22.1168C14.7845 22.1404 14.8807 22.164 14.9798 22.1883C16.3057 22.5158 17.6109 22.9007 18.9151 23.3051C19.2808 23.4175 19.6477 23.5255 20.0149 23.6326C22.766 24.4379 22.766 24.4379 23.9415 24.8441C23.5427 25.0042 23.1778 24.878 22.7787 24.7798C22.7024 24.7618 22.6261 24.7438 22.5474 24.7252C22.3833 24.6864 22.2192 24.6472 22.0552 24.6077C21.6214 24.5031 21.187 24.4014 20.7527 24.2992C20.6661 24.2788 20.5795 24.2583 20.4903 24.2373C19.7858 24.0712 19.0796 23.9157 18.3712 23.7666C17.3311 23.5465 16.2923 23.321 15.2544 23.0908C15.1789 23.0741 15.1034 23.0574 15.0256 23.0401C14.1175 22.8384 13.2115 22.6301 12.3079 22.409C11.1626 22.129 10.0109 21.8815 8.85808 21.6346C7.81912 21.4118 6.78169 21.183 5.74543 20.948C5.64635 20.9255 5.64635 20.9255 5.54527 20.9026C5.18377 20.8206 4.82233 20.7383 4.46094 20.6558C4.46094 20.6236 4.46094 20.5915 4.46094 20.5584Z" fill="#FA5B5B"/>
<path d="M46.5388 20.5598C46.2659 20.7074 46.0164 20.7972 45.7136 20.8627C45.5841 20.8912 45.5841 20.8912 45.4521 20.9202C45.3587 20.9401 45.2653 20.9601 45.1691 20.9806C45.022 21.0127 45.022 21.0127 44.8719 21.0455C44.6609 21.0915 44.4498 21.1372 44.2387 21.1827C43.9068 21.2543 43.5749 21.3265 43.2431 21.3989C42.7975 21.496 42.3519 21.593 41.9062 21.6897C41.0615 21.8732 40.2174 22.0589 39.3736 22.2461C39.3026 22.2619 39.2315 22.2776 39.1582 22.2938C38.1739 22.5122 37.1928 22.7422 36.2132 22.9812C35.387 23.1814 34.5567 23.3589 33.7249 23.534C32.5417 23.785 31.364 24.0589 30.1864 24.3345C29.7284 24.4415 29.2701 24.5467 28.8115 24.6507C28.7277 24.6699 28.6438 24.689 28.5574 24.7088C28.3036 24.7663 28.0495 24.8225 27.7953 24.8783C27.7174 24.896 27.6395 24.9138 27.5593 24.9321C27.1938 25.0109 26.9288 25.0526 26.5713 24.943C26.9831 24.8047 27.3951 24.6668 27.8071 24.529C27.9219 24.4904 28.0367 24.4519 28.155 24.4122C30.1234 23.7543 32.1134 23.2093 34.1229 22.6936C34.3506 22.6341 34.5779 22.5731 34.8048 22.5107C35.7768 22.2439 36.754 22.0292 37.7422 21.8322C37.8257 21.8154 37.9093 21.7986 37.9955 21.7813C39.5752 21.4659 41.1599 21.2286 42.7572 21.0234C43.331 20.9496 43.9032 20.8666 44.4751 20.779C44.5489 20.7677 44.6227 20.7564 44.6987 20.7448C44.7662 20.7345 44.8336 20.7242 44.9031 20.7136C45.9981 20.5467 45.9981 20.5467 46.5388 20.5598Z" fill="#FB7070"/>
<path d="M25.305 5.26562C25.3372 5.26562 25.3693 5.26562 25.4025 5.26562C25.4025 11.7906 25.4025 18.3156 25.4025 25.0384C25.3703 25.0384 25.3382 25.0384 25.305 25.0384C24.8242 22.4771 24.695 19.9593 24.6902 17.3557C24.6899 17.2557 24.6899 17.2557 24.6897 17.1536C24.6847 14.9206 24.7612 12.6989 24.9033 10.4706C24.9075 10.4035 24.9118 10.3364 24.9162 10.2673C25.0226 8.59805 25.1525 6.93127 25.305 5.26562Z" fill="#FF7272"/>
<path d="M5.2407 20.7539C6.5522 21.0023 7.85113 21.2938 9.15032 21.5998C9.21366 21.6147 9.277 21.6296 9.34227 21.645C9.43781 21.6675 9.43781 21.6675 9.53527 21.6904C11.4193 22.1335 13.3095 22.547 15.2017 22.9528C16.2387 23.1755 17.2718 23.4096 18.3021 23.6615C19.1337 23.8644 19.9685 24.0508 20.8044 24.2348C21.9821 24.4944 23.157 24.7664 24.3316 25.0396C24.3316 25.136 24.3316 25.2325 24.3316 25.3318C23.1325 25.102 21.9377 24.8627 20.7521 24.5709C19.7471 24.324 18.7383 24.0999 17.7265 23.883C17.4168 23.8165 17.1071 23.7501 16.7974 23.6836C16.7198 23.667 16.6423 23.6503 16.5623 23.6332C15.7199 23.4521 14.8785 23.2664 14.0374 23.0794C13.9633 23.0629 13.8893 23.0465 13.813 23.0295C12.8348 22.8117 11.8577 22.5895 10.8817 22.3623C8.93915 21.9117 6.99182 21.4817 5.0459 21.0461C5.11018 21.014 5.17447 20.9818 5.2407 20.9487C5.2407 20.8844 5.2407 20.8201 5.2407 20.7539Z" fill="#831717"/>
<path d="M25.3052 5.26562C25.3373 5.26562 25.3694 5.26562 25.4026 5.26562C25.4026 11.7906 25.4026 18.3156 25.4026 25.0384C25.3704 25.0384 25.3383 25.0384 25.3052 25.0384C25.273 19.5098 25.2409 13.9812 25.2078 8.28511C25.1756 8.28511 25.1435 8.28511 25.1104 8.28511C25.124 7.90968 25.1384 7.53428 25.153 7.15889C25.1568 7.05311 25.1606 6.94732 25.1646 6.83833C25.1855 6.30743 25.2157 5.78958 25.3052 5.26562Z" fill="#DA5D5D"/>
<path d="M24.6232 26.3047C24.6875 26.3368 24.7518 26.369 24.818 26.4021C24.6998 26.5938 24.5797 26.7843 24.4588 26.9743C24.3921 27.0806 24.3255 27.1868 24.2568 27.2962C24.0301 27.5818 23.8975 27.6701 23.5518 27.7657C23.7103 27.3998 23.9427 27.1212 24.1971 26.8161C24.2767 26.7201 24.3563 26.6242 24.4383 26.5254C24.4993 26.4525 24.5603 26.3797 24.6232 26.3047Z" fill="#F36767"/>
<path d="M22.6804 24.4716C22.7895 24.4994 22.7895 24.4994 22.9007 24.5279C22.9776 24.5472 23.0544 24.5666 23.1336 24.5865C23.4064 24.6635 23.6749 24.7487 23.9417 24.8444C23.5546 24.9921 23.24 24.893 22.8459 24.8018C22.7229 24.7738 22.5999 24.7458 22.4731 24.717C22.3792 24.6948 22.2852 24.6725 22.1885 24.6496C22.4807 24.4548 22.4807 24.4548 22.6804 24.4716Z" fill="#EB5454"/>
<path d="M13.1298 43.9336C13.162 44.03 13.1941 44.1265 13.2272 44.2258C13.0876 44.4674 13.0876 44.4674 12.8924 44.7311C12.8282 44.8188 12.7641 44.9066 12.698 44.997C12.6225 45.0974 12.6225 45.0974 12.5454 45.1998C12.448 45.005 12.448 45.005 12.5135 44.8011C12.5481 44.7237 12.5828 44.6464 12.6185 44.5667C12.6521 44.4894 12.6858 44.412 12.7204 44.3323C12.8376 44.1284 12.8376 44.1284 13.1298 43.9336Z" fill="#F46B6B"/>
<path d="M25.792 26.207C26.0395 26.4313 26.1885 26.6622 26.346 26.9558C26.3885 27.0345 26.4311 27.1133 26.475 27.1944C26.5067 27.2543 26.5385 27.3142 26.5712 27.3759C26.4748 27.3759 26.3784 27.3759 26.279 27.3759C26.1974 27.2178 26.1163 27.0595 26.0355 26.901C25.9903 26.8129 25.9451 26.7247 25.8985 26.6339C25.792 26.4018 25.792 26.4018 25.792 26.207Z" fill="#F26464"/>
<path d="M37.6758 44.6172C37.7401 44.6172 37.8044 44.6172 37.8706 44.6172C38.0175 44.8089 38.0175 44.8089 38.175 45.0555C38.2275 45.1369 38.2799 45.2182 38.334 45.302C38.3739 45.3653 38.4139 45.4286 38.455 45.4938C38.4229 45.5581 38.3907 45.6224 38.3576 45.6886C38.2434 45.547 38.1299 45.4049 38.0167 45.2625C37.9218 45.1438 37.9218 45.1438 37.8249 45.0228C37.6758 44.812 37.6758 44.812 37.6758 44.6172Z" fill="#ED6262"/>
</svg>
