<svg width="50" height="50" viewBox="0 0 50 50" fill="none" xmlns="http://www.w3.org/2000/svg">
<g clip-path="url(#clip0_1_3099)">
<path d="M21.0026 0.0198874C20.8811 0.0184621 20.8811 0.0184621 20.7571 0.0170081C18.9458 0.000141226 17.2112 0.028025 15.4367 0.432971C15.3548 0.450702 15.273 0.468433 15.1886 0.486701C11.7568 1.2428 8.65478 3.04872 6.12888 5.46255C6.03395 5.55315 5.93852 5.64322 5.8426 5.73277C4.52309 6.96668 3.47892 8.42474 2.57637 9.98453C2.53873 10.0493 2.50108 10.114 2.4623 10.1807C1.62377 11.6422 1.03309 13.1891 0.597392 14.8151C0.56373 14.9391 0.56373 14.9391 0.529388 15.0655C0.128883 16.6449 -0.0109128 18.2282 0.00065284 19.8529C0.000884395 19.9393 0.00111595 20.0258 0.00135452 20.115C0.00718662 21.5132 0.114118 22.8493 0.432984 24.2144C0.463754 24.3573 0.494457 24.5002 0.525083 24.6431C1.03298 26.9138 2.00889 29.1408 3.35579 31.037C3.42448 31.1341 3.49318 31.2312 3.56396 31.3313C4.68485 32.8673 5.95161 34.2465 7.44771 35.4229C7.59522 35.542 7.59522 35.542 7.7457 35.6635C10.2822 37.6915 13.4146 38.9813 16.6058 39.5164C16.7888 39.5492 16.7888 39.5492 16.9754 39.5827C19.1387 39.9047 21.4787 39.8273 23.6206 39.4189C23.735 39.3978 23.735 39.3978 23.8518 39.3763C26.6532 38.8467 29.4229 37.6872 31.6609 35.9041C31.9269 35.6956 32.2045 35.5116 32.4864 35.3254C32.5591 35.3984 32.6318 35.4714 32.7066 35.5466C34.4752 37.3223 36.2446 39.0972 38.0149 40.8712C38.871 41.7292 39.7268 42.5874 40.582 43.4462C41.3273 44.1948 42.0732 44.9429 42.8197 45.6903C43.215 46.0861 43.6099 46.4821 44.0043 46.8788C44.3756 47.2522 44.7476 47.6249 45.1201 47.9971C45.2566 48.1337 45.3928 48.2706 45.5288 48.4078C45.7148 48.5953 45.9016 48.7818 46.0887 48.9682C46.142 49.0224 46.1954 49.0767 46.2504 49.1325C46.7642 49.6406 47.2695 50.0009 48.0199 50C48.7206 49.975 49.1137 49.7956 49.5939 49.2964C49.9601 48.8161 49.986 48.336 50 47.7465C49.7641 46.6801 48.7319 45.8849 47.987 45.1459C47.8486 45.0076 47.7103 44.8692 47.5721 44.7307C47.1984 44.3568 46.8238 43.9837 46.449 43.6109C46.0568 43.2204 45.6655 42.8291 45.2741 42.4378C44.5335 41.6979 43.7922 40.9587 43.0507 40.2198C42.2061 39.3782 41.3624 38.5357 40.5187 37.6932C38.784 35.9609 37.0482 34.2296 35.3118 32.4989C35.4051 32.3581 35.4985 32.2173 35.592 32.0765C35.67 31.9589 35.67 31.9589 35.7496 31.8389C35.9117 31.5989 36.0847 31.3697 36.2617 31.1405C38.6091 27.9199 39.717 23.9058 39.7203 19.9564C39.7204 19.8856 39.7205 19.8148 39.7205 19.7419C39.7125 14.2767 37.5377 9.45109 33.7408 5.56206C33.2514 5.08505 32.7338 4.65285 32.1941 4.2341C32.1423 4.1933 32.0905 4.1525 32.0372 4.11046C30.4561 2.87172 28.7131 1.91961 26.8356 1.21269C26.7309 1.17243 26.7309 1.17243 26.6241 1.13136C24.8523 0.459537 22.9 0.0384073 21.0026 0.0198874Z" fill="#D2F6C7"/>
<path d="M4.1353 7.84033C2.38396 9.43308 1.38062 12.1266 0.725361 14.34C0.697017 14.4355 0.668674 14.5309 0.639471 14.6292C0.471661 15.2243 0.374697 15.8002 0.335655 16.4172C6.33844 19.776 6.33844 19.776 8.61693 19.6336C8.60085 19.511 8.58478 19.3883 8.56822 19.262C8.41514 17.6974 8.51695 16.1847 8.90921 14.6629C8.98733 14.7337 9.06544 14.8046 9.14593 14.8776C9.98447 15.6243 10.8685 16.2563 11.8121 16.863C12.1786 17.1003 12.541 17.3437 12.9037 17.5868C12.8949 17.6428 12.886 17.6988 12.8769 17.7565C12.8366 18.0126 12.7971 18.2687 12.7576 18.5249C12.7436 18.613 12.7297 18.7011 12.7153 18.7918C12.7021 18.8779 12.689 18.9639 12.6754 19.0526C12.6631 19.1312 12.6509 19.2098 12.6383 19.2908C12.6078 19.569 12.6072 19.8413 12.6114 20.1209C10.6558 19.9905 10.6558 19.9905 8.71436 19.7311C8.78133 21.4059 9.95435 22.8834 11.1089 24.0016C11.3765 24.243 11.6511 24.4728 11.9294 24.7018C9.96915 25.1498 9.96915 25.1498 7.98289 25.4499C7.74009 25.4815 7.74009 25.4815 7.54524 25.5789C7.37495 25.5884 7.2043 25.5917 7.03374 25.5919C6.87662 25.5922 6.87662 25.5922 6.71632 25.5925C6.54792 25.5918 6.54792 25.5918 6.37611 25.5911C6.2619 25.5909 6.14768 25.5906 6.03001 25.5903C4.80977 25.5837 3.59281 25.5411 2.38162 25.384C2.73367 26.3698 3.52415 27.1699 4.23273 27.9181C4.31273 28.0044 4.39273 28.0907 4.47515 28.1797C6.62718 30.4282 9.77258 32.0578 12.8063 32.6939C12.8867 32.5954 12.967 32.4969 13.0498 32.3954C13.27 32.1375 13.4967 31.9128 13.7562 31.6949C14.5556 31.0109 15.2077 30.1999 15.8258 29.3534C15.9538 29.1795 16.0858 29.0083 16.2219 28.8406C16.4081 28.6041 16.5666 28.3648 16.7216 28.1069C16.796 27.9846 16.796 27.9846 16.8719 27.8599C16.9839 27.6479 17.0482 27.47 17.0931 27.2358C17.1574 27.2358 17.2217 27.2358 17.2879 27.2358C17.3201 27.1715 17.3522 27.1072 17.3853 27.0409C17.5348 27.0432 17.5348 27.0432 17.6872 27.0456C18.0629 27.0509 18.4386 27.0542 18.8143 27.057C18.9757 27.0584 19.1372 27.0604 19.2986 27.063C20.7053 27.0847 21.8906 26.9373 23.164 26.2917C23.2465 26.2511 23.3291 26.2106 23.4142 26.1689C23.6135 26.0709 23.8122 25.9717 24.0104 25.8713C24.0372 25.9633 24.0372 25.9633 24.0647 26.0571C24.1816 26.4529 24.2996 26.8471 24.4385 27.2358C24.8922 28.5099 25.1856 29.814 25.4718 31.1344C27.7575 29.9219 29.951 27.9896 31.0251 25.5789C31.0293 25.381 31.0293 25.381 30.9277 25.1891C30.7469 25.0086 30.5709 24.8497 30.3735 24.6896C30.3171 24.6429 30.2606 24.5963 30.2025 24.5482C29.2278 23.7529 28.1625 22.9196 27.0306 22.3626C26.6584 22.4867 26.6185 22.6186 26.4278 22.9535C26.3761 23.0431 26.3245 23.1326 26.2713 23.2249C26.2325 23.2942 26.1937 23.3634 26.1537 23.4347C26.1819 23.3748 26.21 23.3149 26.239 23.2531C26.2752 23.1743 26.3113 23.0956 26.3486 23.0144C26.3848 22.9364 26.4209 22.8584 26.4582 22.778C26.5435 22.5575 26.5435 22.5575 26.5435 22.2651C26.6721 22.2651 26.8007 22.2651 26.9332 22.2651C26.9948 22.105 27.0555 21.9445 27.1158 21.7839C27.1497 21.6946 27.1837 21.6052 27.2186 21.5132C27.4695 20.7429 27.5528 20.029 27.5482 19.2194C27.5475 19.0711 27.5475 19.0711 27.5467 18.9198C27.5298 17.8356 27.3293 16.9412 26.8441 15.963C26.7481 15.756 26.6871 15.5678 26.6409 15.3451C26.8187 15.3089 26.8187 15.3089 27.0001 15.272C27.3667 15.1917 27.7161 15.0864 28.0718 14.9675C28.7651 14.747 29.47 14.6253 30.1869 14.5064C30.6181 14.4337 31.0166 14.3663 31.4148 14.1756C31.1727 12.2675 29.2322 10.2708 27.7948 9.13655C26.6207 8.26484 26.6207 8.26484 25.9589 8.03526C24.6787 9.27289 23.6211 10.6392 22.6464 12.1288C22.59 12.122 22.5336 12.1153 22.4754 12.1083C20.3652 11.8743 18.2053 11.8125 16.4609 13.1986C16.3309 13.3142 16.203 13.4321 16.0785 13.5535C15.9176 13.7112 15.9176 13.7112 15.6317 13.7857C15.6194 13.7162 15.6071 13.6468 15.5945 13.5752C15.5333 13.2943 15.4484 13.0376 15.35 12.7676C14.7938 11.1988 14.424 9.68133 14.1703 8.03526C12.7438 8.58247 11.4274 9.8169 10.5655 11.0567C10.517 11.1254 10.4685 11.1941 10.4186 11.2649C10.2677 11.4851 10.1234 11.7082 9.98091 11.9339C9.89463 12.0695 9.89463 12.0695 9.8066 12.208C8.90921 13.6749 8.90921 13.6749 8.90921 14.4679C7.93792 13.6376 7.14606 12.7556 6.37611 11.7389C6.3147 11.6586 6.25329 11.5784 6.19001 11.4956C5.36792 10.3738 4.738 9.09032 4.1353 7.84033Z" fill="#55F0CC"/>
<path d="M8.90904 14.5654C8.39827 15.519 8.41371 16.6772 8.40364 17.733C8.40237 17.8093 8.4011 17.8857 8.39979 17.9643C8.39895 18.5399 8.48662 19.0736 8.61676 19.6336C6.01266 19.0544 3.4169 18.1491 1.15163 16.7192C0.810557 16.5068 0.650322 16.4173 0.23806 16.4173C0.0509359 17.5556 0.00428668 18.6703 0.00667131 19.8224C0.00665954 19.9102 0.00664776 19.9979 0.00663563 20.0882C0.00932224 21.497 0.111611 22.8389 0.432913 24.2145C0.463683 24.3573 0.494386 24.5002 0.525012 24.6431C1.03291 26.9138 2.00882 29.1409 3.35572 31.037C3.42442 31.1341 3.49311 31.2312 3.56389 31.3313C4.68478 32.8673 5.95154 34.2465 7.44764 35.4229C7.54598 35.5023 7.64432 35.5817 7.74563 35.6635C10.2821 37.6916 13.4145 38.9813 16.6058 39.5164C16.7887 39.5492 16.7887 39.5492 16.9753 39.5827C19.6239 39.977 22.3933 39.7503 24.9845 39.1266C26.2574 34.9765 25.9648 29.7822 24.0102 25.8714C23.5634 25.9538 23.1708 26.1808 22.7709 26.3876C21.5763 26.972 20.3571 26.9823 19.0597 26.9617C18.8965 26.9603 18.7333 26.9589 18.5701 26.9578C18.1751 26.9546 17.7801 26.9495 17.3852 26.9435C17.353 27.04 17.3209 27.1365 17.2877 27.2359C17.2234 27.2359 17.1591 27.2359 17.0929 27.2359C16.9992 27.4042 16.9059 27.5728 16.8128 27.7415C16.7608 27.8353 16.7088 27.9292 16.6552 28.0259C16.5083 28.308 16.5083 28.308 16.4101 28.581C16.3623 28.6871 16.3623 28.6871 16.3135 28.7953C16.217 28.8275 16.1206 28.8596 16.0212 28.8928C15.899 29.0565 15.899 29.0565 15.7715 29.2704C15.4611 29.7565 15.0929 30.1649 14.7002 30.5858C14.5007 30.8008 14.3101 31.0197 14.1214 31.2441C13.7802 31.6403 13.3919 31.976 12.9953 32.3155C12.9328 32.376 12.8704 32.4366 12.8061 32.499C12.8061 32.5633 12.8061 32.6276 12.8061 32.6939C9.67908 31.6451 6.92475 30.4282 4.52484 28.1131C4.44898 28.0433 4.37313 27.9736 4.29497 27.9018C3.56286 27.2096 2.7922 26.3162 2.38145 25.384C2.54421 25.4293 2.54421 25.4293 2.71027 25.4754C3.90015 25.7348 5.16508 25.6851 6.37595 25.6886C6.54435 25.6893 6.54435 25.6893 6.71616 25.69C6.87328 25.6897 6.87328 25.6897 7.03358 25.6894C7.12752 25.6893 7.22146 25.6892 7.31825 25.689C7.54507 25.6764 7.54507 25.6764 7.73992 25.579C7.86978 25.5567 8.00036 25.5385 8.13115 25.5226C9.0903 25.3995 10.0354 25.2485 10.9794 25.0368C11.1194 25.0061 11.1194 25.0061 11.2622 24.9749C11.3482 24.955 11.4342 24.9351 11.5228 24.9146C11.6372 24.8883 11.6372 24.8883 11.7539 24.8615C11.9293 24.7992 11.9293 24.7992 12.0267 24.6043C11.9643 24.5559 11.9019 24.5076 11.8376 24.4577C10.2653 23.2224 9.13598 21.7258 8.71419 19.7311C8.80135 19.751 8.88851 19.771 8.97831 19.7916C10.2173 20.0678 11.3471 20.1316 12.6113 20.1209C12.7399 19.2847 12.8685 18.4484 13.001 17.5868C12.4554 17.1502 12.4554 17.1502 12.1732 16.9834C12.1114 16.9462 12.0496 16.909 11.986 16.8706C11.921 16.8316 11.8561 16.7925 11.7892 16.7523C10.7543 16.1179 9.81925 15.3676 8.90904 14.5654Z" fill="#FDFAAD"/>
<path d="M27.6397 14.9967C27.3055 15.1097 26.9728 15.2261 26.6408 15.3451C26.71 15.8714 26.8839 16.2898 27.1032 16.7691C27.3929 17.5527 27.4579 18.3342 27.4567 19.1646C27.4568 19.262 27.4568 19.3595 27.4569 19.4599C27.4447 20.2907 27.2886 20.9918 27.0305 21.7778C26.9954 21.9397 26.9619 22.102 26.9331 22.2652C26.6919 22.2169 26.6919 22.2169 26.4459 22.1677C26.4359 22.2521 26.4258 22.3366 26.4155 22.4235C26.3617 22.7603 26.3617 22.7603 26.1902 23.0692C26.146 23.1577 26.1018 23.2461 26.0562 23.3373C26.0884 23.4016 26.1205 23.4659 26.1537 23.5322C26.2492 23.3902 26.3446 23.248 26.4398 23.1058C26.493 23.0266 26.5461 22.9475 26.6008 22.8659C26.7382 22.655 26.7382 22.655 26.8356 22.4601C27.2757 22.6164 27.6537 22.8408 28.0474 23.0875C28.1154 23.1301 28.1834 23.1726 28.2534 23.2165C29.2066 23.8243 30.0801 24.5397 30.9276 25.2866C30.6914 27.0265 28.6362 28.9013 27.333 29.8987C26.845 30.2622 26.3338 30.5804 25.8111 30.8912C25.5691 31.037 25.5691 31.037 25.4717 31.1345C25.4811 31.375 25.4964 31.6133 25.5143 31.8533C25.6474 34.0219 25.7732 36.4068 25.0629 38.4942C24.9761 38.7629 25.0035 38.8636 25.082 39.1266C27.4426 38.3767 29.7032 37.4639 31.6609 35.9042C31.9269 35.6957 32.2045 35.5117 32.4864 35.3255C32.5591 35.3984 32.6318 35.4714 32.7066 35.5466C34.4752 37.3224 36.2446 39.0973 38.0149 40.8713C38.871 41.7292 39.7268 42.5874 40.582 43.4463C41.3273 44.1948 42.0732 44.9429 42.8197 45.6903C43.215 46.0861 43.6099 46.4822 44.0043 46.8788C44.3756 47.2522 44.7476 47.625 45.1201 47.9972C45.2566 48.1338 45.3928 48.2707 45.5288 48.4078C45.7148 48.5953 45.9016 48.7819 46.0887 48.9682C46.142 49.0225 46.1954 49.0767 46.2504 49.1326C46.7642 49.6407 47.2695 50.0009 48.0199 50C48.7206 49.9751 49.1137 49.7957 49.5939 49.2964C49.9601 48.8161 49.986 48.336 50 47.7465C49.7641 46.6801 48.7319 45.885 47.987 45.146C47.8486 45.0076 47.7103 44.8692 47.5721 44.7308C47.1984 44.3568 46.8238 43.9838 46.449 43.6109C46.0568 43.2204 45.6655 42.8291 45.2741 42.4379C44.5335 41.6979 43.7922 40.9587 43.0507 40.2198C42.2061 39.3782 41.3624 38.5358 40.5187 37.6933C38.784 35.9609 37.0482 34.2296 35.3118 32.499C35.3612 32.4243 35.4106 32.3496 35.4615 32.2726C35.6041 32.0116 35.6041 32.0116 35.547 31.7349C34.5998 29.6173 33.3849 27.7076 31.7515 26.0538C31.6962 25.9971 31.641 25.9404 31.5841 25.882C31.5349 25.8327 31.4857 25.7835 31.435 25.7327C31.2933 25.5477 31.2478 25.4203 31.2198 25.1891C31.2613 24.9965 31.2613 24.9965 31.3458 24.8042C31.3749 24.7304 31.4041 24.6565 31.4341 24.5805C31.4659 24.5019 31.4976 24.4233 31.5304 24.3424C31.7717 23.7181 31.9824 23.1004 32.1332 22.4479C32.1483 22.3835 32.1634 22.3191 32.179 22.2527C32.3955 21.2718 32.4125 20.293 32.4133 19.2925C32.4134 19.2229 32.4135 19.1534 32.4135 19.0818C32.412 18.0345 32.3634 17.0455 32.0967 16.0274C32.0774 15.9529 32.0581 15.8784 32.0382 15.8016C31.9112 15.319 31.7818 14.8391 31.6096 14.3705C30.6574 13.8942 28.6013 14.6815 27.6397 14.9967Z" fill="#C2F8AB"/>
<path d="M8.90905 14.5654C8.39828 15.519 8.41371 16.6772 8.40365 17.733C8.40238 17.8093 8.40111 17.8857 8.3998 17.9643C8.39896 18.5399 8.48663 19.0736 8.61677 19.6336C6.01267 19.0544 3.41691 18.1491 1.15164 16.7192C0.810564 16.5068 0.650332 16.4173 0.238069 16.4173C0.0509454 17.5556 0.0042962 18.6703 0.00668083 19.8224C0.00666317 19.954 0.00666317 19.954 0.00664515 20.0882C0.00933176 21.497 0.11162 22.8389 0.432923 24.2145C0.463692 24.3573 0.494395 24.5002 0.525022 24.6431C1.03292 26.9138 2.00882 29.1409 3.35573 31.037C3.42442 31.1341 3.49312 31.2312 3.5639 31.3313C4.62486 32.7852 5.81825 34.1241 7.22844 35.2463C7.45024 35.4186 7.45024 35.4186 7.6425 35.6179C8.2004 35.599 8.6485 35.329 9.12826 35.0696C9.21112 35.0253 9.29398 34.9809 9.37935 34.9352C9.96899 34.6151 10.517 34.2681 11.0524 33.8635C11.1799 33.7721 11.3075 33.681 11.4353 33.5901C11.5716 33.4924 11.7078 33.3947 11.844 33.297C11.91 33.2501 11.976 33.2033 12.0439 33.155C12.2042 33.0386 12.3595 32.9155 12.5138 32.7914C12.5138 32.727 12.5138 32.6627 12.5138 32.5964C12.4243 32.5664 12.4243 32.5664 12.3329 32.5357C9.382 31.5402 6.78649 30.2948 4.52485 28.1131C4.44899 28.0433 4.37314 27.9736 4.29498 27.9018C3.56287 27.2096 2.7922 26.3162 2.38146 25.384C2.48997 25.4142 2.59848 25.4443 2.71027 25.4754C3.90015 25.7348 5.16508 25.6851 6.37596 25.6886C6.54436 25.6893 6.54436 25.6893 6.71616 25.69C6.82091 25.6898 6.92566 25.6896 7.03359 25.6894C7.12753 25.6893 7.22147 25.6892 7.31826 25.689C7.54508 25.6764 7.54508 25.6764 7.73993 25.579C7.86979 25.5567 8.00037 25.5385 8.13116 25.5226C9.09031 25.3995 10.0354 25.2485 10.9794 25.0368C11.1194 25.0061 11.1194 25.0061 11.2622 24.9749C11.3912 24.945 11.3912 24.945 11.5228 24.9146C11.6372 24.8883 11.6372 24.8883 11.7539 24.8615C11.9293 24.7992 11.9293 24.7992 12.0267 24.6043C11.9643 24.5559 11.9019 24.5076 11.8376 24.4577C10.2653 23.2224 9.13599 21.7258 8.7142 19.7311C8.80136 19.751 8.88852 19.771 8.97832 19.7916C10.2173 20.0678 11.3471 20.1316 12.6113 20.1209C12.7399 19.2847 12.8685 18.4484 13.001 17.5868C12.4554 17.1502 12.4554 17.1502 12.1732 16.9834C12.0805 16.9276 12.0805 16.9276 11.986 16.8706C11.921 16.8316 11.8561 16.7925 11.7892 16.7523C10.7543 16.1179 9.81925 15.3676 8.90905 14.5654Z" fill="#BEF6A9"/>
<path d="M31.5121 14.1755C31.5527 14.338 31.5933 14.5004 31.6339 14.6628C31.6603 14.7689 31.6866 14.8749 31.7138 14.9842C31.7773 15.2373 31.8417 15.49 31.9071 15.7426C31.9331 15.8438 31.9331 15.8438 31.9596 15.947C31.9932 16.0783 32.0273 16.2096 32.0617 16.3407C32.7668 19.1057 32.3475 22.4008 31.1928 24.9797C31.1074 25.2335 31.11 25.3352 31.2198 25.5789C31.3903 25.7712 31.3903 25.7712 31.6095 25.9749C33.3251 27.6395 34.588 29.7656 35.604 31.9141C35.9912 31.5536 36.2725 31.1829 36.5478 30.7324C36.5895 30.6646 36.6311 30.5969 36.674 30.527C38.6451 27.2734 39.7161 23.7683 39.7203 19.9564C39.7204 19.8859 39.7206 19.8154 39.7207 19.7427C39.72 18.0526 39.5539 16.396 39.1114 14.7603C36.6215 13.9803 34.0984 13.9536 31.5121 14.1755Z" fill="#FDF3A6"/>
<path d="M19.9001 0.000503533C19.8141 0.000670397 19.7281 0.00083726 19.6395 0.00100918C18.2103 0.00574769 16.8338 0.110581 15.4367 0.433004C15.3689 0.445694 15.301 0.458383 15.231 0.471457C15.0463 0.511433 15.0463 0.511433 14.7547 0.627934C13.5697 2.47624 13.9898 5.88476 14.1702 7.9378C14.2503 7.89791 14.3305 7.85802 14.4131 7.81692C17.3998 6.34826 20.8805 6.14931 24.0289 7.21557C24.526 7.39344 25.0052 7.61119 25.4823 7.83653C25.764 7.9378 25.764 7.9378 25.9672 7.92905C26.224 7.80688 26.4135 7.64267 26.6286 7.45657C28.2436 6.1031 30.033 5.09547 31.9019 4.13667C29.0345 1.09562 23.9148 -0.0273295 19.9001 0.000503533Z" fill="#F8F8D7"/>
<path d="M4.13519 7.84033C2.38385 9.43308 1.38051 12.1266 0.725252 14.34C0.696908 14.4355 0.668564 14.5309 0.639361 14.6292C0.471551 15.2243 0.374587 15.8002 0.335545 16.4172C6.33833 19.776 6.33833 19.776 8.61682 19.6336C8.60074 19.511 8.58467 19.3883 8.56811 19.262C8.41503 17.6974 8.51684 16.1847 8.9091 14.6629C9.02628 14.7692 9.02628 14.7692 9.14582 14.8776C9.98474 15.6247 10.8689 16.258 11.8139 16.8638C12.1109 17.0567 12.4028 17.2571 12.6946 17.4579C13.066 17.687 13.47 17.8264 13.8779 17.9767C14.0566 18.0494 14.2352 18.1225 14.4137 18.196C14.8282 18.3665 14.8282 18.3665 15.047 18.3665C15.0259 18.312 15.0048 18.2575 14.9831 18.2013C14.5965 17.0877 14.6358 16.0184 15.1444 14.9553C15.2978 14.657 15.4585 14.3654 15.6315 14.0781C15.6958 14.0781 15.7602 14.0781 15.8264 14.0781C15.8746 13.9334 15.8746 13.9334 15.9238 13.7857C15.8274 13.7857 15.7309 13.7857 15.6315 13.7857C15.6193 13.7162 15.607 13.6468 15.5943 13.5752C15.5332 13.2943 15.4483 13.0376 15.3499 12.7676C14.7936 11.1988 14.4239 9.68133 14.1701 8.03526C12.7437 8.58247 11.4273 9.8169 10.5654 11.0567C10.5169 11.1254 10.4684 11.1941 10.4185 11.2649C10.2675 11.4851 10.1232 11.7082 9.9808 11.9339C9.92328 12.0243 9.86576 12.1148 9.80649 12.208C8.9091 13.6749 8.9091 13.6749 8.9091 14.4679C7.93781 13.6376 7.14595 12.7556 6.376 11.7389C6.31459 11.6586 6.25318 11.5784 6.1899 11.4956C5.36781 10.3738 4.73789 9.09032 4.13519 7.84033Z" fill="#FCF2AA"/>
<path d="M35.0195 32.499C34.9327 32.6295 34.8469 32.7606 34.7646 32.894C34.4632 33.3183 34.0676 33.6697 33.6981 34.034C33.6141 34.1181 33.53 34.2021 33.4433 34.2887C32.9919 34.7421 32.9919 34.7421 32.4864 35.1305C32.645 35.5308 32.9331 35.7998 33.2327 36.0975C33.2897 36.1548 33.3467 36.2122 33.4054 36.2713C33.5966 36.4636 33.7885 36.6552 33.9804 36.8468C34.1176 36.9845 34.2547 37.1222 34.3918 37.2599C34.7646 37.6341 35.138 38.0077 35.5115 38.3811C35.8233 38.6929 36.1347 39.005 36.4462 39.3171C37.1812 40.0534 37.9167 40.7892 38.6525 41.5247C39.4114 42.2834 40.1695 43.0429 40.927 43.8029C41.5775 44.4553 42.2286 45.1072 42.8801 45.7586C43.2692 46.1477 43.658 46.537 44.0464 46.9268C44.4117 47.2935 44.7778 47.6595 45.1444 48.025C45.2787 48.1591 45.4127 48.2935 45.5465 48.4281C45.7295 48.6122 45.9133 48.7953 46.0974 48.9782C46.1499 49.0314 46.2023 49.0847 46.2564 49.1395C46.7682 49.6443 47.2739 50.0009 48.0199 50C48.7206 49.9751 49.1137 49.7957 49.5939 49.2964C49.9601 48.8161 49.986 48.336 50 47.7465C49.7645 46.682 48.7343 45.8853 47.9916 45.146C47.8538 45.0076 47.7159 44.8692 47.5781 44.7308C47.2057 44.3568 46.8322 43.9837 46.4586 43.6109C46.0675 43.2203 45.677 42.829 45.2864 42.4379C44.6312 41.7818 43.9754 41.1264 43.3192 40.4714C42.5599 39.7134 41.8016 38.9543 41.0439 38.1947C40.3931 37.5423 39.7417 36.8905 39.0899 36.2392C38.7006 35.8502 38.3116 35.461 37.923 35.0714C37.5583 34.7057 37.1929 34.3407 36.8269 33.9763C36.6924 33.8421 36.5582 33.7078 36.4243 33.5731C36.2421 33.39 36.059 33.2078 35.8756 33.0259C35.8223 32.9719 35.7689 32.9179 35.714 32.8622C35.3451 32.499 35.3451 32.499 35.0195 32.499Z" fill="#DBDBDB"/>
<path d="M11.642 24.7718C11.5473 24.7913 11.4526 24.8108 11.355 24.831C11.2552 24.8526 11.1553 24.8743 11.0525 24.8967C10.8503 24.9376 10.6481 24.9783 10.4459 25.0189C10.1329 25.0827 9.82008 25.1469 9.50736 25.2117C9.04388 25.306 8.58594 25.3932 8.11522 25.4415C7.73997 25.4814 7.73997 25.4814 7.54512 25.5789C7.37483 25.5884 7.20418 25.5917 7.03363 25.5919C6.87651 25.5922 6.87651 25.5922 6.71621 25.5925C6.5478 25.5918 6.5478 25.5918 6.376 25.5911C6.26178 25.5908 6.14757 25.5906 6.02989 25.5903C4.80966 25.5837 3.59269 25.5411 2.3815 25.384C2.73356 26.3698 3.52404 27.1699 4.23261 27.9181C4.35261 28.0475 4.35261 28.0475 4.47504 28.1796C6.62707 30.4282 9.77247 32.0578 12.8062 32.6939C12.8865 32.5954 12.9669 32.4969 13.0497 32.3954C13.2699 32.1375 13.4966 31.9128 13.7561 31.6948C14.5555 31.0109 15.2075 30.1999 15.8256 29.3534C15.9537 29.1794 16.0857 29.0083 16.2218 28.8406C16.408 28.604 16.5665 28.3648 16.7215 28.1069C16.7711 28.0254 16.8207 27.9438 16.8718 27.8598C16.9838 27.6478 17.0481 27.4699 17.0929 27.2358C17.1572 27.2358 17.2215 27.2358 17.2878 27.2358C17.4461 27.0409 17.4461 27.0409 17.5801 26.846C17.5247 26.8337 17.4694 26.8215 17.4124 26.809C15.6919 26.4253 13.931 25.9661 12.4956 24.8906C12.1811 24.6883 12.0039 24.6942 11.642 24.7718Z" fill="#FDEFA1"/>
<path d="M24.0103 25.8713C23.5638 25.9718 23.1751 26.1786 22.7709 26.3876C21.5764 26.972 20.3571 26.9823 19.0598 26.9617C18.8966 26.9603 18.7334 26.9589 18.5702 26.9577C18.1752 26.9545 17.7802 26.9495 17.3853 26.9435C17.337 27.0882 17.337 27.0882 17.2878 27.2358C17.2235 27.2358 17.1592 27.2358 17.093 27.2358C16.9993 27.4042 16.906 27.5728 16.8129 27.7414C16.7609 27.8353 16.7089 27.9291 16.6553 28.0258C16.5084 28.308 16.5084 28.308 16.4102 28.5809C16.3624 28.687 16.3624 28.687 16.3136 28.7953C16.1689 28.8435 16.1689 28.8435 16.0213 28.8928C15.8991 29.0565 15.8991 29.0565 15.7716 29.2704C15.4611 29.7564 15.093 30.1649 14.7003 30.5858C14.5007 30.8008 14.3101 31.0196 14.1215 31.2441C13.7803 31.6403 13.392 31.976 12.9953 32.3154C12.9329 32.376 12.8705 32.4366 12.8062 32.499C12.8062 32.5633 12.8062 32.6276 12.8062 32.6939C13.1288 32.7574 13.4516 32.8201 13.7744 32.8827C13.9097 32.9094 13.9097 32.9094 14.0478 32.9366C15.0198 33.1242 15.9504 33.2002 16.9407 33.1995C17.1078 33.1994 17.1078 33.1994 17.2782 33.1992C18.203 33.1926 19.1015 33.12 20.0158 32.9863C20.1165 32.9733 20.2172 32.9604 20.321 32.9471C21.7826 32.7379 23.1859 32.2527 24.5339 31.6644C24.6377 31.62 24.6377 31.62 24.7436 31.5747C25.2536 31.3526 25.2536 31.3526 25.4717 31.1344C25.4208 29.3448 24.6739 27.5035 24.0103 25.8713Z" fill="#C0F8A9"/>
<path d="M0.33557 16.4172C0.303419 16.4172 0.271268 16.4172 0.238143 16.4172C0.0510187 17.5556 0.00436952 18.6703 0.00675415 19.8224C0.00673648 19.954 0.00673648 19.954 0.00671847 20.0882C0.00940507 21.4969 0.111694 22.8389 0.432996 24.2144C0.463766 24.3573 0.494469 24.5002 0.525095 24.6431C1.03299 26.9138 2.0089 29.1409 3.3558 31.037C3.4245 31.1341 3.49319 31.2312 3.56397 31.3313C4.62494 32.7852 5.81832 34.1241 7.22851 35.2462C7.45032 35.4185 7.45032 35.4185 7.64258 35.6178C8.20047 35.599 8.64857 35.329 9.12834 35.0696C9.21119 35.0252 9.29405 34.9809 9.37942 34.9352C9.96906 34.6151 10.5171 34.2681 11.0525 33.8635C11.1799 33.7721 11.3076 33.681 11.4354 33.5901C11.5716 33.4924 11.7079 33.3947 11.8441 33.2969C11.9101 33.2501 11.976 33.2032 12.044 33.155C12.2042 33.0385 12.3596 32.9155 12.5139 32.7913C12.5139 32.727 12.5139 32.6627 12.5139 32.5964C12.4243 32.5663 12.4243 32.5663 12.333 32.5357C9.38208 31.5402 6.78656 30.2947 4.52492 28.113C4.44906 28.0433 4.37321 27.9736 4.29505 27.9017C3.59335 27.2383 2.89448 26.4114 2.46031 25.5412C2.38153 25.384 2.38153 25.384 2.18668 25.2865C2.11838 25.1255 2.05437 24.9626 1.99182 24.7992C1.90743 24.6394 1.90743 24.6394 1.82133 24.4764C0.803509 22.4589 0.41464 20.3352 0.372105 18.0985C0.368375 17.9348 0.36457 17.7711 0.360687 17.6074C0.351441 17.2107 0.343218 16.814 0.33557 16.4172Z" fill="#B6F3A2"/>
<path d="M14.1701 8.03528C12.7437 8.58249 11.4273 9.81691 10.5654 11.0567C10.5169 11.1254 10.4684 11.1941 10.4185 11.2649C10.2675 11.4851 10.1232 11.7082 9.9808 11.9339C9.92328 12.0243 9.86576 12.1148 9.80649 12.208C8.9091 13.6749 8.9091 13.6749 8.9091 14.468C8.8448 14.5001 8.7805 14.5323 8.71425 14.5654C9.03773 14.8269 9.36301 15.0862 9.68851 15.3451C9.78145 15.4203 9.87439 15.4954 9.97014 15.5728C11.4912 16.7784 13.1496 17.8781 15.047 18.3666C15.0259 18.312 15.0048 18.2575 14.9831 18.2013C14.5965 17.0877 14.6358 16.0184 15.1444 14.9553C15.2978 14.6571 15.4585 14.3654 15.6315 14.0781C15.6958 14.0781 15.7602 14.0781 15.8264 14.0781C15.8746 13.9334 15.8746 13.9334 15.9238 13.7857C15.8274 13.7857 15.7309 13.7857 15.6315 13.7857C15.6193 13.7162 15.607 13.6468 15.5943 13.5752C15.5332 13.2943 15.4483 13.0377 15.3499 12.7677C14.7936 11.1988 14.4239 9.68134 14.1701 8.03528Z" fill="#F9F2B9"/>
<path d="M26.1537 8.03528C24.7057 8.66357 23.5932 10.6772 22.7659 11.9556C22.6451 12.1418 22.6451 12.1418 22.4515 12.3237C22.3686 12.5133 22.3686 12.5133 22.2932 12.7258C22.2678 12.7964 22.2425 12.867 22.2163 12.9397C22.1975 12.9938 22.1787 13.0478 22.1593 13.1035C22.2323 13.1307 22.3054 13.158 22.3807 13.1861C23.6499 13.6834 24.505 14.4326 25.4352 15.4014C25.5757 15.5468 25.7182 15.6899 25.8615 15.8325C26.0865 15.736 26.3116 15.6395 26.5435 15.5401C26.5435 15.4757 26.5435 15.4114 26.5435 15.3451C26.6418 15.3337 26.7401 15.3223 26.8414 15.3105C27.2205 15.2485 27.5509 15.1476 27.9135 15.0223C28.664 14.773 29.4223 14.6291 30.2017 14.5015C30.6287 14.4307 31.0205 14.3641 31.4148 14.1756C31.1736 12.2748 29.2335 10.2575 27.7916 9.13657C27.354 8.81718 26.9032 8.5207 26.446 8.23021C26.3496 8.16588 26.2531 8.10155 26.1537 8.03528Z" fill="#F8F1BB"/>
<path d="M26.7383 22.46C26.6059 22.6519 26.6059 22.6519 26.4704 22.8986C25.9132 23.8567 25.2773 24.5121 24.4001 25.1891C24.2375 25.3188 24.075 25.4486 23.9129 25.5789C23.9712 25.9861 24.1128 26.343 24.2615 26.7233C24.8192 28.1598 25.1496 29.6314 25.4717 31.1344C27.7575 29.9219 29.951 27.9896 31.0251 25.5789C31.0293 25.3809 31.0293 25.3809 30.9276 25.1891C30.7469 25.0086 30.5709 24.8497 30.3735 24.6895C30.2889 24.6196 30.2889 24.6196 30.2025 24.5482C27.3808 22.2458 27.3808 22.2458 26.7383 22.46Z" fill="#FDF0A2"/>
<path d="M32.0966 4.13672C31.5847 4.1733 31.2567 4.35939 30.8301 4.62404C31.1014 4.89759 31.3753 5.16773 31.6536 5.43422C32.4282 6.18241 33.0971 6.91307 33.6554 7.84039C33.6897 7.89713 33.7239 7.95387 33.7592 8.01233C34.8912 9.91924 35.175 11.8859 35.1168 14.0781C35.7254 14.1994 36.3333 14.2933 36.9497 14.3644C37.6823 14.4499 38.3928 14.5919 39.1113 14.7604C38.3275 11.7541 36.8689 8.93387 34.7271 6.67081C34.6108 6.53731 34.4951 6.40332 34.38 6.26876C33.7762 5.57902 33.1257 4.98188 32.4106 4.40817C32.2089 4.25254 32.2089 4.25254 32.0966 4.13672Z" fill="#CFFEB3"/>
<path d="M19.9001 0.000503534C19.8141 0.000670397 19.7281 0.00083726 19.6395 0.00100918C18.2104 0.00574728 16.8336 0.11019 15.4367 0.433004C15.3685 0.445976 15.3003 0.458948 15.23 0.472314C15.0444 0.512956 15.0444 0.512956 14.7547 0.627934C14.6242 0.853322 14.6242 0.853322 14.566 1.11526C14.545 1.2017 14.524 1.28814 14.5024 1.3772C14.4625 1.60258 14.4625 1.60258 14.4625 1.79751C15.1379 1.72252 15.7942 1.59296 16.4588 1.45258C20.8944 0.537086 25.8337 1.45664 29.661 3.84428C29.9386 4.05643 30.2125 4.27057 30.4806 4.49453C30.7327 4.624 30.7327 4.624 31.0359 4.55758C31.3284 4.42398 31.617 4.28596 31.9019 4.13667C29.0345 1.09562 23.9148 -0.0273295 19.9001 0.000503534Z" fill="#FDFDB1"/>
<path d="M14.7549 0.62793C11.4268 1.27757 8.39456 3.28464 5.98647 5.59864C5.93646 5.64654 5.88644 5.69444 5.83491 5.74379C5.18258 6.37213 4.5836 7.01717 4.03794 7.74287C4.17933 8.04777 4.32167 8.35222 4.46418 8.6566C4.50437 8.74329 4.54456 8.82998 4.58596 8.9193C4.6249 9.00222 4.66383 9.08514 4.70394 9.17058C4.73965 9.24714 4.77537 9.3237 4.81217 9.40258C4.91478 9.5947 4.91478 9.5947 5.10963 9.78963C5.14982 9.6988 5.19001 9.60796 5.23142 9.51437C6.85569 5.9008 9.70164 3.64832 13.3494 2.24524C13.6206 2.14262 13.8839 2.06443 14.1665 2.0012C14.4626 1.89497 14.4626 1.89497 14.5931 1.67301C14.6124 1.58745 14.6316 1.50189 14.6514 1.41374C14.6723 1.32843 14.6933 1.24312 14.7149 1.15523C14.7549 0.920324 14.7549 0.920324 14.7549 0.62793Z" fill="#CFFEB3"/>
<path d="M13.2932 17.5868C13.1968 17.5868 13.1003 17.5868 13.001 17.5868C12.755 18.4317 12.6489 19.2425 12.6112 20.1209C12.3862 20.1209 12.1611 20.1209 11.9293 20.1209C11.9293 20.153 11.9293 20.1852 11.9293 20.2183C13.455 20.2535 14.9095 20.2107 16.4109 19.9259C16.3726 19.8814 16.3343 19.8369 16.2948 19.7911C16.0756 19.5359 15.8567 19.2809 15.644 19.0202C15.0661 18.3209 14.4539 18.0538 13.6106 17.7654C13.3967 17.704 13.3967 17.704 13.2932 17.5868Z" fill="#D7E5A1"/>
<path d="M0.334934 16.4172C0.302771 16.4172 0.270607 16.4172 0.237469 16.4172C0.0502634 17.5557 0.00384117 18.6702 0.00599001 19.8224C0.00587517 19.9536 0.00587517 19.9536 0.00575801 20.0874C0.00752806 21.7792 0.206479 23.3544 0.627329 24.9941C0.795633 25.0437 0.964224 25.0922 1.13293 25.1403C1.22678 25.1675 1.32063 25.1946 1.41733 25.2226C1.68516 25.2833 1.91347 25.2985 2.18677 25.2865C2.08095 25.0044 1.96228 24.7433 1.82127 24.4764C0.803057 22.4589 0.414036 20.3352 0.371483 18.0985C0.367753 17.9348 0.363946 17.7711 0.360062 17.6074C0.350812 17.2107 0.342585 16.814 0.334934 16.4172Z" fill="#FDD581"/>
<path d="M14.0727 23.922C13.418 24.1355 12.7704 24.3662 12.1242 24.6043C12.1242 24.6686 12.1242 24.7329 12.1242 24.7992C12.3305 24.9467 12.5338 25.0783 12.7514 25.2073C12.8168 25.2462 12.8822 25.285 12.9497 25.325C14.3212 26.1169 15.8957 26.7163 17.4827 26.8459C17.4827 26.7495 17.4827 26.653 17.4827 26.5535C17.4107 26.5274 17.3387 26.5013 17.2646 26.4744C16.0967 26.023 14.7715 25.2183 14.1431 24.088C14.1199 24.0332 14.0967 23.9784 14.0727 23.922Z" fill="#A2EA94"/>
<path d="M22.6707 12.3115C22.3294 12.4822 22.2792 12.756 22.1593 13.1034C22.2323 13.1307 22.3054 13.158 22.3807 13.186C23.6499 13.6833 24.505 14.4326 25.4352 15.4014C25.5757 15.5467 25.7182 15.6898 25.8615 15.8324C26.1991 15.6877 26.1991 15.6877 26.5435 15.54C26.3489 14.9989 26.0334 14.6119 25.6666 14.1755C25.5931 14.0877 25.5931 14.0877 25.5182 13.9981C24.8773 13.2984 23.6511 12.3561 22.6707 12.3115Z" fill="#D7FBC2"/>
<path d="M23.9128 25.4814C23.8807 25.5458 23.8485 25.6101 23.8154 25.6764C23.6219 25.7452 23.4267 25.8094 23.2309 25.8713C23.0211 25.9632 22.8121 26.0567 22.6037 26.1515C21.6224 26.5833 20.6016 26.8681 19.5286 26.9434C19.5286 26.9756 19.5286 27.0077 19.5286 27.0409C21.1513 27.1066 22.3149 26.7239 23.718 25.9688C23.7823 25.9366 23.8466 25.9044 23.9128 25.8713C23.9128 25.7427 23.9128 25.614 23.9128 25.4814Z" fill="#DBEEA6"/>
<path d="M32.4864 4.42908C32.4221 4.46124 32.3578 4.4934 32.2916 4.52654C33.2239 5.45928 34.1563 6.39202 35.1169 7.35302C35.1169 7.01569 35.0834 6.98796 34.8631 6.75339C34.7804 6.66473 34.7804 6.66473 34.6961 6.57428C34.636 6.51164 34.576 6.449 34.5141 6.38447C34.4533 6.32013 34.3925 6.2558 34.3299 6.18951C33.7417 5.57376 33.1215 4.99583 32.4864 4.42908Z" fill="#D8F5A8"/>
<path d="M26.7382 22.1677C26.6417 22.1999 26.5452 22.2321 26.4458 22.2652C26.4357 22.3335 26.4257 22.4019 26.4153 22.4723C26.3566 22.7663 26.3566 22.7663 26.1899 23.0632C26.1457 23.1536 26.1015 23.2441 26.0559 23.3373C26.0881 23.4016 26.1202 23.466 26.1534 23.5322C26.2471 23.3944 26.3404 23.2562 26.4336 23.118C26.5116 23.0027 26.5116 23.0027 26.5912 22.885C26.7205 22.6828 26.8307 22.4819 26.9331 22.2652C26.8688 22.233 26.8045 22.2009 26.7382 22.1677Z" fill="#ABE792"/>
</g>
<defs>
<clipPath id="clip0_1_3099">
<rect width="50" height="50" fill="white"/>
</clipPath>
</defs>
</svg>
