<svg width="50" height="50" viewBox="0 0 50 50" fill="none" xmlns="http://www.w3.org/2000/svg">
<path d="M37.0011 7.57094C37.0628 7.61175 37.1245 7.65256 37.1881 7.69461C37.2414 7.73067 37.2946 7.76673 37.3495 7.80388C37.517 7.89828 37.6577 7.94834 37.8477 7.97724C37.9919 7.87834 37.9919 7.87834 38.1259 7.72571C38.4601 7.41289 38.8114 7.21123 39.2177 7.0086C39.2745 6.97974 39.3314 6.95089 39.39 6.92115C40.6606 6.30286 42.1342 6.31118 43.4615 6.75172C44.9301 7.33574 45.9065 8.28508 46.5815 9.68975C47.111 10.972 47.1226 12.5493 46.6287 13.8436C46.1713 14.8725 45.5127 15.6273 44.6121 16.2829C44.6358 16.3423 44.6595 16.4017 44.6839 16.4628C45.1528 17.6435 45.6057 18.8123 45.8965 20.0505C45.9121 20.1163 45.9277 20.1821 45.9439 20.2499C45.992 20.456 46.0384 20.6625 46.0838 20.8693C46.0971 20.9288 46.1104 20.9882 46.1241 21.0495C46.3903 22.327 46.4423 23.6038 46.437 24.9044C46.4368 25.023 46.4368 25.023 46.4365 25.1441C46.4326 26.3185 46.39 27.4594 46.1534 28.613C46.1391 28.6874 46.1249 28.7617 46.1102 28.8382C45.3302 32.8637 43.399 36.3556 40.5877 39.3163C40.5228 39.3849 40.5228 39.3849 40.4565 39.4549C39.8209 40.1218 39.1538 40.7124 38.4166 41.2648C38.2869 41.3629 38.1593 41.4638 38.032 41.5649C33.7195 44.9433 27.8868 46.3172 22.4889 45.7171C17.7191 45.1149 13.3023 43.1047 9.84804 39.7444C9.80093 39.699 9.75381 39.6537 9.70527 39.6069C8.37887 38.3265 7.27133 36.8799 6.33739 35.2919C6.2822 35.2019 6.22701 35.1119 6.17015 35.0193C4.35784 31.9904 3.55622 28.4603 3.57061 24.9579C3.57084 24.8392 3.57084 24.8392 3.57108 24.7182C3.57498 23.5438 3.61764 22.4029 3.85424 21.2492C3.86848 21.1749 3.88272 21.1006 3.89739 21.024C4.21217 19.3994 4.70807 17.79 5.39551 16.2829C5.30544 16.2159 5.30544 16.2159 5.21355 16.1475C4.36151 15.4865 3.75639 14.7161 3.34049 13.7142C3.29943 13.6168 3.29943 13.6168 3.25754 13.5175C2.89818 12.4727 2.90502 10.9648 3.34049 9.94663C3.38122 9.85027 3.42195 9.75391 3.46391 9.65463C3.77276 8.96727 4.16885 8.41857 4.7105 7.89161C4.75476 7.84459 4.79902 7.79757 4.84462 7.74913C5.17788 7.42371 5.57814 7.22349 5.98953 7.01395C6.04677 6.98469 6.10401 6.95542 6.16298 6.92527C7.375 6.3319 8.77056 6.31288 10.0521 6.69319C10.7482 6.94252 11.4899 7.27245 11.9937 7.82974C12.0486 7.87841 12.1034 7.92709 12.1599 7.97724C12.4367 7.94259 12.6322 7.82356 12.863 7.67287C12.9333 7.62775 13.0036 7.58263 13.076 7.53615C13.1516 7.48745 13.2273 7.43874 13.3052 7.38856C15.816 5.80948 18.5291 4.80381 21.4503 4.31139C21.5555 4.29364 21.6606 4.2759 21.769 4.25762C27.0004 3.42132 32.5899 4.64589 37.0011 7.57094Z" fill="#EEECED"/>
<path d="M25.052 4.02835C25.1977 4.02785 25.1977 4.02785 25.3465 4.02734C25.487 4.02751 25.487 4.02751 25.6303 4.02768C25.7554 4.02782 25.7554 4.02782 25.883 4.02797C26.112 4.03882 26.3219 4.07351 26.5451 4.12468C26.5451 4.15293 26.5451 4.18119 26.5451 4.2103C26.4379 4.22189 26.3307 4.23348 26.2203 4.24542C21.7507 4.76985 17.5973 6.54584 14.215 9.5191C14.155 9.56954 14.0951 9.61998 14.0333 9.67195C13.1516 10.418 12.348 11.257 11.6462 12.1735C11.5923 12.2433 11.5923 12.2433 11.5373 12.3144C10.8796 13.1702 10.3052 14.0668 9.76242 14.9991C9.73143 15.0516 9.70044 15.104 9.66851 15.1581C8.38659 17.3459 7.72112 19.7867 7.3649 22.2773C7.34959 22.3774 7.33428 22.4774 7.31851 22.5805C7.20835 23.3355 7.16351 24.0727 7.16689 24.8354C7.16712 24.9206 7.16712 24.9206 7.16736 25.0076C7.19343 30.711 9.63259 35.7795 13.5728 39.8039C14.02 40.2454 14.4881 40.6457 14.9856 41.0294C15.0557 41.0836 15.0557 41.0836 15.1273 41.139C15.9826 41.7963 16.8779 42.3731 17.8112 42.9131C17.8982 42.9638 17.8982 42.9638 17.987 43.0154C19.5051 43.8886 21.1679 44.5347 22.8632 44.9682C22.931 44.9861 22.9989 45.0041 23.0688 45.0226C24.2177 45.3246 25.3656 45.516 26.5451 45.6532C26.5451 45.6814 26.5451 45.7097 26.5451 45.7388C22.2931 46.7013 16.8392 44.7158 13.2838 42.4957C12.0429 41.6994 10.9039 40.7721 9.84804 39.745C9.80093 39.6996 9.75381 39.6543 9.70527 39.6075C8.37887 38.3271 7.27133 36.8805 6.33739 35.2924C6.2822 35.2025 6.22701 35.1125 6.17015 35.0198C4.35784 31.991 3.55622 28.4609 3.57061 24.9585C3.57084 24.8398 3.57084 24.8398 3.57108 24.7188C3.57498 23.5444 3.61764 22.4035 3.85424 21.2498C3.86848 21.1755 3.88272 21.1012 3.89739 21.0246C4.21217 19.4 4.70807 17.7906 5.39551 16.2835C5.30544 16.2165 5.30544 16.2165 5.21355 16.1481C4.36151 15.487 3.75639 14.7167 3.34049 13.7148C3.29943 13.6174 3.29943 13.6174 3.25754 13.5181C2.89818 12.4733 2.90502 10.9654 3.34049 9.94723C3.38122 9.85087 3.42195 9.75451 3.46391 9.65523C3.77276 8.96787 4.16885 8.41917 4.7105 7.89221C4.75476 7.84519 4.79902 7.79817 4.84462 7.74972C5.17788 7.4243 5.57814 7.22408 5.98953 7.01455C6.04677 6.98528 6.10401 6.95602 6.16298 6.92587C7.375 6.3325 8.77056 6.31347 10.0521 6.69378C10.7482 6.94311 11.4899 7.27304 11.9937 7.83033C12.0486 7.87901 12.1034 7.92768 12.1599 7.97783C12.4367 7.94319 12.6322 7.82415 12.863 7.67346C12.9333 7.62835 13.0036 7.58323 13.076 7.53675C13.1516 7.48804 13.2273 7.43934 13.3052 7.38916C15.816 5.81008 18.5291 4.8044 21.4503 4.31198C21.5555 4.29424 21.6606 4.2765 21.769 4.25822C22.8625 4.08341 23.9456 4.02446 25.052 4.02835Z" fill="#D4D2D3"/>
<path d="M15.3981 16.8556C15.4891 16.8559 15.58 16.8563 15.6737 16.8567C16.3023 16.8657 16.877 16.9138 17.4692 17.1392C17.5705 17.1765 17.5705 17.1765 17.6739 17.2145C18.7085 17.635 19.6446 18.3879 20.1075 19.4244C20.437 20.3434 20.3519 21.2221 19.9523 22.1055C19.1014 23.6245 17.6753 24.5314 16.0349 25.0061C15.4577 25.1258 14.8784 25.1293 14.2903 25.1345C14.1964 25.1357 14.1025 25.1369 14.0058 25.1382C12.647 25.1302 11.3926 24.6383 10.389 23.7163C9.65086 22.9455 9.46255 22.1138 9.4829 21.0874C9.53288 20.0128 10.1834 19.1629 10.9402 18.445C12.2019 17.3679 13.7548 16.8468 15.3981 16.8556Z" fill="#3B494B"/>
<path d="M38.3613 17.9113C39.3732 18.6226 40.172 19.5187 40.5019 20.737C40.5959 21.7819 40.4727 22.6496 39.7939 23.4827C39.317 24.0156 38.848 24.3756 38.1954 24.6651C38.1127 24.7018 38.1127 24.7018 38.0284 24.7393C36.5105 25.371 34.5752 25.2813 33.0538 24.696C32.3847 24.413 31.8065 24.0321 31.2544 23.5626C31.1678 23.5008 31.0813 23.439 30.9921 23.3753C30.2652 22.7557 29.7959 21.7733 29.684 20.8356C29.6504 19.8807 29.9778 19.0822 30.5693 18.3395C32.6274 16.3091 36.0273 16.4567 38.3613 17.9113Z" fill="#3B494B"/>
<path d="M45.1523 7.75776C45.2874 7.88666 45.4213 8.01676 45.5537 8.14843C45.6247 8.21499 45.6247 8.21499 45.6972 8.28289C46.02 8.61532 46.2217 9.0132 46.4313 9.42211C46.4752 9.50689 46.4752 9.50689 46.52 9.59339C47.092 10.756 47.1327 12.2871 46.7471 13.5161C46.3676 14.6192 45.6201 15.671 44.6118 16.2829C44.5553 16.2829 44.4988 16.2829 44.4405 16.2829C44.4174 16.2365 44.3942 16.1901 44.3704 16.1423C43.3396 14.0907 42.0917 12.286 40.5017 10.6316C40.4352 10.5615 40.4352 10.5615 40.3673 10.4901C39.6905 9.78012 38.9715 9.16772 38.1898 8.57656C38.0467 8.46289 37.9039 8.3489 37.7617 8.23406C38.1099 7.41867 39.1338 7.02923 39.9024 6.69279C41.6633 6.05055 43.769 6.54379 45.1523 7.75776Z" fill="#3A484A"/>
<path d="M12.1322 7.93774C12.246 8.06451 12.246 8.06451 12.246 8.23576C12.0846 8.36878 11.9224 8.49278 11.7536 8.61573C11.2558 8.98777 10.7968 9.38662 10.3438 9.81148C10.1307 10.0102 9.91357 10.202 9.69323 10.3925C9.3404 10.7063 9.03561 11.04 8.7353 11.4039C8.69555 11.4512 8.6558 11.4984 8.61484 11.5471C7.38857 13.0059 6.38998 14.5645 5.56714 16.2846C4.59283 15.9427 3.9991 15.0236 3.53353 14.1493C2.98683 12.9747 2.81603 11.4165 3.24689 10.168C3.2779 10.0955 3.30892 10.023 3.34087 9.94828C3.3816 9.85192 3.42233 9.75556 3.4643 9.65628C3.77315 8.96892 4.16924 8.42022 4.71089 7.89326C4.75515 7.84624 4.79941 7.79922 4.84501 7.75077C5.17826 7.42535 5.57852 7.22513 5.98992 7.0156C6.04716 6.98633 6.1044 6.95707 6.16337 6.92692C8.17358 5.94277 10.5044 6.49193 12.1322 7.93774Z" fill="#3A484A"/>
<path d="M26.4326 21.265C26.4901 21.2736 26.5476 21.2823 26.6068 21.2912C26.894 21.3455 27.0519 21.4139 27.2692 21.6119C27.4273 21.8949 27.4509 22.0426 27.4013 22.3621C27.0424 22.9637 26.4675 23.329 25.86 23.6465C26.0342 24.3502 26.2409 24.9031 26.8394 25.3429C27.2482 25.5832 27.6834 25.6082 28.1488 25.6456C28.4758 25.7109 28.6272 25.8045 28.8569 26.044C28.9305 26.2962 28.8911 26.4602 28.8569 26.729C28.7018 26.958 28.6105 26.9824 28.3432 27.0715C27.4618 27.1652 26.5444 26.8679 25.8456 26.329C25.5583 26.084 25.2999 25.8463 25.0894 25.5302C25.0894 25.4737 25.0894 25.4172 25.0894 25.359C25.0329 25.359 24.9764 25.359 24.9181 25.359C24.8987 25.4049 24.8793 25.4508 24.8593 25.4981C24.4092 26.3125 23.6398 26.7082 22.7775 26.9859C22.2911 27.1231 21.7755 27.1679 21.3165 26.9431C21.1161 26.6845 21.1 26.5338 21.0938 26.2152C21.1841 25.9432 21.3395 25.8513 21.5787 25.7015C21.8557 25.6486 21.8557 25.6486 22.1567 25.6266C22.8092 25.5473 23.2684 25.3685 23.6839 24.8456C23.9268 24.4742 24.1475 24.0977 24.1475 23.6465C24.0645 23.6041 23.9815 23.5617 23.896 23.518C23.3952 23.2329 22.9263 22.8421 22.6062 22.3621C22.5655 22.0498 22.583 21.8909 22.7347 21.6129C23.0118 21.3634 23.2757 21.3041 23.6338 21.249C23.69 21.2395 23.7463 21.23 23.8043 21.2202C24.6789 21.0981 25.5635 21.1192 26.4326 21.265Z" fill="#3D4B4D"/>
<path d="M35.1023 19.5742C35.4706 19.6419 35.5703 19.7481 35.7927 20.0505C35.8542 20.3817 35.8485 20.7047 35.8408 21.0406C35.8418 21.1297 35.8427 21.2188 35.8437 21.3106C35.8374 21.9652 35.8374 21.9652 35.6341 22.2139C35.3939 22.4078 35.2447 22.448 34.9364 22.448C34.709 22.3437 34.709 22.3437 34.5083 22.1055C34.4446 21.7482 34.4525 21.3971 34.4601 21.0352C34.4592 20.9375 34.4582 20.8398 34.4573 20.7392C34.4636 20.0209 34.4636 20.0209 34.6668 19.766C34.8508 19.6224 34.8508 19.6224 35.1023 19.5742Z" fill="#ECEAEB"/>
<path d="M14.857 19.5742C15.2058 19.6303 15.2858 19.6911 15.4992 19.9649C15.5421 20.1962 15.5421 20.1962 15.5417 20.4576C15.5417 20.599 15.5417 20.599 15.5418 20.7434C15.5401 20.8414 15.5384 20.9395 15.5366 21.0406C15.5372 21.139 15.5379 21.2374 15.5385 21.3387C15.533 22.0574 15.533 22.0574 15.3895 22.2617C15.1819 22.4037 14.9774 22.3978 14.7316 22.4049C14.4784 22.3432 14.3796 22.2185 14.2148 22.0199C14.1705 21.807 14.1705 21.807 14.1693 21.5707C14.1689 21.4849 14.1684 21.3991 14.168 21.3106C14.1693 21.2215 14.1706 21.1324 14.172 21.0406C14.1707 20.9518 14.1693 20.863 14.168 20.7715C14.17 20.3799 14.174 20.1223 14.37 19.7776C14.5573 19.6224 14.5573 19.6224 14.857 19.5742Z" fill="#ECEAEB"/>
</svg>
