<svg width="50" height="50" viewBox="0 0 50 50" fill="none" xmlns="http://www.w3.org/2000/svg">
<g clip-path="url(#clip0_1_2829)">
<path d="M25.3939 0.0208355C31.0047 -0.0936181 36.7232 0.898801 40.9078 4.90729C45.2868 9.21444 47.3468 15.9029 48.9861 21.6719C49.0227 21.7996 49.0592 21.9274 49.0968 22.0591C50.5265 27.2205 49.2934 32.4354 46.9403 37.1466C46.8773 37.2757 46.8773 37.2757 46.813 37.4073C45.6791 39.7208 44.2119 41.699 42.4533 43.5711C42.394 43.6359 42.3348 43.7007 42.2737 43.7674C38.8459 47.3853 33.0762 49.7104 28.1768 49.9955C27.7489 50.005 27.3234 49.9986 26.8957 49.9828C26.8013 49.9793 26.7069 49.9759 26.6096 49.9723C24.8229 49.8716 23.1559 49.2826 21.4655 48.7399C21.2717 48.678 21.0779 48.6161 20.8841 48.5543C20.1722 48.3269 19.4609 48.098 18.7498 47.8686C18.4099 47.7594 18.0698 47.6509 17.7295 47.5428C17.2421 47.388 16.7555 47.2314 16.2693 47.0733C16.096 47.0172 15.9225 46.9616 15.749 46.9067C12.7484 45.9553 10.5358 44.2889 8.59754 41.8375C8.50738 41.7292 8.41694 41.6211 8.32627 41.5132C6.50837 39.3302 5.02872 36.8494 3.80161 34.2918C3.69921 34.0801 3.59397 33.87 3.48841 33.6599C0.927019 28.4949 -1.10035 22.4756 0.758136 16.8038C2.17015 12.752 5.12941 9.17634 8.39359 6.45204C8.48798 6.37016 8.58235 6.28826 8.6796 6.20388C10.062 5.00781 11.5257 3.93966 13.0844 2.98489C13.1677 2.93383 13.251 2.88278 13.3367 2.83018C16.4064 0.966989 19.3465 0.370662 22.8804 0.142394C23.0547 0.131095 23.229 0.119244 23.4033 0.107318C24.0667 0.0625733 24.7291 0.0371255 25.3939 0.0208355Z" fill="#DBE6EA"/>
<path d="M41.65 6.61277C42.5663 7.0408 43.168 7.61578 43.6577 8.49294C43.7088 8.58177 43.76 8.67059 43.8127 8.7621C43.9739 9.04493 44.1316 9.32951 44.2887 9.61467C44.3391 9.70469 44.3894 9.7947 44.4413 9.88743C47.9022 16.1044 50.9988 24.3059 49.0854 31.3723C48.5208 33.3512 47.8608 35.3047 46.9401 37.148C46.898 37.2341 46.856 37.3201 46.8128 37.4088C45.6788 39.7223 44.2117 41.7004 42.4531 43.5724C42.3938 43.6373 42.3345 43.7021 42.2734 43.7688C41.2945 44.802 39.8799 46.1071 38.4124 46.1538C37.4221 46.1405 36.5963 45.6894 35.8247 45.1021C35.758 45.0534 35.6911 45.0046 35.6223 44.9543C33.9468 43.624 32.9921 41.3083 32.3432 39.3357C32.1278 38.6874 31.8721 38.0561 31.6182 37.422C31.0067 35.8834 30.4476 34.329 29.9102 32.7631C29.8755 32.6625 29.8407 32.5619 29.805 32.4583C28.3189 28.1087 27.0564 23.5701 29.167 19.2556C30.7412 16.1468 32.9076 13.2411 35.2762 10.6946C35.4705 10.4831 35.6587 10.2688 35.8462 10.0513C39.5194 5.84279 39.5194 5.84279 41.65 6.61277Z" fill="#DBE6EA"/>
<path d="M25.3937 0.0223189C28.6476 -0.0440522 33.1833 -0.082298 36.0287 1.76267C36.285 2.03968 36.4548 2.35287 36.6406 2.68045C36.7037 2.77299 36.7668 2.86553 36.8318 2.96088C37.0358 3.5504 37.104 4.24997 36.8536 4.83508C36.5504 5.40836 36.1678 5.89799 35.7483 6.3898C35.6204 6.54236 35.4926 6.69492 35.3647 6.84749C35.3033 6.92027 35.2418 6.99305 35.1785 7.06802C34.9644 7.32221 34.7537 7.57903 34.5437 7.83658C34.4731 7.92294 34.4025 8.0093 34.3298 8.09829C33.9708 8.53869 33.6128 8.97974 33.2547 9.42084C32.9393 9.80898 32.6236 10.1967 32.3066 10.5836C31.7672 11.2421 31.2309 11.903 30.6944 12.5639C30.3611 12.9741 30.0278 13.3843 29.6945 13.7945C29.4132 14.1407 29.1319 14.4871 28.8506 14.8335C28.7654 14.9384 28.7654 14.9384 28.6785 15.0455C28.5656 15.1843 28.4528 15.3233 28.34 15.4623C28.024 15.8516 27.7058 16.239 27.3863 16.6256C27.0716 17.0089 26.7709 17.4003 26.4749 17.7983C26.3284 17.9938 26.1819 18.1893 26.0351 18.3847C25.9588 18.4871 25.9588 18.4871 25.881 18.5918C24.7116 20.0662 22.7818 20.8022 20.977 21.0957C20.3707 21.1648 19.7613 21.1609 19.1518 21.1635C19.0329 21.1656 18.9141 21.1677 18.7917 21.1699C18.0658 21.173 17.3915 21.1027 16.6802 20.9577C15.834 20.7854 14.98 20.682 14.1231 20.5772C13.9911 20.5609 13.9911 20.5609 13.8565 20.5443C11.7024 20.2802 9.54311 20.0327 7.37165 19.9896C7.24371 19.987 7.24371 19.987 7.1132 19.9842C6.70168 19.9763 6.2904 19.9713 5.8788 19.9708C4.53796 19.9606 3.41252 19.6599 2.40235 18.7416C2.32664 18.6574 2.25092 18.5733 2.1729 18.4866C2.10351 18.413 2.0341 18.3394 1.96259 18.2636C1.41414 17.4674 1.12979 16.4918 1.25513 15.5294C1.39612 15.1282 1.59017 14.7658 1.79688 14.3949C1.85227 14.2925 1.90767 14.19 1.96475 14.0846C2.4531 13.1976 2.99397 12.3622 3.60056 11.5523C3.66731 11.462 3.66731 11.462 3.7354 11.3699C5.06947 9.57528 6.67918 7.889 8.3934 6.45354C8.53517 6.3305 8.53517 6.3305 8.67981 6.20497C10.0622 5.00914 11.5257 3.94106 13.0843 2.98638C13.2091 2.9098 13.2091 2.9098 13.3365 2.83167C16.4062 0.968473 19.3463 0.372146 22.8802 0.143877C23.0545 0.132579 23.2288 0.120737 23.403 0.108812C24.0664 0.0640567 24.729 0.0386088 25.3937 0.0223189Z" fill="#DBE6EA"/>
<path d="M36.0286 1.76215C38.505 2.50504 40.7201 4.4238 42.2492 6.453C42.3122 6.53569 42.3753 6.61838 42.4404 6.70357C42.5821 6.89092 42.7224 7.07912 42.861 7.26881C42.8274 7.33612 42.7937 7.40342 42.7591 7.47275C42.6391 7.35918 42.6391 7.35918 42.5168 7.24332C41.8655 6.70794 41.1153 6.47121 40.2754 6.51117C38.2937 6.83314 36.2321 9.60755 35.0089 11.0419C34.9194 11.1449 34.8299 11.2477 34.7404 11.3506C33.9781 12.2408 33.2627 13.1622 32.5615 14.1012C32.5065 14.1744 32.4515 14.2476 32.3949 14.3231C29.8868 17.6765 27.6071 21.2028 28.1794 25.5286C28.5599 28.0981 29.2709 30.6158 30.1141 33.0685C30.1566 33.1925 30.199 33.3164 30.2427 33.4441C30.7577 34.9413 31.2999 36.4243 31.9003 37.8896C32.1255 38.4421 32.3326 38.9949 32.5179 39.562C33.2518 41.8007 34.4552 44.4102 36.6333 45.5662C37.3044 45.8812 37.8081 46.0332 38.5525 46.0258C38.6719 46.0249 38.7912 46.0239 38.9142 46.023C39.0052 46.0219 39.0961 46.0207 39.1899 46.0194C38.9207 46.3062 38.6676 46.5136 38.3231 46.7026C38.2337 46.7518 38.1443 46.8009 38.0522 46.8517C37.9565 46.9031 37.8608 46.9545 37.7622 47.0073C37.6624 47.0611 37.5626 47.1149 37.4597 47.1703C34.7795 48.5969 31.7654 49.8295 28.6864 49.8945C28.6864 49.8608 28.6864 49.8272 28.6864 49.7926C28.7494 49.7775 28.8124 49.7626 28.8772 49.7471C29.8591 49.4871 30.5754 49.08 31.112 48.1988C31.597 47.2519 31.6644 46.3208 31.6692 45.2738C31.6713 45.1633 31.6734 45.0528 31.6755 44.939C31.6826 43.4246 31.3757 42.1653 30.6888 40.8245C30.6226 40.6916 30.5565 40.5586 30.4908 40.4254C30.3137 40.0688 30.1341 39.7136 29.954 39.3585C29.7645 38.9842 29.5773 38.6087 29.3896 38.2333C29.0746 37.6037 28.7581 36.975 28.4404 36.3467C28.0747 35.6234 27.7112 34.899 27.349 34.174C26.9608 33.3975 26.5711 32.6216 26.1809 31.8459C26.0696 31.6245 25.9586 31.4028 25.8477 31.181C25.6724 30.8311 25.4961 30.4817 25.3191 30.1327C25.2548 30.0055 25.1908 29.8782 25.1272 29.7507C23.7172 26.9264 21.513 25.0859 18.5288 24.0841C17.6102 23.7932 16.6852 23.547 15.7355 23.3809C15.6508 23.3652 15.566 23.3495 15.4787 23.3333C14.6313 23.1824 13.782 23.1 12.9249 23.0304C12.8116 23.021 12.8116 23.021 12.6961 23.0115C12.1996 22.9704 11.7031 22.9308 11.2066 22.8919C10.9386 22.8707 10.6708 22.8491 10.4029 22.8274C8.49171 22.6738 6.58293 22.5369 4.66486 22.5268C4.59617 22.5261 4.52748 22.5253 4.45671 22.5244C3.54082 22.516 2.61344 22.5148 1.87328 23.1133C1.24681 23.9105 1.118 24.6794 1.12759 25.669C1.1268 25.7501 1.12601 25.8311 1.1252 25.9145C1.12684 26.4194 1.18816 26.8687 1.32327 27.3556C1.36164 27.5901 1.32695 27.7454 1.25506 27.9698C-0.069868 23.8618 -0.692301 19.9045 1.15308 15.8347C1.18673 15.8347 1.22038 15.8347 1.25506 15.8347C1.27122 15.926 1.2874 16.0172 1.30405 16.1112C1.5052 17.1537 1.74528 18.0819 2.58074 18.7921C2.65224 18.8593 2.72375 18.9267 2.79743 18.996C3.59792 19.5529 4.39433 19.8203 5.35996 19.8333C5.51209 19.836 5.66421 19.8386 5.81634 19.8414C5.89657 19.8428 5.97679 19.8441 6.05945 19.8455C8.03697 19.8812 9.99539 20.0186 11.9625 20.2197C12.1529 20.239 12.1529 20.239 12.3472 20.2588C13.5497 20.3838 14.7441 20.5282 15.9319 20.7554C16.0704 20.7812 16.2089 20.8065 16.3474 20.8315C16.4444 20.8492 16.5414 20.8667 16.6414 20.8849C17.459 21.0231 18.253 21.0713 19.0816 21.0673C19.2691 21.0666 19.2691 21.0666 19.4603 21.0659C21.2932 21.0422 23.0802 20.6786 24.6074 19.6078C24.7405 19.5159 24.7405 19.5159 24.8763 19.4222C25.6141 18.8686 26.1165 18.212 26.6497 17.4719C26.9233 17.0934 27.2147 16.736 27.52 16.3828C27.8972 15.9452 28.2617 15.5006 28.6164 15.0444C29.0934 14.4313 29.5838 13.8301 30.079 13.2314C30.4947 12.7287 30.9078 12.2241 31.3186 11.7175C31.6811 11.2707 32.0438 10.8241 32.4085 10.379C32.7837 9.92113 33.1571 9.46188 33.5303 9.00239C33.912 8.5323 34.2939 8.06249 34.6775 7.59385C34.7492 7.50604 34.8211 7.41824 34.895 7.32776C35.0446 7.14556 35.195 6.96395 35.3459 6.78283C36.5353 5.40153 36.5353 5.40153 36.9022 3.67776C36.795 2.96078 36.4058 2.37077 36.0286 1.76215Z" fill="#B4C8C9"/>
<path d="M39.2922 21.3394C40.2648 21.8257 40.6874 22.6953 41.0258 23.6849C41.4906 25.1852 41.3546 27.18 40.6498 28.5861C40.3002 29.1654 39.8443 29.6873 39.1903 29.9053C38.6049 29.9606 38.3175 29.8716 37.8645 29.4975C36.9307 28.5635 36.6195 27.2836 36.6021 26.0008C36.6054 23.8949 36.6054 23.8949 37.0488 22.971C37.0932 22.8776 37.1376 22.7841 37.1834 22.6877C37.6513 21.8172 38.2539 21.1719 39.2922 21.3394Z" fill="#5DAD46"/>
<path d="M13.5403 38.0312C14.6148 38.5942 15.4163 39.4594 15.8498 40.5909C16.0807 41.4374 16.0372 42.2815 15.6335 43.061C15.2036 43.5984 14.7637 43.8277 14.0968 43.9202C12.9167 43.9876 12.0022 43.5548 11.0956 42.8189C10.2837 42.0399 9.82054 41.1272 9.77637 40.0018C9.79527 39.3538 9.93144 38.7966 10.3778 38.3096C11.2831 37.5193 12.4687 37.5827 13.5403 38.0312Z" fill="#3E7BBD"/>
<path d="M7.30345 25.5839C8.52228 26.2092 9.32981 27.0883 9.75408 28.3978C9.94925 29.2178 9.87699 29.8647 9.46525 30.6026C9.20534 30.9772 8.90652 31.2302 8.49608 31.4355C7.25541 31.5312 6.20333 31.3886 5.21654 30.5815C5.15461 30.5267 5.0927 30.4721 5.02891 30.4157C4.96595 30.361 4.90299 30.3064 4.83811 30.25C4.18472 29.643 3.74205 28.9286 3.67893 28.0305C3.65144 26.6005 3.65144 26.6006 4.11114 26.0308C4.99891 25.1098 6.16034 25.1073 7.30345 25.5839Z" fill="#3E7BBD"/>
<path d="M27.4326 40.5622C28.3634 41.1661 29.1576 42.0605 29.4003 43.1654C29.5383 44.5327 29.5383 44.5327 29.2346 45.1157C28.752 45.6999 28.2987 46.0589 27.5238 46.1522C26.5029 46.2078 25.5836 45.8186 24.7983 45.1754C23.9877 44.4341 23.3933 43.655 23.2369 42.538C23.2113 41.8843 23.2871 41.3475 23.6898 40.8199C24.7727 39.6702 26.1161 39.8451 27.4326 40.5622Z" fill="#3E7BBD"/>
<path d="M21.1903 28.1023C22.2246 28.7437 22.8998 29.68 23.2819 30.8266C23.3739 31.6895 23.2687 32.3497 22.7722 33.07C22.2819 33.5728 21.7617 33.6935 21.0767 33.7265C19.934 33.7025 18.9819 33.148 18.1832 32.3562C17.3999 31.4266 17.099 30.651 17.1276 29.4347C17.1902 28.8378 17.387 28.4666 17.8008 28.0414C18.9562 27.3324 20.0113 27.4934 21.1903 28.1023Z" fill="#3E7BBD"/>
<path d="M9.74882 13.2586C10.0669 13.4921 10.2332 13.6458 10.4328 13.9983C10.4786 14.4623 10.3784 14.821 10.1715 15.2348C9.45184 16.0835 8.58681 16.6437 7.47553 16.8536C6.52506 16.9197 5.64389 16.9006 4.87516 16.2864C4.56683 15.9858 4.49766 15.8312 4.47363 15.4132C4.48206 14.8299 4.73016 14.5054 5.1301 14.1003C6.27723 13.0194 8.28928 12.4324 9.74882 13.2586Z" fill="#F05A2C"/>
<path d="M19.4989 2.91322C19.7037 3.11632 19.8054 3.31953 19.8431 3.60513C19.8181 4.25541 19.5293 4.75305 19.1014 5.22956C18.8144 5.47601 18.516 5.66213 18.1836 5.84142C18.1119 5.88362 18.04 5.92581 17.9661 5.96928C17.3859 6.25939 16.8197 6.2911 16.1823 6.3003C16.0599 6.30314 16.0599 6.30314 15.9352 6.30604C15.2793 6.29912 14.759 6.12585 14.2473 5.70827C13.9828 5.43533 13.8653 5.19344 13.8433 4.82167C13.8911 4.15894 14.3557 3.70146 14.8132 3.25857C16.0874 2.21981 18.1019 1.9675 19.4989 2.91322Z" fill="#F05A2C"/>
<path d="M28.3806 8.72024C28.6977 8.90364 28.902 9.09566 29.0945 9.4086C29.1951 9.81669 29.1563 10.184 28.9893 10.5685C28.3925 11.5499 27.416 11.9967 26.3504 12.3237C25.4605 12.4999 24.5793 12.4141 23.7918 11.958C23.5282 11.754 23.3306 11.5455 23.18 11.2441C23.1132 10.6881 23.217 10.3581 23.5261 9.90973C24.6191 8.60648 26.8073 7.95812 28.3806 8.72024Z" fill="#F05A2C"/>
<path d="M23.5886 14.0766C23.9324 14.2932 24.0957 14.4592 24.302 14.8167C24.3793 15.358 24.3367 15.7071 24.0271 16.1778C23.4202 16.9465 22.4118 17.5066 21.4467 17.672C20.4677 17.7423 19.5337 17.7529 18.722 17.1295C18.4589 16.862 18.3531 16.6096 18.3301 16.2443C18.3866 15.4978 18.9351 15.0565 19.4713 14.5952C19.8028 14.3396 20.1398 14.1529 20.5289 14.0009C20.6215 13.9647 20.7143 13.9283 20.8097 13.8909C21.6863 13.642 22.7637 13.6788 23.5886 14.0766Z" fill="#F05A2C"/>
<path d="M31.5103 3.24046C31.5915 3.23855 31.6727 3.23664 31.7564 3.23468C32.4656 3.24234 32.9968 3.45519 33.5307 3.92242C33.7489 4.3315 33.7604 4.67313 33.6837 5.127C33.2885 5.96896 32.5089 6.52545 31.6633 6.85421C30.613 7.22437 29.6315 7.33484 28.5849 6.86058C28.2545 6.63535 27.95 6.40656 27.7691 6.04478C27.7041 5.50289 27.7928 5.16328 28.0954 4.72428C29.0135 3.67868 30.1584 3.26234 31.5103 3.24046Z" fill="#F05A2C"/>
<path d="M14.6319 7.96273C14.9213 8.15075 15.0784 8.27691 15.2262 8.5937C15.296 9.24466 15.0526 9.71805 14.6749 10.2321C13.9421 11.1212 12.8389 11.4518 11.7343 11.5769C11.037 11.6153 10.3092 11.4277 9.74259 11.0097C9.41919 10.6946 9.31727 10.497 9.27979 10.0469C9.28929 9.52143 9.50492 9.23634 9.85536 8.85302C11.1004 7.65846 13.0347 7.15857 14.6319 7.96273Z" fill="#F05A2C"/>
<path d="M39.802 21.7493C40.6489 22.3594 40.9824 23.3565 41.1819 24.3525C41.3939 25.9233 41.2885 27.7813 40.3119 29.0915C39.868 29.5631 39.5146 29.8768 38.8523 29.9392C38.4077 29.9015 38.2045 29.7828 37.8645 29.4995C37.8308 29.3985 37.7971 29.2975 37.7625 29.1935C37.8217 29.1982 37.8808 29.203 37.9417 29.2078C38.5207 29.2347 38.8424 29.1854 39.2921 28.7856C40.323 27.6644 40.5608 26.2332 40.535 24.756C40.4831 23.7917 40.2585 22.9498 39.9039 22.0553C39.8703 21.9543 39.8367 21.8533 39.802 21.7493Z" fill="#4DA24A"/>
<path d="M23.3839 42.2463C23.6035 42.4659 23.6835 42.6409 23.8109 42.922C24.3236 43.9562 25.0715 44.6385 26.1723 45.0141C26.8939 45.1836 27.8327 45.2897 28.5081 44.9232C28.9279 44.5798 29.115 44.284 29.2985 43.776C29.3321 43.776 29.3657 43.776 29.4004 43.776C29.4537 44.4275 29.4112 44.8895 28.9925 45.4075C28.4873 45.9426 27.9682 46.1267 27.2462 46.1661C26.1203 46.1431 25.182 45.5488 24.3909 44.7926C23.7869 44.162 23.3647 43.4847 23.3584 42.5905C23.3669 42.4769 23.3752 42.3634 23.3839 42.2463Z" fill="#0A5475"/>
<path d="M17.1633 29.3975C17.3149 29.6849 17.4229 29.9695 17.5266 30.277C17.9369 31.3036 18.7405 31.977 19.7127 32.4567C19.7808 32.4913 19.8489 32.5259 19.919 32.5615C20.5665 32.8482 21.2588 32.8862 21.9342 32.673C22.5351 32.4049 22.8178 32.142 23.0778 31.539C23.1116 31.539 23.1452 31.539 23.1799 31.539C23.2306 32.1476 23.1129 32.5589 22.772 33.0685C22.2737 33.5669 21.7648 33.6918 21.0766 33.7251C19.9339 33.701 18.9817 33.1466 18.183 32.3547C17.3837 31.406 17.1022 30.629 17.1633 29.3975Z" fill="#0A5475"/>
<path d="M3.70259 27.358C3.87075 27.6103 3.97335 27.8142 4.085 28.0909C4.57766 29.2067 5.42029 29.9745 6.55789 30.4172C7.29266 30.5997 8.18143 30.6972 8.85871 30.3089C9.23571 30.0315 9.4197 29.715 9.61717 29.2955C9.65079 29.2955 9.68441 29.2955 9.71908 29.2955C9.76962 29.9019 9.6582 30.3204 9.31121 30.8251C8.82874 31.3236 8.47432 31.4556 7.78797 31.4689C6.68626 31.4712 5.85004 31.1431 5.02827 30.4172C4.9653 30.3625 4.90233 30.3078 4.83745 30.2515C4.22851 29.6858 3.72492 28.9674 3.69263 28.1148C3.6944 27.9799 3.6944 27.9799 3.69621 27.8424C3.69714 27.7513 3.69806 27.6604 3.699 27.5667C3.70019 27.4978 3.70137 27.429 3.70259 27.358Z" fill="#095374"/>
<path d="M9.92334 40.1049C10.147 40.3286 10.2364 40.5204 10.3694 40.806C10.5534 41.1848 10.7274 41.4541 11.045 41.7365C11.045 41.8038 11.045 41.8711 11.045 41.9404C11.1021 41.9678 11.1592 41.9951 11.218 42.0233C11.5589 42.199 11.8794 42.406 12.2042 42.6096C12.9452 43.0143 13.683 43.0538 14.5122 42.9602C14.9841 42.781 15.3889 42.4917 15.6339 42.0424C15.7077 41.8405 15.777 41.6367 15.8378 41.4306C15.8716 41.4306 15.9052 41.4306 15.9399 41.4306C15.9803 42.1858 15.8852 42.7481 15.4045 43.349C14.7532 43.867 14.192 43.9518 13.367 43.9333C12.2655 43.7747 11.2402 43.0919 10.5615 42.2229C10.068 41.5181 9.89379 40.96 9.92334 40.1049Z" fill="#095374"/>
<path d="M19.4987 2.91222C19.707 3.1189 19.8079 3.31933 19.8357 3.61131C19.8014 4.16977 19.6097 4.56271 19.3051 5.02462C19.2378 5.02462 19.1705 5.02462 19.1011 5.02462C19.0985 4.94838 19.0958 4.87214 19.0931 4.79359C19.0687 4.19113 19.0687 4.19113 18.8398 3.64797C17.9694 3.11234 17.0409 3.07493 16.0419 3.18907C15.647 3.28961 15.2916 3.43266 14.9201 3.59698C14.785 3.63405 14.6492 3.66917 14.5122 3.69894C15.0186 2.97325 15.7722 2.58088 16.6354 2.40235C17.6284 2.27244 18.6453 2.33451 19.4987 2.91222Z" fill="#E9402C"/>
<path d="M9.54712 13.1466C9.95145 13.3755 10.2026 13.5936 10.433 14.0006C10.4812 14.4886 10.373 14.8415 10.1398 15.269C9.92315 15.5302 9.92315 15.5302 9.61719 15.7342C9.62815 15.6665 9.63901 15.5988 9.65029 15.5291C9.70355 15.1364 9.74719 14.8114 9.6363 14.4276C9.04318 13.8345 8.40097 13.6462 7.57133 13.6437C6.78713 13.6589 6.18597 13.8266 5.49358 14.1791C5.36423 14.2422 5.36423 14.2422 5.23227 14.3065C5.16497 14.2729 5.09766 14.2393 5.02832 14.2046C6.17418 13.1096 8.01026 12.5177 9.54712 13.1466Z" fill="#E93E2A"/>
<path d="M14.4038 7.84947C14.7782 8.03798 15.0439 8.20512 15.226 8.59517C15.2806 9.21424 15.0745 9.67331 14.742 10.1826C14.6998 10.2308 14.6576 10.2791 14.6141 10.3288C14.5468 10.3288 14.4795 10.3288 14.4102 10.3288C14.4173 10.2463 14.4244 10.1639 14.4317 10.079C14.4813 9.47553 14.4813 9.47553 14.299 8.91742C13.6362 8.33904 12.7643 8.35429 11.9364 8.36413C11.4336 8.39982 11.005 8.52442 10.5351 8.69715C10.3995 8.73284 10.2637 8.76738 10.1272 8.79911C10.1272 8.73181 10.1272 8.66451 10.1272 8.59517C10.3586 8.46098 10.5902 8.3272 10.8219 8.19364C10.8874 8.15559 10.953 8.11753 11.0204 8.07832C11.987 7.52249 13.3464 7.45577 14.4038 7.84947Z" fill="#E93E2A"/>
<path d="M31.4655 3.26015C31.5492 3.25719 31.6329 3.25424 31.7192 3.25119C32.4524 3.24363 32.9778 3.4394 33.5305 3.92299C33.7476 4.33011 33.7637 4.6757 33.6834 5.12757C33.479 5.51534 33.3339 5.70045 32.9696 5.94337C32.9785 5.83078 32.9785 5.83078 32.9876 5.71592C33.0241 5.07976 33.0241 5.07976 32.7657 4.51571C31.8902 3.93206 31.0314 3.92633 30.0124 4.00584C29.7553 4.0645 29.5258 4.13774 29.2821 4.23688C29.0221 4.34066 28.7592 4.37829 28.4827 4.41375C28.7899 4.07336 29.0912 3.88076 29.5025 3.68079C29.6076 3.62887 29.7128 3.57694 29.8212 3.52345C30.3723 3.28007 30.8704 3.26703 31.4655 3.26015Z" fill="#E93E2A"/>
<path d="M23.5883 14.0758C23.9322 14.2925 24.0955 14.4584 24.3017 14.816C24.3943 15.4639 24.2716 15.8168 23.8938 16.3456C23.7929 16.3793 23.6919 16.4129 23.5879 16.4476C23.5927 16.3799 23.5974 16.3121 23.6023 16.2424C23.6193 15.8256 23.6298 15.5153 23.4476 15.1347C22.717 14.5431 21.9459 14.4403 21.0222 14.4619C20.4965 14.5265 20.0523 14.6929 19.5711 14.9084C19.305 15.0199 19.305 15.0199 18.999 15.0199C20.2193 13.8758 22.0046 13.3121 23.5883 14.0758Z" fill="#E93D2A"/>
<path d="M28.3808 8.72207C28.6975 8.90534 28.9039 9.09654 29.0947 9.41041C29.1872 9.86882 29.1562 10.2929 28.9035 10.6915C28.7961 10.8145 28.7961 10.8145 28.6867 10.94C28.6194 10.94 28.5521 10.94 28.4827 10.94C28.4751 10.8723 28.4675 10.8047 28.4597 10.7349C28.3725 10.1044 28.3725 10.1044 27.9984 9.61435C27.119 9.07318 26.0601 9.08312 25.0678 9.27537C24.8086 9.34628 24.5549 9.42231 24.3018 9.51243C24.4506 9.11821 24.6331 9.00553 25.0092 8.83041C25.0985 8.78796 25.1878 8.7455 25.2797 8.70175C26.17 8.31361 27.5027 8.29674 28.3808 8.72207Z" fill="#E93E2B"/>
<path d="M29.1965 3.80164C29.2639 3.83529 29.3311 3.86894 29.4004 3.90362C29.171 4.16492 29.171 4.16492 28.8905 4.41349C28.7559 4.37983 28.6213 4.34618 28.4827 4.31151C28.7182 4.14325 28.9538 3.975 29.1965 3.80164Z" fill="#E94935"/>
<path d="M17.1636 29.3975C17.3312 29.7327 17.4096 29.9562 17.4695 30.3152C17.4022 30.3152 17.3348 30.3152 17.2655 30.3152C17.2319 30.3826 17.1982 30.4498 17.1636 30.5192C17.1636 30.149 17.1636 29.7789 17.1636 29.3975Z" fill="#165D81"/>
<path d="M19.7129 14.4072C19.7801 14.4408 19.8475 14.4744 19.9168 14.5091C19.634 14.8233 19.4004 14.9871 18.999 15.1209C19.2253 14.8244 19.3998 14.6158 19.7129 14.4072Z" fill="#E94632"/>
</g>
<defs>
<clipPath id="clip0_1_2829">
<rect width="50" height="50" fill="white"/>
</clipPath>
</defs>
</svg>
