<svg width="50" height="50" viewBox="0 0 50 50" fill="none" xmlns="http://www.w3.org/2000/svg">
<path d="M32.1969 6.27897C32.3598 6.31957 32.3598 6.31957 32.5391 6.33799C32.6075 6.34659 32.6759 6.35519 32.7463 6.36405C32.82 6.37257 32.8936 6.38109 32.9695 6.38987C33.0458 6.39917 33.1221 6.40848 33.2007 6.41806C33.3623 6.43762 33.524 6.45683 33.6856 6.47573C33.9314 6.50452 34.1769 6.53448 34.4225 6.56462C34.5798 6.58351 34.7371 6.60233 34.8945 6.62108C34.9673 6.62994 35.0401 6.63881 35.1151 6.64795C35.7688 6.72348 36.3329 6.78119 36.9528 6.51051C37.0527 6.46785 37.1525 6.42519 37.2554 6.38123C37.3073 6.35839 37.3593 6.33555 37.4128 6.31202C37.6881 6.19121 37.9652 6.07482 38.242 5.9577C38.3257 5.92207 38.3257 5.92207 38.4111 5.88572C38.9522 5.65601 39.4979 5.43953 40.0473 5.23047C40.1295 5.19831 40.2117 5.16616 40.2965 5.13303C40.7623 4.95727 41.2413 4.78745 41.7464 4.81644C42.0944 5.01892 42.2291 5.16448 42.3809 5.53695C42.5158 6.3197 42.5158 6.3197 42.2995 6.66959C42.0472 6.92504 41.8025 7.01549 41.4671 7.11575C41.4057 7.13546 41.3442 7.15516 41.2809 7.17546C41.1488 7.21775 41.0164 7.25943 40.8838 7.30055C40.5297 7.41075 40.1774 7.5264 39.8248 7.64135C39.7537 7.66442 39.6825 7.6875 39.6092 7.71127C37.8352 8.28841 36.1339 9.00459 34.4462 9.79506C34.3835 9.82434 34.3208 9.85361 34.2563 9.88376C34.1381 9.93908 34.0201 9.99471 33.9023 10.0507C33.5064 10.2364 33.5064 10.2364 33.3153 10.2364C33.358 14.3011 33.4464 18.3238 33.881 22.3686C33.924 22.7692 33.9642 23.1702 34.0036 23.5712C34.0964 23.5682 34.1892 23.5652 34.2849 23.5621C37.7855 23.4839 41.1092 24.8753 43.6391 27.2705C43.7161 27.3421 43.7932 27.4136 43.8726 27.4873C45.4085 28.9585 46.4324 30.8819 46.9082 32.9486C46.9247 33.0191 46.9412 33.0897 46.9581 33.1624C47.1012 33.8483 47.1146 34.5297 47.1126 35.2284C47.1125 35.3194 47.1125 35.3194 47.1124 35.4122C47.1089 36.4019 47.0336 37.3339 46.7362 38.2825C46.7182 38.3409 46.7002 38.3992 46.6817 38.4593C46.1394 40.1614 45.2078 41.6357 43.9832 42.9282C43.9125 43.0044 43.8419 43.0805 43.7691 43.159C41.5556 45.471 38.196 46.9067 35.0052 46.9942C34.6802 46.9998 34.3555 47.0001 34.0305 46.9985C33.9622 46.9983 33.8939 46.9981 33.8235 46.9979C32.8029 46.9935 31.8157 46.9594 30.8204 46.7135C30.7134 46.6879 30.7134 46.6879 30.6043 46.6617C28.3168 46.0994 26.2523 45.0543 24.5452 43.4144C24.3724 43.2454 24.3724 43.2454 24.11 43.2723C23.912 43.3843 23.7211 43.4999 23.5293 43.6218C21.5805 44.8198 19.2727 45.5978 16.9705 45.6126C16.9071 45.6132 16.8437 45.6138 16.7785 45.6144C14.1286 45.6341 14.1286 45.6341 12.926 45.337C12.819 45.3114 12.819 45.3114 12.7098 45.2852C10.3293 44.7 8.25782 43.585 6.47368 41.8958C6.3966 41.8243 6.31953 41.7527 6.24012 41.679C4.70424 40.2078 3.68032 38.2845 3.2045 36.2178C3.18803 36.1472 3.17156 36.0766 3.15459 36.0039C3.01155 35.318 2.99815 34.6366 3.00018 33.9379C3.00022 33.8773 3.00027 33.8166 3.00032 33.7542C3.01049 30.8823 4.14404 28.3071 6.12955 26.2382C6.19997 26.1623 6.2704 26.0864 6.34295 26.0083C8.09606 24.1749 10.4721 23.0143 12.926 22.4528C12.9843 22.4387 13.0426 22.4246 13.1027 22.4101C14.1142 22.1749 15.1301 22.1723 16.1629 22.1732C16.2309 22.1732 16.2989 22.1733 16.369 22.1733C17.061 22.1753 17.7455 22.1833 18.432 22.2807C18.4535 22.2384 18.4751 22.1961 18.4973 22.1525C20.1256 18.9713 22.3901 16.0634 25.1424 13.7637C25.219 13.6966 25.2957 13.6295 25.3746 13.5603C26.1116 12.9183 26.8891 12.3373 27.6821 11.7665C27.821 11.6665 27.9596 11.5661 28.098 11.4654C29.9916 10.0879 32.0135 8.90705 34.0896 7.82753C34.1792 7.77844 34.1792 7.77844 34.2706 7.72837C34.4337 7.65546 34.4337 7.65546 34.6918 7.65546C34.6918 7.59868 34.6918 7.5419 34.6918 7.4834C34.6393 7.48019 34.5867 7.47697 34.5326 7.47366C33.6052 7.40704 32.6869 7.26983 31.7668 7.13928C31.7413 7.19211 31.7158 7.24494 31.6895 7.29937C31.324 8.00896 30.6781 8.62753 30.1322 9.20402C30.081 9.2581 30.0299 9.31218 29.9772 9.36789C27.962 11.4807 25.3858 13.3596 22.3619 13.5208C18.7068 13.5857 14.9066 12.8443 11.5495 11.3548C11.8578 10.8667 12.218 10.4258 12.5819 9.9783C12.6414 9.90355 12.701 9.82881 12.7623 9.7518C14.0272 8.17706 15.459 6.63397 17.0895 5.43613C17.2279 5.33234 17.362 5.2246 17.4957 5.11486C22.1409 1.33423 27.6787 3.26681 32.1969 6.27897ZM26.3468 14.624C26.2601 14.6925 26.1734 14.761 26.084 14.8317C25.6223 15.2039 25.1776 15.5924 24.7395 15.9921C24.5681 16.1472 24.3939 16.2974 24.2176 16.4468C23.4345 17.1313 22.7001 17.8778 22.0564 18.6947C21.8639 18.9373 21.6619 19.1699 21.4592 19.4041C20.1711 20.8613 20.1711 20.8613 19.4644 22.5388C19.5183 22.5556 19.5723 22.5724 19.628 22.5897C21.8129 23.2761 23.6555 24.1454 25.4005 25.6359C25.5723 25.7797 25.7445 25.9229 25.9167 26.0661C25.9867 26.0182 26.0566 25.9703 26.1287 25.9209C28.2223 24.5152 30.4974 23.911 32.9712 23.5712C32.9569 23.4692 32.9427 23.3673 32.9279 23.2622C32.359 19.183 32.0476 15.1272 31.9389 11.0107C30.4398 11.0107 27.4844 13.7248 26.3468 14.624Z" fill="#C5053C"/>
<path d="M4.83909 27.7891C4.89587 27.7891 4.95265 27.7891 5.01115 27.7891C5.01456 27.8638 5.01797 27.9385 5.02148 28.0155C5.20277 31.8177 5.75989 35.5076 8.36636 38.4569C8.41992 38.5177 8.47349 38.5785 8.52868 38.6411C10.2094 40.431 12.8253 41.2946 15.225 41.3914C17.5946 41.4406 19.8259 41.1993 21.9593 40.0915C21.9255 39.9904 21.8918 39.8892 21.8571 39.785C21.8337 39.7143 21.8103 39.6435 21.7862 39.5706C21.7245 39.3869 21.6614 39.2037 21.5973 39.0208C21.346 38.2933 21.1577 37.5795 21.0129 36.8223C20.9981 36.7561 20.9833 36.69 20.9681 36.6218C20.7228 35.2547 20.894 33.7605 21.271 32.4347C21.2958 32.343 21.3207 32.2513 21.3463 32.1568C21.6543 31.1378 22.1385 29.9927 22.8196 29.1656C22.848 29.1656 22.8763 29.1656 22.9056 29.1656C22.9107 29.2777 22.9107 29.2777 22.9159 29.392C23.0972 33.1942 23.6543 36.8841 26.2608 39.8334C26.3144 39.8942 26.3679 39.9549 26.4231 40.0176C28.1039 41.8075 30.7197 42.6711 33.1194 42.7679C36.2446 42.8327 39.1879 42.289 41.6604 40.2636C41.7335 40.2046 41.8067 40.1456 41.8822 40.0848C44.3999 37.947 45.7352 34.2552 46.134 31.0582C46.1907 31.0582 46.2475 31.0582 46.306 31.0582C46.3877 31.2891 46.4682 31.5203 46.548 31.7519C46.5817 31.8464 46.5817 31.8464 46.616 31.9429C46.9893 33.0351 47.1287 34.1021 47.1179 35.2523C47.1176 35.3419 47.1176 35.3419 47.1172 35.4334C47.1108 36.4154 47.0312 37.3439 46.7362 38.2848C46.7182 38.3432 46.7002 38.4016 46.6817 38.4617C46.1394 40.1638 45.2078 41.638 43.9832 42.9305C43.9125 43.0067 43.8419 43.0829 43.7691 43.1614C41.5556 45.4733 38.196 46.9091 35.0052 46.9966C34.6802 47.0021 34.3555 47.0025 34.0305 47.0009C33.9622 47.0007 33.8939 47.0005 33.8235 47.0003C32.8029 46.9959 31.8157 46.9617 30.8204 46.7159C30.7134 46.6902 30.7134 46.6902 30.6043 46.6641C28.3168 46.1017 26.2523 45.0566 24.5452 43.4168C24.3724 43.2477 24.3724 43.2477 24.11 43.2746C23.912 43.3866 23.7211 43.5023 23.5293 43.6241C21.5805 44.8221 19.2727 45.6002 16.9705 45.615C16.9071 45.6156 16.8437 45.6162 16.7785 45.6168C14.1286 45.6364 14.1286 45.6364 12.926 45.3394C12.819 45.3137 12.819 45.3137 12.7098 45.2876C10.3293 44.7023 8.25782 43.5874 6.47368 41.8981C6.3966 41.8266 6.31953 41.7551 6.24012 41.6814C4.70424 40.2101 3.68032 38.2868 3.2045 36.2201C3.18803 36.1495 3.17156 36.079 3.15459 36.0063C3.01155 35.3203 2.99815 34.6389 3.00018 33.9403C3.00022 33.8796 3.00027 33.819 3.00032 33.7565C3.00773 31.6636 3.58001 29.5004 4.83909 27.7891Z" fill="#9E0330"/>
<path d="M32.1972 6.27897C32.3601 6.31957 32.3601 6.31957 32.5394 6.33799C32.6078 6.34659 32.6762 6.35519 32.7466 6.36405C32.8571 6.37683 32.8571 6.37683 32.9698 6.38987C33.0461 6.39917 33.1224 6.40848 33.201 6.41806C33.3626 6.43762 33.5243 6.45683 33.6859 6.47573C33.9317 6.50453 34.1772 6.53448 34.4228 6.56462C34.5801 6.58351 34.7374 6.60233 34.8948 6.62108C34.9676 6.62995 35.0404 6.63881 35.1154 6.64795C35.7691 6.72348 36.3332 6.78119 36.9531 6.51051C37.053 6.46785 37.1528 6.42519 37.2557 6.38124C37.3076 6.35839 37.3596 6.33555 37.4131 6.31202C37.6884 6.19121 37.9655 6.07482 38.2423 5.9577C38.326 5.92207 38.326 5.92207 38.4114 5.88572C38.9525 5.65601 39.4982 5.43953 40.0476 5.23047C40.1298 5.19831 40.212 5.16616 40.2968 5.13303C40.7626 4.95727 41.2416 4.78745 41.7467 4.81644C42.0947 5.01892 42.2294 5.16448 42.3812 5.53695C42.5161 6.3197 42.5161 6.3197 42.2998 6.66959C42.0475 6.92504 41.8028 7.01549 41.4674 7.11575C41.406 7.13546 41.3445 7.15516 41.2812 7.17546C41.1491 7.21775 41.0167 7.25943 40.8841 7.30055C40.53 7.41075 40.1777 7.5264 39.8251 7.64135C39.754 7.66442 39.6828 7.6875 39.6095 7.71127C37.8355 8.28841 36.1342 9.00459 34.4465 9.79507C34.3838 9.82434 34.3211 9.85361 34.2566 9.88376C34.1384 9.93908 34.0204 9.99471 33.9026 10.0507C33.5067 10.2364 33.5067 10.2364 33.3156 10.2364C33.3073 18.3864 33.3073 18.3864 34.5239 26.4192C34.5681 26.6125 34.5681 26.6125 34.6061 26.9264C34.5117 27.0751 34.5117 27.0751 34.348 27.1845C34.0738 27.2006 34.0738 27.2006 33.8318 27.1845C33.5719 26.3953 33.3792 25.6066 33.2189 24.7918C33.1757 24.5761 33.1325 24.3605 33.0891 24.1449C33.0706 24.0511 33.0521 23.9573 33.033 23.8606C32.988 23.649 32.9389 23.4417 32.8845 23.2325C32.7998 22.8981 32.7452 22.5641 32.6976 22.2223C32.689 22.1606 32.6804 22.0989 32.6715 22.0353C32.6437 21.834 32.6166 21.6326 32.5898 21.4312C32.5804 21.3612 32.571 21.2913 32.5613 21.2192C32.1134 17.8615 31.9462 14.4807 31.8531 11.0967C29.9245 12.1463 28.0706 13.3477 26.3471 14.71C26.2604 14.7785 26.1737 14.8471 26.0843 14.9177C25.6227 15.2898 25.1781 15.6782 24.7401 16.0778C24.5668 16.2347 24.3907 16.3868 24.2125 16.5382C23.4614 17.195 22.7644 17.9088 22.1457 18.6916C21.952 18.9351 21.7491 19.1688 21.5455 19.4041C20.7854 20.3146 20.1437 21.3269 19.5769 22.3674C19.5399 22.424 19.5028 22.4806 19.4647 22.5388C19.4079 22.5388 19.3511 22.5388 19.2926 22.5388C19.2708 22.6105 19.2489 22.6822 19.2264 22.7561C19.1092 23.087 18.9612 23.3953 18.8026 23.7076C18.7723 23.768 18.742 23.8284 18.7108 23.8906C18.6147 24.0818 18.5181 24.2728 18.4215 24.4638C18.356 24.594 18.2904 24.7243 18.2249 24.8546C18.065 25.1726 17.9046 25.4904 17.744 25.808C17.4243 25.8253 17.3335 25.8211 17.0558 25.6359C17.112 25.2704 17.2365 24.9677 17.3895 24.6318C17.4142 24.5772 17.439 24.5225 17.4645 24.4662C17.5446 24.2895 17.6255 24.1132 17.7064 23.9368C17.7621 23.8149 17.8177 23.693 17.8734 23.5711C17.9823 23.3327 18.0915 23.0943 18.201 22.8561C18.3175 22.6022 18.4322 22.3475 18.5459 22.0922C19.4453 20.0909 20.7586 18.3169 22.2176 16.6887C22.2749 16.6242 22.2749 16.6242 22.3333 16.5583C23.2084 15.5738 24.131 14.609 25.1427 13.7637C25.2193 13.6966 25.296 13.6295 25.3749 13.5603C26.1119 12.9183 26.8894 12.3373 27.6824 11.7665C27.8213 11.6665 27.9599 11.5661 28.0983 11.4654C29.9919 10.0879 32.0138 8.90705 34.0899 7.82753C34.1795 7.77844 34.1795 7.77844 34.2709 7.72837C34.434 7.65546 34.434 7.65546 34.6921 7.65546C34.6921 7.59868 34.6921 7.5419 34.6921 7.4834C34.6396 7.48019 34.587 7.47697 34.5328 7.47366C33.6055 7.40704 32.6872 7.26983 31.7671 7.13928C31.7416 7.19211 31.7161 7.24494 31.6898 7.29937C31.3243 8.00896 30.6784 8.62753 30.1325 9.20402C30.0813 9.2581 30.0302 9.31218 29.9775 9.36789C27.9623 11.4807 25.3861 13.3596 22.3622 13.5208C18.7071 13.5857 14.9069 12.8443 11.5498 11.3548C11.8581 10.8667 12.2183 10.4258 12.5822 9.9783C12.6417 9.90356 12.7013 9.82881 12.7626 9.7518C14.0275 8.17706 15.4593 6.63397 17.0898 5.43613C17.2282 5.33234 17.3623 5.2246 17.496 5.11486C22.1412 1.33423 27.679 3.26681 32.1972 6.27897Z" fill="#339945"/>
<path d="M41.9185 4.90084C42.272 5.14927 42.3503 5.43271 42.4346 5.84719C42.4701 6.18974 42.4819 6.37293 42.2995 6.66797C42.0472 6.92341 41.8025 7.01386 41.4671 7.11413C41.4057 7.13383 41.3443 7.15353 41.281 7.17383C41.1488 7.21612 41.0164 7.2578 40.8838 7.29893C40.5297 7.40912 40.1774 7.52477 39.8248 7.63972C39.7537 7.6628 39.6825 7.68587 39.6092 7.70964C37.8353 8.28678 36.1339 9.00296 34.4462 9.79344C34.3835 9.82271 34.3209 9.85198 34.2563 9.88214C34.1382 9.93745 34.0202 9.99308 33.9023 10.0491C33.5064 10.2348 33.5064 10.2348 33.3154 10.2348C33.307 18.3847 33.307 18.3847 34.5237 26.4176C34.5679 26.6109 34.5679 26.6109 34.6058 26.9248C34.5114 27.0734 34.5114 27.0734 34.3477 27.1829C34.0735 27.199 34.0735 27.199 33.8316 27.1829C33.5716 26.3937 33.3789 25.605 33.2186 24.7901C33.1755 24.5745 33.1322 24.3588 33.0889 24.1432C33.0703 24.0494 33.0518 23.9556 33.0327 23.859C32.9878 23.6473 32.9386 23.4401 32.8842 23.2309C32.7995 22.8965 32.745 22.5625 32.6974 22.2206C32.6887 22.1589 32.6801 22.0973 32.6713 22.0337C32.6434 21.8324 32.6164 21.631 32.5895 21.4296C32.5801 21.3596 32.5707 21.2896 32.561 21.2175C32.1131 17.8599 31.946 14.4791 31.8528 11.0951C29.9242 12.1447 28.0704 13.3461 26.3469 14.7084C26.2601 14.7769 26.1734 14.8454 26.0841 14.9161C25.6224 15.2882 25.1778 15.6766 24.7398 16.0761C24.5665 16.2331 24.3904 16.3852 24.2122 16.5365C23.4611 17.1934 22.7641 17.9071 22.1455 18.69C21.9517 18.9334 21.7488 19.1672 21.5452 19.4024C20.7851 20.3129 20.1434 21.3253 19.5766 22.3658C19.5396 22.4224 19.5025 22.4789 19.4644 22.5372C19.4076 22.5372 19.3508 22.5372 19.2923 22.5372C19.2705 22.6089 19.2486 22.6806 19.2262 22.7545C19.1089 23.0854 18.9609 23.3937 18.8023 23.706C18.772 23.7664 18.7417 23.8268 18.7105 23.889C18.6144 24.0802 18.5178 24.2712 18.4212 24.4621C18.3557 24.5924 18.2902 24.7227 18.2247 24.853C18.0647 25.171 17.9044 25.4887 17.7438 25.8064C17.4241 25.8237 17.3332 25.8194 17.0555 25.6343C17.1117 25.2687 17.2362 24.9661 17.3892 24.6302C17.414 24.5755 17.4387 24.5209 17.4642 24.4646C17.5444 24.2879 17.6252 24.1115 17.7061 23.9352C17.7618 23.8133 17.8174 23.6914 17.8731 23.5695C17.982 23.331 18.0913 23.0927 18.2007 22.8545C18.3172 22.6005 18.4319 22.3458 18.5456 22.0906C19.445 20.0893 20.7583 18.3153 22.2174 16.6871C22.2746 16.6225 22.2746 16.6225 22.3331 16.5567C23.2082 15.5721 24.1308 14.6073 25.1424 13.762C25.2191 13.6949 25.2957 13.6278 25.3746 13.5587C26.1116 12.9166 26.8891 12.3356 27.6821 11.7648C27.821 11.6648 27.9596 11.5645 28.098 11.4637C29.9916 10.0862 32.0135 8.90542 34.0896 7.8259C34.1792 7.77681 34.1792 7.77681 34.2706 7.72674C34.4338 7.65384 34.4338 7.65384 34.6919 7.65384C34.6919 7.59706 34.6919 7.54028 34.6919 7.48177C34.6328 7.47756 34.5738 7.47335 34.5129 7.469C33.7223 7.40831 32.9387 7.30617 32.1531 7.20041C30.8314 7.02314 29.5447 6.94801 28.2127 6.94946C28.1322 6.94948 28.0518 6.9495 27.969 6.94953C26.7602 6.95115 25.5687 6.98726 24.3681 7.13765C24.2108 7.15558 24.0534 7.1735 23.896 7.19142C20.252 7.62744 16.8883 8.99481 13.584 10.5271C13.5261 10.554 13.4682 10.5808 13.4085 10.6085C13.0089 10.795 12.6168 10.9932 12.2296 11.2045C12.0657 11.2671 12.0657 11.2671 11.8076 11.1811C12.8926 10.5959 13.9885 10.0537 15.1144 9.5519C15.1885 9.51873 15.2625 9.48557 15.3388 9.4514C18.6864 7.95408 22.0819 6.78111 25.7446 6.36337C25.8117 6.35561 25.8788 6.34785 25.9479 6.33985C28.9124 6.01008 31.8832 6.18122 34.8294 6.59382C35.1274 6.63484 35.4255 6.67236 35.7242 6.7075C35.7866 6.71622 35.8489 6.72495 35.9132 6.73394C36.4528 6.77739 36.9317 6.52193 37.413 6.31039C37.6877 6.18973 37.9641 6.07317 38.2403 5.95607C38.296 5.93232 38.3518 5.90857 38.4092 5.8841C38.9586 5.65091 39.5148 5.43708 40.0742 5.22884C40.2029 5.18061 40.2029 5.18061 40.3343 5.1314C41.3267 4.76348 41.3267 4.76348 41.9185 4.90084Z" fill="#068C38"/>
<path d="M31.9387 6.10865C31.9955 6.19382 32.0522 6.27899 32.1107 6.36674C32.0341 6.36078 31.9574 6.35482 31.8784 6.34868C31.0519 6.28848 30.2294 6.2601 29.4008 6.2592C29.3043 6.25903 29.3043 6.25903 29.206 6.25885C27.3921 6.25955 25.5723 6.40927 23.7906 6.75838C23.6491 6.78606 23.5073 6.81287 23.3655 6.83911C19.5509 7.54662 15.8512 9.1215 12.4281 10.9273C12.2376 11.0124 12.2376 11.0124 11.9795 11.0124C12.0166 10.5932 12.2245 10.3566 12.4957 10.0553C12.5747 9.96558 12.6535 9.87574 12.7323 9.7858C12.776 9.7362 12.8198 9.6866 12.8649 9.6355C13.0361 9.4355 13.199 9.22954 13.363 9.02362C13.7907 8.49923 14.2551 8.01946 14.7341 7.54244C14.8768 7.4 15.0183 7.25645 15.1598 7.11279C15.7665 6.50257 16.4037 5.95928 17.0896 5.44018C17.3185 5.26436 17.5412 5.08099 17.7651 4.89884C22.1373 1.47194 27.7532 3.17932 31.9387 6.10865Z" fill="#38B449"/>
<path d="M25.2281 31.4883C26.8443 31.8713 28.4325 32.5397 29.6157 33.7251C29.6671 33.7704 29.7186 33.8158 29.7716 33.8625C30.2651 34.3092 30.6011 34.8795 30.9591 35.4343C31.1642 35.7502 31.3742 36.0628 31.5836 36.3759C31.6705 36.5063 31.7573 36.6367 31.8441 36.7671C32.0254 37.0392 32.2077 37.3106 32.3905 37.5817C32.4364 37.6499 32.4823 37.7181 32.5295 37.7884C32.6163 37.9174 32.7033 38.0463 32.7906 38.1749C33.6401 39.4404 33.6401 39.4404 33.5731 40.1774C32.9722 40.2077 32.4449 40.0966 31.8632 39.9516C31.7687 39.9283 31.6741 39.905 31.5767 39.881C29.9651 39.4755 28.6737 39.0429 27.4649 37.8546C27.4109 37.8017 27.3569 37.7488 27.3012 37.6943C26.1898 36.5173 25.6807 34.8731 25.3195 33.3326C25.3013 33.2559 25.2831 33.1792 25.2643 33.1002C25.1529 32.5921 25.0959 32.0948 25.1421 31.5743C25.1705 31.5459 25.1988 31.5175 25.2281 31.4883Z" fill="#DC6889"/>
<path d="M7.33357 30.1094C8.94975 30.4924 10.5379 31.1608 11.7211 32.3462C11.7726 32.3915 11.8241 32.4369 11.8771 32.4836C12.3706 32.9303 12.7065 33.5006 13.0646 34.0554C13.2696 34.3713 13.4797 34.6839 13.6891 34.997C13.7759 35.1274 13.8627 35.2578 13.9496 35.3882C14.1309 35.6603 14.3131 35.9317 14.496 36.2028C14.5419 36.271 14.5877 36.3392 14.635 36.4095C14.7217 36.5385 14.8087 36.6674 14.896 36.796C15.7456 38.0615 15.7456 38.0615 15.6786 38.7985C15.0777 38.8288 14.5503 38.7177 13.9687 38.5727C13.8742 38.5494 13.7796 38.5261 13.6822 38.5021C12.0706 38.0966 10.7791 37.664 9.57037 36.4757C9.51636 36.4228 9.46236 36.3699 9.40671 36.3154C8.29529 35.1384 7.78618 33.4942 7.42497 31.9537C7.40677 31.877 7.38856 31.8003 7.3698 31.7213C7.25838 31.2132 7.20136 30.7159 7.24754 30.1954C7.27593 30.167 7.30432 30.1386 7.33357 30.1094Z" fill="#DC6889"/>
<path d="M37.5757 25.3062C38.0911 25.554 38.4725 25.7984 38.7355 26.3244C38.8304 26.9533 38.6637 27.443 38.3053 27.959C37.2881 29.1339 35.6792 29.6593 34.1758 29.8517C33.7331 29.8774 33.2911 29.8809 32.8477 29.8786C32.7574 29.8784 32.7574 29.8784 32.6652 29.8782C31.9149 29.8753 31.1718 29.8525 30.4281 29.7442C30.3618 29.7348 30.2955 29.7254 30.2272 29.7157C29.674 29.6207 29.2441 29.4343 28.8903 28.9806C28.7034 28.6043 28.6699 28.1961 28.7559 27.787C29.282 26.8794 30.0846 26.1526 31.0787 25.8083C31.5157 25.7121 31.88 25.814 32.2647 26.025C32.5912 26.2433 32.8876 26.4967 33.1851 26.7526C33.3694 26.9008 33.5302 27.0051 33.7457 27.0987C33.7741 27.0419 33.8025 26.9852 33.8317 26.9267C33.8317 27.0118 33.8317 27.097 33.8317 27.1847C34.1538 27.1166 34.3773 27.0677 34.6168 26.8352C34.75 26.6265 34.863 26.4199 34.977 26.2008C35.5234 25.1843 36.5154 24.9555 37.5757 25.3062Z" fill="#9E0430"/>
<path d="M15.8457 23.9195C16.4225 24.2844 16.7734 24.8498 17.0555 25.4627C17.0555 25.5195 17.0555 25.5763 17.0555 25.6348C17.3774 25.7421 17.5758 25.7592 17.9158 25.7208C18.4084 25.4732 18.8203 25.1061 19.2214 24.7328C19.5657 24.4467 19.8493 24.3919 20.2877 24.4034C21.2744 24.5303 22.1078 25.3509 22.7335 26.0649C22.9575 26.4292 22.959 26.7666 22.9056 27.1833C22.8136 27.5148 22.6903 27.7736 22.4126 27.9848C20.7193 28.9007 17.8266 28.6946 16.0298 28.1848C14.8102 27.8083 13.6664 27.1751 13.0228 26.038C12.8838 25.5824 12.7889 25.1246 13.0178 24.6837C13.6573 23.8716 14.8757 23.5642 15.8457 23.9195Z" fill="#9E0430"/>
<path d="M41.9192 4.90483C42.2727 5.15326 42.351 5.43669 42.4353 5.85117C42.4707 6.19259 42.4824 6.37667 42.3017 6.67139C42.0432 6.93196 41.7864 7.02374 41.4436 7.12719C41.3802 7.14766 41.3168 7.16813 41.2514 7.18922C41.046 7.25528 40.8401 7.31942 40.6341 7.3836C40.3525 7.47354 40.0712 7.56447 39.7899 7.65547C39.7208 7.67768 39.6518 7.69989 39.5806 7.72277C38.9474 7.92771 38.3266 8.15999 37.7106 8.41188C37.3804 8.54414 37.1204 8.6417 36.7573 8.60416C36.5369 7.99821 36.3701 7.44226 36.3271 6.79751C36.9099 6.49366 37.5086 6.24268 38.1177 5.99635C38.2707 5.93424 38.2707 5.93424 38.4269 5.87087C41.222 4.743 41.222 4.743 41.9192 4.90483Z" fill="#504940"/>
<path d="M35.8102 39.4873C35.9876 39.6217 35.9876 39.6217 36.0683 39.8314C36.0836 40.0767 36.0622 40.2868 35.9822 40.5197C35.7294 40.765 35.592 40.7778 35.2402 40.7778C34.9499 40.6917 34.9499 40.6917 34.7778 40.5089C34.6653 40.1854 34.6865 39.9879 34.7778 39.6594C35.0516 39.3088 35.4192 39.368 35.8102 39.4873Z" fill="#DC6586"/>
<path d="M17.9156 38.7998C18.0931 38.9342 18.0931 38.9342 18.1737 39.1439C18.1891 39.3892 18.1676 39.5993 18.0877 39.8322C17.8349 40.0775 17.6975 40.0903 17.3457 40.0903C17.0553 40.0042 17.0553 40.0042 16.8833 39.8214C16.7708 39.4979 16.792 39.3004 16.8833 38.9719C17.1571 38.6213 17.5247 38.6805 17.9156 38.7998Z" fill="#DC6586"/>
<path d="M16.1953 6.28125C16.0531 6.65038 15.7745 6.89577 15.4983 7.1671C15.447 7.21817 15.3957 7.26924 15.3428 7.32186C15.1793 7.48442 15.0152 7.64636 14.851 7.8083C14.7399 7.9186 14.6288 8.02894 14.5177 8.13932C14.2457 8.40941 13.9732 8.67895 13.7004 8.94821C13.6436 8.91982 13.5868 8.89143 13.5283 8.86218C14.0674 8.25167 14.6249 7.66387 15.2005 7.08779C15.3162 6.97051 15.3162 6.97051 15.4343 6.85087C15.5079 6.77712 15.5814 6.70337 15.6573 6.62739C15.7235 6.56078 15.7898 6.49417 15.858 6.42555C16.0232 6.28125 16.0232 6.28125 16.1953 6.28125Z" fill="#36A648"/>
</svg>
