<svg width="50" height="50" viewBox="0 0 50 50" fill="none" xmlns="http://www.w3.org/2000/svg">
<path d="M24.8961 2C24.9647 2 25.0332 2 25.1039 2C25.1338 2.06298 25.1637 2.12596 25.1946 2.19085C26.1928 4.28669 27.2293 6.36287 28.2723 8.43679C28.5497 8.9888 28.8257 9.54148 29.1004 10.0948C29.2055 10.3064 29.3109 10.5178 29.4167 10.7291C29.9395 11.7763 30.4159 12.8023 30.7715 13.9184C31.1499 15.0487 31.633 16.4514 32.7081 17.0979C33.9111 17.6202 35.3318 17.5983 36.6205 17.6755C38.6503 17.8039 40.6584 18.1423 42.668 18.4444C43.529 18.5738 44.3907 18.6986 45.2528 18.8212C45.6 18.871 45.9473 18.9209 46.2946 18.9709C46.5161 19.0026 46.7377 19.0341 46.9593 19.0653C47.2647 19.1085 47.57 19.1527 47.8753 19.1972C47.9658 19.2097 48.0563 19.2222 48.1496 19.2351C48.7685 19.3269 48.7685 19.3269 49 19.5584C48.6752 19.8858 48.3501 20.2128 48.0247 20.5394C47.9144 20.6503 47.8042 20.7612 47.694 20.8722C47.5344 21.0332 47.3744 21.1938 47.2143 21.3543C47.1185 21.4506 47.0228 21.5469 46.9241 21.6461C46.6924 21.8739 46.4517 22.0881 46.2058 22.3005C45.7849 22.6654 45.3912 23.0518 45 23.4481C44.894 23.5546 44.894 23.5546 44.7859 23.6633C44.5626 23.8878 44.3397 24.1127 44.1169 24.3377C43.8228 24.6345 43.5284 24.931 43.2338 25.2273C43.1679 25.294 43.1021 25.3606 43.0343 25.4294C42.646 25.8197 42.2446 26.1863 41.8279 26.5461C41.4934 26.8424 41.1807 27.1592 40.8669 27.4773C40.7985 27.546 40.7302 27.6147 40.6598 27.6856C40.4439 27.9027 40.2284 28.1201 40.013 28.3377C39.7287 28.6248 39.444 28.9115 39.1591 29.198C39.0638 29.2947 39.0638 29.2947 38.9665 29.3932C38.4467 29.9159 37.9153 30.4405 37.3052 30.8571C36.8637 31.5482 37.3756 32.9709 37.5116 33.7398C37.5374 33.8877 37.5632 34.0356 37.5889 34.1836C37.644 34.4997 37.6994 34.8158 37.7549 35.1319C37.8428 35.6317 37.9298 36.1316 38.0167 36.6316C38.2638 38.0525 38.5121 39.4731 38.761 40.8937C38.8987 41.6801 39.0359 42.4665 39.1724 43.2531C39.2587 43.7502 39.3457 44.2472 39.4334 44.744C39.4876 45.0525 39.5411 45.3611 39.5944 45.6697C39.6193 45.8128 39.6445 45.9559 39.67 46.0989C39.7047 46.2939 39.7382 46.4892 39.7717 46.6845C39.7908 46.7937 39.81 46.9029 39.8297 47.0155C39.8558 47.2849 39.8392 47.4602 39.7532 47.7143C36.4359 46.0185 36.4359 46.0185 35.2078 45.3377C34.1892 44.7735 33.1538 44.2438 32.1169 43.7143C31.0671 43.1782 30.0192 42.641 28.987 42.0714C28.7253 41.9278 28.4634 41.7843 28.2016 41.6409C27.9851 41.5222 27.7687 41.4032 27.5525 41.284C27.2334 41.1087 26.913 40.9358 26.5919 40.7642C26.4069 40.6647 26.2232 40.563 26.0395 40.4613C25.9268 40.4015 25.8142 40.3417 25.6981 40.28C25.5485 40.1989 25.5485 40.1989 25.3959 40.1161C24.9346 39.9737 24.6412 40.1583 24.2217 40.3553C24.1374 40.3998 24.0532 40.4444 23.9663 40.4903C23.8229 40.5656 23.8229 40.5656 23.6767 40.6424C23.5755 40.6961 23.4744 40.7498 23.3701 40.8052C23.2637 40.8613 23.1572 40.9173 23.0476 40.9751C22.8303 41.0896 22.6132 41.2043 22.3961 41.3191C22.1302 41.4597 21.8639 41.5996 21.5974 41.739C20.8831 42.1129 20.1706 42.4901 19.4606 42.8722C19.2205 43.0014 18.9804 43.1306 18.7403 43.2597C18.6794 43.2925 18.6185 43.3253 18.5557 43.359C17.4943 43.9295 16.4252 44.4842 15.3529 45.0339C14.3814 45.5323 13.4203 46.0461 12.4647 46.5744C11.7063 46.991 10.9341 47.3643 10.1429 47.7143C10.222 46.8987 10.3568 46.0959 10.497 45.2889C10.5226 45.1401 10.5482 44.9914 10.5738 44.8426C10.6286 44.5241 10.6836 44.2055 10.7388 43.887C10.826 43.3832 10.9127 42.8794 10.9993 42.3755C11.2301 41.0338 11.4615 39.6923 11.6932 38.3509C11.8456 37.468 11.9979 36.5851 12.1496 35.7021C12.2357 35.2013 12.3222 34.7006 12.409 34.1999C12.4628 33.8886 12.5163 33.5773 12.5697 33.266C12.5945 33.1218 12.6195 32.9776 12.6446 32.8334C12.6789 32.6365 12.7126 32.4395 12.7462 32.2424C12.7653 32.1323 12.7843 32.0221 12.8039 31.9086C12.8418 31.6281 12.8663 31.3731 12.8442 31.0909C12.6469 30.8266 12.6469 30.8266 12.3766 30.5844C12.2898 30.5011 12.2031 30.4178 12.1136 30.332C11.8859 30.1221 11.6523 29.9198 11.4176 29.7177C11.0002 29.3528 10.6068 28.9692 10.2175 28.5747C10.1492 28.5059 10.0808 28.4372 10.0104 28.3664C9.72201 28.0763 9.43421 27.7856 9.14636 27.4949C8.93437 27.281 8.72206 27.0674 8.50974 26.8539C8.44619 26.7895 8.38263 26.7251 8.31715 26.6587C8.00071 26.3405 7.67879 26.035 7.33908 25.7417C6.92101 25.3805 6.53085 24.997 6.14286 24.6039C6.07221 24.5329 6.00156 24.4618 5.92877 24.3886C5.63042 24.0886 5.33269 23.7879 5.0349 23.4873C4.8157 23.2662 4.59617 23.0454 4.37662 22.8247C4.27788 22.7246 4.27788 22.7246 4.17715 22.6226C3.78315 22.2265 3.37598 21.8531 2.95312 21.488C2.726 21.2895 2.51112 21.0814 2.2987 20.8673C2.22169 20.7899 2.14468 20.7126 2.06534 20.6329C1.98806 20.5548 1.91079 20.4766 1.83117 20.3961C1.71043 20.2747 1.71043 20.2747 1.58726 20.1508C1.39126 19.9536 1.19552 19.7561 1 19.5584C1.27292 19.2855 1.44822 19.294 1.82882 19.2396C2.02744 19.2105 2.02744 19.2105 2.23007 19.1809C2.37765 19.1602 2.52523 19.1395 2.67281 19.1189C2.8276 19.0966 2.98237 19.0742 3.13714 19.0517C3.5582 18.9909 3.97942 18.9311 4.40066 18.8714C4.84118 18.8089 5.28155 18.7454 5.72194 18.6819C6.55685 18.5618 7.39188 18.4425 8.22696 18.3235C9.4519 18.149 10.6767 17.9732 11.9014 17.7974C12.0821 17.7715 12.2628 17.7455 12.4436 17.7196C12.5318 17.7069 12.62 17.6942 12.7109 17.6812C13.2356 17.6059 13.7602 17.5309 14.2849 17.4561C14.6115 17.4095 14.9381 17.3628 15.2647 17.3161C15.4161 17.2945 15.5675 17.2729 15.7189 17.2514C15.9258 17.222 16.1326 17.1924 16.3394 17.1628C16.4551 17.1463 16.5708 17.1298 16.69 17.1128C16.8435 17.0891 16.8435 17.0891 17 17.0649C17.0956 17.0509 17.1912 17.0369 17.2897 17.0224C17.5457 16.9799 17.5457 16.9799 17.7005 16.7122C17.7822 16.5462 17.7822 16.5462 17.8655 16.3768C17.8962 16.3157 17.9268 16.2547 17.9584 16.1918C18.0599 15.9888 18.1586 15.7847 18.2573 15.5804C18.3282 15.4371 18.3993 15.2939 18.4705 15.1507C18.6586 14.7716 18.8444 14.3913 19.0297 14.0108C19.2142 13.6333 19.4008 13.2568 19.5873 12.8803C20.2569 11.5255 20.9158 10.1659 21.5645 8.80097C22.1755 7.52028 22.8171 6.25465 23.4545 4.98701C23.646 4.60616 23.8375 4.22528 24.0286 3.84424C24.1462 3.60976 24.264 3.37538 24.3821 3.1411C24.4345 3.03651 24.487 2.93193 24.541 2.82417C24.6103 2.68652 24.6103 2.68652 24.6809 2.54608C24.802 2.30325 24.802 2.30325 24.8961 2Z" fill="#7D0E0E"/>
<path d="M25.1035 25.375C25.5704 25.8418 25.5704 25.8418 25.7659 26.1745C25.8096 26.2479 25.8534 26.3213 25.8985 26.3969C25.9447 26.4754 25.991 26.5539 26.0386 26.6347C26.4346 27.295 26.8423 27.9441 27.2723 28.5828C27.7128 29.2374 28.1483 29.8948 28.5775 30.5568C28.6336 30.6433 28.6897 30.7298 28.7475 30.8189C28.8613 30.9945 28.9751 31.1701 29.0889 31.3457C29.3703 31.78 29.6525 32.2138 29.9347 32.6477C30.0472 32.8209 30.1598 32.994 30.2723 33.1672C30.3281 33.2529 30.3838 33.3386 30.4412 33.4269C34.9996 40.4399 34.9996 40.4399 35.1683 40.6995C35.2812 40.8732 35.3941 41.0469 35.507 41.2205C35.7833 41.6456 36.0596 42.0707 36.3357 42.4959C37.2638 43.9252 38.1963 45.3516 39.1295 46.7776C39.0609 46.8119 38.9923 46.8462 38.9217 46.8815C38.6578 46.77 38.6578 46.77 38.3227 46.5946C38.2624 46.5632 38.2021 46.5319 38.14 46.4997C37.9412 46.3962 37.7432 46.2915 37.5451 46.1867C37.4062 46.114 37.2674 46.0414 37.1285 45.9688C36.2643 45.5162 35.4072 45.0514 34.5533 44.5795C33.6125 44.0633 32.6565 43.5773 31.7009 43.0893C30.6425 42.5488 29.5861 42.0069 28.5451 41.4334C27.4071 40.8082 26.2547 40.2094 25.1035 39.6088C25.1035 34.9116 25.1035 30.2145 25.1035 25.375Z" fill="#FD1B1B"/>
<path d="M1.93555 19.8711C2.71451 19.9361 3.44475 20.1024 4.20178 20.2932C4.47228 20.3599 4.74281 20.4264 5.01347 20.4924C5.08403 20.5097 5.15458 20.5269 5.22728 20.5447C6.04309 20.7428 6.86248 20.9243 7.6823 21.1049C7.83967 21.1396 7.99705 21.1743 8.15442 21.209C8.396 21.2623 8.63758 21.3155 8.87917 21.3687C9.82073 21.5764 10.7612 21.7888 11.7018 22.001C13.1147 22.3195 14.5283 22.6354 15.9423 22.949C17.1342 23.2133 18.3253 23.481 19.516 23.7506C21.1699 24.1248 22.8255 24.4912 24.481 24.8581C24.481 24.9267 24.481 24.9952 24.481 25.0659C24.3337 25.1411 24.3337 25.1411 24.1835 25.2178C21.9166 26.3704 21.9166 26.3704 19.6758 27.5724C18.632 28.1497 17.5738 28.6974 16.5118 29.2404C15.9068 29.5501 15.3036 29.8611 14.7083 30.1893C14.571 30.2644 14.571 30.2644 14.431 30.341C14.2661 30.4318 14.102 30.5238 13.9387 30.6175C13.7233 30.7355 13.7233 30.7355 13.3641 30.8841C12.9509 30.7531 12.6561 30.4306 12.3467 30.1394C12.2881 30.0847 12.2295 30.0301 12.1692 29.9738C11.4308 29.28 10.7196 28.5587 10.007 27.8386C9.73713 27.566 9.46693 27.2937 9.1965 27.0217C9.13685 26.9611 9.0772 26.9006 9.01574 26.8383C8.70943 26.5302 8.39679 26.2357 8.06798 25.9516C7.65773 25.5968 7.27411 25.2213 6.89334 24.8354C6.825 24.7666 6.75666 24.6979 6.68624 24.6271C6.39782 24.337 6.11002 24.0463 5.82216 23.7556C5.61018 23.5417 5.39787 23.3281 5.18555 23.1146C5.12199 23.0502 5.05844 22.9858 4.99296 22.9194C4.60409 22.5284 4.20149 22.1603 3.78418 21.7998C3.56591 21.6094 3.35804 21.4109 3.15308 21.2063C3.0446 21.098 3.0446 21.098 2.93392 20.9876C2.8616 20.9148 2.78928 20.8421 2.71477 20.7672C2.63923 20.6921 2.5637 20.6169 2.48587 20.5395C2.379 20.4324 2.379 20.4324 2.26996 20.3232C2.20561 20.2587 2.14126 20.1943 2.07495 20.1278C1.93555 19.975 1.93555 19.975 1.93555 19.8711Z" fill="#FE1B1B"/>
<path d="M48.0646 19.9744C46.5168 21.5419 46.5168 21.5419 45.8775 22.0799C45.6094 22.3185 45.3609 22.5752 45.1101 22.8315C44.7114 23.2372 44.2994 23.5965 43.8434 23.9362C43.5437 24.1723 43.2655 24.4287 42.9867 24.6887C42.4134 25.2214 41.8182 25.7186 41.2075 26.2082C41.0899 26.3052 40.9725 26.4023 40.8552 26.4996C40.1476 27.0818 39.423 27.6259 38.662 28.1367C38.585 28.1887 38.508 28.2407 38.4286 28.2943C37.5882 28.8486 36.8946 29.1563 35.8829 28.9704C35.6332 28.9103 35.3884 28.8407 35.1425 28.7666C35.0492 28.7391 34.9559 28.7116 34.8598 28.6832C31.7641 27.7449 28.5204 26.514 25.623 25.0653C25.623 24.9967 25.623 24.9282 25.623 24.8575C27.7873 24.3616 29.9515 23.8665 32.123 23.403C33.725 23.0608 35.3204 22.693 36.9154 22.3196C38.1342 22.0343 39.3543 21.7566 40.5768 21.4874C41.4338 21.2986 42.29 21.1058 43.1461 20.913C43.4185 20.8518 43.6909 20.7906 43.9633 20.7295C44.7196 20.5596 45.4757 20.3891 46.2302 20.211C46.3376 20.1858 46.4449 20.1607 46.5555 20.1347C46.7453 20.09 46.9348 20.0447 47.1242 19.9985C47.7183 19.859 47.7183 19.859 48.0646 19.9744Z" fill="#C61414"/>
<path d="M24.6883 25.5859C24.7226 25.5859 24.7569 25.5859 24.7922 25.5859C24.8211 26.7876 24.7373 27.9846 24.6623 29.1833C24.6555 29.2933 24.6487 29.4033 24.6417 29.5167C24.5265 31.3493 24.3579 33.1673 24.1136 34.9871C24.0679 35.33 24.0254 35.6731 23.9838 36.0165C23.6905 38.3589 23.6905 38.3589 22.8182 39.0924C22.7667 39.1414 22.7153 39.1905 22.6623 39.241C20.2056 41.5332 16.9405 43.297 14.0734 45.0283C13.9871 45.0805 13.9007 45.1328 13.8117 45.1866C13.646 45.2864 13.4802 45.3857 13.3139 45.4845C13.2401 45.5289 13.1662 45.5734 13.0901 45.6192C13.0248 45.6581 12.9596 45.6969 12.8924 45.737C12.7227 45.8403 12.7227 45.8403 12.6364 46.0535C12.464 46.1248 12.2907 46.1937 12.1169 46.2613C11.8429 46.4235 11.5754 46.594 11.3072 46.7657C11.2315 46.805 11.1559 46.8442 11.0779 46.8846C11.0093 46.8504 10.9408 46.8161 10.8701 46.7807C10.9444 46.6698 11.0188 46.559 11.0954 46.4447C11.8384 45.3342 12.5706 44.2172 13.297 43.0958C13.5785 42.6615 13.8607 42.2276 14.1428 41.7937C14.2554 41.6206 14.368 41.4474 14.4805 41.2742C16.9567 37.4647 19.4329 33.6552 21.9091 29.8457C21.9928 29.7169 21.9928 29.7169 22.0781 29.5856C22.1899 29.4136 22.3017 29.2416 22.4135 29.0697C22.7067 28.6187 22.9997 28.1677 23.2926 27.7166C23.3534 27.623 23.4142 27.5294 23.4769 27.4329C23.5928 27.2544 23.7088 27.0758 23.8247 26.8972C23.9276 26.7387 24.0307 26.5804 24.134 26.4221C24.2229 26.2856 24.3116 26.149 24.3997 26.012C24.4932 25.8682 24.5903 25.7267 24.6883 25.5859Z" fill="#C61414"/>
<path d="M24.4809 25.375C24.3392 25.7642 24.1614 26.0859 23.9293 26.4286C23.8267 26.5812 23.8267 26.5812 23.7219 26.7369C23.6122 26.8985 23.6122 26.8985 23.5004 27.0633C23.3482 27.2894 23.1962 27.5156 23.0442 27.7419C22.9698 27.8525 22.8954 27.9631 22.8188 28.0771C22.5484 28.4812 22.2829 28.8882 22.0198 29.2971C21.9752 29.3664 21.9305 29.4358 21.8845 29.5073C21.7934 29.6488 21.7023 29.7903 21.6113 29.9318C21.3439 30.3465 21.0746 30.76 20.8056 31.1737C20.6911 31.3497 20.5767 31.5257 20.4622 31.7017C20.4052 31.7894 20.3482 31.8771 20.2894 31.9674C20.0069 32.4019 19.7244 32.8365 19.4419 33.2711C19.3294 33.4443 19.2168 33.6174 19.1043 33.7906C19.0485 33.8763 18.9928 33.962 18.9354 34.0503C14.377 41.0633 14.377 41.0633 14.2081 41.3231C14.0957 41.496 13.9833 41.6689 13.871 41.8418C13.587 42.2787 13.3031 42.7155 13.019 43.1522C12.9622 43.2397 12.9053 43.3272 12.8467 43.4173C12.7338 43.5908 12.6209 43.7643 12.508 43.9378C12.2299 44.3652 11.953 44.7933 11.6781 45.2228C11.5987 45.3466 11.5987 45.3466 11.5177 45.4729C11.4172 45.6296 11.3171 45.7865 11.2172 45.9437C11.1044 46.1195 10.9878 46.293 10.8705 46.4659C10.8362 46.4659 10.8019 46.4659 10.7666 46.4659C10.8209 45.2536 11.032 44.0747 11.2406 42.8815C11.278 42.665 11.3153 42.4484 11.3526 42.2319C11.5373 41.1625 11.7257 40.0939 11.916 39.0256C11.9331 38.9287 11.9502 38.8319 11.9679 38.7321C12.0536 38.2492 12.1414 37.7668 12.2335 37.285C12.4179 36.3069 12.5591 35.3452 12.6335 34.3523C12.873 31.5149 12.873 31.5149 13.5702 30.864C14.3105 30.2862 15.203 29.9761 16.0824 29.6754C16.6323 29.4837 17.1226 29.2009 17.6237 28.9075C18.5994 28.365 19.5914 27.8554 20.5848 27.3464C21.6013 26.8255 22.6089 26.2914 23.6059 25.7338C23.6917 25.6861 23.7776 25.6384 23.866 25.5893C23.9773 25.5268 23.9773 25.5268 24.0908 25.4631C24.2731 25.375 24.2731 25.375 24.4809 25.375Z" fill="#FE1B1B"/>
<path d="M24.7921 3.14062C24.8264 3.14062 24.8607 3.14062 24.896 3.14062C24.896 10.1692 24.896 17.1978 24.896 24.4393C24.5189 24.2508 24.4054 24.174 24.1557 23.8679C23.7048 23.3352 23.2111 22.8509 22.7142 22.3614C22.1687 21.8241 21.6367 21.286 21.1383 20.7047C20.7488 20.2679 20.3258 19.8629 19.909 19.4523C19.1711 18.7255 18.4472 18.0016 17.8311 17.1666C17.8849 17.0595 17.9387 16.9524 17.9941 16.8421C18.2002 16.4319 18.406 16.0215 18.6117 15.6111C18.6995 15.4359 18.7875 15.2607 18.8755 15.0856C19.3786 14.0844 19.8734 13.0801 20.3542 12.068C21.004 10.7012 21.6836 9.34971 22.3635 7.99777C22.6054 7.51684 22.8471 7.03581 23.0884 6.55459C23.1458 6.44004 23.2032 6.32549 23.2624 6.20747C23.6585 5.41479 24.0439 4.61761 24.4174 3.81402C24.6782 3.25456 24.6782 3.25456 24.7921 3.14062Z" fill="#FE1B1B"/>
<path d="M25.5195 25.375C25.9453 25.5214 26.2942 25.7376 26.666 25.9858C26.8637 26.1118 26.8637 26.1118 27.0841 26.1506C27.2858 26.2062 27.2858 26.2062 27.4182 26.3431C27.648 26.5672 27.8972 26.7119 28.1729 26.8762C28.2899 26.9464 28.4068 27.0165 28.5273 27.0888C28.5895 27.1259 28.6517 27.1629 28.7157 27.2011C29.0463 27.3984 29.3757 27.5975 29.705 27.7967C29.7723 27.8373 29.8395 27.878 29.9088 27.9199C31.3661 28.8035 32.798 29.7293 34.2078 30.6867C34.2859 30.7395 34.364 30.7923 34.4445 30.8467C34.6582 30.9935 34.8683 31.1445 35.078 31.2971C35.143 31.3408 35.2081 31.3846 35.2751 31.4297C36.3347 32.2131 36.5226 33.8198 36.8247 35.0308C36.8469 35.1184 36.8691 35.206 36.8919 35.2963C37.3573 37.1353 37.7606 38.9863 38.1487 40.8429C38.2508 41.3303 38.3548 41.8173 38.4588 42.3043C38.51 42.5442 38.5609 42.7842 38.6116 43.0242C38.7259 43.5622 38.8478 44.0965 38.9838 44.6295C39.0974 45.0768 39.1887 45.5156 39.2533 45.9724C39.2698 46.0865 39.2862 46.2006 39.3032 46.3182C39.3146 46.4012 39.326 46.4843 39.3377 46.5698C38.9809 46.2442 38.7393 45.8834 38.4936 45.4724C37.9996 44.6636 37.4761 43.876 36.9481 43.0893C36.4105 42.2874 35.8778 41.4843 35.3719 40.6618C34.9632 40.0001 34.5368 39.3501 34.1104 38.6997C34.0722 38.6413 34.0339 38.583 33.9945 38.5228C33.8039 38.2321 33.6132 37.9414 33.4225 37.6507C33.116 37.1829 32.8111 36.7141 32.5065 36.2451C32.4525 36.1619 32.3984 36.0786 32.3427 35.9928C32.2349 35.8268 32.1271 35.6608 32.0193 35.4948C31.7403 35.0652 31.4611 34.6357 31.1819 34.2062C31.0693 34.033 30.9568 33.8598 30.8442 33.6867C30.7885 33.601 30.7328 33.5153 30.6754 33.4269C30.5065 33.1672 30.3377 32.9075 30.1689 32.6477C30.1132 32.562 30.0574 32.4762 30 32.3879C29.8876 32.215 29.7752 32.0421 29.6628 31.8692C29.3789 31.4324 29.095 30.9956 28.8109 30.5588C28.2339 29.6716 27.6572 28.7842 27.0829 27.8952C26.8351 27.5117 26.5867 27.1288 26.3373 26.7463C26.2842 26.6647 26.231 26.583 26.1762 26.4989C26.0736 26.3411 25.9707 26.1836 25.8677 26.0261C25.5195 25.4906 25.5195 25.4906 25.5195 25.375Z" fill="#C61414"/>
<path d="M17.9017 17.6184C17.9578 17.6772 18.0139 17.736 18.0717 17.7966C18.1271 17.8535 18.1824 17.9104 18.2394 17.9691C18.3628 18.1045 18.4851 18.241 18.6044 18.3801C19.115 18.9751 19.6627 19.5258 20.2211 20.0758C21.2215 21.0613 21.2215 21.0613 21.6221 21.5291C22.154 22.1498 22.7503 22.7096 23.3347 23.2801C23.4242 23.3685 23.5137 23.4568 23.6058 23.5478C23.6866 23.6268 23.7674 23.7059 23.8507 23.7873C24.0664 24.0251 24.222 24.263 24.3769 24.5433C23.5378 24.4952 22.7352 24.317 21.9197 24.124C21.5996 24.0483 21.2792 23.974 20.9589 23.8997C20.7911 23.8608 20.6234 23.8218 20.4557 23.7828C19.5844 23.5802 18.7114 23.3859 17.838 23.1927C17.6828 23.1583 17.5276 23.1239 17.3724 23.0894C16.6585 22.9311 15.9444 22.7733 15.2303 22.6159C14.8267 22.527 14.4233 22.4378 14.0198 22.3485C13.9408 22.3311 13.8618 22.3136 13.7804 22.2956C12.8275 22.0845 11.877 21.8663 10.9289 21.6342C9.86997 21.3753 8.80634 21.1422 7.74058 20.9135C5.23813 20.3758 5.23813 20.3758 4.16094 20.136C4.02031 20.1048 3.87963 20.0738 3.7389 20.0431C3.54532 20.0008 3.35195 19.9575 3.1586 19.9143C3.04976 19.8902 2.94093 19.8661 2.8288 19.8413C2.55876 19.7641 2.55876 19.7641 2.24707 19.5563C4.20397 19.2691 6.16101 18.9828 8.11821 18.6975C9.02694 18.5651 9.93563 18.4323 10.8442 18.2988C11.636 18.1825 12.4279 18.0668 13.2199 17.9517C13.6394 17.8908 14.0588 17.8295 14.4781 17.7676C14.8727 17.7093 15.2673 17.6518 15.6621 17.5949C15.807 17.5739 15.9519 17.5526 16.0968 17.5309C16.2945 17.5015 16.4923 17.4731 16.6901 17.4448C16.8008 17.4287 16.9115 17.4125 17.0256 17.3958C17.3863 17.369 17.6178 17.3901 17.9017 17.6184Z" fill="#FE1B1B"/>
<path d="M33.5704 17.4869C33.7284 17.5105 33.7284 17.5105 33.8895 17.5346C34.109 17.5675 34.3284 17.6014 34.5476 17.6361C34.941 17.6981 35.3351 17.7539 35.7294 17.8094C36.2141 17.878 36.6984 17.9497 37.1827 18.0209C37.3959 18.0521 37.6092 18.0832 37.8224 18.1144C38.3776 18.1955 38.9327 18.2769 39.4879 18.3583C40.3721 18.4879 41.2563 18.6173 42.1406 18.7466C42.3539 18.7778 42.5672 18.809 42.7805 18.8402C44.4375 19.0827 46.0948 19.3225 47.7529 19.557C47.4002 19.7921 47.1307 19.852 46.7176 19.945C46.6453 19.9614 46.5729 19.9779 46.4984 19.9948C46.2609 20.0487 46.0231 20.1015 45.7854 20.1544C45.6195 20.1917 45.4536 20.2291 45.2877 20.2666C44.1833 20.515 43.0771 20.7544 41.9698 20.9894C40.2106 21.3635 38.4573 21.7644 36.7054 22.1714C36.3663 22.2502 36.0271 22.3289 35.688 22.4076C35.5603 22.4373 35.5603 22.4373 35.43 22.4675C34.0237 22.7934 32.6145 23.1032 31.2027 23.4046C30.383 23.58 29.5647 23.7603 28.748 23.9494C28.664 23.9689 28.58 23.9883 28.4934 24.0083C28.0905 24.1016 27.6879 24.1957 27.2855 24.2908C27.1415 24.3243 26.9975 24.3579 26.8536 24.3914C26.6658 24.4357 26.6658 24.4357 26.4743 24.4809C26.1797 24.5369 25.9216 24.5572 25.623 24.544C25.7704 24.3715 25.9179 24.1991 26.0658 24.0272C26.175 23.9 26.2836 23.7723 26.3911 23.6436C27.0669 22.8483 27.824 22.1291 28.5655 21.3959C29.3133 20.6557 30.0518 19.9212 30.7073 19.096C30.9281 18.8214 31.1576 18.5563 31.3893 18.2908C31.4601 18.1977 31.531 18.1047 31.604 18.0089C32.2248 17.3226 32.7184 17.3442 33.5704 17.4869Z" fill="#FE1B1B"/>
<path d="M25.1035 3.14062C25.4282 3.46527 25.5916 3.77679 25.7788 4.18608C25.8095 4.2503 25.8402 4.31452 25.8718 4.38068C26.0427 4.74915 26.1777 5.11365 26.2894 5.50426C26.4669 6.11953 26.7128 6.70023 26.9607 7.28998C30.3674 15.5315 30.3674 15.5315 29.5183 17.7539C28.7504 19.4767 27.736 21.0232 26.662 22.5692C26.5613 22.7142 26.5613 22.7142 26.4586 22.8622C26.2722 23.1291 26.0845 23.3949 25.8957 23.6601C25.8395 23.7397 25.7833 23.8192 25.7253 23.9012C25.5927 24.0846 25.4527 24.2626 25.3113 24.4393C25.2427 24.4393 25.1742 24.4393 25.1035 24.4393C25.1035 17.4108 25.1035 10.3822 25.1035 3.14062Z" fill="#C51414"/>
<path d="M26.1427 5.21875C26.3894 5.52847 26.5716 5.84281 26.7483 6.19676C26.8049 6.30966 26.8615 6.42256 26.9198 6.53888C27.0109 6.72213 27.0109 6.72213 27.1038 6.90909C27.1681 7.03789 27.2325 7.16668 27.2969 7.29545C27.4323 7.5665 27.5675 7.83769 27.7025 8.10899C27.8717 8.44913 28.0414 8.789 28.2113 9.12878C28.8935 10.4933 29.5675 11.8611 30.2215 13.2395C30.4953 13.8148 30.7771 14.3848 31.0701 14.9505C31.1215 15.0502 31.1215 15.0502 31.1739 15.1519C31.3088 15.4135 31.4439 15.6749 31.5813 15.935C31.6852 16.1321 31.7869 16.3301 31.8883 16.5284C31.9474 16.6416 32.0065 16.7548 32.0674 16.8714C32.1687 17.1668 32.1687 17.1668 32.119 17.3769C31.8937 17.6698 31.6393 17.9273 31.3753 18.1847C31.3174 18.2421 31.2594 18.2995 31.1997 18.3586C31.0145 18.5419 30.8287 18.7245 30.6427 18.9071C30.3996 19.1464 30.1567 19.3861 29.9143 19.6262C29.8261 19.7135 29.8261 19.7135 29.7361 19.8026C29.3815 20.1559 29.0472 20.5192 28.7231 20.9008C28.273 21.406 27.78 21.8734 27.2986 22.3486C27.0821 22.5623 26.866 22.7764 26.65 22.9907C26.5551 23.0844 26.4602 23.1781 26.3624 23.2747C26.1397 23.4851 26.1397 23.4851 26.0388 23.7123C25.9703 23.678 25.9017 23.6437 25.8311 23.6084C25.868 23.5568 25.905 23.5053 25.9431 23.4522C28.7769 19.7753 28.7769 19.7753 29.6752 15.4006C29.5583 14.7278 29.3601 14.0771 29.1557 13.4265C29.1267 13.3341 29.0977 13.2416 29.0678 13.1463C28.4233 11.1326 27.6217 9.17368 26.8384 7.21104C26.7873 7.08294 26.7873 7.08294 26.7351 6.95226C26.5873 6.58323 26.4369 6.21688 26.2746 5.85397C26.1427 5.53044 26.1427 5.53044 26.1427 5.21875Z" fill="#9F1010"/>
<path d="M24.6877 26.8281C24.722 26.8281 24.7563 26.8281 24.7916 26.8281C24.7916 31.0453 24.7916 35.2624 24.7916 39.6073C23.1578 40.5409 23.1578 40.5409 22.5708 40.8395C22.4407 40.906 22.3106 40.9726 22.1805 41.0391C22.115 41.0725 22.0494 41.1058 21.9819 41.1402C20.9802 41.6503 19.983 42.1666 18.9994 42.7112C17.8428 43.3508 16.6665 43.9514 15.4895 44.5523C15.3776 44.6095 15.3776 44.6095 15.2634 44.6679C15.1166 44.7429 14.9698 44.8178 14.8229 44.8926C14.4761 45.07 14.1319 45.2505 13.7912 45.4395C13.6974 45.4913 13.6974 45.4913 13.6016 45.5443C13.4331 45.638 13.2653 45.7329 13.0974 45.8278C13.0136 45.8665 12.9299 45.9052 12.8435 45.945C12.775 45.9107 12.7064 45.8764 12.6357 45.8411C12.8362 45.7145 13.0367 45.5878 13.2373 45.4612C13.4144 45.3493 13.5916 45.2374 13.7688 45.1254C14.2184 44.8414 14.6682 44.5575 15.1183 44.2741C19.0413 41.8574 19.0413 41.8574 22.7137 39.0879C22.8122 39.0064 22.9108 38.925 23.0124 38.8411C23.7023 37.9888 23.7806 36.8655 23.915 35.8151C23.937 35.6491 23.9591 35.4831 23.9812 35.317C24.3497 32.4985 24.5327 29.6652 24.6877 26.8281Z" fill="#9F1111"/>
<path d="M24.0651 25.793C24.168 25.8444 24.168 25.8444 24.2729 25.8969C24.2286 25.9632 24.1842 26.0294 24.1385 26.0977C23.2868 27.3707 22.4397 28.646 21.6112 29.9342C21.3438 30.3489 21.0745 30.7624 20.8054 31.1761C20.6909 31.3521 20.5765 31.5281 20.4621 31.7041C20.405 31.7918 20.348 31.8794 20.2893 31.9698C20.0067 32.4043 19.7242 32.8389 19.4418 33.2735C19.3292 33.4466 19.2167 33.6198 19.1041 33.793C19.0484 33.8787 18.9927 33.9644 18.9353 34.0527C17.4158 36.3904 15.8963 38.728 14.3768 41.0657C14.3211 41.1515 14.2653 41.2373 14.2079 41.3256C14.0957 41.4981 13.9836 41.6706 13.8715 41.8431C13.5834 42.2862 13.2955 42.7294 13.0079 43.1728C12.405 44.1021 11.8003 45.0297 11.182 45.9488C11.1477 45.8802 11.1134 45.8117 11.0781 45.741C11.1826 45.4998 11.2937 45.272 11.4158 45.0397C11.4939 44.8878 11.572 44.7359 11.65 44.584C11.6922 44.5022 11.7344 44.4205 11.7779 44.3362C11.9119 44.0735 12.0424 43.8092 12.1719 43.5442C12.8141 42.233 13.5078 40.9589 14.2365 39.6939C14.3966 39.4143 14.5541 39.1334 14.7108 38.8518C16.5214 35.6121 18.6905 32.5599 20.985 29.6466C21.1468 29.441 21.308 29.235 21.469 29.0288C21.9752 28.3808 22.4881 27.7392 23.0108 27.1043C23.3663 26.6705 23.7158 26.2318 24.0651 25.793Z" fill="#FC7272"/>
<path d="M25.3115 25.6875C25.5772 25.9321 25.7598 26.1939 25.9515 26.4992C26.0159 26.601 26.0803 26.7028 26.1467 26.8077C26.2161 26.918 26.2855 27.0284 26.357 27.142C26.9785 28.1227 27.6126 29.0936 28.2596 30.0576C28.7842 30.8401 29.3033 31.6244 29.7969 32.4269C30.2056 33.0885 30.6319 33.7385 31.0583 34.3888C31.0965 34.4472 31.1348 34.5055 31.1742 34.5657C31.3648 34.8564 31.5555 35.1471 31.7462 35.4378C32.0527 35.9056 32.3576 36.3743 32.6622 36.8433C32.7163 36.9266 32.7703 37.0099 32.8261 37.0957C32.9338 37.2617 33.0416 37.4277 33.1494 37.5936C33.4284 38.0233 33.7076 38.4528 33.9868 38.8823C34.0994 39.0555 34.212 39.2286 34.3245 39.4018C34.3802 39.4875 34.4359 39.5732 34.4933 39.6615C34.9998 40.4407 34.9998 40.4407 35.1686 40.7005C35.2813 40.8737 35.3939 41.047 35.5066 41.2202C35.787 41.6516 36.0672 42.0831 36.3468 42.515C37.1599 43.7702 37.9856 45.0165 38.818 46.2589C38.7837 46.3275 38.7494 46.3961 38.7141 46.4667C37.9475 45.5517 37.1947 44.6305 36.4845 43.6708C36.0955 43.1457 35.6956 42.6301 35.292 42.1161C34.5713 41.1948 33.8851 40.2512 33.2076 39.2979C33.1538 39.2225 33.0999 39.147 33.0444 39.0693C32.317 38.0503 31.6047 37.0228 30.9219 35.9732C30.8521 35.8662 30.8521 35.8662 30.7809 35.757C28.951 32.9373 27.3476 29.9743 25.8375 26.9732C25.7573 26.8143 25.7573 26.8143 25.6755 26.6521C25.6273 26.5553 25.5791 26.4585 25.5295 26.3588C25.4871 26.2739 25.4448 26.189 25.4012 26.1016C25.3115 25.8953 25.3115 25.8953 25.3115 25.6875Z" fill="#FC7272"/>
<path d="M43.9095 23.7148C44.0123 23.7663 44.0123 23.7663 44.1173 23.8187C43.811 24.1301 43.5041 24.4408 43.1965 24.7509C43.0919 24.8566 42.9875 24.9624 42.8833 25.0684C42.7337 25.2205 42.5834 25.372 42.433 25.5233C42.3427 25.6147 42.2524 25.7061 42.1593 25.8003C41.9354 26.0006 41.9354 26.0006 41.7276 26.0006C41.7276 26.0691 41.7276 26.1377 41.7276 26.2084C41.5988 26.3348 41.5988 26.3348 41.4062 26.4908C40.9783 26.8547 40.581 27.242 40.1854 27.6402C40.1213 27.7047 40.0571 27.7691 39.9911 27.8356C39.7905 28.0376 39.5902 28.2398 39.39 28.4421C37.4261 30.4267 37.4261 30.4267 36.7406 30.8837C36.6331 30.8268 36.5255 30.7698 36.4147 30.7112C35.3831 30.1662 34.3486 29.627 33.3121 29.0915C33.2483 29.0585 33.1845 29.0256 33.1188 28.9916C32.8581 28.8569 32.5973 28.7222 32.3366 28.5875C30.477 27.6269 28.6195 26.6623 26.7666 25.6889C27.1451 25.5627 27.2105 25.6145 27.5645 25.7737C27.6656 25.8181 27.7667 25.8626 27.8709 25.9084C27.9822 25.9581 28.0935 26.0078 28.2082 26.059C30.6408 27.1157 33.1349 28.1257 35.7017 28.8058C35.7787 28.8266 35.8557 28.8475 35.935 28.8691C36.8566 29.0743 37.5125 28.762 38.2991 28.2863C39.3975 27.5682 40.4085 26.7354 41.416 25.8967C41.4775 25.8456 41.539 25.7945 41.6024 25.7418C42.3904 25.0863 43.1566 24.4104 43.9095 23.7148Z" fill="#9F1010"/>
<path d="M2.35156 19.9766C2.89853 20.0382 3.42382 20.1255 3.96073 20.2505C4.03258 20.2671 4.10442 20.2837 4.17844 20.3008C4.33189 20.3363 4.48529 20.3719 4.63866 20.4078C4.96558 20.4841 5.29272 20.5596 5.61985 20.6351C5.78567 20.6733 5.95148 20.7116 6.11727 20.75C6.80709 20.9094 7.49786 21.0642 8.18923 21.2168C9.34139 21.4715 10.4927 21.7301 11.6438 21.9895C13.0758 22.3123 14.5084 22.6325 15.9416 22.9503C17.1558 23.2195 18.3691 23.4922 19.5821 23.7668C20.9027 24.0656 22.2244 24.3593 23.5464 24.6519C23.5464 24.6862 23.5464 24.7205 23.5464 24.7558C22.3507 24.6998 21.183 24.5495 20.0009 24.3662C19.8163 24.338 19.6318 24.3097 19.4472 24.2816C17.9009 24.0441 16.358 23.7905 14.8191 23.509C14.687 23.4849 14.5549 23.4608 14.4187 23.436C12.1059 23.012 9.82528 22.5175 7.58817 21.7862C7.23353 21.6705 6.87728 21.5646 6.51831 21.4633C5.10971 21.0652 3.73238 20.5645 2.35156 20.0805C2.35156 20.0462 2.35156 20.0119 2.35156 19.9766Z" fill="#FC7171"/>
<path d="M27.2861 26.3125C27.7792 26.4619 28.2265 26.6682 28.6818 26.9058C28.7918 26.9626 28.7918 26.9626 28.9041 27.0205C29.1421 27.1434 29.3797 27.2669 29.6173 27.3904C29.7826 27.476 29.948 27.5615 30.1134 27.647C30.5912 27.8942 31.0686 28.1422 31.5459 28.3904C31.7251 28.4836 31.7251 28.4836 31.908 28.5787C32.723 29.0026 32.723 29.0026 33.0831 29.1928C33.6004 29.4657 34.1211 29.7288 34.6473 29.9842C34.7668 30.0433 34.8862 30.1023 35.0093 30.1632C35.2397 30.2771 35.4712 30.3888 35.7038 30.4981C35.8076 30.5499 35.9114 30.6017 36.0183 30.655C36.1103 30.6993 36.2022 30.7436 36.297 30.7893C36.9452 31.3348 36.9687 32.4242 37.0958 33.2094C37.1186 33.3467 37.1416 33.484 37.1646 33.6213C37.2258 33.9879 37.2861 34.3547 37.3462 34.7215C37.4087 35.102 37.4721 35.4824 37.5354 35.8627C37.5544 35.9765 37.5544 35.9765 37.5737 36.0926C37.5993 36.246 37.6248 36.3993 37.6504 36.5527C37.6888 36.7831 37.727 37.0135 37.7652 37.244C37.9213 38.1834 38.0817 39.1219 38.2472 40.0597C38.2668 40.1712 38.2865 40.2827 38.3067 40.3976C38.3803 40.8142 38.454 41.2308 38.5286 41.6473C38.5785 41.9256 38.6278 42.2041 38.677 42.4825C38.6915 42.5624 38.7061 42.6423 38.7211 42.7246C38.7951 43.1465 38.8333 43.5465 38.8186 43.9748C38.7843 43.9748 38.75 43.9748 38.7147 43.9748C38.6965 43.8884 38.6783 43.8019 38.6595 43.7129C38.4533 42.7358 38.246 41.759 38.0377 40.7824C37.9901 40.5587 37.9425 40.3349 37.895 40.1111C37.5633 38.5514 37.2142 36.9969 36.8316 35.4489C36.7991 35.3162 36.7666 35.1835 36.7332 35.0468C36.2539 32.8761 36.2539 32.8761 34.8705 31.2411C34.808 31.1977 34.7455 31.1543 34.6811 31.1095C33.788 30.4948 32.8749 29.9094 31.9615 29.3255C31.8415 29.2488 31.8415 29.2488 31.7192 29.1705C30.9052 28.6508 30.0869 28.1386 29.263 27.6347C29.2009 27.5967 29.1389 27.5587 29.0749 27.5196C28.7657 27.3303 28.4562 27.1414 28.1463 26.9532C28.0345 26.8849 27.9228 26.8167 27.8076 26.7463C27.707 26.6852 27.6064 26.624 27.5028 26.561C27.4313 26.5133 27.3598 26.4656 27.2861 26.4164C27.2861 26.3821 27.2861 26.3478 27.2861 26.3125Z" fill="#9F1010"/>
<path d="M2.55762 19.6602C3.3158 19.6358 4.04703 19.7291 4.79788 19.829C4.90075 19.8426 4.90075 19.8426 5.00571 19.8564C7.84804 20.2321 10.6811 20.6325 13.4667 21.3225C13.5694 21.3477 13.672 21.3728 13.7778 21.3988C15.192 21.7481 16.5843 22.1587 17.9754 22.59C18.3654 22.7099 18.7568 22.8251 19.1485 22.9394C22.0831 23.7984 22.0831 23.7984 23.3368 24.2316C22.9115 24.4024 22.5223 24.2678 22.0966 24.163C22.0152 24.1438 21.9338 24.1246 21.8499 24.1048C21.6748 24.0634 21.4998 24.0216 21.3248 23.9794C20.8622 23.8679 20.3988 23.7594 19.9355 23.6504C19.8431 23.6286 19.7508 23.6068 19.6556 23.5843C18.9041 23.4072 18.1508 23.2413 17.3953 23.0823C16.2858 22.8475 15.1777 22.607 14.0706 22.3615C13.9901 22.3436 13.9096 22.3258 13.8266 22.3074C12.858 22.0922 11.8916 21.8701 10.9277 21.6342C9.70607 21.3355 8.47756 21.0716 7.24791 20.8081C6.13967 20.5705 5.03309 20.3265 3.92775 20.0758C3.82206 20.0518 3.82206 20.0518 3.71424 20.0273C3.32864 19.9398 2.9431 19.8521 2.55762 19.7641C2.55762 19.7298 2.55762 19.6955 2.55762 19.6602Z" fill="#FA5B5B"/>
<path d="M47.4413 19.6617C47.1502 19.8192 46.884 19.9149 46.561 19.9848C46.4229 20.0152 46.4229 20.0152 46.2821 20.0461C46.1825 20.0674 46.0829 20.0887 45.9802 20.1106C45.8233 20.1448 45.8233 20.1448 45.6633 20.1798C45.4382 20.2288 45.213 20.2776 44.9878 20.3262C44.6338 20.4025 44.2798 20.4795 43.9259 20.5567C43.4506 20.6603 42.9752 20.7637 42.4998 20.867C41.5989 21.0627 40.6985 21.2608 39.7984 21.4604C39.7226 21.4772 39.6468 21.494 39.5686 21.5114C38.5187 21.7443 37.4722 21.9896 36.4273 22.2445C35.546 22.4581 34.6604 22.6474 33.7731 22.8342C32.511 23.1019 31.2548 23.3941 29.9987 23.688C29.5102 23.8021 29.0213 23.9144 28.5322 24.0254C28.4427 24.0458 28.3533 24.0662 28.2611 24.0873C27.9904 24.1486 27.7193 24.2085 27.4482 24.2681C27.3651 24.287 27.282 24.306 27.1965 24.3255C26.8066 24.4096 26.5239 24.454 26.1426 24.3371C26.5819 24.1896 27.0213 24.0425 27.4608 23.8955C27.5832 23.8544 27.7057 23.8133 27.8319 23.7709C29.9315 23.0691 32.0542 22.4878 34.1976 21.9377C34.4405 21.8743 34.683 21.8092 34.925 21.7427C35.9618 21.4581 37.0041 21.2291 38.0582 21.0189C38.1473 21.001 38.2365 20.9831 38.3284 20.9646C40.0134 20.6282 41.7038 20.3751 43.4075 20.1562C44.0196 20.0775 44.63 19.989 45.24 19.8955C45.3187 19.8835 45.3974 19.8715 45.4785 19.8591C45.5505 19.8481 45.6224 19.837 45.6966 19.8257C46.8646 19.6477 46.8646 19.6477 47.4413 19.6617Z" fill="#FB7070"/>
<path d="M24.7924 3.34766C24.8267 3.34766 24.8609 3.34766 24.8963 3.34766C24.8963 10.3077 24.8963 17.2677 24.8963 24.4386C24.862 24.4386 24.8277 24.4386 24.7924 24.4386C24.2795 21.7066 24.1417 19.0209 24.1365 16.2438C24.1363 16.137 24.1363 16.137 24.136 16.0282C24.1307 13.6463 24.2123 11.2765 24.3638 8.8996C24.3683 8.82805 24.3729 8.7565 24.3776 8.68277C24.4911 6.90225 24.6297 5.12435 24.7924 3.34766Z" fill="#FF7272"/>
<path d="M3.39041 19.8711C4.78934 20.1361 6.17486 20.447 7.56066 20.7734C7.62823 20.7893 7.6958 20.8052 7.76541 20.8216C7.86732 20.8456 7.86732 20.8456 7.97129 20.8701C9.98087 21.3426 11.9971 21.7837 14.0155 22.2166C15.1216 22.4541 16.2236 22.7038 17.3226 22.9726C18.2096 23.1889 19.1 23.3878 19.9916 23.5841C21.2479 23.861 22.5011 24.151 23.754 24.4425C23.754 24.5454 23.754 24.6482 23.754 24.7542C22.475 24.5091 21.2006 24.2538 19.9359 23.9425C18.8639 23.6792 17.7878 23.4401 16.7086 23.2088C16.3782 23.1379 16.0479 23.067 15.7175 22.9961C15.6348 22.9783 15.5521 22.9606 15.4668 22.9423C14.5682 22.7492 13.6707 22.5511 12.7735 22.3516C12.6945 22.3341 12.6156 22.3165 12.5342 22.2984C11.4908 22.0661 10.4486 21.8291 9.40743 21.5867C7.33541 21.1061 5.25827 20.6474 3.18262 20.1828C3.25119 20.1485 3.31976 20.1142 3.39041 20.0789C3.39041 20.0103 3.39041 19.9417 3.39041 19.8711Z" fill="#831717"/>
<path d="M24.7918 3.34766C24.8261 3.34766 24.8603 3.34766 24.8957 3.34766C24.8957 10.3077 24.8957 17.2677 24.8957 24.4386C24.8614 24.4386 24.8271 24.4386 24.7918 24.4386C24.7575 18.5414 24.7232 12.6443 24.6879 6.56844C24.6536 6.56844 24.6193 6.56844 24.584 6.56844C24.5985 6.16798 24.6139 5.76756 24.6294 5.36714C24.6335 5.2543 24.6376 5.14147 24.6418 5.02521C24.6642 4.45892 24.6964 3.90654 24.7918 3.34766Z" fill="#DA5D5D"/>
<path d="M24.0647 25.793C24.1333 25.8273 24.2019 25.8615 24.2725 25.8969C24.1465 26.1014 24.0184 26.3046 23.8894 26.5073C23.8183 26.6206 23.7472 26.7339 23.6739 26.8506C23.4322 27.1552 23.2907 27.2494 22.9219 27.3514C23.091 26.961 23.3389 26.6639 23.6102 26.3384C23.6951 26.2361 23.78 26.1338 23.8675 26.0284C23.9326 25.9507 23.9977 25.873 24.0647 25.793Z" fill="#F36767"/>
<path d="M21.9925 23.8353C22.1088 23.865 22.1088 23.865 22.2275 23.8954C22.3095 23.916 22.3914 23.9366 22.4759 23.9579C22.7669 24.04 23.0533 24.1309 23.3379 24.233C22.925 24.3905 22.5894 24.2849 22.1691 24.1876C22.0378 24.1577 21.9066 24.1278 21.7713 24.0971C21.6712 24.0734 21.571 24.0497 21.4678 24.0252C21.7795 23.8174 21.7795 23.8174 21.9925 23.8353Z" fill="#EB5454"/>
<path d="M11.8048 44.5938C11.8391 44.6966 11.8734 44.7995 11.9087 44.9054C11.7598 45.1631 11.7598 45.1631 11.5516 45.4444C11.4831 45.538 11.4147 45.6316 11.3442 45.7281C11.2636 45.8352 11.2636 45.8352 11.1814 45.9444C11.0776 45.7366 11.0776 45.7366 11.1474 45.5191C11.1843 45.4366 11.2213 45.3541 11.2594 45.2691C11.2953 45.1866 11.3312 45.1041 11.3681 45.0191C11.4931 44.8015 11.4931 44.8015 11.8048 44.5938Z" fill="#F46B6B"/>
<path d="M25.3115 25.6875C25.5756 25.9268 25.7345 26.173 25.9024 26.4862C25.9478 26.5702 25.9932 26.6541 26.04 26.7407C26.0739 26.8045 26.1078 26.8684 26.1427 26.9343C26.0398 26.9343 25.937 26.9343 25.831 26.9343C25.7439 26.7657 25.6575 26.5968 25.5713 26.4278C25.523 26.3337 25.4748 26.2397 25.4252 26.1429C25.3115 25.8953 25.3115 25.8953 25.3115 25.6875Z" fill="#F26464"/>
<path d="M37.9873 45.3242C38.0559 45.3242 38.1244 45.3242 38.1951 45.3242C38.3518 45.5288 38.3518 45.5288 38.5198 45.7918C38.5758 45.8785 38.6317 45.9653 38.6894 46.0547C38.732 46.1222 38.7746 46.1897 38.8185 46.2593C38.7842 46.3279 38.7499 46.3964 38.7146 46.4671C38.5928 46.316 38.4717 46.1644 38.3509 46.0125C38.2497 45.886 38.2497 45.886 38.1464 45.7568C37.9873 45.532 37.9873 45.532 37.9873 45.3242Z" fill="#ED6262"/>
</svg>
