<svg width="50" height="50" viewBox="0 0 50 50" fill="none" xmlns="http://www.w3.org/2000/svg">
<g clip-path="url(#clip0_1_3042)">
<path d="M2.94343 0.0298804C3.03724 0.0261304 3.13106 0.0223683 3.22771 0.0184993C3.62464 0.0763326 3.81951 0.202987 4.12454 0.46338C4.28401 0.708879 4.39796 0.967963 4.51407 1.23614C5.32538 2.96694 6.77901 3.78113 8.44702 4.58476C8.5988 4.66251 8.5988 4.66251 8.75368 4.74183C9.14654 4.80012 9.28606 4.68427 9.59821 4.45631C9.66404 4.4054 9.72987 4.3545 9.79773 4.30204C9.9413 4.19766 10.0852 4.09362 10.2293 3.98988C10.3013 3.93735 10.3734 3.88482 10.4477 3.8307C12.7558 2.18065 15.5575 1.23152 18.3044 0.626725C18.4062 0.603963 18.508 0.581201 18.6128 0.557749C20.618 0.144761 22.6484 0.0105108 24.6917 0.0219751C25.033 0.023606 25.3742 0.0219872 25.7155 0.0200706C30.9568 0.0149992 36.5218 1.29664 40.7144 4.58476C42.0193 3.96407 42.0193 3.96407 43.2274 3.17746C43.296 3.1264 43.3647 3.07535 43.4355 3.02275C44.1709 2.43275 44.6037 1.659 44.999 0.815213C45.135 0.540868 45.2334 0.367273 45.4514 0.149249C45.9941 -0.0159175 46.5538 -0.0927387 47.0719 0.180273C48.2858 1.16696 49.0035 2.92172 49.2057 4.43869C49.4241 6.9406 48.9168 9.61476 47.2796 11.5899C47.2295 11.642 47.1794 11.6943 47.1277 11.7481C47.0212 11.9326 47.0212 11.9326 47.1077 12.1875C47.2476 12.5245 47.3925 12.8586 47.5416 13.1915C48.9919 16.4463 49.9524 19.9718 49.9899 23.5495C49.991 23.66 49.9924 23.7703 49.9937 23.884C50.016 26.31 50.0083 28.6484 49.4597 31.0219C49.4333 31.1372 49.407 31.2525 49.3798 31.3713C48.5478 34.8995 47.135 38.2785 44.9363 41.1745C44.8694 41.2628 44.8025 41.351 44.7337 41.442C44.2019 42.1239 43.619 42.7575 43.0263 43.386C42.953 43.4649 42.8796 43.5435 42.8041 43.6247C42.2177 44.2351 41.5691 44.7516 40.8949 45.2602C40.7791 45.3476 40.6639 45.4354 40.5491 45.524C36.6655 48.5197 31.3997 49.9206 26.5436 49.9403C26.4308 49.9409 26.3181 49.9415 26.202 49.9421C25.964 49.9431 25.7261 49.9437 25.4881 49.944C25.1334 49.9451 24.7788 49.9482 24.4242 49.9513C18.0077 49.9813 11.7958 47.9891 7.14018 43.4865C7.06011 43.4116 6.98003 43.3368 6.89753 43.2596C6.23332 42.6235 5.68077 41.908 5.12976 41.1745C5.08604 41.1169 5.04233 41.0591 4.99729 40.9996C4.31801 40.0978 3.74756 39.1563 3.21985 38.1589C3.1854 38.0944 3.15095 38.03 3.11546 37.9634C1.96851 35.8013 1.1907 33.4951 0.631427 31.1162C0.612677 31.0382 0.593927 30.9601 0.574618 30.8797C0.172261 29.0801 0.054261 27.2859 0.06438 25.4462C0.065999 25.0981 0.0643802 24.75 0.0624636 24.4018C0.060666 22.5397 0.219261 20.7081 0.637713 18.8902C0.669403 18.749 0.669403 18.749 0.701737 18.6049C1.08519 16.9417 1.59396 15.2967 2.28964 13.7362C2.31808 13.672 2.34652 13.608 2.37583 13.5419C2.4546 13.3665 2.5354 13.192 2.61633 13.0176C2.72166 12.7143 2.7526 12.6105 2.61672 12.3249C2.45782 12.1263 2.45782 12.1263 2.25862 11.9292C0.518082 10.0114 -0.0985366 7.41166 0.0125467 4.87313C0.154963 3.08444 0.914022 1.40151 2.21464 0.161821C2.46885 0.0347135 2.65943 0.0372494 2.94343 0.0298804Z" fill="#DE1B16"/>
<path d="M13.442 16.6723C14.5554 17.0674 15.6026 17.5611 16.4891 18.356C16.5654 18.4241 16.6417 18.4923 16.7204 18.5626C17.8833 19.661 18.5951 21.0249 18.6543 22.6309C18.6638 23.7468 18.5506 24.9104 17.7958 25.7946C17.2941 26.3012 16.8712 26.5562 16.1498 26.6365C15.3963 26.5585 14.9062 26.201 14.4323 25.6222C13.797 24.679 13.672 23.5886 13.775 22.4773C13.9681 21.7665 14.2858 21.0297 14.8807 20.5674C15.2398 20.373 15.6057 20.2118 15.9864 20.0648C14.0964 19.2591 12.2872 18.7118 10.2191 18.6261C9.77656 18.5881 9.49239 18.466 9.17727 18.1486C8.92977 17.7686 8.87573 17.3929 8.95001 16.9487C9.79632 15.4554 12.1107 16.2529 13.442 16.6723Z" fill="#1A1D1C"/>
<path d="M40.5065 16.264C40.8791 16.5915 41.0965 16.7934 41.1598 17.3007C41.0979 17.7965 40.8961 18.1371 40.5128 18.4566C40.2189 18.5546 39.9739 18.5888 39.6666 18.6188C37.6366 18.8273 35.9407 19.2315 34.0793 20.065C34.1595 20.0992 34.2396 20.1334 34.3221 20.1686C35.0347 20.4946 35.5122 20.7764 35.8888 21.4722C35.9299 21.5466 35.9711 21.621 36.0136 21.6977C36.5102 22.742 36.3722 23.849 36.0022 24.9123C35.7027 25.6492 35.2067 26.2036 34.4815 26.536C33.8698 26.6635 33.4167 26.6379 32.8716 26.3358C32.1058 25.8022 31.7409 25.0482 31.5078 24.1659C31.3311 22.9838 31.3688 21.7622 31.8679 20.6681C31.9008 20.5844 31.9338 20.5007 31.9677 20.4145C32.659 18.8148 34.2833 17.6083 35.8417 16.9423C37.1116 16.4607 39.1799 15.7278 40.5065 16.264Z" fill="#222727"/>
<path d="M16.2883 33.2357C16.6856 33.4047 16.9945 33.6745 17.325 33.9455C18.045 34.5224 18.7988 35.0015 19.6056 35.4471C19.7761 35.5417 19.7761 35.5417 19.95 35.6383C22.3064 36.8804 25.0436 37.4257 27.6473 36.6534C29.7238 35.9779 31.6063 34.9335 33.2592 33.5085C33.4775 33.3361 33.4775 33.3361 33.779 33.2357C33.1615 35.4741 31.5068 37.2091 29.529 38.3384C28.6921 38.7942 27.8792 39.0723 26.9437 39.267C26.8088 39.3005 26.8088 39.3005 26.6712 39.3348C24.3631 39.8568 22.118 39.2536 20.127 38.0732C18.3383 36.9204 16.8642 35.323 16.2883 33.2357Z" fill="#1F2222"/>
<path d="M35.0035 22.1287C35.5681 22.5975 36.0484 23.2602 36.1909 23.9884C36.1771 24.7066 35.8731 25.3779 35.397 25.9109C34.9101 26.3586 34.5041 26.566 33.8413 26.6396C33.1888 26.5721 32.745 26.3097 32.2957 25.8354C31.8696 25.3096 31.5178 24.6847 31.5544 23.9884C31.7062 23.2383 32.1969 22.5531 32.7956 22.0906C33.4996 21.6466 34.3247 21.6624 35.0035 22.1287Z" fill="#2E3636"/>
<path d="M17.3176 22.1417C17.9042 22.6315 18.3278 23.2361 18.4987 23.9889C18.4987 24.7005 18.1756 25.3843 17.7048 25.9112C17.2178 26.3591 16.8119 26.5665 16.149 26.6401C15.4965 26.5726 15.0527 26.3102 14.6036 25.8359C14.1673 25.2985 13.8748 24.7265 13.8748 24.0265C14.1527 23.0884 14.6634 22.4242 15.4831 21.8779C16.1228 21.6709 16.7719 21.7549 17.3176 22.1417Z" fill="#2E3636"/>
<path d="M16.5894 34.1378C16.8116 34.4215 17.004 34.7178 17.1929 35.0245C18.4704 37.0813 20.468 38.5402 22.8216 39.1639C22.9052 39.1864 22.9888 39.209 23.0749 39.2322C25.3395 39.7401 27.7874 39.2291 29.7576 38.0582C29.8595 38 29.9613 37.9417 30.0663 37.8819C31.5768 36.9751 32.5921 35.7003 33.3764 34.1378C33.4988 34.505 33.4141 34.6344 33.2509 34.9714C33.1979 35.075 33.1979 35.075 33.1439 35.1807C33.1077 35.2522 33.0714 35.3236 33.034 35.3973C31.8948 37.5653 30.0199 39.1394 27.6907 39.8989C25.2815 40.5777 22.878 40.322 20.6632 39.1859C19.8421 38.7083 19.1673 38.1222 18.4992 37.455C18.4333 37.3902 18.3673 37.3254 18.2994 37.2586C17.6176 36.5377 16.5894 35.1654 16.5894 34.1378Z" fill="#BF0105"/>
<path d="M16.5894 33.3333C16.9328 33.4599 17.2153 33.6053 17.5133 33.8171C17.9873 34.1399 18.4771 34.3962 18.9955 34.6401C19.0871 34.6832 19.1786 34.7264 19.273 34.7709C21.7655 35.921 24.4198 36.4272 27.1441 35.9469C27.2127 35.9349 27.2813 35.9228 27.352 35.9105C29.4557 35.5207 31.5554 34.6041 33.2759 33.3333C33.3754 33.3831 33.3754 33.3831 33.4768 33.4338C30.8763 35.7846 27.6227 37.2176 24.0988 37.0722C21.3671 36.875 18.5752 35.2463 16.5894 33.4338C16.5894 33.4007 16.5894 33.3675 16.5894 33.3333Z" fill="#F61323"/>
<path d="M34.7246 20.3317C35.6162 20.799 35.9765 21.5358 36.2906 22.4779C36.2976 22.7188 36.299 22.9596 36.2969 23.2004C36.2959 23.3284 36.295 23.4563 36.294 23.5881C36.293 23.6862 36.2918 23.7842 36.2906 23.8853C36.191 23.9351 36.191 23.9351 36.0895 23.9858C36.0675 23.9214 36.0455 23.857 36.0227 23.7907C35.7596 23.0729 35.4465 22.5707 34.8519 22.0884C34.339 21.8738 33.859 21.8466 33.3126 21.9314C32.3906 22.3241 32.0609 22.9925 31.6665 23.8853C31.6002 23.8853 31.5339 23.8853 31.4656 23.8853C31.4656 23.2219 31.4656 22.5584 31.4656 21.8748C31.4987 21.9412 31.5319 22.0076 31.5661 22.0759C31.6324 22.0759 31.6987 22.0759 31.7671 22.0759C31.7934 22.0157 31.8197 21.9554 31.8468 21.8933C31.9753 21.6607 32.095 21.5435 32.3011 21.3785C32.5228 21.1966 32.7219 21.0192 32.9231 20.8131C33.0061 20.7322 33.0889 20.6514 33.1744 20.5681C33.2233 20.5163 33.2724 20.4644 33.3228 20.411C33.8114 19.9664 34.1457 20.0739 34.7246 20.3317Z" fill="#030101"/>
<path d="M41.0154 17.6525C41.0486 17.6525 41.0819 17.6525 41.116 17.6525C41.2025 18.6243 41.2025 18.6243 40.9025 19.0096C40.3629 19.4787 39.7757 19.4944 39.093 19.5436C37.8444 19.6515 36.5602 19.8745 35.424 20.4231C35.1302 20.5559 35.0208 20.5761 34.7015 20.5029C34.4501 20.4041 34.2152 20.2962 33.979 20.1656C34.8528 19.0855 37.1986 18.7823 38.4873 18.6222C38.8461 18.5853 39.2046 18.5515 39.5647 18.5291C40.0228 18.4968 40.3404 18.449 40.7139 18.1551C40.8883 17.8954 40.8883 17.8954 41.0154 17.6525Z" fill="#DA0206"/>
<path d="M8.94907 17.4526C8.98229 17.4526 9.01538 17.4526 9.04955 17.4526C9.07241 17.5438 9.09514 17.635 9.11872 17.7291C9.28169 18.1326 9.37872 18.2336 9.75324 18.4578C10.15 18.5443 10.5492 18.5786 10.9532 18.6149C11.1817 18.6392 11.41 18.6639 11.6384 18.6891C11.7476 18.701 11.8569 18.7129 11.9694 18.725C13.3504 18.8847 14.9128 19.2918 16.0861 20.0661C15.7279 20.3049 15.4105 20.5012 14.9804 20.5687C14.7487 20.5039 14.557 20.4039 14.3438 20.2928C13.1931 19.7519 11.8185 19.5935 10.5637 19.5195C9.95467 19.4763 9.588 19.3547 9.11241 18.9667C8.85526 18.4822 8.91824 17.9901 8.94907 17.4526Z" fill="#DA0206"/>
<path d="M31.4665 23.8839C31.4997 23.8839 31.533 23.8839 31.5671 23.8839C31.5891 23.9689 31.6112 24.0539 31.6338 24.1415C31.8745 25.0024 32.1403 25.7134 32.8927 26.2399C33.3919 26.5172 33.8169 26.5689 34.3805 26.4582C34.984 26.2753 35.3443 25.9107 35.6884 25.3918C35.9335 24.9032 36.0937 24.4213 36.191 23.8839C36.2243 23.8839 36.2574 23.8839 36.2916 23.8839C36.3613 24.8845 36.1835 25.8359 35.5475 26.6412C35.0714 27.1091 34.5363 27.4351 33.8602 27.465C33.1425 27.4124 32.7338 27.0868 32.2519 26.5855C31.5425 25.7411 31.3994 24.9696 31.4665 23.8839Z" fill="#9F0304"/>
<path d="M13.7744 23.8839C13.8076 23.8839 13.8407 23.8839 13.8749 23.8839C13.8993 23.9713 13.9237 24.0586 13.9487 24.1486C14.2198 25.0803 14.4923 25.7161 15.2823 26.2964C15.8051 26.578 16.3297 26.5651 16.8906 26.397C17.5736 26.1124 17.9593 25.5347 18.235 24.8702C18.3561 24.5446 18.437 24.2257 18.4989 23.8839C18.5321 23.8839 18.5652 23.8839 18.5994 23.8839C18.669 24.8845 18.4914 25.8359 17.8553 26.6412C17.3792 27.1091 16.8442 27.4351 16.1681 27.465C15.4503 27.4124 15.0415 27.0868 14.5598 26.5855C13.8502 25.7411 13.7073 24.9696 13.7744 23.8839Z" fill="#9F0304"/>
<path d="M33.2763 33.3333C33.3426 33.3665 33.4089 33.3996 33.4774 33.4338C33.2895 33.5958 33.1009 33.7569 32.9119 33.9176C32.8332 33.9857 32.8332 33.9857 32.7528 34.0552C32.4115 34.3438 32.0787 34.555 31.668 34.7406C31.668 34.608 31.668 34.4752 31.668 34.3385C31.9159 34.1609 32.1501 34.0134 32.4156 33.8674C32.5558 33.7875 32.6959 33.7075 32.8361 33.6274C32.9482 33.5636 33.0602 33.4996 33.1757 33.4338C33.2089 33.4007 33.2421 33.3675 33.2763 33.3333Z" fill="#EE1321"/>
<path d="M16.5894 33.3333C17.0641 33.4965 17.4882 33.7464 17.8961 34.037C17.8961 34.0701 17.8961 34.1033 17.8961 34.1375C17.5829 34.1676 17.4341 34.1646 17.1685 33.9871C17.0997 33.9227 17.0309 33.8583 16.96 33.7919C16.8898 33.7278 16.8198 33.6637 16.7476 33.5976C16.5894 33.4338 16.5894 33.4338 16.5894 33.3333Z" fill="#FF1623"/>
<path d="M33.2752 33.3333C33.3417 33.3665 33.408 33.3996 33.4763 33.4338C33.0783 33.7821 33.0783 33.7821 32.6722 34.1375C32.5726 34.0712 32.4731 34.0047 32.3706 33.9364C32.6692 33.7374 32.9677 33.5384 33.2752 33.3333Z" fill="#FB1926"/>
</g>
<defs>
<clipPath id="clip0_1_3042">
<rect width="50" height="50" fill="white"/>
</clipPath>
</defs>
</svg>
