<svg width="50" height="50" viewBox="0 0 50 50" fill="none" xmlns="http://www.w3.org/2000/svg">
<path d="M25.5577 1.06686C30.9309 0.957254 36.4072 1.90764 40.4145 5.74635C44.6081 9.87108 46.5808 16.2763 48.1507 21.8009C48.1857 21.9232 48.2207 22.0456 48.2567 22.1717C49.6258 27.1145 48.445 32.1085 46.1915 36.6202C46.1312 36.7438 46.1312 36.7438 46.0696 36.8699C44.9837 39.0854 43.5787 40.9798 41.8946 42.7726C41.8378 42.8346 41.7811 42.8967 41.7226 42.9606C38.44 46.4252 32.9146 48.6519 28.2227 48.9249C27.813 48.934 27.4055 48.9279 26.9959 48.9127C26.9055 48.9094 26.8151 48.9061 26.7219 48.9027C25.0109 48.8062 23.4145 48.2422 21.7957 47.7225C21.6101 47.6632 21.4245 47.6039 21.2389 47.5447C20.5572 47.327 19.876 47.1078 19.195 46.8881C18.8695 46.7835 18.5438 46.6796 18.2179 46.5761C17.7512 46.4278 17.2852 46.2779 16.8196 46.1265C16.6536 46.0727 16.4875 46.0195 16.3213 45.9669C13.4478 45.0558 11.3289 43.46 9.47274 41.1124C9.3864 41.0087 9.29979 40.9052 9.21296 40.8019C7.47206 38.7113 6.05508 36.3356 4.87994 33.8863C4.78188 33.6836 4.68109 33.4824 4.58001 33.2812C2.1271 28.3349 0.185602 22.5706 1.96537 17.139C3.31758 13.2588 6.1515 9.83459 9.27743 7.22568C9.36782 7.14726 9.4582 7.06883 9.55133 6.98803C10.8752 5.84262 12.2769 4.81971 13.7696 3.90537C13.8493 3.85648 13.9291 3.80759 14.0112 3.75722C16.9509 1.97294 19.7664 1.40187 23.1507 1.18327C23.3176 1.17245 23.4845 1.1611 23.6514 1.14968C24.2867 1.10683 24.9211 1.08246 25.5577 1.06686Z" fill="#DBE6EA"/>
<path d="M41.1252 7.37954C42.0027 7.78944 42.5789 8.34007 43.0479 9.18008C43.0968 9.26514 43.1458 9.3502 43.1963 9.43784C43.3507 9.70869 43.5017 9.98121 43.6521 10.2543C43.7004 10.3405 43.7486 10.4267 43.7983 10.5155C47.1126 16.4692 50.078 24.3233 48.2457 31.0904C47.705 32.9855 47.0729 34.8562 46.1912 36.6215C46.1509 36.7039 46.1107 36.7863 46.0693 36.8712C44.9834 39.0867 43.5784 40.9811 41.8943 42.7738C41.8375 42.8359 41.7807 42.898 41.7222 42.9619C40.7848 43.9513 39.4301 45.2011 38.0247 45.2458C37.0764 45.2331 36.2855 44.8011 35.5466 44.2387C35.4827 44.192 35.4187 44.1453 35.3528 44.0971C33.7483 42.8232 32.834 40.6056 32.2126 38.7165C32.0063 38.0957 31.7614 37.4911 31.5183 36.8839C30.9327 35.4104 30.3973 33.9219 29.8826 32.4223C29.8494 32.326 29.8161 32.2296 29.7819 32.1304C28.3587 27.965 27.1497 23.6187 29.1709 19.4869C30.6784 16.5098 32.7531 13.7271 35.0214 11.2885C35.2074 11.0859 35.3877 10.8807 35.5672 10.6724C39.0848 6.64217 39.0848 6.64217 41.1252 7.37954Z" fill="#DBE6EA"/>
<path d="M25.5573 1.06825C28.6734 1.00469 33.017 0.968064 35.7419 2.73489C35.9874 3.00017 36.15 3.30009 36.3279 3.6138C36.3883 3.70242 36.4487 3.79104 36.511 3.88235C36.7064 4.4469 36.7717 5.11684 36.5319 5.67717C36.2415 6.22617 35.8751 6.69506 35.4734 7.16604C35.3509 7.31214 35.2285 7.45824 35.106 7.60435C35.0472 7.67404 34.9883 7.74374 34.9277 7.81554C34.7227 8.05896 34.5209 8.3049 34.3198 8.55154C34.2522 8.63425 34.1846 8.71695 34.115 8.80217C33.7712 9.22392 33.4283 9.64629 33.0854 10.0687C32.7834 10.4404 32.481 10.8117 32.1775 11.1822C31.6609 11.8128 31.1473 12.4457 30.6335 13.0786C30.3144 13.4715 29.9952 13.8643 29.676 14.2571C29.4066 14.5887 29.1372 14.9204 28.8678 15.2521C28.7862 15.3526 28.7862 15.3526 28.703 15.4551C28.5949 15.5881 28.4869 15.7212 28.3789 15.8543C28.0762 16.2271 27.7715 16.5981 27.4656 16.9683C27.1642 17.3354 26.8762 17.7102 26.5928 18.0913C26.4525 18.2786 26.3122 18.4658 26.1716 18.6529C26.0985 18.751 26.0985 18.751 26.024 18.8512C24.9041 20.2632 23.0561 20.968 21.3277 21.2491C20.7471 21.3153 20.1635 21.3115 19.5798 21.314C19.466 21.316 19.3522 21.318 19.235 21.3201C18.5398 21.3231 17.8941 21.2558 17.2129 21.1169C16.4025 20.9519 15.5847 20.8529 14.7641 20.7525C14.6377 20.7369 14.6377 20.7369 14.5088 20.721C12.4459 20.4681 10.3781 20.2311 8.29861 20.1898C8.17609 20.1873 8.17609 20.1873 8.0511 20.1847C7.65701 20.1771 7.26315 20.1723 6.86899 20.1718C5.58494 20.1621 4.50716 19.8741 3.53978 18.9947C3.46727 18.9141 3.39476 18.8335 3.32005 18.7505C3.25359 18.68 3.18712 18.6095 3.11864 18.5369C2.59342 17.7745 2.32112 16.8402 2.44115 15.9185C2.57617 15.5343 2.762 15.1873 2.95995 14.8321C3.013 14.734 3.06605 14.6359 3.12071 14.5349C3.58838 13.6855 4.10634 12.8855 4.68724 12.1099C4.75116 12.0234 4.75116 12.0234 4.81637 11.9352C6.09393 10.2166 7.63547 8.60174 9.27708 7.22708C9.41285 7.10925 9.41285 7.10925 9.55136 6.98904C10.8752 5.84386 12.2767 4.82102 13.7693 3.90677C13.8888 3.83343 13.8888 3.83343 14.0108 3.75861C16.9505 1.97433 19.7661 1.40326 23.1503 1.18466C23.3172 1.17384 23.4841 1.1625 23.651 1.15108C24.2863 1.10822 24.9208 1.08385 25.5573 1.06825Z" fill="#DBE6EA"/>
<path d="M35.7419 2.73438C38.1134 3.44581 40.2347 5.2833 41.699 7.22656C41.7594 7.30574 41.8198 7.38493 41.8821 7.46651C42.0178 7.64593 42.1522 7.82616 42.2849 8.00781C42.2527 8.07227 42.2205 8.13672 42.1873 8.20312C42.0724 8.09436 42.0724 8.09436 41.9553 7.9834C41.3316 7.4707 40.6132 7.244 39.8088 7.28226C37.9111 7.5906 35.9368 10.2475 34.7654 11.6211C34.6797 11.7197 34.594 11.8182 34.5083 11.9167C33.7782 12.7692 33.0931 13.6516 32.4216 14.5508C32.369 14.6209 32.3163 14.691 32.2621 14.7633C29.8602 17.9747 27.6771 21.3516 28.2251 25.4942C28.5895 27.9549 29.2704 30.366 30.0779 32.7148C30.1186 32.8335 30.1592 32.9522 30.2011 33.0745C30.6942 34.5083 31.2135 35.9284 31.7884 37.3317C32.0041 37.8608 32.2024 38.3902 32.3799 38.9333C33.0827 41.0771 34.2351 43.5761 36.321 44.6831C36.9637 44.9848 37.446 45.1304 38.1589 45.1233C38.2732 45.1224 38.3875 45.1215 38.5053 45.1206C38.5924 45.1195 38.6795 45.1184 38.7693 45.1172C38.5115 45.3918 38.2691 45.5904 37.9392 45.7714C37.8536 45.8185 37.768 45.8656 37.6798 45.9142C37.5881 45.9634 37.4965 46.0126 37.4021 46.0632C37.3065 46.1147 37.2109 46.1663 37.1124 46.2193C34.5457 47.5855 31.6593 48.7659 28.7107 48.8281C28.7107 48.7959 28.7107 48.7637 28.7107 48.7305C28.771 48.7161 28.8313 48.7018 28.8934 48.687C29.8337 48.438 30.5197 48.0481 31.0335 47.2042C31.498 46.2975 31.5625 45.4058 31.5671 44.4031C31.5691 44.2973 31.5712 44.1915 31.5732 44.0825C31.58 42.6323 31.2861 41.4263 30.6283 40.1423C30.5649 40.015 30.5016 39.8876 30.4386 39.7601C30.269 39.4186 30.0971 39.0784 29.9246 38.7384C29.7431 38.3799 29.5638 38.0203 29.3841 37.6608C29.0824 37.0579 28.7793 36.4558 28.4751 35.8541C28.1249 35.1615 27.7768 34.4678 27.4299 33.7735C27.0582 33.0298 26.685 32.2868 26.3113 31.544C26.2047 31.3319 26.0984 31.1196 25.9922 30.9072C25.8243 30.5721 25.6555 30.2375 25.486 29.9033C25.4244 29.7815 25.3631 29.6596 25.3022 29.5375C23.9519 26.8328 21.8411 25.0703 18.9833 24.1109C18.1036 23.8323 17.2178 23.5966 16.3083 23.4375C16.2272 23.4225 16.146 23.4074 16.0624 23.3919C15.2509 23.2474 14.4375 23.1685 13.6167 23.1018C13.5082 23.0928 13.5082 23.0928 13.3976 23.0837C12.9222 23.0444 12.4467 23.0065 11.9712 22.9692C11.7146 22.9489 11.4581 22.9282 11.2016 22.9074C9.37131 22.7603 7.54337 22.6292 5.70654 22.6196C5.64076 22.6189 5.57498 22.6181 5.50721 22.6173C4.63011 22.6092 3.74201 22.6081 3.0332 23.1812C2.43326 23.9447 2.30991 24.681 2.31909 25.6287C2.31833 25.7063 2.31758 25.7839 2.3168 25.8638C2.31837 26.3473 2.3771 26.7776 2.50648 27.2438C2.54323 27.4684 2.51001 27.6171 2.44116 27.832C1.17235 23.898 0.57628 20.1083 2.3435 16.2109C2.37573 16.2109 2.40795 16.2109 2.44116 16.2109C2.45664 16.2983 2.47213 16.3857 2.48808 16.4757C2.68071 17.474 2.91062 18.3629 3.71069 19.043C3.77917 19.1074 3.84765 19.1719 3.91821 19.2383C4.68479 19.7716 5.44747 20.0277 6.3722 20.0401C6.51789 20.0427 6.66357 20.0452 6.80925 20.0479C6.88608 20.0492 6.96291 20.0505 7.04207 20.0518C8.93583 20.086 10.8113 20.2176 12.6951 20.4102C12.8774 20.4287 12.8774 20.4287 13.0635 20.4476C14.2151 20.5673 15.3589 20.7056 16.4964 20.9232C16.629 20.9479 16.7616 20.9721 16.8943 20.9961C16.9872 21.013 17.0801 21.0298 17.1758 21.0472C17.9588 21.1796 18.7192 21.2257 19.5127 21.2219C19.6922 21.2212 19.6922 21.2212 19.8753 21.2205C21.6306 21.1978 23.3419 20.8496 24.8044 19.8242C24.9319 19.7362 24.9319 19.7362 25.0619 19.6465C25.7685 19.1163 26.2496 18.4875 26.7602 17.7788C27.0222 17.4163 27.3013 17.074 27.5937 16.7358C27.9549 16.3167 28.304 15.891 28.6436 15.4541C29.1004 14.8669 29.5701 14.2912 30.0443 13.7179C30.4424 13.2365 30.838 12.7532 31.2314 12.2681C31.5785 11.8402 31.9259 11.4125 32.2751 10.9863C32.6344 10.5478 32.992 10.108 33.3494 9.66797C33.7149 9.21779 34.0807 8.76788 34.448 8.31909C34.5167 8.235 34.5855 8.15091 34.6563 8.06427C34.7996 7.88978 34.9436 7.71587 35.0881 7.54242C36.2271 6.21962 36.2271 6.21962 36.5785 4.56886C36.4758 3.88225 36.1031 3.31723 35.7419 2.73438Z" fill="#B4C8C9"/>
<path d="M38.8672 21.4825C39.7986 21.9482 40.2033 22.7809 40.5274 23.7286C40.9725 25.1654 40.8423 27.0757 40.1673 28.4222C39.8325 28.977 39.3959 29.4768 38.7696 29.6856C38.209 29.7385 37.9338 29.6533 37.5 29.295C36.6057 28.4006 36.3077 27.1749 36.291 25.9464C36.2942 23.9297 36.2942 23.9297 36.7188 23.045C36.7613 22.9555 36.8039 22.866 36.8477 22.7737C37.2958 21.94 37.8729 21.3221 38.8672 21.4825Z" fill="#5DAD46"/>
<path d="M14.2061 37.4673C15.2351 38.0064 16.0027 38.835 16.4178 39.9186C16.6389 40.7292 16.5973 41.5376 16.2107 42.2841C15.799 42.7987 15.3777 43.0183 14.739 43.1069C13.6089 43.1714 12.7332 42.7569 11.865 42.0522C11.0874 41.3062 10.6439 40.4322 10.6016 39.3544C10.6197 38.7339 10.7501 38.2003 11.1776 37.7339C12.0445 36.9771 13.1799 37.0378 14.2061 37.4673Z" fill="#3E7BBD"/>
<path d="M8.23326 25.5472C9.40047 26.146 10.1738 26.9879 10.5801 28.2419C10.767 29.0272 10.6978 29.6467 10.3035 30.3533C10.0546 30.7121 9.76844 30.9544 9.37538 31.151C8.18726 31.2426 7.17974 31.1061 6.23474 30.3331C6.17544 30.2807 6.11615 30.2284 6.05506 30.1744C5.99477 30.122 5.93447 30.0697 5.87234 30.0157C5.24662 29.4344 4.8227 28.7502 4.76226 27.8902C4.73593 26.5208 4.73593 26.5208 5.17616 25.9752C6.02633 25.0932 7.13857 25.0908 8.23326 25.5472Z" fill="#3E7BBD"/>
<path d="M27.5101 39.8911C28.4015 40.4694 29.162 41.3259 29.3945 42.384C29.5266 43.6934 29.5266 43.6934 29.2358 44.2517C28.7736 44.8112 28.3395 45.155 27.5974 45.2443C26.6198 45.2976 25.7394 44.9248 24.9874 44.3089C24.2111 43.599 23.6419 42.8529 23.4921 41.7832C23.4676 41.1572 23.5402 40.6431 23.9258 40.1379C24.9629 39.0369 26.2494 39.2043 27.5101 39.8911Z" fill="#3E7BBD"/>
<path d="M21.532 27.9589C22.5225 28.5731 23.1691 29.4698 23.5351 30.5678C23.6232 31.3942 23.5224 32.0264 23.0469 32.7162C22.5774 33.1977 22.0792 33.3133 21.4233 33.3449C20.329 33.3219 19.4172 32.7909 18.6523 32.0326C17.9022 31.1424 17.614 30.3997 17.6414 29.2349C17.7014 28.6633 17.8898 28.3078 18.2861 27.9006C19.3926 27.2216 20.403 27.3758 21.532 27.9589Z" fill="#3E7BBD"/>
<path d="M10.5752 13.7439C10.8798 13.9676 11.0391 14.1147 11.2302 14.4523C11.2741 14.8967 11.1781 15.2402 10.98 15.6364C10.2908 16.4492 9.46241 16.9857 8.39819 17.1867C7.48798 17.25 6.64413 17.2317 5.90796 16.6435C5.61269 16.3556 5.54645 16.2076 5.52344 15.8073C5.53151 15.2487 5.7691 14.9379 6.1521 14.55C7.25065 13.5149 9.17748 12.9527 10.5752 13.7439Z" fill="#F05A2C"/>
<path d="M19.9122 3.83673C20.1083 4.03123 20.2057 4.22583 20.2418 4.49934C20.2179 5.12208 19.9413 5.59864 19.5315 6.05497C19.2567 6.29098 18.9709 6.46921 18.6526 6.64091C18.5839 6.68132 18.5151 6.72173 18.4443 6.76336C17.8887 7.04118 17.3465 7.07155 16.7361 7.08036C16.6189 7.08308 16.6189 7.08308 16.4994 7.08585C15.8713 7.07923 15.3731 6.91329 14.883 6.5134C14.6297 6.25202 14.5172 6.02038 14.4961 5.66435C14.5419 5.02969 14.9868 4.59159 15.425 4.16746C16.6452 3.17269 18.5744 2.93107 19.9122 3.83673Z" fill="#F05A2C"/>
<path d="M28.4179 9.39779C28.7215 9.57343 28.9172 9.75731 29.1015 10.057C29.1979 10.4478 29.1607 10.7996 29.0008 11.1678C28.4293 12.1076 27.4941 12.5355 26.4736 12.8486C25.6214 13.0174 24.7776 12.9352 24.0234 12.4984C23.771 12.3031 23.5817 12.1034 23.4375 11.8148C23.3736 11.2823 23.473 10.9663 23.769 10.5369C24.8157 9.28885 26.9112 8.66795 28.4179 9.39779Z" fill="#F05A2C"/>
<path d="M23.8288 14.5273C24.158 14.7347 24.3144 14.8937 24.512 15.236C24.586 15.7544 24.5452 16.0887 24.2487 16.5395C23.6675 17.2756 22.7018 17.812 21.7776 17.9704C20.8401 18.0377 19.9456 18.0479 19.1683 17.4509C18.9164 17.1947 18.815 16.953 18.793 16.6032C18.8471 15.8883 19.3724 15.4657 19.8859 15.0239C20.2033 14.7792 20.5261 14.6004 20.8987 14.4548C20.9874 14.4201 21.0762 14.3853 21.1676 14.3495C22.0071 14.1111 23.0388 14.1463 23.8288 14.5273Z" fill="#F05A2C"/>
<path d="M31.415 4.15006C31.4927 4.14824 31.5705 4.14641 31.6506 4.14453C32.3298 4.15187 32.8385 4.3557 33.3498 4.80314C33.5587 5.19489 33.5698 5.52206 33.4963 5.9567C33.1178 6.763 32.3713 7.29592 31.5615 7.61076C30.5557 7.96524 29.6157 8.07103 28.6135 7.61686C28.2971 7.40117 28.0055 7.18207 27.8322 6.83561C27.77 6.31667 27.8549 5.99145 28.1447 5.57104C29.0239 4.56972 30.1203 4.17102 31.415 4.15006Z" fill="#F05A2C"/>
<path d="M15.2514 8.67232C15.5286 8.85238 15.679 8.97319 15.8206 9.27657C15.8874 9.89996 15.6543 10.3533 15.2926 10.8456C14.5908 11.697 13.5344 12.0136 12.4766 12.1334C11.8088 12.1702 11.1118 11.9905 10.5692 11.5902C10.2595 11.2885 10.1619 11.0993 10.126 10.6682C10.1351 10.165 10.3416 9.89199 10.6772 9.5249C11.8695 8.38094 13.7219 7.90222 15.2514 8.67232Z" fill="#F05A2C"/>
<path d="M39.3555 21.875C40.1665 22.4592 40.4859 23.4141 40.6769 24.3679C40.8799 25.8722 40.779 27.6515 39.8438 28.9062C39.4187 29.3578 39.0802 29.6582 38.446 29.718C38.0202 29.6819 37.8256 29.5682 37.5 29.2969C37.4678 29.2002 37.4355 29.1035 37.4023 29.0039C37.459 29.0084 37.5156 29.013 37.574 29.0176C38.1284 29.0433 38.4365 28.9961 38.8672 28.6133C39.8544 27.5395 40.0821 26.169 40.0574 24.7543C40.0077 23.8309 39.7926 23.0246 39.4531 22.168C39.4209 22.0713 39.3887 21.9746 39.3555 21.875Z" fill="#4DA24A"/>
<path d="M23.6328 41.5039C23.8431 41.7142 23.9197 41.8817 24.0417 42.1509C24.5327 43.1413 25.2489 43.7947 26.3031 44.1544C26.9942 44.3168 27.8932 44.4184 28.54 44.0674C28.942 43.7385 29.1212 43.4553 29.2969 42.9688C29.3291 42.9688 29.3613 42.9688 29.3945 42.9688C29.4455 43.5927 29.4048 44.0351 29.0039 44.5312C28.5201 45.0436 28.023 45.2199 27.3315 45.2576C26.2533 45.2356 25.3548 44.6665 24.5972 43.9423C24.0188 43.3384 23.6144 42.6898 23.6084 41.8335C23.6165 41.7247 23.6245 41.616 23.6328 41.5039Z" fill="#0A5475"/>
<path d="M17.6757 29.1992C17.8209 29.4745 17.9243 29.747 18.0236 30.0415C18.4165 31.0246 19.1861 31.6695 20.1171 32.1289C20.1823 32.162 20.2475 32.1951 20.3147 32.2292C20.9347 32.5038 21.5977 32.5402 22.2445 32.336C22.82 32.0793 23.0907 31.8275 23.3397 31.25C23.372 31.25 23.4042 31.25 23.4374 31.25C23.486 31.8329 23.3733 32.2267 23.0468 32.7148C22.5696 33.192 22.0823 33.3117 21.4232 33.3435C20.3289 33.3205 19.4171 32.7895 18.6522 32.0312C17.8867 31.1227 17.6172 30.3786 17.6757 29.1992Z" fill="#0A5475"/>
<path d="M4.78493 27.2461C4.94597 27.4877 5.04422 27.683 5.15114 27.948C5.62294 29.0165 6.42988 29.7518 7.5193 30.1758C8.22295 30.3505 9.07407 30.4439 9.72267 30.072C10.0837 29.8064 10.2599 29.5033 10.449 29.1016C10.4812 29.1016 10.5134 29.1016 10.5466 29.1016C10.595 29.6823 10.4883 30.0831 10.156 30.5664C9.69397 31.0438 9.35456 31.1702 8.69728 31.1829C7.64223 31.1851 6.84143 30.8709 6.05446 30.1758C5.99416 30.1234 5.93386 30.071 5.87173 30.0171C5.28858 29.4753 4.80632 28.7874 4.77539 27.9709C4.77709 27.8417 4.77709 27.8417 4.77882 27.71C4.77971 27.6228 4.78059 27.5357 4.78149 27.446C4.78263 27.38 4.78376 27.3141 4.78493 27.2461Z" fill="#095374"/>
<path d="M10.7423 39.4531C10.9565 39.6674 11.0421 39.851 11.1695 40.1245C11.3457 40.4873 11.5123 40.7452 11.8165 41.0156C11.8165 41.0801 11.8165 41.1445 11.8165 41.2109C11.8711 41.2371 11.9258 41.2633 11.9821 41.2903C12.3086 41.4585 12.6155 41.6568 12.9266 41.8518C13.6362 42.2393 14.3427 42.2771 15.1368 42.1875C15.5887 42.0159 15.9764 41.7388 16.211 41.3086C16.2817 41.1152 16.348 40.9201 16.4063 40.7227C16.4386 40.7227 16.4708 40.7227 16.504 40.7227C16.5427 41.4459 16.4517 41.9844 15.9913 42.5598C15.3676 43.0559 14.8302 43.1371 14.0401 43.1194C12.9853 42.9675 12.0034 42.3136 11.3534 41.4814C10.8808 40.8065 10.714 40.272 10.7423 39.4531Z" fill="#095374"/>
<path d="M19.912 3.83573C20.1115 4.03365 20.2081 4.22559 20.2347 4.50521C20.2019 5.04001 20.0183 5.41631 19.7266 5.85866C19.6621 5.85866 19.5977 5.85866 19.5312 5.85866C19.5287 5.78565 19.5262 5.71264 19.5236 5.63741C19.5002 5.06047 19.5002 5.06047 19.281 4.54031C18.4475 4.02737 17.5583 3.99155 16.6016 4.10085C16.2234 4.19713 15.8831 4.33412 15.5273 4.49148C15.3979 4.52698 15.2679 4.56062 15.1367 4.58913C15.6216 3.89417 16.3433 3.51842 17.17 3.34745C18.1209 3.22304 19.0947 3.28249 19.912 3.83573Z" fill="#E9402C"/>
<path d="M10.3821 13.6366C10.7693 13.8558 11.0098 14.0647 11.2305 14.4545C11.2766 14.9218 11.173 15.2597 10.9497 15.6691C10.7422 15.9193 10.7422 15.9193 10.4492 16.1146C10.4597 16.0498 10.4701 15.985 10.4809 15.9182C10.5319 15.5421 10.5737 15.2309 10.4675 14.8634C9.8995 14.2954 9.28449 14.1151 8.48999 14.1127C7.73901 14.1272 7.16331 14.2878 6.50024 14.6254C6.37637 14.6858 6.37637 14.6858 6.25 14.7474C6.18555 14.7152 6.12109 14.683 6.05469 14.6498C7.15202 13.6012 8.91033 13.0344 10.3821 13.6366Z" fill="#E93E2A"/>
<path d="M15.033 8.56391C15.3915 8.74443 15.646 8.90449 15.8203 9.27802C15.8726 9.87087 15.6753 10.3105 15.3568 10.7982C15.3164 10.8444 15.276 10.8906 15.2344 10.9382C15.1699 10.9382 15.1055 10.9382 15.0391 10.9382C15.0459 10.8592 15.0527 10.7803 15.0597 10.699C15.1072 10.1211 15.1072 10.1211 14.9326 9.58663C14.2979 9.03274 13.4629 9.04735 12.6701 9.05677C12.1886 9.09095 11.7781 9.21027 11.3281 9.37568C11.1983 9.40986 11.0682 9.44294 10.9375 9.47333C10.9375 9.40888 10.9375 9.34443 10.9375 9.27802C11.1591 9.14952 11.3809 9.0214 11.6028 8.8935C11.6655 8.85706 11.7283 8.82061 11.7929 8.78306C12.7185 8.25078 14.0204 8.18688 15.033 8.56391Z" fill="#E93E2A"/>
<path d="M31.3721 4.16894C31.4523 4.16611 31.5324 4.16328 31.6151 4.16036C32.3172 4.15312 32.8203 4.3406 33.3496 4.80371C33.5575 5.19359 33.573 5.52454 33.4961 5.95727C33.3003 6.32862 33.1614 6.50589 32.8125 6.73852C32.821 6.6307 32.821 6.6307 32.8297 6.5207C32.8647 5.91149 32.8647 5.91149 32.6172 5.37133C31.7788 4.8124 30.9564 4.80691 29.9805 4.88305C29.7343 4.93923 29.5146 5.00936 29.2812 5.1043C29.0322 5.20369 28.7804 5.23973 28.5156 5.27368C28.8098 4.94771 29.0984 4.76327 29.4922 4.57177C29.5929 4.52205 29.6936 4.47232 29.7974 4.42109C30.3252 4.18802 30.8022 4.17553 31.3721 4.16894Z" fill="#E93E2A"/>
<path d="M23.8285 14.5265C24.1578 14.734 24.3142 14.8929 24.5117 15.2353C24.6004 15.8558 24.4829 16.1937 24.1211 16.7001C24.0244 16.7324 23.9277 16.7646 23.8281 16.7978C23.8327 16.733 23.8372 16.6681 23.8419 16.6013C23.8582 16.2022 23.8682 15.905 23.6938 15.5405C22.9941 14.974 22.2557 14.8755 21.3711 14.8962C20.8677 14.9581 20.4423 15.1174 19.9814 15.3238C19.7266 15.4306 19.7266 15.4306 19.4336 15.4306C20.6022 14.335 22.3119 13.7951 23.8285 14.5265Z" fill="#E93D2A"/>
<path d="M28.418 9.39952C28.7213 9.57502 28.9189 9.75813 29.1016 10.0587C29.1902 10.4977 29.1605 10.9038 28.9185 11.2855C28.8157 11.4033 28.8157 11.4033 28.7109 11.5235C28.6465 11.5235 28.582 11.5235 28.5156 11.5235C28.5083 11.4587 28.501 11.3939 28.4935 11.3271C28.41 10.7233 28.41 10.7233 28.0518 10.254C27.2096 9.73575 26.1956 9.74527 25.2453 9.92938C24.9971 9.99729 24.7541 10.0701 24.5117 10.1564C24.6542 9.77888 24.829 9.67097 25.1892 9.50327C25.2747 9.46261 25.3602 9.42195 25.4482 9.38006C26.3008 9.00836 27.5771 8.9922 28.418 9.39952Z" fill="#E93E2B"/>
<path d="M29.1992 4.6875C29.2637 4.71973 29.3281 4.75195 29.3945 4.78516C29.1748 5.0354 29.1748 5.0354 28.9062 5.27344C28.7773 5.24121 28.6484 5.20898 28.5156 5.17578C28.7412 5.01465 28.9668 4.85352 29.1992 4.6875Z" fill="#E94935"/>
<path d="M17.6758 29.1992C17.8363 29.5202 17.9114 29.7343 17.9688 30.0781C17.9043 30.0781 17.8398 30.0781 17.7734 30.0781C17.7412 30.1426 17.709 30.207 17.6758 30.2734C17.6758 29.9189 17.6758 29.5645 17.6758 29.1992Z" fill="#165D81"/>
<path d="M20.1172 14.8438C20.1816 14.876 20.2461 14.9082 20.3125 14.9414C20.0417 15.2423 19.818 15.3992 19.4336 15.5273C19.6503 15.2434 19.8174 15.0436 20.1172 14.8438Z" fill="#E94632"/>
</svg>
