<svg width="50" height="50" viewBox="0 0 50 50" fill="none" xmlns="http://www.w3.org/2000/svg">
<path d="M11.5234 15.8203C11.6113 17.0729 11.4798 18.2018 11.1816 19.4153C10.6269 21.6961 10.8042 23.56 12.0116 25.5859C12.6503 26.6097 13.4556 27.7244 14.453 28.418C14.4634 28.3471 14.4737 28.2762 14.4843 28.2032C14.7149 27.253 15.5282 26.6713 16.3085 26.1719C16.3927 26.1175 16.477 26.0631 16.5637 26.0071C17.8686 25.1953 17.8686 25.1953 18.3593 25.1953C18.2174 25.5128 18.0372 25.745 17.81 26.0071C16.6665 27.4266 16.0504 29.1351 16.0155 30.957C17.5515 31.9994 19.3769 32.5172 21.1253 33.086C21.6084 33.2434 22.085 33.4097 22.5585 33.5938C22.5585 33.626 22.5585 33.6582 22.5585 33.6914C20.5531 33.7345 18.7577 33.4929 16.8204 32.9608C16.5914 32.8991 16.5914 32.8991 16.3085 32.9102C17.7829 34.1667 20.2473 34.2924 22.0938 34.4738C22.1916 34.4839 22.2895 34.494 22.3903 34.5043C22.4771 34.5125 22.564 34.5206 22.6535 34.529C22.7515 34.5494 22.7515 34.5494 22.8515 34.5703C22.8837 34.6348 22.9159 34.6992 22.9491 34.7656C20.8867 35.1765 18.7449 35.1984 16.6991 34.668C16.7481 34.8636 16.7481 34.8636 16.8945 35.0586C17.1317 35.1555 17.3371 35.2214 17.5842 35.2783C17.6541 35.2948 17.724 35.3113 17.7961 35.3284C18.5746 35.4964 19.3257 35.484 20.1171 35.4492C20.3258 35.4414 20.5344 35.4337 20.7431 35.4259C21.3158 35.4039 21.8884 35.3787 22.4609 35.3516C22.176 35.6626 21.8732 35.7704 21.4782 35.8948C21.3787 35.9265 21.3787 35.9265 21.2773 35.959C20.1415 36.3145 19.054 36.3796 17.871 36.4258C19.3471 37.0854 20.6549 37.1529 22.1843 36.5883C22.8161 36.3311 23.3728 35.9411 23.9257 35.5469C24.0019 35.4989 24.078 35.451 24.1565 35.4015C24.3338 35.2649 24.3338 35.2649 24.3682 35.046C24.3584 34.2782 24.1914 33.6329 23.706 33.0261C23.2929 32.6975 22.8626 32.4282 22.3911 32.1907C21.6216 31.8002 21.1509 31.3807 20.7092 30.6396C20.4718 29.8018 20.5612 29.0175 20.8984 28.2227C20.9306 28.2227 20.9628 28.2227 20.996 28.2227C21.0126 28.3016 21.0293 28.3805 21.0464 28.4618C21.07 28.5662 21.0937 28.6706 21.1181 28.7781C21.1407 28.8812 21.1634 28.9843 21.1868 29.0905C21.3035 29.4378 21.4145 29.6293 21.6796 29.8828C22.004 30.0082 22.004 30.0082 22.3693 30.0781C22.8441 30.1863 23.2488 30.3103 23.6816 30.542C24.3928 30.8844 25.2037 30.8983 25.9597 30.6831C26.1191 30.6185 26.2768 30.5496 26.4323 30.4764C26.6718 30.3657 26.907 30.2908 27.1606 30.2185C27.2406 30.1947 27.3207 30.1709 27.4032 30.1464C27.5543 30.1022 27.7058 30.0596 27.8579 30.019C28.2548 29.8977 28.3927 29.819 28.6498 29.4739C28.8287 29.1034 28.9193 28.7217 29.0038 28.3203C29.3999 28.7852 29.4255 29.2526 29.4147 29.8443C29.3568 30.5135 29.1117 31.0548 28.654 31.5456C28.2447 31.8796 27.7749 32.0993 27.3055 32.3372C26.5651 32.7143 26.0679 33.0864 25.7812 33.8867C25.6502 34.3493 25.5557 34.7812 25.6835 35.2539C25.9842 35.6021 26.3585 35.8164 26.7577 36.0352C26.82 36.0702 26.8822 36.1053 26.9464 36.1414C28.2822 36.8783 29.6359 37.2435 31.1523 36.8164C31.485 36.7005 31.8083 36.5719 32.1288 36.4258C32.0107 36.4221 31.8927 36.4185 31.771 36.4147C30.3261 36.3608 28.9573 36.1851 27.6366 35.5469C27.6044 35.4824 27.5722 35.418 27.539 35.3516C27.6655 35.3586 27.792 35.3657 27.9224 35.3729C30.5445 35.5463 30.5445 35.5463 33.1054 35.0586C33.2234 34.8633 33.2234 34.8633 33.3007 34.668C33.2004 34.688 33.1 34.708 32.9967 34.7286C28.5926 35.5924 28.5926 35.5924 27.0507 34.668C27.2331 34.4856 27.5378 34.5164 27.7831 34.4891C27.9167 34.4737 28.0503 34.4582 28.1839 34.4428C28.254 34.4347 28.3242 34.4267 28.3965 34.4184C29.9134 34.2427 31.3557 34.0123 32.8002 33.4961C32.866 33.4729 32.9318 33.4498 32.9995 33.426C33.3688 33.2853 33.5883 33.1574 33.789 32.8125C33.7307 32.8291 33.6724 32.8457 33.6124 32.8629C31.543 33.4409 29.5942 33.7322 27.4413 33.6914C27.539 33.4961 27.539 33.4961 27.8495 33.3756C27.9882 33.3301 28.127 33.2854 28.2661 33.2413C28.3405 33.2169 28.4149 33.1926 28.4916 33.1675C28.7313 33.0892 28.9713 33.0118 29.2113 32.9346C31.3335 32.2597 31.3335 32.2597 33.3434 31.311C33.4067 31.2764 33.4699 31.2418 33.5351 31.2061C33.6853 31.1238 33.8348 31.0406 33.9843 30.957C34.0351 29.0614 33.2141 27.453 32.1269 25.9541C31.9506 25.7074 31.7925 25.4575 31.6405 25.1953C33.008 25.5726 34.5688 26.4402 35.3088 27.6794C35.3512 27.7599 35.3936 27.8403 35.4373 27.9232C35.5417 28.1384 35.5417 28.1384 35.7421 28.3203C37.478 26.7187 39.0295 24.499 39.1772 22.0836C39.1978 21.2781 39.0717 20.5595 38.8732 19.7815C38.8193 19.5619 38.7655 19.3423 38.7119 19.1227C38.6878 19.0275 38.6638 18.9322 38.639 18.8341C38.5303 18.3659 38.4641 17.9225 38.4669 17.4416C38.4673 17.3465 38.4676 17.2515 38.4679 17.1535C38.4687 17.056 38.4695 16.9584 38.4704 16.8579C38.4708 16.7581 38.4713 16.6583 38.4717 16.5554C38.4729 16.3104 38.4745 16.0653 38.4765 15.8203C39.8903 16.483 40.8608 18.9289 41.3864 20.324C42.0819 22.2991 42.2946 24.61 41.4062 26.5625C40.685 28.0083 39.6988 29.3252 38.6718 30.5664C38.6052 30.6499 38.5386 30.7333 38.47 30.8193C38.0552 31.3366 37.6244 31.8357 37.1764 32.3242C37.1272 32.3781 37.0781 32.4321 37.0274 32.4876C36.7788 32.7558 36.5326 32.9964 36.2304 33.2031C36.1982 33.0098 36.1659 32.8164 36.1327 32.6172C35.2755 33.4427 34.8248 34.3668 34.3463 35.4393C33.8166 36.5855 32.851 37.5747 31.665 38.031C31.317 38.1526 31.0326 38.2002 30.664 38.1836C30.6553 38.2813 30.6466 38.379 30.6377 38.4796C30.577 38.9007 30.4113 39.2308 30.2062 39.5996C30.1714 39.6636 30.1366 39.7275 30.1007 39.7934C29.8456 40.2508 29.5712 40.6436 29.1991 41.0156C29.1669 41.0156 29.1347 41.0156 29.1015 41.0156C29.1038 40.9492 29.106 40.8827 29.1084 40.8142C29.1243 39.9551 29.0267 39.1295 28.9062 38.2812C28.8001 38.2953 28.6939 38.3094 28.5846 38.324C26.0823 38.6235 23.4959 38.5744 20.996 38.2812C20.8991 39.1952 20.8879 40.098 20.8984 41.0156C20.4575 40.681 20.169 40.3577 19.9035 39.8682C19.8693 39.8081 19.8351 39.7481 19.7998 39.6863C19.6117 39.3465 19.4908 39.039 19.4152 38.6597C19.3678 38.4486 19.3678 38.4486 19.2382 38.2812C18.9295 38.1438 18.6257 38.0641 18.2975 37.9841C17.8241 37.8495 17.4738 37.6047 17.0898 37.3047C16.9682 37.2125 16.9682 37.2125 16.8441 37.1185C16.1197 36.508 15.7459 35.7095 15.3808 34.8572C14.9942 33.9553 14.5897 33.1984 13.7695 32.6172C13.7695 32.8105 13.7695 33.0039 13.7695 33.2031C12.7935 32.6526 12.1103 31.6269 11.4257 30.7617C11.3784 30.7019 11.331 30.6421 11.2822 30.5805C9.50553 28.3246 7.77017 26.0682 8.00774 23.0469C8.17285 21.6893 9.64763 15.8203 11.5234 15.8203Z" fill="#DCDCDC"/>
<path d="M9.66475 0.846268C10.031 1.01415 10.3331 1.22972 10.6444 1.4837C11.8941 2.4767 13.3366 3.03632 14.8436 3.51617C14.9146 3.54075 14.9856 3.56533 15.0588 3.59066C16.1768 3.96865 16.8814 3.69509 17.922 3.24915C22.1965 1.42485 26.9791 1.47074 31.3139 2.99013C31.3772 3.0123 31.4404 3.03447 31.5056 3.05731C31.8159 3.16681 32.1248 3.27887 32.4331 3.39394C33.4986 3.78167 34.1962 3.78011 35.272 3.45514C35.362 3.42842 35.452 3.4017 35.5447 3.37417C37.2218 2.86364 38.638 2.03482 40.0469 1.0042C40.4361 0.74498 40.8548 0.719702 41.3084 0.7818C42.3455 1.33086 42.9133 2.3341 43.2616 3.41852C44.0044 6.16036 42.9153 8.93468 41.9041 11.4665C41.6089 12.207 41.6089 12.207 41.6014 12.9888C41.6878 13.2074 41.6878 13.2074 41.8333 13.3917C41.8873 13.4669 41.9413 13.5422 41.997 13.6198C42.1295 13.7924 42.2636 13.9637 42.399 14.134C44.8532 17.2327 46.626 20.9262 46.2216 24.9537C46.1039 25.892 45.9253 26.8437 45.6053 27.7349C45.5408 27.7027 45.4764 27.6705 45.41 27.6373C45.3433 27.4151 45.3433 27.4151 45.2833 27.1196C45.2606 27.011 45.2378 26.9024 45.2143 26.7905C45.1903 26.6731 45.1662 26.5558 45.1414 26.4349C44.1007 21.5774 41.9562 17.0193 39.0623 12.9888C39.2208 12.5808 39.5224 12.3151 39.8314 12.0184C40.1872 11.6742 40.519 11.333 40.8201 10.938C40.7328 10.8907 40.6454 10.8434 40.5554 10.7946C39.8053 10.3815 39.1203 9.94589 38.4764 9.37555C38.4099 9.31714 38.3435 9.25873 38.275 9.19855C37.7521 8.71055 37.4489 8.16626 37.3846 7.43692C37.459 6.54812 38.263 5.68485 38.7694 4.98102C38.3802 5.06138 38.1171 5.24084 37.7928 5.4693C37.7283 5.43707 37.6639 5.40485 37.5975 5.37164C38.1488 4.58936 38.7367 3.85501 39.3553 3.12555C38.5402 3.52751 37.7294 3.93619 36.9276 4.36418C36.8562 4.40229 36.7848 4.4404 36.7112 4.47966C36.4189 4.63584 36.1267 4.79229 35.8347 4.94914C35.6174 5.06581 35.3997 5.18195 35.182 5.29802C35.1163 5.33351 35.0506 5.36901 34.9829 5.40558C34.2334 5.8043 34.2334 5.8043 33.8701 5.70352C33.7936 5.67054 33.717 5.63756 33.6382 5.60358C33.5507 5.56709 33.4632 5.53061 33.373 5.49302C33.2786 5.45297 33.1842 5.41291 33.087 5.37164C31.2373 4.6192 29.3166 4.11286 27.3436 3.80914C27.2664 3.79718 27.1892 3.78523 27.1097 3.7729C23.4553 3.23432 19.6734 4.19234 16.3119 5.59421C15.7304 5.80017 15.7304 5.80017 15.4078 5.68438C15.3347 5.64223 15.2615 5.60008 15.1861 5.55666C15.1022 5.50944 15.0183 5.46223 14.9319 5.41358C14.8423 5.36147 14.7528 5.30936 14.6605 5.25568C14.4686 5.14739 14.2766 5.03931 14.0845 4.93143C13.985 4.87525 13.8856 4.81907 13.7832 4.7612C13.2792 4.48063 12.7677 4.21495 12.2557 3.94952C12.1619 3.90072 12.0682 3.85192 11.9715 3.80163C11.5309 3.57269 11.0894 3.34585 10.6444 3.12555C10.7222 3.21405 10.8 3.30254 10.8801 3.39372C11.4322 4.02664 11.9669 4.64996 12.4022 5.37164C12.0659 5.37164 11.9385 5.29392 11.6514 5.1275C11.5725 5.08218 11.4936 5.03687 11.4123 4.99017C11.3522 4.95493 11.2922 4.91968 11.2303 4.88336C11.2963 4.98822 11.3622 5.09309 11.4302 5.20113C11.5182 5.34138 11.6062 5.48163 11.6942 5.62189C11.7375 5.69068 11.7808 5.75948 11.8254 5.83036C12.6896 7.20926 12.6896 7.20926 12.5975 7.81305C12.1505 9.14269 11.0331 9.8883 9.86312 10.5474C9.7363 10.6198 9.60952 10.6923 9.48279 10.7649C9.33267 10.8506 9.33267 10.8506 9.17952 10.938C9.41748 11.1924 9.65555 11.4467 9.89363 11.701C9.96104 11.7731 10.0285 11.8451 10.0979 11.9194C10.1631 11.9889 10.2282 12.0585 10.2953 12.1301C10.3552 12.1941 10.415 12.258 10.4766 12.3239C10.6278 12.4831 10.7813 12.6391 10.9373 12.7935C10.7881 13.2257 10.5543 13.5799 10.2965 13.9532C7.68457 17.8125 5.80766 22.0599 4.81055 26.6119C4.7256 26.9955 4.62857 27.3657 4.49202 27.7349C3.37863 26.0648 3.6145 23.26 3.96712 21.3934C4.56841 18.4887 6.1682 15.9117 8.01833 13.6328C8.3531 13.1735 8.42159 12.8971 8.3428 12.3293C8.2695 11.9481 8.13826 11.5906 8.00574 11.2264C7.9455 11.0554 7.8853 10.8844 7.82511 10.7134C7.73111 10.4491 7.63669 10.185 7.54166 9.9211C6.73042 7.65998 5.97125 5.1284 7.01544 2.80779C7.53391 1.72105 8.22699 0.364162 9.66475 0.846268Z" fill="#DCDCDC"/>
<path d="M33.3009 7.61719C33.8183 7.89314 34.279 8.21777 34.7493 8.56743C34.9726 8.7274 35.1947 8.87865 35.426 9.02596C36.8471 9.93115 37.7855 11.0066 38.1837 12.6953C38.2706 13.6766 38.1436 14.4793 37.7408 15.3709C36.9784 17.1056 37.2787 18.8541 37.6192 20.6612C37.8409 21.8448 37.9091 22.7626 37.3353 23.8464C36.8013 24.4959 36.1805 24.8563 35.3516 25C34.2535 25.1046 33.4012 24.8814 32.4918 24.2676C32.3243 24.1211 32.3243 24.1211 32.2266 23.8281C32.3543 23.8243 32.3543 23.8243 32.4845 23.8205C33.3992 23.7769 34.3422 23.6791 35.1075 23.1262C35.7489 22.4046 35.8075 21.671 35.7755 20.7344C35.7454 20.2392 35.6441 19.7691 35.5134 19.2909C35.4493 19.043 35.4493 19.043 35.4493 18.75C35.3848 18.75 35.3204 18.75 35.254 18.75C35.25 18.8406 35.2459 18.9313 35.2418 19.0247C35.1122 19.8895 34.5756 20.5875 33.915 21.1277C33.0147 21.7776 32.0556 21.9494 30.9571 21.875C30.826 21.8461 30.6953 21.8149 30.5665 21.7773C30.5392 21.8608 30.5118 21.9443 30.4837 22.0303C30.4113 22.2444 30.3356 22.4574 30.2556 22.6688C29.8721 23.719 29.7184 24.7712 29.5899 25.8789C28.951 25.2891 28.8441 24.1753 28.79 23.3463C28.7338 21.7488 29.2297 20.2182 29.9565 18.8084C30.3473 18.0458 30.4604 17.5389 30.2735 16.6992C30.26 16.6373 30.2465 16.5753 30.2326 16.5115C30.0042 15.5112 29.6205 14.6646 29.091 13.7886C28.9063 13.4766 28.9063 13.4766 28.8087 13.1836C29.7301 13.3669 30.6854 13.6336 31.3538 14.3372C31.878 15.1995 31.7585 16.213 31.7384 17.1875C31.8271 17.1723 31.9159 17.157 32.0073 17.1413C33.0755 16.9759 34.0899 16.9521 35.1563 17.1875C35.1918 17.0459 35.1918 17.0459 35.228 16.9014C35.5238 15.746 35.5238 15.746 35.7606 15.2222C36.1707 14.2391 36.0649 13.2944 35.7423 12.3047C35.5704 11.9038 35.3704 11.5221 35.1624 11.1389C35.1071 11.0347 35.0519 10.9304 34.9949 10.823C34.5646 10.0175 34.1158 9.22235 33.6532 8.43489C33.6068 8.35551 33.5604 8.27613 33.5126 8.19435C33.4716 8.125 33.4305 8.05564 33.3883 7.98419C33.3009 7.8125 33.3009 7.8125 33.3009 7.61719ZM33.5938 18.1641C33.5843 18.2278 33.5747 18.2915 33.5648 18.3571C33.4428 19.0704 33.2594 19.554 32.6661 20.0012C32.1681 20.3509 31.6462 20.3564 31.0548 20.3125C30.7069 20.2148 30.7069 20.2148 30.4688 20.1172C30.24 20.3782 30.24 20.3782 30.1759 20.7031C30.9157 21.0891 31.5764 21.101 32.3731 20.8557C33.1652 20.5378 33.8768 19.9419 34.2183 19.1467C34.3225 18.7917 34.358 18.435 34.3751 18.0664C34.0778 18.0584 33.8798 18.0687 33.5938 18.1641ZM31.7384 18.75C31.6417 18.7983 31.6417 18.7983 31.543 18.8477C31.543 18.9766 31.543 19.1055 31.543 19.2383C31.672 19.2705 31.8009 19.3027 31.9337 19.3359C31.9981 19.207 32.0626 19.0781 32.129 18.9453C31.9451 18.8371 31.9451 18.8371 31.7384 18.75Z" fill="#DCDCDC"/>
<path d="M16.6994 7.71484C16.5596 8.08775 16.3879 8.42614 16.192 8.77266C16.1305 8.88216 16.069 8.99165 16.0056 9.10447C15.9572 9.19026 15.9572 9.19026 15.9078 9.27779C14.3131 11.7905 14.3131 11.7905 14.0749 14.624C14.1685 14.9576 14.2745 15.2858 14.3865 15.6136C14.4197 15.7107 14.4197 15.7107 14.4534 15.8097C14.5174 15.9946 14.5835 16.1787 14.6498 16.3628C14.7435 16.6897 14.7654 16.9474 14.7463 17.2852C14.8267 17.2544 14.9072 17.2237 14.99 17.1921C15.3679 17.0792 15.7282 17.0379 16.1196 17.0166C16.2277 17.0103 16.2277 17.0103 16.3379 17.0038C16.9987 16.9747 17.6138 17.0511 18.2619 17.1875C18.2596 17.0942 18.2574 17.0009 18.255 16.9048C18.2271 14.9046 18.2271 14.9046 18.683 14.2761C19.333 13.615 20.2858 13.312 21.1916 13.2812C21.1468 13.3568 21.102 13.4323 21.0558 13.5101C20.8712 13.8234 20.6891 14.1379 20.508 14.4531C20.4688 14.5203 20.4297 14.5876 20.3894 14.6568C19.9079 15.5423 19.4692 16.8541 19.6291 17.8711C19.7715 18.2482 19.9555 18.6004 20.1418 18.9575C21.128 20.9281 21.5319 22.9358 20.915 25.0843C20.8061 25.3767 20.6841 25.6218 20.508 25.8789C20.4758 25.8789 20.4435 25.8789 20.4103 25.8789C20.4009 25.7928 20.4009 25.7928 20.3912 25.7049C20.2397 24.3713 20.0705 23.0781 19.4338 21.875C19.3487 21.8784 19.2636 21.8818 19.1759 21.8853C17.8631 21.9151 16.729 21.7183 15.7228 20.8221C15.1899 20.2617 14.7463 19.5356 14.7463 18.75C14.6818 18.75 14.6174 18.75 14.551 18.75C14.5203 18.9005 14.4898 19.0511 14.4594 19.2017C14.4424 19.2855 14.4254 19.3693 14.4079 19.4557C14.1956 20.5559 14.026 21.7411 14.5918 22.7558C15.1572 23.4637 16.0021 23.667 16.8691 23.7766C17.1708 23.8 17.4713 23.8182 17.7736 23.8281C17.5424 24.3726 17.1012 24.5744 16.5766 24.8032C15.6485 25.1278 14.5951 25.1616 13.6961 24.7379C12.9702 24.3125 12.4423 23.7716 12.2072 22.9492C12.0745 21.8978 12.2737 20.9058 12.5028 19.8822C12.9087 18.0336 12.7936 16.4504 11.9954 14.7372C11.6473 13.9379 11.7207 12.8785 12.002 12.0701C12.6786 10.4744 13.5232 9.65805 14.9736 8.778C15.4428 8.49249 15.8795 8.17898 16.3153 7.84454C16.5041 7.71484 16.5041 7.71484 16.6994 7.71484ZM15.6252 18.0664C15.6824 18.9816 15.9199 19.616 16.5953 20.2534C17.3635 20.8502 18.1804 21.0843 19.1408 20.9961C19.3898 20.9203 19.5923 20.8242 19.8244 20.7031C19.7277 20.542 19.631 20.3809 19.5314 20.2148C19.4408 20.239 19.4408 20.239 19.3483 20.2637C18.4822 20.4023 17.825 20.3385 17.09 19.8242C16.5964 19.3687 16.4934 18.8096 16.4064 18.1641C16.1486 18.1318 15.8908 18.0996 15.6252 18.0664ZM18.0666 18.75C17.9699 18.895 17.9699 18.895 17.8713 19.043C17.9679 19.188 17.9679 19.188 18.0666 19.3359C18.1955 19.3037 18.3244 19.2715 18.4572 19.2383C18.425 19.0771 18.3928 18.916 18.3596 18.75C18.2629 18.75 18.1662 18.75 18.0666 18.75Z" fill="#DCDCDC"/>
<path d="M9.57041 30.6641C9.77931 30.873 9.83843 31.0428 9.93156 31.3179C10.5088 33.0168 11.3901 34.6274 12.5001 36.0352C12.5721 36.1276 12.6441 36.22 12.7183 36.3152C13.4077 37.1781 14.1565 37.993 14.9415 38.7695C14.8305 37.4781 14.6305 36.2275 14.3556 34.9609C14.42 34.9609 14.4845 34.9609 14.5509 34.9609C14.7313 35.2018 14.9015 35.4441 15.0697 35.6934C15.5399 36.3777 16.0375 37.0273 16.5745 37.6606C17.1301 38.3243 17.3398 38.9375 17.5111 39.7766C18.0545 42.2773 19.1398 44.3707 20.7032 46.3867C20.2289 46.3266 19.8554 46.1269 19.4398 45.9045C19.3668 45.8657 19.2939 45.8268 19.2187 45.7867C18.4969 45.3928 17.8399 44.9324 17.1876 44.4336C17.1016 44.3684 17.0156 44.3032 16.9271 44.236C16.2645 43.7198 15.6506 43.153 15.0392 42.5781C14.977 42.5212 14.9148 42.4643 14.8507 42.4057C14.3106 41.8941 13.8655 41.2969 13.4169 40.7058C13.3306 40.5922 13.2438 40.4789 13.1565 40.366C11.1592 37.7762 9.37459 34.022 9.57041 30.6641Z" fill="#DCDCDC"/>
<path d="M40.332 30.6641C40.3643 30.6641 40.3965 30.6641 40.4297 30.6641C40.3471 35.4139 37.7757 39.8195 34.4608 43.0756C33.1063 44.377 31.3694 45.7348 29.5898 46.3867C29.5254 46.3545 29.4609 46.3223 29.3945 46.2891C29.463 46.1992 29.5315 46.1093 29.6021 46.0167C31.1489 43.9632 32.2631 41.698 32.6233 39.1296C32.7758 38.3689 33.2354 37.891 33.733 37.3234C34.1564 36.8388 34.5152 36.3139 34.8758 35.7819C34.9213 35.7157 34.9668 35.6495 35.0136 35.5812C35.0728 35.4933 35.0728 35.4933 35.1332 35.4037C35.2539 35.2539 35.2539 35.2539 35.5469 35.0586C35.4875 35.5739 35.4063 36.0758 35.3027 36.5845C35.1594 37.3121 35.0922 38.028 35.0586 38.7695C35.7619 38.0898 36.4153 37.398 37.0117 36.6211C37.0635 36.5541 37.1153 36.4871 37.1686 36.418C38.541 34.6318 39.5557 32.7788 40.332 30.6641Z" fill="#DCDCDC"/>
<path d="M25.1771 5.72318C25.3046 5.79774 25.4314 5.87351 25.5576 5.95027C26.0119 6.16189 26.5278 6.10805 27.0203 6.10939C28.6302 6.14581 30.0325 6.35053 31.2866 7.47658C32.043 8.30506 32.4204 9.34404 32.5195 10.449C32.2013 10.3061 31.9613 10.1246 31.6956 9.89968C30.0309 8.55231 28.3956 7.80561 26.2602 7.97995C26.1788 7.98605 26.0974 7.99215 26.0136 7.99843C25.9042 8.00797 25.9042 8.00797 25.7925 8.01769C25.55 8.00583 25.4092 7.92206 25.1953 7.81227C24.9048 7.84133 24.6755 7.87684 24.4141 8.00759C24.2327 8.00506 24.2327 8.00506 24.0124 7.98546C21.6932 7.80496 19.9107 8.57379 18.1358 10.0488C18.0747 10.1023 18.0135 10.1558 17.9504 10.211C17.6758 10.449 17.6758 10.449 17.4805 10.449C17.7163 9.11858 18.0761 8.02285 19.1406 7.12868C20.471 6.26878 21.6938 6.12079 23.2557 6.11397C23.9836 6.10546 23.9836 6.10546 24.6426 5.83092C24.9522 5.64781 24.9522 5.64781 25.1771 5.72318Z" fill="#DCDCDC"/>
<path d="M43.0664 24.4141C44.5707 26.6705 44.2881 30.3325 43.8215 32.8525C43.2778 35.5605 41.901 37.8172 39.9414 39.7461C39.877 39.7139 39.8125 39.6816 39.7461 39.6484C39.7968 39.5315 39.8476 39.4145 39.8998 39.2941C41.1231 36.4509 41.7157 33.5794 41.8945 30.4932C41.957 29.4224 42.0386 28.3892 42.2852 27.3438C42.3185 27.2022 42.3185 27.2022 42.3525 27.0578C42.8155 25.1188 42.8155 25.1188 43.0664 24.4141Z" fill="#DCDCDC"/>
<path d="M6.83591 24.4141C6.90036 24.4463 6.96481 24.4785 7.03122 24.5117C7.11305 24.7778 7.11305 24.7778 7.19296 25.1312C7.2074 25.194 7.22183 25.2568 7.2367 25.3215C7.28291 25.5234 7.32797 25.7256 7.37302 25.9277C7.40333 26.061 7.43372 26.1943 7.46419 26.3275C7.54877 26.6986 7.63203 27.0699 7.71481 27.4414C7.73167 27.5103 7.74853 27.5792 7.7659 27.6503C7.89147 28.1764 7.95082 28.6849 7.97955 29.2244C7.99015 29.3969 8.00081 29.5694 8.01153 29.7419C8.01684 29.8308 8.02216 29.9196 8.02763 30.0112C8.12366 31.5827 8.24054 33.1299 8.59372 34.668C8.6237 34.8021 8.6237 34.8021 8.65428 34.939C9.033 36.5999 9.62162 38.1676 10.2539 39.7461C8.56279 38.9899 7.3201 36.4373 6.68942 34.7919C5.49601 31.5033 5.54632 27.6662 6.83591 24.4141Z" fill="#DCDCDC"/>
<path d="M24.8045 8.88511C24.484 9.67885 23.9315 10.2391 23.3397 10.8382C23.2679 10.9124 23.1962 10.9865 23.1223 11.0629C22.297 11.8588 21.2448 12.2523 20.1903 12.651C18.8625 13.142 18.8625 13.142 17.9019 14.1402C17.5915 14.8918 17.4469 15.7079 17.285 16.5023C16.6485 16.4307 16.3406 16.186 15.9178 15.721C15.5386 15.1989 15.4398 14.6962 15.5272 14.0609C15.7784 12.6952 17.3015 11.7682 18.3592 11.0335C20.2758 9.74638 22.4445 8.79256 24.8045 8.88511Z" fill="#DCDCDC"/>
<path d="M25.293 8.88672C28.01 8.95986 30.3084 9.92676 32.4219 11.6211C32.5177 11.6959 32.6135 11.7706 32.7122 11.8477C33.5333 12.4997 34.3238 13.1758 34.5066 14.2647C34.5328 14.845 34.3858 15.3587 34.0321 15.8157C33.6638 16.2097 33.3203 16.4254 32.8125 16.6016C32.6886 16.1837 32.5834 15.7682 32.491 15.3419C32.2593 14.3112 31.9203 13.7246 31.0223 13.1381C30.5517 12.8675 30.0481 12.6843 29.541 12.4939C27.8729 11.8616 26.4728 11.0151 25.4883 9.47266C25.4172 9.27943 25.3506 9.08437 25.293 8.88672Z" fill="#DCDCDC"/>
<path d="M20.0195 42.4805C20.4377 42.539 20.734 42.688 21.0999 42.8955C21.8522 43.3111 22.6278 43.6751 23.407 44.0369C23.4682 44.0654 23.5293 44.094 23.5924 44.1234C23.7688 44.2058 23.9455 44.2874 24.1222 44.3691C24.2254 44.4168 24.3286 44.4645 24.4349 44.5137C24.5247 44.5517 24.6145 44.5897 24.707 44.6289C24.7688 44.6567 24.8305 44.6846 24.8941 44.7132C25.236 44.7356 25.5144 44.5653 25.8141 44.4183C25.884 44.3851 25.9539 44.3519 26.0259 44.3177C26.25 44.2109 26.4734 44.1026 26.6968 43.9941C26.8433 43.9241 26.99 43.8542 27.1366 43.7843C27.7011 43.5146 28.2651 43.245 28.8201 42.9562C28.8828 42.9238 28.9456 42.8914 29.0102 42.858C29.1799 42.77 29.349 42.6807 29.518 42.5913C29.7852 42.4805 29.7852 42.4805 30.0781 42.5781C28.3295 44.6634 28.3295 44.6634 27.7344 45.1599C26.4977 46.2129 25.6032 47.6895 25.0977 49.2188C25.0332 49.2188 24.9688 49.2188 24.9023 49.2188C24.875 49.1407 24.8477 49.0627 24.8196 48.9822C24.3554 47.7105 23.7511 46.7367 22.8111 45.7663C22.5258 45.4701 22.2467 45.168 21.9666 44.8669C21.8509 44.7428 21.7351 44.6187 21.6194 44.4946C21.5638 44.435 21.5082 44.3753 21.4509 44.3138C21.2995 44.1518 21.1475 43.9906 20.9953 43.8293C20.909 43.7367 20.8226 43.644 20.7336 43.5486C20.6587 43.4689 20.5838 43.3892 20.5067 43.3071C20.2964 43.0464 20.1584 42.7843 20.0195 42.4805Z" fill="#DCDCDC"/>
<path d="M31.7017 5.79709C32.0909 6.17249 32.4007 6.63225 32.6172 7.12766C32.585 7.19211 32.5527 7.25657 32.5195 7.32297C32.3898 7.24857 32.3898 7.24857 32.2575 7.17267C30.5633 6.22244 28.7441 5.64068 26.8066 5.47971C26.1121 5.42156 25.6228 5.2722 25.0977 4.78391C24.6919 4.97887 24.6919 4.97887 24.3168 5.22489C23.8679 5.44671 23.4067 5.46162 22.9126 5.51023C21.1049 5.71403 19.4561 6.198 17.8783 7.11774C17.6758 7.22532 17.6758 7.22532 17.4805 7.22532C17.5139 6.6898 17.8275 6.34616 18.1641 5.95579C18.2127 5.89813 18.2612 5.84047 18.3113 5.78107C21.3291 2.70717 28.5519 3.27131 31.7017 5.79709Z" fill="#DCDCDC"/>
<path d="M25.293 10.7418C26.2617 11.2621 26.9526 12.2897 27.623 13.1302C27.8318 13.3859 27.8318 13.3859 28.0853 13.6292C28.29 13.8362 28.4393 14.0221 28.5889 14.2697C28.6286 14.3344 28.6684 14.3991 28.7094 14.4657C28.9248 14.8618 28.9486 15.1801 28.9062 15.6246C28.7204 16.1039 28.559 16.5072 28.125 16.7965C28.0847 16.7078 28.0444 16.619 28.0029 16.5276C26.9666 14.0212 26.9666 14.0212 25.0977 12.2067C24.5268 12.3018 24.1007 12.7844 23.7706 13.2337C23.7312 13.2895 23.6917 13.3454 23.6511 13.403C23.6091 13.4622 23.5671 13.5214 23.5238 13.5824C23.0589 14.2567 22.7057 14.9802 22.3633 15.7223C22.3115 15.8337 22.2598 15.9451 22.2065 16.0599C22.0943 16.3047 21.9836 16.5501 21.875 16.7965C21.4326 16.4976 21.2548 16.231 21.0937 15.7223C21.0029 15.0299 21.1918 14.5393 21.582 13.9645C21.8126 13.7103 22.0542 13.4745 22.3034 13.2386C22.6389 12.909 22.9253 12.549 23.2193 12.1826C23.4432 11.9067 23.6726 11.6372 23.9075 11.3705C23.9766 11.2918 24.0457 11.2131 24.1169 11.1321C24.4782 10.779 24.789 10.6643 25.293 10.7418Z" fill="#DCDCDC"/>
<path d="M25.2927 13.7695C26.1746 14.622 26.8263 15.6457 27.4412 16.6992C27.4859 16.7716 27.5306 16.844 27.5766 16.9186C27.8635 17.4189 27.9237 17.8869 27.8318 18.457C27.582 19.1679 27.582 19.1679 27.2459 19.3359C27.2032 19.2276 27.2032 19.2276 27.1597 19.1171C26.4304 17.2652 26.4304 17.2652 25.5331 15.4907C25.3083 15.0869 25.2817 14.793 25.2866 14.3372C25.2875 14.231 25.2884 14.1249 25.2893 14.0156C25.2904 13.9344 25.2916 13.8532 25.2927 13.7695Z" fill="#DCDCDC"/>
<path d="M24.5117 13.7695C24.5762 13.7695 24.6406 13.7695 24.707 13.7695C24.7124 13.9038 24.7161 14.0381 24.7192 14.1724C24.7215 14.2471 24.7238 14.3219 24.7261 14.399C24.6742 15.0773 24.3013 15.6786 24.0051 16.2781C23.5185 17.2762 23.1129 18.2858 22.7539 19.3359C22.3362 18.931 22.1623 18.6337 22.1313 18.0481C22.1684 16.9211 22.9142 16.0238 23.5352 15.1367C23.6265 15.0041 23.7178 14.8715 23.8091 14.7388C23.8967 14.613 23.9844 14.4872 24.0723 14.3616C24.1339 14.2723 24.1339 14.2723 24.1969 14.1812C24.2969 14.0403 24.4037 13.9044 24.5117 13.7695Z" fill="#DCDCDC"/>
</svg>
