<svg width="50" height="50" viewBox="0 0 50 50" fill="none" xmlns="http://www.w3.org/2000/svg">
<path d="M33.8595 4.24712C34.6477 4.98539 35.2181 5.89011 35.6522 6.87094C35.6794 6.93231 35.7066 6.99367 35.7346 7.0569C36.1122 7.95667 36.187 8.87827 36.2557 9.84174C36.2722 10.0717 36.2895 10.3015 36.3071 10.5313C36.3568 11.1844 36.4051 11.8375 36.4527 12.4907C36.7306 16.2874 37.28 19.8636 38.7922 23.3853C40.2531 26.789 41.5845 30.4335 41.5729 34.1797C41.5728 34.2469 41.5727 34.3141 41.5726 34.3833C41.5679 35.5202 41.4725 36.5907 41.1513 37.6852C41.129 37.7625 41.1068 37.8398 41.0839 37.9195C40.4252 40.1383 39.2818 42.1374 37.6989 43.8212C37.5355 43.996 37.3839 44.1711 37.2362 44.3588C35.4565 46.4196 32.7238 47.724 30.1531 48.4605C30.062 48.487 30.062 48.487 29.969 48.5139C28.5787 48.8861 27.2017 49.0081 25.7677 48.9981C25.5041 48.9966 25.2406 48.9981 24.977 49C20.9485 49.0048 17.0652 47.6608 14.0884 44.9118C13.9201 44.7581 13.7502 44.6142 13.5715 44.4732C11.63 42.7906 10.2148 40.1317 9.54206 37.6852C9.52316 37.6189 9.50426 37.5527 9.48479 37.4844C8.85773 35.2008 9.01564 32.6474 9.54206 30.3611C9.5643 30.2641 9.58653 30.1672 9.60944 30.0673C10.1727 27.6873 11.0406 25.4095 11.9814 23.1574C12.4474 22.0408 12.9038 20.9351 13.2041 19.7604C13.2284 19.6656 13.2526 19.5708 13.2776 19.4731C13.3584 19.1499 13.4355 18.826 13.5113 18.5016C13.5343 18.4055 13.5572 18.3094 13.5809 18.2104C13.9512 16.5388 14.0676 14.8138 14.1915 13.1098C14.1963 13.0442 14.2011 12.9786 14.206 12.911C14.25 12.3046 14.2932 11.6982 14.3342 11.0917C14.3571 10.7544 14.3813 10.4172 14.4064 10.0801C14.4198 9.89513 14.4317 9.71006 14.4436 9.525C14.5901 7.57947 15.2637 5.97963 16.577 4.53397C16.629 4.47422 16.6809 4.41446 16.7344 4.3529C18.1323 2.83912 20.1315 1.99857 22.0701 1.45013C22.1679 1.42195 22.1679 1.42195 22.2676 1.3932C26.2991 0.29588 30.7737 1.5741 33.8595 4.24712Z" fill="#FD8088"/>
<path d="M13.6081 19.6406C14.2128 19.6803 14.5195 19.9066 14.9271 20.3333C15.3788 20.8004 15.7881 21.0725 16.4389 21.1524C17.146 21.0624 17.5425 20.7678 18.052 20.2934C18.2157 20.1466 18.2157 20.1466 18.4085 20.0502C18.4168 20.1295 18.4251 20.2087 18.4337 20.2904C18.5458 21.1812 18.7253 21.9717 19.4083 22.598C20.6138 23.5143 22.3606 23.4053 23.8052 23.5195C23.5451 27.7085 22.8871 32.1627 21.0105 35.9512C20.9797 36.0149 20.9489 36.0785 20.9172 36.1441C20.0503 37.9245 18.8825 39.3359 17.0593 40.1915C15.6124 40.6882 14.3658 40.5127 12.9937 39.8783C11.2843 38.9697 9.84692 37.2812 9.25676 35.428C8.22034 31.464 10.5572 26.55 12.07 22.9481C12.4694 21.9969 12.8306 21.0486 13.1161 20.0558C13.2318 19.6701 13.2318 19.6701 13.6081 19.6406Z" fill="#EA3642"/>
<path d="M37.2967 19.5664C37.5218 19.7914 37.561 19.9397 37.654 20.2421C37.686 20.3434 37.718 20.4447 37.751 20.5491C37.786 20.6601 37.8209 20.7711 37.8569 20.8855C38.1575 21.8172 38.4958 22.7196 38.8857 23.6176C39.9634 26.1008 40.8294 28.6626 41.3443 31.3235C41.3696 31.4474 41.3949 31.5712 41.4211 31.6988C41.7504 33.575 41.695 35.442 40.6369 37.0737C39.5244 38.6365 38.1169 40.0279 36.1644 40.4184C34.6618 40.6287 33.3623 40.242 32.1372 39.3335C28.0805 35.8902 27.4151 29.1522 26.9077 24.2456C26.889 24.0018 26.8854 23.7619 26.8888 23.5176C26.9833 23.5111 26.9833 23.5111 27.0797 23.5045C29.5228 23.4289 29.5228 23.4289 31.5868 22.2949C32.09 21.6302 32.2508 20.8651 32.2855 20.0483C32.3275 20.0855 32.3695 20.1228 32.4128 20.1612C33.0718 20.7375 33.5886 21.1692 34.502 21.1083C35.2031 20.8916 35.6592 20.4182 36.1825 19.9218C36.5222 19.6981 36.889 19.5872 37.2967 19.5664Z" fill="#EA3542"/>
<path d="M29.299 5.59523C30.8902 6.84559 32.0196 8.77635 32.2865 10.7992C32.4166 13.2232 31.9401 15.5006 30.3289 17.3764C29.1643 18.6028 27.6576 19.5666 25.9261 19.6652C25.829 19.6714 25.732 19.6777 25.6321 19.6841C23.8872 19.7433 22.2611 19.1685 20.9691 17.9908C19.4709 16.5564 18.4734 14.6226 18.3667 12.5267C18.3181 10.1567 18.9908 8.03756 20.6257 6.26982C22.9856 3.84144 26.5833 3.65248 29.299 5.59523Z" fill="#FEBCA0"/>
<path d="M41.4408 34.8867C41.4726 34.8867 41.5044 34.8867 41.5372 34.8867C41.6187 38.1576 39.8926 41.4843 37.6993 43.8175C37.536 43.9923 37.3844 44.1674 37.2367 44.3551C35.4569 46.4159 32.7242 47.7202 30.1535 48.4568C30.0624 48.4832 30.0624 48.4832 29.9694 48.5102C28.5791 48.8824 27.2021 49.0044 25.7681 48.9944C25.5045 48.9929 25.241 48.9944 24.9774 48.9962C20.9489 49.0011 17.0656 47.657 14.0888 44.9081C13.9205 44.7543 13.7507 44.6105 13.5719 44.4695C11.3533 42.5467 9.90157 39.4984 9.31962 36.6756C9.30307 36.5957 9.28652 36.5159 9.26946 36.4336C9.17442 35.9414 9.14146 35.4843 9.157 34.9831C9.35023 35.2729 9.44528 35.5231 9.56055 35.8504C10.2114 37.5601 11.5634 39.0737 13.2045 39.898C14.5001 40.4437 15.5904 40.4553 16.9629 40.1871C16.9967 40.3004 17.0305 40.4136 17.0653 40.5304C17.2949 41.1384 17.6979 41.5101 18.2639 41.8133C18.6031 41.9223 18.9218 41.982 19.2758 42.0181C19.2724 42.0996 19.2691 42.1811 19.2656 42.265C19.2464 43.0692 19.2507 43.6682 19.7878 44.3069C20.421 44.837 20.8743 45.0385 21.6914 45.0342C22.1223 44.9906 22.4654 44.8259 22.8415 44.6201C22.9051 44.5883 22.9687 44.5565 23.0342 44.5237C23.0542 44.5924 23.0742 44.6611 23.0948 44.7319C23.3553 45.5416 23.6753 46.0086 24.4075 46.4451C25.1304 46.6499 25.8198 46.6414 26.4967 46.2956C27.1559 45.8541 27.4757 45.2816 27.6599 44.5237C27.7161 44.5585 27.7722 44.5933 27.8301 44.6291C28.5424 45.0323 29.1986 45.165 30.001 44.9449C30.6068 44.6837 31.0859 44.1818 31.3401 43.5766C31.4259 43.2412 31.4375 42.9539 31.4304 42.6084C31.4287 42.4973 31.4269 42.3862 31.4251 42.2718C31.4229 42.1881 31.4207 42.1044 31.4184 42.0181C31.4951 42.0017 31.5719 41.9853 31.651 41.9684C32.4179 41.793 32.976 41.6403 33.424 40.958C33.5775 40.7037 33.6708 40.4781 33.7312 40.1871C33.7977 40.201 33.8641 40.2149 33.9326 40.2292C35.5025 40.5393 36.9171 40.302 38.2777 39.4404C39.8464 38.3625 40.9766 36.727 41.4408 34.8867Z" fill="#456BBA"/>
<path d="M25.1549 20.4336C25.2821 20.4336 25.4094 20.4336 25.5404 20.4336C25.5579 20.5315 25.5755 20.6294 25.5935 20.7302C25.6179 20.8643 25.6424 20.9983 25.6669 21.1323C25.684 21.2281 25.684 21.2281 25.7013 21.3258C25.7566 21.6263 25.8136 21.9211 25.8995 22.2147C26.1544 23.0968 26.1899 23.974 26.2364 24.8855C26.3131 26.3554 26.4225 27.8138 26.6426 29.2695C26.6706 29.4567 26.6706 29.4567 26.6991 29.6477C26.9461 31.2066 27.3129 32.7077 27.8171 34.2024C27.8423 34.2775 27.8674 34.3526 27.8933 34.43C28.4498 36.0846 29.1351 37.616 30.1662 39.033C30.2834 39.0111 30.4007 38.9892 30.5215 38.9667C30.829 38.9275 30.9261 38.9317 31.2202 39.0631C31.419 39.2257 31.419 39.2257 31.5153 39.4185C31.5303 39.7619 31.509 40.0518 31.419 40.3821C31.506 40.4414 31.5931 40.5007 31.6828 40.5617C31.7977 40.6404 31.9125 40.7191 32.0273 40.7977C32.0846 40.8367 32.142 40.8756 32.201 40.9158C32.4767 41.1052 32.7369 41.2887 32.9609 41.5386C32.4673 41.9413 32.0477 41.9956 31.419 42.0204C31.4508 42.084 31.4826 42.1476 31.5153 42.2132C31.5246 42.3876 31.5278 42.5625 31.5274 42.7372C31.5277 42.8771 31.5277 42.8771 31.5281 43.0199C31.5153 43.2732 31.5153 43.2732 31.419 43.5624C30.9101 43.4351 30.4013 43.3079 29.877 43.1769C29.877 42.9543 29.877 42.7316 29.877 42.5023C29.7057 42.1762 29.7057 42.1762 29.3229 42.1168C29.1274 42.0685 29.1274 42.0685 28.9134 42.1168C28.7032 42.2632 28.525 42.4251 28.3351 42.5987C28.1198 42.5094 27.9051 42.419 27.6907 42.3276C27.6224 42.2987 27.5542 42.2697 27.4838 42.2399C27.073 42.0609 26.6803 41.8654 26.291 41.6432C25.3575 41.1131 24.7164 40.7605 23.6239 40.8501C23.1843 40.8705 22.8924 40.7516 22.553 40.4785C22.1111 40.0628 21.8862 39.6585 21.8663 39.051C21.8703 38.9497 21.8743 38.8483 21.8784 38.7439C21.8227 38.72 21.7671 38.6962 21.7097 38.6716C21.4639 38.535 21.3021 38.3669 21.1074 38.1656C21.1379 38.1111 21.1684 38.0566 21.1998 38.0004C22.9158 34.9014 23.7527 31.6447 24.1912 28.1432C24.202 28.0621 24.2128 27.9811 24.2239 27.8976C24.3223 27.1533 24.3856 26.4176 24.3964 25.6666C24.4201 24.1262 24.5996 22.7383 24.998 21.2494C25.0668 20.9794 25.1171 20.7096 25.1549 20.4336Z" fill="#FEB2B6"/>
<path d="M33.8603 4.24712C34.6484 4.98539 35.2189 5.89011 35.653 6.87094C35.6802 6.93231 35.7074 6.99367 35.7354 7.0569C36.1211 7.97601 36.1876 8.90064 36.2493 9.88852C36.2576 10.0133 36.2659 10.1381 36.2745 10.2667C36.2948 10.5722 36.3145 10.8778 36.3336 11.1835C35.3027 11.2234 34.4483 10.744 33.569 10.2559C33.502 10.2189 33.4349 10.1819 33.3659 10.1438C32.9961 9.93222 32.7427 9.77895 32.6132 9.35359C32.5854 9.24272 32.5854 9.24272 32.5571 9.12961C32.0173 7.27827 30.742 5.56446 29.0803 4.58103C27.3418 3.6348 25.4901 3.25873 23.5405 3.7088C22.1632 4.14025 21.0419 4.84911 20.0471 5.88315C19.9762 5.95334 19.9053 6.02352 19.8322 6.09584C18.9913 6.9725 18.2737 8.22351 18.0535 9.42474C17.7418 10.1966 16.6857 10.5154 15.9657 10.8447C15.4139 11.0739 14.958 11.1942 14.3613 11.1835C14.4954 8.58064 14.7775 6.51564 16.5778 4.53397C16.6298 4.47422 16.6817 4.41446 16.7352 4.3529C18.133 2.83912 20.1323 1.99857 22.0709 1.45013C22.1361 1.43135 22.2012 1.41256 22.2684 1.3932C26.2999 0.29588 30.7745 1.5741 33.8603 4.24712Z" fill="#5586CF"/>
<path d="M12.4335 22.2656C12.4653 22.2656 12.4971 22.2656 12.5299 22.2656C12.5372 22.3253 12.5444 22.385 12.5519 22.4465C12.5858 22.7216 12.6211 22.9965 12.6564 23.2715C12.6734 23.4123 12.6734 23.4123 12.6908 23.5559C12.759 24.0782 12.8574 24.5566 13.0361 25.0522C13.1049 25.244 13.1632 25.4356 13.218 25.6318C13.4573 26.483 13.7337 27.3114 14.0491 28.1375C14.2646 28.7043 14.2646 28.7043 14.2646 28.9151C14.2087 28.9246 14.1528 28.934 14.0952 28.9438C13.4859 29.0604 13.0346 29.2171 12.6387 29.7245C12.3415 30.1854 12.1669 30.7049 11.9758 31.216C11.9362 31.3172 11.8965 31.4185 11.8557 31.5228C11.5958 32.2128 11.415 32.7665 11.6927 33.4807C12.2594 34.3587 13.263 35.0184 14.0718 35.661C14.1425 35.7179 14.2132 35.7748 14.286 35.8334C14.3505 35.8839 14.415 35.9343 14.4814 35.9863C14.5356 36.0288 14.5897 36.0712 14.6455 36.115C15.4197 36.6026 16.1777 36.6075 17.0593 36.5284C17.6225 36.3893 18.0781 36.1556 18.5048 35.7574C18.9051 35.9111 19.153 36.2048 19.4324 36.5163C19.4796 36.5674 19.5268 36.6184 19.5754 36.671C19.8097 36.929 20.01 37.168 20.1431 37.4921C19.2296 38.8572 18.0422 39.9695 16.4148 40.3832C15.0125 40.6426 13.7494 40.3582 12.5299 39.6122C10.976 38.5218 9.53019 36.9082 9.15697 34.9864C8.6717 30.8022 10.573 26.0964 12.3372 22.362C12.369 22.3302 12.4008 22.2984 12.4335 22.2656Z" fill="#CC302B"/>
<path d="M30.9361 17.7383C31.2632 18.039 31.4872 18.3599 31.7191 18.7381C31.7849 18.8442 31.8507 18.9503 31.9186 19.0596C32.3228 19.7963 32.4282 20.503 32.2009 21.3168C31.8941 22.1223 31.5016 22.6846 30.7192 23.0687C29.5163 23.5442 28.1626 23.5282 26.8885 23.5205C27.627 29.9196 27.627 29.9196 29.7796 35.9522C29.8273 36.0499 29.8273 36.0499 29.876 36.1497C30.2753 36.9613 30.7272 37.675 31.3215 38.3614C31.3951 38.4608 31.4686 38.5602 31.5444 38.6626C32.1563 39.3172 32.9382 39.7854 33.7308 40.1925C33.6905 40.7427 33.4826 41.0222 33.1526 41.4453C32.6979 41.3957 32.3842 41.1858 32.0202 40.9273C31.9634 40.8888 31.9067 40.8502 31.8482 40.8106C31.4302 40.5185 31.4302 40.5185 31.3215 40.1925C31.3533 40.1288 31.3851 40.0652 31.4179 39.9997C31.4428 39.6093 31.4472 39.4655 31.2252 39.1324C31.0461 39.073 31.0461 39.073 30.8457 39.0601C30.7793 39.0527 30.7128 39.0452 30.6443 39.0375C30.4335 39.0256 30.4335 39.0256 30.1651 39.1324C28.3028 36.5529 27.2569 33.4274 26.735 30.3058C26.7077 30.1442 26.6795 29.9828 26.6506 29.8214C26.3651 28.2126 26.2482 26.6153 26.1555 24.9866C26.0834 23.7492 25.9743 22.5798 25.6346 21.3826C25.5478 21.0475 25.5192 20.7802 25.5394 20.4366C25.6373 20.4202 25.7351 20.4038 25.836 20.3869C27.7552 20.0544 29.2582 19.4117 30.647 18.0274C30.7345 17.9402 30.7345 17.9402 30.8239 17.8512C30.8794 17.7953 30.8794 17.7953 30.9361 17.7383Z" fill="#F1C173"/>
<path d="M32.8643 9.83203C32.9611 9.88209 33.0579 9.93216 33.1576 9.98374C34.6814 10.7679 34.6814 10.7679 36.3336 11.1812C36.3433 11.3058 36.3529 11.4304 36.3629 11.5588C36.608 14.8549 36.608 14.8549 37.1046 18.1198C37.1194 18.1977 37.1342 18.2756 37.1495 18.3559C37.2266 18.76 37.3073 19.1631 37.3937 19.5654C37.2882 19.5949 37.1827 19.6245 37.0741 19.655C36.4009 19.8506 36.03 20.1413 35.5517 20.6379C35.1362 21.05 34.756 21.1793 34.1894 21.2338C33.4048 21.1684 32.91 20.7401 32.3783 20.1831C32.1565 19.9099 32.0332 19.6551 31.9115 19.3275C31.7212 18.8947 31.4358 18.5108 31.1696 18.1213C31.0333 17.8307 31.0333 17.8307 31.092 17.5747C31.2133 17.3703 31.3377 17.1785 31.479 16.9875C32.965 14.7803 33.1281 12.4132 32.8643 9.83203Z" fill="#EBEAEA"/>
<path d="M17.8311 9.83203C17.8084 10.0132 17.8084 10.0132 17.7852 10.1979C17.5073 12.7317 17.9029 15.1344 19.373 17.2525C19.4314 17.3161 19.4898 17.3797 19.55 17.4452C19.6621 17.638 19.6621 17.638 19.6076 17.8646C19.3869 18.2722 19.1378 18.6592 18.8886 19.0497C18.6902 19.3696 18.6902 19.3696 18.5528 19.7242C18.2866 20.3235 17.7509 20.8266 17.1565 21.1073C16.6801 21.282 16.1863 21.2682 15.723 21.0651C15.2965 20.8357 14.991 20.5015 14.6679 20.1459C14.2668 19.7729 13.833 19.7243 13.3018 19.6618C13.3925 19.1545 13.4839 18.6476 13.5875 18.1428C13.8775 16.6953 14.0151 15.2401 14.1378 13.7712C14.1675 13.4166 14.1983 13.0621 14.2297 12.7077C14.2746 12.1989 14.3186 11.6901 14.3618 11.1812C14.4519 11.1646 14.542 11.1479 14.6347 11.1308C15.7211 10.9062 16.6205 10.4625 17.5802 9.91438C17.7348 9.83203 17.7348 9.83203 17.8311 9.83203Z" fill="#EBEAEA"/>
<path d="M15.2879 29.1161C15.3628 29.1366 15.4376 29.1571 15.5148 29.1782C15.6715 29.2214 15.828 29.2651 15.9844 29.3094C16.2232 29.3768 16.4627 29.4416 16.7024 29.5061C16.8553 29.5486 17.0082 29.5913 17.1611 29.6341C17.2323 29.6532 17.3034 29.6723 17.3768 29.692C17.7836 29.8096 18.0537 29.927 18.3126 30.2681C18.3668 30.5572 18.3668 30.5572 18.3126 30.8463C18.1139 31.0812 18.1139 31.0812 17.8308 31.2318C17.4754 31.2077 17.4754 31.2077 17.1562 31.1354C17.0926 31.1354 17.029 31.1354 16.9635 31.1354C17.162 31.3203 17.3608 31.505 17.5597 31.6895C17.6433 31.7674 17.6433 31.7674 17.7286 31.8469C17.9738 32.074 18.2156 32.2913 18.4813 32.4947C18.9117 32.8571 19.1294 33.3569 19.227 33.9056C19.2644 34.6582 19.0361 35.2659 18.5498 35.8398C17.8582 36.4937 17.0323 36.6966 16.0995 36.6865C14.986 36.6295 14.2555 36.0038 13.49 35.2608C13.2201 34.9997 12.9335 34.7656 12.6389 34.5324C11.6669 33.7487 11.6669 33.7487 11.4704 33.1592C11.3925 32.4121 11.6448 31.8178 11.9161 31.1294C11.9572 31.019 11.9983 30.9086 12.0407 30.7949C12.3279 30.0538 12.6133 29.4829 13.2834 29.0213C13.959 28.7961 14.6183 28.9266 15.2879 29.1161Z" fill="#D8D8D8"/>
<path d="M37.4176 29.07C37.4757 29.0991 37.5338 29.1282 37.5937 29.1581C38.2594 29.6641 38.486 30.3573 38.7728 31.1179C38.8165 31.2283 38.8603 31.3388 38.9055 31.4525C39.1791 32.1676 39.3865 32.737 39.098 33.4789C38.5817 34.2789 37.6925 34.8752 36.9583 35.4632C36.7569 35.6281 36.5701 35.7995 36.3816 35.9785C35.6859 36.569 34.8472 36.689 33.9596 36.6599C33.1888 36.5723 32.5029 36.2567 31.9968 35.6593C31.5544 35.0204 31.3833 34.4064 31.5149 33.6355C31.8579 32.4558 32.9839 31.7347 33.9242 31.0336C33.8427 31.0673 33.7612 31.1011 33.6772 31.136C33.2951 31.2402 33.0544 31.2239 32.6714 31.1299C32.4846 31.0155 32.4846 31.0155 32.3823 30.8408C32.3401 30.5577 32.3401 30.5577 32.3823 30.2626C32.6832 29.8669 33.0509 29.7563 33.5127 29.6287C33.585 29.6078 33.6572 29.587 33.7317 29.5655C33.8844 29.5218 34.0372 29.4788 34.1902 29.4363C34.4221 29.3717 34.6532 29.3046 34.8843 29.2372C35.0334 29.1948 35.1825 29.1527 35.3317 29.1107C35.3998 29.0908 35.4679 29.0709 35.538 29.0505C36.1358 28.8875 36.8477 28.7653 37.4176 29.07Z" fill="#ECEBEB"/>
<path d="M29.4909 4.72809C29.9088 5.04932 30.28 5.41106 30.6473 5.78816C30.7185 5.85959 30.7897 5.93102 30.863 6.00461C32.5528 7.79283 33.1229 10.104 33.0818 12.5002C33.0109 14.4185 32.2833 16.4403 30.9364 17.8344C30.8552 17.923 30.7739 18.0115 30.6902 18.1028C29.3974 19.4816 27.6279 20.37 25.7276 20.4703C23.7894 20.5248 21.9624 19.9504 20.5285 18.6053C20.4394 18.5239 20.3504 18.4424 20.2586 18.3584C19.6592 17.7874 19.1957 17.2079 18.7939 16.4852C18.7436 16.3985 18.6932 16.3118 18.6414 16.2225C17.5569 14.2291 17.2616 11.6254 17.8957 9.44569C18.6343 7.15601 20.0336 5.30467 22.1815 4.18413C24.5498 3.02671 27.3101 3.22019 29.4909 4.72809ZM21.2995 5.69179C21.2191 5.75514 21.1387 5.8185 21.0559 5.88378C19.5947 7.11313 18.6198 9.00296 18.4084 10.8958C18.2419 13.1837 18.7131 15.4493 20.2371 17.2332C20.3015 17.3044 20.3658 17.3756 20.4321 17.4489C20.4925 17.5171 20.5529 17.5853 20.6151 17.6556C21.7185 18.8333 23.3121 19.5764 24.9182 19.6895C26.8396 19.7231 28.5324 19.0846 29.9406 17.7745C30.9455 16.8022 31.5791 15.6287 31.9784 14.2988C31.9984 14.2325 32.0183 14.1661 32.0389 14.0978C32.6733 11.8525 32.2088 9.60476 31.1051 7.59509C30.089 5.93726 28.527 4.85561 26.6468 4.39305C24.7236 3.98847 22.8371 4.47254 21.2995 5.69179Z" fill="#FB5F69"/>
<path d="M19.611 8.05078C19.7401 8.05917 19.7401 8.05917 19.8718 8.06772C19.9587 8.07207 20.0455 8.07642 20.135 8.0809C20.2343 8.08928 20.2343 8.08928 20.3356 8.09784C20.2972 8.52796 20.2554 8.95605 20.1899 9.38302C19.8175 11.8185 20.0902 14.3973 21.4792 16.4914C22.2848 17.5876 23.2635 18.4831 24.6301 18.7708C26.0386 18.8732 27.1701 18.5425 28.25 17.6204C29.7223 16.2345 30.5699 14.0362 30.6561 12.033C30.6831 10.9756 30.6322 9.92295 30.5508 8.8688C30.9324 8.8688 31.314 8.8688 31.7072 8.8688C31.7861 9.0814 31.8643 9.29423 31.9421 9.50725C31.9857 9.62576 32.0293 9.74427 32.0742 9.86637C32.6835 11.7321 32.2582 14.0629 31.4262 15.7988C30.476 17.5957 28.9883 18.772 27.0995 19.4514C26.7113 19.5705 26.3303 19.6391 25.925 19.6622C25.828 19.6684 25.731 19.6746 25.631 19.681C23.8862 19.7403 22.2601 19.1655 20.968 17.9878C19.4699 16.5534 18.4723 14.6195 18.3657 12.5237C18.3421 11.3717 18.4031 10.2512 18.8359 9.16995C18.8755 9.06883 18.9151 8.96771 18.9559 8.86353C19.2911 8.11375 19.2911 8.11375 19.611 8.05078Z" fill="#FED1BB"/>
<path d="M41.4404 34.8867C41.4722 34.8867 41.504 34.8867 41.5368 34.8867C41.6184 38.16 39.8891 41.4778 37.7038 43.8198C37.506 44.0246 37.306 44.2269 37.1038 44.4273C37.0084 44.3955 36.913 44.3637 36.8147 44.331C36.617 44.3219 36.4192 44.3133 36.2214 44.3079C34.597 44.2612 32.9834 43.9948 31.418 43.56C31.418 43.0512 31.418 42.5423 31.418 42.0181C31.5969 41.9783 31.7757 41.9386 31.96 41.8976C32.7282 41.7017 33.1321 41.441 33.54 40.7653C33.6342 40.5732 33.6875 40.396 33.7308 40.1871C33.7973 40.201 33.8638 40.2149 33.9322 40.2292C35.5021 40.5393 36.9167 40.302 38.2773 39.4404C39.846 38.3625 40.9762 36.727 41.4404 34.8867Z" fill="#5486CF"/>
<path d="M29.2991 5.59555C30.3352 6.40974 31.0667 7.37854 31.612 8.58301C31.612 8.67842 31.612 8.77382 31.612 8.87212C29.4189 8.81309 27.4524 8.25039 25.6856 6.91461C25.4529 6.72506 25.4529 6.72506 25.1552 6.75198C24.9583 6.85004 24.7639 6.95335 24.571 7.05916C22.9132 7.91053 21.2136 8.01718 19.373 8.10116C20.142 6.45641 21.4958 5.25501 23.1857 4.60173C25.2818 3.89901 27.505 4.31212 29.2991 5.59555Z" fill="#FED35D"/>
<path d="M19.6617 17.7383C19.7551 17.8178 19.8485 17.8973 19.9448 17.9792C20.0385 18.0586 20.0385 18.0586 20.1341 18.1396C20.2671 18.256 20.397 18.3759 20.5234 18.4995C21.7841 19.7099 23.4435 20.2737 25.1548 20.4366C25.1276 21.4909 24.8335 22.504 24.5766 23.5205C23.6697 23.54 22.7751 23.5313 21.8722 23.4361C21.799 23.4286 21.7258 23.421 21.6503 23.4132C20.6298 23.297 19.7867 23.1189 19.0594 22.346C18.5575 21.7111 18.3359 21.0164 18.3731 20.2093C18.5026 19.2882 19.1576 18.4955 19.6617 17.7383Z" fill="#F1C173"/>
<path d="M24.9614 34.0228C25.0926 34.0824 25.0926 34.0824 25.2264 34.1432C25.298 34.1671 25.3695 34.1909 25.4433 34.2155C25.4989 34.1698 25.5546 34.1241 25.6119 34.077C25.9147 33.8667 26.1283 33.9018 26.4849 33.9535C26.8469 34.0723 26.9728 34.2869 27.1779 34.601C27.2998 34.8447 27.2973 35.0274 27.3044 35.2997C27.3098 35.4346 27.3098 35.4346 27.3153 35.5722C27.2245 36.1953 26.8014 36.5103 26.3347 36.8838C25.9802 37.2024 25.8025 37.4686 25.7429 37.9476C25.7353 38.1108 25.7318 38.2743 25.7324 38.4377C25.7324 38.516 25.7324 38.5943 25.7325 38.675C25.7619 39.2368 25.9077 39.5101 26.3106 39.9013C26.6217 40.0569 26.9379 40.0551 27.2743 39.9977C27.5658 39.8304 27.7964 39.6281 27.9489 39.3231C27.996 38.8523 28.0036 38.6457 27.7621 38.2329C27.4454 37.897 27.037 37.7934 26.5997 37.6848C26.5395 37.456 26.5395 37.456 26.5033 37.203C26.6961 37.0102 26.6961 37.0102 26.9972 36.9741C27.5394 37.0266 27.9363 37.1789 28.3155 37.5794C28.7725 38.1654 28.9027 38.6786 28.8162 39.4195C28.61 40.0794 28.2259 40.4545 27.6357 40.7988C26.9687 40.9655 26.3995 40.9165 25.7896 40.6015C25.6042 40.4543 25.5341 40.3102 25.4433 40.0941C25.3797 40.0941 25.316 40.0941 25.2505 40.0941C25.2149 40.1828 25.2149 40.1828 25.1786 40.2733C24.9619 40.6432 24.5864 40.7438 24.1905 40.865C23.5701 40.9698 23.0642 40.8429 22.5522 40.4796C22.158 40.1144 21.9222 39.7027 21.8384 39.171C21.8135 38.4592 21.9727 38.019 22.4558 37.4921C22.9316 37.0802 23.374 36.9762 23.9977 37.0102C24.0613 37.0738 24.1249 37.1375 24.1905 37.203C24.1543 37.456 24.1543 37.456 24.0941 37.6848C24.0371 37.699 23.98 37.7132 23.9213 37.7277C23.3524 37.8892 23.0479 38.0342 22.7449 38.5522C22.6571 38.9519 22.6976 39.2455 22.9136 39.6002C23.2319 39.9009 23.4041 39.9832 23.8411 40.0399C24.3047 39.9839 24.4424 39.8422 24.7687 39.5159C25.0452 38.9628 25.0172 38.0836 24.865 37.4921C24.6196 37.0849 24.2708 36.8012 23.9051 36.5054C23.5412 36.2041 23.4492 35.8956 23.3905 35.4318C23.3873 34.8278 23.5051 34.5328 23.9194 34.083C24.2928 33.8673 24.5541 33.9151 24.9614 34.0228Z" fill="#9ABDEF"/>
<path d="M30.55 4.45953C30.8128 4.67114 31.0683 4.88871 31.322 5.11115C31.3818 5.15948 31.4415 5.2078 31.5031 5.25759C31.9048 5.60695 32.0202 5.99148 32.1837 6.49007C32.3631 6.94606 32.6451 7.32621 33.0981 7.52868C33.4825 7.81492 33.5856 8.2008 33.7493 8.6407C33.7823 8.72405 33.8153 8.80741 33.8493 8.89329C34.0548 9.42571 34.1988 9.94812 34.3095 10.5079C33.9277 10.4517 33.6567 10.3345 33.3277 10.1344C33.2449 10.085 33.162 10.0355 33.0766 9.9846C32.7474 9.75034 32.651 9.50493 32.5568 9.12857C32.017 7.27724 30.7417 5.56342 29.0799 4.57999C27.3415 3.63376 25.4898 3.25769 23.5402 3.70777C22.1629 4.13922 21.0416 4.84807 20.0468 5.88211C19.9759 5.9523 19.9049 6.02249 19.8319 6.0948C18.991 6.97146 18.2734 8.22248 18.0532 9.4237C17.818 10.0059 17.2219 10.2538 16.6679 10.4958C16.5744 10.5316 16.481 10.5674 16.3848 10.6042C16.715 8.18411 18.261 5.93104 20.1432 4.43656C23.3491 2.15548 27.3556 2.06689 30.55 4.45953Z" fill="#476BB9"/>
<path d="M26.1176 23.5195C26.372 23.5195 26.6264 23.5195 26.8885 23.5195C26.8948 23.5724 26.901 23.6253 26.9074 23.6798C27.6473 29.9966 27.6473 29.9966 29.7796 35.9512C29.8273 36.049 29.8273 36.049 29.876 36.1487C30.2753 36.9604 30.7272 37.6741 31.3215 38.3605C31.3951 38.4599 31.4686 38.5592 31.5444 38.6616C32.1563 39.3163 32.9382 39.7845 33.7308 40.1915C33.6905 40.7418 33.4826 41.0212 33.1526 41.4443C32.6979 41.3948 32.3842 41.1848 32.0202 40.9263C31.9634 40.8878 31.9067 40.8493 31.8482 40.8096C31.4302 40.5175 31.4302 40.5175 31.3215 40.1915C31.3533 40.1279 31.3851 40.0643 31.4179 39.9988C31.4428 39.6083 31.4472 39.4646 31.2252 39.1314C31.0461 39.0721 31.0461 39.0721 30.8457 39.0592C30.7792 39.0517 30.7128 39.0443 30.6443 39.0366C30.4335 39.0247 30.4335 39.0247 30.1651 39.1314C28.2502 36.479 27.2284 33.2779 26.6958 30.0727C26.6804 29.9823 26.665 29.8919 26.6491 29.7988C26.3003 27.7269 26.0846 25.6232 26.1176 23.5195Z" fill="#FE8088"/>
<path d="M17.4695 22.817C18.0145 23.0652 18.2922 23.4103 18.6316 23.8952C18.7395 24.2286 18.7204 24.5211 18.6979 24.8709C18.6343 24.9345 18.5707 24.9981 18.5051 25.0637C18.2522 25.0275 18.2522 25.0275 18.0233 24.9673C18.0069 24.9092 17.9905 24.851 17.9736 24.7911C17.8372 24.3414 17.7334 24.0123 17.3487 23.7145C17.0397 23.56 16.7202 23.5711 16.385 23.6181C16.0532 23.8201 15.8312 24.0158 15.7104 24.3891C15.6603 24.7737 15.694 24.9379 15.8851 25.2805C16.085 25.5595 16.085 25.5595 16.385 25.7383C16.6903 25.7708 16.6903 25.7708 17.0389 25.7714C17.1022 25.7728 17.1655 25.7742 17.2307 25.7757C17.5012 25.7816 17.7717 25.7855 18.0422 25.7895C18.2398 25.7927 18.4374 25.7971 18.635 25.8015C18.7533 25.8033 18.8716 25.8051 18.9934 25.807C19.2761 25.8346 19.2761 25.8346 19.4688 26.0274C19.4628 26.2683 19.4628 26.2683 19.3725 26.5092C19.1255 26.6357 19.1255 26.6357 18.8906 26.702C18.9542 26.7974 19.0178 26.8928 19.0834 26.9911C19.152 27.4545 19.1286 27.8485 18.9448 28.28C18.472 28.7643 17.9535 28.9388 17.2824 28.9727C16.927 28.9597 16.7061 28.9201 16.4272 28.6956C16.1523 28.3925 16.0091 28.2334 15.9634 27.8223C16.0051 27.4186 16.1019 27.2742 16.385 26.9911C16.6143 26.8764 16.7623 26.8818 17.0174 26.8826C17.1339 26.8823 17.1339 26.8823 17.2527 26.8819C17.4451 26.8947 17.4451 26.8947 17.5414 26.9911C17.5454 27.1516 17.5456 27.3123 17.5414 27.4729C17.3506 27.5365 17.1598 27.6001 16.9632 27.6657C16.9632 27.8247 16.9632 27.9837 16.9632 28.1475C17.138 28.1178 17.3126 28.0876 17.4872 28.0572C17.5845 28.0404 17.6818 28.0236 17.782 28.0063C18.0164 27.9791 18.0164 27.9791 18.1197 27.8584C18.1682 27.4665 18.1682 27.4665 18.1197 27.0874C17.859 26.8097 17.7026 26.7105 17.3227 26.6602C17.1537 26.66 17.1537 26.66 16.9813 26.6598C16.2539 26.6293 15.8334 26.4395 15.3249 25.931C15.2872 26.0483 15.2494 26.1655 15.2105 26.2864C15.0359 26.7516 14.778 27.0368 14.3612 27.3103C14.1287 27.3902 13.9311 27.381 13.6867 27.3765C12.8193 25.0328 12.8193 25.0328 12.8193 24.1C13.0823 23.8769 13.2728 23.8147 13.6144 23.7687C14.0742 23.8223 14.4335 23.9883 14.8431 24.1963C14.8852 24.1212 14.8852 24.1212 14.9282 24.0446C15.4996 23.0725 16.3041 22.4616 17.4695 22.817Z" fill="#EBAC6A"/>
<path d="M24.1492 23.5117C24.2585 23.5137 24.3679 23.5157 24.4805 23.5177C24.5153 25.1754 24.4779 26.7792 24.2355 28.4218C24.1902 28.73 24.1483 29.0386 24.1067 29.3474C23.6867 32.3657 22.9179 35.595 21.2039 38.166C20.8241 38.0053 20.5496 37.7586 20.2402 37.4914C20.2941 36.9964 20.5374 36.6221 20.7763 36.1964C22.743 32.5641 23.4694 27.9852 23.6848 23.8923C23.7211 23.4845 23.7266 23.5191 24.1492 23.5117Z" fill="#FE8088"/>
<path d="M41.4408 34.8867C41.4726 34.8867 41.5044 34.8867 41.5372 34.8867C41.5524 35.4975 41.509 36.0535 41.3866 36.6515C41.3615 36.7749 41.3615 36.7749 41.3359 36.9008C41.2028 37.5182 41.0272 38.1148 40.8204 38.7114C40.7938 38.7885 40.7672 38.8656 40.7398 38.9451C40.303 40.1497 39.7938 40.7663 38.6461 41.3435C38.2082 41.5397 37.7575 41.6917 37.2969 41.8253C37.1768 41.8605 37.0566 41.8957 36.9329 41.9319C36.4713 42.044 36.0176 42.055 35.5442 42.0542C35.4557 42.0542 35.3672 42.0542 35.276 42.0542C34.5316 42.0418 33.6109 41.9941 33.0566 41.4399C33.0973 41.3817 33.1379 41.3236 33.1797 41.2637C33.2325 41.1867 33.2853 41.1096 33.3397 41.0303C33.3923 40.9543 33.4448 40.8782 33.499 40.7999C33.6249 40.5893 33.6878 40.4265 33.7312 40.1871C33.7977 40.201 33.8641 40.2149 33.9326 40.2292C35.5025 40.5393 36.9171 40.302 38.2777 39.4404C39.8464 38.3625 40.9766 36.727 41.4408 34.8867Z" fill="#466BB9"/>
<path d="M9.15687 34.9883C9.3501 35.2781 9.44515 35.5283 9.56042 35.8556C10.2113 37.5653 11.5633 39.0789 13.2044 39.9031C14.5 40.4489 15.5902 40.4605 16.9628 40.1923C17.0026 40.3115 17.0423 40.4308 17.0833 40.5536C17.2111 40.8999 17.3602 41.1002 17.6374 41.3487C17.6374 41.4123 17.6374 41.4759 17.6374 41.5414C17.4709 41.6041 17.3042 41.6662 17.1375 41.7281C17.0447 41.7628 16.9519 41.7975 16.8563 41.8332C15.4658 42.3004 13.6641 42.0982 12.3585 41.4612C12.2878 41.4241 12.2172 41.387 12.1443 41.3487C12.0548 41.3026 11.9652 41.2565 11.8729 41.209C11.1143 40.808 10.5992 40.5054 10.2651 39.6863C10.2366 39.6185 10.2082 39.5507 10.1788 39.4808C9.59454 38.0577 9.12429 36.5384 9.15687 34.9883Z" fill="#365796"/>
<path d="M34.7187 22.8936C35.2234 23.1792 35.5729 23.6493 35.7546 24.1946C35.807 24.7801 35.7879 25.2261 35.4655 25.7365C35.6385 25.7872 35.6385 25.7872 35.8149 25.8389C36.2766 26.0135 36.5657 26.2741 36.8147 26.7002C36.8838 26.9359 36.901 27.1268 36.9111 27.3748C36.3815 27.3531 36.0973 27.2312 35.7076 26.8703C35.4835 26.6086 35.3833 26.3506 35.2728 26.0256C35.1714 26.115 35.1714 26.115 35.068 26.2063C34.5943 26.5564 34.1595 26.6209 33.5803 26.6339C33.1694 26.6616 32.9932 26.6788 32.6407 26.905C32.4371 27.2519 32.4183 27.4608 32.4781 27.8566C32.7868 28.0624 32.8654 28.0716 33.2189 28.0614C33.2968 28.0597 33.3747 28.0579 33.4549 28.0561C33.5142 28.0539 33.5735 28.0516 33.6345 28.0493C33.6663 27.8903 33.6981 27.7313 33.7309 27.5675C33.6554 27.5715 33.5798 27.5754 33.502 27.5795C33.249 27.5675 33.249 27.5675 33.0563 27.3748C33.1079 27.034 33.1079 27.034 33.249 26.8929C33.6876 26.8483 33.9924 26.8261 34.3573 27.0917C34.5982 27.3748 34.5982 27.3748 34.6524 27.706C34.575 28.1965 34.4729 28.5047 34.0682 28.8083C33.4511 29.0066 32.8325 29.0259 32.2372 28.748C31.8415 28.5191 31.6593 28.2914 31.5144 27.8566C31.4758 27.0471 31.4758 27.0471 31.7071 26.7002C31.6296 26.6783 31.5521 26.6564 31.4722 26.6339C31.2253 26.5074 31.2253 26.5074 31.1349 26.2665C31.1329 26.187 31.131 26.1075 31.1289 26.0256C31.3216 25.8328 31.3216 25.8328 31.5997 25.8098C31.7162 25.8098 31.8326 25.8098 31.9526 25.8099C32.0811 25.8084 32.2096 25.8068 32.338 25.8052C32.5402 25.8036 32.7423 25.8027 32.9445 25.8034C33.8182 25.8419 33.8182 25.8419 34.5877 25.5034C34.8693 25.1587 34.9252 24.9442 34.9219 24.4938C34.8607 24.1352 34.6618 23.963 34.4055 23.7127C34.0929 23.5564 33.7796 23.5629 33.4418 23.6163C32.9238 23.9193 32.7788 24.2239 32.6174 24.7927C32.6032 24.8497 32.589 24.9068 32.5744 24.9655C32.3456 25.0257 32.3456 25.0257 32.0926 25.0619C31.8999 24.8691 31.8999 24.8691 31.8637 24.568C31.9162 24.0253 32.0677 23.6259 32.4724 23.2497C33.1498 22.7282 33.9024 22.5365 34.7187 22.8936Z" fill="#EBAC6A"/>
<path d="M14.3613 29.0117C15.0493 29.0702 15.6985 29.2411 16.3633 29.4236C16.5543 29.4757 16.7458 29.5258 16.9373 29.5758C17.1194 29.6255 17.1194 29.6255 17.3051 29.6761C17.4153 29.7058 17.5254 29.7355 17.6389 29.766C17.9502 29.8882 18.1057 30.004 18.3125 30.2645C18.3667 30.5536 18.3667 30.5536 18.3125 30.8427C18.1137 31.0776 18.1137 31.0776 17.8306 31.2282C17.4753 31.2041 17.4753 31.2041 17.156 31.1319C17.0924 31.1319 17.0288 31.1319 16.9633 31.1319C17.1619 31.3168 17.3607 31.5014 17.5596 31.686C17.6153 31.7379 17.671 31.7898 17.7284 31.8433C17.9759 32.0727 18.2231 32.2939 18.4868 32.5047C18.7379 32.7057 18.8626 32.8582 18.9871 33.1556C18.9972 33.7006 18.8154 33.976 18.4638 34.3621C18.1059 34.6996 18.1059 34.6996 17.8393 34.693C16.3086 33.9949 14.9712 30.6567 14.3613 29.2045C14.3613 29.1409 14.3613 29.0773 14.3613 29.0117Z" fill="#EFEEEE"/>
<path d="M38.935 33.6367C38.9987 33.6367 39.0623 33.6367 39.1278 33.6367C39.2728 34.0899 39.2917 34.5243 39.1172 34.9697C38.8945 35.343 38.631 35.5961 38.3086 35.8833C38.2487 35.9378 38.1887 35.9922 38.1269 36.0482C35.6767 38.2558 35.6767 38.2558 33.9607 38.2086C33.2027 38.1562 32.5532 37.8114 32.0386 37.2566C31.5845 36.6431 31.4078 36.0338 31.5146 35.275C31.5782 35.2114 31.6418 35.1478 31.7073 35.0823C31.7401 35.1323 31.7729 35.1824 31.8067 35.234C32.2889 35.9277 32.8198 36.2987 33.6347 36.5278C34.6442 36.6318 35.5473 36.5444 36.3587 35.9033C36.6499 35.6611 36.9304 35.4078 37.2098 35.1521C37.5325 34.8596 37.864 34.5773 38.1942 34.2932C38.5727 33.9737 38.5727 33.9737 38.935 33.6367Z" fill="#CD2F3B"/>
<path d="M11.6628 33.5391C11.7281 33.6061 11.7935 33.6732 11.8608 33.7423C12.3496 34.2308 12.8846 34.6706 13.4097 35.1191C13.5704 35.2568 13.7302 35.3956 13.8898 35.5346C14.7976 36.3078 15.4838 36.6148 16.6845 36.5642C17.4027 36.4921 17.9743 36.2509 18.505 35.7556C18.7429 35.8666 18.8951 35.9529 19.0832 36.141C19.0612 36.6255 18.9044 36.9245 18.6014 37.2975C17.7781 38.0478 16.9772 38.2385 15.8872 38.1972C14.6265 38.0868 13.7445 37.0644 12.8535 36.2498C12.6411 36.0579 12.4239 35.8735 12.2049 35.6893C11.5084 35.0732 11.5084 35.0732 11.4407 34.5765C11.4287 34.1703 11.4603 33.897 11.6628 33.5391Z" fill="#9D3B3A"/>
<path d="M23.3257 4.68291C23.5799 4.86854 23.7687 5.08463 23.9747 5.32249C24.3737 5.77239 24.7865 6.17662 25.2516 6.55723C23.8762 8.04253 21.2253 8.01463 19.373 8.09914C20.1194 6.50281 21.3523 5.479 22.9011 4.69533C23.1315 4.62983 23.1315 4.62983 23.3257 4.68291Z" fill="#F3AC1D"/>
<path d="M11.5662 32.0977C11.96 32.2561 12.2344 32.5379 12.5359 32.8265C13.0927 33.3497 13.6637 33.8415 14.2645 34.3142C14.3245 34.3637 14.3845 34.4133 14.4464 34.4644C15.0166 34.9123 15.7311 35.1415 16.4592 35.1145C16.9261 35.0506 17.3762 34.9198 17.8302 34.796C18.0846 35.0822 18.339 35.3684 18.6012 35.6633C18.1067 36.2196 17.4869 36.5879 16.7344 36.6568C15.5812 36.7075 14.8027 36.4631 13.9231 35.673C13.7767 35.5369 13.6328 35.3986 13.4894 35.2594C13.2195 34.9982 12.9329 34.7642 12.6383 34.531C11.6663 33.7472 11.6663 33.7472 11.4698 33.1577C11.457 32.971 11.457 32.971 11.4578 32.7722C11.4575 32.7067 11.4573 32.6411 11.457 32.5735C11.4698 32.3868 11.4698 32.3868 11.5662 32.0977Z" fill="#C1C0C0"/>
<path d="M20.1431 37.3945C20.5746 37.636 20.8068 37.8762 21.1068 38.2619C21.0253 38.3513 20.9438 38.4407 20.8598 38.5329C20.6123 38.8696 20.6118 39.0702 20.6731 39.4785C20.7431 39.9629 20.7431 39.9629 20.5225 40.3037C20.1969 40.5046 20.0368 40.5274 19.6612 40.4784C19.5658 40.4466 19.4704 40.4148 19.3721 40.382C19.1172 40.5323 19.1172 40.5323 18.8541 40.7434C18.1901 41.2519 18.1901 41.2519 17.8302 41.4421C17.4567 41.3515 17.2643 41.0786 17.0593 40.7675C17.0222 40.5756 16.9894 40.3829 16.9629 40.1893C17.0561 40.1367 17.1492 40.0842 17.2452 40.03C18.4629 39.3305 19.3537 38.5741 20.1431 37.3945Z" fill="#D86262"/>
<path d="M33.5378 4.8201C34.1924 5.12256 34.6999 5.59757 34.9833 6.26565C35.0544 6.76798 35.0622 7.18699 34.8086 7.6329C34.3524 7.89235 33.954 7.88575 33.4414 7.80757C32.8286 7.60988 32.4012 7.10242 32.0783 6.56342C31.9243 6.18712 31.9417 5.79662 31.9958 5.39832C32.3814 4.7686 32.8394 4.7145 33.5378 4.8201Z" fill="#F3F7FC"/>
<path d="M24.5751 34.3185C24.8642 34.4089 24.8642 34.4089 25.063 34.5715C25.1246 34.6132 25.1862 34.655 25.2497 34.698C25.5553 34.616 25.7563 34.4888 26.0207 34.3125C26.2862 34.3324 26.4478 34.3647 26.6565 34.5331C26.9058 34.8373 26.9054 35.1834 26.888 35.5653C26.7206 36.2741 26.1172 36.8032 25.5388 37.2036C25.1533 37.2036 25.1533 37.2036 24.9606 37.0485C24.8652 36.9464 24.8652 36.9464 24.7679 36.8422C24.7043 36.7751 24.6407 36.708 24.5751 36.6389C24.4797 36.5368 24.4797 36.5368 24.3824 36.4326C24.3134 36.3649 24.2445 36.2972 24.1735 36.2275C23.9088 35.9571 23.8069 35.7371 23.8008 35.3553C23.8252 34.9926 23.8646 34.7539 24.0632 34.445C24.286 34.3125 24.286 34.3125 24.5751 34.3185Z" fill="#EFEFEF"/>
<path d="M14.4395 23.936C14.7279 24.0719 14.8217 24.1374 14.9342 24.4397C14.9816 24.719 14.9816 24.719 15.0053 24.9896C15.0242 25.2579 15.0242 25.2579 15.136 25.5024C15.2853 25.8805 15.2411 26.2177 15.1322 26.6042C14.8635 26.9475 14.5625 27.188 14.1685 27.3752C14.008 27.3797 13.8472 27.3803 13.6867 27.3752C12.8193 25.0314 12.8193 25.0314 12.8193 24.0986C13.3177 23.6758 13.8518 23.7435 14.4395 23.936Z" fill="#E93844"/>
<path d="M23.9988 37.009C24.0624 37.0726 24.126 37.1362 24.1915 37.2017C24.1554 37.4547 24.1554 37.4547 24.0951 37.6836C24.0381 37.6977 23.9811 37.7119 23.9223 37.7265C23.3535 37.8879 23.0489 38.0329 22.746 38.5509C22.6627 38.9298 22.685 39.2264 22.8984 39.5605C23.1808 39.8552 23.4731 40.0281 23.8301 40.2193C23.8927 40.2539 23.9553 40.2885 24.0198 40.3241C24.1729 40.4085 24.3267 40.4917 24.4806 40.5746C24.4806 40.6383 24.4806 40.7019 24.4806 40.7674C23.9482 40.9449 23.4292 40.9425 22.9146 40.7072C22.3835 40.4078 22.0755 39.9959 21.8786 39.4182C21.7882 38.8442 21.8176 38.3796 22.1316 37.8823C22.63 37.2237 23.1631 36.9634 23.9988 37.009Z" fill="#99BDEF"/>
<path d="M26.1172 21.2047C26.804 21.1411 27.2765 21.3066 27.8518 21.6865C28.0533 21.8708 28.1805 22.0349 28.3337 22.2648C28.3337 22.3284 28.3337 22.392 28.3337 22.4575C28.3973 22.4575 28.4609 22.4575 28.5264 22.4575C28.5483 22.3879 28.5702 22.3184 28.5927 22.2467C28.8022 21.7977 29.0849 21.5585 29.5142 21.3191C29.94 21.1843 30.3011 21.1776 30.7429 21.2047C30.6912 21.644 30.5384 21.9217 30.2611 22.2648C29.4877 22.8452 28.5822 22.8015 27.6591 22.7466C27.167 22.6453 26.7625 22.4282 26.4063 22.072C26.2196 21.7566 26.1172 21.5723 26.1172 21.2047Z" fill="#82959E"/>
<path d="M19.9502 21.2026C20.5604 21.1496 21.0544 21.2856 21.5885 21.5881C21.8164 21.7908 22.0083 22.0014 22.1667 22.2627C22.1667 22.3263 22.1667 22.3899 22.1667 22.4554C22.2303 22.4554 22.2939 22.4554 22.3594 22.4554C22.3892 22.3511 22.3892 22.3511 22.4197 22.2446C22.6488 21.776 23.0101 21.5563 23.4556 21.3171C23.8619 21.184 24.1518 21.1803 24.5759 21.2026C24.5242 21.642 24.3714 21.9197 24.0941 22.2627C23.3207 22.8432 22.4152 22.7995 21.4921 22.7446C21 22.6433 20.5955 22.4262 20.2393 22.07C20.0526 21.7545 19.9502 21.5703 19.9502 21.2026Z" fill="#82959E"/>
<path d="M28.4727 10.4062C28.821 10.5507 28.924 10.7635 29.1051 11.0869C29.3038 11.6831 29.2878 12.3904 29.075 12.9781C29.0213 13.0536 28.9676 13.1292 28.9123 13.207C28.8686 13.2686 28.8249 13.3302 28.7798 13.3937C28.6232 13.4961 28.6232 13.4961 28.3883 13.4961C28.0652 13.37 27.9463 13.2035 27.7559 12.9179C27.5091 12.1775 27.61 11.3912 27.9486 10.7014C28.1932 10.4134 28.1932 10.4134 28.4727 10.4062Z" fill="#709FD7"/>
<path d="M22.3047 10.4062C22.653 10.5507 22.756 10.7635 22.9371 11.0869C23.1359 11.6831 23.1198 12.3904 22.907 12.9781C22.8533 13.0536 22.7997 13.1292 22.7444 13.207C22.7006 13.2686 22.6569 13.3302 22.6119 13.3937C22.4553 13.4961 22.4553 13.4961 22.2204 13.4961C21.8973 13.37 21.7784 13.2035 21.5879 12.9179C21.3411 12.1775 21.4421 11.3912 21.7807 10.7014C22.0252 10.4134 22.0252 10.4134 22.3047 10.4062Z" fill="#709FD7"/>
<path d="M24.643 15.4322C24.9143 15.54 25.0607 15.6876 25.2509 15.9061C25.4698 15.808 25.6179 15.7351 25.775 15.5507C25.9255 15.4243 25.9255 15.4243 26.1465 15.4389C26.4729 15.5412 26.6349 15.6903 26.8772 15.9302C26.9544 16.0042 27.0317 16.0783 27.1113 16.1546C27.2747 16.388 27.2747 16.388 27.2514 16.6575C27.2152 16.7626 27.2152 16.7626 27.1783 16.8698C26.9675 16.9481 26.9675 16.9481 26.6965 16.9662C26.4254 16.7313 26.4254 16.7313 26.2146 16.4843C25.9958 16.5824 25.8477 16.6553 25.6906 16.8397C25.5401 16.9662 25.5401 16.9662 25.3052 16.9602C25.0158 16.8543 24.8733 16.7147 24.6727 16.4843C24.4539 16.5824 24.3058 16.6553 24.1487 16.8397C24.099 16.8814 24.0493 16.9232 23.9981 16.9662C23.7391 16.9361 23.7391 16.9361 23.5163 16.8698C23.4402 16.6613 23.4402 16.6613 23.4199 16.388C23.6044 16.1267 23.6044 16.1267 23.8656 15.87C23.9504 15.7838 24.0351 15.6975 24.1224 15.6087C24.3836 15.4243 24.3836 15.4243 24.643 15.4322Z" fill="#FF5E68"/>
<path d="M28.7306 10.0628C29.0344 10.1643 29.1396 10.3347 29.2987 10.6056C29.3543 10.6991 29.41 10.7925 29.4673 10.8887C29.7144 11.5175 29.6997 12.2857 29.4929 12.9208C29.2944 13.3386 29.1191 13.6329 28.7204 13.8822C28.3727 13.934 28.1984 13.913 27.8893 13.7437C27.3079 13.1164 27.2063 12.4535 27.2309 11.613C27.3067 11.0398 27.5125 10.5414 27.942 10.146C28.2102 9.98714 28.429 10.0102 28.7306 10.0628ZM28.2386 10.4129C27.753 10.8984 27.6492 11.384 27.6303 12.0512C27.6399 12.6079 27.761 12.942 28.082 13.3943C28.2402 13.5182 28.2402 13.5182 28.4735 13.4967C28.7966 13.3706 28.9155 13.2041 29.1059 12.9185C29.3148 12.2919 29.3171 11.5224 29.0216 10.9249C28.837 10.6121 28.837 10.6121 28.6241 10.4129C28.4969 10.4129 28.3697 10.4129 28.2386 10.4129Z" fill="#FD616B"/>
<path d="M22.5626 10.0628C22.8665 10.1643 22.9717 10.3347 23.1307 10.6056C23.1863 10.6991 23.242 10.7925 23.2993 10.8887C23.5464 11.5175 23.5317 12.2857 23.3249 12.9208C23.1264 13.3386 22.9512 13.6329 22.5525 13.8822C22.2048 13.934 22.0305 13.913 21.7213 13.7437C21.1399 13.1164 21.0383 12.4535 21.0629 11.613C21.1387 11.0398 21.3446 10.5414 21.774 10.146C22.0423 9.98714 22.261 10.0102 22.5626 10.0628ZM22.0706 10.4129C21.5851 10.8984 21.4813 11.384 21.4623 12.0512C21.4719 12.6079 21.593 12.942 21.914 13.3943C22.0722 13.5182 22.0722 13.5182 22.3055 13.4967C22.6286 13.3706 22.7475 13.2041 22.9379 12.9185C23.1468 12.2919 23.1491 11.5224 22.8536 10.9249C22.669 10.6121 22.669 10.6121 22.4561 10.4129C22.3289 10.4129 22.2017 10.4129 22.0706 10.4129Z" fill="#FD616B"/>
<path d="M19.6622 17.7383C20.2855 18.2688 20.2855 18.2688 20.5442 18.5096C21.0194 18.9498 21.4898 19.2833 22.0714 19.5693C21.9429 19.6978 21.8144 19.8263 21.6859 19.9548C21.6044 20.0383 21.5229 20.1217 21.439 20.2078C21.2041 20.4366 21.2041 20.4366 20.915 20.6294C20.2064 19.9703 19.6228 19.3831 19.373 18.4309C19.373 18.0888 19.4238 17.9766 19.6622 17.7383Z" fill="#E6B069"/>
<path d="M30.9359 17.7383C31.1283 17.9118 31.1283 17.9118 31.3214 18.1238C31.3355 18.8427 30.9674 19.4202 30.497 19.9352C30.2617 20.1712 30.0235 20.4024 29.7795 20.6294C29.7076 20.5555 29.6356 20.4815 29.5615 20.4054C29.3559 20.2045 29.1656 20.038 28.9302 19.8765C28.8289 19.8069 28.7275 19.7374 28.623 19.6657C28.8286 19.5095 29.0357 19.3577 29.2476 19.2102C29.8733 18.7713 30.4134 18.2956 30.9359 17.7383Z" fill="#E6B169"/>
<path d="M22.7457 20.5323C23.0406 20.7053 23.2843 20.8839 23.3875 21.2231C23.3983 21.2814 23.4092 21.3396 23.4203 21.3997C23.368 21.4358 23.3157 21.472 23.2618 21.5092C22.8634 21.7942 22.5933 22.0195 22.3602 22.4597C22.2966 22.4597 22.233 22.4597 22.1675 22.4597C22.0802 22.3206 21.9929 22.1815 21.9059 22.0423C21.6884 21.7601 21.4037 21.5934 21.1074 21.3997C21.2176 20.9711 21.423 20.7579 21.7824 20.5218C22.1219 20.3703 22.4024 20.4052 22.7457 20.5323Z" fill="#FD5261"/>
<path d="M28.9127 20.5323C29.2169 20.7108 29.4471 20.8984 29.5752 21.237C29.5792 21.2907 29.5832 21.3444 29.5873 21.3997C29.4998 21.4533 29.4124 21.507 29.3223 21.5623C28.9682 21.8142 28.722 22.0702 28.5272 22.4597C28.4636 22.4597 28.4 22.4597 28.3345 22.4597C28.2471 22.3206 28.1599 22.1815 28.0729 22.0423C27.8554 21.7601 27.5707 21.5934 27.2744 21.3997C27.3846 20.9711 27.59 20.7579 27.9494 20.5218C28.2889 20.3703 28.5694 20.4052 28.9127 20.5323Z" fill="#FD5261"/>
<path d="M28.9127 19.7572C29.3837 20.0839 29.6317 20.3958 29.8764 20.9136C29.8764 21.0408 29.8764 21.168 29.8764 21.2991C29.781 21.3309 29.6856 21.3627 29.5873 21.3954C29.5357 21.306 29.484 21.2166 29.4307 21.1244C29.1765 20.7832 29.0248 20.6618 28.6236 20.5281C28.113 20.5371 27.8281 20.6491 27.4672 21.01C27.3408 21.2139 27.3408 21.2139 27.2745 21.3954C27.1791 21.3636 27.0836 21.3318 26.9854 21.2991C27.0315 20.826 27.139 20.4001 27.4672 20.0463C27.9466 19.7628 28.3649 19.5896 28.9127 19.7572Z" fill="#FD9F9D"/>
<path d="M22.8411 19.9095C23.2769 20.1348 23.5249 20.4635 23.7085 20.9154C23.7085 21.0426 23.7085 21.1698 23.7085 21.3008C23.6131 21.3326 23.5177 21.3644 23.4194 21.3972C23.3677 21.3078 23.316 21.2183 23.2628 21.1262C23.0086 20.785 22.8568 20.6636 22.4557 20.5299C21.945 20.5388 21.6601 20.6508 21.2992 21.0117C21.1728 21.2157 21.1728 21.2157 21.1065 21.3972C21.0111 21.3654 20.9157 21.3336 20.8174 21.3008C20.8463 20.7217 21.1141 20.367 21.492 19.9517C21.9845 19.5552 22.2983 19.6814 22.8411 19.9095Z" fill="#FD9F9D"/>
<path d="M21.8774 38.8438C22.3242 39.1327 22.7474 39.4213 23.1479 39.7728C23.49 40.0288 23.8727 40.2238 24.2467 40.429C24.3235 40.4783 24.4003 40.5276 24.4794 40.5784C24.4794 40.642 24.4794 40.7056 24.4794 40.7711C23.947 40.9486 23.428 40.9462 22.9134 40.7109C22.4579 40.4542 22.1875 40.1273 21.9437 39.6629C21.8663 39.3817 21.8639 39.1341 21.8774 38.8438Z" fill="#73A0D8"/>
<path d="M25.3474 42.7305C25.74 42.8123 25.8817 42.9523 26.1183 43.2725C26.1786 43.5617 26.1786 43.5617 26.1183 43.8508C25.8817 44.171 25.74 44.311 25.3474 44.3928C24.9547 44.311 24.8131 44.171 24.5764 43.8508C24.5162 43.5617 24.5162 43.5617 24.5764 43.2725C24.8131 42.9523 24.9547 42.8123 25.3474 42.7305Z" fill="#506E81"/>
<path d="M21.4919 41.9609C21.8846 42.0427 22.0262 42.1828 22.2629 42.503C22.3231 42.7921 22.3231 42.7921 22.2629 43.0812C22.0262 43.4014 21.8846 43.5415 21.4919 43.6233C21.0993 43.5415 20.9576 43.4014 20.721 43.0812C20.6607 42.7921 20.6607 42.7921 20.721 42.503C20.9576 42.1828 21.0993 42.0427 21.4919 41.9609Z" fill="#506E81"/>
<path d="M29.5876 25.3867C29.9803 25.4685 30.1219 25.6086 30.3586 25.9288C30.4188 26.2179 30.4188 26.2179 30.3586 26.507C30.1219 26.8272 29.9803 26.9673 29.5876 27.0491C29.195 26.9673 29.0533 26.8272 28.8167 26.507C28.7564 26.2179 28.7564 26.2179 28.8167 25.9288C29.0533 25.6086 29.195 25.4685 29.5876 25.3867Z" fill="#EBAA6A"/>
<path d="M21.1071 25.3867C21.4998 25.4685 21.6414 25.6086 21.8781 25.9288C21.9383 26.2179 21.9383 26.2179 21.8781 26.507C21.6414 26.8272 21.4998 26.9673 21.1071 27.0491C20.7145 26.9673 20.5729 26.8272 20.3362 26.507C20.276 26.2179 20.276 26.2179 20.3362 25.9288C20.5729 25.6086 20.7145 25.4685 21.1071 25.3867Z" fill="#EBAA6A"/>
<path d="M29.3103 42.0126C29.5672 42.0649 29.6724 42.1054 29.8765 42.2776C30.0056 42.5763 30.0255 42.756 29.9728 43.0787C29.7361 43.3989 29.5945 43.539 29.2019 43.6208C28.8092 43.539 28.6676 43.3989 28.4309 43.0787C28.3707 42.7896 28.3707 42.7896 28.4309 42.5005C28.6833 42.1298 28.8646 41.9781 29.3103 42.0126Z" fill="#8194A1"/>
<path d="M20.2587 38.9743C20.4326 39.036 20.4326 39.036 20.6254 39.1986C20.7545 39.4973 20.7744 39.677 20.7217 39.9997C20.4817 40.3245 20.3473 40.464 19.9448 40.5297C19.6204 40.4745 19.4892 40.4448 19.2762 40.1924C19.1827 39.9289 19.1496 39.6999 19.1798 39.4215C19.4764 38.9527 19.7397 38.8685 20.2587 38.9743Z" fill="#506E80"/>
<path d="M31.051 38.9743C31.2249 39.036 31.2249 39.036 31.4176 39.1986C31.5433 39.4893 31.5532 39.6857 31.514 39.9997C31.4176 40.2225 31.4176 40.2225 31.2249 40.3852C30.8683 40.4957 30.5699 40.5261 30.219 40.3912C29.9896 40.0883 29.9311 39.7986 29.9721 39.4215C30.2686 38.9527 30.532 38.8685 31.051 38.9743Z" fill="#8294A0"/>
<path d="M25.6545 30.4899C25.8284 30.5516 25.8284 30.5516 26.0211 30.7142C26.1468 31.0049 26.1567 31.2014 26.1175 31.5153C26.0211 31.7382 26.0211 31.7382 25.8284 31.9008C25.4718 32.0113 25.1734 32.0418 24.8225 31.9068C24.5931 31.6039 24.5346 31.3142 24.5756 30.9371C24.8721 30.4684 25.1355 30.3841 25.6545 30.4899Z" fill="#8295A1"/>
<path d="M25.6545 27.4078C25.8284 27.4696 25.8284 27.4696 26.0211 27.6322C26.1468 27.9229 26.1567 28.1193 26.1175 28.4333C26.0211 28.6561 26.0211 28.6561 25.8284 28.8188C25.4718 28.9293 25.1734 28.9597 24.8225 28.8248C24.5931 28.5219 24.5346 28.2322 24.5756 27.8551C24.8721 27.3863 25.1355 27.3021 25.6545 27.4078Z" fill="#8295A1"/>
<path d="M30.9125 3.24609C31.3055 3.29143 31.4998 3.41883 31.804 3.66771C31.9987 3.92176 31.998 4.0307 31.9786 4.35435C31.9003 4.63141 31.9003 4.63141 31.6112 4.82415C31.1417 4.80374 30.8901 4.66189 30.5512 4.3423C30.406 4.05191 30.4377 3.79464 30.4548 3.47497C30.6475 3.28223 30.6475 3.28223 30.9125 3.24609Z" fill="#EFF5FB"/>
<path d="M23.2266 20.1445C23.8626 20.2399 24.4986 20.3353 25.154 20.4336C25.0765 21.5049 25.0765 21.5049 24.8648 21.9756C24.7058 21.9438 24.5468 21.912 24.383 21.8792C24.4466 21.6566 24.5102 21.434 24.5757 21.2046C24.1464 21.2523 24.1464 21.2523 23.7084 21.301C23.6394 21.1127 23.5704 20.9245 23.5014 20.7363C23.421 20.5342 23.3238 20.3391 23.2266 20.1445Z" fill="#E6B16A"/>
<path d="M15.5 17.1289C15.8446 17.1627 16.014 17.2418 16.2891 17.4481C16.5473 17.8354 16.4968 18.0496 16.4818 18.5082C16.127 18.6687 15.9706 18.7246 15.5964 18.5925C15.3273 18.4131 15.1801 18.3139 15.0363 18.0264C15.0061 17.677 15.0061 17.677 15.0363 17.3518C15.229 17.159 15.229 17.159 15.5 17.1289Z" fill="#F5F9FC"/>
<path d="M27.4671 20.2432C27.4075 20.3466 27.3479 20.4499 27.2864 20.5564C27.146 20.8019 27.0114 21.0481 26.8889 21.3033C26.6345 21.2715 26.3801 21.2397 26.118 21.2069C26.1816 21.4295 26.2452 21.6521 26.3107 21.8815C26.1517 21.8815 25.9927 21.8815 25.8289 21.8815C25.7795 21.7494 25.7316 21.6168 25.6843 21.484C25.6441 21.3733 25.6441 21.3733 25.603 21.2604C25.5305 20.9781 25.5297 20.7262 25.5397 20.4359C25.7885 20.3847 26.0375 20.3347 26.2866 20.2854C26.3569 20.2708 26.4272 20.2562 26.4997 20.2411C26.8567 20.1714 27.1196 20.1374 27.4671 20.2432Z" fill="#E6B06A"/>
<path d="M18.9865 33.3477C19.2758 33.7815 19.2473 34.1882 19.1793 34.6968C19.0493 35.0383 18.8869 35.3486 18.6974 35.6605C18.2829 35.4763 18.1 35.2495 17.8301 34.8896C17.8301 34.826 17.8301 34.7624 17.8301 34.6968C17.947 34.6077 18.0684 34.5243 18.1915 34.4439C18.6244 34.1337 18.7847 33.8353 18.9865 33.3477Z" fill="#E4E0E0"/>
<path d="M15.2284 25.8327C15.1931 26.5273 15.1931 26.5273 14.9152 26.8747C14.2284 27.421 14.2284 27.421 13.6865 27.3746C13.7086 26.8342 13.8422 26.5704 14.2004 26.1681C14.53 25.8755 14.7921 25.8084 15.2284 25.8327Z" fill="#5E9790"/>
<path d="M37.4149 23.8943C37.6044 23.9882 37.7889 24.0865 37.9717 24.1928C37.8753 24.4819 37.8753 24.4819 37.5742 24.6445C37.2113 24.7838 36.9165 24.8198 36.5261 24.771C36.2826 24.6609 36.0766 24.5325 35.8516 24.3855C35.9479 24.0964 35.9479 24.0964 36.2009 23.9338C36.6357 23.7647 36.9731 23.7149 37.4149 23.8943Z" fill="#5E9790"/>
<path d="M35.3691 25.832C35.9096 25.8541 36.1733 25.9878 36.5756 26.3459C36.8682 26.6755 36.9353 26.9376 36.9111 27.3739C36.3733 27.352 36.0945 27.2238 35.7012 26.8552C35.4041 26.5228 35.3691 26.2705 35.3691 25.832Z" fill="#5C9891"/>
<path d="M14.4031 24.0011C14.5183 24.064 14.633 24.1278 14.7464 24.1938C14.65 24.4829 14.65 24.4829 14.3489 24.6455C13.987 24.7847 13.69 24.8215 13.3009 24.772C12.9696 24.5793 12.9696 24.5793 12.7227 24.3865C12.8124 24.1622 12.882 24.0258 13.078 23.8806C13.5687 23.7214 13.9502 23.775 14.4031 24.0011Z" fill="#5D9790"/>
<path d="M29.1059 11.3789C29.1377 11.3789 29.1695 11.3789 29.2023 11.3789C29.2563 12.727 29.2563 12.727 28.9131 13.2099C28.8694 13.2715 28.8257 13.3332 28.7806 13.3966C28.624 13.499 28.624 13.499 28.3891 13.499C28.066 13.373 27.9471 13.2064 27.7567 12.9208C27.6512 12.6042 27.6507 12.368 27.6543 12.0354C27.6552 11.9307 27.6561 11.826 27.657 11.7181C27.6581 11.638 27.6592 11.5578 27.6603 11.4753C27.6921 11.4753 27.7239 11.4753 27.7567 11.4753C27.7673 11.5345 27.7778 11.5938 27.7887 11.6548C27.804 11.7327 27.8193 11.8106 27.835 11.8909C27.8495 11.968 27.8641 12.0452 27.8791 12.1246C27.958 12.3689 28.0355 12.4768 28.2386 12.6317C28.4854 12.6466 28.4854 12.6466 28.7204 12.5353C29.0142 12.1786 29.0615 11.8311 29.1059 11.3789Z" fill="#6087CA"/>
<path d="M22.9379 11.3789C22.9697 11.3789 23.0015 11.3789 23.0343 11.3789C23.0883 12.727 23.0883 12.727 22.7452 13.2099C22.7014 13.2715 22.6577 13.3332 22.6127 13.3966C22.4561 13.499 22.4561 13.499 22.2212 13.499C21.8981 13.373 21.7792 13.2064 21.5887 12.9208C21.4832 12.6042 21.4828 12.368 21.4863 12.0354C21.4872 11.9307 21.4881 11.826 21.489 11.7181C21.4901 11.638 21.4912 11.5578 21.4924 11.4753C21.5242 11.4753 21.556 11.4753 21.5887 11.4753C21.5993 11.5345 21.6099 11.5938 21.6207 11.6548C21.636 11.7327 21.6513 11.8106 21.667 11.8909C21.6816 11.968 21.6961 12.0452 21.7111 12.1246C21.79 12.3689 21.8676 12.4768 22.0706 12.6317C22.3175 12.6466 22.3175 12.6466 22.5524 12.5353C22.8462 12.1786 22.8936 11.8311 22.9379 11.3789Z" fill="#6087CA"/>
<path d="M20.0286 38.9566C20.1806 38.9954 20.1806 38.9954 20.3357 39.0349C20.2783 39.3798 20.143 39.5692 19.9141 39.83C19.8557 39.8981 19.7973 39.9662 19.7372 40.0363C19.5648 40.1914 19.5648 40.1914 19.2757 40.1914C19.2149 39.9155 19.1685 39.6988 19.1793 39.4204C19.4395 39.022 19.5478 38.933 20.0286 38.9566Z" fill="#3D5664"/>
<path d="M28.4315 42.6016C28.9133 42.7622 29.3952 42.9228 29.877 43.0834C29.7084 43.4568 29.7084 43.4568 29.4915 43.5653C29.0972 43.6178 28.9581 43.5993 28.6363 43.3545C28.4315 43.0834 28.4315 43.0834 28.4014 42.8124C28.4113 42.7428 28.4212 42.6732 28.4315 42.6016Z" fill="#526F82"/>
<path d="M30.1654 27.3711C30.4184 27.4072 30.4184 27.4072 30.6472 27.4675C30.7075 27.6963 30.7075 27.6963 30.7436 27.9493C30.68 28.0129 30.6164 28.0765 30.5509 28.1421C30.2979 28.1059 30.2979 28.1059 30.069 28.0457C30.0088 27.8168 30.0088 27.8168 29.9727 27.5638C30.0363 27.5002 30.0999 27.4366 30.1654 27.3711Z" fill="#EFE4E4"/>
<path d="M20.0463 27.3711C20.2992 27.4072 20.2992 27.4072 20.5281 27.4675C20.5883 27.6963 20.5883 27.6963 20.6245 27.9493C20.5609 28.0129 20.4973 28.0765 20.4317 28.1421C20.1788 28.1059 20.1788 28.1059 19.9499 28.0457C19.8897 27.8168 19.8897 27.8168 19.8535 27.5638C19.9171 27.5002 19.9807 27.4366 20.0463 27.3711Z" fill="#EFE0E1"/>
<path d="M36.3334 25.0625C36.5863 25.0986 36.5863 25.0986 36.8152 25.1589C36.8754 25.3877 36.8754 25.3877 36.9116 25.6407C36.848 25.7043 36.7844 25.7679 36.7188 25.8335C36.4659 25.7973 36.4659 25.7973 36.237 25.7371C36.1768 25.5082 36.1768 25.5082 36.1406 25.2552C36.2042 25.1916 36.2678 25.128 36.3334 25.0625Z" fill="#EFE4E4"/>
<path d="M13.8793 25.0625C14.1322 25.0986 14.1322 25.0986 14.3611 25.1589C14.4213 25.3877 14.4213 25.3877 14.4575 25.6407C14.3939 25.7043 14.3303 25.7679 14.2647 25.8335C14.0118 25.7973 14.0118 25.7973 13.7829 25.7371C13.7227 25.5082 13.7227 25.5082 13.6865 25.2552C13.7501 25.1916 13.8137 25.128 13.8793 25.0625Z" fill="#EFE0E1"/>
<path d="M30.9369 24.2891C31.1898 24.3252 31.1898 24.3252 31.4187 24.3854C31.479 24.6143 31.479 24.6143 31.5151 24.8673C31.4515 24.9309 31.3879 24.9945 31.3224 25.06C31.0694 25.0239 31.0694 25.0239 30.8405 24.9637C30.7803 24.7348 30.7803 24.7348 30.7441 24.4818C30.8077 24.4182 30.8713 24.3546 30.9369 24.2891Z" fill="#EFE4E4"/>
<path d="M19.2757 24.2891C19.5287 24.3252 19.5287 24.3252 19.7576 24.3854C19.8178 24.6143 19.8178 24.6143 19.854 24.8673C19.7904 24.9309 19.7268 24.9945 19.6612 25.06C19.4083 25.0239 19.4083 25.0239 19.1794 24.9637C19.1191 24.7348 19.1191 24.7348 19.083 24.4818C19.1466 24.4182 19.2102 24.3546 19.2757 24.2891Z" fill="#EFE0E1"/>
<path d="M15.9995 19.47C16.2284 19.4579 16.2284 19.4579 16.4814 19.47C16.6741 19.6627 16.6741 19.6627 16.6861 19.9157C16.6822 19.9912 16.6782 20.0667 16.6741 20.1446C16.5787 20.1764 16.4833 20.2082 16.385 20.2409C16.1742 20.1325 16.1742 20.1325 15.9995 19.9518C15.9754 19.6928 15.9754 19.6928 15.9995 19.47Z" fill="#F5F9FC"/>
<path d="M18.987 34.9883C19.1999 35.3076 19.2014 35.407 19.1918 35.7773C19.1901 35.8641 19.1883 35.951 19.1866 36.0404C19.1832 36.1398 19.1832 36.1398 19.1798 36.2411C18.989 36.0821 18.7982 35.9231 18.6016 35.7592C18.7288 35.5048 18.856 35.2504 18.987 34.9883Z" fill="#C35151"/>
</svg>
