<svg width="50" height="50" viewBox="0 0 50 50" fill="none" xmlns="http://www.w3.org/2000/svg">
<path d="M23.4009 3.01669C23.4584 3.01634 23.5159 3.01599 23.5751 3.01563C23.8807 3.01384 23.6914 3.00081 23.9971 3C24.2452 2.99925 24.749 3.74035 24.9971 3.73759C26.92 3.71669 28.6406 3.44974 30.4971 4C30.5854 4.02557 30.9089 3.97366 30.9999 4C33.9939 4.88799 36.1251 6.2462 38.4999 8.2755C38.5643 8.33025 39.4336 8.44359 39.4999 8.5C40.6602 9.51598 41.0917 10.7521 41.9999 12C42.0736 12.0989 42.4262 12.4012 42.4999 12.5C43.0193 13.2043 43.0675 13.2397 43.4999 14C43.1931 15.2077 42.2881 14.8723 43.4999 14C45.3574 17.2453 46.0141 20.7863 46 24.5C45.9998 24.5875 46.0002 24.9098 46 25C45.9957 26.256 45.7584 27.2663 45.5 28.5C45.4744 28.6257 45.0261 29.3717 45 29.5C44.1299 33.6595 43.9512 36.4328 40.9971 39.5C40.9427 39.5567 40.5531 39.9416 40.4971 40C39.7109 40.8157 39.9121 40.8317 38.9971 41.5C38.8981 41.5738 38.096 42.4262 37.9971 42.5C37.293 43.0191 36.5476 43.788 35.7864 44.2184C35.7256 44.2529 35.6648 44.2875 35.6021 44.3231C33.6131 45.443 31.4491 46.1951 29.2148 46.6525C29.153 46.6651 29.0912 46.6778 29.0275 46.6909C27.7658 46.9307 26.517 46.9995 25.2351 46.9966C24.9824 46.9964 24.7298 46.9984 24.477 47.0006C23.3273 47.0044 22.2186 46.9008 21.085 46.7116C20.9383 46.6873 20.9383 46.6873 20.7887 46.6626C17.0689 45.9944 13.5397 44.276 10.6822 41.8111C10.6181 41.7566 10.5541 41.7021 10.4881 41.6459C9.32702 40.6304 8.23762 39.5342 7.32925 38.2862C7.25561 38.1873 7.18195 38.0885 7.10827 37.9897C6.58899 37.2855 6.12617 36.5544 5.69576 35.793C5.66118 35.7322 5.6266 35.6714 5.59098 35.6087C4.34049 33.3877 3.51047 30.9178 3.11656 28.3993C3.10151 28.3033 3.08646 28.2073 3.07095 28.1085C3.00571 27.5717 3.01315 27.0314 3.0101 26.4914C3.00975 26.4329 3.0094 26.3743 3.00904 26.314C3.00725 26.0029 3.00602 25.6918 3.00521 25.3807C3.00445 25.1278 3.00268 24.875 2.99992 24.6222C2.98368 23.0976 3.02769 21.6401 3.37448 20.1458C3.39877 20.0388 3.42306 19.9318 3.44809 19.8215C3.51075 19.5656 3.57966 19.3132 3.65389 19.0604C3.67946 18.9717 3.70502 18.8831 3.73136 18.7917C4.6161 15.7958 6.07331 13.0641 8.10301 10.6888C8.18513 10.5922 8.18513 10.5922 8.26891 10.4937C9.28488 9.33341 10.3801 8.2441 11.6279 7.33584C11.7268 7.2622 11.8256 7.18854 11.9244 7.11486C12.6286 6.59558 13.3597 6.13276 14.1211 5.70235C14.1819 5.66777 14.2427 5.63319 14.3054 5.59757C17.0476 4.05365 20.2409 3.03488 23.4009 3.01669Z" fill="#F7EDDA"/>
<path d="M25.6769 3.00395C25.765 3.00403 25.853 3.0041 25.9437 3.00418C27.2521 3.00788 28.4977 3.05579 29.7714 3.38008C29.9012 3.4119 29.9012 3.4119 30.0336 3.44435C33.4403 4.29315 36.5559 5.82481 39.2285 8.10861C39.2929 8.16336 39.3573 8.2181 39.4236 8.27451C40.5839 9.29049 41.6732 10.3857 42.5814 11.6335C42.6551 11.7324 42.7287 11.8312 42.8024 11.9301C43.3217 12.6343 43.7825 13.3664 44.2149 14.1267C44.2463 14.1811 44.2776 14.2354 44.3099 14.2913C46.1674 17.5367 47.0071 21.2135 46.9929 24.9271C46.9927 25.0146 46.9926 25.1021 46.9924 25.1923C46.9881 26.4483 46.9665 27.6805 46.7081 28.9141C46.6825 29.0398 46.6825 29.0398 46.6564 29.1681C45.7863 33.3276 43.902 37.1095 40.9479 40.1766C40.8936 40.2333 40.8392 40.29 40.7833 40.3484C39.9971 41.1641 39.1978 41.9155 38.2828 42.5839C38.1838 42.6576 38.0849 42.7314 37.9859 42.8052C34.2105 45.5885 31.516 46.5815 30 46.5C30 46.5 32.8328 45.3509 32.9041 45.2705C35.2 42.5784 35.881 39.3752 35.897 35.9156C35.8978 35.8093 35.8986 35.7031 35.8994 35.5937C35.897 34.8997 35.831 34.2386 35.7036 33.5567C35.6919 33.4935 35.6803 33.4304 35.6683 33.3653C35.1166 30.5834 33.2992 28.0992 30.9698 26.5288C28.9965 25.252 26.8715 24.791 24.5428 24.7383C21.6979 24.6591 19.1429 23.358 17.1512 21.3663C14.8983 18.9498 14.1056 16.0167 14.1952 12.7788C14.3473 9.88884 15.9921 7.33702 18.0791 5.44344C20.2933 3.58534 22.8596 2.99808 25.6769 3.00395Z" fill="#4C4C4C"/>
<path d="M23.9004 3.00539C28.0333 2.93252 28.0333 2.93252 29.7153 3.34928C29.8469 3.38109 29.8469 3.38109 29.9811 3.41355C33.4195 4.2626 36.5644 5.79431 39.2621 8.07781C39.3271 8.13255 39.3921 8.1873 39.459 8.24371C40.6303 9.25968 41.73 10.3549 42.6468 11.6027C42.7212 11.7016 42.7955 11.8004 42.8699 11.8992C43.3942 12.6035 43.8593 13.3356 44.2958 14.0959C44.3275 14.1503 44.3591 14.2046 44.3917 14.2605C46.2669 17.5059 47.1145 21.1827 47.1002 24.8963C47.1 24.9838 47.0998 25.0713 47.0996 25.1615C47.0953 26.4175 47.0736 27.6497 46.8127 28.8833C46.7869 29.009 46.7869 29.009 46.7605 29.1373C45.8821 33.2968 43.98 37.0787 40.9979 40.1458C40.943 40.2025 40.8881 40.2592 40.8316 40.3176C40.038 41.1333 39.2311 41.8847 38.3074 42.5531C38.2075 42.6268 38.1076 42.7006 38.0077 42.7744C34.1965 45.5577 31.4769 46.5815 29.9465 46.5C30.0163 46.422 32.4702 45.5 32.975 45C33.0248 44.9506 34.473 43.5141 34.4813 43.5C34.4704 43.5185 35.4908 42.5 35.4908 42.5C35.4762 42.51 36.3685 41.6626 36.9188 41.1775C36.9646 41.1375 37.0105 41.0975 37.0578 41.0562C39.931 38.5454 42.0103 35.1505 43.1676 31.5485C43.1885 31.4847 43.2094 31.4209 43.2309 31.3551C43.5026 30.5197 43.6993 29.6879 43.831 28.8201C43.8623 28.6229 43.8986 28.4271 43.9355 28.2308C44.3384 25.9342 44.2477 23.4383 43.8619 21.1457C43.8498 21.0737 43.8377 21.0017 43.8253 20.9275C43.1254 16.946 41.2326 13.1481 38.4389 10.2016C38.2605 10.0117 38.0903 9.81876 37.9223 9.61995C35.2514 6.58641 31.1662 4.57486 27.2852 3.6072C27.189 3.58259 27.0927 3.55799 26.9936 3.53264C25.9784 3.29471 24.9358 3.20407 23.9004 3.09136C23.9004 3.06299 23.9004 3.03462 23.9004 3.00539Z" fill="#3A3938"/>
<path d="M27.0851 10.5774C27.7942 10.9913 28.2317 11.5341 28.4815 12.3234C28.5954 13.1663 28.5016 13.9054 28.0402 14.6245C27.6105 15.1879 27.0203 15.535 26.3321 15.6764C25.5265 15.7613 24.8722 15.6242 24.2097 15.1551C23.752 14.78 23.498 14.3068 23.2371 13.7849C23.1654 12.7936 23.1615 12.0096 23.8053 11.2047C24.6382 10.2935 25.9636 10.0461 27.0851 10.5774Z" fill="#DCDCDB"/>
<path d="M27.289 33.7836C27.8277 34.2286 28.3602 34.7368 28.4819 35.4494C28.5709 36.3902 28.4616 37.1372 27.864 37.8835C27.3719 38.4085 26.7562 38.7207 26.0364 38.7459C25.1733 38.7587 24.5875 38.5996 23.9361 38.0017C23.3339 37.3527 23.1977 36.6467 23.213 35.7829C23.2584 35.1652 23.4764 34.5966 23.9253 34.1598C25.0108 33.3215 26.0426 33.1355 27.289 33.7836Z" fill="#555050"/>
<path d="M24.5268 10.7383C25.0695 10.9983 25.4529 11.5343 25.6733 12.0873C25.8586 12.8537 25.8439 13.6882 25.4349 14.376C25.1851 14.7157 24.9253 15.0673 24.5265 15.2314C24.3548 15.2465 24.3548 15.2465 24.2077 15.1753C23.6512 14.6998 23.2601 14.1536 23.1902 13.4098C23.1423 12.4418 23.3128 11.757 23.9626 11.0177C24.1707 10.8289 24.2418 10.7798 24.5268 10.7383Z" fill="#F6ECD9"/>
<path d="M24.3547 33.8164C24.9227 34.0054 25.2844 34.4273 25.5738 34.9428C25.8301 35.5945 25.8516 36.3618 25.6386 37.025C25.3733 37.6019 25.0407 38.0025 24.5267 38.373C24.0019 38.1186 23.5724 37.6505 23.3284 37.121C23.0883 36.3601 23.1448 35.4807 23.4832 34.7635C23.7113 34.359 23.985 34.0937 24.3547 33.8164Z" fill="#696867"/>
</svg>
