<svg width="50" height="50" viewBox="0 0 50 50" fill="none" xmlns="http://www.w3.org/2000/svg">
<g clip-path="url(#clip0_1_2544)">
<path d="M37.9379 0C38.1833 0.245398 38.2362 0.441226 38.347 0.769854C38.3871 0.886513 38.4271 1.00317 38.4684 1.12337C38.5112 1.24857 38.554 1.37377 38.5981 1.50277C39.0673 2.85045 39.6133 4.13331 40.2989 5.38622C41.5195 7.62008 42.7046 10.38 42.6726 12.9716C42.6717 13.0679 42.6708 13.1643 42.6698 13.2636C42.6681 13.3711 42.6681 13.3711 42.6663 13.4809C42.6079 13.4361 42.5496 13.3914 42.4894 13.3453C42.4108 13.2884 42.3323 13.2314 42.2513 13.1728C42.1743 13.1156 42.0972 13.0584 42.0179 12.9995C41.6667 12.8325 41.5275 12.8561 41.1572 12.9779C40.8533 13.1598 40.5761 13.3716 40.2958 13.5878C40.1719 13.6812 40.1719 13.6812 40.0454 13.7765C39.7779 13.9786 39.5118 14.1823 39.2458 14.3863C39.064 14.5251 38.8821 14.6638 38.7003 14.8025C38.4291 15.0093 38.1581 15.2162 37.8873 15.4235C37.3985 15.797 36.9066 16.1637 36.4037 16.5179C35.8572 16.9039 35.3206 17.3014 34.7878 17.7062C34.7124 17.7631 34.6371 17.8199 34.5595 17.8784C34.49 17.9316 34.4204 17.9847 34.3488 18.0395C34.2866 18.0868 34.2245 18.1342 34.1604 18.1829C34.0005 18.3056 34.0005 18.3056 33.9138 18.5111C35.2231 18.2415 36.5323 17.9713 37.8413 17.7003C38.4492 17.5745 39.0572 17.4489 39.6652 17.3238C40.2524 17.2029 40.8394 17.0816 41.4264 16.9598C41.65 16.9135 41.8736 16.8674 42.0972 16.8216C42.4113 16.7571 42.7253 16.6919 43.0392 16.6266C43.131 16.6079 43.2227 16.5893 43.3172 16.57C44.402 16.3425 45.1414 16.1446 45.785 15.1911C46.3529 14.1427 46.5196 13.2169 46.1949 12.0665C46.0205 11.5891 45.7658 11.1848 45.4832 10.7646C44.3666 9.07376 43.7843 7.3204 43.4711 5.33199C43.4578 5.24744 43.4444 5.16288 43.4306 5.07577C43.3441 4.4263 43.3614 3.77262 43.3705 3.11871C43.6464 3.25664 43.672 3.4054 43.7945 3.68657C43.8381 3.78491 43.8817 3.88324 43.9266 3.98455C43.9734 4.09099 44.0202 4.19743 44.0684 4.30709C44.8862 6.12758 45.8092 7.85724 47.0425 9.43159C48.5081 11.373 49.024 13.7066 48.7811 16.113C48.5513 17.7553 47.8844 19.454 46.791 20.7243C46.7246 20.7243 46.6582 20.7243 46.5898 20.7243C46.596 20.6227 46.6023 20.521 46.6087 20.4162C46.5866 19.9527 46.5099 19.72 46.288 19.3159C45.532 18.8281 44.4852 19.1515 43.6658 19.3256C43.4058 19.3823 43.1461 19.4402 42.8863 19.4982C42.703 19.5384 42.5196 19.5784 42.3362 19.6185C40.1922 20.0898 38.0585 20.6068 35.9258 21.1268C35.9258 21.1932 35.9258 21.2596 35.9258 21.328C36.1233 21.5001 36.3214 21.66 36.5295 21.8184C36.593 21.8674 36.6565 21.9164 36.722 21.9668C36.8575 22.071 36.9932 22.1748 37.1291 22.2783C37.3241 22.4268 37.5181 22.5766 37.7119 22.7266C41.8033 25.9358 41.8033 25.9358 46.6904 27.2636C47.2393 27.1902 47.6632 27.0493 48.0423 26.6348C48.2968 26.2967 48.4564 25.9494 48.6019 25.5533C48.9255 25.8149 49.0025 26.0977 49.1175 26.4902C49.1509 26.6019 49.1844 26.7135 49.2189 26.8286C50.0565 30.0396 48.8354 33.4836 47.2499 36.2544C45.4863 39.2266 43.2319 41.8108 40.7921 44.2414C40.6207 44.4122 40.4499 44.5836 40.2791 44.7551C39.7505 45.2839 39.2214 45.8037 38.6421 46.2777C38.5757 46.2445 38.5093 46.2113 38.4409 46.1771C38.4899 46.0985 38.539 46.0199 38.5895 45.9389C41.4844 41.2372 43.7334 36.1803 45.282 30.8853C45.2268 30.868 45.1715 30.8508 45.1146 30.833C41.2717 29.5969 37.3812 26.825 34.9676 23.5782C34.8553 23.4285 34.7371 23.2832 34.618 23.1388C34.5516 23.1388 34.4852 23.1388 34.4168 23.1388C34.9374 24.7869 35.5329 26.3852 36.2276 27.9678C36.2624 28.0478 36.2971 28.1278 36.3329 28.2102C37.6347 31.1917 37.6347 31.1917 40.0506 33.1992C40.7156 33.3867 41.2352 33.26 41.8614 32.998C41.2512 36.6084 39.4654 40.0191 37.3343 42.9577C37.2579 43.0638 37.1815 43.1699 37.1028 43.2792C36.5434 44.0403 35.9391 44.7584 35.3222 45.4728C35.2637 45.5416 35.2052 45.6103 35.145 45.6811C33.7967 47.2501 32.3464 48.7484 30.6944 50C30.628 49.9668 30.5617 49.9336 30.4932 49.8994C30.5254 49.8377 30.5575 49.7759 30.5906 49.7123C31.0288 48.8698 31.4656 48.0266 31.9017 47.1831C31.9618 47.0668 31.9618 47.0668 32.0231 46.9482C33.5655 43.9686 33.5655 43.9686 35.0204 40.9457C35.0887 40.7985 35.157 40.6514 35.2253 40.5042C35.4574 40.004 35.6886 39.5035 35.9195 39.0028C35.957 38.9218 35.9944 38.8408 36.0329 38.7573C36.2683 38.2472 36.5009 37.736 36.7307 37.2233C36.778 37.1188 36.8254 37.0142 36.8742 36.9064C36.912 36.8187 36.9499 36.731 36.9889 36.6405C37.0201 36.5691 37.0512 36.4976 37.0834 36.4239C37.1478 36.1562 37.1092 35.9769 37.0325 35.7143C36.8501 35.4387 36.8501 35.4387 36.6112 35.1547C34.9787 33.1014 33.5337 30.8686 32.3043 28.5524C32.2176 28.3957 32.1212 28.2445 32.0231 28.0947C31.6 27.4199 31.7118 26.8329 31.84 26.0811C31.9694 25.2553 31.9672 24.7097 31.4804 24.0128C31.4364 23.9458 31.3924 23.8787 31.347 23.8096C31.1987 23.5845 31.0476 23.3615 30.8957 23.1388C30.7185 22.8789 30.5419 22.6186 30.367 22.3571C30.2528 22.1866 30.1371 22.0172 30.0196 21.8489C29.602 21.2272 29.3161 20.6274 29.4225 19.8629C29.4866 19.5956 29.5642 19.3379 29.6507 19.077C29.7106 18.8914 29.7705 18.7057 29.8303 18.5201C29.8592 18.4319 29.8881 18.3437 29.918 18.2528C30.0019 17.9892 30.0019 17.9892 30.0464 17.6312C30.1057 17.2707 30.1598 17.085 30.3926 16.8008C30.9529 16.4731 31.5938 16.3028 32.2068 16.1009C34.4864 15.3 38.5232 13.4776 39.8494 11.3682C40.3214 10.3661 40.0036 9.24524 39.6482 8.2495C39.3988 7.61762 39.1221 6.99733 38.8476 6.37605C38.172 4.83499 37.8176 3.33024 37.8247 1.64738C37.8243 1.55531 37.824 1.46323 37.8236 1.36837C37.8242 0.9008 37.8417 0.459877 37.9379 0Z" fill="black"/>
<path d="M11.3785 0.100586C11.4449 0.100586 11.5113 0.100586 11.5797 0.100586C11.9722 2.50435 11.3946 4.73673 10.4165 6.91019C9.47097 8.97569 9.47097 8.97569 9.52992 11.2082C9.89596 12.0564 10.7918 12.5809 11.5483 13.047C11.6308 13.0983 11.7133 13.1496 11.7984 13.2024C12.06 13.3638 12.3226 13.5233 12.5858 13.6821C12.7114 13.7579 12.7114 13.7579 12.8396 13.8352C13.8595 14.4451 14.9002 15.0042 15.9685 15.5244C16.0742 15.5767 16.1798 15.629 16.2887 15.683C16.7771 15.9179 17.234 16.1163 17.7661 16.2262C18.7514 16.4409 18.7514 16.4409 19.125 16.8008C19.7662 17.9304 20.2236 19.5326 20.0304 20.8249C19.9315 21.1198 19.796 21.3688 19.628 21.6298C19.5913 21.6884 19.5545 21.747 19.5167 21.8074C19.4018 21.9852 19.2828 22.1596 19.1627 22.334C19.0746 22.4656 18.9866 22.5972 18.8986 22.7289C18.7599 22.9357 18.6202 23.1414 18.4774 23.3453C17.7214 24.4 17.7214 24.4 17.5629 25.6582C17.6119 25.9606 17.6119 25.9606 17.7036 26.2689C17.9929 27.4469 17.4782 28.2055 16.8785 29.2005C16.8231 29.2917 16.7676 29.3829 16.7105 29.4768C16.6575 29.5661 16.6045 29.6553 16.5499 29.7473C15.4848 31.5407 14.2912 33.2467 13.0664 34.9338C13.0188 34.9999 12.9711 35.066 12.9221 35.1341C12.787 35.3119 12.787 35.3119 12.5421 35.5704C12.3566 35.8106 12.3566 35.8106 12.381 36.1304C12.5197 36.6481 12.7231 37.1195 12.9442 37.6069C12.9935 37.7169 13.0428 37.827 13.0937 37.9404C13.2302 38.2433 13.3678 38.5456 13.5062 38.8476C13.5904 39.0311 13.6742 39.2147 13.758 39.3984C14.6619 41.3748 15.6256 43.3216 16.5973 45.2653C16.6552 45.3813 16.7132 45.4972 16.7728 45.6167C17.3796 46.83 17.9884 48.0414 18.6333 49.235C18.9238 49.7775 18.9238 49.7775 18.9238 50C18.5476 49.8409 18.2903 49.6044 17.9932 49.3272C17.8586 49.2021 17.8586 49.2021 17.7213 49.0745C17.673 49.0297 17.6247 48.9848 17.575 48.9386C17.3961 48.7758 17.2133 48.6182 17.03 48.4603C16.5841 48.0716 16.1655 47.6589 15.7485 47.2397C15.6764 47.168 15.6044 47.0964 15.5302 47.0225C15.0645 46.556 14.6225 46.0754 14.1954 45.5734C14.1402 45.5088 14.0849 45.4442 14.028 45.3776C11.3625 42.2378 7.65617 37.3124 7.65617 32.998C7.73295 33.0291 7.80972 33.0602 7.88882 33.0923C8.42075 33.3026 8.84628 33.4109 9.40652 33.2157C12.1557 31.9553 13.4438 27.7418 14.4106 25.1448C14.8254 24.0611 14.8254 24.0611 15.1008 22.9376C15.0344 22.9376 14.968 22.9376 14.8996 22.9376C14.8736 22.9947 14.8475 23.0517 14.8206 23.1105C12.8651 26.7826 8.028 29.4265 4.33625 30.8853C4.39191 31.4381 4.49501 31.9412 4.67186 32.469C4.69548 32.5411 4.71911 32.6133 4.74345 32.6876C4.8205 32.9214 4.89888 33.1546 4.9776 33.3878C5.00458 33.4683 5.03157 33.5487 5.05937 33.6316C5.55247 35.0971 6.11251 36.5185 6.75074 37.9275C6.82556 38.0946 6.82556 38.0946 6.90189 38.265C7.99249 40.6928 9.18246 43.066 10.552 45.3487C10.6078 45.4419 10.6636 45.5352 10.721 45.6312C10.7704 45.7127 10.8198 45.7943 10.8707 45.8783C10.9761 46.0764 10.9761 46.0764 10.9761 46.2776C10.677 46.1422 10.4585 45.9901 10.2204 45.7648C10.1533 45.7016 10.0861 45.6384 10.017 45.5732C9.94546 45.5048 9.87396 45.4364 9.80029 45.3659C9.72567 45.2951 9.65105 45.2242 9.57418 45.1512C9.02524 44.6273 8.48319 44.0966 7.94541 43.5613C7.87646 43.4929 7.80751 43.4244 7.73646 43.3538C7.34303 42.9591 6.96843 42.5533 6.6044 42.1314C6.41464 41.9121 6.21813 41.6994 6.02136 41.4864C5.45962 40.862 4.94388 40.2063 4.43686 39.5372C4.3844 39.4682 4.33194 39.3991 4.2779 39.328C3.43185 38.2068 2.6913 37.0498 2.02237 35.8149C1.98465 35.7457 1.94693 35.6764 1.90806 35.6051C0.493824 32.9815 -0.528413 29.7587 0.293245 26.7794C0.428139 26.3468 0.605643 25.9549 0.815126 25.5533C1.03019 25.7684 1.08949 25.9149 1.19868 26.1946C1.42446 26.7137 1.67701 26.9485 2.19214 27.1881C4.44033 27.6971 6.89291 26.089 8.70541 24.9473C9.93708 24.1543 11.1059 23.2788 12.2651 22.3843C12.3403 22.3264 12.4154 22.2685 12.4929 22.2088C12.599 22.1261 12.599 22.1261 12.7072 22.0416C12.7689 21.9936 12.8306 21.9455 12.8942 21.896C13.1406 21.6862 13.3653 21.4583 13.5918 21.2273C12.3528 20.8878 11.1063 20.5826 9.85688 20.2842C9.75551 20.26 9.65414 20.2357 9.54971 20.2108C8.28835 19.91 7.02625 19.6143 5.75728 19.3473C5.58568 19.3106 5.58568 19.3106 5.41062 19.2731C4.3974 19.0632 4.3974 19.0632 3.39309 19.2341C3.07922 19.4509 3.01757 19.5523 2.9278 19.9195C2.88541 20.1878 2.85471 20.4538 2.8272 20.7243C1.92671 19.8739 1.38535 18.7756 1.01633 17.6056C0.984172 17.5043 0.95201 17.403 0.918874 17.2987C0.308655 14.985 0.683873 12.4351 1.84003 10.3622C2.0998 9.93181 2.38814 9.54137 2.70144 9.14862C3.34666 8.33896 3.83864 7.44439 4.33625 6.53922C4.37767 6.46441 4.41909 6.38959 4.46176 6.31252C4.9291 5.46463 5.35647 4.60964 5.72397 3.7134C5.92546 3.22952 5.92546 3.22952 6.14712 3.11869C6.16317 3.85975 6.12571 4.57315 6.02136 5.30682C6.00786 5.40285 5.99436 5.49887 5.98044 5.5978C5.69964 7.49552 5.10086 9.31169 3.97157 10.8777C3.38374 11.6958 3.01376 12.5574 3.12901 13.5815C3.33541 14.5538 3.68975 15.4834 4.50473 16.0984C4.86455 16.3128 5.15268 16.3972 5.56177 16.4816C5.66649 16.5038 5.66649 16.5038 5.77333 16.5265C6.00353 16.5749 6.23406 16.6214 6.46465 16.668C6.628 16.7019 6.79133 16.736 6.95464 16.7702C7.3859 16.8601 7.81748 16.9484 8.24913 17.0364C8.67679 17.1239 9.10412 17.2129 9.53149 17.3018C11.5201 17.7147 13.511 18.1159 15.5033 18.511C15.5033 18.4446 15.5033 18.3783 15.5033 18.3098C15.3529 18.1709 15.3529 18.1709 15.1523 18.0316C15.0759 17.976 14.9996 17.9204 14.9209 17.863C14.7952 17.773 14.7952 17.773 14.667 17.6811C14.4901 17.5526 14.3133 17.4241 14.1365 17.2956C14.0456 17.2299 13.9547 17.1641 13.8611 17.0965C13.4532 16.801 13.0477 16.5024 12.6423 16.2035C12.5643 16.146 12.4862 16.0886 12.4058 16.0294C11.9023 15.6584 11.4013 15.2841 10.9016 14.908C10.2252 14.3989 9.54861 13.8901 8.86342 13.3928C8.77932 13.3308 8.77932 13.3308 8.69352 13.2676C8.30914 12.9876 8.30914 12.9876 7.85738 12.8772C7.50061 13.0588 7.18391 13.2592 6.85134 13.4809C6.65013 10.3676 8.20493 7.27512 9.59397 4.58963C10.3339 3.15322 10.8937 1.64104 11.3785 0.100586Z" fill="black"/>
<path d="M22.4449 6.94165C22.5113 6.97485 22.5777 7.00805 22.6461 7.04225C22.5718 7.14704 22.4975 7.25182 22.4209 7.35978C22.2071 7.66152 21.9943 7.96401 21.782 8.26679C21.5599 8.58287 21.3344 8.89583 21.1052 9.2068C21.0027 9.34879 20.9001 9.49079 20.7975 9.6328C20.7478 9.69861 20.6981 9.76443 20.6469 9.83224C20.3824 10.1958 20.3824 10.1958 20.3747 10.629C20.559 10.9032 20.76 11.1208 20.9987 11.3493C21.081 11.4288 21.1632 11.5083 21.2479 11.5902C21.3424 11.6795 21.3424 11.6795 21.4389 11.7706C21.9666 11.4868 22.4178 11.1647 22.8788 10.7835C23.0111 10.6765 23.1435 10.5698 23.2761 10.4632C23.3401 10.4117 23.404 10.3602 23.47 10.3072C23.7173 10.1087 23.9649 9.91176 24.2181 9.72083C24.292 9.66402 24.3659 9.60722 24.4421 9.5487C24.6582 9.45674 24.6582 9.45674 24.8974 9.53266C25.1538 9.65445 25.3527 9.78504 25.5746 9.96094C25.6506 10.0207 25.7266 10.0804 25.8049 10.1419C25.883 10.2042 25.9611 10.2665 26.0415 10.3307C26.118 10.3911 26.1945 10.4515 26.2734 10.5137C26.4276 10.6354 26.5818 10.7573 26.7357 10.8795C27.1144 11.179 27.4959 11.4748 27.8775 11.7706C28.2628 11.5936 28.478 11.3747 28.7578 11.0538C28.8382 10.9623 28.9186 10.8707 29.0014 10.7764C29.0621 10.7061 29.1228 10.6358 29.1854 10.5634C29.0201 10.0374 28.6925 9.63565 28.368 9.19894C27.8492 8.49183 27.349 7.77804 26.8715 7.04225C27.2937 7.04225 27.4825 7.27836 27.7832 7.54527C27.9014 7.64782 28.0197 7.75025 28.1381 7.85258C28.1964 7.90326 28.2547 7.95393 28.3149 8.00614C28.5379 8.19758 28.7665 8.38129 28.9967 8.56388C29.739 9.15262 30.4712 9.75374 31.1974 10.3622C31.1349 10.7168 30.9937 10.9357 30.7789 11.222C30.6841 11.3494 30.6841 11.3494 30.5873 11.4794C30.521 11.5672 30.4547 11.655 30.3863 11.7455C30.3196 11.8348 30.2529 11.9242 30.1841 12.0162C30.0194 12.2366 29.8542 12.4565 29.6884 12.6761C29.8701 13.0811 30.0899 13.251 30.4555 13.506C30.5564 13.5771 30.6573 13.6482 30.7612 13.7214C30.8388 13.7748 30.9163 13.8283 30.9962 13.8833C30.7015 15.1946 30.277 16.4718 29.8787 17.7543C29.7831 18.0626 29.6882 18.3711 29.5933 18.6797C29.5639 18.7735 29.5346 18.8673 29.5044 18.9639C29.2349 19.8422 29.1022 20.4733 29.4872 21.328C29.658 21.6449 29.8491 21.9452 30.0468 22.246C30.0995 22.3285 30.1523 22.411 30.2066 22.4961C30.4612 22.8921 30.7218 23.2817 30.9974 23.6635C31.044 23.7291 31.0905 23.7948 31.1385 23.8625C31.2249 23.9834 31.3132 24.1029 31.404 24.2206C31.8463 24.8413 31.7482 25.4964 31.6372 26.2186C31.6074 26.3765 31.576 26.5341 31.5433 26.6914C31.5254 26.7773 31.5076 26.8632 31.4893 26.9517C30.8095 30.0661 29.2053 33.194 26.6703 35.2113C26.5895 35.2783 26.5087 35.3454 26.4254 35.4144C26.1751 35.6198 25.9215 35.8194 25.6642 36.0161C25.5545 36.1001 25.5545 36.1001 25.4426 36.1859C25.3746 36.2336 25.3067 36.2813 25.2367 36.3305C25.1781 36.3722 25.1194 36.414 25.059 36.457C24.7389 36.5566 24.557 36.4532 24.2558 36.3179C24.021 36.156 23.803 35.9946 23.583 35.8149C23.5218 35.7656 23.4605 35.7163 23.3974 35.6656C22.4395 34.8876 21.5802 34.0869 20.8353 33.0986C20.762 33.0017 20.6887 32.9048 20.6132 32.805C19.1557 30.791 18.0676 28.347 17.8172 25.8551C17.8084 25.7704 17.7995 25.6857 17.7905 25.5984C17.7447 24.8224 17.9588 24.3922 18.4082 23.7739C18.5281 23.5999 18.6478 23.4258 18.7674 23.2516C18.8275 23.1658 18.8875 23.0799 18.9494 22.9914C19.2133 22.6081 19.459 22.2143 19.7035 21.8184C19.7455 21.7511 19.7875 21.6839 19.8307 21.6146C20.2943 20.8705 20.3457 20.2657 20.1642 19.3946C20.0686 19.053 19.9636 18.716 19.854 18.3786C19.8158 18.256 19.7776 18.1334 19.7382 18.007C19.6377 17.6848 19.5357 17.363 19.433 17.0414C19.2875 16.5857 19.1438 16.1295 19.0011 15.6729C18.9253 15.4305 18.8485 15.1885 18.7707 14.9467C18.7365 14.8378 18.7022 14.729 18.667 14.6168C18.6363 14.521 18.6057 14.4252 18.5742 14.3266C18.5214 14.0845 18.5214 14.0845 18.622 13.7827C18.8224 13.6162 19.0207 13.4624 19.2319 13.3111C19.289 13.2693 19.3461 13.2275 19.405 13.1844C19.5459 13.0813 19.6875 12.9792 19.8292 12.8773C19.6234 12.4113 19.305 12.0173 19.0051 11.6093C18.713 11.2071 18.4594 10.7978 18.2196 10.3622C18.3005 10.2978 18.3005 10.2978 18.383 10.2321C19.4985 9.34232 20.6042 8.44048 21.7073 7.53545C21.9519 7.33591 22.1981 7.13848 22.4449 6.94165Z" fill="black"/>
</g>
<defs>
<clipPath id="clip0_1_2544">
<rect width="50" height="50" fill="white"/>
</clipPath>
</defs>
</svg>
