<svg width="50" height="50" viewBox="0 0 50 50" fill="none" xmlns="http://www.w3.org/2000/svg">
<path d="M23.4162 0.942696C23.8056 1.23606 24.2167 1.55953 24.4381 2.0022C24.5024 2.0022 24.5667 2.0022 24.633 2.0022C24.735 1.89057 24.8315 1.77384 24.9252 1.65512C25.648 0.809651 26.7256 0.131889 27.8576 0.0364576C29.5532 -0.00984924 30.8919 0.235594 32.1956 1.40547C33.149 2.41474 33.5216 3.67648 33.6934 5.02238C33.8841 5.01559 33.8841 5.01559 34.0785 5.00867C35.7115 4.96771 36.9876 5.25388 38.2359 6.37415C39.1919 7.37778 39.6824 8.7475 39.6561 10.1205C39.6195 10.6024 39.5327 11.0757 39.4415 11.5499C39.6224 11.5769 39.6224 11.5769 39.8068 11.6047C41.0339 11.8825 42.0326 12.7466 42.6931 13.7906C43.4019 15.0552 43.5317 16.4899 43.1436 17.8825C43.1115 17.9468 43.0793 18.011 43.0462 18.0773C43.132 18.074 43.2177 18.0706 43.3061 18.067C43.4193 18.0644 43.5325 18.0618 43.6491 18.0591C43.7609 18.0557 43.8728 18.0523 43.9882 18.0488C44.3452 18.0802 44.517 18.1541 44.7999 18.3695C44.9955 18.6631 45.0198 18.7245 45.0261 19.054C45.028 19.1324 45.0299 19.2108 45.0318 19.2915C45.0331 19.418 45.0331 19.418 45.0343 19.547C45.0354 19.6342 45.0365 19.7213 45.0377 19.811C45.0395 19.9952 45.0408 20.1795 45.0416 20.3637C45.0434 20.6452 45.0494 20.9265 45.0556 21.2078C45.0569 21.3869 45.0579 21.5661 45.0586 21.7452C45.0623 21.8711 45.0623 21.8711 45.0659 21.9995C45.0653 22.0786 45.0648 22.1576 45.0642 22.239C45.0652 22.3425 45.0652 22.3425 45.0664 22.4481C44.9475 22.7939 44.726 22.9807 44.4102 23.1434C43.9924 23.2168 43.5793 23.2205 43.1558 23.2226C43.0423 23.225 42.9287 23.2275 42.8118 23.23C42.5327 23.2357 42.2537 23.2393 41.9745 23.2408C41.9552 23.4292 41.9552 23.4292 41.9356 23.6212C41.6297 26.604 41.3233 29.5866 41.0164 32.5691C40.9786 32.9365 40.9408 33.304 40.9031 33.6714C40.8955 33.7444 40.888 33.8176 40.8802 33.893C40.7585 35.076 40.6372 36.2591 40.5158 37.4422C40.3914 38.6568 40.2665 39.8715 40.1414 41.086C40.0641 41.835 39.9873 42.5841 39.9107 43.3331C39.8518 43.9083 39.7925 44.4834 39.7331 45.0585C39.7087 45.2939 39.6847 45.5292 39.6607 45.7645C39.628 46.0867 39.5945 46.4089 39.5611 46.731C39.5518 46.8234 39.5425 46.9158 39.533 47.011C39.3195 49.042 39.3195 49.042 38.7595 49.5456C38.1652 49.9689 37.6905 49.991 36.9726 49.9855C36.8619 49.9861 36.7512 49.9868 36.6373 49.9875C36.2669 49.9893 35.8966 49.9883 35.5262 49.9873C35.2606 49.9877 34.9949 49.9887 34.7292 49.9898C34.0827 49.9919 33.4362 49.9919 32.7898 49.9911C32.2642 49.9905 31.7386 49.9906 31.2131 49.9912C31.1382 49.9914 31.0634 49.9914 30.9862 49.9915C30.8342 49.9917 30.6822 49.9918 30.53 49.992C29.1045 49.9936 27.6791 49.9928 26.2536 49.9911C24.9501 49.9898 23.6466 49.9911 22.3431 49.994C21.0039 49.9968 19.6647 49.998 18.3256 49.9969C18.174 49.9969 18.0225 49.9968 17.8709 49.9967C17.7964 49.9967 17.7218 49.9966 17.645 49.9966C17.1202 49.9964 16.5956 49.9973 16.0708 49.9988C15.431 50.0005 14.7914 50.0005 14.1516 49.9982C13.8252 49.9972 13.4991 49.997 13.1727 49.9986C12.8187 50.0001 12.4648 49.9987 12.1108 49.9965C11.9568 49.9982 11.9568 49.9982 11.7997 50C11.1511 49.9918 10.706 49.8849 10.214 49.4482C9.80682 48.9855 9.73841 48.5452 9.66989 47.9539C9.65261 47.8198 9.65261 47.8198 9.63489 47.683C9.59852 47.3948 9.56489 47.1064 9.53205 46.8177C9.52136 46.7247 9.51068 46.6317 9.49954 46.5359C9.41966 45.8315 9.34716 45.1264 9.27523 44.4211C9.25125 44.1885 9.22716 43.956 9.20318 43.7234C9.13864 43.0988 9.07454 42.4741 9.01057 41.8494C8.95023 41.2607 8.88943 40.6719 8.82875 40.0833C8.70864 38.919 8.58886 37.7547 8.46932 36.5902C8.35341 35.4607 8.23727 34.3311 8.12091 33.2016C8.11375 33.1317 8.10659 33.0618 8.09909 32.9898C8.06307 32.6391 8.02693 32.2884 7.99079 31.9377C7.69216 29.0389 7.39408 26.1399 7.0964 23.2408C7.02568 23.2405 6.95495 23.24 6.88209 23.2397C6.55969 23.2364 6.23747 23.2295 5.91513 23.2226C5.80385 23.222 5.69258 23.2215 5.57794 23.2209C4.65193 23.1966 4.65193 23.1966 4.29466 22.9078C4.07574 22.6558 4.00309 22.568 4.00368 22.242C4.00185 22.1245 4.00185 22.1245 4 22.0045C4.0018 21.9213 4.00359 21.838 4.00544 21.752C4.00534 21.6652 4.00524 21.5784 4.00515 21.489C4.0056 21.3059 4.00749 21.1227 4.01072 20.9397C4.01532 20.66 4.01473 20.3806 4.01343 20.1008C4.01451 19.9226 4.0159 19.7443 4.01761 19.5661C4.01744 19.4827 4.01726 19.3994 4.01708 19.3136C4.02639 18.9207 4.04689 18.7098 4.25647 18.3678C4.605 18.0465 4.90612 18.0664 5.36101 18.0713C5.46689 18.0722 5.57275 18.073 5.68183 18.0739C5.76284 18.075 5.84384 18.0761 5.9273 18.0773C5.91323 18.0147 5.89917 17.9519 5.88467 17.8874C5.57767 16.393 5.6682 14.9063 6.51185 13.5958C7.29093 12.5917 8.12864 11.9544 9.33716 11.5499C9.43364 11.5499 9.53011 11.5499 9.62943 11.5499C9.61534 11.4767 9.60136 11.4036 9.58682 11.3284C9.28909 9.68648 9.46329 8.29273 10.4089 6.87345C11.1326 5.95942 12.2544 5.18055 13.429 5.02238C14.0783 4.99205 14.7281 5.00393 15.3775 5.02238C15.3956 4.88071 15.3956 4.88071 15.4141 4.73618C15.6252 3.29251 16.1433 1.95006 17.326 1.02795C19.184 -0.328031 21.5236 -0.328156 23.4162 0.942696Z" fill="#E2E1E1"/>
<path d="M23.4156 0.942696C23.8049 1.23606 24.216 1.55953 24.4374 2.0022C24.5017 2.0022 24.566 2.0022 24.6323 2.0022C24.7343 1.89057 24.8308 1.77384 24.9245 1.65512C25.6473 0.809651 26.7249 0.131889 27.8569 0.0364576C29.5525 -0.00984924 30.8912 0.235594 32.1949 1.40547C33.1483 2.41474 33.5209 3.67648 33.6927 5.02238C33.8834 5.01559 33.8834 5.01559 34.0778 5.00867C35.7108 4.9677 36.9869 5.25388 38.2352 6.37415C39.1912 7.37778 39.6817 8.7475 39.6554 10.1205C39.6189 10.6024 39.532 11.0757 39.4408 11.5499C39.6217 11.5769 39.6217 11.5769 39.8061 11.6047C41.0332 11.8825 42.0319 12.7466 42.6924 13.7906C43.3662 14.9928 43.5233 16.3661 43.2046 17.7067C43.1429 17.8825 43.1429 17.8825 42.9482 18.1748C42.6871 18.211 42.6871 18.211 42.3475 18.2107C42.2849 18.211 42.2224 18.2114 42.1579 18.2117C41.9462 18.2125 41.7345 18.2111 41.5229 18.2099C41.3704 18.21 41.2179 18.2102 41.0654 18.2107C40.6449 18.2113 40.2244 18.2101 39.8039 18.2086C39.3509 18.2074 38.8979 18.2078 38.4451 18.2081C37.6598 18.2082 36.8745 18.2073 36.0893 18.2057C34.954 18.2033 33.8186 18.2025 32.6833 18.2022C30.8415 18.2015 28.9996 18.1995 27.1577 18.1968C25.3682 18.1941 23.5786 18.192 21.789 18.1908C21.6787 18.1907 21.5685 18.1907 21.455 18.1906C20.9019 18.1902 20.3489 18.1898 19.7959 18.1894C15.2052 18.1865 10.6147 18.1813 6.02404 18.1748C5.50846 16.934 5.652 15.549 6.12108 14.3147C6.71284 13.0022 7.77829 12.1657 9.07965 11.6359C9.33647 11.5499 9.33647 11.5499 9.62874 11.5499C9.61465 11.4767 9.60067 11.4036 9.58613 11.3284C9.2884 9.68648 9.46261 8.29273 10.4082 6.87345C11.1319 5.95942 12.2537 5.18055 13.4283 5.02238C14.0776 4.99205 14.7274 5.00394 15.3768 5.02238C15.3949 4.88071 15.3949 4.88071 15.4134 4.73619C15.6245 3.29251 16.1426 1.95006 17.3253 1.02795C19.1833 -0.328031 21.5229 -0.328156 23.4156 0.942696Z" fill="#FDDAA5"/>
<path d="M20.6382 23.0468C23.2102 23.0468 25.7823 23.0468 28.4322 23.0468C28.2857 28.1617 28.0715 33.2729 27.855 38.3852C27.787 39.9878 27.7206 41.5905 27.6569 43.1933C27.6535 43.2799 27.6501 43.3664 27.6466 43.4556C27.6153 44.2411 27.5845 45.0267 27.554 45.8123C27.5458 46.0204 27.5376 46.2285 27.5294 46.4367C27.5199 46.6806 27.5105 46.9244 27.5011 47.1683C27.4647 48.0918 27.4118 49.0128 27.3605 49.9361C25.4958 49.9361 23.6311 49.9361 21.7099 49.9361C21.5551 46.4645 21.5551 46.4645 21.5048 45.3168C21.5014 45.2379 21.498 45.1592 21.4943 45.0781C21.365 42.1223 21.2427 39.1662 21.1207 36.2102C21.083 35.2948 21.045 34.3794 21.0067 33.4641C20.9764 32.7373 20.9464 32.0106 20.9164 31.2837C20.8988 30.8575 20.8811 30.4314 20.8633 30.0052C20.8599 29.9241 20.8565 29.8431 20.853 29.7595C20.8468 29.6125 20.8407 29.4654 20.8344 29.3184C20.747 27.2278 20.6932 25.1389 20.6382 23.0468Z" fill="#E41F2D"/>
<path d="M13.9165 23.0468C16.1026 23.0468 18.2889 23.0468 20.5414 23.0468C20.7606 23.8141 20.7606 23.8141 20.7712 24.1242C20.774 24.1951 20.7768 24.266 20.7798 24.3391C20.7831 24.4527 20.7831 24.4527 20.7864 24.5687C20.7909 24.6922 20.7909 24.6922 20.7956 24.8181C20.8057 25.0932 20.8145 25.3683 20.8233 25.6435C20.8304 25.8422 20.8375 26.0408 20.8447 26.2394C20.8601 26.6685 20.8751 27.0976 20.8897 27.5268C20.925 28.5676 20.963 29.6084 21.0008 30.6492C21.0097 30.8936 21.0185 31.1381 21.0273 31.3825C21.1309 34.259 21.2503 37.1348 21.3715 40.0106C21.3876 40.3922 21.4037 40.7736 21.4198 41.1552C21.4633 42.19 21.5068 43.2248 21.5507 44.2595C21.5633 44.5574 21.5757 44.8552 21.5881 45.1532C21.6051 45.5614 21.6229 45.9695 21.641 46.3776C21.6501 46.5875 21.6591 46.7973 21.6681 47.0072C21.6724 47.0992 21.6766 47.1914 21.681 47.2862C21.7184 48.1717 21.7105 49.0469 21.7105 49.9361C19.7172 49.9361 17.7238 49.9361 15.6701 49.9361C15.4457 47.355 15.4457 47.355 15.3813 46.3725C15.3735 46.2577 15.3659 46.143 15.358 46.0247C15.342 45.7837 15.3259 45.5428 15.3101 45.3018C15.2872 44.9528 15.2638 44.604 15.2403 44.2551C15.1417 42.7764 15.0526 41.2972 14.9668 39.8176C14.8208 37.3008 14.6595 34.7851 14.4906 32.2697C14.4531 31.7116 14.4159 31.1535 14.3789 30.5956C14.3496 30.1533 14.32 29.7111 14.2904 29.269C14.2766 29.0632 14.263 28.8575 14.2492 28.6517C14.2301 28.3639 14.2108 28.0761 14.1914 27.7883C14.1851 27.6959 14.1789 27.6035 14.1725 27.5083C14.1381 27.0078 14.1 26.5078 14.0581 26.0079C14.0491 25.9002 14.0401 25.7926 14.0309 25.6816C14.0137 25.4769 13.9959 25.2723 13.9778 25.0676C13.92 24.3864 13.9165 23.7364 13.9165 23.0468Z" fill="#F2EEF1"/>
<path d="M28.5301 23.0468C30.6841 23.0468 32.8382 23.0468 35.0576 23.0468C35.0576 26.0645 35.0576 26.0645 34.9715 27.1178C34.9573 27.3081 34.9432 27.4984 34.929 27.6887C34.9139 27.8889 34.8985 28.089 34.8828 28.2891C34.8311 28.95 34.7828 29.6111 34.734 30.2723C34.7164 30.5105 34.6987 30.7485 34.681 30.9867C34.5393 32.8944 34.4118 34.8032 34.2849 36.7119C34.266 36.9967 34.247 37.2816 34.228 37.5664C34.052 40.2112 33.8869 42.8565 33.736 45.5028C33.6891 46.3212 33.6379 47.1393 33.584 47.9573C33.5766 48.0714 33.5693 48.1854 33.5616 48.3031C33.5512 48.4579 33.5512 48.458 33.5406 48.616C33.5348 48.7027 33.529 48.7894 33.5231 48.8789C33.4921 49.2323 33.4453 49.5841 33.4013 49.9361C31.408 49.9361 29.4147 49.9361 27.361 49.9361C27.361 47.9087 27.361 47.9087 27.401 47.0009C27.4039 46.934 27.4069 46.8672 27.4098 46.7982C27.4128 46.729 27.4158 46.6597 27.4189 46.5883C27.4252 46.4377 27.4314 46.287 27.4377 46.1365C27.4511 45.8147 27.4646 45.4928 27.4783 45.171C27.5005 44.6527 27.5221 44.1343 27.5437 43.6159C27.5782 42.7859 27.6131 41.9559 27.6482 41.1259C27.7096 39.6716 27.7707 38.2173 27.8314 36.7628C27.8502 36.3128 27.869 35.8628 27.8879 35.4127C27.9691 33.4837 28.047 31.5548 28.1139 29.6252C28.1237 29.3456 28.1335 29.0659 28.1433 28.7862C28.1712 27.9918 28.1988 27.1975 28.2244 26.4031C28.2348 26.0826 28.246 25.7623 28.2572 25.4418C28.2622 25.2942 28.267 25.1465 28.2714 24.9987C28.2776 24.7968 28.2846 24.595 28.292 24.3932C28.2956 24.2807 28.2994 24.1681 28.3031 24.0522C28.3353 23.7289 28.3353 23.7289 28.5301 23.0468Z" fill="#F2EEF1"/>
<path d="M35.155 23.0468C37.3733 23.0468 39.5917 23.0468 41.8773 23.0468C41.9948 23.2819 41.9744 23.3868 41.9477 23.6461C41.9349 23.774 41.9349 23.774 41.9219 23.9044C41.9119 23.9986 41.9019 24.093 41.8916 24.19C41.8815 24.2897 41.8714 24.3893 41.8609 24.492C41.8266 24.8283 41.7915 25.1644 41.7564 25.5006C41.7317 25.7407 41.707 25.9809 41.6825 26.221C41.6223 26.8073 41.5617 27.3934 41.5007 27.9795C41.4298 28.6625 41.3593 29.3454 41.289 30.0285C41.1633 31.2481 41.037 32.4675 40.9106 33.6869C40.7878 34.869 40.6657 36.0511 40.544 37.2333C40.4115 38.5206 40.2786 39.8077 40.1454 41.0949C40.1311 41.2324 40.1169 41.3699 40.1027 41.5074C40.0923 41.6089 40.0923 41.6089 40.0815 41.7124C40.0323 42.1878 39.9833 42.6633 39.9343 43.1387C39.8683 43.7801 39.8018 44.4216 39.735 45.0629C39.7106 45.2979 39.6864 45.5329 39.6622 45.7681C39.6291 46.0898 39.5956 46.4115 39.5619 46.7332C39.5478 46.8716 39.5478 46.8716 39.5335 47.0128C39.3184 49.044 39.3184 49.044 38.7597 49.5465C38.1678 49.9682 37.7029 49.9887 36.9882 49.9742C36.8853 49.9736 36.7825 49.9732 36.6765 49.9726C36.3499 49.9703 36.0234 49.9654 35.6969 49.9606C35.4747 49.9585 35.2525 49.9568 35.0303 49.9552C34.4873 49.9509 33.9443 49.9444 33.4012 49.9361C33.45 48.6967 33.5082 47.4587 33.5947 46.2214C33.7087 44.582 33.8148 42.9426 33.9086 41.302C34.0509 38.8257 34.2095 36.3504 34.3753 33.8754C34.4039 33.4479 34.4323 33.0203 34.4606 32.5928C34.6706 29.409 34.906 26.228 35.155 23.0468Z" fill="#E3202E"/>
<path d="M7.19391 23.0468C9.41232 23.0468 11.6306 23.0468 13.9162 23.0468C14.1683 26.34 14.1683 26.34 14.2507 27.461C14.2565 27.5402 14.2624 27.6193 14.2683 27.7008C14.4333 29.9519 14.5843 32.2041 14.7345 34.4562C14.7561 34.7804 14.7778 35.1045 14.7996 35.4286C14.9696 37.967 15.1306 40.5057 15.276 43.0456C15.3812 44.8775 15.5043 46.7079 15.6333 48.5383C15.6658 49.0053 15.6746 49.4679 15.6699 49.9361C15.0182 49.9485 14.3665 49.957 13.7147 49.9629C13.4932 49.9653 13.2718 49.9687 13.0503 49.9729C12.731 49.9789 12.4119 49.9816 12.0925 49.9837C11.9943 49.9862 11.8961 49.9887 11.7948 49.9914C11.1605 49.9916 10.6844 49.8974 10.2141 49.4491C9.82755 48.9651 9.73982 48.5562 9.66936 47.9481C9.65789 47.8584 9.6463 47.7689 9.63436 47.6765C9.59834 47.3908 9.56482 47.1048 9.53209 46.8185C9.52164 46.7283 9.51118 46.6379 9.50039 46.545C9.42334 45.8739 9.35346 45.202 9.28425 44.53C9.2613 44.309 9.23811 44.0878 9.21505 43.8667C9.15311 43.2731 9.09164 42.6793 9.03027 42.0854C8.97891 41.5879 8.92721 41.0903 8.87561 40.5927C8.74675 39.3523 8.61846 38.1117 8.49039 36.8711C8.37948 35.7966 8.26777 34.7222 8.15596 33.6477C8.0405 32.5398 7.92561 31.4317 7.81107 30.3236C7.74698 29.7034 7.68277 29.0832 7.618 28.4629C7.55721 27.8806 7.49709 27.2982 7.43732 26.7157C7.41539 26.5027 7.39326 26.2897 7.3709 26.0767C7.34028 25.7848 7.31041 25.4928 7.28072 25.2009C7.27182 25.1177 7.26292 25.0345 7.25375 24.949C7.18954 24.3054 7.19391 23.703 7.19391 23.0468Z" fill="#E4202E"/>
<path d="M23.5185 9.08795C24.2605 9.53704 24.2605 9.53704 24.4379 9.8917C24.5022 9.8917 24.5666 9.8917 24.6328 9.8917C24.7051 9.81931 24.7775 9.74704 24.852 9.6725C25.3916 9.13284 25.8425 8.90375 26.5995 8.89306C27.3433 8.90045 27.9222 9.0234 28.4925 9.54386C29.0008 10.121 29.1757 10.6939 29.2118 11.4504C29.2849 11.4448 29.3579 11.4392 29.4333 11.4333C30.1896 11.4 30.7355 11.4875 31.3551 11.9376C31.9136 12.4558 32.3101 12.9082 32.3484 13.6901C32.3471 13.8306 32.3447 13.971 32.3416 14.1114C32.3407 14.1835 32.3397 14.2557 32.3388 14.33C32.3366 14.5068 32.333 14.6836 32.3293 14.8603C32.4438 14.8965 32.5584 14.9327 32.6764 14.97C33.4136 15.2526 33.8613 15.7174 34.1929 16.4317C34.3504 16.9506 34.43 17.6736 34.1804 18.1728C27.8146 18.1728 21.449 18.1728 14.8903 18.1728C14.6896 17.5709 14.6827 16.8557 14.9634 16.2791C15.0333 16.1615 15.1061 16.0456 15.1826 15.932C15.2388 15.8456 15.2951 15.7592 15.353 15.6702C15.7593 15.2527 16.2462 14.9159 16.8387 14.8603C16.8155 14.7778 16.8155 14.7778 16.7919 14.6936C16.6185 13.9292 16.7232 13.1925 17.131 12.5222C17.5777 12.0053 18.1016 11.5712 18.7872 11.4504C19.1461 11.43 19.5001 11.4326 19.859 11.4504C19.8629 11.3259 19.867 11.2012 19.8711 11.0729C19.949 10.4047 20.2482 9.84579 20.7643 9.41136C21.5624 8.86715 22.6079 8.64306 23.5185 9.08795Z" fill="#FDC165"/>
<path d="M39.3443 23.1445C40.2124 23.1445 41.0804 23.1445 41.9747 23.1445C41.6895 25.9293 41.4041 28.7142 41.1185 31.499C41.0919 31.7579 41.0653 32.0168 41.0388 32.2758C41.0322 32.3401 41.0255 32.4044 41.0188 32.4707C40.9194 33.4402 40.82 34.4098 40.7208 35.3793C40.6051 36.5084 40.4894 37.6375 40.3735 38.7666C40.3122 39.3628 40.2511 39.9591 40.1902 40.5553C40.0689 41.7394 39.9472 42.9234 39.8236 44.1073C39.7653 44.6656 39.7078 45.2238 39.6512 45.7823C39.6176 46.1119 39.583 46.4415 39.5481 46.771C39.5326 46.92 39.5174 47.069 39.5026 47.218C39.4826 47.4192 39.4612 47.6201 39.4395 47.8211C39.428 47.9319 39.4167 48.0427 39.4049 48.1568C39.2662 48.885 38.952 49.3651 38.3455 49.8021C38.0192 49.9658 37.7974 49.9699 37.4335 49.965C37.2512 49.9635 37.2512 49.9635 37.0652 49.962C36.9392 49.9596 36.8131 49.9571 36.6834 49.9546C36.5554 49.9534 36.4276 49.952 36.2958 49.9507C35.9804 49.9473 35.6652 49.9424 35.3499 49.9363C35.4997 49.8365 35.6502 49.7369 35.8061 49.6468C36.3274 49.3229 36.5294 48.9556 36.7138 48.3776C36.7799 47.997 36.8074 47.6183 36.8295 47.2328C36.8428 47.0365 36.8564 46.8401 36.8702 46.6437C36.8754 46.5579 36.8805 46.4723 36.8859 46.3838C36.9086 46.1368 36.9086 46.1368 36.9557 45.9066C37.0195 45.5815 37.0453 45.2592 37.0727 44.9288C37.0847 44.7862 37.0969 44.6435 37.1091 44.5008C37.1275 44.2792 37.1459 44.0576 37.1642 43.836C37.2249 43.1033 37.2891 42.3737 37.3912 41.6453C37.5197 40.7207 37.6017 39.7918 37.6883 38.8624C37.8567 37.056 38.0354 35.251 38.23 33.4473C38.4334 31.5598 38.6263 29.6713 38.8128 27.7821C38.8849 27.0523 38.958 26.3224 39.0312 25.5926C39.0488 25.4165 39.0664 25.2403 39.0841 25.0642C39.1076 24.8302 39.1314 24.5962 39.1555 24.3624C39.1669 24.2479 39.1669 24.2479 39.1785 24.1313C39.2136 23.7919 39.2612 23.4765 39.3443 23.1445Z" fill="#D3172E"/>
<path d="M27.9456 0.0545943C29.6029 -0.0160989 30.9223 0.263594 32.1958 1.40637C33.1493 2.41564 33.5219 3.67737 33.6937 5.02326C33.8843 5.01648 33.8843 5.01648 34.0788 5.00957C35.7117 4.96859 36.9878 5.25476 38.2361 6.37504C39.1922 7.37867 39.6826 8.74839 39.6564 10.1213C39.6197 10.6033 39.533 11.0766 39.4418 11.5508C39.6226 11.5778 39.6226 11.5778 39.8071 11.6055C41.0341 11.8834 42.0329 12.7475 42.6933 13.7916C43.4022 15.0561 43.532 16.4908 43.1439 17.8834C43.1118 17.9477 43.0796 18.012 43.0464 18.0783C42.3392 18.0783 41.6319 18.0783 40.9031 18.0783C40.9675 17.7567 41.0318 17.4352 41.098 17.104C41.207 16.0611 40.9786 15.1083 40.3186 14.2786C39.5587 13.3721 38.626 13.0567 37.4933 12.8173C37.3891 12.4235 37.4203 12.1432 37.4933 11.7455C37.5939 10.3293 37.4075 9.17191 36.4436 8.05828C36.0841 7.71072 35.7011 7.48023 35.2525 7.26404C35.1771 7.22386 35.1018 7.18366 35.0242 7.14226C34.1677 6.75199 33.2362 6.84414 32.3168 6.87922C32.1348 6.87434 32.1348 6.87434 32.0375 6.77691C32.0131 6.64011 31.9943 6.50234 31.9777 6.36438C31.7154 4.29306 31.2325 2.51607 29.5585 1.12284C29.0243 0.728469 28.4751 0.464208 27.8481 0.249447C27.8803 0.18514 27.9125 0.120844 27.9456 0.0545943Z" fill="#FECE85"/>
<path d="M27.6962 9.03152C28.4119 9.39572 28.8166 9.82527 29.1149 10.5721C29.1762 10.8703 29.1978 11.1434 29.2123 11.4489C29.2854 11.4432 29.3585 11.4377 29.4338 11.4319C30.1903 11.3984 30.7362 11.4859 31.3557 11.9361C31.9141 12.4542 32.3106 12.9066 32.3489 13.6886C32.3477 13.829 32.3454 13.9695 32.3421 14.1098C32.3412 14.182 32.3404 14.2541 32.3395 14.3284C32.3372 14.5053 32.3337 14.6821 32.3299 14.8588C32.4445 14.8949 32.559 14.9312 32.677 14.9684C33.4142 15.2511 33.862 15.7158 34.1936 16.4302C34.351 16.949 34.4306 17.6721 34.181 18.1713C33.6988 18.1713 33.2165 18.1713 32.7196 18.1713C32.7156 18.0286 32.7116 17.8859 32.7074 17.7389C32.6492 17.1531 32.4206 16.7599 32.0377 16.3202C31.6833 16.0386 31.3044 15.9441 30.8686 15.8331C30.7814 15.4692 30.7713 15.1523 30.7894 14.7797C30.7935 14.2292 30.712 13.8417 30.3814 13.3974C29.8119 12.8424 29.2707 12.7899 28.5053 12.7775C28.2381 12.7155 28.2381 12.7155 28.0615 12.5028C27.9403 12.2153 27.8941 11.9774 27.8605 11.6681C27.7454 10.9124 27.5047 10.3439 26.8985 9.8597C26.4948 9.58311 26.0619 9.38686 25.6075 9.20811C25.8902 8.64299 27.1878 8.8572 27.6962 9.03152Z" fill="#FDA615"/>
<path d="M35.0022 8.2339C35.8543 8.63446 36.3607 9.32901 36.7375 10.158C36.8689 10.7272 36.915 11.3092 36.6767 11.8508C36.4475 12.1151 36.3499 12.1284 35.9947 12.1613C35.6415 12.1308 35.6415 12.1308 35.4276 11.9699C35.2086 11.6848 35.2067 11.5247 35.2031 11.1688C35.1756 10.6664 35.1231 10.3653 34.7647 9.98753C34.2046 9.64378 33.7697 9.68401 33.1321 9.72299C32.8163 9.69526 32.8163 9.69526 32.5825 9.52128C32.3562 9.20821 32.3726 9.00037 32.4265 8.62356C32.9756 7.92809 34.2038 7.98015 35.0022 8.2339Z" fill="#FEC166"/>
<path d="M24.4021 12.6441C24.7995 12.937 24.7995 12.937 24.9258 13.2043C24.9154 13.7926 24.9154 13.7926 24.67 14.0564C24.2641 14.2707 23.8481 14.1408 23.4069 14.0842C22.9585 14.08 22.7376 14.2341 22.4171 14.5317C22.287 14.7789 22.2761 14.9205 22.2587 15.1955C22.2293 15.5454 22.1996 15.6375 21.9848 15.9383C21.7108 16.1271 21.7108 16.1271 21.4185 16.188C21.0036 16.1015 20.8751 15.994 20.6391 15.6399C20.4846 14.865 20.7018 14.2399 21.1262 13.594C21.9404 12.6037 23.1729 12.2203 24.4021 12.6441Z" fill="#FEDAA4"/>
</svg>
