<svg width="50" height="50" viewBox="0 0 50 50" fill="none" xmlns="http://www.w3.org/2000/svg">
<g clip-path="url(#clip0_1_2767)">
<path d="M10.0765 4.91473C11.265 4.06467 12.2246 3.4303 13.5459 2.75069C18.3483 0.305755 23.8065 -0.540038 29.1237 0.336811C35.7174 1.44241 41.5956 5.1384 45.4493 10.6019C46.358 11.899 47.144 13.2778 47.7975 14.7205C47.9612 15.078 48.0995 15.4399 48.2487 15.8025C48.2996 15.9258 48.397 16.1964 48.4542 16.3051C48.4295 16.4786 48.4422 16.5481 48.4604 16.7222C48.523 17.1097 48.5374 18.1861 48.5235 18.5891C48.5286 19.3434 48.4747 21.4018 48.1939 22.0743C48.3231 22.1739 48.5905 22.3877 48.6882 22.5112C47.5999 24.2046 46.3058 25.5497 44.245 26.0562C44.1097 26.0894 43.8944 26.1264 43.7574 26.1203L43.7594 25.8122C43.4648 25.4998 43.0924 25.1255 42.822 24.8011C42.6009 24.5669 42.3317 24.3326 42.099 24.1062C40.9049 22.9442 39.7785 22.1619 38.3392 21.344C38.1259 21.2684 37.6041 21.0031 37.3753 20.8944C37.2941 20.9599 37.208 21.019 37.1229 21.0793C34.7107 22.7709 32.3212 24.6567 30.5014 26.9905C30.3857 26.9077 28.6459 26.3485 28.3726 26.2566L22.0552 24.1222L19.7891 23.3553C19.5203 23.2651 18.9204 23.0459 18.6721 23.0003C18.0613 20.136 17.7293 16.3796 16.3689 13.7961C16.2336 13.5996 16.1758 13.4899 16.0161 13.3008C15.6718 13.199 15.0976 13.1296 14.7327 13.102C12.2868 12.9174 9.67762 13.5579 7.43971 14.5077C7.22768 14.6038 7.01375 14.6957 6.798 14.7832C6.76684 14.6058 6.75533 14.4238 6.73811 14.2442C6.61104 12.9193 6.53479 11.5618 6.74418 10.2418C6.76884 10.0862 6.91681 9.45047 6.8852 9.35674C6.56471 9.4762 5.16477 10.0149 4.92664 10.0518C5.94652 8.51664 8.55746 5.95571 10.0765 4.91473Z" fill="#E4E4E5"/>
<path d="M24.7381 6.97321C25.3444 6.97958 26.0182 7.06753 26.6164 7.16834C28.957 7.5628 31.2355 8.42371 33.296 9.59465C33.5963 9.76523 34.5167 10.2726 34.7207 10.5067C34.7325 10.6638 35.0388 11.1847 35.1232 11.3549C36.5518 14.2342 37.2097 17.4588 37.0734 20.6674C37.0673 20.8096 37.0519 20.9511 37.1221 21.077C34.71 22.7687 32.3206 24.6545 30.5008 26.9884C30.3851 26.9054 28.6453 26.3464 28.3719 26.2544L22.0544 24.12L19.7884 23.353C19.5195 23.2628 18.9198 23.0436 18.6715 22.998C18.0606 20.1338 17.7286 16.3775 16.3682 13.7939C16.5007 13.7072 16.9987 13.095 17.1322 12.9402C17.4043 12.6254 17.6826 12.3159 17.9669 12.012C19.6295 10.2364 21.4383 8.6283 23.5942 7.47972C23.8977 7.31804 24.41 7.0181 24.7381 6.97321Z" fill="#E4E4E5"/>
<path d="M39.7906 7.04846C40.1449 7.28809 40.5457 7.50078 40.911 7.73042C44.201 9.79888 46.6332 12.927 48.2438 16.4304C48.3021 16.5575 48.3319 16.6538 48.4598 16.7233C48.5225 17.1109 48.5369 18.1873 48.523 18.5904C48.5282 19.3447 48.4743 21.4031 48.1934 22.0755C48.3226 22.1752 48.5901 22.3888 48.6876 22.5125C47.5993 24.2058 46.3053 25.5509 44.2445 26.0574C44.1092 26.0907 43.894 26.1276 43.7569 26.1215L43.7588 25.8134C43.4643 25.5011 43.0919 25.1267 42.8215 24.8023C42.6004 24.5682 42.3312 24.3339 42.0986 24.1074C40.9043 22.9454 39.7779 22.1631 38.3388 21.3453C38.1254 21.2697 37.6036 21.0043 37.3749 20.8956C37.2936 20.961 37.2074 21.0202 37.1223 21.0805C37.0521 20.9545 37.0675 20.813 37.0736 20.6708C37.2099 17.4622 36.552 14.2377 35.1234 11.3582C35.039 11.1882 34.7327 10.6672 34.7209 10.5101C34.8533 10.4538 35.1034 10.2739 35.2296 10.1882C35.5646 9.92775 36.1913 9.52799 36.567 9.27172L39.226 7.45673C39.3592 7.36291 39.6937 7.14452 39.7906 7.04846Z" fill="#E4E4E5"/>
<path d="M39.7906 7.04846C40.1449 7.28809 40.5457 7.50078 40.911 7.73042C44.201 9.79888 46.6332 12.927 48.2438 16.4304C48.3021 16.5575 48.3319 16.6538 48.4598 16.7233C48.5225 17.1109 48.5369 18.1872 48.523 18.5904C48.4873 18.3157 48.4307 18.2531 48.3223 18.0053C46.86 14.6606 44.8708 11.6902 42.0142 9.35548C41.435 8.88534 40.829 8.44965 40.199 8.05058C39.9262 7.87513 39.4435 7.67488 39.226 7.45673C39.3592 7.36291 39.6937 7.14452 39.7906 7.04846Z" fill="#ADADAD"/>
<path d="M34.7209 10.505C34.8533 10.4487 35.1034 10.2688 35.2296 10.1831C35.5268 10.7464 35.7859 11.2206 36.0473 11.8079C37.0765 14.1381 37.6469 16.6446 37.7273 19.1906C37.7459 19.7389 37.7171 20.2299 37.711 20.7703C37.8646 20.8895 38.3253 21.1637 38.3388 21.3402C38.1254 21.2646 37.6036 20.9991 37.3749 20.8905C37.2936 20.9559 37.2074 21.015 37.1223 21.0754C37.0521 20.9494 37.0675 20.8079 37.0736 20.6657C37.2099 17.4571 36.552 14.2326 35.1234 11.3531C35.039 11.1831 34.7327 10.6621 34.7209 10.505Z" fill="#ADADAD"/>
<path d="M48.1928 22.0752C48.322 22.1748 48.5894 22.3885 48.6869 22.5121C47.5987 24.2055 46.3047 25.5506 44.2438 26.057C44.1086 26.0903 43.8933 26.1273 43.7562 26.1212L43.7583 25.8131C43.4636 25.5007 43.0912 25.1264 42.8209 24.8019C42.8321 24.7999 42.8434 24.797 42.8549 24.7957C43.0146 24.7763 43.6633 25.3617 43.8196 25.4917C44.1069 25.4326 44.3544 25.3742 44.6338 25.2768C45.8589 24.8508 46.8608 23.9561 47.6332 22.9348C47.8382 22.6637 48.043 22.3805 48.1928 22.0752Z" fill="#ADADAD"/>
<path d="M23.4476 1.83058C24.2181 1.57621 24.8431 1.3664 25.6417 1.20819C28.6707 0.629144 31.806 1.07305 34.555 2.47012C36.2159 3.30181 37.6921 4.45912 38.8966 5.87313C39.2402 6.27958 39.4814 6.65937 39.7909 7.04504C39.694 7.14109 39.3595 7.35948 39.2262 7.4533L36.5672 9.26833C36.1916 9.5246 35.5648 9.92436 35.2299 10.1848C35.1036 10.2705 34.8536 10.4504 34.7212 10.5067C34.5172 10.2725 33.5967 9.76522 33.2965 9.59464C31.2359 8.42371 28.9574 7.56282 26.6169 7.16835C26.0187 7.06754 25.3449 6.97959 24.7386 6.97322C24.6965 6.95972 24.6493 6.96009 24.6391 6.92097C24.1946 5.25531 23.9013 3.48751 23.4476 1.83058Z" fill="#343942"/>
<path d="M10.0757 4.91473C11.2643 4.06467 12.224 3.4303 13.5452 2.75069C18.3476 0.305755 23.8058 -0.540038 29.1231 0.336811C35.7167 1.44241 41.5948 5.1384 45.4485 10.6019C46.3572 11.899 47.1433 13.2778 47.7969 14.7205C47.9605 15.078 48.0988 15.4399 48.248 15.8025C48.2989 15.9258 48.3962 16.1964 48.4536 16.3051C48.4289 16.4786 48.4415 16.5481 48.4596 16.7222C48.3317 16.6527 48.3018 16.5562 48.2435 16.4292C46.6329 12.9258 44.2007 9.79764 40.9108 7.72919C40.5455 7.49955 40.1447 7.28686 39.7904 7.04723C39.4809 6.66156 39.2396 6.28178 38.8962 5.87533C37.6917 4.46132 36.2153 3.30401 34.5545 2.47231C31.8055 1.07525 28.6701 0.631342 25.6412 1.21038C24.8426 1.3686 24.2176 1.57841 23.4471 1.83278C23.9009 3.48971 24.194 5.2575 24.6386 6.92316C24.6489 6.96228 24.696 6.96192 24.7381 6.97542C24.4101 7.02031 23.8976 7.32025 23.5942 7.48193C21.4382 8.63044 19.6294 10.2385 17.9668 12.0142C17.6826 12.3181 17.4043 12.6276 17.1321 12.9424C16.9987 13.0971 16.5006 13.7093 16.3681 13.7961C16.2328 13.5996 16.175 13.4899 16.0154 13.3008C16.0927 13.1955 16.1924 13.0875 16.2777 12.9867C18.2322 10.678 20.4324 8.48514 23.104 7.01729C23.4736 6.81419 23.9196 6.56613 24.3159 6.4317C24.2125 6.2315 24.051 5.51502 23.9889 5.26198L23.49 3.21113C23.2265 2.09401 23.3011 2.2804 22.1572 2.0687C18.6934 1.42769 15.1404 2.27101 12.1622 4.09711C11.4848 4.5125 10.9371 4.97607 10.2984 5.41515C10.2313 5.25824 10.1682 5.04511 10.0757 4.91473Z" fill="url(#paint0_linear_1_2767)"/>
<path d="M10.0765 4.91443C10.1688 5.04481 10.232 5.25793 10.2991 5.41483C10.0216 5.82225 7.96219 8.89485 7.75078 9.05568C7.48588 9.13128 7.15093 9.26071 6.8852 9.35638C6.56471 9.47595 5.16477 10.0146 4.92664 10.0515C5.94652 8.51628 8.55746 5.9554 10.0765 4.91443Z" fill="#343942"/>
<path d="M6.88388 9.35477C7.14961 9.25911 7.48456 9.12968 7.74945 9.05408L7.74229 9.07561C7.7126 9.16232 7.69064 9.18567 7.66701 9.24336C7.15419 10.4945 7.22618 12.2181 7.31035 13.5478C7.32572 13.7908 7.35801 14.2997 7.41089 14.484L7.43838 14.5057C7.22637 14.6018 7.01242 14.6938 6.79667 14.7813C6.7655 14.604 6.75401 14.422 6.73678 14.2422C6.60971 12.9173 6.53347 11.5598 6.74285 10.2399C6.76751 10.0842 6.91549 9.44862 6.88388 9.35477Z" fill="#ADADAD"/>
<path d="M18.6726 23.0005C18.9209 23.0461 19.5206 23.2653 19.7894 23.3555L22.0556 24.1225L28.3731 26.2568C28.6463 26.3487 30.3861 26.9078 30.5018 26.9908C30.4406 27.0821 30.3891 27.1613 30.3194 27.2472C30.403 27.5361 30.4448 27.8621 30.5018 28.1598C31.0076 30.7943 31.1774 33.5013 31.8647 36.0984C31.9275 36.336 32.0168 36.6095 32.1067 36.8371L32.3973 36.8852L32.3439 36.9858C32.1893 37.2725 31.848 37.6807 31.6396 37.9488C30.0358 40.0116 28.1005 41.8693 25.8173 43.1631C25.4865 43.3505 24.8986 43.6875 24.5389 43.7863C24.4992 43.6647 24.3947 43.269 24.329 43.1969C24.2477 43.2287 24.043 43.2844 23.9552 43.2867C20.2977 43.3801 16.9781 42.1857 14.1314 39.938C12.46 37.6665 11.8974 35.3429 11.6101 32.5521C11.5523 31.9912 11.475 31.0826 11.5046 30.5372C11.7362 30.3194 12.0089 30.0234 12.2408 29.7903C12.6739 29.3547 13.1136 28.9258 13.5596 28.5035C14.8278 27.2958 16.134 26.1322 17.43 24.955C17.8991 24.5287 18.3271 24.0762 18.7858 23.6519C18.77 23.4837 18.7045 23.1765 18.6726 23.0005Z" fill="#E4E4E5"/>
<path d="M18.6715 23.0005C18.9198 23.0461 19.5196 23.2653 19.7885 23.3555L22.0545 24.1225L28.372 26.2568C28.6453 26.3487 30.3851 26.9078 30.5008 26.9908C30.4397 27.0821 30.388 27.1613 30.3183 27.2472C30.402 27.5361 30.4439 27.8621 30.5008 28.1598C31.0065 30.7943 31.1763 33.5013 31.8636 36.0984C31.9265 36.336 32.0158 36.6095 32.1056 36.8371L32.3962 36.8852L32.343 36.9858C32.1884 37.2725 31.847 37.6807 31.6385 37.9488C30.0347 40.0116 28.0994 41.8693 25.8163 43.1631C25.4855 43.3505 24.8975 43.6875 24.5379 43.7863C24.4982 43.6647 24.3938 43.269 24.3281 43.1969C27.4127 41.782 29.787 39.4697 31.7555 36.7385C31.6212 35.8655 31.424 34.9277 31.2628 34.0516C30.8485 31.8614 30.4503 29.6682 30.0681 27.4721C29.0167 27.1329 27.9689 26.7828 26.9249 26.4217L22.3248 24.8707L20.0768 24.1126C19.7865 24.0156 19.0318 23.7776 18.7849 23.6519C18.7691 23.4837 18.7035 23.1765 18.6715 23.0005Z" fill="#ADADAD"/>
<path d="M7.4394 14.5071C9.67733 13.5574 12.2865 12.9169 14.7324 13.1016C15.0972 13.1291 15.6715 13.1986 16.0158 13.3003C16.1755 13.4894 16.2332 13.599 16.3686 13.7956C17.7289 16.3792 18.061 20.1355 18.6718 22.9997C18.7038 23.1758 18.7694 23.4829 18.7851 23.6511C18.3265 24.0755 17.8985 24.5279 17.4294 24.9542C16.1333 26.1315 14.827 27.2952 13.5588 28.5028C13.1128 28.925 12.6732 29.354 12.2401 29.7895C12.0082 30.0226 11.7355 30.3187 11.5038 30.5364C11.3947 30.5191 10.9875 30.3647 10.8636 30.3199C8.27246 29.0981 6.55342 27.106 4.80134 24.9055L4.60669 24.6451L4.61002 24.3485C4.77331 20.5876 5.24705 18.2566 6.7977 14.7827C7.01344 14.6952 7.22738 14.6034 7.4394 14.5071Z" fill="#343942"/>
<path d="M40.9647 35.717C41.017 35.627 41.0662 35.5222 41.1131 35.4283C41.2504 35.534 41.4009 35.8266 41.4885 35.9868C42.0716 37.0619 42.4532 38.2344 42.6147 39.4465C42.6575 39.7738 42.6722 40.0253 42.6876 40.3473C42.6957 40.5122 42.6979 41.1845 42.7283 41.2746C43.0372 41.1517 44.1832 40.6521 44.4284 40.6276C44.3049 40.7921 44.1683 40.9479 44.0348 41.1019C43.1441 42.1273 42.1714 43.094 41.1384 43.9756C40.9874 44.1046 40.8646 44.3016 40.73 44.4471C40.562 44.6414 40.3146 44.785 40.0902 44.9064C39.5224 45.2337 38.954 45.6468 38.3878 45.9851C38.2793 46.0499 37.8985 46.3005 37.8075 46.3308C37.2585 46.6756 36.6212 47.01 36.0409 47.2983C32.6165 48.9872 28.8501 49.8667 25.032 49.8694C24.2753 49.8726 22.9005 49.8273 22.1564 49.6646L22.0829 49.5797C22.1143 49.5269 22.2158 49.5301 22.2985 49.5147C23.6296 49.2666 24.6652 48.9769 25.9036 48.4734L26.1465 48.3018C26.0859 48.1866 26.0344 48.0435 25.986 47.9206C25.486 46.586 25.0064 45.1396 24.5383 43.7853C24.8981 43.6865 25.486 43.3495 25.8167 43.1622C28.1 41.8684 30.0353 40.0106 31.639 37.9479C31.8475 37.6797 32.1888 37.2716 32.3434 36.9848L32.3968 36.8843C35.0394 37.4402 37.8024 36.9347 40.3018 36.0258C40.537 35.9245 40.7396 35.8408 40.9647 35.717Z" fill="#E4E4E5"/>
<path d="M40.9647 35.717C41.017 35.627 41.0662 35.5222 41.1131 35.4283C41.2504 35.534 41.4009 35.8266 41.4885 35.9868C42.0716 37.0619 42.4532 38.2344 42.6147 39.4465C42.6575 39.7738 42.6722 40.0253 42.6876 40.3473C42.6957 40.5122 42.6979 41.1845 42.7283 41.2746C43.0372 41.1517 44.1832 40.6521 44.4284 40.6276C44.3049 40.7921 44.1683 40.9479 44.0348 41.1019C43.1441 42.1273 42.1714 43.094 41.1384 43.9756C40.9874 44.1046 40.8646 44.3016 40.73 44.4471C40.562 44.6414 40.3146 44.785 40.0902 44.9064C39.5224 45.2337 38.954 45.6468 38.3878 45.9851C38.2793 46.0499 37.8985 46.3005 37.8075 46.3308C37.2585 46.6756 36.6212 47.01 36.0409 47.2983C32.6165 48.9872 28.8501 49.8667 25.032 49.8694C24.2753 49.8726 22.9005 49.8273 22.1564 49.6646L22.0829 49.5797C22.1143 49.5269 22.2158 49.5301 22.2985 49.5147C23.6296 49.2666 24.6652 48.9769 25.9036 48.4734L26.1465 48.3018C26.0859 48.1866 26.0344 48.0435 25.986 47.9206C26.3212 47.8923 26.6605 47.9487 26.9935 47.9534C27.4555 47.9598 27.9417 47.966 28.4028 47.9532C30.8857 47.8925 33.3384 47.3961 35.6494 46.4864C36.9354 45.9851 38.2276 45.318 39.3888 44.5739C39.5931 44.443 40.0968 44.1484 40.2383 43.9801C40.5987 43.5507 40.9125 42.9821 41.2468 42.5138C41.4951 42.1277 41.7899 41.7571 42.0087 41.3538C42.052 41.2258 42.0659 41.0212 42.065 40.8892C42.0545 39.5648 41.8032 38.2498 41.2634 37.0372C41.1135 36.7001 40.929 36.3928 40.7814 36.063C40.5979 36.0703 40.4749 36.0871 40.3018 36.0258C40.537 35.9245 40.7396 35.8408 40.9647 35.717Z" fill="#ADADAD"/>
<path d="M25.9036 48.4743C26.1516 48.5729 26.9025 48.5737 27.2006 48.5822C30.0409 48.6683 32.8711 48.2023 35.5341 47.2102C36.2548 46.9366 36.9392 46.6413 37.6402 46.3227C37.7057 46.2929 37.7463 46.309 37.8075 46.3318C37.2585 46.6766 36.6212 47.011 36.0409 47.2992C32.6165 48.9881 28.8501 49.8677 25.032 49.8704C24.2753 49.8736 22.9005 49.8283 22.1564 49.6656L22.0829 49.5807C22.1143 49.5278 22.2158 49.5311 22.2985 49.5157C23.6296 49.2676 24.6652 48.9779 25.9036 48.4743Z" fill="#E4E4E5"/>
<path d="M42.7283 41.273C43.0373 41.1501 44.1833 40.6505 44.4285 40.6262C44.305 40.7905 44.1684 40.9464 44.0349 41.1003C43.1442 42.1257 42.1714 43.0924 41.1385 43.9741C40.9875 44.103 40.8647 44.3 40.7301 44.4456C40.5621 44.6398 40.3146 44.7834 40.0903 44.9048C40.1273 44.7505 40.4742 44.2648 40.5813 44.1055L41.4834 42.7649C41.7687 42.3405 42.0768 41.8541 42.3821 41.4436C42.4301 41.379 42.6419 41.3063 42.7283 41.273Z" fill="#343942"/>
<path d="M37.3743 20.893C37.6031 21.0016 38.1249 21.2669 38.3383 21.3426C39.7774 22.1605 40.9038 22.9428 42.0981 24.1047C42.3307 24.3311 42.5999 24.5655 42.821 24.7996C43.0914 25.1241 43.4637 25.4983 43.7583 25.8108L43.7564 26.1189C43.6059 29.2334 42.513 32.3194 41.2408 35.1394C41.1977 35.2351 41.1532 35.331 41.1122 35.4277C41.0653 35.5215 41.0161 35.6262 40.9638 35.7163C40.7387 35.8401 40.5361 35.9238 40.3009 36.0251C37.8015 36.934 35.0385 37.4395 32.3959 36.8837L32.1052 36.8354C32.0154 36.6079 31.9261 36.3343 31.8632 36.0967C31.176 33.4996 31.0062 30.7926 30.5005 28.1581C30.4435 27.8604 30.4015 27.5345 30.3179 27.2455C30.3876 27.1597 30.4393 27.0804 30.5005 26.9891C32.3203 24.6553 34.7097 22.7695 37.1218 21.0779C37.2069 21.0175 37.2931 20.9584 37.3743 20.893Z" fill="#343942"/>
<path d="M4.80154 24.9044C6.55362 27.1048 8.27258 29.0969 10.8637 30.3187C10.9877 30.3635 11.3949 30.5179 11.5041 30.5353C11.4744 31.0806 11.5518 31.9893 11.6096 32.5501C11.8969 35.341 12.4596 37.6645 14.1309 39.936C13.9587 40.0589 13.7807 40.2458 13.6363 40.3436C12.6598 41.222 11.53 42.2738 10.5348 43.1081C10.4329 43.2063 10.3344 43.3031 10.2271 43.3956C10.2615 43.4956 10.292 43.5835 10.3201 43.6863C9.77641 43.6063 8.42696 42.9122 7.91354 42.6364C7.69155 42.517 7.15018 42.1835 6.96157 42.1693C6.65086 41.9514 5.80484 40.9445 5.55651 40.6106C3.80245 38.3212 2.36812 35.9887 1.43427 33.241C1.32218 32.9112 1.22072 32.5716 1.08975 32.2502C1.01735 32.1039 0.878903 31.5477 0.831175 31.3747C0.43747 29.9476 0.255714 28.6129 0.0932041 27.1554C0.0553931 26.8575 0.0410327 26.6204 0.036499 26.3219C0.0756474 26.5299 0.0870157 26.4655 0.185011 26.6284C0.451127 26.9497 0.712562 27.2749 0.969237 27.6039C1.10754 27.7742 1.27289 27.968 1.39879 28.1447C1.46274 28.0784 1.57569 27.8548 1.62438 27.7666C2.38937 26.3823 3.3475 25.5054 4.80154 24.9044Z" fill="#E4E4E5"/>
<path d="M10.8633 30.319C10.9872 30.3638 11.3944 30.5182 11.5036 30.5355C11.474 31.0809 11.5514 31.9896 11.6091 32.5504C11.8965 35.3412 12.4592 37.6648 14.1304 39.9363C13.9582 40.0591 13.7802 40.2461 13.6358 40.3439C13.2987 39.9591 12.8465 39.2089 12.6112 38.7553C11.4887 36.5915 11.0316 34.1321 10.8819 31.7185C10.8655 31.4528 10.7921 30.5412 10.8633 30.319Z" fill="#ADADAD"/>
<path d="M0.036499 26.3211C0.0756474 26.529 0.0870157 26.4647 0.185011 26.6276C0.451127 26.9489 0.712562 27.274 0.969237 27.6031C1.10754 27.7734 1.27289 27.9672 1.39879 28.1438C1.48969 28.7888 1.41634 31.7257 1.08975 32.2492C1.01735 32.103 0.878903 31.5469 0.831175 31.3739C0.43747 29.9467 0.255714 28.6121 0.0932041 27.1546C0.0553931 26.8566 0.0410327 26.6195 0.036499 26.3211Z" fill="#343942"/>
<path d="M0.036499 26.3211C0.0756474 26.529 0.0870157 26.4647 0.185011 26.6276C0.0896112 26.7213 0.197547 26.9483 0.0932041 27.1546C0.0553931 26.8566 0.0410327 26.6195 0.036499 26.3211Z" fill="#373B4E"/>
<path d="M5.5564 40.6082C5.60961 40.6 5.64785 40.592 5.69809 40.5729C6.00688 40.7178 6.5586 41.0884 6.87267 41.2846C7.44409 41.6438 8.0288 41.9814 8.62543 42.2965C9.00218 42.4906 9.38834 42.6656 9.78265 42.8206C9.89021 42.8624 10.4782 43.0704 10.5347 43.1057C10.4328 43.2038 10.3343 43.3006 10.227 43.3931C10.2614 43.4932 10.2919 43.581 10.32 43.6838C9.77631 43.6038 8.42685 42.9097 7.91343 42.6339C7.69144 42.5146 7.15008 42.181 6.96146 42.1669C6.65076 41.9489 5.80474 40.9421 5.5564 40.6082Z" fill="#ADADAD"/>
<path d="M13.6358 40.343C13.7802 40.2452 13.9582 40.0582 14.1304 39.9354C16.9771 42.1831 20.2966 43.3776 23.9541 43.2841C24.0419 43.282 24.2466 43.2261 24.328 43.1943C24.3938 43.2665 24.4983 43.6621 24.5378 43.7837C25.0059 45.1379 25.4855 46.5844 25.9855 47.919C26.0339 48.0419 26.0854 48.185 26.146 48.3003L25.903 48.4718C24.6645 48.9753 23.629 49.265 22.2979 49.5131C22.2153 49.5285 22.1138 49.5253 22.0824 49.5781L22.1559 49.663C22.1264 49.6454 22.0593 49.607 22.028 49.6072C21.476 49.6117 20.9579 49.5534 20.4138 49.4509C18.1913 49.0413 16.0349 48.331 14.0043 47.3395C13.6607 47.1679 13.2824 47.0099 12.9825 46.7745C10.9203 45.7427 8.52767 43.8606 6.96106 42.1687C7.14967 42.1829 7.69104 42.5163 7.91303 42.6358C8.42646 42.9114 9.77591 43.6057 10.3196 43.6856C10.2914 43.5829 10.261 43.495 10.2266 43.395C10.3339 43.3025 10.4324 43.2056 10.5343 43.1075C11.5295 42.2732 12.6593 41.2214 13.6358 40.343Z" fill="#343942"/>
<path d="M6.96106 42.1668C7.14967 42.181 7.69104 42.5145 7.91303 42.6339C8.42646 42.9097 9.77591 43.6038 10.3196 43.6838L12.0726 45.6776C12.287 45.9222 12.8383 46.5263 12.9825 46.7727C10.9203 45.7409 8.52767 43.8587 6.96106 42.1668Z" fill="#E4E4E5"/>
<path d="M48.6879 22.509C48.9308 22.92 49.7898 24.8874 49.9954 25.104C49.912 25.4835 49.9731 26.1282 49.9433 26.5323C49.9066 27.027 49.8648 27.5082 49.8052 28.0015C49.4293 31.0644 48.4816 34.0296 47.0115 36.7429C46.5125 37.6697 45.9531 38.5627 45.337 39.4164C45.1579 39.6652 44.9731 39.9101 44.7831 40.1509C44.6806 40.2815 44.4965 40.4906 44.4283 40.6262C44.1831 40.6507 43.0371 41.1503 42.7282 41.2732C42.6978 41.1831 42.6955 40.5107 42.6875 40.3458C42.6721 40.0239 42.6574 39.7723 42.6146 39.445C42.4531 38.2329 42.0715 37.0605 41.4884 35.9854C41.4008 35.8251 41.2503 35.5325 41.113 35.4269C41.154 35.3302 41.1985 35.2343 41.2416 35.1386C42.5138 32.3187 43.6067 29.2327 43.7572 26.1181C43.8942 26.1242 44.1095 26.0872 44.2448 26.054C46.3056 25.5475 47.5996 24.2024 48.6879 22.509Z" fill="#E4E4E5"/>
<path d="M6.88433 9.35516C6.91594 9.44901 6.76796 10.0846 6.7433 10.2403C6.53392 11.5602 6.61016 12.9177 6.73724 14.2426C6.75447 14.4224 6.76596 14.6044 6.79713 14.7816C5.24649 18.2556 4.77275 20.5866 4.60947 24.3475L4.60613 24.6441L4.80079 24.9045C3.34674 25.5056 2.38861 26.3824 1.62363 27.7668C1.57492 27.8549 1.46199 28.0785 1.39804 28.1448C1.27213 27.9681 1.10679 27.7744 0.968487 27.604C0.711801 27.275 0.450366 26.9498 0.18425 26.6286C0.0862654 26.4656 0.0748971 26.53 0.0357374 26.322C-0.00644853 25.4522 -0.0197887 24.0466 0.0432182 23.1481C0.382417 18.4046 2.07714 13.8584 4.92576 10.0503C5.1639 10.0133 6.56385 9.47474 6.88433 9.35516Z" fill="#E4E4E5"/>
<path d="M0.968506 27.6074C1.02759 27.535 1.10644 27.4114 1.15331 27.3282C1.82077 26.1406 2.8225 25.1137 4.06428 24.5317C4.22037 24.4585 4.43888 24.3641 4.60949 24.3508L4.60617 24.6474L4.80082 24.9078C3.34678 25.5088 2.38864 26.3858 1.62366 27.7701C1.57495 27.8582 1.46202 28.0818 1.39807 28.1481C1.27216 27.9714 1.10682 27.7777 0.968506 27.6074Z" fill="#ADADAD"/>
<path d="M48.4539 16.3062C49.3491 18.7295 49.8583 21.2783 49.9628 23.8596C49.9746 24.1546 50.0132 24.8282 49.9953 25.1073C49.7898 24.8909 48.9308 22.9234 48.6879 22.5124C48.5902 22.3888 48.3228 22.1751 48.1936 22.0754C48.4745 21.403 48.5283 19.3446 48.5232 18.5903C48.5371 18.1872 48.5226 17.1108 48.4601 16.7233C48.4419 16.5493 48.4292 16.4797 48.4539 16.3062Z" fill="#343942"/>
</g>
<defs>
<linearGradient id="paint0_linear_1_2767" x1="23.8248" y1="18.7653" x2="35.3153" y2="1.84584" gradientUnits="userSpaceOnUse">
<stop stop-color="#B2AFAE"/>
<stop offset="1" stop-color="#FAFAFC"/>
</linearGradient>
<clipPath id="clip0_1_2767">
<rect width="50" height="50" fill="white"/>
</clipPath>
</defs>
</svg>
