<svg width="24" height="24" viewBox="0 0 24 24" fill="none" xmlns="http://www.w3.org/2000/svg">
<path d="M14.8274 1C16.258 1 17.4181 2.1608 17.4182 3.59277C17.4182 4.16561 17.8821 4.62988 18.4544 4.62988H19.0647C20.7069 4.62988 22.1512 5.90597 22.0843 7.6543C21.9985 9.89574 21.5638 13.491 19.8196 16.6729C19.4059 17.4276 18.8711 18.1712 18.2864 18.874L17.9817 19.2314C16.9997 20.3672 16.1803 21.3145 15.3001 21.96C14.3548 22.653 13.3462 22.998 12.0061 22.999L12.0071 23C12.0058 23 12.0045 22.999 12.0032 22.999L12.0003 23C10.6605 22.9988 9.65148 22.653 8.70634 21.96C7.82621 21.3145 7.00756 20.3671 6.02567 19.2314L5.97391 19.1719C5.29145 18.3826 4.6605 17.5352 4.18778 16.6729C2.44355 13.491 2.00794 9.89576 1.92215 7.6543C1.85527 5.90598 3.30047 4.62988 4.94266 4.62988H5.55301C6.12524 4.62981 6.58915 4.16556 6.58915 3.59277C6.58928 2.1608 7.74935 1 9.17997 1H14.8274ZM16.3274 8.98242C16.082 8.85097 15.7793 8.87889 15.5618 9.05273L15.4602 9.15137L12.9505 12.1631C12.4395 12.7763 12.1033 13.1775 11.8186 13.4346C11.5489 13.6781 11.4221 13.7021 11.3421 13.7021C11.262 13.7021 11.135 13.6779 10.8655 13.4346C10.5809 13.1775 10.2446 12.7762 9.73368 12.1631L9.08622 11.3867C8.86979 11.1272 8.50454 11.0636 8.21805 11.2178L8.10087 11.2969C7.80468 11.5441 7.76509 11.9848 8.012 12.2812L8.67704 13.0801C9.15246 13.6506 9.55651 14.1371 9.92801 14.4727C10.3181 14.8249 10.7678 15.0995 11.3421 15.0996C11.9165 15.0996 12.366 14.8249 12.7561 14.4727C13.1277 14.1372 13.5316 13.6507 14.0071 13.0801L16.5345 10.0469C16.7508 9.78728 16.7473 9.41713 16.5442 9.16309L16.4456 9.0625L16.3274 8.98242Z" fill="#07060B"/>
</svg>
