<svg width="24" height="24" viewBox="0 0 24 24" fill="none" xmlns="http://www.w3.org/2000/svg">
<path d="M21.9198 6.20435C21.7849 6.01824 21.5337 5.95311 21.3336 6.06478C18.8541 7.46824 15.565 5.8019 12.7275 5.00105L12.7275 4.89444C12.7275 4.46625 12.9164 4.07002 13.2137 3.7619C13.5273 3.43692 13.7142 2.98909 13.6936 2.49734C13.6561 1.6017 12.8953 0.862513 11.999 0.849788C11.0338 0.836085 10.2432 1.61355 10.2432 2.57093C10.2432 3.04077 10.4346 3.46385 10.742 3.77398C11.0388 4.07338 11.2155 4.47068 11.2155 4.89225V5.00102C8.37459 5.8027 5.08846 7.46807 2.60929 6.06478C2.42115 5.95724 2.163 6.00559 2.0231 6.20435C1.86492 6.42763 1.93936 6.73935 2.17663 6.87427C3.01403 7.3395 3.91192 7.52092 4.8284 7.52092C4.92363 7.52092 5.01984 7.51277 5.11554 7.50907L2.89316 13.0086C2.58889 13.0086 2.37249 13.3005 2.4544 13.5935C2.78125 14.7627 4.0669 15.6355 5.60048 15.6355C7.13798 15.6355 8.42416 14.7628 8.7511 13.5935C8.83304 13.3005 8.61682 13.0086 8.31254 13.0086H8.31218L6.05585 7.425C7.82747 7.16378 9.57763 6.44571 11.2155 5.9565V17.7037C11.2155 19.7694 9.54096 21.4439 7.47529 21.4439H7.47488C6.79296 21.4439 6.24381 21.9931 6.24381 22.6704V23.1796H17.6987V22.6704C17.6988 21.9931 17.1496 21.4439 16.4677 21.4439C14.402 21.4439 12.7275 19.7694 12.7275 17.7037V5.95655C14.3592 6.44405 16.1156 7.16372 17.8867 7.42494L15.6304 13.0087H15.6299C15.3256 13.0087 15.1094 13.3005 15.1913 13.5936C15.5182 14.7628 16.8044 15.6356 18.3419 15.6356C19.8755 15.6356 21.1611 14.7628 21.488 13.5936C21.5699 13.3005 21.3537 13.0087 21.0494 13.0087L18.827 7.5091C18.9229 7.51286 19.0192 7.52095 19.1146 7.52095C20.031 7.52095 20.9289 7.33952 21.7617 6.8743C22.0002 6.73692 22.0805 6.43197 21.9198 6.20435ZM7.32424 13.0068H3.88116L5.60268 8.74674L7.32424 13.0068ZM20.0615 13.0068H16.6183L18.3399 8.74674L20.0615 13.0068Z" fill="white"/>
</svg>
