<svg width="50" height="50" viewBox="0 0 50 50" fill="none" xmlns="http://www.w3.org/2000/svg">
<path d="M23.4038 3.01624C23.4613 3.01589 23.5188 3.01554 23.578 3.01518C23.8837 3.01339 24.1893 3.01216 24.4949 3.01135C24.743 3.0106 24.991 3.00882 25.2391 3.00606C27.162 2.98517 29.0055 3.10978 30.862 3.66003C30.9503 3.6856 31.0386 3.71117 31.1295 3.73751C34.1235 4.6255 36.8535 6.07985 39.2282 8.10915C39.2926 8.1639 39.357 8.21864 39.4234 8.27505C40.5836 9.29102 41.6729 10.3862 42.5812 11.6341C42.6548 11.7329 42.7285 11.8318 42.8022 11.9306C43.3215 12.6349 43.7822 13.367 44.2147 14.1273C44.246 14.1816 44.2774 14.2359 44.3096 14.2919C46.1672 17.5372 47.0068 21.214 46.9927 24.9277C46.9925 25.0152 46.9923 25.1027 46.9921 25.1929C46.9879 26.4488 46.9663 27.681 46.7079 28.9147C46.6823 29.0404 46.6823 29.0404 46.6562 29.1686C45.7861 33.3282 43.9018 37.11 40.9477 40.1772C40.8934 40.2338 40.839 40.2905 40.783 40.3489C39.9968 41.1647 39.1975 41.9161 38.2825 42.5844C38.1836 42.6582 38.0846 42.732 37.9857 42.8057C37.2816 43.3248 36.5506 43.7876 35.7893 44.2179C35.7285 44.2525 35.6677 44.2871 35.6051 44.3227C33.616 45.4425 31.452 46.1947 29.2177 46.652C29.1559 46.6647 29.0941 46.6774 29.0304 46.6904C27.7687 46.9302 26.52 46.999 25.2381 46.9962C24.9853 46.9959 24.7327 46.9979 24.48 47.0001C23.3302 47.004 22.2215 46.9003 21.0879 46.7111C20.9413 46.6869 20.9413 46.6869 20.7917 46.6621C17.0718 45.9939 13.5426 44.2756 10.6851 41.8107C10.6211 41.7561 10.557 41.7016 10.491 41.6454C9.32995 40.63 8.24055 39.5338 7.33218 38.2858C7.25854 38.1869 7.18488 38.088 7.1112 37.9892C6.59192 37.2851 6.1291 36.5539 5.69869 35.7925C5.66411 35.7317 5.62953 35.6709 5.59391 35.6083C4.34342 33.3872 3.5134 30.9174 3.11949 28.3988C3.10444 28.3029 3.08939 28.2069 3.07388 28.108C3.00864 27.5712 3.01608 27.0309 3.01303 26.491C3.01268 26.4324 3.01233 26.3739 3.01197 26.3135C3.01018 26.0024 3.00895 25.6913 3.00814 25.3802C3.00738 25.1274 3.00561 24.8746 3.00285 24.6217C2.98661 23.0971 3.03062 21.6396 3.37741 20.1454C3.4017 20.0384 3.42599 19.9313 3.45102 19.821C3.51367 19.5651 3.58259 19.3128 3.65682 19.06C3.68239 18.9713 3.70795 18.8826 3.73429 18.7912C4.61903 15.7953 6.07624 13.0636 8.10594 10.6883C8.18806 10.5918 8.18806 10.5918 8.27184 10.4932C9.28781 9.33296 10.383 8.24365 11.6308 7.33539C11.7297 7.26175 11.8285 7.18809 11.9274 7.11441C12.6315 6.59513 13.3627 6.13231 14.1241 5.7019C14.1849 5.66732 14.2457 5.63274 14.3083 5.59712C17.0506 4.0532 20.2438 3.03443 23.4038 3.01624Z" fill="#F7EDDA"/>
<path d="M25.6769 3.00395C25.765 3.00403 25.853 3.0041 25.9437 3.00418C27.2521 3.00788 28.4977 3.05579 29.7714 3.38008C29.9012 3.4119 29.9012 3.4119 30.0336 3.44435C33.4403 4.29315 36.5559 5.82481 39.2285 8.10861C39.2929 8.16336 39.3573 8.21811 39.4236 8.27451C40.5839 9.29049 41.6732 10.3857 42.5814 11.6335C42.6551 11.7324 42.7287 11.8312 42.8024 11.9301C43.3217 12.6343 43.7825 13.3664 44.2149 14.1267C44.2463 14.1811 44.2776 14.2354 44.3099 14.2913C46.1674 17.5367 47.0071 21.2135 46.9929 24.9271C46.9927 25.0146 46.9926 25.1021 46.9924 25.1923C46.9881 26.4483 46.9665 27.6805 46.7081 28.9141C46.6825 29.0398 46.6825 29.0398 46.6564 29.1681C45.7863 33.3277 43.902 37.1095 40.9479 40.1766C40.8936 40.2333 40.8392 40.29 40.7833 40.3484C39.9971 41.1641 39.1978 41.9155 38.2828 42.5839C38.1838 42.6576 38.0849 42.7314 37.9859 42.8052C34.2105 45.5885 34.2105 45.5885 32.6945 45.507C32.7637 45.4289 32.8328 45.3509 32.9041 45.2705C35.2 42.5784 35.881 39.3752 35.897 35.9156C35.8978 35.8094 35.8986 35.7031 35.8994 35.5937C35.897 34.8997 35.831 34.2386 35.7036 33.5567C35.6919 33.4935 35.6803 33.4304 35.6683 33.3653C35.1166 30.5834 33.2992 28.0992 30.9698 26.5288C28.9965 25.252 26.8715 24.791 24.5428 24.7383C21.6979 24.6591 19.1429 23.358 17.1512 21.3663C14.8983 18.9498 14.1056 16.0167 14.1952 12.7788C14.3473 9.88884 15.9921 7.33702 18.0791 5.44344C20.2933 3.58534 22.8596 2.99808 25.6769 3.00395Z" fill="#4C4C4C"/>
<path d="M24.0107 3.03664C28.1048 2.96377 28.1048 2.96377 29.7709 3.38053C29.9013 3.41234 29.9013 3.41234 30.0343 3.4448C33.4404 4.29385 36.5557 5.82556 39.228 8.10906C39.2924 8.1638 39.3568 8.21855 39.4231 8.27496C40.5834 9.29093 41.6727 10.3861 42.581 11.634C42.6546 11.7328 42.7283 11.8317 42.8019 11.9305C43.3213 12.6348 43.782 13.3669 44.2145 14.1272C44.2458 14.1815 44.2771 14.2358 44.3094 14.2918C46.1669 17.5371 47.0066 21.2139 46.9925 24.9276C46.9923 25.0151 46.9921 25.1026 46.9919 25.1928C46.9876 26.4487 46.9661 27.6809 46.7077 28.9146C46.6821 29.0403 46.6821 29.0403 46.6559 29.1685C45.7858 33.3281 43.9016 37.1099 40.9475 40.1771C40.8931 40.2338 40.8388 40.2904 40.7828 40.3488C39.9966 41.1646 39.1973 41.916 38.2823 42.5843C38.1833 42.6581 38.0844 42.7319 37.9854 42.8056C34.21 45.5889 34.21 45.5889 32.694 45.5074C32.7632 45.4294 32.8323 45.3514 32.9036 45.271C33.3858 44.7078 33.8443 44.1191 34.2147 43.4763C34.4738 43.0788 34.8307 42.841 35.2163 42.5791C35.8203 42.168 36.3617 41.6938 36.9067 41.2087C36.9522 41.1687 36.9976 41.1287 37.0445 41.0875C39.8907 38.5766 41.9504 35.1818 43.0968 31.5797C43.1175 31.5159 43.1382 31.4521 43.1596 31.3863C43.4287 30.551 43.6235 29.7191 43.754 28.8514C43.785 28.6542 43.821 28.4583 43.8575 28.2621C44.2566 25.9655 44.1668 23.4695 43.7846 21.177C43.7726 21.105 43.7606 21.033 43.7483 20.9588C43.055 16.9772 41.18 13.1794 38.4126 10.2329C38.2358 10.0429 38.0673 9.85001 37.9008 9.6512C35.255 6.61766 31.2082 4.60611 27.3637 3.63845C27.2684 3.61384 27.1731 3.58924 27.0749 3.56389C26.0692 3.32596 25.0364 3.23532 24.0107 3.12261C24.0107 3.09424 24.0107 3.06587 24.0107 3.03664Z" fill="#3A3938"/>
<path d="M27.0851 10.5774C27.7942 10.9913 28.2317 11.5341 28.4815 12.3234C28.5954 13.1663 28.5016 13.9054 28.0402 14.6245C27.6105 15.1879 27.0203 15.535 26.3321 15.6764C25.5265 15.7613 24.8722 15.6242 24.2097 15.1551C23.752 14.78 23.498 14.3068 23.2371 13.7849C23.1654 12.7936 23.1615 12.0096 23.8053 11.2047C24.6382 10.2935 25.9636 10.0461 27.0851 10.5774Z" fill="#DCDCDB"/>
<path d="M27.289 33.7836C27.8277 34.2286 28.3602 34.7368 28.4819 35.4494C28.5709 36.3902 28.4616 37.1372 27.864 37.8835C27.3719 38.4085 26.7562 38.7207 26.0364 38.7459C25.1733 38.7587 24.5875 38.5996 23.9361 38.0017C23.3339 37.3527 23.1977 36.6467 23.213 35.7829C23.2584 35.1652 23.4764 34.5966 23.9253 34.1598C25.0108 33.3215 26.0426 33.1355 27.289 33.7836Z" fill="#555050"/>
<path d="M24.5268 10.7383C25.0695 10.9983 25.4529 11.5343 25.6733 12.0873C25.8586 12.8537 25.8439 13.6882 25.4349 14.376C25.1851 14.7157 24.9253 15.0673 24.5265 15.2314C24.3548 15.2465 24.3548 15.2465 24.2077 15.1753C23.6512 14.6998 23.2601 14.1536 23.1902 13.4098C23.1423 12.4418 23.3128 11.757 23.9626 11.0177C24.1707 10.8289 24.2418 10.7798 24.5268 10.7383Z" fill="#F6ECD9"/>
<path d="M24.3547 33.8164C24.9227 34.0054 25.2844 34.4273 25.5738 34.9428C25.8301 35.5945 25.8516 36.3618 25.6386 37.025C25.3733 37.6019 25.0407 38.0025 24.5267 38.373C24.0019 38.1186 23.5724 37.6505 23.3284 37.121C23.0883 36.3601 23.1448 35.4807 23.4832 34.7635C23.7113 34.359 23.985 34.0937 24.3547 33.8164Z" fill="#696867"/>
</svg>
