<svg width="50" height="50" viewBox="0 0 50 50" fill="none" xmlns="http://www.w3.org/2000/svg">
<g clip-path="url(#clip0_1_2797)">
<path d="M15.6846 4.62811C15.7812 4.67637 15.7812 4.67637 15.8796 4.7256C15.9617 4.98376 16.0318 5.23776 16.0968 5.50034C16.1176 5.5817 16.1385 5.66308 16.1599 5.7469C16.2291 6.0184 16.2972 6.29015 16.3652 6.56193C16.4135 6.75222 16.4618 6.9425 16.5103 7.13275C16.6385 7.63707 16.7657 8.14162 16.8927 8.64622C17.0194 9.14905 17.1469 9.65166 17.2745 10.1542C17.4223 10.7372 17.5701 11.3203 17.7173 11.9034C17.9239 12.7222 18.1313 13.5408 18.3461 14.3575C18.3786 14.4812 18.4111 14.605 18.4446 14.7325C18.5027 14.9528 18.5613 15.1732 18.6203 15.3933C18.6452 15.4872 18.67 15.5811 18.6956 15.6779C18.7169 15.7572 18.7382 15.8366 18.76 15.9182C18.8044 16.132 18.8044 16.132 18.8044 16.522C18.8592 16.5304 18.914 16.5387 18.9705 16.5474C19.936 16.7086 20.8783 16.9622 21.8255 17.2059C22.0155 17.2545 22.2056 17.3031 22.3956 17.3517C22.7933 17.4534 23.191 17.5554 23.5886 17.6576C24.0917 17.7868 24.595 17.9156 25.0984 18.0442C25.4911 18.1446 25.8838 18.2452 26.2766 18.3458C26.4617 18.3933 26.6469 18.4407 26.8321 18.4881C28.1569 18.8271 29.4774 19.1808 30.7958 19.5441C30.5776 19.7623 30.4743 19.7896 30.1812 19.8642C30.093 19.8871 30.0049 19.9099 29.9141 19.9334C29.8172 19.9577 29.7201 19.9821 29.6202 20.0072C29.5182 20.0334 29.4163 20.0596 29.3113 20.0865C28.9727 20.1734 28.6338 20.2592 28.295 20.345C28.0595 20.4052 27.8241 20.4654 27.5888 20.5257C27.0308 20.6685 26.4726 20.8105 25.9145 20.9524C25.099 21.1597 24.2837 21.3681 23.4685 21.5763C22.8827 21.726 22.2969 21.8755 21.7109 22.0246C21.6025 22.0522 21.4939 22.0798 21.382 22.1083C21.1814 22.1594 20.9806 22.2105 20.7799 22.2614C20.152 22.4214 19.5266 22.5891 18.9019 22.7613C18.8714 22.8801 18.841 22.999 18.8096 23.1213C18.5202 24.25 18.2307 25.3783 17.9408 26.5067C17.7917 27.0866 17.6428 27.6665 17.4942 28.2465C17.3503 28.808 17.2062 29.3693 17.0618 29.9305C17.0073 30.143 16.9528 30.3554 16.8984 30.5679C16.5479 31.9369 16.1778 33.2985 15.7821 34.6551C15.5506 34.3078 15.4697 33.9651 15.3701 33.5659C15.3492 33.4845 15.3284 33.403 15.307 33.3192C15.238 33.0487 15.1699 32.778 15.1017 32.5074C15.0533 32.3174 15.005 32.1274 14.9566 31.9374C14.8286 31.4346 14.7013 30.9317 14.5742 30.4286C14.4472 29.9272 14.3198 29.4259 14.1924 28.9246C14.0446 28.3431 13.8969 27.7616 13.7496 27.1801C13.5423 26.3622 13.3346 25.5445 13.1207 24.7283C13.0882 24.6041 13.0557 24.48 13.0222 24.3519C12.9639 24.1303 12.9055 23.9086 12.8464 23.6871C12.8217 23.5928 12.7969 23.4985 12.7712 23.4014C12.75 23.3215 12.7287 23.2416 12.7069 23.1592C12.6624 22.9563 12.6624 22.9563 12.6624 22.6638C12.5497 22.6517 12.437 22.6394 12.3209 22.6268C11.9084 22.5749 11.51 22.4848 11.1082 22.3797C10.9983 22.3517 10.9983 22.3517 10.8862 22.323C10.6453 22.2612 10.4046 22.1988 10.1639 22.1364C9.99302 22.0925 9.82215 22.0486 9.65128 22.0047C9.20051 21.8889 8.74985 21.7725 8.2993 21.6561C7.85213 21.5406 7.40483 21.4256 6.95753 21.3106C6.43336 21.1758 5.90923 21.0409 5.38527 20.9052C4.65195 20.7155 3.9186 20.526 3.18388 20.3416C2.89731 20.2698 2.61088 20.1974 2.32445 20.1249C2.19239 20.0917 2.06025 20.0587 1.92805 20.0261C1.74893 19.9818 1.57007 19.9366 1.39123 19.8913C1.24157 19.854 1.24157 19.854 1.08889 19.816C0.866045 19.7391 0.866045 19.7391 0.768555 19.5441C2.0006 19.1965 3.23678 18.8692 4.4774 18.5537C4.65937 18.5072 4.84134 18.4607 5.0233 18.4143C5.49724 18.2932 5.97125 18.1725 6.44526 18.0517C7.20451 17.8583 7.9637 17.6646 8.72289 17.4708C8.98475 17.404 9.24671 17.3373 9.50867 17.2706C9.67237 17.2289 9.83607 17.1871 9.99976 17.1454C10.0775 17.1255 10.1552 17.1057 10.2352 17.0854C10.6046 16.9909 10.9734 16.8947 11.3413 16.7948C11.4089 16.7765 11.4764 16.7581 11.5461 16.7393C11.7271 16.6898 11.9079 16.6399 12.0888 16.59C12.37 16.522 12.37 16.522 12.6624 16.522C12.6736 16.4562 12.6848 16.3906 12.6963 16.3229C12.8077 15.687 12.9452 15.064 13.1076 14.4394C13.1319 14.3448 13.1562 14.2501 13.1812 14.1526C13.2607 13.8434 13.3407 13.5342 13.4207 13.2252C13.4766 13.0082 13.5324 12.7914 13.5882 12.5745C13.7049 12.1214 13.8219 11.6683 13.9391 11.2153C14.0887 10.6367 14.2379 10.0579 14.3868 9.47905C14.502 9.03155 14.6173 8.58423 14.7329 8.13688C14.7879 7.92355 14.8429 7.71021 14.8978 7.49686C14.9748 7.19804 15.0521 6.89929 15.1294 6.60056C15.1518 6.51368 15.1741 6.4268 15.1971 6.33728C15.3462 5.76323 15.5105 5.19502 15.6846 4.62811Z" fill="#FEE459"/>
<path d="M33.6235 26.2742C33.6879 26.2742 33.7522 26.2742 33.8186 26.2742C34.5906 29.2662 35.3628 32.2581 36.1584 35.3408C38.3396 35.8922 38.3396 35.8922 40.5211 36.4432C42.0933 36.8407 43.6631 37.244 45.225 37.6806C45.1929 37.745 45.1607 37.8093 45.1275 37.8756C44.8878 37.9537 44.6528 38.0199 44.4085 38.081C44.3333 38.1005 44.258 38.1201 44.1804 38.1402C43.9298 38.205 43.679 38.2686 43.4283 38.3322C43.2539 38.377 43.0796 38.4219 42.9052 38.4669C42.4446 38.5856 41.9837 38.7034 41.5227 38.821C41.0574 38.9398 40.5924 39.0593 40.1272 39.1789C39.6028 39.3138 39.0784 39.4486 38.5537 39.5826C38.4731 39.6033 38.3923 39.6239 38.3093 39.6451C38.1609 39.683 38.0125 39.721 37.8642 39.7587C37.2936 39.9048 36.7268 40.0603 36.1584 40.2153C35.3862 43.2073 34.6141 46.1993 33.8186 49.2819C33.7542 49.2819 33.6899 49.2819 33.6235 49.2819C33.5957 49.1727 33.5678 49.0634 33.5391 48.9508C33.2767 47.9222 33.0142 46.8936 32.7516 45.8651C32.6165 45.3363 32.4816 44.8075 32.3467 44.2786C32.2165 43.7684 32.0862 43.2583 31.956 42.7482C31.9062 42.5534 31.8566 42.3585 31.8069 42.1636C31.7374 41.8912 31.6678 41.6188 31.5982 41.3464C31.5775 41.2655 31.5569 41.1845 31.5357 41.101C31.4593 40.8025 31.3812 40.5078 31.2837 40.2153C31.0033 40.1037 31.0033 40.1037 30.6489 40.0215C30.5811 40.0039 30.5132 39.9864 30.4433 39.9684C30.2935 39.9299 30.1435 39.892 29.9934 39.8545C29.7517 39.7942 29.5105 39.7325 29.2693 39.6704C28.8108 39.5525 28.3517 39.4361 27.8927 39.3199C26.9549 39.0822 26.0174 38.8422 25.0804 38.6013C24.723 38.5097 24.3654 38.4191 24.0076 38.3287C23.787 38.272 23.5662 38.2155 23.3454 38.1589C23.2426 38.1331 23.1397 38.1074 23.0337 38.0808C22.9401 38.0566 22.8465 38.0325 22.7501 38.0075C22.668 37.9866 22.5859 37.9657 22.5013 37.9443C22.3146 37.8756 22.3146 37.8756 22.2172 37.6806C23.2265 37.4187 24.2359 37.1568 25.2454 36.895C25.7142 36.7733 26.183 36.6517 26.6518 36.5301C27.105 36.4124 27.5582 36.2948 28.0115 36.1773C28.1836 36.1327 28.3556 36.088 28.5277 36.0434C29.4454 35.8052 30.3633 35.5682 31.2837 35.3408C31.3087 35.2431 31.3337 35.1453 31.3595 35.0446C31.5961 34.1195 31.8328 33.1945 32.0694 32.2694C32.1911 31.794 32.3128 31.3184 32.4343 30.843C32.5518 30.3834 32.6694 29.9239 32.787 29.4644C32.8317 29.2897 32.8764 29.1151 32.921 28.9405C33.1486 28.0499 33.3767 27.1597 33.6235 26.2742Z" fill="#FED403"/>
<path d="M15.7823 4.92108C16.0538 5.1925 16.0955 5.50386 16.1855 5.86608C16.2153 5.98244 16.2153 5.98244 16.2457 6.10116C16.3116 6.35948 16.3766 6.61803 16.4416 6.8766C16.4877 7.05801 16.5339 7.2394 16.5801 7.42078C16.7024 7.90124 16.8239 8.3819 16.9452 8.86263C17.0662 9.34122 17.1877 9.81971 17.3093 10.2981C17.4505 10.8541 17.5917 11.4102 17.7324 11.9663C17.9333 12.7601 18.1349 13.5536 18.3433 14.3453C18.3757 14.4687 18.4082 14.5922 18.4415 14.7192C18.4999 14.9408 18.5588 15.1622 18.6182 15.3835C18.6432 15.4785 18.6683 15.5735 18.6941 15.6713C18.7264 15.7922 18.7264 15.7922 18.7595 15.9156C18.8046 16.1325 18.8046 16.1325 18.8046 16.5224C18.8595 16.5308 18.9142 16.5393 18.9707 16.5479C19.9362 16.7092 20.8785 16.9628 21.8257 17.2064C22.0157 17.255 22.2058 17.3036 22.3958 17.3522C22.7936 17.4539 23.1912 17.5558 23.5888 17.658C24.0919 17.7872 24.5952 17.916 25.0986 18.0447C25.4913 18.1451 25.884 18.2457 26.2768 18.3464C26.4619 18.3938 26.6471 18.4412 26.8323 18.4885C28.1571 18.8277 29.4776 19.1813 30.796 19.5447C30.5778 19.7628 30.4745 19.79 30.1814 19.8648C30.0492 19.899 30.0492 19.899 29.9143 19.9339C29.8174 19.9582 29.7203 19.9826 29.6204 20.0077C29.5184 20.0339 29.4165 20.0601 29.3115 20.0871C28.9729 20.1739 28.634 20.2597 28.2952 20.3455C28.0597 20.4056 27.8243 20.4659 27.589 20.5262C27.031 20.6689 26.4729 20.8111 25.9147 20.9529C25.0992 21.1602 24.284 21.3686 23.4687 21.5769C22.8829 21.7265 22.2971 21.876 21.7111 22.025C21.6027 22.0527 21.4941 22.0803 21.3822 22.1088C21.1816 22.1599 20.9808 22.211 20.7801 22.2619C20.1522 22.4219 19.5268 22.5895 18.9021 22.7619C18.8712 22.882 18.8403 23.0021 18.8085 23.1258C18.516 24.2631 18.2235 25.4003 17.9309 26.5376C17.7804 27.1221 17.63 27.7066 17.4798 28.2912C17.3343 28.8563 17.189 29.4214 17.0436 29.9865C16.9883 30.201 16.9331 30.4156 16.878 30.6303C16.7299 31.2063 16.5812 31.7821 16.4318 32.3579C16.3705 32.5959 16.3105 32.8341 16.2507 33.0725C16.2164 33.2073 16.1819 33.3422 16.1475 33.477C16.1189 33.5909 16.0903 33.7048 16.0608 33.8221C15.9774 34.0708 15.9774 34.0708 15.7823 34.1683C15.7823 24.5167 15.7823 14.8651 15.7823 4.92108Z" fill="#FED403"/>
<path d="M40.1559 0.730286C40.3736 1.0569 40.4223 1.28988 40.5016 1.67313C40.5303 1.80922 40.5591 1.9453 40.588 2.08136C40.6031 2.1534 40.6183 2.22542 40.6338 2.29964C40.733 2.76289 40.8407 3.22422 40.9472 3.68581C41.0402 4.09084 41.1297 4.49607 41.2122 4.90336C41.4821 6.60159 41.4821 6.60159 42.3083 8.04145C42.7949 8.31711 43.3055 8.36241 43.8552 8.4014C44.3955 8.45697 44.911 8.61715 45.4337 8.75957C45.6526 8.81501 45.8717 8.87001 46.0908 8.92447C46.1998 8.95164 46.3087 8.97892 46.421 9.00697C46.6468 9.06316 46.8726 9.11936 47.0985 9.17534C47.4293 9.25752 47.7598 9.34056 48.0904 9.42371C48.1917 9.44861 48.293 9.4735 48.3973 9.49904C48.4903 9.52252 48.5832 9.546 48.679 9.57024C48.7607 9.59056 48.8424 9.61089 48.9266 9.63176C49.1251 9.69937 49.1251 9.69937 49.32 9.89437C47.7099 10.3518 46.0893 10.7665 44.4683 11.183C44.1153 11.2737 43.7625 11.3647 43.4097 11.4557C43.301 11.4835 43.1924 11.5114 43.0804 11.5401C42.9806 11.5658 42.881 11.5916 42.7782 11.6181C42.6904 11.6406 42.6026 11.6632 42.5121 11.6865C42.2986 11.7403 42.2985 11.7403 42.1057 11.8442C42.0319 12.0659 41.9703 12.2825 41.9135 12.5085C41.8954 12.578 41.8773 12.6475 41.8587 12.719C41.7989 12.9493 41.7402 13.1799 41.6815 13.4105C41.6403 13.57 41.599 13.7293 41.5577 13.8888C41.449 14.309 41.3411 14.7295 41.2336 15.15C41.1237 15.5788 41.013 16.0074 40.9022 16.436C40.685 17.2774 40.469 18.1191 40.2533 18.961C40.0584 18.8635 40.0584 18.8635 39.9683 18.5946C39.9222 18.4145 39.9222 18.4145 39.8751 18.2306C39.858 18.1645 39.8409 18.0984 39.8232 18.0303C39.7666 17.8109 39.711 17.5911 39.6555 17.3715C39.6164 17.2193 39.5774 17.0671 39.5383 16.9149C39.4563 16.5956 39.3749 16.2761 39.2939 15.9565C39.19 15.5466 39.0851 15.1371 38.9798 14.7275C38.899 14.4131 38.8187 14.0986 38.7385 13.7841C38.6999 13.633 38.6613 13.4819 38.6225 13.331C38.5685 13.1199 38.5149 12.9086 38.4615 12.6972C38.431 12.577 38.4003 12.4567 38.3688 12.3328C38.3035 12.0392 38.3035 12.0392 38.3035 11.7467C38.161 11.7166 38.161 11.7166 38.0157 11.6858C36.7278 11.4089 35.4528 11.0852 34.1778 10.7549C33.8144 10.6609 33.4507 10.5681 33.087 10.4751C32.8557 10.4154 32.6244 10.3556 32.3932 10.2958C32.2845 10.2682 32.1759 10.2405 32.0639 10.2121C31.9641 10.186 31.8645 10.1599 31.7617 10.1331C31.63 10.0992 31.63 10.0992 31.4957 10.0645C31.2841 9.99188 31.2841 9.99188 31.0892 9.79687C32.5206 9.37763 33.9588 8.99273 35.4045 8.62634C35.7444 8.54014 36.0842 8.45336 36.424 8.36652C36.6406 8.3114 36.8573 8.2563 37.0739 8.20125C37.1752 8.17536 37.2765 8.14948 37.3809 8.1228C37.4738 8.09931 37.5667 8.07583 37.6625 8.05164C37.7442 8.03089 37.826 8.01014 37.9101 7.98876C38.1086 7.94457 38.1086 7.94457 38.3035 7.94457C38.3185 7.85323 38.3185 7.85323 38.3336 7.76003C38.4677 6.97876 38.6561 6.2155 38.8553 5.44867C38.8898 5.31492 38.9243 5.18118 38.9587 5.04741C39.0303 4.7696 39.1022 4.49187 39.1743 4.21418C39.2668 3.85775 39.3586 3.50115 39.4504 3.14449C39.5211 2.86945 39.5922 2.59449 39.6633 2.31955C39.6974 2.18796 39.7313 2.05634 39.7651 1.9247C39.8122 1.74194 39.8597 1.55931 39.9072 1.37668C39.9342 1.27275 39.961 1.16883 39.9887 1.06175C40.0584 0.827766 40.0584 0.827766 40.1559 0.730286Z" fill="#FED404"/>
<path d="M33.6235 26.2742C33.6557 26.2742 33.6879 26.2742 33.7211 26.2742C33.7211 33.8667 33.7211 41.4593 33.7211 49.2819C33.5239 48.8875 33.4151 48.507 33.3085 48.0828C33.2878 48.0013 33.267 47.92 33.2456 47.8361C33.177 47.5676 33.1092 47.2988 33.0413 47.0301C32.9938 46.8434 32.9461 46.6567 32.8985 46.47C32.7733 45.9787 32.6486 45.4872 32.5241 44.9956C32.3245 44.2086 32.1241 43.4217 31.9238 42.6347C31.8538 42.3596 31.7841 42.0844 31.7143 41.8093C31.6716 41.641 31.6288 41.4727 31.5861 41.3045C31.5668 41.2277 31.5473 41.151 31.5273 41.072C31.4538 40.783 31.3781 40.4984 31.2837 40.2153C31.0033 40.1037 31.0033 40.1037 30.6489 40.0215C30.5811 40.0039 30.5132 39.9864 30.4433 39.9684C30.2935 39.9299 30.1435 39.892 29.9934 39.8545C29.7517 39.7942 29.5105 39.7325 29.2693 39.6704C28.8108 39.5525 28.3517 39.4361 27.8927 39.3199C26.9549 39.0822 26.0174 38.8422 25.0804 38.6013C24.723 38.5097 24.3654 38.4191 24.0076 38.3287C23.787 38.272 23.5662 38.2155 23.3454 38.1589C23.2426 38.1331 23.1397 38.1074 23.0337 38.0808C22.9401 38.0566 22.8465 38.0325 22.7501 38.0075C22.668 37.9866 22.5859 37.9657 22.5013 37.9443C22.3146 37.8756 22.3146 37.8756 22.2172 37.6806C23.2265 37.4187 24.2359 37.1568 25.2454 36.895C25.7142 36.7733 26.183 36.6517 26.6518 36.5301C27.105 36.4124 27.5582 36.2948 28.0115 36.1773C28.1836 36.1327 28.3556 36.088 28.5277 36.0434C29.4454 35.8052 30.3633 35.5682 31.2837 35.3408C31.3087 35.2431 31.3337 35.1453 31.3595 35.0446C31.5961 34.1195 31.8328 33.1945 32.0694 32.2694C32.1911 31.794 32.3128 31.3184 32.4343 30.843C32.5518 30.3834 32.6694 29.9239 32.787 29.4644C32.8317 29.2897 32.8764 29.1151 32.921 28.9405C33.1486 28.0499 33.3767 27.1597 33.6235 26.2742Z" fill="#FEE459"/>
<path d="M40.0584 0.827942C40.0906 0.827942 40.1228 0.827942 40.1559 0.827942C40.1559 6.77974 40.1559 12.7315 40.1559 18.8637C39.9805 18.513 39.8837 18.2204 39.7866 17.8434C39.7623 17.7499 39.7623 17.7499 39.7375 17.6545C39.6844 17.4493 39.6318 17.2438 39.5793 17.0384C39.5424 16.8954 39.5056 16.7524 39.4686 16.6094C39.3915 16.3101 39.3147 16.0108 39.2381 15.7113C39.1398 15.3274 39.0409 14.9437 38.9416 14.56C38.8654 14.2649 38.7897 13.9698 38.7139 13.6745C38.6775 13.533 38.6411 13.3915 38.6045 13.25C38.5535 13.0524 38.5029 12.8548 38.4526 12.657C38.4092 12.4883 38.4092 12.4883 38.3651 12.3162C38.3035 12.0393 38.3035 12.0393 38.3035 11.7469C38.161 11.7167 38.161 11.7167 38.0157 11.686C36.7278 11.409 35.4528 11.0854 34.1778 10.755C33.8144 10.6611 33.4507 10.5682 33.087 10.4753C32.8557 10.4156 32.6244 10.3558 32.3932 10.2959C32.2845 10.2683 32.1759 10.2407 32.0639 10.2122C31.9641 10.1861 31.8645 10.1601 31.7617 10.1333C31.63 10.0993 31.63 10.0993 31.4957 10.0647C31.2841 9.9921 31.2841 9.9921 31.0892 9.79709C32.5206 9.37774 33.9588 8.99295 35.4045 8.62651C35.7444 8.54031 36.0842 8.45353 36.424 8.3667C36.6406 8.31157 36.8573 8.25648 37.0739 8.20141C37.1752 8.17553 37.2765 8.14964 37.3809 8.12297C37.4738 8.09949 37.5667 8.076 37.6625 8.0518C37.7442 8.03105 37.826 8.0103 37.9101 7.98892C38.1086 7.94475 38.1086 7.94475 38.3035 7.94475C38.3134 7.88389 38.3233 7.82303 38.3335 7.76032C38.4676 6.97746 38.6579 6.21341 38.8588 5.44541C38.8935 5.31143 38.9282 5.17745 38.9628 5.04346C39.0532 4.69446 39.144 4.3456 39.235 3.99676C39.3281 3.6393 39.4207 3.28173 39.5134 2.92417C39.6946 2.22531 39.8763 1.52658 40.0584 0.827942Z" fill="#FEE459"/>
<path d="M15.6853 4.62811C15.7497 4.66029 15.814 4.69246 15.8803 4.7256C15.8848 8.5103 15.8883 12.295 15.8903 16.0797C15.8906 16.5261 15.8908 16.9724 15.8911 17.4189C15.8911 17.5078 15.8912 17.5966 15.8912 17.6882C15.8921 19.1289 15.8936 20.5696 15.8954 22.0104C15.8972 23.4877 15.8983 24.965 15.8987 26.4423C15.8989 27.3545 15.8998 28.2668 15.9014 29.1789C15.9024 29.8037 15.9027 30.4285 15.9025 31.0533C15.9024 31.4143 15.9025 31.7753 15.9036 32.1362C15.9047 32.5268 15.9044 32.9174 15.9038 33.3079C15.9044 33.423 15.9049 33.5382 15.9056 33.6567C15.9051 33.7608 15.9048 33.8647 15.9044 33.9719C15.9045 34.1072 15.9045 34.1072 15.9046 34.2453C15.8803 34.4602 15.8803 34.4602 15.6853 34.6551C15.6708 30.8581 15.6565 27.061 15.6432 23.2638C15.6415 22.816 15.64 22.3681 15.6384 21.9202C15.6378 21.7865 15.6378 21.7865 15.6374 21.65C15.6323 20.2047 15.6267 18.7592 15.6211 17.3137C15.6153 15.8315 15.61 14.3495 15.6049 12.8673C15.6019 11.952 15.5984 11.0368 15.5946 10.1216C15.5921 9.4947 15.5898 8.86785 15.5879 8.24102C15.5867 7.87888 15.5855 7.51675 15.5838 7.15461C15.582 6.76277 15.5809 6.37092 15.5799 5.97908C15.5792 5.86358 15.5785 5.74807 15.5778 5.62906C15.5777 5.52476 15.5775 5.42045 15.5774 5.31298C15.5771 5.22244 15.5767 5.13189 15.5764 5.0386C15.5878 4.82309 15.5878 4.82309 15.6853 4.62811Z" fill="#FEDF3C"/>
<path d="M46.1029 25.9845C46.3283 26.088 46.3283 26.088 46.4928 26.277C46.6004 26.6644 46.6308 26.8707 46.4623 27.2397C46.2979 27.4469 46.2979 27.4469 46.1029 27.5444C45.7465 27.5839 45.558 27.5652 45.2377 27.3981C44.9866 27.1027 44.9578 26.9392 44.9832 26.5602C45.0305 26.3745 45.0305 26.3745 45.2377 26.1308C45.5641 25.9604 45.7398 25.9304 46.1029 25.9845Z" fill="#D9E7EC"/>
<path d="M23.6809 10.0917C23.9063 10.1953 23.9063 10.1953 24.0708 10.3842C24.1784 10.7716 24.2088 10.9779 24.0404 11.3469C23.8758 11.5541 23.8758 11.5541 23.6809 11.6516C23.3245 11.6912 23.136 11.6725 22.8157 11.5053C22.5646 11.21 22.5358 11.0465 22.5612 10.6676C22.6085 10.4817 22.6085 10.4817 22.8157 10.238C23.1421 10.0677 23.3177 10.0377 23.6809 10.0917Z" fill="#DAE7EC"/>
<path d="M7.31046 2.93072C7.49669 2.97413 7.49668 2.97413 7.7465 3.17521C7.92918 3.5485 7.89929 3.74756 7.78916 4.14402C7.62568 4.40215 7.51117 4.43208 7.2164 4.5218C6.85311 4.53633 6.7088 4.461 6.42429 4.24151C6.27358 3.9401 6.29816 3.69613 6.3268 3.3641C6.57605 2.95907 6.86041 2.90549 7.31046 2.93072Z" fill="#DAE7EC"/>
<path d="M1.25696 24.91C1.53186 25.1406 1.54734 25.2832 1.59209 25.6412C1.54944 25.9824 1.54944 25.9824 1.39711 26.22C1.06993 26.4297 0.858784 26.42 0.477039 26.3723C0.245492 26.2687 0.245492 26.2687 0.087076 26.0799C0.00197674 25.7456 -0.0425133 25.5055 0.0566079 25.172C0.392744 24.7398 0.751163 24.7812 1.25696 24.91Z" fill="#D8E7EC"/>
<path d="M26.1171 28.1233C26.392 28.3539 26.4075 28.4966 26.4523 28.8545C26.4096 29.1957 26.4096 29.1957 26.2573 29.4333C25.9301 29.6431 25.719 29.6334 25.3372 29.5857C25.1057 29.4821 25.1057 29.4821 24.9472 29.2932C24.8497 28.9642 24.8497 28.9642 24.8497 28.6108C25.214 28.0331 25.4599 27.9734 26.1171 28.1233Z" fill="#D9E7EC"/>
<path d="M26.7031 43.8208C26.978 44.0514 26.9934 44.194 27.0382 44.552C26.9955 44.8932 26.9955 44.8932 26.8432 45.1308C26.516 45.3406 26.3048 45.3309 25.9231 45.2832C25.6915 45.1796 25.6915 45.1796 25.5332 44.9907C25.4357 44.6616 25.4357 44.6616 25.4357 44.3083C25.7999 43.7305 26.0458 43.6709 26.7031 43.8208Z" fill="#D9E7EB"/>
<path d="M40.1565 0.730286C40.3814 1.06764 40.4119 1.30568 40.4489 1.70518C40.4167 1.73736 40.3845 1.76953 40.3514 1.80267C40.3424 2.0192 40.3404 2.23602 40.3411 2.45273C40.3411 2.55585 40.3411 2.55585 40.3412 2.66106C40.3415 2.89315 40.3425 3.12524 40.3435 3.35733C40.3438 3.52304 40.3441 3.68874 40.3443 3.85445C40.345 4.21214 40.346 4.56984 40.347 4.92753C40.3489 5.49276 40.3498 6.05798 40.3506 6.62321C40.3529 8.23079 40.3564 9.83839 40.3607 11.4459C40.3631 12.3331 40.3649 13.2203 40.3658 14.1075C40.3665 14.6698 40.368 15.232 40.3701 15.7941C40.3713 16.1437 40.3716 16.4932 40.3717 16.8426C40.3719 17.0051 40.3725 17.1675 40.3733 17.3299C40.3745 17.5512 40.3745 17.7724 40.3742 17.9938C40.3745 18.1177 40.3749 18.2417 40.3752 18.3694C40.3514 18.6685 40.3514 18.6685 40.1565 18.961C40.1565 12.9449 40.1565 6.92873 40.1565 0.730286Z" fill="#FED716"/>
<path d="M31.1956 0.00524855C31.382 0.0486623 31.382 0.0486624 31.6317 0.249731C31.8144 0.62302 31.7845 0.822089 31.6743 1.21854C31.5708 1.40744 31.5708 1.40744 31.382 1.51101C30.7197 1.58459 30.7197 1.58459 30.3582 1.35868C30.1551 1.02855 30.1576 0.819436 30.212 0.438625C30.4613 0.033586 30.7456 -0.019991 31.1956 0.00524855Z" fill="#D9E7EC"/>
<path d="M8.47078 38.2624C8.70841 38.4086 8.70841 38.4086 8.8607 38.6524C8.92026 38.9262 8.9245 39.1589 8.8607 39.4323C8.65967 39.6821 8.65967 39.6821 8.37329 39.8222C8.03524 39.8164 7.79923 39.7841 7.50197 39.6212C7.33076 39.3089 7.33791 38.9939 7.39838 38.6524C7.67501 38.2098 7.97272 38.1913 8.47078 38.2624Z" fill="#D9E7EC"/>
<path d="M42.4959 48.501C42.739 48.6502 42.7756 48.7567 42.8675 49.0251C42.8892 49.3299 42.8294 49.4983 42.6907 49.7685C42.4565 50.0028 42.3848 49.9948 42.0632 50C41.6518 49.9888 41.6518 49.9888 41.4174 49.8111C41.2904 49.4811 41.282 49.2417 41.3259 48.8911C41.6246 48.4055 41.9752 48.4432 42.4959 48.501Z" fill="#D9E7EC"/>
</g>
<defs>
<clipPath id="clip0_1_2797">
<rect width="50" height="50" fill="white"/>
</clipPath>
</defs>
</svg>
