<svg width="50" height="50" viewBox="0 0 50 50" fill="none" xmlns="http://www.w3.org/2000/svg">
<path d="M27.4279 1.63263C28.3763 2.24934 29.0326 3.07417 29.5332 4.07883C29.5834 4.17699 29.6336 4.27515 29.6854 4.37629C30.1192 5.23396 30.5292 6.10292 30.9408 6.97142C31.2502 7.62417 31.5633 8.27517 31.8773 8.92578C32.1098 9.40836 32.3398 9.89197 32.5649 10.378C32.7864 10.8558 33.014 11.3301 33.2461 11.8029C33.3323 11.9813 33.4164 12.161 33.498 12.3417C33.9422 13.3656 33.9422 13.3656 34.7927 14.0219C35.1623 14.1073 35.5317 14.1307 35.9098 14.1474C36.2675 14.1689 36.6179 14.2236 36.972 14.2773C37.2656 14.3217 37.5596 14.3625 37.8538 14.4024C38.394 14.4761 38.9338 14.5509 39.4737 14.6261C40.2829 14.7387 41.0921 14.851 41.9016 14.9611C42.4693 15.0383 43.0367 15.117 43.6039 15.1968C43.8181 15.2267 44.0324 15.256 44.2468 15.2847C45.7431 15.4852 47.1721 15.6783 48.3412 16.7197C48.4018 16.7686 48.4623 16.8174 48.5248 16.8677C49.4815 17.7077 49.894 18.9767 49.9968 20.2084C50.0501 21.6123 49.4378 22.9134 48.5125 23.9396C48.2417 24.218 47.9666 24.4911 47.6887 24.7625C47.5959 24.8548 47.503 24.947 47.4073 25.0421C47.0258 25.4189 46.6433 25.7891 46.2368 26.1388C45.3315 26.9261 44.4834 27.7801 43.6281 28.6208C43.3142 28.9293 42.9993 29.2364 42.6815 29.5408C42.3719 29.8373 42.0653 30.1368 41.7609 30.4387C41.645 30.5524 41.5281 30.6651 41.4101 30.7767C41.2451 30.9331 41.0844 31.093 40.9242 31.2542C40.8319 31.3441 40.7396 31.4339 40.6445 31.5265C40.3676 32.0261 40.4697 32.4358 40.5626 32.9841C40.5818 33.111 40.5818 33.111 40.6014 33.2403C40.6414 33.495 40.6863 33.7483 40.7323 34.0019C40.7492 34.0967 40.7659 34.1915 40.7833 34.2891C40.8383 34.5985 40.8939 34.9077 40.9497 35.2169C40.9882 35.4337 41.0269 35.6506 41.0655 35.8675C41.1666 36.4356 41.2684 37.0037 41.3703 37.5718C41.5334 38.4822 41.6957 39.3929 41.858 40.3035C41.9146 40.6205 41.9714 40.9376 42.0283 41.2546C42.0631 41.4495 42.098 41.6443 42.1328 41.8391C42.1485 41.9266 42.1644 42.0142 42.1805 42.1043C42.4796 43.7802 42.5449 45.2975 41.5862 46.7934C40.7775 47.872 39.7424 48.5674 38.4132 48.8392C36.773 49.0272 35.4562 48.5366 34.025 47.7652C33.9042 47.7012 33.7832 47.6372 33.6622 47.5734C33.4173 47.444 33.1727 47.3142 32.9284 47.1838C32.4215 46.914 31.9119 46.6492 31.4023 46.3843C31.2106 46.2843 31.0189 46.1842 30.8274 46.0842C30.3986 45.8606 29.9694 45.6377 29.54 45.4153C29.4232 45.3547 29.3064 45.2942 29.1861 45.2319C28.9509 45.1103 28.7157 44.9889 28.4804 44.8677C27.9271 44.5821 27.3764 44.2935 26.8306 43.994C26.7327 43.9409 26.6348 43.8878 26.534 43.833C26.3519 43.7339 26.1705 43.6334 25.9901 43.5314C25.9093 43.4877 25.8286 43.4441 25.7454 43.399C25.6762 43.3605 25.6069 43.3219 25.5356 43.2821C25.0183 43.1224 24.5678 43.3565 24.113 43.5956C24.0019 43.6536 23.8908 43.7115 23.7764 43.7713C23.5995 43.8652 23.5995 43.8652 23.419 43.9612C23.2947 44.0266 23.1704 44.0918 23.046 44.157C22.2003 44.6016 21.3607 45.0573 20.5236 45.5177C19.7162 45.9607 18.8996 46.3848 18.0809 46.8062C17.45 47.132 16.8263 47.4679 16.2064 47.8142C14.606 48.7048 13.0837 49.3222 11.2329 48.8201C11.0796 48.7632 10.928 48.7015 10.7787 48.6347C10.7028 48.601 10.6271 48.5674 10.5489 48.5327C9.34245 47.9289 8.48129 46.9611 8.03448 45.6938C7.71286 44.6103 7.78962 43.5919 7.97971 42.4909C7.99768 42.3828 8.01565 42.2747 8.03416 42.1633C8.09321 41.8093 8.15341 41.4554 8.2136 41.1014C8.25499 40.8542 8.29629 40.6069 8.33751 40.3596C8.44584 39.7107 8.55509 39.062 8.66461 38.4133C8.8401 37.3734 9.01446 36.3333 9.1883 35.2931C9.24914 34.9301 9.31059 34.5672 9.372 34.2043C9.40931 33.9822 9.44652 33.7601 9.48373 33.538C9.50961 33.3868 9.50961 33.3868 9.53603 33.2325C9.55143 33.1394 9.56694 33.0464 9.58298 32.9506C9.5965 32.8701 9.61012 32.7897 9.62417 32.7068C9.69638 32.2154 9.69638 32.2154 9.52492 31.7737C9.43625 31.6881 9.43625 31.6881 9.3458 31.6007C9.28027 31.5364 9.2147 31.4721 9.14714 31.4058C9.07761 31.3401 9.00807 31.2744 8.93644 31.2068C8.87007 31.1419 8.80371 31.077 8.73534 31.0102C8.4091 30.6938 8.076 30.3889 7.73063 30.0935C7.11021 29.5563 6.54352 28.9616 5.96734 28.3779C5.44032 27.8447 4.91238 27.3217 4.34184 26.8346C3.85045 26.3963 3.39336 25.9201 2.92977 25.4529C2.82445 25.3472 2.7191 25.2414 2.61373 25.1357C2.42004 24.9413 2.22653 24.7467 2.03313 24.552C1.85368 24.3716 1.67365 24.1916 1.49318 24.0122C0.543746 23.0574 0.0565955 21.9202 0 20.5749C0.040057 19.2398 0.538129 17.993 1.46489 17.0267C1.77353 16.7761 1.77353 16.7761 2.10458 16.5471C2.21276 16.4709 2.32095 16.3945 2.43241 16.3158C3.29042 15.7855 4.29566 15.6884 5.27463 15.5446C5.42755 15.5216 5.58047 15.4984 5.73337 15.4752C6.1395 15.4138 6.54577 15.3533 6.95207 15.293C7.37083 15.2308 7.78946 15.1676 8.2081 15.1046C8.86709 15.0055 9.52617 14.9068 10.1853 14.8086C10.9466 14.695 11.7077 14.5799 12.4687 14.4638C12.7499 14.421 13.031 14.3784 13.3122 14.3356C13.4815 14.3099 13.6506 14.2841 13.8199 14.2582C14.0476 14.2235 14.2755 14.1892 14.5033 14.1549C14.6258 14.1364 14.7483 14.1179 14.8744 14.0987C15.1797 14.0602 15.1797 14.0602 15.5892 14.0602C15.6168 13.972 15.6445 13.884 15.6729 13.7931C15.7924 13.4506 15.9337 13.1358 16.0929 12.81C16.1229 12.7484 16.1528 12.6869 16.1837 12.6234C16.2837 12.4181 16.3842 12.213 16.4848 12.008C16.5564 11.8612 16.628 11.7145 16.6994 11.5676C16.9429 11.0684 17.1872 10.5697 17.4315 10.0709C17.5257 9.87836 17.6201 9.68573 17.7143 9.49321C17.7866 9.34551 17.7866 9.34551 17.8604 9.19484C17.9594 8.9926 18.0584 8.79037 18.1574 8.58813C18.3995 8.09344 18.6418 7.59883 18.8844 7.1044C18.9757 6.91821 19.067 6.73201 19.1582 6.54582C19.2024 6.4558 19.2466 6.36579 19.292 6.27306C19.5123 5.8224 19.7297 5.37064 19.9425 4.91634C19.9839 4.82798 20.0253 4.7396 20.068 4.64856C20.1456 4.48254 20.2226 4.31631 20.2992 4.14985C20.5703 3.56914 20.8813 3.07382 21.3208 2.60361C21.4001 2.50887 21.4001 2.50887 21.4811 2.41221C22.9197 0.801199 25.6128 0.60745 27.4279 1.63263Z" fill="#FFC100"/>
</svg>
