<svg width="50" height="50" viewBox="0 0 50 50" fill="none" xmlns="http://www.w3.org/2000/svg">
<g clip-path="url(#clip0_1_3137)">
<path d="M25 41.3203H12.5003C11.119 41.3203 10.0004 40.2015 10.0004 38.8203V26.3204H25V41.3203Z" fill="#FFB74D"/>
<path d="M37.4994 41.3203H24.9998V26.3204H39.9994V38.8203C39.9994 40.2015 38.8807 41.3203 37.4994 41.3203Z" fill="#F57C00"/>
<path d="M22.5007 32.5657H13.7509V36.3156H22.5007V32.5657Z" fill="#C16629"/>
<path d="M24.9994 2.57153V17.5714L21.2494 21.3214L23.7494 2.57153H24.9994Z" fill="#FFB74D"/>
<path d="M24.9998 2.57153V17.5714L28.7496 21.3214L26.2497 2.57153H24.9998Z" fill="#F57C00"/>
<path d="M34.3745 36.3156C35.41 36.3156 36.2495 35.4761 36.2495 34.4407C36.2495 33.4051 35.41 32.5657 34.3745 32.5657C33.3389 32.5657 32.4995 33.4051 32.4995 34.4407C32.4995 35.4761 33.3389 36.3156 34.3745 36.3156Z" fill="#C62828"/>
<path d="M12.5003 17.564H37.4996C38.8808 17.564 39.9996 18.6828 39.9996 20.0639V26.3139H10.0004V20.0639C10.0004 18.6828 11.119 17.564 12.5003 17.564Z" fill="#CFD8DC"/>
<path d="M24.9998 17.564H37.4994C38.8807 17.564 39.9994 18.6828 39.9994 20.0639V26.3139H24.9998V17.564Z" fill="#BDBDBD"/>
<path d="M34.9985 20.0706H31.2485V23.8205H34.9985V20.0706Z" fill="#4CAF50"/>
<path d="M26.3983 0.265015C26.3983 0.265015 34.0854 2.88974 36.0291 3.23248C39.4278 3.83177 41.6981 7.07398 41.0987 10.4727C40.4994 13.8715 37.2573 16.1417 33.8586 15.5424C26.4727 14.2401 26.3983 0.265015 26.3983 0.265015Z" fill="white"/>
<path d="M32.0476 11.4179C34.0872 11.7776 36.0321 10.4157 36.3917 8.37616C36.7514 6.33654 35.3895 4.39159 33.35 4.03196C31.3105 3.67232 29.3655 5.03419 29.0058 7.07378C28.6462 9.11342 30.0081 11.0583 32.0476 11.4179Z" fill="#424242"/>
<path d="M33.6401 16.7733C25.3409 15.3099 24.9424 2.08612 24.931 1.52437L24.8951 0L36.2448 2.00128C40.3181 2.71952 43.0465 6.61624 42.3283 10.6897C41.6101 14.763 37.7135 17.4915 33.6401 16.7733ZM27.5446 3.00572C27.8829 6.22712 29.1824 13.4487 34.0742 14.3113C36.7898 14.7901 39.3875 12.9711 39.8663 10.2555C40.3452 7.53993 38.5262 4.94211 35.8106 4.46327L27.5446 3.00572Z" fill="#78909C"/>
<path d="M32.6999 7.71071C33.3797 7.83059 34.0281 7.37666 34.1479 6.69675C34.2678 6.01689 33.8138 5.36857 33.134 5.24869C32.4542 5.12881 31.8058 5.58277 31.6859 6.26263C31.5661 6.9425 32.02 7.59083 32.6999 7.71071Z" fill="white"/>
<path d="M7.49981 28.8223H2.49994C1.11872 28.8223 0 29.9411 0 31.3222H9.99979C9.99979 29.9411 8.88099 28.8223 7.49981 28.8223Z" fill="#424242"/>
<path d="M9.99979 46.3165H0C0 47.6978 1.11872 48.8165 2.49994 48.8165H7.49981C8.88099 48.8165 9.99979 47.6978 9.99979 46.3165Z" fill="#78909C"/>
<path d="M9.99979 31.3148H0V35.0648H9.99979V31.3148Z" fill="#78909C"/>
<path d="M9.99979 35.0629H0V38.8128H9.99979V35.0629Z" fill="#424242"/>
<path d="M9.99979 38.8203H0V42.5703H9.99979V38.8203Z" fill="#78909C"/>
<path d="M9.99979 42.5591H0V46.309H9.99979V42.5591Z" fill="#424242"/>
<path d="M47.5002 28.8223H42.5003C41.119 28.8223 40.0004 29.9411 40.0004 31.3222H50C50 29.9411 48.8814 28.8223 47.5002 28.8223Z" fill="#424242"/>
<path d="M50 46.3165H40.0004C40.0004 47.6978 41.119 48.8165 42.5003 48.8165H47.5002C48.8814 48.8165 50 47.6978 50 46.3165Z" fill="#78909C"/>
<path d="M50 31.3148H40.0004V35.0648H50V31.3148Z" fill="#78909C"/>
<path d="M50 35.0629H40.0004V38.8128H50V35.0629Z" fill="#424242"/>
<path d="M50 38.8203H40.0004V42.5703H50V38.8203Z" fill="#78909C"/>
<path d="M50 42.5591H40.0004V46.309H50V42.5591Z" fill="#424242"/>
<path d="M23.6071 0.280029C23.6071 0.280029 15.92 2.90476 13.9763 3.24749C10.5776 3.84679 8.30747 7.08899 8.90675 10.4878C9.50603 13.8866 12.7481 16.1568 16.1469 15.5574C23.5327 14.2552 23.6071 0.280029 23.6071 0.280029Z" fill="white"/>
<path d="M17.9579 11.4316C19.9975 11.072 21.3593 9.12699 20.9996 7.08745C20.6401 5.04787 18.6951 3.68601 16.6556 4.04563C14.616 4.40527 13.2542 6.35022 13.6139 8.38985C13.9734 10.4294 15.9184 11.7913 17.9579 11.4316Z" fill="#424242"/>
<path d="M17.3038 7.73213C17.9837 7.61225 18.4376 6.96398 18.3177 6.28412C18.1979 5.60425 17.5495 5.15031 16.8698 5.27017C16.1899 5.39005 15.7359 6.03837 15.8557 6.71823C15.9756 7.39808 16.624 7.85201 17.3038 7.73213Z" fill="white"/>
<path d="M16.3613 16.7806C12.288 17.499 8.39142 14.7704 7.67309 10.697C6.95489 6.62368 9.68331 2.72697 13.7567 2.00873L25.1063 0.00744629L25.0704 1.53181C25.0591 2.09357 24.6606 15.3173 16.3613 16.7806ZM14.1908 4.47072C11.4752 4.94954 9.65629 7.5474 10.1351 10.263C10.6139 12.9785 13.2117 14.7976 15.9272 14.3186C20.8192 13.4562 22.1185 6.23457 22.4568 3.01317L14.1908 4.47072Z" fill="#78909C"/>
</g>
<defs>
<clipPath id="clip0_1_3137">
<rect width="50" height="50" fill="white"/>
</clipPath>
</defs>
</svg>
