<svg width="50" height="50" viewBox="0 0 50 50" fill="none" xmlns="http://www.w3.org/2000/svg">
<path d="M12.7482 3.32117C13.2736 3.86341 13.6913 4.44674 14.0452 5.11219C14.413 5.00014 14.7633 4.86277 15.1153 4.70949C17.0921 3.8492 19.1151 3.20658 21.2489 2.87324C21.3582 2.85605 21.4675 2.83885 21.5801 2.82114C22.6808 2.66515 23.7705 2.63968 24.881 2.64204C24.9751 2.64209 25.0692 2.64215 25.1662 2.6422C26.7144 2.6462 28.1999 2.73993 29.718 3.06792C29.8181 3.08931 29.9183 3.11068 30.0215 3.13272C32.0749 3.58346 33.9718 4.27222 35.8507 5.20953C35.8767 5.13875 35.9026 5.06798 35.9295 4.99507C36.4314 3.81674 37.4399 2.84883 38.5764 2.28916C39.6337 1.88548 40.7942 1.90957 41.8393 2.32947C43.2412 2.99466 44.2122 3.85761 44.8331 5.29661C45.2046 6.37316 45.0382 7.57729 44.5871 8.60183C44.2912 9.17512 43.9289 9.67114 43.5151 10.165C43.3334 10.3772 43.3334 10.3772 43.1516 10.6609C43.1907 10.6976 43.2297 10.7344 43.2699 10.7723C44.5976 12.0579 45.7326 13.6398 46.6561 15.2362C46.6913 15.2964 46.7265 15.3565 46.7629 15.4185C49.3457 19.8423 50.7611 25.3309 49.5764 30.4221C49.5597 30.4971 49.543 30.5721 49.5258 30.6493C49.1386 32.353 48.5378 33.97 47.718 35.5118C47.6396 35.6598 47.5637 35.8091 47.4881 35.9586C46.8024 37.2826 45.8921 38.4628 44.9039 39.5725C44.8613 39.6212 44.8187 39.6698 44.7747 39.7199C43.1537 41.5674 41.2581 43.0684 39.1605 44.3425C39.0937 44.3832 39.027 44.424 38.9582 44.4659C35.2305 46.7107 30.6255 48.0282 26.2732 48.0648C26.179 48.0658 26.0848 48.0667 25.9877 48.0678C19.8239 48.1172 13.6836 46.7941 8.69125 42.9797C8.63659 42.9387 8.58182 42.8978 8.52546 42.8556C7.021 41.7284 5.60023 40.4312 4.4359 38.9526C4.34985 38.8434 4.26331 38.7347 4.17637 38.6262C1.73758 35.5698 0.0456653 31.5992 0.00429027 27.6481C0.00333573 27.572 0.00236994 27.4957 0.00139267 27.4173C-0.038346 23.4321 0.770575 19.8354 2.65582 16.3069C2.70641 16.2114 2.70641 16.2114 2.75801 16.114C3.82823 14.1067 5.1972 12.324 6.74434 10.6609C6.66202 10.5706 6.5797 10.4802 6.49489 10.3871C5.47224 9.19035 4.83665 7.86421 4.87082 6.27844C4.95776 5.22541 5.46581 4.2522 6.25761 3.55465C6.30893 3.50308 6.36026 3.4515 6.41314 3.39837C8.25375 1.62806 10.8935 1.56843 12.7482 3.32117Z" fill="#489942"/>
<path d="M28.6471 6.86556C28.7201 6.87756 28.7933 6.88956 28.8687 6.90192C31.539 7.34847 34.2609 8.56874 36.4347 10.1753C36.5368 10.25 36.639 10.3247 36.7442 10.4016C37.7718 11.1653 38.6915 12.0366 39.5984 12.9375C39.6557 12.9942 39.7129 13.051 39.7718 13.1094C40.0763 13.4151 40.3581 13.7256 40.6206 14.0691C40.5658 14.2456 40.5658 14.2456 40.4259 14.4585C40.2671 14.5299 40.1076 14.6002 39.9453 14.6631C39.2879 14.9494 38.6678 15.4026 38.2843 16.016C38.2147 16.2091 38.1489 16.4036 38.0896 16.6001C39.2537 16.4867 39.2537 16.4867 40.4076 16.302C41.7299 16.0495 43.0771 16.1023 44.4171 16.1134C44.5616 16.4025 44.5616 16.4025 44.7091 16.6975C43.9061 16.6975 43.1029 16.6975 42.2755 16.6975C42.5267 17.1885 42.5267 17.1885 42.7792 17.6787C42.9575 18.0311 43.1022 18.3445 43.1516 18.7417C43.0934 18.7277 43.0354 18.7136 42.9755 18.6991C41.2838 18.3372 39.6842 18.5097 38.187 19.4232C36.7426 20.4162 35.6376 21.8135 35.1692 23.5117C35.105 23.5117 35.0407 23.5117 34.9746 23.5117C34.769 23.1494 34.7428 22.8428 34.7159 22.4336C34.7049 22.3718 34.6939 22.3099 34.6825 22.2461C34.6182 22.2141 34.554 22.1819 34.4879 22.1489C34.4939 22.0745 34.4999 22.0002 34.506 21.9238C34.517 21.6634 34.517 21.6634 34.362 21.5385C34.1315 21.3049 34.0087 21.0391 33.855 20.7494C32.7415 18.7333 30.9428 17.3764 28.8417 16.5027C28.7574 16.4659 28.6731 16.429 28.5863 16.391C26.7884 15.6619 24.5864 15.6026 22.709 16.016C22.5392 16.0518 22.5392 16.0518 22.366 16.0883C19.796 16.6972 17.5868 18.2592 16.1868 20.494C15.9246 20.9357 15.6682 21.3684 15.5055 21.8568C15.4412 21.9532 15.3769 22.0495 15.3107 22.1489C15.2027 22.4726 15.1606 22.7845 15.116 23.1223C15.0839 23.1223 15.0518 23.1223 15.0186 23.1223C14.9705 23.4114 14.9705 23.4114 14.9214 23.7064C14.6796 23.4645 14.6262 23.2564 14.5137 22.9336C14.1065 21.8557 13.4855 21.0205 12.6824 20.2019C12.6226 20.1398 12.563 20.0777 12.5014 20.0136C11.4035 18.9603 9.91796 18.5062 8.42796 18.5184C7.85462 18.5333 7.30244 18.6067 6.7443 18.7417C6.96595 18.0418 7.23568 17.3732 7.52306 16.6975C6.75209 16.6975 5.98111 16.6975 5.18677 16.6975C5.25102 16.5368 5.31527 16.3762 5.38146 16.2108C5.85025 16.2034 6.319 16.1982 6.78781 16.1947C6.94648 16.1933 7.10516 16.1912 7.2638 16.1887C8.26092 16.1731 9.19433 16.232 10.1722 16.433C10.7143 16.5357 11.2552 16.5724 11.8063 16.6001C11.3665 15.4028 10.4871 14.8891 9.37262 14.3611C9.37262 13.8569 9.5941 13.6859 9.92626 13.3451C9.97796 13.2906 10.0296 13.2361 10.0827 13.1799C10.3923 12.8544 10.7099 12.5372 11.0275 12.2195C11.1066 12.1337 11.1066 12.1337 11.1872 12.0461C13.7188 9.3426 17.5759 7.58453 21.1515 6.86556C21.2276 6.84976 21.3038 6.83397 21.3823 6.81769C23.7408 6.34858 26.2906 6.44405 28.6471 6.86556Z" fill="#9CC971"/>
<path d="M32.151 18.4511C32.2179 18.5079 32.285 18.5647 32.354 18.6234C33.1581 19.3689 33.8035 20.3984 34.2926 21.3714C34.3568 21.3714 34.4211 21.3714 34.4872 21.3714C34.4993 21.4618 34.5113 21.5521 34.5237 21.6452C34.5667 21.969 34.5667 21.969 34.7793 22.2476C34.8318 22.5065 34.8508 22.7628 34.8767 23.0263C34.9087 23.0263 34.9409 23.0263 34.9739 23.0263C34.9739 23.1869 34.9739 23.3476 34.9739 23.513C35.0383 23.513 35.1025 23.513 35.1687 23.513C35.1619 23.9286 35.1534 24.344 35.1431 24.7596C35.1398 24.9006 35.1371 25.0417 35.135 25.1827C35.1227 25.9414 35.1081 26.6106 34.7793 27.3095C34.7277 27.4588 34.7277 27.4588 34.6751 27.6111C34.1728 29.023 33.4061 30.1564 32.3456 31.2034C32.2664 31.2823 32.1872 31.3614 32.1056 31.4429C30.1432 33.3068 27.3413 34.1692 24.6736 34.1529C21.7648 34.0752 19.0468 32.8456 17.0456 30.7405C15.5081 29.0378 14.8288 26.8692 14.7626 24.6143C14.7588 24.5077 14.7551 24.4011 14.7512 24.2912C14.7421 24.0319 14.7337 23.7725 14.7261 23.513C14.7582 23.513 14.7903 23.513 14.8233 23.513C14.8354 23.4408 14.8476 23.3685 14.8599 23.294C14.9207 23.0263 14.9207 23.0263 15.0181 22.8438C15.1361 22.6201 15.1361 22.6201 15.1641 22.2779C15.1802 22.1715 15.1962 22.0652 15.2128 21.9555C15.3091 21.9073 15.3091 21.9073 15.4074 21.8581C15.4074 21.6976 15.4074 21.5369 15.4074 21.3714C15.4718 21.3714 15.536 21.3714 15.6022 21.3714C15.646 21.2877 15.6897 21.204 15.7348 21.1178C16.9618 18.8379 18.9945 17.0389 21.4788 16.2348C25.3205 15.0898 29.0926 15.8462 32.151 18.4511Z" fill="#86C54B"/>
<path d="M10.4803 4.1223C11.4661 4.60512 12.1233 5.56559 12.5188 6.56549C12.7157 7.19312 12.7408 7.86748 12.7771 8.52032C12.8255 8.49203 12.8739 8.46362 12.9236 8.43442C13.4897 8.10317 14.0576 7.77544 14.6266 7.44954C14.694 7.41069 14.7614 7.37184 14.8309 7.3318C15.6492 6.86321 16.4684 6.51035 17.3644 6.21561C17.6109 6.13436 17.8373 6.04464 18.0763 5.93954C18.7102 5.67473 19.3799 5.5279 20.0458 5.36398C20.236 5.31699 20.4257 5.26803 20.6152 5.21857C21.9332 4.91059 23.306 4.88812 24.6532 4.82121C24.7322 4.81651 24.8112 4.81183 24.8925 4.80699C27.6326 4.64991 30.9569 5.33382 33.4143 6.57344C33.584 6.65103 33.7537 6.7286 33.9235 6.80568C34.5445 7.08899 35.153 7.39307 35.7567 7.71112C35.825 7.74703 35.8934 7.78282 35.9638 7.81987C36.3637 8.03282 36.7407 8.26271 37.1134 8.52032C37.1228 8.3543 37.1228 8.3543 37.1321 8.18498C37.2365 6.74404 37.6453 5.51822 38.7683 4.52917C39.2731 4.14143 39.7309 3.96332 40.3712 4.0029C41.3762 4.16395 42.0518 4.72619 42.7124 5.47525C43.0626 5.97848 43.0257 6.57582 42.9542 7.15751C42.6895 8.27782 41.8625 9.1793 40.9099 9.78589C40.624 9.93464 40.3345 10.0595 40.0339 10.1752C39.8716 10.2401 39.7093 10.305 39.5471 10.3699C39.6283 10.4441 39.7095 10.5183 39.7931 10.5946C40.8457 11.5588 41.8682 12.5211 42.7086 13.6839C43.0676 14.1594 43.4944 14.3674 44.0346 14.6086C44.5144 14.8495 44.9045 15.1714 45.1932 15.6266C45.1544 15.8856 45.1544 15.8856 45.0958 16.1133C44.9776 16.1162 44.9776 16.1162 44.8571 16.1192C42.1671 16.1865 42.1671 16.1865 39.5061 16.5635C39.0351 16.632 38.5615 16.615 38.087 16.6C38.1001 16.0739 38.3109 15.8034 38.6554 15.4342C39.2058 14.9186 39.8139 14.5249 40.5206 14.2637C40.2803 13.7218 39.8521 13.3266 39.4498 12.9009C39.4011 12.8489 39.3523 12.7968 39.3021 12.7432C36.3699 9.63385 32.3618 7.57063 28.1576 6.86547C28.0868 6.85297 28.0159 6.84047 27.943 6.82758C22.996 5.99081 17.6541 7.30485 13.5786 10.1881C12.5301 10.9479 11.5398 11.7781 10.6355 12.7062C10.5744 12.7662 10.5135 12.8261 10.4507 12.8879C9.87637 13.4489 9.87637 13.4489 9.37 14.0691C9.43648 14.3786 9.43648 14.3786 9.70148 14.49C9.80091 14.5337 9.90034 14.5776 10.0027 14.6227C10.7556 14.9834 11.4216 15.4479 11.8036 16.2107C11.8036 16.3392 11.8036 16.4676 11.8036 16.6C10.9883 16.6584 10.2483 16.5571 9.44909 16.4115C7.90742 16.1357 6.3564 16.1295 4.7947 16.1133C4.68728 15.6486 4.68728 15.6486 4.77798 15.4506C5.24839 14.9116 5.89499 14.4308 6.61651 14.3208C6.85176 14.2879 6.85176 14.2879 6.94582 14.0903C6.97481 14.0191 7.00378 13.9478 7.03366 13.8743C7.9476 12.61 9.11193 11.3273 10.3434 10.3699C10.2633 10.3438 10.1833 10.3177 10.1008 10.2908C8.81659 9.83998 7.86851 9.08782 7.19108 7.89373C6.88957 7.23582 6.7769 6.48927 7.00057 5.78782C7.0936 5.60821 7.19663 5.46359 7.32569 5.30794C7.37074 5.25122 7.41578 5.1945 7.46221 5.13606C8.21898 4.28498 9.35762 3.73957 10.4803 4.1223Z" fill="#1F7D3B"/>
<path d="M14.1952 34.3775C14.8548 34.3853 15.4796 34.5869 16.1106 34.7617C17.2145 35.0658 18.3162 35.3474 19.4488 35.5228C19.5797 35.5431 19.5797 35.5431 19.7132 35.5638C19.9979 35.6048 20.2828 35.6403 20.5682 35.6749C20.6627 35.6873 20.6627 35.6873 20.7589 35.6998C21.9982 35.86 23.2233 35.9 24.4723 35.895C24.7768 35.894 25.0812 35.895 25.3857 35.8963C27.1818 35.8976 28.9724 35.7977 30.7408 35.4681C30.8516 35.4481 30.9624 35.4281 31.0765 35.4075C32.1172 35.2114 33.1394 34.9475 34.1586 34.6617C34.8078 34.484 35.3722 34.3556 36.0462 34.4094C36.2638 34.6271 36.1738 35.0694 36.1744 35.3626C36.1451 36.9061 35.3628 38.1227 34.2939 39.1793C32.7713 40.5809 30.8415 41.3013 28.8427 41.7103C28.774 41.725 28.7054 41.7398 28.6347 41.7549C27.4045 42.0076 26.1753 42.0306 24.9245 42.0329C24.8465 42.0332 24.7686 42.0335 24.6883 42.0339C21.2923 42.0421 17.8286 41.2905 15.2812 38.8996C14.303 37.8746 13.7337 36.6264 13.7419 35.2125C13.7415 35.1459 13.7411 35.0793 13.7407 35.0106C13.7419 34.4196 13.7419 34.4195 14.1952 34.3775Z" fill="#25140C"/>
<path d="M44.6927 20.6214C45.849 21.7046 46.5296 23.0031 46.5959 24.6023C46.6233 26.1371 46.0861 27.4789 45.03 28.601C43.8705 29.6922 42.5053 30.1958 40.9274 30.1807C39.6715 30.1306 38.6541 29.6846 37.6986 28.8627C37.6218 28.8 37.5449 28.7372 37.4655 28.6726C36.6791 27.9705 35.9319 26.6992 35.8282 25.6285C35.7389 23.7774 36.1059 22.3206 37.3401 20.9157C39.3367 18.9783 42.5391 18.8518 44.6927 20.6214Z" fill="#EBEBEB"/>
<path d="M11.8054 20.298C13.0212 21.202 13.9093 22.4805 14.1417 23.9972C14.2762 25.6831 13.8708 27.1095 12.7762 28.4191C11.7538 29.5191 10.4067 30.1162 8.91052 30.1757C7.58895 30.1924 6.54911 29.84 5.47791 29.0591C5.41617 29.0164 5.35443 28.9738 5.29083 28.9298C4.31993 28.1905 3.64525 26.9334 3.43366 25.7493C3.28508 23.9153 3.57636 22.5347 4.75923 21.0775C6.59981 19.096 9.57314 18.9157 11.8054 20.298Z" fill="#ECECEC"/>
<path d="M29.0353 21.756C29.7932 22.3463 30.3247 23.1358 30.4955 24.0923C30.5573 25.2461 30.5664 26.2615 29.814 27.2073C29.395 27.624 29.0132 27.8633 28.4208 27.9192C27.6754 27.856 27.102 27.573 26.6016 27.0126C26.4059 26.7338 26.2568 26.4459 26.1149 26.1365C26.0765 26.0552 26.0381 25.9739 25.9985 25.8901C25.621 24.9925 25.5778 24.0591 25.8837 23.131C26.1558 22.4792 26.5195 21.8593 27.1857 21.5613C27.8021 21.3353 28.4747 21.4316 29.0353 21.756Z" fill="#232523"/>
<path d="M21.9316 22.2428C22.4892 22.5706 22.8321 23.0088 23.0386 23.6189C23.2817 24.7263 23.077 25.6563 22.4997 26.6172C22.1614 27.0774 21.6832 27.3454 21.1266 27.4394C20.6013 27.4662 20.1865 27.3678 19.79 27.0126C19.1222 26.1684 19.1105 25.2282 19.2059 24.1896C19.2889 23.8579 19.412 23.6004 19.5953 23.3136C19.6283 23.2521 19.6613 23.1906 19.6953 23.1272C20.1514 22.3643 21.0743 21.9168 21.9316 22.2428Z" fill="#232523"/>
<path d="M16.0889 29.4458C16.3472 29.6951 16.5702 29.9477 16.7825 30.2368C18.4084 32.3326 20.8057 33.5304 23.3959 33.9542C26.3556 34.3043 29.323 33.5706 31.679 31.7251C32.4759 31.0496 33.1476 30.3283 33.7084 29.4458C33.7406 29.5101 33.7727 29.5743 33.8058 29.6406C33.4233 30.3873 32.8791 31.0424 32.3456 31.6848C32.2813 31.7673 32.2813 31.7673 32.2156 31.8514C31.6127 32.6159 30.8034 33.1801 30.0093 33.7291C29.9367 33.7802 29.8642 33.8315 29.7896 33.8842C29.2629 34.2292 28.7039 34.4576 28.1172 34.6782C28.0417 34.7068 27.9663 34.7355 27.8886 34.7649C25.7404 35.5406 23.3191 35.3766 21.2482 34.4565C19.2322 33.4668 17.5717 32.0383 16.3809 30.1273C16.3251 30.0391 16.2692 29.9508 16.2117 29.86C16.0889 29.6406 16.0889 29.6406 16.0889 29.4458Z" fill="#026937"/>
<path d="M36.4336 21.9529C36.4657 22.0171 36.4979 22.0815 36.5309 22.1476C36.4614 22.3391 36.3829 22.5274 36.2998 22.7134C35.8032 23.8301 35.7061 25.3042 36.1263 26.4674C36.754 27.9723 37.753 29.0949 39.2494 29.7722C40.5538 30.2445 42.0775 30.2033 43.3451 29.6433C44.8207 28.9357 45.758 27.8561 46.3081 26.3152C46.6257 25.1785 46.5117 23.9698 46.2656 22.8291C47.0672 23.8214 47.0629 25.1196 46.947 26.3335C46.7006 27.7477 45.8749 28.8658 44.7574 29.7345C43.287 30.7468 41.478 31.0278 39.7373 30.7079C38.2069 30.3379 36.9557 29.4847 36.0424 28.2124C35.2751 26.9336 35.0694 25.497 35.4115 24.0519C35.6332 23.2807 36.0055 22.6273 36.4336 21.9529Z" fill="#121311"/>
<path d="M13.5588 22.2459C14.3052 22.9078 14.5619 24.1482 14.6641 25.099C14.7307 26.6828 14.1369 28.0136 13.0781 29.1685C11.7983 30.3709 10.1364 30.8533 8.41421 30.8397C6.72084 30.7596 5.24033 29.9725 4.07969 28.7608C3.05977 27.5522 2.8294 26.1443 2.92505 24.6101C3.00619 23.825 3.35735 23.1268 3.72682 22.4406C3.83771 22.7733 3.8125 22.8147 3.68689 23.1235C3.50434 23.6388 3.48351 24.1122 3.48954 24.6552C3.49034 24.7493 3.49115 24.8435 3.49199 24.9406C3.521 26.1742 3.88173 27.0905 4.60293 28.0867C4.67722 28.191 4.7515 28.2955 4.82804 28.4031C5.77424 29.3713 7.06564 30.0371 8.42773 30.0756C10.0038 30.0799 11.3652 29.6389 12.5549 28.5613C13.5947 27.4389 14.1048 26.0765 14.0856 24.5599C14.0626 23.984 13.9382 23.4699 13.7534 22.9274C13.7141 22.7917 13.6755 22.6558 13.6378 22.5197C13.5986 22.3842 13.5986 22.3842 13.5588 22.2459Z" fill="#131412"/>
<path d="M13.5585 22.5389C13.7531 22.6363 13.7531 22.6363 13.8327 22.8202C13.8565 22.896 13.8805 22.9718 13.9053 23.05C13.9295 23.1248 13.9537 23.1996 13.9787 23.2766C14.382 24.7058 14.1599 26.1109 13.5026 27.4191C12.6873 28.7835 11.4814 29.6745 9.94107 30.0676C8.75335 30.2718 7.67247 30.1868 6.54956 29.7425C6.54956 29.6782 6.54956 29.614 6.54956 29.5477C6.65321 29.5452 6.75687 29.5427 6.86365 29.5401C8.80141 29.4732 10.5107 28.9035 11.8673 27.461C13.1203 26.0333 13.4332 24.3806 13.5585 22.5389Z" fill="#EEEEEE"/>
<path d="M45.9737 22.5389C46.4537 22.945 46.5191 23.5963 46.5766 24.1951C46.6771 25.7614 46.2809 27.1272 45.2676 28.353C44.2303 29.4552 42.9146 30.1214 41.3958 30.1775C40.5204 30.1885 39.7827 30.0714 38.9648 29.7425C38.9648 29.6782 38.9648 29.614 38.9648 29.5477C39.0733 29.5464 39.1817 29.545 39.2934 29.5437C41.1855 29.4951 42.721 28.9785 44.118 27.6617C45.501 26.1813 45.8829 24.4852 45.9737 22.5389Z" fill="#EEEEEE"/>
<path d="M29.6198 36.355C29.6681 37.1374 29.6476 37.813 29.2303 38.4966C28.8317 38.9424 28.4122 39.2466 27.8116 39.3149C27.0857 39.3424 26.4849 39.3523 25.8985 38.8681C25.3831 38.3401 25.212 37.9856 25.2087 37.2311C25.2165 37.0363 25.2258 36.8415 25.2392 36.6471C25.3018 36.6451 25.3644 36.6432 25.4289 36.6411C26.5693 36.6043 27.697 36.559 28.8269 36.3941C29.0959 36.3598 29.3491 36.3474 29.6198 36.355Z" fill="#F2F2F2"/>
<path d="M20.3731 36.455C20.4947 36.4609 20.6163 36.4668 20.7415 36.4728C22.0463 36.5357 23.3511 36.5939 24.6563 36.6496C24.7457 37.9536 24.7457 37.9536 24.3088 38.54C23.9139 38.9768 23.5324 39.2509 22.9455 39.3176C22.2068 39.3453 21.626 39.3463 21.0256 38.8617C20.6284 38.46 20.3805 38.0719 20.3635 37.4912C20.3647 37.368 20.3658 37.245 20.3669 37.1181C20.3678 36.9943 20.3688 36.8704 20.3697 36.7428C20.3708 36.6478 20.3719 36.5528 20.3731 36.455Z" fill="#F2F2F2"/>
<path d="M34.4875 35.3851C34.5333 36.1965 34.5374 36.9159 34.0982 37.6241C33.7073 38.0604 33.2886 38.377 32.6973 38.4356C31.8726 38.4439 31.2367 38.4421 30.6158 37.8484C30.1841 37.3479 30.1478 36.9066 30.1069 36.2613C30.1794 36.2485 30.2519 36.2358 30.3266 36.2227C32.1094 35.919 32.1094 35.919 33.8544 35.4532C34.0982 35.3851 34.0982 35.3851 34.4875 35.3851Z" fill="#E4E5E5"/>
<path d="M15.5074 35.3851C16.3529 35.5449 17.1856 35.748 18.02 35.9573C18.6116 36.1023 19.1835 36.2097 19.7907 36.2613C19.8499 36.9251 19.7251 37.3009 19.3039 37.8188C18.6696 38.4067 18.0956 38.4699 17.26 38.4462C16.7284 38.4067 16.3665 38.1954 15.9942 37.8188C15.5471 37.295 15.4938 36.8141 15.5014 36.1457C15.5018 36.0726 15.5023 35.9997 15.5027 35.9246C15.5039 35.7447 15.5056 35.5649 15.5074 35.3851Z" fill="#E4E4E4"/>
<path d="M42.6664 22.8281C43.2187 23.0123 43.5742 23.3783 43.8345 23.8989C43.9086 24.553 43.8603 25.1222 43.4451 25.6512C43.0692 26.0072 42.6964 26.1685 42.1797 26.1987C41.6628 26.1685 41.29 26.0072 40.9141 25.6512C40.5506 25.188 40.4612 24.706 40.487 24.1256C40.5651 23.6558 40.8237 23.3945 41.1697 23.0897C41.6483 22.7496 42.0925 22.7842 42.6664 22.8281Z" fill="#191A18"/>
<path d="M8.20511 23.1209C8.60943 23.5117 8.80534 23.8381 8.82568 24.3987C8.8183 24.963 8.69943 25.3417 8.3025 25.7494C7.84658 26.086 7.41014 26.2198 6.84227 26.1387C6.29609 25.9713 5.93634 25.7015 5.65929 25.1991C5.50296 24.7661 5.50219 24.3507 5.57678 23.8997C5.80751 23.4297 6.13934 23.0517 6.63541 22.8533C7.23806 22.7824 7.66765 22.8224 8.20511 23.1209Z" fill="#191A18"/>
<path d="M40.3299 5.9897C40.7651 6.23623 41.113 6.49025 41.3033 6.96316C41.3932 7.53642 41.2251 7.85856 40.9002 8.31117C40.5647 8.69947 40.08 9.15617 39.5522 9.22867C39.1108 9.24799 38.9333 9.2539 38.5776 8.96481C38.5134 8.88254 38.4491 8.80015 38.3829 8.71538C38.3508 8.68322 38.3186 8.65117 38.2855 8.61799C38.2189 7.87469 38.1986 7.1813 38.675 6.57377C39.1936 6.04706 39.5742 5.77304 40.3299 5.9897Z" fill="#006837"/>
<path d="M10.54 5.9877C11.0331 6.27488 11.3404 6.66968 11.5462 7.19767C11.6688 7.6722 11.6946 8.13272 11.6108 8.61602C11.3951 8.90545 11.2468 9.04136 10.9295 9.20011C10.3132 9.27579 9.9815 9.16102 9.48059 8.79704C9.03729 8.40772 8.62036 7.92579 8.56274 7.32621C8.59911 6.88867 8.70093 6.71056 8.98252 6.37708C9.52536 5.96717 9.86797 5.81968 10.54 5.9877Z" fill="#006837"/>
<path d="M45.1966 15.6219C45.1644 15.7825 45.1324 15.9431 45.0992 16.1086C45.0205 16.1106 44.9417 16.1125 44.8606 16.1144C42.1706 16.1817 42.1706 16.1817 39.5095 16.5589C39.0386 16.6273 38.5649 16.6102 38.0903 16.5953C38.0923 16.377 38.0923 16.377 38.1877 16.1086C38.4403 15.9466 38.664 15.826 38.936 15.707C39.0489 15.6566 39.0489 15.6566 39.1639 15.6051C41.1032 14.7678 43.2554 14.8042 45.1966 15.6219Z" fill="#016938"/>
<path d="M11.8075 16.2093C11.8075 16.3378 11.8075 16.4664 11.8075 16.5988C10.9922 16.6572 10.2522 16.5559 9.45295 16.4101C7.9113 16.1344 6.36028 16.1283 4.79858 16.112C4.79858 15.7226 4.79858 15.7226 4.95069 15.5656C7.10915 14.3376 9.80386 15.1117 11.8075 16.2093Z" fill="#016938"/>
<path d="M31.818 17.8486C31.8955 17.9182 31.9731 17.9877 32.053 18.0593C32.1205 18.1189 32.188 18.1783 32.2575 18.2396C32.6764 18.6317 33.0187 19.069 33.3549 19.5317C33.3967 19.5888 33.4386 19.6458 33.4816 19.7046C33.727 20.0521 33.8865 20.3752 33.9999 20.785C33.7445 20.5476 33.5545 20.2855 33.3549 20.0001C31.7502 17.7866 29.429 16.3388 26.7161 15.9005C25.3953 15.7167 24.0115 15.728 22.7078 16.0151C22.5946 16.0389 22.4814 16.0627 22.3648 16.0873C19.9117 16.6684 17.7876 18.1142 16.3861 20.204C16.2319 20.4263 16.0936 20.6061 15.8936 20.785C16.0336 20.2461 16.2963 19.8742 16.6298 19.4405C16.6825 19.3715 16.7351 19.3025 16.7895 19.2314C18.4189 17.13 20.8608 15.7033 23.5132 15.361C26.6066 15.1276 29.4286 15.7975 31.818 17.8486Z" fill="#A4E777"/>
<path d="M10.7036 14.9679C11.0948 15.2682 11.404 15.6342 11.7098 16.0186C11.6777 16.0828 11.6456 16.147 11.6125 16.2133C11.5158 16.1604 11.4192 16.1076 11.3197 16.0532C9.45318 15.0583 7.54836 14.8673 5.50745 15.4182C5.20838 15.5245 4.9648 15.6492 4.70093 15.8238C4.99114 15.1709 5.42258 14.7591 6.06377 14.461C7.67907 13.9117 9.26204 14.0606 10.7036 14.9679Z" fill="#09773F"/>
<path d="M44.2878 14.6929C44.6507 14.9507 44.9051 15.2164 45.0974 15.625C45.0384 15.6061 44.9794 15.5873 44.9186 15.5679C44.6547 15.4859 44.3898 15.4086 44.1239 15.3329C44.0536 15.3121 43.9834 15.2915 43.9109 15.2702C42.1056 14.822 40.2492 15.1731 38.6216 16.0071C38.542 16.0416 38.4625 16.0761 38.3804 16.1117C38.3162 16.0795 38.252 16.0474 38.1858 16.0143C39.6532 14.1436 42.1476 13.5559 44.2878 14.6929Z" fill="#0A7640"/>
<path d="M44.4153 16.1162C44.5117 16.309 44.608 16.5017 44.7074 16.7003C44.6282 16.7012 44.5491 16.7021 44.4675 16.7031C42.6751 16.7288 40.8939 16.7835 39.148 17.2408C38.8976 17.3 38.6611 17.2936 38.4043 17.2905C38.3084 17.2896 38.2125 17.2887 38.1137 17.2878C38.041 17.2866 37.9682 17.2855 37.8932 17.2843C37.881 17.0045 37.881 17.0045 37.8932 16.7003C38.0878 16.5056 38.0878 16.5056 38.3043 16.4968C38.4411 16.5042 38.4411 16.5042 38.5807 16.5117C39.0991 16.5216 39.5711 16.463 40.0774 16.3657C41.5217 16.0937 42.95 16.104 44.4153 16.1162Z" fill="#B7CF9E"/>
<path d="M20.5679 41.613C20.6478 41.6263 20.6478 41.6263 20.7291 41.6398C23.0019 41.9984 25.2832 41.9337 27.5767 41.905C27.2275 42.1824 26.9429 42.286 26.5059 42.3917C26.4058 42.419 26.4058 42.419 26.3037 42.4468C25.6811 42.5983 25.079 42.6014 24.4424 42.5877C24.1281 42.5817 23.8864 42.5834 23.5856 42.6838C23.3509 42.6473 23.3509 42.6473 23.0928 42.5864C22.745 42.4874 22.745 42.4874 22.4174 42.5864C22.223 42.5417 22.0284 42.4963 21.8361 42.4434C21.6288 42.3849 21.6288 42.3849 21.3709 42.3552C21.0807 42.2746 20.9511 42.1354 20.7625 41.905C20.7625 41.8407 20.7625 41.7765 20.7625 41.7102C20.6983 41.6782 20.6341 41.646 20.5679 41.613Z" fill="#579F46"/>
<path d="M7.81408 16.2115C8.46259 16.1736 9.06009 16.2326 9.69407 16.3574C10.4407 16.5036 11.1402 16.5361 11.9026 16.5034C12.0344 16.7672 12.0062 16.9911 12 17.2823C11.0174 17.3651 10.0844 17.1335 9.12816 16.9402C8.62793 16.8427 8.12407 16.7693 7.61938 16.6982C7.68363 16.5375 7.74787 16.3769 7.81408 16.2115Z" fill="#B7CF9E"/>
<path d="M34.0974 35.3851C34.2259 35.3851 34.3544 35.3851 34.4868 35.3851C34.5326 36.1965 34.5367 36.9159 34.0974 37.6241C33.8909 37.8546 33.6753 38.0398 33.416 38.2082C33.3599 38.2448 33.3038 38.2815 33.246 38.3192C32.9251 38.4415 32.6324 38.4285 32.2904 38.4272C32.225 38.428 32.1595 38.4287 32.0921 38.4295C31.7335 38.4281 31.5804 38.4122 31.2744 38.2082C31.3567 38.2057 31.4391 38.2031 31.5238 38.2006C32.3442 38.1596 32.969 38.0896 33.5499 37.4781C33.8503 37.0157 33.9302 36.7058 33.9575 36.1457C33.9904 35.4921 33.9904 35.4921 34.0974 35.3851Z" fill="#A0AFB9"/>
<path d="M29.1329 36.3573C29.2935 36.3573 29.4542 36.3573 29.6196 36.3573C29.668 37.1397 29.6475 37.8151 29.2302 38.4989C29.0239 38.7296 28.8081 38.9146 28.5488 39.083C28.4938 39.1196 28.4389 39.1563 28.3822 39.194C28.0493 39.319 27.7192 39.3057 27.3685 39.302C27.2976 39.3028 27.2267 39.3034 27.1537 39.3042C26.6265 39.3023 26.6265 39.3023 26.4072 39.083C26.4895 39.0805 26.5719 39.078 26.6567 39.0754C27.4768 39.0343 28.0955 38.9615 28.6827 38.3589C28.976 37.8965 29.0634 37.5053 29.0964 36.9596C29.1037 36.8465 29.111 36.7334 29.1185 36.617C29.1233 36.5313 29.128 36.4456 29.1329 36.3573Z" fill="#A1AFB8"/>
<path d="M24.2677 36.6503C24.3962 36.6503 24.5247 36.6503 24.6571 36.6503C24.7465 37.9541 24.7465 37.9541 24.3095 38.5405C23.9043 38.989 23.528 39.2623 22.9223 39.3045C22.7827 39.3049 22.643 39.3045 22.5034 39.3029C22.4324 39.3037 22.3615 39.3045 22.2885 39.3052C21.7614 39.3032 21.7614 39.3032 21.542 39.0839C21.6303 39.0837 21.7185 39.0833 21.8094 39.0831C22.6157 39.0575 23.1896 38.977 23.781 38.4024C24.2317 37.8977 24.2442 37.3027 24.2677 36.6503Z" fill="#A4B3BD"/>
<path d="M42.395 16.1025C42.4883 16.103 42.5816 16.1036 42.6778 16.104C42.8288 16.1045 42.8288 16.1045 42.9829 16.105C43.0889 16.1058 43.1948 16.1066 43.304 16.1074C43.4636 16.1081 43.4636 16.1081 43.6263 16.1088C43.89 16.1099 44.1537 16.1115 44.4174 16.1136C44.5138 16.3063 44.6101 16.499 44.7095 16.6977C43.9064 16.6977 43.1032 16.6977 42.2758 16.6977C42.2115 16.537 42.1473 16.3764 42.0811 16.2108C42.1784 16.1136 42.1784 16.1136 42.395 16.1025Z" fill="#83B38E"/>
<path d="M19.4005 36.2595C19.529 36.2595 19.6575 36.2595 19.7899 36.2595C19.8491 36.9234 19.7244 37.2993 19.3032 37.8171C18.7657 38.3152 18.3624 38.4333 17.6362 38.4255C17.5653 38.4262 17.4944 38.427 17.4213 38.4278C16.8942 38.4259 16.8942 38.4259 16.6748 38.2065C16.7572 38.204 16.8395 38.2015 16.9242 38.1988C17.6729 38.1615 18.3195 38.1234 18.8674 37.57C19.1886 37.1634 19.3032 36.7638 19.4005 36.2595Z" fill="#A3B1BB"/>
<path d="M4.89595 15.2324C4.9602 15.2646 5.02445 15.2967 5.09064 15.3298C5.04245 15.3699 4.99427 15.4101 4.94462 15.4515C4.75637 15.6337 4.75637 15.6337 4.79861 16.0112C5.89083 16.0433 6.98304 16.0755 8.10838 16.1086C8.10838 16.1407 8.10838 16.1728 8.10838 16.2059C7.20888 16.2059 6.3094 16.2059 5.38268 16.2059C5.35055 16.3344 5.31843 16.4629 5.28534 16.5953C5.54232 16.6274 5.79931 16.6596 6.0641 16.6927C6.0641 16.7248 6.0641 16.7569 6.0641 16.79C5.79435 16.7953 5.52469 16.7991 5.25492 16.8022C5.17843 16.8038 5.10195 16.8054 5.02314 16.8071C4.94943 16.8078 4.8757 16.8083 4.79974 16.809C4.73195 16.81 4.66414 16.8111 4.59429 16.8121C4.40922 16.79 4.40922 16.79 4.11719 16.5953C4.13272 15.9737 4.48527 15.6549 4.89595 15.2324Z" fill="#66796D"/>
<path d="M5.38146 16.209C6.18456 16.209 6.98767 16.209 7.81511 16.209C7.78299 16.4339 7.75086 16.6588 7.71776 16.8905C7.62138 16.9386 7.62138 16.9386 7.52307 16.9877C7.52307 16.8914 7.52307 16.795 7.52307 16.6957C6.75209 16.6957 5.98111 16.6957 5.18677 16.6957C5.25102 16.5351 5.31527 16.3744 5.38146 16.209Z" fill="#86B48F"/>
<path d="M27.5755 41.9065C27.2436 42.1986 26.9316 42.2899 26.5047 42.3932C26.3808 42.4256 26.3808 42.4256 26.2545 42.4586C26.1685 42.4791 26.0823 42.4998 25.9937 42.521C25.9129 42.5406 25.832 42.5604 25.7488 42.5806C25.5313 42.5879 25.5313 42.5879 25.3563 42.4461C25.3177 42.3965 25.279 42.347 25.2393 42.2958C25.3677 42.2637 25.4962 42.2316 25.6286 42.1985C24.9861 42.1664 24.3437 42.1343 23.6816 42.1012C23.6816 42.069 23.6816 42.0369 23.6816 42.0038C24.1111 41.9898 24.5404 41.976 24.9698 41.9622C25.1156 41.9576 25.2613 41.9529 25.4071 41.9481C25.6178 41.9412 25.8286 41.9345 26.0393 41.9278C26.1657 41.9237 26.2921 41.9196 26.4224 41.9154C26.8071 41.9062 27.1907 41.9049 27.5755 41.9065Z" fill="#608B41"/>
<path d="M44.8052 15.2324C45.2723 15.4309 45.5362 15.7672 45.7786 16.2059C45.7665 16.498 45.7665 16.498 45.6813 16.6927C45.3601 16.6927 45.0388 16.6927 44.7078 16.6927C44.6115 16.4999 44.5151 16.3072 44.4158 16.1086C44.7532 16.0604 44.7532 16.0604 45.0973 16.0112C45.044 15.6828 44.9945 15.5165 44.8052 15.2324Z" fill="#6C706E"/>
<path d="M28.0615 41.904C27.7084 42.2964 27.3843 42.4219 26.8934 42.5855C26.6662 42.5892 26.4391 42.5897 26.2119 42.5855C26.4354 42.3282 26.6235 42.2325 26.948 42.1353C27.7334 41.8954 27.7334 41.8954 28.0615 41.904Z" fill="#54A146"/>
<path d="M36.4345 21.9529C36.4666 22.0171 36.4987 22.0815 36.5318 22.1476C36.4622 22.3391 36.3837 22.5274 36.3006 22.7134C36.1386 23.0777 36.0104 23.4081 35.9477 23.8025C35.8513 23.7383 35.755 23.674 35.6558 23.6078C35.7125 23.1773 35.8764 22.8762 36.0999 22.5066C36.1622 22.4026 36.2246 22.2985 36.2888 22.1914C36.3369 22.1127 36.385 22.034 36.4345 21.9529Z" fill="#1E291E"/>
<path d="M7.52361 23.7064C7.6867 23.7343 7.84912 23.7665 8.01029 23.8037C8.06507 23.9923 8.06507 23.9923 8.10768 24.1931C8.01029 24.2904 8.01029 24.2904 7.76089 24.2965C7.64344 24.2936 7.64344 24.2936 7.52361 24.2904C7.48641 24.1293 7.45411 23.9669 7.42627 23.8037C7.45839 23.7716 7.49051 23.7395 7.52361 23.7064Z" fill="#EBEBEB"/>
<path d="M28.9382 41.7121C28.399 42.2812 28.399 42.2812 28.0621 42.3934C27.9657 42.3614 27.8693 42.3292 27.77 42.2962C28.1308 41.811 28.3357 41.6958 28.9382 41.7121Z" fill="#59A147"/>
<path d="M30.6898 24.2878C30.7219 24.2878 30.754 24.2878 30.7871 24.2878C30.7979 24.8191 30.779 25.3211 30.6898 25.8453C30.5934 25.8775 30.497 25.9095 30.3977 25.9427C30.4088 25.7399 30.4212 25.537 30.4342 25.3343C30.441 25.2214 30.4478 25.1084 30.4548 24.992C30.4915 24.7057 30.5416 24.5313 30.6898 24.2878Z" fill="#72B347"/>
<path d="M42.5669 23.7064C42.7299 23.7343 42.8924 23.7665 43.0536 23.8037C43.0215 23.9644 42.9894 24.1249 42.9563 24.2904C42.8278 24.2904 42.6993 24.2904 42.5669 24.2904C42.5297 24.1293 42.4974 23.9669 42.4695 23.8037C42.5016 23.7716 42.5338 23.7395 42.5669 23.7064Z" fill="#F6F6F6"/>
<path d="M23.0003 25.6506C23.0645 25.6827 23.1288 25.7148 23.195 25.748C22.9844 26.2433 22.8356 26.5891 22.3188 26.8188C22.345 26.7685 22.3711 26.7183 22.3979 26.6666C22.4931 26.4715 22.5778 26.2714 22.6595 26.0703C22.8056 25.748 22.8056 25.748 23.0003 25.6506Z" fill="#7AB647"/>
<path d="M13.5586 22.2459C13.7881 22.4557 13.9276 22.6545 14.0636 22.9334C14.0971 23.0008 14.1306 23.0682 14.1652 23.1376C14.2401 23.3167 14.2401 23.3167 14.2401 23.5114C14.1437 23.5114 14.0473 23.5114 13.948 23.5114C13.8828 23.3372 13.8179 23.1627 13.7534 22.9882C13.7172 22.891 13.6811 22.794 13.6438 22.6939C13.5586 22.4406 13.5586 22.4406 13.5586 22.2459Z" fill="#203020"/>
<path d="M5.57704 14.7441C5.64128 14.7762 5.70553 14.8084 5.77172 14.8415C5.45047 15.2444 5.17079 15.58 4.70093 15.8149C4.9028 15.3607 5.16251 15.0204 5.57704 14.7441Z" fill="#1E6F47"/>
<path d="M47.3376 27.1111C47.4867 27.5086 47.3989 27.8698 47.3376 28.2792C47.3054 28.2149 47.2734 28.1506 47.2402 28.0845C47.1438 28.1167 47.0474 28.1487 46.9482 28.1819C47.0662 27.8193 47.1924 27.4636 47.3376 27.1111Z" fill="#0F6B34"/>
<path d="M33.7092 29.4458C33.7414 29.5101 33.7734 29.5743 33.8066 29.6406C33.6883 29.8725 33.6883 29.8725 33.5206 30.1394C33.4656 30.2281 33.4104 30.3166 33.3536 30.4078C33.3103 30.4759 33.267 30.5439 33.2225 30.614C33.1582 30.5498 33.094 30.4855 33.0278 30.4193C33.3651 29.9374 33.3651 29.9374 33.7092 29.4458Z" fill="#18783A"/>
<path d="M27.478 34.9998C27.478 35.064 27.478 35.1282 27.478 35.1944C27.1246 35.1944 26.7713 35.1944 26.4072 35.1944C26.7903 34.939 27.0357 34.8523 27.478 34.9998Z" fill="#74B74C"/>
<path d="M26.8937 21.7576C26.958 21.7898 27.0222 21.8219 27.0884 21.855C26.8635 22.0799 26.6387 22.3048 26.407 22.5364C26.3748 22.4722 26.3428 22.408 26.3096 22.3417C26.6747 21.8672 26.6747 21.8672 26.8937 21.7576Z" fill="#102814"/>
<path d="M27.6736 41.8082C27.8342 41.8082 27.9949 41.8082 28.1603 41.8082C28.1282 41.8725 28.0961 41.9367 28.0631 42.003C27.9345 41.9387 27.806 41.8745 27.6736 41.8082ZM27.5763 42.295C27.6406 42.295 27.7048 42.295 27.771 42.295C27.7389 42.3914 27.7067 42.4878 27.6736 42.5871C27.5773 42.5549 27.4809 42.5228 27.3816 42.4897C27.4458 42.4255 27.5101 42.3612 27.5763 42.295Z" fill="#4F8C3E"/>
<path d="M16.0889 29.4458C16.3769 29.7141 16.5792 29.978 16.7703 30.3219C16.6739 30.3219 16.5775 30.3219 16.4783 30.3219C16.0889 29.6649 16.0889 29.6649 16.0889 29.4458Z" fill="#1A793A"/>
</svg>
