<svg width="50" height="50" viewBox="0 0 50 50" fill="none" xmlns="http://www.w3.org/2000/svg">
<path d="M16.4296 6.25781C16.5184 6.30221 16.5184 6.30221 16.609 6.3475C16.6845 6.585 16.749 6.81868 16.8088 7.06025C16.8279 7.1351 16.8471 7.20996 16.8668 7.28708C16.9305 7.53685 16.9931 7.78686 17.0557 8.03689C17.1001 8.21196 17.1446 8.38701 17.1892 8.56204C17.3071 9.026 17.4242 9.49018 17.541 9.95441C17.6576 10.417 17.7749 10.8794 17.8922 11.3417C18.0282 11.8781 18.1642 12.4145 18.2996 12.951C18.4897 13.7042 18.6805 14.4573 18.8781 15.2087C18.908 15.3225 18.9379 15.4364 18.9687 15.5537C19.0222 15.7564 19.0761 15.9591 19.1304 16.1616C19.1533 16.248 19.1761 16.3344 19.1996 16.4234C19.2192 16.4964 19.2388 16.5694 19.2589 16.6445C19.2997 16.8412 19.2997 16.8412 19.2997 17.2C19.3501 17.2077 19.4006 17.2154 19.4525 17.2234C20.3408 17.3717 21.2077 17.605 22.0791 17.8292C22.2539 17.8739 22.4288 17.9186 22.6036 17.9633C22.9695 18.0569 23.3353 18.1507 23.7011 18.2447C24.164 18.3636 24.627 18.4821 25.0901 18.6004C25.4514 18.6928 25.8127 18.7853 26.174 18.8779C26.3443 18.9216 26.5147 18.9652 26.6851 19.0088C27.9039 19.3207 29.1187 19.6461 30.3316 19.9803C30.1309 20.181 30.0359 20.2061 29.7662 20.2748C29.6851 20.2958 29.604 20.3168 29.5205 20.3384C29.4313 20.3608 29.342 20.3832 29.2501 20.4063C29.1563 20.4304 29.0625 20.4545 28.9659 20.4793C28.6544 20.5592 28.3426 20.6382 28.0309 20.7171C27.8143 20.7725 27.5977 20.8279 27.3812 20.8833C26.8679 21.0147 26.3544 21.1454 25.8409 21.2759C25.0907 21.4666 24.3406 21.6583 23.5906 21.8499C23.0517 21.9876 22.5128 22.1251 21.9737 22.2623C21.8739 22.2877 21.774 22.3131 21.6711 22.3393C21.4865 22.3863 21.3018 22.4333 21.1172 22.4802C20.5395 22.6274 19.9641 22.7816 19.3894 22.9401C19.3614 23.0494 19.3334 23.1587 19.3045 23.2713C19.0383 24.3096 18.7719 25.3477 18.5052 26.3858C18.3681 26.9193 18.2311 27.4528 18.0944 27.9864C17.962 28.5029 17.8294 29.0193 17.6966 29.5356C17.6464 29.7311 17.5963 29.9265 17.5462 30.122C17.2238 31.3815 16.8833 32.6341 16.5193 33.8822C16.3063 33.5627 16.2319 33.2474 16.1402 32.8801C16.121 32.8052 16.1019 32.7303 16.0822 32.6532C16.0187 32.4043 15.956 32.1553 15.8933 31.9063C15.8488 31.7315 15.8043 31.5567 15.7598 31.3819C15.6421 30.9194 15.5249 30.4567 15.408 29.9939C15.2912 29.5326 15.174 29.0714 15.0568 28.6102C14.9208 28.0752 14.7849 27.5403 14.6494 27.0053C14.4587 26.2528 14.2676 25.5006 14.0708 24.7497C14.0409 24.6354 14.011 24.5212 13.9802 24.4034C13.9266 24.1995 13.8728 23.9956 13.8185 23.7918C13.7957 23.705 13.7729 23.6183 13.7493 23.5289C13.7298 23.4554 13.7102 23.3819 13.6901 23.3061C13.6492 23.1195 13.6492 23.1195 13.6492 22.8504C13.5455 22.8392 13.4418 22.8279 13.335 22.8163C12.9555 22.7686 12.589 22.6857 12.2193 22.589C12.1182 22.5632 12.1182 22.5632 12.0151 22.5368C11.7935 22.48 11.572 22.4226 11.3506 22.3652C11.1934 22.3248 11.0362 22.2844 10.879 22.244C10.4643 22.1375 10.0497 22.0304 9.6352 21.9233C9.22381 21.817 8.8123 21.7112 8.40079 21.6054C7.91856 21.4814 7.43637 21.3573 6.95434 21.2325C6.27969 21.058 5.60502 20.8836 4.92909 20.714C4.66545 20.6479 4.40194 20.5813 4.13843 20.5146C4.01694 20.4841 3.89537 20.4537 3.77375 20.4237C3.60896 20.383 3.44441 20.3414 3.27988 20.2997C3.1422 20.2654 3.1422 20.2654 3.00173 20.2304C2.79672 20.1597 2.79672 20.1597 2.70703 19.9803C3.84049 19.6605 4.97776 19.3594 6.11911 19.0691C6.28652 19.0264 6.45393 18.9836 6.62133 18.9409C7.05735 18.8295 7.49343 18.7184 7.92951 18.6073C8.62801 18.4294 9.32645 18.2512 10.0249 18.0729C10.2658 18.0114 10.5068 17.9501 10.7478 17.8887C10.8984 17.8503 11.049 17.8119 11.1996 17.7735C11.2711 17.7552 11.3426 17.737 11.4162 17.7183C11.756 17.6314 12.0953 17.5429 12.4338 17.451C12.496 17.4341 12.5581 17.4172 12.6222 17.3999C12.7887 17.3544 12.9551 17.3085 13.1215 17.2626C13.3802 17.2 13.3802 17.2 13.6492 17.2C13.6595 17.1395 13.6698 17.0791 13.6804 17.0168C13.7829 16.4318 13.9094 15.8587 14.0588 15.284C14.0811 15.197 14.1035 15.1099 14.1265 15.0202C14.1996 14.7357 14.2732 14.4513 14.3468 14.167C14.3982 13.9674 14.4496 13.7679 14.5009 13.5684C14.6083 13.1515 14.7159 12.7347 14.8237 12.3179C14.9614 11.7856 15.0986 11.2531 15.2356 10.7206C15.3416 10.3089 15.4477 9.89738 15.554 9.48582C15.6046 9.28956 15.6552 9.09329 15.7057 8.89701C15.7766 8.6221 15.8477 8.34726 15.9188 8.07243C15.9394 7.9925 15.9599 7.91257 15.9811 7.83022C16.1182 7.3021 16.2694 6.77936 16.4296 6.25781Z" fill="#FEE459"/>
<path d="M32.9332 26.1719C32.9924 26.1719 33.0516 26.1719 33.1126 26.1719C33.8229 28.9245 34.5333 31.677 35.2652 34.513C37.2719 35.0203 37.2719 35.0203 39.2788 35.5272C40.7252 35.8929 42.1694 36.2639 43.6064 36.6656C43.5768 36.7248 43.5472 36.784 43.5167 36.845C43.2961 36.9168 43.0799 36.9777 42.8552 37.0339C42.786 37.0519 42.7167 37.0699 42.6453 37.0884C42.4148 37.148 42.1841 37.2065 41.9534 37.265C41.793 37.3063 41.6326 37.3476 41.4722 37.389C41.0484 37.4982 40.6244 37.6065 40.2003 37.7147C39.7722 37.824 39.3444 37.934 38.9165 38.044C38.434 38.1681 37.9516 38.2921 37.4689 38.4154C37.3947 38.4344 37.3204 38.4534 37.244 38.4729C37.1075 38.5078 36.971 38.5427 36.8345 38.5774C36.3096 38.7118 35.7881 38.8549 35.2652 38.9975C34.5548 41.7501 33.8445 44.5027 33.1126 47.3386C33.0534 47.3386 32.9942 47.3386 32.9332 47.3386C32.9076 47.2381 32.8819 47.1376 32.8555 47.034C32.6141 46.0877 32.3726 45.1414 32.131 44.1952C32.0067 43.7087 31.8826 43.2222 31.7585 42.7356C31.6387 42.2663 31.5189 41.797 31.3991 41.3277C31.3533 41.1485 31.3076 40.9692 31.2619 40.7899C31.198 40.5393 31.1339 40.2887 31.0699 40.0381C31.0509 39.9636 31.0319 39.8891 31.0124 39.8123C30.9421 39.5377 30.8703 39.2666 30.7806 38.9975C30.5226 38.8948 30.5226 38.8948 30.1966 38.8192C30.1342 38.803 30.0717 38.7869 30.0074 38.7703C29.8696 38.7349 29.7316 38.7 29.5935 38.6655C29.3712 38.6101 29.1493 38.5533 28.9274 38.4962C28.5055 38.3877 28.0832 38.2806 27.6609 38.1737C26.7981 37.955 25.9357 37.7342 25.0736 37.5126C24.7448 37.4283 24.4158 37.345 24.0867 37.2618C23.8837 37.2097 23.6806 37.1577 23.4775 37.1056C23.3829 37.0819 23.2882 37.0582 23.1907 37.0338C23.1046 37.0115 23.0185 36.9893 22.9298 36.9663C22.8543 36.9471 22.7787 36.9279 22.7009 36.9082C22.5291 36.845 22.5291 36.845 22.4395 36.6656C23.3681 36.4246 24.2967 36.1837 25.2254 35.9428C25.6567 35.8309 26.088 35.719 26.5193 35.6071C26.9362 35.4989 27.3532 35.3907 27.7702 35.2826C27.9285 35.2415 28.0868 35.2004 28.2451 35.1594C29.0894 34.9402 29.9338 34.7222 30.7806 34.513C30.8036 34.4231 30.8266 34.3331 30.8503 34.2405C31.068 33.3894 31.2857 32.5384 31.5034 31.6874C31.6154 31.25 31.7273 30.8125 31.8391 30.3751C31.9472 29.9523 32.0554 29.5295 32.1636 29.1068C32.2047 28.9461 32.2458 28.7855 32.2869 28.6248C32.4963 27.8055 32.7061 26.9865 32.9332 26.1719Z" fill="#FED403"/>
<path d="M16.5195 6.52734C16.7692 6.77704 16.8076 7.06349 16.8904 7.39672C16.9178 7.50377 16.9178 7.50377 16.9458 7.61299C17.0064 7.85064 17.0662 8.08851 17.126 8.32639C17.1684 8.49328 17.2109 8.66016 17.2534 8.82702C17.3659 9.26904 17.4777 9.71124 17.5893 10.1535C17.7006 10.5938 17.8124 11.034 17.9243 11.4741C18.0542 11.9856 18.1841 12.4972 18.3135 13.0088C18.4983 13.7391 18.6838 14.4691 18.8755 15.1975C18.9053 15.311 18.9352 15.4246 18.9659 15.5415C19.0196 15.7453 19.0738 15.949 19.1284 16.1526C19.1514 16.24 19.1745 16.3274 19.1983 16.4174C19.228 16.5286 19.228 16.5286 19.2584 16.6421C19.2999 16.8417 19.2999 16.8417 19.2999 17.2004C19.3504 17.2081 19.4008 17.2159 19.4527 17.2238C20.341 17.3722 21.2079 17.6055 22.0793 17.8296C22.2541 17.8744 22.429 17.9191 22.6038 17.9638C22.9697 18.0573 23.3355 18.1511 23.7013 18.2451C24.1642 18.364 24.6272 18.4825 25.0903 18.6009C25.4516 18.6932 25.8129 18.7858 26.1742 18.8784C26.3445 18.922 26.5149 18.9656 26.6853 19.0092C27.9041 19.3212 29.1189 19.6465 30.3318 19.9808C30.1311 20.1815 30.0361 20.2065 29.7664 20.2753C29.6448 20.3068 29.6448 20.3068 29.5207 20.3389C29.4315 20.3613 29.3422 20.3837 29.2503 20.4068C29.1565 20.4309 29.0627 20.455 28.9661 20.4798C28.6546 20.5597 28.3428 20.6386 28.0311 20.7176C27.8145 20.7729 27.5979 20.8283 27.3814 20.8838C26.8681 21.0151 26.3546 21.1459 25.8411 21.2764C25.0909 21.4671 24.3409 21.6588 23.5908 21.8504C23.0519 21.9881 22.513 22.1256 21.9739 22.2627C21.8741 22.2882 21.7742 22.3136 21.6713 22.3398C21.4867 22.3868 21.302 22.4338 21.1174 22.4806C20.5397 22.6278 19.9643 22.782 19.3896 22.9406C19.3612 23.0511 19.3328 23.1616 19.3035 23.2754C19.0344 24.3217 18.7653 25.3679 18.4961 26.4142C18.3577 26.9519 18.2193 27.4897 18.0811 28.0275C17.9473 28.5474 17.8136 29.0673 17.6798 29.5871C17.629 29.7845 17.5782 29.9819 17.5275 30.1794C17.3912 30.7093 17.2544 31.2391 17.117 31.7688C17.0606 31.9877 17.0054 32.2069 16.9504 32.4262C16.9188 32.5502 16.8871 32.6743 16.8554 32.7983C16.8291 32.9031 16.8028 33.0079 16.7757 33.1158C16.6989 33.3446 16.6989 33.3446 16.5195 33.4343C16.5195 24.555 16.5195 15.6757 16.5195 6.52734Z" fill="#FED403"/>
<path d="M38.9428 2.67188C39.1431 2.97236 39.1879 3.1867 39.2608 3.53928C39.2872 3.66448 39.3137 3.78967 39.3403 3.91485C39.3542 3.98112 39.3682 4.04738 39.3825 4.11566C39.4737 4.54184 39.5728 4.96626 39.6708 5.39092C39.7563 5.76354 39.8387 6.13634 39.9146 6.51104C40.1629 8.07339 40.1629 8.07339 40.923 9.39804C41.3706 9.65164 41.8404 9.69332 42.3461 9.72919C42.8432 9.78031 43.3174 9.92767 43.7983 10.0587C43.9997 10.1097 44.2012 10.1603 44.4028 10.2104C44.5031 10.2354 44.6033 10.2605 44.7066 10.2863C44.9143 10.338 45.1221 10.3897 45.3299 10.4412C45.6342 10.5168 45.9383 10.5932 46.2424 10.6697C46.3356 10.6926 46.4288 10.7155 46.5248 10.739C46.6103 10.7606 46.6958 10.7822 46.7839 10.8045C46.8591 10.8232 46.9342 10.8419 47.0117 10.8611C47.1943 10.9233 47.1943 10.9233 47.3736 11.1027C45.8924 11.5235 44.4014 11.905 42.9101 12.2882C42.5854 12.3717 42.2608 12.4554 41.9362 12.5391C41.8362 12.5647 41.7363 12.5903 41.6333 12.6167C41.5415 12.6404 41.4498 12.6641 41.3553 12.6885C41.2745 12.7092 41.1937 12.73 41.1105 12.7514C40.914 12.8009 40.914 12.8009 40.7366 12.8965C40.6687 13.1005 40.612 13.2997 40.5598 13.5077C40.5431 13.5716 40.5265 13.6355 40.5093 13.7013C40.4543 13.9132 40.4003 14.1253 40.3463 14.3375C40.3084 14.4842 40.2704 14.6308 40.2324 14.7775C40.1324 15.1641 40.0332 15.5509 39.9343 15.9378C39.8332 16.3323 39.7313 16.7266 39.6294 17.1209C39.4296 17.895 39.2308 18.6693 39.0324 19.4439C38.8531 19.3542 38.8531 19.3542 38.7702 19.1068C38.7278 18.9411 38.7278 18.9411 38.6845 18.7719C38.6687 18.7111 38.653 18.6503 38.6367 18.5876C38.5846 18.3858 38.5335 18.1836 38.4824 17.9815C38.4465 17.8415 38.4106 17.7015 38.3746 17.5615C38.2992 17.2677 38.2243 16.9738 38.1498 16.6798C38.0542 16.3027 37.9577 15.9259 37.8608 15.5491C37.7865 15.2599 37.7126 14.9705 37.6388 14.6812C37.6033 14.5422 37.5678 14.4032 37.5321 14.2643C37.4824 14.0701 37.4331 13.8757 37.384 13.6813C37.3559 13.5707 37.3277 13.46 37.2987 13.346C37.2386 13.0759 37.2386 13.0759 37.2386 12.8068C37.1075 12.7791 37.1075 12.7791 36.9738 12.7508C35.789 12.496 34.616 12.1982 33.443 11.8944C33.1087 11.8079 32.7741 11.7225 32.4395 11.637C32.2267 11.582 32.0139 11.527 31.8012 11.472C31.7012 11.4466 31.6013 11.4211 31.4983 11.395C31.4065 11.371 31.3148 11.347 31.2203 11.3223C31.0991 11.2911 31.0991 11.2911 30.9755 11.2592C30.7809 11.1924 30.7809 11.1924 30.6016 11.013C31.9184 10.6273 33.2416 10.2732 34.5716 9.93613C34.8843 9.85683 35.1969 9.77699 35.5095 9.6971C35.7088 9.64639 35.9081 9.5957 36.1074 9.54505C36.2006 9.52123 36.2938 9.49742 36.3898 9.47288C36.4753 9.45127 36.5608 9.42967 36.6489 9.40741C36.7241 9.38832 36.7993 9.36923 36.8767 9.34956C37.0593 9.30891 37.0593 9.30891 37.2386 9.30891C37.2524 9.22488 37.2524 9.22488 37.2663 9.13914C37.3897 8.42038 37.563 7.71819 37.7463 7.01272C37.778 6.88967 37.8097 6.76663 37.8414 6.64357C37.9073 6.38799 37.9734 6.13248 38.0397 5.87701C38.1248 5.5491 38.2093 5.22103 38.2937 4.89291C38.3588 4.63988 38.4242 4.38692 38.4896 4.13398C38.521 4.01292 38.5522 3.89183 38.5833 3.77072C38.6266 3.60259 38.6703 3.43457 38.714 3.26655C38.7388 3.17094 38.7635 3.07533 38.789 2.97682C38.8531 2.76156 38.8531 2.76156 38.9428 2.67188Z" fill="#FED404"/>
<path d="M32.9332 26.1719C32.9628 26.1719 32.9924 26.1719 33.0229 26.1719C33.0229 33.1569 33.0229 40.1419 33.0229 47.3386C32.8415 46.9758 32.7414 46.6257 32.6434 46.2354C32.6243 46.1605 32.6052 46.0857 32.5855 46.0085C32.5224 45.7615 32.46 45.5142 32.3975 45.267C32.3538 45.0952 32.31 44.9235 32.2662 44.7517C32.151 44.2997 32.0363 43.8475 31.9217 43.3953C31.7381 42.6712 31.5537 41.9473 31.3695 41.2233C31.3051 40.9702 31.2409 40.717 31.1767 40.4639C31.1374 40.3091 31.0981 40.1543 31.0588 39.9995C31.041 39.9289 31.0231 39.8583 31.0047 39.7856C30.9371 39.5197 30.8674 39.2579 30.7806 38.9975C30.5226 38.8948 30.5226 38.8948 30.1966 38.8192C30.1342 38.803 30.0717 38.7869 30.0074 38.7703C29.8696 38.7349 29.7316 38.7 29.5935 38.6655C29.3712 38.6101 29.1493 38.5533 28.9274 38.4962C28.5055 38.3877 28.0832 38.2806 27.6609 38.1737C26.7981 37.955 25.9357 37.7342 25.0736 37.5126C24.7448 37.4283 24.4158 37.345 24.0867 37.2618C23.8837 37.2097 23.6806 37.1577 23.4775 37.1056C23.3829 37.0819 23.2882 37.0582 23.1907 37.0338C23.1046 37.0115 23.0185 36.9893 22.9298 36.9663C22.8543 36.9471 22.7787 36.9279 22.7009 36.9082C22.5291 36.845 22.5291 36.845 22.4395 36.6656C23.3681 36.4246 24.2967 36.1837 25.2254 35.9428C25.6567 35.8309 26.088 35.719 26.5193 35.6071C26.9362 35.4989 27.3532 35.3907 27.7702 35.2826C27.9285 35.2415 28.0868 35.2004 28.2451 35.1594C29.0894 34.9402 29.9338 34.7222 30.7806 34.513C30.8036 34.4231 30.8266 34.3331 30.8503 34.2405C31.068 33.3894 31.2857 32.5384 31.5034 31.6874C31.6154 31.25 31.7273 30.8125 31.8391 30.3751C31.9472 29.9523 32.0554 29.5295 32.1636 29.1068C32.2047 28.9461 32.2458 28.7855 32.2869 28.6248C32.4963 27.8055 32.7061 26.9865 32.9332 26.1719Z" fill="#FEE459"/>
<path d="M38.8531 2.76172C38.8827 2.76172 38.9123 2.76172 38.9428 2.76172C38.9428 8.23728 38.9428 13.7128 38.9428 19.3543C38.7814 19.0317 38.6924 18.7625 38.603 18.4157C38.5807 18.3297 38.5807 18.3297 38.5579 18.2419C38.509 18.0531 38.4606 17.8641 38.4123 17.6751C38.3784 17.5435 38.3445 17.412 38.3105 17.2804C38.2396 17.0051 38.1689 16.7297 38.0984 16.4542C38.008 16.101 37.917 15.748 37.8257 15.395C37.7556 15.1235 37.6859 14.852 37.6162 14.5804C37.5827 14.4502 37.5492 14.32 37.5155 14.1898C37.4686 14.008 37.4221 13.8262 37.3758 13.6443C37.3359 13.4891 37.3359 13.4891 37.2953 13.3307C37.2386 13.076 37.2386 13.076 37.2386 12.807C37.1075 12.7792 37.1075 12.7792 36.9738 12.751C35.789 12.4961 34.616 12.1984 33.443 11.8945C33.1087 11.8081 32.7741 11.7226 32.4395 11.6371C32.2267 11.5822 32.0139 11.5272 31.8012 11.4721C31.7012 11.4467 31.6013 11.4213 31.4983 11.3951C31.4065 11.3711 31.3148 11.3472 31.2203 11.3225C31.0991 11.2912 31.0991 11.2912 30.9755 11.2594C30.7809 11.1926 30.7809 11.1926 30.6016 11.0132C31.9184 10.6274 33.2416 10.2734 34.5716 9.93628C34.8843 9.85698 35.1969 9.77714 35.5095 9.69726C35.7088 9.64654 35.9081 9.59586 36.1074 9.5452C36.2006 9.52139 36.2938 9.49757 36.3898 9.47303C36.4753 9.45143 36.5608 9.42982 36.6489 9.40756C36.7241 9.38847 36.7993 9.36938 36.8767 9.34971C37.0593 9.30907 37.0593 9.30907 37.2386 9.30907C37.2477 9.25308 37.2568 9.19709 37.2662 9.1394C37.3896 8.41918 37.5647 7.71627 37.7495 7.00972C37.7814 6.88646 37.8133 6.7632 37.8452 6.63993C37.9283 6.31886 38.0119 5.99791 38.0956 5.67698C38.1812 5.34813 38.2664 5.01917 38.3517 4.69022C38.5184 4.04728 38.6856 3.40446 38.8531 2.76172Z" fill="#FEE459"/>
<path d="M16.4303 6.25781C16.4895 6.28741 16.5487 6.31701 16.6097 6.3475C16.6138 9.82936 16.617 13.3112 16.6189 16.7931C16.6191 17.2038 16.6193 17.6144 16.6196 18.0251C16.6196 18.1069 16.6197 18.1886 16.6197 18.2729C16.6205 19.5983 16.6219 20.9237 16.6236 22.2492C16.6252 23.6083 16.6262 24.9674 16.6266 26.3265C16.6268 27.1657 16.6276 28.005 16.6291 28.8442C16.63 29.419 16.6303 29.9938 16.6301 30.5686C16.63 30.9007 16.6301 31.2328 16.6311 31.5648C16.6321 31.9242 16.6318 32.2835 16.6313 32.6428C16.6318 32.7487 16.6323 32.8546 16.6329 32.9637C16.6325 33.0594 16.6322 33.155 16.6318 33.2536C16.6319 33.3781 16.6319 33.3781 16.632 33.5052C16.6097 33.7029 16.6097 33.7029 16.4303 33.8822C16.4169 30.389 16.4038 26.8957 16.3915 23.4024C16.39 22.9904 16.3886 22.5783 16.3871 22.1663C16.3866 22.0433 16.3866 22.0433 16.3862 21.9177C16.3815 20.588 16.3764 19.2582 16.3712 17.9284C16.3659 16.5648 16.361 15.2013 16.3563 13.8377C16.3535 12.9957 16.3503 12.1537 16.3468 11.3117C16.3445 10.735 16.3424 10.1583 16.3407 9.58163C16.3396 9.24847 16.3385 8.91531 16.3369 8.58215C16.3352 8.22166 16.3342 7.86117 16.3333 7.50068C16.3327 7.39442 16.332 7.28815 16.3314 7.17867C16.3313 7.08271 16.3311 6.98675 16.331 6.88788C16.3307 6.80458 16.3304 6.72128 16.3301 6.63545C16.3406 6.43719 16.3406 6.43719 16.4303 6.25781Z" fill="#FEDF3C"/>
<path d="M44.4139 25.9053C44.6213 26.0006 44.6213 26.0006 44.7726 26.1744C44.8716 26.5308 44.8996 26.7206 44.7446 27.0601C44.5933 27.2507 44.5933 27.2507 44.4139 27.3404C44.086 27.3768 43.9126 27.3596 43.6179 27.2058C43.3869 26.9341 43.3604 26.7837 43.3838 26.435C43.4273 26.2641 43.4273 26.2641 43.6179 26.0399C43.9182 25.8832 44.0799 25.8556 44.4139 25.9053Z" fill="#D9E7EC"/>
<path d="M23.786 11.2842C23.9934 11.3795 23.9934 11.3795 24.1447 11.5533C24.2437 11.9097 24.2717 12.0995 24.1167 12.439C23.9653 12.6296 23.9653 12.6296 23.786 12.7193C23.4581 12.7557 23.2847 12.7385 22.99 12.5847C22.759 12.313 22.7325 12.1626 22.7559 11.814C22.7994 11.643 22.7994 11.643 22.99 11.4188C23.2903 11.2621 23.4519 11.2345 23.786 11.2842Z" fill="#DAE7EC"/>
<path d="M8.72552 4.69623C8.89684 4.73617 8.89684 4.73617 9.12667 4.92116C9.29473 5.26458 9.26723 5.44771 9.16591 5.81245C9.01551 6.04992 8.91017 6.07746 8.63898 6.16C8.30476 6.17337 8.172 6.10406 7.91025 5.90214C7.7716 5.62484 7.79422 5.40039 7.82056 5.09493C8.04987 4.72231 8.31148 4.67302 8.72552 4.69623Z" fill="#DAE7EC"/>
<path d="M3.15639 24.9168C3.40929 25.1289 3.42353 25.2601 3.4647 25.5895C3.42546 25.9034 3.42546 25.9034 3.28532 26.122C2.98432 26.3149 2.79007 26.306 2.43887 26.2621C2.22585 26.1668 2.22585 26.1668 2.08011 25.9931C2.00182 25.6855 1.96089 25.4646 2.05208 25.1578C2.36132 24.7602 2.69106 24.7983 3.15639 24.9168Z" fill="#D8E7EC"/>
<path d="M26.0273 27.873C26.2802 28.0851 26.2944 28.2164 26.3356 28.5457C26.2964 28.8596 26.2964 28.8596 26.1562 29.0782C25.8552 29.2712 25.661 29.2623 25.3098 29.2184C25.0968 29.1231 25.0968 29.1231 24.951 28.9493C24.8613 28.6466 24.8613 28.6466 24.8613 28.3215C25.1964 27.79 25.4226 27.7351 26.0273 27.873Z" fill="#D9E7EC"/>
<path d="M26.5664 42.3144C26.8193 42.5266 26.8335 42.6578 26.8747 42.9871C26.8354 43.301 26.8354 43.301 26.6953 43.5196C26.3943 43.7126 26.2 43.7037 25.8488 43.6598C25.6358 43.5645 25.6358 43.5645 25.4901 43.3907C25.4004 43.088 25.4004 43.088 25.4004 42.7629C25.7355 42.2314 25.9617 42.1765 26.5664 42.3144Z" fill="#D9E7EB"/>
<path d="M38.9434 2.67188C39.1503 2.98224 39.1784 3.20123 39.2124 3.56877C39.1828 3.59837 39.1532 3.62797 39.1227 3.65846C39.1144 3.85766 39.1126 4.05713 39.1132 4.2565C39.1132 4.35137 39.1132 4.35137 39.1133 4.44816C39.1136 4.66168 39.1145 4.8752 39.1154 5.08872C39.1157 5.24117 39.116 5.39361 39.1162 5.54606C39.1168 5.87513 39.1177 6.20421 39.1187 6.53328C39.1204 7.05328 39.1212 7.57328 39.122 8.09328C39.1241 9.57223 39.1273 11.0512 39.1313 12.5301C39.1335 13.3463 39.1351 14.1625 39.136 14.9787C39.1366 15.496 39.138 16.0132 39.1399 16.5304C39.141 16.852 39.1413 17.1735 39.1414 17.495C39.1416 17.6445 39.1421 17.7939 39.1429 17.9433C39.144 18.1469 39.144 18.3504 39.1437 18.554C39.144 18.668 39.1443 18.7821 39.1446 18.8996C39.1227 19.1748 39.1227 19.1748 38.9434 19.4439C38.9434 13.9091 38.9434 8.37435 38.9434 2.67188Z" fill="#FED716"/>
<path d="M30.6995 2.00483C30.8709 2.04477 30.8709 2.04477 31.1007 2.22975C31.2687 2.57317 31.2412 2.75631 31.1399 3.12104C31.0446 3.29482 31.0446 3.29482 30.8709 3.39011C30.2616 3.4578 30.2616 3.4578 29.9291 3.24997C29.7422 2.94625 29.7445 2.75387 29.7946 2.40353C30.0239 2.0309 30.2855 1.98161 30.6995 2.00483Z" fill="#D9E7EC"/>
<path d="M9.79298 37.2008C10.0116 37.3353 10.0116 37.3353 10.1517 37.5596C10.2065 37.8115 10.2104 38.0256 10.1517 38.2771C9.96676 38.5069 9.96676 38.5069 9.70329 38.6358C9.39229 38.6305 9.17517 38.6008 8.90169 38.4509C8.74418 38.1636 8.75076 37.8738 8.80639 37.5596C9.06089 37.1524 9.33478 37.1354 9.79298 37.2008Z" fill="#D9E7EC"/>
<path d="M41.0955 46.6202C41.3192 46.7574 41.3529 46.8554 41.4374 47.1023C41.4574 47.3827 41.4024 47.5377 41.2748 47.7862C41.0593 48.0018 40.9933 47.9944 40.6975 47.9992C40.319 47.9889 40.319 47.9889 40.1033 47.8254C39.9865 47.5218 39.9788 47.3016 40.0192 46.979C40.294 46.5323 40.6165 46.567 41.0955 46.6202Z" fill="#D9E7EC"/>
</svg>
