<svg width="50" height="50" viewBox="0 0 50 50" fill="none" xmlns="http://www.w3.org/2000/svg">
<g clip-path="url(#clip0_1_3025)">
<path d="M33.8409 2.23309C34.1006 2.45317 34.3526 2.68031 34.6039 2.90995C34.7139 3.00788 34.7139 3.00788 34.8262 3.10778C35.5029 3.74172 36.1522 4.57447 36.4615 5.45193C36.5447 5.44739 36.6279 5.44286 36.7136 5.43818C38.4001 5.38794 39.9499 5.75804 41.4477 6.52738C41.5498 6.57855 41.6519 6.62971 41.757 6.68244C43.9305 7.858 45.5549 9.94956 46.2995 12.2926C46.8312 14.0983 46.8232 15.9372 46.4339 17.7708C46.5028 17.7929 46.5718 17.8151 46.6428 17.838C46.9791 17.9921 47.2246 18.2045 47.491 18.4551C47.5424 18.5032 47.5938 18.5513 47.6467 18.6009C49.1147 20.0006 49.9416 21.721 49.9996 23.7548C50.0197 26.0319 49.3217 27.7337 47.8027 29.4052C47.9339 29.6971 48.0814 29.8977 48.3037 30.1262C49.8292 31.8429 50.0785 33.9395 49.9536 36.1512C49.7595 37.8833 48.696 39.4622 47.4269 40.6058C45.7955 41.9039 43.7709 42.4894 41.7001 42.2667C41.2896 42.2198 40.8798 42.1683 40.47 42.1151C40.4167 42.1943 40.3634 42.2737 40.3085 42.3553C37.9037 45.9019 34.549 48.4145 30.3999 49.5455C30.3269 49.566 30.254 49.5866 30.1788 49.6078C28.5686 50.0528 26.8559 50.2522 25.3552 49.4015C24.3477 48.7587 23.6862 47.8523 23.4065 46.6902C23.3188 46.168 23.3385 45.6362 23.337 45.1078C23.3361 44.8984 23.3331 44.689 23.33 44.4797C23.316 42.6888 23.8408 41.2653 25.023 39.9268C25.9268 38.902 26.3651 37.854 26.3276 36.477C26.2333 35.5733 25.9142 34.6026 25.3159 33.9026C25.1439 33.7885 25.1439 33.7885 24.9248 33.8048C24.6978 33.9125 24.4919 34.0248 24.2771 34.1531C22.928 34.9022 21.5607 35.2132 20.0487 35.4668C17.5085 35.894 15.0818 36.6203 12.9971 38.2043C12.9138 38.2673 12.8305 38.3303 12.7447 38.3953C12.0864 38.9089 11.454 39.4618 10.858 40.0467C9.55678 41.2832 7.82456 41.7926 6.06298 41.7698C4.09307 41.693 2.52615 40.8702 1.16711 39.4753C1.08922 39.3972 1.01133 39.319 0.931089 39.2386C0.0511778 38.3107 0.0462555 37.409 0.0492666 36.1962C0.0488221 36.0388 0.0482999 35.8813 0.047711 35.7238C0.0468444 35.3949 0.0470779 35.0661 0.0480445 34.7372C0.0491779 34.3166 0.047189 33.8961 0.0443446 33.4756C0.0425446 33.1508 0.0425778 32.826 0.0431334 32.5012C0.0431445 32.3461 0.0425556 32.1911 0.0413445 32.036C0.0398889 31.8191 0.0409335 31.6025 0.0426112 31.3856C0.0426224 31.2623 0.0426333 31.1392 0.0426555 31.0125C0.118344 30.4931 0.357122 30.1945 0.7535 29.8635C1.11229 29.676 1.42476 29.6285 1.82093 29.6007C3.0839 29.474 4.24855 29.0205 5.14507 28.0853C5.88689 27.1633 6.36384 26.0492 6.64215 24.9078C6.6618 24.8278 6.68147 24.7478 6.70173 24.6653C6.8123 24.1383 6.85783 23.6103 6.9005 23.0746C7.08214 20.8286 7.68973 18.9011 8.90223 16.989C9.04389 16.763 9.16556 16.5431 9.28189 16.3042C9.17523 16.1532 9.17523 16.1532 9.06645 15.9991C3.12248 7.57839 3.12248 7.57839 2.97578 7.37056C2.87818 7.23229 2.78057 7.09403 2.68295 6.95576C2.43598 6.60593 2.18909 6.25604 1.94238 5.90601C1.86813 5.80081 1.86813 5.80081 1.79239 5.69348C1.69405 5.55389 1.59595 5.41411 1.49813 5.27415C1.26476 4.9412 1.02784 4.61315 0.778334 4.29207C0.0314 3.32111 0.0314 3.32111 0 2.79996C0.0916556 2.42111 0.0916556 2.42111 0.299411 2.17058C0.641589 1.99949 0.786633 1.97971 1.16711 2.03004C1.4726 2.18701 1.74487 2.38485 2.02259 2.58609C2.10407 2.6435 2.18556 2.70092 2.26951 2.76008C2.52237 2.93888 2.7737 3.11965 3.02471 3.30102C3.09949 3.35478 3.17428 3.40852 3.25132 3.4639C3.5398 3.67129 3.82794 3.8791 4.11532 4.08799C4.90444 4.66147 5.70497 5.21835 6.50495 5.7765C6.86718 6.02975 7.22831 6.28454 7.58927 6.5396C7.6567 6.58725 7.72414 6.63489 7.79367 6.68399C7.92878 6.77948 8.06389 6.87498 8.19889 6.97049C8.54356 7.21403 8.88823 7.4573 9.233 7.7006C9.37156 7.79834 9.51 7.89612 9.64856 7.99389C9.71712 8.04234 9.78567 8.09067 9.85623 8.14056C10.618 8.67834 11.3798 9.216 12.1417 9.75378C12.2102 9.80223 12.2789 9.85067 12.3497 9.90056C12.4871 9.99767 12.6247 10.0947 12.7621 10.1918C13.1241 10.4473 13.4861 10.7027 13.8483 10.9579C13.9238 11.011 13.9991 11.0641 14.0768 11.1189C14.2209 11.2204 14.3652 11.3221 14.5095 11.4237C14.5746 11.4696 14.6398 11.5156 14.7069 11.5628C14.7681 11.6053 14.8293 11.6478 14.8923 11.6916C15.0502 11.8069 15.0502 11.8069 15.2378 11.9868C15.4806 12.1221 15.6185 12.1119 15.894 12.1072C15.9738 12.1062 16.0537 12.1052 16.1359 12.1041C16.2277 12.1022 16.2277 12.1022 16.3212 12.1002C16.3203 12.0351 16.3195 11.9701 16.3186 11.903C16.3099 11.2258 16.304 10.5487 16.2998 9.87134C16.2978 9.61867 16.2951 9.36589 16.2917 9.11323C16.287 8.74989 16.2848 8.38667 16.283 8.02334C16.28 7.85389 16.28 7.85389 16.2769 7.68102C16.2767 6.89642 16.2767 6.89641 16.5047 6.50874C16.821 6.23928 17.0798 6.14616 17.4929 6.11263C17.7991 6.06823 17.7991 6.06823 17.9459 5.83155C17.9865 5.74257 18.027 5.65359 18.0688 5.56191C18.5685 4.5588 19.26 3.7133 20.0365 2.90995C20.0989 2.84491 20.1615 2.77989 20.2259 2.71289C23.8145 -0.735522 30.017 -0.897488 33.8409 2.23309Z" fill="#E6D4EC"/>
<path d="M33.5033 1.96048C33.8845 2.26112 34.2455 2.58111 34.6037 2.90851C34.6772 2.9738 34.7505 3.03908 34.826 3.10634C35.5027 3.74029 36.1521 4.57303 36.4614 5.45049C36.5445 5.44596 36.6277 5.44142 36.7134 5.43675C38.3999 5.38651 39.9497 5.7566 41.4475 6.52595C41.5496 6.57711 41.6517 6.62828 41.7569 6.681C43.9304 7.85667 45.5547 9.94811 46.2994 12.2912C46.8311 14.0969 46.8231 15.9358 46.4337 17.7693C46.5027 17.7914 46.5716 17.8137 46.6426 17.8366C46.9789 17.9907 47.2244 18.203 47.4908 18.4537C47.5423 18.5018 47.5936 18.5499 47.6466 18.5995C49.1145 19.9991 49.9414 21.7196 49.9994 23.7533C50.0195 26.0305 49.3215 27.7322 47.8025 29.4038C47.9338 29.6957 48.0812 29.8962 48.3036 30.1248C49.8292 31.8415 50.0783 33.938 49.9534 36.1498C49.7594 37.8819 48.6958 39.4608 47.4267 40.6043C45.9436 41.7845 44.0361 42.4543 42.1319 42.3092C41.5747 42.2301 41.0222 42.1236 40.4698 42.0159C40.6032 41.6703 40.7537 41.3406 40.9205 41.0099C42.9773 36.8763 43.6592 32.1303 42.1843 27.6672C42.0118 27.1783 41.8188 26.6982 41.6186 26.2201C41.5859 26.1418 41.5533 26.0633 41.5196 25.9826C40.8868 24.5287 40.0169 23.2125 39.1285 21.9057C38.9538 21.6487 38.7805 21.3909 38.6073 21.133C38.0258 20.2715 37.4389 19.4332 36.7546 18.6492C36.6797 18.5633 36.6047 18.4773 36.5275 18.3889C36.3136 18.1461 36.0955 17.9081 35.8747 17.6716C35.7636 17.5524 35.7636 17.5524 35.6502 17.4309C33.5824 15.2888 30.9399 13.8497 28.151 12.8809C28.0849 12.8569 28.0189 12.8328 27.9508 12.808C26.4516 12.2671 24.8336 12.1193 23.2626 11.9032C23.2472 11.7969 23.2316 11.6904 23.2156 11.5809C23.028 10.3688 22.763 9.332 21.9477 8.37745C21.796 8.188 21.796 8.188 21.7025 7.98022C21.5718 7.74537 21.4525 7.70928 21.2095 7.6014C21.0575 7.49315 20.9068 7.38299 20.7573 7.27143C19.8366 6.62549 18.875 6.42403 17.7876 6.23265C18.1199 5.11522 18.8826 4.16104 19.6452 3.29959C19.705 3.23153 19.7649 3.16348 19.8266 3.09336C23.2597 -0.566724 29.5104 -1.02299 33.5033 1.96048Z" fill="#FD87BF"/>
<path d="M6.2512 26.5713C7.70494 26.867 8.95564 27.9874 9.96642 29.0155C10.0869 29.1361 10.0869 29.1361 10.2096 29.2591C12.2442 31.4025 13.1461 34.3224 13.178 37.2311C13.1651 37.7123 13.1515 38.0193 12.8891 38.4306C12.6112 38.6513 12.3301 38.817 12.0195 38.9879C11.8464 39.1339 11.6772 39.2846 11.5123 39.4401C11.4316 39.5127 11.3511 39.5854 11.268 39.6604C11.1295 39.7874 10.9926 39.9161 10.8585 40.0476C9.5572 41.2844 7.82497 41.7939 6.0631 41.7712C4.09319 41.6944 2.52626 40.8716 1.16723 39.4766C1.08935 39.3985 1.01146 39.3204 0.931216 39.2398C0.0513041 38.312 0.0463706 37.4104 0.0493817 36.1976C0.0489373 36.0401 0.0484262 35.8826 0.0478373 35.7252C0.0469595 35.3963 0.0471928 35.0674 0.0481705 34.7385C0.0492928 34.318 0.0473152 33.8974 0.0444597 33.4768C0.0426708 33.1521 0.042693 32.8273 0.0432485 32.5025C0.0432707 32.3475 0.0426818 32.1924 0.0414707 32.0374C0.040004 31.8205 0.0410483 31.6037 0.0427261 31.3868C0.0427483 31.2637 0.0427595 31.1406 0.0427817 31.0137C0.11846 30.4944 0.357237 30.1958 0.753627 29.8648C1.11242 29.6774 1.42487 29.6297 1.82106 29.6021C3.09804 29.474 4.27563 29.0147 5.16352 28.05C5.44201 27.7088 5.6514 27.345 5.84637 26.9508C5.95788 26.7667 5.95789 26.7667 6.2512 26.5713Z" fill="#FEC9B6"/>
<path d="M1.16711 2.02937C1.4726 2.18633 1.74487 2.38418 2.02259 2.58542C2.10407 2.64283 2.18556 2.70024 2.26951 2.7594C2.52237 2.93821 2.7737 3.11898 3.02471 3.30036C3.09949 3.3541 3.17428 3.40786 3.25132 3.46323C3.5398 3.67061 3.82794 3.87843 4.11532 4.08732C4.90444 4.6608 5.70497 5.21767 6.50495 5.77583C6.86718 6.02907 7.22831 6.28387 7.58927 6.53893C7.6567 6.58658 7.72414 6.63422 7.79367 6.68331C7.92878 6.7788 8.06389 6.8743 8.19889 6.96981C8.54356 7.21336 8.88823 7.45662 9.233 7.69993C9.37156 7.79765 9.51 7.89542 9.64856 7.9932C9.71712 8.04165 9.78567 8.08998 9.85623 8.13987C12.1417 9.75309 12.1417 9.75309 12.3497 9.89987C12.4872 9.99709 12.6249 10.0942 12.7626 10.1913C13.1223 10.4452 13.482 10.6993 13.8415 10.9538C13.916 11.0064 13.9905 11.0591 14.0672 11.1134C14.2089 11.2136 14.3507 11.314 14.4922 11.4143C14.87 11.6814 15.2507 11.9426 15.6368 12.1973C15.3742 12.4599 15.0697 12.5359 14.7263 12.6555C12.7772 13.3656 10.7404 14.6411 9.57523 16.4013C9.12967 16.2539 8.93923 15.8886 8.69523 15.5153C8.59956 15.3724 8.50367 15.2295 8.40767 15.0868C8.35845 15.013 8.30911 14.9393 8.25834 14.8633C8.02034 14.5105 7.77443 14.1635 7.52817 13.8165C7.4295 13.6772 7.33085 13.5378 7.23219 13.3984C7.18318 13.3292 7.13417 13.26 7.08368 13.1888C6.83833 12.8422 6.59361 12.4953 6.34884 12.1484C6.25107 12.0099 6.1533 11.8714 6.05554 11.7329C3.12248 7.57772 3.12248 7.57772 2.97578 7.36989C2.87818 7.23162 2.78057 7.09336 2.68295 6.95509C2.43598 6.60526 2.18909 6.25536 1.94238 5.90534C1.86813 5.80014 1.86813 5.80015 1.79239 5.69281C1.69405 5.55322 1.59595 5.41344 1.49813 5.27348C1.26476 4.94053 1.02784 4.61248 0.778334 4.2914C0.0314 3.32044 0.0314 3.32044 0 2.79929C0.0916556 2.42043 0.0916556 2.42043 0.299411 2.1699C0.641589 1.99882 0.786633 1.97904 1.16711 2.02937Z" fill="#FDDC7C"/>
<path d="M14.5859 18.9451C15.2822 19.337 15.8072 19.927 16.028 20.7049C16.071 21.0561 16.0745 21.4024 16.0707 21.756C16.0699 21.8516 16.0691 21.9472 16.0682 22.0459C16.0475 22.9284 15.9295 23.6417 15.3252 24.3162C14.7174 24.853 14.0797 25.0829 13.2686 25.051C12.5824 24.9391 11.9569 24.5772 11.5305 24.0291C11.0804 23.3144 10.9647 22.7149 10.9806 21.8781C10.9787 21.7789 10.9769 21.6796 10.9749 21.5772C10.9801 20.7774 11.1737 20.115 11.7237 19.5174C12.5435 18.7444 13.5333 18.4709 14.5859 18.9451Z" fill="#505050"/>
<path d="M17.0728 7.51208C17.7617 7.60833 18.2578 7.81067 18.6982 8.36144C19.2608 9.12878 19.294 9.86289 19.2726 10.7812C19.2706 10.9438 19.2706 10.9438 19.2686 11.1097C19.2651 11.375 19.2603 11.6402 19.2542 11.9056C19.1327 11.9114 19.011 11.9174 18.8857 11.9234C18.7213 11.9318 18.557 11.94 18.3927 11.9483C18.3131 11.9521 18.2334 11.956 18.1514 11.96C17.5397 11.9911 16.9309 12.0419 16.3212 12.1011C16.314 11.4938 16.3087 10.8866 16.3051 10.2792C16.3036 10.0727 16.3016 9.866 16.2991 9.65933C16.2956 9.36256 16.2939 9.06578 16.2926 8.76889C16.291 8.67633 16.2896 8.58378 16.288 8.48833C16.2879 8.40222 16.2879 8.31622 16.2879 8.22745C16.2872 8.15167 16.2866 8.07589 16.2859 7.99789C16.3673 7.5396 16.6533 7.46532 17.0728 7.51208Z" fill="#FD9DD1"/>
<path d="M3.22035 31.2628C3.92027 31.5803 4.29121 32.031 4.58911 32.7292C4.75594 33.2298 4.77568 33.7937 4.62691 34.3034C4.3909 34.7754 4.00666 35.0895 3.51366 35.2712C3.05623 35.3153 2.72107 35.2188 2.31599 35.0084C1.62897 34.4308 1.23322 33.7699 1.14087 32.861C1.15995 32.2712 1.36481 31.9398 1.7649 31.5163C2.24066 31.1144 2.63235 31.1047 3.22035 31.2628Z" fill="#D7B3B6"/>
</g>
<defs>
<clipPath id="clip0_1_3025">
<rect width="50" height="50" fill="white"/>
</clipPath>
</defs>
</svg>
