<svg width="50" height="50" viewBox="0 0 50 50" fill="none" xmlns="http://www.w3.org/2000/svg">
<path d="M6.47248 4.0251C6.55128 4.02195 6.63009 4.01879 6.71128 4.01554C7.0447 4.06412 7.20839 4.17051 7.46462 4.38924C7.59857 4.59546 7.69429 4.81309 7.79182 5.03836C8.47332 6.49223 9.69437 7.17615 11.0955 7.8512C11.223 7.91651 11.223 7.91651 11.3531 7.98314C11.6831 8.0321 11.8003 7.93479 12.0625 7.7433C12.1178 7.70054 12.1731 7.65778 12.2301 7.61372C12.3507 7.52604 12.4716 7.43864 12.5926 7.3515C12.6531 7.30738 12.7137 7.26325 12.7761 7.21779C14.7149 5.83175 17.0683 5.03448 19.3757 4.52645C19.4612 4.50733 19.5467 4.48821 19.6348 4.46851C21.3191 4.1216 23.0247 4.00883 24.741 4.01846C25.0277 4.01983 25.3143 4.01847 25.601 4.01686C30.0037 4.0126 34.6783 5.08918 38.2001 7.8512C39.2962 7.32982 39.2962 7.32982 40.311 6.66907C40.3687 6.62618 40.4264 6.5833 40.4858 6.53911C41.1036 6.04351 41.4671 5.39356 41.7992 4.68478C41.9134 4.45433 41.9961 4.30851 42.1792 4.12537C42.6351 3.98663 43.1052 3.9221 43.5404 4.15143C44.5601 4.98025 45.163 6.45425 45.3328 7.7285C45.5163 9.83011 45.0901 12.0764 43.7149 13.7355C43.6728 13.7793 43.6307 13.8232 43.5873 13.8684C43.4978 14.0234 43.4978 14.0234 43.5705 14.2375C43.688 14.5206 43.8097 14.8012 43.935 15.0809C45.1532 17.8149 45.96 20.7763 45.9915 23.7816C45.9925 23.8744 45.9936 23.9671 45.9947 24.0626C46.0135 26.1004 46.007 28.0647 45.5462 30.0584C45.524 30.1553 45.5019 30.2521 45.4791 30.3519C44.7802 33.3156 43.5934 36.154 41.7465 38.5866C41.6903 38.6608 41.6341 38.7349 41.5763 38.8113C41.1296 39.3841 40.64 39.9163 40.1421 40.4443C40.0805 40.5105 40.0189 40.5766 39.9555 40.6448C39.4629 41.1575 38.9181 41.5914 38.3517 42.0186C38.2545 42.092 38.1577 42.1658 38.0613 42.2402C34.799 44.7566 30.3758 45.9333 26.2966 45.9499C26.2019 45.9504 26.1072 45.9509 26.0097 45.9514C25.8098 45.9522 25.6099 45.9527 25.41 45.953C25.1121 45.9539 24.8142 45.9565 24.5163 45.9591C19.1265 45.9843 13.9085 44.3109 9.99776 40.5287C9.9305 40.4658 9.86323 40.4029 9.79393 40.3381C9.23599 39.8038 8.77185 39.2027 8.309 38.5866C8.27228 38.5382 8.23556 38.4897 8.19773 38.4397C7.62713 37.6822 7.14795 36.8913 6.70468 36.0535C6.67574 35.9993 6.6468 35.9452 6.61699 35.8893C5.65355 34.0731 5.00019 32.1359 4.5304 30.1376C4.51465 30.0721 4.4989 30.0065 4.48268 29.939C4.1447 28.4273 4.04558 26.9202 4.05408 25.3748C4.05544 25.0824 4.05408 24.79 4.05247 24.4975C4.05096 22.9334 4.18418 21.3948 4.53568 19.8678C4.5623 19.7492 4.5623 19.7492 4.58946 19.6281C4.91156 18.231 5.33893 16.8492 5.9233 15.5384C5.94719 15.4845 5.97108 15.4307 5.9957 15.3752C6.06187 15.2279 6.12974 15.0813 6.19772 14.9348C6.2862 14.68 6.31219 14.5928 6.19805 14.3529C6.06457 14.1861 6.06457 14.1861 5.89724 14.0205C4.43519 12.4096 3.91723 10.2258 4.01054 8.09343C4.13017 6.59093 4.76778 5.17727 5.8603 4.13593C6.07384 4.02916 6.23392 4.03129 6.47248 4.0251Z" fill="#B41511"/>
<path d="M15.2914 18.0048C16.2266 18.3367 17.1063 18.7514 17.8509 19.4191C17.915 19.4763 17.9791 19.5336 18.0452 19.5926C19.0221 20.5153 19.62 21.661 19.6697 23.01C19.6777 23.9474 19.5826 24.9248 18.9486 25.6675C18.5271 26.0931 18.1719 26.3073 17.5659 26.3747C16.933 26.3092 16.5213 26.0089 16.1232 25.5227C15.5896 24.7304 15.4846 23.8145 15.5711 22.881C15.7333 22.2839 16.0002 21.665 16.4999 21.2767C16.8015 21.1134 17.1089 20.978 17.4287 20.8545C15.8411 20.1777 14.3213 19.718 12.5841 19.646C12.2124 19.6141 11.9737 19.5115 11.709 19.2449C11.5011 18.9257 11.4557 18.6101 11.5181 18.237C12.229 16.9826 14.1731 17.6525 15.2914 18.0048Z" fill="#1A1D1C"/>
<path d="M38.0254 17.6618C38.3384 17.9369 38.521 18.1065 38.5742 18.5326C38.5222 18.9491 38.3527 19.2352 38.0307 19.5036C37.7838 19.5859 37.578 19.6146 37.3199 19.6398C35.6147 19.815 34.1901 20.1545 32.6266 20.8546C32.6939 20.8834 32.7612 20.9121 32.8305 20.9417C33.4291 21.2155 33.8302 21.4522 34.1465 22.0367C34.1811 22.0992 34.2157 22.1617 34.2514 22.2261C34.6685 23.1033 34.5526 24.0332 34.2418 24.9264C33.9902 25.5454 33.5736 26.0111 32.9644 26.2903C32.4506 26.3974 32.07 26.3759 31.6121 26.1221C30.9688 25.6739 30.6623 25.0405 30.4665 24.2994C30.3181 23.3064 30.3497 22.2803 30.769 21.3612C30.7966 21.2909 30.8243 21.2206 30.8528 21.1482C31.4335 19.8045 32.7979 18.791 34.107 18.2316C35.1737 17.827 36.9111 17.2114 38.0254 17.6618Z" fill="#222727"/>
<path d="M17.6821 31.918C18.0158 32.06 18.2753 32.2866 18.5529 32.5143C19.1577 32.9989 19.7909 33.4013 20.4686 33.7756C20.6118 33.8551 20.6118 33.8551 20.7579 33.9362C22.7373 34.9796 25.0365 35.4376 27.2236 34.7889C28.9679 34.2215 30.5492 33.3442 31.9376 32.1472C32.121 32.0024 32.121 32.0024 32.3743 31.918C31.8556 33.7983 30.4656 35.2557 28.8043 36.2043C28.1013 36.5872 27.4184 36.8208 26.6326 36.9843C26.5193 37.0125 26.5193 37.0125 26.4037 37.0413C24.4649 37.4798 22.579 36.9731 20.9066 35.9815C19.4041 35.0132 18.1658 33.6714 17.6821 31.918Z" fill="#1F2222"/>
<path d="M33.4029 22.5882C33.8771 22.982 34.2806 23.5386 34.4003 24.1503C34.3887 24.7536 34.1333 25.3175 33.7334 25.7652C33.3244 26.1413 32.9834 26.3155 32.4266 26.3773C31.8785 26.3206 31.5057 26.1002 31.1283 25.7018C30.7704 25.2601 30.4749 24.7352 30.5056 24.1503C30.6331 23.5202 31.0453 22.9447 31.5482 22.5562C32.1396 22.1832 32.8327 22.1965 33.4029 22.5882Z" fill="#2E3636"/>
<path d="M18.5468 22.5991C19.0395 23.0105 19.3954 23.5184 19.5389 24.1507C19.5389 24.7485 19.2675 25.3229 18.872 25.7655C18.463 26.1417 18.122 26.3159 17.5652 26.3777C17.0171 26.321 16.6443 26.1006 16.267 25.7022C15.9005 25.2508 15.6548 24.7703 15.6548 24.1823C15.8883 23.3943 16.3173 22.8364 17.0058 22.3775C17.5432 22.2036 18.0884 22.2742 18.5468 22.5991Z" fill="#2E3636"/>
<path d="M17.9351 32.6758C18.1218 32.9141 18.2834 33.163 18.4421 33.4206C19.5152 35.1483 21.1932 36.3738 23.1702 36.8977C23.2404 36.9166 23.3106 36.9356 23.383 36.9551C25.2852 37.3817 27.3415 36.9525 28.9964 35.9689C29.082 35.92 29.1675 35.8711 29.2557 35.8208C30.5246 35.0591 31.3774 33.9883 32.0362 32.6758C32.139 32.9842 32.0679 33.0929 31.9308 33.376C31.8863 33.463 31.8863 33.463 31.8409 33.5518C31.8105 33.6119 31.78 33.6719 31.7486 33.7338C30.7917 35.5549 29.2168 36.8771 27.2602 37.5151C25.2365 38.0853 23.2176 37.8705 21.3571 36.9162C20.6674 36.515 20.1006 36.0227 19.5394 35.4622C19.484 35.4078 19.4286 35.3534 19.3715 35.2973C18.7988 34.6917 17.9351 33.539 17.9351 32.6758Z" fill="#920104"/>
<path d="M17.9351 32C18.2236 32.1063 18.4609 32.2285 18.7112 32.4064C19.1094 32.6775 19.5208 32.8928 19.9563 33.0977C20.0332 33.1339 20.1101 33.1702 20.1894 33.2076C22.2831 34.1737 24.5127 34.5989 26.8011 34.1954C26.8587 34.1853 26.9163 34.1752 26.9757 34.1648C28.7428 33.8374 30.5066 33.0675 31.9518 32C32.0354 32.0418 32.0354 32.0418 32.1206 32.0844C29.9361 34.0591 27.2031 35.2628 24.243 35.1407C21.9484 34.975 19.6032 33.6069 17.9351 32.0844C17.9351 32.0566 17.9351 32.0287 17.9351 32Z" fill="#F61323"/>
<path d="M33.1688 21.0787C33.9177 21.4712 34.2204 22.0901 34.4842 22.8815C34.4901 23.0838 34.4913 23.2861 34.4895 23.4884C34.4887 23.5959 34.4879 23.7033 34.4871 23.814C34.4862 23.8964 34.4852 23.9788 34.4842 24.0637C34.4006 24.1055 34.4006 24.1055 34.3153 24.1481C34.2968 24.094 34.2783 24.0399 34.2592 23.9842C34.0382 23.3813 33.7752 22.9594 33.2757 22.5543C32.8449 22.374 32.4417 22.3512 31.9827 22.4224C31.2082 22.7523 30.9313 23.3137 30.6 24.0637C30.5443 24.0637 30.4886 24.0637 30.4312 24.0637C30.4312 23.5064 30.4312 22.9491 30.4312 22.3749C30.459 22.4306 30.4869 22.4864 30.5156 22.5438C30.5713 22.5438 30.627 22.5438 30.6845 22.5438C30.7066 22.4932 30.7287 22.4426 30.7514 22.3904C30.8594 22.195 30.9599 22.0966 31.133 21.958C31.3193 21.8052 31.4865 21.6562 31.6555 21.483C31.7252 21.4151 31.7948 21.3472 31.8666 21.2772C31.9077 21.2337 31.9489 21.1901 31.9913 21.1453C32.4017 20.7718 32.6825 20.8621 33.1688 21.0787Z" fill="#030101"/>
<path d="M38.4531 18.8281C38.481 18.8281 38.5089 18.8281 38.5376 18.8281C38.6102 19.6444 38.6102 19.6444 38.3582 19.968C37.905 20.3621 37.4117 20.3753 36.8383 20.4166C35.7894 20.5072 34.7107 20.6946 33.7563 21.1554C33.5095 21.2669 33.4176 21.2839 33.1494 21.2224C32.9382 21.1394 32.7409 21.0488 32.5425 20.9391C33.2765 20.0318 35.247 19.7771 36.3295 19.6426C36.6309 19.6116 36.932 19.5832 37.2345 19.5644C37.6193 19.5373 37.8861 19.4971 38.1998 19.2503C38.3463 19.0321 38.3463 19.0321 38.4531 18.8281Z" fill="#6F0103"/>
<path d="M11.5173 18.6602C11.5452 18.6602 11.573 18.6602 11.6017 18.6602C11.6209 18.7368 11.64 18.8134 11.6598 18.8924C11.7967 19.2314 11.8782 19.3162 12.1928 19.5045C12.5261 19.5772 12.8614 19.606 13.2008 19.6365C13.3927 19.6569 13.5845 19.6777 13.7763 19.6988C13.8681 19.7088 13.9599 19.7188 14.0544 19.729C15.2144 19.8631 16.5268 20.2051 17.5124 20.8555C17.2115 21.0561 16.9449 21.221 16.5836 21.2777C16.389 21.2233 16.228 21.1393 16.0489 21.0459C15.0823 20.5916 13.9276 20.4585 12.8736 20.3964C12.362 20.3601 12.054 20.2579 11.6545 19.932C11.4385 19.525 11.4914 19.1117 11.5173 18.6602Z" fill="#6F0103"/>
<path d="M30.4319 24.0625C30.4598 24.0625 30.4877 24.0625 30.5164 24.0625C30.5349 24.1339 30.5534 24.2053 30.5724 24.2789C30.7746 25.002 30.9979 25.5993 31.6299 26.0415C32.0492 26.2745 32.4062 26.3179 32.8796 26.2249C33.3866 26.0713 33.6892 25.765 33.9783 25.3291C34.1842 24.9187 34.3187 24.5139 34.4005 24.0625C34.4284 24.0625 34.4562 24.0625 34.485 24.0625C34.5435 24.903 34.3942 25.7022 33.8599 26.3786C33.46 26.7717 33.0105 27.0455 32.4426 27.0706C31.8397 27.0264 31.4964 26.7529 31.0916 26.3318C30.4957 25.6225 30.3755 24.9745 30.4319 24.0625Z" fill="#700203"/>
<path d="M15.5706 24.0625C15.5985 24.0625 15.6263 24.0625 15.655 24.0625C15.6755 24.1359 15.696 24.2092 15.717 24.2848C15.9447 25.0675 16.1736 25.6015 16.8372 26.089C17.2764 26.3255 17.7171 26.3147 18.1882 26.1735C18.7619 25.9344 19.0859 25.4492 19.3175 24.891C19.4192 24.6175 19.4872 24.3496 19.5392 24.0625C19.5671 24.0625 19.5949 24.0625 19.6236 24.0625C19.6821 24.903 19.5329 25.7022 18.9986 26.3786C18.5986 26.7717 18.1492 27.0455 17.5813 27.0706C16.9784 27.0264 16.635 26.7529 16.2303 26.3318C15.6343 25.6225 15.5142 24.9745 15.5706 24.0625Z" fill="#700203"/>
<path d="M31.9521 32C32.0078 32.0279 32.0635 32.0557 32.121 32.0844C31.9632 32.2205 31.8048 32.3558 31.646 32.4908C31.5799 32.548 31.5799 32.548 31.5124 32.6064C31.2257 32.8488 30.9461 33.0262 30.6011 33.1821C30.6011 33.0707 30.6011 32.9592 30.6011 32.8444C30.8094 32.6952 31.0061 32.5713 31.2291 32.4486C31.3469 32.3815 31.4646 32.3143 31.5823 32.247C31.6765 32.1934 31.7706 32.1397 31.8676 32.0844C31.8955 32.0566 31.9234 32.0287 31.9521 32Z" fill="#EE1321"/>
<path d="M17.9351 32C18.3339 32.1371 18.6901 32.347 19.0328 32.5911C19.0328 32.6189 19.0328 32.6468 19.0328 32.6755C18.7697 32.7008 18.6447 32.6983 18.4216 32.5492C18.3638 32.4951 18.306 32.441 18.2464 32.3852C18.1875 32.3314 18.1287 32.2775 18.068 32.222C17.9351 32.0844 17.9351 32.0844 17.9351 32Z" fill="#E0141F"/>
<path d="M31.9513 32C32.0071 32.0279 32.0628 32.0557 32.1202 32.0844C31.7859 32.377 31.7859 32.377 31.4447 32.6755C31.3611 32.6198 31.2775 32.564 31.1914 32.5066C31.4422 32.3394 31.693 32.1723 31.9513 32Z" fill="#DD141F"/>
</svg>
