<svg width="50" height="50" viewBox="0 0 50 50" fill="none" xmlns="http://www.w3.org/2000/svg">
<g clip-path="url(#clip0_3163_42672)">
<path d="M24.9025 5.27344C25.3353 5.6709 25.6407 6.10942 25.9584 6.60172C26.0129 6.68499 26.0674 6.76827 26.1235 6.85407C26.2413 7.0342 26.3588 7.21449 26.4761 7.39494C26.7922 7.88097 27.1103 8.3657 27.4283 8.85048C27.4938 8.95049 27.5593 9.0505 27.6269 9.15354C28.311 10.1957 29.0074 11.2295 29.706 12.262C29.9397 12.6076 30.1734 12.9532 30.4071 13.2988C30.4903 13.4217 30.4903 13.4217 30.5751 13.5471C31.0901 14.3089 31.6013 15.0731 32.1108 15.8386C32.1481 15.8946 32.1854 15.9506 32.2238 16.0084C32.4202 16.3036 32.6166 16.599 32.8127 16.8945C32.686 17.1736 32.5526 17.374 32.3352 17.5895C32.2786 17.6461 32.2219 17.7028 32.1635 17.7612C32.1025 17.8211 32.0416 17.8811 31.9788 17.9428C31.9162 18.0051 31.8536 18.0674 31.7892 18.1316C31.5896 18.3301 31.3894 18.5278 31.1892 18.7256C31.0536 18.8602 30.918 18.9949 30.7825 19.1296C30.4506 19.4593 30.1182 19.7884 29.7854 20.1172C29.9876 20.9019 30.2249 21.6722 30.4855 22.4395C30.5275 22.564 30.5688 22.6887 30.6095 22.8135C30.949 23.8539 31.3738 24.7816 32.3244 25.3906C33.6057 25.9752 34.7934 25.9942 36.133 25.5859C37.1939 25.121 37.9707 24.4236 38.4092 23.344C38.7566 22.3178 38.641 21.2808 38.1838 20.3125C38.027 20.0053 37.869 19.6996 37.7028 19.3974C37.5979 19.1406 37.5979 19.1406 37.6143 18.9408C37.6955 18.75 37.6955 18.75 37.8726 18.6451C37.9505 18.6186 38.0283 18.5921 38.1085 18.5648C38.1976 18.5336 38.2867 18.5024 38.3784 18.4702C38.4768 18.4376 38.5752 18.4049 38.6767 18.3712C38.7796 18.3356 38.8825 18.3 38.9885 18.2633C39.3302 18.1454 39.6725 18.0296 40.0148 17.9138C40.3739 17.7904 40.7327 17.6664 41.0916 17.5424C41.3399 17.4566 41.5883 17.3711 41.8368 17.2857C43.1566 16.8322 44.4698 16.3605 45.7827 15.8875C46.4818 15.6359 47.1811 15.3846 47.8805 15.1339C48.055 15.0712 48.2295 15.0086 48.404 14.9458C48.6393 14.8612 48.8747 14.7771 49.1102 14.6931C49.1787 14.6684 49.2472 14.6437 49.3178 14.6182C49.7825 14.4531 49.7825 14.4531 50.0002 14.4531C49.9438 14.9656 49.86 15.4485 49.7299 15.9487C49.7125 16.0161 49.6951 16.0836 49.6771 16.1531C49.6192 16.377 49.5606 16.6007 49.502 16.8243C49.4601 16.9857 49.4182 17.1471 49.3764 17.3085C49.2628 17.7464 49.1486 18.1841 49.0343 18.6218C48.9134 19.0849 48.7931 19.5482 48.6727 20.0115C48.4185 20.9892 48.1635 21.9667 47.9083 22.9442C47.7322 23.6191 47.5562 24.2941 47.3803 24.9691C47.2583 25.4372 47.1361 25.9054 47.0138 26.3735C46.7978 27.2001 46.5821 28.0268 46.369 28.8542C46.2541 29.3004 46.1387 29.7465 46.023 30.1926C46.0008 30.2783 45.9785 30.3641 45.9556 30.4524C45.6599 31.5893 45.3488 32.7177 44.9745 33.8318C43.7548 37.5724 44.0983 40.5334 44.0432 44.7266C31.4426 44.7266 18.842 44.7266 5.85957 44.7266C5.82735 42.1807 5.79512 39.6348 5.76192 37.0117C5.4519 35.3784 5.14503 33.8612 4.66713 32.2874C4.51048 31.7631 4.36558 31.2356 4.21949 30.7083C4.00877 29.9509 3.79512 29.1946 3.57699 28.4393C3.19118 27.1028 2.8296 25.7611 2.48128 24.4144C2.45601 24.3168 2.43073 24.2191 2.4047 24.1185C2.28081 23.6394 2.15731 23.1602 2.03401 22.681C1.83377 21.9033 1.63035 21.1265 1.42671 20.3498C1.36455 20.1125 1.30254 19.8752 1.24057 19.6379C1.03676 18.8582 0.830585 18.0792 0.620944 17.3011C0.559165 17.0709 0.49742 16.8408 0.435679 16.6106C0.377934 16.3962 0.319525 16.182 0.261084 15.9677C0.226304 15.8383 0.191554 15.7088 0.156838 15.5794C0.126466 15.4674 0.0960929 15.3555 0.0647998 15.2402C0.00555589 14.9662 -0.0131724 14.7321 0.000197318 14.4531C0.742521 14.6443 1.46278 14.8725 2.18335 15.1333C2.28849 15.171 2.39363 15.2086 2.50196 15.2475C2.84616 15.3709 3.19015 15.4949 3.53413 15.6189C3.77473 15.7053 4.01534 15.7917 4.25597 15.8781C4.63138 16.0128 5.00678 16.1475 5.38211 16.2825C6.22521 16.5855 7.06889 16.8869 7.91302 17.1871C8.10435 17.2552 8.29567 17.3233 8.48699 17.3914C8.54915 17.4135 8.61132 17.4356 8.67537 17.4584C8.79938 17.5026 8.92339 17.5467 9.0474 17.5908C9.35062 17.6988 9.65387 17.8066 9.95716 17.9143C10.2948 18.0342 10.6323 18.1544 10.9697 18.2747C11.1201 18.328 11.1201 18.328 11.2735 18.3823C11.3655 18.4152 11.4575 18.448 11.5523 18.4819C11.6321 18.5102 11.7119 18.5386 11.7941 18.5679C12.0046 18.6495 12.2026 18.7432 12.4025 18.8477C12.3405 19.3352 12.1281 19.7365 11.9143 20.1721C11.8427 20.3186 11.7715 20.4652 11.7006 20.612C11.6532 20.7086 11.6532 20.7086 11.6049 20.8071C11.2733 21.5784 11.321 22.5455 11.5847 23.3276C12.0443 24.4161 12.8147 25.0782 13.904 25.5249C14.9345 25.9109 16.2202 25.9839 17.2548 25.5798C18.6792 24.8617 19.1725 23.5395 19.6552 22.0997C19.6863 22.0052 19.6863 22.0052 19.718 21.9088C19.783 21.7124 19.8506 21.517 19.9184 21.3215C19.9606 21.1955 20.0027 21.0695 20.0445 20.9435C20.0821 20.8315 20.1197 20.7195 20.1584 20.6041C20.2235 20.2688 20.191 20.2045 20.0197 19.9219C19.8898 19.7641 19.8898 19.7641 19.7376 19.6176C19.6809 19.5609 19.6242 19.5042 19.5658 19.4458C19.5049 19.3859 19.4439 19.326 19.3811 19.2642C19.3186 19.2019 19.256 19.1396 19.1915 19.0754C18.992 18.877 18.7917 18.6792 18.5915 18.4814C18.4559 18.3468 18.3204 18.2122 18.1849 18.0775C17.853 17.7477 17.5205 17.4186 17.1877 17.0898C17.3524 16.5963 17.6363 16.1913 17.922 15.7616C17.9769 15.6783 18.0318 15.595 18.0883 15.5092C18.2698 15.2342 18.452 14.9596 18.6342 14.6851C18.7617 14.4923 18.8892 14.2995 19.0166 14.1067C20.0174 12.5946 21.0307 11.091 22.0469 9.58922C23.0134 8.16007 23.9638 6.72096 24.9025 5.27344Z" fill="#FABE2C"/>
<path d="M24.9028 5.27344C24.9351 5.27344 24.9673 5.27344 25.0005 5.27344C25.1697 8.29552 25.2982 11.3163 25.3745 14.342C25.3837 14.7037 25.3931 15.0654 25.4028 15.4271C25.4047 15.4991 25.4067 15.571 25.4086 15.6452C25.4362 16.6515 25.4812 17.6556 25.5405 18.6605C26.1754 29.4135 26.1754 29.4135 22.9008 33.1989C20.7759 35.5471 18.05 37.8036 14.7666 38.0076C13.7308 38.0403 12.7214 37.9417 11.6957 37.8076C11.0991 37.7377 10.5013 37.7058 9.90166 37.6733C8.54848 37.5988 7.20456 37.4724 5.85986 37.3047C4.32618 31.4838 4.32618 31.4838 3.62521 28.7841C3.45599 28.1323 3.28644 27.4807 3.11695 26.829C3.05593 26.5944 2.99493 26.3599 2.93392 26.1253C2.43101 24.1915 1.92714 22.258 1.42301 20.3246C1.31734 19.9193 1.21172 19.5141 1.10613 19.1088C0.981575 18.6307 0.856943 18.1526 0.732252 17.6746C0.68615 17.4978 0.640075 17.321 0.594029 17.1442C0.530652 16.9008 0.467176 16.6575 0.403675 16.4142C0.385372 16.3438 0.367069 16.2735 0.348212 16.201C0.266071 15.8866 0.180471 15.5751 0.0851496 15.2644C0.00933997 14.9752 -0.0174715 14.7494 0.000485659 14.4531C0.742809 14.6443 1.46307 14.8725 2.18364 15.1333C2.28878 15.171 2.39392 15.2086 2.50225 15.2475C2.84644 15.3709 3.19043 15.4949 3.53442 15.6189C3.77502 15.7053 4.01563 15.7917 4.25626 15.8781C4.63167 16.0128 5.00706 16.1475 5.38239 16.2825C6.2255 16.5855 7.06918 16.8869 7.91331 17.1871C8.10464 17.2552 8.29596 17.3233 8.48727 17.3914C8.54944 17.4135 8.6116 17.4356 8.67565 17.4584C8.79967 17.5026 8.92368 17.5467 9.04769 17.5908C9.35091 17.6988 9.65416 17.8066 9.95745 17.9143C10.2951 18.0342 10.6326 18.1544 10.97 18.2747C11.1204 18.328 11.1204 18.328 11.2738 18.3823C11.3658 18.4152 11.4578 18.448 11.5526 18.4819C11.6324 18.5102 11.7122 18.5386 11.7944 18.5679C12.0048 18.6495 12.2029 18.7432 12.4028 18.8477C12.3408 19.3352 12.1284 19.7365 11.9145 20.1721C11.843 20.3186 11.7718 20.4652 11.7009 20.612C11.6535 20.7086 11.6535 20.7086 11.6052 20.8071C11.2736 21.5784 11.3213 22.5455 11.585 23.3276C12.0446 24.4161 12.8149 25.0782 13.9043 25.5249C14.9348 25.9109 16.2205 25.9839 17.2551 25.5798C18.6795 24.8617 19.1728 23.5395 19.6555 22.0997C19.6866 22.0052 19.6866 22.0052 19.7183 21.9088C19.7833 21.7124 19.8509 21.517 19.9187 21.3215C19.9609 21.1955 20.003 21.0695 20.0448 20.9435C20.0824 20.8315 20.12 20.7195 20.1587 20.6041C20.2238 20.2688 20.1912 20.2045 20.02 19.9219C19.8901 19.7641 19.8901 19.7641 19.7379 19.6176C19.6812 19.5609 19.6245 19.5042 19.5661 19.4458C19.5052 19.3859 19.4442 19.326 19.3814 19.2642C19.3189 19.2019 19.2563 19.1396 19.1918 19.0754C18.9922 18.877 18.792 18.6792 18.5918 18.4814C18.4562 18.3468 18.3207 18.2122 18.1851 18.0775C17.8533 17.7477 17.5208 17.4186 17.188 17.0898C17.3527 16.5963 17.6366 16.1913 17.9223 15.7616C17.9772 15.6783 18.0321 15.595 18.0886 15.5092C18.2701 15.2342 18.4523 14.9596 18.6345 14.6851C18.762 14.4923 18.8895 14.2995 19.0169 14.1067C20.0178 12.5946 21.0307 11.0907 22.0474 9.58922C22.8366 8.42279 23.615 7.24988 24.3787 6.06654C24.4475 5.96053 24.5162 5.85453 24.587 5.74532C24.6462 5.6534 24.7054 5.56148 24.7664 5.46677C24.8114 5.40297 24.8564 5.33917 24.9028 5.27344Z" fill="#FED843"/>
<path d="M24.9023 29.9805C24.9668 29.9805 25.0312 29.9805 25.0977 29.9805C25.2153 30.1 25.2153 30.1 25.3611 30.2798C25.9444 30.9648 26.5934 31.5879 27.2297 32.2231C27.3706 32.3641 27.5114 32.505 27.6523 32.646C27.9461 32.9399 28.24 33.2337 28.5341 33.5273C28.9115 33.9042 29.2885 34.2815 29.6654 34.6589C29.9555 34.9494 30.2458 35.2396 30.5362 35.5298C30.6754 35.6689 30.8145 35.8081 30.9536 35.9474C31.1471 36.1411 31.341 36.3346 31.5349 36.528C31.5925 36.5858 31.65 36.6435 31.7094 36.7031C32.0913 37.083 32.2587 37.2186 32.7926 37.2225C32.9409 37.2239 32.9409 37.2239 33.0922 37.2254C33.2011 37.2259 33.31 37.2265 33.4221 37.2271C33.5365 37.228 33.6508 37.229 33.7686 37.23C34.0825 37.2326 34.3964 37.2347 34.7104 37.2367C35.0383 37.2388 35.3662 37.2415 35.6941 37.2441C36.3153 37.249 36.9365 37.2533 37.5576 37.2576C38.334 37.2629 39.1104 37.2688 39.8869 37.2747C41.2722 37.2854 42.6576 37.295 44.043 37.3047C44.043 39.7539 44.043 42.2031 44.043 44.7266C31.4424 44.7266 18.8418 44.7266 5.85938 44.7266C5.85938 42.2773 5.85938 39.8281 5.85938 37.3047C6.62853 37.3815 7.39769 37.4583 8.19016 37.5374C9.23141 37.6156 10.2726 37.6692 11.3159 37.7075C11.3831 37.7101 11.4502 37.7126 11.5194 37.7153C14.8618 37.8384 17.7171 37.7117 20.3262 35.3532C21.8953 33.8806 23.2979 32.1855 24.5508 30.438C24.6637 30.2823 24.7824 30.1308 24.9023 29.9805Z" fill="#FABD2B"/>
<path d="M25 30.0781C25.769 30.7373 25.769 30.7373 26.0092 30.9786C26.0641 31.0335 26.119 31.0883 26.1755 31.1449C26.233 31.2029 26.2905 31.2609 26.3498 31.3207C26.4124 31.3835 26.4751 31.4463 26.5396 31.511C26.6744 31.6461 26.809 31.7813 26.9435 31.9167C27.1563 32.1307 27.3694 32.3444 27.5826 32.5581C28.0343 33.0108 28.4855 33.464 28.9368 33.9172C29.4615 34.4442 29.9863 34.9711 30.5116 35.4975C30.7218 35.7084 30.9317 35.9195 31.1416 36.1307C31.2697 36.2591 31.3978 36.3875 31.5259 36.5159C31.6137 36.6044 31.6137 36.6044 31.7032 36.6947C32.0874 37.0789 32.2543 37.2185 32.7926 37.2225C32.9409 37.2239 32.9409 37.2239 33.0922 37.2254C33.2011 37.2259 33.31 37.2265 33.4221 37.2271C33.5365 37.228 33.6508 37.229 33.7686 37.23C34.0825 37.2326 34.3964 37.2347 34.7104 37.2367C35.0383 37.2388 35.3662 37.2415 35.6941 37.2441C36.3153 37.249 36.9365 37.2533 37.5576 37.2576C38.334 37.2629 39.1104 37.2688 39.8869 37.2747C41.2722 37.2854 42.6576 37.295 44.043 37.3047C44.043 39.7217 44.043 42.1387 44.043 44.6289C37.7588 44.6289 31.4746 44.6289 25 44.6289C25 39.8271 25 35.0254 25 30.0781Z" fill="#FE9100"/>
</g>
<defs>
<clipPath id="clip0_3163_42672">
<rect width="50" height="50" fill="white"/>
</clipPath>
</defs>
</svg>
