<svg width="50" height="50" viewBox="0 0 50 50" fill="none" xmlns="http://www.w3.org/2000/svg">
<g clip-path="url(#clip0_1_3124)">
<g filter="url(#filter0_d_1_3124)">
<path d="M18.3438 2.33205C18.8362 2.65655 19.0764 2.99585 19.2156 3.57246C19.3675 4.51166 18.9179 5.2049 18.4271 5.96964C16.8503 8.49567 15.7381 11.3338 15.4747 14.3208C15.468 14.3918 15.4613 14.4628 15.4544 14.5361C15.0103 19.4943 16.5282 24.4632 19.6311 28.346C19.781 28.5223 19.9326 28.6974 20.0857 28.871C20.1741 28.9718 20.2624 29.0726 20.3535 29.1765C22.9997 32.1521 26.5639 34.159 30.4413 35.0383C30.5113 35.0542 30.5813 35.0701 30.6535 35.0864C31.9521 35.365 33.2228 35.4674 34.5464 35.461C34.6643 35.4607 34.6643 35.4607 34.7846 35.4605C36.3379 35.4551 37.7893 35.2972 39.292 34.8975C40.1429 34.6711 41.0619 34.4716 41.8665 34.9295C42.3001 35.2515 42.5603 35.6344 42.731 36.1462C42.8617 37.4431 42.1378 38.2311 41.3599 39.1897C37.4142 43.9919 31.7654 47.0167 25.5805 47.6482C19.3602 48.2069 13.2519 46.3243 8.40447 42.3968C7.92949 41.9895 7.47646 41.5607 7.03052 41.1221C6.88352 40.9779 6.73414 40.8362 6.58448 40.6949C5.88435 40.0222 5.29809 39.2767 4.71566 38.5029C4.64156 38.4055 4.56746 38.308 4.4911 38.2076C0.880868 33.3609 -0.579633 27.1504 0.207093 21.186C0.566424 18.8345 1.20449 16.5592 2.25644 14.4232C2.29764 14.3384 2.33883 14.2537 2.38127 14.1664C3.30877 12.2742 4.43505 10.5607 5.8428 8.99243C5.93408 8.88864 6.02534 8.78484 6.11657 8.68102C8.75109 5.71456 12.1473 3.62256 15.8846 2.33205C15.9676 2.3028 16.0505 2.27354 16.136 2.24339C16.2168 2.21546 16.2977 2.18753 16.3809 2.15874C16.4527 2.13384 16.5245 2.10893 16.5985 2.08326C17.234 1.90445 17.7638 2.02567 18.3438 2.33205Z" fill="#8187F8"/>
<path d="M39.7497 4.47936C40.5268 5.06617 40.7402 6.17387 41.0089 7.05545C41.0914 7.31715 41.1741 7.57879 41.2571 7.84036C41.3866 8.2501 41.5151 8.66012 41.6393 9.07152C41.7208 9.34136 41.8046 9.61039 41.8907 9.8788C41.9715 10.1305 42.0493 10.3832 42.1234 10.6369C42.3156 11.2538 42.3156 11.2538 42.7458 11.7099C43.0115 11.8196 43.2715 11.8934 43.5505 11.9626C43.7358 12.025 43.9208 12.0885 44.1054 12.1532C44.3028 12.218 44.5001 12.2827 44.6977 12.3469C44.9148 12.4184 45.1319 12.4899 45.349 12.5615C45.6865 12.6724 46.0243 12.783 46.362 12.8932C46.6912 13.0009 47.0201 13.1094 47.3491 13.2179C47.4492 13.2504 47.5493 13.2828 47.6525 13.3163C49.2882 13.8575 49.2882 13.8575 49.801 14.6268C50.0493 15.2135 50.0434 15.7557 49.9035 16.3687C49.4912 17.1639 48.9005 17.4561 48.0879 17.722C47.9577 17.766 47.9577 17.766 47.8248 17.8109C47.6399 17.8731 47.4549 17.935 47.2697 17.9964C46.9821 18.0919 46.6951 18.1891 46.4081 18.2868C45.622 18.5533 44.8366 18.8171 44.0384 19.0453C43.9388 19.0748 43.839 19.1041 43.7363 19.1345C43.564 19.1843 43.3906 19.2308 43.2164 19.273C42.8914 19.3679 42.6856 19.4412 42.5175 19.7466C42.4873 19.8283 42.4572 19.91 42.4261 19.9941C42.3918 20.0864 42.3575 20.1785 42.3222 20.2734C42.1459 20.7776 41.9764 21.2835 41.8118 21.7915C41.7356 22.0235 41.6595 22.2556 41.5833 22.4876C41.4648 22.8493 41.3467 23.211 41.2291 23.573C41.1147 23.9251 40.999 24.2769 40.8832 24.6286C40.8485 24.7365 40.8137 24.8445 40.7781 24.9556C40.5194 25.7371 40.2635 26.3476 39.5543 26.8204C38.966 27.0762 38.4674 27.1071 37.8572 26.9036C37.1775 26.5453 36.8467 26.2411 36.594 25.5123C36.5694 25.4424 36.5446 25.3725 36.5192 25.3006C36.295 24.6537 36.0959 23.9983 35.8927 23.3445C35.7902 23.0175 35.6876 22.6905 35.5848 22.3636C35.5152 22.1395 35.447 21.9149 35.3799 21.6899C35.2813 21.3607 35.1777 21.0334 35.073 20.7061C35.0444 20.6056 35.0157 20.5053 34.9862 20.402C34.8131 19.877 34.8131 19.877 34.4233 19.5057C34.1557 19.3951 33.8903 19.3145 33.6113 19.2378C33.4156 19.1718 33.2201 19.1052 33.025 19.0379C32.8132 18.9687 32.6015 18.8998 32.3896 18.8312C32.1576 18.755 31.9255 18.6789 31.6935 18.6026C31.332 18.4842 30.9702 18.3661 30.6082 18.2486C30.256 18.1341 29.9043 18.0184 29.5525 17.9025C29.3907 17.8505 29.3907 17.8505 29.2256 17.7974C28.4496 17.5406 27.8235 17.2845 27.3607 16.5737C27.1091 15.9507 27.0907 15.3564 27.3391 14.7305C27.6082 14.2195 27.9489 13.9028 28.4805 13.683C28.591 13.6488 28.7015 13.6145 28.8153 13.5792C29.0041 13.5196 29.0041 13.5196 29.1966 13.4589C29.2632 13.4383 29.33 13.4178 29.3987 13.3966C29.6089 13.3314 29.8185 13.2644 30.0279 13.1968C30.6232 13.0047 31.2187 12.8139 31.8164 12.6294C32.1829 12.5161 32.548 12.3989 32.9124 12.2792C33.0509 12.2345 33.1898 12.1913 33.3292 12.1496C34.104 11.9368 34.104 11.9368 34.6975 11.4351C34.808 11.1689 34.8777 10.9111 34.9433 10.6306C35.0075 10.4359 35.0731 10.2414 35.14 10.0475C35.2078 9.83714 35.2754 9.62676 35.3428 9.41618C35.4179 9.18513 35.4932 8.95401 35.5685 8.72294C35.6855 8.36321 35.8019 8.00334 35.9171 7.64303C36.0295 7.29219 36.1439 6.94204 36.2586 6.59194C36.2923 6.48508 36.3258 6.37822 36.3606 6.26812C36.6133 5.50417 36.9154 4.82839 37.6138 4.3865C38.3341 4.12597 39.052 4.12481 39.7497 4.47936Z" fill="#8187F8"/>
</g>
</g>
<defs>
<filter id="filter0_d_1_3124" x="-3" y="-1" width="56" height="51.7447" filterUnits="userSpaceOnUse" color-interpolation-filters="sRGB">
<feFlood flood-opacity="0" result="BackgroundImageFix"/>
<feColorMatrix in="SourceAlpha" type="matrix" values="0 0 0 0 0 0 0 0 0 0 0 0 0 0 0 0 0 0 127 0" result="hardAlpha"/>
<feOffset/>
<feGaussianBlur stdDeviation="1.5"/>
<feComposite in2="hardAlpha" operator="out"/>
<feColorMatrix type="matrix" values="0 0 0 0 0.288462 0 0 0 0 0.347756 0 0 0 0 1 0 0 0 1 0"/>
<feBlend mode="normal" in2="BackgroundImageFix" result="effect1_dropShadow_1_3124"/>
<feBlend mode="normal" in="SourceGraphic" in2="effect1_dropShadow_1_3124" result="shape"/>
</filter>
<clipPath id="clip0_1_3124">
<rect width="50" height="50" fill="white"/>
</clipPath>
</defs>
</svg>
