<svg width="50" height="50" viewBox="0 0 50 50" fill="none" xmlns="http://www.w3.org/2000/svg">
<path d="M24.9745 4.00018C25.0774 4.00009 25.0774 4.00009 25.1823 4C26.1736 4.00139 27.1126 4.03554 28.0758 4.29128C28.1659 4.31362 28.1659 4.31362 28.258 4.33641C29.7395 4.70595 31.0707 5.32456 32.3432 6.16311C32.6972 6.40045 32.6972 6.40045 33.0916 6.53048C33.3363 6.42628 33.5428 6.31901 33.7689 6.1834C35.4677 5.22909 37.4181 4.51528 39.3613 4.29128C39.4798 4.27656 39.4798 4.27656 39.6006 4.26154C41.6564 4.03874 43.9871 4.2703 45.6858 5.56566C46.9889 6.62589 47.67 7.92827 47.9599 9.57579C47.9966 9.98164 48.0027 10.3832 47.999 10.7906C47.9982 10.9 47.9974 11.0095 47.9966 11.1223C47.9574 13.1949 47.2929 15.1355 46.454 17.0155C45.8015 18.4802 45.7114 19.9522 45.6986 21.5405C45.6972 21.6646 45.6958 21.7887 45.6943 21.9128C45.688 22.4342 45.6826 22.9557 45.678 23.4771C45.6751 23.7983 45.6714 24.1194 45.6672 24.4405C45.6651 24.619 45.6639 24.7975 45.6627 24.976C45.642 26.5285 45.4893 28.1456 44.417 29.3472C43.711 30.0262 42.7384 30.1893 41.7892 30.1838C40.5813 30.1368 39.4273 29.798 38.2855 29.4256C38.108 29.3705 37.9298 29.3241 37.7491 29.2808C37.7023 29.3697 37.6556 29.4586 37.6074 29.5502C37.1353 30.4291 36.6075 31.2111 35.9577 31.9678C35.8935 32.0428 35.8935 32.0428 35.8279 32.1193C35.1373 32.9154 34.3795 33.6625 33.5086 34.2619C33.33 34.384 33.33 34.384 33.3155 34.6604C33.3895 35.2436 33.5625 35.7637 33.9872 36.1775C33.9872 36.2366 33.9872 36.2957 33.9872 36.3566C34.0353 36.3802 34.0833 36.4037 34.1328 36.428C35.5692 37.1556 35.5692 37.1556 35.7786 37.7002C35.8326 38.1409 35.84 38.5336 35.6722 38.9485C35.3695 39.2931 35.0834 39.5463 34.6153 39.6024C33.1644 39.6488 31.7138 38.9469 30.6323 38.0171C30.2347 37.6201 29.9186 37.1758 29.5984 36.7149C29.5094 36.5951 29.42 36.4755 29.3297 36.3566C29.0637 36.4157 28.7977 36.4749 28.5236 36.5358C28.494 36.6595 28.4645 36.7833 28.434 36.9108C27.7103 39.5344 26.4278 42.1514 24.6722 44.2386C24.6296 44.2898 24.5869 44.341 24.543 44.3937C23.9435 45.1053 23.3859 45.7605 22.4155 45.8886C21.4653 45.9283 20.865 45.6473 20.1605 45.0339C19.7958 44.6131 19.7915 44.1491 19.8019 43.6151C19.8551 43.1841 20.0531 42.8969 20.2833 42.5368C21.1528 41.0157 21.4425 39.4438 21.4981 37.7057C21.502 37.5932 21.5058 37.4807 21.5098 37.3648C21.5193 37.0885 21.5284 36.8121 21.5373 36.5358C21.2713 36.4767 21.0053 36.4175 20.7312 36.3566C20.6782 36.428 20.6252 36.4993 20.5706 36.5729C20.4247 36.7689 20.2779 36.9643 20.1304 37.1592C20.0211 37.3042 19.9121 37.4496 19.8065 37.5973C18.982 38.6945 17.4626 39.3118 16.1632 39.5811C15.6173 39.6466 15.2 39.6256 14.7301 39.3124C14.4276 39.0507 14.3029 38.8701 14.2578 38.4657C14.24 37.9747 14.2428 37.6 14.5664 37.2131C14.9644 36.873 15.4481 36.6604 15.9194 36.4406C16.1288 36.3266 16.1584 36.2167 16.2528 35.9984C16.3119 35.9097 16.371 35.821 16.4319 35.7297C16.6895 35.2904 16.7281 34.7941 16.7902 34.2966C16.74 34.2739 16.6897 34.2513 16.638 34.228C16.2321 34.0102 15.8907 33.6928 15.5362 33.4009C15.4783 33.3542 15.4203 33.3076 15.3606 33.2595C14.9545 32.9251 14.6205 32.5487 14.2823 32.1469C14.1813 32.034 14.1813 32.034 14.0783 31.9188C13.453 31.2036 12.9732 30.4313 12.4979 29.6112C12.3998 29.4455 12.3998 29.4455 12.2222 29.2808C12.1139 29.3164 12.0056 29.3521 11.894 29.3889C10.1219 29.9658 8.08832 30.6107 6.28274 29.807C5.44769 29.348 4.96618 28.5472 4.70411 27.6496C4.46412 26.6597 4.41591 25.7022 4.40776 24.6876C4.40637 24.5639 4.40492 24.4402 4.40341 24.3164C4.39715 23.7957 4.39174 23.2749 4.3871 22.7541C4.36992 19.6202 4.36992 19.6202 3.46135 16.6461C3.0553 15.7383 2.71559 14.8359 2.45931 13.8751C2.4406 13.8072 2.4219 13.7394 2.40263 13.6695C1.943 11.9485 1.7725 9.81885 2.45931 8.1427C2.5018 8.03694 2.54428 7.93118 2.58806 7.82222C3.2418 6.37016 4.36728 5.4086 5.81216 4.77061C6.65673 4.45054 7.556 4.23386 8.46036 4.20171C8.55262 4.19813 8.64487 4.19455 8.73991 4.19087C11.4011 4.13951 14.5539 4.89743 16.7657 6.43112C16.9664 6.55575 16.9664 6.55575 17.1887 6.478C17.4448 6.33601 17.6916 6.18532 17.9378 6.02666C20.1093 4.66732 22.4091 4.0022 24.9745 4.00018Z" fill="#A5AFBB"/>
<path d="M8.73991 4.18993C11.5488 4.13573 14.7457 4.98993 17.0589 6.61911C16.945 6.96076 16.7927 7.04843 16.5103 7.26848C15.8139 7.82628 15.2635 8.4121 14.7301 9.12702C14.3623 9.01095 14.021 8.87065 13.6721 8.70717C11.7576 7.87315 9.11997 7.14754 7.08046 7.93429C6.25836 8.35153 5.83265 8.86406 5.53961 9.73755C5.17387 11.782 6.01144 13.9109 6.82015 15.7439C7.73197 17.824 7.76727 19.9204 7.7942 22.1648C7.79818 22.4605 7.80238 22.7563 7.80699 23.052C7.80979 23.2337 7.81222 23.4155 7.81418 23.5972C7.81141 25.1046 7.81141 25.1046 8.49395 26.3968C8.97884 26.8009 9.45656 26.9428 10.0712 26.999C10.1968 27.0107 10.1968 27.0107 10.3248 27.0226C10.4549 27.0343 10.4549 27.0343 10.5876 27.0462C10.6757 27.0544 10.7638 27.0625 10.8546 27.0709C11.0716 27.0909 11.2886 27.1107 11.5057 27.1302C11.5338 27.1984 11.562 27.2667 11.591 27.337C11.6294 27.4294 11.6677 27.5219 11.7072 27.6172C11.7476 27.7149 11.788 27.8126 11.8297 27.9132C11.9636 28.2287 12.1076 28.5383 12.2579 28.8463C12.3118 29.0111 12.3118 29.0111 12.2222 29.2798C12.0757 29.3554 12.0757 29.3554 11.8853 29.4142C11.7802 29.4472 11.7802 29.4472 11.673 29.4809C11.5597 29.5144 11.5597 29.5144 11.4441 29.5485C11.3281 29.5836 11.3281 29.5836 11.2097 29.6194C9.63206 30.0882 7.85622 30.5064 6.28274 29.806C5.44769 29.347 4.96618 28.5463 4.70411 27.6487C4.46412 26.6588 4.41591 25.7013 4.40776 24.6867C4.40637 24.5629 4.40492 24.4392 4.40341 24.3155C4.39715 23.7947 4.39174 23.274 4.3871 22.7532C4.36992 19.6192 4.36992 19.6192 3.46135 16.6451C3.0553 15.7374 2.71559 14.835 2.45931 13.8741C2.4406 13.8063 2.4219 13.7385 2.40263 13.6686C1.943 11.9475 1.7725 9.81792 2.45931 8.14177C2.5018 8.03601 2.54428 7.93025 2.58806 7.82128C3.2418 6.36923 4.36728 5.40767 5.81216 4.76967C6.7592 4.41077 7.72971 4.22912 8.73991 4.18993Z" fill="#77889A"/>
<path d="M45.9729 5.80536C47.1676 6.88282 47.8416 8.2685 47.987 9.87568C47.9989 10.1811 48.0017 10.4846 47.999 10.7903C47.9982 10.8998 47.9974 11.0092 47.9965 11.122C47.9574 13.1946 47.2929 15.1352 46.4539 17.0153C45.8014 18.48 45.7113 19.9519 45.6986 21.5402C45.6972 21.6643 45.6957 21.7884 45.6942 21.9125C45.688 22.434 45.6825 22.9554 45.6779 23.4769C45.675 23.798 45.6713 24.1191 45.6671 24.4403C45.6651 24.6187 45.6639 24.7972 45.6627 24.9757C45.6419 26.5282 45.4893 28.1453 44.417 29.3469C43.711 30.0259 42.7383 30.189 41.7892 30.1835C40.4568 30.1316 38.9345 29.8111 37.7491 29.1909C37.893 28.7359 38.0694 28.2986 38.2529 27.8586C38.282 27.7884 38.3111 27.7182 38.341 27.6459C38.4123 27.4741 38.4837 27.3025 38.5552 27.1308C38.6202 27.1241 38.6852 27.1174 38.7522 27.1104C39.0486 27.0791 39.3449 27.0462 39.6412 27.0133C39.7946 26.9974 39.7946 26.9974 39.9512 26.9813C40.7197 26.8941 41.2686 26.7642 41.7796 26.1456C42.2754 25.3054 42.2396 24.3734 42.2495 23.4232C42.2525 23.2265 42.2554 23.0298 42.2584 22.8332C42.2626 22.5288 42.2666 22.2245 42.2702 21.9202C42.2827 20.8901 42.3027 19.8646 42.3985 18.8385C42.4054 18.7644 42.4122 18.6904 42.4193 18.6142C42.5497 17.3526 42.9863 16.2501 43.5045 15.1018C43.8765 14.2674 44.1509 13.4156 44.3771 12.5313C44.3944 12.4656 44.4116 12.4 44.4294 12.3324C44.6912 11.2666 44.7547 9.92458 44.198 8.94853C43.7896 8.2836 43.1653 7.99677 42.4381 7.7733C41.9887 7.66684 41.5452 7.66759 41.0855 7.67219C40.9542 7.6731 40.9542 7.6731 40.8202 7.67403C40.1987 7.68292 39.6086 7.72669 39.003 7.87372C38.8999 7.89773 38.7968 7.92175 38.6906 7.94649C37.6995 8.19348 36.7007 8.50853 35.7954 8.98772C35.5099 9.12767 35.5099 9.12767 35.2412 9.0381C35.1088 8.88981 34.9827 8.73586 34.8605 8.57906C34.3027 7.88272 33.7169 7.33225 33.002 6.7989C33.1296 6.41587 33.4058 6.33027 33.7465 6.15513C33.8143 6.11994 33.8822 6.08474 33.9521 6.04848C35.6279 5.19813 37.4859 4.50717 39.3613 4.291C39.4403 4.28118 39.5192 4.27137 39.6006 4.26126C41.7985 4.02304 44.2382 4.31715 45.9729 5.80536Z" fill="#77889A"/>
<path d="M43.7753 8.34167C44.53 9.11871 44.6864 9.94632 44.6841 10.9923C44.6446 12.7649 43.9006 14.4596 43.1899 16.0571C42.7997 16.9618 42.5808 17.8567 42.4888 18.8334C42.4812 18.9141 42.4736 18.9949 42.4657 19.0781C42.3668 20.2186 42.3693 21.3628 42.3586 22.5068C42.3264 25.6402 42.3264 25.6402 41.6505 26.3854C40.7765 27.1741 39.6786 27.0834 38.5548 27.13C38.5711 27.0734 38.5874 27.0168 38.6041 26.9585C39.2524 24.6515 39.5183 22.047 38.9131 19.6958C38.8929 19.616 38.8727 19.5362 38.8519 19.4539C38.7387 19.0088 38.622 18.5647 38.503 18.121C38.3498 17.5452 38.226 16.9657 38.107 16.3818C38.0755 16.2455 38.0438 16.1093 38.0118 15.9731C37.9423 15.6666 37.8974 15.3609 37.8551 15.0495C37.5336 12.9419 36.7164 10.918 35.4199 9.21636C35.6622 8.92021 35.9838 8.79296 36.3268 8.64537C36.3894 8.61815 36.4521 8.59094 36.5166 8.5629C37.2083 8.27111 37.921 8.06932 38.6444 7.87284C38.7459 7.84109 38.8473 7.80934 38.9519 7.77663C40.4341 7.39189 42.5419 7.30906 43.7753 8.34167Z" fill="#FEBEC4"/>
<path d="M9.05905 7.55471C9.20339 7.55504 9.20339 7.55504 9.35065 7.55537C11.1319 7.59514 13.1231 8.17534 14.6403 9.12775C14.4748 9.4242 14.3068 9.71597 14.1238 10.0021C12.9872 11.7854 12.3745 13.6298 12.0554 15.7176C11.8936 16.7631 11.6865 17.7577 11.3591 18.7644C10.561 21.2489 10.5903 24.277 11.4365 26.7426C11.5054 26.9518 11.5054 26.9518 11.5054 27.1309C11.2067 27.1236 10.9082 27.1135 10.6097 27.1029C10.4841 27.0999 10.4841 27.0999 10.356 27.0968C9.5942 27.0675 8.98035 26.8995 8.3705 26.4144C7.66603 25.4947 7.73347 24.4456 7.72148 23.3358C7.71853 23.1438 7.71555 22.9518 7.71256 22.7598C7.70835 22.4639 7.70437 22.168 7.70082 21.8721C7.68812 20.8592 7.66657 19.8511 7.57243 18.842C7.5656 18.7678 7.55876 18.6936 7.55172 18.6171C7.42163 17.3538 6.98436 16.2515 6.46648 15.1013C5.72251 13.4295 4.9571 11.2124 5.5603 9.38526C5.86695 8.67762 6.33587 8.20963 7.02698 7.8738C7.70039 7.6352 8.3476 7.55301 9.05905 7.55471Z" fill="#FEBEC4"/>
<path d="M37.6591 8.23438C37.7769 8.37323 37.7769 8.37323 37.8953 8.56956C37.9393 8.6421 37.9833 8.71464 38.0286 8.78939C38.0748 8.86855 38.121 8.94772 38.1685 9.02929C38.2163 9.11025 38.264 9.19121 38.3132 9.27462C38.755 10.0377 39.1271 10.8182 39.4505 11.638C39.4925 11.7437 39.5345 11.8495 39.5778 11.9584C40.0323 13.2097 40.2468 14.5484 40.4455 15.8609C40.5562 16.5904 40.7355 17.2763 40.9552 17.9805C41.1503 18.607 41.3077 19.2313 41.421 19.8782C41.4393 19.9796 41.4577 20.081 41.4766 20.1854C41.7761 22.1393 41.6745 24.19 41.2747 26.1214C41.2394 26.3423 41.2363 26.5516 41.2418 26.775C40.8546 26.9567 40.4703 27.0097 40.0495 27.0549C39.9849 27.0626 39.9203 27.0703 39.8537 27.0783C39.4182 27.1275 38.993 27.1402 38.5548 27.1332C38.5711 27.0767 38.5874 27.0201 38.6041 26.9618C39.2524 24.6548 39.5183 22.0503 38.9131 19.6991C38.8929 19.6193 38.8727 19.5394 38.8519 19.4572C38.7387 19.0121 38.622 18.5679 38.503 18.1243C38.3498 17.5484 38.226 16.9689 38.107 16.3851C38.0755 16.2488 38.0438 16.1126 38.0118 15.9764C37.9423 15.6699 37.8974 15.3641 37.8551 15.0527C37.5336 12.9451 36.7164 10.9213 35.4199 9.21962C35.6053 9.01689 35.7667 8.8983 36.0189 8.79068C36.0815 8.76366 36.1441 8.73664 36.2085 8.70881C36.2734 8.68156 36.3383 8.65431 36.4052 8.62624C36.4701 8.59829 36.5349 8.57035 36.6018 8.54157C37.3195 8.23438 37.3195 8.23438 37.6591 8.23438Z" fill="#FE8997"/>
<path d="M12.4013 8.23438C13.2274 8.3524 13.9113 8.74532 14.6405 9.13006C14.4194 9.52233 14.1896 9.9042 13.9463 10.2832C12.895 11.9704 12.3547 13.7631 12.0556 15.72C11.8938 16.7655 11.6867 17.76 11.3594 18.7667C10.5612 21.2512 10.5905 24.2793 11.4367 26.7449C11.5056 26.9541 11.5056 26.9541 11.5056 27.1332C11.2051 27.1233 10.9047 27.1116 10.6043 27.0996C10.5199 27.0969 10.4354 27.0941 10.3484 27.0912C9.87349 27.0714 9.43866 27.0506 8.9977 26.8645C8.80957 26.5752 8.78737 26.2163 8.729 25.8793C8.70394 25.7573 8.67887 25.6353 8.65377 25.5133C8.2833 23.5651 8.31966 21.4584 8.729 19.5199C8.74337 19.4509 8.75775 19.3819 8.77256 19.3109C8.91107 18.6597 9.0705 18.0222 9.29195 17.3938C9.50303 16.7259 9.61357 16.0291 9.71624 15.3377C10.1049 12.7278 10.9367 10.4359 12.4013 8.23438Z" fill="#FE8997"/>
<path d="M16.7901 34.3867C17.2159 34.5388 17.5919 34.7616 17.9825 34.9857C18.5259 35.2928 19.0723 35.5767 19.6451 35.8254C19.7041 35.8511 19.7631 35.8767 19.824 35.9031C20.0928 36.017 20.3549 36.1197 20.6415 36.1781C20.4549 37.1504 19.5305 37.9758 18.7588 38.5142C17.7602 39.1568 16.4871 39.7684 15.2674 39.5817C14.8887 39.4414 14.6322 39.2633 14.3717 38.9547C14.219 38.4965 14.1845 37.977 14.3476 37.5157C14.6962 36.9531 15.3411 36.7109 15.9192 36.4412C16.1287 36.3272 16.1582 36.2173 16.2527 35.9989C16.3118 35.9084 16.3709 35.8179 16.4318 35.7246C16.6743 35.3102 16.7256 34.8562 16.7901 34.3867Z" fill="#E7E7E7"/>
<path d="M33.2704 34.3867C33.2781 34.4495 33.2858 34.5123 33.2938 34.5771C33.3726 35.1093 33.483 35.5005 33.7969 35.9402C33.8973 36.0885 33.8973 36.0885 33.9869 36.3572C34.1439 36.4527 34.1439 36.4527 34.3452 36.5364C35.581 37.1878 35.581 37.1878 35.7783 37.7007C35.8323 38.1415 35.8396 38.5342 35.6719 38.9491C35.3691 39.2936 35.0831 39.5469 34.6149 39.603C33.1642 39.6493 31.7138 38.9476 30.6323 38.0181C30.1593 37.5458 29.789 37.0018 29.4189 36.4468C29.4189 36.3581 29.4189 36.2694 29.4189 36.1781C29.5027 36.1497 29.5864 36.1213 29.6726 36.092C30.3964 35.8379 31.0806 35.5406 31.7589 35.1816C31.8299 35.1441 31.9009 35.1065 31.974 35.0678C32.2792 34.9032 32.5752 34.7351 32.861 34.5386C33.0912 34.3867 33.0912 34.3867 33.2704 34.3867Z" fill="#E8E8E8"/>
<path d="M33.2704 34.3867C33.2781 34.4495 33.2858 34.5123 33.2938 34.5771C33.3715 35.1017 33.4762 35.4908 33.7882 35.9227C33.9167 36.1179 33.9953 36.3177 34.0765 36.5364C33.2372 37.1368 32.0614 37.9575 31.0312 38.1486C30.6032 38.0525 30.3857 37.7794 30.1243 37.4488C30.0858 37.4021 30.0474 37.3554 30.0078 37.3073C29.4189 36.5817 29.4189 36.5817 29.4189 36.1781C29.5027 36.1497 29.5864 36.1213 29.6726 36.092C30.3964 35.8379 31.0806 35.5406 31.7589 35.1816C31.8299 35.1441 31.9009 35.1065 31.974 35.0678C32.2792 34.9032 32.5752 34.7351 32.861 34.5386C33.0912 34.3867 33.0912 34.3867 33.2704 34.3867Z" fill="#D2D1D7"/>
<path d="M16.7905 34.3867C17.2163 34.5388 17.5923 34.7616 17.9829 34.9857C18.5263 35.2928 19.0728 35.5767 19.6455 35.8254C19.7045 35.8511 19.7635 35.8767 19.8244 35.9031C20.0932 36.017 20.3553 36.1197 20.6419 36.1781C20.5173 36.8277 19.9682 37.5343 19.4775 37.9694C19.284 38.0947 19.284 38.0947 19.0297 38.1486C18.7638 38.0835 18.5258 37.9699 18.2796 37.8519C18.2092 37.8193 18.1389 37.7867 18.0665 37.7532C17.5823 37.5237 17.1121 37.2729 16.6505 37.001C16.5935 36.9676 16.5365 36.9343 16.4777 36.8999C16.0852 36.6596 16.0852 36.6596 15.9844 36.3572C16.0869 36.1735 16.0869 36.1735 16.2363 35.971C16.5955 35.4563 16.7158 35.0094 16.7905 34.3867Z" fill="#D2D1D7"/>
<path d="M14.82 5.54688C15.5963 5.76479 16.2684 6.1432 16.9696 6.53212C16.9696 6.65035 16.9696 6.76858 16.9696 6.8904C16.7761 7.07968 16.7761 7.07968 16.5162 7.27666C15.8123 7.82913 15.2652 8.41271 14.7304 9.1296C14.3292 9.0022 13.9463 8.84971 13.5604 8.68176C13.2057 8.52769 12.8511 8.37544 12.4912 8.23392C13.1045 7.20915 13.9712 6.3768 14.82 5.54688Z" fill="#5F7080"/>
<path d="M35.2347 5.61257C35.5571 5.80367 35.8015 6.07367 36.0641 6.33836C36.1235 6.39789 36.1829 6.45742 36.2441 6.51875C36.7404 7.02469 37.1687 7.55702 37.5699 8.14092C37.3918 8.31904 37.2872 8.37557 37.0591 8.4684C36.9934 8.49531 36.9277 8.52221 36.86 8.54992C36.7913 8.57752 36.7226 8.60511 36.6518 8.63354C36.5845 8.66114 36.5172 8.68873 36.4479 8.71717C36.0793 8.86705 35.7101 9.00534 35.3307 9.12617C35.2721 9.05355 35.2134 8.98092 35.153 8.9061C34.5167 8.12998 33.8431 7.35817 33.002 6.7974C33.1052 6.48755 33.1416 6.47493 33.4176 6.33242C33.484 6.29772 33.5504 6.26303 33.6188 6.22728C33.6886 6.19189 33.7585 6.1565 33.8305 6.12004C33.8989 6.08431 33.9674 6.04857 34.0379 6.01176C34.2289 5.91296 34.4211 5.81725 34.6142 5.72258C34.6968 5.68113 34.7795 5.63969 34.8647 5.59698C35.062 5.54345 35.062 5.54345 35.2347 5.61257Z" fill="#5F7080"/>
<path d="M41.0628 26.9511C40.9518 27.2948 40.8395 27.638 40.7269 27.9811C40.6802 28.1259 40.6802 28.1259 40.6325 28.2736C40.4544 28.8144 40.2581 29.316 39.988 29.8173C39.4513 29.789 38.9742 29.6795 38.4654 29.515C38.4052 29.4963 38.3451 29.4775 38.2832 29.4583C38.1127 29.4009 38.1127 29.4009 37.8384 29.2799C37.6511 28.7182 37.9809 28.0712 38.2246 27.5578C38.4635 27.1717 38.6585 27.0516 39.0979 26.9434C39.7301 26.8485 40.4472 26.7459 41.0628 26.9511Z" fill="#5F7080"/>
<path d="M9.08691 26.8633C10.284 26.9963 10.284 26.9963 11.5053 27.132C11.653 27.4867 11.8008 27.8414 11.9531 28.2068C12.1037 28.5282 12.1037 28.5282 12.2575 28.8481C12.3114 29.0129 12.3114 29.0129 12.2218 29.2816C12.0625 29.3615 12.0625 29.3615 11.8565 29.4254C11.7821 29.4488 11.7076 29.4722 11.6309 29.4963C11.5133 29.5313 11.5133 29.5313 11.3933 29.5671C11.3163 29.5915 11.2393 29.616 11.1599 29.6411C10.7827 29.7571 10.4698 29.8326 10.0722 29.819C9.08691 27.6217 9.08691 27.6217 9.08691 26.8633Z" fill="#5F7080"/>
<path d="M31.7032 28.1602C32.07 28.2126 32.1497 28.2779 32.3749 28.5632C32.4213 28.7873 32.4213 28.7873 32.4225 29.0362C32.423 29.1264 32.4234 29.2166 32.4239 29.3095C32.4225 29.4031 32.4211 29.4968 32.4197 29.5932C32.4211 29.6869 32.4225 29.7805 32.4239 29.877C32.4234 29.9672 32.423 30.0573 32.4225 30.1502C32.4221 30.2324 32.4217 30.3145 32.4213 30.3992C32.3607 30.6923 32.2504 30.7996 32.0167 30.9815C31.7032 31.0263 31.7032 31.0263 31.3897 30.9815C31.1559 30.7996 31.0457 30.6923 30.985 30.3992C30.9844 30.276 30.9844 30.276 30.9838 30.1502C30.9834 30.0601 30.9829 29.9699 30.9824 29.877C30.9838 29.7834 30.9852 29.6897 30.9866 29.5932C30.9852 29.4996 30.9838 29.406 30.9824 29.3095C30.9829 29.2193 30.9833 29.1291 30.9838 29.0362C30.9842 28.9541 30.9846 28.8719 30.985 28.7873C31.072 28.3669 31.2925 28.2188 31.7032 28.1602Z" fill="#343B42"/>
<path d="M18.3575 28.1602C18.7243 28.2126 18.804 28.2779 19.0292 28.5632C19.0756 28.7873 19.0756 28.7873 19.0768 29.0362C19.0773 29.1264 19.0777 29.2166 19.0782 29.3095C19.0768 29.4031 19.0754 29.4968 19.074 29.5932C19.0754 29.6869 19.0768 29.7805 19.0782 29.877C19.0777 29.9672 19.0773 30.0573 19.0768 30.1502C19.0764 30.2324 19.076 30.3145 19.0756 30.3992C19.0149 30.6923 18.9047 30.7996 18.6709 30.9815C18.3575 31.0263 18.3575 31.0263 18.044 30.9815C17.8102 30.7996 17.7 30.6923 17.6393 30.3992C17.6387 30.276 17.6387 30.276 17.6381 30.1502C17.6377 30.0601 17.6372 29.9699 17.6367 29.877C17.6381 29.7834 17.6395 29.6897 17.6409 29.5932C17.6395 29.4996 17.6381 29.406 17.6367 29.3095C17.6372 29.2193 17.6376 29.1291 17.6381 29.0362C17.6385 28.9541 17.6389 28.8719 17.6393 28.7873C17.7263 28.3669 17.9468 28.2188 18.3575 28.1602Z" fill="#343B42"/>
</svg>
