<svg width="50" height="50" viewBox="0 0 50 50" fill="none" xmlns="http://www.w3.org/2000/svg">
<g clip-path="url(#clip0_1_3084)">
<path d="M23.1319 0.0543225C23.1971 0.0539257 23.2622 0.0535289 23.3294 0.0531208C23.6758 0.0510915 23.4612 0.0363193 23.8078 0.035401C24.089 0.0345508 24.6602 0.874737 24.9415 0.871608C27.1215 0.847914 29.0721 0.545272 31.1768 1.1691C31.2769 1.19809 31.6437 1.13924 31.7469 1.1691C35.1412 2.17582 37.5573 3.71562 40.2496 6.01625C40.3226 6.07832 41.3082 6.20681 41.3833 6.27076C42.6988 7.42258 43.188 8.82397 44.2176 10.2387C44.3011 10.3508 44.7009 10.6936 44.7844 10.8056C45.3733 11.604 45.4279 11.6442 45.9181 12.5061C45.5703 13.8753 44.5443 13.4951 45.9181 12.5061C48.024 16.1853 48.7685 20.1998 48.7525 24.41C48.7523 24.5092 48.7527 24.8746 48.7525 24.9768C48.7476 26.4008 48.4786 27.5462 48.1857 28.9448C48.1566 29.0873 47.6484 29.9331 47.6188 30.0785C46.6324 34.7941 46.4298 37.9382 43.0807 41.4155C43.019 41.4798 42.5773 41.9162 42.5139 41.9824C41.6225 42.9071 41.8506 42.9253 40.8133 43.6829C40.7011 43.7666 39.7917 44.733 39.6796 44.8166C38.8814 45.4051 38.0363 46.2768 37.1733 46.7648C37.1044 46.8039 37.0355 46.8431 36.9644 46.8835C34.7095 48.1531 32.2561 49.0058 29.7231 49.5243C29.653 49.5386 29.583 49.553 29.5108 49.5679C28.0804 49.8397 26.6646 49.9177 25.2113 49.9144C24.9248 49.9142 24.6384 49.9165 24.3518 49.919C23.0484 49.9233 21.7915 49.8058 20.5063 49.5913C20.34 49.5638 20.34 49.5638 20.1704 49.5358C15.9533 48.7782 11.9522 46.8301 8.71265 44.0356C8.63998 43.9738 8.56742 43.9121 8.4926 43.8483C7.17628 42.6971 5.94122 41.4543 4.9114 40.0394C4.82791 39.9273 4.74441 39.8153 4.66088 39.7033C4.07217 38.9049 3.54747 38.0761 3.05951 37.2129C3.02031 37.144 2.9811 37.075 2.94072 37.0039C1.52304 34.486 0.582042 31.6859 0.135465 28.8306C0.118403 28.7218 0.101341 28.613 0.0837573 28.501C0.00979458 27.8924 0.0182292 27.2798 0.0147714 26.6676C0.0143746 26.6013 0.013978 26.5349 0.0135699 26.4665C0.0115406 26.1138 0.0101459 25.7611 0.00922762 25.4084C0.008366 25.1217 0.00635931 24.8351 0.0032303 24.5485C-0.015181 22.8201 0.0347134 21.1677 0.42787 19.4736C0.455407 19.3523 0.482945 19.231 0.511322 19.106C0.58236 18.8159 0.660483 18.5297 0.744637 18.2431C0.773626 18.1425 0.802604 18.0421 0.832465 17.9385C1.8355 14.542 3.48754 11.4451 5.78861 8.75221C5.88171 8.64269 5.88171 8.64269 5.9767 8.53102C7.1285 7.2156 8.37016 5.98065 9.78479 4.95095C9.89691 4.86747 10.0089 4.78396 10.1209 4.70043C10.9193 4.11172 11.7481 3.58702 12.6113 3.09906C12.6803 3.05986 12.7492 3.02065 12.8203 2.98027C15.9291 1.22993 19.5494 0.0749446 23.1319 0.0543225Z" fill="#F7EDDA"/>
<path d="M25.7122 0.0399663C25.8121 0.040057 25.9119 0.0401362 26.0147 0.0402269C27.498 0.0444216 28.9102 0.0987372 30.3542 0.466385C30.5013 0.50246 30.5013 0.50246 30.6514 0.539249C34.5136 1.50153 38.0458 3.23798 41.0757 5.82713C41.1487 5.8892 41.2217 5.95126 41.2969 6.01521C42.6123 7.16703 43.8473 8.40867 44.8769 9.82331C44.9604 9.93543 45.0439 10.0474 45.1274 10.1596C45.7162 10.9579 46.2386 11.7879 46.7288 12.6499C46.7644 12.7115 46.7999 12.7731 46.8365 12.8365C48.9423 16.5158 49.8943 20.6842 49.8782 24.8943C49.878 24.9935 49.8779 25.0927 49.8777 25.1949C49.8728 26.6189 49.8483 28.0158 49.5553 29.4144C49.5263 29.5569 49.5263 29.5569 49.4967 29.7023C48.5103 34.418 46.3741 38.7055 43.025 42.1827C42.9634 42.247 42.9018 42.3112 42.8384 42.3774C41.9471 43.3022 41.0409 44.1541 40.0036 44.9118C39.8913 44.9954 39.7792 45.0791 39.667 45.1627C35.3868 48.3182 32.332 49.4439 30.6133 49.3515C30.6133 49.3515 33.8249 48.0488 33.9057 47.9576C36.5086 44.9056 37.2806 41.2741 37.2988 37.352C37.2997 37.2315 37.3006 37.1111 37.3015 36.987C37.2988 36.2002 37.2239 35.4508 37.0795 34.6777C37.0663 34.606 37.0531 34.5345 37.0395 34.4607C36.414 31.3068 34.3536 28.4905 31.7128 26.7101C29.4757 25.2626 27.0665 24.74 24.4265 24.6802C21.2012 24.5905 18.3046 23.1154 16.0466 20.8574C13.4925 18.1178 12.5938 14.7925 12.6954 11.1217C12.8678 7.84538 14.7325 4.95238 17.0986 2.80562C19.6088 0.699089 22.5182 0.0333115 25.7122 0.0399663Z" fill="#4C4C4C"/>
<path d="M23.6981 0.0415353C28.3836 -0.0410775 28.3836 -0.0410773 30.2905 0.431404C30.4397 0.467467 30.4397 0.467467 30.5918 0.504267C34.4899 1.46684 38.0553 3.20334 41.1137 5.79215C41.1874 5.85421 41.2611 5.91628 41.3369 5.98023C42.6648 7.13204 43.9116 8.37369 44.951 9.78832C45.0353 9.90045 45.1195 10.0125 45.2039 10.1245C45.7983 10.9229 46.3256 11.7529 46.8204 12.6149C46.8564 12.6765 46.8922 12.7381 46.9291 12.8015C49.0551 16.4808 50.016 20.6492 49.9998 24.8593C49.9996 24.9585 49.9993 25.0577 49.9991 25.16C49.9942 26.5839 49.9696 27.9808 49.6738 29.3794C49.6446 29.5219 49.6446 29.5219 49.6147 29.6673C48.6188 34.383 46.4624 38.6705 43.0816 42.1477C43.0193 42.212 42.9571 42.2763 42.8931 42.3425C41.9934 43.2672 41.0786 44.1191 40.0314 44.8769C39.9181 44.9604 39.8049 45.0441 39.6916 45.1277C35.3708 48.2832 32.2876 49.4439 30.5526 49.3515C30.6317 49.263 33.4137 48.2178 33.986 47.6509C34.0425 47.5949 35.6843 45.9663 35.6937 45.9504C35.6814 45.9713 36.8382 44.8167 36.8382 44.8167C36.8216 44.828 37.8332 43.8673 38.4571 43.3173C38.509 43.272 38.5611 43.2266 38.6147 43.1798C41.872 40.3333 44.2293 36.4845 45.5414 32.4009C45.5651 32.3286 45.5888 32.2563 45.6131 32.1817C45.9212 31.2346 46.1442 30.2916 46.2935 29.3077C46.329 29.0842 46.3701 28.8622 46.412 28.6396C46.8687 26.036 46.7659 23.2064 46.3285 20.6072C46.3148 20.5256 46.3011 20.444 46.287 20.3599C45.4935 15.846 43.3477 11.5403 40.1804 8.19989C39.9782 7.9846 39.7852 7.76587 39.5948 7.54048C36.5668 4.10135 31.9354 1.82085 27.5355 0.723809C27.4264 0.695908 27.3172 0.668019 27.2049 0.63928C26.054 0.369538 24.872 0.266779 23.6981 0.139C23.6981 0.106837 23.6981 0.0746735 23.6981 0.0415353Z" fill="#3A3938"/>
<path d="M27.3087 8.62598C28.1126 9.09522 28.6086 9.71059 28.8918 10.6054C29.0209 11.561 28.9146 12.3989 28.3915 13.2142C27.9043 13.8529 27.2352 14.2464 26.455 14.4067C25.5417 14.503 24.7999 14.3475 24.0488 13.8157C23.5299 13.3905 23.242 12.854 22.9462 12.2623C22.8649 11.1385 22.8605 10.2497 23.5904 9.33715C24.5346 8.30412 26.0372 8.02365 27.3087 8.62598Z" fill="#DCDCDB"/>
<path d="M27.5398 34.9349C28.1506 35.4394 28.7543 36.0155 28.8922 36.8234C28.9931 37.89 28.8692 38.7369 28.1917 39.5829C27.6338 40.1781 26.9358 40.5321 26.1198 40.5606C25.1413 40.5752 24.4771 40.3948 23.7387 39.7169C23.0559 38.9812 22.9015 38.1808 22.9189 37.2015C22.9703 36.5012 23.2175 35.8566 23.7264 35.3614C24.957 34.411 26.1268 34.2001 27.5398 34.9349Z" fill="#555050"/>
<path d="M24.4083 8.80835C25.0235 9.10311 25.4582 9.71078 25.7081 10.3377C25.9181 11.2066 25.9015 12.1527 25.4378 12.9324C25.1546 13.3175 24.8601 13.7161 24.4079 13.9022C24.2133 13.9193 24.2133 13.9193 24.0465 13.8386C23.4156 13.2995 22.9722 12.6803 22.893 11.837C22.8387 10.7396 23.032 9.96325 23.7686 9.12511C24.0046 8.91106 24.0852 8.8554 24.4083 8.80835Z" fill="#F6ECD9"/>
<path d="M24.2132 34.972C24.8571 35.1863 25.2672 35.6646 25.5953 36.249C25.8859 36.9879 25.9102 37.8578 25.6688 38.6096C25.368 39.2637 24.9909 39.7178 24.4082 40.1379C23.8132 39.8495 23.3263 39.3188 23.0497 38.7185C22.7775 37.8558 22.8415 36.8589 23.2252 36.0458C23.4838 35.5872 23.7941 35.2864 24.2132 34.972Z" fill="#696867"/>
</g>
<defs>
<clipPath id="clip0_1_3084">
<rect width="50" height="50" fill="white"/>
</clipPath>
</defs>
</svg>
