<svg width="50" height="50" viewBox="0 0 50 50" fill="none" xmlns="http://www.w3.org/2000/svg">
<path d="M24.9924 3.00009C25.108 3.00016 25.108 3.00016 25.2258 3.00023C26.492 3.00374 27.7073 3.08655 28.9442 3.37542C29.0246 3.3938 29.105 3.41219 29.1879 3.43113C33.9447 4.54911 38.0519 7.54321 40.6456 11.6682C40.9896 12.2302 41.2791 12.8153 41.5555 13.4128C41.6012 13.5093 41.6468 13.6059 41.6939 13.7053C43.2354 17.1109 43.3874 21.0142 42.0772 24.5044C41.7179 25.4059 41.216 26.2087 40.6118 26.9675C40.577 27.0115 40.5421 27.0555 40.5063 27.1008C39.1896 28.751 39.1896 28.751 38.467 29.1122C38.5084 29.4772 38.7377 29.681 38.9818 29.9326C39.2972 30.2664 39.6001 30.6037 39.8879 30.9621C40.148 31.2852 40.4167 31.5953 40.6976 31.9004C40.9785 32.2055 41.2472 32.5157 41.5072 32.8387C41.7852 33.1835 42.0744 33.512 42.3759 33.836C43.4302 34.976 44.0094 35.8299 43.9811 37.4047C43.9404 38.3349 43.4936 39.0269 42.8397 39.662C41.9338 40.4349 40.8915 40.4953 39.7539 40.5222C39.7309 40.6002 39.7079 40.6782 39.6842 40.7585C38.9825 43.0089 37.5617 44.9167 35.4513 46.0359C34.3441 46.5931 33.1709 46.9649 31.9221 46.9691C31.861 46.9694 31.8 46.9697 31.7371 46.97C31.5334 46.971 31.3297 46.9713 31.1261 46.9716C30.9796 46.9722 30.8331 46.9727 30.6867 46.9733C30.2063 46.9751 29.7259 46.976 29.2455 46.9769C29.0795 46.9772 28.9136 46.9776 28.7476 46.9779C27.9673 46.9796 27.187 46.9808 26.4066 46.9815C25.509 46.9824 24.6114 46.9846 23.7137 46.9881C23.018 46.9907 22.3224 46.9919 21.6267 46.9922C21.2121 46.9924 20.7975 46.9932 20.383 46.9954C19.9921 46.9974 19.6012 46.9977 19.2103 46.9968C19.068 46.9968 18.9257 46.9973 18.7834 46.9985C16.338 47.0178 14.1597 46.1206 12.3996 44.4015C11.3507 43.3243 10.6279 41.9732 10.2417 40.5222C10.1484 40.52 10.055 40.5178 9.95888 40.5155C8.69763 40.4726 7.71307 40.2604 6.81276 39.3155C6.09751 38.4684 5.93953 37.5658 6.01844 36.4882C6.10081 35.7725 6.43608 35.2229 6.89587 34.6886C6.93543 34.6421 6.975 34.5956 7.01576 34.5477C7.47534 34.0083 7.94202 33.4757 8.41866 32.9513C8.67669 32.667 8.92263 32.376 9.16397 32.0773C9.49454 31.6686 9.84344 31.2813 10.1995 30.8947C10.4827 30.5791 10.7486 30.2509 11.0132 29.9195C11.1854 29.7128 11.1854 29.7128 11.3845 29.5355C11.5464 29.3846 11.5464 29.3846 11.5333 29.198C11.407 28.9585 11.2412 28.8453 11.0246 28.6833C8.8552 26.963 7.42192 24.2442 7.10163 21.5028C6.96229 19.9239 6.98719 18.3103 7.32483 16.7586C7.33955 16.6909 7.35427 16.6232 7.36944 16.5535C8.20315 12.8634 10.3843 9.50456 13.3302 7.15015C13.4194 7.07598 13.5086 7.00169 13.5976 6.9273C15.7274 5.17068 18.3172 4.01638 20.9924 3.3915C21.064 3.37476 21.1355 3.35802 21.2093 3.34078C22.4664 3.06515 23.7102 2.99715 24.9924 3.00009Z" fill="#F2F2F2"/>
<path d="M11.6144 29.1992C11.9671 29.3243 12.2489 29.499 12.5581 29.7086C16.2254 32.1077 20.6272 32.9105 24.9495 32.9042C25.0168 32.9042 25.0841 32.9041 25.1534 32.9041C27.0178 32.9002 28.8287 32.7301 30.66 32.3734C30.7348 32.359 30.8096 32.3445 30.8866 32.3297C33.365 31.8347 35.7614 30.8772 37.8422 29.4407C38.193 29.1992 38.193 29.1992 38.3812 29.1992C38.5007 29.3324 38.614 29.4712 38.7244 29.6121C39.0004 29.9576 39.2821 30.2897 39.5823 30.6147C39.8632 30.9199 40.1319 31.23 40.3919 31.5531C40.6684 31.8958 40.9555 32.2229 41.2552 32.545C41.6232 32.9404 41.9681 33.3488 42.3055 33.7709C42.5086 34.0147 42.7245 34.241 42.9442 34.4699C43.7623 35.3568 44.0021 36.2351 43.9811 37.4058C43.9404 38.3361 43.4936 39.0281 42.8397 39.6632C41.9338 40.4361 40.8915 40.4965 39.7539 40.5234C39.7309 40.6014 39.7079 40.6794 39.6842 40.7597C38.9825 43.0101 37.5617 44.9179 35.4512 46.0371C34.3441 46.5943 33.1709 46.9661 31.9221 46.9703C31.861 46.9706 31.8 46.9709 31.737 46.9712C31.5334 46.9722 31.3297 46.9725 31.1261 46.9728C30.9796 46.9734 30.8331 46.9739 30.6867 46.9745C30.2063 46.9763 29.7259 46.9772 29.2455 46.9781C29.0795 46.9784 28.9136 46.9788 28.7476 46.9791C27.9673 46.9808 27.187 46.982 26.4066 46.9827C25.509 46.9835 24.6114 46.9858 23.7137 46.9893C23.018 46.9919 22.3223 46.9931 21.6267 46.9934C21.2121 46.9936 20.7975 46.9944 20.383 46.9965C19.9921 46.9986 19.6012 46.9989 19.2103 46.998C19.068 46.998 18.9257 46.9985 18.7834 46.9997C16.338 47.019 14.1597 46.1218 12.3996 44.4027C11.3507 43.3254 10.6279 41.9744 10.2417 40.5234C10.1484 40.5212 10.055 40.519 9.95888 40.5167C8.69763 40.4738 7.71307 40.2616 6.81276 39.3167C6.09751 38.4696 5.93953 37.5669 6.01844 36.4894C6.10081 35.7736 6.43608 35.2241 6.89587 34.6897C6.93543 34.6433 6.975 34.5968 7.01576 34.5489C7.47534 34.0095 7.94202 33.4769 8.41866 32.9525C8.67669 32.6682 8.92262 32.3772 9.16397 32.0785C9.42785 31.7522 9.70017 31.4383 9.98435 31.1295C10.4044 30.6728 10.7961 30.1968 11.1854 29.714C11.3277 29.5418 11.4709 29.3704 11.6144 29.1992Z" fill="#6A647F"/>
<path d="M24.992 3.00009C25.1075 3.00016 25.1075 3.00016 25.2254 3.00023C26.4915 3.00374 27.7069 3.08655 28.9437 3.37542C29.0242 3.3938 29.1046 3.41219 29.1875 3.43113C33.9443 4.54911 38.0514 7.54321 40.6452 11.6682C40.9891 12.2302 41.2787 12.8153 41.555 13.4128C41.6007 13.5093 41.6464 13.6059 41.6935 13.7053C43.235 17.1109 43.3869 21.0142 42.0767 24.5044C41.6183 25.6547 40.9165 26.6457 40.0966 27.568C40.0683 27.5114 40.04 27.4548 40.0108 27.3965C40.1096 27.194 40.2133 26.9984 40.3218 26.8013C41.3098 24.9264 41.5542 22.4815 40.9545 20.4475C40.1975 18.1281 38.6915 16.1871 36.5168 15.0461C34.4691 14.0331 32.0591 13.7611 29.8734 14.4671C28.6184 14.9016 27.5515 15.561 26.5235 16.3983C25.9176 16.8809 25.325 17.0736 24.5466 17.0444C23.8262 16.9573 23.3328 16.5947 22.7809 16.1518C21.879 15.4395 20.8646 15.0114 19.7641 14.6996C19.6752 14.6722 19.5863 14.6448 19.4947 14.6165C17.3128 14.0361 15.0671 14.4981 13.1213 15.5441C11.5808 16.4455 10.4616 17.6673 9.64074 19.2465C9.60026 19.3219 9.55979 19.3973 9.51809 19.475C9.40108 19.7098 9.30407 19.9446 9.21179 20.1901C9.19218 20.2418 9.17258 20.2935 9.15238 20.3467C8.52014 22.0915 8.55376 24.2057 9.1575 25.9519C9.23566 26.179 9.3008 26.4097 9.36728 26.6404C9.4009 26.7484 9.43452 26.8563 9.46916 26.9675C9.13645 26.6582 8.89007 26.336 8.6595 25.9434C8.62619 25.887 8.59287 25.8306 8.55855 25.7725C6.99404 23.0664 6.66459 19.791 7.32438 16.7586C7.3391 16.6909 7.35382 16.6232 7.36899 16.5535C8.2027 12.8634 10.3839 9.50456 13.3298 7.15015C13.419 7.07598 13.5081 7.00169 13.5972 6.9273C15.727 5.17068 18.3167 4.01638 20.992 3.3915C21.0635 3.37476 21.1351 3.35802 21.2088 3.34078C22.466 3.06515 23.7098 2.99715 24.992 3.00009Z" fill="#645F79"/>
<path d="M11.6144 29.1992C11.9671 29.3243 12.2489 29.499 12.5581 29.7086C14.5627 31.02 16.7184 31.7855 19.0418 32.3235C19.3141 32.3889 19.5819 32.4651 19.8503 32.545C19.7521 32.8015 19.644 33.0511 19.5269 33.2994C19.1051 34.2011 18.7913 35.0934 18.5635 36.0624C18.5433 36.1466 18.5232 36.2309 18.5025 36.3177C18.2569 37.4957 18.19 38.8781 18.4619 40.0543C18.4825 40.4422 18.3337 40.6152 18.097 40.8988C16.7857 42.6121 16.4343 44.5825 16.4187 46.7003C14.3433 46.249 12.4919 44.8409 11.346 43.0726C10.8734 42.293 10.4354 41.4182 10.2417 40.5234C10.1484 40.5212 10.055 40.519 9.95888 40.5167C8.69763 40.4738 7.71307 40.2616 6.81276 39.3167C6.09751 38.4696 5.93953 37.5669 6.01844 36.4894C6.10081 35.7736 6.43608 35.2241 6.89587 34.6897C6.93543 34.6433 6.975 34.5968 7.01576 34.5489C7.47534 34.0095 7.94202 33.4769 8.41866 32.9525C8.67669 32.6682 8.92263 32.3772 9.16397 32.0785C9.42786 31.7522 9.70017 31.4383 9.98435 31.1295C10.4044 30.6728 10.7961 30.1968 11.1854 29.714C11.3277 29.5418 11.4709 29.3704 11.6144 29.1992Z" fill="#4F4C5E"/>
<path d="M27.2284 37.6071C27.3849 37.6494 27.3849 37.6494 27.5445 37.6925C28.7889 38.0668 29.8709 38.7063 30.8317 39.5802C30.9207 39.6589 30.9207 39.6589 31.0116 39.7391C32.1931 40.843 33.0256 42.3944 33.4054 43.9555C33.4246 44.0339 33.4439 44.1123 33.4637 44.1931C33.6323 45.0189 33.5919 45.8624 33.577 46.7008C33.017 46.9007 32.5131 46.9688 31.9193 46.9702C31.8579 46.9704 31.7965 46.9707 31.7333 46.971C31.5286 46.9717 31.324 46.9718 31.1193 46.972C30.9722 46.9724 30.825 46.9728 30.6778 46.9732C30.2786 46.9744 29.8794 46.9749 29.4802 46.9753C29.2305 46.9756 28.9807 46.9759 28.731 46.9763C27.9486 46.9775 27.1662 46.9783 26.3838 46.9786C25.4825 46.979 24.5812 46.9805 23.6799 46.983C22.9821 46.9849 22.2842 46.9857 21.5864 46.9858C21.1701 46.9859 20.7539 46.9864 20.3377 46.988C19.9457 46.9894 19.5538 46.9896 19.1618 46.9888C19.0187 46.9887 18.8755 46.9891 18.7323 46.99C17.9286 46.9945 17.1923 46.9482 16.4187 46.7008C16.3068 44.1768 16.939 42.0135 18.6141 40.0983C19.6944 38.9657 21.1483 37.9897 22.6815 37.6071C22.7683 37.5834 22.8551 37.5598 22.9446 37.5354C24.3391 37.2017 25.8476 37.2226 27.2284 37.6071Z" fill="#F4F4F4"/>
<path d="M38.3813 29.1992C38.5008 29.3324 38.6141 29.4712 38.7244 29.6121C39.0005 29.9576 39.2821 30.2897 39.5824 30.6147C39.8633 30.9199 40.132 31.23 40.392 31.5531C40.6684 31.8958 40.9556 32.2229 41.2553 32.545C41.6232 32.9404 41.9681 33.3488 42.3056 33.7709C42.5086 34.0147 42.7246 34.241 42.9443 34.4699C43.7624 35.3568 44.0022 36.2351 43.9812 37.4058C43.9405 38.3361 43.4937 39.0281 42.8397 39.6632C41.9828 40.3943 41.015 40.5225 39.9284 40.4538C39.4847 40.4126 39.0652 40.3047 38.6387 40.1803C38.5481 40.1564 38.4575 40.1325 38.3642 40.1079C37.2524 39.7968 36.2757 39.2734 35.3786 38.5503C35.3074 38.4932 35.2361 38.4361 35.1628 38.3773C33.7349 37.165 32.9458 35.6135 32.4617 33.8318C32.4406 33.7587 32.4194 33.6857 32.3977 33.6103C32.261 33.0872 32.2737 32.5679 32.2901 32.0303C32.3609 32.0051 32.3609 32.0051 32.4332 31.9793C32.6431 31.9038 32.8526 31.8273 33.0619 31.7503C33.1856 31.7048 33.3094 31.6596 33.4332 31.6146C35.0095 31.039 36.6103 30.3688 37.9738 29.3708C38.2097 29.1992 38.2097 29.1992 38.3813 29.1992Z" fill="#4F4C5E"/>
<path d="M13.7587 6.80859C13.9489 6.99875 13.9882 7.12042 14.0751 7.37159C14.3943 8.18803 14.9608 8.82975 15.7519 9.21924C15.9512 9.30265 16.1519 9.38081 16.3539 9.45734C17.0419 9.7308 17.6253 10.0513 18.2199 10.4975C18.1667 10.8444 17.9777 11.0981 17.7855 11.3822C17.5048 11.8092 17.24 12.2408 16.9973 12.6905C16.9536 12.7702 16.9536 12.7702 16.909 12.8514C16.7195 13.2088 16.6134 13.5528 16.5094 13.9452C16.4095 14.2203 16.4095 14.2203 16.2467 14.4439C15.8939 14.5889 15.5592 14.6516 15.1847 14.7126C13.2758 15.0299 11.4296 16.5141 10.3271 18.047C10.0739 18.4347 9.85418 18.8375 9.64074 19.2481C9.60026 19.3235 9.55979 19.3989 9.51809 19.4766C9.40108 19.7114 9.30407 19.9462 9.21179 20.1917C9.19218 20.2434 9.17258 20.2951 9.15238 20.3483C8.52014 22.0931 8.55376 24.2073 9.1575 25.9535C9.23566 26.1806 9.3008 26.4113 9.36728 26.642C9.4009 26.75 9.43452 26.8579 9.46916 26.9691C9.13645 26.6598 8.89007 26.3376 8.6595 25.945C8.62619 25.8886 8.59287 25.8322 8.55855 25.7741C6.99404 23.068 6.66459 19.7926 7.32438 16.7602C7.3391 16.6925 7.35382 16.6248 7.36899 16.5551C8.20221 12.8671 10.383 9.50301 13.3298 7.15175C13.41 7.0875 13.4903 7.02325 13.5731 6.95705C13.6343 6.90806 13.6956 6.85907 13.7587 6.80859Z" fill="#4F4C5E"/>
<path d="M24.0245 20.7714C24.0877 20.7709 24.1509 20.7704 24.216 20.7699C24.3497 20.7691 24.4835 20.7686 24.6172 20.7682C24.8178 20.7674 25.0182 20.7647 25.2187 20.762C26.2497 20.7547 27.2094 20.8743 28.1776 21.2553C28.2653 21.2888 28.353 21.3223 28.4434 21.3569C28.8736 21.5658 29.1708 21.8088 29.3734 22.2473C29.448 22.829 29.392 23.4096 29.2018 23.9631C29.1798 24.0308 29.1578 24.0986 29.1351 24.1685C28.9252 24.7549 28.6059 25.3232 28.1056 25.7113C27.9735 25.8536 27.9735 25.8536 28.0255 26.0904C28.0456 26.181 28.0657 26.2717 28.0865 26.3652C28.1535 27.119 28.1123 27.7149 27.6575 28.3383C27.134 28.9452 26.465 29.3835 25.6574 29.4764C24.5026 29.5569 23.5148 29.4489 22.5969 28.6875C22.1439 28.2214 21.8109 27.6495 21.813 26.9925C21.8127 26.878 21.8127 26.878 21.8123 26.7613C21.8227 26.5561 21.8594 26.3861 21.9095 26.1882C21.9095 25.7278 21.7186 25.5972 21.4065 25.2797C20.7304 24.5369 20.4774 23.4774 20.5084 22.4976C20.5486 22.1439 20.624 21.9824 20.88 21.7325C21.4989 21.2551 22.1872 21.0536 22.939 20.8746C23.0019 20.8595 23.0648 20.8443 23.1296 20.8287C23.4283 20.7787 23.7225 20.7733 24.0245 20.7714Z" fill="#FEBE73"/>
<path d="M24.9922 3.00038C25.1068 3.00019 25.1068 3.00019 25.2237 3C26.4909 3.00023 27.7034 3.09869 28.944 3.37571C28.944 3.43233 28.944 3.48895 28.944 3.54728C28.8378 3.57449 28.7316 3.60169 28.6223 3.62972C25.6767 4.41184 23.0692 5.81683 20.7938 7.83676C20.7089 7.91118 20.6239 7.98561 20.5364 8.06229C19.7113 8.79661 19.0559 9.61951 18.3917 10.4962C18.4642 10.5812 18.5368 10.6661 18.6115 10.7536C18.6586 10.809 18.7057 10.8644 18.7543 10.9215C18.8518 11.0339 18.9514 11.1447 19.0532 11.2533C19.8357 12.0977 20.559 13.335 20.5632 14.523C20.5544 14.6097 20.5456 14.6964 20.5364 14.7857C20.0936 14.7475 19.6897 14.6802 19.2603 14.5659C18.2778 14.342 17.2482 14.4214 16.2469 14.4425C16.3104 14.0122 16.4351 13.6537 16.6222 13.2629C16.6518 13.2006 16.6813 13.1383 16.7117 13.0741C17.5628 11.325 17.5628 11.325 18.1343 10.7536C18.1343 10.6687 18.1343 10.5837 18.1343 10.4962C17.5757 10.0004 16.8408 9.73111 16.1528 9.4682C15.1403 9.06922 14.4972 8.41659 14.0146 7.45305C13.9205 7.2103 13.8795 6.97896 13.8447 6.72149C14.7167 6.06265 15.6197 5.50803 16.59 5.0057C16.6557 4.97173 16.7213 4.93775 16.7889 4.90274C18.1333 4.21609 19.5226 3.73382 20.9922 3.39179C21.0637 3.37506 21.1353 3.35834 21.209 3.34111C22.4664 3.06528 23.7098 2.99823 24.9922 3.00038Z" fill="#5C586F"/>
<path d="M17.706 32.0273C18.0314 32.0967 18.3567 32.1665 18.6819 32.2365C18.8209 32.2661 18.8209 32.2661 18.9627 32.2963C19.0512 32.3153 19.1397 32.3344 19.2308 32.3541C19.3126 32.3716 19.3944 32.3891 19.4786 32.4072C19.6792 32.4563 19.6792 32.4563 19.8508 32.5421C19.7525 32.7985 19.6445 33.0482 19.5274 33.2964C19.1056 34.1982 18.7918 35.0905 18.5639 36.0594C18.5438 36.1437 18.5237 36.228 18.5029 36.3148C18.2574 37.4927 18.1905 38.8752 18.4624 40.0513C18.4829 40.4393 18.3341 40.6123 18.0974 40.8958C16.7861 42.6092 16.4348 44.5795 16.4192 46.6973C14.3437 46.2461 12.4923 44.838 11.3464 43.0697C10.8451 42.2428 10.3702 41.3142 10.2422 40.3489C10.3315 40.3301 10.4209 40.3113 10.513 40.2919C12.8952 39.7729 14.9326 38.6864 16.3065 36.5956C17.2018 35.183 17.5643 33.6717 17.706 32.0273Z" fill="#5C586F"/>
<path d="M28.0276 21.2051C28.086 21.2264 28.1445 21.2477 28.2048 21.2697C28.7291 21.4723 29.1296 21.7229 29.3734 22.2507C29.448 22.8324 29.3921 23.413 29.2018 23.9665C29.1798 24.0343 29.1578 24.102 29.1351 24.1719C28.935 24.731 28.6393 25.1459 28.2581 25.5965C28.1823 25.7021 28.1823 25.7021 28.105 25.8099C27.8753 26.0704 27.6188 26.2325 27.3198 26.4007C27.2416 26.448 27.2416 26.448 27.1618 26.4962C26.9297 26.6289 26.7598 26.7133 26.4897 26.704C25.4306 26.3002 24.6617 25.4569 24.1589 24.4624C23.8557 23.7705 23.6515 23.0066 23.797 22.2507C24.0813 21.7226 24.5365 21.4304 25.0838 21.2212C25.1799 21.1844 25.1799 21.1844 25.2779 21.1468C26.2594 20.7969 27.0637 20.8507 28.0276 21.2051Z" fill="#FECA8A"/>
<path d="M18.306 20.1917C18.5348 20.3623 18.7073 20.4977 18.7721 20.7857C18.7834 20.9755 18.7809 21.1599 18.7725 21.3498C18.772 21.4138 18.7715 21.4779 18.771 21.5438C18.7645 21.8351 18.7469 22.0495 18.6371 22.3223C18.6128 22.3836 18.5884 22.4449 18.5634 22.508C18.7135 22.7796 18.7135 22.7796 18.9065 23.0227C19.0682 23.5078 19.073 24.0274 18.8583 24.4972C18.3647 25.3444 17.6654 25.6383 16.7618 25.9396C15.7639 26.0196 14.8741 25.8884 14.0845 25.2372C13.6453 24.7932 13.3872 24.3391 13.3516 23.709C13.39 23.0577 13.6457 22.592 14.1287 22.1588C14.9394 21.5543 15.6727 21.4016 16.676 21.4785C16.9147 21.5203 17.1305 21.5774 17.3623 21.6501C17.3578 21.5554 17.3578 21.5554 17.3533 21.4587C17.3298 20.612 17.3298 20.612 17.6197 20.2774C17.8675 20.1535 18.0312 20.1593 18.306 20.1917Z" fill="#FEA2AC"/>
<path d="M31.9047 20.1406C32.2449 20.1953 32.3422 20.2629 32.5481 20.532C32.6615 20.7589 32.6422 20.9333 32.6392 21.1862C32.6385 21.2722 32.6377 21.3583 32.6369 21.4469C32.6359 21.513 32.6349 21.5792 32.6339 21.6473C32.7061 21.6197 32.7783 21.592 32.8527 21.5635C33.6958 21.3134 34.6032 21.4178 35.3792 21.8189C35.9303 22.1384 36.3554 22.5689 36.5468 23.1895C36.6498 23.7232 36.6215 24.1804 36.3507 24.6573C35.8611 25.365 35.1911 25.7713 34.3497 25.9368C33.4008 26.0199 32.5294 25.8669 31.776 25.2505C31.3026 24.7741 31.006 24.4066 30.9717 23.7223C30.979 23.2754 31.1175 22.9671 31.347 22.591C31.3753 22.5344 31.4036 22.4777 31.4328 22.4194C31.4069 22.3742 31.3811 22.3289 31.3544 22.2823C31.2174 21.9793 31.2296 21.6789 31.2291 21.3524C31.2259 21.2558 31.2259 21.2558 31.2227 21.1572C31.2209 20.8232 31.2399 20.6533 31.4161 20.3605C31.6044 20.1889 31.6044 20.1889 31.9047 20.1406Z" fill="#FEA1AC"/>
<path d="M22.0814 26.0234C22.1624 26.07 22.2433 26.1166 22.3267 26.1645C23.6099 26.8866 24.8289 27.2054 26.2915 26.8006C26.641 26.6741 26.955 26.5045 27.2741 26.3153C27.4829 26.1969 27.6906 26.1074 27.9152 26.0234C28.1869 26.4751 28.1419 26.973 28.0868 27.4819C27.8637 28.2563 27.3319 28.7448 26.6672 29.1638C25.7736 29.6144 24.5576 29.6281 23.6096 29.321C22.8016 28.9575 22.298 28.4464 21.9098 27.6534C21.7611 27.2072 21.767 26.7245 21.9045 26.2754C21.9956 26.1092 21.9956 26.1092 22.0814 26.0234Z" fill="#FEB15D"/>
<path d="M31.9039 20.1406C32.2042 20.1889 32.2042 20.1889 32.3915 20.3099C32.6321 20.6528 32.6006 20.981 32.5956 21.3899C32.5977 21.4673 32.5997 21.5448 32.6018 21.6245C32.6006 22.1874 32.6006 22.1874 32.3493 22.4727C32.0303 22.6362 31.8566 22.6118 31.5179 22.5052C31.2168 22.1413 31.2187 21.7975 31.223 21.347C31.2204 21.251 31.2204 21.251 31.2178 21.153C31.2181 20.821 31.2402 20.6515 31.4157 20.3608C31.6037 20.1889 31.6037 20.1889 31.9039 20.1406Z" fill="#474253"/>
<path d="M18.3062 20.191C18.5336 20.3623 18.7068 20.4986 18.7737 20.785C18.7867 20.9748 18.7853 21.1591 18.778 21.3491C18.7783 21.4132 18.7785 21.4772 18.7787 21.5432C18.7718 21.9317 18.7256 22.1915 18.4778 22.5073C18.2341 22.6292 18.0613 22.6201 17.7914 22.5931C17.6058 22.4735 17.6058 22.4735 17.4483 22.2499C17.397 21.9632 17.4004 21.6826 17.4054 21.392C17.4041 21.3146 17.4027 21.2372 17.4014 21.1575C17.4047 20.5952 17.4047 20.5952 17.6068 20.312C17.8643 20.1433 18.0041 20.1355 18.3062 20.191Z" fill="#474253"/>
</svg>
