<svg width="50" height="50" viewBox="0 0 50 50" fill="none" xmlns="http://www.w3.org/2000/svg">
<path d="M5.19689 6.4784C5.54689 6.72226 5.73711 7.112 5.93277 7.47997C6.26429 8.16365 6.26429 8.16365 6.78712 8.68838L6.83168 8.7145C6.96974 8.7722 7.15778 8.74281 7.29365 8.68838C7.53604 8.56862 7.6567 8.34654 7.78822 8.12227C7.97626 7.8033 8.20562 7.53876 8.56539 7.419C8.89146 7.33844 9.17632 7.41573 9.45672 7.5823C9.66868 7.73253 9.82412 7.95244 9.89366 8.20393C9.90559 8.29232 9.90939 8.38138 9.9045 8.47065C9.89149 8.9551 9.60783 9.26972 9.27524 9.59197C9.21233 9.64966 9.14909 9.70628 9.08389 9.7618C8.85024 9.96755 8.71432 10.1385 8.6295 10.4368C8.60672 10.5086 8.5796 10.5739 8.54803 10.6414C8.41754 10.9114 8.41754 10.9114 8.39801 11.2043C8.44151 11.2869 8.50236 11.3589 8.57624 11.4165C8.78277 11.5929 8.87844 11.7932 8.97303 12.0404C9.15885 12.5444 9.15885 12.5444 9.52517 12.9102C9.54914 12.9319 9.54914 12.9319 9.55565 12.9973C9.54914 13.0713 9.54914 13.0713 9.51107 13.1191C9.4552 13.1653 9.38827 13.1968 9.31755 13.2106L9.23717 13.2335L9.15777 13.2553L9.08281 13.2771C8.91327 13.3249 8.91327 13.3249 8.85892 13.3249L8.87411 13.3652C8.96251 13.608 9.04582 13.8529 9.12414 14.099C9.18499 14.2786 9.24259 14.4583 9.29802 14.6401C9.33067 14.7439 9.3643 14.8469 9.39912 14.9493C9.44978 15.1005 9.49838 15.2518 9.5448 15.4043C9.58309 15.5273 9.62225 15.6514 9.66217 15.7744C9.83497 16.3134 9.83497 16.3134 9.90233 16.543C9.96037 16.7422 10.0231 16.9404 10.0893 17.1374C10.1494 17.317 10.2045 17.4978 10.2556 17.6818C10.2976 17.8265 10.3419 17.9724 10.3883 18.1172C10.4506 18.3099 10.5078 18.5058 10.56 18.7029C10.5889 18.8139 10.6209 18.9239 10.6557 19.0338C10.7089 19.2004 10.7437 19.3713 10.7807 19.5412L10.8372 19.8003C10.8893 19.7481 10.8872 19.6392 10.9002 19.5673L10.9524 19.282L10.9807 19.1286L11.0383 18.8085L11.1741 18.066L11.1872 17.9953C11.2524 17.6415 11.3187 17.2876 11.385 16.9339L11.4817 16.4124L11.5176 16.4418C11.6328 16.5332 11.7567 16.6137 11.8959 16.666L11.9415 16.6431L11.9643 16.6889C12.0405 16.7063 12.1165 16.7213 12.1927 16.7335C12.2644 16.7586 12.2644 16.7586 12.3057 16.8119C12.3296 16.8663 12.3492 16.9164 12.3665 16.973C12.3937 17.0623 12.4317 17.1428 12.4752 17.2256C12.4937 17.2648 12.4937 17.2648 12.4937 17.3345H12.5404C12.581 17.4412 12.6191 17.549 12.6545 17.6567H12.7013L12.7296 17.7417C12.7622 17.8288 12.8035 17.8853 12.8622 17.9561L12.9307 18.0835C12.9785 18.1717 13.0263 18.2489 13.0927 18.3252C13.1014 18.3419 13.1111 18.3589 13.122 18.3763C13.1698 18.4547 13.2252 18.5211 13.285 18.5908L13.3176 18.6288C13.3683 18.6898 13.4216 18.7475 13.4774 18.8031C13.5296 18.8564 13.56 18.9075 13.5981 18.9707L13.7937 19.1667L13.8362 19.208L13.9274 19.3017C14.4296 19.7862 15.0101 20.1802 15.6449 20.4666C17.1665 21.2047 19.0144 21.283 20.6122 20.7464C21.6253 20.3925 22.884 19.7557 23.4928 18.8303C23.5244 18.8315 23.5557 18.8396 23.584 18.8543C23.6242 18.9109 23.6242 18.9109 23.6601 18.9795L23.6959 19.0491C23.7221 19.1079 23.7221 19.1079 23.7221 19.1536H23.7688C23.8025 19.2015 23.8025 19.2015 23.8416 19.2679C23.9178 19.3909 24.0003 19.5031 24.0917 19.6152C24.114 19.6443 24.1373 19.6733 24.1612 19.7023C24.5069 20.1421 24.909 20.534 25.3569 20.8672C26.5743 21.8013 28.1613 22.315 29.7048 22.2389L29.77 22.2356C30.5895 22.1954 31.4113 22.0397 32.1613 21.7087L32.2156 21.6858C32.7547 21.454 32.7547 21.454 33.2449 21.1393C33.2856 21.1116 33.332 21.0933 33.3809 21.086V21.0402C33.5363 20.9477 33.5363 20.9477 33.5874 20.9477V20.902L33.6331 20.8944L33.6798 20.8791L33.7037 20.8095C33.7504 20.7942 33.7504 20.7942 33.795 20.7877V20.7409C33.8429 20.7014 33.8918 20.6633 33.9418 20.6266C34.0526 20.546 34.0526 20.546 34.1406 20.4415H34.2092L34.2276 20.4002C34.2592 20.3435 34.2917 20.3131 34.3417 20.2716C34.5102 20.1356 34.5102 20.1356 34.6243 19.957H34.67V19.9113L34.7385 19.8645L34.7689 19.8145C34.8102 19.7458 34.8581 19.6904 34.9113 19.6294C34.9429 19.5914 34.972 19.5515 34.9983 19.5096L35.0374 19.4497H35.0841L35.0917 19.4084C35.1063 19.3613 35.1311 19.3183 35.1646 19.282C35.2352 19.1907 35.295 19.0948 35.3537 18.9968L35.3809 18.9511C35.4274 18.8755 35.4666 18.7955 35.4983 18.7127H35.5439L35.57 18.6256C35.5983 18.5397 35.6342 18.4623 35.6765 18.3817C35.8124 18.1161 35.9027 17.8299 35.9896 17.5445L36.007 17.488C36.0332 17.405 36.0517 17.3192 36.0625 17.2332C36.0732 17.1564 36.0921 17.0808 36.119 17.0079C36.1334 16.9339 36.1453 16.8598 36.1548 16.7858L36.1634 16.7281C36.2037 16.4559 36.2156 16.1837 36.2156 15.9084V15.8583C36.2125 15.3999 36.1752 14.9437 36.1037 14.4866C36.0691 14.2622 36.0204 14.0402 35.9581 13.8224L35.9255 13.6972C35.8005 13.1768 35.5972 12.6783 35.3244 12.2167C35.1722 11.9663 35.1722 11.9663 35.1298 11.8389H35.0841V11.7922H35.0146L34.9884 11.7105C34.9491 11.611 34.889 11.521 34.8124 11.4459L34.7407 11.3654L34.7059 11.3262L34.5624 11.1596C34.5162 11.1073 34.4677 11.0572 34.4168 11.0093L34.3341 10.9267L34.2928 10.8853L34.2113 10.8015C34.0949 10.6893 33.97 10.5859 33.845 10.4825L33.782 10.4281C33.7276 10.3834 33.7277 10.3834 33.6569 10.3638L33.5657 10.2484C33.5233 10.2101 33.4738 10.1805 33.42 10.1613C33.3687 10.1392 33.3223 10.1074 33.283 10.0677C33.2116 10.0063 33.1297 9.95884 33.0407 9.92727C32.9776 9.89679 32.9298 9.85432 32.8755 9.81078C32.7233 9.72249 32.5603 9.65292 32.3917 9.60394V9.55712L32.3472 9.55059C32.207 9.51597 32.071 9.46743 31.9406 9.40581C31.8493 9.36226 31.7536 9.32808 31.6559 9.30347L31.5156 9.26972L31.4472 9.2523C31.3797 9.23488 31.3797 9.23488 31.3167 9.21202C31.2113 9.17937 31.1037 9.15976 30.995 9.13909L30.9298 9.12711C30.8102 9.10424 30.8102 9.10424 30.6895 9.09663L30.6265 9.07485C30.3374 8.98123 30.009 8.99973 29.708 8.99973H29.6569C29.4775 8.99973 29.3015 9.003 29.1243 9.02695L29.0102 9.02586C28.8602 9.02521 28.7091 9.03762 28.5612 9.06288C28.4884 9.07221 28.4156 9.07583 28.3417 9.07376V9.11948C28.1993 9.15541 28.0548 9.18557 27.9102 9.20984C27.8124 9.22835 27.7177 9.26025 27.6287 9.30456C27.5688 9.33286 27.5069 9.35245 27.4438 9.37314L27.3982 9.3971C27.3525 9.41887 27.3525 9.41887 27.2895 9.42975C26.9634 9.48637 26.5841 9.67906 26.3167 9.87175C26.2663 9.90626 26.2133 9.93652 26.158 9.9621C25.846 10.1287 25.5689 10.3616 25.3047 10.5935L25.2471 10.6447C24.9709 10.8842 24.7199 11.1498 24.4971 11.4394L24.384 11.5853C24.3155 11.5624 24.3155 11.5624 24.2863 11.5167L24.2569 11.4557C24.1887 11.324 24.1112 11.1966 24.0265 11.0746C23.9754 10.9952 23.9754 10.9952 23.9014 10.9397C23.8516 10.8572 23.8056 10.7721 23.7634 10.6861H23.7167L23.7015 10.648C23.6623 10.5794 23.6123 10.5347 23.5558 10.4792L23.4742 10.3856C23.4345 10.3381 23.3929 10.2924 23.3493 10.2484C23.3079 10.2057 23.2683 10.1614 23.2308 10.1156C23.1504 10.0268 23.0611 9.94686 22.9645 9.87611C22.9059 9.82646 22.8504 9.77377 22.7971 9.71825C22.6449 9.57672 22.4808 9.45915 22.3068 9.34702C22.2449 9.30347 22.2449 9.30347 22.1916 9.24904C22.1302 9.18927 22.0623 9.13691 21.9883 9.09336C21.9142 9.04904 21.846 8.99603 21.784 8.9355C21.7242 8.91808 21.7242 8.91808 21.6688 8.91155V8.86582H21.6231L21.5938 8.83534C21.5438 8.78636 21.4916 8.76241 21.4286 8.73192L21.2786 8.65898L20.9558 8.49677C20.6133 8.32041 20.2504 8.18869 19.8742 8.10486L19.8198 8.09288C19.7079 8.06785 19.5959 8.04498 19.4829 8.0243C19.4372 8.01341 19.4372 8.01341 19.4145 7.99055C19.3296 7.97531 19.2449 7.96333 19.1601 7.95462L19.084 7.94373C18.8884 7.92076 18.6905 7.91347 18.4937 7.92196L18.5166 7.85229C18.5742 7.82616 18.5742 7.82616 18.6492 7.8033L18.7318 7.77717L18.821 7.74995L18.9046 7.72273C19.0742 7.67048 19.2449 7.6204 19.4155 7.57251C19.4717 7.55584 19.5275 7.53766 19.5829 7.51807C19.7449 7.46255 19.9144 7.4288 20.0818 7.3907L20.2394 7.35477L20.3047 7.34062L20.4318 7.30796C20.6308 7.25418 20.8329 7.20976 21.0361 7.17514L21.0948 7.16426C21.5177 7.08521 21.9438 7.02055 22.3666 6.96939C23.0297 6.89101 23.6927 6.87576 24.3558 6.87576H24.4134C24.8667 6.87576 25.3145 6.88338 25.7612 6.92474L26.0374 6.94652C26.4808 6.97918 26.9264 7.03579 27.3635 7.12615L27.559 7.16534C27.8764 7.22849 28.1917 7.30034 28.5058 7.3809L28.5558 7.39396C28.7917 7.45569 29.0265 7.52351 29.258 7.59863L29.3341 7.62258C29.9135 7.80874 30.4754 8.03083 31.0298 8.28992L31.095 8.32041C31.9461 8.71777 32.758 9.18045 33.4863 9.76833L33.545 9.81404C33.8297 10.0394 34.1037 10.2778 34.3668 10.5282C34.5733 10.7176 34.7787 10.9092 34.9602 11.1226C35.0073 11.1764 35.0552 11.2289 35.1038 11.2804C35.2374 11.4231 35.3656 11.5723 35.4885 11.7268L35.5232 11.7714C36.0298 12.4116 36.4819 13.0778 36.8493 13.8181L36.882 13.8812L36.9092 13.9379C36.9569 14.02 37.0277 14.0859 37.1135 14.1273C37.2222 14.1904 37.2222 14.1904 37.2624 14.2655C37.2711 14.3418 37.27 14.4179 37.2711 14.4942C37.2754 14.7054 37.3102 14.8567 37.4005 15.0494C37.4722 15.2301 37.5265 15.4163 37.5809 15.6035L37.5939 15.6503L37.6287 15.769C37.6524 15.8285 37.6886 15.8822 37.7352 15.9257C38.0178 16.2306 38.1918 16.5419 38.1886 16.9633V17.0416C38.1886 17.1744 38.1798 17.2942 38.1483 17.4226C38.1157 17.6033 38.1864 17.7579 38.2472 17.9246C38.3538 18.2184 38.4592 18.6005 38.3614 18.9097C38.32 18.9892 38.32 18.9892 38.2722 19.0056L38.2287 19.0121L38.233 19.0796C38.2483 19.3049 38.2555 19.5292 38.2548 19.7546V20.349C38.2548 20.6973 38.2527 21.0457 38.2364 21.3941C38.2254 21.6369 38.2254 21.8807 38.2265 22.1245V22.2607L38.2287 22.584L38.2559 22.5241C38.4863 22.0146 38.7222 21.5073 38.9624 21L39.0527 20.8117C39.5071 19.8493 40.0005 18.9065 40.5309 17.9811C40.6494 17.7711 40.7711 17.5609 40.8962 17.353C40.933 17.293 40.9639 17.2299 40.9885 17.1635L40.9408 17.1473C40.8594 17.1096 40.7832 17.0621 40.7135 17.0057L40.6722 16.9763C40.4353 16.8054 40.4353 16.8054 40.3679 16.7019C40.3592 16.6464 40.3592 16.6464 40.3679 16.5876C40.4074 16.5326 40.4623 16.4901 40.5255 16.4658C40.5943 16.4273 40.6516 16.3708 40.6907 16.3024L40.7386 16.2349L40.7821 16.1729C40.8437 16.0895 40.9168 16.0161 40.9995 15.953C41.1298 15.8539 41.2092 15.7504 41.2929 15.61C41.4037 15.4336 41.5635 15.2933 41.7516 15.2051C41.7973 15.1822 41.7973 15.1822 41.8396 15.1354C41.8331 15.0374 41.7897 14.9677 41.7397 14.885C41.6665 14.7587 41.5994 14.6302 41.5397 14.4974C41.4418 14.2797 41.3548 14.0946 41.1722 13.9368L41.1396 13.9074C41.0309 13.8121 40.919 13.7201 40.8059 13.6298C40.4831 13.3729 40.2385 13.067 40.1831 12.6467C40.1668 12.4333 40.1646 12.2222 40.2527 12.024L40.2787 11.963C40.4114 11.6854 40.644 11.4698 40.9309 11.3599C41.2309 11.2804 41.4896 11.3295 41.757 11.4797C42.0526 11.6614 42.2059 11.926 42.3548 12.2276C42.5125 12.5509 42.5124 12.5509 42.7918 12.7654C42.9593 12.8187 43.1407 12.8042 43.2983 12.7251C43.6636 12.5182 43.8277 12.1035 44.0124 11.742C44.6429 10.5119 44.6429 10.5119 45.1538 10.2506C45.1704 10.2404 45.1875 10.2307 45.2049 10.2212C45.4114 10.12 45.6788 10.1254 45.8984 10.182C46.1255 10.2648 46.3136 10.3998 46.418 10.6197C46.5723 11.0039 46.4766 11.4797 46.3266 11.8498C46.1788 12.1731 46.0038 12.4834 45.8049 12.7784C45.6038 13.0691 45.6038 13.0691 45.544 13.4044C45.6038 13.4643 45.631 13.4588 45.7147 13.4588C45.9777 13.4534 46.182 13.3402 46.4071 13.2172C46.5527 13.1399 46.7038 13.0735 46.8592 13.019C47.0995 12.933 47.3267 12.8862 47.5821 12.8884L47.6549 12.8862C47.9017 12.8862 48.106 12.9483 48.2832 13.1225C48.4419 13.3053 48.4657 13.4828 48.4549 13.718C48.4278 14.0304 48.2299 14.2622 48.0017 14.4604C47.681 14.7141 47.2517 14.7925 46.8592 14.885C46.3342 15.0124 45.9984 15.3945 45.5886 15.7309C45.2842 15.9813 44.9821 16.2142 44.6223 16.3797C44.5476 16.4153 44.2821 16.3344 44.2081 16.3721C44.0646 16.444 44.0646 16.444 44.0124 16.4658C43.9613 16.4984 43.9516 16.5278 43.9255 16.5822L43.8494 16.6715C43.6918 16.8511 43.8396 17.1123 43.7961 17.3454C43.7636 17.5162 43.7244 17.6763 43.6658 17.8396C43.6157 17.9834 43.4473 17.9484 43.4636 18.0998C43.4603 18.1695 43.4603 18.1695 43.4309 18.2087C43.381 18.2468 43.3603 18.2457 43.2983 18.2381C43.1756 18.2154 43.2081 18.366 43.0962 18.3121L42.9212 18.2381C42.8723 18.2174 42.8723 18.2174 42.806 18.2217C42.531 18.7639 42.531 18.7639 42.2745 19.3103C42.2256 19.4203 42.1738 19.5292 42.119 19.637C42.0289 19.8177 41.945 20.0006 41.8679 20.1868C41.8027 20.336 41.7332 20.4839 41.6581 20.6298C41.5696 20.8084 41.4842 20.9891 41.4027 21.1709L41.3777 21.2264C41.082 21.8752 40.7951 22.5328 40.5158 23.1861C40.4128 23.4266 40.3092 23.6661 40.2038 23.9067C40.0765 24.1974 39.9548 24.4903 39.8386 24.7852L39.7864 24.9137L39.7385 25.0313L39.719 25.0814C39.6005 25.383 39.4874 25.6855 39.3776 25.9915C39.3725 26.0075 39.3664 26.0241 39.3592 26.0416C39.0505 26.8994 38.7896 27.7726 38.5766 28.6543C38.507 28.9265 38.4679 29.2009 38.432 29.4796C38.3657 29.9989 38.3657 29.9989 38.3276 30.222C38.2907 30.4474 38.2678 30.6749 38.2429 30.9025C38.2217 31.1092 38.194 31.3161 38.1592 31.523C38.1361 31.6688 38.1172 31.8158 38.1026 31.9628C38.0809 32.1642 38.0515 32.3656 38.0146 32.567C38 32.6455 37.987 32.7238 37.9755 32.8032C37.9516 32.9567 37.9264 33.1102 37.8994 33.2626L37.869 33.439L37.7646 34.0432L37.7549 34.0955C37.7157 34.3208 37.6809 34.5461 37.6505 34.7715C37.6366 34.8836 37.6141 34.9947 37.583 35.1035L37.6646 35.1069C37.7809 35.121 37.8526 35.1776 37.9288 35.2647C37.9896 35.3529 37.9864 35.452 37.9918 35.5553L37.995 35.6098C37.9979 35.6562 37.9986 35.7028 37.9972 35.7491L37.9515 35.7949C37.9374 35.8438 37.9374 35.8438 37.9298 35.9015C37.7211 37.1209 37.058 38.3075 36.2667 39.2546L36.2179 39.3167C35.9135 39.6945 35.9135 39.6945 35.7384 39.8316C35.6833 39.8839 35.6297 39.938 35.5776 39.9938C35.4755 40.0984 35.3667 40.1963 35.2515 40.2856L35.1048 40.4054C34.8743 40.597 34.632 40.7744 34.3809 40.9377L34.3298 40.9704C33.6993 41.3971 33.0254 41.7531 32.308 42.0296C32.2302 42.0598 32.1526 42.0913 32.0765 42.1243C31.9406 42.1809 31.8026 42.2343 31.6624 42.2832C31.5581 42.321 31.4548 42.361 31.3537 42.403C31.2069 42.4579 31.058 42.5048 30.9058 42.5435C30.7656 42.5827 30.6265 42.6244 30.4885 42.6687C30.3656 42.7085 30.2428 42.7458 30.1189 42.7807L29.9581 42.8265L29.9102 42.8406C29.3036 43.0149 29.4032 42.545 28.4428 43.0038L28.4058 42.9645C28.2971 42.8359 28.2601 42.6924 28.2189 42.545C28.1873 42.4385 28.1591 42.3681 28.0515 42.2935C28.0069 42.2755 28.0069 42.2755 27.9645 42.2689L27.9167 42.2624C27.8393 42.2568 27.7612 42.2555 27.6841 42.2583L27.7058 42.0502L27.7699 42.0297L27.8134 42.015L27.933 41.9789C28.0645 41.9396 28.183 41.897 28.2982 41.8355C28.3561 41.8055 28.4156 41.777 28.4765 41.7504C28.7884 41.6004 29.0319 41.4039 29.133 41.131C29.1624 40.8942 29.1624 40.8942 29.083 40.7927L29.0417 40.732C29.0667 40.6812 29.0667 40.6812 29.0917 40.6485C29.1352 40.56 29.1243 40.4609 29.1102 40.3683C29.0558 40.2912 28.9776 40.2732 28.8732 40.2446C27.9069 40.0463 26.384 40.0693 25.4493 40.3511C25.3781 40.3823 25.3156 40.4234 25.2645 40.4723L25.1818 40.5362L25.1417 40.5666C25.0893 40.6067 25.0254 40.6377 24.9558 40.6575C24.8858 40.6771 24.8112 40.685 24.7362 40.6805L24.6905 40.6633C24.484 40.6445 24.2753 40.6718 24.0906 40.742C24.0057 40.8223 24.0427 40.9418 24.0557 41.0401L24.0689 41.122C24.0862 41.24 24.0938 41.354 24.0895 41.4719C24.0794 41.5825 24.1122 41.6931 24.1841 41.7906L24.2297 41.8594L24.1862 41.875C24.1384 41.8946 24.1384 41.8946 24.0917 41.929C24.0817 42.0273 24.1055 42.1265 24.1612 42.2158L24.1808 42.2534L24.2297 42.3452L24.1449 42.3509C24.0025 42.3624 23.8634 42.3886 23.7243 42.4148C23.7292 42.3956 23.7354 42.3763 23.7427 42.3567C23.7884 42.2076 23.8253 42.0617 23.8449 41.9094C23.8546 41.8414 23.8699 41.7807 23.8992 41.7168C23.9471 41.6103 23.9678 41.4711 23.9057 41.3662C23.8775 41.3056 23.8938 41.2638 23.9079 41.2007C23.9138 41.1362 23.9173 41.0712 23.9189 41.0066L23.921 40.9549C23.9221 40.9074 23.921 40.8648 23.9079 40.8189C23.7938 40.7362 23.6448 40.7206 23.4939 40.6977L23.4231 40.6871C23.2797 40.669 23.134 40.6584 22.9884 40.6551C22.9623 40.6551 22.9623 40.6551 22.9373 40.6535C22.847 40.6535 22.808 40.66 22.7372 40.7035C22.6883 40.7493 22.6883 40.7493 22.6428 40.8018C22.4851 40.8133 22.3373 40.7878 22.184 40.764L22.1112 40.7534C21.9623 40.736 21.821 40.6932 21.6982 40.6281C21.6737 40.594 21.6509 40.5592 21.6297 40.524C21.3286 40.3667 20.8318 40.3765 20.4775 40.3545L20.2634 40.3405C19.7535 40.3077 19.2438 40.2955 18.7307 40.2946C18.6546 40.2946 18.5786 40.2941 18.5025 40.293C18.2395 40.2903 17.9764 40.3021 17.7155 40.3282C17.5948 40.3414 17.4883 40.3561 17.4101 40.4323C17.3611 40.5559 17.4101 40.6666 17.4633 40.7845L17.3938 40.8018C17.3576 40.8523 17.3351 40.9083 17.3275 40.9648C17.3201 41.022 17.3277 41.0795 17.3503 41.1351C17.5188 41.4841 17.9775 41.7217 18.4068 41.8766C18.5275 41.9148 18.6492 41.9498 18.7742 41.9814L18.8394 42.0003C19.1285 42.0863 19.4329 42.1265 19.7416 42.1371V42.3452L19.6221 42.3518C19.509 42.3575 19.4134 42.3648 19.3329 42.4287C19.3031 42.4673 19.2817 42.5094 19.2699 42.5533L19.2514 42.6049L19.222 42.7057C19.1458 42.9474 19.0014 43.1735 18.7981 43.3684L18.7666 43.4012C18.6069 43.5568 18.3688 43.0398 18.1405 42.9179L18.0949 42.8939C17.8123 42.7491 17.5047 42.6554 17.2057 42.5531L17.1438 42.5313C16.8209 42.4204 16.4938 42.319 16.1655 42.2265L16.1188 42.2124L15.997 42.1776C15.9163 42.1514 15.8372 42.1205 15.7601 42.085C15.6328 42.0347 15.5035 41.9904 15.372 41.9522C14.5741 41.7007 13.8176 41.3251 13.1328 40.8418L13.0828 40.807C12.8763 40.66 12.6785 40.5021 12.4883 40.3344L12.4393 40.2931L12.2382 40.1145C11.9524 39.8576 11.6926 39.5735 11.46 39.2665L11.373 39.1576C10.9883 38.6732 10.7187 38.1266 10.51 37.5464L10.4795 37.4637C10.2883 36.8899 10.16 36.2988 10.098 35.7001C10.0906 35.6182 10.0701 35.5378 10.0372 35.4627C10.0031 35.3831 9.98857 35.2962 9.99476 35.2102V35.123C10.0038 35.0256 10.0425 34.9336 10.1056 34.8586C10.1926 34.7931 10.2905 34.8073 10.3948 34.8084L10.3872 34.7486C10.1926 33.2245 10.0198 31.6894 9.93499 30.1545L9.93065 30.076C9.83606 28.3668 9.83606 28.3668 9.84582 27.6374C9.86762 25.765 9.5013 23.9687 9.05233 22.1614L8.9687 21.8305L8.93604 21.7032C8.87335 21.4494 8.80783 21.1958 8.73938 20.9432L8.71649 20.8561L8.69371 20.7669L8.49802 20.0157L8.42741 19.7469L8.3991 19.638L8.32739 19.3636C8.31715 19.3274 8.30737 19.2911 8.29802 19.2548L8.22736 18.987L8.04257 18.288L7.89801 17.7405C7.82116 17.4443 7.7404 17.1493 7.6567 16.8553L7.63604 16.7846C7.55996 16.5146 7.47953 16.2467 7.39365 15.9812C7.34865 15.8407 7.30626 15.7003 7.26647 15.5587C7.16224 15.194 7.05234 14.8316 6.93604 14.4701L6.91973 14.4156L6.85017 14.2001L6.83168 14.138L6.81538 14.0902C6.80343 14.0357 6.80451 13.9834 6.80451 13.928L6.56756 13.9955L6.50017 14.015L6.37407 14.051L6.25342 14.0891C6.17082 14.0978 6.09582 14.1043 6.02299 14.0629C5.98929 13.9998 5.99038 13.954 6.00016 13.8822L6.03494 13.8496C6.0806 13.8005 6.07842 13.7734 6.07842 13.708V13.5741L6.0806 12.9776V12.909C6.0806 12.7761 6.06864 12.6945 5.97733 12.591C5.86103 12.4931 5.71429 12.4409 5.57298 12.3886C5.16537 12.2373 4.79689 11.9956 4.4958 11.681C4.37624 11.5677 4.24797 11.4632 4.11319 11.3696L4.07406 11.3413C3.66861 11.0474 3.22079 10.8471 2.74796 10.6794C2.18708 10.478 2.18708 10.478 1.96751 10.3093L1.91208 10.2668C1.81034 10.1862 1.72512 10.0861 1.66316 9.97179C1.6012 9.85749 1.56099 9.73229 1.54686 9.60383C1.54405 9.54254 1.54295 9.48081 1.5436 9.41984L1.54251 9.35779C1.53621 9.20756 1.58795 9.0595 1.68708 8.94628C1.93925 8.72963 2.22729 8.69806 2.54904 8.71439C2.96861 8.75032 3.3534 8.92995 3.73383 9.09978C4.11319 9.2805 4.11319 9.2805 4.52297 9.3186C4.54797 9.09325 4.50232 8.96478 4.3621 8.78952L4.19037 8.59029C3.83275 8.1766 3.62079 7.68235 3.64905 7.13148C3.66285 6.88109 3.77188 6.64486 3.95449 6.47284C4.31753 6.17673 4.78059 6.24097 5.16103 6.46631L5.19689 6.4784Z" fill="#EBC74D"/>
<path d="M14.9395 30.8986C15.3289 30.8986 15.6445 30.5829 15.6445 30.1934C15.6445 29.8041 15.3289 29.4883 14.9395 29.4883C14.55 29.4883 14.2344 29.8041 14.2344 30.1934C14.2344 30.5829 14.55 30.8986 14.9395 30.8986Z" fill="#2A2C32"/>
<path d="M10.5187 23.625L15.4728 29.6124C21.1673 29.8341 26.7669 29.8341 32.2715 29.6124L38.5923 23.9576C38.8809 24.1277 39.0024 24.3495 38.9568 24.6228L32.7271 30.7211L33.0117 35.7106C34.7581 35.7106 36.4984 35.7184 38.017 35.4227C37.9031 37.012 37.2826 38.2607 36.3715 39.4804C35.0808 41.1066 32.9358 42.2339 29.9368 42.8621C29.8989 44.1188 29.4474 42.0799 29.0678 42.3386C28.878 42.0799 27.6781 43.8416 27.602 42.3632C25.2483 42.6589 22.8187 42.6589 20.3132 42.3632C20.2457 43.6758 19.5035 42.6577 18.6737 43.1547C18.6617 43.3359 18.6395 43.5284 18.6048 43.7299C18.5571 43.5404 18.5122 43.4039 18.47 43.3078C18.432 43.3425 18.3941 43.3809 18.356 43.4234C18.3379 43.3123 18.3219 43.2069 18.308 43.1068C18.1132 43.0649 18.005 43.7432 17.9784 42.8621C15.0552 42.2709 12.9293 41.1806 11.6006 39.5913C10.6516 38.4456 10.1011 37.0227 9.94922 35.3226C11.1261 35.5813 12.2649 35.7106 13.3659 35.7106L13.6506 30.7765L10.177 24.1239C10.2149 23.9022 10.3288 23.7359 10.5187 23.625Z" fill="url(#paint0_linear_3226_42802)"/>
<path d="M14.7217 31.5509C15.1111 31.5509 15.4268 31.2352 15.4268 30.8458C15.4268 30.4564 15.1111 30.1406 14.7217 30.1406C14.3323 30.1406 14.0166 30.4564 14.0166 30.8458C14.0166 31.2352 14.3323 31.5509 14.7217 31.5509Z" fill="#2A2C32"/>
<path d="M19.1689 31.4414H26.3825V35.1841C26.3825 36.6487 24.9723 37.6793 22.7486 37.6793C20.5791 37.6793 19.1689 36.6487 19.1689 35.1841V31.4414Z" stroke="#9EC7DF" stroke-width="0.35" stroke-linejoin="round"/>
<path d="M23.2373 38.2773C23.3148 39.4526 23.3923 40.6645 23.5085 41.8031" stroke="#9EC7DF" stroke-width="0.35" stroke-linecap="round"/>
<path d="M14.6617 41.9446C15.141 41.5366 15.7615 41.3421 16.3791 41.221C17.8806 40.9263 19.5177 40.8995 20.9642 41.1821C21.8697 41.3592 22.6467 42.2831 22.1298 43.0475C21.7772 43.5689 21.0837 43.8756 19.9265 43.9677H15.0872C13.9449 43.9677 13.5848 42.861 14.6617 41.9446Z" fill="#2A2C32"/>
<path d="M35.0674 41.9446C34.5881 41.5366 33.9676 41.3421 33.3501 41.221C31.8486 40.9263 30.2115 40.8995 28.7649 41.1821C27.8594 41.3592 27.0824 42.2831 27.5993 43.0475C27.9519 43.5689 28.6454 43.8756 29.8026 43.9677H34.6419C35.7842 43.9677 36.1444 42.861 35.0674 41.9446Z" fill="#2A2C32"/>
<path d="M18.1924 7.77105H18.4299C18.4842 7.7743 18.4842 7.7743 18.508 7.79709C18.5543 7.79709 18.6006 7.796 18.6469 7.79383C18.8367 7.79169 19.0266 7.8062 19.2142 7.83722C19.3238 7.85133 19.416 7.86977 19.5179 7.91208L19.6557 7.93378L19.8651 7.99019C19.954 8.01481 20.044 8.03684 20.1341 8.05636C20.325 8.1041 20.5072 8.18221 20.6895 8.25598L20.773 8.2896C20.8815 8.333 20.9791 8.37965 21.08 8.4404L21.2091 8.50549C21.3425 8.57134 21.4759 8.6411 21.6082 8.71595V8.76151L21.6777 8.77562C21.7666 8.80057 21.8187 8.84505 21.8859 8.90688C21.9489 8.96112 22.0172 9.0056 22.0877 9.05117C22.1354 9.08371 22.1832 9.11409 22.2276 9.15206V9.19762L22.2678 9.21715C22.4457 9.30936 22.6019 9.43846 22.7559 9.5643L22.7971 9.59793C22.8731 9.65976 22.9392 9.72594 23.0086 9.79537L23.1822 9.94942C23.2371 10.0001 23.2863 10.0557 23.3297 10.1165V10.162L23.371 10.1794C23.4274 10.212 23.4588 10.2445 23.5011 10.2944L23.5423 10.3432L23.5825 10.392L23.6183 10.4333C23.6975 10.5244 23.6975 10.5244 23.6975 10.5754H23.743C23.7684 10.6034 23.7923 10.6328 23.8146 10.6632L23.8526 10.7121C23.8808 10.7598 23.8808 10.7598 23.8808 10.8281L23.9502 10.8509C23.9893 10.903 24.0261 10.9558 24.0608 11.0093L24.0912 11.056C24.1737 11.1829 24.2485 11.3131 24.3168 11.4487C24.4058 11.4194 24.4362 11.3662 24.4882 11.2935C24.6119 11.1276 24.7486 10.9768 24.8918 10.8281L24.9308 10.7869C25.1 10.6133 25.2725 10.4495 25.4656 10.2998L25.535 10.2456C25.7899 10.0438 26.0568 9.86263 26.3377 9.70316L26.3909 9.6717C26.5406 9.58849 26.6935 9.51223 26.8508 9.44388L26.9159 9.41459C27.1762 9.29743 27.1762 9.29743 27.3194 9.2779C27.3954 9.27356 27.3954 9.27356 27.4398 9.2204L27.5548 9.19871L27.685 9.14229C27.8878 9.05551 28.0939 9.03164 28.313 9.01428V8.96763L28.5398 8.934L28.6038 8.92315C28.7448 8.90254 28.8815 8.89603 29.0246 8.89929C29.0962 8.90037 29.0962 8.90037 29.1776 8.88844C29.3436 8.86891 29.5095 8.87217 29.6766 8.87217H29.7286C29.9326 8.87217 30.1354 8.87434 30.3372 8.89495L30.3871 8.89929C30.4627 8.90842 30.5368 8.9289 30.6062 8.96004L30.6778 8.9915L30.7233 8.96763C30.7586 8.97133 30.7937 8.97676 30.8286 8.98391L30.8926 8.99692L30.9587 9.00994L31.0238 9.02188C31.1345 9.04357 31.2386 9.06852 31.3438 9.10541C31.3872 9.11767 31.4317 9.12852 31.4772 9.13795C31.6714 9.18677 31.8515 9.25186 32.0348 9.33106C32.1021 9.3585 32.1704 9.38313 32.2398 9.40483L32.3537 9.45039V9.49595L32.4383 9.50897C32.6075 9.54586 32.7703 9.6359 32.9069 9.73896C32.9555 9.77313 33.0075 9.8022 33.0621 9.82575C33.1519 9.86925 33.2345 9.92631 33.3072 9.99498C33.3419 10.0275 33.3419 10.0275 33.3983 10.0471C33.4851 10.0818 33.5534 10.1414 33.6174 10.2087V10.2543L33.6554 10.2608C33.7237 10.2825 33.7661 10.3172 33.8214 10.3627L33.881 10.4137L33.9841 10.4973C34.0159 10.5225 34.0466 10.5486 34.0763 10.5754V10.622L34.1273 10.6372C34.2032 10.673 34.2401 10.7142 34.2943 10.7782C34.3778 10.8737 34.3778 10.8737 34.4668 10.9648C34.5124 11.0115 34.5124 11.0115 34.5351 11.0809L34.6046 11.1037C34.6783 11.184 34.7434 11.2708 34.8107 11.3565L34.854 11.4096C34.9256 11.4975 34.9658 11.5615 34.9712 11.6776H35.0406V11.7242H35.0862C35.2033 11.8794 35.2955 12.0573 35.3856 12.2287L35.4062 12.2688C35.6936 12.8156 35.8726 13.3971 36.005 13.9937L36.0158 14.0415C36.2241 14.943 36.351 16.1461 36.0505 17.0465L36.0256 17.1647C35.9848 17.3502 35.932 17.5336 35.8672 17.7126L35.8444 17.7777C35.7973 17.9111 35.7438 18.0424 35.6839 18.1715L35.5863 18.3797C35.5776 18.3963 35.5692 18.4145 35.5613 18.434C35.5396 18.476 35.519 18.5186 35.4995 18.562H35.4539L35.4463 18.613C35.4323 18.6698 35.4092 18.7236 35.378 18.7735L35.3454 18.8278L35.3107 18.882L35.2782 18.9363C35.2286 19.0168 35.1739 19.0936 35.1144 19.1673C35.0602 19.2248 35.0602 19.2248 35.0406 19.2975H34.9951L34.9777 19.3344C34.9164 19.4494 34.8367 19.5525 34.7423 19.6414L34.7033 19.7065L34.6729 19.7564H34.6273V19.802L34.5818 19.8248L34.5525 19.8757C34.5052 19.9459 34.4499 20.0103 34.3876 20.0678L34.3551 20.1003L34.2596 20.1925L34.2108 20.2468C34.1674 20.2836 34.1674 20.2836 34.0991 20.2836L34.0839 20.3238C34.0427 20.3932 33.9906 20.4344 33.9266 20.4854L33.8593 20.5408C33.8008 20.5831 33.8008 20.5831 33.7552 20.5831V20.6286L33.7129 20.6471C33.6619 20.672 33.6619 20.672 33.6261 20.7122L33.5936 20.7436H33.548V20.7892C33.3929 20.8814 33.3929 20.8814 33.3419 20.8814V20.927C33.3043 20.9516 33.266 20.9747 33.2269 20.9964L33.1651 21.0354C31.6248 22.001 29.759 22.3264 27.98 21.9435C27.186 21.7666 26.4288 21.4542 25.7455 21.0192L25.6804 20.978C25.3734 20.7783 25.0859 20.5516 24.8223 20.2988C24.7518 20.2328 24.6792 20.1687 24.6043 20.1079C24.5739 20.0775 24.5739 20.0775 24.5739 20.032L24.5338 20.0146C24.3266 19.8985 24.1672 19.6241 24.024 19.4342L23.9871 19.3876L23.8493 19.2042C23.7994 19.1447 23.7644 19.074 23.7474 18.9981H23.7018C23.6482 18.9005 23.5947 18.8007 23.5413 18.6998C23.4718 18.6922 23.4718 18.6922 23.436 18.7334L23.3981 18.7801C23.1887 19.0317 22.9512 19.2585 22.6908 19.457L22.604 19.5264C21.183 20.6438 19.3715 21.0995 17.5817 20.8933C16.3234 20.7284 15.0651 20.2131 14.1213 19.342C14.0748 19.2994 14.0271 19.2581 13.9782 19.2183L13.912 19.1587V19.1131L13.8719 19.0968C13.8171 19.0622 13.7689 19.0182 13.7297 18.9666C13.6813 18.9075 13.6267 18.8538 13.567 18.8061L13.5215 18.7681V18.6998L13.4803 18.6813C13.4329 18.6568 13.3923 18.6211 13.362 18.5772L13.3251 18.5316L13.2861 18.4828L13.246 18.4329C13.106 18.2669 12.9824 18.0868 12.8782 17.8959L12.7329 17.667C12.6949 17.5976 12.6949 17.5976 12.6949 17.5054H12.6493L12.5919 17.3969L12.5593 17.335C12.5344 17.2754 12.5344 17.2754 12.5344 17.1832H12.4888C12.3283 16.8317 12.3283 16.8317 12.287 16.6852C12.2632 16.6277 12.2632 16.6277 12.2013 16.6136L12.1298 16.6028C12.0028 16.5784 11.8803 16.5352 11.7664 16.4748L11.7208 16.4531C11.5494 16.3641 11.4247 16.2643 11.3607 16.0766C11.3426 15.997 11.3375 15.915 11.3455 15.8336C11.3455 15.8177 11.3466 15.8018 11.3487 15.7859C11.3693 15.5331 11.3986 15.2803 11.4258 15.0276L11.4453 14.854L11.4843 14.4895L11.5245 14.1228C11.6503 12.962 11.6503 12.962 11.7262 12.4196L11.7425 12.297C11.8098 11.7947 11.8098 11.7947 12.0061 11.6277L12.0582 11.581C12.1287 11.5311 12.1775 11.5224 12.2599 11.5051C12.4747 11.427 12.5311 11.2317 12.6233 11.0375C12.8565 10.5504 13.2178 10.1284 13.5909 9.74655L13.6419 9.69231C13.8588 9.46015 14.0942 9.24861 14.3481 9.05768L14.4381 8.9915C15.5228 8.19739 16.8462 7.76562 18.1913 7.76562L18.1924 7.77105Z" fill="#DFDFE0"/>
<path d="M17.5419 23.4688L17.5821 23.51C17.7708 23.6944 18.0496 23.7541 18.3002 23.8029L18.4314 23.8365C18.5573 23.8691 18.6853 23.8799 18.8133 23.8951L19.1029 23.9287L19.1625 23.9352C19.3198 23.9537 19.476 23.9558 19.6344 23.9558H19.7125C19.9154 23.9662 20.1171 23.9191 20.295 23.8202C20.3493 23.7909 20.3493 23.7909 20.3894 23.7226H20.4349L20.461 23.7953C20.5369 23.9689 20.7072 24.0372 20.8721 24.1121C20.9443 24.1395 21.0185 24.163 21.0934 24.1826L21.1585 24.1999C21.4622 24.277 21.7768 24.3084 22.0881 24.341L22.1586 24.3486C22.996 24.4343 22.996 24.4343 23.764 24.1772C23.8139 24.1359 23.8139 24.1359 23.8584 24.0839C23.905 24.0426 23.905 24.0426 23.9625 24.0307C24.0417 24.0481 24.0612 24.0839 24.109 24.15C24.3411 24.4581 24.6405 24.5677 25.0137 24.6284L25.0679 24.6371C25.2653 24.6682 25.4638 24.6935 25.6623 24.7131L25.7209 24.7196C25.9953 24.7484 26.272 24.7641 26.5486 24.7662L26.6397 24.7684C26.8805 24.7662 27.1181 24.738 27.3035 24.571C27.3361 24.5232 27.3361 24.5232 27.3567 24.4733L27.3784 24.4245L27.3947 24.3876C27.4565 24.4158 27.4858 24.431 27.5281 24.4863C27.7472 24.7554 28.1236 24.8313 28.4512 24.8704C28.6649 24.8917 28.8786 24.9004 29.0934 24.8964H29.511C29.9004 24.8964 29.9004 24.8964 30.2877 24.8704C30.2031 25.1372 29.997 25.3369 29.8061 25.5354L29.7529 25.5918C29.626 25.722 29.4904 25.837 29.3472 25.9498L29.3071 25.9813C28.0379 26.9739 26.5193 27.4458 24.9356 27.6302L24.8889 27.6367C24.3715 27.6975 23.8476 27.6975 23.3269 27.6964H23.2401C22.8008 27.6964 22.3658 27.6855 21.9276 27.6465L21.8354 27.6389C21.4351 27.61 21.037 27.5589 20.6421 27.4859L20.5597 27.4697C19.4424 27.2418 18.4227 26.8188 17.5766 26.0485L17.4627 25.9476C17.0267 25.5582 16.6579 25.1004 16.3672 24.5916C16.3455 24.5518 16.3227 24.5119 16.2988 24.4722C16.1903 24.2813 16.1057 24.0817 16.0222 23.8777L15.9875 23.7942C15.9072 23.5935 15.9072 23.5935 15.9072 23.5165L15.9615 23.5241L16.2912 23.5751C16.6817 23.6326 17.0657 23.6271 17.4411 23.4883C17.4942 23.4698 17.4942 23.4698 17.5398 23.4698L17.5419 23.4688Z" fill="#221411"/>
<path d="M46.4153 9.96495C46.5981 10.0745 46.7288 10.2454 46.7821 10.4437C46.9419 11.2213 46.4734 11.9372 46.0462 12.5642C45.8222 12.8674 45.8222 12.8674 45.7557 13.2197C45.8235 13.2812 45.8525 13.2755 45.9456 13.2766C46.2386 13.2698 46.4662 13.1512 46.7179 13.0224C46.8631 12.9494 47.0084 12.8879 47.1646 12.8343L47.2214 12.8149C47.4889 12.7261 47.7419 12.6758 48.0263 12.6781L48.1074 12.6758C48.381 12.6758 48.6098 12.7408 48.807 12.9233C48.9838 13.1148 49.0092 13.3006 48.997 13.5469C48.9681 13.874 48.7466 14.1168 48.4923 14.3243C48.1353 14.5899 47.7322 14.7199 47.2953 14.8179C46.7094 14.9501 46.2628 15.3024 45.8065 15.6547C45.4676 15.9168 45.1299 16.1608 44.7293 16.334C44.6462 16.3713 44.5635 16.4097 44.4823 16.4493C44.3214 16.5256 44.3214 16.5256 44.2645 16.5484C44.2064 16.5803 44.1955 16.6134 44.1676 16.6703L44.0817 16.7639C43.9062 16.9508 43.8578 17.1014 43.8094 17.3452C43.7731 17.5242 43.7307 17.6918 43.6641 17.8628C43.6086 18.0133 43.589 18.1751 43.6073 18.3336C43.6049 18.4077 43.6049 18.4077 43.5709 18.4476C43.5273 18.4795 43.5273 18.4795 43.4281 18.4795C43.2647 18.4568 43.1171 18.3951 42.9657 18.3347L42.9174 18.3165C42.3 18.0749 41.7069 17.7875 41.1381 17.4559C40.1407 16.8767 40.1407 16.8767 39.9943 16.6693C39.9845 16.6111 39.9845 16.6111 39.9943 16.5496C40.0387 16.4916 40.1001 16.4472 40.171 16.4219C40.2475 16.3819 40.3114 16.3232 40.355 16.252L40.4071 16.1802L40.4554 16.1152C40.5245 16.0282 40.6068 15.9511 40.6987 15.8861C40.844 15.7812 40.9323 15.6729 41.0255 15.527C41.149 15.3423 41.3257 15.1941 41.5351 15.1018C41.5871 15.0778 41.5871 15.0778 41.6343 15.0288C41.6259 14.9262 41.5787 14.8532 41.5217 14.7667C41.4408 14.6344 41.3668 14.4999 41.3002 14.3608C41.1901 14.1328 41.0945 13.939 40.8912 13.7737L40.8536 13.7429C40.7327 13.6426 40.6091 13.5457 40.482 13.4523C40.1225 13.1832 39.8514 12.8629 39.7897 12.4228C39.7703 12.2005 39.7691 11.9782 39.866 11.7707L39.8951 11.7069C40.0427 11.4219 40.3041 11.1848 40.6213 11.0754C40.9553 10.9922 41.2446 11.0435 41.5423 11.2008C41.8704 11.3912 42.041 11.6681 42.2081 11.985C42.3836 12.3225 42.3836 12.3225 42.6947 12.5471C42.881 12.6028 43.0831 12.5881 43.2574 12.5061C43.6641 12.2871 43.8481 11.854 44.0527 11.4766C44.7547 10.1884 44.7547 10.1884 45.3235 9.9148L45.3817 9.88516C45.7097 9.73468 46.1152 9.79965 46.4189 9.96838" fill="#515362"/>
<path d="M5.01119 6.19394C5.39831 6.44773 5.6087 6.85333 5.82511 7.23628C6.19178 7.94779 6.19178 7.94779 6.77005 8.49389L6.81934 8.52109C6.97203 8.58114 7.18001 8.55055 7.33029 8.49389C7.59838 8.36927 7.73184 8.13814 7.8773 7.90475C8.08529 7.57277 8.33895 7.29746 8.73694 7.17284C9.09762 7.089 9.41263 7.16944 9.72276 7.34279C9.95717 7.49914 10.1291 7.72799 10.206 7.98972C10.2192 8.08172 10.2234 8.1744 10.218 8.2673C10.2036 8.77148 9.88992 9.09891 9.52197 9.43428C9.45255 9.49433 9.38258 9.55325 9.31044 9.61102C9.05195 9.82516 8.9016 10.003 8.80788 10.3135C8.78261 10.3883 8.75256 10.4562 8.71774 10.5265C8.57347 10.8075 8.57347 10.8075 8.55177 11.1123C8.59994 11.1984 8.66719 11.2732 8.74898 11.3332C8.97743 11.5168 9.08319 11.7253 9.18776 11.9824C9.39332 12.507 9.39332 12.507 9.79847 12.8877C9.82494 12.9104 9.82494 12.9104 9.83221 12.9783C9.82255 13.0735 9.79966 13.0916 9.72276 13.1505C9.66266 13.1755 9.66266 13.1755 9.58933 13.1947L9.50038 13.2174L9.44983 13.2321C9.38323 13.2496 9.31641 13.2677 9.24905 13.2865C9.00379 13.3556 8.75864 13.4224 8.50849 13.4746C8.30048 13.5199 8.0949 13.5766 7.89053 13.6332L7.72222 13.6785C7.51063 13.7367 7.30023 13.7986 7.08984 13.8654L7.01411 13.8881L6.40097 14.083C6.27473 14.1257 6.14008 14.1432 6.00664 14.1339C5.95614 14.1067 5.95614 14.1067 5.9309 14.0626C5.92128 13.9901 5.92128 13.9901 5.9309 13.9187L5.96937 13.8847C6.01986 13.8337 6.01745 13.8053 6.01745 13.7374V13.598L6.01986 12.9772V12.9058C6.01986 12.7676 6.00664 12.6826 5.90565 12.5749C5.77701 12.4729 5.61471 12.4186 5.45842 12.3642C5.00759 12.2067 4.60003 11.9553 4.26701 11.6277C4.13477 11.5099 3.99291 11.4012 3.84383 11.3038L3.80055 11.2743C3.35213 10.9684 2.8568 10.7599 2.33384 10.5854C1.71349 10.3758 1.71349 10.3758 1.47064 10.2002L1.40933 10.156C1.2968 10.072 1.20255 9.96792 1.13402 9.84895C1.06549 9.72999 1.021 9.5997 1.00538 9.466C1.00227 9.40221 1.00107 9.33798 1.00177 9.27453L1.00057 9.20995C0.993614 9.0536 1.05082 8.89951 1.16047 8.78168C1.43938 8.55621 1.75797 8.52336 2.11383 8.54035C2.57789 8.57774 3.00348 8.76468 3.42425 8.94143C3.84383 9.12951 3.84383 9.12951 4.29707 9.16916C4.32472 8.93463 4.27423 8.80094 4.11914 8.61852L3.92919 8.41119C3.53366 7.98065 3.29923 7.46628 3.33049 6.89299C3.34575 6.6324 3.46633 6.38654 3.66831 6.20753C4.06985 5.89936 4.582 5.96621 5.00278 6.20073L5.01119 6.19394Z" fill="#515361"/>
<path d="M20.3622 26.1725H20.4425C21.0011 26.1758 21.5598 26.192 22.1021 26.3428L22.1759 26.3624C22.4059 26.4267 22.6347 26.4936 22.8636 26.562L22.9157 26.5772L23.0459 26.6173C23.3257 26.6932 23.6045 26.6965 23.892 26.6965H23.9603C24.4625 26.6965 24.9474 26.6347 25.4356 26.5446C25.8695 26.4687 26.3164 26.396 26.7589 26.3884L26.837 26.3873C27.3827 26.3786 27.9001 26.4079 28.4316 26.5262V26.5945C27.8393 26.9341 27.2059 27.1966 26.5442 27.3756L26.4878 27.3919C25.9671 27.5362 25.4258 27.6186 24.8932 27.6815L24.8465 27.687C24.3291 27.7488 23.8063 27.7477 23.2845 27.7477H23.1977C22.7291 27.7502 22.2605 27.731 21.7876 27.6902C21.3591 27.6588 20.9339 27.6018 20.5076 27.5199C19.7352 27.3626 18.8913 27.1348 18.2513 26.6629L18.2285 26.6184L18.3815 26.5403L18.4249 26.5186C19.015 26.2213 19.694 26.1649 20.3449 26.1725H20.3622Z" fill="#6A3D38"/>
<path d="M35.8745 13.0495C35.9418 13.1276 35.9754 13.2122 36.0101 13.3077C36.0152 13.3235 36.0213 13.3402 36.0286 13.3576C36.0828 13.5105 36.1335 13.6657 36.1804 13.8219L36.2368 14.0052C36.3236 14.2819 36.3876 14.5531 36.418 14.8406L36.4375 15C36.4679 15.2419 36.4787 15.4784 36.4766 15.7215V16.0632C36.4787 16.1389 36.4696 16.2151 36.4494 16.2877L36.5058 16.2867H36.5818L36.6555 16.2856C36.6936 16.2832 36.7318 16.2876 36.7684 16.2986C36.8432 16.317 36.918 16.3127 36.994 16.3116H37.0428L37.161 16.3105C37.2044 16.1803 37.2153 16.0599 37.2218 15.9232L37.2239 15.8581L37.2326 15.6574L37.2521 15.1855L37.3292 15.2506L37.3726 15.2875C37.5591 15.4502 37.7208 15.6336 37.8726 15.8278L37.9269 15.8972C38.1471 16.1803 38.249 16.4136 38.2458 16.7716V16.8497C38.2458 16.982 38.2371 17.1014 38.2056 17.2305C38.1731 17.4106 38.2447 17.5635 38.3054 17.7295C38.4107 18.0224 38.5159 18.4032 38.4182 18.7113C38.3781 18.7905 38.3781 18.7905 38.3358 18.8111C38.2653 18.8143 38.2404 18.7883 38.185 18.7449C37.8748 18.5193 37.5244 18.4184 37.161 18.3066L36.9549 18.2394C36.9614 18.0343 36.9875 17.8358 37.0211 17.634C37.0808 17.2739 37.122 16.9289 37.1155 16.5633C36.892 16.4913 36.6599 16.4526 36.4256 16.4483L36.4277 16.4863C36.4321 16.6653 36.406 16.8367 36.3757 17.0124L36.3681 17.058C36.3279 17.2966 36.2748 17.5277 36.1967 17.7577L36.1739 17.8293C36.1305 17.9617 36.0846 18.0929 36.0362 18.222L36.0188 18.2676C35.9764 18.3756 35.9282 18.4813 35.8745 18.5844L35.9581 18.5854C36.2748 18.5963 36.5829 18.6278 36.8627 18.7916C36.8584 18.8339 36.8584 18.8339 36.8389 18.8827C36.7571 18.9216 36.6664 18.9395 36.5764 18.9348H36.3095C36.1435 18.9348 35.9906 18.9217 35.829 18.8827L35.714 18.8599L35.6945 18.8925C35.5534 19.1311 35.407 19.3557 35.2324 19.5716L35.1803 19.6367C35.0686 19.7744 34.9525 19.9068 34.8321 20.0359C34.7822 20.0894 34.7341 20.1436 34.6878 20.1986C34.6236 20.2696 34.5544 20.3364 34.4817 20.3982C34.4307 20.4429 34.3808 20.4889 34.332 20.536C33.7853 21.0567 33.1171 21.4451 32.4337 21.751L32.3849 21.7727C31.9738 21.9517 31.5431 22.083 31.1049 22.1633C31.0854 22.1682 31.0655 22.1726 31.0452 22.1763C30.7567 22.2321 30.4638 22.2684 30.1699 22.2848L30.1232 22.288C29.8119 22.3057 29.4995 22.3043 29.1882 22.2837L29.1393 22.2804C28.8562 22.2644 28.5753 22.23 28.2965 22.1774C27.6923 22.0537 27.1033 21.8487 26.5609 21.5677L26.5056 21.5395C26.101 21.329 25.7192 21.0773 25.3666 20.7866L25.3319 20.7584C24.9392 20.4459 24.5878 20.0858 24.2873 19.6844L24.2016 19.5759C24.0562 19.3839 23.9239 19.181 23.8057 18.9716L23.8512 18.9499L23.8805 18.9966C23.9705 19.1409 24.0649 19.2765 24.1734 19.4088L24.2439 19.4956C24.5888 19.9339 24.9902 20.3244 25.4371 20.6564C26.6954 21.6143 28.2575 22.0993 29.8412 22.0233C30.6591 21.9832 31.4791 21.828 32.2385 21.4982L32.2927 21.4755C32.8296 21.2444 32.8296 21.2444 33.32 20.9309C33.3605 20.9031 33.4069 20.8849 33.4555 20.8777V20.8322C33.6107 20.7399 33.6107 20.7399 33.6616 20.7399V20.6944L33.7061 20.6879L33.7539 20.6716L33.7755 20.6022C33.8244 20.587 33.8244 20.587 33.8688 20.5805V20.5338C33.9158 20.4948 33.9646 20.4568 34.0153 20.4199C34.1259 20.3396 34.1259 20.3396 34.2127 20.2355H34.2821L34.2995 20.1943C34.3309 20.1368 34.3646 20.1075 34.4134 20.0663C34.5815 19.9306 34.5815 19.9306 34.6954 19.7527H34.741V19.7072L34.8093 19.6616L34.8397 19.6106C34.8809 19.5423 34.9297 19.4869 34.9829 19.4262C35.014 19.3886 35.0425 19.3487 35.0686 19.3069L35.1087 19.2483H35.1543L35.1618 19.2071C35.1762 19.1598 35.201 19.1164 35.2345 19.0801C35.3134 18.975 35.3864 18.8653 35.4515 18.7514C35.497 18.6733 35.5372 18.5974 35.5675 18.5128H35.6131L35.6391 18.426C35.6673 18.3403 35.7042 18.2632 35.7454 18.183C35.8832 17.8966 35.9938 17.5993 36.0763 17.2923C36.1012 17.2077 36.1218 17.1263 36.1305 17.0385C36.1416 16.9618 36.1609 16.8866 36.188 16.8139C36.2018 16.7401 36.2137 16.6664 36.2238 16.5926L36.2325 16.5351C36.2726 16.2639 36.2846 15.9927 36.2835 15.7182V15.6683C36.2804 15.2116 36.243 14.757 36.1717 14.3014C36.1371 14.0779 36.0885 13.8566 36.0264 13.6396L35.9873 13.4986L35.9331 13.3055L35.9157 13.2426L35.9006 13.1862C35.8897 13.1352 35.8886 13.1352 35.8886 13.043L35.8745 13.0495Z" fill="#3E3F41"/>
<path d="M15.8064 22.4883C15.9854 22.5078 16.1557 22.5393 16.3304 22.5859L16.4096 22.6076C16.6352 22.6698 16.8597 22.7367 17.0821 22.8083C17.7904 23.0318 18.514 23.1978 19.2407 23.3562C19.3334 23.3779 19.4251 23.4002 19.5173 23.4234C19.6551 23.4592 19.795 23.482 19.9361 23.5037C20.0337 23.5189 20.1237 23.5406 20.2181 23.5742C20.3634 23.6089 20.511 23.6252 20.6596 23.6404C20.8245 23.6583 20.9883 23.68 21.1521 23.7055L21.2649 23.7218C21.7638 23.7966 22.2628 23.8508 22.7618 23.8997C22.9462 23.9184 23.1306 23.9383 23.315 23.9593L23.3866 23.9669L23.75 24.0103C23.7435 24.0819 23.7359 24.1177 23.6849 24.1698C23.084 24.5744 21.9493 24.3629 21.2768 24.2349C20.947 24.1676 20.626 24.0863 20.3873 23.8357C20.3526 23.7814 20.3526 23.7814 20.3526 23.6892H20.306L20.2919 23.7304C20.2485 23.7999 20.2007 23.8194 20.1291 23.8541C20.1053 23.8656 20.0811 23.8775 20.0565 23.8899C19.4577 24.1318 18.386 23.9127 17.7893 23.6805C17.6679 23.6315 17.555 23.5644 17.4542 23.482V23.4364L17.4053 23.4549C17.0062 23.6024 16.5744 23.6382 16.1579 23.559C16.0353 23.5443 15.916 23.5106 15.8032 23.4592C15.769 23.3948 15.7459 23.3247 15.7348 23.2531L15.7153 23.1739C15.6068 22.6966 15.6068 22.6966 15.6925 22.536C15.7348 22.4948 15.7348 22.4948 15.7967 22.4883H15.8064Z" fill="#ECEDEC"/>
<path d="M32.9455 11.7511L32.9856 11.7858C33.3002 12.0679 33.6093 12.3901 33.8187 12.7611V12.8067H33.8642C34.1875 13.4023 34.1875 13.4023 34.2547 13.6106L34.232 13.68L34.2103 13.6366C34.0042 13.2113 33.7406 12.8164 33.4282 12.465L33.3956 12.4281C33.2101 12.222 33.0062 12.0343 32.7849 11.8672L32.7307 11.826C31.7002 11.0525 30.3876 10.7302 29.1185 10.8919C28.8408 10.9336 28.5663 10.9966 28.2984 11.0807C27.218 11.3986 26.335 12.1276 25.695 13.0443L25.6234 13.1452C25.3631 13.514 25.1754 13.9827 25.068 14.4144L25.0539 14.4708C24.8695 15.1641 24.8359 15.892 24.9541 16.5971L24.9639 16.6546C25.029 17.0322 25.1592 17.3847 25.3034 17.7373C25.3208 17.7915 25.3208 17.7915 25.298 17.8371C24.7546 16.8673 24.5062 15.6783 24.7383 14.5717L24.76 14.4448C24.914 13.5086 25.426 12.6548 26.0834 11.9822L26.1192 11.9442C26.2732 11.7826 26.4327 11.6383 26.6116 11.5049C26.6608 11.4687 26.7085 11.4304 26.7548 11.3899C26.8177 11.3389 26.8177 11.3389 26.8633 11.3389L26.8872 11.2705C26.9414 11.2337 26.9414 11.2337 27.0097 11.1968C27.0328 11.1859 27.0556 11.1737 27.0781 11.1599C27.1399 11.1328 27.1399 11.1328 27.2082 11.1328V11.0872L27.6747 10.8789C27.7832 10.8305 27.8927 10.7877 28.0034 10.7509L28.0891 10.7227C29.7704 10.1932 31.6362 10.5708 32.9487 11.7533L32.9455 11.7511Z" fill="#494949"/>
<path d="M24.0508 24.1133C24.2547 24.1127 24.4576 24.1177 24.6604 24.1285L24.7559 24.1329L25.4045 24.1632L25.538 24.1697L25.8417 24.1828L25.9165 24.186C26.358 24.202 26.7984 24.2085 27.2399 24.2055H27.5654C28.2195 24.2045 28.8779 24.202 29.5287 24.198H29.6643C29.891 24.198 30.1557 24.2045 30.3455 24.3433C30.3933 24.5061 30.3792 24.7447 30.2989 24.8944C30.1188 24.9866 29.8769 24.9671 29.6784 24.9671H29.4333L29.1838 24.9682C28.546 24.9704 27.9038 24.9584 27.4265 24.4822L27.3831 24.4355C27.3803 24.4515 27.3781 24.4681 27.3766 24.4854C27.3484 24.5896 27.2898 24.646 27.2085 24.7133C26.9969 24.8293 26.7746 24.838 26.5381 24.8358H26.4893C24.6778 24.8261 24.6778 24.8261 24.1679 24.326C24.0551 24.2066 24.0551 24.2066 24.0551 24.1133" fill="#EAEBEB"/>
<path d="M21.2295 10.4326C21.2838 10.4749 21.2838 10.4749 21.338 10.4998C21.3911 10.5269 21.4031 10.5573 21.4248 10.6116C21.3636 10.5815 21.3044 10.5485 21.2458 10.5128C21.0462 10.387 20.8401 10.272 20.6275 10.1679C20.5516 10.1299 20.5516 10.1299 20.493 10.0941C19.6013 9.56685 18.2584 9.59722 17.293 9.83155L17.178 9.87711L17.0261 9.91834C16.9036 9.95251 16.7832 9.99753 16.6682 10.0529C16.5959 10.0862 16.5228 10.1176 16.4491 10.1472C15.6279 10.4987 14.9521 11.1648 14.4531 11.8939L14.4271 11.9329C14.1689 12.33 13.9791 12.7682 13.8663 13.2239L13.8511 13.2825L13.7903 13.5244C13.7144 13.8422 13.6949 14.1579 13.6938 14.4834V14.5431C13.6938 15.1213 13.786 15.693 14.004 16.2354L14.0257 16.2897C14.3078 16.9764 14.7124 17.5481 15.2406 18.0688C15.104 18.0688 14.9912 17.9082 14.8957 17.816L14.8556 17.7781C14.516 17.4537 14.2286 17.0794 14.0008 16.6715L13.9758 16.627C13.8598 16.4209 13.76 16.205 13.6786 15.9826L13.6504 15.9056C13.3304 15.0009 13.3141 14.0397 13.5181 13.1067L13.5311 13.0471C13.5481 12.9567 13.5747 12.8681 13.6103 12.7834C13.6515 12.6858 13.6786 12.5903 13.7025 12.4862H13.748L13.7535 12.4309C13.8164 12.1325 14.0214 11.845 14.1841 11.5901L14.2232 11.5228C14.2535 11.4762 14.2535 11.4762 14.2991 11.4534L14.3219 11.384H14.3685V11.3156H14.4141V11.269H14.4596L14.4672 11.2256C14.4824 11.1779 14.4824 11.1779 14.5518 11.1312L14.5746 11.0629H14.6202V11.0162H14.6668L14.6842 10.975C14.7139 10.925 14.7534 10.8815 14.8002 10.847C14.858 10.8001 14.9109 10.7474 14.9575 10.6897C15.0043 10.6348 15.0615 10.5899 15.1257 10.5573C15.1495 10.5356 15.1727 10.5125 15.1951 10.4879C15.3025 10.3968 15.3025 10.3968 15.3556 10.3968V10.3501L15.4175 10.3165L15.5758 10.221C16.1171 9.8706 16.7257 9.62651 17.3548 9.50067L17.4123 9.48982C18.0783 9.37049 18.7574 9.39251 19.4191 9.55318C20.0754 9.71374 20.6882 10.011 21.2306 10.4243L21.2295 10.4326Z" fill="#494949"/>
<path d="M36.6332 13.9134L36.7113 13.9102C36.9044 13.9102 37.091 13.9319 37.2353 14.0729L37.2797 14.1271L37.3036 14.1488L37.3068 14.2465C37.3112 14.5025 37.3318 14.6967 37.4414 14.9299C37.501 15.0818 37.5498 15.2337 37.5976 15.3899L37.6138 15.4409C37.6507 15.5656 37.6507 15.5656 37.6247 15.6416L37.2569 15.2749L37.2494 15.4745L37.2407 15.6687L37.2255 15.9941L37.2233 16.0549C37.2103 16.3326 37.2103 16.3326 37.142 16.3999L36.9923 16.4042L36.9087 16.4053C36.7482 16.401 36.5887 16.3749 36.4315 16.3543V16.2784C36.4445 15.5439 36.4249 14.8355 36.2145 14.1304C36.1972 14.0694 36.1852 14.0067 36.1787 13.9438C36.3295 13.9167 36.4792 13.9145 36.6332 13.9134Z" fill="#9EA4A7"/>
<path d="M13.2042 18.3672C13.3051 18.4648 13.3919 18.5701 13.4797 18.6807C13.521 18.735 13.521 18.735 13.5719 18.7566L13.6012 18.8087C13.6446 18.8803 13.6945 18.9281 13.7553 18.9866L13.969 19.2025C14.4386 19.6614 14.9995 20.0378 15.5961 20.3199L15.6883 20.3633C17.2069 21.0988 19.051 21.178 20.6456 20.6432C21.6565 20.2906 22.9127 19.656 23.5201 18.7339C23.5613 18.7371 23.5613 18.7371 23.6112 18.7566C23.6828 18.8673 23.6828 18.8673 23.6763 18.9389C23.6503 19.0051 23.6091 19.043 23.5592 19.094L23.4963 19.1559L23.3683 19.2839C23.2131 19.4368 23.0483 19.58 22.8758 19.7135C22.4755 20.027 22.046 20.2776 21.5958 20.5022L21.5416 20.5282C20.2724 21.1487 18.7321 21.3125 17.3436 21.0533L17.2677 21.0392C16.7058 20.9322 16.1612 20.7517 15.6405 20.5022L15.5798 20.4729C15.0027 20.1908 14.4734 19.822 14.0069 19.3772L13.9668 19.3392C13.7715 19.1526 13.5936 18.9508 13.4331 18.7339L13.4005 18.6905L13.3029 18.556L13.2715 18.5147C13.2031 18.4182 13.2031 18.4182 13.2031 18.3672H13.2042Z" fill="#3F3F40"/>
<path d="M36.4167 16.5193C36.8907 16.5085 36.8907 16.5085 37.1044 16.6332C37.2672 16.9587 37.0589 17.6096 37.0025 17.9459C36.9547 18.242 36.9157 18.5393 36.8756 18.8355L36.8061 18.8593L36.7302 18.8192C36.459 18.6782 36.1401 18.6836 35.8418 18.6749L35.8852 18.5664L35.9232 18.472C35.9585 18.3824 35.9962 18.293 36.036 18.2041C36.2605 17.6638 36.3484 17.0975 36.4167 16.5117V16.5193Z" fill="#9FA5A7"/>
<path d="M37.285 14.5703C37.3479 14.6647 37.3826 14.7645 37.4228 14.8697L37.4445 14.9272C37.4943 15.0596 37.5393 15.193 37.579 15.3286L37.5952 15.3807C37.6321 15.5044 37.6321 15.5044 37.6061 15.5814C37.2655 15.3243 37.2655 15.3243 37.2232 15.1485C37.2134 14.9999 37.234 14.8556 37.2622 14.7081L37.2752 14.6246L37.285 14.5703Z" fill="#E3BC49"/>
<path d="M30.668 14.3537L30.7309 14.383C31.1789 14.6076 31.5011 15.0188 31.6746 15.4787C31.8395 15.981 31.7994 16.5072 31.5857 16.9867C31.3384 17.4607 30.9457 17.835 30.4359 18.0021L30.3708 18.0205L30.3024 18.0422C29.8035 18.1713 29.2546 18.1019 28.8055 17.8415C28.6298 17.7287 28.4681 17.5964 28.3228 17.4466C28.083 17.1971 27.9485 16.8825 27.865 16.5506L27.8477 16.4833C27.7608 16.0353 27.8362 15.5709 28.0603 15.1706C28.1611 14.983 28.2902 14.8365 28.4399 14.6879L28.4887 14.6369C29.0582 14.0869 29.9748 14.0109 30.6691 14.3429L30.668 14.3537Z" fill="#B08A2A"/>
<path d="M30.668 14.3537L30.7309 14.383C31.1789 14.6076 31.5011 15.0188 31.6746 15.4787C31.8395 15.981 31.7994 16.5072 31.5857 16.9867C31.3384 17.4607 30.9457 17.835 30.4359 18.0021L30.3708 18.0205L30.3024 18.0422C29.8035 18.1713 29.2546 18.1019 28.8055 17.8415C28.6298 17.7287 28.4681 17.5964 28.3228 17.4466C28.083 17.1971 27.9485 16.8825 27.865 16.5506L27.8477 16.4833C27.7608 16.0353 27.8362 15.5709 28.0603 15.1706C28.1611 14.983 28.2902 14.8365 28.4399 14.6879L28.4887 14.6369C29.0582 14.0869 29.9748 14.0109 30.6691 14.3429L30.668 14.3537ZM29.4531 14.5154L29.4064 14.9059L29.2925 14.6998H29.2459L29.2264 14.6553C29.2047 14.6043 29.2047 14.6043 29.1548 14.5848L29.1765 14.8604L29.0029 14.7888C28.9498 14.766 28.9498 14.766 28.902 14.7682V14.8604L28.8586 14.8691L28.8011 14.8821L28.7447 14.8929C28.6731 14.9114 28.6547 14.92 28.6146 14.9851C28.6045 15.0047 28.5929 15.0242 28.5799 15.0437L28.5343 15.0904C28.5136 15.154 28.5047 15.2205 28.5083 15.2878V15.342C28.5083 15.3898 28.5083 15.3898 28.5343 15.4343H28.236L28.2816 15.5026H28.3282L28.3499 15.572C28.3987 15.6154 28.3987 15.6154 28.4551 15.6566L28.5571 15.7326L28.1449 15.7554V15.802C28.2143 15.8505 28.2848 15.8964 28.3575 15.9398C28.4193 15.9854 28.4193 15.9854 28.4421 16.0548L28.39 16.058L28.3217 16.0645L28.2544 16.07C28.2017 16.0763 28.1495 16.0865 28.0982 16.1003V16.1459L28.2392 16.1806L28.3206 16.2002C28.3834 16.2133 28.4475 16.2184 28.5115 16.2153V16.2609L28.4573 16.275C28.3445 16.3184 28.2403 16.3748 28.1438 16.4442V16.4909H28.5571L28.3911 16.6558L28.3434 16.7024L28.2946 16.7513C28.2566 16.7838 28.2566 16.7838 28.2588 16.812L28.467 16.7968C28.5354 16.7914 28.5354 16.7914 28.6037 16.7664C28.5732 16.8456 28.5335 16.9205 28.4855 16.991L28.4486 17.0463L28.4193 17.0876C28.5495 17.0815 28.6764 17.0419 28.787 16.9726C28.7645 17.0328 28.7365 17.0908 28.7035 17.1461C28.6645 17.2047 28.6645 17.2047 28.6721 17.2948C28.7753 17.2764 28.8706 17.2286 28.9476 17.157L28.9931 17.3859L29.1309 17.3175V17.272H29.1776V17.5475C29.2925 17.528 29.2925 17.528 29.3565 17.4542L29.4064 17.3859L29.4531 17.7309C29.5507 17.6528 29.5507 17.6528 29.5507 17.5757L29.5442 17.5237H29.5908L29.6592 17.3859L29.6776 17.4662L29.7026 17.5681L29.7145 17.6213C29.7261 17.6655 29.7384 17.7095 29.7514 17.7537L29.7969 17.7764C29.8458 17.6463 29.8761 17.5248 29.8891 17.3859H29.9347L29.9488 17.4336L29.9662 17.4955L29.9846 17.5562C30.002 17.6105 30.0226 17.6582 30.0497 17.7081H30.0963C30.1079 17.6553 30.1199 17.6025 30.1321 17.5497L30.1517 17.4607C30.1712 17.3891 30.1712 17.3891 30.1408 17.3403H30.1874L30.2016 17.3859C30.2449 17.4803 30.3046 17.5595 30.3719 17.6387H30.3936L30.4077 17.5182L30.4142 17.451C30.4173 17.3981 30.4107 17.3452 30.3946 17.2948L30.5085 17.3859C30.578 17.3609 30.5975 17.3479 30.63 17.2796L30.6463 17.2253C30.7363 17.2438 30.8155 17.2796 30.899 17.3175C30.8853 17.2178 30.8701 17.1179 30.8535 17.0192L30.8947 17.0377C31.0303 17.1006 31.0303 17.1006 31.1746 17.1331C31.108 17.0127 31.0314 16.8977 30.9457 16.7892L30.9847 16.8001C31.0975 16.8261 31.1973 16.8402 31.3123 16.8348C31.2776 16.7469 31.2255 16.7046 31.1496 16.6482C31.0401 16.5636 31.0401 16.5636 31.014 16.5137L31.0737 16.5375C31.1508 16.5601 31.2331 16.5609 31.3102 16.5397L31.3904 16.5256L31.4501 16.5137C31.3865 16.4463 31.3112 16.3911 31.2277 16.3509C31.1084 16.2891 31.1084 16.2891 31.0834 16.2381L31.1268 16.236C31.2624 16.2251 31.372 16.1991 31.4956 16.1459V16.1003C31.3666 16.0613 31.2364 16.023 31.1051 15.9854L31.1561 15.9572L31.2212 15.9192L31.2863 15.8823L31.3362 15.8476V15.802H31.3818V15.7326L31.0607 15.7098L31.2342 15.5525C31.2689 15.5221 31.303 15.4903 31.3362 15.457V15.3887L31.0921 15.4191C31.0119 15.4299 31.0119 15.4299 30.9457 15.4798L31.0108 15.3844L31.0487 15.3301C31.0805 15.2754 31.1073 15.2184 31.129 15.1587C31.0173 15.1707 30.9088 15.202 30.8079 15.2509L30.8296 15.1587H30.8763L30.911 15.0719L30.9305 15.022C30.9489 14.9721 30.9489 14.9721 30.9457 14.9059C30.8209 14.9146 30.7765 14.9537 30.6929 15.0437L30.6235 15.0665C30.6294 15.0505 30.6344 15.0336 30.6387 15.0155L30.6778 14.881C30.6913 14.8216 30.6964 14.7606 30.6929 14.6998C30.5964 14.7784 30.5042 14.8625 30.4174 14.9515V14.9981H30.3708L30.3957 14.932C30.4283 14.8224 30.4109 14.7183 30.3946 14.6065C30.3135 14.6803 30.2439 14.766 30.1885 14.8604V14.9059H30.1419L30.1549 14.8528C30.1701 14.7888 30.1701 14.7888 30.1419 14.7226L30.1289 14.6141L30.1234 14.5588L30.1191 14.5154C30.0443 14.5317 30.0443 14.5317 30.0182 14.6C30.0081 14.6239 29.9981 14.6492 29.9879 14.6759L29.9575 14.7497C29.9325 14.8105 29.9325 14.8105 29.9358 14.8604H29.8891L29.8816 14.7909C29.8657 14.6957 29.8373 14.6033 29.7969 14.5154C29.7275 14.5729 29.7102 14.6282 29.6896 14.715L29.6722 14.7844L29.6592 14.8376C29.6169 14.7749 29.5813 14.7085 29.5529 14.638L29.5225 14.5685L29.4986 14.5154H29.4531Z" fill="#442A12"/>
<path d="M30.234 15.443C30.4151 15.5497 30.5485 15.7218 30.6071 15.9236C30.6429 16.1731 30.6288 16.3879 30.4813 16.5962C30.3533 16.7524 30.2003 16.8793 29.9942 16.9108C29.799 16.9282 29.6124 16.9216 29.4443 16.811L29.3965 16.7817C29.2295 16.6678 29.1113 16.4942 29.0657 16.2968C29.0435 16.185 29.0445 16.07 29.0691 15.9583C29.0935 15.8466 29.1408 15.7424 29.2079 15.6502C29.4628 15.3334 29.8761 15.2673 30.2352 15.443" fill="#010100"/>
<path d="M29.1491 15.0091C29.2142 15.0666 29.2576 15.11 29.2739 15.1979C29.2739 15.2557 29.2703 15.3128 29.263 15.3703L29.2598 15.4354C29.2196 15.5374 29.1307 15.5873 29.0352 15.6307C28.9602 15.6523 28.8812 15.6575 28.8042 15.6459C28.7511 15.5864 28.712 15.5157 28.6892 15.4398H28.6426C28.6223 15.3031 28.6553 15.1631 28.7348 15.0492C28.7881 14.9954 28.8584 14.962 28.9344 14.9546C29.0099 14.9474 29.0862 14.9666 29.1491 15.0091Z" fill="#FEFDFC"/>
<path d="M29.4745 15.6523C29.5678 15.6719 29.6014 15.7066 29.6589 15.7825C29.6741 15.8693 29.6643 15.9073 29.6231 15.9854C29.5537 16.0451 29.5146 16.0505 29.4257 16.044C29.3823 16.0342 29.3823 16.0342 29.3248 15.9984C29.2771 15.9203 29.276 15.8726 29.2901 15.7814C29.3465 15.7044 29.3801 15.673 29.4745 15.6523Z" fill="#CFCFD0"/>
<path d="M19.8203 13.2678L19.8832 13.2971C20.3312 13.5217 20.6534 13.9328 20.827 14.3928C20.9919 14.8951 20.9517 15.4212 20.738 15.9007C20.4907 16.3748 20.098 16.7491 19.5882 16.9161L19.5231 16.9346L19.4548 16.9563C18.9558 17.0854 18.4069 17.016 17.9578 16.7556C17.7821 16.6428 17.6205 16.5104 17.4751 16.3607C17.2354 16.1112 17.1009 15.7966 17.0174 15.4646L17 15.3974C16.9131 14.9493 16.9885 14.485 17.2126 14.0847C17.3135 13.897 17.4426 13.7506 17.5923 13.6019L17.6411 13.551C18.2106 13.0009 19.1272 12.925 19.8214 13.257L19.8203 13.2678Z" fill="#B08A2A"/>
<path d="M19.8203 13.2678L19.8832 13.2971C20.3312 13.5217 20.6534 13.9328 20.827 14.3928C20.9919 14.8951 20.9517 15.4212 20.738 15.9007C20.4907 16.3748 20.098 16.7491 19.5882 16.9161L19.5231 16.9346L19.4548 16.9563C18.9558 17.0854 18.4069 17.016 17.9578 16.7556C17.7821 16.6428 17.6205 16.5104 17.4751 16.3607C17.2354 16.1112 17.1009 15.7966 17.0174 15.4646L17 15.3974C16.9131 14.9493 16.9885 14.485 17.2126 14.0847C17.3135 13.897 17.4426 13.7506 17.5923 13.6019L17.6411 13.551C18.2106 13.0009 19.1272 12.925 19.8214 13.257L19.8203 13.2678ZM18.6054 13.4295L18.5588 13.82L18.4449 13.6139H18.3982L18.3787 13.5694C18.357 13.5184 18.357 13.5184 18.3071 13.4989L18.3288 13.7744L18.1553 13.7028C18.1021 13.6801 18.1021 13.6801 18.0544 13.6822V13.7744L18.011 13.7831L17.9535 13.7961L17.8971 13.807C17.8255 13.8254 17.807 13.8341 17.7669 13.8992C17.7568 13.9187 17.7452 13.9382 17.7322 13.9578L17.6866 14.0044C17.6659 14.0681 17.657 14.1346 17.6606 14.2019V14.2561C17.6606 14.3038 17.6606 14.3038 17.6866 14.3483H17.3883L17.4339 14.4167H17.4805L17.5022 14.4861C17.551 14.5295 17.551 14.5295 17.6075 14.5707L17.7094 14.6466L17.2972 14.6694V14.7161C17.3666 14.7646 17.4372 14.8105 17.5098 14.8539C17.5717 14.8994 17.5717 14.8994 17.5944 14.9688L17.5424 14.9721L17.474 14.9786L17.4068 14.984C17.3541 14.9903 17.3019 15.0005 17.2506 15.0144V15.06L17.3916 15.0947L17.4729 15.1142C17.5358 15.1273 17.5999 15.1324 17.6639 15.1294V15.175L17.6096 15.1891C17.4968 15.2325 17.3927 15.2889 17.2961 15.3583V15.405H17.7094L17.5435 15.5699L17.4957 15.6165L17.4469 15.6653C17.4089 15.6979 17.4089 15.6979 17.4111 15.7261L17.6194 15.7109C17.6877 15.7055 17.6877 15.7055 17.7561 15.6805C17.7256 15.7597 17.6859 15.8346 17.6378 15.9051L17.6009 15.9604L17.5717 16.0016C17.7018 15.9955 17.8287 15.9559 17.9394 15.8866C17.9168 15.9468 17.8888 16.0049 17.8559 16.0602C17.8168 16.1188 17.8168 16.1188 17.8244 16.2088C17.9277 16.1905 18.0229 16.1427 18.0999 16.0711L18.1455 16.3L18.2833 16.2316V16.186H18.3299V16.4616C18.4449 16.4421 18.4449 16.4421 18.5089 16.3683L18.5588 16.3L18.6054 16.6449C18.703 16.5668 18.703 16.5668 18.703 16.4898L18.6965 16.4377H18.7432L18.8115 16.3L18.83 16.3802L18.8549 16.4822L18.8668 16.5354C18.8785 16.5795 18.8907 16.6236 18.9037 16.6677L18.9493 16.6905C18.9981 16.5603 19.0285 16.4388 19.0415 16.3H19.087L19.1011 16.3477L19.1185 16.4095L19.1369 16.4703C19.1543 16.5245 19.1749 16.5722 19.202 16.6222H19.2487C19.2603 16.5693 19.2722 16.5166 19.2845 16.4638L19.304 16.3748C19.3235 16.3032 19.3235 16.3032 19.2931 16.2544H19.3398L19.3539 16.3C19.3973 16.3943 19.4569 16.4735 19.5242 16.5527H19.5459L19.56 16.4323L19.5665 16.365C19.5696 16.3122 19.563 16.2593 19.547 16.2088L19.6609 16.3C19.7303 16.275 19.7498 16.262 19.7824 16.1936L19.7986 16.1394C19.8887 16.1578 19.9679 16.1936 20.0514 16.2316C20.0376 16.1319 20.0224 16.032 20.0058 15.9333L20.047 15.9517C20.1826 16.0146 20.1826 16.0146 20.3269 16.0472C20.2603 15.9268 20.1837 15.8118 20.098 15.7033L20.1371 15.7141C20.2499 15.7402 20.3497 15.7543 20.4647 15.7489C20.43 15.661 20.3779 15.6187 20.302 15.5623C20.1924 15.4776 20.1924 15.4776 20.1664 15.4277L20.226 15.4516C20.3032 15.4742 20.3855 15.4749 20.4625 15.4538L20.5428 15.4397L20.6024 15.4277C20.5389 15.3604 20.4636 15.3052 20.3801 15.265C20.2607 15.2032 20.2607 15.2032 20.2358 15.1522L20.2792 15.15C20.4148 15.1392 20.5243 15.1131 20.648 15.06V15.0144C20.5189 14.9754 20.3887 14.9371 20.2575 14.8994L20.3085 14.8712L20.3736 14.8332L20.4386 14.7964L20.4885 14.7616V14.7161H20.5341V14.6466L20.213 14.6239L20.3866 14.4666C20.4213 14.4362 20.4553 14.4044 20.4885 14.3711V14.3028L20.2445 14.3331C20.1642 14.344 20.1642 14.344 20.098 14.3939L20.1631 14.2984L20.2011 14.2442C20.2329 14.1895 20.2597 14.1324 20.2814 14.0728C20.1696 14.0848 20.0611 14.1161 19.9603 14.165L19.982 14.0728H20.0286L20.0633 13.986L20.0828 13.9361C20.1013 13.8862 20.1013 13.8862 20.098 13.82C19.9733 13.8287 19.9288 13.8677 19.8453 13.9578L19.7759 13.9806C19.7817 13.9646 19.7867 13.9477 19.791 13.9296L19.8301 13.795C19.8437 13.7357 19.8488 13.6746 19.8453 13.6139C19.7487 13.6924 19.6565 13.7766 19.5698 13.8656V13.9122H19.5231L19.5481 13.846C19.5806 13.7365 19.5632 13.6323 19.547 13.5206C19.4658 13.5943 19.3962 13.6801 19.3409 13.7744V13.82H19.2942L19.3072 13.7668C19.3224 13.7028 19.3224 13.7028 19.2942 13.6367L19.2812 13.5282L19.2758 13.4728L19.2715 13.4295C19.1966 13.4457 19.1966 13.4457 19.1706 13.5141C19.1605 13.5379 19.1504 13.5632 19.1402 13.59L19.1098 13.6638C19.0849 13.7245 19.0849 13.7245 19.0881 13.7744H19.0415L19.0339 13.705C19.0181 13.6098 18.9896 13.5173 18.9493 13.4295C18.8799 13.487 18.8625 13.5423 18.8419 13.6291L18.8245 13.6985L18.8115 13.7517C18.7692 13.6889 18.7336 13.6226 18.7052 13.552L18.6748 13.4826L18.651 13.4295H18.6054Z" fill="#442A12"/>
<path d="M19.3863 14.3532C19.5675 14.4599 19.7009 14.632 19.7595 14.8337C19.7953 15.0833 19.7812 15.2981 19.6336 15.5063C19.5056 15.6626 19.3527 15.7895 19.1466 15.8209C18.9513 15.8383 18.7648 15.8318 18.5966 15.7211L18.5489 15.6919C18.3818 15.5779 18.2636 15.4044 18.218 15.2069C18.1958 15.0952 18.1969 14.9802 18.2214 14.8685C18.2458 14.7567 18.2931 14.6526 18.3602 14.5604C18.6152 14.2436 19.0285 14.1774 19.3875 14.3532" fill="#010100"/>
<path d="M18.3005 13.9232C18.3656 13.9806 18.409 14.024 18.4252 14.1119C18.4252 14.1697 18.4217 14.2269 18.4144 14.2844L18.4111 14.3495C18.371 14.4515 18.2821 14.5014 18.1866 14.5448C18.1115 14.5664 18.0326 14.5716 17.9556 14.56C17.9025 14.5005 17.8634 14.4298 17.8406 14.3538H17.7939C17.7736 14.2171 17.8066 14.0772 17.8861 13.9633C17.9395 13.9095 18.0098 13.8761 18.0857 13.8687C18.1612 13.8614 18.2376 13.8806 18.3005 13.9232Z" fill="#FEFDFC"/>
<path d="M18.6269 14.5703C18.7201 14.5898 18.7538 14.6246 18.8113 14.7005C18.8265 14.7873 18.8167 14.8253 18.7755 14.9034C18.706 14.963 18.667 14.9685 18.578 14.9619C18.5347 14.9522 18.5347 14.9522 18.4772 14.9164C18.4294 14.8383 18.4283 14.7905 18.4425 14.6994C18.4989 14.6224 18.5325 14.5909 18.6269 14.5703Z" fill="#CFCFD0"/>
<path d="M13.2041 18.3672C13.305 18.4648 13.3918 18.5701 13.4796 18.6807C13.5208 18.735 13.5208 18.735 13.5718 18.7566L13.6011 18.8087C13.6445 18.8803 13.6955 18.9281 13.7552 18.9866L13.8929 19.1472L13.8701 19.1938C13.5957 19.0767 13.3581 18.6601 13.2041 18.4128V18.3672Z" fill="#504F4D"/>
<path d="M23.7266 19.0195H23.7721C23.8068 19.0683 23.8068 19.0683 23.8459 19.1334C23.9308 19.2701 24.026 19.4014 24.1301 19.524C24.2169 19.6325 24.3047 19.7399 24.3926 19.8462L24.3004 19.8701C24.1561 19.6954 24.0205 19.5142 23.8947 19.3255C23.8319 19.2273 23.7754 19.1248 23.7266 19.0195Z" fill="#585757"/>
<path d="M35.875 13.0508C35.9382 13.1296 35.9846 13.22 36.0128 13.3177L36.0301 13.3665C36.0757 13.4891 36.1154 13.6138 36.1494 13.7397L36.0583 13.808L35.9802 13.5292L35.9531 13.4337L35.8913 13.2146C35.875 13.143 35.875 13.143 35.875 13.0508Z" fill="#54514A"/>
<path d="M21.0134 10.2477C21.0872 10.2748 21.1414 10.3203 21.2033 10.3681C21.2781 10.4267 21.3475 10.4766 21.4332 10.52C21.4614 10.5677 21.4614 10.5677 21.4788 10.6111C21.3736 10.5601 21.2759 10.4993 21.1772 10.4386L21.0655 10.3713L21.0156 10.3399C20.9733 10.3127 20.9733 10.3127 20.9277 10.2661C20.9733 10.2444 20.9722 10.2444 21.0134 10.2477Z" fill="#5E5E60"/>
<path d="M25.135 17.3945C25.186 17.4726 25.2196 17.5518 25.2543 17.6375L25.2738 17.6853C25.2897 17.7258 25.3045 17.7666 25.3183 17.8079L25.2966 17.8545L25.1751 17.643C25.11 17.5247 25.11 17.5247 25.1176 17.4412L25.135 17.3945Z" fill="#5F6060"/>
<path d="M35.875 13.0508C35.9248 13.1135 35.9657 13.1831 35.9965 13.2569L36.0225 13.3166C36.0355 13.3719 36.0355 13.3719 36.0149 13.4251L35.9889 13.4641C35.9544 13.3984 35.9267 13.3296 35.9065 13.258L35.888 13.1983C35.875 13.143 35.875 13.143 35.875 13.0508Z" fill="#6C6453"/>
<path d="M23.7266 19.0195H23.7721C23.8101 19.0738 23.8101 19.0738 23.8524 19.1421L23.8958 19.2105C23.9066 19.2314 23.919 19.252 23.9327 19.2723L23.9793 19.3417C23.9381 19.3385 23.9381 19.3385 23.8871 19.3189C23.8437 19.2571 23.8437 19.2571 23.8003 19.1812L23.758 19.1052C23.7255 19.0434 23.7266 19.0434 23.7266 19.0195Z" fill="#6F6D66"/>
<path d="M24.268 19.6719C24.3608 19.7024 24.3804 19.7526 24.4306 19.8333C24.376 19.829 24.376 19.829 24.3149 19.8115C24.2724 19.7515 24.2724 19.7515 24.2451 19.6948L24.268 19.6719Z" fill="#4E4D4F"/>
<path d="M13.5283 18.8047C13.5969 18.83 13.6549 18.8792 13.6898 18.9432V18.9891C13.621 18.9638 13.5632 18.9146 13.5283 18.8505V18.8047Z" fill="#444340"/>
<path d="M21.2305 10.4336C21.3107 10.4488 21.3715 10.477 21.4366 10.5258C21.468 10.5757 21.468 10.5757 21.4832 10.6169C21.392 10.5754 21.3064 10.5214 21.2305 10.4564V10.4336Z" fill="#69696C"/>
<path d="M23.6162 24.0078H23.869L23.8223 24.1L23.8006 24.0306H23.6162V24.0078Z" fill="#CCC6A4"/>
<path d="M31.5361 31.5509C31.9256 31.5509 32.2412 31.2352 32.2412 30.8458C32.2412 30.4564 31.9256 30.1406 31.5361 30.1406C31.1467 30.1406 30.8311 30.4564 30.8311 30.8458C30.8311 31.2352 31.1467 31.5509 31.5361 31.5509Z" fill="#2A2C32"/>
<defs>
<linearGradient id="paint0_linear_3226_42802" x1="24.1285" y1="22.9043" x2="24.1285" y2="45.0797" gradientUnits="userSpaceOnUse">
<stop stop-color="#72ADD3"/>
<stop offset="0.4" stop-color="#4E88AF"/>
<stop offset="1" stop-color="#2F6F95"/>
</linearGradient>
</defs>
</svg>
