<svg width="50" height="50" viewBox="0 0 50 50" fill="none" xmlns="http://www.w3.org/2000/svg">
<g clip-path="url(#clip0_1_2894)">
<path d="M17.431 5.07277C17.9099 5.07654 18.3883 5.07578 18.867 5.07204C18.9359 5.07152 19.0047 5.07099 19.0754 5.07045C19.2152 5.06936 19.355 5.06827 19.4948 5.06717C20.799 5.05751 22.103 5.06252 23.4072 5.07244C24.5931 5.08103 25.7782 5.07249 26.9641 5.05558C28.1898 5.03824 29.415 5.03197 30.6408 5.03752C30.7803 5.03812 30.9196 5.03871 31.0591 5.03927C31.1618 5.0397 31.1618 5.0397 31.2667 5.04012C31.743 5.04137 32.219 5.03567 32.6953 5.0271C37.4363 4.94737 37.4363 4.94737 39.0002 6.44411C39.5227 6.98488 39.9801 7.56649 40.4138 8.17967C40.766 8.66519 41.1852 9.10535 41.6107 9.52714C41.6807 9.59692 41.7508 9.6666 41.823 9.73855C41.9331 9.84736 41.9331 9.84736 42.0452 9.95834C42.1229 10.0356 42.2005 10.1128 42.2805 10.1924C42.5263 10.437 42.7724 10.6814 43.0187 10.9257C43.3435 11.2478 43.668 11.5703 43.9921 11.893C44.1022 12.0019 44.1022 12.0019 44.2145 12.1129C44.6054 12.502 44.9757 12.9007 45.3357 13.3184C45.6487 13.671 45.9853 13.9999 46.3205 14.3312C46.396 14.4063 46.4714 14.4813 46.5491 14.5587C46.788 14.7965 47.0272 15.0339 47.2665 15.2711C47.5822 15.5842 47.8974 15.8975 48.2125 16.2111C48.3194 16.3166 48.3194 16.3166 48.4283 16.4244C48.8219 16.8162 49.1974 17.2169 49.5582 17.6393C49.7055 17.8127 49.7055 17.8127 49.8737 17.9675C50.0007 18.103 50.0007 18.103 49.9977 18.2858C49.867 18.5728 49.6812 18.7599 49.4636 18.9879C49.1255 19.348 48.8024 19.713 48.4933 20.0987C48.136 20.5417 47.7599 20.9599 47.3726 21.3761C47.0805 21.6918 46.8039 22.0155 46.5341 22.3508C46.1792 22.7919 45.805 23.208 45.4195 23.6221C45.1276 23.9378 44.8508 24.2615 44.5812 24.5967C44.2262 25.0379 43.852 25.4539 43.4666 25.8681C43.1745 26.1837 42.8979 26.5074 42.6281 26.8427C42.2732 27.2838 41.8989 27.6999 41.5135 28.1141C41.2215 28.4297 40.9448 28.7534 40.6751 29.0887C40.3627 29.4769 40.0378 29.847 39.6986 30.2116C39.2798 30.6618 38.8877 31.1274 38.502 31.6065C38.1966 31.9758 37.8713 32.3252 37.5469 32.6776C37.3133 32.9378 37.0921 33.2045 36.8729 33.4768C36.5156 33.9197 36.1395 34.338 35.7522 34.7543C35.4601 35.0699 35.1835 35.3936 34.9137 35.7289C34.5588 36.1701 34.1846 36.5861 33.7991 37.0002C33.5072 37.3159 33.2304 37.6396 32.9608 37.9748C32.6059 38.416 32.2316 38.832 31.8462 39.2462C31.5542 39.5619 31.2775 39.8856 31.0078 40.2208C30.6528 40.6619 30.2786 41.078 29.8932 41.4921C29.6011 41.8078 29.3245 42.1315 29.0547 42.4667C28.6998 42.9079 28.3256 43.3239 27.9401 43.7381C27.6482 44.0538 27.3714 44.3775 27.1017 44.7127C26.7011 45.2107 26.2758 45.6788 25.8399 46.1458C25.5837 46.4264 25.3411 46.7138 25.0999 47.0074C24.7487 46.8614 24.5501 46.6631 24.3004 46.3788C24.2232 46.2911 24.146 46.2034 24.0666 46.1129C23.8415 45.8486 23.6216 45.5809 23.4032 45.3108C23.0437 44.8661 22.6657 44.4455 22.2764 44.0273C21.9073 43.6281 21.5652 43.2108 21.2245 42.7871C20.9791 42.4921 20.7228 42.2105 20.4615 41.9296C20.0426 41.4795 19.6506 41.014 19.265 40.5347C19.0369 40.2592 18.7995 39.9956 18.5574 39.7325C18.2376 39.3852 17.9318 39.0322 17.6358 38.6645C17.2785 38.2215 16.9024 37.8033 16.5152 37.387C16.1459 36.9879 15.804 36.5705 15.4631 36.1469C15.2177 35.8519 14.9614 35.5703 14.7001 35.2894C14.2833 34.8415 13.8938 34.378 13.5101 33.901C13.2648 33.6059 13.0085 33.3243 12.7472 33.0435C12.3303 32.5954 11.9408 32.132 11.557 31.655C11.3117 31.36 11.0555 31.0784 10.7942 30.7975C10.3772 30.3495 9.98777 29.8861 9.60407 29.4091C9.35874 29.114 9.10243 28.8323 8.84112 28.5516C8.42427 28.1036 8.0348 27.64 7.65105 27.1631C7.40573 26.8681 7.14946 26.5864 6.88816 26.3056C6.47127 25.8576 6.08179 25.3941 5.69804 24.9172C5.45272 24.6221 5.19646 24.3404 4.93515 24.0597C4.51826 23.6117 4.1288 23.1481 3.74504 22.6712C3.49972 22.3762 3.24345 22.0945 2.98215 21.8137C2.64289 21.4492 2.31806 21.0791 2.00564 20.6907C1.60498 20.1927 1.17961 19.7246 0.743816 19.2576C0.660739 19.1666 0.577661 19.0757 0.492062 18.9819C0.444551 18.932 0.397028 18.8821 0.348071 18.8307C0.00485876 18.4533 0.00485877 18.4533 0 18.187C0.1251 17.963 0.267896 17.8144 0.455442 17.6391C0.715512 17.3945 0.955211 17.1425 1.18701 16.8714C1.57242 16.4292 1.9824 16.016 2.3993 15.6038C2.4769 15.5265 2.55451 15.4493 2.63447 15.3697C2.96313 15.0427 3.29239 14.7161 3.62159 14.3896C3.86333 14.1496 4.10477 13.9094 4.3462 13.6691C4.41956 13.5966 4.49291 13.5239 4.5685 13.4493C4.95936 13.0601 5.32979 12.6614 5.68971 12.2438C6.00268 11.8911 6.33935 11.5623 6.67454 11.2309C6.74998 11.1558 6.82543 11.0808 6.90314 11.0034C7.22249 10.6856 7.5424 10.3685 7.86227 10.0513C8.09723 9.81812 8.33187 9.58464 8.56652 9.35105C8.63774 9.28069 8.70895 9.21027 8.78232 9.13773C8.85047 9.06992 8.91862 9.00213 8.98873 8.93227C9.0771 8.84474 9.0771 8.84474 9.16721 8.75542C9.64298 8.25459 10.0624 7.75291 10.443 7.1748C12.1799 4.79101 14.7168 5.0508 17.431 5.07277Z" fill="#CE0044"/>
<path d="M12.4058 5.41187C12.6238 5.73898 12.6786 5.98136 12.7635 6.36434C12.7785 6.43072 12.7934 6.4971 12.8088 6.56549C12.858 6.78504 12.9065 7.00476 12.955 7.22449C13.025 7.5376 13.0955 7.8506 13.166 8.16362C13.1839 8.24363 13.2019 8.32363 13.2203 8.40607C13.3846 9.13747 13.5566 9.86693 13.7302 10.5962C14.0196 11.8129 14.2953 13.032 14.5594 14.2545C14.8309 15.5108 15.1258 16.7607 15.4329 18.0087C15.8612 17.6081 16.1954 17.1655 16.5376 16.6904C17.04 16.0004 17.5502 15.3173 18.0694 14.6398C18.5642 13.9934 19.0531 13.3435 19.5342 12.6868C20.0797 11.942 20.637 11.2067 21.1981 10.4737C21.6823 9.83986 22.157 9.19965 22.6282 8.55612C23.1454 7.85156 23.6747 7.15657 24.2065 6.46294C24.2693 6.38092 24.3321 6.29892 24.3968 6.21442C24.4526 6.14186 24.5083 6.06929 24.5657 5.99452C24.684 5.83663 24.7955 5.67366 24.905 5.50951C25.2429 5.64987 25.4093 5.81596 25.6274 6.10724C25.6896 6.18956 25.7517 6.27189 25.8159 6.35671C25.9148 6.4902 25.9148 6.4902 26.0158 6.62639C26.085 6.71853 26.1542 6.81067 26.2255 6.90561C26.7241 7.57076 27.217 8.24027 27.7084 8.91085C28.1343 9.49116 28.5687 10.0645 29.0062 10.6362C29.5583 11.3574 30.1014 12.0845 30.6381 12.8173C31.064 13.3974 31.4983 13.9707 31.9357 14.5421C32.6638 15.4936 33.3791 16.4541 34.084 17.4228C34.1325 17.4891 34.1809 17.5553 34.2308 17.6236C34.5723 18.0949 34.5723 18.0949 34.5723 18.204C31.4143 18.204 28.2563 18.204 25.0026 18.204C25.0026 27.6458 25.0026 37.0876 25.0026 46.8156C24.8253 46.5496 24.7383 46.3523 24.6387 46.0533C24.6061 45.9561 24.5733 45.8588 24.5398 45.7587C24.4866 45.598 24.4866 45.598 24.4323 45.4341C24.3943 45.3205 24.3563 45.207 24.3171 45.09C24.2117 44.7744 24.1067 44.4587 24.0018 44.1429C23.8885 43.8025 23.775 43.4623 23.6613 43.122C23.4388 42.4553 23.2167 41.7883 22.9947 41.1213C22.7364 40.3449 22.4775 39.5687 22.2187 38.7924C21.7569 37.4074 21.2956 36.0221 20.8345 34.6369C20.3869 33.2923 19.9389 31.9478 19.4907 30.6035C19.0027 29.1402 18.515 27.677 18.0276 26.2136C17.9755 26.0575 17.9236 25.9015 17.8716 25.7456C17.8332 25.6303 17.8332 25.6303 17.7941 25.5128C17.6138 24.9715 17.4333 24.4303 17.2529 23.889C17.033 23.2294 16.8132 22.5697 16.5938 21.9099C16.4818 21.5732 16.3697 21.2366 16.2573 20.8999C16.1356 20.5353 16.0144 20.1705 15.8931 19.8056C15.8574 19.6989 15.8218 19.5923 15.785 19.4823C15.7365 19.3358 15.7365 19.3358 15.6869 19.1862C15.6589 19.102 15.6308 19.0178 15.6019 18.931C15.5307 18.6927 15.4817 18.448 15.4329 18.204C10.3414 18.204 5.24992 18.204 0.00415039 18.204C1.11191 16.9116 2.29306 15.7092 3.50124 14.5117C3.80326 14.2122 4.10493 13.9125 4.40642 13.6125C4.47397 13.5458 4.54153 13.4791 4.61113 13.4104C4.9255 13.0975 5.22937 12.781 5.51898 12.4451C5.88476 12.0211 6.27684 11.6277 6.67488 11.2342C6.75031 11.1592 6.82575 11.0841 6.90348 11.0067C7.22282 10.689 7.54274 10.3718 7.8626 10.0546C8.09755 9.82149 8.33221 9.58801 8.56684 9.35453C8.63807 9.28408 8.70928 9.21367 8.78265 9.14112C9.17287 8.75276 9.5431 8.35428 9.90245 7.9373C10.1379 7.66913 10.3879 7.41742 10.6415 7.16651C10.6926 7.1156 10.7437 7.06469 10.7963 7.01223C10.9562 6.85287 11.1164 6.69384 11.2766 6.53484C11.3865 6.42551 11.4963 6.31616 11.6061 6.20679C11.8724 5.94156 12.1389 5.67662 12.4058 5.41187Z" fill="#F43141"/>
<path d="M12.5024 5.41118C15.6496 5.34407 18.7965 5.29237 21.9441 5.26159C22.3174 5.25792 22.6905 5.25413 23.0638 5.25026C23.138 5.24949 23.2123 5.24872 23.2888 5.24792C24.4854 5.23525 25.6814 5.21218 26.8775 5.18516C28.1088 5.15757 29.3398 5.14145 30.5712 5.13555C31.2617 5.13192 31.9511 5.12327 32.6411 5.10144C37.3351 4.95725 37.3351 4.95725 38.799 6.24524C39.4122 6.83179 39.9276 7.48854 40.4137 8.18179C40.7642 8.66857 41.1848 9.10812 41.6101 9.52985C41.6801 9.59963 41.7502 9.66931 41.8224 9.74127C41.9325 9.85007 41.9325 9.85007 42.0447 9.96105C42.1223 10.0383 42.1999 10.1155 42.2799 10.1951C42.5258 10.4398 42.772 10.6841 43.0182 10.9285C43.3429 11.2505 43.6674 11.573 43.9916 11.8958C44.1017 12.0046 44.1017 12.0046 44.2139 12.1157C44.6048 12.5047 44.9753 12.9034 45.3351 13.3211C45.6481 13.6737 45.9847 14.0025 46.3199 14.334C46.3954 14.4091 46.4708 14.4841 46.5485 14.5615C46.7875 14.7992 47.0267 15.0366 47.2659 15.2739C47.5816 15.5869 47.8968 15.9002 48.2119 16.2138C48.3188 16.3193 48.3188 16.3193 48.4278 16.4271C48.8214 16.8189 49.197 17.2197 49.5576 17.642C49.6992 17.8037 49.8464 17.9556 50.0001 18.1058C49.9679 18.2024 49.9357 18.299 49.9025 18.3987C47.9137 18.4064 45.9249 18.4092 43.9361 18.406C43.0126 18.4047 42.0892 18.4049 41.1657 18.409C40.3608 18.4126 39.556 18.4131 38.7511 18.41C38.3249 18.4084 37.8988 18.4084 37.4726 18.4121C37.0713 18.4154 36.6702 18.4147 36.2689 18.4108C36.1218 18.4101 35.9747 18.4109 35.8275 18.4134C34.7143 18.4304 34.7143 18.4304 34.3573 18.1072C34.207 17.8842 34.0943 17.6675 33.9855 17.4222C33.8706 17.2642 33.754 17.1076 33.6346 16.953C33.573 16.8729 33.5115 16.7927 33.4481 16.7102C33.3838 16.6269 33.3194 16.5437 33.2531 16.4579C32.7417 15.7915 32.2357 15.1218 31.7396 14.4438C31.2586 13.7871 30.7696 13.1372 30.2748 12.4908C29.7227 11.7696 29.1797 11.0425 28.643 10.3098C28.1535 9.6429 27.6526 8.9852 27.149 8.32895C26.818 7.89655 26.4911 7.46181 26.1716 7.02089C26.078 6.89201 26.078 6.89201 25.9826 6.76055C25.8642 6.59686 25.7465 6.43272 25.6294 6.2681C25.5767 6.19527 25.524 6.12246 25.4697 6.04744C25.424 5.98326 25.3782 5.9191 25.3309 5.85299C25.1943 5.67643 25.1943 5.67643 24.9041 5.60648C24.8708 5.65194 24.8375 5.69741 24.8033 5.74426C24.1294 6.66522 23.4495 7.58094 22.7558 8.48716C22.261 9.13355 21.7719 9.78344 21.291 10.4402C20.7455 11.185 20.1882 11.9202 19.6271 12.6533C19.1993 13.2134 18.778 13.7776 18.3615 14.3461C17.7405 15.194 17.1051 16.0303 16.4664 16.8649C16.1515 17.2765 15.8397 17.6904 15.5297 18.1058C15.4652 18.0735 15.4007 18.0413 15.3343 18.008C15.2587 17.7804 15.2587 17.7804 15.1863 17.4752C15.1591 17.3618 15.1319 17.2485 15.1039 17.1316C15.0752 17.0079 15.0465 16.8843 15.0169 16.7569C14.9866 16.6283 14.9561 16.4997 14.9256 16.3712C14.6963 15.3977 14.4856 14.4205 14.2795 13.4418C14.1027 12.6058 13.9086 11.7751 13.7062 10.945C13.4135 9.74072 13.1445 8.53112 12.8742 7.32165C12.7713 6.86689 12.6637 6.41326 12.5552 5.95979C12.5024 5.70413 12.5024 5.70413 12.5024 5.41118Z" fill="#A00031"/>
<path d="M34.5722 18.2985C39.6314 18.2985 44.6906 18.2985 49.9032 18.2985C49.7028 18.6993 49.4567 19.0021 49.1647 19.336C49.1122 19.3966 49.0597 19.4574 49.0056 19.5199C48.6316 19.9509 48.2496 20.3743 47.8659 20.7965C47.6466 21.0448 47.438 21.2996 47.23 21.5575C46.8706 22.0022 46.4925 22.4228 46.1034 22.841C45.8113 23.1567 45.5346 23.4804 45.2649 23.8157C44.9099 24.2568 44.5357 24.6729 44.1503 25.087C43.8582 25.4027 43.5816 25.7264 43.3118 26.0616C42.9569 26.5028 42.5827 26.9188 42.1972 27.333C41.9053 27.6486 41.6286 27.9723 41.3588 28.3075C41.0039 28.7487 40.6297 29.1647 40.2443 29.579C39.9523 29.8946 39.6756 30.2183 39.4059 30.5536C39.0509 30.9946 38.6767 31.4107 38.2913 31.8249C37.9992 32.1405 37.7226 32.4642 37.4528 32.7995C37.0979 33.2407 36.7237 33.6566 36.3382 34.0709C36.0463 34.3865 35.7696 34.7102 35.4998 35.0455C35.1449 35.4866 34.7707 35.9027 34.3852 36.3168C34.0933 36.6325 33.8165 36.9562 33.5469 37.2914C33.2345 37.6796 32.9096 38.0499 32.5703 38.4143C32.1514 38.8646 31.7594 39.3301 31.3738 39.8094C31.0683 40.1785 30.743 40.528 30.4186 40.8805C30.1851 41.1407 29.9638 41.4072 29.7446 41.6796C29.3873 42.1224 29.0112 42.5408 28.624 42.957C28.3319 43.2727 28.0553 43.5964 27.7855 43.9316C27.4311 44.372 27.0578 44.7877 26.6726 45.2009C26.2857 45.6185 25.9287 46.0546 25.5762 46.5017C25.393 46.7147 25.393 46.7147 25.1001 46.9099C25.241 46.2145 25.4409 45.5536 25.6667 44.8813C25.723 44.7117 25.723 44.7117 25.7805 44.5387C25.8842 44.2269 25.9884 43.9154 26.0926 43.6039C26.2052 43.2671 26.3174 42.9302 26.4296 42.5932C26.649 41.9343 26.8689 41.2755 27.089 40.6166C27.3454 39.8496 27.6011 39.0824 27.8569 38.3151C28.3131 36.9467 28.7696 35.5784 29.2265 34.2102C29.67 32.8821 30.1132 31.5538 30.5562 30.2254C30.5834 30.1435 30.6107 30.0616 30.6389 29.9772C30.6939 29.8122 30.7489 29.6471 30.804 29.4821C30.8311 29.4008 30.8582 29.3194 30.8862 29.2355C30.9132 29.1543 30.9403 29.0731 30.9682 28.9895C31.3902 27.7238 31.8125 26.4583 32.2347 25.1927C32.3878 24.7337 32.541 24.2748 32.694 23.8157C32.9367 23.0882 33.1795 22.3607 33.4224 21.6333C33.5334 21.3009 33.6444 20.9684 33.7552 20.6359C33.8752 20.2761 33.9953 19.9164 34.1156 19.5567C34.1509 19.4508 34.1862 19.3448 34.2225 19.2355C34.2707 19.092 34.2707 19.092 34.3197 18.9453C34.3613 18.8208 34.3613 18.8208 34.4037 18.6936C34.4745 18.4937 34.4745 18.4937 34.5722 18.2985Z" fill="#A00031"/>
<path d="M37.5004 5.41187C38.1021 5.90593 38.6504 6.44932 39.1992 7.00035C39.3549 7.15668 39.5114 7.31248 39.6677 7.46823C39.7692 7.5698 39.8706 7.67139 39.9721 7.77301C40.0623 7.86337 40.1526 7.95374 40.2456 8.04684C40.4564 8.26265 40.655 8.48648 40.8519 8.71504C41.23 9.15074 41.6341 9.55627 42.0441 9.96171C42.1217 10.039 42.1993 10.1163 42.2792 10.1958C42.5251 10.4405 42.7713 10.6849 43.0175 10.9291C43.3423 11.2513 43.6668 11.5738 43.991 11.8964C44.0644 11.969 44.1377 12.0415 44.2133 12.1163C44.6042 12.5053 44.9746 12.904 45.3345 13.3218C45.6475 13.6744 45.9842 14.0033 46.3194 14.3346C46.3948 14.4097 46.4703 14.4848 46.548 14.5621C46.7868 14.7998 47.026 15.0372 47.2653 15.2745C47.5809 15.5876 47.8963 15.9008 48.2113 16.2144C48.3181 16.3201 48.3181 16.3201 48.4272 16.4278C48.9917 16.9896 49.5213 17.5664 49.9996 18.204C44.9403 18.204 39.881 18.204 34.6685 18.204C34.7784 17.2152 34.7783 17.2152 34.8764 16.7828C34.8985 16.6843 34.9205 16.5858 34.9432 16.4844C34.9674 16.3792 34.9915 16.274 35.0164 16.1656C35.0419 16.0522 35.0675 15.939 35.0938 15.8221C35.1792 15.4442 35.2655 15.0664 35.3521 14.6886C35.3673 14.6221 35.3825 14.5556 35.3981 14.4871C35.478 14.1384 35.5578 13.7898 35.6377 13.4412C35.6621 13.3349 35.6621 13.3349 35.687 13.2264C35.7201 13.0819 35.7533 12.9372 35.7865 12.7926C36.0263 11.7476 36.2597 10.7013 36.4872 9.65355C36.7019 8.6657 36.9202 7.67882 37.1463 6.69352C37.1709 6.58608 37.1953 6.47863 37.2206 6.36794C37.2432 6.27019 37.2658 6.17246 37.289 6.07177C37.3185 5.94358 37.3185 5.94358 37.3486 5.81281C37.4026 5.60716 37.4026 5.60716 37.5004 5.41187Z" fill="#F43140"/>
<path d="M12.4058 5.41187C12.6238 5.73898 12.6786 5.98136 12.7635 6.36434C12.7785 6.43072 12.7934 6.4971 12.8088 6.56549C12.858 6.78504 12.9065 7.00476 12.955 7.22449C13.025 7.5376 13.0955 7.8506 13.166 8.16362C13.1839 8.24363 13.2019 8.32363 13.2203 8.40607C13.3846 9.1375 13.5567 9.86693 13.7302 10.5962C14.0365 11.8841 14.3284 13.1746 14.6079 14.4685C14.7345 15.0543 14.8624 15.6395 14.9981 16.2232C15.0211 16.3226 15.0442 16.422 15.068 16.5244C15.1104 16.7058 15.1531 16.887 15.1965 17.0682C15.2149 17.1474 15.2334 17.2265 15.2524 17.308C15.2766 17.4093 15.2766 17.4093 15.3012 17.5127C15.3353 17.7157 15.3353 17.7157 15.3353 18.204C10.2759 18.204 5.21671 18.204 0.00415039 18.204C1.11191 16.9116 2.29306 15.7092 3.50124 14.5117C3.80326 14.2122 4.10493 13.9125 4.40642 13.6125C4.47397 13.5458 4.54153 13.4791 4.61113 13.4104C4.9255 13.0975 5.22937 12.781 5.51898 12.4451C5.88476 12.0211 6.27684 11.6277 6.67488 11.2342C6.75031 11.1592 6.82575 11.0841 6.90348 11.0067C7.22282 10.689 7.54274 10.3718 7.8626 10.0546C8.09755 9.82149 8.33221 9.58801 8.56684 9.35453C8.63807 9.28408 8.70928 9.21367 8.78265 9.14112C9.17287 8.75276 9.5431 8.35428 9.90245 7.9373C10.1379 7.66913 10.3879 7.41742 10.6415 7.16651C10.6926 7.1156 10.7437 7.06469 10.7963 7.01223C10.9562 6.85287 11.1164 6.69384 11.2766 6.53484C11.3865 6.42551 11.4963 6.31616 11.6061 6.20679C11.8724 5.94156 12.1389 5.67662 12.4058 5.41187Z" fill="#FD7D51"/>
<path d="M12.5024 5.41187C16.6595 5.41187 20.8164 5.41187 25.0994 5.41187C24.4438 6.28591 24.4438 6.28591 24.2052 6.58862C23.5583 7.41318 22.9246 8.24545 22.3059 9.09141C21.8768 9.67681 21.4392 10.2552 20.998 10.8314C20.5033 11.4778 20.0143 12.1277 19.5333 12.7845C18.9885 13.5282 18.4325 14.2625 17.8718 14.9942C17.361 15.662 16.8612 16.3375 16.3698 17.0199C16.0814 17.4163 15.7902 17.7714 15.4319 18.1064C15.1551 17.4391 15.0078 16.7686 14.8644 16.0618C14.6779 15.1673 14.4832 14.2763 14.2663 13.3886C14.0177 12.3685 13.783 11.3456 13.5533 10.3211C13.5246 10.1929 13.4959 10.0648 13.4671 9.9366C13.4527 9.87204 13.4382 9.80736 13.4232 9.74084C13.3063 9.22027 13.1867 8.70028 13.0666 8.1804C13.0303 8.02259 12.9939 7.86479 12.9574 7.70698C12.9043 7.47609 12.8509 7.24524 12.7972 7.01447C12.7477 6.80125 12.6984 6.58795 12.6493 6.37463C12.6068 6.19105 12.6068 6.19105 12.5633 6.00377C12.5024 5.70482 12.5024 5.70482 12.5024 5.41187Z" fill="#CE0045"/>
<path d="M24.9061 5.50952C24.9384 5.50952 24.9706 5.50952 25.0037 5.50952C25.0037 9.69867 25.0037 13.8879 25.0037 18.204C21.878 18.204 18.7522 18.204 15.5317 18.204C15.6804 17.8323 15.7622 17.6417 15.9971 17.3489C16.0511 17.2807 16.105 17.2126 16.1607 17.1424C16.2189 17.0698 16.2773 16.9972 16.3373 16.9224C16.8249 16.3058 17.3019 15.6837 17.7655 15.0488C18.2503 14.3857 18.7431 13.7296 19.2425 13.0774C19.7372 12.431 20.2262 11.7811 20.7071 11.1245C21.1881 10.4677 21.6772 9.8178 22.172 9.17141C22.7971 8.35466 23.4111 7.53045 24.0189 6.70078C24.1194 6.56408 24.2198 6.4274 24.3202 6.29072C24.4021 6.17868 24.4021 6.17868 24.4857 6.06438C24.5386 5.99268 24.5915 5.92097 24.646 5.8471C24.7174 5.74983 24.7174 5.74983 24.7904 5.65059C24.8477 5.58076 24.8477 5.58076 24.9061 5.50952Z" fill="#FD7D51"/>
</g>
<defs>
<clipPath id="clip0_1_2894">
<rect width="50" height="50" fill="white"/>
</clipPath>
</defs>
</svg>
