<svg width="50" height="50" viewBox="0 0 50 50" fill="none" xmlns="http://www.w3.org/2000/svg">
<path d="M25.4372 48.3716C24.3661 47.4103 23.3515 46.6846 22.8262 46.5046C22.5498 46.4086 22.2484 46.5046 20.8204 47.2351C20.1915 47.5511 19.6071 47.8079 19.5219 47.8079C19.3959 47.8079 19.3551 47.7639 19.3035 47.5719C19.2027 47.1959 19.0003 45.9046 18.8988 44.9853C18.7 43.186 18.6919 43.2564 19.0828 43.3636C19.2192 43.4036 19.8386 43.6636 20.4594 43.9481C21.08 44.2321 21.853 44.5733 22.1771 44.7065L22.7662 44.9505L24.4792 44.0789C25.4213 43.5992 26.2045 43.22 26.2198 43.2352C26.2626 43.2792 26.3786 45.5438 26.4222 47.1819C26.4622 48.692 26.4302 49 26.2302 49C26.1782 49 25.8215 48.7148 25.4372 48.3716ZM27.7645 46.525C27.6104 46.1198 27.7445 45.5226 28.0325 45.3341C28.4877 45.0341 31.766 43.9557 33.7676 43.4444C34.5708 43.2404 34.9708 43.1684 35.317 43.1684H35.7838L35.7478 43.5916C35.6958 44.1925 35.6286 44.3045 35.224 44.4641C34.4728 44.7601 28.632 46.5426 28.0594 46.6498C27.8494 46.6898 27.8225 46.689 27.7645 46.525ZM22.2956 43.6996C22.0476 43.2904 21.9316 42.842 21.8905 42.1335C21.8425 41.3063 21.9429 40.6858 22.2185 40.101C22.3393 39.845 22.4161 39.6158 22.3889 39.5914C22.3609 39.5513 22.1141 39.4993 21.8384 39.4393C21.138 39.2873 19.835 38.8465 19.0167 38.4809C16.4072 37.3148 14.9014 35.8763 14.44 34.1086C14.0884 32.7613 14.3708 30.8588 15.1287 29.4683C16.1756 27.5473 18.4489 25.41 20.4073 24.5051C21.5399 23.9819 23.7928 23.3446 25.4637 23.075C25.9965 22.987 26.4987 22.895 26.5797 22.863C26.7221 22.811 26.7185 22.803 26.4769 22.683C26.3393 22.615 25.9139 22.443 25.5313 22.303C22.5744 21.2189 19.8882 19.9712 18.4814 19.0283C16.957 18.0071 14.9531 16.0817 13.4051 14.1512C11.6779 11.9966 10.3491 9.41447 9.73537 7.0203C9.55576 6.31906 9.19113 4.1449 9.0436 2.89362L9 2.52559L9.49423 2.79761C15.2806 5.96663 17.397 7.34513 20.02 9.65448C22.2849 11.6482 23.4691 13.0563 28.3003 19.4996L30.7411 22.7546L30.8127 19.7816C30.914 15.5785 30.9468 15.1737 31.3046 13.7212C32.2627 9.8337 34.197 6.53467 37.3199 3.46166C38.6694 2.13357 40.1246 0.90428 40.2264 1.00589C40.3788 1.1579 40.2724 7.70955 40.0796 10.0373C39.5987 15.8485 38.2737 19.6432 35.6064 22.8482C34.48 24.2019 34.3462 24.3723 34.3462 24.4547C34.3462 24.5027 34.5294 24.7907 34.7533 25.094C36.1234 26.9609 36.9179 28.529 37.3061 30.1315C37.7505 31.9668 37.3905 36.864 36.6572 38.9601C36.2712 40.063 35.9139 40.4262 34.4634 41.1915C32.755 42.0923 28.0383 43.9625 27.8177 43.826C27.7653 43.786 27.7581 43.47 27.7897 42.6364C27.8301 41.5943 27.8257 41.4855 27.7273 41.4311C27.5725 41.3431 27.2721 41.4303 26.8365 41.6871C26.3907 41.9471 22.6973 43.9049 22.5587 43.9529C22.4963 43.9529 22.4074 43.8928 22.2946 43.7048L22.2956 43.6996ZM21.9164 30.3151C22.7343 30.0271 22.951 29.6407 22.9164 28.5286C22.8844 27.4953 22.6851 27.1913 21.8874 26.9557C21.4313 26.8197 20.8096 26.8317 20.4771 26.9957C20.1735 27.1317 19.8514 27.4665 19.6956 27.8117C19.5456 28.1438 19.5436 29.1374 19.6919 29.5223C19.9892 30.2919 20.9924 30.6579 21.9164 30.3331V30.3151Z" fill="#B1B1B1"/>
</svg>
