<svg width="50" height="50" viewBox="0 0 50 50" fill="none" xmlns="http://www.w3.org/2000/svg">
<path d="M20.0256 3.02661C20.8705 3.29758 21.5627 3.90345 22.2551 4.43856C23.6434 5.5678 23.6434 5.5678 25.3431 5.85688C26.416 5.5733 27.2884 4.78592 28.1468 4.11889C29.052 3.42306 29.8258 2.924 31.0036 3.02661C31.5048 3.15633 31.7754 3.54076 32.0489 3.95764C32.4432 4.64176 32.7531 5.36942 33.0684 6.09241C33.6533 7.61371 33.6533 7.61371 34.8631 8.60139C35.7005 8.81074 36.6 8.6765 37.4414 8.55851C38.1137 8.4719 38.7786 8.40261 39.4569 8.3977C39.5205 8.39654 39.5842 8.39538 39.6497 8.39418C40.1607 8.3984 40.6341 8.50169 41.0402 8.82552C41.0785 8.87362 41.1167 8.92171 41.1562 8.97126C41.2155 9.0424 41.2155 9.0424 41.2761 9.11498C41.5476 9.56026 41.5831 10.0046 41.5796 10.515C41.5795 10.6192 41.5795 10.6192 41.5793 10.7255C41.5688 11.4248 41.4842 12.1135 41.3871 12.8055C41.2582 13.7481 41.1642 14.6854 41.6011 15.5592C42.3266 16.4149 43.5798 16.8108 44.5883 17.2422C46.4708 18.049 46.4708 18.049 46.9561 18.9791C47.1041 19.7698 46.8644 20.3794 46.4415 21.0374C46.155 21.4471 45.8498 21.8423 45.5441 22.2378C44.4149 23.626 44.4149 23.626 44.1258 25.3257C44.4094 26.3987 45.1968 27.271 45.8638 28.1294C46.5596 29.0347 47.0587 29.8085 46.9561 30.9863C46.8263 31.4874 46.4419 31.7581 46.025 32.0316C45.3409 32.4259 44.6133 32.7358 43.8903 33.051C42.369 33.636 42.369 33.636 41.3813 34.8458C41.1719 35.6831 41.3062 36.5826 41.4242 37.4241C41.5108 38.0964 41.5801 38.7613 41.585 39.4396C41.5867 39.535 41.5867 39.535 41.5885 39.6324C41.5843 40.1434 41.481 40.6168 41.1572 41.0229C41.1091 41.0612 41.061 41.0994 41.0114 41.1388C40.964 41.1784 40.9166 41.218 40.8677 41.2588C40.4208 41.5313 39.9746 41.5658 39.4623 41.5623C39.3925 41.5622 39.3227 41.5621 39.2508 41.562C38.6593 41.5531 38.0808 41.4861 37.495 41.4068C35.8431 41.1676 35.8431 41.1676 34.2895 41.6695C33.6204 42.3748 33.29 43.3543 32.9024 44.231C31.8769 46.5462 31.8769 46.5462 31.1835 46.8845C30.579 47.0669 30.0251 46.9956 29.4598 46.7297C28.9583 46.4513 28.5082 46.1152 28.0573 45.7621C26.5293 44.4785 26.5293 44.4785 24.6569 44.1085C23.584 44.3921 22.7116 45.1794 21.8532 45.8465C20.948 46.5423 20.1742 47.0414 18.9964 46.9387C18.4952 46.809 18.2246 46.4246 17.9511 46.0077C17.5568 45.3236 17.2469 44.5959 16.9316 43.873C16.3473 42.3602 16.3473 42.3602 15.1423 41.3854C14.2768 41.1289 13.3807 41.2885 12.505 41.4068C11.8518 41.4946 11.2079 41.5629 10.5484 41.5677C10.4525 41.5694 10.4525 41.5694 10.3546 41.5712C9.84177 41.567 9.3675 41.4649 8.95977 41.1398C8.90239 41.0677 8.90239 41.0677 8.84385 40.9941C8.80427 40.9467 8.76469 40.8992 8.72391 40.8504C8.45242 40.4051 8.41691 39.9608 8.42038 39.4503C8.42049 39.3809 8.4206 39.3114 8.42072 39.2399C8.43122 38.5405 8.51581 37.8519 8.61291 37.1598C8.7418 36.2172 8.83582 35.28 8.39894 34.4062C7.67341 33.5505 6.42023 33.1546 5.41166 32.7232C3.52918 31.9163 3.52918 31.9163 3.04393 30.9863C2.89589 30.1956 3.13563 29.5859 3.55853 28.9279C3.84498 28.5182 4.15025 28.123 4.45589 27.7276C5.58512 26.3393 5.58512 26.3393 5.87421 24.6396C5.59062 23.5667 4.80325 22.6943 4.13621 21.8359C3.44038 20.9307 2.94132 20.1568 3.04393 18.9791C3.17365 18.4779 3.55808 18.2072 3.97496 17.9338C4.65908 17.5395 5.38675 17.2296 6.10973 16.9143C7.63104 16.3294 7.63104 16.3294 8.61871 15.1196C8.82806 14.2822 8.69382 13.3827 8.57583 12.5413C8.48922 11.8689 8.41994 11.2041 8.41502 10.5258C8.41386 10.4621 8.4127 10.3985 8.4115 10.3329C8.41572 9.82194 8.51901 9.34861 8.84285 8.94245C8.89094 8.90419 8.93903 8.86594 8.98858 8.82653C9.05972 8.76716 9.05972 8.76716 9.13231 8.70659C9.57758 8.4351 10.0219 8.39959 10.5324 8.40306C10.6018 8.40317 10.6712 8.40328 10.7428 8.40339C11.4421 8.4139 12.1308 8.49849 12.8229 8.59559C13.7654 8.72448 14.7027 8.8185 15.5765 8.38162C16.4322 7.65609 16.8281 6.40291 17.2595 5.39434C17.817 4.09353 18.4021 2.79693 20.0256 3.02661Z" fill="#FEED8B"/>
<path d="M34.3483 13.6188C34.4896 13.7455 34.6295 13.8738 34.7674 14.0041C34.9333 14.1605 35.1047 14.304 35.281 14.4484C37.8123 16.6747 39.3403 20.2184 39.6658 23.5235C39.731 25.0328 39.7683 26.594 39.4085 28.0691C39.3914 28.14 39.3744 28.2109 39.3568 28.2839C38.7634 30.6793 37.6771 32.9285 35.9832 34.74C35.8257 34.9095 35.6795 35.0838 35.5329 35.2627C33.3071 37.7934 29.6995 39.3934 26.3771 39.6331C22.1586 39.8644 18.272 38.6583 15.1043 35.8289C13.4411 34.3144 12.2564 32.5307 11.363 30.4705C11.3227 30.3805 11.2823 30.2905 11.2408 30.1978C10.8737 29.3227 10.6933 28.3952 10.5054 27.4687C10.4839 27.3684 10.4625 27.2681 10.4404 27.1648C10.1411 25.5019 10.2731 23.715 10.5911 22.0654C10.6084 21.9713 10.6084 21.9713 10.6259 21.8752C11.0215 19.7644 12.0276 17.7523 13.3357 16.0618C13.3961 15.9822 13.4566 15.9026 13.5189 15.8206C15.9169 12.7711 19.4248 10.9094 23.2429 10.3709C27.2322 9.92151 31.2615 11.0304 34.3483 13.6188Z" fill="#FECF72"/>
<path d="M25.0105 10.3057C25.1073 10.3054 25.204 10.305 25.3037 10.3047C25.811 10.3053 26.2994 10.3249 26.8009 10.4022C26.5727 10.5245 26.3652 10.6054 26.1124 10.6601C23.5911 11.2331 21.2443 12.3005 19.349 14.0908C19.1831 14.2472 19.0117 14.3907 18.8354 14.535C16.4042 16.6672 14.824 20.1646 14.5364 23.3528C14.5098 23.8186 14.508 24.2846 14.5093 24.751C14.5096 24.9595 14.5076 25.1679 14.5054 25.3764C14.4998 26.7076 14.6944 27.9723 15.0939 29.2439C15.1376 29.384 15.1376 29.384 15.1821 29.527C15.6268 30.8964 16.2415 32.2331 17.1094 33.3874C17.1742 33.4764 17.2391 33.5654 17.306 33.6571C18.0704 34.6906 18.9158 35.6076 19.9396 36.3892C20.0177 36.4515 20.0957 36.5137 20.1762 36.5779C21.9264 37.9442 23.9814 38.8658 26.1523 39.3214C26.4578 39.3911 26.4578 39.3911 26.6294 39.5626C23.4765 40.2413 19.771 39.0635 17.1095 37.3969C14.498 35.6757 12.6033 33.3316 11.363 30.4714C11.3227 30.3814 11.2823 30.2914 11.2408 30.1987C10.8737 29.3236 10.6933 28.3961 10.5054 27.4696C10.4839 27.3693 10.4625 27.269 10.4404 27.1657C10.1411 25.5028 10.2731 23.7159 10.5911 22.0663C10.6084 21.9722 10.6084 21.9722 10.6259 21.8761C11.0215 19.7653 12.0276 17.7532 13.3357 16.0627C13.3961 15.9831 13.4566 15.9035 13.5189 15.8215C15.9194 12.7687 19.422 10.9183 23.241 10.3716C23.8301 10.3043 24.4183 10.3036 25.0105 10.3057Z" fill="#F28F44"/>
<path d="M21.9127 26.9545C22.1603 27.1083 22.1603 27.1083 22.4005 27.3136C23.3676 28.0861 24.3805 28.3514 25.6006 28.241C26.4457 28.077 27.2136 27.7248 27.8466 27.1367C28.0878 26.9545 28.0878 26.9545 28.3987 26.9062C28.6882 26.9545 28.6882 26.9545 28.8973 27.0885C29.0932 27.3942 29.1029 27.54 29.0313 27.8979C28.494 28.7006 27.3595 29.2587 26.4583 29.5275C25.3034 29.7364 23.9247 29.7947 22.8561 29.2702C22.7767 29.2338 22.6974 29.1974 22.6156 29.1599C21.9748 28.8413 21.4728 28.4014 20.9693 27.8979C20.9384 27.5703 20.9229 27.3699 21.1033 27.0885C21.3923 26.9032 21.5734 26.9216 21.9127 26.9545Z" fill="#CC9236"/>
<path d="M21.0109 21.1891C21.5476 21.6215 21.5476 21.6215 21.639 22.0434C21.5583 22.3665 21.507 22.4853 21.2263 22.6652C20.8944 22.7383 20.7034 22.7118 20.4115 22.5363C20.2644 22.4314 20.1193 22.3237 19.9766 22.213C19.3333 21.7558 18.564 21.8306 17.8117 21.9416C17.5454 22.0617 17.3798 22.1895 17.1578 22.3758C16.9034 22.5833 16.7287 22.7111 16.3966 22.7296C16.0803 22.6652 16.0803 22.6652 15.8606 22.4884C15.7373 22.2364 15.7373 22.2364 15.7158 21.947C15.904 21.4013 16.2901 21.153 16.7876 20.8866C18.189 20.2201 19.7229 20.2631 21.0109 21.1891Z" fill="#CC9236"/>
<path d="M33.8577 21.3296C34.0219 21.4781 34.146 21.6184 34.2631 21.8067C34.2529 22.098 34.2272 22.3161 34.0862 22.5732C33.8011 22.7295 33.5419 22.7414 33.2339 22.6643C33.0238 22.5259 32.8376 22.3706 32.6449 22.209C32.1008 21.7775 31.3213 21.8198 30.6609 21.8924C30.2408 22.0319 29.9073 22.2317 29.5728 22.5196C29.2932 22.7236 29.1117 22.7134 28.7741 22.6643C28.4934 22.4844 28.4421 22.3656 28.3613 22.0425C28.47 21.5407 28.795 21.3232 29.2029 21.0348C30.7046 20.0953 32.4727 20.2808 33.8577 21.3296Z" fill="#CC9236"/>
</svg>
