<svg width="50" height="50" viewBox="0 0 50 50" fill="none" xmlns="http://www.w3.org/2000/svg">
<path d="M10.7713 3.03663C11.0941 3.11443 11.4024 3.22489 11.7148 3.33686C15.4206 4.5873 19.4454 5.18869 23.3478 5.19857C23.4473 5.19893 23.4473 5.19893 23.5489 5.1993C23.9014 5.20058 24.254 5.20138 24.6065 5.20175C24.891 5.20212 25.1755 5.2033 25.46 5.20527C30.1125 5.23676 34.8355 4.67322 39.2531 3.14754C39.6305 3.01925 39.9695 2.95426 40.3655 3.03663C40.5853 3.20819 40.5853 3.20819 40.7087 3.46553C40.7601 4.00533 40.6777 4.296 40.3387 4.72543C40.3007 4.776 40.2628 4.82656 40.2236 4.87865C39.7612 5.48628 39.276 6.09912 38.7357 6.63941C38.7606 6.98891 38.9884 7.27268 39.17 7.56155C39.5831 8.23573 39.9412 8.92758 40.2798 9.64173C40.322 9.7297 40.322 9.7297 40.3652 9.81945C42.2544 13.7777 43.0862 18.6328 41.6197 22.8623C41.2485 23.8651 40.7626 24.8964 40.0355 25.6887C39.9192 25.8493 39.9192 25.8493 39.944 26.0436C40.0536 26.3786 40.1957 26.6958 40.3387 27.0176C41.4599 29.6124 42.1556 32.7593 41.1161 35.4831C40.4601 36.9508 39.2774 38.0062 37.7915 38.5954C37.3226 38.7734 36.8845 38.9049 36.3875 38.984C35.7579 39.1263 35.4899 39.6273 35.1464 40.1269C34.6284 40.8495 33.8925 41.3305 33.16 41.8094C33.2343 41.8908 33.3086 41.9722 33.3851 42.056C34.1117 42.908 34.4641 43.7274 34.4842 44.8386C34.4871 44.9401 34.4871 44.9401 34.49 45.0438C34.4887 45.3674 34.4857 45.5312 34.2885 45.7969C34.0469 45.9667 33.884 46.0066 33.5889 46.0127C33.3892 45.9151 33.2313 45.8267 33.0742 45.6696C33.0626 45.4874 33.0543 45.3051 33.0474 45.1227C32.9992 44.3838 32.853 43.6312 32.3022 43.0961C32.1959 43.0179 32.0887 42.9411 31.9805 42.8656C31.8425 42.7674 31.8425 42.7674 31.7017 42.6672C31.7017 42.6106 31.7017 42.554 31.7017 42.4957C31.5602 42.524 31.4186 42.5523 31.2728 42.5815C31.3164 42.6376 31.3599 42.6938 31.4048 42.7517C32.1528 43.7434 32.7052 44.7307 32.6718 45.9979C32.6453 46.1842 32.6453 46.1842 32.5113 46.404C32.2293 46.5703 32.0293 46.6131 31.7017 46.6131C31.3986 46.4337 31.29 46.3305 31.1927 45.9882C31.1784 45.8813 31.1642 45.7744 31.1495 45.6642C31.053 45.0469 30.8403 44.5683 30.5008 44.0397C30.5008 44.2705 30.5291 44.4257 30.5866 44.6455C30.7459 45.3531 30.7435 46.0379 30.415 46.6989C30.2984 46.847 30.2984 46.847 30.1577 46.9563C29.5717 47.0214 29.5717 47.0214 29.2777 46.8306C29.0542 46.5054 29.1093 46.2241 29.1336 45.8411C29.1573 45.1256 29.0667 44.5831 28.6994 43.9539C28.6544 43.8643 28.6094 43.7747 28.5631 43.6823C28.3751 43.4045 28.3751 43.4045 28.0421 43.4074C27.9159 43.4189 27.79 43.433 27.6643 43.4493C27.5247 43.4623 27.3851 43.4749 27.2454 43.4871C27.1737 43.4939 27.1019 43.5007 27.028 43.5078C26.6872 43.535 26.3474 43.5367 26.0057 43.5364C25.9389 43.5366 25.8722 43.5367 25.8034 43.5368C25.5982 43.5369 25.393 43.5364 25.1877 43.5358C25.117 43.5357 25.0464 43.5356 24.9735 43.5355C23.9546 43.5342 22.9391 43.5181 21.9227 43.4393C21.3354 44.3497 21.1065 44.9921 21.1677 46.0732C21.1864 46.5621 21.1864 46.5621 21.0002 46.8283C20.7425 46.9995 20.5863 47.0115 20.2842 46.9941C20.1213 46.9563 20.1213 46.9563 19.9176 46.7847C19.4109 45.8492 19.6306 44.943 19.864 43.9539C19.3854 44.7056 19.3854 44.7056 19.1452 45.5553C19.0482 46.2172 19.0482 46.2172 18.8185 46.5059C18.4973 46.6487 18.3125 46.6206 17.9768 46.5274C17.8002 46.3919 17.7327 46.2965 17.6337 46.0985C17.5321 44.727 18.203 43.6298 19.0062 42.5815C18.8646 42.5531 18.7231 42.5248 18.5773 42.4957C18.549 42.5806 18.5207 42.6655 18.4915 42.753C18.3451 42.8914 18.3451 42.8914 18.1645 43.0372C17.6621 43.4667 17.3867 43.8932 17.2906 44.5544C17.2761 44.8418 17.2638 45.1284 17.2594 45.4162C17.2048 45.6696 17.2048 45.6696 17.0061 45.875C16.7759 46.0127 16.7759 46.0127 16.4649 46.0073C16.1884 45.9305 16.0817 45.8968 15.9181 45.6696C15.6684 45.1701 15.7783 44.297 15.8909 43.7606C16.1472 43.0132 16.6046 42.3995 17.119 41.8094C17.0608 41.7688 17.0027 41.7283 16.9428 41.6865C15.9336 40.9694 15.0651 40.1868 14.374 39.1502C14.2049 39.0774 14.2049 39.0774 14.0054 39.0336C13.8935 39.0047 13.8935 39.0047 13.7794 38.9752C13.6996 38.9551 13.6198 38.935 13.5377 38.9143C12.4347 38.6172 11.4617 38.206 10.5997 37.4346C10.502 37.3489 10.502 37.3489 10.4023 37.2614C9.27958 36.2141 8.74804 34.7364 8.69208 33.2207C8.64898 30.9504 9.16306 28.9303 10.0311 26.8479C10.2485 26.3658 10.2485 26.3658 10.3423 25.8543C10.2291 25.647 10.2291 25.647 10.0528 25.4468C8.697 23.6761 8.02811 21.4108 8.00584 19.1932C8.00457 19.0891 8.00457 19.0891 8.00329 18.9829C7.98821 17.4133 8.01138 15.8966 8.3694 14.3597C8.38778 14.28 8.40616 14.2004 8.4251 14.1184C8.55741 13.563 8.7125 13.0169 8.88408 12.4725C8.90747 12.3982 8.93085 12.3239 8.95495 12.2474C9.52789 10.4737 10.3247 8.6191 11.425 7.10551C11.5578 6.91133 11.5578 6.91133 11.5429 6.72151C11.4245 6.48886 11.2654 6.33222 11.0822 6.14617C9.61941 4.58628 9.61941 4.58628 9.54352 3.78185C9.57032 3.46553 9.57032 3.46553 9.68827 3.21355C10.03 2.94509 10.3498 2.99354 10.7713 3.03663Z" fill="#DC8655"/>
<path d="M22.843 10.0492C23.7347 10.6639 24.4729 11.401 25.1822 12.2155C25.2208 12.1635 25.2594 12.1115 25.2991 12.058C26.4423 10.5689 28.0957 9.35784 29.9859 9.04158C30.3186 9.01611 30.6495 9.01296 30.9831 9.01478C31.0744 9.0152 31.1657 9.01562 31.2598 9.01606C32.8946 9.04032 34.6176 9.56258 35.8444 10.6912C37.8959 12.8227 38.5523 15.5395 38.511 18.4225C38.437 20.5291 37.8248 22.7643 36.3336 24.3105C34.9373 25.5369 33.2136 26.1369 31.3584 26.0261C29.8048 25.8208 28.2839 25.1608 27.1655 24.0398C26.9836 23.7958 26.9836 23.7958 26.9544 23.5626C26.9997 23.3398 27.0665 23.1471 27.1551 22.938C27.3172 22.1436 27.3036 21.3597 26.8951 20.637C26.5728 20.2048 26.1069 20.0152 25.6111 19.8499C24.8324 19.7721 24.313 19.9425 23.6542 20.3378C23.0476 20.9791 23.0781 21.712 23.097 22.5483C23.1112 22.8569 23.1642 23.1249 23.2575 23.4205C23.3194 23.6814 23.3176 23.7585 23.1767 23.9912C22.0134 25.2445 20.3103 25.9065 18.636 26.0506C17.5308 26.0817 16.4773 25.8267 15.489 25.3399C15.4044 25.2986 15.3198 25.2574 15.2326 25.2149C13.6376 24.3646 12.7636 22.9043 12.2293 21.2224C12.1263 20.8816 12.0422 20.5421 11.972 20.1931C11.9544 20.1109 11.9368 20.0287 11.9187 19.9441C11.6171 18.2615 11.7367 16.5252 12.1435 14.8747C12.1683 14.7659 12.1931 14.657 12.2186 14.5449C12.6724 12.746 13.781 11.0423 15.3549 10.0388C17.7207 8.67132 20.5005 8.61207 22.843 10.0492Z" fill="#FEE8C7"/>
<path d="M13.9452 28.7695C14.3077 28.8823 14.6505 29.0212 14.9972 29.174C17.1979 30.1384 19.5401 30.5924 21.9227 30.8283C22.0036 30.8365 22.0844 30.8448 22.1677 30.8533C23.0589 30.9338 23.9506 30.9312 24.8446 30.9301C24.9282 30.93 25.0118 30.93 25.0979 30.9299C28.7056 30.9224 32.6037 30.6404 35.8547 28.915C36.1623 28.7695 36.1623 28.7695 36.4196 28.8553C36.757 29.5995 36.8671 30.4551 36.9923 31.2569C37.0167 31.4075 37.045 31.5574 37.0741 31.7072C37.5341 34.2839 37.1725 37.183 35.7334 39.4063C35.4937 39.7388 35.2373 40.047 34.9614 40.3499C34.9079 40.4104 34.8543 40.4709 34.7992 40.5332C34.3182 41.0475 33.7448 41.4231 33.16 41.8082C33.2343 41.8896 33.3086 41.9709 33.3852 42.0548C34.1117 42.9067 34.4641 43.7261 34.4842 44.8373C34.4871 44.9389 34.4871 44.9389 34.49 45.0425C34.4887 45.3662 34.4857 45.53 34.2885 45.7956C34.0469 45.9655 33.884 46.0054 33.5889 46.0114C33.3893 45.9138 33.2313 45.8254 33.0742 45.6683C33.0627 45.4862 33.0543 45.3038 33.0474 45.1214C32.9992 44.3825 32.853 43.6299 32.3022 43.0949C32.196 43.0166 32.0887 42.9399 31.9805 42.8643C31.8885 42.7989 31.7965 42.7334 31.7017 42.666C31.7017 42.6094 31.7017 42.5527 31.7017 42.4944C31.5602 42.5227 31.4186 42.551 31.2728 42.5802C31.3164 42.6364 31.36 42.6925 31.4048 42.7504C32.1528 43.7421 32.7052 44.7294 32.6718 45.9967C32.6453 46.183 32.6453 46.183 32.5113 46.4028C32.2293 46.5691 32.0294 46.6119 31.7017 46.6119C31.3987 46.4325 31.29 46.3293 31.1927 45.987C31.1713 45.8266 31.1713 45.8266 31.1495 45.6629C31.053 45.0457 30.8404 44.567 30.5008 44.0385C30.5008 44.2692 30.5291 44.4244 30.5866 44.6443C30.746 45.3518 30.7435 46.0366 30.415 46.6977C30.2984 46.8458 30.2984 46.8458 30.1577 46.955C29.5718 47.0201 29.5718 47.0201 29.2778 46.8293C29.0542 46.5041 29.1093 46.2228 29.1337 45.8399C29.1573 45.1244 29.0667 44.5819 28.6994 43.9527C28.6544 43.8631 28.6095 43.7734 28.5631 43.6811C28.3751 43.4033 28.3751 43.4033 28.0421 43.4061C27.9159 43.4176 27.79 43.4318 27.6643 43.4481C27.5247 43.461 27.3851 43.4736 27.2454 43.4858C27.1737 43.4927 27.1019 43.4995 27.028 43.5065C26.6872 43.5338 26.3474 43.5354 26.0057 43.5352C25.9389 43.5353 25.8722 43.5354 25.8034 43.5356C25.5982 43.5357 25.393 43.5351 25.1878 43.5345C25.1171 43.5344 25.0464 43.5344 24.9735 43.5343C23.9546 43.533 22.9391 43.5168 21.9227 43.438C21.3355 44.3484 21.1066 44.9908 21.1677 46.0719C21.1864 46.5609 21.1864 46.5609 21.0003 46.827C20.7425 46.9982 20.5863 47.0103 20.2842 46.9929C20.1213 46.955 20.1213 46.955 19.9176 46.7834C19.4109 45.848 19.6306 44.9417 19.864 43.9527C19.3855 44.7044 19.3855 44.7044 19.1453 45.554C19.0482 46.216 19.0482 46.216 18.8186 46.5047C18.4973 46.6474 18.3125 46.6194 17.9768 46.5261C17.8002 46.3907 17.7327 46.2952 17.6337 46.0972C17.5321 44.7258 18.203 43.6286 19.0062 42.5802C18.8647 42.5519 18.7231 42.5236 18.5773 42.4944C18.549 42.5793 18.5207 42.6643 18.4915 42.7518C18.3451 42.8901 18.3451 42.8901 18.1645 43.0359C17.6622 43.4654 17.3867 43.892 17.2906 44.5531C17.2761 44.8406 17.2639 45.1272 17.2594 45.415C17.2048 45.6683 17.2048 45.6683 17.0061 45.8737C16.7759 46.0114 16.7759 46.0114 16.465 46.0061C16.1885 45.9292 16.0817 45.8955 15.9181 45.6683C15.6684 45.1689 15.7783 44.2957 15.891 43.7593C16.1472 43.0119 16.6046 42.3982 17.119 41.8082C17.0318 41.7473 17.0318 41.7473 16.9428 41.6852C14.8526 40.2 13.6938 38.3611 13.2227 35.8441C13.2064 35.7458 13.19 35.6475 13.1731 35.5462C13.1573 35.4564 13.1415 35.3666 13.1252 35.2741C12.8785 33.1341 13.1736 30.8922 13.8594 28.8553C13.8877 28.827 13.916 28.7987 13.9452 28.7695Z" fill="#AA5C2C"/>
<path d="M10.4281 25.9414C10.7783 26.2307 11.0976 26.5275 11.4092 26.8582C12.1444 27.6035 13.0593 28.1384 13.9451 28.6864C13.9243 28.7646 13.9035 28.8427 13.8821 28.9233C13.703 29.6104 13.5478 30.2996 13.4143 30.9971C13.3929 31.1081 13.3929 31.1081 13.371 31.2213C12.9018 33.7257 13.0481 36.4295 14.2765 38.7006C14.374 38.8943 14.374 38.8943 14.374 39.0658C13.0177 38.9828 11.6089 38.3262 10.5997 37.436C10.5343 37.3787 10.4689 37.3214 10.4016 37.2624C9.27969 36.2143 8.74801 34.738 8.69204 33.222C8.64384 30.6835 9.27093 28.2047 10.4281 25.9414Z" fill="#DC8757"/>
<path d="M11.8009 16.6758C11.8292 16.6758 11.8575 16.6758 11.8867 16.6758C11.8944 16.7227 11.9021 16.7696 11.91 16.818C12.1983 18.5369 12.6086 20.2164 13.7739 21.5653C13.823 21.6235 13.872 21.6818 13.9226 21.7419C14.7163 22.6118 16.1706 23.3967 17.3545 23.4663C17.6478 23.4702 17.9411 23.4726 18.2344 23.4739C18.3347 23.4757 18.435 23.4774 18.5384 23.4792C20.0985 23.4862 21.3889 22.9318 22.6093 21.9942C22.6587 21.944 22.7081 21.8938 22.759 21.842C22.8666 21.7368 22.8666 21.7368 23.0382 21.7368C23.0424 21.8136 23.0466 21.8903 23.0509 21.9694C23.0605 22.125 23.0605 22.125 23.0703 22.2837C23.077 22.3935 23.0836 22.5033 23.0904 22.6164C23.1198 22.8982 23.1771 23.1259 23.2633 23.3935C23.3204 23.6621 23.3201 23.7546 23.1769 23.9926C22.0085 25.2429 20.3137 25.9059 18.6365 26.0503C17.5313 26.0815 16.4778 25.8264 15.4895 25.3396C15.4049 25.2984 15.3203 25.2571 15.2331 25.2146C13.6381 24.3644 12.764 22.904 12.2298 21.2221C12.1268 20.8813 12.0426 20.5418 11.9725 20.1928C11.9461 20.0695 11.9461 20.0695 11.9192 19.9438C11.7263 18.8676 11.7856 17.7647 11.8009 16.6758Z" fill="#FEDBA6"/>
<path d="M38.3921 16.5898C38.4205 16.5898 38.4488 16.5898 38.4779 16.5898C38.5704 19.2292 38.3373 21.9871 36.5516 24.0839C35.4107 25.2668 33.8468 25.9327 32.216 26.0431C30.3842 26.0717 28.644 25.3931 27.2876 24.1602C27.1059 23.9762 26.991 23.8455 26.9512 23.5863C26.9941 23.3826 26.9941 23.3826 27.0691 23.1752C27.1757 22.88 27.2114 22.5945 27.2514 22.2835C27.2658 22.1798 27.2802 22.0761 27.295 21.9692C27.3054 21.8925 27.3158 21.8157 27.3265 21.7367C27.3621 21.7659 27.3977 21.7951 27.4344 21.8251C28.7505 22.8604 30.1479 23.4661 31.8246 23.4791C31.9801 23.4828 31.9801 23.4828 32.1387 23.4866C33.1423 23.4936 34.0136 23.2395 34.902 22.7821C34.9597 22.753 35.0175 22.7239 35.0771 22.6938C35.4754 22.4859 35.8104 22.2498 36.129 21.9297C36.2476 21.8225 36.2476 21.8225 36.4192 21.8225C36.4427 21.7718 36.4663 21.7212 36.4906 21.669C36.5866 21.4871 36.6907 21.3479 36.8213 21.1898C37.8525 19.8333 38.133 18.2287 38.3921 16.5898Z" fill="#FEDBA6"/>
<path d="M26.5333 20.2017C26.9576 20.5146 27.1544 20.9412 27.3054 21.4318C27.4139 22.5444 27.1856 23.7656 26.469 24.654C26.087 25.0485 25.7188 25.3884 25.1609 25.4635C24.5574 25.3931 24.129 25.0356 23.7565 24.5699C23.0704 23.565 22.9112 22.4989 23.0378 21.3085C23.1872 20.7304 23.4892 20.3579 23.9847 20.0319C24.8432 19.5428 25.7287 19.697 26.5333 20.2017Z" fill="#FE9A01"/>
<path d="M32.6775 14.9615C33.2705 15.3247 33.6101 15.8059 33.8781 16.4392C34.0316 17.3606 33.9735 18.1914 33.4783 18.9996C33.0992 19.497 32.6019 19.7219 31.9909 19.8061C31.3776 19.7153 31.0351 19.383 30.6358 18.9389C30.1526 18.2069 30.1274 17.3523 30.2431 16.5036C30.4306 15.8662 30.7341 15.4139 31.2869 15.0443C31.7272 14.8068 32.2158 14.7629 32.6775 14.9615Z" fill="#454144"/>
<path d="M19.2095 15.1791C19.692 15.6027 20.0265 16.2271 20.0707 16.8653C20.0983 17.7191 20.0803 18.4645 19.5212 19.1622C19.131 19.506 18.7422 19.7381 18.2184 19.7895C17.7425 19.7505 17.3944 19.6122 17.0563 19.2681C16.3992 18.4419 16.34 17.6075 16.4331 16.5888C16.567 15.9259 16.9366 15.4256 17.4812 15.0431C18.018 14.7476 18.7052 14.8589 19.2095 15.1791Z" fill="#444044"/>
<path d="M8.79868 31.5156C8.82699 31.5156 8.8553 31.5156 8.88446 31.5156C8.91564 31.6415 8.91564 31.6415 8.94746 31.77C9.23781 32.917 9.61099 33.958 10.5143 34.7753C10.5585 34.8198 10.6028 34.8644 10.6483 34.9103C11.2943 35.5298 12.1334 35.9549 12.9805 36.2282C13.3152 36.357 13.3152 36.357 13.4362 36.5519C13.4952 36.7322 13.4952 36.7322 13.5421 36.9335C13.6199 37.2479 13.7385 37.5424 13.8597 37.8419C13.8812 37.8967 13.9026 37.9514 13.9247 38.0077C14.0501 38.3224 14.1996 38.6035 14.3744 38.8928C14.3744 38.9494 14.3744 39.006 14.3744 39.0643C13.0181 38.9813 11.6093 38.3247 10.6001 37.4345C10.5347 37.3772 10.4694 37.3199 10.402 37.2609C9.39818 36.3231 8.84733 35.0198 8.7129 33.6601C8.70141 33.3062 8.70091 32.9527 8.70218 32.5986C8.70185 32.5038 8.70151 32.4091 8.70117 32.3114C8.70128 32.2215 8.70139 32.1316 8.70151 32.039C8.7016 31.957 8.7017 31.8751 8.7018 31.7906C8.7129 31.6014 8.7129 31.6014 8.79868 31.5156Z" fill="#D97F4A"/>
<path d="M41.3952 31.6875C41.4518 31.6875 41.5085 31.6875 41.5668 31.6875C41.6187 33.8473 41.4279 35.6317 39.8833 37.274C38.9037 38.2152 37.3044 39.0646 35.9053 39.0646C36.0577 38.6763 36.2232 38.2942 36.3953 37.9143C36.5077 37.6595 36.5932 37.4259 36.6441 37.1517C36.7012 36.8461 36.7538 36.6606 36.9346 36.4054C37.3137 36.166 37.74 36.0258 38.1594 35.8733C38.6434 35.6971 39.0255 35.4446 39.4223 35.1187C39.4804 35.0763 39.5386 35.0338 39.5985 34.9901C40.5983 34.212 41.1771 32.9078 41.3952 31.6875Z" fill="#D97F4A"/>
<path d="M31.3588 42.7512C32.1224 43.4455 32.5712 44.541 32.6669 45.5508C32.6827 45.8893 32.6903 46.1089 32.5114 46.4022C32.2295 46.5685 32.0295 46.6113 31.7019 46.6113C31.3988 46.4319 31.2902 46.3287 31.1929 45.9864C31.1715 45.826 31.1715 45.826 31.1497 45.6624C31.0532 45.0451 30.8405 44.5665 30.501 44.0379C30.501 44.2687 30.5293 44.4238 30.5867 44.6437C30.7461 45.3513 30.7437 46.0361 30.4152 46.6971C30.2986 46.8452 30.2986 46.8452 30.1578 46.9544C29.5719 47.0195 29.5719 47.0195 29.2779 46.8288C29.0544 46.5036 29.1095 46.2223 29.1338 45.8393C29.1653 44.8883 28.9049 44.2093 28.3564 43.4374C28.3564 43.3808 28.3564 43.3242 28.3564 43.2659C28.4597 43.2432 28.4597 43.2432 28.565 43.22C28.8761 43.1514 29.1873 43.0827 29.4984 43.0139C29.6067 42.9901 29.715 42.9662 29.8266 42.9417C29.9821 42.9073 29.9821 42.9073 30.1407 42.8722C30.2364 42.851 30.3321 42.8299 30.4307 42.8082C31.0661 42.6585 31.0661 42.6585 31.3588 42.7512Z" fill="#FEA811"/>
<path d="M19.2724 42.6739C19.3845 42.6981 19.496 42.7249 19.6071 42.7533C19.7104 42.7767 19.7104 42.7767 19.8159 42.8006C20.0489 42.8541 20.281 42.9106 20.5132 42.9677C21.2135 43.1403 21.2135 43.1403 21.9232 43.268C21.841 43.5556 21.756 43.7763 21.5854 44.0239C21.1515 44.6945 21.1238 45.2925 21.1682 46.0733C21.1868 46.5625 21.1868 46.5625 21.0007 46.8285C20.743 46.9998 20.5868 47.0118 20.2846 46.9944C20.1218 46.9565 20.1218 46.9565 19.9181 46.785C19.4113 45.8495 19.6311 44.9433 19.8644 43.9542C19.3859 44.7059 19.3859 44.7059 19.1457 45.5556C19.0486 46.2175 19.0486 46.2175 18.819 46.5062C18.4978 46.6489 18.313 46.6209 17.9773 46.5276C17.8006 46.3922 17.7332 46.2968 17.6342 46.0987C17.5413 44.8451 18.0988 43.8012 18.813 42.8166C19.0066 42.6675 19.0066 42.6675 19.2724 42.6739Z" fill="#FEA811"/>
<path d="M26.0245 19.9068C26.5011 20.1489 26.946 20.4518 27.1557 20.9629C27.087 21.1218 27.087 21.1218 26.9841 21.3061C26.9546 21.3721 26.9251 21.4381 26.8947 21.5061C26.6071 22.1293 26.2711 22.5443 25.7082 22.9359C25.2325 23.0881 24.8357 23.0214 24.3946 22.7965C23.8557 22.3414 23.5491 21.878 23.2956 21.2203C23.239 21.2203 23.1824 21.2203 23.124 21.2203C23.2523 20.7306 23.4617 20.3526 23.896 20.0854C24.5846 19.7348 25.2875 19.5965 26.0245 19.9068Z" fill="#FEA813"/>
<path d="M17.2045 41.8086C17.6922 41.9498 18.1281 42.1766 18.577 42.4091C18.5301 42.7296 18.4145 42.8439 18.1642 43.0417C17.6591 43.4672 17.3863 43.8932 17.2903 44.5536C17.2758 44.841 17.2635 45.1276 17.2591 45.4154C17.2045 45.6687 17.2045 45.6687 17.0058 45.8741C16.7756 46.0118 16.7756 46.0118 16.4646 46.0065C16.1881 45.9297 16.0814 45.8959 15.9178 45.6687C15.6681 45.1693 15.778 44.2961 15.8906 43.7598C16.1568 42.9832 16.6074 42.363 17.2045 41.8086Z" fill="#FEA811"/>
<path d="M33.0924 41.8543C33.7882 42.4197 34.2561 43.1593 34.4471 44.038C34.4694 44.2951 34.4708 44.5521 34.4739 44.81C34.4764 44.8792 34.4789 44.9485 34.4815 45.0198C34.4869 45.5278 34.4869 45.5278 34.2896 45.7968C34.0474 45.9643 33.8837 46.0049 33.5893 46.011C33.3897 45.9134 33.2318 45.8249 33.0746 45.6678C33.0631 45.4857 33.0548 45.3034 33.0478 45.121C32.9996 44.382 32.8534 43.6295 32.3026 43.0944C32.1447 42.9812 31.9861 42.8725 31.8214 42.7694C31.7821 42.7351 31.7427 42.7008 31.7021 42.6655C31.7021 42.5806 31.7021 42.4957 31.7021 42.4082C31.8944 42.3028 32.0873 42.1995 32.2812 42.0972C32.3628 42.0521 32.3628 42.0521 32.446 42.0061C32.8513 41.795 32.8513 41.795 33.0924 41.8543Z" fill="#FEA811"/>
</svg>
