<svg width="50" height="50" viewBox="0 0 50 50" fill="none" xmlns="http://www.w3.org/2000/svg">
<g clip-path="url(#clip0_1_2877)">
<path d="M8.14919 0.0416243C8.516 0.130033 8.86634 0.255555 9.22134 0.382793C13.4324 1.80374 18.0061 2.48713 22.4406 2.49836C22.5536 2.49877 22.5536 2.49877 22.6691 2.49919C23.0697 2.50064 23.4703 2.50155 23.8709 2.50197C24.1942 2.50239 24.5175 2.50373 24.8408 2.50597C30.1277 2.54176 35.4947 1.90137 40.5147 0.167658C40.9435 0.0218746 41.3288 -0.0519774 41.7788 0.0416243C42.0285 0.236578 42.0285 0.236578 42.1688 0.529008C42.2272 1.14241 42.1335 1.47272 41.7483 1.9607C41.7051 2.01817 41.6621 2.07562 41.6175 2.13482C41.0921 2.8253 40.5407 3.52171 39.9267 4.13567C39.955 4.53283 40.2139 4.85529 40.4202 5.18355C40.8897 5.94966 41.2966 6.73585 41.6814 7.54738C41.7293 7.64734 41.7293 7.64734 41.7784 7.74933C43.9252 12.2473 44.8704 17.7644 43.204 22.5707C42.7822 23.7102 42.23 24.8821 41.4038 25.7825C41.2716 25.965 41.2716 25.965 41.2998 26.1858C41.4243 26.5664 41.5858 26.9269 41.7483 27.2926C43.0224 30.2412 43.8129 33.8172 42.6317 36.9124C41.8863 38.5802 40.5423 39.7795 38.8538 40.4491C38.3209 40.6514 37.8231 40.8008 37.2583 40.8907C36.5429 41.0524 36.2383 41.6217 35.848 42.1894C35.2594 43.0105 34.4231 43.5571 33.5907 44.1013C33.6752 44.1938 33.7596 44.2863 33.8465 44.3816C34.6722 45.3497 35.0727 46.2809 35.0955 47.5436C35.0988 47.6589 35.0988 47.6589 35.1021 47.7768C35.1006 48.1445 35.0972 48.3306 34.8731 48.6326C34.5986 48.8255 34.4135 48.8708 34.0781 48.8778C33.8512 48.7669 33.6718 48.6664 33.4932 48.4879C33.4801 48.2809 33.4706 48.0737 33.4628 47.8664C33.408 47.0268 33.2419 46.1715 32.616 45.5635C32.4952 45.4746 32.3734 45.3873 32.2504 45.3016C32.0936 45.19 32.0936 45.19 31.9336 45.0761C31.9336 45.0118 31.9336 44.9475 31.9336 44.8812C31.7728 44.9134 31.6119 44.9455 31.4462 44.9787C31.4958 45.0425 31.5452 45.1063 31.5962 45.1721C32.4462 46.299 33.0739 47.421 33.036 48.861C33.0059 49.0727 33.0059 49.0727 32.8536 49.3224C32.5331 49.5114 32.3059 49.56 31.9336 49.56C31.5892 49.3562 31.4657 49.2389 31.3552 48.8499C31.3389 48.7285 31.3228 48.607 31.3061 48.4818C31.1964 47.7803 30.9547 47.2364 30.5689 46.6357C30.5689 46.898 30.6011 47.0744 30.6664 47.3242C30.8475 48.1282 30.8447 48.9064 30.4714 49.6575C30.3389 49.8258 30.3389 49.8258 30.1791 49.95C29.5131 50.024 29.5131 50.024 29.1791 49.8072C28.9251 49.4377 28.9877 49.118 29.0153 48.6828C29.0422 47.8697 28.9393 47.2532 28.5219 46.5382C28.4708 46.4364 28.4196 46.3346 28.367 46.2296C28.1534 45.9139 28.1534 45.9139 27.775 45.9172C27.6316 45.9303 27.4885 45.9463 27.3457 45.9648C27.187 45.9796 27.0284 45.9939 26.8696 46.0078C26.7882 46.0155 26.7066 46.0233 26.6226 46.0313C26.2353 46.0622 25.8492 46.0642 25.4609 46.0638C25.385 46.064 25.3092 46.0642 25.231 46.0643C24.9978 46.0644 24.7647 46.0638 24.5314 46.0631C24.451 46.063 24.3708 46.0629 24.288 46.0628C23.1301 46.0613 21.9761 46.043 20.8212 45.9535C20.1538 46.988 19.8937 47.718 19.9632 48.9465C19.9845 49.5021 19.9845 49.5021 19.7729 49.8046C19.48 49.9991 19.3025 50.0128 18.9592 49.993C18.7741 49.95 18.7741 49.95 18.5426 49.755C17.9669 48.692 18.2165 47.6622 18.4817 46.5382C17.9379 47.3924 17.9379 47.3925 17.6649 48.358C17.5547 49.1102 17.5547 49.1102 17.2937 49.4382C16.9287 49.6005 16.7187 49.5686 16.3372 49.4627C16.1365 49.3087 16.0598 49.2003 15.9473 48.9753C15.8319 47.4168 16.5942 46.17 17.507 44.9787C17.3461 44.9464 17.1853 44.9143 17.0196 44.8812C16.9874 44.9777 16.9553 45.0742 16.9221 45.1736C16.7557 45.3309 16.7557 45.3309 16.5505 45.4966C15.9796 45.9846 15.6666 46.4693 15.5574 47.2206C15.541 47.5472 15.527 47.8729 15.522 48.1999C15.4599 48.4879 15.4599 48.4879 15.2341 48.7213C14.9726 48.8778 14.9726 48.8778 14.6191 48.8716C14.3049 48.7844 14.1837 48.7461 13.9978 48.4879C13.714 47.9203 13.8389 46.9281 13.9669 46.3186C14.2581 45.4693 14.7779 44.7719 15.3624 44.1013C15.2963 44.0552 15.2303 44.0092 15.1622 43.9617C14.0154 43.1468 13.0285 42.2575 12.2431 41.0795C12.051 40.9968 12.051 40.9968 11.8243 40.947C11.6971 40.9142 11.6971 40.9142 11.5675 40.8807C11.4768 40.8578 11.3861 40.835 11.2928 40.8115C10.0394 40.4739 8.93373 40.0066 7.95419 39.13C7.84317 39.0326 7.84316 39.0326 7.72987 38.9332C6.45406 37.7431 5.85004 36.0639 5.78645 34.3415C5.73747 31.7616 6.32165 29.4661 7.30805 27.0997C7.5551 26.5519 7.5551 26.5519 7.66169 25.9706C7.53305 25.7351 7.53305 25.7351 7.33271 25.5076C5.79204 23.4954 5.03194 20.9212 5.00664 18.4013C5.00519 18.283 5.00519 18.283 5.00374 18.1623C4.9866 16.3787 5.01293 14.6551 5.41977 12.9087C5.44066 12.8181 5.46154 12.7277 5.48307 12.6345C5.63342 12.0033 5.80965 11.3828 6.00463 10.7641C6.03121 10.6797 6.05778 10.5953 6.08516 10.5083C6.73623 8.49279 7.64169 6.3853 8.89202 4.66532C9.04293 4.44467 9.04293 4.44467 9.026 4.22896C8.89145 3.96459 8.71066 3.78659 8.50248 3.57517C6.84023 1.80258 6.84023 1.80258 6.75399 0.88846C6.78444 0.529008 6.78444 0.529008 6.91848 0.242669C7.3068 -0.0623977 7.67021 -0.00734135 8.14919 0.0416243Z" fill="#DC8655"/>
<path d="M21.8669 8.01034C22.8801 8.70886 23.719 9.54647 24.525 10.472C24.5689 10.4129 24.6127 10.3539 24.6579 10.2931C25.9569 8.60091 27.8358 7.22471 29.9837 6.86533C30.3618 6.83638 30.7378 6.8328 31.1169 6.83487C31.2207 6.83535 31.3244 6.83583 31.4313 6.83633C33.2891 6.86389 35.247 7.45737 36.6411 8.73988C38.9723 11.162 39.7182 14.2493 39.6713 17.5254C39.5872 19.9193 38.8915 22.4592 37.197 24.2163C35.6103 25.6099 33.6516 26.2917 31.5434 26.1658C29.7779 25.9325 28.0497 25.1825 26.7788 23.9087C26.5721 23.6314 26.5721 23.6314 26.5389 23.3664C26.5903 23.1132 26.6663 22.8942 26.7669 22.6566C26.9511 21.7539 26.9357 20.8631 26.4715 20.0419C26.1052 19.5507 25.5758 19.3353 25.0124 19.1474C24.1275 19.059 23.5373 19.2527 22.7887 19.7019C22.0994 20.4306 22.134 21.2634 22.1555 22.2138C22.1716 22.5645 22.2319 22.869 22.3379 23.2049C22.4082 23.5014 22.4062 23.589 22.2461 23.8534C20.9241 25.2776 18.9888 26.0299 17.0862 26.1936C15.8303 26.229 14.6331 25.9392 13.5101 25.386C13.4139 25.3391 13.3178 25.2923 13.2187 25.244C11.4062 24.2777 10.4131 22.6183 9.8059 20.7071C9.68886 20.3198 9.59329 19.934 9.51352 19.5374C9.49352 19.444 9.47352 19.3506 9.45295 19.2545C9.11022 17.3424 9.24613 15.3694 9.7084 13.4938C9.73659 13.3702 9.76477 13.2464 9.79374 13.1191C10.3094 11.0749 11.5692 9.13886 13.3577 7.99853C16.0461 6.44458 19.2049 6.37725 21.8669 8.01034Z" fill="#FEE8C7"/>
<path d="M11.7558 29.2834C12.1677 29.4116 12.5572 29.5695 12.9512 29.7431C15.452 30.839 18.1136 31.3549 20.821 31.623C20.913 31.6323 21.0048 31.6417 21.0994 31.6514C22.1122 31.7429 23.1255 31.7399 24.1414 31.7387C24.2364 31.7385 24.3314 31.7385 24.4292 31.7384C28.5288 31.7299 32.9585 31.4095 36.6528 29.4488C37.0023 29.2834 37.0023 29.2834 37.2947 29.3809C37.6781 30.2266 37.8032 31.1989 37.9455 32.11C37.9732 32.2812 38.0054 32.4515 38.0384 32.6217C38.5612 35.5498 38.1503 38.8442 36.5149 41.3706C36.2425 41.7485 35.9512 42.0987 35.6377 42.4429C35.5769 42.5117 35.516 42.5804 35.4533 42.6512C34.9068 43.2356 34.2552 43.6625 33.5906 44.1001C33.6751 44.1926 33.7595 44.2849 33.8465 44.3803C34.6721 45.3483 35.0725 46.2795 35.0954 47.5422C35.0987 47.6577 35.0987 47.6577 35.102 47.7754C35.1005 48.1432 35.0971 48.3294 34.873 48.6312C34.5985 48.8242 34.4133 48.8696 34.078 48.8764C33.8512 48.7655 33.6716 48.665 33.4931 48.4865C33.4801 48.2796 33.4705 48.0723 33.4627 47.865C33.4079 47.0254 33.2418 46.1702 32.6159 45.5622C32.4952 45.4732 32.3732 45.3861 32.2503 45.3002C32.1457 45.2259 32.0412 45.1514 31.9335 45.0748C31.9335 45.0105 31.9335 44.9461 31.9335 44.8798C31.7727 44.912 31.6118 44.9441 31.4461 44.9773C31.4956 45.0412 31.5452 45.1049 31.5961 45.1707C32.4461 46.2977 33.0738 47.4196 33.0359 48.8597C33.0057 49.0714 33.0057 49.0714 32.8535 49.3212C32.533 49.5101 32.3059 49.5588 31.9335 49.5588C31.5892 49.3549 31.4656 49.2376 31.3551 48.8487C31.3308 48.6664 31.3308 48.6664 31.306 48.4804C31.1963 47.779 30.9547 47.235 30.5688 46.6345C30.5688 46.8966 30.601 47.073 30.6663 47.3229C30.8475 48.1269 30.8446 48.905 30.4713 49.6563C30.3388 49.8246 30.3388 49.8246 30.1789 49.9487C29.5131 50.0226 29.5131 50.0226 29.1791 49.8058C28.925 49.4363 28.9876 49.1166 29.0153 48.6815C29.0421 47.8685 28.9392 47.252 28.5218 46.537C28.4707 46.4352 28.4196 46.3332 28.3669 46.2283C28.1533 45.9127 28.1533 45.9127 27.7749 45.9158C27.6315 45.9289 27.4884 45.9451 27.3455 45.9636C27.1869 45.9782 27.0283 45.9926 26.8695 46.0064C26.788 46.0143 26.7065 46.022 26.6225 46.0299C26.2352 46.061 25.8491 46.0628 25.4608 46.0626C25.3849 46.0627 25.3091 46.0628 25.2309 46.063C24.9977 46.0631 24.7645 46.0624 24.5314 46.0618C24.451 46.0616 24.3707 46.0616 24.2878 46.0615C23.13 46.0601 21.976 46.0416 20.821 45.9521C20.1538 46.9866 19.8937 47.7166 19.9631 48.9451C19.9843 49.5008 19.9843 49.5008 19.7729 49.8032C19.4799 49.9978 19.3024 50.0115 18.9591 49.9917C18.774 49.9487 18.774 49.9487 18.5425 49.7537C17.9667 48.6907 18.2164 47.6608 18.4816 46.537C17.9379 47.3912 17.9379 47.3912 17.6649 48.3566C17.5546 49.1089 17.5546 49.1089 17.2937 49.437C16.9286 49.5991 16.7186 49.5673 16.3371 49.4613C16.1364 49.3074 16.0597 49.1989 15.9472 48.9739C15.8318 47.4155 16.5941 46.1687 17.5069 44.9773C17.3461 44.9452 17.1852 44.913 17.0195 44.8798C16.9873 44.9763 16.9552 45.0729 16.922 45.1723C16.7556 45.3295 16.7556 45.3295 16.5504 45.4952C15.9796 45.9832 15.6665 46.468 15.5573 47.2193C15.5408 47.546 15.527 47.8716 15.5219 48.1987C15.4598 48.4865 15.4598 48.4865 15.234 48.7199C14.9724 48.8764 14.9724 48.8764 14.6191 48.8704C14.3049 48.783 14.1836 48.7447 13.9977 48.4865C13.7139 47.919 13.8388 46.9268 13.9669 46.3172C14.258 45.4679 14.7778 44.7705 15.3623 44.1001C15.2632 44.0309 15.2632 44.0309 15.1621 43.9603C12.7869 42.2726 11.4701 40.1829 10.9347 37.3227C10.9162 37.211 10.8976 37.0993 10.8784 36.9842C10.8604 36.8822 10.8425 36.7801 10.8239 36.675C10.5436 34.2432 10.8789 31.6956 11.6583 29.3809C11.6904 29.3488 11.7226 29.3166 11.7558 29.2834Z" fill="#AA5C2C"/>
<path d="M7.75917 26.0696C8.15712 26.3983 8.51996 26.7356 8.87405 27.1114C9.7095 27.9583 10.7492 28.5662 11.7557 29.1889C11.7321 29.2777 11.7085 29.3665 11.6841 29.4581C11.4806 30.2389 11.3043 31.0221 11.1526 31.8147C11.1282 31.9408 11.1282 31.9408 11.1034 32.0694C10.5702 34.9153 10.7364 37.9878 12.1323 40.5686C12.2431 40.7887 12.2431 40.7887 12.2431 40.9836C10.7019 40.8893 9.10098 40.1431 7.95417 39.1315C7.87985 39.0664 7.80553 39.0013 7.72906 38.9343C6.45417 37.7433 5.84999 36.0657 5.78639 34.3429C5.73161 31.4583 6.44421 28.6415 7.75917 26.0696Z" fill="#DC8757"/>
<path d="M9.31908 15.5405C9.35124 15.5405 9.3834 15.5405 9.41658 15.5405C9.42533 15.5938 9.43408 15.6471 9.44306 15.7021C9.77067 17.6554 10.2369 19.5639 11.5611 21.0967C11.6169 21.1629 11.6726 21.2291 11.7301 21.2974C12.632 22.2859 14.2846 23.1779 15.63 23.257C15.9632 23.2614 16.2965 23.2641 16.6298 23.2656C16.7438 23.2676 16.8578 23.2696 16.9753 23.2716C18.7481 23.2796 20.2145 22.6496 21.6013 21.5841C21.6574 21.5271 21.7136 21.47 21.7714 21.4112C21.8937 21.2916 21.8937 21.2916 22.0887 21.2916C22.0934 21.3789 22.0982 21.4661 22.1031 21.5559C22.114 21.7328 22.114 21.7328 22.1251 21.9131C22.1328 22.0379 22.1403 22.1626 22.148 22.2912C22.1814 22.6114 22.2465 22.8701 22.3445 23.1742C22.4093 23.4795 22.409 23.5846 22.2463 23.855C20.9186 25.2758 18.9927 26.0292 17.0868 26.1933C15.8309 26.2288 14.6337 25.9389 13.5106 25.3857C13.4145 25.3389 13.3184 25.2919 13.2193 25.2437C11.4068 24.2775 10.4135 22.618 9.80647 20.7067C9.68942 20.3195 9.59374 19.9337 9.51408 19.5371C9.48408 19.397 9.48408 19.397 9.45351 19.2541C9.23431 18.0312 9.3017 16.7779 9.31908 15.5405Z" fill="#FEDBA6"/>
<path d="M39.5363 15.4429C39.5686 15.4429 39.6008 15.4429 39.6338 15.4429C39.739 18.4422 39.4741 21.5761 37.4449 23.9588C36.1484 25.303 34.3713 26.0597 32.5181 26.1852C30.4365 26.2177 28.459 25.4466 26.9177 24.0455C26.7112 23.8365 26.5806 23.6879 26.5354 23.3934C26.5842 23.1619 26.5841 23.1619 26.6694 22.9262C26.7905 22.5908 26.8311 22.2664 26.8765 21.9129C26.8929 21.7951 26.9093 21.6773 26.9261 21.5558C26.9379 21.4686 26.9497 21.3814 26.9619 21.2916C27.0023 21.3248 27.0428 21.3579 27.0845 21.392C28.58 22.5685 30.168 23.2568 32.0733 23.2716C32.25 23.2758 32.25 23.2758 32.4302 23.2801C33.5707 23.2881 34.5608 22.9993 35.5703 22.4795C35.6359 22.4465 35.7016 22.4134 35.7693 22.3792C36.2219 22.1429 36.6026 21.8747 36.9647 21.5109C37.0994 21.3891 37.0994 21.3891 37.2944 21.3891C37.3211 21.3315 37.348 21.274 37.3756 21.2147C37.4847 21.008 37.6029 20.8498 37.7514 20.6701C38.9232 19.1286 39.2419 17.3052 39.5363 15.4429Z" fill="#FEDBA6"/>
<path d="M26.0605 19.5473C26.5427 19.9028 26.7663 20.3876 26.9379 20.9451C27.0612 22.2094 26.8018 23.5971 25.9875 24.6067C25.5534 25.055 25.135 25.4412 24.501 25.5266C23.8152 25.4466 23.3284 25.0403 22.9051 24.5111C22.1254 23.3692 21.9445 22.1577 22.0884 20.805C22.2582 20.1481 22.6013 19.7248 23.1644 19.3543C24.14 18.7985 25.1462 18.9738 26.0605 19.5473Z" fill="#FE9A01"/>
<path d="M33.0424 13.5925C33.7163 14.0052 34.1022 14.5521 34.4067 15.2717C34.5812 16.3188 34.5152 17.2628 33.9524 18.1812C33.5216 18.7465 32.9565 19.002 32.2622 19.0977C31.5653 18.9945 31.1761 18.6169 30.7223 18.1123C30.1732 17.2805 30.1446 16.3093 30.2761 15.3449C30.4892 14.6206 30.834 14.1066 31.4622 13.6866C31.9626 13.4167 32.5178 13.3668 33.0424 13.5925Z" fill="#454144"/>
<path d="M17.7381 13.8398C18.2863 14.3211 18.6665 15.0307 18.7167 15.7559C18.748 16.7261 18.7276 17.5731 18.0923 18.366C17.6489 18.7567 17.207 19.0204 16.6118 19.0788C16.071 19.0345 15.6755 18.8773 15.2913 18.4863C14.5446 17.5475 14.4773 16.5993 14.5831 15.4417C14.7352 14.6884 15.1552 14.1199 15.7741 13.6852C16.3841 13.3494 17.165 13.4759 17.7381 13.8398Z" fill="#444044"/>
<path d="M5.90768 32.4039C5.93985 32.4039 5.97202 32.4039 6.00516 32.4039C6.04059 32.547 6.04059 32.547 6.07675 32.693C6.40669 33.9964 6.83076 35.1794 7.85724 36.1081C7.90747 36.1587 7.95781 36.2094 8.00951 36.2615C8.7436 36.9655 9.69711 37.4486 10.6597 37.7591C11.0401 37.9055 11.0401 37.9055 11.1776 38.127C11.2446 38.3318 11.2446 38.3318 11.2979 38.5606C11.3863 38.9179 11.5211 39.2525 11.6588 39.5929C11.6832 39.6551 11.7076 39.7173 11.7327 39.7813C11.8752 40.1389 12.0451 40.4583 12.2437 40.7871C12.2437 40.8514 12.2437 40.9157 12.2437 40.9819C10.7024 40.8876 9.10155 40.1415 7.95474 39.1299C7.88042 39.0648 7.80622 38.9997 7.72963 38.9326C6.58893 37.867 5.96297 36.386 5.8102 34.8408C5.79715 34.4387 5.79658 34.037 5.79802 33.6346C5.79765 33.5269 5.79726 33.4193 5.79688 33.3082C5.797 33.2061 5.79713 33.1039 5.79726 32.9987C5.79736 32.9055 5.79748 32.8125 5.79759 32.7164C5.8102 32.5014 5.8102 32.5014 5.90768 32.4039Z" fill="#D97F4A"/>
<path d="M42.9489 32.5992C43.0133 32.5992 43.0777 32.5992 43.1439 32.5992C43.2029 35.0535 42.9861 37.0813 41.2309 38.9475C40.1177 40.017 38.3003 40.9823 36.7104 40.9823C36.8836 40.541 37.0717 40.1068 37.2673 39.6751C37.395 39.3856 37.4921 39.1201 37.55 38.8085C37.6149 38.4613 37.6746 38.2505 37.8801 37.9605C38.3109 37.6884 38.7953 37.5291 39.2719 37.3558C39.8219 37.1556 40.2561 36.8686 40.707 36.4983C40.773 36.4501 40.8392 36.4018 40.9072 36.3522C42.0434 35.468 42.7011 33.9859 42.9489 32.5992Z" fill="#D97F4A"/>
<path d="M31.5439 45.1715C32.4116 45.9604 32.9216 47.2053 33.0303 48.3528C33.0483 48.7375 33.0569 48.987 32.8536 49.3203C32.5333 49.5093 32.306 49.5579 31.9338 49.5579C31.5893 49.3541 31.4659 49.2368 31.3554 48.8478C31.331 48.6655 31.331 48.6655 31.3063 48.4796C31.1966 47.7782 30.9549 47.2343 30.5691 46.6336C30.5691 46.8959 30.6013 47.0721 30.6665 47.322C30.8476 48.1261 30.8449 48.9043 30.4716 49.6554C30.3391 49.8237 30.3391 49.8237 30.1791 49.9478C29.5133 50.0218 29.5133 50.0218 29.1792 49.8051C28.9253 49.4355 28.9879 49.1159 29.0155 48.6807C29.0513 47.6 28.7554 46.8284 28.1321 45.9512C28.1321 45.8869 28.1321 45.8226 28.1321 45.7564C28.2495 45.7306 28.2495 45.7306 28.3691 45.7042C28.7226 45.6262 29.0763 45.5482 29.4298 45.47C29.5529 45.4429 29.6759 45.4158 29.8028 45.3879C29.9795 45.3489 29.9795 45.3489 30.1597 45.309C30.2684 45.2849 30.3772 45.2609 30.4892 45.2362C31.2113 45.0661 31.2113 45.0661 31.5439 45.1715Z" fill="#FEA811"/>
<path d="M17.8094 45.0837C17.9368 45.1112 18.0635 45.1417 18.1897 45.1739C18.3071 45.2005 18.3071 45.2005 18.427 45.2277C18.6918 45.2885 18.9555 45.3527 19.2194 45.4176C20.0152 45.6137 20.0152 45.6137 20.8216 45.7588C20.7282 46.0856 20.6316 46.3364 20.4378 46.6178C19.9447 47.3798 19.9132 48.0594 19.9637 48.9466C19.9848 49.5025 19.9848 49.5025 19.7733 49.8048C19.4805 49.9995 19.303 50.0131 18.9596 49.9933C18.7746 49.9503 18.7746 49.9503 18.5431 49.7554C17.9672 48.6923 18.217 47.6626 18.4821 46.5386C17.9384 47.3928 17.9384 47.3928 17.6654 48.3583C17.5551 49.1105 17.5551 49.1105 17.2942 49.4386C16.9292 49.6007 16.7192 49.5689 16.3377 49.4629C16.1369 49.309 16.0603 49.2006 15.9478 48.9755C15.8422 47.551 16.4758 46.3647 17.2873 45.2459C17.5073 45.0764 17.5073 45.0764 17.8094 45.0837Z" fill="#FEA811"/>
<path d="M25.4823 19.2121C26.0239 19.4873 26.5294 19.8315 26.7677 20.4123C26.6897 20.5928 26.6897 20.5928 26.5727 20.8022C26.5392 20.8772 26.5057 20.9522 26.4711 21.0295C26.1443 21.7377 25.7625 22.2093 25.1229 22.6543C24.5823 22.8272 24.1314 22.7514 23.6301 22.4959C23.0178 21.9787 22.6693 21.4521 22.3813 20.7047C22.317 20.7047 22.2526 20.7047 22.1863 20.7047C22.3321 20.1483 22.57 19.7187 23.0635 19.4151C23.846 19.0167 24.6448 18.8595 25.4823 19.2121Z" fill="#FEA813"/>
<path d="M15.4596 44.1005C16.0138 44.2609 16.5092 44.5186 17.0193 44.7828C16.966 45.147 16.8346 45.2769 16.5502 45.5017C15.9762 45.9852 15.6662 46.4693 15.5571 47.2198C15.5406 47.5464 15.5267 47.872 15.5217 48.1991C15.4596 48.4869 15.4596 48.4869 15.2338 48.7203C14.9722 48.8768 14.9722 48.8768 14.6188 48.8708C14.3046 48.7835 14.1834 48.7451 13.9975 48.4869C13.7137 47.9194 13.8386 46.9272 13.9666 46.3177C14.2691 45.4352 14.7811 44.7305 15.4596 44.1005Z" fill="#FEA811"/>
<path d="M33.514 44.1524C34.3046 44.7949 34.8363 45.6353 35.0534 46.6338C35.0787 46.926 35.0803 47.218 35.0838 47.5111C35.0867 47.5897 35.0895 47.6685 35.0925 47.7495C35.0986 48.3268 35.0986 48.3268 34.8744 48.6325C34.5992 48.8228 34.4132 48.8689 34.0786 48.8759C33.8518 48.765 33.6724 48.6644 33.4937 48.4859C33.4807 48.2789 33.4712 48.0718 33.4633 47.8645C33.4085 47.0247 33.2424 46.1696 32.6165 45.5616C32.437 45.4329 32.2568 45.3094 32.0696 45.1923C32.025 45.1533 31.9802 45.1143 31.9341 45.0742C31.9341 44.9777 31.9341 44.8812 31.9341 44.7818C32.1526 44.662 32.3718 44.5446 32.5921 44.4284C32.6849 44.3771 32.6849 44.3771 32.7794 44.3249C33.24 44.085 33.24 44.085 33.514 44.1524Z" fill="#FEA811"/>
</g>
<defs>
<clipPath id="clip0_1_2877">
<rect width="50" height="50" fill="white"/>
</clipPath>
</defs>
</svg>
