<svg width="50" height="50" viewBox="0 0 50 50" fill="none" xmlns="http://www.w3.org/2000/svg">
<path d="M33.8953 3.38241C34.7163 4.15145 35.3105 5.09386 35.7627 6.11556C35.791 6.17949 35.8193 6.2434 35.8485 6.30927C36.2418 7.24653 36.3197 8.20653 36.3913 9.21014C36.4085 9.44968 36.4265 9.68906 36.4448 9.92843C36.4966 10.6087 36.5469 11.2891 36.5965 11.9695C36.886 15.9244 37.4583 19.6496 39.0335 23.318C40.5553 26.8635 41.9421 30.6599 41.9301 34.5622C41.9299 34.6322 41.9298 34.7022 41.9297 34.7743C41.9248 35.9585 41.8255 37.0736 41.4909 38.2137C41.4677 38.2943 41.4445 38.3748 41.4207 38.4578C40.7345 40.7691 39.5435 42.8514 37.8946 44.6054C37.7244 44.7875 37.5665 44.9699 37.4127 45.1654C35.5588 47.3121 32.7122 48.6708 30.0344 49.438C29.9395 49.4656 29.9395 49.4656 29.8427 49.4936C28.3944 49.8813 26.9601 50.0084 25.4663 49.998C25.1917 49.9964 24.9172 49.998 24.6427 50C20.4463 50.005 16.4012 48.605 13.3004 45.7414C13.1251 45.5813 12.9481 45.4314 12.7619 45.2846C10.7395 43.5319 9.26538 40.7622 8.56461 38.2137C8.54492 38.1447 8.52523 38.0757 8.50495 38.0046C7.85176 35.6258 8.01625 32.966 8.56461 30.5845C8.58777 30.4834 8.61093 30.3825 8.63479 30.2784C9.22152 27.7993 10.1256 25.4266 11.1056 23.0806C11.591 21.9175 12.0664 20.7657 12.3792 19.5421C12.4045 19.4433 12.4298 19.3446 12.4558 19.2428C12.54 18.9061 12.6203 18.5687 12.6992 18.2308C12.7232 18.1307 12.747 18.0306 12.7717 17.9275C13.1575 16.1862 13.2787 14.3894 13.4078 12.6144C13.4128 12.546 13.4178 12.4777 13.4229 12.4073C13.4687 11.7756 13.5137 11.144 13.5564 10.5122C13.5803 10.1608 13.6055 9.80958 13.6316 9.45843C13.6456 9.26576 13.658 9.07298 13.6704 8.8802C13.823 6.85361 14.5246 5.18711 15.8927 3.68122C15.9468 3.61898 16.0009 3.55673 16.0566 3.4926C17.5128 1.91575 19.5953 1.04018 21.6146 0.468884C21.7165 0.43953 21.7165 0.43953 21.8204 0.409582C26.0199 -0.733459 30.6809 0.59802 33.8953 3.38241Z" fill="#FD8088"/>
<path d="M12.8001 19.4174C13.43 19.4587 13.7495 19.6944 14.1741 20.1389C14.6446 20.6255 15.0709 20.9089 15.7489 20.9921C16.4854 20.8984 16.8984 20.5915 17.4292 20.0974C17.5997 19.9444 17.5997 19.9444 17.8005 19.844C17.8092 19.9266 17.8178 20.0091 17.8268 20.0942C17.9435 21.0221 18.1305 21.8456 18.842 22.498C20.0977 23.4525 21.9173 23.3389 23.4221 23.4579C23.1511 27.8214 22.4657 32.4612 20.5109 36.4076C20.4789 36.4739 20.4468 36.5402 20.4138 36.6085C19.5107 38.4631 18.2943 39.9333 16.3951 40.8245C14.8879 41.3419 13.5894 41.1591 12.1601 40.4983C10.3795 39.5518 8.88221 37.793 8.26746 35.8626C7.18786 31.7334 9.62209 26.6146 11.1979 22.8627C11.614 21.8718 11.9902 20.884 12.2876 19.8499C12.4081 19.4481 12.4081 19.4481 12.8001 19.4174Z" fill="#EA3642"/>
<path d="M37.4758 19.34C37.7103 19.5743 37.7511 19.7288 37.848 20.0438C37.8813 20.1493 37.9147 20.2549 37.949 20.3636C37.9855 20.4792 38.0218 20.5949 38.0593 20.714C38.3725 21.6845 38.7249 22.6245 39.131 23.56C40.2536 26.1466 41.1557 28.8152 41.6921 31.5869C41.7184 31.716 41.7448 31.845 41.7721 31.9779C42.1151 33.9323 42.0574 35.877 40.9552 37.5767C39.7963 39.2046 38.3302 40.654 36.2963 41.0608C34.7311 41.2799 33.3775 40.877 32.1013 39.9307C27.8756 36.3439 27.1825 29.3252 26.6539 24.2141C26.6345 23.9602 26.6307 23.7103 26.6342 23.4558C26.7327 23.449 26.7327 23.449 26.8331 23.4422C29.378 23.3634 29.378 23.3634 31.528 22.1822C32.0522 21.4898 32.2197 20.6928 32.2558 19.8419C32.2996 19.8807 32.3433 19.9195 32.3884 19.9595C33.0749 20.5599 33.6132 21.0095 34.5647 20.9461C35.295 20.7204 35.7701 20.2273 36.3152 19.7102C36.669 19.4772 37.0511 19.3616 37.4758 19.34Z" fill="#EA3542"/>
<path d="M29.1448 4.78674C30.8023 6.0892 31.9787 8.1004 32.2567 10.2075C32.3923 12.7325 31.8959 15.1048 30.2176 17.0588C29.0044 18.3363 27.435 19.3402 25.6313 19.443C25.5302 19.4494 25.4291 19.456 25.3251 19.4626C23.5075 19.5243 21.8136 18.9256 20.4678 17.6988C18.9072 16.2046 17.8681 14.1902 17.7569 12.007C17.7063 9.53827 18.407 7.33083 20.1101 5.48944C22.5683 2.95987 26.3159 2.76304 29.1448 4.78674Z" fill="#FEBCA0"/>
<path d="M41.7925 35.2987C41.8256 35.2987 41.8587 35.2987 41.8929 35.2987C41.9778 38.7059 40.1797 42.1712 37.8951 44.6016C37.725 44.7837 37.567 44.9661 37.4132 45.1616C35.5592 47.3083 32.7127 48.6669 30.0349 49.4342C29.94 49.4617 29.94 49.4617 29.8431 49.4898C28.3949 49.8776 26.9605 50.0046 25.4667 49.9942C25.1921 49.9927 24.9177 49.9942 24.6431 49.9961C20.4467 50.0012 16.4016 48.6011 13.3008 45.7377C13.1255 45.5775 12.9486 45.4277 12.7624 45.2808C10.4513 43.2779 8.9391 40.1026 8.3329 37.1621C8.31566 37.0789 8.29842 36.9958 8.28065 36.9101C8.18165 36.3974 8.14731 35.9212 8.1635 35.3991C8.36478 35.701 8.46379 35.9616 8.58387 36.3026C9.26183 38.0835 10.6702 39.6602 12.3796 40.5188C13.7292 41.0872 14.865 41.0993 16.2946 40.82C16.3299 40.938 16.3651 41.0559 16.4013 41.1776C16.6405 41.8109 17.0603 42.1981 17.6499 42.5139C18.0032 42.6275 18.3352 42.6896 18.7039 42.7272C18.7004 42.8121 18.6969 42.897 18.6933 42.9844C18.6733 43.8221 18.6778 44.4461 19.2373 45.1114C19.8968 45.6636 20.369 45.8735 21.2202 45.869C21.669 45.8236 22.0264 45.652 22.4182 45.4377C22.4844 45.4045 22.5507 45.3714 22.6189 45.3372C22.6398 45.4088 22.6606 45.4804 22.682 45.5541C22.9534 46.3976 23.2867 46.884 24.0494 47.3387C24.8025 47.552 25.5206 47.5432 26.2257 47.183C26.9124 46.7231 27.2455 46.1267 27.4374 45.3372C27.4959 45.3735 27.5543 45.4097 27.6146 45.447C28.3566 45.867 29.0402 46.0053 29.876 45.776C30.507 45.5039 31.0061 44.9811 31.2709 44.3507C31.3603 44.0013 31.3724 43.702 31.365 43.3421C31.3632 43.2264 31.3613 43.1107 31.3594 42.9915C31.3571 42.9043 31.3549 42.8171 31.3525 42.7272C31.4324 42.7102 31.5124 42.6931 31.5947 42.6755C32.3936 42.4928 32.975 42.3337 33.4416 41.623C33.6015 41.3581 33.6987 41.1231 33.7616 40.82C33.8309 40.8344 33.9001 40.8489 33.9714 40.8638C35.6067 41.1868 37.0803 40.9396 38.4976 40.0421C40.1316 38.9193 41.3089 37.2157 41.7925 35.2987Z" fill="#456BBA"/>
<path d="M24.828 20.2433C24.9605 20.2433 25.0931 20.2433 25.2295 20.2433C25.2478 20.3453 25.2661 20.4472 25.2848 20.5522C25.3103 20.6919 25.3358 20.8315 25.3613 20.9711C25.3791 21.0709 25.3791 21.0709 25.3971 21.1727C25.4547 21.4857 25.5141 21.7928 25.6036 22.0986C25.8691 23.0175 25.9061 23.9312 25.9545 24.8807C26.0344 26.4118 26.1484 27.931 26.3776 29.4473C26.4068 29.6423 26.4068 29.6423 26.4365 29.8413C26.6938 31.4652 27.0759 33.0288 27.6011 34.5858C27.6273 34.664 27.6535 34.7422 27.6805 34.8229C28.2601 36.5464 28.974 38.1416 30.0481 39.6177C30.1701 39.5948 30.2923 39.572 30.4182 39.5486C30.7385 39.5078 30.8396 39.5121 31.146 39.649C31.3531 39.8184 31.3531 39.8184 31.4534 40.0192C31.469 40.3769 31.4468 40.6789 31.3531 41.023C31.4437 41.0847 31.5344 41.1465 31.6279 41.2101C31.7475 41.292 31.8671 41.374 31.9867 41.4559C32.0464 41.4965 32.1062 41.537 32.1676 41.5789C32.4548 41.7762 32.7259 41.9673 32.9592 42.2277C32.445 42.6471 32.008 42.7037 31.3531 42.7295C31.3862 42.7958 31.4193 42.862 31.4534 42.9304C31.4631 43.112 31.4664 43.2942 31.466 43.4762C31.4663 43.6219 31.4663 43.6219 31.4667 43.7707C31.4534 44.0345 31.4534 44.0345 31.3531 44.3358C30.823 44.2032 30.293 44.0707 29.7468 43.9342C29.7468 43.7023 29.7468 43.4704 29.7468 43.2315C29.5684 42.8918 29.5684 42.8918 29.1696 42.8299C28.966 42.7796 28.966 42.7796 28.7431 42.8299C28.5241 42.9824 28.3385 43.1511 28.1407 43.3319C27.9164 43.2389 27.6928 43.1447 27.4694 43.0495C27.3983 43.0194 27.3272 42.9892 27.2539 42.9582C26.826 42.7717 26.4169 42.5681 26.0114 42.3366C25.039 41.7844 24.3712 41.4171 23.2332 41.5105C22.7753 41.5317 22.4712 41.4079 22.1176 41.1234C21.6573 40.6904 21.4231 40.2692 21.4023 39.6364C21.4065 39.5309 21.4107 39.4253 21.4149 39.3165C21.3569 39.2916 21.299 39.2668 21.2392 39.2412C20.9832 39.0989 20.8146 38.9238 20.6118 38.7141C20.6436 38.6573 20.6754 38.6006 20.7081 38.542C22.4956 35.3139 23.3673 31.9215 23.8241 28.2741C23.8354 28.1896 23.8466 28.1053 23.8582 28.0183C23.9607 27.243 24.0266 26.4766 24.0379 25.6943C24.0625 24.0897 24.2495 22.644 24.6645 21.0931C24.7362 20.8118 24.7886 20.5308 24.828 20.2433Z" fill="#FEB2B6"/>
<path d="M33.8962 3.38241C34.7171 4.15145 35.3114 5.09386 35.7636 6.11556C35.7919 6.17949 35.8202 6.2434 35.8494 6.30927C36.2512 7.26667 36.3204 8.22983 36.3847 9.25887C36.3934 9.38885 36.402 9.51885 36.411 9.65281C36.4321 9.97104 36.4526 10.2894 36.4725 10.6078C35.3987 10.6494 34.5087 10.15 33.5927 9.64156C33.5229 9.60302 33.453 9.56448 33.3812 9.52479C32.996 9.30439 32.732 9.14474 32.5971 8.70165C32.5681 8.58616 32.5681 8.58616 32.5387 8.46834C31.9764 6.53986 30.6479 4.75464 28.917 3.73024C27.1061 2.74458 25.1772 2.35284 23.1464 2.82167C21.7117 3.27109 20.5437 4.00949 19.5074 5.08661C19.4336 5.15973 19.3597 5.23283 19.2836 5.30816C18.4076 6.22135 17.6601 7.52449 17.4308 8.77577C17.1061 9.57979 16.006 9.91187 15.256 10.2549C14.6812 10.4936 14.2063 10.619 13.5847 10.6078C13.7244 7.8965 14.0183 5.74546 15.8936 3.68122C15.9477 3.61898 16.0018 3.55673 16.0575 3.4926C17.5136 1.91575 19.5962 1.04018 21.6155 0.468884C21.6835 0.449322 21.7513 0.429749 21.8213 0.409582C26.0208 -0.733459 30.6818 0.59802 33.8962 3.38241Z" fill="#5586CF"/>
<path d="M11.5766 22.1517C11.6098 22.1517 11.6429 22.1517 11.6771 22.1517C11.6847 22.2139 11.6922 22.2761 11.7 22.3402C11.7353 22.6267 11.7721 22.9131 11.8088 23.1995C11.8265 23.3462 11.8265 23.3462 11.8447 23.4958C11.9157 24.0399 12.0182 24.5382 12.2044 25.0544C12.276 25.2542 12.3368 25.4538 12.3938 25.6582C12.6431 26.5449 12.931 27.4078 13.2596 28.2683C13.484 28.8587 13.484 28.8587 13.484 29.0783C13.4258 29.0882 13.3676 29.098 13.3076 29.1082C12.6729 29.2296 12.2028 29.3929 11.7904 29.9214C11.4808 30.4015 11.2989 30.9427 11.0999 31.4751C11.0586 31.5805 11.0173 31.686 10.9748 31.7946C10.704 32.5134 10.5157 33.0902 10.805 33.8341C11.3953 34.7487 12.4407 35.4359 13.2832 36.1053C13.3569 36.1645 13.4305 36.2238 13.5063 36.2849C13.5735 36.3375 13.6407 36.39 13.7099 36.4441C13.7663 36.4884 13.8227 36.5326 13.8808 36.5782C14.6873 37.0861 15.4769 37.0912 16.3952 37.0088C16.9819 36.8639 17.4564 36.6205 17.9009 36.2057C18.3179 36.3658 18.5761 36.6717 18.8672 36.9962C18.9163 37.0494 18.9655 37.1026 19.0161 37.1574C19.2602 37.4261 19.4688 37.6751 19.6075 38.0127C18.6559 39.4346 17.419 40.5933 15.7238 41.0242C14.2631 41.2944 12.9474 40.9982 11.6771 40.2211C10.0584 39.0853 8.55237 37.4044 8.1636 35.4026C7.65811 31.044 9.63863 26.1421 11.4763 22.2521C11.5095 22.219 11.5426 22.1859 11.5766 22.1517Z" fill="#CC302B"/>
<path d="M30.8502 17.4357C31.1909 17.7489 31.4242 18.0832 31.6658 18.4771C31.7343 18.5876 31.8029 18.6982 31.8736 18.812C32.2947 19.5794 32.4044 20.3156 32.1677 21.1633C31.8481 22.0023 31.4392 22.5881 30.6242 22.9882C29.3712 23.4835 27.9611 23.4668 26.6339 23.4588C27.4032 30.1245 27.4032 30.1245 29.6455 36.4085C29.6952 36.5102 29.6952 36.5102 29.7459 36.6142C30.1618 37.4596 30.6326 38.2031 31.2516 38.9181C31.3283 39.0216 31.4049 39.1251 31.4838 39.2318C32.1212 39.9137 32.9357 40.4014 33.7613 40.8255C33.7193 41.3986 33.5028 41.6897 33.159 42.1305C32.6854 42.0788 32.3586 41.8601 31.9794 41.5909C31.9203 41.5508 31.8612 41.5106 31.8003 41.4693C31.3649 41.165 31.3649 41.165 31.2516 40.8255C31.2848 40.7591 31.3179 40.6928 31.3521 40.6246C31.378 40.218 31.3826 40.0682 31.1513 39.7212C30.9648 39.6593 30.9648 39.6593 30.756 39.6459C30.6868 39.6382 30.6176 39.6303 30.5462 39.6223C30.3266 39.6099 30.3266 39.6099 30.0471 39.7212C28.1072 37.0342 27.0177 33.7785 26.474 30.5268C26.4456 30.3585 26.4162 30.1904 26.3861 30.0222C26.0887 28.3464 25.9669 26.6825 25.8704 24.986C25.7953 23.697 25.6816 22.4789 25.3278 21.2318C25.2374 20.8828 25.2076 20.6043 25.2286 20.2464C25.3306 20.2293 25.4325 20.2122 25.5376 20.1946C27.5367 19.8483 29.1024 19.1788 30.549 17.7368C30.6402 17.646 30.6402 17.646 30.7333 17.5533C30.7911 17.495 30.7911 17.495 30.8502 17.4357Z" fill="#F1C173"/>
<path d="M32.8586 9.20007C32.9595 9.25222 33.0603 9.30437 33.1642 9.3581C34.7514 10.1749 34.7514 10.1749 36.4725 10.6055C36.4826 10.7352 36.4926 10.865 36.503 10.9988C36.7583 14.4322 36.7583 14.4322 37.2756 17.8332C37.291 17.9143 37.3064 17.9955 37.3224 18.0791C37.4027 18.5 37.4868 18.9199 37.5768 19.339C37.4669 19.3697 37.357 19.4006 37.2438 19.4323C36.5426 19.6361 36.1562 19.9389 35.658 20.4562C35.2252 20.8855 34.8292 21.0201 34.2389 21.0769C33.4217 21.0088 32.9062 20.5626 32.3524 19.9824C32.1213 19.6979 31.9929 19.4324 31.8661 19.0912C31.6679 18.6404 31.3706 18.2405 31.0933 17.8347C30.9513 17.532 30.9513 17.532 31.0125 17.2654C31.1388 17.0524 31.2684 16.8526 31.4156 16.6537C32.9635 14.3545 33.1334 11.8888 32.8586 9.20007Z" fill="#EBEAEA"/>
<path d="M17.199 9.20007C17.1753 9.38879 17.1753 9.38879 17.1512 9.58119C16.8617 12.2206 17.2738 14.7234 18.8051 16.9297C18.866 16.996 18.9268 17.0622 18.9895 17.1305C19.1063 17.3313 19.1063 17.3313 19.0495 17.5673C18.8196 17.9919 18.5601 18.395 18.3005 18.8018C18.0939 19.135 18.0939 19.135 17.9507 19.5044C17.6735 20.1287 17.1154 20.6527 16.4963 20.9451C16 21.1271 15.4856 21.1127 15.003 20.9012C14.5588 20.6622 14.2405 20.3141 13.904 19.9437C13.4862 19.5551 13.0343 19.5045 12.481 19.4394C12.5754 18.911 12.6706 18.383 12.7786 17.8571C13.0806 16.3493 13.224 14.8335 13.3518 13.3034C13.3827 12.934 13.4148 12.5647 13.4475 12.1956C13.4943 11.6656 13.5401 11.1356 13.5851 10.6055C13.679 10.5882 13.7728 10.5708 13.8694 10.553C15.0011 10.319 15.9379 9.85681 16.9376 9.28585C17.0987 9.20007 17.0987 9.20007 17.199 9.20007Z" fill="#EBEAEA"/>
<path d="M14.5499 29.2876C14.6279 29.3089 14.7058 29.3303 14.7862 29.3523C14.9494 29.3973 15.1125 29.4428 15.2754 29.4889C15.5241 29.5591 15.7736 29.6266 16.0233 29.6938C16.1826 29.7381 16.3418 29.7826 16.5011 29.8272C16.5753 29.8471 16.6493 29.867 16.7258 29.8875C17.1495 30.01 17.4309 30.1323 17.7006 30.4876C17.757 30.7887 17.757 30.7887 17.7006 31.0899C17.4936 31.3346 17.4936 31.3346 17.1987 31.4914C16.8285 31.4663 16.8285 31.4663 16.496 31.391C16.4297 31.391 16.3635 31.391 16.2953 31.391C16.502 31.5836 16.7091 31.776 16.9163 31.9682C17.0034 32.0494 17.0034 32.0494 17.0922 32.1322C17.3477 32.3687 17.5995 32.5951 17.8763 32.807C18.3246 33.1845 18.5514 33.7051 18.6531 34.2766C18.692 35.0606 18.4542 35.6936 17.9477 36.2914C17.2272 36.9726 16.3669 37.1839 15.3953 37.1734C14.2354 37.114 13.4744 36.4623 12.677 35.6883C12.3959 35.4163 12.0974 35.1725 11.7905 34.9296C10.778 34.1132 10.778 34.1132 10.5733 33.4991C10.4921 32.7209 10.755 32.1019 11.0376 31.3848C11.0804 31.2698 11.1232 31.1548 11.1674 31.0363C11.4665 30.2644 11.7638 29.6697 12.4618 29.1888C13.1656 28.9542 13.8524 29.0902 14.5499 29.2876Z" fill="#D8D8D8"/>
<path d="M37.6016 29.2395C37.6622 29.2699 37.7227 29.3002 37.7851 29.3313C38.4785 29.8584 38.7146 30.5805 39.0133 31.3728C39.0588 31.4878 39.1045 31.6029 39.1515 31.7213C39.4365 32.4662 39.6526 33.0593 39.3521 33.8322C38.8142 34.6655 37.888 35.2866 37.1232 35.8991C36.9134 36.0709 36.7188 36.2494 36.5225 36.4359C35.7978 37.051 34.9241 37.176 33.9996 37.1457C33.1966 37.0544 32.4822 36.7257 31.955 36.1034C31.4941 35.4379 31.3159 34.7983 31.453 33.9953C31.8103 32.7664 32.9832 32.0153 33.9627 31.285C33.8778 31.3201 33.7929 31.3553 33.7054 31.3916C33.3074 31.5002 33.0566 31.4832 32.6577 31.3853C32.4631 31.2661 32.4631 31.2661 32.3565 31.0841C32.3126 30.7892 32.3126 30.7892 32.3565 30.4818C32.67 30.0697 33.053 29.9544 33.534 29.8215C33.6094 29.7998 33.6846 29.7781 33.7622 29.7557C33.9212 29.7102 34.0804 29.6654 34.2398 29.6211C34.4813 29.5538 34.7221 29.4839 34.9628 29.4137C35.1181 29.3695 35.2734 29.3257 35.4288 29.2819C35.4998 29.2612 35.5707 29.2405 35.6437 29.2192C36.2664 29.0494 37.008 28.9222 37.6016 29.2395Z" fill="#ECEBEB"/>
<path d="M29.3447 3.88343C29.78 4.21804 30.1667 4.59485 30.5493 4.98767C30.6235 5.06207 30.6976 5.13648 30.774 5.21314C32.5342 7.07586 33.128 9.48333 33.0852 11.9794C33.0114 13.9776 32.2535 16.0836 30.8504 17.5358C30.7659 17.6281 30.6812 17.7203 30.594 17.8154C29.2473 19.2517 27.4041 20.1771 25.4246 20.2816C23.4057 20.3383 21.5025 19.74 20.0089 18.3389C19.9161 18.2541 19.8234 18.1692 19.7277 18.0817C19.1034 17.4869 18.6206 16.8832 18.202 16.1304C18.1496 16.0401 18.0971 15.9498 18.0432 15.8568C16.9135 13.7803 16.6059 11.0681 17.2664 8.79759C18.0358 6.41251 19.4934 4.48403 21.7308 3.3168C24.1977 2.11116 27.073 2.3127 29.3447 3.88343ZM20.812 4.88728C20.7283 4.95327 20.6445 5.01927 20.5583 5.08727C19.0362 6.36784 18.0207 8.33642 17.8004 10.3081C17.627 12.6914 18.1178 15.0514 19.7053 16.9096C19.7724 16.9837 19.8394 17.0579 19.9085 17.1343C19.9714 17.2053 20.0343 17.2764 20.0991 17.3496C21.2485 18.5764 22.9085 19.3504 24.5815 19.4682C26.5829 19.5032 28.3463 18.8381 29.8132 17.4734C30.8599 16.4606 31.5199 15.2382 31.9359 13.8529C31.9567 13.7839 31.9774 13.7147 31.9989 13.6435C32.6597 11.3047 32.1759 8.96329 31.0262 6.86989C29.9677 5.14298 28.3407 4.01626 26.3821 3.53443C24.3788 3.11299 22.4137 3.61723 20.812 4.88728Z" fill="#FB5F69"/>
<path d="M19.0532 7.3446C19.1877 7.35334 19.1877 7.35334 19.3248 7.36225C19.4154 7.36678 19.5058 7.37131 19.599 7.37598C19.7025 7.38471 19.7025 7.38471 19.808 7.39363C19.768 7.84167 19.7244 8.28759 19.6562 8.73235C19.2683 11.2693 19.5523 13.9556 20.9992 16.1369C21.8384 17.2788 22.8579 18.2116 24.2814 18.5113C25.7486 18.618 26.9272 18.2735 28.0521 17.313C29.5858 15.8693 30.4687 13.5794 30.5585 11.4927C30.5866 10.3913 30.5336 9.29478 30.4488 8.19671C30.8463 8.19671 31.2438 8.19671 31.6534 8.19671C31.7356 8.41817 31.817 8.63986 31.8981 8.86176C31.9435 8.98521 31.9889 9.10866 32.0357 9.23584C32.6704 11.1793 32.2273 13.6072 31.3607 15.4155C30.3709 17.2872 28.8212 18.5125 26.8537 19.2202C26.4493 19.3443 26.0525 19.4158 25.6303 19.4398C25.5292 19.4463 25.4282 19.4527 25.324 19.4594C23.5065 19.5212 21.8127 18.9224 20.4667 17.6957C18.9062 16.2015 17.867 14.187 17.756 12.0039C17.7314 10.8039 17.795 9.63671 18.2458 8.51041C18.287 8.40507 18.3283 8.29974 18.3708 8.19122C18.72 7.4102 18.72 7.4102 19.0532 7.3446Z" fill="#FED1BB"/>
<path d="M41.792 35.2987C41.8252 35.2987 41.8583 35.2987 41.8925 35.2987C41.9775 38.7084 40.1761 42.1644 37.8998 44.604C37.6937 44.8174 37.4854 45.0281 37.2748 45.2368C37.1754 45.2037 37.076 45.1706 36.9736 45.1365C36.7677 45.127 36.5616 45.1181 36.3556 45.1125C34.6635 45.0638 32.9827 44.7863 31.3521 44.3334C31.3521 43.8034 31.3521 43.2733 31.3521 42.7272C31.5384 42.6858 31.7247 42.6444 31.9166 42.6017C32.7168 42.3977 33.1376 42.1261 33.5625 41.4222C33.6606 41.2221 33.7161 41.0376 33.7612 40.82C33.8305 40.8344 33.8998 40.8489 33.971 40.8638C35.6063 41.1868 37.0799 40.9396 38.4972 40.0421C40.1312 38.9193 41.3085 37.2157 41.792 35.2987Z" fill="#5486CF"/>
<path d="M29.1449 4.78699C30.2241 5.6351 30.9861 6.64427 31.5541 7.89892C31.5541 7.99831 31.5541 8.09769 31.5541 8.20008C29.2697 8.13859 27.2212 7.55245 25.3808 6.16101C25.1384 5.96356 25.1384 5.96356 24.8283 5.9916C24.6232 6.09375 24.4207 6.20136 24.2198 6.31158C22.4929 7.19843 20.7225 7.30952 18.8052 7.397C19.6062 5.68372 21.0164 4.43226 22.7767 3.75176C24.9602 3.01976 27.276 3.45008 29.1449 4.78699Z" fill="#FED35D"/>
<path d="M19.106 17.4357C19.2033 17.5185 19.3006 17.6013 19.4009 17.6866C19.4985 17.7693 19.4985 17.7693 19.5981 17.8537C19.7366 17.9749 19.8719 18.0998 20.0036 18.2286C21.3168 19.4894 23.0454 20.0767 24.828 20.2464C24.7996 21.3446 24.4933 22.3999 24.2257 23.4588C23.281 23.4791 22.3491 23.47 21.4086 23.3709C21.3323 23.3631 21.2561 23.3551 21.1774 23.347C20.1144 23.226 19.2362 23.0405 18.4786 22.2354C17.9558 21.574 17.7249 20.8504 17.7637 20.0096C17.8986 19.0501 18.5809 18.2244 19.106 17.4357Z" fill="#F1C173"/>
<path d="M24.6266 34.3988C24.7632 34.4609 24.7632 34.4609 24.9026 34.5242C24.9772 34.5491 25.0517 34.5739 25.1285 34.5995C25.1865 34.5519 25.2445 34.5043 25.3042 34.4553C25.6196 34.2362 25.8421 34.2728 26.2135 34.3266C26.5906 34.4504 26.7218 34.6739 26.9354 35.0011C27.0624 35.255 27.0598 35.4453 27.0672 35.7289C27.0728 35.8694 27.0728 35.8694 27.0785 36.0128C26.984 36.6618 26.5432 36.99 26.0571 37.379C25.6878 37.7109 25.5027 37.9882 25.4406 38.4871C25.4327 38.6571 25.4291 38.8274 25.4297 38.9977C25.4297 39.0792 25.4297 39.1608 25.4298 39.2448C25.4604 39.8301 25.6123 40.1147 26.032 40.5222C26.356 40.6843 26.6854 40.6824 27.0358 40.6227C27.3395 40.4484 27.5797 40.2377 27.7385 39.92C27.7876 39.4295 27.7955 39.2143 27.544 38.7843C27.2141 38.4344 26.7886 38.3265 26.3331 38.2134C26.2704 37.9751 26.2704 37.9751 26.2327 37.7115C26.4335 37.5107 26.4335 37.5107 26.7472 37.4731C27.312 37.5278 27.7254 37.6864 28.1204 38.1036C28.5965 38.714 28.7321 39.2486 28.642 40.0204C28.4272 40.7078 28.0271 41.0985 27.4123 41.4571C26.7175 41.6308 26.1246 41.5797 25.4893 41.2516C25.2961 41.0983 25.2231 40.9482 25.1285 40.7231C25.0623 40.7231 24.9959 40.7231 24.9277 40.7231C24.8906 40.8155 24.8906 40.8155 24.8528 40.9097C24.6271 41.2951 24.2359 41.3998 23.8235 41.5261C23.1773 41.6353 22.6503 41.5031 22.117 41.1246C21.7064 40.7442 21.4607 40.3154 21.3734 39.7615C21.3475 39.0201 21.5133 38.5615 22.0166 38.0127C22.5122 37.5836 22.973 37.4753 23.6227 37.5107C23.689 37.5769 23.7552 37.6433 23.8235 37.7115C23.7858 37.9751 23.7858 37.9751 23.7231 38.2134C23.6638 38.2282 23.6043 38.243 23.5431 38.2581C22.9505 38.4263 22.6333 38.5773 22.3177 39.1169C22.2262 39.5333 22.2684 39.8391 22.4934 40.2086C22.825 40.5218 23.0044 40.6076 23.4596 40.6666C23.9425 40.6083 24.0859 40.4607 24.4258 40.1208C24.7139 39.5446 24.6847 38.6288 24.5261 38.0127C24.2705 37.5885 23.9072 37.293 23.5262 36.9848C23.1472 36.671 23.0514 36.3496 22.9902 35.8665C22.9869 35.2373 23.1096 34.9301 23.5411 34.4615C23.9301 34.2368 24.2023 34.2866 24.6266 34.3988Z" fill="#9ABDEF"/>
<path d="M30.4478 3.60372C30.7215 3.82414 30.9877 4.05078 31.252 4.28249C31.3143 4.33283 31.3764 4.38316 31.4406 4.43503C31.859 4.79894 31.9793 5.1995 32.1496 5.71886C32.3364 6.19385 32.6302 6.58984 33.1021 6.80075C33.5025 7.09891 33.6099 7.50087 33.7804 7.9591C33.8148 8.04592 33.8491 8.13276 33.8846 8.22221C34.0986 8.77682 34.2486 9.321 34.3639 9.9041C33.9662 9.84556 33.6839 9.72348 33.3412 9.51504C33.255 9.46358 33.1686 9.41202 33.0797 9.359C32.7368 9.11498 32.6363 8.85934 32.5382 8.4673C31.9759 6.53883 30.6475 4.7536 28.9164 3.7292C27.1056 2.74354 25.1768 2.3518 23.1459 2.82063C21.7112 3.27006 20.5432 4.00845 19.507 5.08557C19.4331 5.15868 19.3592 5.2318 19.2831 5.30712C18.4072 6.22031 17.6597 7.52346 17.4303 8.77473C17.1853 9.38118 16.5644 9.63941 15.9873 9.8915C15.8899 9.92879 15.7926 9.96608 15.6924 10.0044C16.0363 7.48349 17.6468 5.13654 19.6074 3.57979C22.9469 1.20366 27.1203 1.11138 30.4478 3.60372Z" fill="#476BB9"/>
<path d="M25.8308 23.4579C26.0958 23.4579 26.3609 23.4579 26.6339 23.4579C26.6404 23.513 26.6469 23.5681 26.6536 23.6249C27.4243 30.2049 27.4243 30.2049 29.6454 36.4076C29.6951 36.5094 29.6951 36.5094 29.7458 36.6133C30.1618 37.4588 30.6325 38.2023 31.2516 38.9173C31.3282 39.0208 31.4048 39.1242 31.4838 39.2309C32.1212 39.9129 32.9356 40.4006 33.7613 40.8245C33.7193 41.3978 33.5027 41.6888 33.159 42.1295C32.6853 42.078 32.3586 41.8592 31.9794 41.59C31.9202 41.5499 31.8612 41.5098 31.8002 41.4684C31.3648 41.1641 31.3648 41.1641 31.2516 40.8245C31.2847 40.7583 31.3178 40.692 31.352 40.6238C31.3779 40.217 31.3825 40.0674 31.1513 39.7203C30.9647 39.6585 30.9647 39.6585 30.756 39.6451C30.6867 39.6373 30.6175 39.6295 30.5462 39.6215C30.3266 39.6091 30.3266 39.6091 30.047 39.7203C28.0523 36.9574 26.9879 33.6229 26.4331 30.2841C26.4171 30.19 26.4011 30.0958 26.3845 29.9988C26.0212 27.8406 25.7965 25.6492 25.8308 23.4579Z" fill="#FE8088"/>
<path d="M16.8225 22.7261C17.3902 22.9846 17.6795 23.3441 18.033 23.8492C18.1454 24.1965 18.1255 24.5012 18.1021 24.8655C18.0358 24.9318 17.9696 24.998 17.9012 25.0664C17.6378 25.0287 17.6378 25.0287 17.3993 24.9659C17.3823 24.9054 17.3652 24.8448 17.3476 24.7824C17.2055 24.314 17.0974 23.9712 16.6966 23.6609C16.3748 23.5 16.042 23.5116 15.6928 23.5605C15.3472 23.7709 15.1159 23.9748 14.9901 24.3637C14.9379 24.7643 14.973 24.9353 15.1721 25.2922C15.3803 25.5828 15.3803 25.5828 15.6928 25.7691C16.0108 25.8029 16.0108 25.8029 16.3739 25.8036C16.4399 25.805 16.5058 25.8065 16.5737 25.808C16.8555 25.8142 17.1373 25.8182 17.419 25.8224C17.6249 25.8257 17.8307 25.8303 18.0365 25.8349C18.1598 25.8368 18.283 25.8387 18.4099 25.8406C18.7043 25.8694 18.7043 25.8694 18.9051 26.0702C18.8988 26.3212 18.8988 26.3212 18.8048 26.5721C18.5475 26.7039 18.5475 26.7039 18.3028 26.7729C18.369 26.8723 18.4353 26.9717 18.5036 27.0741C18.5751 27.5568 18.5507 27.9672 18.3592 28.4167C17.8667 28.9212 17.3266 29.1029 16.6276 29.1382C16.2574 29.1247 16.0273 29.0834 15.7367 28.8496C15.4504 28.5339 15.3012 28.3681 15.2536 27.9399C15.2971 27.5194 15.3979 27.369 15.6928 27.0741C15.9316 26.9546 16.0858 26.9602 16.3515 26.9611C16.4729 26.9607 16.4729 26.9607 16.5966 26.9603C16.7971 26.9737 16.7971 26.9737 16.8974 27.0741C16.9015 27.2413 16.9017 27.4087 16.8974 27.5759C16.6986 27.6422 16.4999 27.7084 16.2951 27.7768C16.2951 27.9424 16.2951 28.108 16.2951 28.2787C16.4772 28.2477 16.659 28.2163 16.8409 28.1846C16.9423 28.1671 17.0436 28.1496 17.148 28.1316C17.3922 28.1032 17.3922 28.1032 17.4998 27.9775C17.5503 27.5693 17.5503 27.5693 17.4998 27.1744C17.2282 26.8851 17.0653 26.7818 16.6696 26.7294C16.4935 26.7292 16.4935 26.7292 16.3139 26.729C15.5562 26.6972 15.1182 26.4995 14.5885 25.9698C14.5492 26.092 14.5099 26.2141 14.4693 26.34C14.2875 26.8246 14.0188 27.1217 13.5847 27.4066C13.3425 27.4898 13.1366 27.4802 12.8821 27.4755C11.9785 25.0342 11.9785 25.0342 11.9785 24.0625C12.2525 23.8301 12.4509 23.7653 12.8067 23.7174C13.2857 23.7732 13.66 23.9462 14.0866 24.1628C14.1305 24.0846 14.1305 24.0846 14.1753 24.0048C14.7705 22.9922 15.6085 22.3558 16.8225 22.7261Z" fill="#EBAC6A"/>
<path d="M23.7804 23.4497C23.8942 23.4518 24.0082 23.4539 24.1255 23.456C24.1617 25.1827 24.1228 26.8534 23.8703 28.5644C23.8231 28.8854 23.7794 29.2069 23.7361 29.5286C23.2986 32.6726 22.4978 36.0365 20.7123 38.7146C20.3167 38.5472 20.0308 38.2902 19.7085 38.0119C19.7646 37.4963 20.0181 37.1064 20.2669 36.6629C22.3156 32.8793 23.0722 28.1096 23.2966 23.8462C23.3344 23.4214 23.3402 23.4574 23.7804 23.4497Z" fill="#FE8088"/>
<path d="M41.7926 35.2987C41.8257 35.2987 41.8589 35.2987 41.893 35.2987C41.9089 35.935 41.8637 36.5141 41.7362 37.137C41.71 37.2656 41.71 37.2656 41.6834 37.3967C41.5447 38.0399 41.3618 38.6613 41.1464 39.2828C41.1187 39.3631 41.091 39.4434 41.0624 39.5262C40.6074 40.781 40.077 41.4233 38.8815 42.0245C38.4253 42.2289 37.9559 42.3872 37.4761 42.5264C37.351 42.5631 37.2257 42.5997 37.0969 42.6375C36.6161 42.7542 36.1435 42.7657 35.6503 42.7648C35.5581 42.7648 35.466 42.7648 35.371 42.7648C34.5955 42.7519 33.6365 42.7022 33.0591 42.125C33.1015 42.0643 33.1438 42.0038 33.1873 41.9414C33.2423 41.8612 33.2973 41.7809 33.354 41.6983C33.4088 41.6191 33.4635 41.5399 33.5199 41.4583C33.6511 41.2389 33.7166 41.0693 33.7618 40.82C33.8311 40.8344 33.9002 40.8489 33.9716 40.8638C35.6069 41.1868 37.0804 40.9396 38.4977 40.0421C40.1318 38.9193 41.3091 37.2157 41.7926 35.2987Z" fill="#466BB9"/>
<path d="M8.16328 35.4044C8.36457 35.7063 8.46358 35.9669 8.58365 36.3079C9.26165 38.0888 10.67 39.6655 12.3795 40.524C13.729 41.0925 14.8647 41.1046 16.2945 40.8252C16.3359 40.9494 16.3773 41.0737 16.42 41.2016C16.5531 41.5623 16.7084 41.771 16.9972 42.0298C16.9972 42.0961 16.9972 42.1623 16.9972 42.2306C16.8237 42.2959 16.6501 42.3606 16.4764 42.425C16.3798 42.4612 16.2831 42.4973 16.1835 42.5345C14.7351 43.0212 12.8583 42.8106 11.4983 42.147C11.4247 42.1084 11.3511 42.0697 11.2752 42.0298C11.182 41.9818 11.0886 41.9338 10.9925 41.8843C10.2023 41.4666 9.66571 41.1514 9.31769 40.2982C9.288 40.2275 9.25842 40.1569 9.22779 40.0841C8.61919 38.6017 8.12935 37.0191 8.16328 35.4044Z" fill="#365796"/>
<path d="M34.7904 22.8059C35.3161 23.1034 35.6802 23.5931 35.8695 24.1611C35.924 24.771 35.9041 25.2356 35.5683 25.7672C35.7485 25.82 35.7485 25.82 35.9323 25.8739C36.4132 26.0558 36.7144 26.3272 36.9737 26.7711C37.0457 27.0166 37.0636 27.2155 37.0741 27.4738C36.5225 27.4512 36.2264 27.3242 35.8205 26.9483C35.5871 26.6757 35.4827 26.4069 35.3676 26.0684C35.262 26.1615 35.262 26.1615 35.1543 26.2566C34.6608 26.6213 34.2079 26.6885 33.6046 26.702C33.1765 26.7309 32.993 26.7488 32.6258 26.9844C32.4137 27.3458 32.3941 27.5634 32.4564 27.9757C32.778 28.19 32.8599 28.1996 33.2281 28.189C33.3093 28.1872 33.3904 28.1854 33.4739 28.1835C33.5357 28.1812 33.5975 28.1788 33.661 28.1764C33.6941 28.0108 33.7273 27.8451 33.7614 27.6745C33.6828 27.6787 33.604 27.6827 33.523 27.687C33.2595 27.6745 33.2595 27.6745 33.0587 27.4738C33.1125 27.1188 33.1125 27.1188 33.2595 26.9718C33.7163 26.9254 34.0338 26.9022 34.4139 27.1789C34.6649 27.4738 34.6649 27.4738 34.7213 27.8188C34.6407 28.3297 34.5344 28.6508 34.1128 28.967C33.47 29.1736 32.8256 29.1937 32.2055 28.9042C31.7933 28.6658 31.6035 28.4286 31.4526 27.9757C31.4124 27.1324 31.4124 27.1324 31.6533 26.7711C31.5726 26.7483 31.4919 26.7255 31.4086 26.702C31.1514 26.5702 31.1514 26.5702 31.0573 26.3193C31.0552 26.2365 31.0532 26.1537 31.051 26.0684C31.2518 25.8675 31.2518 25.8675 31.5414 25.8436C31.6628 25.8436 31.784 25.8436 31.909 25.8437C32.0429 25.8421 32.1768 25.8405 32.3105 25.8388C32.5211 25.8371 32.7316 25.8362 32.9423 25.8369C33.8524 25.877 33.8524 25.877 34.6539 25.5244C34.9473 25.1654 35.0055 24.9419 35.0021 24.4727C34.9383 24.0992 34.7311 23.9198 34.4641 23.6591C34.1385 23.4963 33.8122 23.5031 33.4603 23.5587C32.9207 23.8743 32.7697 24.1916 32.6015 24.7841C32.5868 24.8435 32.572 24.903 32.5568 24.9641C32.3184 25.0268 32.3184 25.0268 32.0549 25.0645C31.8542 24.8637 31.8542 24.8637 31.8164 24.55C31.8711 23.9847 32.0289 23.5687 32.4505 23.1768C33.1561 22.6336 33.9401 22.4339 34.7904 22.8059Z" fill="#EBAC6A"/>
<path d="M13.5847 29.1788C14.3014 29.2398 14.9776 29.4178 15.6701 29.6079C15.8691 29.6622 16.0686 29.7144 16.268 29.7664C16.4577 29.8182 16.4577 29.8182 16.6512 29.8709C16.766 29.9019 16.8807 29.9328 16.9989 29.9646C17.3232 30.0919 17.4851 30.2125 17.7005 30.4838C17.757 30.785 17.757 30.785 17.7005 31.0861C17.4935 31.3308 17.4935 31.3308 17.1986 31.4877C16.8285 31.4626 16.8285 31.4626 16.4959 31.3874C16.4296 31.3874 16.3634 31.3874 16.2951 31.3874C16.502 31.58 16.7091 31.7723 16.9163 31.9646C16.9743 32.0186 17.0323 32.0727 17.0921 32.1284C17.3499 32.3674 17.6074 32.5978 17.8821 32.8174C18.1437 33.0267 18.2736 33.1856 18.4033 33.4954C18.4138 34.0631 18.2244 34.35 17.8582 34.7522C17.4853 35.1037 17.4853 35.1037 17.2076 35.0969C15.6132 34.3697 14.22 30.8924 13.5847 29.3797C13.5847 29.3134 13.5847 29.2472 13.5847 29.1788Z" fill="#EFEEEE"/>
<path d="M39.1822 33.9966C39.2486 33.9966 39.3148 33.9966 39.383 33.9966C39.5341 34.4687 39.5538 34.9212 39.372 35.3851C39.14 35.774 38.8655 36.0376 38.5297 36.3368C38.4673 36.3936 38.4048 36.4502 38.3404 36.5086C35.7881 38.8081 35.7881 38.8081 34.0006 38.759C33.2111 38.7044 32.5345 38.3452 31.9985 37.7673C31.5254 37.1282 31.3414 36.4936 31.4526 35.7031C31.5189 35.6369 31.5851 35.5706 31.6533 35.5024C31.6875 35.5545 31.7217 35.6067 31.7569 35.6604C32.2592 36.383 32.8122 36.7695 33.6611 37.0081C34.7126 37.1165 35.6533 37.0254 36.4986 36.3576C36.8019 36.1053 37.0941 35.8415 37.3851 35.5751C37.7213 35.2704 38.0666 34.9764 38.4105 34.6804C38.8048 34.3476 38.8048 34.3476 39.1822 33.9966Z" fill="#CD2F3B"/>
<path d="M10.7737 33.8949C10.8417 33.9647 10.9098 34.0346 10.98 34.1066C11.4891 34.6154 12.0464 35.0735 12.5934 35.5407C12.7608 35.6842 12.9272 35.8287 13.0935 35.9735C14.0391 36.779 14.7539 37.0988 16.0046 37.046C16.7528 36.9709 17.3482 36.7197 17.901 36.2038C18.1488 36.3194 18.3073 36.4093 18.5033 36.6052C18.4804 37.1099 18.317 37.4214 18.0014 37.8099C17.1438 38.5915 16.3095 38.7901 15.1741 38.7471C13.8609 38.6321 12.9421 37.5671 12.014 36.7185C11.7928 36.5186 11.5665 36.3266 11.3384 36.1347C10.6129 35.4929 10.6129 35.4929 10.5423 34.9755C10.5298 34.5524 10.5628 34.2677 10.7737 33.8949Z" fill="#9D3B3A"/>
<path d="M22.9226 3.83637C23.1874 4.02973 23.384 4.25482 23.5986 4.50259C24.0142 4.97124 24.4442 5.39231 24.9287 5.78878C23.496 7.33597 20.7347 7.30691 18.8052 7.39494C19.5827 5.73209 20.8669 4.66563 22.4803 3.8493C22.7203 3.78107 22.7203 3.78107 22.9226 3.83637Z" fill="#F3AC1D"/>
<path d="M10.6731 32.3934C11.0833 32.5584 11.3691 32.852 11.6832 33.1526C12.2632 33.6976 12.858 34.2099 13.4838 34.7023C13.5463 34.7539 13.6088 34.8055 13.6733 34.8587C14.2672 35.3253 15.0115 35.5641 15.7699 35.5359C16.2563 35.4694 16.7252 35.3331 17.1981 35.2042C17.4631 35.5023 17.7281 35.8004 18.0012 36.1076C17.4861 36.6871 16.8405 37.0707 16.0566 37.1425C14.8554 37.1953 14.0444 36.9407 13.1282 36.1177C12.9757 35.9759 12.8258 35.8319 12.6764 35.6869C12.3953 35.4148 12.0967 35.171 11.7898 34.9281C10.7773 34.1117 10.7773 34.1117 10.5727 33.4976C10.5593 33.3031 10.5593 33.3031 10.5602 33.096C10.5598 33.0278 10.5596 32.9595 10.5593 32.8891C10.5727 32.6946 10.5727 32.6946 10.6731 32.3934Z" fill="#C1C0C0"/>
<path d="M19.6074 37.911C20.0569 38.1626 20.2987 38.4128 20.6112 38.8146C20.5263 38.9077 20.4414 39.0008 20.3539 39.0968C20.0961 39.4476 20.0956 39.6565 20.1595 40.0818C20.2324 40.5864 20.2324 40.5864 20.0026 40.9414C19.6634 41.1507 19.4967 41.1744 19.1054 41.1234C19.006 41.0903 18.9067 41.0572 18.8043 41.023C18.5387 41.1796 18.5387 41.1796 18.2647 41.3994C17.573 41.9291 17.573 41.9291 17.1981 42.1273C16.8091 42.0329 16.6086 41.7486 16.3951 41.4246C16.3564 41.2247 16.3223 41.0239 16.2947 40.8223C16.3918 40.7675 16.4887 40.7128 16.5887 40.6563C17.8572 39.9277 18.7851 39.1398 19.6074 37.911Z" fill="#D86262"/>
<path d="M33.5602 3.97923C34.2421 4.29429 34.7707 4.7891 35.0659 5.48501C35.14 6.00827 35.1481 6.44474 34.884 6.90923C34.4087 7.17949 33.9937 7.17262 33.4598 7.09118C32.8215 6.88525 32.3762 6.35665 32.0399 5.79519C31.8795 5.40321 31.8976 4.99644 31.954 4.58154C32.3556 3.92559 32.8327 3.86923 33.5602 3.97923Z" fill="#F3F7FC"/>
<path d="M24.224 34.7068C24.5252 34.801 24.5252 34.801 24.7323 34.9704C24.7964 35.0138 24.8606 35.0573 24.9268 35.1021C25.2451 35.0167 25.4545 34.8842 25.7299 34.7006C26.0064 34.7213 26.1748 34.7549 26.3922 34.9304C26.6519 35.2472 26.6514 35.6077 26.6333 36.0056C26.4589 36.7439 25.8304 37.295 25.2279 37.7121C24.8263 37.7121 24.8263 37.7121 24.6256 37.5506C24.5262 37.4442 24.5262 37.4442 24.4249 37.3357C24.3586 37.2658 24.2924 37.1959 24.224 37.1239C24.1247 37.0175 24.1247 37.0175 24.0233 36.909C23.9514 36.8385 23.8797 36.768 23.8057 36.6954C23.53 36.4137 23.4238 36.1845 23.4175 35.7868C23.4429 35.409 23.4839 35.1604 23.6908 34.8386C23.9229 34.7006 23.9229 34.7006 24.224 34.7068Z" fill="#EFEFEF"/>
<path d="M13.6662 23.8916C13.9666 24.0332 14.0643 24.1014 14.1815 24.4163C14.2309 24.7072 14.2309 24.7072 14.2556 24.9891C14.2753 25.2686 14.2753 25.2686 14.3917 25.5233C14.5473 25.9171 14.5012 26.2684 14.3878 26.671C14.1079 27.0286 13.7943 27.2791 13.3839 27.4741C13.2167 27.4788 13.0492 27.4794 12.8821 27.4741C11.9785 25.0327 11.9785 25.0327 11.9785 24.061C12.4977 23.6206 13.054 23.6911 13.6662 23.8916Z" fill="#E93844"/>
<path d="M23.6237 37.5093C23.6899 37.5755 23.7562 37.6418 23.8244 37.71C23.7868 37.9736 23.7868 37.9736 23.724 38.212C23.6646 38.2267 23.6052 38.2415 23.544 38.2567C22.9515 38.4248 22.6342 38.5759 22.3187 39.1154C22.2319 39.5101 22.2551 39.8191 22.4774 40.1671C22.7716 40.4741 23.0761 40.6542 23.4479 40.8534C23.5132 40.8894 23.5784 40.9254 23.6456 40.9625C23.805 41.0504 23.9652 41.1371 24.1256 41.2235C24.1256 41.2898 24.1256 41.3561 24.1256 41.4243C23.571 41.6092 23.0303 41.6067 22.4943 41.3616C21.9411 41.0497 21.6202 40.6207 21.4151 40.0189C21.321 39.421 21.3516 38.937 21.6787 38.419C22.1978 37.7329 22.7532 37.4618 23.6237 37.5093Z" fill="#99BDEF"/>
<path d="M25.8303 21.0465C26.5457 20.9803 27.0379 21.1527 27.6372 21.5484C27.8471 21.7404 27.9796 21.9113 28.1392 22.1508C28.1392 22.2171 28.1392 22.2833 28.1392 22.3515C28.2054 22.3515 28.2717 22.3515 28.3399 22.3515C28.3627 22.279 28.3855 22.2067 28.409 22.132C28.6272 21.6643 28.9217 21.4151 29.3689 21.1657C29.8124 21.0253 30.1886 21.0183 30.6488 21.0465C30.5949 21.5042 30.4357 21.7934 30.1469 22.1508C29.3413 22.7554 28.398 22.7099 27.4365 22.6527C26.9239 22.5472 26.5025 22.321 26.1315 21.95C25.937 21.6214 25.8303 21.4295 25.8303 21.0465Z" fill="#82959E"/>
<path d="M19.4065 21.0444C20.0421 20.9892 20.5567 21.1308 21.1131 21.446C21.3505 21.6571 21.5503 21.8765 21.7153 22.1487C21.7153 22.2149 21.7153 22.2812 21.7153 22.3494C21.7816 22.3494 21.8478 22.3494 21.9161 22.3494C21.9471 22.2407 21.9471 22.2407 21.9789 22.1298C22.2175 21.6417 22.5939 21.4128 23.058 21.1637C23.4812 21.025 23.7832 21.0212 24.2249 21.0444C24.1711 21.5021 24.0119 21.7914 23.7231 22.1487C22.9174 22.7533 21.9742 22.7078 21.0126 22.6506C20.5 22.5451 20.0787 22.319 19.7076 21.9479C19.5132 21.6193 19.4065 21.4274 19.4065 21.0444Z" fill="#82959E"/>
<path d="M28.2842 9.79822C28.647 9.94874 28.7543 10.1704 28.9429 10.5073C29.1499 11.1283 29.1332 11.8651 28.9116 12.4773C28.8556 12.5559 28.7997 12.6347 28.7421 12.7157C28.6966 12.7799 28.651 12.844 28.6041 12.9102C28.4409 13.0169 28.4409 13.0169 28.1962 13.0169C27.8597 12.8855 27.7358 12.7121 27.5375 12.4146C27.2804 11.6433 27.3855 10.8243 27.7382 10.1057C27.993 9.80572 27.993 9.80572 28.2842 9.79822Z" fill="#709FD7"/>
<path d="M21.8591 9.79822C22.2219 9.94874 22.3292 10.1704 22.5178 10.5073C22.7249 11.1283 22.7081 11.8651 22.4865 12.4773C22.4305 12.5559 22.3747 12.6347 22.3171 12.7157C22.2715 12.7799 22.2259 12.844 22.1791 12.9102C22.0159 13.0169 22.0159 13.0169 21.7713 13.0169C21.4347 12.8855 21.3108 12.7121 21.1124 12.4146C20.8553 11.6433 20.9605 10.8243 21.3132 10.1057C21.5679 9.80572 21.5679 9.80572 21.8591 9.79822Z" fill="#709FD7"/>
<path d="M24.2948 15.0335C24.5774 15.1458 24.7299 15.2995 24.928 15.5271C25.1561 15.4249 25.3103 15.349 25.474 15.1569C25.6307 15.0252 25.6307 15.0252 25.861 15.0404C26.201 15.147 26.3697 15.3023 26.6221 15.5522C26.7025 15.6293 26.783 15.7065 26.866 15.786C27.0362 16.0291 27.0362 16.0291 27.0119 16.3098C26.9742 16.4193 26.9742 16.4193 26.9358 16.531C26.7162 16.6125 26.7162 16.6125 26.4339 16.6314C26.1515 16.3867 26.1515 16.3867 25.9319 16.1294C25.704 16.2316 25.5497 16.3075 25.3861 16.4996C25.2293 16.6314 25.2293 16.6314 24.9846 16.6251C24.6831 16.5148 24.5347 16.3694 24.3258 16.1294C24.0978 16.2316 23.9436 16.3075 23.7799 16.4996C23.7281 16.543 23.6764 16.5866 23.623 16.6314C23.3533 16.6 23.3533 16.6 23.1212 16.531C23.0419 16.3138 23.0419 16.3138 23.0208 16.0291C23.2129 15.7569 23.2129 15.7569 23.485 15.4895C23.5734 15.3997 23.6616 15.3098 23.7525 15.2173C24.0246 15.0252 24.0246 15.0252 24.2948 15.0335Z" fill="#FF5E68"/>
<path d="M28.5527 9.44041C28.8692 9.54614 28.9788 9.72364 29.1445 10.0058C29.2024 10.1032 29.2604 10.2005 29.3201 10.3007C29.5775 10.9557 29.5622 11.7559 29.3468 12.4175C29.14 12.8527 28.9574 13.1593 28.5421 13.419C28.1799 13.4729 27.9983 13.451 27.6764 13.2747C27.0707 12.6212 26.9649 11.9307 26.9905 11.0552C27.0695 10.4581 27.2839 9.93896 27.7312 9.52708C28.0106 9.3616 28.2385 9.38562 28.5527 9.44041ZM28.0402 9.8051C27.5344 10.3108 27.4263 10.8167 27.4066 11.5117C27.4166 12.0916 27.5427 12.4396 27.8771 12.9107C28.0419 13.0398 28.0419 13.0398 28.2849 13.0174C28.6215 12.886 28.7453 12.7126 28.9436 12.4151C29.1612 11.7624 29.1636 10.9608 28.8558 10.3384C28.6635 10.0126 28.6635 10.0126 28.4418 9.8051C28.3093 9.8051 28.1768 9.8051 28.0402 9.8051Z" fill="#FD616B"/>
<path d="M22.1277 9.44041C22.4442 9.54614 22.5538 9.72364 22.7194 10.0058C22.7773 10.1032 22.8354 10.2005 22.8951 10.3007C23.1524 10.9557 23.1371 11.7559 22.9217 12.4175C22.7149 12.8527 22.5325 13.1593 22.1171 13.419C21.755 13.4729 21.5734 13.451 21.2513 13.2747C20.6457 12.6212 20.5398 11.9307 20.5655 11.0552C20.6444 10.4581 20.8589 9.93896 21.3062 9.52708C21.5857 9.3616 21.8135 9.38562 22.1277 9.44041ZM21.6152 9.8051C21.1094 10.3108 21.0013 10.8167 20.9815 11.5117C20.9915 12.0916 21.1177 12.4396 21.452 12.9107C21.6168 13.0398 21.6168 13.0398 21.8598 13.0174C22.1964 12.886 22.3203 12.7126 22.5186 12.4151C22.7362 11.7624 22.7386 10.9608 22.4308 10.3384C22.2385 10.0126 22.2385 10.0126 22.0167 9.8051C21.8842 9.8051 21.7517 9.8051 21.6152 9.8051Z" fill="#FD616B"/>
<path d="M19.1064 17.4357C19.7557 17.9883 19.7557 17.9883 20.0252 18.2391C20.5202 18.6976 21.0102 19.045 21.616 19.343C21.4822 19.4768 21.3483 19.6107 21.2144 19.7445C21.1296 19.8315 21.0447 19.9184 20.9573 20.0081C20.7126 20.2464 20.7126 20.2464 20.4114 20.4472C19.6733 19.7607 19.0654 19.149 18.8052 18.1571C18.8052 17.8008 18.8581 17.6839 19.1064 17.4357Z" fill="#E6B069"/>
<path d="M30.8499 17.4357C31.0504 17.6164 31.0504 17.6164 31.2515 17.8372C31.2662 18.5861 30.8828 19.1876 30.3928 19.7241C30.1477 19.9699 29.8995 20.2108 29.6454 20.4472C29.5705 20.3703 29.4955 20.2932 29.4183 20.2139C29.2041 20.0046 29.0059 19.8312 28.7607 19.663C28.6552 19.5905 28.5495 19.5181 28.4407 19.4434C28.6548 19.2807 28.8706 19.1225 29.0913 18.9689C29.7431 18.5117 30.3057 18.0162 30.8499 17.4357Z" fill="#E6B169"/>
<path d="M22.3184 20.3461C22.6256 20.5263 22.8794 20.7123 22.9869 21.0657C22.9982 21.1264 23.0095 21.187 23.0211 21.2496C22.9666 21.2872 22.9121 21.3249 22.856 21.3637C22.441 21.6606 22.1596 21.8953 21.9168 22.3538C21.8506 22.3538 21.7843 22.3538 21.7161 22.3538C21.6251 22.2089 21.5342 22.064 21.4436 21.919C21.217 21.625 20.9205 21.4514 20.6118 21.2496C20.7266 20.8032 20.9406 20.5811 21.3149 20.3352C21.6686 20.1773 21.9608 20.2137 22.3184 20.3461Z" fill="#FD5261"/>
<path d="M28.7425 20.3461C29.0593 20.532 29.2991 20.7274 29.4326 21.0802C29.4367 21.1361 29.4409 21.192 29.4452 21.2496C29.354 21.3055 29.263 21.3614 29.1691 21.419C28.8003 21.6814 28.5438 21.9481 28.3409 22.3538C28.2746 22.3538 28.2084 22.3538 28.1402 22.3538C28.0491 22.2089 27.9583 22.064 27.8677 21.919C27.6411 21.625 27.3445 21.4514 27.0359 21.2496C27.1507 20.8032 27.3646 20.5811 27.739 20.3352C28.0927 20.1773 28.3848 20.2137 28.7425 20.3461Z" fill="#FD5261"/>
<path d="M28.7422 19.5387C29.2328 19.879 29.4912 20.2039 29.7461 20.7433C29.7461 20.8758 29.7461 21.0083 29.7461 21.1449C29.6467 21.178 29.5473 21.2111 29.4449 21.2452C29.3912 21.152 29.3373 21.0589 29.2818 20.9629C29.017 20.6075 28.859 20.481 28.4411 20.3417C27.9092 20.3511 27.6124 20.4678 27.2365 20.8437C27.1048 21.0561 27.1048 21.0561 27.0358 21.2452C26.9364 21.212 26.8369 21.1789 26.7346 21.1449C26.7826 20.652 26.8946 20.2084 27.2365 19.8399C27.7359 19.5445 28.1716 19.3641 28.7422 19.5387Z" fill="#FD9F9D"/>
<path d="M22.4178 19.6973C22.8718 19.932 23.1301 20.2744 23.3214 20.7451C23.3214 20.8776 23.3214 21.0101 23.3214 21.1466C23.222 21.1797 23.1226 21.2129 23.0202 21.247C22.9664 21.1539 22.9125 21.0607 22.8571 20.9647C22.5923 20.6093 22.4342 20.4829 22.0164 20.3436C21.4844 20.3529 21.1876 20.4695 20.8117 20.8455C20.68 21.058 20.68 21.058 20.611 21.247C20.5116 21.2139 20.4122 21.1808 20.3098 21.1466C20.3399 20.5434 20.6189 20.1739 21.0125 19.7413C21.5255 19.3283 21.8524 19.4597 22.4178 19.6973Z" fill="#FD9F9D"/>
<path d="M21.414 39.4205C21.8795 39.7215 22.3203 40.0221 22.7375 40.3882C23.0938 40.6549 23.4925 40.858 23.8821 41.0718C23.9621 41.1231 24.0421 41.1745 24.1245 41.2274C24.1245 41.2937 24.1245 41.3599 24.1245 41.4281C23.5699 41.613 23.0292 41.6105 22.4932 41.3654C22.0187 41.098 21.7371 40.7575 21.4831 40.2738C21.4025 39.9808 21.4 39.7229 21.414 39.4205Z" fill="#73A0D8"/>
<path d="M25.0286 43.4692C25.4376 43.5544 25.5852 43.7003 25.8316 44.0338C25.8945 44.3351 25.8945 44.3351 25.8316 44.6362C25.5852 44.9698 25.4376 45.1156 25.0286 45.2008C24.6196 45.1156 24.4721 44.9698 24.2255 44.6362C24.1628 44.3351 24.1628 44.3351 24.2255 44.0338C24.4721 43.7003 24.6196 43.5544 25.0286 43.4692Z" fill="#506E81"/>
<path d="M21.0125 42.6676C21.4215 42.7528 21.569 42.8987 21.8156 43.2323C21.8783 43.5334 21.8783 43.5334 21.8156 43.8346C21.569 44.1681 21.4215 44.3141 21.0125 44.3993C20.6035 44.3141 20.4559 44.1681 20.2095 43.8346C20.1467 43.5334 20.1467 43.5334 20.2095 43.2323C20.4559 42.8987 20.6035 42.7528 21.0125 42.6676Z" fill="#506E81"/>
<path d="M29.4453 25.4028C29.8544 25.488 30.0019 25.634 30.2485 25.9675C30.3112 26.2687 30.3112 26.2687 30.2485 26.5698C30.0019 26.9034 29.8544 27.0493 29.4453 27.1345C29.0364 27.0493 28.8888 26.9034 28.6423 26.5698C28.5795 26.2687 28.5795 26.2687 28.6423 25.9675C28.8888 25.634 29.0364 25.488 29.4453 25.4028Z" fill="#EBAA6A"/>
<path d="M20.6115 25.4028C21.0206 25.488 21.1681 25.634 21.4146 25.9675C21.4774 26.2687 21.4774 26.2687 21.4146 26.5698C21.1681 26.9034 21.0206 27.0493 20.6115 27.1345C20.2026 27.0493 20.0551 26.9034 19.8085 26.5698C19.7458 26.2687 19.7458 26.2687 19.8085 25.9675C20.0551 25.634 20.2026 25.488 20.6115 25.4028Z" fill="#EBAA6A"/>
<path d="M29.1564 42.7214C29.424 42.7759 29.5336 42.8181 29.7462 42.9974C29.8807 43.3086 29.9014 43.4958 29.8465 43.8319C29.6 44.1655 29.4525 44.3114 29.0435 44.3966C28.6345 44.3114 28.487 44.1655 28.2404 43.8319C28.1777 43.5308 28.1777 43.5308 28.2404 43.2296C28.5033 42.8435 28.6922 42.6855 29.1564 42.7214Z" fill="#8194A1"/>
<path d="M19.7277 39.5565C19.9088 39.6208 19.9088 39.6208 20.1097 39.7902C20.2441 40.1013 20.2649 40.2885 20.21 40.6247C19.96 40.963 19.82 41.1083 19.4007 41.1768C19.0628 41.1193 18.9261 41.0883 18.7042 40.8254C18.6068 40.5509 18.5724 40.3124 18.6038 40.0224C18.9128 39.534 19.1871 39.4463 19.7277 39.5565Z" fill="#506E80"/>
<path d="M30.9697 39.5565C31.1509 39.6208 31.1509 39.6208 31.3516 39.7902C31.4825 40.093 31.4928 40.2976 31.452 40.6247C31.3516 40.8568 31.3516 40.8568 31.1509 41.0262C30.7794 41.1413 30.4686 41.173 30.1031 41.0325C29.8641 40.717 29.8032 40.4152 29.8459 40.0224C30.1547 39.534 30.4291 39.4463 30.9697 39.5565Z" fill="#8294A0"/>
<path d="M25.3484 30.7186C25.5295 30.7829 25.5295 30.7829 25.7303 30.9523C25.8612 31.2551 25.8715 31.4598 25.8307 31.7868C25.7303 32.019 25.7303 32.019 25.5295 32.1883C25.1581 32.3034 24.8472 32.3352 24.4817 32.1946C24.2428 31.8791 24.1818 31.5773 24.2245 31.1845C24.5334 30.6962 24.8078 30.6084 25.3484 30.7186Z" fill="#8295A1"/>
<path d="M25.3484 27.5081C25.5295 27.5725 25.5295 27.5725 25.7303 27.7419C25.8612 28.0447 25.8715 28.2493 25.8307 28.5764C25.7303 28.8085 25.7303 28.8085 25.5295 28.9779C25.1581 29.093 24.8472 29.1247 24.4817 28.9842C24.2428 28.6687 24.1818 28.3669 24.2245 27.9741C24.5334 27.4858 24.8078 27.398 25.3484 27.5081Z" fill="#8295A1"/>
<path d="M30.8255 2.33972C31.2349 2.38695 31.4373 2.51966 31.7541 2.77891C31.9569 3.04354 31.9562 3.15702 31.936 3.49416C31.8544 3.78276 31.8544 3.78276 31.5533 3.98353C31.0642 3.96227 30.8022 3.81451 30.4491 3.48161C30.2979 3.17912 30.3309 2.91113 30.3487 2.57814C30.5494 2.37737 30.5494 2.37737 30.8255 2.33972Z" fill="#EFF5FB"/>
<path d="M22.8193 19.9423C23.4818 20.0416 24.1443 20.141 24.827 20.2434C24.7463 21.3593 24.7463 21.3593 24.5258 21.8497C24.3602 21.8165 24.1945 21.7834 24.0239 21.7492C24.0902 21.5174 24.1564 21.2855 24.2246 21.0465C23.7775 21.0962 23.7775 21.0962 23.3212 21.1469C23.2493 20.9508 23.1775 20.7548 23.1056 20.5587C23.0218 20.3482 22.9206 20.145 22.8193 19.9423Z" fill="#E6B16A"/>
<path d="M14.7708 16.8009C15.1297 16.8361 15.3062 16.9185 15.5928 17.1334C15.8617 17.5368 15.8091 17.76 15.7935 18.2377C15.4239 18.4049 15.261 18.4631 14.8712 18.3255C14.5909 18.1386 14.4375 18.0353 14.2878 17.7358C14.2563 17.3718 14.2563 17.3718 14.2878 17.0331C14.4885 16.8323 14.4885 16.8323 14.7708 16.8009Z" fill="#F5F9FC"/>
<path d="M27.2366 20.0449C27.1745 20.1526 27.1124 20.2602 27.0483 20.3712C26.9021 20.6269 26.7619 20.8834 26.6343 21.1492C26.3693 21.1161 26.1043 21.083 25.8312 21.0488C25.8975 21.2807 25.9637 21.5125 26.032 21.7515C25.8664 21.7515 25.7007 21.7515 25.5301 21.7515C25.4786 21.6139 25.4287 21.4758 25.3795 21.3374C25.3376 21.2221 25.3376 21.2221 25.2948 21.1045C25.2193 20.8105 25.2184 20.5481 25.2289 20.2457C25.488 20.1923 25.7474 20.1402 26.0069 20.0889C26.0801 20.0737 26.1533 20.0585 26.2289 20.0427C26.6007 19.9701 26.8746 19.9347 27.2366 20.0449Z" fill="#E6B06A"/>
<path d="M18.4026 33.6954C18.7039 34.1473 18.6742 34.571 18.6034 35.1007C18.468 35.4565 18.2988 35.7797 18.1014 36.1046C17.6697 35.9127 17.4791 35.6765 17.198 35.3016C17.198 35.2353 17.198 35.1691 17.198 35.1007C17.3198 35.0079 17.4462 34.9211 17.5745 34.8373C18.0254 34.5142 18.1924 34.2034 18.4026 33.6954Z" fill="#E4E0E0"/>
<path d="M14.488 25.8674C14.4512 26.591 14.4512 26.591 14.1617 26.9528C13.4463 27.5219 13.4463 27.5219 12.8818 27.4736C12.9049 26.9107 13.044 26.6359 13.4171 26.2168C13.7605 25.912 14.0335 25.8421 14.488 25.8674Z" fill="#5E9790"/>
<path d="M37.5989 23.8482C37.7963 23.946 37.9885 24.0484 38.1789 24.1592C38.0785 24.4603 38.0785 24.4603 37.7648 24.6297C37.3868 24.7748 37.0797 24.8123 36.6731 24.7615C36.4194 24.6468 36.2048 24.513 35.9705 24.3599C36.0708 24.0588 36.0708 24.0588 36.3343 23.8894C36.7872 23.7132 37.1387 23.6614 37.5989 23.8482Z" fill="#5E9790"/>
<path d="M35.4678 25.8667C36.0308 25.8897 36.3055 26.029 36.7245 26.402C37.0293 26.7453 37.0992 27.0184 37.074 27.4728C36.5138 27.45 36.2234 27.3165 35.8137 26.9325C35.5042 26.5863 35.4678 26.3235 35.4678 25.8667Z" fill="#5C9891"/>
<path d="M13.6281 23.9595C13.7481 24.0251 13.8676 24.0915 13.9857 24.1603C13.8853 24.4614 13.8853 24.4614 13.5716 24.6308C13.1947 24.7758 12.8853 24.8141 12.48 24.7626C12.1349 24.5618 12.1349 24.5618 11.8777 24.361C11.9711 24.1274 12.0436 23.9853 12.2478 23.834C12.7589 23.6682 13.1563 23.724 13.6281 23.9595Z" fill="#5D9790"/>
<path d="M28.9435 10.8114C28.9767 10.8114 29.0098 10.8114 29.044 10.8114C29.1002 12.2157 29.1002 12.2157 28.7427 12.7187C28.6972 12.7829 28.6517 12.8471 28.6047 12.9132C28.4416 13.0198 28.4416 13.0198 28.1969 13.0198C27.8603 12.8886 27.7365 12.715 27.5381 12.4175C27.4282 12.0878 27.4277 11.8417 27.4315 11.4953C27.4324 11.3862 27.4333 11.2771 27.4343 11.1647C27.4354 11.0813 27.4366 10.9978 27.4377 10.9118C27.4708 10.9118 27.504 10.9118 27.5381 10.9118C27.5492 10.9735 27.5601 11.0353 27.5715 11.0988C27.5874 11.1799 27.6033 11.2611 27.6197 11.3447C27.6348 11.425 27.65 11.5055 27.6656 11.5882C27.7478 11.8427 27.8285 11.955 28.0401 12.1164C28.2972 12.1319 28.2972 12.1319 28.542 12.016C28.848 11.6444 28.8973 11.2824 28.9435 10.8114Z" fill="#6087CA"/>
<path d="M22.5187 10.8114C22.5518 10.8114 22.585 10.8114 22.6191 10.8114C22.6754 12.2157 22.6754 12.2157 22.318 12.7187C22.2724 12.7829 22.2268 12.8471 22.18 12.9132C22.0168 13.0198 22.0168 13.0198 21.7721 13.0198C21.4356 12.8886 21.3117 12.715 21.1133 12.4175C21.0034 12.0878 21.003 11.8417 21.0066 11.4953C21.0076 11.3862 21.0085 11.2771 21.0094 11.1647C21.0106 11.0813 21.0117 10.9978 21.013 10.9118C21.0461 10.9118 21.0792 10.9118 21.1133 10.9118C21.1243 10.9735 21.1354 11.0353 21.1466 11.0988C21.1626 11.1799 21.1785 11.2611 21.1949 11.3447C21.2101 11.425 21.2252 11.5055 21.2408 11.5882C21.323 11.8427 21.4038 11.955 21.6153 12.1164C21.8725 12.1319 21.8725 12.1319 22.1171 12.016C22.4232 11.6444 22.4726 11.2824 22.5187 10.8114Z" fill="#6087CA"/>
<path d="M19.4881 39.5382C19.6465 39.5786 19.6465 39.5786 19.808 39.6198C19.7482 39.979 19.6073 40.1763 19.3689 40.448C19.308 40.5189 19.2472 40.5899 19.1846 40.6629C19.005 40.8245 19.005 40.8245 18.7039 40.8245C18.6405 40.5371 18.5922 40.3113 18.6034 40.0213C18.8745 39.6063 18.9873 39.5136 19.4881 39.5382Z" fill="#3D5664"/>
<path d="M28.2411 43.335C28.7429 43.5023 29.2449 43.6695 29.7468 43.8368C29.5712 44.2258 29.5712 44.2258 29.3452 44.3388C28.9345 44.3935 28.7896 44.3742 28.4544 44.1192C28.2411 43.8368 28.2411 43.8368 28.2097 43.5545C28.22 43.482 28.2303 43.4095 28.2411 43.335Z" fill="#526F82"/>
<path d="M30.0472 27.4698C30.3107 27.5075 30.3107 27.5075 30.549 27.5703C30.6119 27.8086 30.6119 27.8086 30.6495 28.0721C30.5832 28.1384 30.517 28.2046 30.4487 28.273C30.1852 28.2353 30.1852 28.2353 29.9467 28.1726C29.884 27.9341 29.884 27.9341 29.8464 27.6706C29.9127 27.6043 29.9789 27.5381 30.0472 27.4698Z" fill="#EFE4E4"/>
<path d="M19.5065 27.4698C19.7699 27.5075 19.7699 27.5075 20.0084 27.5703C20.0711 27.8086 20.0711 27.8086 20.1088 28.0721C20.0425 28.1384 19.9763 28.2046 19.908 28.273C19.6445 28.2353 19.6445 28.2353 19.4061 28.1726C19.3434 27.9341 19.3434 27.9341 19.3057 27.6706C19.3719 27.6043 19.4382 27.5381 19.5065 27.4698Z" fill="#EFE0E1"/>
<path d="M36.4723 25.0651C36.7358 25.1027 36.7358 25.1027 36.9742 25.1655C37.0369 25.4038 37.0369 25.4038 37.0746 25.6674C37.0084 25.7336 36.9421 25.7999 36.8738 25.8682C36.6103 25.8305 36.6103 25.8305 36.3719 25.7678C36.3092 25.5293 36.3092 25.5293 36.2715 25.2658C36.3377 25.1995 36.404 25.1333 36.4723 25.0651Z" fill="#EFE4E4"/>
<path d="M13.0827 25.0651C13.3461 25.1027 13.3461 25.1027 13.5845 25.1655C13.6473 25.4038 13.6473 25.4038 13.685 25.6674C13.6187 25.7336 13.5525 25.7999 13.4841 25.8682C13.2207 25.8305 13.2207 25.8305 12.9823 25.7678C12.9195 25.5293 12.9195 25.5293 12.8818 25.2658C12.9481 25.1995 13.0143 25.1333 13.0827 25.0651Z" fill="#EFE0E1"/>
<path d="M30.851 24.2594C31.1144 24.297 31.1144 24.297 31.3529 24.3597C31.4157 24.5981 31.4157 24.5981 31.4533 24.8617C31.387 24.9279 31.3208 24.9942 31.2525 25.0624C30.989 25.0248 30.989 25.0248 30.7506 24.9621C30.6879 24.7237 30.6879 24.7237 30.6501 24.4601C30.7164 24.3939 30.7826 24.3276 30.851 24.2594Z" fill="#EFE4E4"/>
<path d="M18.7039 24.2594C18.9674 24.297 18.9674 24.297 19.2059 24.3597C19.2686 24.5981 19.2686 24.5981 19.3063 24.8617C19.24 24.9279 19.1738 24.9942 19.1055 25.0624C18.842 25.0248 18.842 25.0248 18.6036 24.9621C18.5408 24.7237 18.5408 24.7237 18.5032 24.4601C18.5694 24.3939 18.6357 24.3276 18.7039 24.2594Z" fill="#EFE0E1"/>
<path d="M15.291 19.2396C15.5295 19.227 15.5295 19.227 15.793 19.2396C15.9938 19.4403 15.9938 19.4403 16.0063 19.7038C16.0022 19.7825 15.998 19.8611 15.9938 19.9423C15.8944 19.9754 15.795 20.0085 15.6926 20.0426C15.473 19.9297 15.473 19.9297 15.291 19.7414C15.2659 19.4716 15.2659 19.4716 15.291 19.2396Z" fill="#F5F9FC"/>
<path d="M18.4032 35.4044C18.6249 35.737 18.6265 35.8406 18.6165 36.2263C18.6147 36.3167 18.6129 36.4072 18.6111 36.5004C18.6075 36.6039 18.6075 36.6039 18.604 36.7094C18.4052 36.5438 18.2065 36.3782 18.0017 36.2074C18.1342 35.9424 18.2667 35.6774 18.4032 35.4044Z" fill="#C35151"/>
</svg>
