<svg width="50" height="50" viewBox="0 0 50 50" fill="none" xmlns="http://www.w3.org/2000/svg">
<path d="M12.3629 8.82234C12.7193 8.82596 13.0754 8.82038 13.4317 8.81602C14.1284 8.80898 14.8248 8.81047 15.5215 8.81509C16.088 8.81868 16.6544 8.81916 17.2209 8.81743C17.3017 8.81719 17.3825 8.81695 17.4657 8.8167C17.6299 8.81619 17.7941 8.81567 17.9583 8.81515C19.4957 8.81063 21.033 8.81582 22.5704 8.82436C23.8879 8.83146 25.2051 8.83022 26.5226 8.8229C28.0548 8.81439 29.5868 8.81107 31.1189 8.81594C31.2825 8.81644 31.446 8.81694 31.6096 8.81743C31.69 8.81768 31.7705 8.81792 31.8534 8.81818C32.4188 8.81954 32.9841 8.81724 33.5495 8.8135C34.2392 8.80903 34.9286 8.81027 35.6182 8.81871C35.9698 8.82286 36.3209 8.82454 36.6725 8.81926C38.7222 8.79096 38.7222 8.79096 39.2838 9.18825C39.6497 9.55669 39.8975 9.96871 40.1182 10.4359C40.231 10.6673 40.3745 10.8652 40.5326 11.0676C41.031 11.7557 41.5251 12.4466 42.0138 13.1416C42.3344 13.5968 42.6592 14.0488 42.9859 14.4997C43.4015 15.0732 43.8119 15.65 44.2193 16.2293C44.5399 16.6846 44.8649 17.1365 45.1915 17.5874C45.2863 17.7191 45.3812 17.8507 45.4761 17.9824C45.6743 18.2571 45.8745 18.5301 46.0757 18.8026C46.1743 18.9379 46.2729 19.0732 46.3714 19.2085C46.4416 19.3022 46.4416 19.3022 46.5132 19.3977C46.5764 19.4852 46.5764 19.4852 46.6409 19.5745C46.6972 19.6508 46.6972 19.6508 46.7546 19.7287C46.8236 19.8812 46.8236 19.8812 46.8047 20.0593C46.7299 20.2478 46.6479 20.3637 46.5131 20.5146C46.467 20.5668 46.421 20.619 46.3736 20.6728C46.3238 20.7282 46.2739 20.7836 46.2225 20.8406C46.1173 20.9597 46.0121 21.0788 45.9069 21.198C45.8535 21.2581 45.8001 21.3182 45.7451 21.3802C45.5116 21.6444 45.2825 21.9123 45.0536 22.1805C44.9662 22.2826 44.8788 22.3847 44.7914 22.4869C44.7482 22.5372 44.7051 22.5876 44.6607 22.6396C44.4408 22.8965 44.2206 23.1533 44.0005 23.4101C43.9122 23.513 43.824 23.6159 43.7358 23.7189C36.8545 31.747 36.8545 31.747 36.7221 31.9015C36.6341 32.0042 36.5461 32.1069 36.4581 32.2096C36.2346 32.4705 36.0108 32.7312 35.7865 32.9914C35.3815 33.4619 34.9791 33.9333 34.5883 34.4157C34.2751 34.8017 33.9471 35.1705 33.6123 35.5378C33.4069 35.7689 33.2113 36.006 33.0168 36.2464C32.6983 36.6401 32.3654 37.0163 32.0244 37.3905C31.8189 37.6216 31.6233 37.8586 31.4289 38.099C31.1103 38.4927 30.7774 38.8689 30.4364 39.2431C30.2309 39.4742 30.0353 39.7113 29.8409 39.9517C29.5224 40.3454 29.1894 40.7216 28.8484 41.0958C28.6429 41.3269 28.4473 41.5639 28.2529 41.8043C27.9344 42.198 27.6014 42.5743 27.2604 42.9484C27.0549 43.1796 26.8594 43.4166 26.6649 43.657C26.347 44.0499 26.0152 44.4256 25.6741 44.7984C25.3891 45.1202 25.1244 45.4574 24.8601 45.7964C24.6878 45.9861 24.5627 46.0781 24.327 46.1713C23.7823 45.5879 23.2557 44.9979 22.7549 44.3759C22.5645 44.1446 22.3673 43.9224 22.1656 43.7011C21.8198 43.3217 21.4958 42.9283 21.1731 42.5294C20.9803 42.2965 20.7812 42.0719 20.5776 41.8484C20.2318 41.4691 19.9078 41.0757 19.5851 40.6767C19.3923 40.4438 19.1932 40.2192 18.9896 39.9958C18.6439 39.6164 18.3198 39.223 17.9971 38.8241C17.8043 38.5912 17.6052 38.3666 17.4016 38.1431C17.0559 37.7638 16.7318 37.3704 16.4091 36.9714C16.2163 36.7385 16.0172 36.5139 15.8136 36.2905C15.5469 35.9976 15.2909 35.6996 15.0417 35.3917C14.5816 34.8236 14.1009 34.2742 13.621 33.7229C13.3931 33.4604 13.1669 33.1966 12.9409 32.9325C12.8976 32.8819 12.8543 32.8313 12.8096 32.7792C12.7224 32.6773 12.6352 32.5754 12.548 32.4734C12.328 32.2165 12.1079 31.9597 11.8877 31.7029C11.7995 31.6 11.7113 31.4971 11.6231 31.3942C11.5794 31.3432 11.5357 31.2923 11.4907 31.2398C9.59397 29.0269 7.6972 26.814 5.80043 24.6011C5.75674 24.5501 5.71305 24.4991 5.66803 24.4466C5.58001 24.3439 5.492 24.2412 5.40401 24.1385C5.1805 23.8776 4.95672 23.6169 4.73246 23.3567C4.32747 22.8862 3.92504 22.4148 3.53423 21.9324C3.21529 21.5392 2.88236 21.1618 2.54001 20.7889C2.48054 20.7223 2.42106 20.6556 2.35978 20.587C2.25828 20.4788 2.25828 20.4788 2.15473 20.3685C2.00689 20.1459 2.00689 20.1459 2 19.937C2.13512 19.6071 2.33775 19.3543 2.55828 19.0762C2.96679 18.5474 3.35399 18.0093 3.72722 17.4551C4.12241 16.8701 4.53255 16.3013 4.9606 15.74C5.29974 15.2922 5.6183 14.8327 5.93276 14.3673C6.33072 13.7787 6.74269 13.2051 7.17254 12.6394C7.43794 12.2893 7.69752 11.936 7.9495 11.5761C8.0373 11.4517 8.12607 11.3279 8.21614 11.205C8.45135 10.8811 8.65545 10.5651 8.82818 10.2035C9.60489 8.70469 10.8536 8.79967 12.3629 8.82234Z" fill="#54C0EB"/>
<path d="M23.4449 9.02936C25.461 8.9922 27.4771 8.96423 29.4935 8.94708C30.4298 8.93891 31.3659 8.92777 32.3021 8.90956C33.1185 8.89369 33.9347 8.88348 34.7513 8.87995C35.1834 8.87789 35.6151 8.87307 36.0471 8.86146C38.8893 8.78799 38.8893 8.78799 39.5214 9.37764C39.789 9.70319 39.9733 10.0446 40.13 10.4346C40.2306 10.6732 40.372 10.8653 40.5327 11.0671C41.0312 11.7551 41.5252 12.446 42.0139 13.141C42.3345 13.5962 42.6594 14.0482 42.9861 14.4991C43.4016 15.0726 43.8121 15.6494 44.2195 16.2287C44.5401 16.684 44.8649 17.136 45.1916 17.5869C45.5855 18.131 45.9775 18.6765 46.3661 19.2245C46.4121 19.2891 46.4582 19.3538 46.5056 19.4204C46.8237 19.8703 46.8237 19.8703 46.8237 19.9689C46.726 19.9692 46.726 19.9692 46.6264 19.9695C45.0332 19.9747 43.4401 19.9814 41.847 19.9897C41.0766 19.9936 40.3061 19.9971 39.5357 19.9994C38.8632 20.0015 38.1908 20.0044 37.5184 20.0084C37.1632 20.0105 36.808 20.0122 36.4527 20.0128C34.9465 20.0154 33.4915 20.0603 32.0025 20.3217C31.886 21.0787 31.7696 21.8356 31.6496 22.6155C31.5913 22.6155 31.5331 22.6155 31.4731 22.6155C31.3858 22.0041 31.3858 22.0041 31.2967 21.3804C31.1639 21.6459 31.0787 21.849 31.0026 22.1284C30.9808 22.2076 30.9591 22.2868 30.9367 22.3683C30.9133 22.4549 30.8899 22.5415 30.8658 22.6308C30.8405 22.723 30.8153 22.8153 30.7893 22.9104C30.7045 23.2205 30.6203 23.5307 30.5361 23.841C30.4756 24.0629 30.415 24.2848 30.3544 24.5068C30.2238 24.9851 30.0935 25.4636 29.9634 25.9421C29.7748 26.6353 29.5859 27.3284 29.3968 28.0214C29.3086 28.3445 29.2205 28.6676 29.1324 28.9907C29.1147 29.0554 29.0971 29.1202 29.0789 29.1868C28.9519 29.6524 28.825 30.118 28.6981 30.5837C28.01 33.1092 27.3199 35.6343 26.6293 38.1592C26.427 38.8988 26.2247 39.6385 26.0226 40.3782C25.8963 40.8403 25.77 41.3023 25.6436 41.7644C25.5855 41.9771 25.5273 42.1899 25.4692 42.4027C25.1499 43.5712 24.8291 44.7393 24.5036 45.9061C24.4454 45.9061 24.3872 45.9061 24.3272 45.9061C23.6454 43.5419 22.9787 41.1735 22.3146 38.8042C22.2822 38.6884 22.2822 38.6884 22.2491 38.5703C21.9569 37.5279 21.6649 36.4855 21.3729 35.443C21.0546 34.3068 20.7362 33.1706 20.4177 32.0344C20.2931 31.5901 20.1687 31.1458 20.0444 30.7015C19.5955 29.0973 19.1432 27.4942 18.6851 25.8926C18.5354 25.3689 18.3862 24.845 18.237 24.3212C18.0936 23.8178 17.9492 23.3147 17.8042 22.8118C17.715 22.5018 17.6267 22.1915 17.5385 21.8811C17.4974 21.7369 17.4559 21.5928 17.414 21.4488C17.3568 21.2518 17.3008 21.0546 17.2451 20.8572C17.2134 20.7468 17.1817 20.6363 17.1491 20.5226C17.0506 20.015 17.2058 19.7137 17.4583 19.2772C17.5158 19.1772 17.5732 19.0772 17.6325 18.9741C17.6952 18.8664 17.758 18.7587 17.8208 18.651C17.8855 18.5391 17.9502 18.4271 18.0149 18.315C18.4846 17.5024 18.9608 16.6936 19.4402 15.8865C19.7849 15.3059 20.1262 14.7234 20.4675 14.1407C20.4988 14.0873 20.53 14.0339 20.5623 13.9788C20.69 13.7607 20.8178 13.5426 20.9455 13.3244C21.178 12.9276 21.4108 12.5309 21.6436 12.1344C21.7434 11.9645 21.8431 11.7946 21.9428 11.6246C22.0054 11.518 22.0681 11.4114 22.1307 11.3047C22.4617 10.7417 22.79 10.1773 23.1136 9.61002C23.1457 9.55377 23.1778 9.49753 23.2109 9.43958C23.2889 9.30285 23.3669 9.16611 23.4449 9.02936Z" fill="#83DAFE"/>
<path d="M36.6614 19.942C37.0199 19.9437 37.3784 19.9438 37.7369 19.9441C38.4127 19.9449 39.0884 19.9471 39.7642 19.9498C40.5348 19.9527 41.3055 19.9542 42.0762 19.9555C43.6586 19.9583 45.241 19.9629 46.8234 19.9688C46.6582 20.3215 46.428 20.5933 46.1727 20.8841C46.0765 20.9951 45.9802 21.106 45.8839 21.217C45.8347 21.2735 45.7855 21.33 45.7348 21.3882C45.5081 21.649 45.2836 21.9117 45.0589 22.1744C44.9707 22.2773 44.8825 22.3802 44.7943 22.4831C44.7288 22.5596 44.7288 22.5596 44.6619 22.6375C36.8543 31.7464 36.8543 31.7464 36.7219 31.9009C36.6339 32.0036 36.5459 32.1063 36.4579 32.209C36.2344 32.4699 36.0106 32.7306 35.7863 32.9908C35.3814 33.4613 34.9789 33.9327 34.5881 34.4151C34.2749 34.8011 33.9469 35.1699 33.6122 35.5372C33.4067 35.7683 33.2111 36.0053 33.0167 36.2457C32.6982 36.6394 32.3652 37.0157 32.0242 37.3899C31.8187 37.621 31.6231 37.858 31.4287 38.0984C31.1102 38.4921 30.7772 38.8683 30.4362 39.2425C30.2307 39.4736 30.0352 39.7107 29.8407 39.951C29.5222 40.3448 29.1892 40.721 28.8482 41.0952C28.6427 41.3263 28.4472 41.5633 28.2527 41.8037C27.9342 42.1974 27.6012 42.5736 27.2602 42.9478C27.0548 43.1789 26.8592 43.416 26.6647 43.6564C26.3469 44.0492 26.015 44.4248 25.6743 44.7977C25.3878 45.1207 25.1194 45.4575 24.8513 45.7957C24.6797 45.9942 24.6797 45.9942 24.415 46.1707C24.6624 45.0842 24.9404 44.0085 25.2342 42.9337C25.2806 42.763 25.3271 42.5924 25.3735 42.4217C25.4996 41.958 25.6261 41.4945 25.7526 41.0309C25.8599 40.6378 25.967 40.2446 26.074 39.8513C26.4292 38.5472 26.7851 37.2432 27.1412 35.9393C27.2401 35.5768 27.3391 35.2143 27.438 34.8518C27.902 33.1522 28.3663 31.4526 28.8308 29.7531C28.881 29.5694 28.9312 29.3858 28.9814 29.2021C29.7184 26.5052 30.4558 23.8084 31.2081 21.1157C31.422 21.4366 31.4187 21.6324 31.4397 22.0145C31.4496 22.1828 31.4496 22.1828 31.4597 22.3546C31.464 22.4407 31.4683 22.5268 31.4728 22.6155C31.531 22.6155 31.5892 22.6155 31.6492 22.6155C31.6557 22.5002 31.6557 22.5002 31.6623 22.3825C31.7835 20.4521 31.7835 20.4521 32.0021 20.2335C33.5406 19.9056 35.0976 19.9334 36.6614 19.942Z" fill="#54C0EB"/>
<path d="M31.4729 17.3203C31.5311 17.3203 31.5894 17.3203 31.6494 17.3203C31.6941 17.572 31.7381 17.8238 31.7817 18.0757C31.7943 18.1463 31.8069 18.2168 31.82 18.2895C31.8918 18.7085 31.9277 19.1008 31.914 19.5259C32.0276 19.5376 32.1413 19.5493 32.2583 19.5614C32.6923 19.6096 33.1214 19.6779 33.5516 19.7519C33.6238 19.7642 33.696 19.7764 33.7703 19.789C33.9456 19.8187 34.1208 19.8487 34.296 19.8787C34.296 19.9079 34.296 19.937 34.296 19.967C33.5391 20.0834 32.7821 20.1999 32.0023 20.3199C31.8858 21.0768 31.7693 21.8337 31.6494 22.6136C31.5911 22.6136 31.5329 22.6136 31.4729 22.6136C31.3856 22.0022 31.3856 22.0022 31.2965 21.3785C31.1637 21.644 31.0785 21.8471 31.0024 22.1266C30.9806 22.2057 30.9589 22.2849 30.9365 22.3664C30.9131 22.453 30.8897 22.5396 30.8656 22.6289C30.8403 22.7212 30.8151 22.8134 30.7891 22.9085C30.7043 23.2186 30.6201 23.5288 30.5359 23.8391C30.4754 24.061 30.4148 24.2829 30.3542 24.5049C30.2236 24.9832 30.0933 25.4617 29.9632 25.9402C29.7746 26.6334 29.5857 27.3265 29.3966 28.0195C29.3084 28.3426 29.2203 28.6657 29.1322 28.9888C29.1145 29.0535 29.0969 29.1183 29.0787 29.185C28.9517 29.6505 28.8248 30.1161 28.6979 30.5818C28.0098 33.1073 27.3197 35.6324 26.6291 38.1573C26.4268 38.8969 26.2245 39.6366 26.0224 40.3763C25.8961 40.8384 25.7698 41.3004 25.6434 41.7625C25.5853 41.9752 25.5271 42.188 25.469 42.4008C25.1497 43.5693 24.8289 44.7374 24.5034 45.9042C24.4452 45.9042 24.387 45.9042 24.327 45.9042C23.6452 43.54 22.9785 41.1716 22.3144 38.8023C22.2819 38.6865 22.2819 38.6865 22.2488 38.5684C21.9567 37.526 21.6646 36.4836 21.3727 35.4411C21.0544 34.3049 20.736 33.1686 20.4175 32.0325C20.3137 31.6621 20.2099 31.2917 20.1061 30.9213C19.6356 29.2419 19.1633 27.5631 18.6876 25.8853C18.6125 25.6203 18.5374 25.3553 18.4624 25.0903C18.4131 24.9164 18.3639 24.7425 18.3146 24.5686C18.2904 24.4833 18.2663 24.398 18.2414 24.3101C18.0983 23.8051 17.9549 23.3002 17.8113 22.7954C17.7229 22.4845 17.6347 22.1735 17.5467 21.8625C17.5056 21.7177 17.4645 21.573 17.4232 21.4282C17.3668 21.2307 17.3108 21.033 17.2549 20.8352C17.2077 20.669 17.2077 20.669 17.1595 20.4995C17.0928 20.2316 17.0928 20.2316 17.0928 19.967C17.1815 19.9665 17.1815 19.9665 17.2719 19.9661C18.7138 19.9589 20.1557 19.9508 21.5976 19.9416C22.2949 19.9372 22.9921 19.9331 23.6894 19.9297C24.2976 19.9268 24.9057 19.9233 25.5138 19.9191C25.8354 19.9169 26.1571 19.9149 26.4788 19.9137C26.8388 19.9124 27.1988 19.9097 27.5589 19.9069C27.6643 19.9067 27.7697 19.9065 27.8783 19.9063C28.5071 19.9001 29.0939 19.8338 29.7085 19.7023C29.8959 19.6686 30.0833 19.6354 30.2709 19.6031C30.3553 19.5883 30.4397 19.5735 30.5266 19.5583C30.7573 19.5272 30.9758 19.5199 31.2083 19.5259C31.2055 19.4411 31.2028 19.3564 31.2 19.2691C31.2 18.8632 31.2693 18.4743 31.3406 18.0757C31.3532 18.0028 31.3658 17.9298 31.3788 17.8546C31.4097 17.6765 31.4413 17.4984 31.4729 17.3203Z" fill="#F1F2F2"/>
<path d="M9.77035 9.02734C9.82858 9.02734 9.88681 9.02734 9.9468 9.02734C10.0634 9.18031 10.0634 9.18031 10.197 9.39608C10.2467 9.47555 10.2965 9.55503 10.3478 9.63691C10.4277 9.76641 10.4277 9.76641 10.5092 9.89853C10.621 10.077 10.7328 10.2554 10.8449 10.4337C10.9294 10.5685 10.9294 10.5685 11.0157 10.706C11.2565 11.0859 11.5048 11.4604 11.7553 11.8339C11.7966 11.8954 11.8378 11.9568 11.8802 12.0201C11.9593 12.1378 12.0384 12.2555 12.1175 12.3731C12.3359 12.6982 12.5528 13.0243 12.7699 13.3502C12.8572 12.8262 12.9446 12.3021 13.0346 11.7622C13.0928 11.7622 13.151 11.7622 13.211 11.7622C13.2559 12.0433 13.2997 12.3246 13.3433 12.6058C13.356 12.6848 13.3686 12.7638 13.3816 12.8452C13.4491 13.284 13.4903 13.7002 13.4757 14.1442C13.5737 14.1485 13.6717 14.1529 13.7727 14.1573C14.481 14.1918 15.1671 14.2341 15.8577 14.4089C15.5453 14.6171 15.2548 14.6651 14.8927 14.7287C14.8296 14.7405 14.7664 14.7523 14.7013 14.7645C14.4036 14.8186 14.1322 14.85 13.8286 14.85C14.1076 15.4475 14.4514 15.9809 14.821 16.5262C14.8821 16.6171 14.9432 16.7081 15.0061 16.8018C15.2013 17.0925 15.3971 17.3828 15.593 17.6731C15.8582 18.0661 16.1227 18.4595 16.387 18.853C16.4797 18.9899 16.4797 18.9899 16.5742 19.1294C16.6307 19.2136 16.6872 19.2977 16.7454 19.3844C16.8206 19.4959 16.8206 19.4959 16.8974 19.6096C17.0045 19.7904 17.0045 19.7904 17.0045 19.9668C12.0553 19.9668 7.10605 19.9668 2.00684 19.9668C2.40373 19.2723 2.40373 19.2723 2.60475 18.9974C2.64945 18.936 2.69415 18.8745 2.7402 18.8112C2.7875 18.7467 2.8348 18.6823 2.88354 18.6159C2.98624 18.4749 3.08894 18.3338 3.19163 18.1928C3.27005 18.0854 3.27005 18.0854 3.35006 17.9758C3.5962 17.6385 3.84099 17.3002 4.08556 16.9618C4.13303 16.8961 4.18051 16.8305 4.22942 16.7628C4.59438 16.2572 4.95435 15.7483 5.31306 15.2382C5.68556 14.7094 6.06372 14.1847 6.44308 13.6607C6.73019 13.2641 7.01606 12.8667 7.30014 12.468C7.68466 11.9284 8.07214 11.391 8.46109 10.8545C8.69354 10.5336 8.9244 10.2118 9.15108 9.88682C9.21181 9.80016 9.21181 9.80016 9.27376 9.71175C9.3495 9.60343 9.42476 9.49477 9.49948 9.38574C9.58544 9.26312 9.67734 9.1447 9.77035 9.02734Z" fill="#84DBFE"/>
<path d="M38.8836 9.02734C39.1714 9.1233 39.2031 9.15866 39.3654 9.39643C39.4269 9.48522 39.4269 9.48522 39.4896 9.5758C39.5334 9.64045 39.5773 9.7051 39.6224 9.77172C39.7177 9.90951 39.813 10.0472 39.9085 10.1849C39.9577 10.2562 40.0069 10.3275 40.0576 10.4009C40.294 10.7404 40.5372 11.0748 40.7804 11.4093C41.196 11.9828 41.6064 12.5596 42.0137 13.139C42.3343 13.5942 42.6592 14.0462 42.9859 14.4971C43.4015 15.0706 43.8119 15.6474 44.2193 16.2267C44.5399 16.682 44.8648 17.134 45.1914 17.5849C45.5854 18.129 45.9773 18.6745 46.3659 19.2225C46.412 19.2871 46.458 19.3518 46.5055 19.4184C46.8235 19.8683 46.8235 19.8683 46.8235 19.9668C45.2313 19.9772 43.6391 19.985 42.0468 19.9897C41.3072 19.992 40.5676 19.995 39.8281 20.0001C39.1822 20.0046 38.5364 20.0074 37.8905 20.0083C37.5496 20.0089 37.2088 20.0102 36.8679 20.0135C35.1669 20.0292 33.5781 19.912 31.9141 19.5257C32.0395 19.2706 32.175 19.0337 32.3314 18.7961C32.4039 18.6855 32.4039 18.6855 32.4779 18.5727C32.5302 18.4935 32.5825 18.4143 32.6364 18.3327C32.6908 18.2499 32.7453 18.1672 32.8014 18.082C32.917 17.9065 33.0326 17.731 33.1484 17.5556C33.3228 17.2914 33.4967 17.0268 33.6706 16.7623C34.62 15.3205 34.62 15.3205 35.0925 14.6704C35.6976 13.8378 36.2523 12.9706 36.8159 12.1096C37.0382 11.7703 37.2607 11.431 37.4834 11.0919C37.5362 11.0116 37.589 10.9312 37.6433 10.8484C38.0474 10.2347 38.4602 9.62789 38.8836 9.02734Z" fill="#83DAFE"/>
<path d="M25.8271 9.02734C30.1359 9.02734 34.4447 9.02734 38.884 9.02734C38.7276 9.41837 38.5822 9.65969 38.3353 9.99227C37.9443 10.5279 37.5742 11.0754 37.2105 11.6299C37.1566 11.712 37.1027 11.7942 37.0471 11.8788C36.8799 12.1339 36.713 12.3892 36.5461 12.6444C35.2926 14.562 35.2926 14.562 34.7165 15.355C34.4003 15.7925 34.101 16.2405 33.8029 16.6906C33.7282 16.8034 33.7282 16.8034 33.652 16.9185C33.4462 17.2296 33.2408 17.5408 33.0357 17.8523C32.8838 18.0828 32.7314 18.313 32.5789 18.5432C32.5324 18.6142 32.4859 18.6851 32.438 18.7582C32.3949 18.8231 32.3519 18.888 32.3075 18.9548C32.2698 19.012 32.2321 19.0692 32.1933 19.1282C32.0909 19.2611 32.0909 19.2611 31.9145 19.3493C31.8699 19.0939 31.8259 18.8384 31.7821 18.5829C31.7695 18.5108 31.7569 18.4388 31.7439 18.3646C31.684 18.0128 31.6323 17.6786 31.6498 17.3202C31.5916 17.3202 31.5333 17.3202 31.4733 17.3202C31.469 17.3938 31.4647 17.4673 31.4602 17.5432C31.421 18.1337 31.3545 18.6874 31.2087 19.2611C31.0171 19.0173 30.8649 18.7739 30.7238 18.4981C30.6824 18.4178 30.641 18.3375 30.5983 18.2547C30.5541 18.1683 30.5099 18.0819 30.4643 17.9929C30.1144 17.3152 29.7581 16.6423 29.3891 15.9748C28.7373 14.7917 28.1284 13.5864 27.5128 12.3843C27.255 11.8814 26.9948 11.3799 26.7314 10.88C26.6975 10.8156 26.6635 10.7511 26.6286 10.6847C26.3957 10.2445 26.1568 9.808 25.9119 9.37437C25.8271 9.20379 25.8271 9.20379 25.8271 9.02734Z" fill="#54C0EB"/>
<path d="M41.6185 1C41.6476 1 41.6767 1 41.7067 1C41.8076 1.57142 41.9081 2.14291 42.0082 2.71447C42.0424 2.90891 42.0766 3.10333 42.1109 3.29773C42.1603 3.57711 42.2092 3.85655 42.2581 4.13601C42.2735 4.22296 42.289 4.3099 42.3049 4.39948C42.319 4.48071 42.3331 4.56193 42.3477 4.64561C42.3665 4.75257 42.3665 4.75257 42.3857 4.8617C42.4125 5.0582 42.4125 5.0582 42.4125 5.41109C42.4632 5.41445 42.5138 5.41781 42.566 5.42128C43.3277 5.48069 44.0779 5.59978 44.8314 5.72243C45.0552 5.75872 45.2792 5.79402 45.5032 5.82928C45.6464 5.85237 45.7896 5.87551 45.9327 5.89872C45.9993 5.90911 46.0658 5.9195 46.1344 5.93021C46.4501 5.9825 46.7245 6.03762 47 6.20508C46.4683 6.34612 45.9386 6.44762 45.3955 6.53385C45.3123 6.54731 45.2291 6.56076 45.1433 6.57463C44.8801 6.61715 44.6167 6.65925 44.3534 6.70133C44.1738 6.73025 43.9943 6.7592 43.8147 6.78818C43.3768 6.8588 42.9388 6.92904 42.5007 6.99908C42.2921 8.08004 42.0895 9.16137 41.9052 10.2467C41.876 10.4172 41.876 10.4172 41.8463 10.5912C41.7996 10.8642 41.7531 11.1371 41.7067 11.4102C41.6194 11.3665 41.6194 11.3665 41.5303 11.3219C41.4856 11.1524 41.4856 11.1524 41.4535 10.9274C41.4412 10.8435 41.4288 10.7596 41.4161 10.6731C41.4035 10.5818 41.3909 10.4904 41.3779 10.3963C41.3645 10.3031 41.351 10.2098 41.3372 10.1138C41.2942 9.81449 41.2523 9.51508 41.2105 9.21565C41.1816 9.01427 41.1526 8.8129 41.1236 8.61154C41.0962 8.41983 41.0689 8.22811 41.0416 8.03638C41.0222 7.8999 41.0222 7.8999 41.0023 7.76066C40.9905 7.67619 40.9788 7.59171 40.9666 7.50468C40.9562 7.4303 40.9457 7.35593 40.935 7.2793C40.9127 7.0873 40.9127 7.0873 40.9127 6.82264C40.8406 6.81876 40.7686 6.81489 40.6943 6.8109C39.9189 6.7631 39.1596 6.67078 38.3928 6.54899C38.2023 6.51889 38.0117 6.49007 37.821 6.46131C37.6988 6.44226 37.5766 6.42313 37.4545 6.40393C37.3455 6.38693 37.2364 6.36994 37.1241 6.35243C36.8545 6.29331 36.8545 6.29331 36.5898 6.11686C37.1345 6.02843 37.6793 5.94054 38.2241 5.85302C38.4094 5.82319 38.5946 5.79324 38.7799 5.76316C39.0463 5.71991 39.3128 5.67711 39.5794 5.6344C39.662 5.62089 39.7447 5.60738 39.8298 5.59347C39.9075 5.5811 39.9852 5.56874 40.0652 5.556C40.1332 5.54503 40.2012 5.53406 40.2712 5.52276C40.4867 5.49755 40.6959 5.49538 40.9127 5.49931C40.9203 5.44424 40.9278 5.38918 40.9356 5.33244C41.0138 4.76141 41.0926 4.19045 41.1717 3.61954C41.2012 3.40621 41.2305 3.19286 41.2598 2.9795C41.3017 2.67354 41.3441 2.36764 41.3866 2.06176C41.3996 1.96573 41.4127 1.8697 41.4261 1.77076C41.4385 1.68245 41.4508 1.59414 41.4636 1.50316C41.4743 1.42499 41.4851 1.34683 41.4962 1.26629C41.5303 1.08822 41.5303 1.08822 41.6185 1Z" fill="#FFD15C"/>
<path d="M6.68219 3.46875C6.7113 3.46875 6.74042 3.46875 6.77041 3.46875C6.83367 3.86266 6.89648 4.25663 6.95888 4.65068C6.98015 4.78461 7.00154 4.91852 7.02306 5.05241C7.05404 5.2453 7.08457 5.43825 7.11503 5.63122C7.12468 5.69069 7.13433 5.75017 7.14427 5.81144C7.19277 6.12169 7.22209 6.41892 7.21152 6.73296C7.28021 6.73625 7.3489 6.73955 7.41967 6.74295C8.08169 6.78185 8.7334 6.85265 9.3895 6.948C9.46652 6.95878 9.54354 6.96956 9.62289 6.98067C9.69542 6.99161 9.76794 7.00255 9.84267 7.01382C9.90734 7.02342 9.97201 7.03302 10.0386 7.04292C10.2111 7.08584 10.2111 7.08584 10.4757 7.26229C9.93354 7.36603 9.39127 7.46932 8.84892 7.57218C8.66571 7.60706 8.48258 7.6424 8.29948 7.67789C8.21703 7.69359 8.13458 7.70928 8.04963 7.72545C7.9814 7.73864 7.91316 7.75183 7.84286 7.76543C7.63051 7.79466 7.42565 7.7933 7.21152 7.79162C7.20726 7.85499 7.20301 7.91836 7.19862 7.98365C7.14871 8.65536 7.05721 9.31186 6.94134 9.97511C6.92491 10.0713 6.90848 10.1675 6.89155 10.2667C6.85157 10.5004 6.81119 10.734 6.77041 10.9676C6.53704 10.7342 6.54497 10.5773 6.49954 10.2522C6.48419 10.1437 6.46884 10.0352 6.45302 9.92341C6.43767 9.80946 6.42232 9.69551 6.4065 9.57811C6.39046 9.46552 6.37443 9.35294 6.35791 9.23694C6.29042 8.7508 6.23152 8.28322 6.24108 7.79162C6.16571 7.786 6.16571 7.786 6.08881 7.78027C5.44896 7.7252 4.82926 7.60774 4.20095 7.47733C4.09974 7.45669 3.99853 7.43605 3.89425 7.41478C3.64719 7.36434 3.40022 7.3135 3.15332 7.26229C3.38295 7.03265 3.52997 7.03779 3.84945 6.99142C3.95396 6.97607 4.05847 6.96071 4.16615 6.9449C4.27589 6.92954 4.38563 6.91419 4.4987 6.89837C4.60708 6.88234 4.71546 6.8663 4.82712 6.84978C5.30326 6.78117 5.75918 6.72363 6.24108 6.73296C6.24438 6.67166 6.24768 6.61036 6.25108 6.54721C6.29325 5.89478 6.36945 5.25171 6.46164 4.60461C6.47316 4.52304 6.48468 4.44148 6.49655 4.35745C6.54151 4.04912 6.58342 3.76508 6.68219 3.46875Z" fill="#CDD6E0"/>
<path d="M13.0347 11.7617C13.0929 11.7617 13.1511 11.7617 13.2111 11.7617C13.256 12.0428 13.2998 12.3241 13.3435 12.6053C13.3561 12.6843 13.3687 12.7633 13.3817 12.8447C13.4492 13.2835 13.4904 13.6997 13.4758 14.1437C13.5738 14.148 13.6718 14.1523 13.7728 14.1568C14.4811 14.1913 15.1672 14.2336 15.8578 14.4084C15.5994 14.5806 15.4681 14.6241 15.1713 14.6792C15.0898 14.6946 15.0082 14.7099 14.9242 14.7258C14.8393 14.7411 14.7543 14.7565 14.6668 14.7723C14.5818 14.7883 14.4969 14.8044 14.4094 14.8209C13.7796 14.9377 13.7796 14.9377 13.4758 14.9377C13.4709 14.9879 13.466 15.0381 13.461 15.0899C13.4385 15.3204 13.4158 15.5508 13.3931 15.7813C13.3816 15.8998 13.3816 15.8998 13.3698 16.0207C13.3473 16.2479 13.3237 16.475 13.2993 16.7021C13.2898 16.7973 13.2898 16.7973 13.28 16.8944C13.2634 17.037 13.2382 17.1787 13.2111 17.3197C13.1238 17.3634 13.1238 17.3634 13.0347 17.4079C12.9753 17.0643 12.9167 16.7206 12.8582 16.3768C12.833 16.2309 12.833 16.2309 12.8072 16.082C12.7913 15.9879 12.7754 15.8938 12.759 15.7968C12.7442 15.7104 12.7294 15.624 12.7142 15.535C12.6834 15.303 12.6758 15.0832 12.6818 14.8495C12.619 14.8424 12.5563 14.8353 12.4916 14.828C12.2076 14.7955 11.9236 14.7618 11.6397 14.7282C11.4915 14.7115 11.4915 14.7115 11.3404 14.6944C11.2457 14.683 11.151 14.6717 11.0535 14.6599C10.9662 14.6498 10.8788 14.6396 10.7889 14.6291C10.5645 14.5848 10.5645 14.5848 10.2998 14.4084C11.5226 14.2337 11.5226 14.2337 12.77 14.0555C12.7991 13.7061 12.8282 13.3568 12.8582 12.9968C12.8871 12.7686 12.9178 12.5406 12.952 12.3131C12.9676 12.208 12.9831 12.1029 12.9992 11.9947C13.0109 11.9178 13.0226 11.8409 13.0347 11.7617Z" fill="#F5FBFE"/>
<path d="M9.68242 1C9.87107 1.28297 9.90602 1.45137 9.95811 1.78297C9.9729 1.87372 9.98768 1.96447 10.0029 2.05797C10.0321 2.2971 10.0415 2.52394 10.0353 2.76444C10.0951 2.76876 10.1549 2.77308 10.2166 2.77753C10.7846 2.82316 11.3319 2.90487 11.888 3.0291C11.6345 3.1981 11.5549 3.23131 11.2694 3.26137C11.1692 3.27246 11.1692 3.27246 11.0669 3.28377C10.9976 3.29071 10.9283 3.29765 10.8569 3.30479C10.7865 3.31241 10.7162 3.32003 10.6437 3.32788C10.4704 3.34657 10.297 3.36436 10.1235 3.38199C10.1144 3.49298 10.1053 3.60398 10.096 3.71833C10.0427 4.20996 9.91119 4.67352 9.77064 5.14642C9.60164 4.89292 9.56843 4.81338 9.53837 4.52784C9.52728 4.42762 9.52728 4.42762 9.51597 4.32538C9.50903 4.25606 9.5021 4.18675 9.49495 4.11533C9.48733 4.04499 9.47971 3.97466 9.47186 3.90219C9.45318 3.72886 9.43538 3.55543 9.41776 3.38199C9.25996 3.36595 9.25996 3.36595 9.09899 3.34959C8.96079 3.3347 8.8226 3.31976 8.68441 3.30479C8.58044 3.29439 8.58044 3.29439 8.47437 3.28377C8.40756 3.27638 8.34074 3.26899 8.27191 3.26137C8.21046 3.2549 8.14901 3.24844 8.08571 3.24177C7.91799 3.20554 7.91799 3.20554 7.65332 3.0291C7.8793 2.98449 8.10537 2.94046 8.33153 2.89677C8.39515 2.88415 8.45878 2.87152 8.52434 2.85852C8.85653 2.79481 9.16586 2.74834 9.50598 2.76444C9.514 2.62882 9.514 2.62882 9.52217 2.49047C9.52963 2.37042 9.53709 2.25038 9.54457 2.13034C9.54804 2.07092 9.55151 2.0115 9.55509 1.95028C9.57561 1.62664 9.60938 1.3161 9.68242 1Z" fill="#FFD15B"/>
<path d="M29.2783 19.7812C29.362 19.7849 29.4457 19.7885 29.5319 19.7923C29.5028 19.8796 29.4737 19.967 29.4437 20.0569C29.2399 20.0278 29.0361 19.9987 28.8262 19.9687C29.0026 19.7923 29.0026 19.7923 29.2783 19.7812Z" fill="#E8F7FE"/>
</svg>
