<svg width="50" height="50" viewBox="0 0 50 50" fill="none" xmlns="http://www.w3.org/2000/svg">
<g clip-path="url(#clip0_1_2699)">
<path d="M11.5143 8.65853C11.9103 8.66254 12.306 8.65636 12.7019 8.65153C13.476 8.64374 14.2498 8.64539 15.0239 8.6505C15.6533 8.65448 16.2827 8.65501 16.9121 8.65309C17.0019 8.65283 17.0917 8.65256 17.1841 8.65229C17.3666 8.65172 17.549 8.65115 17.7314 8.65057C19.4397 8.64557 21.1478 8.65131 22.856 8.66076C24.3199 8.66862 25.7834 8.66725 27.2473 8.65915C28.9498 8.64973 30.652 8.64605 32.3543 8.65144C32.5361 8.652 32.7178 8.65255 32.8996 8.65309C32.9889 8.65337 33.0783 8.65364 33.1704 8.65392C33.7987 8.65543 34.4268 8.65288 35.055 8.64874C35.8213 8.6438 36.5873 8.64517 37.3536 8.65451C37.7442 8.6591 38.1343 8.66096 38.525 8.65512C40.8024 8.62379 40.8024 8.62379 41.4264 9.06355C41.833 9.47138 42.1083 9.92744 42.3536 10.4446C42.4789 10.7007 42.6383 10.9198 42.814 11.1438C43.3678 11.9055 43.9168 12.6702 44.4598 13.4395C44.816 13.9434 45.1769 14.4437 45.5399 14.9428C46.0017 15.5776 46.4577 16.216 46.9103 16.8573C47.2666 17.3612 47.6277 17.8615 47.9906 18.3606C48.0959 18.5063 48.2013 18.652 48.3068 18.7978C48.527 19.1018 48.7494 19.404 48.973 19.7057C49.0826 19.8554 49.1921 20.0052 49.3016 20.1549C49.3796 20.2587 49.3796 20.2587 49.4591 20.3644C49.5293 20.4612 49.5293 20.4612 49.601 20.5601C49.6636 20.6445 49.6636 20.6445 49.7273 20.7308C49.804 20.8996 49.804 20.8996 49.783 21.0967C49.6999 21.3053 49.6088 21.4336 49.459 21.6007C49.4078 21.6584 49.3567 21.7162 49.304 21.7758C49.2487 21.8371 49.1932 21.8984 49.1361 21.9615C49.0192 22.0933 48.9023 22.2252 48.7854 22.3571C48.7261 22.4236 48.6668 22.4902 48.6057 22.5588C48.3462 22.8512 48.0917 23.1478 47.8373 23.4446C47.7402 23.5577 47.6431 23.6707 47.546 23.7838C47.498 23.8395 47.4501 23.8953 47.4008 23.9528C47.1564 24.2372 46.9118 24.5214 46.6672 24.8057C46.5691 24.9196 46.4711 25.0335 46.3731 25.1475C38.7272 34.0338 38.7272 34.0338 38.5801 34.2048C38.4823 34.3185 38.3846 34.4321 38.2868 34.5458C38.0384 34.8346 37.7898 35.1232 37.5406 35.4112C37.0906 35.932 36.6434 36.4538 36.2092 36.9878C35.8612 37.415 35.4968 37.8232 35.1248 38.2298C34.8966 38.4856 34.6792 38.7481 34.4631 39.0141C34.1092 39.4499 33.7393 39.8664 33.3604 40.2806C33.1321 40.5364 32.9148 40.7987 32.6988 41.0648C32.3448 41.5006 31.9749 41.917 31.596 42.3312C31.3677 42.587 31.1503 42.8494 30.9343 43.1155C30.5804 43.5513 30.2104 43.9677 29.8316 44.3819C29.6032 44.6377 29.3859 44.9001 29.1699 45.1662C28.816 45.602 28.446 46.0185 28.0671 46.4326C27.8388 46.6885 27.6216 46.9508 27.4054 47.2169C27.0522 47.6518 26.6836 48.0677 26.3046 48.4803C25.9879 48.8365 25.6938 49.2098 25.4001 49.585C25.2087 49.795 25.0697 49.8968 24.8078 50C24.2026 49.3542 23.6174 48.7012 23.061 48.0127C22.8494 47.7567 22.6303 47.5107 22.4062 47.2657C22.022 46.8458 21.662 46.4103 21.3034 45.9688C21.0892 45.711 20.868 45.4624 20.6418 45.215C20.2576 44.7951 19.8976 44.3597 19.539 43.918C19.3248 43.6602 19.1036 43.4116 18.8773 43.1644C18.4932 42.7444 18.1331 42.3089 17.7746 41.8674C17.5603 41.6096 17.3391 41.361 17.1129 41.1136C16.7288 40.6938 16.3687 40.2583 16.0101 39.8167C15.7959 39.5589 15.5747 39.3102 15.3484 39.063C15.0521 38.7388 14.7677 38.4089 14.4908 38.0681C13.9796 37.4393 13.4454 36.8311 12.9122 36.2209C12.659 35.9303 12.4077 35.6383 12.1566 35.346C12.1084 35.29 12.0603 35.234 12.0107 35.1763C11.9138 35.0635 11.8169 34.9507 11.72 34.8378C11.4756 34.5535 11.231 34.2692 10.9863 33.985C10.8883 33.8711 10.7903 33.7572 10.6923 33.6433C10.6438 33.5868 10.5952 33.5305 10.5452 33.4724C8.43774 31.0229 6.33022 28.5735 4.2227 26.124C4.17416 26.0675 4.12561 26.0111 4.07559 25.953C3.97779 25.8393 3.88 25.7256 3.78223 25.6119C3.53389 25.3232 3.28524 25.0346 3.03607 24.7466C2.58608 24.2258 2.13893 23.704 1.7047 23.17C1.35032 22.7348 0.9804 22.317 0.600011 21.9043C0.533933 21.8306 0.467845 21.7567 0.399756 21.6808C0.286978 21.561 0.286978 21.561 0.171922 21.4389C0.00765565 21.1925 0.00765556 21.1925 0 20.9613C0.150133 20.5962 0.375278 20.3163 0.620311 20.0085C1.07421 19.4232 1.50443 18.8276 1.91913 18.2141C2.35823 17.5666 2.81394 16.937 3.28956 16.3157C3.66638 15.82 4.02033 15.3114 4.36973 14.7962C4.81191 14.1447 5.26966 13.5098 5.74727 12.8836C6.04216 12.4961 6.33058 12.105 6.61056 11.7067C6.70811 11.569 6.80674 11.4319 6.90682 11.2959C7.16817 10.9374 7.39495 10.5876 7.58687 10.1873C8.44988 8.5283 9.83733 8.63344 11.5143 8.65853Z" fill="#54C0EB"/>
<path d="M23.8277 8.88772C26.0678 8.84659 28.3079 8.81563 30.5483 8.79665C31.5887 8.78761 32.6288 8.77528 33.669 8.75512C34.5761 8.73755 35.483 8.72625 36.3903 8.72234C36.8705 8.72006 37.3501 8.71473 37.8301 8.70188C40.9881 8.62055 40.9881 8.62055 41.6905 9.27323C41.9878 9.63359 42.1926 10.0115 42.3667 10.4432C42.4785 10.7073 42.6356 10.9199 42.8141 11.1433C43.368 11.9048 43.9169 12.6696 44.4599 13.4389C44.8161 13.9427 45.1771 14.4431 45.5401 14.9422C46.0018 15.577 46.4579 16.2154 46.9106 16.8567C47.2668 17.3606 47.6277 17.8609 47.9907 18.36C48.4283 18.9623 48.8639 19.5661 49.2957 20.1727C49.3468 20.2442 49.398 20.3158 49.4507 20.3895C49.8041 20.8875 49.8041 20.8875 49.8041 20.9967C49.6956 20.997 49.6956 20.997 49.5849 20.9973C47.8147 21.0031 46.0446 21.0105 44.2745 21.0197C43.4185 21.024 42.5623 21.0279 41.7063 21.0304C40.9591 21.0328 40.212 21.036 39.4649 21.0404C39.0702 21.0427 38.6756 21.0446 38.2808 21.0453C36.6072 21.0481 34.9906 21.0978 33.3361 21.3872C33.2067 22.2251 33.0773 23.0629 32.944 23.9262C32.8792 23.9262 32.8146 23.9262 32.7479 23.9262C32.6509 23.2494 32.6509 23.2494 32.5519 22.5591C32.4043 22.8529 32.3097 23.0778 32.2251 23.387C32.2009 23.4747 32.1768 23.5624 32.1519 23.6526C32.1259 23.7484 32.0999 23.8443 32.0731 23.9431C32.045 24.0452 32.017 24.1473 31.9881 24.2526C31.8939 24.5959 31.8003 24.9392 31.7068 25.2827C31.6396 25.5283 31.5722 25.7739 31.5049 26.0197C31.3598 26.5491 31.215 27.0787 31.0705 27.6084C30.8609 28.3757 30.651 29.1429 30.4409 29.91C30.3429 30.2676 30.245 30.6252 30.1471 30.9829C30.1275 31.0545 30.1079 31.1262 30.0877 31.1999C29.9466 31.7153 29.8056 32.2307 29.6646 32.7462C28.9 35.5416 28.1332 38.3367 27.3659 41.1315C27.1411 41.9501 26.9163 42.7689 26.6918 43.5877C26.5515 44.0992 26.4111 44.6106 26.2707 45.1221C26.2061 45.3575 26.1415 45.593 26.0769 45.8286C25.7221 47.122 25.3657 48.415 25.004 49.7065C24.9393 49.7065 24.8747 49.7065 24.808 49.7065C24.0505 47.0896 23.3097 44.468 22.5718 41.8454C22.5358 41.7172 22.5358 41.7172 22.499 41.5865C22.1743 40.4327 21.8499 39.2789 21.5255 38.1249C21.1718 36.8673 20.818 35.6096 20.4641 34.3519C20.3257 33.8602 20.1875 33.3684 20.0493 32.8766C19.5506 31.1009 19.048 29.3264 18.539 27.5536C18.3727 26.9739 18.2069 26.394 18.0411 25.8142C17.8818 25.257 17.7213 24.7001 17.5602 24.1435C17.4611 23.8003 17.363 23.4569 17.265 23.1133C17.2193 22.9537 17.1732 22.7942 17.1267 22.6348C17.0631 22.4167 17.0009 22.1984 16.939 21.9799C16.9038 21.8577 16.8686 21.7354 16.8323 21.6096C16.7229 21.0477 16.8953 20.7142 17.1759 20.231C17.2398 20.1203 17.3036 20.0097 17.3695 19.8955C17.4391 19.7763 17.5089 19.6571 17.5787 19.5379C17.6506 19.414 17.7225 19.2901 17.7943 19.166C18.3162 18.2665 18.8453 17.3713 19.378 16.4779C19.761 15.8352 20.1402 15.1904 20.5195 14.5455C20.5542 14.4863 20.5889 14.4272 20.6248 14.3662C20.7667 14.1248 20.9087 13.8834 21.0506 13.6419C21.3089 13.2027 21.5676 12.7636 21.8262 12.3247C21.9371 12.1366 22.0479 11.9486 22.1587 11.7604C22.2282 11.6424 22.2979 11.5244 22.3675 11.4063C22.7352 10.7831 23.1 10.1584 23.4596 9.53046C23.4952 9.46819 23.5309 9.40594 23.5677 9.3418C23.6543 9.19045 23.741 9.03909 23.8277 8.88772Z" fill="#83DAFE"/>
<path d="M38.5126 20.9668C38.911 20.9687 39.3093 20.9688 39.7076 20.9691C40.4585 20.97 41.2093 20.9725 41.9602 20.9755C42.8164 20.9787 43.6727 20.9803 44.5291 20.9818C46.2873 20.9849 48.0455 20.99 49.8037 20.9965C49.6202 21.3869 49.3644 21.6877 49.0807 22.0096C48.9738 22.1325 48.8669 22.2552 48.7599 22.3781C48.7052 22.4407 48.6505 22.5032 48.5942 22.5676C48.3423 22.8563 48.0928 23.1471 47.8432 23.4379C47.7452 23.5518 47.6472 23.6657 47.5492 23.7796C47.4764 23.8642 47.4764 23.8642 47.4021 23.9505C38.727 34.0331 38.727 34.0331 38.5799 34.2041C38.4821 34.3178 38.3843 34.4315 38.2865 34.5451C38.0382 34.8339 37.7895 35.1225 37.5403 35.4105C37.0904 35.9313 36.6432 36.4531 36.209 36.9871C35.861 37.4143 35.4965 37.8225 35.1246 38.2291C34.8963 38.4849 34.679 38.7472 34.463 39.0133C34.1091 39.4491 33.7391 39.8657 33.3602 40.2799C33.1319 40.5357 32.9145 40.798 32.6985 41.0641C32.3446 41.4999 31.9746 41.9163 31.5957 42.3305C31.3674 42.5863 31.1502 42.8487 30.9341 43.1147C30.5802 43.5506 30.2102 43.967 29.8313 44.3812C29.603 44.637 29.3857 44.8994 29.1696 45.1655C28.8157 45.6013 28.4457 46.0177 28.0669 46.4319C27.8386 46.6877 27.6213 46.9501 27.4052 47.2162C27.0521 47.651 26.6833 48.0668 26.3047 48.4795C25.9864 48.8371 25.6882 49.2099 25.3903 49.5842C25.1996 49.8039 25.1996 49.8039 24.9055 49.9993C25.1804 48.7967 25.4893 47.606 25.8157 46.4163C25.8673 46.2273 25.919 46.0385 25.9705 45.8495C26.1106 45.3363 26.2512 44.8232 26.3917 44.3101C26.511 43.8749 26.63 43.4397 26.7488 43.0044C27.1435 41.5609 27.539 40.1175 27.9346 38.6742C28.0445 38.2729 28.1545 37.8717 28.2644 37.4704C28.78 35.5892 29.2958 33.7079 29.812 31.8267C29.8677 31.6234 29.9235 31.4201 29.9793 31.2168C30.7982 28.2316 31.6175 25.2465 32.4534 22.266C32.6911 22.6212 32.6874 22.8379 32.7107 23.2609C32.7217 23.4472 32.7217 23.4472 32.733 23.6373C32.7377 23.7326 32.7425 23.8279 32.7475 23.9261C32.8122 23.9261 32.8769 23.9261 32.9435 23.9261C32.9507 23.7985 32.9507 23.7985 32.9581 23.6682C33.0927 21.5314 33.0927 21.5314 33.3356 21.2895C35.0451 20.9265 36.7751 20.9573 38.5126 20.9668Z" fill="#54C0EB"/>
<path d="M32.7477 18.0649C32.8123 18.0649 32.8771 18.0649 32.9438 18.0649C32.9934 18.3435 33.0423 18.6223 33.0908 18.9011C33.1048 18.9792 33.1188 19.0573 33.1333 19.1377C33.2131 19.6015 33.253 20.0358 33.2378 20.5063C33.364 20.5193 33.4903 20.5322 33.6203 20.5456C34.1026 20.599 34.5793 20.6746 35.0573 20.7565C35.1376 20.7701 35.2178 20.7836 35.3003 20.7975C35.4951 20.8304 35.6898 20.8636 35.8844 20.8968C35.8844 20.9292 35.8844 20.9614 35.8844 20.9946C35.0434 21.1234 34.2023 21.2524 33.3359 21.3852C33.2064 22.223 33.077 23.0608 32.9438 23.9241C32.879 23.9241 32.8143 23.9241 32.7477 23.9241C32.6507 23.2473 32.6507 23.2473 32.5517 22.557C32.4041 22.8508 32.3094 23.0756 32.2249 23.385C32.2007 23.4726 32.1766 23.5602 32.1517 23.6505C32.1257 23.7463 32.0997 23.8422 32.0729 23.941C32.0448 24.0432 32.0168 24.1452 31.9879 24.2505C31.8937 24.5938 31.8001 24.9371 31.7066 25.2806C31.6393 25.5262 31.572 25.7718 31.5047 26.0176C31.3596 26.547 31.2148 27.0766 31.0702 27.6063C30.8607 28.3736 30.6508 29.1408 30.4407 29.9079C30.3427 30.2655 30.2448 30.6231 30.1469 30.9808C30.1272 31.0524 30.1077 31.1241 30.0874 31.1979C29.9463 31.7132 29.8053 32.2286 29.6643 32.7441C28.8998 35.5395 28.133 38.3346 27.3657 41.1294C27.1409 41.948 26.9161 42.7668 26.6916 43.5856C26.5512 44.0971 26.4109 44.6085 26.2704 45.12C26.2059 45.3554 26.1412 45.5909 26.0767 45.8265C25.7219 47.1199 25.3654 48.4129 25.0038 49.7044C24.9391 49.7044 24.8744 49.7044 24.8078 49.7044C24.0502 47.0875 23.3094 44.4659 22.5716 41.8433C22.5354 41.7151 22.5354 41.7151 22.4987 41.5844C22.1741 40.4306 21.8496 39.2768 21.5252 38.1228C21.1716 36.8652 20.8178 35.6074 20.4639 34.3498C20.3486 33.9398 20.2332 33.5299 20.1179 33.1199C19.5951 31.2609 19.0703 29.4027 18.5418 27.5455C18.4583 27.2522 18.3749 26.9589 18.2916 26.6655C18.2368 26.473 18.1821 26.2806 18.1273 26.0881C18.1004 25.9936 18.0737 25.8992 18.046 25.8019C17.887 25.243 17.7277 24.6841 17.5681 24.1253C17.4699 23.7812 17.3719 23.4369 17.2741 23.0927C17.2284 22.9324 17.1828 22.7722 17.1369 22.612C17.0742 22.3934 17.012 22.1745 16.9499 21.9556C16.8974 21.7716 16.8974 21.7716 16.8439 21.584C16.7698 21.2875 16.7698 21.2875 16.7698 20.9946C16.8683 20.994 16.8683 20.994 16.9688 20.9936C18.5709 20.9856 20.173 20.9766 21.7751 20.9665C22.5499 20.9616 23.3246 20.957 24.0993 20.9533C24.7751 20.9501 25.4508 20.9462 26.1264 20.9415C26.4838 20.9391 26.8412 20.9369 27.1987 20.9356C27.5987 20.9341 27.9987 20.9311 28.3988 20.928C28.5159 20.9278 28.633 20.9276 28.7537 20.9274C29.4523 20.9205 30.1043 20.8471 30.7872 20.7016C30.9954 20.6643 31.2037 20.6275 31.4121 20.5918C31.5059 20.5754 31.5997 20.559 31.6962 20.5422C31.9526 20.5078 32.1953 20.4997 32.4537 20.5063C32.4506 20.4125 32.4476 20.3187 32.4444 20.2221C32.4444 19.7728 32.5214 19.3423 32.6007 18.9011C32.6147 18.8204 32.6287 18.7396 32.6431 18.6564C32.6774 18.4592 32.7126 18.2621 32.7477 18.0649Z" fill="#F1F2F2"/>
<path d="M8.63369 8.88544C8.69839 8.88544 8.76309 8.88544 8.82975 8.88544C8.9593 9.05476 8.9593 9.05476 9.10775 9.29359C9.16297 9.38156 9.2183 9.46954 9.2753 9.56017C9.36408 9.70351 9.36408 9.70351 9.45464 9.84976C9.57886 10.0473 9.70308 10.2448 9.82764 10.4421C9.92152 10.5913 9.92153 10.5913 10.0174 10.7435C10.285 11.1641 10.5609 11.5786 10.8392 11.992C10.8851 12.0601 10.9309 12.128 10.978 12.1981C11.0659 12.3284 11.1537 12.4587 11.2416 12.5889C11.4843 12.9487 11.7253 13.3097 11.9665 13.6704C12.0635 13.0904 12.1606 12.5103 12.2606 11.9126C12.3253 11.9126 12.39 11.9126 12.4566 11.9126C12.5065 12.2238 12.5552 12.5352 12.6036 12.8464C12.6177 12.9339 12.6317 13.0213 12.6462 13.1114C12.7212 13.5971 12.767 14.0578 12.7507 14.5493C12.8596 14.554 12.9685 14.5589 13.0807 14.5638C13.8677 14.602 14.6301 14.6488 15.3974 14.8423C15.0503 15.0727 14.7275 15.1259 14.3252 15.1963C14.2551 15.2093 14.1849 15.2224 14.1125 15.2359C13.7817 15.2958 13.4802 15.3305 13.1429 15.3305C13.4529 15.9919 13.8349 16.5823 14.2455 17.1859C14.3134 17.2865 14.3813 17.3873 14.4512 17.491C14.6681 17.8127 14.8856 18.1341 15.1033 18.4554C15.398 18.8904 15.6919 19.3259 15.9855 19.7614C16.0885 19.913 16.0885 19.913 16.1935 20.0674C16.2563 20.1606 16.3191 20.2537 16.3837 20.3496C16.4673 20.4731 16.4673 20.4731 16.5526 20.5989C16.6716 20.799 16.6716 20.799 16.6716 20.9943C11.1725 20.9943 5.67336 20.9943 0.00756836 20.9943C0.448557 20.2256 0.448557 20.2256 0.671913 19.9213C0.721579 19.8533 0.771246 19.7852 0.822413 19.7152C0.874968 19.6438 0.927524 19.5725 0.981679 19.499C1.09579 19.3429 1.2099 19.1867 1.324 19.0307C1.41113 18.9118 1.41114 18.9118 1.50004 18.7905C1.77352 18.4171 2.04551 18.0426 2.31726 17.6681C2.37 17.5953 2.42276 17.5227 2.4771 17.4478C2.88261 16.8882 3.28258 16.3249 3.68115 15.7602C4.09504 15.1749 4.51521 14.5941 4.93672 14.0141C5.25574 13.5751 5.57337 13.1352 5.88901 12.6939C6.31626 12.0966 6.74679 11.5018 7.17896 10.9079C7.43724 10.5527 7.69375 10.1965 7.94561 9.83679C8.01309 9.74087 8.01309 9.74087 8.08192 9.64301C8.16608 9.52311 8.2497 9.40283 8.33272 9.28215C8.42824 9.14642 8.53035 9.01534 8.63369 8.88544Z" fill="#84DBFE"/>
<path d="M40.9817 8.88544C41.3015 8.99165 41.3367 9.03079 41.517 9.29398C41.5853 9.39226 41.5853 9.39226 41.655 9.49253C41.7037 9.56409 41.7525 9.63565 41.8026 9.70939C41.9085 9.86191 42.0143 10.0143 42.1205 10.1667C42.1751 10.2457 42.2298 10.3246 42.2861 10.4058C42.5488 10.7816 42.819 11.1518 43.0892 11.522C43.551 12.1568 44.007 12.7953 44.4596 13.4366C44.8158 13.9405 45.1768 14.4408 45.5398 14.9399C46.0016 15.5747 46.4576 16.2132 46.9102 16.8544C47.2665 17.3584 47.6275 17.8587 47.9903 18.3578C48.4281 18.96 48.8636 19.5639 49.2953 20.1704C49.3466 20.2419 49.3977 20.3136 49.4505 20.3873C49.8038 20.8853 49.8038 20.8853 49.8038 20.9943C48.0347 21.0058 46.2656 21.0144 44.4963 21.0196C43.6746 21.0222 42.8528 21.0255 42.0311 21.0312C41.3135 21.0361 40.5959 21.0392 39.8782 21.0402C39.4995 21.0409 39.1208 21.0423 38.742 21.046C36.852 21.0634 35.0867 20.9336 33.2378 20.506C33.3771 20.2237 33.5277 19.9615 33.7015 19.6985C33.782 19.576 33.782 19.576 33.8642 19.4512C33.9223 19.3635 33.9805 19.2758 34.0403 19.1855C34.1008 19.0939 34.1613 19.0023 34.2237 18.908C34.3521 18.7138 34.4806 18.5195 34.6092 18.3253C34.803 18.0329 34.9962 17.74 35.1895 17.4472C36.2443 15.8513 36.2443 15.8513 36.7693 15.1317C37.4417 14.2101 38.058 13.2502 38.6842 12.2972C38.9312 11.9216 39.1785 11.546 39.4259 11.1707C39.4846 11.0818 39.5432 10.9928 39.6036 10.9012C40.0526 10.2219 40.5112 9.55018 40.9817 8.88544Z" fill="#83DAFE"/>
<path d="M26.4746 8.88544C31.2622 8.88544 36.0497 8.88544 40.9823 8.88544C40.8085 9.31827 40.6469 9.58538 40.3726 9.95352C39.9382 10.5464 39.5269 11.1524 39.1228 11.7662C39.0629 11.8571 39.0031 11.9481 38.9413 12.0417C38.7555 12.3241 38.5701 12.6067 38.3846 12.8892C36.9918 15.0117 36.9918 15.0117 36.3517 15.8895C36.0004 16.3738 35.6678 16.8697 35.3366 17.3679C35.2536 17.4927 35.2536 17.4927 35.1689 17.6201C34.9403 17.9645 34.7121 18.309 34.4842 18.6538C34.3154 18.9089 34.1461 19.1637 33.9766 19.4185C33.9249 19.4971 33.8733 19.5756 33.8201 19.6565C33.7722 19.7283 33.7244 19.8002 33.6751 19.8741C33.6332 19.9374 33.5913 20.0007 33.5482 20.0661C33.4344 20.2132 33.4344 20.2132 33.2384 20.3108C33.1888 20.0281 33.1399 19.7453 33.0913 19.4625C33.0773 19.3827 33.0633 19.303 33.0488 19.2208C32.9823 18.8314 32.9248 18.4615 32.9443 18.0648C32.8796 18.0648 32.8148 18.0648 32.7482 18.0648C32.7434 18.1463 32.7386 18.2276 32.7336 18.3116C32.6901 18.9652 32.6162 19.5781 32.4542 20.2132C32.2413 19.9433 32.0722 19.6739 31.9154 19.3686C31.8694 19.2797 31.8234 19.1908 31.7759 19.0992C31.7268 19.0035 31.6777 18.9079 31.6271 18.8094C31.2383 18.0592 30.8424 17.3144 30.4324 16.5756C29.7082 15.266 29.0316 13.9318 28.3476 12.6012C28.0612 12.0446 27.7721 11.4895 27.4794 10.9361C27.4417 10.8649 27.4039 10.7935 27.3652 10.72C27.1064 10.2327 26.8409 9.74955 26.5688 9.26956C26.4746 9.08075 26.4746 9.08075 26.4746 8.88544Z" fill="#54C0EB"/>
<path d="M44.0205 0C44.0529 0 44.0852 0 44.1185 0C44.2307 0.632503 44.3423 1.26508 44.4535 1.89774C44.4915 2.11297 44.5295 2.32817 44.5677 2.54335C44.6225 2.8526 44.6769 3.16191 44.7312 3.47124C44.7483 3.56749 44.7655 3.66372 44.7832 3.76288C44.7989 3.85279 44.8145 3.94269 44.8308 4.03532C44.8517 4.15371 44.8517 4.15371 44.873 4.27451C44.9028 4.49201 44.9028 4.49201 44.9028 4.88262C44.9591 4.88634 45.0153 4.89006 45.0733 4.8939C45.9197 4.95966 46.7532 5.09149 47.5904 5.22725C47.8391 5.26742 48.088 5.30649 48.3369 5.34552C48.496 5.37108 48.6551 5.39669 48.8141 5.42238C48.8881 5.43388 48.962 5.44538 49.0382 5.45724C49.389 5.51512 49.6939 5.57613 50 5.76149C49.4092 5.91761 48.8207 6.02996 48.2172 6.1254C48.1248 6.1403 48.0323 6.15519 47.937 6.17054C47.6445 6.21761 47.3519 6.26421 47.0593 6.31079C46.8598 6.3428 46.6603 6.37484 46.4608 6.40692C45.9742 6.48509 45.4876 6.56284 45.0008 6.64037C44.769 7.83688 44.5439 9.0338 44.3391 10.2351C44.3067 10.4239 44.3067 10.4239 44.2737 10.6165C44.2218 10.9187 44.1701 11.2207 44.1185 11.523C44.0215 11.4747 44.0215 11.4747 43.9225 11.4253C43.8729 11.2377 43.8729 11.2377 43.8372 10.9886C43.8235 10.8957 43.8098 10.8029 43.7957 10.7071C43.7817 10.6061 43.7677 10.5049 43.7532 10.4007C43.7383 10.2976 43.7233 10.1943 43.708 10.088C43.6602 9.75674 43.6137 9.42532 43.5672 9.09388C43.5351 8.87097 43.5029 8.64808 43.4707 8.42519C43.4402 8.21299 43.4099 8.00078 43.3795 7.78855C43.358 7.63748 43.358 7.63748 43.3359 7.48336C43.3228 7.38986 43.3098 7.29635 43.2962 7.20001C43.2847 7.11768 43.273 7.03536 43.2611 6.95054C43.2363 6.73802 43.2363 6.73802 43.2363 6.44507C43.1562 6.44077 43.0762 6.43649 42.9937 6.43207C42.1321 6.37916 41.2884 6.27697 40.4364 6.14216C40.2248 6.10885 40.013 6.07694 39.8011 6.04511C39.6653 6.02402 39.5295 6.00285 39.3939 5.9816C39.2728 5.96278 39.1515 5.94397 39.0268 5.92459C38.7272 5.85915 38.7272 5.85915 38.4331 5.66384C39.0383 5.56596 39.6437 5.46867 40.249 5.3718C40.4549 5.33878 40.6607 5.30563 40.8665 5.27233C41.1625 5.22446 41.4587 5.17708 41.7549 5.12981C41.8467 5.11485 41.9385 5.0999 42.0331 5.0845C42.1194 5.07081 42.2058 5.05713 42.2947 5.04303C42.3702 5.03088 42.4458 5.01874 42.5235 5.00623C42.763 4.97833 42.9954 4.97592 43.2363 4.98027C43.2448 4.91932 43.2531 4.85837 43.2618 4.79557C43.3487 4.1635 43.4362 3.5315 43.5241 2.89956C43.5569 2.66343 43.5894 2.42727 43.622 2.1911C43.6685 1.85244 43.7157 1.51384 43.7629 1.17526C43.7773 1.06896 43.7919 0.962669 43.8068 0.853152C43.8206 0.755402 43.8342 0.657652 43.8484 0.556947C43.8603 0.47042 43.8723 0.383905 43.8847 0.294756C43.9225 0.0976504 43.9225 0.0976505 44.0205 0Z" fill="#FFD15C"/>
<path d="M5.20246 2.73267C5.2348 2.73267 5.26716 2.73267 5.30048 2.73267C5.37077 3.16868 5.44056 3.60477 5.50989 4.04094C5.53353 4.18919 5.55729 4.33741 5.5812 4.48562C5.61563 4.69912 5.64955 4.9127 5.68339 5.1263C5.69412 5.19213 5.70484 5.25796 5.71588 5.32578C5.76977 5.6692 5.80235 5.9982 5.7906 6.34581C5.86693 6.34945 5.94325 6.35311 6.02188 6.35687C6.75746 6.39993 7.48158 6.4783 8.21058 6.58384C8.29616 6.59577 8.38174 6.6077 8.46991 6.62C8.55049 6.63211 8.63107 6.64422 8.7141 6.6567C8.78596 6.66732 8.85782 6.67795 8.9318 6.68891C9.12347 6.73641 9.12347 6.73641 9.41747 6.93173C8.81507 7.04656 8.21255 7.16089 7.60994 7.27474C7.40637 7.31335 7.20289 7.35247 6.99945 7.39175C6.90784 7.40913 6.81623 7.4265 6.72184 7.4444C6.64603 7.459 6.5702 7.4736 6.49209 7.48865C6.25615 7.521 6.02853 7.5195 5.7906 7.51764C5.78587 7.58778 5.78115 7.65793 5.77627 7.7302C5.72082 8.47371 5.61915 9.20039 5.4904 9.93454C5.47215 10.041 5.45389 10.1475 5.43508 10.2573C5.39066 10.516 5.34579 10.7746 5.30048 11.0331C5.04118 10.7748 5.04999 10.6011 4.99952 10.2412C4.98246 10.1212 4.96541 10.0011 4.94783 9.87731C4.93077 9.75118 4.91372 9.62505 4.89614 9.4951C4.87832 9.37048 4.86051 9.24586 4.84215 9.11746C4.76716 8.57935 4.70172 8.06179 4.71234 7.51764C4.62859 7.51142 4.62859 7.51142 4.54315 7.50508C3.8322 7.44412 3.14365 7.3141 2.44553 7.16975C2.33307 7.14691 2.22062 7.12406 2.10475 7.10052C1.83024 7.04468 1.55583 6.98841 1.28149 6.93173C1.53664 6.67754 1.69999 6.68323 2.05497 6.6319C2.17109 6.61491 2.28722 6.59791 2.40686 6.58041C2.52879 6.56341 2.65073 6.54641 2.77636 6.5289C2.89678 6.51116 3.0172 6.49341 3.14127 6.47512C3.67032 6.39918 4.17689 6.33548 4.71234 6.34581C4.716 6.27796 4.71967 6.21011 4.72345 6.14021C4.77031 5.41803 4.85497 4.70622 4.9574 3.98995C4.9702 3.89966 4.98301 3.80938 4.99619 3.71637C5.04615 3.37508 5.09272 3.06067 5.20246 2.73267Z" fill="#CDD6E0"/>
<path d="M12.2607 11.9121C12.3254 11.9121 12.39 11.9121 12.4567 11.9121C12.5066 12.2233 12.5553 12.5346 12.6038 12.8459C12.6178 12.9333 12.6318 13.0208 12.6463 13.1109C12.7213 13.5966 12.767 14.0573 12.7508 14.5487C12.8597 14.5535 12.9686 14.5583 13.0808 14.5632C13.8678 14.6014 14.6301 14.6482 15.3975 14.8417C15.1104 15.0323 14.9645 15.0805 14.6347 15.1415C14.5441 15.1585 14.4535 15.1755 14.3601 15.1931C14.2658 15.21 14.1714 15.227 14.0741 15.2445C13.9797 15.2622 13.8854 15.2801 13.7881 15.2983C13.0884 15.4276 13.0884 15.4276 12.7508 15.4276C12.7454 15.4832 12.7399 15.5387 12.7344 15.5961C12.7094 15.8512 12.6841 16.1063 12.6589 16.3614C12.6461 16.4926 12.6461 16.4926 12.633 16.6264C12.608 16.8779 12.5818 17.1293 12.5547 17.3806C12.5441 17.486 12.5441 17.486 12.5333 17.5935C12.5148 17.7513 12.4868 17.9082 12.4567 18.0642C12.3597 18.1126 12.3597 18.1126 12.2607 18.1619C12.1947 17.7815 12.1296 17.4011 12.0646 17.0206C12.0366 16.8591 12.0366 16.8591 12.0079 16.6942C11.9903 16.5901 11.9726 16.4859 11.9544 16.3786C11.9379 16.2829 11.9215 16.1873 11.9046 16.0888C11.8704 15.832 11.8619 15.5887 11.8686 15.33C11.7988 15.3221 11.7291 15.3143 11.6573 15.3062C11.3417 15.2702 11.0261 15.2329 10.7107 15.1957C10.546 15.1772 10.546 15.1772 10.3781 15.1583C10.2729 15.1457 10.1677 15.1332 10.0594 15.1201C9.96237 15.1089 9.86526 15.0976 9.76537 15.086C9.51604 15.037 9.51603 15.037 9.22192 14.8417C10.5806 14.6484 10.5806 14.6484 11.9666 14.4511C11.9989 14.0644 12.0313 13.6777 12.0646 13.2792C12.0967 13.0266 12.1308 12.7743 12.1688 12.5225C12.1861 12.4061 12.2034 12.2898 12.2213 12.17C12.2343 12.0849 12.2473 11.9998 12.2607 11.9121Z" fill="#F5FBFE"/>
<path d="M8.53605 0C8.74566 0.313219 8.78449 0.49962 8.84237 0.866667C8.85881 0.967118 8.87523 1.06757 8.89214 1.17106C8.92458 1.43576 8.93503 1.68685 8.92814 1.95305C8.99458 1.95784 9.06103 1.96262 9.12958 1.96754C9.76069 2.01805 10.3688 2.1085 10.9867 2.24601C10.705 2.43307 10.6166 2.46983 10.2994 2.5031C10.188 2.51538 10.188 2.51538 10.0744 2.5279C9.99736 2.53558 9.92036 2.54326 9.84103 2.55117C9.76281 2.5596 9.68469 2.56804 9.60414 2.57672C9.41158 2.59741 9.21892 2.6171 9.02614 2.63662C9.01603 2.75947 9.00592 2.88234 8.99558 3.00891C8.93636 3.5531 8.79024 4.06621 8.63407 4.58966C8.44629 4.30906 8.40939 4.22102 8.37599 3.90496C8.36367 3.79402 8.36367 3.79402 8.35111 3.68085C8.34339 3.60412 8.33569 3.52741 8.32775 3.44835C8.31928 3.37049 8.31082 3.29264 8.30209 3.21243C8.28134 3.02057 8.26156 2.8286 8.24198 2.63662C8.06665 2.61886 8.06665 2.61886 7.88779 2.60076C7.73424 2.58427 7.58069 2.56774 7.42715 2.55117C7.31163 2.53965 7.31163 2.53965 7.19377 2.5279C7.11954 2.51972 7.04529 2.51154 6.96882 2.5031C6.90054 2.49594 6.83226 2.48879 6.76193 2.48141C6.57557 2.44131 6.57557 2.44131 6.28149 2.24601C6.53258 2.19663 6.78377 2.14789 7.03506 2.09953C7.10575 2.08556 7.17645 2.07158 7.24929 2.05719C7.61839 1.98667 7.96209 1.93523 8.34001 1.95305C8.34892 1.80294 8.34892 1.80294 8.35799 1.6498C8.36628 1.51691 8.37457 1.38404 8.38288 1.25117C8.38674 1.1854 8.39059 1.11963 8.39457 1.05186C8.41737 0.693626 8.45489 0.34989 8.53605 0Z" fill="#FFD15B"/>
<path d="M30.3092 20.7888C30.4022 20.7929 30.4952 20.7969 30.591 20.8011C30.5587 20.8977 30.5263 20.9945 30.493 21.094C30.2666 21.0618 30.0401 21.0296 29.8069 20.9964C30.0029 20.8011 30.0029 20.8011 30.3092 20.7888Z" fill="#E8F7FE"/>
</g>
<defs>
<clipPath id="clip0_1_2699">
<rect width="50" height="50" fill="white"/>
</clipPath>
</defs>
</svg>
