<svg width="50" height="50" viewBox="0 0 50 50" fill="none" xmlns="http://www.w3.org/2000/svg">
<path d="M25.0002 38.7094H14.5004C13.3401 38.7094 12.4004 37.7696 12.4004 36.6094V26.1094H25.0002V38.7094Z" fill="#FFB74D"/>
<path d="M35.4998 38.7094H25V26.1094H37.5998V36.6094C37.5998 37.7696 36.6601 38.7094 35.4998 38.7094Z" fill="#F57C00"/>
<path d="M22.9007 31.3555H15.5508V34.5055H22.9007V31.3555Z" fill="#C16629"/>
<path d="M24.9996 6.16016V18.7602L21.8496 21.9102L23.9496 6.16016H24.9996Z" fill="#FFB74D"/>
<path d="M25 6.16016V18.7602L28.1499 21.9102L26.05 6.16016H25Z" fill="#F57C00"/>
<path d="M32.8748 34.5055C33.7446 34.5055 34.4498 33.8003 34.4498 32.9305C34.4498 32.0606 33.7446 31.3555 32.8748 31.3555C32.0049 31.3555 31.2998 32.0606 31.2998 32.9305C31.2998 33.8003 32.0049 34.5055 32.8748 34.5055Z" fill="#C62828"/>
<path d="M14.5004 18.7539H35.5C36.6602 18.7539 37.6 19.6937 37.6 20.8539V26.1039H12.4004V20.8539C12.4004 19.6937 13.3401 18.7539 14.5004 18.7539Z" fill="#CFD8DC"/>
<path d="M25 18.7539H35.4998C36.6601 18.7539 37.5998 19.6937 37.5998 20.8539V26.1039H25V18.7539Z" fill="#BDBDBD"/>
<path d="M33.399 20.8594H30.249V24.0094H33.399V20.8594Z" fill="#4CAF50"/>
<path d="M26.1748 4.22266C26.1748 4.22266 32.632 6.42745 34.2647 6.71535C37.1197 7.21876 39.0267 9.94224 38.5232 12.7972C38.0198 15.6522 35.2964 17.5592 32.4415 17.0558C26.2373 15.9618 26.1748 4.22266 26.1748 4.22266Z" fill="white"/>
<path d="M30.9202 13.5911C32.6335 13.8932 34.2672 12.7492 34.5693 11.036C34.8714 9.3227 33.7274 7.68893 32.0142 7.38684C30.301 7.08474 28.6672 8.22872 28.3651 9.94199C28.063 11.6553 29.207 13.289 30.9202 13.5911Z" fill="#424242"/>
<path d="M32.2579 18.0897C25.2865 16.8604 24.9518 5.75236 24.9422 5.28048L24.9121 4L34.4459 5.68109C37.8675 6.28442 40.1594 9.55769 39.5561 12.9794C38.9528 16.401 35.6796 18.693 32.2579 18.0897ZM27.1377 6.52483C27.4218 9.23083 28.5134 15.297 32.6226 16.0216C34.9037 16.4238 37.0858 14.8958 37.488 12.6147C37.8903 10.3336 36.3623 8.15141 34.0812 7.74918L27.1377 6.52483Z" fill="#78909C"/>
<path d="M31.4682 10.477C32.0393 10.5777 32.5839 10.1964 32.6846 9.62527C32.7853 9.05418 32.4039 8.50959 31.8329 8.40889C31.2618 8.30819 30.7172 8.68952 30.6165 9.26061C30.5158 9.8317 30.8971 10.3763 31.4682 10.477Z" fill="white"/>
<path d="M10.2999 28.2109H6.09997C4.93973 28.2109 4 29.1507 4 30.3109H12.3999C12.3999 29.1507 11.4601 28.2109 10.2999 28.2109Z" fill="#424242"/>
<path d="M12.3999 42.9062H4C4 44.0665 4.93973 45.0062 6.09997 45.0062H10.2999C11.4601 45.0062 12.3999 44.0665 12.3999 42.9062Z" fill="#78909C"/>
<path d="M12.3999 30.3047H4V33.4547H12.3999V30.3047Z" fill="#78909C"/>
<path d="M12.3999 33.4531H4V36.6031H12.3999V33.4531Z" fill="#424242"/>
<path d="M12.3999 36.6094H4V39.7594H12.3999V36.6094Z" fill="#78909C"/>
<path d="M12.3999 39.75H4V42.9H12.3999V39.75Z" fill="#424242"/>
<path d="M43.9005 28.2109H39.7006C38.5403 28.2109 37.6006 29.1507 37.6006 30.3109H46.0004C46.0004 29.1507 45.0607 28.2109 43.9005 28.2109Z" fill="#424242"/>
<path d="M46.0004 42.9062H37.6006C37.6006 44.0665 38.5403 45.0062 39.7006 45.0062H43.9005C45.0607 45.0062 46.0004 44.0665 46.0004 42.9062Z" fill="#78909C"/>
<path d="M46.0004 30.3047H37.6006V33.4547H46.0004V30.3047Z" fill="#78909C"/>
<path d="M46.0004 33.4531H37.6006V36.6031H46.0004V33.4531Z" fill="#424242"/>
<path d="M46.0004 36.6094H37.6006V39.7594H46.0004V36.6094Z" fill="#78909C"/>
<path d="M46.0004 39.75H37.6006V42.9H46.0004V39.75Z" fill="#424242"/>
<path d="M23.8301 4.23517C23.8301 4.23517 17.3729 6.43996 15.7402 6.72786C12.8852 7.23128 10.9783 9.95475 11.4817 12.8098C11.9851 15.6648 14.7085 17.5718 17.5635 17.0683C23.7676 15.9744 23.8301 4.23517 23.8301 4.23517Z" fill="white"/>
<path d="M19.0847 13.6026C20.798 13.3005 21.9419 11.6667 21.6398 9.95347C21.3378 8.24021 19.704 7.09623 17.9908 7.39832C16.2775 7.70042 15.1336 9.33419 15.4357 11.0475C15.7377 12.7607 17.3715 13.9047 19.0847 13.6026Z" fill="#424242"/>
<path d="M18.5354 10.4951C19.1065 10.3944 19.4878 9.84985 19.3871 9.27876C19.2864 8.70767 18.7418 8.32635 18.1708 8.42704C17.5997 8.52774 17.2183 9.07233 17.319 9.64342C17.4197 10.2145 17.9643 10.5958 18.5354 10.4951Z" fill="white"/>
<path d="M17.7437 18.0958C14.3221 18.6992 11.0489 16.4072 10.4455 12.9855C9.84221 9.56387 12.1341 6.2906 15.5558 5.68727L25.0895 4.00618L25.0594 5.28666C25.0499 5.75854 24.7151 16.8666 17.7437 18.0958ZM15.9204 7.75536C13.6393 8.15758 12.1114 10.3398 12.5136 12.6209C12.9158 14.902 15.098 16.43 17.379 16.0277C21.4883 15.3032 22.5798 9.23701 22.8639 6.53101L15.9204 7.75536Z" fill="#78909C"/>
</svg>
