<svg width="50" height="50" viewBox="0 0 50 50" fill="none" xmlns="http://www.w3.org/2000/svg">
<path d="M41.0483 0.71908C43.358 2.40025 43.7335 5.7671 44.1486 8.41383C44.1649 8.52057 44.1811 8.6272 44.198 8.73712C44.2139 8.8391 44.2299 8.94119 44.2464 9.04623C45.0741 14.5846 44.4455 20.4183 42.6353 25.6993C42.724 25.7053 42.8126 25.7113 42.9039 25.7176C44.5136 25.9568 46.0141 27.1493 46.9934 28.3922C47.7101 29.3848 48.2006 30.4593 48.495 31.6457C48.5123 31.7131 48.5294 31.7804 48.5473 31.8497C48.7178 32.5875 48.7278 33.3159 48.7269 34.0707C48.7269 34.1372 48.7268 34.2035 48.7268 34.2721C48.7233 35.4151 48.6103 36.4895 48.2997 37.5923C48.2666 37.7148 48.2334 37.8373 48.1993 37.9635C47.7644 39.3988 47.1043 40.9076 46.1511 42.0765C45.5774 41.8938 45.5774 41.8938 45.4675 41.7841C45.4499 41.6279 45.4382 41.471 45.429 41.3141C45.2872 39.1603 44.8905 37.1149 43.4166 35.4477C43.3575 35.3694 43.2983 35.2913 43.2373 35.2107C42.4533 34.2813 41.2422 33.5868 40.0961 33.2056C40.0995 33.335 40.0995 33.335 40.1031 33.4671C40.167 37.8525 38.2867 41.6492 35.2627 44.7576C34.883 45.1339 34.4682 45.4601 34.0412 45.7809C33.9907 45.8197 33.9401 45.8585 33.8881 45.8984C31.2585 47.9077 28.2684 48.8136 24.9587 48.6079C24.2872 48.5174 23.6473 48.334 23.0056 48.1205C22.9701 47.8567 22.9701 47.8567 23.0056 47.5356C23.2516 47.2969 23.2516 47.2969 23.5732 47.0786C24.0475 46.752 24.0475 46.752 24.4705 46.3658C24.422 46.3883 24.3736 46.4108 24.3237 46.434C21.0468 47.9488 17.6926 49.0235 14.1245 49.6072C14.0347 49.6219 13.9448 49.6367 13.8522 49.6517C13.5507 49.6982 13.2491 49.7391 12.9465 49.7778C12.8803 49.7863 12.8141 49.7948 12.7459 49.8036C11.4175 49.9696 10.1 50.0032 8.76204 49.9982C8.42875 49.997 8.09545 49.9982 7.76212 49.9993C3.714 50.0021 3.714 50.0021 2.20386 48.5105C1.10937 47.2293 0.908839 45.8485 1.03194 44.2212C1.1739 43.4912 1.47752 42.8717 1.91088 42.2715C1.96527 42.1891 2.01965 42.1066 2.07568 42.0217C3.20037 40.8384 4.83834 40.5096 6.3562 40.0944C10.926 38.8353 15.4175 36.6068 19.0706 33.5707C19.2944 33.4004 19.2944 33.4004 19.4898 33.4004C19.5064 33.3449 19.5231 33.2892 19.5401 33.2318C19.5639 33.1527 19.5875 33.0737 19.6118 32.9923C19.6384 32.9033 19.665 32.8143 19.6924 32.7227C19.754 32.5201 19.8174 32.3181 19.8824 32.1165C20.423 30.4267 20.7518 28.4454 19.9781 26.7716C19.5822 26.0108 19.0987 25.5371 18.2934 25.2363C16.3927 24.6753 14.52 25.3903 12.8478 26.2841C11.2518 27.1652 9.8917 28.3467 8.60068 29.623C8.53636 29.6863 8.47204 29.7496 8.40579 29.8148C7.98795 30.2345 7.62525 30.676 7.28221 31.1583C6.69354 31.1119 6.23073 30.8467 5.71965 30.5734C6.0912 27.9108 7.48688 25.4602 9.23545 23.4572C9.31648 23.3631 9.39761 23.2691 9.48113 23.1724C10.515 21.9962 11.6909 21.0279 13.0442 20.2402C13.1065 20.2033 13.1686 20.1666 13.2328 20.1287C15.7658 18.6493 18.7789 17.9467 21.6677 18.6842C23.752 19.2682 25.4526 20.6131 26.5216 22.4915C26.7476 22.9226 26.9193 23.3739 27.0886 23.8296C27.1802 24.0738 27.2774 24.3 27.4003 24.5295C28.3134 23.1505 29.1209 21.7286 29.8437 20.2413C29.9384 20.0474 30.0347 19.8542 30.131 19.661C32.2052 15.4451 33.3272 10.6697 33.5941 5.99157C33.6015 5.86757 33.609 5.74358 33.6166 5.61582C33.6307 5.37238 33.6434 5.12886 33.6544 4.88526C33.7339 3.49934 34.0994 2.18832 35.1277 1.20649C36.779 -0.166621 39.2075 -0.420815 41.0483 0.71908Z" fill="#FFE983"/>
<path d="M35.604 26.1856C35.7 26.2336 35.796 26.2816 35.895 26.331C37.7192 27.3156 38.9564 28.9925 39.6478 30.923C39.7093 31.1719 39.7166 31.3893 39.7057 31.6446C39.7701 31.6446 39.8347 31.6446 39.901 31.6446C39.9288 31.5729 39.9566 31.5013 39.9851 31.4275C40.0839 31.1876 40.192 30.9623 40.3126 30.733C41.0028 29.4014 41.5851 28.0427 42.1373 26.649C42.2654 26.3294 42.3997 26.0134 42.5379 25.6982C44.0721 25.7864 45.5018 26.7613 46.542 27.8427C47.5023 28.9555 48.1418 30.2207 48.4951 31.6446C48.5124 31.712 48.5297 31.7792 48.5474 31.8485C48.7181 32.5863 48.7281 33.3148 48.7271 34.0696C48.7271 34.1361 48.7271 34.2024 48.7271 34.2709C48.7235 35.414 48.6106 36.4883 48.2998 37.5911C48.2667 37.7136 48.2337 37.8361 48.1996 37.9624C47.7646 39.3977 47.1046 40.9065 46.1513 42.0754C45.5775 41.8926 45.5775 41.8926 45.4678 41.783C45.4501 41.6268 45.4384 41.4699 45.4291 41.313C45.2874 39.1591 44.8907 37.1138 43.4168 35.4465C43.3281 35.3293 43.3281 35.3293 43.2375 35.2096C42.4535 34.2801 41.2424 33.5857 40.0964 33.2044C40.0987 33.2907 40.1009 33.3771 40.1032 33.466C40.1672 37.8513 38.287 41.6481 35.263 44.7565C34.8831 45.1328 34.4684 45.459 34.0414 45.7798C33.9908 45.8186 33.9404 45.8574 33.8882 45.8973C31.2588 47.9066 28.2687 48.8124 24.959 48.6068C24.2874 48.5163 23.6475 48.333 23.0058 48.1194C22.9733 47.8532 22.9733 47.8532 23.0058 47.5345C23.2243 47.3163 23.2243 47.3163 23.5246 47.1141C23.6328 47.0388 23.7407 46.9632 23.8484 46.8875C23.9035 46.8495 23.9585 46.8115 24.0153 46.7723C24.4464 46.4665 24.8464 46.1182 25.252 45.7798C25.3212 45.724 25.3905 45.6682 25.4617 45.6107C27.9323 43.5637 29.7243 39.9292 30.1113 36.783C30.3528 34.096 30.0941 31.4961 28.3542 29.3252C28.141 29.0827 27.922 28.8507 27.6934 28.6226C27.6314 28.5607 27.5693 28.4987 27.5054 28.4349C27.0414 28.0023 26.5264 27.703 25.9691 27.4022C25.8937 27.3545 25.8181 27.3069 25.7403 27.2579C25.7403 27.1936 25.7403 27.1291 25.7403 27.0629C28.7605 25.5219 32.382 24.5575 35.604 26.1856Z" fill="#FFE984"/>
<path d="M29.8424 32.7186C29.9069 32.7186 29.9714 32.7186 30.0378 32.7186C30.78 36.0991 29.8955 39.7035 28.0479 42.5888C26.8786 44.3604 25.6444 45.8688 23.6654 46.744C23.572 46.7857 23.4786 46.8273 23.3823 46.8703C20.407 48.1824 17.3345 49.0826 14.1252 49.6076C14.0353 49.6223 13.9454 49.637 13.8528 49.6522C13.5514 49.6987 13.2497 49.7395 12.9472 49.7782C12.881 49.7867 12.8147 49.7952 12.7465 49.8041C11.4181 49.97 10.1006 50.0036 8.76277 49.9985C8.42936 49.9975 8.09606 49.9985 7.76276 49.9997C3.71464 50.0026 3.71464 50.0026 2.2045 48.5109C1.41384 47.5853 1.01256 46.5761 1.02647 45.367C1.0269 45.2944 1.02735 45.2218 1.0278 45.1469C1.02895 44.9685 1.0307 44.79 1.03257 44.6115C1.2206 44.6086 1.2206 44.6086 1.41242 44.6056C1.88805 44.5981 2.36365 44.5895 2.83927 44.5806C3.04313 44.5769 3.24701 44.5735 3.45089 44.5703C5.42255 44.5401 7.34906 44.3891 9.29095 44.0449C9.40118 44.0256 9.40118 44.0256 9.51356 44.006C16.0259 42.8641 22.2019 39.8834 27.108 35.448C27.163 35.3986 27.2181 35.3491 27.2749 35.2981C27.8716 34.7607 28.4544 34.2101 29.0246 33.6446C29.0731 33.5965 29.1216 33.5486 29.1716 33.4991C29.3692 33.301 29.5513 33.1059 29.7165 32.88C29.7581 32.8267 29.7996 32.7734 29.8424 32.7186Z" fill="#FFAB15"/>
<path d="M25.545 27.2551C26.726 27.3855 27.7382 28.4238 28.4748 29.3023C29.0692 30.0736 29.5246 30.916 29.8421 31.8369C29.8716 31.9196 29.9013 32.0023 29.9317 32.0875C30.0596 32.5149 30.0596 32.5149 30.0374 32.7142C29.8814 32.8928 29.7239 33.0423 29.5491 33.2016C29.3994 33.351 29.2503 33.5012 29.1016 33.6517C28.9314 33.8225 28.7611 33.9935 28.5908 34.1643C28.5064 34.2494 28.422 34.3345 28.335 34.422C27.8444 34.9138 27.3439 35.3838 26.8146 35.8337C26.7182 35.9183 26.6217 36.0031 26.5224 36.0903C25.2098 37.2231 23.7817 38.2136 22.3222 39.1481C22.2177 39.2154 22.113 39.2826 22.0052 39.3519C20.1182 40.5213 18.1169 41.5198 16.0288 42.2737C15.7945 42.3594 15.5625 42.4496 15.3307 42.5422C13.365 43.3167 11.3077 43.7989 9.22959 44.1563C9.16164 44.1681 9.09368 44.1801 9.02368 44.1922C7.06644 44.5287 5.13457 44.6361 3.15024 44.6194C2.94316 44.6184 2.73608 44.6176 2.52899 44.6168C2.03006 44.6146 1.53115 44.6113 1.03223 44.6072C1.17048 43.4157 1.60086 42.4099 2.50782 41.5951C3.6142 40.7464 5.03667 40.4515 6.35649 40.0905C10.9335 38.8295 15.3755 36.5953 19.0525 33.5851C19.2947 33.3966 19.2947 33.3966 19.5308 33.258C19.8467 33.0653 20.1208 32.8338 20.3996 32.5923C20.4587 32.5413 20.5178 32.4903 20.5787 32.4376C22.2308 30.9997 23.8017 29.4684 25.1544 27.7425C25.2845 27.5799 25.4147 27.4175 25.545 27.2551Z" fill="#FFDB40"/>
<path d="M38.1427 0.0605553C39.5553 -0.0213212 40.5716 0.322122 41.6668 1.19836C43.5289 2.86473 43.8432 6.40813 44.1976 8.73663C44.2216 8.88966 44.2216 8.88966 44.2461 9.04574C45.0817 14.637 44.5642 20.92 42.4251 26.1765C42.332 26.406 42.2417 26.6365 42.1514 26.8671C41.5047 28.4979 40.7972 30.1339 39.9006 31.6452C39.8361 31.6452 39.7717 31.6452 39.7052 31.6452C39.685 31.5696 39.6648 31.4939 39.6439 31.416C39.3111 30.2514 38.8368 29.1652 38.045 28.2334C37.9905 28.1637 37.9358 28.0941 37.8794 28.0224C37.0654 27.033 35.9745 26.4222 34.8223 25.8937C34.9611 25.4078 35.1768 24.9748 35.4018 24.5246C36.097 23.131 36.653 21.7085 37.1661 20.2397C37.196 20.1555 37.226 20.0715 37.2568 19.9849C37.8914 18.2027 38.2887 16.3936 38.5922 14.5287C38.6384 14.2485 38.69 13.9693 38.7409 13.6899C39.0031 12.0546 39.0611 10.4209 39.0583 8.76703C39.0583 8.65859 39.0582 8.55004 39.0582 8.4383C39.0532 5.78955 38.7381 3.26868 38.1814 0.676364C38.1427 0.450484 38.1427 0.450484 38.1427 0.0605553Z" fill="#FFDC40"/>
<path d="M33.7113 25.5338C33.8144 25.5511 33.8144 25.5511 33.9195 25.5687C34.2845 25.6392 34.478 25.7171 34.7245 25.9909C33.4169 28.3477 31.9036 30.4873 30.1345 32.5223C29.8209 32.3657 29.7899 32.0332 29.6828 31.718C29.2503 30.5152 28.6015 29.5298 27.6929 28.6229C27.6309 28.5609 27.5688 28.499 27.5049 28.4351C27.0408 28.0026 26.5259 27.7032 25.9686 27.4024C25.8932 27.3548 25.8176 27.3071 25.7397 27.2581C25.7397 27.1938 25.7397 27.1294 25.7397 27.0631C28.293 25.7604 30.8183 25.0373 33.7113 25.5338Z" fill="#FFF2BF"/>
<path d="M2.78959 41.3945C2.85406 41.4266 2.91851 41.4588 2.98492 41.4919C2.59818 41.8779 2.21144 42.2641 1.81299 42.6618C1.81299 42.2554 2.03162 42.063 2.30129 41.7843C2.46056 41.6502 2.62227 41.5186 2.78959 41.3945Z" fill="#FFDF51"/>
</svg>
