<svg width="50" height="50" viewBox="0 0 50 50" fill="none" xmlns="http://www.w3.org/2000/svg">
<path d="M6.34094 18.7954C6.13201 18.4669 5.87522 17.6164 5.77024 17.2351C4.97688 14.4508 5.33945 11.4643 6.77603 8.95078C8.10659 6.61812 10.3322 4.72137 12.9465 4.01199C16.6979 2.99407 20.4497 3.78135 23.3611 6.36743C23.8824 6.8344 24.355 7.35296 24.7717 7.91521C24.8315 7.995 24.9468 8.15767 25.0281 8.2042C25.1272 8.12808 25.4768 7.62888 25.5781 7.50181C26.8379 5.92178 28.4414 4.79002 30.3494 4.14663C33.1086 3.19776 36.1323 3.38806 38.751 4.67539C41.3069 5.98196 43.2429 8.24534 44.1377 10.9727C44.8425 13.1062 44.8064 15.5362 44.1077 17.6667C43.9851 18.0409 43.8455 18.4313 43.6685 18.7826C44.3569 19.3004 45.0398 19.8584 45.6777 20.4368C47.4771 22.0684 48.8264 24.2364 49.5066 26.5659C49.6711 27.1343 49.7979 27.7129 49.886 28.2979C49.9265 28.5506 49.9104 28.9219 50 29.1377V31.0908C49.9087 31.3577 49.8887 31.9136 49.834 32.2237C48.9583 37.1851 45.0337 40.6941 40.7515 42.9187C37.3074 44.708 33.6746 45.6761 29.8337 46.0982C23.989 46.791 18.0457 46.3904 12.4057 44.6802C8.06506 43.3638 3.71982 40.792 1.53822 36.6736C0.900974 35.4488 0.449263 34.136 0.19788 32.7783C0.149959 32.5149 0.0570376 31.4971 0 31.3555V29.3233C0.0466492 29.1787 0.0704465 28.8391 0.0906138 28.6678C0.126339 28.3474 0.174224 28.0286 0.234164 27.7119C0.984905 23.867 3.12583 20.9608 6.34094 18.7954Z" fill="#99C524"/>
<path d="M15.6828 6.90895C19.7592 6.69318 23.2375 9.82511 23.4489 13.9016C23.6604 17.9782 20.5247 21.4531 16.448 21.6602C12.3774 21.8671 8.90873 18.7371 8.69759 14.6668C8.48648 10.5964 11.6127 7.1244 15.6828 6.90895Z" fill="url(#paint0_linear_3144_42757)"/>
<path d="M15.7031 10.6793C17.6602 10.4772 19.4111 11.8988 19.6151 13.8558C19.8191 15.8128 18.3992 17.565 16.4424 17.771C14.483 17.9772 12.7277 16.5549 12.5234 14.5952C12.3191 12.6355 13.7432 10.8817 15.7031 10.6793Z" fill="#2D2D2D"/>
<path d="M33.5734 7.0112C37.5832 6.75464 41.0419 9.79602 41.3005 13.8055C41.5588 17.815 38.5192 21.2752 34.5097 21.5356C30.4977 21.7961 27.0346 18.7539 26.7761 14.7417C26.5175 10.7296 29.5612 7.26792 33.5734 7.0112Z" fill="url(#paint1_linear_3144_42757)"/>
<path d="M33.5372 10.6849C35.5196 10.4728 37.2994 11.9059 37.5149 13.8878C37.7308 15.8698 36.3011 17.6523 34.3194 17.8717C32.3326 18.0918 30.5445 16.6574 30.3282 14.6702C30.1119 12.683 31.5494 10.8975 33.5372 10.6849Z" fill="#2D2D2D"/>
<path d="M42.865 28.5742C43.6436 28.6108 44.1499 28.948 44.4812 29.6519C44.67 30.0581 44.688 30.5232 44.5315 30.9429C44.3416 31.4612 43.9488 31.8113 43.4524 32.022C42.668 32.3545 41.8533 32.6543 41.0479 32.9297C39.7163 33.3933 38.3662 33.8013 37.0008 34.1523C28.8841 36.2505 20.3589 36.1794 12.2783 33.9465C10.5374 33.4683 8.82174 32.9026 7.13793 32.2512C6.31381 31.9407 5.47072 31.5696 5.39477 30.5557C5.35827 30.0684 5.45868 29.5278 5.79882 29.155C6.82399 28.0313 8.43568 28.9829 9.58144 29.3665C10.2372 29.5884 10.8562 29.804 11.502 30.0042C14.1473 30.8391 16.8635 31.4302 19.6165 31.7695C25.5577 32.4998 31.5852 32.0156 37.3335 30.3467C38.2117 30.0896 39.0838 29.8123 39.949 29.5149C40.7088 29.2471 42.1536 28.6201 42.865 28.5742Z" fill="url(#paint2_linear_3144_42757)"/>
<path d="M28.3428 25.01C29.323 24.8877 30.2163 25.5845 30.3365 26.565C30.4566 27.5454 29.7578 28.4373 28.7771 28.5549C27.7996 28.6724 26.9114 27.9763 26.7918 26.999C26.6719 26.0217 27.366 25.1321 28.3428 25.01Z" fill="#4C8D28"/>
<path d="M21.2352 25.0095C22.2159 24.9087 23.0922 25.6228 23.1914 26.6035C23.2906 27.5844 22.5749 28.4594 21.5939 28.5569C20.6154 28.654 19.7429 27.9406 19.6439 26.9621C19.545 25.9839 20.257 25.1101 21.2352 25.0095Z" fill="#4C8D28"/>
<defs>
<linearGradient id="paint0_linear_3144_42757" x1="16.066" y1="21.4844" x2="16.0377" y2="7.0536" gradientUnits="userSpaceOnUse">
<stop stop-color="#E2E2D1"/>
<stop offset="1" stop-color="#FFFFFE"/>
</linearGradient>
<linearGradient id="paint1_linear_3144_42757" x1="34.0634" y1="21.4838" x2="33.9792" y2="7.05146" gradientUnits="userSpaceOnUse">
<stop stop-color="#E2E2D1"/>
<stop offset="1" stop-color="#FFFFFE"/>
</linearGradient>
<linearGradient id="paint2_linear_3144_42757" x1="25.0078" y1="35.6213" x2="24.9974" y2="28.6343" gradientUnits="userSpaceOnUse">
<stop stop-color="#44811D"/>
<stop offset="1" stop-color="#559934"/>
</linearGradient>
</defs>
</svg>
