<svg width="50" height="50" viewBox="0 0 50 50" fill="none" xmlns="http://www.w3.org/2000/svg">
<g clip-path="url(#clip0_1_2753)">
<path d="M33.177 3.72594C33.3621 3.77207 33.3621 3.77207 33.5658 3.793C33.6435 3.80277 33.7213 3.81255 33.8013 3.82261C33.885 3.8323 33.9686 3.84198 34.0549 3.85195C34.1416 3.86252 34.2283 3.8731 34.3176 3.88399C34.5012 3.90621 34.685 3.92804 34.8686 3.94952C35.1479 3.98223 35.4269 4.01628 35.706 4.05053C35.8847 4.07199 36.0635 4.09338 36.2423 4.11468C36.325 4.12475 36.4078 4.13483 36.493 4.14522C37.2358 4.23104 37.8768 4.29662 38.5812 3.98904C38.6947 3.94056 38.8081 3.89209 38.925 3.84214C38.984 3.81618 39.0431 3.79023 39.1039 3.76349C39.4167 3.62621 39.7316 3.49396 40.0461 3.36087C40.1412 3.32038 40.1412 3.32038 40.2383 3.27908C40.8531 3.01805 41.4732 2.77207 42.0975 2.53451C42.1909 2.49796 42.2843 2.46143 42.3807 2.42378C42.91 2.22406 43.4543 2.03109 44.0282 2.06404C44.4237 2.29412 44.5768 2.45952 44.7492 2.88277C44.9025 3.77222 44.9025 3.77222 44.6567 4.1698C44.3701 4.46008 44.092 4.56286 43.7109 4.67678C43.6411 4.69918 43.5712 4.72157 43.4993 4.74463C43.3492 4.79269 43.1987 4.84005 43.0481 4.88678C42.6457 5.012 42.2454 5.14341 41.8447 5.27403C41.7639 5.30025 41.683 5.32647 41.5997 5.35348C39.5839 6.0093 37.6507 6.82311 35.7329 7.72133C35.6617 7.75461 35.5904 7.78787 35.5171 7.82213C35.3828 7.88499 35.2487 7.9482 35.1149 8.01182C34.665 8.22284 34.665 8.22284 34.4478 8.22284C34.4964 12.8416 34.5968 17.4127 35.0906 22.0089C35.1395 22.4641 35.1852 22.9198 35.23 23.3754C35.3354 23.372 35.4409 23.3686 35.5496 23.3651C39.5274 23.2762 43.3042 24.8573 46.179 27.579C46.2665 27.6604 46.3541 27.7416 46.4443 27.8254C48.1896 29.4971 49.353 31.6827 49.8937 34.0311C49.9124 34.1112 49.9312 34.1915 49.9504 34.2741C50.113 35.0535 50.1282 35.8278 50.126 36.6217C50.1258 36.7251 50.1258 36.7251 50.1257 36.8306C50.1218 37.9552 50.0362 39.0142 49.6982 40.0921C49.6778 40.1585 49.6573 40.2248 49.6363 40.293C49.0201 42.2272 47.9615 43.9025 46.57 45.3711C46.4896 45.4577 46.4094 45.5442 46.3267 45.6334C43.8114 48.2606 39.9939 49.892 36.3681 49.9914C35.9988 49.9978 35.6298 49.9981 35.2605 49.9963C35.1829 49.9961 35.1053 49.9958 35.0253 49.9956C33.8656 49.9906 32.7438 49.9519 31.6128 49.6725C31.4912 49.6434 31.4912 49.6434 31.3673 49.6136C28.7679 48.9746 26.422 47.7871 24.4822 45.9236C24.2859 45.7316 24.2859 45.7316 23.9877 45.7622C23.7627 45.8894 23.5458 46.0208 23.3278 46.1593C21.1134 47.5206 18.491 48.4047 15.8749 48.4215C15.8029 48.4222 15.7308 48.4228 15.6568 48.4235C12.6456 48.4459 12.6456 48.4459 11.2791 48.1083C11.1575 48.0792 11.1575 48.0792 11.0334 48.0494C8.32841 47.3845 5.97455 46.1175 3.9472 44.198C3.85962 44.1168 3.77204 44.0354 3.6818 43.9517C1.93655 42.2799 0.773056 40.0944 0.232372 37.746C0.213657 37.6658 0.194942 37.5855 0.175659 37.5029C0.0131197 36.7235 -0.00210682 35.9492 0.00019991 35.1553C0.000245363 35.0864 0.000302124 35.0175 0.00035894 34.9466C0.0119153 31.6832 1.29999 28.7569 3.55616 26.406C3.63618 26.3197 3.71621 26.2335 3.79865 26.1447C5.79074 24.0614 8.49068 22.7426 11.2791 22.1046C11.3453 22.0885 11.4116 22.0725 11.4799 22.056C12.6293 21.7888 13.7837 21.7858 14.9572 21.7868C15.0345 21.7868 15.1118 21.787 15.1914 21.787C15.9778 21.7892 16.7556 21.7983 17.5357 21.909C17.5601 21.8609 17.5846 21.8129 17.6099 21.7633C19.4601 18.1485 22.0333 14.8442 25.1608 12.231C25.2479 12.1547 25.335 12.0785 25.4247 11.9998C26.2621 11.2703 27.1456 10.6101 28.0467 9.96152C28.2046 9.84789 28.3621 9.7338 28.5193 9.61937C30.6711 8.05409 32.9686 6.71227 35.3277 5.48559C35.4295 5.42981 35.4295 5.42981 35.5334 5.37292C35.7187 5.29007 35.7187 5.29007 36.012 5.29007C36.012 5.22555 36.012 5.16103 36.012 5.09455C35.9523 5.0909 35.8925 5.08725 35.8311 5.08348C34.7773 5.00778 33.7338 4.85187 32.6882 4.70352C32.6593 4.76355 32.6303 4.82359 32.6004 4.88544C32.1851 5.69176 31.4511 6.39465 30.8308 7.04972C30.7726 7.11118 30.7146 7.17263 30.6547 7.23593C28.3648 9.63676 25.4374 11.7718 22.0013 11.955C17.8479 12.0287 13.5297 11.1862 9.71495 9.4937C10.0653 8.93906 10.4746 8.43806 10.8881 7.92955C10.9557 7.84461 11.0234 7.75968 11.0931 7.67218C12.5304 5.88277 14.1574 4.12933 16.0102 2.7682C16.1674 2.65026 16.3198 2.52784 16.4717 2.40314C21.7502 -1.89286 28.0429 0.303162 33.177 3.72594ZM26.5294 13.2085C26.4309 13.2864 26.3324 13.3642 26.2308 13.4446C25.7061 13.8675 25.2008 14.309 24.703 14.7631C24.5082 14.9394 24.3103 15.1101 24.1099 15.2798C23.2201 16.0576 22.3856 16.9059 21.6541 17.8342C21.4354 18.1098 21.2059 18.3741 20.9755 18.6403C19.5118 20.2961 19.5118 20.2961 18.7088 22.2023C18.77 22.2214 18.8314 22.2405 18.8947 22.2601C21.3774 23.0401 23.4712 24.0279 25.4541 25.7216C25.6493 25.885 25.845 26.0477 26.0407 26.2104C26.1202 26.156 26.1996 26.1016 26.2816 26.0454C28.6606 24.4481 31.2458 23.7615 34.0568 23.3754C34.0406 23.2595 34.0244 23.1437 34.0076 23.0243C33.3612 18.389 33.0073 13.7803 32.8838 9.10269C31.1803 9.10269 27.8221 12.1868 26.5294 13.2085Z" fill="#C5053C"/>
<path d="M2.08979 28.1683C2.15431 28.1683 2.21883 28.1683 2.2853 28.1683C2.28918 28.2532 2.29305 28.3381 2.29704 28.4256C2.50304 32.7461 3.13611 36.939 6.09789 40.2904C6.15875 40.3594 6.21962 40.4285 6.28234 40.4997C8.19217 42.5336 11.1647 43.5149 13.8915 43.6249C16.5841 43.6808 19.1196 43.4066 21.5438 42.1478C21.5054 42.0329 21.4671 41.9179 21.4277 41.7995C21.4011 41.7192 21.3745 41.6387 21.3471 41.5559C21.277 41.3471 21.2053 41.139 21.1325 40.9311C20.8469 40.1045 20.6329 39.2933 20.4684 38.4329C20.4516 38.3577 20.4348 38.2826 20.4175 38.2051C20.1387 36.6516 20.3333 34.9537 20.7617 33.4472C20.7899 33.343 20.8181 33.2388 20.8472 33.1314C21.1972 31.9735 21.7474 30.6723 22.5214 29.7325C22.5536 29.7325 22.5858 29.7325 22.6191 29.7325C22.6249 29.8599 22.6249 29.8599 22.6308 29.9897C22.8368 34.3103 23.4699 38.5032 26.4317 41.8545C26.4926 41.9236 26.5534 41.9926 26.6161 42.0638C28.526 44.0977 31.4984 45.079 34.2252 45.189C37.7765 45.2627 41.121 44.6448 43.9305 42.3433C44.0136 42.2763 44.0968 42.2093 44.1826 42.1402C47.0435 39.7109 48.5608 35.5159 49.014 31.8831C49.0784 31.8831 49.1429 31.8831 49.2094 31.8831C49.3022 32.1455 49.3937 32.4082 49.4844 32.6713C49.5227 32.7787 49.5227 32.7787 49.5617 32.8884C49.9859 34.1295 50.1443 35.3419 50.132 36.6489C50.1316 36.7507 50.1316 36.7507 50.1312 36.8547C50.1239 37.9706 50.0335 39.0256 49.6982 40.0948C49.6778 40.1612 49.6573 40.2275 49.6363 40.2958C49.0201 42.2299 47.9615 43.9051 46.57 45.3738C46.4896 45.4604 46.4094 45.547 46.3267 45.6362C43.8114 48.2632 39.9939 49.8947 36.3681 49.9942C35.9988 50.0004 35.6298 50.0009 35.2605 49.9991C35.1829 49.9988 35.1053 49.9986 35.0253 49.9984C33.8656 49.9934 32.7438 49.9545 31.6128 49.6752C31.4912 49.646 31.4912 49.646 31.3673 49.6163C28.7679 48.9773 26.422 47.7897 24.4822 45.9264C24.2859 45.7342 24.2859 45.7342 23.9877 45.7648C23.7627 45.8921 23.5458 46.0235 23.3278 46.1619C21.1134 47.5232 18.491 48.4074 15.8749 48.4242C15.8029 48.4249 15.7308 48.4256 15.6568 48.4263C12.6456 48.4486 12.6456 48.4486 11.2791 48.1111C11.1575 48.0819 11.1575 48.0819 11.0334 48.0522C8.32841 47.3871 5.97455 46.1202 3.9472 44.2007C3.85962 44.1194 3.77204 44.0382 3.6818 43.9544C1.93655 42.2825 0.773056 40.0971 0.232372 37.7486C0.213657 37.6684 0.194942 37.5883 0.175659 37.5057C0.0131197 36.7262 -0.00210682 35.9519 0.00019991 35.1581C0.000245363 35.0891 0.000302124 35.0202 0.00035894 34.9492C0.00877906 32.571 0.659071 30.1129 2.08979 28.1683Z" fill="#9E0330"/>
<path d="M33.1774 3.72594C33.3625 3.77207 33.3625 3.77207 33.5662 3.793C33.6439 3.80277 33.7217 3.81255 33.8017 3.82261C33.9272 3.83714 33.9272 3.83714 34.0553 3.85195C34.142 3.86252 34.2287 3.8731 34.318 3.88399C34.5016 3.90621 34.6854 3.92804 34.869 3.94952C35.1483 3.98224 35.4273 4.01628 35.7063 4.05053C35.8851 4.07199 36.0638 4.09338 36.2427 4.11468C36.3254 4.12476 36.4081 4.13483 36.4934 4.14521C37.2362 4.23104 37.8772 4.29662 38.5816 3.98904C38.6951 3.94056 38.8085 3.89209 38.9254 3.84215C38.9844 3.81618 39.0435 3.79023 39.1043 3.76349C39.4171 3.62621 39.732 3.49396 40.0465 3.36087C40.1416 3.32038 40.1416 3.32038 40.2387 3.27908C40.8535 3.01805 41.4736 2.77206 42.0979 2.53451C42.1913 2.49796 42.2847 2.46143 42.3811 2.42378C42.9104 2.22406 43.4547 2.03109 44.0286 2.06404C44.4241 2.29412 44.5771 2.45952 44.7496 2.88276C44.9029 3.77222 44.9029 3.77222 44.6571 4.1698C44.3704 4.46008 44.0924 4.56286 43.7113 4.67678C43.6415 4.69918 43.5716 4.72157 43.4997 4.74463C43.3496 4.79269 43.1991 4.84005 43.0484 4.88678C42.6461 5.012 42.2457 5.14341 41.8451 5.27403C41.7643 5.30025 41.6834 5.32647 41.6001 5.35348C39.5843 6.0093 37.651 6.82311 35.7333 7.72134C35.662 7.7546 35.5908 7.78787 35.5175 7.82213C35.3832 7.88499 35.2491 7.9482 35.1152 8.01182C34.6654 8.22284 34.6654 8.22284 34.4482 8.22284C34.4388 17.4838 34.4388 17.4838 35.8212 26.6117C35.8715 26.8313 35.8715 26.8313 35.9146 27.188C35.8074 27.357 35.8074 27.357 35.6214 27.4813C35.3098 27.4996 35.3098 27.4996 35.0348 27.4813C34.7395 26.5845 34.5205 25.6883 34.3383 24.7624C34.2892 24.5173 34.2402 24.2723 34.1908 24.0273C34.1698 23.9207 34.1488 23.8141 34.1271 23.7043C34.076 23.4638 34.0202 23.2283 33.9583 22.9905C33.8621 22.6106 33.8001 22.231 33.746 21.8426C33.7362 21.7725 33.7264 21.7024 33.7163 21.6301C33.6847 21.4014 33.6539 21.1726 33.6235 20.9437C33.6128 20.8642 33.6021 20.7847 33.5911 20.7028C33.0821 16.8874 32.8921 13.0457 32.7863 9.20041C30.5948 10.3931 28.4882 11.7583 26.5298 13.3063C26.4313 13.3841 26.3327 13.4621 26.2312 13.5423C25.7066 13.9651 25.2014 14.4065 24.7037 14.8605C24.5068 15.0388 24.3067 15.2117 24.1042 15.3837C23.2507 16.13 22.4587 16.9411 21.7557 17.8306C21.5355 18.1073 21.305 18.3729 21.0736 18.6403C20.2099 19.6749 19.4807 20.8252 18.8367 22.0075C18.7946 22.0718 18.7525 22.1361 18.7092 22.2023C18.6446 22.2023 18.5801 22.2023 18.5136 22.2023C18.4888 22.2838 18.464 22.3652 18.4384 22.4492C18.3052 22.8252 18.137 23.1755 17.9568 23.5304C17.9224 23.599 17.888 23.6677 17.8525 23.7384C17.7433 23.9556 17.6335 24.1727 17.5238 24.3897C17.4493 24.5376 17.3748 24.6857 17.3004 24.8338C17.1187 25.1951 16.9364 25.5562 16.7539 25.9171C16.3906 25.9368 16.2875 25.932 15.9719 25.7216C16.0358 25.3063 16.1772 24.9623 16.3511 24.5806C16.3792 24.5186 16.4073 24.4564 16.4363 24.3924C16.5273 24.1916 16.6193 23.9913 16.7112 23.7909C16.7745 23.6523 16.8377 23.5138 16.901 23.3753C17.0247 23.1044 17.1488 22.8335 17.2732 22.5628C17.4056 22.2743 17.5359 21.9849 17.6651 21.6948C18.6871 19.4207 20.1795 17.4049 21.8374 15.5547C21.9025 15.4814 21.9025 15.4814 21.9688 15.4065C22.9632 14.2878 24.0116 13.1915 25.1612 12.231C25.2482 12.1547 25.3354 12.0785 25.4251 11.9998C26.2625 11.2703 27.146 10.6101 28.0471 9.96152C28.2049 9.84789 28.3624 9.7338 28.5197 9.61937C30.6714 8.05409 32.969 6.71227 35.3281 5.48559C35.4299 5.42981 35.4299 5.42981 35.5337 5.37292C35.7191 5.29007 35.7191 5.29007 36.0124 5.29007C36.0124 5.22555 36.0124 5.16103 36.0124 5.09455C35.9527 5.0909 35.8929 5.08725 35.8313 5.08348C34.7776 5.00778 33.7342 4.85187 32.6886 4.70352C32.6597 4.76355 32.6307 4.82358 32.6008 4.88543C32.1855 5.69176 31.4515 6.39465 30.8312 7.04972C30.773 7.11118 30.715 7.17263 30.6551 7.23593C28.3652 9.63676 25.4378 11.7718 22.0017 11.955C17.8483 12.0287 13.5301 11.1862 9.71533 9.4937C10.0657 8.93906 10.475 8.43806 10.8885 7.92955C10.9561 7.84462 11.0238 7.75968 11.0935 7.67218C12.5308 5.88277 14.1578 4.12933 16.0105 2.7682C16.1678 2.65026 16.3202 2.52784 16.4721 2.40314C21.7505 -1.89286 28.0432 0.303162 33.1774 3.72594Z" fill="#339945"/>
<path d="M44.2239 2.15997C44.6256 2.44227 44.7145 2.76434 44.8103 3.23533C44.8507 3.62457 44.8641 3.83273 44.6568 4.16799C44.3701 4.45826 44.0921 4.56104 43.7109 4.67497C43.6412 4.69736 43.5714 4.71974 43.4995 4.74281C43.3492 4.79087 43.1988 4.83823 43.0481 4.88497C42.6458 5.01018 42.2454 5.14159 41.8448 5.27221C41.764 5.29844 41.6831 5.32465 41.5998 5.35166C39.5841 6.00748 37.6507 6.82129 35.733 7.71952C35.6617 7.75278 35.5906 7.78604 35.5172 7.82031C35.383 7.88316 35.2489 7.94638 35.1149 8.01003C34.6651 8.22105 34.665 8.22105 34.448 8.22105C34.4385 17.4819 34.4385 17.4819 35.821 26.6099C35.8713 26.8295 35.8713 26.8295 35.9143 27.1862C35.8071 27.3551 35.807 27.3551 35.621 27.4795C35.3095 27.4978 35.3095 27.4978 35.0346 27.4795C34.7391 26.5827 34.5202 25.6865 34.338 24.7605C34.289 24.5155 34.2398 24.2704 34.1906 24.0254C34.1695 23.9188 34.1485 23.8122 34.1268 23.7025C34.0758 23.4619 34.0198 23.2265 33.958 22.9888C33.8618 22.6088 33.7999 22.2292 33.7458 21.8407C33.7359 21.7706 33.7261 21.7006 33.7161 21.6284C33.6844 21.3996 33.6537 21.1708 33.6232 20.9419C33.6125 20.8624 33.6018 20.7828 33.5908 20.7009C33.0818 16.8856 32.8919 13.0439 32.786 9.19862C30.5945 10.3913 28.488 11.7565 26.5296 13.3045C26.4309 13.3823 26.3324 13.4602 26.231 13.5405C25.7063 13.9633 25.2011 14.4047 24.7034 14.8586C24.5065 15.037 24.3064 15.2099 24.1039 15.3818C23.2504 16.1282 22.4584 16.9392 21.7554 17.8289C21.5352 18.1054 21.3047 18.3711 21.0733 18.6384C20.2096 19.673 19.4804 20.8234 18.8364 22.0057C18.7943 22.07 18.7522 22.1342 18.7089 22.2005C18.6443 22.2005 18.5798 22.2005 18.5133 22.2005C18.4885 22.282 18.4636 22.3634 18.4382 22.4474C18.3049 22.8234 18.1367 23.1738 17.9565 23.5286C17.9221 23.5973 17.8876 23.6659 17.8522 23.7366C17.743 23.9538 17.6332 24.1709 17.5235 24.3878C17.449 24.5359 17.3746 24.6839 17.3002 24.832C17.1184 25.1933 16.9362 25.5543 16.7537 25.9153C16.3904 25.935 16.2871 25.9301 15.9716 25.7198C16.0354 25.3043 16.1769 24.9605 16.3508 24.5788C16.379 24.5167 16.407 24.4546 16.436 24.3906C16.5271 24.1898 16.6189 23.9894 16.7109 23.7891C16.7742 23.6506 16.8373 23.512 16.9006 23.3735C17.0244 23.1025 17.1486 22.8317 17.2729 22.561C17.4053 22.2724 17.5356 21.983 17.6648 21.693C18.6868 19.4189 20.1791 17.4031 21.8371 15.5529C21.9021 15.4795 21.9021 15.4795 21.9686 15.4047C22.963 14.2859 24.0114 13.1896 25.1609 12.2291C25.248 12.1528 25.3351 12.0766 25.4247 11.9981C26.2622 11.2684 27.1457 10.6082 28.0468 9.95962C28.2046 9.84598 28.3621 9.73201 28.5194 9.61747C30.6711 8.05219 32.9686 6.71045 35.3278 5.48377C35.4296 5.42799 35.4296 5.42799 35.5334 5.37109C35.7189 5.28826 35.7189 5.28826 36.0122 5.28826C36.0122 5.22374 36.0122 5.15922 36.0122 5.09273C35.945 5.08795 35.878 5.08316 35.8088 5.07822C34.9104 5.00926 34.02 4.89319 33.1273 4.77302C31.6254 4.57158 30.1633 4.48621 28.6497 4.48786C28.5582 4.48788 28.4669 4.4879 28.3728 4.48794C26.9992 4.48978 25.6453 4.53081 24.281 4.7017C24.1023 4.72207 23.9234 4.74244 23.7446 4.7628C19.6038 5.25826 15.7816 6.81202 12.0269 8.55319C11.9611 8.58376 11.8953 8.61421 11.8274 8.64569C11.3734 8.85761 10.9278 9.08283 10.4878 9.32294C10.3016 9.39407 10.3016 9.39407 10.0083 9.29635C11.2412 8.63137 12.4865 8.01526 13.7659 7.44506C13.8501 7.40737 13.9342 7.36968 14.0209 7.33086C17.8248 5.62942 21.6832 4.29656 25.8452 3.82187C25.9214 3.81305 25.9977 3.80424 26.0762 3.79514C29.4448 3.42042 32.8206 3.61489 36.1684 4.08374C36.507 4.13035 36.8458 4.17298 37.1852 4.21291C37.2561 4.22282 37.3269 4.23274 37.3999 4.24296C38.0131 4.29233 38.5573 4.00205 39.1042 3.76167C39.4163 3.62456 39.7304 3.49211 40.0443 3.35905C40.1076 3.33206 40.171 3.30507 40.2362 3.27727C40.8605 3.01229 41.4925 2.76931 42.1282 2.53268C42.2744 2.47788 42.2744 2.47788 42.4237 2.42196C43.5514 2.00389 43.5514 2.00389 44.2239 2.15997Z" fill="#068C38"/>
<path d="M32.8836 3.53242C32.9482 3.6292 33.0126 3.72598 33.0791 3.82569C32.992 3.81892 32.9049 3.81214 32.8151 3.80517C31.8759 3.73676 30.9413 3.70451 29.9998 3.70349C29.8901 3.70329 29.8901 3.70329 29.7784 3.70309C27.7172 3.70389 25.6494 3.87402 23.6248 4.27072C23.464 4.30217 23.3029 4.33263 23.1417 4.36245C18.8071 5.16641 14.6031 6.95597 10.7134 9.00794C10.4969 9.10464 10.4969 9.10464 10.2036 9.10464C10.2458 8.62829 10.482 8.35944 10.7902 8.01707C10.88 7.91512 10.9695 7.81303 11.059 7.71083C11.1087 7.65447 11.1585 7.59811 11.2097 7.54004C11.4042 7.31278 11.5894 7.07874 11.7757 6.84475C12.2617 6.24888 12.7894 5.7037 13.3337 5.16166C13.4959 4.9998 13.6567 4.83668 13.8174 4.67344C14.5069 3.98003 15.2309 3.36268 16.0103 2.77282C16.2704 2.57303 16.5235 2.36467 16.7779 2.15769C21.7461 -1.73637 28.1276 0.203763 32.8836 3.53242Z" fill="#38B449"/>
<path d="M25.2581 32.3718C27.0946 32.807 28.8993 33.5665 30.2438 34.9135C30.3022 34.965 30.3608 35.0165 30.421 35.0696C30.9818 35.5772 31.3636 36.2252 31.7704 36.8557C32.0034 37.2146 32.242 37.5699 32.48 37.9256C32.5787 38.0738 32.6774 38.222 32.776 38.3702C32.982 38.6794 33.1892 38.9878 33.3969 39.2958C33.449 39.3733 33.5012 39.4508 33.5548 39.5307C33.6535 39.6773 33.7523 39.8237 33.8515 39.9699C34.8168 41.4079 34.8168 41.4079 34.7407 42.2453C34.0579 42.2798 33.4587 42.1535 32.7977 41.9888C32.6903 41.9623 32.5828 41.9358 32.4722 41.9085C30.6409 41.4478 29.1734 40.9562 27.7998 39.6059C27.7385 39.5458 27.6771 39.4857 27.6138 39.4238C26.3509 38.0863 25.7724 36.218 25.362 34.4675C25.3413 34.3803 25.3206 34.2932 25.2993 34.2034C25.1727 33.626 25.1079 33.0609 25.1604 32.4695C25.1927 32.4372 25.2248 32.4049 25.2581 32.3718Z" fill="#DC6889"/>
<path d="M4.92439 30.8049C6.76089 31.2401 8.56553 31.9996 9.91003 33.3466C9.96855 33.3981 10.0271 33.4497 10.0873 33.5027C10.6481 34.0103 11.0298 34.6584 11.4367 35.2888C11.6696 35.6477 11.9084 36.003 12.1463 36.3587C12.2449 36.5069 12.3436 36.6551 12.4423 36.8033C12.6483 37.1125 12.8554 37.4209 13.0632 37.7289C13.1154 37.8064 13.1674 37.8839 13.2211 37.9638C13.3197 38.1104 13.4185 38.2568 13.5177 38.403C14.4831 39.841 14.4831 39.841 14.407 40.6785C13.7242 40.7129 13.1249 40.5866 12.464 40.4219C12.3566 40.3954 12.2491 40.3689 12.1385 40.3417C10.3072 39.8809 8.83961 39.3893 7.46611 38.039C7.40474 37.9789 7.34338 37.9188 7.28014 37.8569C6.01721 36.5194 5.4387 34.6511 5.02825 32.9006C5.00757 32.8134 4.98688 32.7263 4.96556 32.6365C4.83895 32.0591 4.77416 31.494 4.82664 30.9026C4.8589 30.8703 4.89116 30.8381 4.92439 30.8049Z" fill="#DC6889"/>
<path d="M39.289 25.3469C39.8747 25.6285 40.3081 25.9062 40.6069 26.5039C40.7147 27.2186 40.5253 27.775 40.1181 28.3613C38.9622 29.6964 37.134 30.2934 35.4256 30.5121C34.9226 30.5413 34.4203 30.5452 33.9165 30.5426C33.8139 30.5424 33.8139 30.5424 33.7091 30.5422C32.8565 30.5389 32.0121 30.513 31.167 30.3899C31.0917 30.3792 31.0164 30.3685 30.9388 30.3575C30.3102 30.2496 29.8216 30.0378 29.4196 29.5222C29.2072 29.0946 29.1692 28.6308 29.2669 28.1659C29.8647 27.1346 30.7767 26.3087 31.9063 25.9175C32.4029 25.8082 32.8169 25.9239 33.254 26.1637C33.625 26.4118 33.9618 26.6997 34.2999 26.9905C34.5093 27.1589 34.692 27.2774 34.9369 27.3838C34.9692 27.3192 35.0014 27.2548 35.0346 27.1883C35.0346 27.285 35.0346 27.3818 35.0346 27.4815C35.4006 27.4041 35.6546 27.3485 35.9267 27.0844C36.0781 26.8472 36.2065 26.6124 36.336 26.3635C36.9569 25.2084 38.0842 24.9484 39.289 25.3469Z" fill="#9E0430"/>
<path d="M14.5969 23.7712C15.2524 24.1858 15.6511 24.8283 15.9716 25.5248C15.9716 25.5893 15.9716 25.6539 15.9716 25.7203C16.3374 25.8423 16.5629 25.8617 16.9492 25.8181C17.509 25.5367 17.977 25.1196 18.4328 24.6954C18.824 24.3703 19.1463 24.308 19.6445 24.3211C20.7657 24.4653 21.7127 25.3977 22.4237 26.2091C22.6782 26.623 22.6799 27.0064 22.6192 27.4799C22.5147 27.8566 22.3746 28.1507 22.059 28.3907C20.1349 29.4314 16.8479 29.1972 14.8061 28.6179C13.4203 28.1901 12.1205 27.4706 11.3892 26.1785C11.2313 25.6608 11.1234 25.1406 11.3835 24.6396C12.1102 23.7168 13.4947 23.3675 14.5969 23.7712Z" fill="#9E0430"/>
<path d="M44.2248 2.16449C44.6265 2.44679 44.7154 2.76885 44.8112 3.23984C44.8514 3.6278 44.8647 3.83697 44.6594 4.17187C44.3657 4.46796 44.0739 4.57225 43.6843 4.6898C43.6123 4.71306 43.5403 4.73632 43.4659 4.76029C43.2325 4.83535 42.9986 4.90824 42.7645 4.98116C42.4445 5.08336 42.1249 5.18669 41.8052 5.29009C41.7267 5.31533 41.6483 5.34057 41.5674 5.36657C40.8479 5.59945 40.1424 5.86339 39.4425 6.14962C39.0672 6.29991 38.7718 6.41077 38.3592 6.36811C38.1088 5.67956 37.9192 5.04782 37.8704 4.31518C38.5326 3.96991 39.2129 3.68472 39.9051 3.40481C40.0789 3.33423 40.0789 3.33423 40.2564 3.26222C43.4325 1.9806 43.4325 1.9806 44.2248 2.16449Z" fill="#504940"/>
<path d="M37.2829 41.4612C37.4845 41.6139 37.4845 41.6139 37.5762 41.8522C37.5936 42.131 37.5693 42.3697 37.4784 42.6343C37.1911 42.9131 37.035 42.9276 36.6352 42.9276C36.3053 42.8298 36.3053 42.8298 36.1098 42.6221C35.9819 42.2545 36.006 42.0301 36.1098 41.6568C36.4209 41.2584 36.8386 41.3256 37.2829 41.4612Z" fill="#DC6586"/>
<path d="M16.9488 40.68C17.1505 40.8327 17.1505 40.8327 17.2421 41.071C17.2596 41.3498 17.2352 41.5885 17.1444 41.8532C16.8571 42.1319 16.701 42.1464 16.3012 42.1464C15.9712 42.0486 15.9712 42.0486 15.7758 41.8409C15.648 41.4733 15.6721 41.2489 15.7758 40.8756C16.0869 40.4772 16.5046 40.5445 16.9488 40.68Z" fill="#DC6586"/>
<path d="M14.9942 3.72852C14.8326 4.14796 14.516 4.42681 14.2022 4.73512C14.1439 4.79316 14.0856 4.85119 14.0255 4.91098C13.8397 5.0957 13.6532 5.27972 13.4666 5.46373C13.3404 5.58907 13.2141 5.71445 13.0879 5.83988C12.7788 6.14678 12.4692 6.45307 12.1592 6.75903C12.0946 6.72677 12.0301 6.69451 11.9636 6.66127C12.5762 5.96754 13.2097 5.29961 13.8638 4.645C13.9952 4.51173 13.9952 4.51173 14.1294 4.37579C14.2131 4.29198 14.2966 4.20818 14.3828 4.12184C14.4581 4.04615 14.5334 3.97046 14.6109 3.89249C14.7986 3.72852 14.7986 3.72852 14.9942 3.72852Z" fill="#36A648"/>
</g>
<defs>
<clipPath id="clip0_1_2753">
<rect width="50" height="50" fill="white"/>
</clipPath>
</defs>
</svg>
