<svg width="50" height="50" viewBox="0 0 50 50" fill="none" xmlns="http://www.w3.org/2000/svg">
<path d="M14.2184 6.16263C14.6808 6.6398 15.0483 7.15313 15.3598 7.73872C15.6834 7.64012 15.9917 7.51923 16.3015 7.38435C18.041 6.62729 19.8213 6.06179 21.699 5.76845C21.7952 5.75332 21.8914 5.73819 21.9905 5.7226C22.9591 5.58533 23.918 5.56292 24.8953 5.56499C24.9781 5.56504 25.0609 5.56509 25.1462 5.56513C26.5087 5.56865 27.8159 5.65114 29.1518 5.93977C29.2399 5.95859 29.3281 5.9774 29.4189 5.99679C31.2259 6.39344 32.8952 6.99955 34.5486 7.82438C34.5715 7.7621 34.5943 7.69982 34.6179 7.63566C35.0596 6.59873 35.9471 5.74697 36.9472 5.25446C37.8776 4.89922 38.8989 4.92042 39.8186 5.28993C41.0522 5.8753 41.9067 6.63469 42.4531 7.90101C42.78 8.84838 42.6336 9.90801 42.2366 10.8096C41.9762 11.3141 41.6574 11.7506 41.2933 12.1852C41.1334 12.3719 41.1334 12.3719 40.9734 12.6216C41.0078 12.6539 41.0421 12.6863 41.0775 12.7196C42.2459 13.8509 43.2447 15.243 44.0573 16.6478C44.0883 16.7008 44.1193 16.7537 44.1513 16.8083C46.4242 20.7012 47.6697 25.5312 46.6272 30.0114C46.6125 30.0774 46.5978 30.1434 46.5827 30.2114C46.2419 31.7106 45.7132 33.1336 44.9918 34.4904C44.9228 34.6206 44.856 34.752 44.7895 34.8835C44.1861 36.0487 43.385 37.0872 42.5154 38.0638C42.4779 38.1066 42.4404 38.1494 42.4017 38.1935C40.9752 39.8193 39.3071 41.1402 37.4612 42.2614C37.4024 42.2972 37.3437 42.3331 37.2832 42.37C34.0028 44.3454 29.9504 45.5048 26.1204 45.537C26.0375 45.5379 25.9546 45.5387 25.8692 45.5396C20.445 45.5831 15.0416 44.4188 10.6483 41.0621C10.6002 41.026 10.552 40.99 10.5024 40.9529C9.17848 39.961 7.9282 38.8194 6.90359 37.5183C6.82787 37.4222 6.75171 37.3265 6.67521 37.231C4.52907 34.5414 3.04019 31.0473 3.00378 27.5703C3.00294 27.5033 3.00209 27.4362 3.00123 27.3672C2.96626 23.8602 3.67811 20.6951 5.33712 17.5901C5.38164 17.506 5.38164 17.506 5.42705 17.4203C6.36884 15.6539 7.57354 14.0851 8.93502 12.6216C8.86258 12.5421 8.79014 12.4626 8.7155 12.3806C7.81557 11.3275 7.25625 10.1605 7.28632 8.76502C7.36283 7.83836 7.80991 6.98193 8.5067 6.36809C8.55186 6.32271 8.59703 6.27732 8.64356 6.23056C10.2633 4.67269 12.5863 4.62022 14.2184 6.16263Z" fill="#489942"/>
<path d="M28.2095 9.2817C28.2738 9.29226 28.3382 9.30282 28.4045 9.3137C30.7544 9.70666 33.1497 10.7805 35.0626 12.1943C35.1525 12.26 35.2424 12.3257 35.335 12.3934C36.2393 13.0655 37.0486 13.8322 37.8467 14.625C37.8971 14.6749 37.9474 14.7249 37.9993 14.7763C38.2672 15.0453 38.5152 15.3185 38.7462 15.6208C38.698 15.7761 38.698 15.7761 38.5749 15.9635C38.4351 16.0263 38.2948 16.0882 38.1519 16.1435C37.5734 16.3955 37.0277 16.7943 36.6903 17.3341C36.629 17.504 36.5711 17.6752 36.5189 17.8481C37.5433 17.7483 37.5433 17.7483 38.5588 17.5858C39.7224 17.3636 40.9079 17.41 42.0871 17.4198C42.2143 17.6742 42.2143 17.6742 42.3441 17.9338C41.6374 17.9338 40.9306 17.9338 40.2025 17.9338C40.4236 18.3659 40.4236 18.3659 40.6458 18.7973C40.8027 19.1074 40.93 19.3832 40.9735 19.7327C40.9223 19.7204 40.8712 19.708 40.8185 19.6952C39.3298 19.3767 37.9222 19.5285 36.6046 20.3324C35.3336 21.2063 34.3612 22.4359 33.949 23.9303C33.8925 23.9303 33.8359 23.9303 33.7777 23.9303C33.5968 23.6115 33.5737 23.3417 33.5501 22.9816C33.5404 22.9272 33.5307 22.8727 33.5207 22.8166C33.4641 22.7884 33.4076 22.7601 33.3494 22.731C33.3547 22.6656 33.36 22.6002 33.3654 22.5329C33.375 22.3038 33.375 22.3038 33.2386 22.1939C33.0358 21.9883 32.9277 21.7544 32.7925 21.4995C31.8126 19.7253 30.2297 18.5312 28.3808 17.7624C28.3066 17.73 28.2324 17.6975 28.156 17.6641C26.5739 17.0225 24.6361 16.9703 22.984 17.3341C22.8346 17.3656 22.8346 17.3656 22.6822 17.3977C20.4206 17.9335 18.4765 19.3081 17.2445 21.2747C17.0137 21.6634 16.7881 22.0442 16.6449 22.474C16.5883 22.5588 16.5318 22.6436 16.4735 22.731C16.3785 23.0159 16.3414 23.2904 16.3022 23.5876C16.2739 23.5876 16.2457 23.5876 16.2165 23.5876C16.1741 23.842 16.1741 23.842 16.1309 24.1016C15.9181 23.8888 15.8711 23.7056 15.7721 23.4216C15.4138 22.473 14.8673 21.738 14.1606 21.0177C14.108 20.963 14.0555 20.9084 14.0013 20.852C13.0352 19.9251 11.7279 19.5255 10.4167 19.5362C9.91216 19.5493 9.42624 19.6139 8.93508 19.7327C9.13013 19.1168 9.36749 18.5284 9.62039 17.9338C8.94193 17.9338 8.26347 17.9338 7.56445 17.9338C7.62099 17.7924 7.67753 17.6511 7.73578 17.5055C8.14831 17.499 8.56081 17.4944 8.97337 17.4913C9.113 17.4901 9.25263 17.4883 9.39224 17.4861C10.2697 17.4723 11.0911 17.5242 11.9516 17.701C12.4287 17.7914 12.9047 17.8237 13.3896 17.8481C13.0026 16.7945 12.2287 16.3424 11.248 15.8778C11.248 15.4341 11.4429 15.2836 11.7352 14.9837C11.7807 14.9357 11.8261 14.8878 11.8729 14.8383C12.1453 14.5519 12.4248 14.2727 12.7043 13.9932C12.7739 13.9177 12.7739 13.9177 12.8448 13.8406C15.0726 11.4615 18.4669 9.9144 21.6134 9.2817C21.6804 9.2678 21.7474 9.2539 21.8165 9.23958C23.892 8.82676 26.1358 8.91077 28.2095 9.2817Z" fill="#9CC971"/>
<path d="M31.2929 19.477C31.3518 19.527 31.4108 19.577 31.4716 19.6286C32.1792 20.2847 32.7471 21.1906 33.1775 22.0469C33.234 22.0469 33.2906 22.0469 33.3488 22.0469C33.3594 22.1264 33.37 22.2059 33.3809 22.2878C33.4187 22.5728 33.4187 22.5728 33.6058 22.8179C33.652 23.0458 33.6687 23.2713 33.6915 23.5032C33.7197 23.5032 33.748 23.5032 33.7771 23.5032C33.7771 23.6445 33.7771 23.7859 33.7771 23.9315C33.8337 23.9315 33.8902 23.9315 33.9485 23.9315C33.9425 24.2972 33.935 24.6628 33.926 25.0285C33.9231 25.1526 33.9207 25.2767 33.9188 25.4008C33.908 26.0685 33.8952 26.6574 33.6058 27.2724C33.5604 27.4038 33.5604 27.4038 33.5141 27.5378C33.0721 28.7803 32.3974 29.7777 31.4642 30.699C31.3945 30.7685 31.3248 30.8381 31.253 30.9098C29.5261 32.55 27.0604 33.3089 24.7128 33.2946C22.1531 33.2262 19.7612 32.1442 18.0002 30.2917C16.6472 28.7933 16.0494 26.8849 15.9911 24.9006C15.9878 24.8068 15.9845 24.713 15.9811 24.6163C15.9731 24.3881 15.9657 24.1598 15.959 23.9315C15.9873 23.9315 16.0155 23.9315 16.0446 23.9315C16.0552 23.8679 16.0659 23.8043 16.0768 23.7388C16.1303 23.5032 16.1303 23.5032 16.216 23.3426C16.3198 23.1457 16.3198 23.1457 16.3445 22.8446C16.3586 22.751 16.3727 22.6574 16.3873 22.5609C16.4721 22.5185 16.4721 22.5185 16.5586 22.4752C16.5586 22.3339 16.5586 22.1925 16.5586 22.0469C16.6152 22.0469 16.6717 22.0469 16.73 22.0469C16.7685 21.9732 16.807 21.8996 16.8467 21.8237C17.9264 19.8174 19.7152 18.2343 21.9014 17.5267C25.2821 16.5191 28.6015 17.1847 31.2929 19.477Z" fill="#86C54B"/>
<path d="M12.2227 6.86764C13.0902 7.29252 13.6685 8.13774 14.0165 9.01765C14.1898 9.56996 14.2119 10.1634 14.2438 10.7379C14.2864 10.713 14.329 10.688 14.3728 10.6623C14.8709 10.3708 15.3707 10.0824 15.8714 9.79561C15.9307 9.76142 15.99 9.72723 16.0512 9.692C16.7713 9.27964 17.4922 8.96912 18.2807 8.70975C18.4976 8.63825 18.6968 8.5593 18.9071 8.46681C19.465 8.23378 20.0543 8.10457 20.6403 7.96032C20.8077 7.91897 20.9746 7.87588 21.1414 7.83236C22.3012 7.56134 23.5093 7.54156 24.6948 7.48268C24.7643 7.47855 24.8338 7.47443 24.9054 7.47017C27.3167 7.33194 30.2421 7.93378 32.4046 9.02464C32.5539 9.09292 32.7032 9.16118 32.8527 9.22901C33.3991 9.47833 33.9346 9.74592 34.4659 10.0258C34.526 10.0574 34.5862 10.0889 34.6481 10.1215C35 10.3089 35.3318 10.5112 35.6598 10.7379C35.668 10.5918 35.668 10.5918 35.6762 10.4428C35.7681 9.17477 36.1278 8.09605 37.1161 7.22569C37.5603 6.88448 37.9632 6.72774 38.5266 6.76257C39.411 6.90429 40.0056 7.39906 40.5869 8.05824C40.8951 8.50108 40.8626 9.02674 40.7997 9.53862C40.5667 10.5245 39.839 11.3178 39.0007 11.8516C38.7491 11.9825 38.4943 12.0924 38.2298 12.1942C38.087 12.2513 37.9442 12.3084 37.8014 12.3655C37.8729 12.4308 37.9443 12.4961 38.0179 12.5633C38.9442 13.4118 39.844 14.2586 40.5835 15.2818C40.8995 15.7003 41.275 15.8833 41.7504 16.0956C42.1726 16.3076 42.5159 16.5908 42.77 16.9914C42.7358 17.2193 42.7358 17.2193 42.6843 17.4197C42.5803 17.4223 42.5803 17.4223 42.4742 17.4249C40.107 17.4841 40.107 17.4841 37.7653 17.8159C37.3509 17.8762 36.9341 17.8612 36.5165 17.848C36.5281 17.385 36.7136 17.147 37.0167 16.8221C37.5011 16.3684 38.0362 16.0219 38.6581 15.7921C38.4466 15.3152 38.0698 14.9674 37.7158 14.5928C37.6729 14.547 37.63 14.5012 37.5858 14.454C35.0055 11.7178 31.4784 9.90217 27.7787 9.28163C27.7164 9.27063 27.654 9.25963 27.5898 9.24829C23.2365 8.51193 18.5356 9.66828 14.9492 12.2055C14.0265 12.8742 13.155 13.6047 12.3592 14.4215C12.3055 14.4743 12.2519 14.527 12.1966 14.5814C11.6912 15.075 11.6912 15.075 11.2456 15.6208C11.3041 15.8932 11.3041 15.8932 11.5373 15.9912C11.6248 16.0297 11.7123 16.0683 11.8024 16.108C12.4649 16.4254 13.051 16.8342 13.3872 17.5054C13.3872 17.6185 13.3872 17.7315 13.3872 17.848C12.6697 17.8994 12.0185 17.8103 11.3152 17.6821C9.95853 17.4394 8.59363 17.434 7.21934 17.4197C7.12481 17.0108 7.12481 17.0108 7.20462 16.8365C7.61858 16.3622 8.18759 15.9391 8.82253 15.8423C9.02955 15.8134 9.02955 15.8134 9.11232 15.6395C9.13783 15.5768 9.16333 15.5141 9.18962 15.4494C9.99389 14.3368 11.0185 13.208 12.1022 12.3655C12.0317 12.3426 11.9613 12.3196 11.8887 12.2959C10.7586 11.8992 9.92429 11.2373 9.32815 10.1865C9.06282 9.60754 8.96367 8.95057 9.1605 8.3333C9.24237 8.17524 9.33303 8.04798 9.44661 7.911C9.48625 7.86109 9.52589 7.81118 9.56674 7.75975C10.2327 7.0108 11.2347 6.53084 12.2227 6.86764Z" fill="#1F7D3B"/>
<path d="M15.4917 33.4922C16.0722 33.4991 16.622 33.6765 17.1773 33.8303C18.1487 34.0979 19.1182 34.3457 20.1149 34.5001C20.2301 34.5179 20.2301 34.5179 20.3476 34.5361C20.5981 34.5722 20.8488 34.6035 21.1 34.6339C21.1831 34.6448 21.1831 34.6448 21.2678 34.6558C22.3584 34.7968 23.4365 34.832 24.5356 34.8276C24.8035 34.8267 25.0714 34.8276 25.3394 34.8287C26.9199 34.8299 28.4957 34.742 30.0519 34.4519C30.1494 34.4343 30.2469 34.4167 30.3473 34.3986C31.2631 34.226 32.1626 33.9938 33.0595 33.7423C33.6308 33.5859 34.1275 33.4729 34.7206 33.5203C34.9121 33.7118 34.8329 34.1011 34.8334 34.3591C34.8076 35.7174 34.1192 36.788 33.1786 37.7178C31.8387 38.9512 30.1405 39.5851 28.3815 39.9451C28.3211 39.958 28.2607 39.971 28.1985 39.9843C27.1159 40.2067 26.0342 40.2269 24.9335 40.2289C24.8649 40.2292 24.7963 40.2295 24.7257 40.2298C21.7372 40.237 18.6891 39.5756 16.4474 37.4716C15.5866 36.5696 15.0856 35.4712 15.0928 34.227C15.0925 34.1684 15.0921 34.1098 15.0918 34.0493C15.0928 33.5292 15.0928 33.5292 15.4917 33.4922Z" fill="#25140C"/>
<path d="M42.3296 21.3868C43.3471 22.34 43.9461 23.4827 44.0044 24.89C44.0285 26.2406 43.5558 27.4214 42.6264 28.4089C41.6061 29.3691 40.4047 29.8123 39.0161 29.799C37.9109 29.7549 37.0156 29.3624 36.1748 28.6392C36.1072 28.584 36.0395 28.5287 35.9697 28.4719C35.2776 27.854 34.6201 26.7353 34.5288 25.7931C34.4503 24.1641 34.7732 22.8821 35.8593 21.6458C37.6163 19.9409 40.4344 19.8296 42.3296 21.3868Z" fill="#EBEBEB"/>
<path d="M13.3888 21.1022C14.4587 21.8977 15.2402 23.0228 15.4447 24.3575C15.5631 25.8411 15.2063 27.0963 14.2431 28.2488C13.3434 29.2168 12.1579 29.7422 10.8413 29.7946C9.67832 29.8093 8.76326 29.4992 7.8206 28.812C7.76627 28.7744 7.71194 28.7369 7.65597 28.6982C6.80158 28.0476 6.20786 26.9414 6.02166 25.8994C5.89091 24.2854 6.14724 23.0705 7.18816 21.7882C8.80787 20.0445 11.4244 19.8858 13.3888 21.1022Z" fill="#ECECEC"/>
<path d="M28.551 22.3853C29.218 22.9047 29.6857 23.5995 29.836 24.4412C29.8904 25.4566 29.8984 26.3501 29.2363 27.1824C28.8676 27.5491 28.5316 27.7597 28.0103 27.8089C27.3543 27.7533 26.8497 27.5042 26.4094 27.0111C26.2372 26.7657 26.106 26.5124 25.9811 26.2401C25.9473 26.1686 25.9135 26.097 25.8787 26.0233C25.5465 25.2334 25.5084 24.412 25.7776 23.5953C26.0171 23.0217 26.3371 22.4762 26.9234 22.2139C27.4658 22.0151 28.0577 22.0998 28.551 22.3853Z" fill="#232523"/>
<path d="M22.2998 22.8136C22.7905 23.1021 23.0922 23.4877 23.2739 24.0246C23.4879 24.9991 23.3077 25.8175 22.7997 26.6631C22.502 27.0681 22.0812 27.3039 21.5914 27.3866C21.1291 27.4102 20.7641 27.3236 20.4152 27.0111C19.8275 26.2682 19.8172 25.4408 19.9012 24.5268C19.9742 24.2349 20.0825 24.0083 20.2438 23.7559C20.2729 23.7018 20.3019 23.6477 20.3318 23.5919C20.7332 22.9206 21.5454 22.5268 22.2998 22.8136Z" fill="#232523"/>
<path d="M17.1582 29.1523C17.3855 29.3717 17.5818 29.594 17.7686 29.8484C19.1994 31.6927 21.309 32.7467 23.5884 33.1197C26.1929 33.4278 28.8042 32.7821 30.8775 31.1581C31.5788 30.5636 32.1699 29.9289 32.6634 29.1523C32.6917 29.2089 32.72 29.2654 32.7491 29.3237C32.4125 29.9808 31.9336 30.5573 31.4641 31.1226C31.4075 31.1952 31.4075 31.1952 31.3497 31.2692C30.8192 31.942 30.107 32.4385 29.4082 32.9216C29.3443 32.9666 29.2805 33.0117 29.2148 33.0581C28.7513 33.3617 28.2594 33.5627 27.7431 33.7568C27.6767 33.782 27.6103 33.8072 27.542 33.8331C25.6515 34.5157 23.5208 34.3714 21.6984 33.5617C19.9243 32.6908 18.4631 31.4337 17.4152 29.752C17.3661 29.6744 17.3169 29.5967 17.2663 29.5168C17.1582 29.3237 17.1582 29.3237 17.1582 29.1523Z" fill="#026937"/>
<path d="M35.0616 22.5586C35.0898 22.6151 35.1181 22.6717 35.1472 22.7299C35.086 22.8984 35.0169 23.0641 34.9438 23.2278C34.5068 24.2105 34.4214 25.5077 34.7911 26.5313C35.3435 27.8556 36.2226 28.8435 37.5395 29.4395C38.6873 29.8552 40.0282 29.8189 41.1437 29.3261C42.4422 28.7034 43.267 27.7534 43.7511 26.3974C44.0306 25.3971 43.9303 24.3334 43.7137 23.3296C44.4191 24.2028 44.4153 25.3453 44.3133 26.4135C44.0965 27.658 43.3699 28.6419 42.3865 29.4064C41.0925 30.2972 39.5006 30.5445 37.9688 30.263C36.6221 29.9374 35.521 29.1865 34.7173 28.0669C34.0421 26.9416 33.8611 25.6774 34.1621 24.4057C34.3572 23.727 34.6848 23.152 35.0616 22.5586Z" fill="#121311"/>
<path d="M14.9317 22.8164C15.5886 23.3989 15.8145 24.4904 15.9044 25.3271C15.963 26.7209 15.4405 27.892 14.5087 28.9083C13.3825 29.9664 11.92 30.3909 10.4045 30.3789C8.91434 30.3084 7.61149 29.6158 6.59013 28.5495C5.6926 27.4859 5.48987 26.247 5.57404 24.8969C5.64545 24.206 5.95447 23.5916 6.2796 22.9877C6.37718 23.2805 6.355 23.3169 6.24446 23.5887C6.08382 24.0421 6.06549 24.4587 6.07079 24.9366C6.0715 25.0194 6.07221 25.1023 6.07295 25.1877C6.09848 26.2733 6.41592 27.0796 7.05058 27.9563C7.11595 28.0481 7.18132 28.14 7.24867 28.2347C8.08133 29.0867 9.21776 29.6726 10.4164 29.7065C11.8033 29.7103 13.0014 29.3222 14.0483 28.3739C14.9633 27.3862 15.4122 26.1873 15.3953 24.8527C15.3751 24.3459 15.2656 23.8935 15.103 23.4161C15.0684 23.2967 15.0344 23.1771 15.0013 23.0573C14.9668 22.9381 14.9668 22.9381 14.9317 22.8164Z" fill="#131412"/>
<path d="M14.9315 23.0742C15.1028 23.1599 15.1028 23.1599 15.1728 23.3218C15.1938 23.3885 15.2149 23.4552 15.2367 23.524C15.258 23.5898 15.2793 23.6556 15.3013 23.7234C15.6562 24.9811 15.4608 26.2176 14.8823 27.3688C14.1649 28.5695 13.1037 29.3535 11.7482 29.6995C10.703 29.8792 9.75183 29.8044 8.76367 29.4134C8.76367 29.3568 8.76367 29.3003 8.76367 29.242C8.85488 29.2398 8.9461 29.2376 9.04007 29.2353C10.7453 29.1764 12.2495 28.6751 13.4433 27.4057C14.5459 26.1493 14.8213 24.6949 14.9315 23.0742Z" fill="#EEEEEE"/>
<path d="M43.4569 23.0742C43.8793 23.4316 43.9368 24.0047 43.9874 24.5317C44.0759 25.91 43.7272 27.1119 42.8355 28.1906C41.9227 29.1606 40.7649 29.7468 39.4283 29.7962C38.658 29.8059 38.0088 29.7028 37.2891 29.4134C37.2891 29.3568 37.2891 29.3003 37.2891 29.242C37.3845 29.2408 37.4799 29.2396 37.5782 29.2384C39.2433 29.1957 40.5945 28.7411 41.8239 27.5823C43.0409 26.2795 43.377 24.787 43.4569 23.0742Z" fill="#EEEEEE"/>
<path d="M29.0653 35.2324C29.1078 35.9209 29.0898 36.5154 28.7226 37.117C28.3718 37.5093 28.0026 37.777 27.4741 37.8371C26.8353 37.8613 26.3066 37.87 25.7906 37.4439C25.337 36.9793 25.1865 36.6673 25.1836 36.0034C25.1904 35.8319 25.1986 35.6605 25.2104 35.4894C25.2655 35.4877 25.3206 35.486 25.3773 35.4842C26.3809 35.4518 27.3733 35.4119 28.3676 35.2668C28.6043 35.2366 28.8271 35.2257 29.0653 35.2324Z" fill="#F2F2F2"/>
<path d="M20.9283 35.3203C21.0353 35.3255 21.1423 35.3307 21.2525 35.336C22.4007 35.3914 23.549 35.4426 24.6975 35.4916C24.7762 36.6391 24.7762 36.6391 24.3917 37.1551C24.0442 37.5395 23.7085 37.7807 23.192 37.8394C22.542 37.8638 22.0309 37.8647 21.5025 37.4382C21.153 37.0847 20.9348 36.7432 20.9199 36.2322C20.9209 36.1238 20.9219 36.0155 20.9229 35.9039C20.9237 35.7949 20.9245 35.6859 20.9253 35.5736C20.9263 35.49 20.9273 35.4064 20.9283 35.3203Z" fill="#F2F2F2"/>
<path d="M33.349 34.3789C33.3893 35.0929 33.3929 35.726 33.0064 36.3492C32.6624 36.7331 32.294 37.0117 31.7736 37.0633C31.0479 37.0706 30.4883 37.069 29.9419 36.5466C29.562 36.1061 29.5301 35.7178 29.4941 35.1499C29.5579 35.1387 29.6217 35.1275 29.6874 35.116C31.2563 34.8487 31.2563 34.8487 32.7919 34.4388C33.0064 34.3789 33.0064 34.3789 33.349 34.3789Z" fill="#E4E5E5"/>
<path d="M16.6465 34.3789C17.3905 34.5195 18.1233 34.6982 18.8576 34.8824C19.3782 35.01 19.8815 35.1045 20.4158 35.1499C20.4679 35.7341 20.3581 36.0648 19.9874 36.5205C19.4292 37.0379 18.9241 37.0935 18.1888 37.0726C17.721 37.0379 17.4025 36.8519 17.0749 36.5205C16.6814 36.0596 16.6345 35.6364 16.6412 35.0482C16.6416 34.9839 16.642 34.9197 16.6424 34.8536C16.6434 34.6953 16.6449 34.5371 16.6465 34.3789Z" fill="#E4E4E4"/>
<path d="M40.5464 23.3287C41.0325 23.4908 41.3453 23.8129 41.5744 24.271C41.6396 24.8466 41.5971 25.3475 41.2317 25.813C40.9009 26.1263 40.5728 26.2683 40.1181 26.2948C39.6633 26.2683 39.3352 26.1263 39.0044 25.813C38.6845 25.4054 38.6059 24.9813 38.6286 24.4705C38.6973 24.0571 38.9249 23.8271 39.2293 23.5589C39.6505 23.2596 40.0414 23.2901 40.5464 23.3287Z" fill="#191A18"/>
<path d="M10.2206 23.5864C10.5764 23.9303 10.7488 24.2175 10.7667 24.7108C10.7602 25.2074 10.6556 25.5407 10.3063 25.8994C9.90509 26.1956 9.52102 26.3134 9.0213 26.242C8.54066 26.0947 8.22408 25.8573 7.98028 25.4152C7.84271 25.0341 7.84203 24.6686 7.90767 24.2717C8.11071 23.8581 8.40272 23.5255 8.83926 23.3509C9.36959 23.2885 9.74763 23.3237 10.2206 23.5864Z" fill="#191A18"/>
<path d="M38.4902 8.51091C38.8732 8.72785 39.1794 8.95139 39.3468 9.36755C39.4259 9.87202 39.278 10.1555 38.9921 10.5538C38.6969 10.8955 38.2703 11.2974 37.8059 11.3612C37.4174 11.3782 37.2612 11.3834 36.9482 11.129C36.8917 11.0566 36.8351 10.9841 36.7769 10.9095C36.7486 10.8812 36.7203 10.853 36.6912 10.8238C36.6326 10.1697 36.6147 9.55951 37.0339 9.02489C37.4903 8.56138 37.8252 8.32025 38.4902 8.51091Z" fill="#006837"/>
<path d="M12.2752 8.50918C12.7091 8.7619 12.9795 9.10933 13.1606 9.57396C13.2685 9.99154 13.2912 10.3968 13.2175 10.8221C13.0277 11.0768 12.8972 11.1964 12.6179 11.3361C12.0756 11.4027 11.7837 11.3017 11.3429 10.9814C10.9528 10.6388 10.5859 10.2147 10.5352 9.68707C10.5672 9.30204 10.6568 9.1453 10.9046 8.85184C11.3823 8.49112 11.6838 8.36133 12.2752 8.50918Z" fill="#006837"/>
<path d="M42.773 16.9873C42.7447 17.1286 42.7165 17.2699 42.6873 17.4156C42.618 17.4173 42.5487 17.419 42.4773 17.4207C40.1101 17.4799 40.1101 17.4799 37.7684 17.8118C37.354 17.872 36.9371 17.857 36.5195 17.8439C36.5212 17.6518 36.5212 17.6518 36.6052 17.4156C36.8275 17.273 37.0243 17.1669 37.2637 17.0622C37.363 17.0178 37.363 17.0178 37.4642 16.9725C39.1708 16.2357 41.0648 16.2677 42.773 16.9873Z" fill="#016938"/>
<path d="M13.3905 17.5042C13.3905 17.6173 13.3905 17.7304 13.3905 17.8469C12.673 17.8983 12.0218 17.8092 11.3185 17.6809C9.96185 17.4383 8.59695 17.4329 7.22266 17.4186C7.22266 17.0759 7.22266 17.0759 7.35651 16.9377C9.25596 15.8571 11.6273 16.5383 13.3905 17.5042Z" fill="#016938"/>
<path d="M30.9998 18.9468C31.068 19.008 31.1363 19.0692 31.2066 19.1322C31.266 19.1846 31.3254 19.2369 31.3866 19.2908C31.7552 19.6359 32.0564 20.0207 32.3523 20.4279C32.3891 20.4781 32.4259 20.5283 32.4638 20.58C32.6797 20.8858 32.8201 21.1702 32.9199 21.5308C32.6951 21.3219 32.5279 21.0912 32.3523 20.8401C30.9401 18.8922 28.8975 17.6181 26.5101 17.2324C25.3478 17.0707 24.1301 17.0806 22.9828 17.3333C22.8832 17.3542 22.7836 17.3752 22.681 17.3968C20.5223 17.9082 18.6531 19.1805 17.4197 21.0195C17.284 21.2151 17.1623 21.3734 16.9863 21.5308C17.1095 21.0566 17.3407 20.7293 17.6342 20.3476C17.6806 20.2869 17.7269 20.2262 17.7747 20.1636C19.2086 18.3144 21.3575 17.0589 23.6916 16.7577C26.4138 16.5523 28.8971 17.1418 30.9998 18.9468Z" fill="#A4E777"/>
<path d="M12.4191 16.4118C12.7633 16.676 13.0354 16.9981 13.3045 17.3364C13.2763 17.3929 13.248 17.4494 13.2189 17.5077C13.1338 17.4612 13.0488 17.4147 12.9612 17.3668C11.3187 16.4913 9.64246 16.3232 7.84646 16.808C7.58328 16.9016 7.36893 17.0113 7.13672 17.165C7.39211 16.5904 7.77177 16.228 8.33602 15.9657C9.75748 15.4823 11.1505 15.6133 12.4191 16.4118Z" fill="#09773F"/>
<path d="M41.9733 16.1698C42.2926 16.3966 42.5165 16.6304 42.6857 16.99C42.6338 16.9734 42.5819 16.9568 42.5284 16.9398C42.2961 16.8676 42.063 16.7996 41.829 16.733C41.7672 16.7147 41.7054 16.6965 41.6416 16.6778C40.0529 16.2834 38.4193 16.5923 36.987 17.3263C36.917 17.3566 36.847 17.387 36.7748 17.4183C36.7183 17.39 36.6618 17.3617 36.6035 17.3326C37.8948 15.6864 40.0899 15.1692 41.9733 16.1698Z" fill="#0A7640"/>
<path d="M42.0854 17.4222C42.1702 17.5919 42.255 17.7615 42.3424 17.9362C42.2727 17.937 42.2031 17.9378 42.1313 17.9387C40.554 17.9613 38.9866 18.0095 37.4502 18.4119C37.2298 18.464 37.0217 18.4583 36.7957 18.4556C36.7113 18.4548 36.6269 18.454 36.54 18.4532C36.476 18.4522 36.4119 18.4512 36.3459 18.4502C36.3352 18.2039 36.3352 18.2039 36.3459 17.9362C36.5172 17.7649 36.5172 17.7649 36.7077 17.7572C36.8281 17.7637 36.8281 17.7637 36.9509 17.7703C37.4071 17.779 37.8225 17.7274 38.268 17.6418C39.539 17.4024 40.7959 17.4115 42.0854 17.4222Z" fill="#B7CF9E"/>
<path d="M21.0996 39.8594C21.1699 39.8711 21.1699 39.8711 21.2415 39.883C23.2415 40.1986 25.2491 40.1416 27.2674 40.1164C26.9601 40.3605 26.7096 40.4517 26.3251 40.5447C26.237 40.5687 26.237 40.5687 26.1471 40.5932C25.5992 40.7265 25.0694 40.7292 24.5092 40.7172C24.2326 40.7119 24.0199 40.7134 23.7552 40.8017C23.5487 40.7696 23.5487 40.7696 23.3215 40.716C23.0155 40.6289 23.0155 40.6289 22.7272 40.716C22.5561 40.6767 22.3849 40.6367 22.2156 40.5902C22.0332 40.5387 22.0332 40.5387 21.8063 40.5126C21.5509 40.4416 21.4368 40.3191 21.2709 40.1164C21.2709 40.0598 21.2709 40.0033 21.2709 39.945C21.2144 39.9168 21.1579 39.8885 21.0996 39.8594Z" fill="#579F46"/>
<path d="M9.87641 17.5061C10.4471 17.4728 10.9729 17.5247 11.5308 17.6345C12.1878 17.7632 12.8034 17.7918 13.4743 17.763C13.5903 17.9951 13.5655 18.1922 13.56 18.4484C12.6953 18.5213 11.8743 18.3175 11.0328 18.1474C10.5926 18.0616 10.1492 17.997 9.70508 17.9344C9.76162 17.793 9.81815 17.6517 9.87641 17.5061Z" fill="#B7CF9E"/>
<path d="M33.0057 34.3789C33.1188 34.3789 33.2319 34.3789 33.3484 34.3789C33.3887 35.0929 33.3923 35.726 33.0057 36.3492C32.824 36.552 32.6343 36.715 32.4061 36.8632C32.3567 36.8954 32.3074 36.9277 32.2565 36.9609C31.9741 37.0685 31.7165 37.0571 31.4156 37.0559C31.358 37.0566 31.3004 37.0572 31.2411 37.0579C30.9255 37.0567 30.7908 37.0427 30.5215 36.8632C30.5939 36.861 30.6664 36.8587 30.741 36.8565C31.4629 36.8204 32.0127 36.7588 32.5239 36.2207C32.7883 35.8138 32.8586 35.5411 32.8826 35.0482C32.9116 34.473 32.9116 34.473 33.0057 34.3789Z" fill="#A0AFB9"/>
<path d="M28.6369 35.2344C28.7782 35.2344 28.9196 35.2344 29.0652 35.2344C29.1078 35.9229 29.0897 36.5173 28.7225 37.119C28.541 37.322 28.3511 37.4848 28.1229 37.633C28.0745 37.6652 28.0262 37.6975 27.9763 37.7307C27.6833 37.8407 27.3928 37.829 27.0842 37.8257C27.0218 37.8264 26.9594 37.827 26.8952 37.8277C26.4313 37.826 26.4313 37.826 26.2383 37.633C26.3107 37.6308 26.3832 37.6286 26.4578 37.6263C27.1795 37.5902 27.724 37.5261 28.2407 36.9958C28.4988 36.5889 28.5757 36.2446 28.6048 35.7644C28.6112 35.6649 28.6176 35.5654 28.6242 35.4629C28.6284 35.3875 28.6326 35.3121 28.6369 35.2344Z" fill="#A1AFB8"/>
<path d="M24.3556 35.4922C24.4687 35.4922 24.5818 35.4922 24.6983 35.4922C24.777 36.6396 24.777 36.6396 24.3924 37.1556C24.0358 37.5503 23.7047 37.7908 23.1717 37.8279C23.0488 37.8283 22.9259 37.8279 22.803 37.8265C22.7406 37.8272 22.6782 37.8279 22.6139 37.8285C22.1501 37.8268 22.1501 37.8268 21.957 37.6338C22.0347 37.6336 22.1123 37.6333 22.1923 37.6331C22.9019 37.6106 23.4069 37.5397 23.9273 37.0341C24.3239 36.5899 24.3349 36.0663 24.3556 35.4922Z" fill="#A4B3BD"/>
<path d="M40.3075 17.4102C40.3896 17.4106 40.4717 17.4111 40.5563 17.4115C40.6892 17.4119 40.6892 17.4119 40.8248 17.4124C40.9181 17.4131 41.0113 17.4138 41.1074 17.4145C41.2478 17.4151 41.2478 17.4151 41.391 17.4157C41.6231 17.4167 41.8551 17.4181 42.0872 17.4199C42.172 17.5895 42.2568 17.7591 42.3442 17.9339C41.6375 17.9339 40.9307 17.9339 40.2026 17.9339C40.146 17.7925 40.0895 17.6512 40.0312 17.5055C40.1169 17.4199 40.1169 17.4199 40.3075 17.4102Z" fill="#83B38E"/>
<path d="M20.0724 35.1484C20.1855 35.1484 20.2986 35.1484 20.4151 35.1484C20.4672 35.7326 20.3574 36.0634 19.9868 36.5191C19.5138 36.9574 19.1589 37.0613 18.5198 37.0545C18.4574 37.0551 18.395 37.0558 18.3307 37.0565C17.8669 37.0548 17.8669 37.0548 17.6738 36.8617C17.7463 36.8595 17.8187 36.8573 17.8933 36.855C18.5521 36.8221 19.1211 36.7886 19.6033 36.3016C19.8859 35.9438 19.9868 35.5922 20.0724 35.1484Z" fill="#A3B1BB"/>
<path d="M7.30836 16.6445C7.3649 16.6728 7.42144 16.7011 7.47969 16.7302C7.43728 16.7655 7.39488 16.8009 7.35119 16.8373C7.18553 16.9976 7.18553 16.9976 7.2227 17.3298C8.18385 17.3581 9.145 17.3864 10.1353 17.4155C10.1353 17.4438 10.1353 17.472 10.1353 17.5012C9.34374 17.5012 8.5522 17.5012 7.73668 17.5012C7.70841 17.6142 7.68014 17.7273 7.65102 17.8438C7.87717 17.8721 8.10332 17.9004 8.33633 17.9295C8.33633 17.9578 8.33633 17.986 8.33633 18.0152C8.09895 18.0198 7.86165 18.0232 7.62425 18.0259C7.55694 18.0273 7.48964 18.0287 7.42029 18.0302C7.35542 18.0308 7.29054 18.0313 7.2237 18.0319C7.16404 18.0328 7.10437 18.0337 7.0429 18.0346C6.88004 18.0152 6.88004 18.0152 6.62305 17.8438C6.63672 17.2968 6.94696 17.0163 7.30836 16.6445Z" fill="#66796D"/>
<path d="M7.73578 17.5039C8.44251 17.5039 9.14924 17.5039 9.87739 17.5039C9.84912 17.7018 9.82085 17.8997 9.79172 18.1036C9.70691 18.146 9.70691 18.146 9.62039 18.1892C9.62039 18.1044 9.62039 18.0196 9.62039 17.9322C8.94193 17.9322 8.26347 17.9322 7.56445 17.9322C7.62099 17.7909 7.67753 17.6495 7.73578 17.5039Z" fill="#86B48F"/>
<path d="M27.2664 40.1177C26.9743 40.3747 26.6998 40.4551 26.3241 40.546C26.2151 40.5745 26.2151 40.5745 26.1039 40.6035C26.0282 40.6216 25.9524 40.6398 25.8744 40.6584C25.8033 40.6757 25.7321 40.6931 25.6589 40.7109C25.4675 40.7173 25.4675 40.7173 25.3135 40.5925C25.2795 40.5489 25.2455 40.5053 25.2105 40.4603C25.3235 40.432 25.4366 40.4038 25.5531 40.3746C24.9877 40.3464 24.4224 40.3181 23.8398 40.289C23.8398 40.2607 23.8398 40.2324 23.8398 40.2033C24.2177 40.191 24.5955 40.1788 24.9734 40.1667C25.1017 40.1626 25.2299 40.1585 25.3582 40.1543C25.5436 40.1482 25.7291 40.1423 25.9145 40.1364C26.0258 40.1328 26.137 40.1292 26.2517 40.1255C26.5902 40.1174 26.9278 40.1163 27.2664 40.1177Z" fill="#608B41"/>
<path d="M42.4286 16.6445C42.8396 16.8192 43.0719 17.1151 43.2852 17.5012C43.2745 17.7582 43.2745 17.7582 43.1996 17.9295C42.9169 17.9295 42.6342 17.9295 42.3429 17.9295C42.2581 17.7599 42.1733 17.5903 42.0859 17.4155C42.3828 17.3731 42.3828 17.3731 42.6856 17.3298C42.6387 17.0408 42.5952 16.8945 42.4286 16.6445Z" fill="#6C706E"/>
<path d="M27.694 40.1155C27.3833 40.4608 27.0981 40.5712 26.6661 40.7152C26.4662 40.7185 26.2663 40.7189 26.0664 40.7152C26.2631 40.4888 26.4286 40.4046 26.7142 40.319C27.4053 40.1079 27.4053 40.1079 27.694 40.1155Z" fill="#54A146"/>
<path d="M35.0623 22.5586C35.0905 22.6151 35.1188 22.6717 35.1479 22.7299C35.0867 22.8984 35.0176 23.0641 34.9445 23.2278C34.8019 23.5484 34.6891 23.8391 34.6339 24.1862C34.5491 24.1297 34.4643 24.0731 34.377 24.0149C34.4269 23.636 34.5712 23.3711 34.7678 23.0458C34.8227 22.9543 34.8776 22.8627 34.9341 22.7684C34.9764 22.6992 35.0187 22.6299 35.0623 22.5586Z" fill="#1E291E"/>
<path d="M9.62082 24.1016C9.76434 24.1261 9.90727 24.1545 10.0491 24.1872C10.0973 24.3532 10.0973 24.3532 10.1348 24.5299C10.0491 24.6155 10.0491 24.6155 9.82963 24.6209C9.72627 24.6183 9.72627 24.6183 9.62082 24.6155C9.58808 24.4737 9.55966 24.3308 9.53516 24.1872C9.56343 24.159 9.59169 24.1307 9.62082 24.1016Z" fill="#EBEBEB"/>
<path d="M28.4655 39.9466C27.991 40.4474 27.991 40.4474 27.6945 40.5462C27.6097 40.518 27.5249 40.4897 27.4375 40.4606C27.755 40.0336 27.9353 39.9323 28.4655 39.9466Z" fill="#59A147"/>
<path d="M30.007 24.6133C30.0353 24.6133 30.0635 24.6133 30.0927 24.6133C30.1022 25.0808 30.0855 25.5226 30.007 25.9839C29.9222 26.0122 29.8374 26.0404 29.75 26.0696C29.7598 25.8911 29.7707 25.7126 29.7821 25.5342C29.7881 25.4348 29.7941 25.3354 29.8002 25.233C29.8325 24.981 29.8766 24.8275 30.007 24.6133Z" fill="#72B347"/>
<path d="M40.4587 24.1016C40.6022 24.1261 40.7452 24.1545 40.887 24.1872C40.8588 24.3286 40.8305 24.4699 40.8014 24.6155C40.6883 24.6155 40.5752 24.6155 40.4587 24.6155C40.426 24.4737 40.3976 24.3308 40.373 24.1872C40.4013 24.159 40.4296 24.1307 40.4587 24.1016Z" fill="#F6F6F6"/>
<path d="M23.2403 25.8125C23.2968 25.8408 23.3534 25.869 23.4116 25.8982C23.2263 26.3341 23.0953 26.6384 22.6406 26.8405C22.6636 26.7963 22.6866 26.7521 22.7102 26.7066C22.7939 26.5349 22.8685 26.3588 22.9404 26.1819C23.0689 25.8982 23.0689 25.8982 23.2403 25.8125Z" fill="#7AB647"/>
<path d="M14.9316 22.8164C15.1336 23.001 15.2563 23.176 15.376 23.4214C15.4055 23.4807 15.435 23.54 15.4654 23.6011C15.5313 23.7587 15.5313 23.7587 15.5313 23.93C15.4465 23.93 15.3617 23.93 15.2743 23.93C15.2169 23.7767 15.1598 23.6232 15.103 23.4696C15.0712 23.3841 15.0394 23.2987 15.0066 23.2106C14.9316 22.9877 14.9316 22.9877 14.9316 22.8164Z" fill="#203020"/>
<path d="M7.9077 16.2148C7.96423 16.2431 8.02077 16.2714 8.07902 16.3005C7.79632 16.6551 7.5502 16.9504 7.13672 17.1571C7.31437 16.7574 7.54291 16.458 7.9077 16.2148Z" fill="#1E6F47"/>
<path d="M44.6571 27.0977C44.7883 27.4475 44.7111 27.7654 44.6571 28.1256C44.6288 28.0691 44.6006 28.0125 44.5714 27.9543C44.4866 27.9826 44.4018 28.0108 44.3145 28.04C44.4183 27.7209 44.5294 27.4079 44.6571 27.0977Z" fill="#0F6B34"/>
<path d="M32.6641 29.1523C32.6924 29.2089 32.7206 29.2654 32.7498 29.3237C32.6457 29.5278 32.6457 29.5278 32.4981 29.7627C32.4497 29.8407 32.4012 29.9186 32.3512 29.9989C32.3131 30.0588 32.275 30.1186 32.2358 30.1803C32.1792 30.1238 32.1227 30.0672 32.0645 30.009C32.3613 29.5849 32.3613 29.5849 32.6641 29.1523Z" fill="#18783A"/>
<path d="M27.1806 34.0398C27.1806 34.0963 27.1806 34.1528 27.1806 34.2111C26.8696 34.2111 26.5587 34.2111 26.2383 34.2111C26.5754 33.9863 26.7914 33.91 27.1806 34.0398Z" fill="#74B74C"/>
<path d="M26.6663 22.3867C26.7229 22.415 26.7794 22.4433 26.8377 22.4724C26.6398 22.6703 26.4419 22.8682 26.238 23.072C26.2097 23.0155 26.1815 22.959 26.1523 22.9007C26.4736 22.4831 26.4736 22.4831 26.6663 22.3867Z" fill="#102814"/>
<path d="M27.3527 40.0312C27.494 40.0312 27.6354 40.0312 27.781 40.0312C27.7527 40.0878 27.7245 40.1443 27.6954 40.2026C27.5823 40.146 27.4692 40.0895 27.3527 40.0312ZM27.267 40.4596C27.3236 40.4596 27.3801 40.4596 27.4384 40.4596C27.4101 40.5444 27.3818 40.6292 27.3527 40.7166C27.2679 40.6883 27.1831 40.66 27.0957 40.6309C27.1522 40.5744 27.2088 40.5178 27.267 40.4596Z" fill="#4F8C3E"/>
<path d="M17.1582 29.1523C17.4117 29.3884 17.5897 29.6206 17.7579 29.9233C17.673 29.9233 17.5882 29.9233 17.5009 29.9233C17.1582 29.3451 17.1582 29.3451 17.1582 29.1523Z" fill="#1A793A"/>
</svg>
