<svg width="50" height="50" viewBox="0 0 50 50" fill="none" xmlns="http://www.w3.org/2000/svg">
<path d="M23.3241 7.51289C24.4202 8.46501 24.4202 8.46501 24.8926 8.94573C25.2169 8.80407 25.4156 8.64243 25.6542 8.38346C28.3806 5.60115 32.4872 4.08876 36.3373 4.00939C40.0114 3.97775 43.1369 5.29288 45.7572 7.85313C48.6366 10.7534 50.0125 14.8805 49.9999 18.9165C49.9183 24.1168 47.6501 28.925 44.3492 32.868C44.2691 32.9656 44.1889 33.0633 44.1063 33.1639C42.0698 35.6263 39.7229 37.7858 37.1809 39.7176C37.0755 39.7977 37.0755 39.7977 36.968 39.8795C34.7168 41.5828 32.3414 43.091 29.9103 44.5225C29.8286 44.571 29.7468 44.6196 29.6626 44.6696C27.6201 45.8728 25.1887 46.3338 22.8658 45.7452C20.0456 44.9016 17.4363 43.0485 15.062 41.3533C14.9882 41.301 14.9143 41.2488 14.8382 41.1949C12.9785 39.8773 11.1982 38.4796 9.52702 36.9294C9.33083 36.7473 9.13279 36.5687 8.93259 36.3911C7.66176 35.2576 6.47683 34.0114 5.43609 32.6635C5.36733 32.5754 5.36733 32.5754 5.29718 32.4854C1.73017 27.8969 -0.60227 22.3941 0.136743 16.5061C0.599681 13.2476 1.92298 10.3024 4.20726 7.92341C4.28474 7.83959 4.36222 7.75578 4.44206 7.66943C9.39699 2.47257 18.0628 3.14013 23.3241 7.51289Z" fill="#FF3232"/>
</svg>
