<svg width="50" height="50" viewBox="0 0 50 50" fill="none" xmlns="http://www.w3.org/2000/svg">
<path d="M19.777 0.033921C19.8814 0.0333834 19.8814 0.0333834 19.9878 0.0328348C20.221 0.031761 20.4541 0.0313845 20.6873 0.0310128C20.8545 0.0304018 21.0217 0.0297538 21.1889 0.0290715C21.7386 0.0270207 22.2883 0.0260094 22.8379 0.0250386C23.0277 0.0246439 23.2174 0.0242425 23.4071 0.0238346C24.2995 0.0219766 25.1919 0.0205899 26.0843 0.0197779C27.1111 0.0188279 28.1379 0.0162697 29.1647 0.0123198C29.9601 0.00936605 30.7556 0.00793452 31.551 0.00761291C32.0251 0.00738507 32.4992 0.00652893 32.9733 0.00405829C33.4206 0.00176513 33.8679 0.00138525 34.3152 0.00237769C34.478 0.00242545 34.6408 0.00182548 34.8035 0.000471167C36.2293 -0.0107127 37.6449 0.17537 38.9627 0.755074C39.0305 0.784136 39.0982 0.813197 39.168 0.843139C41.1755 1.73514 42.7459 3.36726 43.5569 5.41024C43.8945 6.39268 44.0638 7.38874 44.0604 8.42707C44.0602 8.50194 44.06 8.57681 44.0598 8.65394C44.0495 9.71599 43.9638 10.7743 43.8864 11.8331C43.8694 12.0723 43.8524 12.3116 43.8355 12.5509C43.7945 13.1288 43.7528 13.7067 43.7109 14.2845C43.6769 14.7542 43.6431 15.2239 43.6094 15.6936C43.6046 15.7608 43.5998 15.828 43.5949 15.8973C43.5851 16.0338 43.5753 16.1704 43.5655 16.307C43.4741 17.5823 43.382 18.8575 43.2896 20.1327C43.2104 21.2257 43.132 22.3187 43.054 23.4118C42.9632 24.6846 42.872 25.9574 42.78 27.2301C42.7702 27.3658 42.7604 27.5015 42.7506 27.6372C42.7458 27.704 42.7409 27.7707 42.736 27.8395C42.7021 28.3089 42.6686 28.7783 42.6352 29.2477C42.5902 29.8791 42.5445 30.5103 42.4983 31.1416C42.4815 31.3732 42.4649 31.6048 42.4486 31.8364C42.4263 32.1524 42.4031 32.4684 42.3796 32.7844C42.3734 32.8761 42.3671 32.9677 42.3607 33.0621C42.3233 33.5522 42.275 34.0028 42.0946 34.4624C41.9216 34.5461 41.9216 34.5461 41.7451 34.6316C41.5577 34.7147 41.5577 34.7147 41.4121 34.8523C41.312 35.2156 41.3353 35.5735 41.3489 35.9477C41.3502 36.0595 41.3515 36.1713 41.3529 36.2865C41.356 36.5294 41.3607 36.7724 41.3666 37.0153C41.3756 37.4001 41.3798 37.7848 41.3825 38.1697C41.3905 39.2641 41.4062 40.3582 41.4291 41.4523C41.4431 42.1216 41.4493 42.7906 41.4514 43.46C41.4537 43.7148 41.4587 43.9696 41.4665 44.2243C41.5253 46.1698 41.5253 46.1698 41.1726 46.6452C40.7802 46.9943 40.3438 47.1628 39.8523 47.3311C39.6807 47.4136 39.5098 47.4976 39.3405 47.5847C39.1868 47.652 39.0324 47.7178 38.8774 47.782C38.7471 47.8362 38.7471 47.8362 38.6141 47.8915C36.908 48.5841 35.1681 48.9912 33.3692 49.3601C33.2303 49.3887 33.2303 49.3887 33.0887 49.4178C31.4431 49.7536 29.8425 50.0051 28.1595 49.9999C28.085 49.9998 28.0105 49.9996 27.9337 49.9995C26.6079 49.9932 25.3534 49.8731 24.0588 49.5734C23.994 49.5585 23.9291 49.5436 23.8622 49.5283C20.8118 48.8264 18.058 47.9328 15.2847 46.4537C15.2847 42.6253 15.2847 38.7968 15.2847 34.8523C15.0917 34.788 14.8986 34.7237 14.6998 34.6574C13.9121 34.0974 13.3075 33.3119 12.6918 32.5764C12.4991 32.3492 12.2989 32.1292 12.098 31.9094C11.8045 31.5863 11.5249 31.256 11.251 30.9162C10.8921 30.4722 10.5146 30.0522 10.1259 29.6345C9.83628 29.3215 9.56207 29.0004 9.29514 28.6678C8.96699 28.2598 8.62302 27.8737 8.2654 27.4918C7.83113 27.0281 7.42374 26.5509 7.02659 26.0546C6.7758 25.753 6.51088 25.4683 6.24247 25.1825C5.41727 24.2957 5.01845 23.5395 5.01989 22.3219C5.01924 22.2415 5.01858 22.1612 5.01791 22.0785C5.01606 21.8147 5.01567 21.5509 5.01546 21.2871C5.01484 21.1024 5.01418 20.9178 5.0135 20.7331C5.01233 20.3466 5.01197 19.96 5.01208 19.5735C5.0121 19.0801 5.00944 18.5868 5.00609 18.0935C5.00391 17.7122 5.00352 17.3309 5.00362 16.9496C5.0034 16.7678 5.00254 16.586 5.00102 16.4043C4.99265 15.2954 5.02137 14.4319 5.64534 13.4776C7.0433 12.1404 8.99076 12.0048 10.8245 12.0274C10.9648 12.0284 11.1051 12.0293 11.2453 12.0301C11.5844 12.0322 11.9235 12.0355 12.2625 12.0396C12.2485 11.9012 12.2485 11.9012 12.2341 11.7601C12.1989 11.4099 12.1653 11.0595 12.1322 10.7091C12.1178 10.5589 12.1029 10.4088 12.0876 10.2588C11.8411 7.8335 12.0694 5.44271 13.5969 3.44825C13.7037 3.32159 13.8112 3.19556 13.9198 3.07047C14.0314 2.92268 14.0314 2.92268 14.1453 2.77191C15.3526 1.45231 17.0097 0.654341 18.6969 0.145759C18.754 0.127841 18.8112 0.109922 18.8701 0.0914606C19.1742 0.0308562 19.467 0.0349576 19.777 0.033921Z" fill="#E54C3C"/>
<path d="M28.1838 26.9252C28.2795 26.9236 28.3752 26.922 28.4738 26.9204C29.9586 26.9194 31.2599 27.5597 32.3245 28.5829C33.2485 29.546 33.8251 30.6217 33.8195 31.9731C33.8196 32.0467 33.8197 32.1203 33.8198 32.1961C33.8199 32.4428 33.8194 32.6895 33.8189 32.9362C33.8188 33.1129 33.8189 33.2897 33.8189 33.4665C33.8189 33.9467 33.8184 34.4268 33.8177 34.907C33.8171 35.4087 33.817 35.9104 33.8169 36.4122C33.8166 37.3623 33.8158 38.3125 33.8148 39.2627C33.8137 40.3444 33.8132 41.4261 33.8127 42.5078C33.8117 44.733 33.81 46.9582 33.8078 49.1835C33.4115 49.3186 33.0294 49.425 32.6174 49.5007C32.4473 49.5321 32.4473 49.5321 32.2739 49.5641C32.1567 49.5853 32.0396 49.6064 31.9189 49.6283C31.7444 49.6606 31.7444 49.6606 31.5663 49.6936C30.4349 49.9007 29.3509 49.99 28.2021 49.9938C28.1266 49.9941 28.0511 49.9944 27.9733 49.9947C26.6362 49.9959 25.3665 49.862 24.0588 49.5734C23.9185 49.5442 23.7782 49.515 23.638 49.4858C22.8175 49.307 22.8175 49.307 22.6939 49.1835C22.6835 48.9545 22.6795 48.7283 22.6796 48.4993C22.6792 48.4268 22.6788 48.3544 22.6785 48.2797C22.6774 48.0351 22.677 47.7905 22.6766 47.5458C22.676 47.3711 22.6754 47.1964 22.6747 47.0218C22.673 46.5455 22.672 46.0693 22.6712 45.5931C22.6707 45.2953 22.6701 44.9976 22.6695 44.6999C22.6676 43.7678 22.6662 42.8358 22.6654 41.9038C22.6645 40.829 22.6619 39.7543 22.6579 38.6795C22.655 37.8485 22.6536 37.0175 22.6532 36.1865C22.653 35.6904 22.6521 35.1944 22.6497 34.6983C22.6474 34.2307 22.647 33.7631 22.648 33.2954C22.6481 33.1246 22.6474 32.9538 22.6461 32.783C22.634 31.1495 22.9348 29.779 24.0831 28.5399C25.2372 27.4608 26.6269 26.9201 28.1838 26.9252Z" fill="#E5E6E7"/>
<path d="M10.8733 12.0275C11.0182 12.0284 11.1632 12.0293 11.3082 12.0301C11.6588 12.0322 12.0094 12.0356 12.36 12.0396C12.4463 12.2984 12.4806 12.4943 12.504 12.7628C12.5119 12.8513 12.5198 12.9398 12.5279 13.0309C12.5362 13.1281 12.5445 13.2252 12.5531 13.3253C12.5622 13.4281 12.5712 13.531 12.5806 13.637C12.611 13.9819 12.6408 14.3269 12.6707 14.6719C12.6923 14.9175 12.7139 15.1631 12.7355 15.4087C12.7698 15.7982 12.8041 16.1877 12.8382 16.5772C12.9198 17.5085 13.0027 18.4397 13.0866 19.3708C13.0986 19.5037 13.1105 19.6366 13.1225 19.7695C13.1406 19.9702 13.1586 20.1709 13.1767 20.3716C13.4294 23.1785 13.6761 25.9858 13.9194 28.7934C13.9252 28.8604 13.9311 28.9273 13.937 28.9963C13.9652 29.3216 13.9933 29.6469 14.0213 29.9721C14.0711 30.5504 14.1217 31.1286 14.1748 31.7066C14.184 31.8082 14.1932 31.9097 14.2027 32.0143C14.2195 32.1987 14.2366 32.383 14.2541 32.5673C14.3055 33.1355 14.3189 33.6971 14.3098 34.2675C13.793 33.8606 13.3984 33.4155 12.9891 32.9018C12.7407 32.5988 12.4809 32.3115 12.2138 32.0252C11.7975 31.578 11.4087 31.1152 11.0256 30.639C10.7376 30.2926 10.4327 29.9642 10.1259 29.6345C9.83625 29.3215 9.56206 29.0004 9.29514 28.6679C8.96699 28.2599 8.62302 27.8737 8.2654 27.4919C7.83113 27.0282 7.42374 26.5509 7.02658 26.0546C6.7758 25.753 6.51088 25.4684 6.24247 25.1826C5.41727 24.2958 5.01845 23.5395 5.01989 22.3219C5.01924 22.2416 5.01858 22.1613 5.01791 22.0785C5.01606 21.8147 5.01567 21.551 5.01546 21.2871C5.01484 21.1025 5.01418 20.9178 5.0135 20.7331C5.01233 20.3466 5.01197 19.9601 5.01208 19.5735C5.0121 19.0802 5.00944 18.5869 5.00608 18.0936C5.00391 17.7123 5.00352 17.331 5.00362 16.9496C5.0034 16.7679 5.00254 16.5861 5.00102 16.4043C4.99265 15.2955 5.02137 14.4319 5.64534 13.4776C7.05757 12.1268 9.02337 12.0054 10.8733 12.0275Z" fill="#C03A2B"/>
<path d="M41.3146 34.8523C41.3488 36.3497 41.3746 37.847 41.3904 39.3447C41.3979 40.0402 41.4082 40.7355 41.4249 41.4308C41.4396 42.0372 41.449 42.6434 41.4522 43.25C41.4541 43.571 41.4593 43.8914 41.4692 44.2124C41.5272 46.1666 41.5272 46.1666 41.1724 46.6457C40.7802 46.9952 40.3441 47.1633 39.8523 47.3311C39.6806 47.4135 39.5097 47.4975 39.3404 47.5847C39.1867 47.6519 39.0323 47.7177 38.8774 47.782C38.7925 47.8177 38.7077 47.8534 38.6203 47.8902C37.1683 48.4848 35.401 49.1834 33.8079 49.1834C33.8079 45.1941 33.8079 41.2048 33.8079 37.0946C35.0752 36.8021 35.0752 36.8021 35.6602 36.6696C37.4492 36.2584 39.1627 35.7475 40.8314 34.9776C41.1196 34.8523 41.1196 34.8523 41.3146 34.8523Z" fill="#38454F"/>
<path d="M15.2847 34.8523C15.6631 34.9784 16.0245 35.1057 16.3921 35.2556C18.4608 36.0851 20.5155 36.6105 22.6939 37.0946C22.6939 41.0839 22.6939 45.0732 22.6939 49.1834C21.1396 48.9008 19.6448 48.4777 18.1789 47.8855C18.1013 47.8546 18.0236 47.8236 17.9436 47.7916C17.0219 47.406 16.1759 46.9227 15.2847 46.4537C15.2847 42.6252 15.2847 38.7968 15.2847 34.8523Z" fill="#38454E"/>
<path d="M25.8138 39.9219C25.9921 40.047 25.9921 40.047 26.1756 40.2148C26.2434 40.2767 26.3113 40.3386 26.3812 40.4024C26.7343 40.738 27.0799 41.0804 27.4224 41.4269C27.4932 41.4982 27.5641 41.5695 27.6372 41.643C27.8095 41.8165 27.9816 41.9902 28.1535 42.1642C28.5094 42.0148 28.7326 41.8014 29.0013 41.5271C29.0871 41.4402 29.1729 41.3533 29.2614 41.2637C29.3502 41.1728 29.4391 41.0819 29.5306 40.9882C29.7073 40.8081 29.8843 40.6282 30.0615 40.4486C30.1787 40.3287 30.1787 40.3287 30.2984 40.2064C30.5572 39.9581 30.6482 39.9257 31.0112 39.8914C31.3707 39.9219 31.3707 39.9219 31.651 40.062C31.8966 40.3582 31.9957 40.5504 32.0177 40.9345C31.8883 41.4658 31.429 41.8352 31.0455 42.2031C30.8781 42.3642 30.7144 42.5285 30.5512 42.6939C30.2741 42.9745 29.9945 43.2524 29.7134 43.529C29.8628 43.8849 30.0762 44.1081 30.3505 44.3768C30.4374 44.4626 30.5243 44.5484 30.6138 44.6369C30.7502 44.7701 30.7502 44.7701 30.8894 44.9061C31.0695 45.0828 31.2493 45.2598 31.429 45.437C31.5089 45.5151 31.5889 45.5933 31.6712 45.6739C31.9181 45.9313 31.9515 46.0265 31.9922 46.3867C31.9557 46.7462 31.9557 46.7462 31.7668 47.0326C31.4319 47.2582 31.2433 47.3411 30.8425 47.3178C30.3206 47.1434 29.948 46.7044 29.5724 46.3173C29.4195 46.1599 29.2642 46.0053 29.1079 45.8513C28.8526 45.5992 28.6 45.3448 28.3485 45.0889C28.0139 45.2327 27.8005 45.4203 27.5469 45.6799C27.4703 45.7576 27.3937 45.8353 27.3148 45.9153C27.2357 45.9965 27.1566 46.0776 27.0751 46.1613C26.9177 46.322 26.7602 46.4824 26.6025 46.6426C26.533 46.7139 26.4635 46.7852 26.3918 46.8586C26.0954 47.1424 25.8906 47.2646 25.4847 47.2763C25.134 47.2672 25.0398 47.2377 24.7353 47.0326C24.4893 46.6597 24.457 46.5032 24.5464 46.0638C24.9731 45.4728 25.5343 44.9662 26.0514 44.4552C26.1227 44.3843 26.194 44.3135 26.2675 44.2404C26.441 44.0681 26.6147 43.8959 26.7887 43.724C26.6453 43.391 26.4595 43.1783 26.2011 42.9258C26.1238 42.8497 26.0466 42.7735 25.9671 42.695C25.8863 42.6164 25.8056 42.5377 25.7224 42.4567C25.5628 42.3005 25.4035 42.1441 25.2444 41.9875C25.1737 41.9185 25.103 41.8495 25.0301 41.7784C24.5589 41.2876 24.5589 41.2876 24.5038 40.8542C24.553 40.4531 24.6541 40.3017 24.9364 40.0194C25.2542 39.8605 25.4607 39.8763 25.8138 39.9219Z" fill="#576281"/>
<path d="M25.8138 30.6602C25.9921 30.7854 25.9921 30.7854 26.1756 30.9531C26.2434 31.015 26.3113 31.0769 26.3812 31.1407C26.7343 31.4763 27.0799 31.8187 27.4224 32.1652C27.4932 32.2366 27.5641 32.3079 27.6372 32.3814C27.8095 32.5548 27.9816 32.7286 28.1535 32.9025C28.5094 32.7531 28.7326 32.5397 29.0013 32.2654C29.0871 32.1785 29.1729 32.0916 29.2614 32.0021C29.3502 31.9111 29.4391 31.8202 29.5306 31.7265C29.7073 31.5464 29.8843 31.3666 30.0615 31.1869C30.1787 31.067 30.1787 31.067 30.2984 30.9447C30.5572 30.6964 30.6482 30.664 31.0112 30.6298C31.3707 30.6602 31.3707 30.6602 31.651 30.8004C31.8966 31.0965 31.9957 31.2887 32.0177 31.6728C31.8883 32.2041 31.429 32.5735 31.0455 32.9414C30.8781 33.1025 30.7144 33.2668 30.5512 33.4322C30.2741 33.7128 29.9945 33.9907 29.7134 34.2674C29.8628 34.6232 30.0762 34.8464 30.3505 35.1151C30.4374 35.2009 30.5243 35.2867 30.6138 35.3752C30.7502 35.5085 30.7502 35.5085 30.8894 35.6444C31.0695 35.8212 31.2493 35.9981 31.429 36.1753C31.5089 36.2535 31.5889 36.3317 31.6712 36.4122C31.9181 36.6696 31.9515 36.7649 31.9922 37.1251C31.9557 37.4846 31.9557 37.4846 31.7668 37.7709C31.4268 37.9999 31.2479 38.0559 30.8448 38.0465C30.2717 37.8784 29.8787 37.3258 29.4879 36.8935C29.3458 36.7386 29.203 36.5844 29.0587 36.4315C28.9287 36.2935 28.8009 36.1533 28.6733 36.013C28.4694 35.8077 28.4694 35.8077 28.2483 35.8217C27.9942 35.9578 27.8241 36.1257 27.6231 36.3326C27.5421 36.4149 27.4611 36.4973 27.3776 36.5822C27.2939 36.6688 27.2101 36.7555 27.1238 36.8448C26.9573 37.0155 26.7907 37.186 26.6238 37.3562C26.5502 37.4322 26.4766 37.5081 26.4008 37.5864C26.1017 37.8757 25.8968 38.0027 25.4847 38.0147C25.134 38.0055 25.0398 37.976 24.7353 37.7709C24.4893 37.398 24.457 37.2415 24.5464 36.8021C25.0263 36.1332 25.6779 35.5737 26.2761 35.013C26.3437 34.9474 26.4113 34.8818 26.481 34.8142C26.5425 34.7559 26.604 34.6975 26.6674 34.6374C26.8063 34.4723 26.8063 34.4723 26.7891 34.2756C26.6488 33.9844 26.4484 33.8095 26.2125 33.5891C26.115 33.4958 26.0176 33.4025 25.9202 33.309C25.7666 33.1633 25.6125 33.0181 25.4574 32.874C25.3074 32.7341 25.1597 32.5921 25.0121 32.4497C24.9229 32.3659 24.8337 32.2821 24.7417 32.1958C24.4929 31.8542 24.495 31.6591 24.5464 31.2452C24.8998 30.7034 25.167 30.5768 25.8138 30.6602Z" fill="#566181"/>
<path d="M34.7157 4.80087C35.4128 5.15811 36.032 5.59217 36.6351 6.09261C36.7179 6.15947 36.8007 6.22633 36.886 6.29521C38.4707 7.63857 39.5032 9.46571 40.0473 11.4546C40.0711 11.5418 40.095 11.629 40.1196 11.7189C40.2506 12.3022 40.2702 12.8939 40.2849 13.4897C40.2883 13.5698 40.2916 13.6499 40.2951 13.7324C40.298 14.1522 40.2788 14.3293 40.0236 14.6782C39.6619 14.9318 39.4983 14.9057 39.0811 14.8329C38.7981 14.7445 38.6572 14.6199 38.4874 14.3793C38.3734 14.0372 38.3756 13.753 38.3655 13.3922C38.2583 11.2112 37.2021 9.19905 35.6236 7.71339C34.0724 6.42209 32.2017 5.72382 30.1988 5.64819C29.7798 5.58614 29.5219 5.41377 29.2258 5.11771C29.1766 4.82157 29.182 4.53697 29.2258 4.2403C30.2032 2.89221 33.493 4.20086 34.7157 4.80087Z" fill="#EC7060"/>
</svg>
