<svg width="50" height="50" viewBox="0 0 50 50" fill="none" xmlns="http://www.w3.org/2000/svg">
<g clip-path="url(#clip0_3130_42666)">
<path d="M12.7615 3.18477C13.2887 3.72873 13.7076 4.31392 14.0627 4.98149C14.4316 4.86908 14.7831 4.73127 15.1362 4.57751C17.1193 3.71446 19.1488 3.06981 21.2893 2.73539C21.399 2.71815 21.5086 2.7009 21.6216 2.68313C22.7258 2.52665 23.819 2.50109 24.9331 2.50346C25.0275 2.50351 25.1218 2.50357 25.219 2.50362C26.7723 2.50763 28.2625 2.60167 29.7854 2.93071C29.8859 2.95216 29.9864 2.9736 30.0899 2.9957C32.1499 3.44788 34.0529 4.13885 35.9377 5.07914C35.9638 5.00815 35.9899 4.93715 36.0167 4.864C36.5202 3.68191 37.532 2.71092 38.6721 2.14946C39.7327 1.74449 40.8971 1.76866 41.9455 2.18989C43.3517 2.8572 44.3259 3.7229 44.9488 5.1665C45.3215 6.24649 45.1546 7.45446 44.702 8.48224C44.4051 9.05742 44.0417 9.55497 43.6266 10.0505C43.4444 10.2633 43.4444 10.2633 43.262 10.5479C43.3011 10.5848 43.3403 10.6217 43.3806 10.6597C44.7125 11.9493 45.8512 13.5363 46.7776 15.1377C46.8129 15.1981 46.8483 15.2585 46.8847 15.3207C49.4758 19.7586 50.8957 25.2648 49.7073 30.3721C49.6905 30.4473 49.6737 30.5226 49.6565 30.6001C49.268 32.3092 48.6653 33.9313 47.8428 35.4781C47.7642 35.6266 47.688 35.7764 47.6122 35.9263C46.9244 37.2546 46.0112 38.4385 45.0198 39.5518C44.977 39.6006 44.9343 39.6494 44.8902 39.6996C43.264 41.553 41.3624 43.0588 39.258 44.337C39.1911 44.3778 39.1241 44.4187 39.0551 44.4608C35.3156 46.7128 30.6959 48.0344 26.3297 48.0712C26.2352 48.0721 26.1407 48.0731 26.0433 48.0741C19.8598 48.1237 13.6999 46.7964 8.69164 42.9698C8.63675 42.9287 8.58187 42.8876 8.52532 42.8453C7.01606 41.7146 5.59075 40.4131 4.42271 38.93C4.33638 38.8204 4.24957 38.7112 4.16236 38.6024C1.71577 35.5363 0.0184768 31.5531 -0.0230356 27.5893C-0.0239964 27.5129 -0.0249573 27.4365 -0.0259473 27.3577C-0.0658036 23.3598 0.745696 19.7516 2.63695 16.212C2.6877 16.1161 2.6877 16.1161 2.73947 16.0184C3.8131 14.0047 5.18644 12.2163 6.73852 10.5479C6.65593 10.4573 6.57335 10.3666 6.48827 10.2732C5.46236 9.0727 4.82474 7.74227 4.85901 6.15146C4.94624 5.09507 5.4559 4.11876 6.25023 3.41899C6.30172 3.36725 6.35321 3.31551 6.40625 3.2622C8.25279 1.48624 10.901 1.42643 12.7615 3.18477Z" fill="#489942"/>
<path d="M12.7615 3.18477C13.2887 3.72873 13.7076 4.31392 14.0627 4.98149C14.4316 4.86908 14.7831 4.73127 15.1362 4.57751C17.1193 3.71446 19.1488 3.06981 21.2893 2.73539C21.399 2.71815 21.5086 2.7009 21.6216 2.68313C22.7258 2.52665 23.819 2.50109 24.9331 2.50346C25.0275 2.50351 25.1218 2.50357 25.219 2.50362C26.7723 2.50763 28.2625 2.60167 29.7854 2.93071C29.8859 2.95216 29.9864 2.9736 30.0899 2.9957C32.1499 3.44788 34.0529 4.13885 35.9377 5.07914C35.9638 5.00815 35.9899 4.93715 36.0167 4.864C36.5202 3.68191 37.532 2.71092 38.6721 2.14946C39.7327 1.74449 40.8971 1.76866 41.9455 2.18989C43.3517 2.8572 44.3259 3.7229 44.9488 5.1665C45.3215 6.24649 45.1546 7.45446 44.702 8.48224C44.4051 9.05742 44.0417 9.55497 43.6266 10.0505C43.4444 10.2633 43.4444 10.2633 43.262 10.5479C43.3011 10.5848 43.3403 10.6217 43.3806 10.6597C44.7125 11.9493 45.8512 13.5363 46.7776 15.1377C46.8129 15.1981 46.8483 15.2585 46.8847 15.3207C49.4758 19.7586 50.8957 25.2648 49.7073 30.3721C49.6905 30.4473 49.6737 30.5226 49.6565 30.6001C49.268 32.3092 48.6653 33.9313 47.8428 35.4781C47.7642 35.6266 47.688 35.7764 47.6122 35.9263C46.9244 37.2546 46.0112 38.4385 45.0198 39.5518C44.977 39.6006 44.9343 39.6494 44.8902 39.6996C43.264 41.553 41.3624 43.0588 39.258 44.337C39.1911 44.3778 39.1241 44.4187 39.0551 44.4608C35.3156 46.7128 30.6959 48.0344 26.3297 48.0712C26.2352 48.0721 26.1407 48.0731 26.0433 48.0741C19.8598 48.1237 13.6999 46.7964 8.69164 42.9698C8.63675 42.9287 8.58187 42.8876 8.52532 42.8453C7.01606 41.7146 5.59075 40.4131 4.42271 38.93C4.33638 38.8204 4.24957 38.7112 4.16236 38.6024C1.71577 35.5363 0.0184768 31.5531 -0.0230356 27.5893C-0.0239964 27.5129 -0.0249573 27.4365 -0.0259473 27.3577C-0.0658036 23.3598 0.745696 19.7516 2.63695 16.212C2.6877 16.1161 2.6877 16.1161 2.73947 16.0184C3.8131 14.0047 5.18644 12.2163 6.73852 10.5479C6.65593 10.4573 6.57335 10.3666 6.48827 10.2732C5.46236 9.0727 4.82474 7.74227 4.85901 6.15146C4.94624 5.09507 5.4559 4.11876 6.25023 3.41899C6.30172 3.36725 6.35321 3.31551 6.40625 3.2622C8.25279 1.48624 10.901 1.42643 12.7615 3.18477ZM7.03148 5.54301C6.79965 6.29648 6.86216 7.05679 7.18941 7.7708C7.92316 9.06419 8.95741 9.80033 10.3518 10.2549C10.2715 10.3282 10.1912 10.4015 10.1084 10.4769C9.07493 11.4229 8.09705 12.3754 7.2268 13.4776C7.15403 13.5646 7.08127 13.6516 7.00631 13.7412C6.81652 13.9448 6.81652 13.9448 6.83617 14.1612C6.73118 14.1776 6.73118 14.1776 6.62407 14.1944C5.69441 14.4114 4.75918 15.0935 4.22272 15.8774C4.07838 16.11 4.07838 16.11 4.12011 16.3829C4.17699 16.6194 4.17699 16.6194 4.39477 16.7002C4.6226 16.7042 4.85053 16.7045 5.07836 16.7002C4.99679 16.8443 4.99679 16.8443 4.91356 16.9913C4.17609 18.3223 3.61389 19.7088 3.19058 21.1705C3.06399 21.5913 2.90375 21.9986 2.73385 22.4036C2.68286 22.5261 2.68286 22.5261 2.63085 22.6512C2.58383 22.7613 2.58383 22.7613 2.53586 22.8736C2.2773 23.6199 2.20855 24.3359 2.20971 25.1231C2.20972 25.2249 2.20974 25.3267 2.20975 25.4317C2.22344 26.3827 2.38702 27.2743 2.59194 28.1997C2.65336 28.4989 2.68814 28.7993 2.7224 29.1026C2.93954 30.6825 3.49815 32.1714 4.19945 33.5948C4.23092 33.6594 4.2624 33.7241 4.29482 33.7908C4.76016 34.737 5.31929 35.5885 5.95727 36.4268C6.02147 36.5119 6.08567 36.597 6.15182 36.6847C9.82798 41.4134 15.2679 44.0547 21.094 45.0206C21.2043 45.0392 21.2043 45.0392 21.3168 45.0583C26.3986 45.8918 31.8283 44.9273 36.426 42.6768C36.4912 42.6451 36.5565 42.6135 36.6237 42.5808C38.7353 41.5425 40.5903 40.0953 42.2854 38.4776C42.3492 38.4189 42.413 38.3603 42.4788 38.2998C43.0176 37.7904 43.4606 37.194 43.9077 36.6049C43.9938 36.4917 44.0805 36.3791 44.168 36.2671C46.3248 33.5039 47.204 30.2666 47.6263 26.847C47.6565 26.6612 47.6565 26.6612 47.7541 26.3682C47.8531 24.9234 47.8281 23.5262 47.1743 22.2106C46.9478 21.6933 46.7937 21.1462 46.6235 20.6084C46.2946 19.5773 45.9259 18.6306 45.4104 17.6768C45.3141 17.4859 45.2184 17.2947 45.1235 17.1031C45.0844 17.0248 45.0452 16.9465 45.0049 16.8658C44.9776 16.8112 44.9503 16.7565 44.9221 16.7002C45.0289 16.7043 45.1356 16.7083 45.2456 16.7124C45.6144 16.7316 45.6144 16.7316 45.8987 16.5049C45.8856 15.9834 45.6826 15.7084 45.341 15.3414C44.8157 14.8628 44.2102 14.4543 43.5488 14.1917C42.9796 13.9247 42.616 13.3452 42.2299 12.8663C41.4584 11.9287 40.6056 11.0018 39.6487 10.2549C39.7231 10.2265 39.7975 10.198 39.8741 10.1687C41.2751 9.61254 42.3395 8.83594 42.969 7.42289C43.1436 6.87902 43.1725 6.20221 43.0033 5.65593C42.9086 5.4778 42.8051 5.33188 42.676 5.1768C42.6286 5.11877 42.5811 5.06074 42.5322 5.00094C41.9601 4.36937 41.1381 3.91014 40.2773 3.86455C39.576 3.87375 39.0965 4.20866 38.5806 4.658C37.5422 5.73346 37.2867 6.96916 37.2073 8.39946C37.1056 8.33803 37.0038 8.27659 36.899 8.2133C35.5918 7.43001 34.2741 6.73048 32.8505 6.18312C32.573 6.07623 32.2994 5.96351 32.0254 5.84819C29.7794 4.96296 27.1131 4.59214 24.7073 4.68852C24.5491 4.69454 24.5491 4.69454 24.3876 4.70068C22.7508 4.7696 21.2097 4.94094 19.6291 5.37211C19.4664 5.41444 19.3036 5.45666 19.1409 5.49876C18.3692 5.70202 17.6277 5.933 16.8948 6.25102C16.7743 6.29634 16.7743 6.29634 16.6514 6.34257C15.2974 6.86422 14.0136 7.62021 12.7932 8.39946C12.787 8.28843 12.7809 8.1774 12.7745 8.063C12.6647 6.54582 12.2063 5.34051 11.0354 4.2979C10.554 3.93042 10.0675 3.83267 9.46641 3.85768C8.41793 4.03917 7.63969 4.70672 7.03148 5.54301Z" fill="#000100"/>
<path d="M28.7109 6.74012C28.7843 6.75215 28.8576 6.76419 28.9332 6.77659C31.6121 7.22457 34.3427 8.44869 36.5234 10.0604C36.6259 10.1353 36.7284 10.2102 36.834 10.2874C37.8648 11.0536 38.7874 11.9276 39.6973 12.8314C39.7547 12.8884 39.8121 12.9453 39.8712 13.0039C40.1767 13.3106 40.4593 13.622 40.7227 13.9667C40.6677 14.1437 40.6677 14.1437 40.5273 14.3573C40.368 14.4288 40.208 14.4994 40.0452 14.5625C39.3856 14.8498 38.7635 15.3044 38.3789 15.9198C38.3091 16.1135 38.2431 16.3087 38.1836 16.5057C39.3513 16.392 39.3513 16.392 40.509 16.2067C41.8355 15.9534 43.187 16.0063 44.5312 16.0175C44.6763 16.3075 44.6763 16.3075 44.8242 16.6034C44.0186 16.6034 43.2129 16.6034 42.3828 16.6034C42.6349 17.096 42.6349 17.096 42.8882 17.5879C43.0671 17.9414 43.2122 18.2557 43.2617 18.6542C43.2034 18.6401 43.1451 18.626 43.0851 18.6115C41.388 18.2483 39.7834 18.4213 38.2812 19.3378C36.8323 20.3341 35.7239 21.7358 35.2539 23.4393C35.1895 23.4393 35.125 23.4393 35.0586 23.4393C34.8523 23.0759 34.8261 22.7684 34.7992 22.3579C34.7881 22.2958 34.777 22.2337 34.7656 22.1698C34.7012 22.1376 34.6367 22.1054 34.5703 22.0721C34.5764 21.9976 34.5824 21.9231 34.5886 21.8463C34.5995 21.5852 34.5995 21.5852 34.444 21.4599C34.2129 21.2256 34.0896 20.9588 33.9355 20.6683C32.8185 18.6457 31.0139 17.2845 28.9062 16.4081C28.8217 16.3711 28.7371 16.3341 28.6499 16.2959C26.8463 15.5646 24.6373 15.505 22.7539 15.9198C22.5836 15.9557 22.5836 15.9557 22.4098 15.9923C19.8316 16.6031 17.6154 18.1701 16.2109 20.412C15.9479 20.8551 15.6907 21.2892 15.5273 21.7792C15.4629 21.8759 15.3984 21.9725 15.332 22.0721C15.2238 22.397 15.1815 22.7099 15.1367 23.0487C15.1045 23.0487 15.0723 23.0487 15.0391 23.0487C14.9907 23.3387 14.9907 23.3387 14.9414 23.6346C14.6989 23.3921 14.6452 23.1832 14.5325 22.8595C14.124 21.7781 13.501 20.9402 12.6953 20.119C12.6354 20.0567 12.5755 19.9944 12.5137 19.9302C11.4123 18.8735 9.92206 18.418 8.42733 18.4301C7.85214 18.4451 7.2982 18.5187 6.73828 18.6542C6.96064 17.952 7.23123 17.2813 7.51953 16.6034C6.74609 16.6034 5.97266 16.6034 5.17578 16.6034C5.24023 16.4423 5.30469 16.2811 5.37109 16.1151C5.84137 16.1077 6.31161 16.1025 6.78194 16.099C6.94111 16.0976 7.10028 16.0956 7.25944 16.093C8.25969 16.0773 9.19608 16.1365 10.177 16.3381C10.721 16.441 11.2636 16.4779 11.8164 16.5057C11.3752 15.3047 10.4929 14.7892 9.375 14.2596C9.375 13.7538 9.59713 13.5822 9.93042 13.2404C9.98222 13.1857 10.034 13.131 10.0874 13.0746C10.3979 12.7481 10.7165 12.4299 11.0352 12.1112C11.1145 12.0251 11.1145 12.0251 11.1954 11.9373C13.735 9.22508 17.6045 7.46139 21.1914 6.74012C21.2678 6.72427 21.3442 6.70842 21.423 6.6921C23.7891 6.2215 26.347 6.31726 28.7109 6.74012Z" fill="#9CC971"/>
<path d="M32.2266 18.3608C32.2938 18.4178 32.361 18.4748 32.4303 18.5336C33.2369 19.2815 33.8843 20.3142 34.375 21.2904C34.4395 21.2904 34.5039 21.2904 34.5703 21.2904C34.5824 21.3811 34.5945 21.4717 34.6069 21.5651C34.6499 21.89 34.6499 21.89 34.8633 22.1693C34.9159 22.4291 34.9349 22.6862 34.9609 22.9506C34.9932 22.9506 35.0254 22.9506 35.0586 22.9506C35.0586 23.1117 35.0586 23.2729 35.0586 23.4389C35.123 23.4389 35.1875 23.4389 35.2539 23.4389C35.2471 23.8558 35.2385 24.2726 35.2283 24.6894C35.225 24.8309 35.2223 24.9724 35.2201 25.1139C35.2077 25.8751 35.1932 26.5463 34.8633 27.2475C34.8115 27.3972 34.8115 27.3972 34.7588 27.55C34.2549 28.9664 33.4857 30.1035 32.4219 31.1537C32.3424 31.233 32.263 31.3123 32.1812 31.394C30.2124 33.2639 27.4016 34.1291 24.7253 34.1127C21.8073 34.0347 19.0805 32.8012 17.0731 30.6895C15.5307 28.9812 14.8492 26.8057 14.7827 24.5436C14.7789 24.4367 14.7752 24.3297 14.7713 24.2196C14.7622 23.9593 14.7538 23.6991 14.7461 23.4389C14.7783 23.4389 14.8105 23.4389 14.8438 23.4389C14.8558 23.3664 14.8679 23.2939 14.8804 23.2192C14.9414 22.9506 14.9414 22.9506 15.0391 22.7675C15.1574 22.543 15.1574 22.543 15.1855 22.1999C15.2017 22.0931 15.2178 21.9864 15.2344 21.8764C15.3311 21.828 15.3311 21.828 15.4297 21.7787C15.4297 21.6176 15.4297 21.4565 15.4297 21.2904C15.4941 21.2904 15.5586 21.2904 15.625 21.2904C15.6689 21.2065 15.7129 21.1225 15.7581 21.036C16.989 18.7488 19.0281 16.9441 21.5204 16.1375C25.3743 14.9888 29.1584 15.7476 32.2266 18.3608Z" fill="#86C54B"/>
<path d="M10.4889 3.98458C11.478 4.46893 12.1372 5.43248 12.534 6.43557C12.7314 7.0652 12.7566 7.74169 12.793 8.39666C12.8416 8.36821 12.8901 8.33976 12.9401 8.31044C13.5079 7.97819 14.0776 7.64939 14.6485 7.32244C14.7161 7.28346 14.7837 7.24448 14.8534 7.20432C15.6743 6.73423 16.4962 6.38024 17.3951 6.08457C17.6423 6.00306 17.8694 5.91305 18.1092 5.80762C18.7451 5.54196 19.417 5.39467 20.085 5.23022C20.2758 5.18309 20.4661 5.13396 20.6563 5.08435C21.9784 4.77538 23.3556 4.75284 24.7071 4.68572C24.7863 4.68101 24.8655 4.67631 24.9471 4.67146C27.6959 4.51387 31.0309 5.19996 33.4961 6.44353C33.6663 6.52138 33.8366 6.59919 34.007 6.67651C34.6298 6.96074 35.2403 7.26579 35.846 7.58489C35.9146 7.62086 35.9831 7.65683 36.0538 7.69389C36.4549 7.90759 36.8332 8.13824 37.2071 8.39666C37.2163 8.23011 37.2163 8.23011 37.2258 8.0602C37.3305 6.61468 37.7405 5.38495 38.8672 4.39275C39.3736 4.00377 39.8329 3.82509 40.4751 3.86479C41.4833 4.02636 42.1612 4.59039 42.8238 5.34185C43.1752 5.84668 43.1382 6.44593 43.0665 7.02947C42.8008 8.15333 41.9713 9.05775 41.0157 9.66619C40.7289 9.81544 40.4383 9.94071 40.1368 10.0568C39.974 10.1219 39.8112 10.187 39.6485 10.2521C39.7299 10.3265 39.8114 10.4009 39.8953 10.4776C40.9512 11.4448 41.977 12.4102 42.82 13.5766C43.1802 14.0538 43.6083 14.2624 44.1502 14.5044C44.6316 14.746 45.023 15.0689 45.3125 15.5256C45.2736 15.7853 45.2736 15.7853 45.2149 16.0138C45.0963 16.0167 45.0963 16.0167 44.9754 16.0197C42.2768 16.0872 42.2768 16.0872 39.6073 16.4655C39.1349 16.5342 38.6597 16.5171 38.1836 16.5021C38.1968 15.9742 38.4084 15.7029 38.7539 15.3325C39.3061 14.8154 39.9161 14.4204 40.625 14.1584C40.384 13.6148 39.9544 13.2182 39.5508 12.7912C39.5019 12.739 39.453 12.6867 39.4026 12.6329C36.4612 9.5137 32.4403 7.44391 28.2227 6.7365C28.1516 6.72396 28.0805 6.71142 28.0073 6.69849C23.0446 5.85905 17.6856 7.17727 13.5972 10.0697C12.5453 10.832 11.5518 11.6647 10.6446 12.5959C10.5834 12.656 10.5222 12.7162 10.4592 12.7782C9.88303 13.3408 9.88303 13.3408 9.37505 13.9631C9.44175 14.2736 9.44175 14.2736 9.70769 14.3853C9.80739 14.4293 9.90709 14.4732 10.0098 14.5185C10.7651 14.8804 11.4333 15.3463 11.8165 16.1115C11.8165 16.2404 11.8165 16.3693 11.8165 16.5021C10.9985 16.5607 10.2562 16.4591 9.45439 16.3129C7.90786 16.0363 6.35188 16.0301 4.7852 16.0138C4.67744 15.5476 4.67744 15.5476 4.76842 15.3489C5.24034 14.8083 5.889 14.326 6.61282 14.2156C6.84883 14.1826 6.84883 14.1826 6.94318 13.9844C6.97226 13.9129 7.00134 13.8414 7.0313 13.7677C7.94816 12.4993 9.11619 11.2125 10.3516 10.2521C10.2713 10.2259 10.191 10.1998 10.1082 10.1728C8.8199 9.72052 7.86882 8.96592 7.18923 7.76799C6.88675 7.10804 6.77373 6.3591 6.99811 5.65541C7.09144 5.47523 7.19478 5.33015 7.32427 5.174C7.36946 5.1171 7.41465 5.0602 7.46121 5.00157C8.22035 4.14778 9.36271 3.60063 10.4889 3.98458Z" fill="#1F7D3B"/>
<path d="M14.2117 34.3438C14.8735 34.3516 15.5003 34.5539 16.1333 34.7292C17.2407 35.0343 18.3459 35.3167 19.4821 35.4927C19.6134 35.5131 19.6134 35.5131 19.7474 35.5338C20.0329 35.575 20.3188 35.6106 20.6051 35.6453C20.6999 35.6577 20.6999 35.6577 20.7965 35.6703C22.0397 35.8309 23.2688 35.8712 24.5217 35.8661C24.8271 35.8651 25.1325 35.8661 25.438 35.8673C27.2398 35.8687 29.0361 35.7685 30.8102 35.4378C30.9214 35.4178 31.0325 35.3977 31.147 35.3771C32.191 35.1803 33.2164 34.9155 34.2389 34.6289C34.8902 34.4505 35.4563 34.3218 36.1325 34.3758C36.3509 34.5942 36.2605 35.0379 36.2611 35.332C36.2316 36.8804 35.4469 38.101 34.3747 39.1609C32.8471 40.567 30.9113 41.2896 28.9059 41.7C28.8371 41.7148 28.7682 41.7295 28.6973 41.7447C27.4633 41.9982 26.2301 42.0212 24.9753 42.0235C24.8971 42.0238 24.8189 42.0242 24.7384 42.0246C21.3316 42.0328 17.8568 41.2788 15.3012 38.8802C14.3199 37.852 13.7488 36.5998 13.757 35.1815C13.7566 35.1146 13.7562 35.0478 13.7559 34.9789C13.757 34.386 13.757 34.386 14.2117 34.3438Z" fill="#25140C"/>
<path d="M44.809 20.5405C45.9689 21.6271 46.6518 22.9298 46.7182 24.5341C46.7457 26.0737 46.2068 27.4199 45.1473 28.5457C43.9842 29.6402 42.6146 30.1455 41.0316 30.1303C39.7717 30.08 38.751 29.6326 37.7926 28.8081C37.7154 28.7452 37.6383 28.6822 37.5588 28.6174C36.7697 27.913 36.0202 26.6377 35.9161 25.5636C35.8266 23.7066 36.1948 22.2451 37.4329 20.8358C39.4359 18.8922 42.6484 18.7652 44.809 20.5405Z" fill="#EBEBEB"/>
<path d="M11.8161 20.2167C13.0358 21.1235 13.9266 22.4061 14.1598 23.9276C14.2948 25.6189 13.888 27.0499 12.79 28.3637C11.7644 29.4672 10.4129 30.0661 8.91204 30.1259C7.58621 30.1426 6.54305 29.7892 5.46844 29.0057C5.4065 28.9629 5.34457 28.9201 5.28075 28.876C4.30677 28.1344 3.62993 26.8733 3.41766 25.6854C3.2686 23.8455 3.56082 22.4605 4.74746 20.9987C6.59391 19.0109 9.57677 18.83 11.8161 20.2167Z" fill="#ECECEC"/>
<path d="M29.1019 21.6783C29.8622 22.2705 30.3954 23.0626 30.5667 24.0221C30.6287 25.1796 30.6379 26.1982 29.8831 27.1471C29.4628 27.5651 29.0797 27.8051 28.4854 27.8612C27.7377 27.7978 27.1623 27.5139 26.6605 26.9518C26.4641 26.672 26.3146 26.3832 26.1722 26.0729C26.1337 25.9913 26.0952 25.9097 26.0555 25.8257C25.6767 24.9251 25.6333 23.9888 25.9403 23.0577C26.2132 22.4039 26.578 21.782 27.2464 21.483C27.8647 21.2563 28.5395 21.353 29.1019 21.6783Z" fill="#232523"/>
<path d="M21.9729 22.1667C22.5323 22.4956 22.8762 22.9351 23.0833 23.5472C23.3274 24.6582 23.1219 25.5912 22.5428 26.5551C22.2034 27.0168 21.7237 27.2857 21.1653 27.3798C20.6384 27.4068 20.2222 27.3081 19.8244 26.9518C19.1545 26.1049 19.1428 25.1617 19.2385 24.1198C19.3218 23.787 19.4452 23.5287 19.6291 23.2409C19.6622 23.1792 19.6953 23.1175 19.7295 23.054C20.187 22.2886 21.1129 21.8397 21.9729 22.1667Z" fill="#232523"/>
<path d="M16.1133 29.3945C16.3723 29.6446 16.5961 29.898 16.8091 30.188C18.4402 32.2906 20.8451 33.492 23.4436 33.9172C26.4128 34.2685 29.3896 33.5325 31.7532 31.6811C32.5526 31.0033 33.2264 30.2798 33.7891 29.3945C33.8213 29.459 33.8535 29.5234 33.8867 29.5898C33.5031 30.339 32.957 30.9961 32.4219 31.6406C32.3573 31.7233 32.3573 31.7233 32.2914 31.8077C31.6867 32.5747 30.8748 33.1407 30.0781 33.6914C30.0054 33.7428 29.9326 33.7941 29.8576 33.847C29.3293 34.1931 28.7685 34.4223 28.1799 34.6436C28.1043 34.6723 28.0286 34.701 27.9507 34.7306C25.7956 35.5087 23.3666 35.3442 21.2891 34.4212C19.2666 33.4284 17.6008 31.9952 16.4062 30.0781C16.3502 29.9896 16.2942 29.9011 16.2365 29.81C16.1133 29.5898 16.1133 29.5898 16.1133 29.3945Z" fill="#026937"/>
<path d="M36.5236 21.875C36.5558 21.9395 36.588 22.0039 36.6212 22.0703C36.5514 22.2624 36.4726 22.4513 36.3893 22.6379C35.8911 23.7582 35.7937 25.2369 36.2153 26.4038C36.845 27.9135 37.8471 29.0397 39.3484 29.7192C40.6569 30.193 42.1855 30.1517 43.4572 29.5898C44.9374 28.8801 45.8777 27.797 46.4296 26.2512C46.7482 25.1108 46.6338 23.8983 46.3869 22.7539C47.1911 23.7494 47.1867 25.0518 47.0705 26.2695C46.8233 27.6883 45.995 28.8099 44.874 29.6814C43.3988 30.6969 41.584 30.9788 39.8378 30.658C38.3026 30.2867 37.0474 29.4307 36.1311 28.1544C35.3614 26.8716 35.155 25.4304 35.4982 23.9807C35.7206 23.207 36.0941 22.5515 36.5236 21.875Z" fill="#121311"/>
<path d="M13.5742 22.168C14.3231 22.832 14.5806 24.0763 14.6831 25.0301C14.7498 26.619 14.1542 27.9541 13.092 29.1126C11.8081 30.3189 10.1409 30.8028 8.41326 30.7892C6.71446 30.7088 5.22923 29.9192 4.06489 28.7037C3.04171 27.4911 2.8106 26.0788 2.90655 24.5397C2.98796 23.752 3.34024 23.0516 3.71088 22.3633C3.82213 22.697 3.79684 22.7385 3.67083 23.0484C3.4877 23.5653 3.4668 24.0402 3.47285 24.585C3.47366 24.6794 3.47447 24.7739 3.4753 24.8712C3.50441 26.1088 3.86629 27.028 4.58979 28.0273C4.66431 28.1321 4.73884 28.2368 4.81562 28.3447C5.76484 29.316 7.06036 29.984 8.42678 30.0226C10.0078 30.027 11.3737 29.5844 12.5671 28.5034C13.6103 27.3775 14.1219 26.0107 14.1026 24.4893C14.0796 23.9116 13.9548 23.3958 13.7695 22.8516C13.7301 22.7155 13.6913 22.5792 13.6535 22.4426C13.6142 22.3067 13.6142 22.3067 13.5742 22.168Z" fill="#131412"/>
<path d="M13.5742 22.4609C13.7695 22.5586 13.7695 22.5586 13.8493 22.7432C13.8733 22.8193 13.8973 22.8953 13.9221 22.9736C13.9464 23.0487 13.9707 23.1237 13.9957 23.201C14.4004 24.6348 14.1776 26.0443 13.5181 27.3567C12.7003 28.7255 11.4905 29.6192 9.9453 30.0137C8.75383 30.2185 7.66946 30.1333 6.54297 29.6875C6.54297 29.623 6.54297 29.5586 6.54297 29.4922C6.64695 29.4897 6.75093 29.4872 6.85806 29.4846C8.80198 29.4174 10.5168 28.8458 11.8777 27.3988C13.1347 25.9665 13.4486 24.3085 13.5742 22.4609Z" fill="#EEEEEE"/>
<path d="M46.0938 22.4609C46.5753 22.8683 46.6409 23.5216 46.6986 24.1225C46.7994 25.6937 46.4019 27.0639 45.3854 28.2936C44.3448 29.3993 43.0249 30.0676 41.5012 30.1239C40.6231 30.1349 39.883 30.0175 39.0625 29.6875C39.0625 29.623 39.0625 29.5586 39.0625 29.4922C39.1713 29.4908 39.28 29.4894 39.3921 29.488C41.2903 29.4394 42.8307 28.9211 44.2322 27.6001C45.6196 26.1149 46.0027 24.4135 46.0938 22.4609Z" fill="#EEEEEE"/>
<path d="M29.6877 36.3264C29.7363 37.1114 29.7157 37.789 29.2971 38.4748C28.8972 38.922 28.4763 39.2273 27.8739 39.2958C27.1456 39.3234 26.543 39.3333 25.9547 38.8475C25.4375 38.3179 25.266 37.9622 25.2627 37.2053C25.2705 37.0099 25.2798 36.8145 25.2932 36.6194C25.356 36.6174 25.4188 36.6155 25.4836 36.6135C26.6276 36.5766 27.759 36.5311 28.8924 36.3657C29.1622 36.3312 29.4162 36.3187 29.6877 36.3264Z" fill="#F2F2F2"/>
<path d="M20.4099 36.4258C20.5319 36.4317 20.6539 36.4376 20.7796 36.4437C22.0885 36.5068 23.3976 36.5652 24.7068 36.6211C24.7965 37.9291 24.7965 37.9291 24.3581 38.5174C23.9621 38.9556 23.5794 39.2306 22.9906 39.2975C22.2495 39.3254 21.6669 39.3264 21.0645 38.8401C20.6661 38.4371 20.4173 38.0478 20.4004 37.4653C20.4015 37.3418 20.4027 37.2183 20.4038 37.0911C20.4047 36.9668 20.4056 36.8426 20.4065 36.7146C20.4076 36.6193 20.4088 36.524 20.4099 36.4258Z" fill="#F2F2F2"/>
<path d="M34.5703 35.3516C34.6162 36.1655 34.6203 36.8872 34.1797 37.5977C33.7876 38.0353 33.3675 38.3529 32.7744 38.4117C31.9471 38.4201 31.3091 38.4182 30.6862 37.8227C30.2531 37.3205 30.2167 36.8779 30.1758 36.2305C30.2485 36.2177 30.3212 36.205 30.3961 36.1918C32.1847 35.8871 32.1847 35.8871 33.9352 35.4198C34.1797 35.3516 34.1797 35.3516 34.5703 35.3516Z" fill="#E4E5E5"/>
<path d="M15.5273 35.3516C16.3754 35.5118 17.2108 35.7156 18.0478 35.9255C18.6413 36.0711 19.215 36.1787 19.8241 36.2305C19.8836 36.8964 19.7584 37.2735 19.3359 37.793C18.6995 38.3828 18.1237 38.4462 17.2855 38.4224C16.7522 38.3828 16.389 38.1707 16.0155 37.793C15.567 37.2676 15.5135 36.7851 15.5212 36.1145C15.5216 36.0413 15.522 35.9681 15.5225 35.8927C15.5236 35.7123 15.5254 35.5319 15.5273 35.3516Z" fill="#E4E4E4"/>
<path d="M42.7734 22.754C43.3275 22.9387 43.6841 23.306 43.9452 23.8282C44.0196 24.4843 43.9711 25.0553 43.5546 25.586C43.1775 25.9431 42.8035 26.105 42.2851 26.1353C41.7667 26.105 41.3927 25.9431 41.0156 25.586C40.6509 25.1214 40.5613 24.6379 40.5872 24.0555C40.6654 23.5843 40.9249 23.3221 41.2719 23.0164C41.7521 22.6752 42.1977 22.7099 42.7734 22.754Z" fill="#191A18"/>
<path d="M8.20267 23.045C8.60827 23.437 8.80487 23.7645 8.82523 24.3267C8.81781 24.8929 8.69856 25.2729 8.30032 25.6817C7.84299 26.0195 7.40515 26.1537 6.83548 26.0724C6.28755 25.9044 5.92666 25.6338 5.64873 25.1297C5.4919 24.6954 5.49112 24.2787 5.56595 23.8263C5.79742 23.3547 6.1303 22.9755 6.62796 22.7765C7.23253 22.7053 7.66349 22.7455 8.20267 23.045Z" fill="#191A18"/>
<path d="M40.4299 5.85994C40.8665 6.10724 41.2156 6.36208 41.4065 6.8365C41.4967 7.41159 41.3281 7.7348 41.0021 8.18881C40.6657 8.57829 40.1793 9.03649 39.6498 9.10929C39.207 9.12864 39.029 9.1345 38.6721 8.84455C38.6077 8.76197 38.5432 8.67939 38.4768 8.59431C38.4446 8.56208 38.4124 8.52986 38.3792 8.49665C38.3124 7.75099 38.2919 7.05533 38.7698 6.44587C39.2901 5.91747 39.6719 5.64259 40.4299 5.85994Z" fill="#006837"/>
<path d="M10.5471 5.86133C11.0417 6.14942 11.35 6.54548 11.5565 7.07516C11.6795 7.5512 11.7053 8.01317 11.6213 8.49805C11.405 8.78844 11.2562 8.92477 10.9377 9.08398C10.3195 9.15991 9.9868 9.04473 9.48434 8.67963C9.03961 8.28905 8.62131 7.80559 8.56348 7.2041C8.60005 6.76518 8.70212 6.58649 8.98462 6.25195C9.5292 5.84074 9.87291 5.69278 10.5471 5.86133Z" fill="#006837"/>
<path d="M45.3125 15.5257C45.2803 15.6868 45.248 15.848 45.2148 16.014C45.1358 16.0159 45.0568 16.0178 44.9754 16.0198C42.2768 16.0873 42.2768 16.0873 39.6072 16.4656C39.1348 16.5344 38.6596 16.5172 38.1836 16.5023C38.1855 16.2833 38.1855 16.2833 38.2812 16.014C38.5346 15.8514 38.7591 15.7305 39.032 15.6111C39.1451 15.5605 39.1451 15.5605 39.2606 15.5089C41.206 14.6689 43.3651 14.7054 45.3125 15.5257Z" fill="#016938"/>
<path d="M11.8164 16.1138C11.8164 16.2427 11.8164 16.3716 11.8164 16.5044C10.9985 16.563 10.2561 16.4614 9.45435 16.3152C7.90781 16.0386 6.35183 16.0324 4.78516 16.0162C4.78516 15.6255 4.78516 15.6255 4.93774 15.468C7.10311 14.2361 9.80643 15.0126 11.8164 16.1138Z" fill="#016938"/>
<path d="M31.8932 17.7587C31.971 17.8285 32.0488 17.8982 32.1289 17.9701C32.1966 18.0297 32.2644 18.0894 32.3341 18.1509C32.7543 18.5443 33.0977 18.983 33.4351 19.4471C33.477 19.5044 33.5189 19.5616 33.5621 19.6206C33.8082 19.9692 33.9683 20.2934 34.082 20.7044C33.8258 20.4663 33.6352 20.2033 33.4351 19.9171C31.8251 17.6965 29.4965 16.2439 26.7749 15.8042C25.4499 15.62 24.0617 15.6312 22.7539 15.9193C22.6404 15.9432 22.5268 15.9671 22.4098 15.9918C19.949 16.5747 17.818 18.0251 16.412 20.1216C16.2574 20.3445 16.1186 20.525 15.918 20.7044C16.0584 20.1638 16.3219 19.7907 16.6565 19.3556C16.7094 19.2864 16.7623 19.2172 16.8168 19.1459C18.4514 17.0378 20.901 15.6065 23.5619 15.2632C26.6651 15.0289 29.4961 15.7011 31.8932 17.7587Z" fill="#A4E777"/>
<path d="M10.7094 14.8653C11.1017 15.1664 11.4119 15.5336 11.7188 15.9193C11.6865 15.9837 11.6543 16.0482 11.6211 16.1146C11.5242 16.0616 11.4272 16.0086 11.3274 15.954C9.45491 14.956 7.54402 14.7643 5.4966 15.317C5.19658 15.4236 4.95221 15.5487 4.6875 15.724C4.97864 15.0689 5.41146 14.6558 6.05469 14.3568C7.67514 13.8057 9.26317 13.955 10.7094 14.8653Z" fill="#09773F"/>
<path d="M44.4027 14.5927C44.7668 14.8512 45.022 15.1178 45.2148 15.5277C45.1557 15.5088 45.0965 15.4899 45.0356 15.4705C44.7708 15.3882 44.505 15.3106 44.2383 15.2347C44.1678 15.2139 44.0973 15.1932 44.0247 15.1718C42.2135 14.7222 40.3513 15.0744 38.7184 15.9111C38.6386 15.9457 38.5588 15.9803 38.4766 16.016C38.4121 15.9837 38.3477 15.9515 38.2812 15.9183C39.7533 14.0416 42.2556 13.452 44.4027 14.5927Z" fill="#0A7640"/>
<path d="M44.5316 16.0166C44.6283 16.21 44.725 16.4033 44.8246 16.6025C44.7452 16.6034 44.6657 16.6044 44.5839 16.6053C42.7858 16.6311 40.999 16.6861 39.2475 17.1448C38.9963 17.2042 38.759 17.1976 38.5013 17.1946C38.4052 17.1937 38.309 17.1928 38.2099 17.1919C38.1369 17.1908 38.0639 17.1896 37.9886 17.1885C37.9764 16.9077 37.9764 16.9077 37.9886 16.6025C38.184 16.4072 38.184 16.4072 38.401 16.3984C38.5383 16.4058 38.5383 16.4058 38.6783 16.4133C39.1984 16.4233 39.6719 16.3645 40.1798 16.2668C41.6287 15.9939 43.0615 16.0043 44.5316 16.0166Z" fill="#B7CF9E"/>
<path d="M20.6055 41.6016C20.6856 41.6149 20.6856 41.6149 20.7673 41.6285C23.0472 41.9882 25.3358 41.9233 27.6367 41.8945C27.2864 42.1728 27.0008 42.2768 26.5625 42.3828C26.462 42.4102 26.462 42.4102 26.3596 42.4381C25.735 42.59 25.131 42.5932 24.4923 42.5795C24.1771 42.5734 23.9346 42.5752 23.6328 42.6758C23.3974 42.6392 23.3974 42.6392 23.1384 42.5781C22.7896 42.4788 22.7896 42.4788 22.4609 42.5781C22.2658 42.5333 22.0707 42.4878 21.8777 42.4347C21.6698 42.376 21.6698 42.376 21.4111 42.3462C21.12 42.2653 20.9899 42.1257 20.8008 41.8945C20.8008 41.8301 20.8008 41.7656 20.8008 41.6992C20.7363 41.667 20.6719 41.6348 20.6055 41.6016Z" fill="#579F46"/>
<path d="M7.8125 16.1129C8.46306 16.075 9.06244 16.1342 9.69849 16.2594C10.4475 16.406 11.1492 16.4386 11.9141 16.4059C12.0463 16.6704 12.0181 16.8951 12.0117 17.1871C11.026 17.2702 10.0901 17.038 9.13081 16.8441C8.62895 16.7463 8.12343 16.6726 7.61719 16.6012C7.68164 16.4401 7.74609 16.2789 7.8125 16.1129Z" fill="#B7CF9E"/>
<path d="M34.1797 35.3516C34.3086 35.3516 34.4375 35.3516 34.5703 35.3516C34.6162 36.1655 34.6203 36.8872 34.1797 37.5977C33.9726 37.8288 33.7562 38.0147 33.4961 38.1836C33.4398 38.2204 33.3836 38.2571 33.3256 38.295C33.0037 38.4177 32.71 38.4047 32.3669 38.4033C32.3013 38.4041 32.2356 38.4048 32.168 38.4056C31.8082 38.4042 31.6547 38.3883 31.3477 38.1836C31.4302 38.1811 31.5128 38.1786 31.5979 38.176C32.4208 38.1348 33.0476 38.0646 33.6304 37.4512C33.9319 36.9873 34.0119 36.6765 34.0393 36.1145C34.0724 35.4589 34.0724 35.4589 34.1797 35.3516Z" fill="#A0AFB9"/>
<path d="M29.1992 36.3281C29.3604 36.3281 29.5215 36.3281 29.6875 36.3281C29.7361 37.1131 29.7155 37.7907 29.2969 38.4766C29.09 38.708 28.8734 38.8936 28.6133 39.0625C28.5581 39.0993 28.503 39.136 28.4462 39.1739C28.1121 39.2993 27.781 39.286 27.4292 39.2822C27.3581 39.283 27.2869 39.2837 27.2137 39.2845C26.6849 39.2826 26.6849 39.2826 26.4648 39.0625C26.5474 39.06 26.63 39.0575 26.7151 39.0549C27.5378 39.0137 28.1585 38.9407 28.7476 38.3362C29.0418 37.8722 29.1294 37.4798 29.1626 36.9324C29.1699 36.819 29.1772 36.7055 29.1847 36.5887C29.1895 36.5027 29.1943 36.4167 29.1992 36.3281Z" fill="#A1AFB8"/>
<path d="M24.3164 36.6211C24.4453 36.6211 24.5742 36.6211 24.707 36.6211C24.7968 37.9291 24.7968 37.9291 24.3584 38.5174C23.9518 38.9673 23.5744 39.2415 22.9668 39.2838C22.8266 39.2843 22.6865 39.2837 22.5464 39.2822C22.4753 39.283 22.4041 39.2837 22.3309 39.2845C21.8021 39.2826 21.8021 39.2826 21.582 39.0625C21.6705 39.0622 21.759 39.062 21.8502 39.0617C22.6591 39.0361 23.2348 38.9552 23.8281 38.3789C24.2803 37.8725 24.2927 37.2755 24.3164 36.6211Z" fill="#A4B3BD"/>
<path d="M42.5024 16.0039C42.596 16.0044 42.6896 16.0049 42.786 16.0055C42.9376 16.0059 42.9376 16.0059 43.0922 16.0064C43.1985 16.0072 43.3048 16.008 43.4143 16.0089C43.5743 16.0096 43.5743 16.0096 43.7376 16.0102C44.0022 16.0114 44.2667 16.013 44.5312 16.015C44.6279 16.2084 44.7246 16.4017 44.8242 16.6009C44.0186 16.6009 43.2129 16.6009 42.3828 16.6009C42.3184 16.4398 42.2539 16.2787 42.1875 16.1126C42.2852 16.015 42.2852 16.015 42.5024 16.0039Z" fill="#83B38E"/>
<path d="M19.4336 36.2305C19.5625 36.2305 19.6914 36.2305 19.8242 36.2305C19.8837 36.8964 19.7585 37.2735 19.3359 37.793C18.7968 38.2927 18.3922 38.4111 17.6636 38.4033C17.5924 38.4041 17.5213 38.4048 17.448 38.4056C16.9193 38.4037 16.9193 38.4037 16.6992 38.1836C16.7818 38.1811 16.8644 38.1786 16.9495 38.176C17.7004 38.1384 18.3491 38.1003 18.8988 37.545C19.221 37.1371 19.336 36.7364 19.4336 36.2305Z" fill="#A3B1BB"/>
<path d="M4.88281 15.1367C4.94727 15.1689 5.01172 15.2012 5.07812 15.2344C5.02979 15.2747 4.98145 15.3149 4.93164 15.3564C4.74279 15.5393 4.74279 15.5393 4.78516 15.918C5.88086 15.9502 6.97656 15.9824 8.10547 16.0156C8.10547 16.0479 8.10547 16.0801 8.10547 16.1133C7.20313 16.1133 6.30078 16.1133 5.37109 16.1133C5.33887 16.2422 5.30664 16.3711 5.27344 16.5039C5.53125 16.5361 5.78906 16.5684 6.05469 16.6016C6.05469 16.6338 6.05469 16.666 6.05469 16.6992C5.78407 16.7045 5.51356 16.7084 5.24292 16.7114C5.16619 16.7131 5.08947 16.7147 5.01041 16.7164C4.93646 16.717 4.8625 16.7176 4.7863 16.7183C4.71828 16.7193 4.65027 16.7203 4.58019 16.7214C4.39453 16.6992 4.39453 16.6992 4.10156 16.5039C4.11715 15.8804 4.47083 15.5605 4.88281 15.1367Z" fill="#66796D"/>
<path d="M5.37109 16.1133C6.17676 16.1133 6.98242 16.1133 7.8125 16.1133C7.78027 16.3389 7.74805 16.5645 7.71484 16.7969C7.61816 16.8452 7.61816 16.8452 7.51953 16.8945C7.51953 16.7979 7.51953 16.7012 7.51953 16.6016C6.74609 16.6016 5.97266 16.6016 5.17578 16.6016C5.24023 16.4404 5.30469 16.2793 5.37109 16.1133Z" fill="#86B48F"/>
<path d="M27.6367 41.8951C27.3037 42.1881 26.9908 42.2797 26.5625 42.3833C26.4383 42.4158 26.4383 42.4158 26.3115 42.449C26.2251 42.4696 26.1388 42.4903 26.0498 42.5115C25.9687 42.5313 25.8877 42.5511 25.8041 42.5714C25.5859 42.5787 25.5859 42.5787 25.4105 42.4364C25.3717 42.3866 25.3329 42.3369 25.293 42.2857C25.4219 42.2535 25.5508 42.2212 25.6836 42.188C25.0391 42.1558 24.3945 42.1236 23.7305 42.0904C23.7305 42.0582 23.7305 42.0259 23.7305 41.9927C24.1612 41.9787 24.5919 41.9648 25.0227 41.951C25.1689 41.9463 25.3152 41.9416 25.4614 41.9368C25.6728 41.9299 25.8842 41.9231 26.0956 41.9164C26.2224 41.9123 26.3492 41.9082 26.4799 41.904C26.8658 41.8948 27.2507 41.8936 27.6367 41.8951Z" fill="#608B41"/>
<path d="M44.9219 15.1367C45.3905 15.3358 45.6552 15.6732 45.8984 16.1133C45.8862 16.4062 45.8862 16.4062 45.8008 16.6016C45.4785 16.6016 45.1563 16.6016 44.8242 16.6016C44.7275 16.4082 44.6309 16.2148 44.5312 16.0156C44.8696 15.9673 44.8696 15.9673 45.2148 15.918C45.1614 15.5884 45.1118 15.4216 44.9219 15.1367Z" fill="#6C706E"/>
<path d="M28.125 41.8932C27.7708 42.2868 27.4456 42.4126 26.9531 42.5768C26.7253 42.5806 26.4974 42.5811 26.2695 42.5768C26.4937 42.3187 26.6825 42.2227 27.0081 42.1251C27.7958 41.8845 27.7958 41.8845 28.125 41.8932Z" fill="#54A146"/>
<path d="M36.5234 21.875C36.5557 21.9395 36.5879 22.0039 36.6211 22.0703C36.5513 22.2624 36.4725 22.4513 36.3892 22.6379C36.2267 23.0033 36.0981 23.3348 36.0352 23.7305C35.9385 23.666 35.8418 23.6016 35.7422 23.5352C35.7991 23.1032 35.9636 22.8012 36.1877 22.4304C36.2503 22.3261 36.3129 22.2217 36.3773 22.1142C36.4255 22.0353 36.4738 21.9563 36.5234 21.875Z" fill="#1E291E"/>
<path d="M7.51953 23.6328C7.68315 23.6607 7.84608 23.6931 8.00781 23.7305C8.06274 23.9197 8.06274 23.9197 8.10547 24.1211C8.00781 24.2188 8.00781 24.2188 7.75757 24.2249C7.63974 24.2218 7.63974 24.2218 7.51953 24.2188C7.48221 24.057 7.44981 23.8941 7.42188 23.7305C7.4541 23.6982 7.48633 23.666 7.51953 23.6328Z" fill="#EBEBEB"/>
<path d="M29.0039 41.7007C28.463 42.2716 28.463 42.2716 28.125 42.3843C28.0283 42.3521 27.9316 42.3198 27.832 42.2866C28.1939 41.7999 28.3995 41.6843 29.0039 41.7007Z" fill="#59A147"/>
<path d="M30.7617 24.2188C30.7939 24.2188 30.8262 24.2188 30.8594 24.2188C30.8703 24.7517 30.8512 25.2554 30.7617 25.7812C30.665 25.8135 30.5684 25.8457 30.4688 25.8789C30.4799 25.6754 30.4924 25.472 30.5054 25.2686C30.5122 25.1553 30.519 25.042 30.526 24.9252C30.5627 24.638 30.613 24.4629 30.7617 24.2188Z" fill="#72B347"/>
<path d="M42.6758 23.6328C42.8394 23.6607 43.0023 23.6931 43.1641 23.7305C43.1318 23.8916 43.0996 24.0527 43.0664 24.2188C42.9375 24.2188 42.8086 24.2188 42.6758 24.2188C42.6385 24.057 42.6061 23.8941 42.5781 23.7305C42.6104 23.6982 42.6426 23.666 42.6758 23.6328Z" fill="#F6F6F6"/>
<path d="M23.0469 25.5859C23.1113 25.6182 23.1758 25.6504 23.2422 25.6836C23.0309 26.1805 22.8816 26.5275 22.3633 26.7578C22.3895 26.7075 22.4156 26.6571 22.4426 26.6052C22.538 26.4095 22.623 26.2088 22.7051 26.0071C22.8516 25.6836 22.8516 25.6836 23.0469 25.5859Z" fill="#7AB647"/>
<path d="M13.5742 22.168C13.8044 22.3784 13.9443 22.5779 14.0808 22.8577C14.1144 22.9253 14.148 22.9929 14.1827 23.0625C14.2578 23.2422 14.2578 23.2422 14.2578 23.4375C14.1611 23.4375 14.0645 23.4375 13.9648 23.4375C13.8994 23.2627 13.8343 23.0877 13.7695 22.9126C13.7333 22.8152 13.697 22.7177 13.6597 22.6173C13.5742 22.3633 13.5742 22.3633 13.5742 22.168Z" fill="#203020"/>
<path d="M5.56641 14.6484C5.63086 14.6807 5.69531 14.7129 5.76172 14.7461C5.43944 15.1503 5.15886 15.487 4.6875 15.7227C4.89002 15.267 5.15055 14.9257 5.56641 14.6484Z" fill="#1E6F47"/>
<path d="M47.4609 27.0508C47.6105 27.4497 47.5225 27.812 47.4609 28.2227C47.4287 28.1582 47.3965 28.0938 47.3633 28.0273C47.2666 28.0596 47.1699 28.0918 47.0703 28.125C47.1887 27.7613 47.3153 27.4045 47.4609 27.0508Z" fill="#0F6B34"/>
<path d="M33.7891 29.3945C33.8213 29.459 33.8535 29.5234 33.8867 29.5898C33.7681 29.8225 33.7681 29.8225 33.5999 30.0903C33.5446 30.1792 33.4893 30.2681 33.4324 30.3596C33.389 30.4279 33.3455 30.4961 33.3008 30.5664C33.2363 30.502 33.1719 30.4375 33.1055 30.3711C33.4438 29.8877 33.4438 29.8877 33.7891 29.3945Z" fill="#18783A"/>
<path d="M27.5391 34.9627C27.5391 35.0271 27.5391 35.0916 27.5391 35.158C27.1846 35.158 26.8301 35.158 26.4648 35.158C26.8492 34.9017 27.0954 34.8148 27.5391 34.9627Z" fill="#74B74C"/>
<path d="M26.9531 21.6797C27.0176 21.7119 27.082 21.7441 27.1484 21.7773C26.9229 22.0029 26.6973 22.2285 26.4648 22.4609C26.4326 22.3965 26.4004 22.332 26.3672 22.2656C26.7334 21.7896 26.7334 21.7896 26.9531 21.6797Z" fill="#102814"/>
<path d="M27.7344 41.7969C27.8955 41.7969 28.0566 41.7969 28.2227 41.7969C28.1904 41.8613 28.1582 41.9258 28.125 41.9922C27.9961 41.9277 27.8672 41.8633 27.7344 41.7969ZM27.6367 42.2852C27.7012 42.2852 27.7656 42.2852 27.832 42.2852C27.7998 42.3818 27.7676 42.4785 27.7344 42.5781C27.6377 42.5459 27.541 42.5137 27.4414 42.4805C27.5059 42.416 27.5703 42.3516 27.6367 42.2852Z" fill="#4F8C3E"/>
<path d="M16.1133 29.3945C16.4023 29.6636 16.6052 29.9283 16.7969 30.2734C16.7002 30.2734 16.6035 30.2734 16.5039 30.2734C16.1133 29.6143 16.1133 29.6143 16.1133 29.3945Z" fill="#1A793A"/>
</g>
<defs>
<clipPath id="clip0_3130_42666">
<rect width="50" height="50" fill="white"/>
</clipPath>
</defs>
</svg>
