<svg width="50" height="50" viewBox="0 0 50 50" fill="none" xmlns="http://www.w3.org/2000/svg">
<path d="M32.5195 9.2757C33.1526 9.69641 33.7224 10.1855 34.2773 10.7039C35.2587 11.5985 36.364 12.074 37.5977 12.4984C39.1504 13.0344 40.6653 13.602 41.9155 14.7021C42.6789 15.3691 43.4313 15.8954 44.3359 16.3558C45.315 16.854 46.2394 17.3914 46.9177 18.2784C46.9882 18.3681 47.0587 18.4579 47.1313 18.5504C47.2462 18.6967 47.2462 18.6967 47.3633 18.846C47.5546 19.0796 47.7486 19.3109 47.9431 19.5418C47.9893 19.5974 48.0355 19.6529 48.0831 19.7101C48.3229 20.0036 48.3229 20.0036 48.6328 20.2132C48.6973 20.0198 48.7617 19.8265 48.8281 19.6273C49.08 20.0051 49.0636 20.2966 49.0875 20.7412C49.1052 21.0172 49.1052 21.0172 49.3164 21.2874C49.3587 21.2089 49.401 21.1303 49.4446 21.0494C49.6094 20.7991 49.6094 20.7991 49.9023 20.7015C49.9387 21.3592 49.9111 21.8662 49.6094 22.4593C49.3774 22.6607 49.3774 22.6607 49.1211 22.7523C48.6914 22.7132 48.6914 22.7132 48.5352 22.557C48.504 22.356 48.4852 22.155 48.465 21.9527C48.4551 21.7741 48.4551 21.7741 48.3398 21.678C48.2902 21.7711 48.2406 21.8641 48.1895 21.96C48.1217 22.0837 48.0538 22.2074 47.9858 22.3311C47.9373 22.4228 47.9373 22.4228 47.8878 22.5163C47.5971 23.0402 47.267 23.4354 46.6797 23.6312C46.4167 23.6486 46.1627 23.6397 45.8984 23.6312C45.8008 23.5335 45.8008 23.5335 45.7825 23.2528C45.7877 22.752 45.897 22.2649 45.9961 21.7757C45.5081 22.1564 45.1937 22.5192 44.8635 23.0403C44.5785 23.4571 44.2236 23.6775 43.75 23.8265C43.4512 23.8547 43.1539 23.8539 42.8539 23.8524C42.7676 23.8526 42.6813 23.8528 42.5923 23.853C42.41 23.8531 42.2277 23.8528 42.0454 23.8519C41.7683 23.8509 41.4913 23.8519 41.2142 23.8532C41.0365 23.8531 40.8588 23.8528 40.6811 23.8524C40.5581 23.853 40.5581 23.853 40.4325 23.8536C39.8326 23.8489 39.2236 23.8236 38.7268 23.4542C38.557 23.2164 38.5086 23.0406 38.4766 22.7523C38.4121 22.7845 38.3477 22.8167 38.2812 22.8499C38.1456 22.8592 38.0095 22.8627 37.8735 22.8629C37.7926 22.863 37.7117 22.8631 37.6284 22.8633C37.5437 22.8629 37.459 22.8625 37.3718 22.8621C37.2465 22.8627 37.2465 22.8627 37.1187 22.8633C36.7126 22.8626 36.3334 22.8551 35.9375 22.7523C35.9697 22.5267 36.002 22.3011 36.0352 22.0687C35.5408 22.1092 35.0947 22.1767 34.6191 22.3189C34.1491 22.4514 33.6892 22.5684 33.2031 22.4593C32.7349 22.0379 32.7091 21.6149 32.6763 21.0097C32.6694 20.8693 32.6626 20.7289 32.6557 20.5886C32.6378 20.2578 32.6187 19.9446 32.5195 19.6273C31.9291 19.6661 31.5319 19.9439 31.0486 20.2559C30.1295 20.8419 29.424 21.1151 28.3203 21.086C27.4655 21.0792 26.7038 21.3648 25.9174 21.6758C25.4551 21.8151 25.0714 21.8368 24.6155 21.6719C24.2787 21.4589 24.002 21.2127 23.7141 20.9384C23.5344 20.7691 23.5344 20.7691 23.2422 20.7991C23.0775 21.0426 23.0775 21.0426 22.9248 21.3485C22.5897 21.9498 22.2615 22.4281 21.582 22.6546C21.2561 22.6933 20.9304 22.7292 20.6036 22.7595C20.1788 22.8062 19.8705 22.8781 19.5312 23.1429C19.4849 23.2436 19.4386 23.3443 19.3909 23.4481C19.2383 23.7288 19.2383 23.7288 18.9575 23.8387C18.6523 23.8265 18.6523 23.8265 18.4204 23.6373C18.1379 23.4153 17.9481 23.3602 17.588 23.3798C17.1705 23.4939 16.8986 23.8195 16.6016 24.1195C15.6117 25.1033 14.3779 25.6978 13.1254 26.2849C12.532 26.5702 12.0821 26.9379 11.6638 27.452C11.3321 27.8408 11.0344 28.0585 10.5469 28.221C10.2909 28.2348 10.037 28.2438 9.78088 28.2485C9.70613 28.2503 9.63137 28.2521 9.55435 28.2539C9.23466 28.2616 8.91494 28.2682 8.59523 28.2749C8.36177 28.28 8.12834 28.2856 7.8949 28.2912C7.7864 28.2932 7.7864 28.2932 7.67571 28.2952C7.37155 28.3026 7.12657 28.3194 6.83594 28.4163C6.88219 28.6861 6.93621 28.9104 7.04956 29.161C7.08884 29.2758 7.08884 29.2758 7.12891 29.3929C6.8699 29.7814 6.59472 29.8863 6.15234 29.9788C5.22401 30.0414 4.32999 29.7547 3.44827 29.4988C2.50161 29.2191 2.50161 29.2191 1.5625 29.3929C1.94922 29.5862 2.33594 29.7796 2.73438 29.9788C2.19379 30.2491 1.72495 30.2216 1.14746 30.1009C0.7669 29.974 0.630506 29.9006 0.390625 29.5882C0.362778 29.3006 0.362778 29.3006 0.384521 28.9901C0.411392 28.6865 0.411392 28.6865 0.390625 28.4163C0.293945 28.3519 0.197266 28.2874 0.0976562 28.221C0.219387 27.7022 0.38376 27.3624 0.714111 26.9332C0.788258 26.8351 0.862404 26.737 0.938797 26.636C1.36688 26.1393 1.75326 25.9153 2.37427 25.7064C2.43727 25.6848 2.50028 25.6633 2.56519 25.6411C2.71894 25.5887 2.8731 25.5376 3.02734 25.4866C2.99337 25.2937 2.99337 25.2937 2.92969 25.096C2.86523 25.0638 2.80078 25.0316 2.73438 24.9984C2.7666 24.9017 2.79883 24.805 2.83203 24.7054C3.33513 24.6966 3.8007 24.7203 4.29688 24.803C4.28164 24.745 4.26641 24.687 4.25072 24.6272C3.9927 23.5285 4.12874 22.5699 4.6875 21.5804C5.01774 21.1745 5.46022 20.9399 5.9021 20.671C6.79313 20.1101 7.29079 19.3528 7.82681 18.4708C8.23215 17.8082 8.69294 17.2042 9.17969 16.5999C9.28638 16.4649 9.28638 16.4649 9.39522 16.3272C10.6267 14.7895 12.0121 13.3114 13.5742 12.1077C13.632 12.0626 13.6897 12.0174 13.7493 11.9708C15.3675 10.7077 17.114 9.36849 19.2765 9.53009C19.9288 9.62887 20.5619 9.85856 21.1844 10.072C22.1152 10.3787 23.1097 10.5655 24.0417 10.1668C24.5262 9.88944 24.9035 9.50597 25.3059 9.12349C27.3699 7.36603 30.3959 7.97422 32.5195 9.2757ZM24.2188 11.9002C23.9491 12.1867 23.886 12.3824 23.8918 12.778C23.9819 13.3317 24.2816 13.8208 24.6582 14.2257C24.8973 14.3793 24.8973 14.3793 25.177 14.3294C25.2475 14.3052 25.318 14.2811 25.3906 14.2562C25.4522 13.4836 25.3318 12.8117 25 12.1077C24.7627 11.8383 24.7627 11.8383 24.5117 11.7171C24.3813 11.706 24.3813 11.706 24.2188 11.9002ZM25 15.1351C24.7712 15.3961 24.7712 15.3961 24.707 15.721C24.6426 15.721 24.5781 15.721 24.5117 15.721C24.1598 16.4248 24.5127 17.4337 24.7315 18.1471C25.0343 19.0185 25.4636 19.8159 26.0742 20.5062C26.5797 19.748 26.1269 18.1884 26.0193 17.3179C26.0031 17.1857 25.9874 17.0534 25.9722 16.921C25.9502 16.732 25.9259 16.5433 25.9014 16.3546C25.8877 16.2444 25.874 16.1342 25.8599 16.0206C25.7689 15.6739 25.6377 15.4895 25.3906 15.2327C25.1827 15.1478 25.1827 15.1478 25 15.1351ZM22.0703 16.8929C22.2273 17.5001 22.4333 18.0631 22.9492 18.4554C23.0781 18.4554 23.207 18.4554 23.3398 18.4554C23.279 17.8265 23.1797 17.2175 23.0469 16.5999C22.6125 16.5703 22.3944 16.5937 22.0703 16.8929ZM37.793 17.6741C37.7448 17.8056 37.7448 17.8056 37.6957 17.9396C37.3999 18.7229 37.0589 19.446 36.6196 20.16C36.371 20.5758 36.2685 20.9007 36.2305 21.3851C36.518 21.3851 36.7324 21.3577 36.9583 21.1688C37.3398 20.7066 37.5812 20.1621 37.8296 19.6212C37.8646 19.5462 37.8996 19.4712 37.9356 19.394C38.1382 18.934 38.2315 18.577 38.1836 18.0648C38.0976 17.8349 38.0976 17.8349 37.9883 17.6741C37.9238 17.6741 37.8594 17.6741 37.793 17.6741ZM20.2148 17.9671C19.9884 18.2868 20.0035 18.563 20.0653 18.9421C20.2169 19.5173 20.6925 20.0023 21.1914 20.3109C21.3203 20.3109 21.4492 20.3109 21.582 20.3109C21.5175 19.4238 21.2288 18.7618 20.6509 18.0857C20.5012 17.9359 20.5012 17.9359 20.2148 17.9671ZM17.8711 19.0413C17.5854 19.8985 17.7702 20.7901 18.1641 21.5804C18.3502 21.8787 18.5395 22.1048 18.8538 22.2762C19.0623 22.2808 19.0623 22.2808 19.2505 22.0992C19.4661 21.8332 19.6309 21.6294 19.6261 21.2779C19.498 20.6781 19.259 20.3193 18.8416 19.8775C18.2652 19.2436 18.2652 19.2436 18.1641 19.0413C18.0674 19.0413 17.9707 19.0413 17.8711 19.0413ZM8.10547 19.6273C8.04492 20.1116 8.15703 20.4152 8.42285 20.8087C8.77833 21.1951 9.26493 21.441 9.78546 21.5121C9.98911 21.5169 9.98911 21.5169 10.2539 21.4827C9.93238 20.9236 9.49717 20.5056 8.98438 20.1155C8.91992 20.1155 8.85547 20.1155 8.78906 20.1155C8.75684 19.9544 8.72461 19.7933 8.69141 19.6273C8.49805 19.6273 8.30469 19.6273 8.10547 19.6273ZM43.2617 19.7249C42.9547 19.9847 42.7913 20.1529 42.6758 20.5428C42.6758 20.9741 42.7745 21.1997 42.9688 21.5804C43.4415 21.3818 43.6318 21.0558 43.8477 20.6038C43.9084 20.3691 43.9301 20.1638 43.9453 19.9202C43.7197 19.8558 43.4941 19.7913 43.2617 19.7249ZM8.59375 22.7523C8.69191 23.3161 9.11632 23.7257 9.55849 24.0649C9.81402 24.2233 9.99266 24.3215 10.2966 24.2903C10.347 24.2662 10.3973 24.242 10.4492 24.2171C10.1992 23.5796 9.93607 23.0433 9.27734 22.7523C8.91514 22.7278 8.91514 22.7278 8.59375 22.7523ZM7.91016 26.3655C7.95253 26.8458 8.16005 27.1037 8.49609 27.4398C8.75694 27.5331 8.75694 27.5331 8.98438 27.5374C9.0166 27.4407 9.04883 27.3441 9.08203 27.2445C8.82465 26.8429 8.51405 26.6054 8.10547 26.3655C8.04102 26.3655 7.97656 26.3655 7.91016 26.3655Z" fill="#B51B19"/>
<path d="M36.7867 23.9757C37.1188 24.0244 37.4393 24.0336 37.7747 24.0413C38.3322 24.079 38.6114 24.222 39.0007 24.617C39.1445 24.7859 39.2812 24.9581 39.4165 25.1339C39.6278 25.4024 39.6278 25.4024 39.9109 25.5062C40.2568 25.4866 40.4044 25.4123 40.7043 25.2498C41.1721 25.0009 41.5645 24.8465 42.0898 24.9996C42.3839 25.198 42.6212 25.4333 42.8711 25.6832C43.1512 25.9123 43.1512 25.9123 43.4937 25.8602C43.8432 25.8024 43.8432 25.8024 44.0918 25.6283C44.4297 25.434 44.6362 25.4263 45.0195 25.4879C45.4141 25.8466 45.5632 26.1862 45.7268 26.6853C45.7926 26.8772 45.7926 26.8772 46.0144 27.0015C46.1914 27.148 46.1914 27.148 46.2463 27.5203C46.2261 27.8882 46.1133 28.1099 45.8557 28.3828C45.6966 28.5209 45.5318 28.6326 45.3552 28.7472C44.8001 29.1308 44.6534 29.6993 44.4631 30.3181C44.1352 31.3725 43.5949 32.1744 42.6758 32.8121C42.3645 32.9342 42.3645 32.9342 42.0898 32.9098C41.6308 32.5062 41.3404 32.0327 41.0217 31.5174C40.8136 31.2407 40.6385 31.1109 40.332 30.9566C40.5139 31.5212 40.6733 31.8169 41.1133 32.2262C41.4597 32.5955 41.7356 32.9283 41.7786 33.4469C41.7376 34.0009 41.411 34.3087 41.0156 34.6676C40.9325 34.7476 40.9325 34.7476 40.8478 34.8293C40.4412 35.1788 40.0227 35.3303 39.5142 35.4793C38.7709 35.6991 38.3321 36.0787 37.793 36.6207C37.374 36.9701 36.9279 37.259 36.4624 37.5423C35.7957 37.966 35.4514 38.383 35.073 39.0749C34.5834 39.9696 34.0845 40.5879 33.0997 40.9397C32.2455 41.1643 31.3597 41.2083 30.481 41.2472C29.6689 41.2834 28.8755 41.4078 28.0753 41.5477C26.1733 41.8664 24.2505 41.9306 22.3254 41.9303C21.9739 41.9308 21.6225 41.9343 21.2709 41.938C21.0442 41.9386 20.8174 41.939 20.5906 41.9391C20.4871 41.9405 20.3837 41.9419 20.2771 41.9434C19.3757 41.9379 18.7036 41.6937 18.0355 41.0843C17.7955 40.8409 17.5754 40.5821 17.3538 40.3221C17.1221 40.0633 16.8803 39.8554 16.6016 39.648C16.5371 39.648 16.4727 39.648 16.4062 39.648C16.3271 39.7432 16.3271 39.7432 16.2464 39.8403C15.9302 40.1121 15.6508 40.0977 15.2527 40.0875C15.1424 40.0857 15.1424 40.0857 15.03 40.0839C13.4241 40.0283 11.5531 39.3279 10.2539 38.3785C10.0914 38.182 10.0914 38.182 9.94873 37.9818C9.56707 37.4903 9.03163 37.3923 8.45942 37.2207C7.88335 37.0452 7.47628 36.8361 7.03125 36.4254C6.41387 35.9019 5.82031 35.4843 5.07812 35.1558C5.12618 34.5667 5.25842 34.1186 5.51147 33.5872C5.73663 33.1058 5.92134 32.6438 6.05469 32.1285C6.38021 32.1285 6.70573 32.1285 7.03125 32.1285C7.0675 32.0238 7.10376 31.919 7.14111 31.8111C7.28103 31.4069 7.54439 31.2586 7.91016 31.0543C8.19286 30.9563 8.48006 30.8863 8.77075 30.8162C9.75054 30.5569 10.3672 30.3028 11.0352 29.5162C11.5011 28.9692 11.9916 28.669 12.6335 28.3568C13.235 28.0623 13.7715 27.7095 14.3124 27.3157C14.9764 26.8382 15.5728 26.5493 16.4062 26.6598C17.052 26.8846 17.6443 27.242 18.2312 27.5875C18.3108 27.6337 18.3904 27.6799 18.4725 27.7275C19.6092 28.391 20.1732 28.9228 20.6612 30.1613C20.7834 30.43 20.8687 30.5782 21.0938 30.7613C21.289 30.684 21.289 30.684 21.4844 30.566C21.5747 30.2951 21.5925 30.1418 21.5881 29.8633C21.5874 29.7854 21.5866 29.7075 21.5858 29.6272C21.5846 29.5463 21.5833 29.4653 21.582 29.3819C21.5776 29.0925 21.5774 28.8048 21.582 28.5152C21.6797 28.4176 21.6797 28.4176 21.9482 28.3809C22.3792 28.4307 22.4825 28.5718 22.7539 28.9058C22.9257 29.1612 23.0871 29.4212 23.2422 29.6871C23.2122 29.5987 23.2122 29.5987 23.1815 29.5086C23.1552 29.4305 23.1289 29.3525 23.1018 29.2721C23.0757 29.195 23.0497 29.118 23.0228 29.0386C22.9571 28.8328 22.9012 28.6278 22.8516 28.4176C23.4554 27.8138 24.2715 27.7173 25.0916 27.7035C25.4701 27.7048 25.7581 27.7091 26.0742 27.9293C26.6466 28.7715 26.8083 29.9638 26.7578 30.9566C26.9995 30.9083 26.9995 30.9083 27.2461 30.859C27.2874 30.3324 27.216 29.9505 27.0447 29.4491C26.8585 28.8834 26.82 28.5092 26.9531 27.9293C27.2147 27.6677 27.3664 27.6698 27.7344 27.6363C27.9516 27.6535 28.1666 27.6804 28.3829 27.7073C29.1137 27.792 29.6559 27.776 30.2734 27.3433C30.5318 27.1233 30.7807 26.8969 31.0257 26.662C31.3428 26.3827 31.5268 26.2691 31.9519 26.2691C32.4445 26.3983 32.7976 26.652 33.2031 26.9527C33.2354 26.8883 33.2676 26.8238 33.3008 26.7574C33.2263 26.6869 33.1517 26.6164 33.075 26.5438C32.8348 26.2925 32.6552 26.1 32.5195 25.7808C32.55 25.5306 32.55 25.5306 32.7148 25.2926C32.8823 25.2025 32.8823 25.2025 33.0811 25.1156C33.4237 24.9646 33.5888 24.8132 33.8013 24.5052C34.509 23.4944 35.7104 23.7847 36.7867 23.9757ZM32.9102 28.1246C32.7494 28.2277 32.7494 28.2277 32.6172 28.4176C32.5627 28.9623 32.6464 29.2085 32.9834 29.6322C33.7307 30.6916 33.8471 31.9344 33.8867 33.2027C33.79 33.2027 33.6934 33.2027 33.5938 33.2027C33.5797 33.2934 33.5656 33.384 33.551 33.4774C33.3984 33.7887 33.3984 33.7887 33.2035 33.8791C33.0475 33.9249 32.8911 33.9693 32.7343 34.0122C32.4515 34.1036 32.3015 34.2322 32.1289 34.4723C32.1289 34.5689 32.1289 34.6656 32.1289 34.7652C32.0645 34.7652 32 34.7652 31.9336 34.7652C31.9135 34.7048 31.8933 34.6444 31.8726 34.5821C31.7474 34.3513 31.7474 34.3513 31.4697 34.2342C31.0633 34.1639 30.9035 34.2424 30.5664 34.4723C30.3553 34.7602 30.3516 35.0004 30.3711 35.3512C30.1514 35.4244 30.1514 35.4244 29.8828 35.4488C29.6065 35.2339 29.5058 35.0991 29.3945 34.7652C29.1045 34.8136 29.1045 34.8136 28.8086 34.8629C28.6607 35.336 28.7728 35.6694 28.9062 36.1324C29.0029 36.0841 29.0029 36.0841 29.1016 36.0348C29.2968 36.0308 29.4922 36.0305 29.6875 36.0348C29.7382 36.1419 29.789 36.249 29.8412 36.3594C29.91 36.5014 29.9788 36.6435 30.0476 36.7855C30.0808 36.8559 30.1139 36.9263 30.1481 36.9989C30.1818 37.0678 30.2155 37.1368 30.2502 37.2078C30.2803 37.2707 30.3105 37.3336 30.3416 37.3984C30.5029 37.6664 30.5029 37.6664 30.957 38.0855C30.9248 37.4088 30.8926 36.732 30.8594 36.0348C31.0044 36.0831 31.0044 36.0831 31.1523 36.1324C31.2168 35.8746 31.2812 35.6168 31.3477 35.3512C31.7383 35.2535 31.7383 35.2535 32.0312 35.3512C32.1218 35.6482 32.1745 35.9461 32.2323 36.251C32.2983 36.5325 32.2983 36.5325 32.5169 36.6638C32.7193 36.7433 32.7193 36.7433 32.9102 36.6207C33.0243 36.3081 33.0149 36.0104 33.0078 35.6807C32.997 35.1774 32.997 35.1774 33.1055 34.9605C33.3218 34.927 33.3218 34.927 33.5876 34.9117C33.9792 34.9021 33.9792 34.9021 34.2773 34.6676C34.2461 34.4134 34.2461 34.4134 34.1797 34.1793C34.5932 34.5315 34.8114 34.9748 35.0586 35.4488C35.1927 35.0464 35.0353 34.7999 34.8755 34.4295C34.6267 33.8405 34.4689 33.3881 34.4543 32.7452C34.4145 31.2935 34.184 29.5239 33.3008 28.3199C33.0989 28.1915 33.0989 28.1915 32.9102 28.1246ZM12.0117 30.273C11.922 30.4126 11.8327 30.5524 11.7455 30.6934C11.6065 30.8784 11.4588 30.9905 11.2732 31.1275C10.5821 31.6976 10.5709 32.7604 10.4492 33.5933C10.4526 33.5262 10.456 33.4592 10.4595 33.39C10.4622 33.302 10.4648 33.214 10.4675 33.1234C10.4709 33.0361 10.4743 32.9489 10.4778 32.859C10.4444 32.5761 10.3756 32.4971 10.1562 32.3238C9.44698 32.9937 9.04381 33.6842 8.95958 34.6626C8.95054 35.1138 8.94803 35.4426 9.17969 35.8394C9.37305 35.7911 9.37305 35.7911 9.57031 35.7418C9.6619 35.2486 9.6619 35.2486 9.57031 34.7652C9.62696 34.7698 9.68361 34.7743 9.74197 34.779C10.2949 34.8045 10.599 34.7484 11.0352 34.3746C11.135 34.2461 11.2332 34.1162 11.3281 33.984C11.3377 34.0581 11.3473 34.1323 11.3571 34.2087C11.3717 34.3057 11.3863 34.4028 11.4014 34.5028C11.415 34.5991 11.4286 34.6954 11.4426 34.7946C11.5375 35.1039 11.6409 35.1885 11.9141 35.3512C12.0107 35.3028 12.0107 35.3028 12.1094 35.2535C12.2039 34.9699 12.2189 34.7918 12.2181 34.497C12.2181 34.4032 12.2181 34.3093 12.2181 34.2127C12.2176 34.1116 12.2171 34.0106 12.2166 33.9065C12.2164 33.7511 12.2164 33.7511 12.2161 33.5925C12.2156 33.2612 12.2144 32.9298 12.2131 32.5985C12.2126 32.374 12.2122 32.1495 12.2118 31.925C12.2107 31.3743 12.2091 30.8237 12.207 30.273C12.1426 30.273 12.0781 30.273 12.0117 30.273ZM15.5273 30.273C15.5287 30.3901 15.5287 30.3901 15.53 30.5095C15.5086 31.3038 15.3294 31.7799 14.9086 32.4466C14.3565 33.3565 14.6055 34.3483 14.7461 35.3512C14.875 35.3512 15.0039 35.3512 15.1367 35.3512C15.3085 35.0514 15.362 34.8158 15.3835 34.4723C15.3902 34.3781 15.3968 34.2839 15.4037 34.1869C15.4135 34.0381 15.4135 34.0381 15.4236 33.8863C15.5964 31.6728 15.5964 31.6728 16.3086 31.0543C16.4287 30.8125 16.4287 30.8125 16.4062 30.566C16.2394 30.334 16.2394 30.334 16.0156 30.1754C15.7997 30.1651 15.7997 30.1651 15.5273 30.273ZM24.1211 30.7613C24.1296 31.0259 24.1401 31.2903 24.1516 31.5548C24.1538 31.629 24.156 31.7033 24.1583 31.7798C24.1807 32.2533 24.2504 32.5976 24.5117 33.0074C24.7145 33.1012 24.7145 33.1012 24.9023 33.1051C25.0888 32.3025 25.0933 31.4394 24.8047 30.6637C24.4503 30.6489 24.4503 30.6489 24.1211 30.7613ZM29.6875 30.6637C29.4397 31.0354 29.4131 31.3088 29.4922 31.7379C29.7286 32.3374 29.9889 32.8623 30.4688 33.3004C30.5654 33.2681 30.6621 33.2359 30.7617 33.2027C30.8908 32.9445 30.8688 32.7459 30.8655 32.4581C30.8642 32.3112 30.8642 32.3112 30.8628 32.1613C30.8617 32.086 30.8605 32.0107 30.8594 31.9332C31.1121 32.0858 31.1121 32.0858 31.3648 32.2384C31.5541 32.3449 31.5541 32.3449 31.8359 32.3238C31.7926 31.7174 31.6489 31.2881 31.3477 30.7613C31.1172 30.9917 31.1044 31.1304 31.0547 31.4449C30.5916 31.2336 30.2336 31.0414 29.8828 30.6637C29.8184 30.6637 29.7539 30.6637 29.6875 30.6637ZM27.9297 31.8355C27.7749 32.3773 27.6874 32.834 27.7344 33.398C27.8651 33.6382 27.8651 33.6382 28.0273 33.7887C28.2212 33.7626 28.2212 33.7626 28.418 33.691C28.5745 33.2214 28.5707 32.8016 28.3875 32.3421C28.244 32.0115 28.244 32.0115 27.9297 31.8355ZM12.8906 33.398C12.6611 33.6806 12.6611 33.6806 12.7075 34.0389C12.7557 34.3812 12.7557 34.3812 12.9944 34.515C13.0568 34.5331 13.1193 34.5512 13.1836 34.5699C13.4095 34.231 13.4121 34.0889 13.3789 33.691C13.3145 33.5943 13.25 33.4976 13.1836 33.398C13.0869 33.398 12.9902 33.398 12.8906 33.398Z" fill="#B51B19"/>
</svg>
