<svg width="24" height="24" viewBox="0 0 24 24" fill="none" xmlns="http://www.w3.org/2000/svg">
<path d="M22.9082 5.75519C22.7603 5.55517 22.4848 5.48516 22.2654 5.60519C19.5467 7.1136 15.9402 5.32265 12.829 4.4619V4.34732C12.829 3.88711 13.0361 3.46125 13.3621 3.13008C13.7059 2.7808 13.9109 2.29948 13.8883 1.77095C13.8471 0.808333 13.0129 0.0138684 12.0302 0.000191743C10.9718 -0.014536 10.105 0.821069 10.105 1.85005C10.105 2.35502 10.3148 2.80974 10.6519 3.14307C10.9773 3.46486 11.1711 3.89187 11.1711 4.34497V4.46187C8.05604 5.32351 4.45285 7.11342 1.73447 5.60519C1.52818 5.4896 1.24512 5.54157 1.09172 5.75519C0.918277 5.99517 0.999899 6.3302 1.26006 6.47521C2.17826 6.97524 3.16279 7.17022 4.16769 7.17022C4.27211 7.17022 4.3776 7.16147 4.48254 7.15749L2.04573 13.0684C1.7121 13.0684 1.47482 13.3821 1.56463 13.697C1.92302 14.9536 3.33272 15.8917 5.01427 15.8917C6.70012 15.8917 8.1104 14.9537 8.46888 13.697C8.55873 13.3821 8.32165 13.0684 7.98801 13.0684L5.51358 7.06713C7.45613 6.78638 9.37516 6.0146 11.1711 5.48881V18.1146C11.1711 20.3348 9.33495 22.1345 7.06997 22.1345C6.32226 22.1345 5.71967 22.7248 5.71967 23.4527V24H18.2798V23.4527C18.2799 22.7248 17.6777 22.1345 16.93 22.1345C14.665 22.1345 12.829 20.3348 12.829 18.1146V5.48886C14.6181 6.01282 16.544 6.78631 18.4859 7.06707L16.0119 13.0685C15.6783 13.0685 15.4407 13.3821 15.5305 13.6971C15.8889 14.9537 17.2992 15.8918 18.9851 15.8918C20.6666 15.8918 22.0763 14.9537 22.4347 13.6971C22.5245 13.3821 22.2875 13.0685 21.9538 13.0685L19.517 7.15752C19.6221 7.16156 19.7277 7.17026 19.8323 7.17026C20.8371 7.17026 21.8217 6.97526 22.7348 6.47525C22.9963 6.32759 23.0844 5.99984 22.9082 5.75519ZM6.90435 13.0664H3.12906L5.01668 8.48772L6.90435 13.0664ZM20.8706 13.0664H17.0952L18.9829 8.48772L20.8706 13.0664Z" fill="#07060B"/>
</svg>
