<svg width="50" height="50" viewBox="0 0 50 50" fill="none" xmlns="http://www.w3.org/2000/svg">
<g clip-path="url(#clip0_1_2544)">
<path d="M9.89408 0.0455751C10.2822 0.239628 10.5491 0.451135 10.7714 0.825346C10.8652 1.12552 10.882 1.39997 10.8843 1.71358C10.8852 1.81417 10.8862 1.91476 10.8871 2.0184C10.8877 2.1282 10.8882 2.23798 10.8888 2.35111C10.8898 2.46715 10.8908 2.58319 10.8918 2.70275C10.8943 3.0205 10.8964 3.33826 10.8985 3.65602C10.9006 3.98827 10.9032 4.32051 10.9058 4.65275C10.9107 5.2817 10.915 5.91065 10.9193 6.5396C10.9241 7.25576 10.9294 7.97189 10.9349 8.68803C10.946 10.1609 10.9563 11.6339 10.9663 13.1068C12.232 13.7407 13.4979 14.3745 14.7638 15.008C15.3516 15.3022 15.9393 15.5964 16.5269 15.8908C17.0938 16.1748 17.6607 16.4585 18.2277 16.7421C18.4442 16.8505 18.6608 16.959 18.8774 17.0675C19.18 17.2191 19.4827 17.3706 19.7854 17.5219C19.8756 17.5671 19.9657 17.6124 20.0584 17.6589C20.1821 17.7206 20.1821 17.7206 20.3082 17.7836C20.3799 17.8194 20.4514 17.8553 20.5253 17.8923C20.7271 17.9912 20.7271 17.9912 21.0059 18.0778C21.0438 17.9704 21.0438 17.9704 21.0823 17.8609C21.4855 16.9405 22.3953 16.3152 23.2923 15.9274C24.5659 15.476 25.8635 15.5729 27.0967 16.0976C27.8811 16.5087 28.5289 17.1334 28.9985 17.8829C28.9985 17.9472 28.9985 18.0116 28.9985 18.0778C31.0194 17.1285 33.013 16.1251 35.0089 15.1247C35.4644 14.8964 35.9201 14.6684 36.3756 14.4403C37.2632 13.996 38.1506 13.5516 39.038 13.1068C39.0383 13.0158 39.0383 13.0158 39.0387 12.9229C39.0445 11.4455 39.0519 9.96814 39.0609 8.49075C39.0653 7.77628 39.0692 7.0618 39.0718 6.34732C39.074 5.72442 39.0772 5.10154 39.0818 4.47866C39.084 4.14898 39.0859 3.81932 39.0865 3.48964C39.0875 3.12118 39.0902 2.75275 39.0933 2.3843C39.0932 2.27556 39.0931 2.16682 39.093 2.05479C39.1 1.47306 39.1402 1.0436 39.4279 0.532939C39.9247 0.0725178 40.2509 0.0107508 40.9132 0.0185491C41.4064 0.0680772 41.6516 0.309336 41.9745 0.661796C42.2886 1.15077 42.212 1.74962 42.2091 2.30908C42.2098 2.44043 42.2106 2.57177 42.2116 2.70311C42.2138 3.05878 42.2135 3.41441 42.2126 3.77008C42.2122 4.06752 42.2129 4.36496 42.2136 4.6624C42.2153 5.36444 42.2149 6.06646 42.2132 6.7685C42.2116 7.49149 42.2131 8.21441 42.2163 8.93745C42.219 9.55929 42.2197 10.1811 42.2188 10.803C42.2184 11.174 42.2185 11.5448 42.2205 11.9157C42.2223 12.2648 42.2217 12.6136 42.2193 12.9627C42.2186 13.1508 42.2203 13.339 42.2221 13.5273C42.2156 14.1149 42.1978 14.6057 41.8382 15.0888C41.496 15.4185 41.0874 15.6096 40.6621 15.8123C40.5631 15.8616 40.4642 15.911 40.362 15.9619C40.1544 16.0653 39.9463 16.1677 39.7377 16.2694C39.3499 16.459 38.9652 16.6543 38.5803 16.8497C38.0966 17.095 37.6114 17.3372 37.1262 17.5798C36.9158 17.6852 36.7053 17.7906 36.4948 17.8961C36.0594 18.1141 35.6238 18.3319 35.1883 18.5496C34.6294 18.8292 34.0706 19.1092 33.5119 19.3893C33.0801 19.6059 32.648 19.822 32.2158 20.0381C32.0094 20.1413 31.803 20.2446 31.5968 20.3482C31.3111 20.4914 31.0251 20.6343 30.7391 20.7771C30.654 20.8199 30.569 20.8627 30.4813 20.9068C30.4039 20.9453 30.3265 20.9839 30.2467 21.0235C30.1793 21.0572 30.1121 21.0909 30.0426 21.1256C29.8757 21.197 29.8757 21.197 29.6808 21.197C29.6808 21.6473 29.6808 22.0975 29.6808 22.5615C29.8686 22.4729 30.0565 22.3844 30.25 22.2932C31.632 21.6424 33.0164 20.9979 34.4081 20.3685C35.4679 19.8891 36.5237 19.4021 37.5759 18.9063C38.6282 18.4106 39.684 17.9236 40.7437 17.4443C42.0337 16.8608 43.3175 16.2648 44.5982 15.6614C44.7744 15.5784 44.9507 15.4957 45.1271 15.4129C45.3623 15.3023 45.5972 15.1911 45.8319 15.0791C46.0024 14.9986 46.0024 14.9986 46.1762 14.9164C46.2775 14.8683 46.3787 14.8201 46.483 14.7705C46.7383 14.6663 46.7383 14.6663 47.0307 14.6663C47.0296 14.4995 47.0296 14.4995 47.0287 14.3291C47.0227 13.2808 47.0184 12.2324 47.0154 11.184C47.014 10.645 47.0119 10.106 47.0085 9.56703C47.0054 9.04687 47.0037 8.5267 47.0029 8.00654C47.0024 7.80807 47.0013 7.6096 46.9997 7.41113C46.9976 7.13326 46.9973 6.85538 46.9975 6.57744C46.9959 6.45429 46.9959 6.45429 46.9943 6.32865C46.9966 5.87412 47.0309 5.5819 47.3231 5.21158C47.8108 4.78335 48.0938 4.69052 48.7321 4.69604C49.2004 4.74926 49.5633 5.05055 49.8574 5.40652C49.9481 5.67874 49.9676 5.84469 49.9692 6.12611C49.9701 6.25707 49.9702 6.25707 49.9713 6.39069C49.9717 6.53402 49.9717 6.53402 49.972 6.68024C49.973 6.83148 49.973 6.83148 49.9739 6.98578C49.9759 7.31993 49.977 7.65413 49.978 7.98832C49.9784 8.1025 49.9788 8.21656 49.9792 8.33407C49.9813 8.93757 49.9826 9.5412 49.9836 10.1448C49.9846 10.7686 49.988 11.3923 49.9919 12.0161C49.9944 12.4954 49.9952 12.9748 49.9956 13.4542C49.9961 13.6842 49.9971 13.9141 49.999 14.144C50.0013 14.4658 50.0013 14.7875 50.0006 15.1093C50.0018 15.2042 50.0031 15.2992 50.0044 15.3971C50.0001 15.9494 49.9443 16.2812 49.5648 16.7133C49.3835 16.864 49.3835 16.864 49.199 16.9703C49.131 17.0097 49.0629 17.0491 48.9928 17.0897C48.6705 17.2618 48.344 17.4199 48.011 17.5702C47.9381 17.6038 47.8653 17.6373 47.7903 17.6717C47.5514 17.7812 47.3124 17.8899 47.0733 17.9986C46.9035 18.0764 46.7339 18.1541 46.5642 18.2318C46.2122 18.3933 45.8599 18.5544 45.5076 18.7153C44.7766 19.0497 44.0469 19.3869 43.3171 19.7241C42.9246 19.9056 42.5318 20.0868 42.1392 20.2679C41.5685 20.5312 40.9979 20.7948 40.4274 21.0584C40.0915 21.2137 39.7558 21.3688 39.4199 21.5238C39.2632 21.5963 39.1064 21.6687 38.9497 21.7412C37.7144 22.3123 36.4761 22.8768 35.2367 23.4387C35.3294 23.4391 35.422 23.4394 35.5176 23.4398C36.3925 23.4435 37.2672 23.4491 38.142 23.4567C38.5917 23.4605 39.0414 23.4637 39.4912 23.4652C39.9254 23.4667 40.3595 23.47 40.7937 23.4747C40.9592 23.4761 41.1247 23.477 41.2902 23.477C41.5223 23.4772 41.7544 23.4798 41.9865 23.483C42.0547 23.4825 42.1228 23.4821 42.1929 23.4816C42.77 23.4937 43.1092 23.7177 43.5167 24.1081C43.9424 24.5999 44.3487 25.1044 44.748 25.6176C45.0968 26.0659 45.4529 26.5078 45.8122 26.9477C46.2516 27.486 46.6845 28.0287 47.1119 28.5763C47.455 29.0148 47.8054 29.4469 48.1577 29.878C48.5568 30.3674 48.9526 30.8591 49.3395 31.3584C49.4163 31.4574 49.493 31.5564 49.5721 31.6584C49.984 32.2299 50.0339 32.6817 49.9548 33.3809C49.7483 33.8541 49.4628 34.0888 49.001 34.2943C48.4977 34.4372 48.0771 34.3521 47.6266 34.1021C47.262 33.8212 47.0018 33.5103 46.7199 33.1493C46.6649 33.0803 46.6099 33.0111 46.5531 32.9399C46.3866 32.7303 46.2211 32.5197 46.056 32.3087C45.9639 32.1916 45.8719 32.0746 45.7799 31.9577C45.6496 31.7918 45.5195 31.626 45.3897 31.4599C45.0485 31.0237 44.7004 30.5934 44.3502 30.1643C44.0014 29.7368 43.6537 29.3085 43.3139 28.8737C43.2267 28.7627 43.1389 28.652 43.0502 28.5422C42.8163 28.2501 42.6012 27.9571 42.4039 27.6391C41.8837 26.8371 41.8837 26.8371 41.0544 26.4298C40.5589 26.371 40.0669 26.3929 39.5696 26.4151C39.3876 26.4178 39.2057 26.4199 39.0238 26.4214C38.5486 26.4269 38.0741 26.4413 37.599 26.4574C37.1129 26.4726 36.6268 26.4791 36.1406 26.4865C35.1892 26.5021 34.2383 26.527 33.2872 26.5578C33.3539 26.6016 33.3539 26.6016 33.4219 26.6462C35.7461 28.1711 38.0632 29.7058 40.3656 31.2636C40.4892 31.3472 40.4892 31.3472 40.6152 31.4324C40.775 31.5406 40.9348 31.649 41.0944 31.7573C41.4601 32.0053 41.8268 32.2511 42.1976 32.4913C42.2647 32.5351 42.3318 32.5788 42.401 32.6239C42.5246 32.7042 42.6485 32.7838 42.7729 32.8627C43.2242 33.1566 43.5442 33.4485 43.7166 33.9657C43.7263 34.1659 43.7302 34.3664 43.731 34.5669C43.7321 34.7556 43.7321 34.7556 43.7331 34.9482C43.7334 35.088 43.7336 35.2277 43.7338 35.3675C43.7344 35.5146 43.7352 35.6615 43.7359 35.8085C43.7379 36.2914 43.7389 36.7743 43.7398 37.2573C43.7403 37.4235 43.7406 37.5899 43.7411 37.7561C43.7429 38.5372 43.7443 39.3182 43.7452 40.0994C43.7461 41.0009 43.7486 41.9025 43.7525 42.8041C43.7555 43.501 43.7569 44.1979 43.7573 44.8949C43.7575 45.3111 43.7584 45.7274 43.7609 46.1436C43.7631 46.5352 43.7635 46.9268 43.7625 47.3185C43.7624 47.4619 43.763 47.6055 43.7644 47.7491C43.7661 47.9454 43.7652 48.1417 43.7642 48.3381C43.7644 48.448 43.7647 48.5577 43.7649 48.6708C43.6875 49.1604 43.4338 49.462 43.077 49.7927C42.6014 50.0175 42.1869 50.025 41.6697 49.9511C41.2046 49.7481 40.9941 49.4841 40.776 49.0288C40.6076 48.5143 40.6448 47.9761 40.6507 47.4402C40.6508 47.3057 40.6508 47.1711 40.6506 47.0365C40.6505 46.6733 40.6527 46.31 40.6555 45.9468C40.658 45.5664 40.6581 45.1861 40.6586 44.8057C40.6598 44.0863 40.663 43.3669 40.6669 42.6476C40.6713 41.8282 40.6735 41.0089 40.6754 40.1894C40.6794 38.5047 40.6863 36.82 40.695 35.1354C40.6185 35.1055 40.542 35.0757 40.4632 35.0449C40.2291 34.9493 40.0435 34.8456 39.8356 34.7037C39.7655 34.6561 39.6953 34.6085 39.623 34.5596C39.5097 34.4818 39.5097 34.4818 39.3941 34.4024C39.3132 34.3476 39.2324 34.2927 39.1492 34.2362C38.974 34.1173 38.799 33.9981 38.6241 33.8788C38.1555 33.5591 37.6856 33.2411 37.2158 32.9233C37.1183 32.8572 37.0208 32.7912 36.9203 32.7232C35.8302 31.9863 34.7331 31.2601 33.6345 30.5359C33.5409 30.4741 33.4474 30.4123 33.351 30.3487C33.0864 30.174 32.8215 29.9994 32.5566 29.8251C32.4388 29.7473 32.4388 29.7473 32.3187 29.668C32.2462 29.6203 32.1738 29.5728 32.0991 29.5238C32.0364 29.4826 31.9738 29.4413 31.9091 29.3988C31.7235 29.2845 31.5342 29.1867 31.3378 29.0921C31.3894 29.1429 31.4411 29.1936 31.4943 29.246C31.9828 29.7268 32.4705 30.2084 32.9569 30.6912C33.2071 30.9393 33.4576 31.187 33.7089 31.4338C33.9519 31.6726 34.1938 31.9122 34.4351 32.1525C34.5714 32.2876 34.7086 32.4219 34.8458 32.5561C35.392 33.1021 35.8391 33.5751 35.9678 34.3623C35.9677 34.4561 35.9675 34.5498 35.9673 34.6465C35.9677 34.8059 35.9677 34.8059 35.9682 34.9686C35.966 35.0799 35.9638 35.1912 35.9616 35.306C35.9602 35.422 35.9589 35.5383 35.9575 35.6579C35.892 38.8372 34.827 41.6709 32.5447 43.9165C30.2941 46.0527 27.4253 46.9331 24.3682 46.8659C21.3177 46.7407 18.7041 45.2714 16.6486 43.0739C16.3375 42.7273 16.0838 42.3541 15.8398 41.9583C15.7759 41.8575 15.712 41.7567 15.646 41.6526C14.4678 39.7362 14.0733 37.5977 14.0549 35.373C14.0521 35.258 14.0493 35.1429 14.0464 35.0244C14.0455 34.9121 14.0447 34.7998 14.0439 34.6842C14.0417 34.5333 14.0417 34.5333 14.0396 34.3793C14.1737 33.4532 14.8069 32.8997 15.4515 32.2692C15.5472 32.1741 15.6428 32.0791 15.7383 31.984C15.9881 31.7357 16.2389 31.4886 16.4901 31.2418C16.7469 30.9889 17.0027 30.735 17.2585 30.4811C17.7593 29.9845 18.2613 29.4891 18.764 28.9947C18.1014 29.4145 17.4413 29.8381 16.786 30.2695C16.6612 30.3515 16.6612 30.3515 16.534 30.4352C16.2639 30.6128 15.994 30.7907 15.7241 30.9684C15.6315 31.0294 15.5389 31.0905 15.4434 31.1532C14.3785 31.8544 13.3166 32.5594 12.2612 33.2746C12.1708 33.3359 12.0805 33.3971 11.9874 33.4602C11.5545 33.7537 11.122 34.0479 10.6902 34.3429C10.5352 34.4483 10.3803 34.5536 10.2254 34.659C10.1547 34.7077 10.0841 34.7563 10.0112 34.8063C9.52631 35.1354 9.52631 35.1354 9.30927 35.1354C9.30963 35.205 9.30998 35.2745 9.31034 35.3463C9.31903 37.0417 9.32546 38.7372 9.32951 40.4326C9.33153 41.2526 9.33427 42.0725 9.33868 42.8924C9.34261 43.6072 9.34511 44.322 9.34594 45.0368C9.34654 45.4152 9.34773 45.7934 9.35058 46.1718C9.3532 46.5283 9.35404 46.8847 9.35344 47.2413C9.35356 47.4336 9.3557 47.626 9.35785 47.8184C9.35463 48.5118 9.29891 48.9744 8.91947 49.5612C8.56504 49.9069 8.27942 49.9789 7.79854 49.9998C7.31886 49.9802 7.03821 49.8955 6.67759 49.5612C6.35147 49.1412 6.2389 48.8713 6.23819 48.3408C6.2371 48.2146 6.23599 48.0885 6.23486 47.9586C6.23562 47.82 6.23642 47.6815 6.23725 47.5429C6.23673 47.396 6.23602 47.2492 6.23518 47.1022C6.2334 46.7044 6.23409 46.3063 6.23532 45.9084C6.23631 45.4914 6.23539 45.0744 6.23479 44.6574C6.23408 43.9571 6.23501 43.2568 6.23687 42.5565C6.23899 41.7476 6.2383 40.9388 6.23615 40.1301C6.23438 39.4349 6.23414 38.7397 6.23515 38.0444C6.23576 37.6296 6.23585 37.2147 6.23456 36.7999C6.23343 36.4096 6.23421 36.0195 6.23646 35.6293C6.23698 35.4865 6.23683 35.3436 6.23598 35.2006C6.22863 33.8601 6.22863 33.8601 6.67759 33.2834C6.88166 33.0914 6.88166 33.0914 7.11621 32.9312C7.21135 32.8656 7.30647 32.8002 7.40446 32.7326C7.51947 32.6561 7.6346 32.5798 7.74973 32.5037C7.85009 32.4367 7.85009 32.4367 7.95248 32.3683C8.44146 32.0423 8.93269 31.7197 9.42464 31.3979C11.2652 30.1935 13.0933 28.9716 14.914 27.7377C14.9989 27.6803 15.0839 27.6228 15.1713 27.5635C15.3293 27.4566 15.4872 27.3494 15.6451 27.2422C15.7152 27.1947 15.7854 27.1472 15.8577 27.0981C15.9182 27.057 15.9787 27.0161 16.0409 26.9737C16.2626 26.8288 16.4892 26.6931 16.7171 26.5578C15.6733 26.5192 14.6296 26.49 13.5852 26.472C13.1001 26.4634 12.6154 26.4517 12.1306 26.4329C9.95349 26.2261 9.95349 26.2261 7.98606 26.905C7.67794 27.2347 7.46589 27.5866 7.27659 27.9945C7.08055 28.3815 6.80163 28.7062 6.53137 29.0434C6.4267 29.1808 6.32233 29.3185 6.2184 29.4565C5.83536 29.9574 5.4333 30.442 5.03041 30.9268C4.66912 31.3622 4.31478 31.8018 3.96667 32.2477C3.92326 32.303 3.87986 32.3582 3.83514 32.4151C3.63019 32.6761 3.42738 32.938 3.22726 33.2027C2.44381 34.2134 2.44381 34.2134 1.80403 34.3556C1.21865 34.3916 0.792413 34.2543 0.341956 33.8682C-0.0028242 33.489 -0.0129561 33.0755 0.00537882 32.5825C0.0833976 32.0988 0.328312 31.804 0.634375 31.4315C0.728871 31.3137 0.823284 31.196 0.91765 31.0781C1.13481 30.8084 1.3537 30.5402 1.57367 30.2728C1.86686 29.9157 2.15356 29.554 2.43758 29.1896C2.87439 28.63 3.32064 28.0788 3.76944 27.5287C4.10974 27.1111 4.44525 26.6901 4.7769 26.2654C5.17622 25.7556 5.57769 25.2475 5.9831 24.7424C6.06141 24.6437 6.06141 24.6437 6.1413 24.543C6.4674 24.1387 6.78956 23.7727 7.26242 23.5362C7.5003 23.5243 7.73556 23.5181 7.97356 23.5162C8.04678 23.5153 8.12 23.5143 8.19536 23.5133C8.438 23.5103 8.68064 23.5078 8.92328 23.5054C9.09127 23.5034 9.25927 23.5014 9.42726 23.4992C9.8698 23.4939 10.3123 23.4891 10.755 23.4843C11.2065 23.4794 11.6578 23.4741 12.1093 23.4686C12.9954 23.4581 13.8816 23.4483 14.7677 23.4387C12.3287 22.3077 9.88884 21.1787 7.44756 20.0526C7.04026 19.8647 6.63294 19.6769 6.22565 19.4889C6.05951 19.4121 5.89335 19.3355 5.7272 19.2588C5.3221 19.0719 4.91709 18.8848 4.51228 18.6972C3.86681 18.3983 3.22141 18.0998 2.57119 17.8113C2.38962 17.7308 2.20832 17.6498 2.02707 17.5686C1.81351 17.4731 1.59942 17.3789 1.3847 17.2862C0.763398 17.0071 0.36216 16.7536 0.0495373 16.1284C0.0399769 15.99 0.0363815 15.851 0.0358576 15.7123C0.0352981 15.6249 0.0347385 15.5377 0.034167 15.4477C0.0340598 15.3516 0.0339528 15.2556 0.0338337 15.1566C0.0333575 15.0556 0.0328697 14.9547 0.0323696 14.8506C0.0309409 14.5154 0.0302859 14.1803 0.0297383 13.845C0.0291787 13.6126 0.0286191 13.3802 0.0280595 13.1479C0.0270356 12.6602 0.0264638 12.1723 0.0261304 11.6845C0.0255947 11.0591 0.0232495 10.4338 0.0204755 9.80836C0.0186658 9.3282 0.0181539 8.84792 0.0179991 8.36776C0.0177133 8.13715 0.0169278 7.90653 0.0156419 7.67603C0.013987 7.3535 0.0141656 7.03106 0.0147966 6.70857C0.0139037 6.61309 0.0129986 6.51763 0.0120818 6.41928C0.0150464 5.93739 0.0229757 5.59977 0.341956 5.21158C0.829654 4.78335 1.11268 4.69052 1.7511 4.69604C2.21932 4.74926 2.58215 5.05055 2.8762 5.40652C3.00411 5.79024 2.98644 6.15541 2.98475 6.55531C2.98476 6.64281 2.98477 6.73032 2.98478 6.82048C2.98471 7.11003 2.98396 7.39958 2.9832 7.68913C2.98301 7.88974 2.98288 8.09036 2.98278 8.29097C2.9824 8.81935 2.98145 9.34761 2.98037 9.87599C2.97938 10.415 2.97893 10.9539 2.97844 11.493C2.97739 12.5507 2.97572 13.6086 2.97368 14.6663C3.04773 14.6797 3.12178 14.6931 3.19808 14.7069C3.53367 14.7795 3.81082 14.9146 4.12049 15.0631C4.18457 15.0936 4.24866 15.1241 4.31468 15.1555C4.45322 15.2213 4.59166 15.2875 4.73 15.354C5.10372 15.5333 5.47831 15.7107 5.85288 15.8882C5.92985 15.9246 6.00681 15.9612 6.08612 15.9988C6.85203 16.3613 7.62317 16.7118 8.3955 17.0604C9.45131 17.5376 10.5031 18.0225 11.5511 18.5165C12.6694 19.0433 13.7923 19.5595 14.9186 20.0688C16.0919 20.5997 17.2591 21.1426 18.4238 21.6919C19.0541 21.989 19.6853 22.282 20.3236 22.5615C20.3236 22.1112 20.3236 21.6608 20.3236 21.197C20.034 21.1004 20.034 21.1004 19.7388 21.002C19.5742 20.928 19.4112 20.8508 19.2498 20.7703C19.1562 20.7238 19.0626 20.6773 18.9662 20.6294C18.8651 20.5788 18.7642 20.5282 18.6601 20.476C18.5523 20.4224 18.4447 20.3688 18.3338 20.3136C18.0396 20.1671 17.7456 20.0202 17.4517 19.8732C17.2059 19.7502 16.9599 19.6276 16.7141 19.5048C16.1339 19.2153 15.5539 18.9252 14.9739 18.635C14.3765 18.3359 13.7787 18.0377 13.1807 17.7397C12.6665 17.4834 12.1524 17.2266 11.6385 16.9696C11.3319 16.8162 11.0254 16.663 10.7186 16.5103C10.3764 16.3399 10.0347 16.1687 9.69311 15.9972C9.5918 15.947 9.4906 15.8968 9.3863 15.8451C8.09178 15.193 8.09178 15.193 7.84724 14.4714C7.80473 14.0406 7.80628 13.612 7.80783 13.1795C7.80735 13.0478 7.80664 12.9161 7.8058 12.7846C7.80414 12.4281 7.80414 12.0717 7.80473 11.7152C7.80509 11.4172 7.80449 11.1193 7.8039 10.8213C7.80247 10.1184 7.80259 9.41547 7.80378 8.71243C7.80485 7.98796 7.80354 7.26338 7.80092 6.53885C7.79878 5.916 7.79807 5.29317 7.79866 4.67032C7.79902 4.29865 7.79878 3.92701 7.79711 3.55534C7.79557 3.20587 7.79592 2.85644 7.79783 2.50696C7.7983 2.31804 7.79687 2.1291 7.79545 1.94018C7.8008 1.31404 7.80521 0.906163 8.23715 0.435466C8.73493 -0.0259076 9.24629 -0.0508263 9.89408 0.0455751Z" fill="#FE5B78"/>
<path d="M41.1824 0.047104C41.6334 0.260313 41.968 0.554875 42.1572 1.02182C42.2159 1.45117 42.2113 1.87781 42.2091 2.31061C42.2098 2.44196 42.2106 2.5733 42.2117 2.70464C42.2138 3.06031 42.2136 3.41594 42.2128 3.77161C42.2122 4.06905 42.2129 4.36648 42.2136 4.66393C42.2153 5.36597 42.2149 6.06799 42.2134 6.77003C42.2117 7.49306 42.2132 8.21598 42.2163 8.93902C42.219 9.56086 42.2197 10.1827 42.2188 10.8045C42.2184 11.1754 42.2186 11.5464 42.2206 11.9173C42.2224 12.2662 42.2218 12.6152 42.2194 12.9643C42.2187 13.1524 42.2204 13.3406 42.222 13.5288C42.2157 14.1165 42.1979 14.6073 41.8382 15.0904C41.4961 15.4201 41.0875 15.6112 40.6623 15.8138C40.5632 15.8632 40.4642 15.9126 40.3621 15.9634C40.1544 16.0668 39.9463 16.1693 39.7377 16.271C39.3499 16.4605 38.9652 16.6558 38.5804 16.8513C38.0967 17.0965 37.6114 17.3387 37.1264 17.5813C36.9159 17.6867 36.7054 17.7922 36.4949 17.8975C36.0595 18.1155 35.624 18.3334 35.1883 18.5512C34.6294 18.8307 34.0706 19.1107 33.512 19.3909C33.08 19.6073 32.648 19.8235 32.2158 20.0395C32.0095 20.1429 31.8032 20.2462 31.5968 20.3497C31.3112 20.493 31.0252 20.6359 30.7391 20.7786C30.6115 20.8428 30.6115 20.8428 30.4813 20.9084C30.4039 20.9469 30.3265 20.9853 30.2467 21.025C30.1794 21.0587 30.1121 21.0925 30.0426 21.1271C29.8757 21.1984 29.8757 21.1984 29.6808 21.1984C29.6808 21.6488 29.6808 22.0991 29.6808 22.5631C29.8687 22.4745 30.0565 22.3859 30.25 22.2946C31.6319 21.6438 33.0164 20.9994 34.4081 20.3699C35.468 19.8906 36.5238 19.4036 37.5759 18.9079C38.6282 18.4121 39.684 17.9252 40.7438 17.4458C42.0338 16.8623 43.3175 16.2663 44.5983 15.6629C44.7745 15.58 44.9509 15.4972 45.1272 15.4145C45.3624 15.3039 45.5972 15.1925 45.8319 15.0806C46.0024 15.0001 46.0024 15.0001 46.1763 14.918C46.2775 14.8698 46.3787 14.8217 46.483 14.772C46.7383 14.6679 46.7383 14.6679 47.0307 14.6679C47.0297 14.5009 47.0297 14.5009 47.0287 14.3307C47.0228 13.2823 47.0184 12.234 47.0156 11.1855C47.014 10.6466 47.012 10.1075 47.0087 9.56848C47.0054 9.04843 47.0037 8.52827 47.0029 8.0081C47.0023 7.80963 47.0014 7.61116 46.9997 7.41269C46.9976 7.13479 46.9973 6.85691 46.9975 6.57897C46.9964 6.49688 46.9953 6.41477 46.9943 6.33018C46.9968 5.87565 47.0309 5.58343 47.3231 5.21311C47.8108 4.78488 48.0939 4.69205 48.7323 4.69757C49.2005 4.75079 49.5633 5.05208 49.8574 5.40805C49.9481 5.68027 49.9676 5.84622 49.9692 6.12764C49.9702 6.2586 49.9702 6.2586 49.9713 6.39222C49.9715 6.48777 49.9718 6.58332 49.972 6.68177C49.9727 6.7826 49.9733 6.88343 49.974 6.98731C49.9759 7.32149 49.977 7.65569 49.9781 7.98989C49.9784 8.10395 49.9788 8.218 49.9793 8.33551C49.9813 8.93914 49.9827 9.54276 49.9836 10.1464C49.9846 10.7701 49.988 11.3938 49.9919 12.0175C49.9944 12.497 49.9952 12.9763 49.9956 13.4557C49.9961 13.6856 49.9973 13.9156 49.999 14.1455C50.0014 14.4674 50.0013 14.7891 50.0006 15.1108C50.0025 15.2533 50.0025 15.2533 50.0044 15.3985C50.0001 15.9509 49.9443 16.2828 49.565 16.7148C49.3835 16.8654 49.3835 16.8654 49.1991 16.9719C49.131 17.0113 49.0629 17.0507 48.9928 17.0913C48.6705 17.2633 48.344 17.4214 48.0111 17.5718C47.9383 17.6053 47.8654 17.6387 47.7903 17.6732C47.5514 17.7827 47.3124 17.8915 47.0733 18.0002C46.9037 18.0778 46.7339 18.1555 46.5642 18.2334C46.2122 18.3947 45.86 18.5559 45.5077 18.7169C44.7766 19.0511 44.0469 19.3884 43.3171 19.7257C42.9246 19.9071 42.532 20.0882 42.1392 20.2694C41.5685 20.5328 40.9979 20.7963 40.4274 21.06C40.0916 21.2151 39.7558 21.3702 39.4199 21.5254C39.2632 21.5978 39.1064 21.6703 38.9497 21.7426C37.7145 22.3139 36.4762 22.8782 35.2367 23.4403C35.3294 23.4407 35.4222 23.441 35.5176 23.4414C36.3925 23.4449 37.2673 23.4507 38.142 23.4583C38.5918 23.4621 39.0415 23.4652 39.4912 23.4667C39.9254 23.4682 40.3596 23.4716 40.7938 23.4763C40.9592 23.4777 41.1247 23.4784 41.2902 23.4785C41.5223 23.4788 41.7544 23.4814 41.9865 23.4846C42.0546 23.4841 42.1228 23.4836 42.1929 23.483C42.77 23.4953 43.1091 23.7192 43.5168 24.1096C43.9424 24.6014 44.3487 25.1059 44.748 25.6191C45.0969 26.0674 45.4529 26.5094 45.8122 26.9493C46.2516 27.4876 46.6845 28.0302 47.112 28.5779C47.455 29.0164 47.8055 29.4484 48.1577 29.8796C48.5569 30.369 48.9526 30.8607 49.3396 31.3599C49.4163 31.4589 49.493 31.5579 49.5722 31.6599C49.984 32.2313 50.0339 32.6833 49.9549 33.3824C49.7484 33.8555 49.4628 34.0903 49.0011 34.2958C48.4977 34.4388 48.0771 34.3535 47.6266 34.1035C47.262 33.8228 47.0018 33.5119 46.7199 33.1509C46.6649 33.0819 46.6099 33.0127 46.5533 32.9415C46.3866 32.7318 46.2211 32.5211 46.056 32.3102C45.9639 32.1932 45.872 32.0762 45.78 31.9591C45.6497 31.7934 45.5196 31.6276 45.3898 31.4614C45.0485 31.0253 44.7004 30.595 44.3502 30.1659C44.0014 29.7382 43.6537 29.3101 43.3139 28.8752C43.2267 28.7642 43.1389 28.6536 43.0502 28.5436C42.8163 28.2517 42.6012 27.9586 42.4038 27.6407C41.8838 26.8387 41.8838 26.8387 41.0546 26.4314C40.5589 26.3725 40.0669 26.3945 39.5696 26.4166C39.3876 26.4194 39.2058 26.4214 39.0239 26.4229C38.5486 26.4284 38.0741 26.4427 37.599 26.459C37.113 26.474 36.6268 26.4807 36.1406 26.4881C35.1892 26.5037 34.2382 26.5285 33.2872 26.5594C33.3539 26.6031 33.3539 26.6031 33.4219 26.6477C35.7462 28.1725 38.0632 29.7073 40.3657 31.2652C40.4892 31.3487 40.4892 31.3487 40.6152 31.434C40.775 31.5422 40.9348 31.6505 41.0944 31.7589C41.4601 32.0069 41.8269 32.2526 42.1976 32.4929C42.2648 32.5366 42.3319 32.5804 42.4011 32.6255C42.5246 32.7058 42.6485 32.7854 42.7729 32.8642C43.2242 33.1582 43.5443 33.4501 43.7167 33.9673C43.7265 34.1674 43.7303 34.3679 43.731 34.5683C43.7321 34.7571 43.7321 34.7571 43.7331 34.9498C43.7334 35.0895 43.7336 35.2293 43.734 35.3691C43.7346 35.5161 43.7352 35.663 43.7359 35.8101C43.7379 36.293 43.739 36.7759 43.7399 37.2588C43.7403 37.4251 43.7406 37.5913 43.7411 37.7576C43.7429 38.5387 43.7443 39.3198 43.7452 40.1008C43.7461 41.0024 43.7486 41.9041 43.7527 42.8056C43.7555 43.5025 43.7569 44.1995 43.7573 44.8964C43.7575 45.3126 43.7584 45.7288 43.7609 46.145C43.7631 46.5367 43.7635 46.9283 43.7625 47.3199C43.7625 47.4635 43.7631 47.6071 43.7644 47.7507C43.7662 47.947 43.7653 48.1433 43.7642 48.3396C43.7644 48.4494 43.7647 48.5592 43.7649 48.6723C43.6877 49.162 43.4338 49.4634 43.077 49.7942C42.6015 50.0191 42.1869 50.0266 41.6697 49.9526C41.2046 49.7496 40.9941 49.4857 40.7761 49.0303C40.6076 48.5158 40.6448 47.9777 40.6508 47.4417C40.651 47.3072 40.6508 47.1726 40.6506 47.0381C40.6505 46.6748 40.6527 46.3116 40.6555 45.9484C40.658 45.568 40.6582 45.1876 40.6587 44.8072C40.6599 44.0878 40.6631 43.3685 40.667 42.6491C40.6713 41.8297 40.6735 41.0103 40.6755 40.1909C40.6795 38.5063 40.6863 36.8216 40.695 35.1369C40.6186 35.107 40.542 35.0772 40.4632 35.0464C40.2293 34.9507 40.0435 34.8471 39.8356 34.7052C39.7655 34.6577 39.6953 34.6101 39.623 34.5612C39.5474 34.5092 39.4719 34.4573 39.3941 34.404C39.3132 34.3491 39.2325 34.2942 39.1493 34.2377C38.9741 34.1187 38.7991 33.9997 38.6242 33.8804C38.1555 33.5607 37.6857 33.2427 37.2158 32.9247C37.0696 32.8258 37.0696 32.8258 36.9204 32.7247C35.8303 31.9877 34.7331 31.2617 33.6345 30.5375C33.5409 30.4757 33.4475 30.4139 33.351 30.3502C33.0864 30.1754 32.8216 30.001 32.5566 29.8266C32.4388 29.7488 32.4388 29.7488 32.3187 29.6694C32.2463 29.6219 32.1738 29.5744 32.0991 29.5254C32.0365 29.4842 31.9738 29.4428 31.9092 29.4003C31.7235 29.286 31.5342 29.1882 31.3379 29.0937C31.3894 29.1445 31.4411 29.1952 31.4943 29.2475C31.9829 29.7282 32.4705 30.2099 32.9571 30.6927C33.2072 30.9408 33.4577 31.1885 33.7089 31.4354C33.9519 31.6741 34.1938 31.9137 34.4352 32.154C34.5714 32.2892 34.7086 32.4233 34.8459 32.5575C35.392 33.1035 35.8392 33.5767 35.9679 34.3639C35.9677 34.4577 35.9676 34.5514 35.9673 34.6481C35.9676 34.7543 35.9679 34.8606 35.9682 34.97C35.966 35.0814 35.9639 35.1928 35.9616 35.3075C35.9603 35.4236 35.9589 35.5397 35.9574 35.6593C35.892 38.8388 34.827 41.6724 32.5448 43.9181C30.4671 45.8901 27.8379 46.8335 25.0022 46.8335C25.0022 36.5405 25.0022 26.2474 25.0022 15.6426C26.4691 15.7759 27.5362 16.1291 28.5279 17.2456C28.9985 17.831 28.9985 17.831 28.9985 18.0793C31.0194 17.1301 33.0131 16.1266 35.009 15.1262C35.4644 14.898 35.9201 14.6699 36.3757 14.4419C37.2633 13.9976 38.1507 13.553 39.0381 13.1083C39.0384 13.0174 39.0384 13.0174 39.0388 12.9245C39.0445 11.4471 39.0519 9.96971 39.0611 8.49231C39.0655 7.77785 39.0693 7.06333 39.0718 6.34885C39.074 5.72595 39.0774 5.10307 39.0818 4.48019C39.0842 4.15051 39.0859 3.82085 39.0865 3.49117C39.0875 3.12271 39.0902 2.75428 39.0933 2.38583C39.0932 2.27709 39.0931 2.16835 39.093 2.05632C39.1 1.47459 39.1402 1.04513 39.4279 0.534469C39.9872 0.0161017 40.4371 -0.0277479 41.1824 0.047104Z" fill="#FD2E55"/>
<path d="M1.99897 4.72435C2.45289 4.96369 2.8096 5.20684 2.97368 5.69906C2.98261 5.98532 2.98595 6.26921 2.98475 6.55544C2.98476 6.64294 2.98477 6.73045 2.98478 6.82061C2.98471 7.11015 2.98396 7.39969 2.9832 7.68924C2.98301 7.88985 2.98288 8.09046 2.98278 8.2912C2.9824 8.81946 2.98145 9.34772 2.98037 9.8761C2.97938 10.4151 2.97893 10.9541 2.97844 11.4931C2.97739 12.5509 2.97572 13.6087 2.97368 14.6664C3.04773 14.6799 3.12178 14.6932 3.19808 14.707C3.53367 14.7796 3.81082 14.9148 4.12049 15.0632C4.21661 15.1089 4.21661 15.1089 4.31468 15.1556C4.45322 15.2216 4.59166 15.2876 4.73 15.3541C5.10372 15.5334 5.47831 15.7108 5.85288 15.8883C5.92985 15.9248 6.00681 15.9613 6.08612 15.9989C6.85203 16.3614 7.62317 16.7119 8.3955 17.0607C9.45131 17.5377 10.5031 18.0228 11.5511 18.5166C12.6034 19.0124 13.6592 19.4992 14.7189 19.9787C15.825 20.4792 16.9277 20.9864 18.0269 21.5016C18.0919 21.5321 18.157 21.5625 18.2239 21.5939C18.41 21.6809 18.5959 21.7683 18.7819 21.8557C18.887 21.9051 18.9921 21.9545 19.1004 22.0054C19.5431 22.2184 19.9821 22.4384 20.421 22.6591C20.4458 23.3353 20.4629 24.0113 20.4745 24.6878C20.4794 24.9175 20.4861 25.1473 20.4945 25.377C20.572 27.5319 20.572 27.5319 20.0513 28.0951C19.8515 28.2451 19.6572 28.3757 19.4464 28.5074C19.3077 28.6036 19.1694 28.7004 19.0316 28.7975C18.6197 29.0834 18.2009 29.3569 17.7791 29.6277C17.3015 29.9344 16.8264 30.2452 16.3508 30.5551C16.2527 30.6189 16.1546 30.6826 16.0537 30.7483C14.9893 31.4411 13.9368 32.1512 12.8853 32.8632C12.7128 32.9799 12.5403 33.0967 12.3676 33.2134C12.2442 33.297 12.2442 33.297 12.1181 33.3822C11.8077 33.5924 11.4971 33.8021 11.1865 34.0119C10.967 34.1603 10.7481 34.3091 10.529 34.458C10.3952 34.5484 10.2614 34.6389 10.1276 34.7292C10.0668 34.7708 10.006 34.8122 9.94349 34.8551C9.52643 35.1355 9.52643 35.1355 9.30927 35.1355C9.30963 35.2051 9.30998 35.2748 9.31034 35.3464C9.31903 37.0418 9.32546 38.7373 9.32951 40.4327C9.33153 41.2527 9.33427 42.0726 9.33868 42.8925C9.34261 43.6073 9.34511 44.3221 9.34594 45.0369C9.34654 45.4153 9.34773 45.7935 9.35058 46.1719C9.3532 46.5284 9.35404 46.8848 9.35344 47.2414C9.35356 47.4338 9.3557 47.6262 9.35785 47.8185C9.35463 48.5119 9.29891 48.9745 8.91947 49.5613C8.56504 49.907 8.27942 49.979 7.79854 50C7.31886 49.9805 7.03821 49.8956 6.67759 49.5613C6.35147 49.1413 6.2389 48.8714 6.23819 48.3409C6.2371 48.2147 6.23599 48.0886 6.23486 47.9587C6.23562 47.8202 6.23642 47.6816 6.23725 47.543C6.23673 47.3961 6.23602 47.2493 6.23518 47.1024C6.2334 46.7045 6.23409 46.3066 6.23532 45.9086C6.23632 45.4916 6.23539 45.0746 6.23479 44.6576C6.23408 43.9572 6.23501 43.2569 6.23687 42.5566C6.23899 41.7478 6.23831 40.939 6.23615 40.1302C6.23438 39.435 6.23414 38.7398 6.23515 38.0447C6.23576 37.6297 6.23585 37.2149 6.23456 36.8C6.23343 36.4099 6.23421 36.0197 6.23646 35.6294C6.23698 35.4866 6.23683 35.3437 6.23598 35.2007C6.22863 33.8602 6.22863 33.8602 6.67759 33.2835C6.88166 33.0915 6.88166 33.0915 7.11621 32.9313C7.21135 32.8659 7.30647 32.8003 7.40446 32.7328C7.51947 32.6562 7.6346 32.5799 7.74973 32.5038C7.85009 32.4368 7.85009 32.4368 7.95248 32.3686C8.44146 32.0425 8.93269 31.7198 9.42464 31.398C11.2652 30.1937 13.0933 28.9718 14.914 27.7379C14.9991 27.6804 15.0839 27.6229 15.1713 27.5636C15.3293 27.4567 15.4872 27.3495 15.6451 27.2423C15.7152 27.1948 15.7854 27.1473 15.8577 27.0982C15.9182 27.0571 15.9787 27.0162 16.0409 26.9739C16.2626 26.8289 16.4892 26.6932 16.7171 26.558C15.6733 26.5195 14.6296 26.4901 13.5852 26.4722C13.1001 26.4635 12.6154 26.4518 12.1306 26.433C9.95349 26.2263 9.95349 26.2263 7.98606 26.9051C7.67794 27.2348 7.46589 27.5867 7.27659 27.9946C7.08055 28.3817 6.80163 28.7063 6.53137 29.0435C6.4267 29.181 6.32233 29.3186 6.2184 29.4566C5.83537 29.9575 5.4333 30.4421 5.03041 30.927C4.66912 31.3623 4.31478 31.802 3.96667 32.2479C3.92326 32.3032 3.87986 32.3583 3.83514 32.4152C3.63019 32.6762 3.42738 32.9381 3.22726 33.2028C2.44381 34.2136 2.44381 34.2136 1.80403 34.3558C1.21865 34.3917 0.792413 34.2544 0.341956 33.8683C-0.0028242 33.4891 -0.0129561 33.0756 0.00537882 32.5826C0.0833976 32.0989 0.328312 31.8042 0.634375 31.4316C0.728871 31.3138 0.823284 31.1961 0.91765 31.0782C1.13481 30.8085 1.3537 30.5404 1.57367 30.273C1.86686 29.9158 2.15356 29.5541 2.43758 29.1897C2.87439 28.6303 3.32064 28.0789 3.76944 27.529C4.10974 27.1112 4.44525 26.6902 4.7769 26.2656C5.17622 25.7557 5.57769 25.2477 5.9831 24.7426C6.06141 24.6438 6.06141 24.6438 6.1413 24.5431C6.4674 24.1388 6.78956 23.7728 7.26242 23.5364C7.5003 23.5244 7.73556 23.5183 7.97356 23.5163C8.04678 23.5154 8.12 23.5144 8.19536 23.5135C8.438 23.5104 8.68064 23.5079 8.92328 23.5055C9.09127 23.5035 9.25927 23.5015 9.42726 23.4994C9.8698 23.494 10.3123 23.4892 10.755 23.4846C11.2065 23.4796 11.6578 23.4742 12.1093 23.4688C12.9954 23.4582 13.8816 23.4484 14.7677 23.439C12.3287 22.3078 9.88884 21.1788 7.44756 20.0527C7.04026 19.8648 6.63294 19.677 6.22565 19.489C6.05951 19.4123 5.89335 19.3356 5.7272 19.2589C5.3221 19.072 4.91709 18.8849 4.51228 18.6974C3.86681 18.3985 3.22141 18.0999 2.57119 17.8116C2.38962 17.731 2.20832 17.6499 2.02707 17.5687C1.81351 17.4733 1.59942 17.379 1.3847 17.2863C0.763398 17.0072 0.36216 16.7537 0.0495373 16.1286C0.0399769 15.9901 0.0363815 15.8511 0.0358576 15.7124C0.0352981 15.6251 0.0347385 15.5378 0.034167 15.4478C0.0340598 15.3518 0.0339528 15.2557 0.0338337 15.1568C0.0333575 15.0557 0.0328697 14.9548 0.0323696 14.8508C0.0309409 14.5156 0.0302859 14.1804 0.0297383 13.8451C0.0291787 13.6129 0.0286191 13.3805 0.0280595 13.1481C0.0270356 12.6603 0.0264638 12.1725 0.0261304 11.6846C0.0255947 11.0593 0.0232495 10.4339 0.0204755 9.80847C0.0186658 9.32831 0.0181539 8.84803 0.0179991 8.36787C0.0177133 8.13725 0.0169278 7.90664 0.0156419 7.67614C0.013987 7.35361 0.0141656 7.03119 0.0147966 6.70869C0.0139037 6.61323 0.0129986 6.51777 0.0120818 6.4194C0.0150464 5.93753 0.0229757 5.5999 0.341956 5.21171C0.890409 4.73013 1.27717 4.6423 1.99897 4.72435Z" fill="#ED0046"/>
<path d="M48.98 4.72435C49.434 4.96369 49.7907 5.20684 49.9548 5.69906C49.9642 5.84122 49.9683 5.98377 49.9692 6.12623C49.9702 6.25721 49.9702 6.25721 49.9712 6.39081C49.9716 6.48637 49.9718 6.58193 49.972 6.68038C49.9727 6.78121 49.9733 6.88202 49.9739 6.98591C49.976 7.32016 49.977 7.65435 49.978 7.98855C49.9785 8.10261 49.9788 8.21667 49.9792 8.33418C49.9812 8.9378 49.9826 9.54131 49.9836 10.1449C49.9847 10.7687 49.988 11.3924 49.9919 12.0162C49.9944 12.4955 49.9952 12.9749 49.9956 13.4543C49.9961 13.6843 49.9972 13.9142 49.9989 14.1441C50.0013 14.4659 50.0013 14.7876 50.0006 15.1094C50.0018 15.2043 50.0031 15.2993 50.0044 15.3972C50.0001 15.9495 49.9443 16.2814 49.5649 16.7134C49.3835 16.8641 49.3835 16.8641 49.199 16.9705C49.131 17.0099 49.0629 17.0493 48.9928 17.0899C48.6705 17.262 48.344 17.42 48.011 17.5705C47.9382 17.6039 47.8653 17.6374 47.7903 17.6718C47.5515 17.7813 47.3124 17.89 47.0733 17.9987C46.9035 18.0765 46.7339 18.1542 46.5642 18.232C46.2122 18.3934 45.8599 18.5545 45.5076 18.7154C44.7766 19.0498 44.0469 19.3871 43.3172 19.7243C42.9246 19.9057 42.5319 20.0869 42.1392 20.2681C41.5686 20.5314 40.9979 20.7949 40.4274 21.0585C40.0915 21.2138 39.7558 21.3689 39.4199 21.524C39.2632 21.5964 39.1064 21.6688 38.9498 21.7413C37.7144 22.3124 36.4761 22.8769 35.2367 23.439C35.3294 23.4393 35.4221 23.4397 35.5177 23.44C36.3925 23.4436 37.2672 23.4492 38.1421 23.4568C38.5917 23.4606 39.0414 23.4638 39.4912 23.4653C39.9254 23.4668 40.3595 23.4702 40.7937 23.4748C40.9592 23.4762 41.1247 23.4771 41.2902 23.4771C41.5224 23.4773 41.7544 23.4799 41.9866 23.4831C42.0547 23.4827 42.1228 23.4822 42.1929 23.4817C42.77 23.494 43.1092 23.7178 43.5167 24.1083C43.9425 24.6 44.3487 25.1045 44.748 25.6177C45.0968 26.066 45.4529 26.5079 45.8123 26.9478C46.2516 27.4861 46.6845 28.0288 47.1119 28.5766C47.455 29.0149 47.8054 29.447 48.1577 29.8781C48.5568 30.3675 48.9527 30.8593 49.3395 31.3585C49.4163 31.4575 49.4931 31.5565 49.5721 31.6585C49.9841 32.23 50.0339 32.6818 49.9548 33.381C49.7483 33.8542 49.4628 34.0889 49.001 34.2944C48.4977 34.4373 48.0771 34.3522 47.6266 34.1022C47.262 33.8213 47.0018 33.5104 46.72 33.1496C46.665 33.0804 46.61 33.0114 46.5532 32.9402C46.3866 32.7304 46.2211 32.5198 46.056 32.3088C45.9639 32.1918 45.8719 32.0748 45.7799 31.9578C45.6496 31.792 45.5195 31.6261 45.3897 31.46C45.0485 31.0238 44.7004 30.5935 44.3502 30.1644C44.0014 29.7369 43.6537 29.3086 43.3139 28.8738C43.2267 28.7628 43.1389 28.6522 43.0502 28.5423C42.8163 28.2503 42.6013 27.9572 42.4039 27.6392C41.8837 26.8374 41.8837 26.8374 41.0545 26.4299C40.5589 26.3711 40.0669 26.393 39.5696 26.4152C39.3876 26.4179 39.2057 26.4201 39.0238 26.4215C38.5486 26.4271 38.0741 26.4414 37.599 26.4576C37.1129 26.4727 36.6268 26.4792 36.1406 26.4866C35.1892 26.5022 34.2383 26.5271 33.2872 26.558C33.3316 26.5871 33.376 26.6163 33.4219 26.6463C35.7461 28.1712 38.0632 29.7059 40.3656 31.2637C40.448 31.3194 40.5304 31.3751 40.6153 31.4326C40.775 31.5407 40.9348 31.6491 41.0945 31.7575C41.4601 32.0054 41.8268 32.2512 42.1977 32.4914C42.2647 32.5352 42.3318 32.5789 42.401 32.6241C42.5246 32.7043 42.6485 32.784 42.7729 32.8628C43.2242 33.1567 43.5442 33.4487 43.7166 33.9658C43.7264 34.166 43.7302 34.3665 43.731 34.567C43.7321 34.7557 43.7321 34.7557 43.7332 34.9483C43.7334 35.0881 43.7336 35.2279 43.7339 35.3676C43.7345 35.5147 43.7352 35.6617 43.7359 35.8086C43.7379 36.2915 43.7389 36.7745 43.7398 37.2574C43.7403 37.4236 43.7406 37.59 43.7411 37.7562C43.7429 38.5373 43.7443 39.3183 43.7452 40.0995C43.7461 41.0011 43.7486 41.9026 43.7526 42.8042C43.7555 43.5012 43.757 44.1981 43.7573 44.895C43.7576 45.3112 43.7584 45.7275 43.7609 46.1437C43.7632 46.5353 43.7635 46.9269 43.7626 47.3186C43.7624 47.4621 43.763 47.6057 43.7645 47.7492C43.7661 47.9455 43.7652 48.142 43.7642 48.3383C43.7645 48.4481 43.7647 48.5578 43.7649 48.6709C43.6876 49.1605 43.4338 49.4621 43.077 49.7928C42.6014 50.0176 42.1869 50.0252 41.6698 49.9512C41.2046 49.7482 40.9941 49.4842 40.776 49.029C40.6076 48.5144 40.6448 47.9762 40.6507 47.4404C40.6509 47.3058 40.6509 47.1713 40.6506 47.0366C40.6505 46.6734 40.6528 46.3101 40.6555 45.9469C40.658 45.5666 40.6581 45.1862 40.6586 44.8058C40.6598 44.0864 40.663 43.367 40.6669 42.6477C40.6713 41.8283 40.6735 41.009 40.6754 40.1895C40.6794 38.5048 40.6863 36.8201 40.695 35.1355C40.6185 35.1057 40.542 35.0758 40.4632 35.045C40.2291 34.9494 40.0435 34.8457 39.8357 34.7038C39.7654 34.6563 39.6953 34.6086 39.6229 34.5597C39.5097 34.482 39.5097 34.482 39.3941 34.4025C39.2729 34.3203 39.2729 34.3203 39.1493 34.2365C38.9743 34.1175 38.7993 33.9985 38.6245 33.8792C38.1543 33.5585 37.6832 33.2393 37.212 32.9203C37.1142 32.8542 37.0166 32.788 36.9159 32.7198C35.6722 31.879 34.4166 31.0564 33.1602 30.2348C32.4252 29.7534 31.6909 29.2713 30.9712 28.7675C30.8713 28.6978 30.7714 28.6281 30.6685 28.5562C30.5659 28.4761 30.4641 28.3946 30.363 28.3125C30.2943 28.2591 30.2255 28.2058 30.1547 28.1508C29.7457 27.798 29.5365 27.5453 29.4948 26.9968C29.4949 26.7946 29.4993 26.5925 29.5071 26.3904C29.5083 26.2834 29.5094 26.1763 29.5105 26.066C29.5149 25.7262 29.5246 25.3869 29.5346 25.0472C29.5384 24.816 29.542 24.5847 29.5452 24.3534C29.5538 23.7885 29.5668 23.2238 29.5833 22.6591C30.7114 22.0859 31.8516 21.5437 33.0009 21.0143C33.1763 20.9333 33.3516 20.8523 33.527 20.7712C33.9769 20.5634 34.427 20.3558 34.877 20.1483C35.2885 19.9585 35.6998 19.7685 36.1112 19.5785C36.8184 19.2519 37.5256 18.9256 38.2328 18.5994C38.8647 18.3079 39.4966 18.0163 40.1283 17.7248C40.5219 17.5431 40.9155 17.3614 41.3091 17.18C42.0532 16.8369 42.797 16.4931 43.5397 16.1469C43.8915 15.9831 44.2434 15.8195 44.5955 15.6559C44.7636 15.5777 44.9316 15.4993 45.0996 15.4206C45.3321 15.3118 45.565 15.2036 45.7979 15.0956C45.8663 15.0632 45.9349 15.031 46.0055 14.9977C46.3474 14.8399 46.661 14.7326 47.0307 14.6664C47.0296 14.4996 47.0296 14.4996 47.0287 14.3293C47.0227 13.2809 47.0184 12.2325 47.0155 11.1841C47.014 10.6451 47.0119 10.1061 47.0086 9.56714C47.0055 9.04698 47.0037 8.52681 47.003 8.00677C47.0024 7.8083 47.0013 7.60983 46.9997 7.41136C46.9976 7.13339 46.9974 6.85551 46.9975 6.57757C46.9964 6.49547 46.9953 6.41338 46.9943 6.32879C46.9966 5.87426 47.0309 5.58203 47.3231 5.21171C47.8715 4.73013 48.2583 4.6423 48.98 4.72435Z" fill="#D5003B"/>
<path d="M9.89441 0.0455751C10.2824 0.239628 10.5495 0.451135 10.7716 0.825346C10.8655 1.12552 10.8822 1.39997 10.8845 1.71358C10.8855 1.81417 10.8864 1.91476 10.8874 2.0184C10.8882 2.18308 10.8882 2.18308 10.8891 2.35111C10.8901 2.46715 10.891 2.58319 10.892 2.70275C10.8946 3.0205 10.8966 3.33826 10.8987 3.65602C10.9008 3.98827 10.9034 4.32051 10.9061 4.65275C10.9109 5.2817 10.9153 5.91065 10.9195 6.5396C10.9249 7.326 10.9307 8.11238 10.9366 8.89876C10.9472 10.3014 10.9569 11.7041 10.9665 13.1068C14.2474 14.7473 17.5283 16.3876 20.9086 18.0778C20.8541 18.296 20.7988 18.5141 20.7411 18.7315C20.533 19.559 20.4553 20.3474 20.4213 21.197C20.0622 21.1384 19.7743 21.038 19.4493 20.8758C19.3542 20.8286 19.2592 20.7815 19.1612 20.7329C19.0063 20.655 19.0063 20.655 18.8484 20.5756C18.7389 20.5211 18.6292 20.4666 18.5164 20.4104C18.2165 20.2611 17.9169 20.1111 17.6174 19.9608C17.3035 19.8035 16.9893 19.6467 16.6752 19.4899C16.1477 19.2265 15.6204 18.9624 15.0932 18.6982C14.4845 18.3929 13.8752 18.0886 13.2659 17.7848C12.742 17.5236 12.2185 17.2619 11.6952 16.9997C11.3829 16.8434 11.0705 16.6872 10.7578 16.5313C10.4091 16.3575 10.061 16.1826 9.71273 16.0077C9.60951 15.9565 9.50628 15.9052 9.39996 15.8523C8.09187 15.1925 8.09187 15.1925 7.84745 14.4714C7.80506 14.0406 7.80649 13.612 7.80804 13.1795C7.80756 13.0478 7.80685 12.9161 7.80602 12.7846C7.80435 12.4281 7.80447 12.0717 7.80494 11.7152C7.8053 11.4172 7.80471 11.1193 7.80411 10.8213C7.80268 10.1184 7.80292 9.41547 7.80399 8.71243C7.80506 7.98796 7.80375 7.26338 7.80113 6.53885C7.79899 5.916 7.79828 5.29317 7.79887 4.67032C7.79923 4.29865 7.79899 3.92701 7.79732 3.55534C7.79578 3.20587 7.79625 2.85644 7.79804 2.50696C7.79851 2.31804 7.79721 2.1291 7.79578 1.94018C7.80101 1.31404 7.80542 0.906163 8.23736 0.435466C8.73515 -0.0259076 9.2465 -0.0508263 9.89441 0.0455751Z" fill="#ED0046"/>
<path d="M41.1824 0.047104C41.6334 0.260313 41.9679 0.554875 42.1571 1.02182C42.2158 1.45117 42.2113 1.87781 42.209 2.31061C42.2097 2.44196 42.2106 2.5733 42.2116 2.70464C42.2138 3.06031 42.2135 3.41594 42.2126 3.77161C42.2121 4.06905 42.2128 4.36648 42.2135 4.66393C42.2152 5.36597 42.2148 6.06799 42.2133 6.77003C42.2116 7.49306 42.2132 8.21598 42.2163 8.93902C42.2189 9.56086 42.2196 10.1827 42.2188 10.8045C42.2183 11.1754 42.2185 11.5464 42.2206 11.9173C42.2223 12.2662 42.2217 12.6152 42.2194 12.9643C42.2187 13.1524 42.2203 13.3406 42.222 13.5287C42.2157 14.1165 42.1978 14.6073 41.8381 15.0904C41.496 15.4201 41.0872 15.6112 40.662 15.8138C40.5629 15.8632 40.4639 15.9126 40.3618 15.9634C40.1541 16.0668 39.9459 16.1693 39.7375 16.271C39.3501 16.4604 38.9657 16.6558 38.5814 16.8513C38.0984 17.0965 37.614 17.3387 37.1296 17.5813C37.0268 17.633 36.9238 17.6845 36.8177 17.7378C36.2765 18.0091 35.7351 18.2802 35.1936 18.5512C34.6355 18.8305 34.0777 19.1106 33.5199 19.3909C33.0884 19.6075 32.6567 19.8235 32.225 20.0395C32.0189 20.1427 31.813 20.2461 31.6071 20.3497C31.3217 20.4933 31.036 20.636 30.7501 20.7786C30.6231 20.8428 30.6231 20.8428 30.4933 20.9084C30.4158 20.9469 30.3383 20.9853 30.2584 21.025C30.1912 21.0587 30.1239 21.0925 30.0546 21.1271C29.8757 21.1984 29.8757 21.1984 29.5833 21.1984C29.5796 21.0166 29.5796 21.0166 29.5756 20.831C29.5499 19.9918 29.5202 19.2437 29.1777 18.4628C29.0959 18.2744 29.0959 18.2744 29.0959 18.0793C32.3768 16.439 35.6577 14.7985 39.038 13.1083C39.0416 12.2578 39.0453 11.4073 39.049 10.5311C39.0523 9.92363 39.0559 9.31631 39.0597 8.709C39.0644 7.92226 39.069 7.13556 39.0717 6.34885C39.074 5.72595 39.0773 5.10307 39.0817 4.48019C39.0841 4.15051 39.0859 3.82085 39.0865 3.49117C39.0874 3.12271 39.0902 2.75428 39.0933 2.38583C39.0931 2.22272 39.0931 2.22272 39.0929 2.05632C39.0999 1.47459 39.1402 1.04513 39.4278 0.534469C39.9871 0.0161017 40.4369 -0.0277479 41.1824 0.047104Z" fill="#D5003B"/>
</g>
<defs>
<clipPath id="clip0_1_2544">
<rect width="50" height="50" fill="white"/>
</clipPath>
</defs>
</svg>
