<svg width="50" height="50" viewBox="0 0 50 50" fill="none" xmlns="http://www.w3.org/2000/svg">
<g clip-path="url(#clip0_1_2946)">
<path d="M26.9712 3.6711C27.3338 3.88303 27.3338 3.88303 27.7276 3.85772C27.9136 3.73285 27.9136 3.73285 28.0936 3.58236C28.828 3.04579 29.8623 2.92751 30.7433 3.03735C31.9743 3.28443 32.9701 3.92008 33.7658 4.88986C33.8692 5.07168 33.9707 5.25454 34.0705 5.4383C34.4245 6.02772 34.8496 6.17941 35.4778 6.41255C36.6637 6.88905 37.4312 7.96228 37.9584 9.08239C38.3475 10.0074 38.5455 10.8825 38.6104 11.8794C38.6175 11.9855 38.6175 11.9855 38.6247 12.0937C38.6468 12.5028 38.6273 12.874 38.5434 13.2749C38.6218 13.295 38.7002 13.3151 38.781 13.3359C39.3095 13.5399 39.799 13.8481 40.2009 14.2499C40.4434 14.2566 40.678 14.2535 40.9199 14.2438C42.2168 14.2215 43.2855 14.5485 44.2654 15.426C44.5706 15.7375 44.7034 16.0701 44.8748 16.4681C45.0868 16.8887 45.1769 17.0441 45.6266 17.2035C45.8982 17.253 46.1712 17.2826 46.4455 17.3136C47.2389 17.4296 47.8401 17.8935 48.3388 18.5065C48.8529 19.2914 49.1012 20.1176 49.0522 21.0515C49.0217 21.7113 49.0448 22.1912 49.5019 22.7047C49.9407 23.3293 50.0052 24.0487 49.9997 24.7922C49.9991 24.8815 49.9986 24.9708 49.998 25.0628C49.9525 26.8134 49.0983 28.2286 47.9034 29.4601C47.8508 29.5199 47.7981 29.5797 47.7439 29.6413C46.5531 30.949 44.8164 31.5381 43.1423 31.9208C42.8454 31.9799 42.8454 31.9799 42.6384 32.0926C41.2181 32.2053 39.7117 31.9868 38.3397 31.6278C37.9181 31.5217 37.5981 31.4806 37.1783 31.6051C36.9622 31.743 36.9622 31.743 36.7701 31.922C36.1349 32.446 35.3174 32.8908 34.4788 32.8787C34.4 32.8778 34.3212 32.8769 34.24 32.876C34.1501 32.8743 34.1501 32.8743 34.0583 32.8726C34.0319 32.9412 34.0055 33.0098 33.9783 33.0805C33.8584 33.372 33.7238 33.6515 33.5834 33.9337C32.9844 35.1484 32.4055 36.3646 31.895 37.6197C31.8517 37.7259 31.8083 37.8322 31.7636 37.9417C31.5199 38.5513 31.3089 39.1625 31.1333 39.7951C31.1851 39.7542 31.2369 39.7133 31.2903 39.6712C32.5936 38.6512 33.9856 38.372 35.6183 38.5276C36.5015 38.6966 37.3406 39.0327 38.0193 39.6306C38.2112 40.0058 38.166 40.2822 38.0559 40.6726C37.7938 41.4641 37.4418 42.1005 36.8858 42.7202C36.8255 42.7884 36.7652 42.8567 36.703 42.927C35.743 43.9509 34.5424 44.4725 33.143 44.5212C31.9052 44.5344 30.879 44.2348 29.7683 43.6952C29.7511 43.8484 29.7511 43.8484 29.7336 44.0048C29.6595 44.5941 29.5529 45.1771 29.4453 45.761C29.4258 45.8743 29.4062 45.9876 29.3861 46.1043C29.3658 46.2136 29.3455 46.3229 29.3246 46.4355C29.3068 46.5342 29.2891 46.6329 29.2708 46.7345C29.1494 47.117 28.9432 47.3852 28.6227 47.6257C28.1423 47.7724 27.7625 47.7489 27.3064 47.5647C26.8512 47.1199 26.7424 46.5396 26.5607 45.9423C25.276 42.0205 22.4698 38.331 19.8637 35.1852C19.7408 35.036 19.62 34.885 19.4995 34.7339C19.0241 34.1384 18.5193 33.5766 17.9924 33.0266C17.7222 32.7439 17.4621 32.4635 17.2269 32.1509C16.8077 31.5925 16.8077 31.5925 16.1791 31.3583C15.9436 31.3644 15.7082 31.3768 15.4734 31.3956C14.586 31.4345 13.7932 30.8293 13.0957 30.3376C13.0313 30.2732 12.967 30.2089 12.9007 30.1426C12.4724 30.1807 12.0552 30.2712 11.6334 30.3528C8.88481 30.8632 6.04686 30.4888 3.71054 28.9008C3.22193 28.5466 2.79372 28.1337 2.37057 27.705C2.29139 27.6257 2.2122 27.5464 2.13062 27.4647C0.789941 26.0531 0.0165846 24.316 0.0061731 22.373C0.00416215 22.281 0.00215119 22.1891 7.93006e-05 22.0944C-0.00719485 20.7714 0.48622 19.7081 1.37652 18.7434C2.20624 17.955 2.20624 17.955 2.66307 17.955C2.67212 17.8222 2.67212 17.8222 2.68135 17.6868C2.85448 16.5442 3.46442 15.6666 4.34648 14.9473C5.19532 14.3433 6.0243 14.2028 7.0506 14.1524C7.06701 14.045 7.06701 14.045 7.08374 13.9353C7.26526 13.1728 7.88275 12.5391 8.51312 12.1049C9.565 11.5113 10.6753 11.5489 11.8201 11.8216C12.0596 11.892 12.2601 11.9671 12.4802 12.0805C12.9546 12.2596 13.382 12.179 13.8757 12.1049C13.8696 11.9943 13.8636 11.8837 13.8574 11.7698C13.8672 9.68779 14.657 7.70155 16.0744 6.18555C16.9529 5.36444 18.1348 4.81065 19.3357 4.69486C19.5815 4.70591 19.8273 4.71818 20.0731 4.73142C20.5837 4.74408 20.5837 4.74408 21.0389 4.54594C21.1773 4.41147 21.3124 4.27368 21.4445 4.13309C22.9117 2.74808 25.2914 2.70338 26.9712 3.6711ZM19.9207 22.1475C19.8621 22.2876 19.8621 22.2876 19.8023 22.4305C19.4934 23.1581 19.1665 23.8726 18.7994 24.5728C18.7448 24.6782 18.7448 24.6782 18.689 24.7857C18.4744 25.1876 18.2398 25.5188 17.9402 25.8647C17.7059 26.1795 17.6721 26.2897 17.7197 26.6862C17.7842 26.9431 17.8654 27.1924 17.9509 27.443C18.1437 28.0339 18.2037 28.6226 18.1112 29.2373C18.1104 29.6457 18.278 29.8254 18.5538 30.1159C18.7211 30.2771 18.8904 30.4363 19.0615 30.5935C19.2296 30.753 19.3976 30.9127 19.5654 31.0726C19.6443 31.1471 19.7233 31.2215 19.8047 31.2982C20.0601 31.5487 20.2812 31.8146 20.5057 32.0926C20.5379 32.0926 20.5701 32.0926 20.6032 32.0926C20.6069 32.0338 20.6105 31.9749 20.6143 31.9143C20.6239 31.7974 20.6239 31.7974 20.6337 31.6782C20.6393 31.6013 20.645 31.5244 20.6508 31.4451C20.7123 31.1619 20.7838 31.0265 20.9932 30.8251C22.291 30.5002 23.4747 30.8785 24.6007 31.5076C24.6651 31.5398 24.7294 31.5719 24.7957 31.6051C24.8624 30.9377 24.9211 30.27 24.9743 29.6014C24.9933 29.3742 25.0141 29.1471 25.0368 28.9202C25.0692 28.5934 25.0949 28.2667 25.1195 27.9393C25.1309 27.8383 25.1423 27.7373 25.1541 27.6333C25.1726 27.3349 25.1757 27.114 25.0882 26.8275C24.8579 26.5974 24.6296 26.4426 24.3476 26.2806C23.585 25.8394 23.2258 24.6942 22.9432 23.9025C22.925 23.7858 22.9068 23.669 22.888 23.5487C22.732 23.1819 22.6993 23.1604 22.3514 23.0178C22.188 22.9626 22.0236 22.9102 21.8585 22.8605C21.6956 22.8077 21.5329 22.7545 21.3703 22.7009C21.2513 22.6622 21.2513 22.6622 21.1298 22.6227C20.8954 22.5374 20.6795 22.4363 20.4577 22.3223C20.1508 22.1327 20.1508 22.1327 19.9207 22.1475ZM29.9633 22.83C29.6991 23.0942 29.6483 23.3942 29.5489 23.7441C29.2215 24.8308 28.8321 25.8116 27.9158 26.535C27.8111 26.5735 27.8111 26.5735 27.7044 26.6127C27.4941 26.7226 27.4941 26.7226 27.4485 27.0142C27.4358 27.1336 27.4231 27.253 27.41 27.376C27.3965 27.4919 27.3831 27.6077 27.3692 27.7271C27.3557 27.8822 27.343 28.0374 27.3308 28.1925C27.3223 28.2968 27.3138 28.4011 27.3051 28.5085C27.2183 29.7106 27.2096 30.9121 27.2089 32.117C27.2088 32.226 27.2087 32.3351 27.2086 32.4474C27.2102 35.1266 27.4123 37.7582 27.8217 40.4057C27.8352 40.4931 27.8486 40.5805 27.8625 40.6706C27.8801 40.7356 27.8977 40.8007 27.9158 40.8677C27.9801 40.8998 28.0445 40.932 28.1108 40.9652C28.1401 40.8761 28.1694 40.787 28.1996 40.6952C29.0866 38.0104 30.1273 35.4427 31.3679 32.8985C31.4107 32.8106 31.4536 32.7228 31.4977 32.6323C31.5768 32.4734 31.658 32.3155 31.7416 32.159C32.0309 31.6148 32.0116 31.3133 31.9133 30.7276C31.8396 30.0634 31.9895 29.4768 32.1731 28.843C32.28 28.4598 32.3393 28.1819 32.2058 27.8025C32.0714 27.5655 32.0714 27.5655 31.9011 27.3272C30.9922 25.9294 30.5563 24.4337 30.1583 22.83C30.0939 22.83 30.0296 22.83 29.9633 22.83ZM24.1132 36.4801C24.2794 36.8125 24.457 37.1174 24.6556 37.4307C24.716 37.5268 24.7765 37.6228 24.8388 37.7217C24.8889 37.7946 24.9391 37.8675 24.9907 37.9426C25.0229 37.9426 25.0551 37.9426 25.0882 37.9426C25.0561 37.4922 25.0239 37.0417 24.9907 36.5776C24.7012 36.5454 24.4116 36.5133 24.1132 36.4801Z" fill="#F98BCD"/>
<path d="M12.492 12.1087C12.8461 12.2153 13.0308 12.183 13.3882 12.1049C14.975 12.0123 16.3889 12.3348 17.6112 13.409C17.7653 13.5574 17.9178 13.7076 18.0682 13.8599C18.1579 13.9464 18.1579 13.9464 18.2495 14.0347C19.832 15.6789 20.3423 18.0239 20.3272 20.2336C20.3047 20.5829 20.2367 20.9144 20.1548 21.2542C20.1025 21.5364 20.1407 21.7745 20.2132 22.05C20.1167 22.0821 20.0202 22.1143 19.9207 22.1475C19.9091 22.2176 19.8975 22.2878 19.8855 22.3601C19.7763 22.8417 19.5428 23.2704 19.3296 23.7136C19.2815 23.814 19.2335 23.9144 19.184 24.0178C18.8716 24.6588 18.5401 25.2534 18.1227 25.8323C17.9145 26.1176 17.9145 26.1176 17.7757 26.4375C17.8347 26.7468 17.8347 26.7468 17.9524 27.0773C18.1751 27.7993 18.3225 28.4833 18.2083 29.2372C18.2074 29.6471 18.378 29.828 18.6547 30.1193C18.8229 30.2814 18.9931 30.4415 19.1651 30.5996C19.3344 30.7602 19.5035 30.9211 19.6724 31.0821C19.748 31.1522 19.8235 31.2223 19.9014 31.2945C20.1232 31.515 20.315 31.7474 20.5057 31.995C20.5164 31.928 20.5271 31.8611 20.5381 31.792C20.5535 31.7042 20.569 31.6163 20.5849 31.5258C20.607 31.3952 20.607 31.3952 20.6295 31.2619C20.7096 30.99 20.7598 30.8869 20.9932 30.7275C22.304 30.4465 23.4655 30.7489 24.6007 31.41C24.6329 31.4422 24.6651 31.4744 24.6982 31.5075C24.7017 31.4532 24.7051 31.3989 24.7087 31.3429C24.7446 30.7783 24.7811 30.2137 24.8179 29.649C24.8315 29.4382 24.845 29.2274 24.8584 29.0166C24.8777 28.7138 24.8974 28.4111 24.9172 28.1083C24.9231 28.0139 24.929 27.9194 24.9351 27.8221C24.941 27.7343 24.9468 27.6464 24.9528 27.556C24.9578 27.4787 24.9628 27.4014 24.9679 27.3217C24.9907 27.12 24.9907 27.12 25.0882 26.8275C24.9857 26.7943 24.9857 26.7943 24.8811 26.7605C23.8337 26.2823 23.3423 25.1918 22.9368 24.1706C22.8273 23.8482 22.7713 23.5589 22.7482 23.22C22.8965 23.234 23.0448 23.2483 23.1931 23.2626C23.2757 23.2705 23.3582 23.2785 23.4433 23.2866C23.638 23.3081 23.8321 23.3357 24.0253 23.3681C25.8225 23.5894 27.6373 23.4255 29.3589 22.8741C29.5957 22.8253 29.7364 22.8506 29.9633 22.9275C29.4943 24.4127 29.0327 25.7845 27.7208 26.73C27.6564 26.73 27.5921 26.73 27.5258 26.73C27.1001 31.451 27.23 36.193 28.0133 40.8676C28.0572 40.7384 28.0572 40.7384 28.1021 40.6066C29.007 37.9617 30.044 35.4137 31.2704 32.8984C31.3132 32.8106 31.3561 32.7228 31.4002 32.6322C31.4793 32.4734 31.5605 32.3155 31.6441 32.159C31.9334 31.6148 31.9141 31.3132 31.8158 30.7275C31.7205 29.868 31.92 28.7188 32.4008 27.9975C32.481 28.0811 32.5612 28.1647 32.6438 28.2508C33.2677 28.8932 33.8764 29.4757 34.6433 29.9475C34.7321 30.0042 34.8208 30.0609 34.9122 30.1193C35.5186 30.492 36.1329 30.7772 36.7981 31.0246C37.0729 31.1276 37.2606 31.1998 37.4708 31.41C35.6169 32.8951 35.6169 32.8951 34.4788 32.8786C34.4 32.8778 34.3212 32.8769 34.24 32.876C34.1501 32.8743 34.1501 32.8743 34.0583 32.8725C34.0319 32.9412 34.0055 33.0098 33.9783 33.0804C33.8584 33.372 33.7238 33.6514 33.5834 33.9336C32.9844 35.1484 32.4055 36.3645 31.895 37.6196C31.8517 37.7259 31.8083 37.8322 31.7636 37.9417C31.5199 38.5513 31.3089 39.1624 31.1333 39.7951C31.1851 39.7542 31.2369 39.7133 31.2903 39.6712C32.5936 38.6512 33.9856 38.3719 35.6183 38.5276C36.5015 38.6966 37.3406 39.0327 38.0193 39.6306C38.2112 40.0057 38.166 40.2822 38.0559 40.6726C37.7938 41.4641 37.4418 42.1004 36.8858 42.7201C36.8255 42.7884 36.7652 42.8566 36.703 42.9269C35.743 43.9509 34.5424 44.4725 33.143 44.5212C31.9052 44.5344 30.879 44.2347 29.7683 43.6951C29.7511 43.8484 29.7511 43.8484 29.7336 44.0048C29.6595 44.594 29.5529 45.177 29.4453 45.7609C29.4258 45.8742 29.4062 45.9875 29.3861 46.1043C29.3658 46.2136 29.3455 46.3228 29.3246 46.4354C29.3068 46.5341 29.2891 46.6328 29.2708 46.7345C29.1494 47.1169 28.9432 47.3852 28.6227 47.6256C28.1423 47.7724 27.7625 47.7489 27.3064 47.5647C26.8512 47.1198 26.7424 46.5396 26.5607 45.9422C25.276 42.0205 22.4698 38.331 19.8637 35.1852C19.7408 35.0359 19.62 34.885 19.4995 34.7338C19.0241 34.1383 18.5193 33.5765 17.9924 33.0266C17.7222 32.7439 17.4621 32.4635 17.2269 32.1508C16.8077 31.5924 16.8077 31.5924 16.1791 31.3582C15.9436 31.3643 15.7082 31.3768 15.4734 31.3956C14.586 31.4345 13.7932 30.8292 13.0957 30.3375C13.0313 30.2732 12.967 30.2088 12.9007 30.1425C12.4724 30.1807 12.0552 30.2712 11.6334 30.3527C8.88481 30.8632 6.04686 30.4888 3.71054 28.9007C3.22193 28.5465 2.79372 28.1336 2.37057 27.705C2.29139 27.6257 2.2122 27.5464 2.13062 27.4647C0.789941 26.0531 0.0165846 24.316 0.0061731 22.3729C0.00416215 22.281 0.00215119 22.1891 7.93006e-05 22.0943C-0.00719485 20.7713 0.48622 19.7081 1.37652 18.7433C2.20624 17.9549 2.20624 17.9549 2.66307 17.9549C2.67212 17.8222 2.67212 17.8222 2.68135 17.6868C2.85448 16.5441 3.46442 15.6666 4.34648 14.9473C5.19532 14.3433 6.0243 14.2028 7.0506 14.1524C7.06154 14.0808 7.07247 14.0091 7.08374 13.9353C7.26465 13.1753 7.88193 12.535 8.51312 12.1049C9.84087 11.4191 11.1431 11.5429 12.492 12.1087ZM24.1132 36.4801C24.2794 36.8125 24.457 37.1173 24.6556 37.4307C24.716 37.5267 24.7765 37.6228 24.8388 37.7217C24.8889 37.7946 24.9391 37.8675 24.9907 37.9426C25.0229 37.9426 25.0551 37.9426 25.0882 37.9426C25.0561 37.4921 25.0239 37.0417 24.9907 36.5776C24.7012 36.5454 24.4116 36.5132 24.1132 36.4801Z" fill="#FCE169"/>
<path d="M39.7007 13.8112C39.9083 13.9575 39.9083 13.9575 40.037 14.122C40.3035 14.3303 40.604 14.2668 40.9259 14.25C42.2211 14.2193 43.2871 14.55 44.2653 15.4261C44.5705 15.7376 44.7033 16.0702 44.8747 16.4681C45.0867 16.8887 45.1768 17.0442 45.6265 17.2035C45.8981 17.253 46.1711 17.2826 46.4454 17.3136C47.2388 17.4296 47.84 17.8935 48.3386 18.5065C48.8528 19.2914 49.101 20.1176 49.0521 21.0516C49.0216 21.7113 49.0447 22.1912 49.5018 22.7047C49.9406 23.3293 50.005 24.0487 49.9996 24.7922C49.999 24.8815 49.9985 24.9708 49.9979 25.0628C49.9524 26.8135 49.0982 28.2286 47.9033 29.4601C47.8507 29.5199 47.798 29.5797 47.7437 29.6414C46.553 30.9491 44.8163 31.5381 43.1422 31.9208C42.8453 31.9799 42.8453 31.9799 42.6383 32.0926C40.4493 32.2663 38.0693 31.7811 36.1057 30.8251C36.0083 30.7812 35.9109 30.7374 35.8106 30.6922C34.05 29.8709 32.3304 28.4723 31.4257 26.7301C31.341 26.5721 31.341 26.5721 31.2547 26.4109C30.2191 24.39 29.5777 21.7136 30.2644 19.4872C30.2937 19.3998 30.323 19.3125 30.3532 19.2225C30.3815 19.1201 30.4097 19.0176 30.4389 18.9121C31.0452 16.7581 32.3911 14.9126 34.3103 13.7541C36.0291 12.7905 38.0178 12.7739 39.7007 13.8112Z" fill="#C797E0"/>
<path d="M29.9634 22.9275C29.4944 24.4127 29.0327 25.7846 27.7208 26.7301C27.6565 26.7301 27.5921 26.7301 27.5258 26.7301C27.1002 31.4511 27.2301 36.1931 28.0133 40.8677C28.0427 40.7816 28.072 40.6954 28.1022 40.6067C29.0071 37.9618 30.0441 35.4137 31.2705 32.8985C31.3133 32.8107 31.3561 32.7228 31.4003 32.6323C31.4794 32.4735 31.5605 32.3156 31.6442 32.1591C31.9335 31.6149 31.9142 31.3133 31.8159 30.7276C31.7206 29.8681 31.92 28.7188 32.4009 27.9976C32.5212 28.123 32.5212 28.123 32.6439 28.2509C33.2678 28.8933 33.8765 29.4758 34.6434 29.9476C34.7321 30.0043 34.8209 30.061 34.9123 30.1194C35.5187 30.4921 36.133 30.7773 36.7982 31.0247C37.073 31.1276 37.2607 31.1999 37.4709 31.4101C35.617 32.8952 35.617 32.8952 34.4789 32.8787C34.4001 32.8778 34.3213 32.877 34.2401 32.8761C34.1801 32.8749 34.1202 32.8738 34.0584 32.8726C34.032 32.9412 34.0056 33.0098 33.9784 33.0805C33.8585 33.3721 33.7239 33.6515 33.5835 33.9337C32.9844 35.1485 32.4055 36.3646 31.8951 37.6197C31.8301 37.7791 31.8301 37.7791 31.7637 37.9418C31.5199 38.5514 31.309 39.1625 31.1334 39.7952C31.1852 39.7543 31.237 39.7134 31.2904 39.6712C32.5936 38.6513 33.9857 38.372 35.6184 38.5277C36.5015 38.6967 37.3407 39.0327 38.0194 39.6307C38.2113 40.0058 38.1661 40.2823 38.0559 40.6727C37.7939 41.4641 37.4419 42.1005 36.8859 42.7202C36.8256 42.7885 36.7653 42.8567 36.7031 42.927C35.7431 43.9509 34.5425 44.4726 33.1431 44.5213C31.9053 44.5344 30.8791 44.2348 29.7684 43.6952C29.7569 43.7974 29.7455 43.8996 29.7337 44.0049C29.6596 44.5941 29.553 45.1771 29.4454 45.761C29.4258 45.8743 29.4063 45.9876 29.3862 46.1044C29.3557 46.2683 29.3557 46.2683 29.3247 46.4355C29.3069 46.5342 29.2891 46.6329 29.2708 46.7346C29.1495 47.117 28.9433 47.3853 28.6227 47.6257C28.1424 47.7725 27.7626 47.749 27.3065 47.5648C26.8512 47.1199 26.7425 46.5396 26.5607 45.9423C25.276 42.0206 22.4699 38.3311 19.8637 35.1853C19.7409 35.036 19.6201 34.8851 19.4995 34.7339C19.0242 34.1384 18.5193 33.5766 17.9925 33.0266C17.7223 32.744 17.4622 32.4636 17.2269 32.1509C16.8077 31.5925 16.8077 31.5925 16.1792 31.3583C15.9437 31.3644 15.7083 31.3769 15.4734 31.3956C14.5554 31.4359 13.5873 30.7679 12.9186 30.1826C12.8032 30.0451 12.8032 30.0451 12.8032 29.8501C12.9062 29.8109 12.9062 29.8109 13.0112 29.7709C14.6833 29.1073 16.0137 28.1981 17.2022 26.8437C17.3248 26.7051 17.4524 26.5709 17.5808 26.4376C17.6451 26.4376 17.7095 26.4376 17.7758 26.4376C18.3536 28.2786 18.3536 28.2786 18.2084 29.2373C18.2075 29.6472 18.3781 29.8281 18.6548 30.1194C18.823 30.2815 18.9932 30.4415 19.1651 30.5996C19.3344 30.7603 19.5035 30.9211 19.6725 31.0822C19.748 31.1523 19.8236 31.2224 19.9015 31.2946C20.1233 31.5151 20.315 31.7475 20.5058 31.9951C20.5165 31.9281 20.5272 31.8611 20.5382 31.7921C20.5536 31.7043 20.5691 31.6164 20.585 31.5259C20.5997 31.4388 20.6144 31.3517 20.6296 31.262C20.7096 30.99 20.7599 30.887 20.9933 30.7276C22.3041 30.4466 23.4655 30.749 24.6008 31.4101C24.633 31.4423 24.6652 31.4745 24.6983 31.5076C24.7018 31.4533 24.7052 31.399 24.7088 31.343C24.7447 30.7784 24.7812 30.2137 24.8179 29.6491C24.8316 29.4383 24.8451 29.2275 24.8585 29.0167C24.8777 28.7139 24.8975 28.4112 24.9173 28.1084C24.9232 28.014 24.9291 27.9195 24.9352 27.8222C24.941 27.7344 24.9469 27.6465 24.9529 27.556C24.9579 27.4788 24.9629 27.4015 24.968 27.3218C24.9908 27.1201 24.9908 27.1201 25.0883 26.8276C25.0199 26.8055 24.9516 26.7833 24.8811 26.7605C23.8338 26.2824 23.3424 25.1919 22.9368 24.1707C22.8274 23.8482 22.7714 23.559 22.7483 23.2201C22.8966 23.2341 23.0449 23.2483 23.1932 23.2627C23.2757 23.2706 23.3583 23.2785 23.4434 23.2867C23.6381 23.3082 23.8322 23.3358 24.0253 23.3682C25.8225 23.5895 27.6373 23.4256 29.3589 22.8742C29.5958 22.8254 29.7365 22.8507 29.9634 22.9275ZM24.1133 36.4802C24.2795 36.8126 24.4571 37.1174 24.6557 37.4308C24.7161 37.5268 24.7766 37.6228 24.8389 37.7218C24.889 37.7947 24.9392 37.8676 24.9908 37.9427C25.023 37.9427 25.0552 37.9427 25.0883 37.9427C25.0561 37.4922 25.024 37.0418 24.9908 36.5777C24.7012 36.5455 24.4117 36.5133 24.1133 36.4802Z" fill="#A0DA3C"/>
<path d="M17.5808 26.4375C17.6451 26.4375 17.7095 26.4375 17.7758 26.4375C18.3536 28.2785 18.3536 28.2785 18.2084 29.2372C18.2075 29.6471 18.3781 29.828 18.6548 30.1193C18.823 30.2814 18.9932 30.4415 19.1651 30.5996C19.3344 30.7602 19.5035 30.9211 19.6725 31.0821C19.748 31.1522 19.8236 31.2223 19.9015 31.2945C20.1233 31.515 20.315 31.7474 20.5058 31.995C20.5218 31.8946 20.5218 31.8946 20.5382 31.792C20.5536 31.7042 20.5691 31.6163 20.585 31.5258C20.6071 31.3952 20.6071 31.3952 20.6296 31.2619C20.7096 30.99 20.7599 30.8869 20.9933 30.7275C22.3041 30.4465 23.4655 30.7489 24.6008 31.41C24.633 31.4422 24.6652 31.4744 24.6983 31.5075C24.7018 31.4532 24.7052 31.3989 24.7088 31.3429C24.7447 30.7783 24.7812 30.2137 24.8179 29.6491C24.8316 29.4383 24.8451 29.2274 24.8585 29.0166C24.8777 28.7138 24.8975 28.4111 24.9173 28.1083C24.9232 28.0139 24.9291 27.9194 24.9352 27.8221C24.941 27.7343 24.9469 27.6465 24.9529 27.556C24.9579 27.4787 24.9629 27.4014 24.968 27.3217C24.9908 27.12 24.9908 27.12 25.0883 26.8275C25.2998 26.8768 25.4783 26.925 25.6733 27.0225C25.7312 27.2807 25.7457 27.5385 25.7708 27.8025C25.803 27.5451 25.8352 27.2877 25.8683 27.0225C25.9649 27.0547 26.0614 27.0869 26.1608 27.12C26.0965 27.667 26.0321 28.214 25.9658 28.7775C26.0302 28.6488 26.0945 28.5201 26.1608 28.3875C26.2907 29.6614 26.4121 30.9359 26.5265 32.2113C26.5667 32.6592 26.6075 33.1071 26.6483 33.5551C26.6646 33.7338 26.6808 33.9126 26.6971 34.0913C26.7051 34.1798 26.7132 34.2683 26.7215 34.3594C27.6755 44.8541 27.6755 44.8541 27.6971 45.1002C27.7138 45.2773 27.7326 45.4542 27.7531 45.6308C27.8104 46.1492 27.8276 46.5693 27.6782 47.0772C27.6502 47.1761 27.6221 47.275 27.5933 47.3769C27.571 47.449 27.5488 47.521 27.5258 47.5952C27.2484 47.4551 27.072 47.3653 26.9226 47.0875C26.8833 46.9617 26.8833 46.9617 26.8433 46.8334C26.811 46.7365 26.7787 46.6396 26.7455 46.5398C26.683 46.3407 26.6213 46.1414 26.5604 45.9418C25.2791 42.0206 22.4687 38.3296 19.8637 35.1852C19.7409 35.0359 19.6201 34.885 19.4995 34.7338C19.0242 34.1384 18.5193 33.5765 17.9925 33.0266C17.7223 32.7439 17.4622 32.4635 17.2269 32.1508C16.8077 31.5924 16.8077 31.5924 16.1792 31.3582C15.9437 31.3643 15.7083 31.3768 15.4734 31.3956C14.5554 31.4358 13.5873 30.7678 12.9186 30.1825C12.8032 30.045 12.8032 30.045 12.8032 29.85C12.8718 29.8239 12.9405 29.7977 13.0112 29.7708C14.6833 29.1072 16.0137 28.1981 17.2022 26.8436C17.3248 26.705 17.4524 26.5708 17.5808 26.4375ZM24.1133 36.4801C24.2795 36.8125 24.4571 37.1173 24.6557 37.4307C24.7161 37.5267 24.7766 37.6228 24.8389 37.7217C24.889 37.7946 24.9392 37.8675 24.9908 37.9426C25.023 37.9426 25.0552 37.9426 25.0883 37.9426C25.0561 37.4921 25.024 37.0417 24.9908 36.5776C24.7012 36.5454 24.4117 36.5132 24.1133 36.4801Z" fill="#AEDE5E"/>
<path d="M25.0882 26.8275C25.2997 26.8769 25.4782 26.925 25.6732 27.0225C25.7311 27.2808 25.7456 27.5385 25.7707 27.8025C25.8029 27.5451 25.8351 27.2877 25.8682 27.0225C25.9648 27.0547 26.0613 27.0869 26.1607 27.12C26.0964 27.667 26.032 28.214 25.9657 28.7775C26.0301 28.6488 26.0944 28.5201 26.1607 28.3875C26.2906 29.6614 26.412 30.9359 26.5264 32.2113C26.5666 32.6593 26.6074 33.1072 26.6482 33.5551C26.6645 33.7338 26.6807 33.9126 26.697 34.0913C26.705 34.1798 26.7131 34.2683 26.7214 34.3594C27.6754 44.8541 27.6754 44.8541 27.697 45.1002C27.7137 45.2773 27.7325 45.4542 27.753 45.6309C27.8102 46.1492 27.8275 46.5693 27.6781 47.0772C27.636 47.2256 27.636 47.2256 27.5932 47.3769C27.5709 47.449 27.5487 47.521 27.5257 47.5952C27.2389 47.4518 27.0692 47.3605 26.9156 47.0738C26.8877 46.9864 26.8598 46.8991 26.831 46.8091C26.7999 46.7133 26.7687 46.6175 26.7366 46.5189C26.7074 46.4236 26.6783 46.3283 26.6482 46.2302C26.6211 46.149 26.5939 46.0678 26.566 45.9841C26.4303 45.565 26.3338 45.1528 26.2666 44.7174C26.1824 44.1975 26.0777 43.6848 25.9652 43.1703C25.3456 40.3178 24.9165 37.4481 24.7957 34.5301C24.6992 34.5301 24.6027 34.5301 24.5032 34.5301C24.2649 34.3688 24.0615 34.1654 23.8512 33.9694C23.792 33.9169 23.7329 33.8644 23.672 33.8102C23.6161 33.7587 23.5602 33.7072 23.5027 33.6541C23.4514 33.6071 23.4002 33.5601 23.3474 33.5117C23.2357 33.3601 23.2357 33.3601 23.2357 32.9701C23.107 32.9701 22.9783 32.9701 22.8457 32.9701C22.6644 32.8234 22.6644 32.8234 22.4801 32.6227C22.1545 32.2795 21.8171 31.9651 21.4575 31.658C21.2857 31.5076 21.2857 31.5076 21.1352 31.3419C20.9886 31.1826 20.9886 31.1826 20.7007 31.215C20.8835 30.8372 20.8835 30.8372 20.9932 30.7275C22.3489 30.5195 23.4181 30.7214 24.6007 31.4101C24.6329 31.4422 24.6651 31.4744 24.6982 31.5076C24.7017 31.4532 24.7051 31.3989 24.7087 31.343C24.7446 30.7783 24.781 30.2137 24.8178 29.6491C24.8315 29.4383 24.845 29.2275 24.8584 29.0166C24.8776 28.7139 24.8974 28.4111 24.9172 28.1084C24.9261 27.9667 24.9261 27.9667 24.9351 27.8221C24.9409 27.7343 24.9468 27.6465 24.9528 27.556C24.9578 27.4787 24.9628 27.4014 24.9679 27.3218C24.9907 27.12 24.9907 27.12 25.0882 26.8275Z" fill="#C3EA83"/>
<path d="M32.3032 27.9976C32.6552 28.2921 32.9925 28.585 33.3087 28.9177C34.2645 29.8842 35.5346 30.5548 36.798 31.0247C37.0728 31.1276 37.2605 31.1999 37.4708 31.4101C35.6249 32.8887 35.6249 32.8887 34.5274 32.8848C34.4577 32.885 34.3879 32.8853 34.3161 32.8855C33.9669 32.868 33.6248 32.8212 33.2782 32.7751C33.2605 32.8821 33.2428 32.989 33.2245 33.0992C33.1998 33.241 33.1751 33.3828 33.1502 33.5246C33.1387 33.595 33.1272 33.6653 33.1154 33.7377C33.0402 34.16 32.9354 34.4607 32.6932 34.8226C32.6568 34.9843 32.6243 35.1469 32.5957 35.3101C32.4667 35.708 32.257 36.0341 32.0339 36.3841C31.7736 36.8014 31.6165 37.1702 31.5232 37.6501C31.4589 37.7145 31.3945 37.7788 31.3282 37.8451C31.2609 38.0067 31.1963 38.1694 31.1332 38.3326C31.0789 38.4251 31.0246 38.5176 30.9687 38.613C30.8119 38.9863 30.8703 39.208 30.9382 39.6002C30.8417 39.6967 30.8417 39.6967 30.7432 39.7952C30.6759 39.9567 30.6113 40.1194 30.5482 40.2827C30.4979 40.3752 30.4476 40.4677 30.3959 40.563C30.2381 40.8652 30.2381 40.8652 30.213 41.215C30.1495 41.6035 30.0222 41.7451 29.7682 42.0377C29.736 42.1201 29.7038 42.2026 29.6707 42.2875C29.5732 42.5252 29.5732 42.5252 29.3782 42.7019C29.1422 42.96 29.109 43.1522 29.0552 43.4907C28.9626 43.7732 28.7906 43.9596 28.5982 44.1827C28.466 43.6957 28.3361 43.2082 28.2082 42.7202C28.1853 42.6338 28.1624 42.5475 28.1389 42.4585C27.8593 41.3222 28.1462 40.4415 28.5251 39.3747C28.5513 39.2997 28.5775 39.2246 28.6045 39.1474C29.3544 37.0022 30.2746 34.9405 31.2703 32.8985C31.3131 32.8107 31.356 32.7228 31.4001 32.6323C31.4792 32.4734 31.5604 32.3156 31.644 32.159C31.9333 31.6148 31.914 31.3133 31.8157 30.7276C31.7134 29.8054 32.014 28.8653 32.3032 27.9976Z" fill="#9FCC52"/>
<path d="M37.7633 39.4051C38.0192 39.6306 38.0192 39.6306 38.1533 39.8926C38.1721 40.9622 37.5795 41.9469 36.8858 42.7202C36.8255 42.7884 36.7651 42.8567 36.703 42.927C35.7429 43.9509 34.5423 44.4725 33.1429 44.5212C31.9343 44.5341 30.9281 44.2784 29.8657 43.6952C29.9027 42.886 30.1033 42.1591 30.3532 41.3917C30.3873 41.2771 30.4213 41.1625 30.4564 41.0444C30.7793 40.05 31.2864 39.5307 32.1936 39.0334C32.3586 38.9588 32.5252 38.8877 32.6932 38.8201C32.7708 38.789 32.8483 38.7578 32.9282 38.7257C34.5065 38.1988 36.4028 38.4513 37.7633 39.4051Z" fill="#A3D54D"/>
<path d="M29.9633 22.9275C29.4849 24.4426 28.9927 25.9936 27.5354 26.8375C26.9944 27.0742 26.4492 27.0514 25.8683 27.0226C25.8723 27.1452 25.8764 27.2679 25.8805 27.3943C25.8916 27.7334 25.8741 27.7939 25.6733 28.0951C25.6733 27.7412 25.6733 27.3872 25.6733 27.0226C25.5446 26.9864 25.4159 26.9502 25.2833 26.9129C24.3086 26.5798 23.8105 25.9666 23.3333 25.0726C23.0416 24.4681 22.7942 23.8939 22.7483 23.2201C22.8966 23.2341 23.0449 23.2483 23.1931 23.2627C23.2757 23.2706 23.3583 23.2785 23.4434 23.2867C23.6381 23.3082 23.8321 23.3358 24.0253 23.3682C25.8225 23.5895 27.6373 23.4256 29.3589 22.8742C29.5958 22.8254 29.7365 22.8507 29.9633 22.9275Z" fill="#A0C951"/>
<path d="M37.7634 39.4052C37.9332 39.5541 37.9332 39.5541 38.0559 39.6977C38.0559 39.762 38.0559 39.8264 38.0559 39.8927C36.9612 40.3147 35.866 40.7303 34.7557 41.1095C34.3311 41.26 33.9179 41.436 33.5029 41.6106C32.927 41.8512 32.3472 42.0818 31.7671 42.3119C31.6756 42.3487 31.6756 42.3487 31.5823 42.3863C31.4035 42.4582 31.2242 42.5292 31.0449 42.6002C30.8876 42.663 30.8876 42.663 30.7271 42.727C30.4508 42.8177 30.4508 42.8177 30.0608 42.8177C30.13 42.3318 30.2512 41.8734 30.3899 41.4039C30.4102 41.3324 30.4306 41.2609 30.4516 41.1872C30.7255 40.2534 31.1118 39.6802 31.9483 39.1664C33.7711 38.1998 36.0363 38.2127 37.7634 39.4052Z" fill="#C5E98B"/>
<path d="M32.0108 31.41C32.2964 31.6854 32.5553 31.9679 32.7908 32.2875C32.7908 32.3519 32.7908 32.4162 32.7908 32.4825C32.8552 32.4825 32.9195 32.4825 32.9858 32.4825C32.9536 32.6434 32.9215 32.8043 32.8883 32.97C32.824 32.97 32.7596 32.97 32.6933 32.97C32.7014 33.0364 32.7094 33.1028 32.7177 33.1711C32.693 33.4615 32.6445 33.5686 32.4983 33.811C32.2785 34.1182 32.2785 34.1182 32.3033 34.4326C32.2175 34.602 32.1251 34.7683 32.0291 34.9322C31.7988 35.3416 31.6304 35.7284 31.4951 36.1765C31.424 36.3881 31.3344 36.5751 31.2308 36.7726C31.0885 37.0442 30.9817 37.3088 30.8895 37.6013C30.7751 37.9644 30.624 38.2855 30.4477 38.622C30.3481 38.831 30.2766 39.0382 30.207 39.2588C30.0926 39.622 29.9415 39.943 29.7652 40.2796C29.6656 40.4885 29.5941 40.6957 29.5245 40.9164C29.4105 41.2763 29.2653 41.5998 29.0907 41.934C28.9112 42.2865 28.7561 42.65 28.5983 43.0126C28.5018 43.0126 28.4052 43.0126 28.3058 43.0126C28.2557 42.8363 28.2073 42.6595 28.1595 42.4825C28.1324 42.3841 28.1052 42.2856 28.0773 42.1843C27.8833 41.1486 28.183 40.3381 28.5252 39.3746C28.5514 39.2996 28.5776 39.2246 28.6046 39.1473C29.5377 36.478 30.7425 33.9343 32.0108 31.41Z" fill="#C7EC8B"/>
<path d="M17.5808 26.4375C17.6451 26.4375 17.7095 26.4375 17.7758 26.4375C18.1517 27.6352 18.5462 28.8956 17.9487 30.0888C17.5681 30.7044 17.0862 31.1318 16.4108 31.41C15.089 31.5641 14.1484 31.0924 13.0957 30.3375C12.9186 30.1825 12.9186 30.1825 12.8032 30.045C12.8032 29.9807 12.8032 29.9163 12.8032 29.85C12.8718 29.8239 12.9405 29.7977 13.0112 29.7708C14.6833 29.1072 16.0137 28.1981 17.2022 26.8436C17.3248 26.705 17.4524 26.5708 17.5808 26.4375Z" fill="#B2DD66"/>
<path d="M20.7983 31.1176C21.0915 31.2482 21.2856 31.3904 21.5052 31.6233C21.8141 31.9423 22.1383 32.235 22.4756 32.5237C22.6508 32.6776 22.6508 32.6776 22.8066 32.8455C22.8517 32.8866 22.8968 32.9277 22.9433 32.9701C23.1542 32.9479 23.1542 32.9479 23.3333 32.8726C23.3122 32.9721 23.3122 32.9721 23.2906 33.0737C23.3679 33.5925 23.8134 33.8867 24.2131 34.1945C24.3726 34.3095 24.5352 34.4202 24.6983 34.5301C24.7305 34.3049 24.7627 34.0796 24.7958 33.8476C24.828 33.8476 24.8602 33.8476 24.8933 33.8476C24.9255 34.7485 24.9577 35.6494 24.9908 36.5776C23.839 36.5776 22.8506 36.187 21.9828 35.4259C20.9347 34.3587 20.6058 33.0909 20.5808 31.6279C20.6033 31.4101 20.6033 31.4101 20.7983 31.1176Z" fill="#A3D54E"/>
<path d="M33.2784 32.6776C33.5408 32.6948 33.7979 32.7379 34.0584 32.7751C34.0018 33.2592 33.7798 33.6189 33.5465 34.0365C32.5413 35.8926 31.7419 37.8809 31.0205 39.8622C30.9397 40.084 30.8574 40.3052 30.775 40.5264C30.439 41.4391 30.1788 42.3562 29.9634 43.3052C29.9371 43.4204 29.9108 43.5356 29.8836 43.6543C29.7473 44.2518 29.6118 44.8495 29.4777 45.4475C29.4366 45.631 29.3951 45.8145 29.3537 45.998C29.309 46.2003 29.2659 46.4029 29.2253 46.606C29.1097 47.1808 29.1097 47.1808 28.8482 47.449C28.5984 47.5952 28.5984 47.5952 28.3059 47.6927C28.298 47.5888 28.2902 47.4848 28.2821 47.3777C28.1034 44.9872 28.1034 44.9872 27.9037 42.5983C27.8927 42.4708 27.8927 42.4708 27.8814 42.3408C27.8529 42.0286 27.8204 41.7512 27.7209 41.4527C27.6999 41.2832 27.683 41.1132 27.6687 40.9431C27.6602 40.8424 27.6517 40.7417 27.643 40.638C27.6345 40.5328 27.626 40.4276 27.6173 40.3192C27.6084 40.2163 27.5995 40.1134 27.5904 40.0073C27.5415 39.4142 27.5165 38.8302 27.5259 38.2352C27.558 38.2352 27.5902 38.2352 27.6234 38.2352C27.6845 38.6434 27.7454 39.0517 27.8062 39.46C27.8243 39.5811 27.8424 39.7022 27.861 39.8269C27.9517 40.4373 28.0375 41.0472 28.1109 41.6599C28.212 42.4497 28.4039 43.2166 28.5984 43.9877C28.8431 43.7001 28.9823 43.5217 29.0859 43.1529C29.192 42.7881 29.3033 42.6809 29.5734 42.4277C29.6418 42.2666 29.7069 42.1041 29.7684 41.9402C29.8187 41.8799 29.8689 41.8195 29.9207 41.7574C30.1129 41.4733 30.1118 41.2051 30.1584 40.8677C30.2924 40.5691 30.2924 40.5691 30.4509 40.2827C30.6407 39.9249 30.797 39.6158 30.8409 39.2102C30.8087 39.1136 30.7765 39.0171 30.7434 38.9177C30.8653 38.6434 30.8653 38.6434 31.0359 38.3327C31.0862 38.2301 31.1364 38.1275 31.1882 38.0219C31.3284 37.7477 31.3284 37.7477 31.5234 37.4552C31.5579 37.3257 31.5902 37.1956 31.6209 37.0651C31.7409 36.7224 31.8857 36.4726 32.1084 36.1876C32.3754 35.7817 32.5334 35.3806 32.6447 34.9079C32.6934 34.7251 32.6934 34.7251 32.7844 34.5686C32.932 34.2372 32.981 33.8922 33.0407 33.5368C33.1686 32.7874 33.1686 32.7874 33.2784 32.6776Z" fill="#97D72A"/>
<path d="M32.6932 32.9701C32.9285 33.323 32.899 33.447 32.8577 33.8598C32.8481 33.9646 32.8384 34.0694 32.8284 34.1774C32.7907 34.4326 32.7907 34.4326 32.6932 34.5301C32.6972 34.6327 32.7012 34.7352 32.7054 34.8409C32.6852 35.4551 32.3495 35.8831 32.0305 36.3876C31.7731 36.8045 31.6162 37.1718 31.5232 37.6501C31.4588 37.7145 31.3945 37.7788 31.3282 37.8451C31.2609 38.0067 31.1963 38.1694 31.1332 38.3326C31.0789 38.4251 31.0246 38.5176 30.9687 38.613C30.8119 38.9863 30.8703 39.208 30.9382 39.6001C30.8417 39.6967 30.8417 39.6967 30.7432 39.7951C30.6759 39.9567 30.6113 40.1194 30.5482 40.2827C30.4979 40.3752 30.4476 40.4677 30.3958 40.563C30.2381 40.8652 30.2381 40.8652 30.213 41.215C30.1494 41.6035 30.0222 41.7451 29.7682 42.0377C29.7199 42.1613 29.7199 42.1613 29.6707 42.2875C29.5732 42.5252 29.5732 42.5252 29.3782 42.7019C29.1387 42.9638 29.1136 43.1632 29.0438 43.5028C28.9621 43.7854 28.7966 43.971 28.5982 44.1827C28.5016 43.7966 28.4051 43.4105 28.3057 43.0127C28.4505 42.9644 28.4505 42.9644 28.5982 42.9152C28.7091 42.7311 28.7091 42.7311 28.7932 42.5069C28.9014 42.2455 29.0096 41.9965 29.1405 41.7452C29.2563 41.5034 29.3402 41.2802 29.4208 41.0261C29.5154 40.73 29.6239 40.4605 29.7682 40.1852C29.9105 39.9135 30.0173 39.6489 30.1094 39.3564C30.2238 38.9933 30.375 38.6722 30.5512 38.3357C30.6509 38.1268 30.7224 37.9196 30.7919 37.6989C30.8841 37.4063 30.9909 37.1418 31.1332 36.8701C31.2736 36.6021 31.3786 36.3425 31.4683 36.0536C31.6618 35.4412 31.9473 34.8689 32.3032 34.3351C32.2549 34.2386 32.2549 34.2386 32.2057 34.1401C32.3032 33.9776 32.4007 33.8151 32.4982 33.6526C32.5686 33.4267 32.6348 33.1994 32.6932 32.9701Z" fill="#ADE156"/>
<path d="M33.2782 32.6776C33.5406 32.6948 33.7978 32.7379 34.0582 32.7751C34.0016 33.2592 33.7796 33.6189 33.5463 34.0365C32.5026 35.9636 31.6839 38.0298 30.9382 40.0877C30.9094 40.1665 30.8806 40.2454 30.851 40.3266C30.7677 40.5555 30.6851 40.7846 30.603 41.0139C30.5789 41.0811 30.5548 41.1482 30.5299 41.2174C30.4118 41.5533 30.3145 41.8813 30.2557 42.2327C30.1592 42.2327 30.0626 42.2327 29.9632 42.2327C29.8184 42.3292 29.8184 42.3292 29.6707 42.4277C29.7089 42.1525 29.7388 41.977 29.9144 41.7574C30.1146 41.4738 30.1111 41.209 30.1582 40.8677C30.2923 40.5691 30.2923 40.5691 30.4507 40.2827C30.6405 39.9249 30.7968 39.6158 30.8407 39.2102C30.8085 39.1136 30.7763 39.0171 30.7432 38.9177C30.8651 38.6434 30.8651 38.6434 31.0357 38.3327C31.086 38.2301 31.1362 38.1275 31.188 38.0219C31.3282 37.7477 31.3282 37.7477 31.5232 37.4552C31.5577 37.3257 31.59 37.1956 31.6207 37.0651C31.7407 36.7224 31.8856 36.4726 32.1082 36.1876C32.3753 35.7817 32.5333 35.3806 32.6445 34.9079C32.6932 34.7251 32.6932 34.7251 32.7842 34.5686C32.9318 34.2372 32.9809 33.8922 33.0406 33.5368C33.1684 32.7874 33.1684 32.7874 33.2782 32.6776ZM29.5732 42.4277C29.6857 42.7653 29.6508 42.8691 29.5488 43.2016C29.5242 43.2849 29.4995 43.3683 29.4742 43.4541C29.3752 43.7028 29.2466 43.8734 29.0857 44.0852C29.0154 44.3924 29.0154 44.3924 28.9882 44.6702C28.8917 44.7024 28.7951 44.7346 28.6957 44.7677C28.5789 44.3686 28.577 44.2228 28.7749 43.8475C28.8117 43.7907 28.8486 43.7339 28.8865 43.6754C29.0105 43.4791 29.0105 43.4791 29.0857 43.1407C29.1898 42.7958 29.3002 42.6551 29.5732 42.4277Z" fill="#A0DB39"/>
<path d="M26.0632 27.9C26.6621 29.0642 26.7432 30.3012 26.7743 31.59C26.8135 33.2033 26.9352 34.8022 27.0893 36.4088C27.1226 36.7576 27.1547 37.1066 27.1869 37.4555C27.2615 38.2606 27.3373 39.0656 27.4132 39.8706C27.5104 40.9011 27.6069 41.9317 27.7024 42.9624C27.7405 43.374 27.7793 43.7856 27.8186 44.1971C27.8486 44.5135 27.8779 44.8299 27.9073 45.1463C27.9181 45.2575 27.9289 45.3686 27.94 45.4832C28.0077 46.2216 28.0251 46.9514 28.0132 47.6927C27.8523 47.6605 27.6914 47.6283 27.5257 47.5952C27.6232 46.8152 27.6232 46.8152 27.6807 46.4499C27.734 46.0212 27.6934 45.6265 27.6354 45.2003C27.6161 45.0448 27.597 44.8893 27.5782 44.7338C27.5643 44.6187 27.5643 44.6187 27.5501 44.5014C27.5151 44.1844 27.4954 43.8672 27.4769 43.5489C27.4447 43.0099 27.3933 42.4762 27.3307 41.9401C27.2542 41.2855 27.2025 40.633 27.1631 39.9749C27.1324 39.5558 27.0869 39.1399 27.0382 38.7226C26.9617 38.068 26.91 37.4154 26.8706 36.7574C26.8399 36.3383 26.7944 35.9224 26.7457 35.5051C26.6692 34.8504 26.6175 34.1979 26.5781 33.5398C26.542 33.046 26.4846 32.5555 26.4269 32.0638C26.3724 31.5899 26.3342 31.1185 26.3069 30.6422C26.2695 30.011 26.1822 29.3983 26.0632 28.7775C25.9988 28.8741 25.9345 28.9706 25.8682 29.07C25.8819 28.8933 25.8962 28.7166 25.9108 28.5399C25.9187 28.4415 25.9267 28.3431 25.9348 28.2417C25.9657 27.9975 25.9657 27.9975 26.0632 27.9Z" fill="#AADF50"/>
<path d="M27.5257 26.8275C27.5203 26.8977 27.5149 26.968 27.5093 27.0403C27.3531 29.114 27.2773 31.1838 27.2332 33.2626C27.1688 33.2304 27.1045 33.1982 27.0382 33.1651C26.9962 32.8671 26.9666 32.5758 26.9441 32.2761C26.9364 32.1858 26.9287 32.0954 26.9208 32.0023C26.8878 31.6147 26.857 31.227 26.8261 30.8393C26.7319 29.4518 26.7319 29.4518 26.4144 28.1034C26.3185 27.7713 26.3362 27.463 26.3557 27.12C26.4956 27.0707 26.6358 27.0221 26.7761 26.9738C26.8542 26.9466 26.9322 26.9195 27.0126 26.8915C27.2332 26.8275 27.2332 26.8275 27.5257 26.8275Z" fill="#93D028"/>
<path d="M32.6932 32.9701C33.0012 33.4321 32.8776 33.9008 32.7907 34.4326C32.6566 34.7617 32.6566 34.7617 32.4982 35.0176C32.4499 35.1141 32.4017 35.2107 32.3519 35.3101C32.2057 35.6026 32.0594 35.8951 31.9132 36.1876C31.8488 36.1876 31.7845 36.1876 31.7182 36.1876C31.6016 36.4625 31.5092 36.7274 31.4318 37.0164C31.3342 37.338 31.2136 37.5634 31.0357 37.8451C30.9245 38.1002 30.8339 38.3539 30.7493 38.619C30.6413 38.9301 30.5028 39.2096 30.3532 39.5026C30.2452 39.7568 30.1533 40.0062 30.0729 40.2705C29.9431 40.6309 29.7701 40.9294 29.5732 41.2577C29.5088 41.2577 29.4445 41.2577 29.3782 41.2577C29.473 40.8782 29.5803 40.5441 29.7621 40.1973C29.9064 39.9215 30.016 39.6534 30.1094 39.3564C30.2238 38.9933 30.375 38.6722 30.5512 38.3357C30.6509 38.1268 30.7224 37.9196 30.7919 37.6989C30.8841 37.4063 30.9909 37.1418 31.1332 36.8701C31.2736 36.6021 31.3786 36.3425 31.4683 36.0536C31.6618 35.4412 31.9473 34.8689 32.3032 34.3351C32.271 34.2708 32.2388 34.2064 32.2057 34.1401C32.3032 33.9776 32.4007 33.8151 32.4982 33.6526C32.5686 33.4267 32.6348 33.1994 32.6932 32.9701Z" fill="#B7E569"/>
<path d="M33.2783 32.6776C33.5407 32.6948 33.7979 32.7379 34.0583 32.7751C34.0035 33.2883 33.7471 33.6955 33.5038 34.1401C33.1077 34.8768 32.7389 35.6173 32.4008 36.3826C32.3687 36.3826 32.3365 36.3826 32.3033 36.3826C32.2669 35.8842 32.3877 35.5647 32.5958 35.1151C32.6292 34.9854 32.6619 34.8554 32.6933 34.7251C32.7232 34.6736 32.7532 34.6221 32.784 34.569C32.9319 34.2374 32.9809 33.8924 33.0407 33.5368C33.1685 32.7874 33.1685 32.7874 33.2783 32.6776Z" fill="#A0DB39"/>
<path d="M29.2807 41.4526C29.345 41.4848 29.4094 41.517 29.4757 41.5501C29.4113 41.6788 29.347 41.8075 29.2807 41.9401C29.345 41.9401 29.4094 41.9401 29.4757 41.9401C29.4025 42.6958 29.4025 42.6958 29.1832 42.9151C29.1387 43.1087 29.0944 43.3023 29.0506 43.496C28.9618 43.7791 28.7989 43.9686 28.5982 44.1827C28.5016 43.7966 28.4051 43.4105 28.3057 43.0126C28.4022 42.9805 28.4987 42.9483 28.5982 42.9151C28.7091 42.731 28.7091 42.731 28.7932 42.5069C28.9424 42.1474 29.1029 41.7992 29.2807 41.4526Z" fill="#B0E25C"/>
<path d="M32.6933 32.9701C33.0013 33.4321 32.8776 33.9008 32.7908 34.4326C32.6567 34.7617 32.6567 34.7617 32.4983 35.0176C32.45 35.1141 32.4017 35.2107 32.352 35.3101C32.2058 35.6026 32.0595 35.8951 31.9133 36.1876C31.8489 36.1233 31.7846 36.0589 31.7183 35.9926C31.7585 35.8981 31.7987 35.8036 31.8401 35.7062C31.8662 35.6445 31.8922 35.5828 31.919 35.5192C31.984 35.3712 32.0526 35.2248 32.1239 35.0797C32.161 35.0029 32.198 34.9261 32.2362 34.847C32.2721 34.7751 32.3079 34.7032 32.3448 34.6291C32.3633 34.5643 32.3817 34.4994 32.4008 34.4326C32.3364 34.3361 32.2721 34.2396 32.2058 34.1401C32.25 34.0737 32.2942 34.0074 32.3398 33.939C32.5147 33.6229 32.6043 33.3191 32.6933 32.9701Z" fill="#B1E25F"/>
<path d="M29.3782 42.6227C29.5732 42.9152 29.5732 42.9152 29.5062 43.2991C29.4162 43.6199 29.2882 43.821 29.0857 44.0852C29.0154 44.3924 29.0154 44.3924 28.9882 44.6702C28.8917 44.7024 28.7951 44.7345 28.6957 44.7677C28.5789 44.3686 28.577 44.2228 28.7749 43.8475C28.8115 43.791 28.848 43.7344 28.8857 43.6761C29.0417 43.4082 29.1016 43.115 29.1832 42.8177C29.2475 42.7533 29.3119 42.689 29.3782 42.6227Z" fill="#A5DD46"/>
<path d="M33.2783 32.6776C33.5406 32.6948 33.7978 32.7379 34.0583 32.7751C34.0021 33.2387 33.8096 33.5522 33.5708 33.9451C33.4083 33.7826 33.2458 33.6201 33.0833 33.4576C33.1395 32.8164 33.1395 32.8164 33.2783 32.6776Z" fill="#98CE3C"/>
<path d="M29.2807 41.4526C29.345 41.4848 29.4094 41.517 29.4757 41.5501C29.4435 41.6085 29.4113 41.6668 29.3782 41.7269C29.2604 41.9454 29.2604 41.9454 29.2807 42.2326C29.1782 42.4196 29.0673 42.602 28.9516 42.7811C28.8905 42.8769 28.8294 42.9726 28.7665 43.0713C28.5982 43.3052 28.5982 43.3052 28.4032 43.4027C28.371 43.274 28.3388 43.1453 28.3057 43.0126C28.4022 42.9805 28.4987 42.9483 28.5982 42.9151C28.7091 42.731 28.7091 42.731 28.7932 42.5069C28.9424 42.1474 29.1029 41.7992 29.2807 41.4526Z" fill="#B7E56B"/>
<path d="M30.0608 40.9652C30.1251 41.0617 30.1895 41.1583 30.2558 41.2577C29.9876 41.8183 29.9876 41.8183 29.7683 42.0377C29.7381 42.1202 29.7079 42.2026 29.6769 42.2876C29.6427 42.366 29.6085 42.4444 29.5733 42.5252C29.4767 42.5574 29.3802 42.5896 29.2808 42.6227C29.3513 42.2884 29.4748 41.995 29.6159 41.6843C29.658 41.5905 29.7001 41.4968 29.7435 41.4002C29.8658 41.1602 29.8658 41.1602 30.0608 40.9652Z" fill="#A6DE49"/>
<path d="M32.9857 32.4825C33.0501 32.5147 33.1144 32.5469 33.1807 32.58C33.1626 32.6705 33.1445 32.761 33.1259 32.8543C33.0597 33.1664 33.0597 33.1664 33.1807 33.4576C33.1365 33.7104 33.1365 33.7104 33.0588 33.9938C33.0342 34.0873 33.0096 34.1808 32.9842 34.2772C32.888 34.5305 32.8015 34.6514 32.5957 34.8226C32.6098 34.7542 32.6239 34.6858 32.6384 34.6154C32.7233 34.1813 32.8043 33.7671 32.7907 33.3235C32.7907 32.9824 32.835 32.7841 32.9857 32.4825Z" fill="#A7DC4C"/>
<path d="M18.0682 29.5576C18.229 29.7185 18.3899 29.8794 18.5557 30.0451C18.4591 30.0934 18.4591 30.0934 18.3607 30.1426C18.2894 30.3682 18.224 30.5958 18.1657 30.8251C18.1013 30.8251 18.037 30.8251 17.9707 30.8251C17.8314 30.0033 17.8314 30.0033 18.0682 29.5576Z" fill="#A9D461"/>
<path d="M29.9633 40.4777C30.1001 40.7514 30.0467 40.8648 29.9633 41.1602C29.8423 41.4251 29.7103 41.6832 29.5733 41.9402C29.4767 41.908 29.3802 41.8758 29.2808 41.8427C29.4835 41.3704 29.6837 40.9109 29.9633 40.4777Z" fill="#B1E25D"/>
<path d="M30.8409 39.2101C30.9018 39.3929 30.9018 39.3929 30.9384 39.6001C30.874 39.6644 30.8097 39.7288 30.7434 39.7951C30.7112 39.8775 30.679 39.96 30.6459 40.0449C30.5484 40.2826 30.5484 40.2826 30.3534 40.3801C30.3784 40.2397 30.4051 40.0996 30.4326 39.9596C30.4473 39.8816 30.462 39.8035 30.4772 39.7231C30.5558 39.4797 30.6479 39.3735 30.8409 39.2101ZM30.2559 40.3801C30.2881 40.5088 30.3202 40.6375 30.3534 40.7701C30.1603 40.8666 30.1603 40.8666 29.9634 40.9651C30.0193 40.6855 30.0474 40.5886 30.2559 40.3801Z" fill="#A6DE48"/>
<path d="M33.6682 32.8726C33.7969 32.8726 33.9256 32.8726 34.0582 32.8726C33.9169 33.2422 33.7509 33.5928 33.5707 33.9451C33.461 33.7866 33.461 33.7866 33.3757 33.5551C33.5092 33.0316 33.5092 33.0316 33.6682 32.8726Z" fill="#89C626"/>
<path d="M33.3758 33.5551C33.408 33.5551 33.4402 33.5551 33.4734 33.5551C33.5535 34.1642 33.2711 34.5996 32.9858 35.1151C32.9537 35.1151 32.9215 35.1151 32.8883 35.1151C32.867 34.733 32.9293 34.4674 33.0773 34.1157C33.1123 34.0307 33.1474 33.9458 33.1835 33.8582C33.2783 33.6526 33.2783 33.6526 33.3758 33.5551Z" fill="#97D52E"/>
<path d="M29.3783 43.2076C29.4105 43.3042 29.4427 43.4007 29.4758 43.5001C29.2869 43.8109 29.2869 43.8109 29.0858 44.0851C29.0127 43.9206 29.0127 43.9206 28.9883 43.6951C29.1772 43.427 29.1772 43.427 29.3783 43.2076ZM28.8908 44.0851C28.923 44.0851 28.9552 44.0851 28.9883 44.0851C28.9883 44.2782 28.9883 44.4713 28.9883 44.6702C28.8918 44.7023 28.7953 44.7345 28.6958 44.7677C28.7602 44.5424 28.8245 44.3172 28.8908 44.0851Z" fill="#9EDA39"/>
<path d="M27.7209 46.6202C27.7531 46.6202 27.7852 46.6202 27.8184 46.6202C27.8374 46.7623 27.8555 46.9045 27.8732 47.0468C27.8834 47.126 27.8936 47.2052 27.9041 47.2867C27.9159 47.4977 27.9159 47.4977 27.8184 47.6927C27.7219 47.6606 27.6253 47.6284 27.5259 47.5952C27.6112 46.8396 27.6112 46.8396 27.7209 46.6202Z" fill="#B5E45D"/>
<path d="M25.8682 44.0852C25.9969 44.1174 26.1256 44.1496 26.2582 44.1827C26.3225 44.5366 26.3869 44.8906 26.4532 45.2552C25.8682 44.4752 25.8682 44.4752 25.8682 44.0852Z" fill="#88BC2A"/>
<path d="M32.4983 34.92C32.5627 35.0166 32.627 35.1131 32.6933 35.2125C32.5968 35.4056 32.5003 35.5986 32.4008 35.7976C32.3365 35.701 32.2721 35.6045 32.2058 35.505C32.3369 35.0814 32.3369 35.0814 32.4983 34.92Z" fill="#A6DE48"/>
<path d="M31.8157 36.5776C31.88 36.6742 31.9444 36.7707 32.0107 36.8701C31.9142 37.0632 31.8176 37.2562 31.7182 37.4551C31.6538 37.4551 31.5895 37.4551 31.5232 37.4551C31.5914 37.1483 31.6949 36.8676 31.8157 36.5776Z" fill="#A5DD47"/>
<path d="M32.9857 32.4825C33.0501 32.5147 33.1144 32.5469 33.1807 32.58C33.1164 32.9018 33.052 33.2235 32.9857 33.5551C32.7907 33.2626 32.7907 33.2626 32.8212 32.964C32.8882 32.6775 32.8882 32.6775 32.9857 32.4825Z" fill="#A9D858"/>
</g>
<defs>
<clipPath id="clip0_1_2946">
<rect width="50" height="50" fill="white"/>
</clipPath>
</defs>
</svg>
