<svg width="50" height="50" viewBox="0 0 50 50" fill="none" xmlns="http://www.w3.org/2000/svg">
<g clip-path="url(#clip0_1_3010)">
<path d="M16.3095 0.784084C16.5643 0.956607 16.8039 1.13853 17.043 1.33207C17.2066 1.45074 17.2066 1.45074 17.3735 1.57182C17.7827 1.96287 18.0812 2.41555 18.3908 2.88729C18.8033 2.81789 19.1112 2.61472 19.4666 2.40128C21.8612 1.00648 24.5889 0.437574 27.3335 1.07934C28.7759 1.46154 30.1156 2.16722 31.3512 2.99097C31.4418 2.86126 31.4418 2.86126 31.5343 2.72893C32.5226 1.35521 33.7098 0.456014 35.3948 0.0878788C37.2341 -0.0707938 38.7975 0.136993 40.2679 1.33207C40.3532 1.39621 40.4386 1.46036 40.5264 1.52647C41.5093 2.35934 42.2499 3.69041 42.3616 4.98536C42.4208 6.77738 42.2662 8.18282 41.0974 9.62664C41.0183 9.73566 40.9392 9.8448 40.8576 9.95716C39.9863 10.8691 38.6237 11.6779 37.3332 11.7083C37.241 11.7057 37.1488 11.7031 37.0538 11.7002C37.0762 11.7827 37.0987 11.8652 37.1218 11.9501C37.5941 13.9942 37.6206 16.4373 36.9502 18.4396C36.9273 18.5084 36.9045 18.5773 36.8811 18.6481C36.2303 20.5498 35.033 22.0163 33.5286 23.3127C33.9561 23.7656 34.4267 24.1351 34.9218 24.5115C38.2882 27.1024 41.1231 30.3484 42.3417 34.5103C42.3417 34.6472 42.3417 34.7841 42.3417 34.9251C42.4093 34.8825 42.4768 34.8401 42.5465 34.7962C42.6372 34.7404 42.7278 34.6846 42.8211 34.627C42.9102 34.5716 42.9992 34.5163 43.0909 34.4593C43.9682 33.9824 44.9935 33.9625 45.9617 34.156C47.3517 34.6391 48.3112 35.9972 48.9334 37.2639C49.6389 38.7678 49.8505 40.2841 49.8457 41.93C49.8456 42.0399 49.8456 42.0399 49.8455 42.1519C49.8414 43.3094 49.7645 44.3975 49.392 45.5006C49.3693 45.5693 49.3465 45.6379 49.3231 45.7087C48.796 47.2491 47.9461 48.7863 46.4435 49.5508C43.7304 50.7745 39.3828 49.2144 36.7553 48.2429C34.9558 47.543 33.2166 46.6644 31.6033 45.6043C31.5223 45.5512 31.4412 45.4981 31.3577 45.4435C31.2883 45.3968 31.219 45.3501 31.1475 45.302C30.6058 45.0133 30.1628 45.1209 29.5951 45.2739C28.0614 45.6819 26.5658 45.7496 24.9877 45.7468C24.8368 45.7469 24.8368 45.7469 24.6828 45.7471C23.0092 45.7455 21.3693 45.6764 19.7602 45.1694C19.3388 45.0635 19.0711 45.1042 18.6868 45.3069C18.6127 45.3557 18.5387 45.4043 18.4625 45.4545C18.3353 45.5364 18.3353 45.5364 18.2056 45.62C18.0695 45.7084 18.0695 45.7084 17.9307 45.7987C14.2074 48.1544 8.39813 50.6702 3.87442 49.795C2.49226 49.3205 1.52881 47.942 0.912416 46.6869C0.206902 45.183 -0.00470063 43.6668 7.8806e-05 42.0208C0.000126363 41.9475 0.000185467 41.8744 0.000244913 41.7989C0.00433478 40.6415 0.0812101 39.5533 0.453685 38.4502C0.476453 38.3816 0.499233 38.3129 0.52269 38.2422C1.04974 36.7017 1.89968 35.1645 3.40217 34.4002C4.24144 34.0216 5.23728 33.9325 6.13641 34.1738C6.36147 34.2732 6.56807 34.3828 6.77835 34.5103C6.84999 34.5499 6.92163 34.5895 6.99544 34.6302C7.16677 34.7253 7.33572 34.8247 7.50419 34.9251C7.51192 34.8294 7.51964 34.7337 7.52761 34.6351C7.60976 34.0685 7.84053 33.5574 8.06143 33.0328C8.10744 32.9234 8.15334 32.814 8.20077 32.7012C9.57159 29.5174 11.7786 26.9231 14.5056 24.8156C14.5883 24.7515 14.6712 24.6876 14.7564 24.6215C14.9211 24.4945 15.0859 24.3679 15.2512 24.2416C15.6702 23.9192 16.0578 23.5938 16.4209 23.2089C16.3623 23.1829 16.3038 23.1568 16.2434 23.13C14.5453 22.2114 13.4199 20.1334 12.8667 18.353C12.5373 17.2374 12.4567 16.184 12.4549 15.0245C12.4547 14.953 12.4545 14.8814 12.4542 14.8076C12.4529 13.7437 12.5109 12.7322 12.792 11.7002C12.7013 11.6981 12.7013 11.6981 12.6089 11.6958C11.4559 11.6288 10.4928 11.1368 9.57777 10.456C9.47089 10.3791 9.36389 10.3021 9.25379 10.2228C8.25308 9.26568 7.53355 7.88238 7.45556 6.48903C7.45199 6.30154 7.45092 6.11399 7.45223 5.92647C7.45283 5.82727 7.45342 5.72807 7.45413 5.62586C7.48754 4.28185 7.89427 3.21242 8.74827 2.16151C8.81247 2.07624 8.87667 1.99097 8.94277 1.90313C10.6899 -0.158761 14.0232 -0.55593 16.3095 0.784084Z" fill="#D29C6A"/>
<path d="M6.37671 34.2779C6.51245 34.3524 6.64668 34.4298 6.77848 34.5111C6.88112 34.5646 6.98377 34.618 7.08952 34.6732C8.46091 35.7874 9.4552 37.6402 9.68157 39.3843C9.78679 39.3497 9.89189 39.3151 10.0003 39.2795C10.3903 39.1515 10.7804 39.0241 11.1707 38.8969C11.3395 38.8417 11.5085 38.7865 11.6772 38.7309C11.9198 38.6513 12.1625 38.5722 12.4053 38.4932C12.4808 38.4682 12.5564 38.4433 12.6341 38.4175C12.941 38.3183 13.1931 38.2437 13.5178 38.2437C13.5344 38.3179 13.5508 38.3921 13.5677 38.4684C14.0734 40.6283 15.0014 42.4857 16.8876 43.7259C17.4751 44.0746 18.0862 44.3765 18.702 44.6719C18.8404 44.7408 18.9788 44.8099 19.1168 44.8793C16.1525 48.1388 9.76634 49.6575 5.53105 49.8893C4.35322 49.931 3.52448 49.7876 2.61171 49.0072C0.930885 47.3895 0.0724052 45.1839 0.0042447 42.8636C0.00111785 42.5828 -0.000617782 42.3024 0.000202569 42.0216C0.000262015 41.9484 0.000309231 41.8751 0.000368677 41.7998C0.00447043 40.6422 0.0813339 39.5541 0.453809 38.4511C0.487967 38.3481 0.487967 38.3481 0.522814 38.243C1.04986 36.7025 1.89981 35.1654 3.40229 34.401C4.28754 34.0017 5.46095 33.878 6.37671 34.2779Z" fill="#E0AB78"/>
<path d="M46.4581 34.359C48.247 35.4889 49.1887 37.4126 49.6552 39.4133C49.8294 40.2496 49.8484 41.0777 49.8461 41.9294C49.8459 42.0027 49.8459 42.0759 49.8458 42.1513C49.8418 43.3088 49.7648 44.3969 49.3924 45.5C49.3697 45.5687 49.3468 45.6373 49.3234 45.7081C48.7964 47.2485 47.9464 48.7857 46.444 49.55C43.7308 50.7738 39.3831 49.2138 36.7556 48.2423C31.6482 46.2559 31.6482 46.2559 30.7295 44.878C30.8407 44.8223 30.9518 44.7667 31.0664 44.7095C31.142 44.6712 31.2178 44.6329 31.2957 44.5936C31.4808 44.5019 31.6672 44.4131 31.8546 44.3263C32.6031 43.9724 33.2223 43.5624 33.8399 43.0116C33.9504 42.914 33.9504 42.914 34.0631 42.8144C35.3367 41.6191 36.0064 39.9328 36.3283 38.2423C37.1639 38.4078 37.9627 38.6643 38.7714 38.9291C38.907 38.9732 39.0426 39.0172 39.1782 39.0612C39.5071 39.168 39.836 39.2752 40.1646 39.3828C40.1815 39.2848 40.1815 39.2848 40.1986 39.1848C40.3066 38.5974 40.4511 38.0674 40.696 37.523C40.7274 37.4521 40.7589 37.3813 40.7914 37.3084C41.0911 36.6589 41.4753 36.1006 41.9273 35.5465C41.9805 35.4764 42.0339 35.4062 42.0889 35.3339C43.0992 34.0553 44.9802 33.6537 46.4581 34.359Z" fill="#E0AB78"/>
<path d="M30.4313 35.8249C31.1408 36.4867 31.5562 37.2882 31.5909 38.2614C31.5721 39.2051 31.1358 39.9181 30.4946 40.5866C28.6555 42.1895 26.2022 42.5076 23.8515 42.4086C22.1048 42.2865 20.2403 41.5162 19.0371 40.2224C18.4843 39.5436 18.2075 38.777 18.2377 37.8978C18.3949 37.014 18.9153 36.1812 19.6349 35.6499C22.8407 33.5922 27.3239 33.3617 30.4313 35.8249Z" fill="#E0AB78"/>
<path d="M16.3095 0.784084C16.5643 0.956607 16.8038 1.13859 17.0429 1.33207C17.1498 1.40905 17.2568 1.48603 17.3669 1.56534C17.8109 1.98998 18.1465 2.48663 18.4945 2.99097C18.3408 3.37277 18.134 3.54992 17.8076 3.79451C15.4487 5.64186 13.8344 8.44521 13.0783 11.32C12.9993 11.5965 12.9993 11.5965 12.8956 11.7002C11.6481 11.7771 10.5242 11.2222 9.57774 10.456C9.46872 10.377 9.35957 10.2978 9.24722 10.2163C8.24913 9.26247 7.53328 7.87739 7.45553 6.48903C7.45196 6.30154 7.45089 6.11399 7.4522 5.92647C7.45279 5.82727 7.45339 5.72807 7.4541 5.62586C7.48751 4.28185 7.89424 3.21242 8.74823 2.16151C8.81243 2.07624 8.87664 1.99097 8.94274 1.90313C10.6899 -0.158761 14.0232 -0.55593 16.3095 0.784084Z" fill="#8F5C32"/>
<path d="M39.8139 0.975064C39.967 1.09139 40.1182 1.2102 40.2674 1.33148C40.3528 1.39563 40.4381 1.45978 40.5259 1.52588C41.5088 2.35876 42.2495 3.68982 42.3611 4.98477C42.4203 6.77679 42.2657 8.18223 41.097 9.62605C41.0179 9.73507 40.9387 9.84421 40.8572 9.95657C40.0036 10.8498 38.7025 11.6137 37.4482 11.7187C37.2818 11.719 37.1156 11.7105 36.9497 11.6996C36.9111 11.5799 36.8726 11.4602 36.833 11.3368C36.7688 11.1466 36.7039 10.9564 36.6386 10.7666C36.5969 10.6446 36.5552 10.5227 36.5123 10.3972C35.5161 7.57089 33.7629 4.99725 31.3507 3.19775C31.9836 1.78015 33.123 0.849633 34.5584 0.288168C36.3217 -0.235132 38.2802 -0.0683756 39.8139 0.975064Z" fill="#8F5D32"/>
<path d="M33.2179 23.3092C33.8064 23.5696 34.2889 24.0122 34.792 24.4063C34.9752 24.5492 35.1595 24.6906 35.3441 24.8316C38.7028 27.4099 41.2478 30.7529 42.4445 34.8583C42.4456 35.1289 42.4456 35.1289 42.2807 35.3581C42.2005 35.4322 42.1201 35.5063 42.0374 35.5825C41.0331 36.6243 40.5719 38.0172 40.1646 39.3799C39.6518 39.3201 39.1969 39.2102 38.7102 39.0393C38.6444 39.0164 38.5788 38.9935 38.5111 38.9699C38.3038 38.8977 38.097 38.8245 37.8901 38.7513C37.7485 38.7017 37.607 38.6523 37.4654 38.6029C37.1207 38.4824 36.7763 38.3611 36.432 38.2394C36.4345 38.1049 36.4345 38.1049 36.437 37.9677C36.5138 33.0837 35.4195 28.7043 31.9737 25.0718C31.8683 24.9675 31.7627 24.8637 31.6561 24.7608C31.4552 24.5534 31.4552 24.5534 31.4552 24.3459C31.5564 24.2885 31.6576 24.2311 31.7618 24.1719C31.8951 24.096 32.0284 24.0201 32.1615 23.9442C32.2282 23.9064 32.2948 23.8686 32.3635 23.8296C32.6546 23.6636 32.9388 23.4952 33.2179 23.3092Z" fill="#8F5D32"/>
<path d="M16.4211 23.3092C16.8767 23.4747 17.2807 23.7011 17.6978 23.9442C17.7646 23.9828 17.8315 24.0215 17.9005 24.0613C18.0642 24.1558 18.2277 24.2509 18.3911 24.3459C18.2352 24.7195 18.0188 24.9345 17.7237 25.2079C15.0678 27.8255 13.4478 31.8664 13.395 35.578C13.3935 35.9445 13.3969 36.3111 13.4014 36.6777C13.4025 36.8304 13.4033 36.9831 13.4042 37.1359C13.4064 37.5038 13.41 37.8716 13.4144 38.2394C12.9497 38.4026 12.4847 38.565 12.0195 38.7267C11.8614 38.7817 11.7033 38.837 11.5453 38.8927C11.3179 38.9724 11.0904 39.0515 10.8627 39.1304C10.7923 39.1553 10.7219 39.1803 10.6493 39.2059C10.3022 39.3253 10.0541 39.3799 9.68175 39.3799C9.64525 39.2608 9.60875 39.1417 9.57118 39.019C9.13283 37.6243 8.68211 36.3969 7.55907 35.3995C7.38025 35.0941 7.38477 35.0382 7.45016 34.7053C7.61292 34.1263 7.83561 33.5704 8.06816 33.0165C8.1137 32.9079 8.15911 32.7994 8.20607 32.6876C9.77485 29.0393 12.3928 26.4415 15.4839 24.0491C15.7987 23.8053 16.1113 23.5591 16.4211 23.3092Z" fill="#8F5D32"/>
<path d="M0.539464 39.067C1.71091 39.1539 2.73802 39.6128 3.66777 40.3168C3.77256 40.3917 3.87734 40.4665 3.98531 40.5436C4.95257 41.3846 5.63258 42.6894 5.84511 43.9457C5.87258 44.4038 5.8693 44.8607 5.86537 45.3195C5.86508 45.4495 5.86478 45.5795 5.86448 45.7134C5.86352 46.0564 5.86166 46.3993 5.85936 46.7423C5.85722 47.0933 5.85629 47.4443 5.85524 47.7953C5.85296 48.482 5.8495 49.1689 5.84511 49.8556C5.58022 49.8596 5.31539 49.8626 5.05049 49.8649C4.97603 49.8662 4.90158 49.8674 4.82487 49.8687C3.76643 49.8757 3.10849 49.485 2.3523 48.7573C0.63296 46.9682 -0.00291912 44.6253 0.0118353 42.1937C0.0129529 41.9761 0.0118352 41.7585 0.0105155 41.5408C0.00971895 40.7397 0.0353874 39.9541 0.246241 39.1764C0.349915 39.0726 0.349915 39.0726 0.539464 39.067Z" fill="#BF8958"/>
<path d="M49.4961 39.0713C50.163 40.9385 50.0224 43.6338 49.3924 45.4995C49.3696 45.5682 49.3469 45.6368 49.3234 45.7076C48.7963 47.2481 47.9464 48.7852 46.4439 49.5497C45.8833 49.8024 45.4231 49.8676 44.8109 49.8607C44.7332 49.8602 44.6554 49.8597 44.5754 49.8593C44.3839 49.8581 44.1924 49.8562 44.0008 49.8542C43.9912 49.1069 43.9838 48.3597 43.9794 47.6123C43.9773 47.2652 43.9741 46.9181 43.9695 46.571C43.9646 46.1702 43.9622 45.7695 43.9604 45.3687C43.9583 45.2464 43.9561 45.1241 43.9539 44.998C43.9535 43.4366 44.4996 41.9567 45.5743 40.8096C46.5804 39.8359 48.0652 38.9997 49.4961 39.0713Z" fill="#BF8958"/>
<path d="M27.2039 16.3622C27.6541 16.677 28.0319 16.9843 28.2407 17.5028C28.2877 17.9888 28.2945 18.2266 28.0722 18.6628C27.4542 19.3947 26.7078 19.8476 25.7523 19.9912C24.3663 20.0686 23.2408 19.9656 22.1234 19.058C21.7166 18.6106 21.5662 18.3342 21.5763 17.7195C21.6474 17.1833 22.0489 16.8054 22.4575 16.483C23.8516 15.57 25.7642 15.5546 27.2039 16.3622Z" fill="#905D32"/>
<path d="M24.0941 19.9933C24.6414 19.9933 25.1889 19.9933 25.7529 19.9933C25.7529 20.5065 25.7529 21.0198 25.7529 21.5485C26.8029 21.3439 27.7183 21.084 28.6609 20.5724C28.9672 20.408 28.9672 20.408 29.4855 20.2006C29.7592 20.577 30.033 20.9533 30.315 21.3412C29.8346 22.3018 28.4844 22.658 27.5155 23.0001C27.2057 23.0921 26.9019 23.1597 26.5824 23.2074C26.5135 23.2188 26.4445 23.2301 26.3734 23.2419C24.0279 23.5676 21.8974 23.0597 19.8832 21.856C19.8015 21.7887 19.7198 21.7215 19.6356 21.6522C19.6356 21.1747 19.7229 21.0674 19.9986 20.6932C20.0659 20.6007 20.1333 20.5082 20.2026 20.4129C20.255 20.3428 20.3075 20.2728 20.3615 20.2006C20.7715 20.354 21.1434 20.5493 21.5279 20.758C22.3448 21.1855 23.1943 21.3731 24.0941 21.5485C24.0941 21.0353 24.0941 20.5221 24.0941 19.9933Z" fill="#BF8958"/>
<path d="M30.1054 9.97412C30.6389 10.152 30.9993 10.5337 31.288 11.0048C31.7041 11.9118 31.679 12.9085 31.3642 13.8456C31.1394 14.3115 30.7842 14.7855 30.3144 15.0205C29.8878 15.0793 29.6307 15.1078 29.2568 14.884C28.6261 14.3629 28.3783 13.8537 28.2407 13.0506C28.1601 12.1156 28.231 11.2925 28.8385 10.544C29.2161 10.173 29.56 9.91824 30.1054 9.97412Z" fill="#905E33"/>
<path d="M20.1517 9.97412C20.6853 10.152 21.0456 10.5337 21.3343 11.0048C21.7504 11.9118 21.7252 12.9085 21.4104 13.8456C21.1856 14.3115 20.8306 14.7855 20.3606 15.0205C19.934 15.0793 19.6771 15.1078 19.3032 14.884C18.6723 14.3629 18.4245 13.8537 18.287 13.0506C18.2063 12.1156 18.2772 11.2925 18.8848 10.544C19.2623 10.173 19.6062 9.91824 20.1517 9.97412Z" fill="#905E33"/>
</g>
<defs>
<clipPath id="clip0_1_3010">
<rect width="50" height="50" fill="white"/>
</clipPath>
</defs>
</svg>
