<svg width="50" height="50" viewBox="0 0 50 50" fill="none" xmlns="http://www.w3.org/2000/svg">
<path d="M4.37179 5.49836C4.73637 5.75238 4.93452 6.15836 5.13833 6.54167C5.48367 7.25384 5.48367 7.25384 6.02829 7.80044L6.07471 7.82765C6.21852 7.88775 6.4144 7.85714 6.55593 7.80044C6.80842 7.67569 6.93411 7.44435 7.07111 7.21073C7.26699 6.87847 7.5059 6.60291 7.88067 6.47816C8.22033 6.39424 8.51706 6.47475 8.80915 6.64826C9.02994 6.80475 9.19186 7.03383 9.26429 7.2958C9.27672 7.38787 9.28068 7.48064 9.27559 7.57363C9.26203 8.07827 8.96655 8.406 8.6201 8.74168C8.55457 8.80178 8.48869 8.86076 8.42078 8.91859C8.17739 9.13292 8.03581 9.31099 7.94745 9.62172C7.92372 9.69651 7.89547 9.76454 7.86259 9.83485C7.72666 10.1161 7.72666 10.1161 7.70631 10.4212C7.75163 10.5072 7.81501 10.5823 7.89197 10.6423C8.10711 10.826 8.20677 11.0346 8.3053 11.2922C8.49886 11.8172 8.49886 11.8172 8.88045 12.1982C8.90542 12.2208 8.90542 12.2208 8.9122 12.2889C8.90542 12.366 8.90542 12.366 8.86576 12.4158C8.80756 12.4639 8.73784 12.4967 8.66417 12.5111L8.58045 12.535L8.49774 12.5577L8.41965 12.5804C8.24305 12.6302 8.24305 12.6302 8.18643 12.6302L8.20225 12.6722C8.29434 12.9251 8.38112 13.1802 8.4627 13.4365C8.52609 13.6236 8.58609 13.8108 8.64383 14.0002C8.67784 14.1083 8.71287 14.2156 8.74914 14.3223C8.80192 14.4798 8.85254 14.6374 8.9009 14.7962C8.94078 14.9244 8.98157 15.0536 9.02316 15.1818C9.20316 15.7432 9.20316 15.7432 9.27333 15.9824C9.33379 16.1899 9.39913 16.3964 9.46809 16.6016C9.53069 16.7887 9.58809 16.977 9.64132 17.1687C9.68507 17.3194 9.73121 17.4714 9.77955 17.6222C9.84444 17.8229 9.90403 18.027 9.9584 18.2323C9.98851 18.3479 10.0218 18.4625 10.0581 18.577C10.1135 18.7505 10.1498 18.9286 10.1883 19.1055L10.2472 19.3754C10.3014 19.3211 10.2992 19.2076 10.3128 19.1327L10.3672 18.8355L10.3966 18.6758L10.4566 18.3423L10.5981 17.5689L10.6117 17.4952C10.6797 17.1267 10.7487 16.758 10.8178 16.3896L10.9185 15.8464L10.9559 15.877C11.0759 15.9722 11.205 16.056 11.35 16.1105L11.3975 16.0867L11.4212 16.1344C11.5006 16.1525 11.5798 16.1681 11.6591 16.1808C11.7338 16.207 11.7338 16.207 11.7769 16.2625C11.8018 16.3192 11.8222 16.3714 11.8402 16.4303C11.8685 16.5233 11.9081 16.6072 11.9534 16.6934C11.9727 16.7343 11.9727 16.7343 11.9727 16.8069H12.0213C12.0636 16.918 12.1033 17.0303 12.1402 17.1425H12.1889L12.2184 17.2311C12.2524 17.3218 12.2954 17.3806 12.3565 17.4544L12.4279 17.5871C12.4777 17.679 12.5275 17.7594 12.5967 17.8389C12.6057 17.8563 12.6158 17.874 12.6272 17.8921C12.677 17.9738 12.7347 18.0429 12.797 18.1155L12.8309 18.1551C12.8837 18.2187 12.9393 18.2788 12.9974 18.3367C13.0518 18.3922 13.0834 18.4454 13.1231 18.5113L13.3269 18.7154L13.3711 18.7585L13.4661 18.8561C13.9893 19.3608 14.594 19.7712 15.2552 20.0695C16.8402 20.8384 18.7651 20.9199 20.4295 20.361C21.4848 19.9923 22.796 19.329 23.4302 18.365C23.4631 18.3663 23.4957 18.3747 23.5252 18.39C23.5671 18.449 23.5671 18.449 23.6044 18.5204L23.6417 18.5929C23.669 18.6542 23.669 18.6542 23.669 18.7018H23.7177C23.7528 18.7517 23.7528 18.7517 23.7935 18.8209C23.8729 18.949 23.9588 19.0659 24.054 19.1826C24.0773 19.2129 24.1015 19.2432 24.1264 19.2734C24.4865 19.7315 24.9054 20.1397 25.372 20.4868C26.6401 21.4598 28.2932 21.9949 29.9011 21.9157L29.969 21.9122C30.8226 21.8704 31.6787 21.7082 32.4599 21.3634L32.5165 21.3395C33.0781 21.0981 33.0781 21.0981 33.5887 20.7702C33.6311 20.7414 33.6794 20.7223 33.7304 20.7147V20.667C33.8922 20.5707 33.8922 20.5707 33.9455 20.5707V20.5231L33.9931 20.5151L34.0417 20.4992L34.0666 20.4267C34.1153 20.4108 34.1153 20.4108 34.1617 20.404V20.3552C34.2116 20.3141 34.2626 20.2744 34.3146 20.2362C34.4301 20.1522 34.4301 20.1522 34.5217 20.0434H34.5932L34.6123 20.0003C34.6453 19.9413 34.6791 19.9096 34.7312 19.8664C34.9067 19.7247 34.9067 19.7247 35.0256 19.5387H35.0732V19.4911L35.1445 19.4423L35.1762 19.3902C35.2192 19.3187 35.2691 19.261 35.3245 19.1974C35.3575 19.1578 35.3878 19.1163 35.4152 19.0726L35.4559 19.0102H35.5045L35.5125 18.9672C35.5277 18.9181 35.5535 18.8734 35.5884 18.8355C35.6619 18.7404 35.7242 18.6405 35.7854 18.5385L35.8137 18.4909C35.8621 18.4121 35.903 18.3288 35.936 18.2425H35.9835L36.0107 18.1518C36.0402 18.0623 36.0776 17.9817 36.1216 17.8977C36.2632 17.6211 36.3573 17.3229 36.4478 17.0256L36.4659 16.9668C36.4932 16.8803 36.5125 16.7909 36.5237 16.7014C36.5349 16.6214 36.5545 16.5426 36.5826 16.4667C36.5976 16.3896 36.61 16.3124 36.6199 16.2353L36.6288 16.1752C36.6708 15.8917 36.6832 15.6081 36.6832 15.3213V15.2692C36.68 14.7917 36.6411 14.3164 36.5666 13.8403C36.5306 13.6065 36.4799 13.3753 36.415 13.1484L36.381 13.018C36.2508 12.4759 36.039 11.9566 35.7549 11.4758C35.5963 11.215 35.5963 11.215 35.5521 11.0823H35.5045V11.0336H35.4321L35.4049 10.9485C35.3639 10.8449 35.3013 10.7511 35.2215 10.6729L35.1468 10.589L35.1106 10.5482L34.9611 10.3746C34.913 10.3202 34.8625 10.268 34.8094 10.2181L34.7233 10.132L34.6803 10.0889L34.5954 10.0016C34.4741 9.88475 34.344 9.77704 34.2138 9.66933L34.1482 9.61266C34.0915 9.5661 34.0916 9.5661 34.0179 9.54568L33.9229 9.42547C33.8787 9.38557 33.8271 9.35474 33.7711 9.33474C33.7177 9.31172 33.6693 9.27859 33.6284 9.23724C33.554 9.17328 33.4687 9.12384 33.376 9.09096C33.3103 9.05921 33.2605 9.01497 33.2039 8.96961C33.0454 8.87764 32.8756 8.80517 32.6999 8.75415V8.70538L32.6536 8.69858C32.5075 8.66252 32.3659 8.61195 32.23 8.54777C32.1349 8.5024 32.0352 8.4668 31.9335 8.44116L31.7873 8.406L31.7161 8.38786C31.6458 8.36971 31.6458 8.36971 31.5801 8.3459C31.4703 8.31189 31.3583 8.29146 31.245 8.26993L31.1771 8.25745C31.0525 8.23363 31.0525 8.23363 30.9268 8.2257L30.8612 8.20301C30.56 8.10549 30.2179 8.12476 29.9044 8.12476H29.8512C29.6643 8.12476 29.481 8.12817 29.2964 8.15312L29.1775 8.15198C29.0213 8.1513 28.8639 8.16423 28.7098 8.19054C28.634 8.20026 28.5581 8.20403 28.4812 8.20188V8.2495C28.3328 8.28693 28.1823 8.31835 28.0317 8.34363C27.9298 8.36291 27.8311 8.39614 27.7384 8.4423C27.676 8.47178 27.6116 8.49218 27.5458 8.51373L27.4983 8.53869C27.4507 8.56137 27.4507 8.56137 27.3851 8.5727C27.0454 8.63168 26.6503 8.8324 26.3718 9.03312C26.3193 9.06907 26.2641 9.10059 26.2064 9.12724C25.8814 9.30078 25.5928 9.54339 25.3176 9.78495L25.2576 9.83829C24.9699 10.0878 24.7084 10.3644 24.4763 10.6661L24.3585 10.8181C24.2872 10.7942 24.2872 10.7942 24.2567 10.7466L24.2261 10.6831C24.1551 10.5459 24.0743 10.4132 23.9861 10.2861C23.9329 10.2034 23.9329 10.2034 23.8558 10.1456C23.8039 10.0596 23.756 9.971 23.7121 9.88141H23.6634L23.6476 9.84172C23.6067 9.77026 23.5547 9.7237 23.4958 9.66589L23.4108 9.56839C23.3694 9.51891 23.3261 9.4713 23.2807 9.42547C23.2376 9.38099 23.1963 9.33484 23.1573 9.28714C23.0735 9.19464 22.9805 9.11136 22.8799 9.03767C22.8188 8.98595 22.761 8.93106 22.7055 8.87323C22.5469 8.7258 22.376 8.60333 22.1948 8.48653C22.1303 8.44116 22.1303 8.44116 22.0747 8.38446C22.0108 8.3222 21.9401 8.26766 21.863 8.22229C21.7858 8.17613 21.7147 8.12091 21.6502 8.05786C21.5879 8.03971 21.5879 8.03971 21.5302 8.03291V7.98527H21.4826L21.452 7.95352C21.4 7.9025 21.3456 7.87755 21.28 7.84579L21.1237 7.76981L20.7874 7.60084C20.4307 7.41713 20.0527 7.27992 19.6608 7.1926L19.6041 7.18012C19.4875 7.15405 19.3709 7.13022 19.2532 7.10868C19.2056 7.09734 19.2056 7.09734 19.1819 7.07353C19.0935 7.05765 19.0052 7.04517 18.9169 7.0361L18.8376 7.02475C18.6339 7.00083 18.4277 6.99323 18.2227 7.00208L18.2466 6.9295C18.3066 6.90228 18.3066 6.90228 18.3847 6.87847L18.4708 6.85125L18.5637 6.8229L18.6508 6.79454C18.8274 6.74012 19.0052 6.68795 19.183 6.63806C19.2415 6.6207 19.2996 6.60176 19.3573 6.58135C19.5261 6.52352 19.7026 6.48836 19.877 6.44868L20.0412 6.41125L20.1092 6.39651L20.2416 6.36249C20.4489 6.30647 20.6594 6.2602 20.8711 6.22413L20.9322 6.2128C21.3728 6.13045 21.8166 6.0631 22.257 6.00981C22.9478 5.92816 23.6384 5.91228 24.3291 5.91228H24.3891C24.8613 5.91228 25.3278 5.92021 25.7931 5.9633L26.0808 5.98599C26.5427 6.02001 27.0069 6.07898 27.4622 6.1731L27.6658 6.21392C27.9965 6.27971 28.3249 6.35455 28.6521 6.43847L28.7042 6.45207C28.9499 6.51637 29.1945 6.58702 29.4356 6.66527L29.5149 6.69022C30.1185 6.88414 30.7038 7.11548 31.2813 7.38537L31.3492 7.41713C32.2358 7.83105 33.0815 8.31301 33.8402 8.92539L33.9013 8.97301C34.1979 9.20776 34.4833 9.4561 34.7573 9.71693C34.9725 9.91422 35.1864 10.1138 35.3755 10.3361C35.4245 10.3921 35.4744 10.4468 35.5251 10.5005C35.6642 10.6491 35.7978 10.8045 35.9258 10.9655L35.9619 11.0119C36.4897 11.6788 36.9606 12.3728 37.3433 13.1439L37.3774 13.2097L37.4057 13.2687C37.4554 13.3543 37.5291 13.4229 37.6185 13.466C37.7317 13.5318 37.7317 13.5318 37.7736 13.61C37.7827 13.6895 37.7815 13.7687 37.7827 13.8482C37.7872 14.0682 37.8234 14.2258 37.9175 14.4266C37.9922 14.6148 38.0487 14.8087 38.1054 15.0037L38.1189 15.0525L38.1552 15.1761C38.1799 15.2381 38.2176 15.2941 38.2661 15.3394C38.5605 15.657 38.7418 15.9813 38.7384 16.4202V16.5018C38.7384 16.6401 38.7293 16.7649 38.6964 16.8987C38.6625 17.0869 38.7361 17.2479 38.7995 17.4216C38.9105 17.7276 39.0203 18.1256 38.9184 18.4477C38.8753 18.5305 38.8753 18.5305 38.8255 18.5476L38.7802 18.5544L38.7847 18.6247C38.8006 18.8594 38.8081 19.093 38.8074 19.3278V19.947C38.8074 20.3098 38.8052 20.6727 38.7882 21.0357C38.7768 21.2886 38.7768 21.5425 38.7779 21.7965V21.9384L38.7802 22.2752L38.8085 22.2128C39.0485 21.682 39.2943 21.1536 39.5445 20.6251L39.6385 20.429C40.1119 19.4265 40.6258 18.4444 41.1783 17.4804C41.3018 17.2617 41.4285 17.0427 41.5589 16.8262C41.5972 16.7637 41.6294 16.6979 41.655 16.6288L41.6053 16.6119C41.5205 16.5726 41.4412 16.5231 41.3685 16.4644L41.3255 16.4338C41.0788 16.2557 41.0788 16.2557 41.0085 16.1479C40.9995 16.0901 40.9995 16.0901 41.0085 16.0289C41.0497 15.9716 41.1069 15.9273 41.1727 15.902C41.2444 15.8619 41.3041 15.803 41.3448 15.7318L41.3947 15.6615L41.44 15.5969C41.5042 15.51 41.5803 15.4335 41.6665 15.3678C41.8022 15.2646 41.8849 15.1568 41.9721 15.0105C42.0875 14.8268 42.254 14.6806 42.4499 14.5887C42.4975 14.5649 42.4975 14.5649 42.5416 14.5161C42.5348 14.4141 42.4896 14.3414 42.4375 14.2553C42.3613 14.1237 42.2914 13.9899 42.2292 13.8515C42.1272 13.6248 42.0366 13.432 41.8464 13.2676L41.8124 13.237C41.6992 13.1377 41.5826 13.0419 41.4648 12.9478C41.1285 12.6802 40.8738 12.3615 40.816 11.9237C40.7991 11.7014 40.7968 11.4815 40.8885 11.2751L40.9156 11.2115C41.0539 10.9224 41.2962 10.6978 41.595 10.5833C41.9075 10.5005 42.177 10.5516 42.4555 10.7081C42.7635 10.8974 42.9231 11.173 43.0782 11.4872C43.2425 11.8239 43.2424 11.8239 43.5335 12.0474C43.7079 12.1029 43.8969 12.0878 44.0611 12.0054C44.4416 11.7899 44.6125 11.3579 44.8049 10.9813C45.4617 9.69995 45.4617 9.69995 45.9939 9.42776C46.0112 9.41714 46.029 9.40703 46.0471 9.39714C46.2622 9.29172 46.5408 9.29734 46.7695 9.3563C47.0061 9.44255 47.202 9.58318 47.3108 9.81224C47.4715 10.2125 47.3718 10.7081 47.2156 11.0936C47.0616 11.4304 46.8793 11.7536 46.6721 12.0609C46.4626 12.3637 46.4626 12.3637 46.4004 12.713C46.4626 12.7754 46.491 12.7697 46.5782 12.7697C46.8521 12.764 47.0649 12.6461 47.2994 12.518C47.4511 12.4375 47.6085 12.3683 47.7704 12.3115C48.0207 12.222 48.2573 12.1732 48.5234 12.1755L48.5992 12.1732C48.8563 12.1732 49.0691 12.2379 49.2537 12.4193C49.419 12.6098 49.4438 12.7947 49.4326 13.0397C49.4043 13.3651 49.1982 13.6065 48.9605 13.813C48.6264 14.0773 48.1792 14.1589 47.7704 14.2553C47.2235 14.388 46.8737 14.786 46.4468 15.1365C46.1297 15.3973 45.815 15.6399 45.4402 15.8123C45.3624 15.8494 45.0859 15.7651 45.0088 15.8044C44.8593 15.8793 44.8593 15.8793 44.8049 15.902C44.7517 15.9359 44.7416 15.9666 44.7144 16.0232L44.6351 16.1163C44.471 16.3033 44.6249 16.5754 44.5796 16.8182C44.5458 16.9962 44.5049 17.1629 44.4439 17.333C44.3917 17.4828 44.2163 17.4464 44.2333 17.6041C44.2298 17.6767 44.2298 17.6767 44.1992 17.7175C44.1472 17.7572 44.1257 17.7561 44.0611 17.7481C43.9333 17.7245 43.9671 17.8814 43.8505 17.8252L43.6683 17.7481C43.6173 17.7266 43.6173 17.7266 43.5483 17.7311C43.2618 18.2959 43.2618 18.2959 42.9946 18.865C42.9437 18.9796 42.8897 19.093 42.8326 19.2053C42.7388 19.3936 42.6514 19.5841 42.5711 19.7781C42.5031 19.9335 42.4307 20.0875 42.3525 20.2395C42.2603 20.4256 42.1714 20.6138 42.0865 20.8032L42.0604 20.861C41.7524 21.5368 41.4535 22.2218 41.1626 22.9023C41.0553 23.1529 40.9474 23.4024 40.8376 23.653C40.705 23.9558 40.5782 24.2609 40.4572 24.5681L40.4028 24.7019L40.3529 24.8244L40.3326 24.8766C40.2092 25.1908 40.0913 25.5059 39.977 25.8247C39.9717 25.8413 39.9653 25.8586 39.9578 25.8768C39.6362 26.7704 39.3645 27.68 39.1426 28.5984C39.0701 28.882 39.0294 29.1678 38.992 29.4581C38.9229 29.9991 38.9229 29.9991 38.8832 30.2315C38.8448 30.4663 38.8209 30.7032 38.795 30.9403C38.7729 31.1556 38.744 31.3712 38.7078 31.5867C38.6837 31.7386 38.664 31.8917 38.6488 32.0448C38.6262 32.2546 38.5956 32.4644 38.5572 32.6742C38.542 32.756 38.5284 32.8375 38.5164 32.9202C38.4915 33.0801 38.4653 33.24 38.4372 33.3988L38.4055 33.5825L38.2967 34.2119L38.2866 34.2664C38.2458 34.5011 38.2096 34.7358 38.1779 34.9706C38.1634 35.0873 38.14 35.2031 38.1076 35.3164L38.1926 35.3199C38.3137 35.3346 38.3884 35.3936 38.4678 35.4843C38.5311 35.5762 38.5278 35.6794 38.5334 35.787L38.5368 35.8438C38.5398 35.8921 38.5405 35.9407 38.539 35.9889L38.4914 36.0366C38.4768 36.0876 38.4768 36.0876 38.4688 36.1477C38.2514 37.4179 37.5607 38.6539 36.7364 39.6405L36.6856 39.7052C36.3685 40.0987 36.3685 40.0987 36.1861 40.2415C36.1287 40.296 36.0729 40.3524 36.0186 40.4105C35.9123 40.5195 35.7989 40.6214 35.6789 40.7145L35.5261 40.8393C35.286 41.0388 35.0336 41.2236 34.772 41.3937L34.7188 41.4278C34.062 41.8723 33.36 42.2431 32.6127 42.5311C32.5317 42.5626 32.4509 42.5954 32.3716 42.6298C32.23 42.6887 32.0863 42.7444 31.9402 42.7953C31.8316 42.8347 31.724 42.8764 31.6187 42.9201C31.4658 42.9773 31.3107 43.0261 31.1521 43.0665C31.0061 43.1073 30.8612 43.1507 30.7174 43.1969C30.5894 43.2383 30.4615 43.2772 30.3324 43.3135L30.1649 43.3613L30.115 43.3759C29.4831 43.5575 29.5869 43.068 28.5865 43.5459L28.5479 43.505C28.4347 43.371 28.3962 43.2216 28.3532 43.068C28.3203 42.9571 28.2909 42.8838 28.1789 42.806C28.1324 42.7873 28.1324 42.7873 28.0882 42.7804L28.0384 42.7736C27.9578 42.7678 27.8765 42.7665 27.7961 42.7694L27.8188 42.5526L27.8855 42.5313L27.9308 42.5159L28.0554 42.4783C28.1924 42.4374 28.3158 42.393 28.4358 42.329C28.4962 42.2977 28.5581 42.268 28.6216 42.2403C28.9465 42.0841 29.2001 41.8794 29.3054 41.5951C29.3361 41.3484 29.3361 41.3484 29.2533 41.2427L29.2103 41.1795C29.2364 41.1266 29.2364 41.1266 29.2624 41.0925C29.3077 41.0003 29.2964 40.8971 29.2817 40.8006C29.225 40.7203 29.1436 40.7015 29.0348 40.6718C28.0282 40.4652 26.4419 40.4892 25.4682 40.7827C25.394 40.8152 25.3289 40.858 25.2757 40.9089L25.1896 40.9755L25.1478 41.0072C25.0932 41.0489 25.0266 41.0812 24.9541 41.1019C24.8812 41.1223 24.8035 41.1305 24.7254 41.1258L24.6778 41.1079C24.4627 41.0883 24.2453 41.1168 24.0529 41.1899C23.9644 41.2735 24.003 41.398 24.0165 41.5004L24.0303 41.5857C24.0483 41.7086 24.0562 41.8274 24.0517 41.9502C24.0412 42.0654 24.0754 42.1806 24.1503 42.2822L24.1978 42.3539L24.1525 42.3701C24.1027 42.3905 24.1027 42.3905 24.054 42.4264C24.0436 42.5288 24.0684 42.6321 24.1264 42.7251L24.1468 42.7643L24.1978 42.8599L24.1095 42.8658C23.9611 42.8778 23.8162 42.9051 23.6713 42.9324C23.6764 42.9124 23.6829 42.8923 23.6905 42.8719C23.7381 42.7166 23.7765 42.5646 23.7969 42.4059C23.8071 42.3351 23.823 42.2719 23.8535 42.2053C23.9034 42.0944 23.925 41.9494 23.8603 41.8401C23.8309 41.777 23.8479 41.7334 23.8626 41.6677C23.8687 41.6005 23.8724 41.5328 23.874 41.4655L23.8762 41.4117C23.8774 41.3622 23.8762 41.3178 23.8626 41.27C23.7437 41.1838 23.5885 41.1676 23.4313 41.1437L23.3576 41.1327C23.2082 41.1138 23.0564 41.1028 22.9048 41.0994C22.8776 41.0994 22.8776 41.0994 22.8515 41.0977C22.7575 41.0977 22.7168 41.1045 22.6431 41.1498C22.5921 41.1975 22.5921 41.1975 22.5448 41.2522C22.3805 41.2642 22.2265 41.2376 22.0668 41.2128L21.991 41.2018C21.8359 41.1836 21.6887 41.1391 21.5608 41.0712C21.5353 41.0357 21.5115 40.9995 21.4894 40.9628C21.1758 40.7989 20.6583 40.8092 20.2892 40.7862L20.0662 40.7717C19.535 40.7375 19.0041 40.7248 18.4696 40.7238C18.3903 40.7238 18.3112 40.7233 18.2319 40.7222C17.9579 40.7194 17.6839 40.7317 17.4121 40.7588C17.2864 40.7726 17.1754 40.7879 17.094 40.8673C17.0429 40.996 17.094 41.1113 17.1494 41.2342L17.077 41.2522C17.0393 41.3048 17.0159 41.3631 17.0079 41.422C17.0002 41.4816 17.0081 41.5415 17.0317 41.5994C17.2072 41.9629 17.685 42.2104 18.1322 42.3718C18.2579 42.4116 18.3847 42.448 18.5149 42.4809L18.5828 42.5006C18.884 42.5902 19.2011 42.6321 19.5226 42.6431V42.8599L19.3982 42.8668C19.2804 42.8727 19.1808 42.8803 19.0969 42.9469C19.0659 42.9871 19.0436 43.0309 19.0313 43.0767L19.012 43.1304L18.9814 43.2354C18.902 43.4872 18.7516 43.7227 18.5398 43.9257L18.507 43.9599C18.3407 44.122 18.0926 43.5834 17.8548 43.4565L17.8073 43.4315C17.5129 43.2806 17.1925 43.183 16.8811 43.0765L16.8166 43.0538C16.4802 42.9382 16.1395 42.8326 15.7975 42.7363L15.7489 42.7216L15.622 42.6853C15.5379 42.658 15.4555 42.6258 15.3752 42.5889C15.2426 42.5365 15.1079 42.4903 14.9709 42.4505C14.1398 42.1885 13.3518 41.7973 12.6384 41.2938L12.5863 41.2576C12.3712 41.1045 12.1652 40.94 11.9671 40.7653L11.916 40.7223L11.7065 40.5362C11.4088 40.2686 11.1382 39.9727 10.8959 39.6529L10.8053 39.5395C10.4046 39.0349 10.1237 38.4655 9.90632 37.8611L9.87455 37.775C9.67538 37.1772 9.54173 36.5615 9.47715 35.9379C9.46944 35.8526 9.44809 35.7688 9.41382 35.6906C9.3783 35.6077 9.36316 35.5171 9.36961 35.4276V35.3367C9.37902 35.2353 9.41934 35.1394 9.48507 35.0613C9.57569 34.9931 9.67767 35.0079 9.78632 35.009L9.7784 34.9467C9.57569 33.3591 9.39569 31.76 9.30735 30.1612L9.30283 30.0794C9.20429 28.299 9.20429 28.299 9.21446 27.5392C9.23717 25.5887 8.85558 23.7176 8.3879 21.8349L8.30079 21.4903L8.26677 21.3576C8.20146 21.0933 8.13321 20.8291 8.06191 20.566L8.03807 20.4752L8.01434 20.3823L7.81049 19.5998L7.73694 19.3198L7.70745 19.2064L7.63275 18.9205C7.62208 18.8828 7.6119 18.845 7.60216 18.8072L7.52855 18.5282L7.33606 17.8001L7.18548 17.2298C7.10542 16.9213 7.0213 16.614 6.93411 16.3077L6.91259 16.2341C6.83334 15.9528 6.74956 15.6737 6.6601 15.3972C6.61322 15.2508 6.56906 15.1046 6.52762 14.9571C6.41904 14.5772 6.30456 14.1997 6.18342 13.8231L6.16643 13.7663L6.09397 13.5419L6.07471 13.4772L6.05773 13.4274C6.04528 13.3706 6.0464 13.3161 6.0464 13.2584L5.79958 13.3287L5.72938 13.349L5.59803 13.3865L5.47235 13.4262C5.38631 13.4353 5.30818 13.4421 5.23231 13.3989C5.19721 13.3332 5.19835 13.2855 5.20853 13.2107L5.24476 13.1767C5.29233 13.1256 5.29005 13.0974 5.29005 13.0292V12.8898L5.29233 12.2684V12.197C5.29233 12.0585 5.27987 11.9735 5.18475 11.8657C5.06361 11.7637 4.91075 11.7093 4.76355 11.6549C4.33895 11.4973 3.95512 11.2455 3.64148 10.9178C3.51694 10.7998 3.38332 10.6909 3.24292 10.5934L3.20216 10.5639C2.77982 10.2578 2.31333 10.0491 1.8208 9.87443C1.23654 9.66464 1.23654 9.66464 1.00782 9.48891L0.950083 9.44464C0.844103 9.36068 0.755331 9.25641 0.690789 9.13733C0.626247 9.01827 0.584361 8.88785 0.569642 8.75404C0.566715 8.69019 0.56557 8.62589 0.566247 8.56238L0.565111 8.49774C0.558549 8.34125 0.612445 8.18702 0.715706 8.06908C0.978385 7.84341 1.27843 7.81052 1.61359 7.82753C2.05064 7.86496 2.45147 8.05207 2.84775 8.22898C3.24292 8.41723 3.24292 8.41723 3.66978 8.45692C3.69582 8.22218 3.64827 8.08836 3.50221 7.90579L3.32332 7.69826C2.9508 7.26733 2.73 6.75248 2.75944 6.17865C2.77382 5.91783 2.88739 5.67175 3.07761 5.49256C3.45578 5.18411 3.93814 5.25103 4.33443 5.48576L4.37179 5.49836Z" fill="#EBC74D"/>
<path d="M14.5204 30.9362C14.926 30.9362 15.2548 30.6074 15.2548 30.2016C15.2548 29.7961 14.926 29.4672 14.5204 29.4672C14.1146 29.4672 13.7859 29.7961 13.7859 30.2016C13.7859 30.6074 14.1146 30.9362 14.5204 30.9362Z" fill="#2A2C32"/>
<path d="M9.91536 23.3595L15.0759 29.5964C21.0077 29.8274 26.8407 29.8274 32.5747 29.5964L39.1589 23.706C39.4595 23.8831 39.5861 24.1142 39.5386 24.3989L33.0493 30.7513L33.3457 35.9488C35.1649 35.9488 36.9778 35.9569 38.5596 35.6489C38.441 37.3044 37.7946 38.6051 36.8456 39.8757C35.5011 41.5696 33.2667 42.7439 30.1427 43.3983C30.1032 44.7074 29.6329 42.5835 29.2375 42.853C29.0398 42.5835 27.7899 44.4186 27.7106 42.8786C25.2588 43.1866 22.728 43.1866 20.118 42.8786C20.0477 44.2459 19.2746 43.1854 18.4102 43.7031C18.3977 43.8918 18.3746 44.0924 18.3384 44.3023C18.2888 44.1049 18.242 43.9627 18.198 43.8626C18.1584 43.8987 18.119 43.9387 18.0793 43.983C18.0604 43.8673 18.0438 43.7575 18.0293 43.6532C17.8264 43.6096 17.7136 44.3161 17.6859 43.3983C14.6409 42.7825 12.4264 41.6467 11.0423 39.9912C10.0538 38.7977 9.48035 37.3155 9.32214 35.5446C10.5481 35.8141 11.7343 35.9488 12.8812 35.9488L13.1778 30.809L9.55942 23.8792C9.5989 23.6482 9.71754 23.475 9.91536 23.3595Z" fill="url(#paint0_linear_1_2418)"/>
<path d="M14.2936 31.6157C14.6992 31.6157 15.0281 31.2869 15.0281 30.8813C15.0281 30.4756 14.6992 30.1467 14.2936 30.1467C13.8879 30.1467 13.5591 30.4756 13.5591 30.8813C13.5591 31.2869 13.8879 31.6157 14.2936 31.6157Z" fill="#2A2C32"/>
<path d="M18.9261 31.5016H26.4404V35.4003C26.4404 36.926 24.9714 37.9995 22.655 37.9995C20.3951 37.9995 18.9261 36.926 18.9261 35.4003V31.5016Z" stroke="#9EC7DF" stroke-width="0.35" stroke-linejoin="round"/>
<path d="M23.1641 38.6224C23.2448 39.8467 23.3255 41.1091 23.4466 42.2952" stroke="#9EC7DF" stroke-width="0.35" stroke-linecap="round"/>
<path d="M14.2311 42.4426C14.7303 42.0176 15.3767 41.815 16.02 41.6888C17.5841 41.3818 19.2894 41.3539 20.7962 41.6483C21.7394 41.8328 22.5488 42.7952 22.0104 43.5914C21.6431 44.1346 20.9207 44.4541 19.7153 44.55H14.6743C13.4844 44.55 13.1093 43.3972 14.2311 42.4426Z" fill="#2A2C32"/>
<path d="M35.4871 42.4426C34.9878 42.0176 34.3415 41.815 33.6982 41.6888C32.1342 41.3818 30.4288 41.3539 28.9219 41.6483C27.9787 41.8328 27.1693 42.7952 27.7078 43.5914C28.0751 44.1346 28.7975 44.4541 30.0029 44.55H35.0439C36.2338 44.55 36.609 43.3972 35.4871 42.4426Z" fill="#2A2C32"/>
<path d="M17.9089 6.84489H18.1563C18.2129 6.84827 18.2129 6.84827 18.2376 6.87201C18.2859 6.87201 18.3341 6.87088 18.3823 6.86862C18.58 6.86639 18.7779 6.8815 18.9733 6.91382C19.0874 6.92852 19.1835 6.94772 19.2896 6.9918L19.4332 7.0144L19.6513 7.07316C19.7439 7.09881 19.8377 7.12176 19.9315 7.14209C20.1304 7.19182 20.3202 7.27318 20.5101 7.35003L20.597 7.38505C20.7101 7.43026 20.8117 7.47885 20.9168 7.54213L21.0513 7.60994C21.1903 7.67853 21.3292 7.7512 21.467 7.82917V7.87663L21.5394 7.89133C21.632 7.91732 21.6863 7.96365 21.7563 8.02806C21.8219 8.08456 21.8931 8.13089 21.9665 8.17836C22.0162 8.21225 22.066 8.2439 22.1123 8.28345V8.33091L22.1541 8.35126C22.3394 8.44731 22.5022 8.58179 22.6626 8.71287L22.7055 8.7479C22.7847 8.81231 22.8535 8.88125 22.9258 8.95357L23.1066 9.11404C23.1638 9.16683 23.2151 9.22475 23.2603 9.28809V9.33548L23.3033 9.35361C23.3621 9.38757 23.3948 9.42142 23.4388 9.4734L23.4817 9.52423L23.5236 9.57507L23.5609 9.61809C23.6434 9.71298 23.6434 9.71299 23.6434 9.76611H23.6908C23.7173 9.79528 23.7422 9.8259 23.7654 9.85757L23.805 9.90851C23.8344 9.9582 23.8344 9.9582 23.8344 10.0293L23.9066 10.0531C23.9474 10.1074 23.9857 10.1624 24.0219 10.2181L24.0535 10.2667C24.1395 10.3989 24.2174 10.5346 24.2885 10.6758C24.3812 10.6453 24.4129 10.5899 24.4671 10.5141C24.5959 10.3413 24.7383 10.1842 24.8875 10.0293L24.9281 9.98642C25.1044 9.80559 25.2841 9.63496 25.4852 9.47902L25.5575 9.42257C25.823 9.21236 26.101 9.02364 26.3936 8.85752L26.4491 8.82475C26.605 8.73807 26.7643 8.65863 26.9281 8.58743L26.9959 8.55692C27.2671 8.43488 27.2671 8.43488 27.4163 8.41454C27.4954 8.41002 27.4954 8.41002 27.5417 8.35464L27.6615 8.33205L27.7971 8.27328C28.0083 8.18288 28.223 8.15801 28.4513 8.13993V8.09134L28.6875 8.05631L28.7542 8.045C28.9011 8.02353 29.0435 8.01675 29.1925 8.02015C29.2671 8.02127 29.2671 8.02127 29.3519 8.00885C29.5248 7.9885 29.6976 7.9919 29.8717 7.9919H29.9259C30.1384 7.9919 30.3496 7.99416 30.5598 8.01563L30.6118 8.02015C30.6906 8.02966 30.7677 8.05099 30.84 8.08343L30.9146 8.1162L30.962 8.09134C30.9988 8.09519 31.0353 8.10085 31.0717 8.10829L31.1384 8.12185L31.2072 8.13541L31.275 8.14785C31.3904 8.17044 31.4988 8.19643 31.6084 8.23486C31.6536 8.24763 31.6999 8.25893 31.7473 8.26875C31.9496 8.31961 32.1372 8.38741 32.3282 8.46991C32.3983 8.4985 32.4694 8.52415 32.5417 8.54676L32.6604 8.59422V8.64167L32.7485 8.65524C32.9247 8.69366 33.0943 8.78746 33.2366 8.89481C33.2872 8.93041 33.3414 8.96069 33.3983 8.98522C33.4918 9.03053 33.5779 9.08997 33.6536 9.1615C33.6897 9.19538 33.6897 9.19538 33.7485 9.21579C33.8389 9.25194 33.9101 9.31402 33.9767 9.38413V9.43163L34.0163 9.4384C34.0875 9.461 34.1316 9.49715 34.1892 9.54455L34.2513 9.59767L34.3587 9.68476C34.3918 9.71101 34.4238 9.73819 34.4548 9.76611V9.81465L34.5079 9.83049C34.5869 9.86778 34.6254 9.91069 34.6818 9.97736C34.7688 10.0768 34.7688 10.0768 34.8615 10.1717C34.909 10.2204 34.909 10.2204 34.9327 10.2927L35.0051 10.3164C35.0818 10.4001 35.1497 10.4905 35.2198 10.5798L35.2649 10.6351C35.3394 10.7266 35.3813 10.7933 35.3869 10.9142H35.4592V10.9628H35.5067C35.6287 11.1245 35.7248 11.3098 35.8186 11.4883L35.8401 11.5301C36.1395 12.0997 36.3259 12.7054 36.4638 13.3269L36.4751 13.3767C36.6921 14.3157 36.8242 15.569 36.5112 16.5069L36.4853 16.63C36.4428 16.8232 36.3878 17.0143 36.3203 17.2008L36.2965 17.2686C36.2475 17.4075 36.1917 17.5443 36.1293 17.6788L36.0277 17.8957C36.0186 17.9129 36.0099 17.9319 36.0016 17.9522C35.979 17.996 35.9576 18.0403 35.9373 18.0856H35.8898L35.8818 18.1387C35.8673 18.1978 35.8432 18.2539 35.8107 18.3059L35.7767 18.3624L35.7406 18.4189L35.7067 18.4754C35.6551 18.5593 35.5981 18.6393 35.5361 18.7161C35.4797 18.776 35.4797 18.776 35.4592 18.8517H35.4118L35.3937 18.8901C35.3299 19.0099 35.2468 19.1173 35.1485 19.2099L35.1079 19.2777L35.0762 19.3297H35.0287V19.3772L34.9813 19.401L34.9508 19.454C34.9015 19.5271 34.8439 19.5942 34.779 19.6541L34.7452 19.688L34.6457 19.784L34.5949 19.8406C34.5496 19.8789 34.5496 19.8789 34.4785 19.8789L34.4627 19.9208C34.4197 19.9931 34.3655 20.036 34.2988 20.0891L34.2287 20.1468C34.1678 20.1909 34.1678 20.1909 34.1203 20.1909V20.2383L34.0762 20.2575C34.0231 20.2835 34.0231 20.2835 33.9858 20.3254L33.9519 20.3581H33.9044V20.4056C33.7429 20.5016 33.7429 20.5016 33.6897 20.5016V20.5491C33.6506 20.5747 33.6107 20.5988 33.5699 20.6214L33.5056 20.662C31.9011 21.6679 29.9575 22.0068 28.1044 21.608C27.2773 21.4237 26.4885 21.0983 25.7768 20.6452L25.709 20.6022C25.3892 20.3942 25.0897 20.1581 24.8151 19.8947C24.7417 19.826 24.666 19.7592 24.588 19.6959C24.5563 19.6642 24.5563 19.6642 24.5563 19.6168L24.5146 19.5987C24.2987 19.4777 24.1327 19.1919 23.9835 18.9941L23.9451 18.9456L23.8015 18.7545C23.7496 18.6925 23.7131 18.6189 23.6954 18.5398H23.6479C23.5921 18.4382 23.5363 18.3342 23.4807 18.2291C23.4083 18.2212 23.4083 18.2212 23.371 18.2641L23.3315 18.3127C23.1134 18.5748 22.866 18.8111 22.5948 19.0179L22.5043 19.0901C21.0241 20.2541 19.1371 20.7288 17.2727 20.514C15.962 20.3422 14.6513 19.8055 13.6681 18.8981C13.6197 18.8537 13.57 18.8107 13.5191 18.7692L13.4501 18.7071V18.6596L13.4083 18.6426C13.3513 18.6066 13.301 18.5608 13.2602 18.507C13.2098 18.4454 13.1529 18.3895 13.0907 18.3398L13.0433 18.3002V18.2291L13.0004 18.2098C12.951 18.1843 12.9087 18.1471 12.8772 18.1014L12.8387 18.0539L12.7981 18.003L12.7564 17.9511C12.6105 17.7782 12.4818 17.5905 12.3732 17.3917L12.2219 17.1533C12.1823 17.081 12.1823 17.081 12.1823 16.9849H12.1348L12.075 16.8719L12.041 16.8074C12.0151 16.7453 12.0151 16.7453 12.0151 16.6493H11.9676C11.8004 16.2831 11.8004 16.2831 11.7574 16.1305C11.7326 16.0706 11.7326 16.0706 11.6681 16.056L11.5936 16.0447C11.4613 16.0193 11.3337 15.9743 11.2151 15.9114L11.1676 15.8888C10.989 15.7961 10.8591 15.6921 10.7925 15.4966C10.7736 15.4137 10.7683 15.3282 10.7766 15.2434C10.7766 15.2269 10.7778 15.2103 10.78 15.1938C10.8014 14.9304 10.832 14.6671 10.8603 14.4039L10.8806 14.223L10.9212 13.8433L10.9631 13.4613C11.0941 12.2522 11.0941 12.2522 11.1732 11.6872L11.1902 11.5595C11.2603 11.0362 11.2603 11.0362 11.4648 10.8623L11.519 10.8136C11.5925 10.7616 11.6433 10.7526 11.7292 10.7346C11.9529 10.6532 12.0117 10.4498 12.1077 10.2475C12.3506 9.74007 12.727 9.30048 13.1156 8.90272L13.1687 8.84622C13.3947 8.60438 13.6399 8.38403 13.9044 8.18514L13.9981 8.1162C15.128 7.289 16.5066 6.83923 17.9077 6.83923L17.9089 6.84489Z" fill="#DFDFE0"/>
<path d="M17.2313 23.1968L17.2731 23.2398C17.4697 23.4318 17.7601 23.494 18.0212 23.5449L18.1578 23.5799C18.289 23.6138 18.4223 23.6251 18.5557 23.6409L18.8573 23.6759L18.9194 23.6827C19.0833 23.7019 19.246 23.7041 19.411 23.7041H19.4923C19.7037 23.715 19.9138 23.6659 20.0991 23.5629C20.1557 23.5324 20.1557 23.5324 20.1974 23.4612H20.2448L20.272 23.5369C20.3511 23.7178 20.5285 23.7889 20.7003 23.8669C20.7755 23.8955 20.8528 23.92 20.9308 23.9404L20.9986 23.9584C21.3149 24.0387 21.6427 24.0714 21.9669 24.1054L22.0404 24.1133C22.9127 24.2026 22.9127 24.2026 23.7127 23.9348C23.7647 23.8917 23.7647 23.8917 23.811 23.8376C23.8596 23.7946 23.8595 23.7946 23.9194 23.7822C24.0019 23.8003 24.0223 23.8376 24.0721 23.9064C24.3138 24.2274 24.6257 24.3415 25.0145 24.4048L25.0709 24.4138C25.2765 24.4462 25.4833 24.4726 25.6901 24.493L25.7511 24.4998C26.037 24.5298 26.3252 24.5461 26.6133 24.5483L26.7082 24.5506C26.9591 24.5483 27.2066 24.5189 27.3997 24.345C27.4336 24.2952 27.4336 24.2952 27.4551 24.2432L27.4777 24.1924L27.4947 24.1539C27.5591 24.1833 27.5896 24.1991 27.6336 24.2567C27.8619 24.5371 28.254 24.6161 28.5952 24.6568C28.8178 24.679 29.0404 24.6881 29.2642 24.6839H29.6992C30.1048 24.6839 30.1048 24.6839 30.5082 24.6568C30.4201 24.9348 30.2054 25.1428 30.0066 25.3496L29.9512 25.4083C29.819 25.5439 29.6777 25.6637 29.5286 25.7812L29.4868 25.814C28.1647 26.848 26.5828 27.3396 24.9331 27.5317L24.8845 27.5384C24.3455 27.6018 23.7998 27.6018 23.2574 27.6006H23.1669C22.7093 27.6006 22.2562 27.5893 21.7997 27.5486L21.7037 27.5407C21.2867 27.5106 20.872 27.4574 20.4607 27.3814L20.3748 27.3645C19.211 27.1271 18.1488 26.6864 17.2674 25.884L17.1488 25.7789C16.6946 25.3733 16.3104 24.8964 16.0076 24.3664C15.985 24.325 15.9613 24.2834 15.9364 24.2421C15.8233 24.0432 15.7352 23.8353 15.6482 23.6228L15.6121 23.5358C15.5284 23.3267 15.5284 23.3267 15.5284 23.2465L15.585 23.2544L15.9284 23.3076C16.3352 23.3675 16.7352 23.3617 17.1263 23.2172C17.1816 23.1979 17.1816 23.1979 17.2291 23.1979L17.2313 23.1968Z" fill="#221411"/>
<path d="M47.308 9.13018C47.4984 9.24429 47.6345 9.42231 47.69 9.62888C47.8565 10.4389 47.3685 11.1846 46.9235 11.8378C46.6901 12.1536 46.6901 12.1536 46.6209 12.5206C46.6915 12.5846 46.7217 12.5787 46.8187 12.5798C47.1239 12.5728 47.361 12.4492 47.6232 12.315C47.7744 12.239 47.9258 12.1749 48.0885 12.1191L48.1477 12.0989C48.4263 12.0064 48.6898 11.954 48.9861 11.9564L49.0706 11.954C49.3556 11.954 49.5939 12.0217 49.7993 12.2118C49.9835 12.4113 50.01 12.6048 49.9973 12.8614C49.9671 13.2021 49.7364 13.4551 49.4715 13.6712C49.0996 13.9479 48.6797 14.0833 48.2246 14.1854C47.6143 14.3231 47.1491 14.6901 46.6738 15.057C46.3208 15.3301 45.969 15.5842 45.5517 15.7647C45.4651 15.8035 45.379 15.8435 45.2944 15.8848C45.1268 15.9642 45.1268 15.9642 45.0675 15.988C45.007 16.0212 44.9956 16.0557 44.9666 16.115L44.8771 16.2125C44.6943 16.4072 44.6439 16.564 44.5935 16.818C44.5556 17.0045 44.5115 17.179 44.4421 17.3572C44.3843 17.5139 44.3639 17.6825 44.3829 17.8476C44.3804 17.9248 44.3804 17.9248 44.345 17.9663C44.2996 17.9996 44.2996 17.9996 44.1963 17.9996C44.0261 17.9759 43.8723 17.9117 43.7146 17.8487L43.6643 17.8298C43.0212 17.5781 42.4033 17.2787 41.8108 16.9333C40.7719 16.33 40.7719 16.33 40.6194 16.1139C40.6092 16.0533 40.6092 16.0533 40.6194 15.9892C40.6656 15.9288 40.7296 15.8826 40.8034 15.8562C40.8831 15.8146 40.9497 15.7534 40.9951 15.6792L41.0494 15.6044L41.0997 15.5367C41.1717 15.4461 41.2574 15.3658 41.3531 15.2981C41.5045 15.1888 41.5965 15.076 41.6935 14.924C41.8222 14.7316 42.0062 14.5773 42.2244 14.4811C42.2785 14.4561 42.2785 14.4561 42.3277 14.4051C42.319 14.2982 42.2698 14.2221 42.2104 14.132C42.1261 13.9942 42.0491 13.8541 41.9797 13.7092C41.865 13.4717 41.7654 13.2698 41.5536 13.0977L41.5145 13.0656C41.3885 12.9611 41.2598 12.8602 41.1274 12.7629C40.7529 12.4825 40.4705 12.1489 40.4062 11.6905C40.386 11.4589 40.3848 11.2273 40.4857 11.0112L40.516 10.9447C40.6698 10.6478 40.9421 10.4009 41.2725 10.2869C41.6204 10.2002 41.9218 10.2537 42.2319 10.4175C42.5737 10.6159 42.7514 10.9043 42.9254 11.2344C43.1082 11.586 43.1082 11.586 43.4323 11.8199C43.6264 11.878 43.8369 11.8626 44.0185 11.7772C44.4421 11.5491 44.6338 11.098 44.8469 10.7048C45.5782 9.36294 45.5782 9.36294 46.1707 9.07794L46.2313 9.04706C46.573 8.89031 46.9954 8.95799 47.3117 9.13375" fill="#515362"/>
<path d="M4.17835 5.20202C4.58161 5.46639 4.80076 5.88889 5.02619 6.2878C5.40814 7.02896 5.40814 7.02896 6.01051 7.59782L6.06186 7.62615C6.22091 7.68871 6.43756 7.65684 6.5941 7.59782C6.87336 7.46801 7.01239 7.22724 7.16391 6.98413C7.38057 6.63831 7.6448 6.35153 8.05937 6.22172C8.43509 6.13438 8.76322 6.21817 9.08628 6.39875C9.33046 6.56161 9.50955 6.8 9.58966 7.07264C9.60341 7.16847 9.60778 7.26501 9.60216 7.36179C9.58716 7.88698 9.2604 8.22805 8.87712 8.5774C8.80481 8.63995 8.73192 8.70133 8.65677 8.76151C8.38751 8.98457 8.2309 9.16982 8.13327 9.49326C8.10695 9.57118 8.07564 9.64191 8.03937 9.71514C7.88909 10.0078 7.88909 10.0078 7.86649 10.3254C7.91666 10.415 7.98672 10.493 8.07191 10.5555C8.30989 10.7467 8.42005 10.9639 8.52898 11.2317C8.74311 11.7782 8.74311 11.7782 9.16514 12.1747C9.19271 12.1984 9.19271 12.1984 9.20029 12.2691C9.19023 12.3683 9.16638 12.3871 9.08628 12.4485C9.02367 12.4745 9.02367 12.4745 8.94729 12.4945L8.85463 12.5182L8.80197 12.5335C8.7326 12.5517 8.66299 12.5706 8.59283 12.5902C8.33734 12.6621 8.08198 12.7317 7.8214 12.7861C7.60472 12.8333 7.39058 12.8924 7.17769 12.9513L7.00236 12.9985C6.78196 13.0591 6.56279 13.1236 6.34363 13.1932L6.26474 13.2168L5.62605 13.4199C5.49455 13.4643 5.35429 13.4826 5.21529 13.4729C5.16268 13.4445 5.16268 13.4445 5.13639 13.3986C5.12637 13.3231 5.12637 13.3231 5.13639 13.2487L5.17647 13.2133C5.22906 13.1602 5.22655 13.1306 5.22655 13.0599V12.9146L5.22906 12.268V12.1936C5.22906 12.0496 5.21529 11.9611 5.11009 11.8489C4.97609 11.7427 4.80702 11.6861 4.64422 11.6294C4.1746 11.4654 3.75006 11.2035 3.40316 10.8622C3.26541 10.7395 3.11764 10.6263 2.96234 10.5248L2.91726 10.4941C2.45015 10.1755 1.93418 9.95827 1.38942 9.77649C0.743222 9.55816 0.743222 9.55816 0.490251 9.37524L0.426386 9.3292C0.309166 9.2417 0.210989 9.13328 0.139603 9.00935C0.0682166 8.88543 0.0218725 8.74971 0.00560155 8.61044C0.00236194 8.54399 0.00111192 8.47709 0.00184109 8.41099L0.000591121 8.34372C-0.00665477 8.18086 0.0529352 8.02034 0.167155 7.8976C0.457688 7.66274 0.789556 7.62852 1.16025 7.64622C1.64365 7.68516 2.08697 7.87989 2.52528 8.06401C2.96234 8.25993 2.96234 8.25993 3.43447 8.30123C3.46327 8.05693 3.41068 7.91767 3.24913 7.72764L3.05126 7.51167C2.63925 7.06319 2.39505 6.52738 2.42761 5.9302C2.44351 5.65875 2.56911 5.40265 2.77951 5.21618C3.19778 4.89516 3.73128 4.9648 4.16959 5.20909L4.17835 5.20202Z" fill="#515361"/>
<path d="M20.1692 26.0132H20.2528C20.8347 26.0166 21.4167 26.0335 21.9816 26.1906L22.0584 26.211C22.298 26.278 22.5364 26.3477 22.7748 26.4189L22.8291 26.4347L22.9647 26.4765C23.2562 26.5556 23.5466 26.559 23.8461 26.559H23.9172C24.4403 26.559 24.9454 26.4946 25.454 26.4008C25.906 26.3217 26.3715 26.246 26.8324 26.2381L26.9138 26.2369C27.4822 26.2279 28.0212 26.2584 28.5748 26.3816V26.4528C27.9579 26.8065 27.2981 27.08 26.6088 27.2664L26.55 27.2834C26.0076 27.4337 25.4438 27.5195 24.889 27.5851L24.8403 27.5908C24.3014 27.6552 23.7568 27.654 23.2132 27.654H23.1228C22.6347 27.6566 22.1466 27.6366 21.654 27.5941C21.2076 27.5614 20.7647 27.502 20.3206 27.4167C19.516 27.2529 18.637 27.0156 17.9703 26.524L17.9465 26.4777L18.1059 26.3963L18.1511 26.3737C18.7658 26.064 19.4731 26.0053 20.1511 26.0132H20.1692Z" fill="#6A3D38"/>
<path d="M36.3279 12.3433C36.398 12.4247 36.433 12.5128 36.4691 12.6123C36.4744 12.6287 36.4808 12.6461 36.4884 12.6643C36.5448 12.8235 36.5977 12.9852 36.6465 13.1479L36.7053 13.3388C36.7957 13.6271 36.8624 13.9096 36.894 14.2091L36.9143 14.3751C36.946 14.6271 36.9572 14.8734 36.9551 15.1267V15.4826C36.9572 15.5615 36.9478 15.6408 36.9267 15.7165L36.9855 15.7154H37.0646L37.1414 15.7143C37.1811 15.7118 37.2209 15.7164 37.259 15.7278C37.3369 15.747 37.4149 15.7425 37.494 15.7414H37.5449L37.668 15.7402C37.7132 15.6046 37.7245 15.4792 37.7313 15.3368L37.7335 15.269L37.7426 15.0599L37.7629 14.5683L37.8432 14.6361L37.8884 14.6746C38.0827 14.8441 38.2511 15.0351 38.4092 15.2374L38.4658 15.3097C38.6952 15.6046 38.8013 15.8476 38.798 16.2205V16.3019C38.798 16.4397 38.7889 16.5641 38.7561 16.6986C38.7223 16.8862 38.7968 17.0454 38.8601 17.2184C38.9698 17.5235 39.0794 17.9201 38.9776 18.2411C38.9358 18.3236 38.9358 18.3236 38.8917 18.345C38.8183 18.3484 38.7924 18.3213 38.7347 18.2761C38.4115 18.0411 38.0465 17.936 37.668 17.8195L37.4533 17.7495C37.4601 17.5359 37.4873 17.3291 37.5223 17.1189C37.5844 16.7438 37.6274 16.3844 37.6206 16.0036C37.3878 15.9286 37.146 15.8882 36.9019 15.8838L36.9041 15.9233C36.9087 16.1098 36.8815 16.2883 36.85 16.4714L36.842 16.5189C36.8002 16.7674 36.7449 17.0081 36.6635 17.2477L36.6397 17.3223C36.5945 17.4602 36.5467 17.5969 36.4963 17.7314L36.4782 17.7789C36.434 17.8914 36.3838 18.0015 36.3279 18.1089L36.415 18.1099C36.7449 18.1213 37.0658 18.1541 37.3573 18.3247C37.3528 18.3688 37.3528 18.3688 37.3325 18.4196C37.2473 18.4601 37.1528 18.4788 37.059 18.4739H36.781C36.6081 18.4739 36.4488 18.4602 36.2805 18.4196L36.1607 18.3959L36.1404 18.4298C35.9934 18.6784 35.8409 18.9123 35.659 19.1372L35.6047 19.205C35.4884 19.3485 35.3674 19.4864 35.242 19.6209C35.19 19.6766 35.1399 19.7331 35.0917 19.7904C35.0248 19.8643 34.9528 19.9339 34.877 19.9983C34.8239 20.0448 34.7719 20.0928 34.7211 20.1418C34.1516 20.6842 33.4556 21.0888 32.7437 21.4075L32.6928 21.4301C32.2646 21.6165 31.816 21.7533 31.3595 21.8369C31.3392 21.842 31.3185 21.8466 31.2973 21.8505C30.9968 21.9086 30.6917 21.9464 30.3855 21.9635L30.3369 21.9668C30.0126 21.9853 29.6872 21.9838 29.3629 21.9624L29.312 21.9589C29.0171 21.9422 28.7245 21.9064 28.4341 21.8516C27.8047 21.7228 27.1911 21.5092 26.6261 21.2165L26.5685 21.1871C26.1471 20.9679 25.7493 20.7057 25.3821 20.4029L25.3459 20.3735C24.9368 20.048 24.5708 19.6729 24.2578 19.2547L24.1685 19.1417C24.017 18.9417 23.8792 18.7303 23.7561 18.5122L23.8035 18.4896L23.834 18.5383C23.9278 18.6886 24.0261 18.8298 24.1391 18.9676L24.2126 19.0581C24.5718 19.5146 24.99 19.9214 25.4555 20.2672C26.7662 21.2651 28.3934 21.7703 30.0431 21.6911C30.8951 21.6493 31.7493 21.4877 32.5403 21.1441L32.5968 21.1205C33.1561 20.8797 33.1561 20.8797 33.6669 20.5532C33.7091 20.5242 33.7574 20.5053 33.8081 20.4978V20.4504C33.9697 20.3542 33.9697 20.3542 34.0227 20.3542V20.3068L34.0691 20.3L34.1189 20.2831L34.1414 20.2108C34.1923 20.1949 34.1923 20.1949 34.2386 20.1882V20.1395C34.2875 20.0989 34.3384 20.0593 34.3912 20.0209C34.5064 19.9372 34.5064 19.9372 34.5968 19.8288H34.6691L34.6872 19.7859C34.7199 19.726 34.755 19.6955 34.8059 19.6525C34.981 19.5112 34.981 19.5112 35.0996 19.3259H35.1471V19.2785L35.2183 19.231L35.2499 19.1779C35.2929 19.1067 35.3437 19.049 35.3991 18.9858C35.4315 18.9466 35.4612 18.905 35.4884 18.8615L35.5302 18.8005H35.5777L35.5855 18.7575C35.6005 18.7083 35.6263 18.6631 35.6612 18.6252C35.7434 18.5158 35.8194 18.4015 35.8872 18.2828C35.9346 18.2015 35.9765 18.1224 36.0081 18.0343H36.0556L36.0827 17.9439C36.112 17.8546 36.1505 17.7743 36.1934 17.6908C36.3369 17.3924 36.4521 17.0827 36.5381 16.7629C36.564 16.6748 36.5855 16.59 36.5945 16.4986C36.6061 16.4187 36.6262 16.3403 36.6544 16.2646C36.6688 16.1877 36.6812 16.111 36.6917 16.0341L36.7008 15.9742C36.7426 15.6917 36.7551 15.4092 36.7539 15.1232V15.0713C36.7507 14.5955 36.7117 14.122 36.6375 13.6474C36.6014 13.4146 36.5508 13.1841 36.4861 12.958L36.4454 12.8111L36.3889 12.61L36.3708 12.5445L36.3551 12.4857C36.3437 12.4326 36.3426 12.4326 36.3426 12.3365L36.3279 12.3433Z" fill="#3E3F41"/>
<path d="M15.4235 22.1754C15.61 22.1957 15.7874 22.2285 15.9693 22.2771L16.0518 22.2997C16.2868 22.3645 16.5207 22.4342 16.7524 22.5088C17.4902 22.7416 18.2439 22.9145 19.0009 23.0795C19.0975 23.1021 19.193 23.1253 19.289 23.1495C19.4326 23.1868 19.5783 23.2105 19.7253 23.2331C19.827 23.249 19.9207 23.2716 20.0191 23.3066C20.1704 23.3427 20.3242 23.3597 20.479 23.3755C20.6507 23.3942 20.8213 23.4168 20.992 23.4433L21.1095 23.4603C21.6292 23.5382 22.149 23.5947 22.6688 23.6456C22.8608 23.6651 23.0529 23.6858 23.245 23.7077L23.3196 23.7156L23.6981 23.7608C23.6914 23.8354 23.6835 23.8727 23.6303 23.927C23.0044 24.3485 21.8224 24.1281 21.1219 23.9948C20.7783 23.9247 20.444 23.84 20.1953 23.579C20.1592 23.5224 20.1592 23.5224 20.1592 23.4264H20.1106L20.0959 23.4693C20.0507 23.5417 20.0009 23.562 19.9263 23.5981C19.9016 23.6101 19.8763 23.6225 19.8507 23.6354C19.227 23.8874 18.1106 23.6592 17.489 23.4173C17.3626 23.3663 17.245 23.2964 17.14 23.2105V23.163L17.089 23.1823C16.6733 23.3359 16.2235 23.3732 15.7896 23.2907C15.6619 23.2754 15.5377 23.2403 15.4202 23.1868C15.3845 23.1197 15.3605 23.0467 15.3489 22.9721L15.3286 22.8896C15.2156 22.3924 15.2156 22.3924 15.3048 22.2251C15.3489 22.1822 15.3489 22.1822 15.4134 22.1754H15.4235Z" fill="#ECEDEC"/>
<path d="M33.2768 10.9908L33.3186 11.0269C33.6463 11.3208 33.9683 11.6564 34.1864 12.0429V12.0904H34.2338C34.5706 12.7108 34.5706 12.7108 34.6406 12.9278L34.617 13.0001L34.5944 12.9549C34.3797 12.5119 34.1051 12.1005 33.7797 11.7345L33.7457 11.696C33.5525 11.4813 33.3401 11.2858 33.1095 11.1117L33.0531 11.0688C31.9796 10.2631 30.6123 9.92735 29.2904 10.0958C29.0011 10.1392 28.7151 10.2049 28.4361 10.2925C27.3106 10.6236 26.3908 11.383 25.7242 12.3379L25.6496 12.443C25.3784 12.8272 25.1829 13.3154 25.071 13.7651L25.0564 13.8238C24.8643 14.546 24.8293 15.3043 24.9524 16.0388L24.9626 16.0987C25.0304 16.492 25.166 16.8592 25.3163 17.2265C25.3344 17.2829 25.3344 17.2829 25.3106 17.3304C24.7446 16.3202 24.4858 15.0817 24.7276 13.9289L24.7502 13.7968C24.9106 12.8215 25.444 11.9322 26.1288 11.2315L26.1661 11.1919C26.3265 11.0236 26.4926 10.8733 26.679 10.7343C26.7302 10.6966 26.7799 10.6567 26.8281 10.6145C26.8937 10.5614 26.8937 10.5614 26.9412 10.5614L26.9661 10.4902C27.0225 10.4518 27.0225 10.4518 27.0937 10.4134C27.1177 10.402 27.1415 10.3893 27.1649 10.375C27.2293 10.3467 27.2293 10.3467 27.3004 10.3467V10.2992L27.7864 10.0823C27.8994 10.0318 28.0135 9.98725 28.1288 9.94892L28.2181 9.91954C29.9694 9.36798 31.913 9.76131 33.2802 10.9931L33.2768 10.9908Z" fill="#494949"/>
<path d="M24.0115 23.8682C24.2239 23.8676 24.4352 23.8728 24.6465 23.884L24.746 23.8886L25.4216 23.9202L25.5607 23.927L25.877 23.9406L25.9549 23.9439C26.4148 23.9606 26.8736 23.9674 27.3335 23.9643H27.6725C28.3539 23.9632 29.0397 23.9606 29.7177 23.9564H29.8589C30.0951 23.9564 30.3708 23.9632 30.5685 24.1078C30.6183 24.2774 30.6036 24.5259 30.52 24.6819C30.3324 24.7779 30.0804 24.7576 29.8736 24.7576H29.6183L29.3584 24.7587C28.694 24.761 28.025 24.7485 27.5279 24.2525L27.4826 24.2038C27.4797 24.2205 27.4774 24.2378 27.4759 24.2558C27.4465 24.3644 27.3855 24.4231 27.3008 24.4932C27.0804 24.6141 26.8488 24.6231 26.6024 24.6208H26.5516C24.6646 24.6107 24.6646 24.6107 24.1335 24.0898C24.016 23.9654 24.016 23.9654 24.016 23.8682" fill="#EAEBEB"/>
<path d="M21.0726 9.61732C21.1292 9.66139 21.1292 9.66139 21.1856 9.68732C21.2409 9.71555 21.2534 9.74722 21.276 9.80378C21.2123 9.77243 21.1506 9.73805 21.0896 9.70087C20.8817 9.56982 20.667 9.45003 20.4455 9.34159C20.3665 9.30201 20.3665 9.30201 20.3054 9.26472C19.3765 8.71549 17.9777 8.74713 16.972 8.99122L16.8523 9.03868L16.694 9.08163C16.5664 9.11722 16.441 9.16412 16.3212 9.2218C16.2459 9.25649 16.1698 9.28919 16.093 9.32003C15.2376 9.68618 14.5336 10.38 14.0138 11.1395L13.9867 11.1801C13.7178 11.5938 13.52 12.0503 13.4025 12.5249L13.3867 12.586L13.3234 12.838C13.2443 13.169 13.224 13.4979 13.2229 13.8369V13.8991C13.2229 14.5014 13.3189 15.0969 13.546 15.662L13.5686 15.7185C13.8624 16.4338 14.2839 17.0294 14.8341 17.5718C14.6918 17.5718 14.5743 17.4045 14.4748 17.3084L14.4331 17.2689C14.0793 16.931 13.7799 16.5411 13.5426 16.1162L13.5166 16.0699C13.3958 15.8552 13.2918 15.6303 13.207 15.3986L13.1776 15.3184C12.8443 14.376 12.8273 13.3747 13.0398 12.4029L13.0534 12.3408C13.0711 12.2466 13.0988 12.1543 13.1359 12.0661C13.1788 11.9644 13.207 11.8649 13.2319 11.7565H13.2793L13.285 11.6989C13.3506 11.3881 13.5641 11.0886 13.7336 10.8231L13.7743 10.753C13.8059 10.7044 13.8059 10.7044 13.8534 10.6807L13.8771 10.6084H13.9257V10.5371H13.9732V10.4886H14.0206L14.0285 10.4434C14.0443 10.3937 14.0443 10.3937 14.1166 10.345L14.1404 10.2739H14.1879V10.2252H14.2364L14.2545 10.1823C14.2855 10.1302 14.3266 10.0849 14.3754 10.049C14.4356 10.0001 14.4907 9.94524 14.5392 9.88514C14.588 9.82795 14.6476 9.78118 14.7144 9.74722C14.7392 9.72462 14.7634 9.70055 14.7867 9.67493C14.8986 9.58003 14.8986 9.58003 14.9539 9.58003V9.53138L15.0184 9.49638L15.1833 9.3969C15.7471 9.0319 16.3811 8.77764 17.0364 8.64656L17.0963 8.63525C17.7901 8.51095 18.4975 8.53389 19.1868 8.70125C19.8704 8.8685 20.5087 9.17815 21.0737 9.60868L21.0726 9.61732Z" fill="#494949"/>
<path d="M37.1182 13.2432L37.1996 13.2399C37.4007 13.2399 37.5951 13.2625 37.7454 13.4093L37.7917 13.4658L37.8166 13.4884L37.8199 13.5902C37.8245 13.8569 37.8459 14.0591 37.9601 14.3021C38.0222 14.4603 38.073 14.6185 38.1228 14.7812L38.1397 14.8344C38.1781 14.9643 38.1781 14.9643 38.151 15.0434L37.7679 14.6614L37.7601 14.8694L37.751 15.0717L37.7352 15.4106L37.7329 15.4739C37.7194 15.7632 37.7194 15.7632 37.6482 15.8333L37.4923 15.8378L37.4052 15.839C37.238 15.8345 37.0719 15.8073 36.9081 15.7858V15.7068C36.9217 14.9417 36.9012 14.2037 36.6821 13.4692C36.664 13.4057 36.6515 13.3404 36.6448 13.2749C36.8019 13.2466 36.9578 13.2443 37.1182 13.2432Z" fill="#9EA4A7"/>
<path d="M12.7128 17.8826C12.8179 17.9842 12.9083 18.0939 12.9998 18.2091C13.0428 18.2657 13.0428 18.2657 13.0958 18.2882L13.1264 18.3425C13.1716 18.4171 13.2235 18.4668 13.2869 18.5278L13.5095 18.7527C13.9987 19.2307 14.5829 19.6228 15.2044 19.9166L15.3004 19.9619C16.8823 20.728 18.8033 20.8105 20.4643 20.2534C21.5174 19.8861 22.8259 19.2251 23.4586 18.2645C23.5015 18.2679 23.5015 18.2679 23.5535 18.2882C23.6281 18.4035 23.6281 18.4035 23.6213 18.4781C23.5943 18.5471 23.5513 18.5865 23.4994 18.6397L23.4338 18.7041L23.3005 18.8375C23.1388 18.9967 22.9672 19.1459 22.7875 19.285C22.3705 19.6115 21.9231 19.8726 21.4541 20.1065L21.3977 20.1336C20.0756 20.78 18.4711 20.9506 17.0247 20.6806L16.9457 20.6659C16.3603 20.5545 15.793 20.3664 15.2506 20.1065L15.1874 20.076C14.5863 19.7822 14.0349 19.398 13.549 18.9347L13.5072 18.8951C13.3038 18.7007 13.1184 18.4905 12.9513 18.2645L12.9173 18.2193L12.8156 18.0792L12.7829 18.0362C12.7117 17.9357 12.7117 17.9357 12.7117 17.8826H12.7128Z" fill="#3F3F40"/>
<path d="M36.8927 15.9577C37.3864 15.9464 37.3864 15.9464 37.609 16.0763C37.7786 16.4154 37.5616 17.0934 37.5029 17.4437C37.4531 17.7522 37.4125 18.0619 37.3707 18.3704L37.2983 18.3952L37.2192 18.3534C36.9367 18.2066 36.6046 18.2122 36.2938 18.2031L36.339 18.0901L36.3786 17.9918C36.4154 17.8984 36.4547 17.8053 36.4961 17.7127C36.73 17.1499 36.8215 16.56 36.8927 15.9498V15.9577Z" fill="#9FA5A7"/>
<path d="M37.7972 13.9275C37.8627 14.0258 37.8988 14.1298 37.9407 14.2394L37.9633 14.2993C38.0152 14.4372 38.0621 14.5761 38.1034 14.7174L38.1203 14.7717C38.1587 14.9005 38.1587 14.9005 38.1317 14.9807C37.7769 14.7129 37.7769 14.7129 37.7328 14.5298C37.7226 14.375 37.7441 14.2247 37.7734 14.071L37.787 13.9841L37.7972 13.9275Z" fill="#E3BC49"/>
<path d="M30.9044 13.7018L30.9699 13.7324C31.4366 13.9663 31.7722 14.3947 31.9529 14.8737C32.1247 15.397 32.0829 15.9451 31.8603 16.4446C31.6027 16.9383 31.1937 17.3282 30.6626 17.5023L30.5948 17.5215L30.5236 17.5441C30.0039 17.6785 29.4321 17.6062 28.9643 17.335C28.7813 17.2175 28.6128 17.0797 28.4615 16.9236C28.2117 16.6637 28.0716 16.336 27.9846 15.9903L27.9666 15.9202C27.876 15.4535 27.9546 14.9698 28.188 14.5528C28.293 14.3574 28.4275 14.2048 28.5834 14.05L28.6343 13.9968C29.2275 13.4239 30.1823 13.3448 30.9055 13.6906L30.9044 13.7018Z" fill="#B08A2A"/>
<path d="M30.9044 13.7018L30.9699 13.7324C31.4366 13.9663 31.7722 14.3947 31.9529 14.8737C32.1247 15.397 32.0829 15.9451 31.8603 16.4446C31.6027 16.9383 31.1937 17.3282 30.6626 17.5023L30.5948 17.5215L30.5236 17.5441C30.0039 17.6785 29.4321 17.6062 28.9643 17.335C28.7813 17.2175 28.6128 17.0797 28.4615 16.9236C28.2117 16.6637 28.0716 16.336 27.9846 15.9903L27.9666 15.9202C27.876 15.4535 27.9546 14.9698 28.188 14.5528C28.293 14.3574 28.4275 14.2048 28.5834 14.05L28.6343 13.9968C29.2275 13.4239 30.1823 13.3448 30.9055 13.6906L30.9044 13.7018ZM29.6389 13.8703L29.5902 14.2771L29.4716 14.0624H29.423L29.4027 14.016C29.3801 13.9629 29.3801 13.9629 29.3281 13.9426L29.3507 14.2297L29.1699 14.1551C29.1146 14.1313 29.1146 14.1313 29.0648 14.1336V14.2297L29.0196 14.2387L28.9597 14.2523L28.9009 14.2635C28.8264 14.2828 28.8072 14.2917 28.7654 14.3596C28.7549 14.38 28.7428 14.4003 28.7293 14.4206L28.6818 14.4692C28.6602 14.5355 28.6509 14.6048 28.6547 14.6749V14.7313C28.6547 14.7811 28.6547 14.7811 28.6818 14.8275H28.371L28.4185 14.8986H28.4671L28.4897 14.9709C28.5405 15.0161 28.5405 15.0161 28.5993 15.059L28.7055 15.1382L28.2761 15.162V15.2105C28.3484 15.261 28.4219 15.3088 28.4976 15.354C28.562 15.4015 28.562 15.4015 28.5857 15.4738L28.5315 15.4772L28.4603 15.4839L28.3902 15.4897C28.3353 15.4962 28.2809 15.5069 28.2275 15.5212V15.5687L28.3744 15.6049L28.4592 15.6253C28.5246 15.6389 28.5914 15.6443 28.658 15.641V15.6885L28.6016 15.7032C28.4841 15.7484 28.3755 15.8072 28.275 15.8795V15.9281H28.7055L28.5326 16.0999L28.4829 16.1484L28.4321 16.1994C28.3925 16.2332 28.3925 16.2332 28.3948 16.2626L28.6117 16.2468C28.6829 16.2411 28.6829 16.2411 28.7541 16.2151C28.7223 16.2976 28.6809 16.3756 28.6309 16.4491L28.5925 16.5067L28.562 16.5497C28.6976 16.5433 28.8298 16.5021 28.945 16.4299C28.9216 16.4926 28.8924 16.553 28.858 16.6106C28.8174 16.6717 28.8174 16.6717 28.8253 16.7655C28.9328 16.7463 29.0321 16.6966 29.1123 16.622L29.1597 16.8604L29.3032 16.7892V16.7418H29.3519V17.0287C29.4716 17.0084 29.4716 17.0084 29.5382 16.9316L29.5902 16.8604L29.6389 17.2198C29.7405 17.1384 29.7405 17.1384 29.7405 17.0581L29.7338 17.004H29.7823L29.8536 16.8604L29.8727 16.9441L29.8988 17.0502L29.9112 17.1056C29.9232 17.1517 29.9361 17.1975 29.9496 17.2435L29.997 17.2672C30.0479 17.1317 30.0795 17.0051 30.093 16.8604H30.1405L30.1552 16.9101L30.1733 16.9746L30.1925 17.0378C30.2106 17.0944 30.2321 17.1441 30.2603 17.196H30.3089C30.321 17.141 30.3335 17.086 30.3462 17.031L30.3666 16.9383C30.3869 16.8637 30.3869 16.8637 30.3552 16.8129H30.4038L30.4186 16.8604C30.4637 16.9587 30.5259 17.0412 30.596 17.1237H30.6186L30.6332 16.9982L30.64 16.9282C30.6432 16.8731 30.6364 16.818 30.6196 16.7655L30.7382 16.8604C30.8106 16.8344 30.831 16.8208 30.8648 16.7497L30.8818 16.6931C30.9755 16.7124 31.058 16.7497 31.145 16.7892C31.1308 16.6853 31.1149 16.5812 31.0976 16.4784L31.1405 16.4977C31.2818 16.5632 31.2818 16.5632 31.4321 16.5971C31.3627 16.4717 31.2829 16.3519 31.1937 16.2388L31.2343 16.2502C31.3518 16.2773 31.4558 16.292 31.5755 16.2863C31.5394 16.1948 31.4851 16.1507 31.4061 16.092C31.292 16.0038 31.292 16.0038 31.2648 15.9519L31.327 15.9767C31.4073 16.0002 31.493 16.001 31.5734 15.9789L31.6569 15.9643L31.7191 15.9519C31.6528 15.8817 31.5744 15.8242 31.4874 15.7823C31.3631 15.7179 31.3631 15.7179 31.3371 15.6648L31.3823 15.6626C31.5236 15.6512 31.6377 15.6242 31.7665 15.5687V15.5212C31.6321 15.4806 31.4965 15.4407 31.3597 15.4015L31.4128 15.3722L31.4806 15.3326L31.5485 15.2941L31.6004 15.258V15.2105H31.6479V15.1382L31.3135 15.1145L31.4942 14.9506C31.5303 14.9189 31.5659 14.8858 31.6004 14.8511V14.78L31.3462 14.8116C31.2626 14.8229 31.2626 14.8229 31.1937 14.8749L31.2615 14.7755L31.301 14.7189C31.3341 14.662 31.362 14.6026 31.3846 14.5404C31.2683 14.5529 31.1552 14.5855 31.0501 14.6364L31.0727 14.5404H31.1214L31.1575 14.45L31.1778 14.398C31.197 14.346 31.197 14.346 31.1937 14.2771C31.0637 14.2861 31.0174 14.3268 30.9303 14.4206L30.858 14.4443C30.8642 14.4277 30.8694 14.4101 30.8739 14.3912L30.9146 14.2511C30.9287 14.1892 30.934 14.1257 30.9303 14.0624C30.8298 14.1442 30.7338 14.2318 30.6434 14.3246V14.3731H30.5948L30.6207 14.3042C30.6547 14.1901 30.6366 14.0816 30.6196 13.9652C30.5351 14.0421 30.4626 14.1313 30.4049 14.2297V14.2771H30.3564L30.3699 14.2217C30.3857 14.1551 30.3857 14.1551 30.3564 14.0861L30.3428 13.9731L30.3371 13.9155L30.3326 13.8703C30.2547 13.8873 30.2547 13.8873 30.2275 13.9584C30.217 13.9833 30.2066 14.0097 30.196 14.0375L30.1643 14.1143C30.1382 14.1777 30.1382 14.1777 30.1417 14.2297H30.093L30.0852 14.1573C30.0687 14.0581 30.0391 13.9618 29.997 13.8703C29.9247 13.9302 29.9067 13.9878 29.8852 14.0782L29.8671 14.1505L29.8536 14.2059C29.8095 14.1406 29.7724 14.0714 29.7428 13.998L29.7112 13.9256L29.6863 13.8703H29.6389Z" fill="#442A12"/>
<path d="M30.4523 14.8365C30.6409 14.9477 30.7799 15.127 30.8409 15.3372C30.8782 15.5971 30.8635 15.8208 30.7099 16.0378C30.5766 16.2005 30.4172 16.3327 30.2025 16.3655C29.9992 16.3836 29.8048 16.3768 29.6297 16.2616L29.5799 16.231C29.4059 16.1124 29.2828 15.9316 29.2353 15.7259C29.2122 15.6095 29.2132 15.4897 29.2388 15.3733C29.2643 15.257 29.3135 15.1484 29.3834 15.0524C29.6489 14.7224 30.0795 14.6535 30.4535 14.8365" fill="#010100"/>
<path d="M29.3222 14.3845C29.39 14.4444 29.4352 14.4897 29.4522 14.5812C29.4522 14.6414 29.4484 14.7009 29.4408 14.7608L29.4375 14.8286C29.3956 14.9349 29.303 14.9868 29.2035 15.0321C29.1254 15.0546 29.0431 15.06 28.9629 15.0479C28.9076 14.9859 28.8668 14.9123 28.8431 14.8332H28.7945C28.7734 14.6908 28.8078 14.545 28.8906 14.4263C28.9461 14.3703 29.0193 14.3355 29.0985 14.3278C29.1772 14.3203 29.2566 14.3403 29.3222 14.3845Z" fill="#FEFDFC"/>
<path d="M29.6612 15.0546C29.7584 15.075 29.7934 15.1111 29.8533 15.1902C29.8691 15.2806 29.8589 15.3202 29.816 15.4015C29.7437 15.4637 29.703 15.4694 29.6104 15.4626C29.5652 15.4524 29.5652 15.4524 29.5053 15.4151C29.4556 15.3337 29.4545 15.284 29.4691 15.189C29.5279 15.1088 29.5629 15.0761 29.6612 15.0546Z" fill="#CFCFD0"/>
<path d="M19.6046 12.5707L19.6701 12.6012C20.1368 12.8352 20.4724 13.2634 20.6532 13.7426C20.825 14.2658 20.7831 14.8139 20.5605 15.3133C20.3029 15.8072 19.8939 16.1971 19.3628 16.3711L19.295 16.3903L19.2239 16.4129C18.7041 16.5474 18.1323 16.4751 17.6645 16.2039C17.4814 16.0864 17.3131 15.9484 17.1617 15.7925C16.912 15.5326 16.7719 15.2049 16.6849 14.8591L16.6668 14.7891C16.5762 14.3223 16.6548 13.8386 16.8882 13.4217C16.9933 13.2261 17.1278 13.0736 17.2837 12.9187L17.3346 12.8657C17.9278 12.2927 18.8826 12.2136 19.6057 12.5595L19.6046 12.5707Z" fill="#B08A2A"/>
<path d="M19.6046 12.5707L19.6701 12.6012C20.1368 12.8352 20.4724 13.2634 20.6532 13.7426C20.825 14.2658 20.7831 14.8139 20.5605 15.3133C20.3029 15.8072 19.8939 16.1971 19.3628 16.3711L19.295 16.3903L19.2239 16.4129C18.7041 16.5474 18.1323 16.4751 17.6645 16.2039C17.4814 16.0864 17.3131 15.9484 17.1617 15.7925C16.912 15.5326 16.7719 15.2049 16.6849 14.8591L16.6668 14.7891C16.5762 14.3223 16.6548 13.8386 16.8882 13.4217C16.9933 13.2261 17.1278 13.0736 17.2837 12.9187L17.3346 12.8657C17.9278 12.2927 18.8826 12.2136 19.6057 12.5595L19.6046 12.5707ZM18.3391 12.7391L18.2905 13.1459L18.1719 12.9312H18.1232L18.1029 12.8849C18.0803 12.8318 18.0803 12.8318 18.0283 12.8114L18.0509 13.0984L17.8702 13.0238C17.8148 13.0002 17.8148 13.0002 17.7651 13.0024V13.0984L17.7199 13.1075L17.66 13.121L17.6012 13.1324C17.5267 13.1515 17.5074 13.1606 17.4656 13.2284C17.4551 13.2487 17.443 13.269 17.4295 13.2895L17.382 13.338C17.3604 13.4044 17.3511 13.4736 17.3549 13.5437V13.6002C17.3549 13.6499 17.3549 13.6499 17.382 13.6962H17.0712L17.1187 13.7675H17.1673L17.1899 13.8398C17.2407 13.885 17.2407 13.885 17.2996 13.9279L17.4057 14.007L16.9763 14.0307V14.0794C17.0486 14.1299 17.1222 14.1777 17.1978 14.2229C17.2623 14.2703 17.2623 14.2703 17.2859 14.3426L17.2318 14.346L17.1605 14.3528L17.0905 14.3584C17.0356 14.365 16.9812 14.3756 16.9278 14.3901V14.4376L17.0747 14.4737L17.1594 14.4941C17.2249 14.5077 17.2917 14.513 17.3583 14.5099V14.5574L17.3018 14.5721C17.1843 14.6173 17.0758 14.676 16.9752 14.7483V14.797H17.4057L17.2329 14.9687L17.1831 15.0173L17.1323 15.0681C17.0927 15.1021 17.0927 15.1021 17.095 15.1315L17.312 15.1156C17.3831 15.11 17.3831 15.11 17.4544 15.084C17.4226 15.1665 17.3812 15.2445 17.3311 15.3179L17.2927 15.3755L17.2623 15.4184C17.3978 15.4121 17.53 15.3708 17.6453 15.2986C17.6218 15.3614 17.5926 15.4219 17.5583 15.4795C17.5176 15.5405 17.5176 15.5405 17.5255 15.6343C17.6331 15.6152 17.7323 15.5654 17.8125 15.4908L17.86 15.7293L18.0035 15.658V15.6105H18.0521V15.8976C18.1719 15.8773 18.1719 15.8773 18.2385 15.8004L18.2905 15.7293L18.3391 16.0885C18.4407 16.0072 18.4407 16.0072 18.4407 15.927L18.434 15.8727H18.4826L18.5537 15.7293L18.573 15.8128L18.599 15.9191L18.6114 15.9745C18.6235 16.0204 18.6362 16.0664 18.6498 16.1123L18.6973 16.136C18.7481 16.0004 18.7798 15.8739 18.7933 15.7293H18.8407L18.8554 15.779L18.8735 15.8433L18.8927 15.9067C18.9108 15.9631 18.9323 16.0128 18.9605 16.0649H19.0092C19.0213 16.0098 19.0336 15.9549 19.0465 15.8999L19.0668 15.8072C19.0871 15.7326 19.0871 15.7326 19.0554 15.6818H19.1041L19.1188 15.7293C19.164 15.8275 19.226 15.91 19.2962 15.9925H19.3188L19.3334 15.8671L19.3402 15.797C19.3434 15.742 19.3366 15.6869 19.3199 15.6343L19.4385 15.7293C19.5108 15.7032 19.5312 15.6897 19.5651 15.6184L19.582 15.562C19.6758 15.5811 19.7583 15.6184 19.8453 15.658C19.8309 15.5542 19.8151 15.4501 19.7978 15.3473L19.8407 15.3665C19.982 15.432 19.982 15.432 20.1323 15.4659C20.0629 15.3405 19.9831 15.2207 19.8939 15.1077L19.9346 15.119C20.0521 15.1461 20.1561 15.1608 20.2758 15.1552C20.2397 15.0636 20.1854 15.0196 20.1064 14.9608C19.9922 14.8726 19.9922 14.8726 19.9651 14.8206L20.0272 14.8455C20.1076 14.8691 20.1933 14.8698 20.2736 14.8478L20.3572 14.8331L20.4193 14.8206C20.3531 14.7505 20.2747 14.693 20.1877 14.6511C20.0633 14.5868 20.0633 14.5868 20.0374 14.5336L20.0826 14.5313C20.2239 14.5201 20.3379 14.4929 20.4668 14.4376V14.3901C20.3323 14.3495 20.1967 14.3096 20.06 14.2703L20.1131 14.2409L20.1809 14.2013L20.2487 14.163L20.3006 14.1268V14.0794H20.3481V14.007L20.0137 13.9833L20.1945 13.8195C20.2306 13.7878 20.2661 13.7547 20.3006 13.72V13.6488L20.0465 13.6804C19.9628 13.6918 19.9628 13.6918 19.8939 13.7437L19.9617 13.6443L20.0013 13.5878C20.0344 13.5308 20.0623 13.4713 20.0849 13.4093C19.9684 13.4218 19.8554 13.4544 19.7504 13.5053L19.773 13.4093H19.8216L19.8577 13.3188L19.878 13.2669C19.8973 13.2149 19.8973 13.2149 19.8939 13.1459C19.764 13.155 19.7176 13.1956 19.6306 13.2895L19.5583 13.3132C19.5644 13.2965 19.5696 13.2789 19.5741 13.2601L19.6148 13.1199C19.629 13.0581 19.6343 12.9945 19.6306 12.9312C19.53 13.013 19.434 13.1007 19.3436 13.1934V13.242H19.295L19.321 13.173C19.3549 13.0589 19.3368 12.9504 19.3199 12.834C19.2353 12.9108 19.1628 13.0002 19.1052 13.0984V13.1459H19.0566L19.0701 13.0905C19.0859 13.0238 19.0859 13.0238 19.0566 12.955L19.043 12.842L19.0374 12.7843L19.0329 12.7391C18.9549 12.756 18.9549 12.756 18.9278 12.8273C18.9173 12.8521 18.9068 12.8784 18.8961 12.9063L18.8645 12.9832C18.8385 13.0464 18.8385 13.0464 18.8419 13.0984H18.7933L18.7854 13.0261C18.769 12.927 18.7393 12.8306 18.6973 12.7391C18.625 12.799 18.6069 12.8566 18.5854 12.9471L18.5673 13.0194L18.5537 13.0748C18.5097 13.0094 18.4726 12.9403 18.443 12.8668L18.4114 12.7945L18.3866 12.7391H18.3391Z" fill="#442A12"/>
<path d="M19.1526 13.7013C19.3413 13.8124 19.4803 13.9917 19.5413 14.2018C19.5786 14.4618 19.5639 14.6856 19.4102 14.9024C19.2768 15.0652 19.1176 15.1974 18.9029 15.2301C18.6994 15.2483 18.5052 15.2415 18.33 15.1262L18.2803 15.0958C18.1062 14.977 17.9831 14.7963 17.9356 14.5906C17.9125 14.4742 17.9136 14.3544 17.9391 14.2381C17.9645 14.1216 18.0138 14.0132 18.0837 13.9171C18.3493 13.5871 18.7799 13.5182 19.1538 13.7013" fill="#010100"/>
<path d="M18.0215 13.2534C18.0893 13.3132 18.1345 13.3584 18.1514 13.45C18.1514 13.5102 18.1477 13.5698 18.1401 13.6297L18.1367 13.6975C18.0949 13.8037 18.0023 13.8557 17.9028 13.9009C17.8246 13.9234 17.7424 13.9288 17.6622 13.9168C17.6069 13.8548 17.5662 13.7811 17.5424 13.702H17.4938C17.4726 13.5596 17.507 13.4138 17.5898 13.2952C17.6454 13.2391 17.7187 13.2044 17.7977 13.1966C17.8764 13.189 17.956 13.209 18.0215 13.2534Z" fill="#FEFDFC"/>
<path d="M18.3615 13.9275C18.4586 13.9478 18.4937 13.9841 18.5536 14.0631C18.5694 14.1535 18.5592 14.1931 18.5163 14.2745C18.4439 14.3366 18.4033 14.3423 18.3106 14.3354C18.2655 14.3253 18.2655 14.3253 18.2056 14.288C18.1558 14.2067 18.1546 14.1569 18.1694 14.062C18.2282 13.9818 18.2632 13.9489 18.3615 13.9275Z" fill="#CFCFD0"/>
<path d="M12.7126 17.8826C12.8178 17.9842 12.9082 18.0939 12.9996 18.2091C13.0425 18.2657 13.0425 18.2657 13.0957 18.2882L13.1262 18.3425C13.1714 18.4171 13.2245 18.4668 13.2867 18.5278L13.4302 18.6951L13.4064 18.7436C13.1206 18.6216 12.8731 18.1877 12.7126 17.9301V17.8826Z" fill="#504F4D"/>
<path d="M23.6737 18.5621H23.7211C23.7572 18.613 23.7572 18.613 23.798 18.6808C23.8864 18.8232 23.9856 18.9599 24.094 19.0877C24.1844 19.2007 24.2759 19.3126 24.3675 19.4233L24.2714 19.4482C24.1211 19.2662 23.9799 19.0775 23.8488 18.8809C23.7834 18.7786 23.7245 18.6718 23.6737 18.5621Z" fill="#585757"/>
<path d="M36.3284 12.3446C36.3942 12.4267 36.4425 12.5209 36.4719 12.6226L36.4899 12.6735C36.5374 12.8012 36.5788 12.9311 36.6142 13.0622L36.5193 13.1334L36.438 12.8429L36.4097 12.7435L36.3453 12.5152C36.3284 12.4406 36.3284 12.4406 36.3284 12.3446Z" fill="#54514A"/>
<path d="M20.8474 9.42469C20.9243 9.45292 20.9808 9.50032 21.0453 9.55011C21.1232 9.61115 21.1955 9.66313 21.2847 9.70834C21.3141 9.75803 21.3141 9.75803 21.3322 9.80324C21.2227 9.75011 21.1209 9.68678 21.0181 9.62355L20.9017 9.55344L20.8497 9.52074C20.8057 9.4924 20.8057 9.4924 20.7582 9.44386C20.8057 9.42126 20.8045 9.42126 20.8474 9.42469Z" fill="#5E5E60"/>
<path d="M25.1409 16.8694C25.194 16.9507 25.229 17.0332 25.2652 17.1225L25.2855 17.1723C25.3021 17.2145 25.3175 17.257 25.3318 17.3L25.3092 17.3486L25.1827 17.1282C25.1149 17.005 25.1149 17.005 25.1228 16.918L25.1409 16.8694Z" fill="#5F6060"/>
<path d="M36.3284 12.3446C36.3802 12.4099 36.4228 12.4824 36.4549 12.5593L36.482 12.6215C36.4956 12.6791 36.4956 12.6791 36.4741 12.7345L36.447 12.7751C36.4111 12.7067 36.3822 12.635 36.3612 12.5604L36.3419 12.4983C36.3284 12.4406 36.3284 12.4406 36.3284 12.3446Z" fill="#6C6453"/>
<path d="M23.6737 18.5621H23.7211C23.7607 18.6187 23.7607 18.6187 23.8048 18.6898L23.85 18.7611C23.8612 18.7829 23.8741 18.8043 23.8884 18.8255L23.9369 18.8978C23.894 18.8944 23.894 18.8944 23.8409 18.874C23.7957 18.8096 23.7957 18.8096 23.7505 18.7306L23.7064 18.6514C23.6726 18.587 23.6737 18.587 23.6737 18.5621Z" fill="#6F6D66"/>
<path d="M24.2377 19.2416C24.3344 19.2734 24.3548 19.3257 24.4071 19.4098C24.3502 19.4053 24.3502 19.4053 24.2866 19.3871C24.2423 19.3246 24.2423 19.3246 24.2139 19.2655L24.2377 19.2416Z" fill="#4E4D4F"/>
<path d="M13.0504 18.3383C13.1219 18.3647 13.1823 18.4159 13.2186 18.4826V18.5304C13.147 18.504 13.0868 18.4528 13.0504 18.386V18.3383Z" fill="#444340"/>
<path d="M21.0736 9.61835C21.1572 9.63418 21.2205 9.66356 21.2883 9.71439C21.321 9.76637 21.321 9.76637 21.3368 9.80929C21.2418 9.76606 21.1527 9.70981 21.0736 9.6421V9.61835Z" fill="#69696C"/>
<path d="M23.5587 23.7583H23.8221L23.7734 23.8543L23.7508 23.7821H23.5587V23.7583Z" fill="#CCC6A4"/>
<path d="M31.8086 31.6157C32.2143 31.6157 32.5431 31.2869 32.5431 30.8813C32.5431 30.4756 32.2143 30.1467 31.8086 30.1467C31.403 30.1467 31.0742 30.4756 31.0742 30.8813C31.0742 31.2869 31.403 31.6157 31.8086 31.6157Z" fill="#2A2C32"/>
<defs>
<linearGradient id="paint0_linear_1_2418" x1="24.0923" y1="22.6088" x2="24.0923" y2="45.7083" gradientUnits="userSpaceOnUse">
<stop stop-color="#72ADD3"/>
<stop offset="0.4" stop-color="#4E88AF"/>
<stop offset="1" stop-color="#2F6F95"/>
</linearGradient>
</defs>
</svg>
