<svg width="50" height="50" viewBox="0 0 50 50" fill="none" xmlns="http://www.w3.org/2000/svg">
<path d="M19.4204 9.47274C19.5046 9.54207 19.5888 9.61141 19.6755 9.68284C20.8624 10.7038 21.7917 11.9668 22.4521 13.3845C22.4521 13.4491 22.4521 13.5136 22.4521 13.5801C22.561 13.5498 22.6699 13.5196 22.7821 13.4884C24.0691 13.1723 26.2952 12.9589 27.5375 13.5801C27.5637 13.4945 27.59 13.4089 27.617 13.3207C28.4365 11.0105 30.5654 9.11207 32.723 8.06914C35.4476 6.80928 38.5221 6.64854 41.3541 7.66316C42.4975 8.11305 43.5086 8.6847 44.4565 9.47274C44.5407 9.54207 44.6249 9.61141 44.7117 9.68284C46.9338 11.5944 48.2038 14.3008 48.46 17.1985C48.5641 20.3084 47.5979 23.1927 45.4627 25.4803C44.2906 26.6957 42.8481 27.7228 41.2292 28.2493C41.1323 28.2493 41.0355 28.2493 40.9358 28.2493C40.9358 28.572 40.9358 28.8947 40.9358 29.2272C41.0097 29.1946 41.0837 29.162 41.1599 29.1285C41.4362 29.0073 41.7129 28.8871 41.9899 28.7676C42.1679 28.6904 42.3455 28.6122 42.5231 28.5339C42.6359 28.4853 42.7487 28.4368 42.865 28.3868C42.9684 28.3417 43.0719 28.2967 43.1785 28.2502C43.4956 28.1459 43.7338 28.1236 44.0653 28.1515C44.2692 28.2921 44.3403 28.4055 44.4442 28.6282C44.4632 28.9513 44.3684 29.0762 44.1631 29.325C43.5385 29.6679 42.8829 29.9235 42.2193 30.1807C42.1172 30.2209 42.0151 30.2611 41.9099 30.3026C41.1564 30.5963 41.1564 30.5963 40.9358 30.5963C40.9403 30.6524 40.9448 30.7085 40.9495 30.7663C40.9978 31.9028 40.7097 33.0456 40.349 34.1169C40.451 34.1163 40.5531 34.1156 40.6582 34.115C41.6195 34.109 42.5807 34.1046 43.542 34.1017C44.0362 34.1002 44.5304 34.0981 45.0246 34.0948C45.5015 34.0916 45.9783 34.0899 46.4552 34.0891C46.6372 34.0886 46.8192 34.0875 47.0012 34.0859C47.256 34.0838 47.5107 34.0835 47.7654 34.0836C47.8785 34.082 47.8785 34.082 47.9939 34.0804C48.3044 34.0822 48.5295 34.0989 48.8068 34.2443C48.9551 34.4103 48.9551 34.4103 48.9979 34.7526C48.9551 35.0949 48.9551 35.0949 48.8291 35.2608C48.5347 35.4851 48.1671 35.4261 47.8115 35.4216C47.7246 35.4216 47.6378 35.4217 47.5483 35.4217C47.261 35.4215 46.9737 35.4192 46.6863 35.4169C46.4872 35.4164 46.2881 35.4159 46.089 35.4157C45.5647 35.4145 45.0404 35.4116 44.5161 35.4084C43.9812 35.4054 43.4463 35.4041 42.9114 35.4026C41.8616 35.3994 40.8119 35.3944 39.7622 35.3883C39.7168 35.5275 39.7168 35.5275 39.6705 35.6695C39.5857 35.9188 39.5018 36.114 39.3653 36.336C39.3275 36.3981 39.2898 36.4602 39.2509 36.5242C39.2118 36.587 39.1728 36.6498 39.1326 36.7146C39.094 36.7778 39.0553 36.841 39.0155 36.9062C38.9406 37.0288 38.8654 37.1512 38.79 37.2735C38.6559 37.4916 38.5242 37.7111 38.393 37.9309C38.455 37.9397 38.5171 37.9485 38.581 37.9576C39.0014 38.0569 39.3879 38.221 39.787 38.3847C39.8747 38.4203 39.9624 38.4559 40.0528 38.4926C40.333 38.6065 40.613 38.721 40.893 38.8355C41.0787 38.9111 41.2644 38.9866 41.4502 39.062C41.8876 39.2399 42.3246 39.4187 42.7614 39.5979C42.9658 39.6815 43.1705 39.7644 43.3753 39.8469C43.4808 39.8898 43.5864 39.9327 43.6951 39.977C43.7828 40.0123 43.8706 40.0477 43.961 40.0842C44.1631 40.1802 44.1631 40.1802 44.3587 40.3758C44.3846 40.5591 44.3846 40.5591 44.3831 40.767C44.3836 40.8355 44.3841 40.9041 44.3846 40.9748C44.3587 41.1581 44.3587 41.1581 44.1631 41.3537C43.5412 41.4103 43.1049 41.2845 42.5387 41.0389C42.4604 41.0063 42.382 40.9736 42.3013 40.9399C42.1349 40.8704 41.9688 40.8002 41.8029 40.7294C41.5456 40.6196 41.2875 40.5116 41.0292 40.4041C40.4198 40.15 39.8115 39.8931 39.2037 39.635C38.9278 39.5181 38.6514 39.4028 38.3747 39.2878C38.2995 39.255 38.2244 39.2221 38.1469 39.1883C37.7806 39.0318 37.7806 39.0318 37.3944 39.062C37.1816 39.2326 36.9827 39.4109 36.7855 39.5995C34.5199 41.6636 31.5005 42.8319 28.4374 42.8364C28.3563 42.8369 28.2753 42.8374 28.1917 42.8379C27.926 42.8393 27.6603 42.84 27.3947 42.8405C27.3028 42.8408 27.211 42.8411 27.1164 42.8413C26.6298 42.8428 26.1432 42.8437 25.6566 42.8441C25.1594 42.8447 24.6622 42.847 24.165 42.8498C23.778 42.8516 23.3911 42.8521 23.0041 42.8523C22.8211 42.8526 22.6381 42.8533 22.4551 42.8546C18.8948 42.8782 15.7982 41.8753 13.1201 39.4856C12.8738 39.267 12.695 39.112 12.3789 39.0067C12.192 39.0508 12.192 39.0508 11.995 39.1373C11.9181 39.1684 11.8413 39.1995 11.7621 39.2315C11.679 39.2662 11.5959 39.3009 11.5102 39.3367C11.4234 39.3721 11.3366 39.4075 11.2472 39.444C10.968 39.5582 10.6894 39.6736 10.4108 39.789C10.2283 39.8638 10.0459 39.9386 9.86334 40.0132C9.68289 40.0872 9.50245 40.1612 9.32202 40.2352C9.23301 40.2717 9.14401 40.3081 9.0523 40.3457C8.63118 40.5189 8.21151 40.6943 7.79441 40.877C7.72 40.909 7.64559 40.9411 7.56893 40.9742C7.43208 41.0333 7.2957 41.0935 7.15994 41.1551C6.6879 41.3575 6.33052 41.3964 5.82653 41.3537C5.57422 41.1014 5.60003 40.9134 5.58585 40.5687C5.65018 40.2934 5.78992 40.2368 6.02212 40.0824C6.17159 40.0108 6.32373 39.9447 6.47761 39.8832C6.56739 39.8469 6.65718 39.8107 6.74969 39.7734C6.89425 39.7161 6.89425 39.7161 7.04173 39.6576C7.1915 39.5974 7.1915 39.5974 7.3443 39.536C7.66332 39.4079 7.98266 39.2806 8.30202 39.1533C8.62026 39.0259 8.93844 38.8983 9.2566 38.7707C9.45442 38.6914 9.65231 38.6123 9.85026 38.5333C9.94097 38.4971 10.0317 38.4608 10.1251 38.4235C10.2102 38.3896 10.2952 38.3556 10.3828 38.3206C10.5934 38.2346 10.8011 38.1439 11.0087 38.0511C11.3032 37.9309 11.3032 37.9309 11.5966 37.9309C11.562 37.8747 11.5275 37.8186 11.4919 37.7607C11.3347 37.504 11.1783 37.2469 11.022 36.9896C10.9405 36.8571 10.9405 36.8571 10.8574 36.7219C10.7789 36.5923 10.7789 36.5923 10.6988 36.4602C10.6266 36.3419 10.6266 36.3419 10.5529 36.2212C10.4101 35.9506 10.3212 35.679 10.2274 35.3883C10.1166 35.3889 10.0057 35.3896 9.89152 35.3902C8.84819 35.3962 7.80487 35.4006 6.76153 35.4035C6.22511 35.405 5.6887 35.4071 5.15228 35.4104C4.63485 35.4136 4.11743 35.4153 3.59999 35.4161C3.40234 35.4166 3.20468 35.4177 3.00703 35.4193C2.73071 35.4214 2.45444 35.4217 2.17811 35.4216C2.05486 35.4231 2.05486 35.4231 1.92913 35.4248C1.37184 35.4218 1.37184 35.4218 1.16051 35.2608C0.949572 34.9832 0.992679 34.7445 1.03446 34.4103C1.27397 34.1423 1.42393 34.1171 1.78456 34.0817C1.93109 34.0808 2.07764 34.0816 2.22417 34.0836C2.34444 34.0836 2.34444 34.0836 2.46714 34.0835C2.73174 34.0837 2.99628 34.086 3.26087 34.0883C3.4445 34.0888 3.62812 34.0892 3.81174 34.0895C4.29473 34.0907 4.77768 34.0935 5.26066 34.0968C5.75362 34.0998 6.24659 34.1011 6.73956 34.1026C7.70659 34.1058 8.6736 34.1108 9.64062 34.1169C9.62632 34.0637 9.61202 34.0105 9.59729 33.9557C9.53199 33.712 9.46711 33.4683 9.40224 33.2246C9.37974 33.1409 9.35723 33.0571 9.33405 32.9709C9.11934 32.1619 9.04364 31.4321 9.05384 30.5963C8.99622 30.5803 8.9386 30.5642 8.87923 30.5476C8.2212 30.3579 7.59059 30.1227 6.95731 29.8629C6.86156 29.8247 6.76581 29.7865 6.66716 29.7471C6.57545 29.7097 6.48373 29.6722 6.38924 29.6337C6.30687 29.6002 6.22449 29.5667 6.13962 29.5322C5.85377 29.3869 5.68122 29.2372 5.54536 28.9461C5.52769 28.6457 5.65726 28.4901 5.82653 28.2493C5.92432 28.1515 5.92432 28.1515 6.18548 28.1307C6.54756 28.1538 6.79273 28.2422 7.12463 28.3868C7.23746 28.4353 7.35029 28.4839 7.46654 28.5339C7.5829 28.5852 7.69926 28.6365 7.81915 28.6893C7.93893 28.7413 8.05876 28.7931 8.17863 28.8448C8.47079 28.9713 8.76249 29.0988 9.05384 29.2272C9.05384 28.9045 9.05384 28.5818 9.05384 28.2493C8.97227 28.2402 8.89071 28.2311 8.80667 28.2218C8.41348 28.1404 8.08212 27.9905 7.72746 27.8092C7.65904 27.7744 7.59062 27.7396 7.52012 27.7037C4.99645 26.3883 3.04484 24.203 2.11023 21.5015C1.21007 18.5782 1.37928 15.5426 2.77265 12.8012C4.10079 10.323 6.37627 8.38084 9.05384 7.51685C12.6567 6.48406 16.4974 7.04257 19.4204 9.47274Z" fill="#CEDBE4"/>
<path d="M6.18785 28.1328C6.53639 28.1541 6.76757 28.232 7.08681 28.3707C7.19479 28.417 7.30276 28.4633 7.41401 28.5111C7.52552 28.5602 7.63702 28.6093 7.75191 28.6599C7.86153 28.7071 7.97114 28.7543 8.08408 28.8029C8.48915 28.9781 8.89348 29.1544 9.29432 29.3391C9.93548 29.6341 10.5828 29.9058 11.239 30.1654C11.3929 30.2267 11.3929 30.2267 11.5499 30.2892C11.8751 30.4187 12.2003 30.5478 12.5256 30.6769C14.9656 31.6456 14.9656 31.6456 16.0922 32.1144C16.1696 32.1462 16.247 32.1781 16.3267 32.2109C16.8546 32.4325 16.8546 32.4325 17.0732 32.6511C17.0762 32.8024 17.0762 32.8024 17.0793 32.9567C17.2209 33.5417 17.584 33.7601 18.0512 34.118C18.1408 34.1873 18.1408 34.1873 18.2323 34.2581C22.4394 37.4936 27.0807 39.9651 32.0362 41.8438C32.1994 41.9085 32.3625 41.9735 32.5252 42.0394C32.2518 42.2216 32.0958 42.2833 31.7848 42.3576C31.6971 42.3786 31.6093 42.3996 31.5189 42.4212C31.4274 42.4424 31.3359 42.4637 31.2416 42.4856C31.1523 42.5072 31.0631 42.5288 30.9711 42.5511C30.1265 42.7502 29.3045 42.8362 28.4374 42.8375C28.3563 42.838 28.2753 42.8384 28.1917 42.8389C27.926 42.8404 27.6603 42.841 27.3947 42.8416C27.3028 42.8419 27.211 42.8421 27.1164 42.8424C26.6298 42.8439 26.1432 42.8448 25.6566 42.8452C25.1594 42.8457 24.6622 42.8481 24.165 42.8509C23.778 42.8527 23.3911 42.8532 23.0041 42.8534C22.8211 42.8537 22.6381 42.8544 22.4551 42.8557C18.8948 42.8792 15.7982 41.8764 13.1201 39.4867C12.8738 39.2681 12.695 39.1131 12.3789 39.0077C12.192 39.0519 12.192 39.0519 11.995 39.1384C11.9181 39.1695 11.8413 39.2006 11.7621 39.2326C11.679 39.2673 11.5959 39.302 11.5102 39.3378C11.4234 39.3732 11.3366 39.4086 11.2472 39.4451C10.968 39.5592 10.6894 39.6746 10.4108 39.7901C10.2283 39.8649 10.0459 39.9397 9.86334 40.0143C9.68289 40.0883 9.50245 40.1623 9.32202 40.2363C9.23301 40.2728 9.14401 40.3092 9.0523 40.3468C8.63118 40.52 8.21151 40.6954 7.79441 40.8781C7.72 40.9101 7.64559 40.9422 7.56893 40.9753C7.43208 41.0344 7.2957 41.0946 7.15994 41.1562C6.6879 41.3586 6.33052 41.3974 5.82653 41.3548C5.57422 41.1025 5.60003 40.9145 5.58585 40.5698C5.65018 40.2945 5.78992 40.2378 6.02212 40.0835C6.17159 40.0119 6.32373 39.9458 6.47761 39.8843C6.56739 39.848 6.65718 39.8118 6.74969 39.7745C6.84606 39.7363 6.94244 39.698 7.04173 39.6587C7.14158 39.6186 7.24143 39.5784 7.3443 39.5371C7.66332 39.409 7.98266 39.2817 8.30202 39.1544C8.62026 39.027 8.93844 38.8994 9.2566 38.7718C9.45442 38.6925 9.65231 38.6134 9.85026 38.5344C9.94097 38.4982 10.0317 38.4619 10.1251 38.4246C10.2102 38.3907 10.2952 38.3567 10.3828 38.3217C10.5934 38.2357 10.8011 38.145 11.0087 38.0521C11.3032 37.932 11.3032 37.932 11.5966 37.932C11.562 37.8758 11.5275 37.8196 11.4919 37.7618C11.3347 37.5051 11.1783 37.2479 11.022 36.9907C10.9677 36.9024 10.9133 36.814 10.8574 36.7229C10.805 36.6366 10.7527 36.5502 10.6988 36.4613C10.6266 36.343 10.6266 36.343 10.5529 36.2223C10.4101 35.9517 10.3212 35.6801 10.2274 35.3893C10.1166 35.39 10.0057 35.3906 9.89152 35.3913C8.84819 35.3973 7.80487 35.4017 6.76153 35.4045C6.22511 35.4061 5.6887 35.4082 5.15228 35.4115C4.63485 35.4147 4.11743 35.4164 3.59999 35.4172C3.40234 35.4177 3.20468 35.4188 3.00703 35.4204C2.73071 35.4225 2.45444 35.4228 2.17811 35.4227C2.05486 35.4242 2.05486 35.4242 1.92913 35.4258C1.37184 35.4229 1.37184 35.4229 1.16051 35.2618C0.949571 34.9843 0.992679 34.7456 1.03446 34.4114C1.27397 34.1434 1.42393 34.1182 1.78456 34.0827C1.9311 34.0819 2.07764 34.0827 2.22417 34.0847C2.34444 34.0846 2.34444 34.0846 2.46714 34.0846C2.73174 34.0848 2.99628 34.0871 3.26087 34.0894C3.4445 34.0899 3.62812 34.0903 3.81174 34.0906C4.29473 34.0917 4.77768 34.0946 5.26066 34.0979C5.75362 34.1009 6.24659 34.1022 6.73956 34.1037C7.70659 34.1068 8.6736 34.1118 9.64062 34.118C9.62632 34.0648 9.61202 34.0116 9.59729 33.9568C9.53199 33.7131 9.46711 33.4694 9.40224 33.2256C9.37974 33.1419 9.35723 33.0582 9.33405 32.972C9.11934 32.163 9.04364 31.4332 9.05384 30.5974C8.99622 30.5813 8.9386 30.5653 8.87923 30.5487C8.2212 30.359 7.59059 30.1238 6.95731 29.864C6.86156 29.8258 6.76581 29.7876 6.66716 29.7482C6.57545 29.7108 6.48374 29.6733 6.38924 29.6348C6.30687 29.6013 6.22449 29.5678 6.13962 29.5333C5.85377 29.388 5.68122 29.2383 5.54536 28.9471C5.52769 28.6468 5.65726 28.4912 5.82653 28.2504C5.92432 28.1526 5.92432 28.1526 6.18785 28.1328Z" fill="#BBC5CB"/>
<path d="M41.2292 12.017C42.8158 13.0798 43.9944 14.671 44.3954 16.5583C44.6607 18.3963 44.3355 20.3415 43.283 21.8943C42.3119 23.114 41.1846 24.0993 39.6645 24.5347C39.6123 24.4365 39.5601 24.3383 39.5063 24.2371C39.0117 23.3225 38.4675 22.5014 37.8063 21.6987C37.7537 21.6345 37.7011 21.5703 37.6468 21.5042C37.4152 21.2221 37.1832 20.9403 36.9502 20.6593C36.5902 20.2249 36.2386 19.7854 35.8932 19.3394C35.5088 18.8451 35.1106 18.3646 34.7013 17.8908C34.6505 17.8318 34.5998 17.7729 34.5475 17.7122C33.9737 17.0539 33.3828 16.4686 32.672 15.9594C32.5803 15.8919 32.5803 15.8919 32.4867 15.8232C32.0897 15.5351 31.6836 15.2851 31.2539 15.0486C31.6655 13.6409 32.9133 12.5184 34.1431 11.7977C36.3964 10.652 39.0504 10.7092 41.2292 12.017Z" fill="#FBD8D8"/>
<path d="M12.2992 10.9965C12.4456 10.9977 12.4456 10.9977 12.595 10.9988C14.6555 11.0442 16.3121 11.8767 17.743 13.3402C18.1679 13.8293 18.6143 14.3992 18.7355 15.0489C18.6491 15.1022 18.5628 15.1556 18.4738 15.2105C17.0211 16.1187 15.8281 17.1656 14.7581 18.5049C14.5593 18.7531 14.3584 18.9996 14.1578 19.2462C14.0471 19.3823 13.9364 19.5185 13.8259 19.6548C13.5246 20.0261 13.2214 20.3955 12.9165 20.7638C12.7692 20.9446 12.6226 21.126 12.4764 21.3077C12.428 21.3678 12.3796 21.4279 12.3297 21.4898C11.5555 22.4566 10.8973 23.4361 10.3249 24.535C9.07792 24.2232 7.98357 23.5606 7.29929 22.4629C7.17122 22.2484 7.04681 22.0323 6.92496 21.8142C6.80647 21.6051 6.68163 21.4019 6.55321 21.1989C6.00245 20.3244 5.59096 19.5214 5.53283 18.4717C5.52653 18.3661 5.52022 18.2604 5.51373 18.1516C5.45688 16.3437 6.01052 14.6786 7.24428 13.3375C7.42055 13.1547 7.60054 12.9772 7.78217 12.7996C7.84407 12.7346 7.90597 12.6695 7.96974 12.6025C8.37196 12.2083 8.83124 11.9541 9.32859 11.6994C9.39114 11.6672 9.45369 11.635 9.51814 11.6017C10.4162 11.1638 11.3035 10.9858 12.2992 10.9965Z" fill="#FBD8D8"/>
<path d="M2.59955 13.1875C2.82127 13.4092 2.89052 13.5828 3.00831 13.8724C3.05014 13.9739 3.09196 14.0754 3.13505 14.1799C3.20279 14.3452 3.20279 14.3452 3.27191 14.5138C4.42987 17.286 5.77114 19.9976 7.4612 22.4879C7.58779 22.6744 7.71267 22.8621 7.83744 23.0498C8.8152 24.5087 9.87857 25.9207 11.0303 27.247C11.2089 27.4528 11.3852 27.6602 11.5597 27.8695C12.3018 28.7559 13.0969 29.5757 13.9196 30.3871C14.0462 30.5127 14.1728 30.6384 14.2993 30.7641C14.6042 31.0668 14.9096 31.3689 15.2154 31.6706C15.0198 31.7684 15.0198 31.7684 14.8179 31.7092C14.6931 31.659 14.6931 31.659 14.5658 31.6078C14.4242 31.5514 14.4242 31.5514 14.2797 31.4939C14.1771 31.4521 14.0746 31.4104 13.9689 31.3673C13.8632 31.3249 13.7575 31.2825 13.6485 31.2389C13.4239 31.1486 13.1994 31.058 12.975 30.967C12.6347 30.8291 12.294 30.6922 11.9531 30.5556C11.7347 30.4676 11.5162 30.3796 11.2978 30.2916C11.1466 30.2307 11.1466 30.2307 10.9923 30.1687C10.3382 29.9032 9.69515 29.6194 9.05417 29.3236C9.05417 28.9686 9.05417 28.6136 9.05417 28.2478C8.97261 28.2388 8.89104 28.2297 8.80701 28.2203C8.41381 28.139 8.08246 27.9891 7.7278 27.8078C7.62516 27.7555 7.62516 27.7555 7.52046 27.7023C4.99678 26.3869 3.04518 24.2016 2.11057 21.5C1.26907 18.7672 1.3024 15.7817 2.59955 13.1875Z" fill="#BCC6CC"/>
<path d="M41.0925 34.112C42.143 34.1044 43.1935 34.099 44.2441 34.0956C44.6181 34.0943 44.9921 34.0925 45.3661 34.0902C45.8095 34.0875 46.2528 34.0863 46.6961 34.0863C46.8603 34.086 47.0244 34.0853 47.1885 34.084C47.4136 34.0823 47.6385 34.0825 47.8635 34.0831C47.99 34.0828 48.1164 34.0824 48.2467 34.082C48.5841 34.1203 48.7251 34.1643 48.9551 34.4114C49.0273 34.9887 49.0273 34.9887 48.8435 35.2617C48.5797 35.4469 48.378 35.4262 48.0573 35.4266C47.8675 35.4278 47.8675 35.4278 47.6738 35.4291C47.5332 35.4285 47.3927 35.4279 47.2521 35.4273C47.1043 35.4277 46.9565 35.4282 46.8087 35.4288C46.407 35.4302 46.0054 35.4296 45.6037 35.4287C45.1836 35.428 44.7635 35.4287 44.3434 35.4291C43.6377 35.4296 42.9321 35.4289 42.2264 35.4275C41.4104 35.426 40.5944 35.4265 39.7784 35.4281C39.0782 35.4294 38.3779 35.4296 37.6777 35.4288C37.2593 35.4284 36.8409 35.4283 36.4225 35.4293C36.0291 35.4301 35.6357 35.4295 35.2423 35.4278C35.0979 35.4275 34.9534 35.4276 34.809 35.4282C34.6119 35.429 34.4148 35.4278 34.2178 35.4266C34.1075 35.4264 33.9971 35.4263 33.8835 35.4262C33.568 35.385 33.4314 35.3217 33.2098 35.0959C33.1654 34.7914 33.1428 34.6022 33.3266 34.3468C33.5667 34.1686 33.7262 34.1769 34.024 34.1735C34.1325 34.1715 34.2411 34.1696 34.3529 34.1676C34.4726 34.167 34.5923 34.1664 34.7157 34.1657C34.9061 34.1631 34.9061 34.1631 35.1003 34.1603C35.4518 34.1556 35.8032 34.1527 36.1547 34.1502C36.4504 34.148 36.746 34.1448 37.0416 34.1416C37.9337 34.1323 38.8258 34.1263 39.718 34.1212C40.1761 34.1185 40.6343 34.1153 41.0925 34.112Z" fill="#616161"/>
<path d="M2.12581 34.0827C2.19623 34.0825 2.26666 34.0823 2.33922 34.0821C2.57443 34.0818 2.80958 34.0836 3.04478 34.0854C3.21233 34.0857 3.37987 34.0858 3.54742 34.0858C3.99933 34.0863 4.45121 34.0886 4.90312 34.0915C5.2778 34.0936 5.65249 34.0948 6.02719 34.096C7.07844 34.0995 8.12967 34.106 9.1809 34.1136C9.63107 34.1168 10.0812 34.1196 10.5314 34.1222C11.4115 34.1273 12.2916 34.1342 13.1717 34.1436C13.4658 34.1467 13.76 34.1492 14.0541 34.1513C14.4607 34.1542 14.8671 34.1596 15.2736 34.1653C15.3934 34.1659 15.5131 34.1665 15.6364 34.1672C15.745 34.1691 15.8535 34.171 15.9653 34.173C16.0595 34.1741 16.1536 34.1752 16.2507 34.1763C16.5279 34.2222 16.6168 34.2825 16.7796 34.5087C16.8224 34.8021 16.8224 34.8021 16.7796 35.0955C16.5579 35.3212 16.4213 35.3845 16.1059 35.4258C15.9404 35.4259 15.9404 35.4259 15.7715 35.4261C15.6447 35.4269 15.5179 35.4278 15.3872 35.4286C15.2468 35.428 15.1065 35.4274 14.9661 35.4268C14.8181 35.4272 14.6702 35.4277 14.5222 35.4284C14.1205 35.4297 13.7189 35.4292 13.3172 35.4283C12.897 35.4275 12.4769 35.4282 12.0567 35.4287C11.3513 35.4292 10.6458 35.4285 9.94033 35.4271C9.12425 35.4255 8.3082 35.426 7.49212 35.4276C6.79179 35.429 6.09147 35.4291 5.39114 35.4284C4.97271 35.4279 4.55429 35.4279 4.13586 35.4288C3.7426 35.4297 3.34937 35.4291 2.95612 35.4274C2.81162 35.427 2.66713 35.4271 2.52264 35.4278C2.32577 35.4286 2.12889 35.4274 1.93201 35.4261C1.82173 35.426 1.71144 35.4259 1.59782 35.4258C1.3276 35.3888 1.3276 35.3888 1.1458 35.2612C0.955648 34.9788 0.99323 34.7387 1.03421 34.4109C1.3583 34.0629 1.66794 34.0814 2.12581 34.0827Z" fill="#606061"/>
<path d="M16.7799 35.9749C16.9572 36.085 16.9572 36.085 17.0733 36.2683C17.1356 36.7665 17.1356 36.7665 16.9713 37.0002C16.6859 37.2214 16.3621 37.3373 16.0285 37.4671C15.9539 37.4968 15.8793 37.5266 15.8025 37.5572C15.6429 37.6208 15.4832 37.6841 15.3233 37.7471C14.9066 37.9115 14.4909 38.0783 14.0752 38.2452C13.994 38.2778 13.9128 38.3104 13.8292 38.3439C13.2597 38.5733 12.6974 38.8147 12.1406 39.0738C11.2204 39.5004 10.2798 39.8739 9.33659 40.246C8.53548 40.5621 8.53548 40.5621 7.74168 40.896C7.66625 40.9285 7.59083 40.961 7.51311 40.9945C7.38144 41.0518 7.25023 41.1102 7.11968 41.1699C6.66514 41.3667 6.31314 41.3929 5.82661 41.3536C5.5743 41.1013 5.60011 40.9133 5.58594 40.5686C5.65012 40.2939 5.79111 40.2366 6.02221 40.0823C6.16033 40.0151 6.30106 39.9529 6.44355 39.8955C6.5265 39.8618 6.60944 39.828 6.6949 39.7933C6.78442 39.7575 6.87394 39.7218 6.96618 39.685C7.10687 39.6281 7.10687 39.6281 7.25041 39.5701C7.55591 39.4469 7.86175 39.3245 8.16763 39.2022C8.37863 39.1173 8.58962 39.0324 8.80059 38.9475C10.0202 38.4579 11.243 37.9795 12.4749 37.5216C13.0681 37.2998 13.6556 37.0681 14.2395 36.823C14.305 36.7956 14.3705 36.7681 14.438 36.7398C14.754 36.607 15.0695 36.4731 15.3842 36.3373C15.4959 36.29 15.6075 36.2426 15.7225 36.1938C15.8207 36.1515 15.9189 36.1092 16.0201 36.0656C16.295 35.9736 16.4925 35.9481 16.7799 35.9749Z" fill="#606060"/>
<path d="M33.8945 36.0749C34.2031 36.178 34.5016 36.3017 34.8015 36.4275C34.9308 36.4805 34.9308 36.4805 35.0628 36.5347C35.3379 36.6476 35.6126 36.7615 35.8872 36.8756C36.2463 37.0242 36.6056 37.1723 36.9652 37.3199C37.0535 37.3561 37.1417 37.3923 37.2327 37.4296C37.8429 37.678 38.458 37.9041 39.0808 38.1186C39.7598 38.3536 40.4205 38.6258 41.0826 38.9048C41.2054 38.9562 41.3282 39.0076 41.451 39.0589C41.6912 39.1593 41.9312 39.2598 42.1713 39.3604C42.4621 39.4816 42.7536 39.601 43.0458 39.7189C43.1236 39.7503 43.2014 39.7818 43.2816 39.8142C43.4206 39.8703 43.5598 39.926 43.6991 39.9813C43.9665 40.0896 44.1524 40.1714 44.3588 40.3778C44.3848 40.5612 44.3848 40.5612 44.3833 40.769C44.3841 40.8719 44.3841 40.8719 44.3848 40.9768C44.3588 41.1602 44.3588 41.1602 44.1633 41.3558C43.5442 41.4116 43.1096 41.2887 42.5458 41.0445C42.468 41.0121 42.3902 40.9797 42.31 40.9464C42.0593 40.8417 41.8094 40.7351 41.5594 40.6284C41.3869 40.556 41.2143 40.4837 41.0417 40.4115C40.7027 40.2697 40.3641 40.1272 40.0257 39.9842C39.3803 39.7119 38.7309 39.4496 38.0812 39.1875C37.6926 39.0293 37.3094 38.8634 36.9285 38.6871C36.4607 38.4725 35.9874 38.275 35.5105 38.0816C35.4378 38.0521 35.3651 38.0225 35.2902 37.9921C34.9881 37.8695 34.6859 37.7472 34.3833 37.6257C34.1598 37.5358 33.9366 37.4451 33.7135 37.3542C33.6446 37.3268 33.5758 37.2994 33.5048 37.2712C33.0255 37.075 33.0255 37.075 32.9166 36.8572C32.891 36.5569 32.8736 36.3488 33.0205 36.081C33.3132 35.9205 33.5826 36.0021 33.8945 36.0749Z" fill="#606060"/>
<path d="M44.066 28.1505C44.2698 28.2911 44.341 28.4046 44.4449 28.6272C44.4639 28.9504 44.3691 29.0752 44.1638 29.324C43.5653 29.6514 42.9415 29.8983 42.3056 30.1431C42.215 30.1784 42.1243 30.2137 42.0309 30.25C41.5587 30.4333 41.0854 30.6128 40.6103 30.7885C39.582 31.1699 38.5661 31.581 37.5499 31.9934C37.2438 32.1176 36.9376 32.2415 36.6315 32.3654C36.4329 32.4458 36.2344 32.5262 36.0359 32.6066C35.9409 32.6451 35.8458 32.6836 35.7479 32.7232C35.1668 32.9591 34.5882 33.1995 34.0134 33.4505C33.6896 33.5684 33.4525 33.5809 33.1127 33.5292C32.9171 33.3336 32.9171 33.3336 32.8682 33.0035C32.9171 32.649 32.9171 32.649 33.1363 32.4626C33.6361 32.158 34.1949 31.9674 34.7385 31.7567C35.0019 31.6531 35.265 31.549 35.5282 31.4449C35.599 31.417 35.6698 31.389 35.7428 31.3603C36.7089 30.9783 37.6705 30.5852 38.6321 30.192C38.725 30.154 38.8179 30.116 38.9136 30.0769C40.1494 29.5714 41.3807 29.058 42.6017 28.5172C43.5571 28.0952 43.5571 28.0952 44.066 28.1505Z" fill="#616161"/>
<path d="M6.18805 28.1328C6.53659 28.1541 6.76777 28.232 7.08701 28.3707C7.19499 28.417 7.30297 28.4633 7.41421 28.5111C7.52572 28.5602 7.63723 28.6093 7.75211 28.6599C7.86173 28.7071 7.97134 28.7543 8.08428 28.8029C8.48936 28.9781 8.89368 29.1544 9.29452 29.3391C9.93568 29.6341 10.583 29.9058 11.2392 30.1654C11.3418 30.2062 11.4444 30.2471 11.5501 30.2892C11.8753 30.4187 12.2005 30.5478 12.5258 30.6769C14.9658 31.6456 14.9658 31.6456 16.0924 32.1144C16.1698 32.1462 16.2472 32.1781 16.3269 32.2109C16.8548 32.4325 16.8548 32.4325 17.0734 32.6511C17.0979 32.9934 17.0979 32.9934 17.0734 33.3357C16.8778 33.5313 16.8778 33.5313 16.5883 33.5683C16.0728 33.552 15.6223 33.3327 15.1538 33.1343C15.0535 33.093 14.9532 33.0517 14.8498 33.0091C14.529 32.8766 14.209 32.7425 13.8889 32.6083C13.6794 32.5214 13.4699 32.4346 13.2603 32.348C12.8445 32.1759 12.4289 32.0032 12.0136 31.8302C11.4176 31.582 10.821 31.3352 10.2238 31.0898C10.138 31.0544 10.0522 31.019 9.96382 30.9825C9.44347 30.7691 8.91961 30.5725 8.38779 30.3896C7.80918 30.1898 7.23775 29.9774 6.67023 29.7478C6.59978 29.7199 6.52933 29.692 6.45675 29.6632C6.04281 29.493 5.73858 29.3607 5.54556 28.9471C5.52789 28.6468 5.65746 28.4912 5.82673 28.2504C5.92452 28.1526 5.92452 28.1526 6.18805 28.1328Z" fill="#616161"/>
<path d="M24.9945 32.5983C25.0895 32.5968 25.1846 32.5953 25.2825 32.5938C25.8554 32.5969 26.2078 32.6484 26.657 33.0384C27.003 33.4299 27.1219 33.7485 27.0994 34.2608C26.9966 34.7517 26.7263 35.1614 26.4614 35.5811C26.4041 35.6743 26.4041 35.6743 26.3457 35.7694C26.1006 36.1536 25.9201 36.4135 25.4834 36.559C24.9686 36.6238 24.4687 36.6705 24.0409 36.339C23.4694 35.7633 22.9372 34.9072 22.9102 34.0836C22.9168 33.63 23.0261 33.3844 23.3319 33.0384C23.8614 32.5787 24.3263 32.5877 24.9945 32.5983Z" fill="#FBD8D8"/>
<path d="M31.199 26.1523C31.5416 26.2108 31.6332 26.3079 31.8408 26.5863C31.8773 26.8782 31.8913 27.1272 31.8836 27.4176C31.8843 27.4918 31.885 27.5661 31.8857 27.6426C31.8821 27.9629 31.8624 28.2075 31.7132 28.4937C31.5474 28.64 31.5474 28.64 31.199 28.6828C31.0881 28.6687 30.9772 28.6545 30.8629 28.64C30.5909 28.232 30.6349 27.8968 30.6367 27.4176C30.6351 27.3327 30.6336 27.2479 30.6319 27.1605C30.6319 27.0789 30.6318 26.9973 30.6317 26.9133C30.6315 26.8389 30.6312 26.7644 30.6309 26.6877C30.6936 26.3447 30.8642 26.2124 31.199 26.1523Z" fill="#636464"/>
<path d="M18.7911 26.1523C19.0752 26.2033 19.1468 26.2644 19.3229 26.4885C19.3593 26.6877 19.3593 26.6877 19.3584 26.9133C19.3583 26.9949 19.3583 27.0764 19.3582 27.1605C19.3566 27.2453 19.355 27.3301 19.3534 27.4176C19.3537 27.5024 19.3541 27.5872 19.3544 27.6747C19.349 28.3074 19.349 28.3074 19.1273 28.64C18.7911 28.6828 18.7911 28.6828 18.4427 28.64C18.164 28.3941 18.1477 28.2345 18.1069 27.8607C18.1052 27.713 18.1051 27.5653 18.1065 27.4176C18.1046 27.3433 18.1026 27.2691 18.1006 27.1926C18.1009 26.8382 18.1174 26.6291 18.3319 26.3414C18.5405 26.1951 18.5405 26.1951 18.7911 26.1523Z" fill="#636464"/>
</svg>
