<svg width="50" height="50" viewBox="0 0 50 50" fill="none" xmlns="http://www.w3.org/2000/svg">
<g clip-path="url(#clip0_1_2859)">
<path d="M26.5471 4.24606C27.8037 4.96918 29.0269 5.73864 30.2018 6.58805C30.2741 6.64001 30.3464 6.69197 30.421 6.74551C31.5126 7.53165 32.5726 8.34975 33.6044 9.21291C33.6623 9.26124 33.7203 9.30956 33.78 9.35935C35.2007 10.5478 36.5226 11.8306 37.8333 13.138C37.893 13.1975 37.9528 13.257 38.0143 13.3183C38.6399 13.9418 39.2557 14.5655 39.8262 15.2404C39.9255 15.3529 40.025 15.4652 40.1247 15.5772C40.8519 16.4012 41.5331 17.2518 42.1905 18.1324C42.3015 18.2811 42.4129 18.4296 42.5245 18.5778C45.6552 22.7339 48.0249 27.3414 49.4507 32.3506C49.4878 32.4788 49.4878 32.4788 49.5256 32.6097C49.8388 33.713 50.1366 35.0088 49.6391 36.0995C49.2175 36.8042 48.6724 37.3169 47.8953 37.6003C47.0047 37.8147 46.1711 37.7657 45.3676 37.3086C44.9406 36.9908 44.5765 36.6148 44.201 36.2392C41.9847 36.9749 39.7687 37.7112 37.5599 38.4692C36.0659 38.9818 34.5686 39.484 33.0697 39.9821C31.569 40.4809 30.0695 40.9828 28.5734 41.495C28.4927 41.5227 28.412 41.5503 28.3288 41.5788C28.0012 41.6909 27.6736 41.8032 27.346 41.9155C26.4107 42.2361 25.4749 42.5555 24.5389 42.8743C24.4478 42.9053 24.3567 42.9364 24.2628 42.9683C22.0611 43.718 19.8572 44.4612 17.6534 45.2049C17.2484 45.3416 16.8434 45.4783 16.4383 45.615C16.3584 45.642 16.2784 45.669 16.196 45.6968C14.6438 46.2207 13.092 46.7454 11.5404 47.271C11.3549 47.3338 11.1694 47.3966 10.9839 47.4594C9.70471 47.8926 8.42585 48.3267 7.14765 48.7628C7.03939 48.7997 6.93114 48.8366 6.8196 48.8746C6.31457 49.0469 5.80961 49.2193 5.30475 49.3921C5.12942 49.4519 4.95408 49.5118 4.77875 49.5716C4.69997 49.5987 4.6212 49.6257 4.54004 49.6536C3.58997 49.9775 2.52034 50.1916 1.57134 49.7463C0.832443 49.3082 0.286438 48.7486 0.064479 47.9053C-0.0437693 46.8286 0.172138 45.9413 0.538412 44.9341C0.590456 44.7855 0.642236 44.6369 0.693779 44.4881C0.778278 44.2445 0.862992 44.001 0.94852 43.7577C1.30598 42.7406 1.64233 41.7165 1.9811 40.6931C2.54053 39.005 3.107 37.3195 3.68407 35.6374C4.30817 33.8176 4.9225 31.9946 5.5372 30.1717C5.79701 29.4012 6.05686 28.6308 6.31675 27.8604C6.35912 27.7347 6.35912 27.7347 6.40235 27.6066C6.90284 26.123 7.40511 24.64 7.90868 23.1575C8.57205 21.2044 9.23344 19.2506 9.89376 17.2964C10.0173 16.9309 10.1408 16.5654 10.2643 16.1999C10.3009 16.0918 10.3009 16.0918 10.3381 15.9815C10.5834 15.2559 10.8286 14.5302 11.0739 13.8046C11.1228 13.6598 11.1718 13.515 11.2207 13.3702C11.5061 12.5258 11.7916 11.6815 12.0773 10.8372C12.1868 10.5135 12.2963 10.1897 12.4058 9.86594C12.5262 9.50974 12.6467 9.1536 12.7673 8.79746C12.8041 8.68822 12.841 8.57899 12.879 8.46644C13.041 7.98833 13.205 7.51139 13.3782 7.03721C13.4064 6.95954 13.4347 6.88188 13.4638 6.80186C13.5149 6.66222 13.5668 6.52285 13.6197 6.38385C13.7604 6.00658 13.7604 6.00658 13.6749 5.61588C13.5094 5.46312 13.5094 5.46312 13.3103 5.31208C12.8001 4.88063 12.4371 4.33635 12.3138 3.67154C12.2371 2.6519 12.3367 1.91461 13.0004 1.11959C15.9674 -1.93294 23.6563 2.62606 26.5471 4.24606Z" fill="#F8D01F"/>
<path d="M26.5471 4.24606C27.8037 4.96918 29.0268 5.73864 30.2017 6.58805C30.2741 6.64001 30.3464 6.69197 30.4209 6.74551C31.5126 7.53165 32.5725 8.34975 33.6043 9.21291C33.6623 9.26124 33.7202 9.30956 33.7799 9.35935C35.2007 10.5478 36.5226 11.8306 37.8333 13.138C37.893 13.1975 37.9527 13.257 38.0143 13.3183C38.6398 13.9418 39.2556 14.5655 39.8262 15.2404C39.9254 15.3529 40.0249 15.4652 40.1247 15.5772C40.8519 16.4012 41.5331 17.2518 42.1904 18.1324C42.3014 18.2811 42.4128 18.4296 42.5245 18.5778C45.6552 22.7339 48.0248 27.3414 49.4507 32.3506C49.4878 32.4788 49.4878 32.4788 49.5256 32.6097C49.8387 33.713 50.1366 35.0088 49.639 36.0995C49.2174 36.8042 48.6723 37.3169 47.8952 37.6003C47.0046 37.8147 46.171 37.7657 45.3676 37.3086C44.9406 36.9908 44.5765 36.6148 44.201 36.2392C44.1141 36.2687 44.0273 36.2981 43.9379 36.3285C43.6157 36.4375 43.2933 36.5462 42.9709 36.6546C42.8314 36.7016 42.6919 36.7487 42.5525 36.7961C42.3521 36.864 42.1515 36.9314 41.9509 36.9988C41.8303 37.0395 41.7096 37.0802 41.5853 37.1222C41.2845 37.2114 41.2845 37.2114 40.9928 37.2114C40.9738 37.1382 40.9548 37.065 40.9353 36.9896C40.2231 34.2673 39.2544 31.7481 37.9791 29.2396C37.9369 29.1562 37.8947 29.0728 37.8512 28.9869C36.6427 26.6272 35.0355 24.3767 33.3041 22.3744C33.1236 22.1655 32.945 21.9553 32.7685 21.7431C32.0522 20.8865 31.2877 20.0877 30.496 19.3008C30.292 19.0979 30.0891 18.8939 29.8863 18.6899C29.1782 17.9811 28.4625 17.3179 27.6741 16.6986C27.5669 16.6078 27.4603 16.5163 27.3547 16.4237C26.4989 15.6774 25.5907 15.0155 24.6603 14.3654C24.6 14.323 24.5397 14.2805 24.4775 14.2368C21.0628 11.8473 16.9351 9.77837 12.7999 9.01848C12.9589 8.20887 13.2282 7.45794 13.5136 6.68527C13.5481 6.58927 13.5827 6.49328 13.6182 6.39438C13.6501 6.3078 13.6819 6.22122 13.7148 6.13201C13.7969 5.89451 13.7969 5.89451 13.6748 5.61588C13.5094 5.46312 13.5094 5.46312 13.3103 5.31208C12.8 4.88063 12.437 4.33635 12.3138 3.67154C12.237 2.6519 12.3367 1.91461 13.0004 1.11959C15.9673 -1.93294 23.6563 2.62606 26.5471 4.24606Z" fill="#F69E60"/>
<path d="M26.5471 4.24609C27.8037 4.96922 29.0269 5.73867 30.2017 6.58808C30.2741 6.64004 30.3464 6.692 30.4209 6.74554C31.5126 7.53168 32.5725 8.34978 33.6043 9.21294C33.6623 9.26127 33.7202 9.3096 33.78 9.35939C35.2007 10.5479 36.5226 11.8307 37.8333 13.1381C37.893 13.1976 37.9527 13.257 38.0143 13.3183C38.6398 13.9418 39.2556 14.5655 39.8262 15.2404C39.9255 15.3529 40.0249 15.4652 40.1247 15.5772C40.8519 16.4012 41.5331 17.2518 42.1904 18.1324C42.3015 18.2811 42.4128 18.4296 42.5245 18.5779C45.6552 22.7339 48.0248 27.3415 49.4507 32.3506C49.4878 32.4789 49.4878 32.4789 49.5256 32.6097C49.8388 33.713 50.1366 35.0088 49.6391 36.0995C49.2165 36.8058 48.6726 37.3126 47.8952 37.6003C47.8311 37.6003 47.7669 37.6003 47.7008 37.6003C47.7087 37.5325 47.7166 37.4647 47.7247 37.3949C48.0619 31.7595 43.5604 24.9956 40.3123 20.6846C40.2715 20.6301 40.2307 20.5756 40.1886 20.5195C39.6583 19.8135 39.1041 19.1324 38.5297 18.4619C38.2857 18.1764 38.0501 17.8847 37.815 17.5918C37.5045 17.2099 37.1809 16.857 36.8239 16.5183C36.6469 16.339 36.4844 16.1561 36.3207 15.965C35.9066 15.4882 35.4624 15.0423 35.0151 14.597C34.8744 14.4568 34.7343 14.3161 34.5942 14.1754C34.0862 13.6671 33.5671 13.1797 33.021 12.7128C32.8647 12.5714 32.7087 12.4296 32.5532 12.2874C32.0428 11.8276 31.5157 11.3921 30.9795 10.9628C30.9294 10.9225 30.8793 10.8822 30.8277 10.8407C28.1522 8.69019 25.2957 6.86648 22.2299 5.32426C22.1456 5.2814 22.0613 5.23854 21.9745 5.19439C20.5462 4.47188 19.0715 3.91288 17.5635 3.37992C17.4272 3.33049 17.2908 3.281 17.1545 3.23144C15.649 2.70256 14.0216 2.15742 12.411 2.31053C12.5329 1.50939 13.0758 0.972005 13.6995 0.487715C16.8766 -1.40457 23.8135 2.71416 26.5471 4.24609Z" fill="#D77D41"/>
<path d="M13.8693 5.71313C16.485 6.18482 19.0715 7.06387 21.4522 8.24078C21.5522 8.28989 21.6521 8.339 21.7551 8.38959C25.4203 10.2045 28.6495 12.5857 31.66 15.3376C31.7312 15.4022 31.7312 15.4022 31.8038 15.4681C32.8089 16.3806 33.8139 17.3074 34.6935 18.3438C34.875 18.5536 35.0625 18.7572 35.2512 18.9605C35.7969 19.5486 36.3135 20.1532 36.8125 20.7818C36.8844 20.8707 36.8844 20.8707 36.9578 20.9614C37.965 22.2083 38.8622 23.5174 39.729 24.8649C39.7725 24.9321 39.8159 24.9993 39.8607 25.0685C41.2855 27.2927 42.4059 29.7241 43.2835 32.2109C43.3173 32.3064 43.3511 32.4019 43.3858 32.5003C43.4164 32.5894 43.4469 32.6785 43.4784 32.7702C43.5054 32.8489 43.5324 32.9275 43.5602 33.0085C43.6177 33.2256 43.6177 33.2256 43.6177 33.6144C43.2097 33.7536 42.8015 33.8921 42.393 34.0298C42.2541 34.0767 42.1153 34.1239 41.9766 34.1712C41.777 34.2394 41.5771 34.3067 41.3772 34.3739C41.257 34.4147 41.1369 34.4554 41.0131 34.4974C40.7012 34.5866 40.7012 34.5866 40.3123 34.5866C40.2789 34.4939 40.2789 34.4939 40.2447 34.3993C39.5961 32.6203 38.8367 30.9261 37.9791 29.2397C37.9161 29.115 37.9161 29.115 37.8517 28.9878C36.643 26.6277 35.0358 24.377 33.3042 22.3744C33.1236 22.1656 32.9451 21.9553 32.7686 21.7431C32.0523 20.8865 31.2878 20.0877 30.4961 19.3008C30.2921 19.0979 30.0892 18.894 29.8864 18.6899C29.1783 17.9811 28.4626 17.3179 27.6741 16.6987C27.567 16.6079 27.4604 16.5163 27.3548 16.4237C26.4989 15.6774 25.5908 15.0155 24.6604 14.3655C24.6001 14.323 24.5397 14.2805 24.4776 14.2368C21.0629 11.8473 16.9351 9.7784 12.7999 9.01851C12.9395 8.31616 13.1494 7.65716 13.3893 6.98303C13.4247 6.88196 13.4601 6.78089 13.4966 6.67676C13.756 5.93978 13.756 5.93978 13.8693 5.71313Z" fill="#FCECA4"/>
<path d="M26.1186 39.253C26.1507 39.253 26.1828 39.253 26.2158 39.253C26.2499 39.3753 26.284 39.4976 26.3191 39.6236C26.5955 40.4487 27.0578 41.1787 27.7713 41.6834C27.5021 41.8629 27.2967 41.9514 26.9935 42.0534C26.8428 42.1045 26.8428 42.1045 26.6889 42.1566C26.5787 42.1934 26.4684 42.2303 26.3548 42.2682C26.2388 42.3074 26.1227 42.3466 26.0031 42.387C25.7501 42.4724 25.4969 42.5575 25.2437 42.6425C24.8366 42.7791 24.4298 42.9162 24.0229 43.0535C23.5238 43.2218 23.0246 43.39 22.5254 43.558C21.6462 43.8539 20.7674 44.1508 19.8888 44.4484C19.8253 44.4699 19.7618 44.4914 19.6964 44.5136C19.4398 44.6005 19.1832 44.6874 18.9265 44.7744C18.2077 45.0179 17.4888 45.2612 16.7698 45.5045C16.7039 45.5268 16.6379 45.5491 16.57 45.5721C15.5723 45.9097 14.5745 46.247 13.5766 46.5841C13.3508 46.6604 13.1251 46.7366 12.8993 46.8129C12.8249 46.838 12.7506 46.8632 12.674 46.889C12.524 46.9397 12.3741 46.9904 12.2241 47.041C11.854 47.1661 11.4839 47.2911 11.1137 47.4161C9.69467 47.8955 8.27574 48.3752 6.85826 48.8592C6.70432 48.9118 6.70432 48.9118 6.54726 48.9654C6.08369 49.1238 5.6202 49.2824 5.15684 49.4414C4.99928 49.4953 4.84172 49.5493 4.68417 49.6032C4.61455 49.6272 4.54493 49.6511 4.4732 49.6759C3.54693 49.9926 2.49283 50.1788 1.57132 49.7464C0.923751 49.3623 0.413792 48.8782 0.127497 48.1723C-0.00117867 47.6273 -0.0930816 46.7621 0.161675 46.2526C0.370211 46.3562 0.577681 46.4612 0.784092 46.569C0.865424 46.6109 0.946756 46.6529 1.03055 46.6962C1.11163 46.7384 1.19271 46.7806 1.27625 46.8241C2.66638 47.4389 4.19648 46.9221 5.52684 46.4288C5.70126 46.3664 5.87579 46.3043 6.0504 46.2424C6.40843 46.1153 6.76599 45.9869 7.12323 45.8576C7.84465 45.5973 8.57042 45.3499 9.29652 45.103C9.52565 45.025 9.75466 44.9466 9.98363 44.8682C11.0964 44.4871 12.2117 44.1141 13.3281 43.7437C14.4018 43.3872 15.4731 43.024 16.5427 42.6556C17.6017 42.2909 18.6622 41.9311 19.7252 41.5783C20.3983 41.3548 21.0711 41.1304 21.7439 40.9057C21.8355 40.8751 21.9272 40.8445 22.0216 40.8129C22.6157 40.6144 23.2094 40.4149 23.8028 40.2144C23.9972 40.1489 24.1916 40.0836 24.3862 40.0186C24.6574 39.9278 24.9284 39.8362 25.1992 39.7444C25.3222 39.7036 25.3222 39.7036 25.4476 39.662C25.8567 39.5525 25.8567 39.5525 26.1186 39.253Z" fill="#FEA402"/>
<path d="M21.4469 15.8522C22.2942 16.5561 22.7587 17.4099 23.1049 18.4485C23.1296 18.76 23.1274 19.0719 23.1292 19.3843C23.1312 19.4684 23.1332 19.5524 23.1353 19.6391C23.1389 20.2343 23.0365 20.7173 22.8133 21.2678C22.7861 21.3353 22.7589 21.4027 22.7309 21.4722C22.2602 22.5824 21.262 23.3697 20.1755 23.8262C18.9674 24.244 17.683 24.2312 16.5207 23.6667C15.3114 22.9708 14.4852 22.0327 14.0637 20.6845C13.7694 19.5112 13.9032 18.2617 14.5054 17.2159C14.6708 16.9667 14.8462 16.7353 15.0359 16.5042C15.0917 16.4352 15.1474 16.3661 15.2049 16.295C16.8034 14.5116 19.5865 14.5062 21.4469 15.8522Z" fill="#ED2160"/>
<path d="M18.6147 30.0356C19.6237 30.7278 20.4078 31.7882 20.6502 33.0079C20.8071 34.4131 20.5508 35.6749 19.7023 36.8226C19.0022 37.6827 17.9857 38.3011 16.883 38.4752C15.4398 38.6043 14.3669 38.3747 13.1888 37.5031C13.1046 37.4469 13.0204 37.3908 12.9336 37.3329C12.0382 36.4847 11.5286 35.377 11.4835 34.1501C11.4716 32.703 11.8819 31.6368 12.8789 30.5764C13.2692 30.2038 13.6721 29.9502 14.161 29.7257C14.2397 29.6875 14.3184 29.6493 14.3994 29.6099C15.7927 29.0113 17.3385 29.2818 18.6147 30.0356Z" fill="#ED2060"/>
<path d="M33.487 34.4959C34.2782 35.189 34.9468 36.0599 35.1598 37.1143C35.1675 37.2827 35.1703 37.4515 35.1693 37.6201C35.1688 37.763 35.1688 37.763 35.1683 37.9087C35.1671 38.0568 35.1671 38.0568 35.1659 38.208C35.1654 38.3082 35.165 38.4085 35.1645 38.5118C35.1634 38.7589 35.1618 39.0059 35.1598 39.253C35.0553 39.2887 34.9509 39.3243 34.8433 39.361C34.5289 39.4683 34.2144 39.5756 33.9001 39.6829C33.5391 39.8061 33.1782 39.9291 32.8172 40.0521C31.955 40.346 31.0933 40.6413 30.2336 40.9426C30.0223 41.0163 29.811 41.09 29.5997 41.1638C29.467 41.2102 29.3344 41.257 29.2019 41.304C29.0184 41.3691 28.8346 41.4333 28.6508 41.4974C28.4972 41.5516 28.4972 41.5516 28.3405 41.6069C28.0675 41.6822 27.858 41.7108 27.5769 41.6835C26.8297 41.1004 26.2056 40.0631 26.0461 39.1262C25.9054 37.6334 26.0638 36.4359 26.9928 35.1973C28.684 33.2758 31.4357 32.914 33.487 34.4959Z" fill="#EC2160"/>
<path d="M34.9654 36.5309C35.2078 37.0904 35.182 37.6228 35.1719 38.2201C35.1711 38.3195 35.1702 38.4188 35.1693 38.5212C35.167 38.7652 35.1638 39.0091 35.1598 39.253C35.0031 39.3065 35.0031 39.3065 34.8433 39.361C34.5288 39.4682 34.2144 39.5755 33.9 39.6829C33.5391 39.806 33.1782 39.9291 32.8172 40.0521C31.955 40.346 31.0933 40.6412 30.2336 40.9425C30.0223 41.0163 29.811 41.09 29.5997 41.1637C29.467 41.2102 29.3344 41.257 29.2019 41.304C29.0184 41.3691 28.8346 41.4333 28.6508 41.4974C28.4972 41.5516 28.4972 41.5516 28.3404 41.6069C28.0675 41.6822 27.858 41.7108 27.5769 41.6834C26.975 41.2138 26.4831 40.4491 26.2158 39.7391C26.2325 39.5409 26.2325 39.5409 26.313 39.3502C26.4934 39.247 26.4934 39.247 26.7324 39.1695C26.8217 39.1396 26.9111 39.1098 27.0031 39.079C27.1495 39.0328 27.1495 39.0328 27.2989 38.9857C27.3993 38.9526 27.4998 38.9196 27.6032 38.8855C27.9261 38.7797 28.2497 38.6761 28.5733 38.5725C28.7871 38.5028 29.0007 38.4329 29.2144 38.3629C30.1417 38.0599 31.0702 37.7611 32.0051 37.482C32.3268 37.3792 32.6358 37.2512 32.9477 37.1222C33.2908 36.9874 33.6379 36.8674 33.9871 36.7497C34.0504 36.728 34.1138 36.7063 34.179 36.684C34.4541 36.5924 34.6732 36.5309 34.9654 36.5309Z" fill="#C71E53"/>
<path d="M24.7185 26.2855C25.9281 26.4802 26.9864 27.0375 27.7714 27.9758C28.3416 28.9139 28.2948 30.265 28.0448 31.3116C27.9446 31.6167 27.862 31.7754 27.6559 32.0285C26.9976 32.3358 26.3917 32.1303 25.7397 31.8968C24.6602 31.4331 23.9435 30.8147 23.4938 29.7257C23.1849 28.7622 23.3697 27.6128 23.7855 26.712C24.0741 26.3611 24.2531 26.2604 24.7185 26.2855Z" fill="#69C043"/>
<path d="M9.68896 38.931C9.80475 38.9268 9.80475 38.9268 9.92288 38.9224C10.2883 38.9185 10.5236 38.9424 10.8582 39.1C11.1469 39.4767 11.1189 39.8113 11.1047 40.2738C11.1031 40.3609 11.1015 40.4481 11.0998 40.5378C11.0645 41.5504 10.8313 42.5161 10.0778 43.2389C9.21594 43.8935 8.34213 44.1355 7.27676 44.1625C7.20582 44.1655 7.13488 44.1685 7.06179 44.1716C6.70559 44.1716 6.49423 44.1223 6.19142 43.9327C5.90442 43.4878 5.92717 43.1074 5.94002 42.5888C5.93896 42.4971 5.93789 42.4054 5.9368 42.311C5.94752 41.271 6.29489 40.5088 7.00827 39.7589C7.79455 39.0859 8.6912 38.9431 9.68896 38.931Z" fill="#69C043"/>
<path d="M40.4095 34.781C40.4961 34.9718 40.4961 34.9718 40.5656 35.22C40.5909 35.3096 40.6163 35.3992 40.6425 35.4916C40.6678 35.5859 40.6932 35.6803 40.7194 35.7775C40.7459 35.8704 40.7724 35.9632 40.7997 36.0589C40.9197 36.4913 40.9988 36.8587 40.9928 37.3087C40.2467 37.5624 39.5005 37.8159 38.7543 38.0692C38.4078 38.1868 38.0613 38.3045 37.7149 38.4223C37.3809 38.5359 37.0468 38.6494 36.7127 38.7627C36.5849 38.8061 36.4572 38.8495 36.3295 38.8929C36.1512 38.9536 35.9729 39.0141 35.7945 39.0745C35.6929 39.1091 35.5912 39.1436 35.4864 39.1792C35.257 39.253 35.257 39.253 35.1598 39.253C35.1573 39.1913 35.1549 39.1296 35.1524 39.066C35.141 38.784 35.1291 38.502 35.1172 38.2201C35.1115 38.0744 35.1115 38.0744 35.1057 37.9258C35.0853 37.4536 35.0597 36.9955 34.9653 36.531C35.5828 36.2441 36.2073 36.0023 36.8512 35.7817C36.9442 35.7497 37.0372 35.7176 37.1331 35.6846C37.3279 35.6176 37.5228 35.5509 37.7178 35.4844C38.017 35.3821 38.3157 35.2784 38.6144 35.1747C38.8044 35.1096 38.9944 35.0446 39.1844 34.9797C39.2737 34.9485 39.363 34.9173 39.4551 34.8852C39.5378 34.8572 39.6206 34.8293 39.7059 34.8005C39.7786 34.7755 39.8514 34.7506 39.9263 34.7249C40.1178 34.6838 40.1178 34.6838 40.4095 34.781Z" fill="#FEA402"/>
<path d="M43.7149 33.7116C43.8156 34.0596 43.9143 34.4081 44.0126 34.7567C44.0412 34.8555 44.0698 34.9542 44.0994 35.056C44.126 35.1512 44.1526 35.2464 44.1801 35.3446C44.205 35.4321 44.2299 35.5197 44.2556 35.6099C44.3258 36.0067 44.3258 36.0067 44.2009 36.2393C43.9268 36.3727 43.9268 36.3727 43.5637 36.4899C43.4998 36.5109 43.4359 36.532 43.3701 36.5536C43.2348 36.5978 43.0993 36.6412 42.9636 36.684C42.7558 36.7493 42.5489 36.8169 42.342 36.8848C41.3355 37.2114 41.3355 37.2114 40.9928 37.2114C40.8789 36.8105 40.7657 36.4095 40.6525 36.0084C40.6201 35.8941 40.5876 35.7798 40.5542 35.662C40.5081 35.4985 40.5081 35.4985 40.4611 35.3317C40.4184 35.1804 40.4184 35.1804 40.3747 35.0262C40.3123 34.781 40.3123 34.781 40.3123 34.5866C40.7339 34.445 41.156 34.3049 41.5785 34.1659C41.7221 34.1184 41.8657 34.0706 42.009 34.0224C42.2153 33.9532 42.422 33.8853 42.6288 33.8176C42.6927 33.7958 42.7566 33.774 42.8224 33.7516C43.1519 33.6452 43.3864 33.5781 43.7149 33.7116Z" fill="#FBDE63"/>
<path d="M28.3546 23.1149C28.59 23.2543 28.59 23.2543 28.8164 23.4491C28.9403 23.5555 28.9403 23.5555 29.0666 23.6641C29.1525 23.7395 29.2383 23.815 29.3268 23.8927C29.4176 23.9661 29.5085 24.0396 29.6021 24.1152C30.3476 24.736 30.3476 24.736 30.4448 25.1322C30.3962 25.4482 30.3962 25.4482 30.147 25.7398C29.8129 25.9342 29.8129 25.9342 29.5299 25.9229C29.1775 25.8222 29.0178 25.6896 28.7556 25.436C28.6728 25.3576 28.59 25.2791 28.5046 25.1983C28.3822 25.0814 28.3822 25.0814 28.2574 24.9621C28.1103 24.8316 27.9625 24.7019 27.8138 24.5732C27.3839 24.1995 27.3839 24.1995 27.3521 23.8623C27.3824 23.5038 27.3824 23.5038 27.5404 23.2669C27.8395 23.0701 28.0009 23.0798 28.3546 23.1149Z" fill="#FCECA1"/>
<path d="M13.0916 24.476C13.5258 24.8512 13.8299 25.2984 14.1427 25.7763C14.1915 25.8472 14.2403 25.9181 14.2906 25.9912C14.583 26.4367 14.7285 26.7451 14.647 27.2953C14.4149 27.554 14.2567 27.6626 13.9179 27.7388C13.4345 27.6301 13.1674 27.1825 12.9074 26.7883C12.8121 26.6357 12.7175 26.4827 12.6237 26.3292C12.5505 26.2146 12.5505 26.2146 12.4758 26.0977C12.2179 25.6784 12.0355 25.3735 12.1194 24.8649C12.3892 24.4705 12.6244 24.3902 13.0916 24.476Z" fill="#FCECA1"/>
<path d="M23.296 35.8899C23.6139 35.9826 23.7154 36.1553 23.8827 36.4337C23.9028 36.7447 23.9028 36.7447 23.8645 37.0838C23.8515 37.2034 23.8386 37.3229 23.8253 37.4461C23.8122 37.5612 23.799 37.6762 23.7855 37.7947C23.7813 37.8897 23.7772 37.9847 23.7729 38.0826C23.7532 38.5061 23.724 38.7159 23.4756 39.0707C23.15 39.2877 23.0022 39.3264 22.6189 39.253C22.3674 39.0548 22.2443 38.9411 22.1852 38.6222C22.2501 36.489 22.2501 36.489 22.5535 36.0543C22.7868 35.9012 23.0229 35.9025 23.296 35.8899Z" fill="#FCECA1"/>
</g>
<defs>
<clipPath id="clip0_1_2859">
<rect width="50" height="50" fill="white"/>
</clipPath>
</defs>
</svg>
