<svg width="50" height="50" viewBox="0 0 50 50" fill="none" xmlns="http://www.w3.org/2000/svg">
<path d="M24.0863 3.82957C24.4289 4.08773 24.7907 4.37238 24.9855 4.76193C25.0421 4.76193 25.0987 4.76193 25.157 4.76193C25.2468 4.6637 25.3317 4.56098 25.4142 4.4565C26.0502 3.71249 26.9985 3.11606 27.9947 3.03208C29.4868 2.99133 30.6649 3.20732 31.8121 4.23681C32.6511 5.12497 32.979 6.2353 33.1302 7.41969C33.298 7.41372 33.298 7.41372 33.4691 7.40763C34.9061 7.37158 36.0291 7.62341 37.1276 8.60925C37.9689 9.49244 38.4005 10.6978 38.3774 11.906C38.3452 12.3301 38.2688 12.7466 38.1885 13.1639C38.3477 13.1877 38.3477 13.1877 38.51 13.2121C39.5898 13.4566 40.4687 14.217 41.0499 15.1357C41.6737 16.2486 41.7879 17.5111 41.4464 18.7366C41.4181 18.7932 41.3898 18.8497 41.3607 18.908C41.4362 18.9051 41.5116 18.9021 41.5894 18.899C41.689 18.8967 41.7886 18.8944 41.8912 18.892C41.9896 18.889 42.0881 18.886 42.1896 18.8829C42.5038 18.9106 42.655 18.9756 42.9039 19.1652C43.076 19.4235 43.0974 19.4776 43.103 19.7675C43.1046 19.8365 43.1063 19.9055 43.108 19.9765C43.1091 20.0878 43.1091 20.0878 43.1102 20.2014C43.1112 20.2781 43.1121 20.3547 43.1132 20.4337C43.1148 20.5958 43.1159 20.758 43.1166 20.9201C43.1182 21.1678 43.1235 21.4153 43.1289 21.6629C43.1301 21.8205 43.131 21.9782 43.1316 22.1358C43.1348 22.2466 43.1348 22.2466 43.138 22.3596C43.1375 22.4292 43.137 22.4987 43.1365 22.5703C43.1374 22.6614 43.1374 22.6614 43.1384 22.7543C43.0338 23.0586 42.8389 23.223 42.561 23.3662C42.1933 23.4308 41.8298 23.434 41.4571 23.4359C41.3572 23.438 41.2573 23.4402 41.1544 23.4424C40.9088 23.4474 40.6633 23.4506 40.4176 23.4519C40.4006 23.6177 40.4006 23.6177 40.3833 23.7867C40.1141 26.4115 39.8445 29.0362 39.5744 31.6608C39.5412 31.9841 39.5079 32.3075 39.4747 32.6308C39.468 32.6951 39.4614 32.7595 39.4546 32.8258C39.3475 33.8669 39.2407 34.908 39.1339 35.9491C39.0244 37.018 38.9145 38.0869 38.8044 39.1557C38.7364 39.8148 38.6688 40.474 38.6014 41.1331C38.5496 41.6393 38.4974 42.1454 38.4451 42.6515C38.4237 42.8586 38.4025 43.0657 38.3814 43.2728C38.3526 43.5563 38.3232 43.8398 38.2938 44.1233C38.2856 44.2046 38.2774 44.2859 38.269 44.3697C38.0812 46.157 38.0812 46.157 37.5884 46.6001C37.0654 46.9726 36.6476 46.9921 36.0159 46.9872C35.9185 46.9878 35.8211 46.9884 35.7208 46.989C35.3949 46.9906 35.069 46.9897 34.7431 46.9888C34.5093 46.9892 34.2755 46.9901 34.0417 46.991C33.4728 46.9929 32.9039 46.9929 32.335 46.9922C31.8725 46.9916 31.41 46.9917 30.9475 46.9923C30.8816 46.9924 30.8158 46.9924 30.7479 46.9925C30.6141 46.9927 30.4803 46.9928 30.3464 46.993C29.092 46.9944 27.8376 46.9937 26.5832 46.9922C25.4361 46.991 24.289 46.9922 23.1419 46.9947C21.9634 46.9972 20.7849 46.9982 19.6065 46.9973C19.4731 46.9973 19.3398 46.9972 19.2064 46.9971C19.1408 46.9971 19.0752 46.997 19.0076 46.997C18.5458 46.9968 18.0841 46.9976 17.6223 46.9989C17.0593 47.0004 16.4964 47.0004 15.9334 46.9984C15.6462 46.9975 15.3592 46.9974 15.072 46.9988C14.7605 47.0001 14.449 46.9989 14.1375 46.9969C14.002 46.9984 14.002 46.9984 13.8637 47C13.293 46.9928 12.9013 46.8987 12.4683 46.5144C12.11 46.1072 12.0498 45.7198 11.9895 45.1994C11.9743 45.0814 11.9743 45.0814 11.9587 44.961C11.9267 44.7074 11.8971 44.4536 11.8682 44.1996C11.8588 44.1177 11.8494 44.0359 11.8396 43.9516C11.7693 43.3317 11.7055 42.7112 11.6422 42.0906C11.6211 41.8859 11.5999 41.6813 11.5788 41.4766C11.522 40.9269 11.4656 40.3772 11.4093 39.8275C11.3562 39.3094 11.3027 38.7913 11.2493 38.2733C11.1436 37.2487 11.0382 36.2241 10.933 35.1994C10.831 34.2054 10.7288 33.2114 10.6264 32.2174C10.6201 32.1559 10.6138 32.0944 10.6072 32.031C10.5755 31.7224 10.5437 31.4138 10.5119 31.1052C10.2491 28.5542 9.98679 26.0031 9.72483 23.4519C9.6626 23.4516 9.60036 23.4512 9.53624 23.4509C9.25253 23.448 8.96897 23.442 8.68531 23.4359C8.58739 23.4354 8.48947 23.4349 8.38859 23.4344C7.5737 23.413 7.5737 23.413 7.2593 23.1589C7.06665 22.9371 7.00272 22.8598 7.00324 22.573C7.00163 22.4696 7.00163 22.4696 7 22.364C7.00158 22.2907 7.00316 22.2174 7.00479 22.1418C7.0047 22.0654 7.00461 21.989 7.00453 21.9103C7.00493 21.7492 7.00659 21.588 7.00943 21.4269C7.01348 21.1808 7.01296 20.9349 7.01182 20.6887C7.01277 20.5319 7.01399 20.375 7.0155 20.2182C7.01535 20.1448 7.01519 20.0715 7.01503 19.996C7.02322 19.6502 7.04126 19.4646 7.22569 19.1637C7.5324 18.8809 7.79739 18.8984 8.19769 18.9027C8.29086 18.9035 8.38402 18.9042 8.48001 18.905C8.5513 18.906 8.62258 18.907 8.69602 18.908C8.68364 18.8529 8.67127 18.7977 8.65851 18.7409C8.38835 17.4258 8.46802 16.1175 9.21043 14.9643C9.89602 14.0807 10.6332 13.5199 11.6967 13.1639C11.7816 13.1639 11.8665 13.1639 11.9539 13.1639C11.9415 13.0995 11.9292 13.0352 11.9164 12.969C11.6544 11.5241 11.8077 10.2976 12.6398 9.04863C13.2767 8.24429 14.2639 7.55888 15.2975 7.41969C15.8689 7.393 16.4407 7.40346 17.0122 7.41969C17.0281 7.29502 17.0281 7.29502 17.0444 7.16784C17.2302 5.89741 17.6861 4.71605 18.7269 3.90459C20.3619 2.71133 22.4208 2.71122 24.0863 3.82957Z" fill="#E2E1E1"/>
<path d="M24.0857 3.82957C24.4283 4.08773 24.7901 4.37238 24.9849 4.76193C25.0415 4.76193 25.0981 4.76193 25.1564 4.76193C25.2462 4.6637 25.3311 4.56098 25.4136 4.4565C26.0496 3.71249 26.9979 3.11606 27.9941 3.03208C29.4862 2.99133 30.6643 3.20732 31.8115 4.23681C32.6505 5.12497 32.9784 6.2353 33.1296 7.41969C33.2974 7.41372 33.2974 7.41372 33.4685 7.40763C34.9055 7.37157 36.0285 7.62341 37.127 8.60925C37.9683 9.49244 38.3999 10.6978 38.3768 11.906C38.3446 12.3301 38.2682 12.7466 38.1879 13.1639C38.3471 13.1877 38.3471 13.1877 38.5094 13.2121C39.5892 13.4566 40.4681 14.217 41.0493 15.1357C41.6423 16.1937 41.7805 17.4022 41.5001 18.5819C41.4458 18.7366 41.4458 18.7366 41.2744 18.9938C41.0447 19.0257 41.0447 19.0257 40.7458 19.0254C40.6907 19.0257 40.6357 19.026 40.579 19.0263C40.3927 19.027 40.2064 19.0258 40.0202 19.0247C39.886 19.0248 39.7518 19.025 39.6176 19.0254C39.2475 19.0259 38.8775 19.0249 38.5074 19.0236C38.1088 19.0225 37.7102 19.0229 37.3117 19.0231C36.6206 19.0232 35.9296 19.0224 35.2386 19.021C34.2395 19.0189 33.2404 19.0182 32.2413 19.0179C30.6205 19.0173 28.9997 19.0156 27.3788 19.0132C25.804 19.0108 24.2292 19.009 22.6543 19.0079C22.5573 19.0078 22.4603 19.0078 22.3604 19.0077C21.8737 19.0074 21.387 19.007 20.9004 19.0067C16.8606 19.0041 12.8209 18.9995 8.78116 18.9938C8.32745 17.9019 8.45377 16.6831 8.86656 15.5969C9.38731 14.4419 10.3249 13.7058 11.4701 13.2396C11.6961 13.1639 11.6961 13.1639 11.9533 13.1639C11.9409 13.0995 11.9286 13.0352 11.9158 12.969C11.6538 11.5241 11.8071 10.2976 12.6392 9.04863C13.2761 8.24429 14.2633 7.55888 15.2969 7.41969C15.8683 7.393 16.4401 7.40346 17.0116 7.41969C17.0275 7.29502 17.0275 7.29502 17.0438 7.16784C17.2296 5.89741 17.6855 4.71605 18.7263 3.90459C20.3613 2.71133 22.4202 2.71122 24.0857 3.82957Z" fill="#FDDAA5"/>
<path d="M21.6416 23.2812C23.905 23.2812 26.1684 23.2812 28.5003 23.2812C28.3714 27.7823 28.1829 32.2802 27.9924 36.779C27.9326 38.1893 27.8741 39.5996 27.8181 41.0101C27.8151 41.0863 27.8121 41.1624 27.809 41.2409C27.7815 41.9322 27.7544 42.6235 27.7275 43.3148C27.7203 43.498 27.7131 43.6811 27.7059 43.8643C27.6975 44.0789 27.6892 44.2935 27.681 44.5081C27.6489 45.3208 27.6024 46.1313 27.5572 46.9438C25.9163 46.9438 24.2754 46.9438 22.5847 46.9438C22.4485 43.8888 22.4485 43.8888 22.4042 42.8788C22.4012 42.8094 22.3982 42.7401 22.395 42.6687C22.2812 40.0676 22.1736 37.4663 22.0662 34.865C22.033 34.0594 21.9996 33.2539 21.9659 32.4484C21.9392 31.8088 21.9128 31.1693 21.8864 30.5297C21.8709 30.1546 21.8554 29.7796 21.8397 29.4046C21.8367 29.3332 21.8337 29.2619 21.8306 29.1884C21.8252 29.059 21.8198 28.9296 21.8143 28.8002C21.7374 26.9605 21.69 25.1222 21.6416 23.2812Z" fill="#E41F2D"/>
<path d="M15.7266 23.2812C17.6504 23.2812 19.5743 23.2812 21.5565 23.2812C21.7494 23.9564 21.7494 23.9564 21.7587 24.2293C21.7612 24.2917 21.7637 24.3541 21.7663 24.4184C21.7692 24.5184 21.7692 24.5184 21.7721 24.6205C21.7761 24.7291 21.7761 24.7291 21.7802 24.8399C21.7891 25.082 21.7968 25.3241 21.8046 25.5663C21.8108 25.7411 21.8171 25.9159 21.8234 26.0907C21.837 26.4683 21.8502 26.8459 21.863 27.2236C21.8941 28.1395 21.9275 29.0554 21.9608 29.9713C21.9686 30.1864 21.9764 30.4015 21.9841 30.6166C22.0753 33.1479 22.1803 35.6786 22.287 38.2093C22.3012 38.5451 22.3153 38.8808 22.3295 39.2166C22.3678 40.1272 22.4061 41.0378 22.4447 41.9484C22.4558 42.2105 22.4667 42.4726 22.4776 42.7348C22.4926 43.094 22.5082 43.4532 22.5242 43.8123C22.5322 43.997 22.5401 44.1816 22.548 44.3663C22.5518 44.4473 22.5555 44.5284 22.5594 44.6119C22.5923 45.3911 22.5853 46.1613 22.5853 46.9438C20.8312 46.9438 19.077 46.9438 17.2698 46.9438C17.0723 44.6724 17.0723 44.6724 17.0156 43.8078C17.0088 43.7068 17.0021 43.6058 16.9951 43.5017C16.981 43.2897 16.9669 43.0777 16.953 42.8656C16.9328 42.5585 16.9122 42.2515 16.8915 41.9445C16.8048 40.6432 16.7264 39.3415 16.6509 38.0395C16.5224 35.8247 16.3804 33.6109 16.2318 31.3973C16.1988 30.9062 16.1661 30.4151 16.1335 29.9241C16.1077 29.5349 16.0817 29.1458 16.0556 28.7567C16.0435 28.5756 16.0315 28.3946 16.0194 28.2135C16.0026 27.9602 15.9856 27.707 15.9685 27.4537C15.963 27.3724 15.9575 27.2911 15.9519 27.2073C15.9216 26.7669 15.8881 26.3269 15.8512 25.887C15.8433 25.7922 15.8354 25.6975 15.8273 25.5998C15.8121 25.4197 15.7965 25.2396 15.7805 25.0595C15.7297 24.46 15.7266 23.888 15.7266 23.2812Z" fill="#F2EEF1"/>
<path d="M28.5864 23.2812C30.482 23.2812 32.3776 23.2812 34.3306 23.2812C34.3306 25.9368 34.3306 25.9368 34.2549 26.8637C34.2424 27.0311 34.23 27.1986 34.2175 27.3661C34.2042 27.5422 34.1906 27.7183 34.1768 27.8944C34.1313 28.476 34.0888 29.0578 34.0459 29.6396C34.0304 29.8492 34.0148 30.0587 33.9992 30.2683C33.8745 31.9471 33.7623 33.6268 33.6507 35.3065C33.634 35.5571 33.6173 35.8078 33.6006 36.0584C33.4457 38.3859 33.3004 40.7137 33.1676 43.0425C33.1264 43.7627 33.0813 44.4826 33.0339 45.2024C33.0274 45.3028 33.0209 45.4032 33.0142 45.5067C33.005 45.643 33.005 45.643 32.9957 45.7821C32.9906 45.8584 32.9855 45.9347 32.9803 46.0134C32.953 46.3244 32.9118 46.634 32.8731 46.9438C31.119 46.9438 29.3649 46.9438 27.5576 46.9438C27.5576 45.1597 27.5576 45.1597 27.5928 44.3608C27.5954 44.3019 27.598 44.2431 27.6006 44.1824C27.6032 44.1215 27.6059 44.0605 27.6086 43.9977C27.6141 43.8652 27.6196 43.7326 27.6251 43.6001C27.6369 43.3169 27.6488 43.0337 27.6609 42.7505C27.6804 42.2944 27.6994 41.8382 27.7184 41.382C27.7488 40.6516 27.7795 39.9212 27.8104 39.1908C27.8644 37.911 27.9182 36.6312 27.9716 35.3513C27.9881 34.9553 28.0047 34.5593 28.0213 34.1632C28.0928 32.4657 28.1613 30.7682 28.2202 29.0702C28.2288 28.8241 28.2374 28.578 28.2461 28.3319C28.2706 27.6328 28.2949 26.9338 28.3174 26.2347C28.3266 25.9527 28.3364 25.6708 28.3463 25.3888C28.3507 25.2589 28.3549 25.1289 28.3588 24.9989C28.3642 24.8212 28.3704 24.6436 28.3769 24.466C28.3801 24.367 28.3834 24.2679 28.3867 24.1659C28.415 23.8814 28.415 23.8814 28.5864 23.2812Z" fill="#F2EEF1"/>
<path d="M34.4163 23.2812C36.3684 23.2812 38.3206 23.2812 40.3319 23.2812C40.4353 23.4881 40.4174 23.5804 40.3939 23.8086C40.3826 23.9211 40.3826 23.9211 40.3712 24.0359C40.3624 24.1188 40.3536 24.2018 40.3445 24.2872C40.3356 24.3749 40.3267 24.4626 40.3175 24.553C40.2873 24.8489 40.2564 25.1447 40.2255 25.4405C40.2038 25.6518 40.1821 25.8632 40.1605 26.0745C40.1075 26.5904 40.0542 27.1062 40.0005 27.622C39.9381 28.223 39.8761 28.824 39.8142 29.4251C39.7036 30.4983 39.5925 31.5714 39.4812 32.6445C39.3732 33.6847 39.2657 34.725 39.1586 35.7653C39.042 36.8981 38.9251 38.0308 38.8079 39.1635C38.7953 39.2845 38.7828 39.4055 38.7703 39.5265C38.7611 39.6158 38.7611 39.6158 38.7516 39.7069C38.7083 40.1253 38.6652 40.5437 38.6221 40.9621C38.564 41.5265 38.5055 42.091 38.4467 42.6554C38.4252 42.8622 38.4039 43.069 38.3826 43.2759C38.3535 43.559 38.324 43.8421 38.2944 44.1252C38.282 44.247 38.282 44.247 38.2694 44.3713C38.0801 46.1587 38.0801 46.1587 37.5884 46.6009C37.0676 46.972 36.6585 46.9901 36.0295 46.9773C35.939 46.9768 35.8485 46.9764 35.7552 46.9759C35.4678 46.9739 35.1805 46.9696 34.8932 46.9653C34.6976 46.9635 34.5021 46.962 34.3066 46.9606C33.8287 46.9568 33.3509 46.9511 32.873 46.9438C32.9159 45.8531 32.9671 44.7637 33.0432 43.6748C33.1436 42.2322 33.2369 40.7895 33.3195 39.3458C33.4447 37.1666 33.5843 34.9884 33.7302 32.8104C33.7553 32.4342 33.7803 32.0579 33.8052 31.6817C33.99 28.8799 34.1972 26.0806 34.4163 23.2812Z" fill="#E3202E"/>
<path d="M9.8106 23.2812C11.7628 23.2812 13.7149 23.2812 15.7262 23.2812C15.9481 26.1792 15.9481 26.1792 16.0206 27.1657C16.0257 27.2354 16.0309 27.305 16.0361 27.3767C16.1813 29.3577 16.3141 31.3396 16.4463 33.3215C16.4653 33.6068 16.4844 33.892 16.5036 34.1772C16.6532 36.411 16.7949 38.645 16.9228 40.8801C17.0154 42.4922 17.1237 44.103 17.2373 45.7137C17.2659 46.1247 17.2736 46.5318 17.2695 46.9438C16.696 46.9547 16.1225 46.9622 15.5489 46.9674C15.354 46.9695 15.1591 46.9725 14.9642 46.9762C14.6832 46.9814 14.4024 46.9838 14.1214 46.9857C14.0349 46.9879 13.9485 46.9901 13.8594 46.9924C13.3012 46.9926 12.8822 46.9097 12.4684 46.5152C12.1282 46.0893 12.051 45.7295 11.989 45.1943C11.9789 45.1154 11.9687 45.0366 11.9582 44.9553C11.9265 44.7039 11.897 44.4522 11.8682 44.2003C11.859 44.1209 11.8498 44.0414 11.8403 43.9596C11.7725 43.369 11.711 42.7778 11.6501 42.1864C11.6299 41.9919 11.6095 41.7973 11.5892 41.6027C11.5347 41.0803 11.4806 40.5578 11.4266 40.0352C11.3814 39.5974 11.3359 39.1595 11.2905 38.7216C11.1771 37.63 11.0642 36.5383 10.9515 35.4466C10.8539 34.501 10.7556 33.5555 10.6572 32.61C10.5556 31.635 10.4545 30.6599 10.3537 29.6848C10.2973 29.139 10.2408 28.5932 10.1838 28.0474C10.1303 27.5349 10.0774 27.0224 10.0248 26.5098C10.0055 26.3224 9.98603 26.1349 9.96635 25.9475C9.93941 25.6906 9.91312 25.4337 9.88699 25.1768C9.87916 25.1036 9.87133 25.0304 9.86326 24.9551C9.80675 24.3888 9.8106 23.8586 9.8106 23.2812Z" fill="#E4202E"/>
<path d="M24.1763 10.9974C24.8293 11.3926 24.8293 11.3926 24.9854 11.7047C25.042 11.7047 25.0986 11.7047 25.1569 11.7047C25.2205 11.641 25.2842 11.5774 25.3498 11.5118C25.8246 11.0369 26.2214 10.8353 26.8876 10.8259C27.5421 10.8324 28.0516 10.9406 28.5534 11.3986C29.0007 11.9065 29.1546 12.4106 29.1864 13.0764C29.2507 13.0714 29.315 13.0665 29.3813 13.0613C30.0469 13.032 30.5273 13.109 31.0725 13.5051C31.564 13.9611 31.9129 14.3592 31.9466 15.0473C31.9455 15.1709 31.9434 15.2945 31.9406 15.418C31.9398 15.4815 31.939 15.545 31.9382 15.6104C31.9362 15.766 31.9331 15.9216 31.9298 16.0771C32.0306 16.1089 32.1314 16.1408 32.2353 16.1736C32.884 16.4223 33.278 16.8313 33.5698 17.4599C33.7084 17.9165 33.7784 18.5528 33.5588 18.9921C27.9569 18.9921 22.3551 18.9921 16.5835 18.9921C16.4069 18.4624 16.4008 17.833 16.6478 17.3256C16.7093 17.2221 16.7734 17.1201 16.8407 17.0202C16.8902 16.9441 16.9397 16.8681 16.9907 16.7898C17.3482 16.4224 17.7767 16.126 18.2981 16.0771C18.2777 16.0045 18.2777 16.0045 18.2569 15.9304C18.1043 15.2577 18.1964 14.6094 18.5553 14.0195C18.9484 13.5647 19.4094 13.1827 20.0128 13.0764C20.3286 13.0584 20.6401 13.0607 20.9559 13.0764C20.9594 12.9668 20.963 12.8571 20.9666 12.7442C21.0351 12.1561 21.2984 11.6643 21.7526 11.282C22.4549 10.8031 23.375 10.6059 24.1763 10.9974Z" fill="#FDC165"/>
<path d="M38.103 23.3672C38.8669 23.3672 39.6308 23.3672 40.4178 23.3672C40.1668 25.8178 39.9156 28.2685 39.6643 30.7191C39.6409 30.947 39.6175 31.1748 39.5942 31.4027C39.5884 31.4593 39.5825 31.5159 39.5766 31.5742C39.4891 32.4274 39.4016 33.2806 39.3143 34.1338C39.2125 35.1274 39.1107 36.121 39.0087 37.1146C38.9548 37.6393 38.901 38.164 38.8474 38.6887C38.7407 39.7307 38.6336 40.7726 38.5248 41.8144C38.4735 42.3057 38.4229 42.797 38.3731 43.2884C38.3435 43.5785 38.3131 43.8685 38.2824 44.1585C38.2687 44.2896 38.2553 44.4207 38.2423 44.5519C38.2247 44.7289 38.2059 44.9057 38.1868 45.0826C38.1767 45.1801 38.1667 45.2776 38.1563 45.378C38.0343 46.0188 37.7578 46.4413 37.2241 46.8259C36.9369 46.9699 36.7417 46.9735 36.4215 46.9692C36.2611 46.9679 36.2611 46.9679 36.0974 46.9666C35.9865 46.9645 35.8756 46.9623 35.7614 46.9601C35.6488 46.959 35.5363 46.9578 35.4203 46.9566C35.1428 46.9536 34.8654 46.9493 34.5879 46.944C34.7198 46.8561 34.8522 46.7685 34.9894 46.6892C35.4481 46.4042 35.6259 46.0809 35.7882 45.5723C35.8463 45.2374 35.8705 44.9041 35.89 44.5649C35.9017 44.3921 35.9137 44.2193 35.9258 44.0465C35.9304 43.971 35.9349 43.8956 35.9396 43.8178C35.9596 43.6004 35.9596 43.6004 36.001 43.3978C36.0572 43.1117 36.0799 42.8281 36.104 42.5374C36.1146 42.4119 36.1253 42.2863 36.136 42.1607C36.1522 41.9657 36.1684 41.7707 36.1845 41.5757C36.2379 40.9309 36.2944 40.2889 36.3843 39.6479C36.4974 38.8342 36.5695 38.0168 36.6457 37.1989C36.7939 35.6093 36.9512 34.0209 37.1224 32.4336C37.3014 30.7726 37.4712 29.1108 37.6353 27.4483C37.6987 26.806 37.7631 26.1637 37.8275 25.5215C37.843 25.3665 37.8585 25.2115 37.874 25.0565C37.8947 24.8506 37.9157 24.6447 37.9369 24.4389C37.9469 24.3382 37.9469 24.3382 37.9571 24.2356C37.988 23.9369 38.0299 23.6593 38.103 23.3672Z" fill="#D3172E"/>
<path d="M28.0721 3.04806C29.5305 2.98585 30.6916 3.23198 31.8122 4.23762C32.6513 5.12578 32.9792 6.2361 33.1304 7.42049C33.2981 7.41452 33.2981 7.41452 33.4693 7.40844C34.9062 7.37238 36.0292 7.62421 37.1277 8.61005C37.9691 9.49325 38.4006 10.6986 38.3776 11.9068C38.3453 12.3309 38.269 12.7474 38.1887 13.1647C38.3478 13.1885 38.3478 13.1885 38.5102 13.2129C39.5899 13.4574 40.4689 14.2178 41.05 15.1366C41.6739 16.2494 41.7881 17.5119 41.4466 18.7374C41.4183 18.794 41.39 18.8506 41.3608 18.9089C40.7384 18.9089 40.116 18.9089 39.4747 18.9089C39.5313 18.6259 39.5879 18.343 39.6462 18.0515C39.7421 17.1338 39.5411 16.2953 38.9603 15.5652C38.2916 14.7675 37.4708 14.4899 36.474 14.2792C36.3823 13.9327 36.4098 13.686 36.474 13.3361C36.5626 12.0898 36.3985 11.0713 35.5503 10.0913C35.2339 9.78545 34.8969 9.58262 34.5021 9.39237C34.4358 9.35701 34.3695 9.32164 34.3012 9.28521C33.5475 8.94177 32.7278 9.02286 31.9187 9.05373C31.7586 9.04944 31.7586 9.04944 31.6729 8.9637C31.6515 8.84331 31.6349 8.72208 31.6203 8.60067C31.3895 6.77791 30.9645 5.21416 29.4914 3.98812C29.0213 3.64107 28.538 3.40852 27.9863 3.21953C28.0146 3.16294 28.0429 3.10636 28.0721 3.04806Z" fill="#FECE85"/>
<path d="M27.8526 10.9477C28.4824 11.2682 28.8386 11.6462 29.1011 12.3034C29.155 12.5658 29.174 12.8062 29.1868 13.075C29.2511 13.07 29.3154 13.0651 29.3817 13.06C30.0474 13.0306 30.5278 13.1076 31.073 13.5037C31.5644 13.9597 31.9133 14.3578 31.947 15.0459C31.9459 15.1695 31.9439 15.2931 31.941 15.4166C31.9402 15.4801 31.9395 15.5436 31.9387 15.609C31.9367 15.7646 31.9336 15.9202 31.9303 16.0757C32.0311 16.1075 32.1319 16.1394 32.2357 16.1722C32.8845 16.4209 33.2785 16.8299 33.5703 17.4585C33.7088 17.9151 33.7789 18.5514 33.5592 18.9907C33.1349 18.9907 32.7105 18.9907 32.2732 18.9907C32.2697 18.8651 32.2662 18.7396 32.2625 18.6102C32.2113 18.0947 32.0101 17.7487 31.6731 17.3617C31.3613 17.1139 31.0278 17.0308 30.6443 16.9331C30.5676 16.6129 30.5587 16.334 30.5746 16.0061C30.5782 15.5217 30.5065 15.1807 30.2156 14.7897C29.7144 14.3013 29.2382 14.2551 28.5646 14.2442C28.3295 14.1896 28.3295 14.1896 28.1741 14.0024C28.0674 13.7494 28.0268 13.5401 27.9972 13.2679C27.8959 12.6029 27.6841 12.1026 27.1506 11.6765C26.7954 11.4331 26.4144 11.2604 26.0146 11.1031C26.2633 10.6058 27.4052 10.7943 27.8526 10.9477Z" fill="#FDA615"/>
<path d="M34.2819 10.2458C35.0318 10.5983 35.4774 11.2095 35.809 11.939C35.9246 12.4399 35.9652 12.9521 35.7555 13.4287C35.5538 13.6613 35.4679 13.673 35.1553 13.7019C34.8445 13.6751 34.8445 13.6751 34.6563 13.5335C34.4635 13.2826 34.4619 13.1417 34.4587 12.8285C34.4345 12.3864 34.3883 12.1214 34.0729 11.789C33.58 11.4865 33.1973 11.5219 32.6362 11.5562C32.3583 11.5318 32.3583 11.5318 32.1526 11.3787C31.9534 11.1032 31.9679 10.9203 32.0153 10.5887C32.4985 9.97669 33.5793 10.0225 34.2819 10.2458Z" fill="#FEC166"/>
<path d="M24.9539 14.1268C25.3036 14.3845 25.3036 14.3845 25.4147 14.6198C25.4056 15.1375 25.4056 15.1375 25.1896 15.3696C24.8324 15.5582 24.4663 15.4439 24.0781 15.3941C23.6835 15.3904 23.4891 15.526 23.2071 15.7879C23.0926 16.0054 23.083 16.13 23.0677 16.372C23.0418 16.6799 23.0157 16.761 22.8266 17.0257C22.5855 17.1918 22.5855 17.1918 22.3283 17.2454C21.9632 17.1693 21.8501 17.0747 21.6424 16.7631C21.5065 16.0812 21.6976 15.5311 22.0711 14.9627C22.7876 14.0912 23.8722 13.7538 24.9539 14.1268Z" fill="#FEDAA4"/>
</svg>
