<svg width="50" height="50" viewBox="0 0 50 50" fill="none" xmlns="http://www.w3.org/2000/svg">
<path d="M26.5245 0.181558C26.7718 0.405212 26.7718 0.405212 26.9305 0.692773C26.8974 1.23438 26.6796 1.65538 26.442 2.13057C25.3731 4.33827 25.16 6.72436 25.9154 9.07671C25.9361 9.14297 25.9568 9.20923 25.9781 9.2775C26.5389 11.0324 27.4598 12.6028 28.5182 14.0955C28.7447 14.4171 28.9644 14.7433 29.1824 15.0708C29.2451 15.1642 29.2451 15.1642 29.3091 15.2596C29.5171 15.5746 29.7113 15.8917 29.8898 16.2245C29.9247 16.2893 29.9596 16.3542 29.9956 16.421C30.0896 16.5986 30.1807 16.7777 30.2715 16.957C30.5438 17.3422 30.7697 17.4667 31.1935 17.6651C31.4799 17.6708 31.4799 17.6708 31.7009 17.4607C32.455 16.2685 32.394 14.8224 32.12 13.4983C31.9132 12.6529 31.5797 11.7975 31.1935 11.0193C31.1728 10.8089 31.1728 10.8089 31.168 10.5656C31.1654 10.4857 31.1628 10.4057 31.1601 10.3232C31.1935 10.0991 31.1935 10.0991 31.3092 9.91663C31.59 9.73184 31.777 9.75319 32.1069 9.79246C34.2502 10.7136 35.6618 13.1807 36.5031 15.2752C37.671 18.3776 37.8547 21.8892 36.542 24.9759C36.0245 26.051 35.3425 27.1933 34.4414 27.9917C34.3744 27.9917 34.3075 27.9917 34.2384 27.9917C34.2326 28.3361 34.2326 28.3361 34.3399 28.7074C34.7519 29.0376 35.0888 29.1871 35.6296 29.1555C37.0256 28.9207 38.3455 28.1449 39.2094 27.0132C39.8482 26.0521 40.2294 25.0392 40.2483 23.8796C40.2511 23.759 40.254 23.6384 40.257 23.5141C40.2622 23.2615 40.2668 23.0088 40.2704 22.7561C40.2752 22.5752 40.2752 22.5752 40.28 22.3906C40.282 22.2809 40.284 22.1712 40.2861 22.0582C40.3338 21.7158 40.4291 21.5199 40.6328 21.2437C40.9467 21.107 41.104 21.131 41.4321 21.2244C42.908 22.2651 43.4239 24.7901 43.7218 26.4849C43.8825 27.4944 43.9521 28.5042 43.9823 29.5253C43.9865 29.6312 43.9907 29.737 43.995 29.846C44.0735 33.5508 43.2228 36.8755 41.4807 40.1045C41.3745 40.3045 41.2745 40.5077 41.1772 40.7122C41.0212 41.0103 40.8371 41.2444 40.6202 41.5006C40.2942 41.8918 39.9855 42.2886 39.6876 42.702C38.9601 43.6872 38.1299 44.5994 37.1819 45.373C37.068 45.4686 36.9541 45.5642 36.8401 45.6597C33.1243 48.7478 28.0969 50.3744 23.28 49.9268C20.1298 49.5855 16.7249 48.5294 14.2431 46.4976C14.1418 46.4163 14.0405 46.3348 13.9362 46.2509C12.5568 45.1209 11.3353 43.8518 10.2846 42.408C10.2353 42.3413 10.186 42.2747 10.1353 42.206C6.54431 37.3341 5.4286 31.5403 6.26266 25.5726C6.7321 22.569 7.97789 19.6912 9.77712 17.2562C9.82243 17.1946 9.86765 17.1331 9.91431 17.0697C10.4735 16.3226 11.0855 15.5336 12.0418 15.3519C12.3146 15.4157 12.3146 15.4157 12.562 15.5627C12.8013 15.9582 12.6996 16.3016 12.6191 16.745C12.563 16.9464 12.4975 17.1423 12.4295 17.34C11.7275 19.4319 11.9525 21.7473 12.8855 23.7166C13.6208 25.164 14.7875 26.5104 16.3555 27.0331C17.207 27.2505 17.9009 27.2407 18.709 26.8671C19.5611 26.3058 19.9124 25.3815 20.13 24.4132C20.492 22.2282 19.8683 20.2404 19.2356 18.176C18.6989 16.4168 18.346 14.7523 18.3665 12.9045C18.3669 12.8361 18.3675 12.7677 18.3679 12.6974C18.3765 11.6315 18.4366 10.621 18.709 9.58788C18.7291 9.50778 18.7493 9.42769 18.7701 9.34519C19.2285 7.55729 19.9459 6.06008 21.0435 4.57801C21.1597 4.4153 21.1597 4.4153 21.2783 4.24932C21.8493 3.46889 22.4984 2.77429 23.175 2.08584C23.258 2.00075 23.3411 1.91566 23.4267 1.828C25.4324 -0.17716 25.4324 -0.177161 26.5245 0.181558Z" fill="#FE6A00"/>
</svg>
