<svg width="50" height="50" viewBox="0 0 50 50" fill="none" xmlns="http://www.w3.org/2000/svg">
<g clip-path="url(#clip0_3388_42285)">
<mask id="mask0_3388_42285" style="mask-type:luminance" maskUnits="userSpaceOnUse" x="0" y="0" width="50" height="50">
<path d="M50 0H0V50H50V0Z" fill="white"/>
</mask>
<g mask="url(#mask0_3388_42285)">
<path d="M18.7997 11.0401C19.512 11.5757 20.1903 12.1466 20.8581 12.7367C21.1473 13.0089 21.1473 13.0089 21.5196 13.0928C21.8112 12.9748 22.0884 12.8392 22.3653 12.69C22.6903 12.5349 22.9937 12.4885 23.3516 12.4835C23.4695 12.4816 23.4695 12.4816 23.5899 12.4797C23.6742 12.479 23.7585 12.4783 23.8454 12.4775C23.9333 12.4767 24.0213 12.476 24.1119 12.4751C24.2981 12.4738 24.4844 12.4728 24.6706 12.472C24.8596 12.4709 25.0485 12.4689 25.2374 12.466C27.4349 12.4323 27.4349 12.4323 28.4166 13.0867C28.8347 13.0741 29.1004 12.7543 29.3931 12.4886C31.4419 10.6879 33.7513 9.14055 36.1314 7.81331C36.1973 7.776 36.2633 7.73869 36.3312 7.70025C38.9748 6.21143 42.3121 4.8742 45.3904 5.58552C45.5611 5.63912 45.7302 5.69786 45.897 5.76253C45.9802 5.79463 46.0634 5.82673 46.1492 5.8598C46.8245 6.15958 47.3302 6.61245 47.8501 7.12971C47.9043 7.18044 47.9584 7.23118 48.0142 7.28345C50.0489 9.37868 50.0517 13.1081 50.0421 15.7918C50.0413 16.0548 50.0419 16.3177 50.0442 16.5807C50.079 20.7186 49.3245 25.2061 46.4036 28.3516C45.4364 29.2764 44.2539 29.7466 42.9307 29.7371C42.7903 29.7362 42.7903 29.7362 42.6471 29.7352C41.056 29.6953 39.6296 29.1124 38.1804 28.5003C37.9543 28.405 37.7268 28.3135 37.4986 28.2235C37.5332 28.2761 37.5678 28.3287 37.6035 28.3829C39.3345 31.057 40.8623 33.8748 42.3509 36.689C42.3921 36.7668 42.4334 36.8445 42.4759 36.9246C42.5324 37.0322 42.5324 37.0322 42.5901 37.1418C42.6395 37.2356 42.6395 37.2356 42.6899 37.3313C42.9561 37.8807 42.9415 38.4677 42.8697 39.0633C42.661 39.5813 42.3166 40.0283 41.7989 40.2619C40.9072 40.5801 39.9403 40.3663 39.0306 40.2352C38.8193 40.2051 38.608 40.1754 38.3966 40.1466C38.2061 40.1207 38.0157 40.0935 37.8254 40.0662C37.512 40.041 37.3089 40.0476 37.0103 40.1375C36.85 40.2892 36.85 40.2892 36.7295 40.492C36.6803 40.567 36.6311 40.642 36.5804 40.7192C36.5289 40.8008 36.4774 40.8824 36.4244 40.9665C36.3699 41.0499 36.3154 41.1334 36.2592 41.2194C36.085 41.4866 35.9128 41.7549 35.7408 42.0235C35.5686 42.2909 35.396 42.558 35.2224 42.8245C35.1144 42.9903 35.0073 43.1567 34.9012 43.3237C34.5591 43.8513 34.2013 44.3058 33.5923 44.5321C32.8463 44.6159 32.2362 44.6166 31.6392 44.1414C31.0946 43.6354 30.9115 43.1251 30.7416 42.4134C30.7156 42.3114 30.6895 42.2094 30.6627 42.1044C30.6068 41.885 30.5517 41.6653 30.4974 41.4455C30.3523 40.8588 30.2004 40.2738 30.0496 39.6885C30.0192 39.5698 29.9888 39.451 29.9575 39.3287C28.4326 31.9891 28.4326 31.9891 24.9986 25.5867C22.0069 29.4935 20.9132 35.7555 19.745 40.44C19.723 40.5276 19.7011 40.6153 19.6784 40.7055C19.5743 41.1218 19.4717 41.5383 19.372 41.9557C19.1221 42.9814 18.8588 43.7949 17.9673 44.4344C17.4074 44.6211 16.7412 44.6366 16.1752 44.4607C15.35 44.0054 14.8695 43.0219 14.3773 42.2486C14.3183 42.156 14.3183 42.156 14.258 42.0616C14.0957 41.8069 13.9335 41.5521 13.7735 41.2959C13.6547 41.1059 13.534 40.9173 13.413 40.7288C13.3774 40.6707 13.3417 40.6127 13.305 40.5528C13.1462 40.3083 13.0341 40.1564 12.7597 40.0468C12.4318 40.0381 12.1265 40.0727 11.8016 40.1192C11.6653 40.1378 11.5289 40.1564 11.3925 40.1749C11.1801 40.2048 10.9678 40.235 10.7556 40.2656C8.60255 40.5729 8.60255 40.5729 7.78745 39.9987C7.38387 39.6363 7.12865 39.2088 7.03596 38.6727C6.99286 37.7404 7.46776 36.9752 7.89045 36.1763C7.95692 36.0495 8.02337 35.9226 8.08979 35.7957C8.68806 34.6571 9.31247 33.5343 9.95954 32.4227C10.0227 32.3141 10.0858 32.2055 10.1508 32.0936C10.897 30.8121 11.6503 29.5385 12.4986 28.3211C12.2058 28.3211 12.089 28.3577 11.8295 28.4749C11.718 28.524 11.718 28.524 11.6043 28.5742C11.5248 28.6095 11.4453 28.6448 11.3633 28.6812C9.59721 29.4469 7.36542 30.1885 5.44905 29.5357C5.21063 29.4266 5.21063 29.4266 4.97907 29.2977C4.88957 29.2491 4.80007 29.2005 4.70785 29.1504C3.69953 28.5557 2.9525 27.7504 2.34236 26.7586C2.29255 26.678 2.29255 26.678 2.24174 26.5958C1.04106 24.6103 0.448681 22.296 0.0962656 20.0203C0.0787991 19.9082 0.0613325 19.796 0.0433367 19.6804C-0.0279128 19.0927 -0.0192154 18.5016 -0.0212271 17.9104C-0.0217837 17.782 -0.0223404 17.6536 -0.0229139 17.5213C-0.0239357 17.2495 -0.024509 16.9777 -0.024851 16.706C-0.0252761 16.4316 -0.0266214 16.1573 -0.0288565 15.883C-0.0541602 12.7143 0.0811763 9.30972 2.36677 6.86116C2.83113 6.41641 3.31859 6.11978 3.90486 5.86018C3.99335 5.81977 4.08185 5.77936 4.17303 5.73773C9.03064 3.88629 15.1693 8.35123 18.7997 11.0401Z" fill="#CC5B6F"/>
<path d="M18.7997 11.0401C19.512 11.5757 20.1903 12.1466 20.8581 12.7367C21.1473 13.0089 21.1473 13.0089 21.5196 13.0928C21.8112 12.9748 22.0884 12.8392 22.3653 12.69C22.696 12.5322 22.9998 12.4886 23.364 12.4882C23.4452 12.4879 23.5263 12.4876 23.6099 12.4872C23.6967 12.4874 23.7835 12.4876 23.8729 12.4878C23.9627 12.4877 24.0525 12.4877 24.145 12.4876C24.3345 12.4875 24.524 12.4877 24.7136 12.4881C25.0039 12.4886 25.2943 12.4881 25.5847 12.4875C25.7689 12.4875 25.9531 12.4876 26.1373 12.4878C26.2243 12.4876 26.3112 12.4874 26.4008 12.4872C26.5221 12.4877 26.5221 12.4877 26.6458 12.4882C26.7168 12.4882 26.7879 12.4883 26.8611 12.4884C27.0494 12.5008 27.0494 12.5008 27.3423 12.5985C27.3514 13.4474 27.3583 14.2964 27.3626 15.1454C27.3646 15.5397 27.3674 15.9339 27.3718 16.3282C27.3761 16.7094 27.3784 17.0906 27.3794 17.4718C27.3801 17.6165 27.3815 17.7613 27.3836 17.906C27.4015 19.178 27.2052 20.0427 26.3101 20.9774C25.5169 21.6954 24.6081 21.9074 23.5631 21.9017C23.4462 21.902 23.4462 21.902 23.3269 21.9023C23.1636 21.9024 23.0002 21.9021 22.8368 21.9013C22.5873 21.9002 22.338 21.9013 22.0885 21.9025C21.929 21.9024 21.7695 21.9021 21.61 21.9017C21.5359 21.9021 21.4619 21.9025 21.3856 21.9029C20.9567 21.8992 20.7229 21.8452 20.3111 21.6805C20.3111 20.6492 20.3111 19.618 20.3111 18.5555C19.1064 18.889 17.9042 19.2238 16.71 19.5931C15.8533 19.8579 14.9924 20.0967 14.1236 20.3186C13.9056 20.3753 13.6888 20.4374 13.4751 20.5086C13.456 20.6489 13.4379 20.7893 13.4202 20.9298C13.41 21.0079 13.3998 21.0861 13.3893 21.1667C13.3631 21.4039 13.3631 21.4039 13.4751 21.6805C14.2701 21.8752 14.9612 21.6151 15.7212 21.3875C15.9962 21.3063 16.2712 21.2256 16.5465 21.1455C16.7312 21.0917 16.9157 21.037 17.0999 20.9816C17.1844 20.9568 17.2688 20.932 17.3558 20.9065C17.4314 20.8839 17.507 20.8613 17.5848 20.8381C17.772 20.8016 17.772 20.8016 17.9673 20.8992C14.7219 23.0218 11.3724 25.1865 7.61579 26.2703C7.49885 26.3053 7.3819 26.3403 7.26141 26.3764C5.88349 26.745 4.5127 26.68 3.23118 26.0289C2.54596 25.6229 1.9951 25.102 1.46345 24.5125C1.39585 24.4403 1.32825 24.368 1.2586 24.2936C1.00858 23.9311 0.899937 23.5662 0.779859 23.1453C0.742624 23.0181 0.742624 23.0181 0.704638 22.8883C0.43797 21.947 0.244265 20.9873 0.0962656 20.0203C0.0790272 19.9094 0.0617889 19.7985 0.0440281 19.6842C-0.0276679 19.0952 -0.0192107 18.503 -0.0212271 17.9104C-0.0217837 17.782 -0.0223404 17.6536 -0.0229139 17.5213C-0.0239357 17.2495 -0.024509 16.9777 -0.024851 16.706C-0.0252761 16.4316 -0.0266214 16.1573 -0.0288565 15.883C-0.0541602 12.7143 0.0811763 9.30972 2.36677 6.86116C2.83113 6.41641 3.31859 6.11978 3.90486 5.86018C3.99335 5.81977 4.08185 5.77936 4.17303 5.73773C9.03064 3.88629 15.1693 8.35123 18.7997 11.0401Z" fill="#E38B9A"/>
<path d="M45.8965 5.76365C46.027 5.80047 46.027 5.80047 46.1601 5.83803C46.3848 5.95896 46.3848 5.95896 46.4897 6.19051C46.8253 7.86819 46.9073 9.53625 46.9039 11.2445C46.9036 11.5674 46.9059 11.8901 46.9084 12.213C46.912 13.4305 46.8393 14.5992 46.6203 15.7975C46.5763 16.0385 46.5352 16.2798 46.4943 16.5214C46.0177 19.2934 44.8618 22.4492 42.5373 24.202C41.1999 25.0698 39.746 25.1832 38.2214 24.8662C36.5951 24.4929 35.0815 23.8336 33.6083 23.0614C33.3738 22.9393 33.1381 22.8201 32.9022 22.7009C32.0485 22.2666 31.2047 21.8154 30.3875 21.3154C30.2806 21.2534 30.2806 21.2534 30.1716 21.1902C29.9844 21.0716 29.8318 20.9694 29.6856 20.8027C29.6417 20.4289 29.6417 20.4289 29.6856 20.1191C30.4739 20.278 31.2373 20.4921 32.0049 20.7295C32.8429 20.9879 33.6824 21.2397 34.5257 21.4802C34.6284 21.5101 34.7312 21.5401 34.8371 21.5709C35.5213 21.7707 35.5213 21.7707 36.2286 21.7793C36.4727 21.6328 36.4727 21.6328 36.6192 21.3886C36.6683 20.9875 36.6512 20.8507 36.4239 20.5097C36.1629 20.4066 35.9109 20.3207 35.6426 20.2412C35.5612 20.2163 35.4798 20.1913 35.3959 20.1656C34.605 19.9271 33.807 19.7147 33.0086 19.5031C31.8951 19.2075 30.7902 18.884 29.6856 18.5566C29.6856 18.1699 29.6856 17.7832 29.6856 17.3847C29.8301 17.3445 29.9746 17.3042 30.1235 17.2627C31.7046 16.8214 33.2846 16.3765 34.8614 15.9199C34.9501 15.8944 35.0389 15.8689 35.1304 15.8427C35.3544 15.7781 35.5779 15.712 35.8013 15.6452C35.9784 15.5929 35.9784 15.5929 36.1591 15.5396C36.4518 15.4491 36.4518 15.4491 36.6192 15.1386C36.6643 14.7856 36.6635 14.6175 36.4605 14.3208C36.1519 14.1096 36.0167 14.1307 35.6426 14.1621C35.3038 14.2459 34.9736 14.3535 34.6417 14.4612C33.6754 14.7657 32.7038 15.0386 31.7237 15.2951C31.1938 15.4347 30.6735 15.5834 30.1578 15.7693C29.9786 15.8222 29.9786 15.8222 29.6856 15.8222C29.6783 15.7642 29.671 15.7062 29.6635 15.6464C29.5399 14.8673 29.2564 14.1235 28.69 13.5571C28.6318 13.4989 28.5736 13.4408 28.5137 13.3808C28.5137 13.3164 28.5137 13.2519 28.5137 13.1855C28.6972 13.0154 28.6972 13.0154 28.9593 12.8071C29.058 12.7283 29.1567 12.6495 29.2584 12.5683C29.3388 12.5046 29.3388 12.5046 29.4209 12.4397C29.5896 12.3053 29.7567 12.1693 29.9236 12.0327C31.871 10.4457 33.9454 9.05147 36.1309 7.81443C36.1978 7.77641 36.2648 7.7384 36.3337 7.69923C39.0397 6.17597 42.79 4.61581 45.8965 5.76365Z" fill="#E38B9A"/>
<path d="M29.295 23.1445C30.0252 23.6013 30.7435 24.0743 31.4578 24.5554C31.808 24.7906 32.1587 25.022 32.5199 25.2399C32.5806 25.277 32.6413 25.3141 32.7039 25.3523C32.8652 25.4502 33.0276 25.5462 33.1902 25.642C33.9726 26.2517 34.4373 27.1584 34.9285 28.0029C34.9974 28.1204 35.0663 28.2379 35.1352 28.3553C35.3379 28.7012 35.5392 29.0478 35.7403 29.3945C35.7949 29.4884 35.8496 29.5823 35.9058 29.6791C36.6424 30.947 37.3461 32.232 38.0394 33.524C38.1699 33.767 38.3008 34.0098 38.4319 34.2525C38.5032 34.3849 38.5744 34.5173 38.6456 34.6497C38.7055 34.7611 38.7654 34.8725 38.8271 34.9873C39.1129 35.5484 39.1692 36.1297 39.0007 36.7405C38.74 37.3366 38.2672 37.7014 37.6934 37.9883C36.8984 38.0382 36.1231 37.9543 35.3375 37.8418C35.1399 37.8137 34.9423 37.7863 34.7447 37.7594C34.659 37.7471 34.5734 37.7349 34.4852 37.7222C34.3838 37.7133 34.2823 37.7045 34.1778 37.6953C34.0635 37.6794 34.0635 37.6794 33.9469 37.6631C33.4504 37.6178 33.4504 37.6178 33.0227 37.8383C32.8554 38.0506 32.7165 38.2677 32.5787 38.5002C32.5263 38.5821 32.474 38.664 32.42 38.7484C32.2539 39.0099 32.0928 39.274 31.9317 39.5386C31.8205 39.7159 31.709 39.893 31.5971 40.07C31.44 40.3187 31.2834 40.5677 31.1291 40.8183C31.0834 40.8926 31.0377 40.9669 30.9906 41.0434C30.9506 41.1089 30.9106 41.1744 30.8694 41.2419C30.7598 41.4062 30.7598 41.4062 30.5645 41.6016C30.5351 41.4889 30.5058 41.3762 30.4755 41.2601C28.4084 32.8074 28.4084 32.8074 24.7051 25C24.767 24.9996 24.8289 24.9992 24.8927 24.9988C26.9947 24.9804 26.9947 24.9804 28.7457 23.9044C28.9634 23.6657 29.1318 23.4232 29.295 23.1445Z" fill="#E38B9A"/>
<path d="M20.6035 23.1445C20.845 23.3768 21.0631 23.6179 21.2749 23.877C21.5419 24.1938 21.8109 24.398 22.166 24.6094C22.1033 25.0711 21.9783 25.4941 21.823 25.9315C21.7729 26.0753 21.7229 26.2191 21.6728 26.3629C21.6466 26.4374 21.6205 26.5119 21.5936 26.5886C21.1576 27.8327 20.7342 29.0776 20.3734 30.346C20.3079 30.5753 20.2407 30.8042 20.1732 31.0329C19.8973 31.9747 19.644 32.9211 19.4013 33.872C19.2677 34.3944 19.1321 34.9163 18.9966 35.4383C18.942 35.6498 18.8878 35.8614 18.8336 36.073C18.7421 36.4299 18.648 36.786 18.5524 37.1418C18.5165 37.277 18.4813 37.4125 18.4469 37.5481C18.2042 38.5039 17.9229 39.1737 17.1001 39.7461C16.508 39.9356 15.9057 39.9184 15.3323 39.6667C14.7017 39.2967 14.2809 38.5472 13.893 37.9456C13.8441 37.8708 13.7953 37.796 13.7449 37.719C13.5911 37.4836 13.4382 37.2477 13.2854 37.0117C13.1803 36.8506 13.0752 36.6895 12.9701 36.5284C12.7144 36.1365 12.4595 35.7442 12.205 35.3516C11.387 35.4022 10.5719 35.4589 9.75757 35.553C9.26841 35.6094 8.79236 35.6564 8.29883 35.6445C8.45603 35.0907 8.71806 34.6136 8.99463 34.1125C9.04562 34.0197 9.0966 33.9269 9.14913 33.8313C10.0148 32.2679 10.9328 30.7319 11.8815 29.2175C11.9273 29.1441 11.9731 29.0707 12.0202 28.9951C12.1437 28.8003 12.2707 28.6087 12.4003 28.418C12.4687 28.3169 12.5371 28.2158 12.6075 28.1116C12.9734 27.6891 13.506 27.4859 13.9995 27.2461C16.3153 26.0795 18.5035 24.6641 20.6035 23.1445Z" fill="#E38B9A"/>
<path d="M14.6473 14.1588C15.0762 14.2622 15.4991 14.3832 15.9226 14.5067C16.1021 14.5581 16.1021 14.5581 16.2852 14.6107C16.5367 14.6829 16.7881 14.7554 17.0394 14.8284C17.3616 14.9219 17.6839 15.0147 18.0064 15.1071C18.3149 15.1956 18.6232 15.2845 18.9316 15.3734C19.0474 15.4067 19.1633 15.4401 19.2827 15.4745C19.4426 15.5209 19.4426 15.5209 19.6058 15.5683C19.6999 15.5956 19.7939 15.6228 19.8909 15.6509C20.116 15.7213 20.116 15.7213 20.3114 15.8189C20.3114 16.3346 20.3114 16.8502 20.3114 17.3814C19.5567 17.2547 18.8308 17.0865 18.0958 16.8748C17.9914 16.8452 17.8869 16.8155 17.7794 16.7849C17.4513 16.6914 17.1235 16.5971 16.7957 16.5025C16.6879 16.4715 16.5801 16.4406 16.469 16.4086C16.1546 16.3182 15.8404 16.2274 15.5262 16.1363C15.4313 16.1089 15.3364 16.0814 15.2387 16.0531C14.8103 15.928 14.383 15.7999 13.958 15.6637C13.8884 15.6414 13.8189 15.6191 13.7472 15.5962C13.4918 15.4932 13.3884 15.3879 13.2801 15.1353C13.2135 14.7439 13.2493 14.5962 13.4693 14.2625C13.8786 13.9869 14.1852 14.0708 14.6473 14.1588Z" fill="#CC5B6F"/>
<path d="M20.3125 12.4023C20.6249 12.5585 20.8158 12.6785 21.0693 12.9028C21.1592 12.9818 21.1592 12.9818 21.2509 13.0623C21.2957 13.1023 21.3405 13.1423 21.3867 13.1836C21.3265 13.5111 21.2055 13.7112 21.0083 13.9771C20.6908 14.4357 20.5385 14.8905 20.4102 15.4297C20.3779 15.4297 20.3457 15.4297 20.3125 15.4297C20.3125 14.4307 20.3125 13.4316 20.3125 12.4023Z" fill="#CD5E72"/>
</g>
</g>
<defs>
<clipPath id="clip0_3388_42285">
<rect width="50" height="50" fill="white"/>
</clipPath>
</defs>
</svg>
