<svg width="50" height="50" viewBox="0 0 50 50" fill="none" xmlns="http://www.w3.org/2000/svg">
<path d="M33.0561 0.0185734C33.4491 0.218619 33.7018 0.427443 33.9342 0.799046C34.0234 1.12298 34.0234 1.12298 34.0927 1.49416C34.1162 1.61515 34.1395 1.73613 34.1636 1.86078C34.6795 4.95159 34.3324 7.98373 32.6659 10.6526C32.732 10.656 32.7981 10.6593 32.8663 10.6627C36.8136 10.8774 39.9318 12.1036 42.8122 14.8477C42.8883 14.9177 42.9646 14.9876 43.0431 15.0596C46.1928 18.0411 47.1183 22.5843 47.7146 26.6952C47.7293 26.7964 47.744 26.8978 47.7593 27.0022C47.8056 27.3406 47.8465 27.679 47.8853 28.0183C47.8938 28.0924 47.9024 28.1666 47.911 28.2429C48.0807 29.7642 48.1159 31.2751 48.1109 32.8049C48.1107 32.9232 48.1104 33.0415 48.1102 33.1634C48.1046 34.9109 48.0766 36.6321 47.7877 38.3597C47.7766 38.4265 47.7655 38.4933 47.754 38.5621C47.4314 40.481 47.027 42.3616 46.4219 44.2134C46.3851 44.3302 46.3851 44.3302 46.3477 44.4496C45.7138 46.464 44.6856 48.1656 42.7547 49.1736C41.6113 49.7222 40.5952 50.0076 39.3244 49.9998C39.1781 49.9991 39.1781 49.9991 39.0289 49.9982C36.1418 49.9523 33.2513 49.1924 30.5196 48.3108C30.4149 48.2773 30.3102 48.2437 30.2023 48.2092C28.5082 47.6603 26.8758 46.9903 25.2513 46.2621C25.1684 46.2249 25.0856 46.1878 25.0002 46.1496C19.5959 43.7101 14.3707 40.623 12.1272 34.8643C11.6367 33.491 11.3441 32.0124 11.3002 30.5549C11.2944 30.406 11.2944 30.406 11.2884 30.2542C11.2531 28.5704 11.5289 26.8452 12.1783 25.2866C12.0735 25.3166 12.0735 25.3166 11.9667 25.3472C8.94906 26.1632 5.77428 25.3002 3.11128 23.7989C2.20789 23.2777 2.20789 23.2777 2.03201 22.7501C2.01808 22.592 2.01051 22.4332 2.00762 22.2745C2.00511 22.1923 2.00259 22.11 2 22.0253C2.12072 21.0796 3.35014 20.1856 4.05105 19.6239C5.43154 18.5639 7.00852 17.5968 8.76361 17.3842C8.76361 17.3199 8.76361 17.2555 8.76361 17.1891C8.67694 17.1515 8.67694 17.1515 8.58836 17.1129C8.20573 16.9012 7.96549 16.5472 7.6905 16.2136C7.62661 16.1375 7.56273 16.0613 7.49691 15.983C6.10943 14.297 6.10943 14.297 6.1787 13.4064C6.29122 12.9014 6.58557 12.5837 7.00759 12.3112C7.26754 12.2061 7.52227 12.1118 7.78806 12.0245C7.86454 11.9993 7.941 11.9741 8.01979 11.9481C9.23039 11.5631 10.5162 11.2878 11.7881 11.238C11.9022 11.2304 11.9022 11.2304 12.0186 11.2228C13.8969 11.1526 15.6933 11.6555 17.349 12.5063C16.7021 11.5451 16.0472 10.5941 15.346 9.67152C14.9795 9.18818 14.6251 8.69729 14.2758 8.20139C14.2278 8.13328 14.1798 8.06506 14.1302 7.99484C13.9992 7.80806 13.8691 7.62069 13.7392 7.43314C13.7002 7.37791 13.6611 7.32268 13.6209 7.26576C13.373 6.90842 13.2742 6.70175 13.349 6.26242C13.5415 5.92912 13.6598 5.80168 14.0258 5.67706C14.4012 5.67706 14.5113 5.74478 14.8124 5.96974C15.0282 6.22111 15.2153 6.49025 15.4039 6.76242C15.4591 6.84057 15.5144 6.91874 15.5713 6.99926C15.742 7.24086 15.9113 7.4833 16.0807 7.72582C16.228 7.93506 16.3757 8.14395 16.5233 8.35295C16.6186 8.48784 16.7137 8.62273 16.8086 8.75784C17.2316 9.35885 17.6617 9.95463 18.094 10.549C18.3748 10.936 18.6479 11.3259 18.9099 11.7258C18.8947 11.6042 18.8795 11.4825 18.8638 11.3573C18.4396 7.75119 19.5278 4.74768 21.7407 1.91299C22.1599 1.40722 22.4261 1.21723 23.0928 1.1527C23.5137 1.13333 23.8513 1.33192 24.1782 1.57953C24.3803 1.7988 24.5411 2.03669 24.7025 2.28685C24.7476 2.35438 24.7927 2.42192 24.8391 2.49149C25.3083 3.20559 25.7244 3.94954 26.1294 4.70146C26.1829 4.63304 26.2363 4.56463 26.2913 4.49414C26.5342 4.19572 26.7893 3.91095 27.0501 3.62829C27.0954 3.57875 27.1408 3.52919 27.1875 3.47815C28.5262 2.02182 30.8947 -0.227206 33.0561 0.0185734Z" fill="#FE0B37"/>
<path d="M33.0561 0.0185734C33.4491 0.218619 33.7018 0.427443 33.9341 0.799046C34.0234 1.12298 34.0234 1.12298 34.0927 1.49416C34.1162 1.61515 34.1395 1.73613 34.1636 1.86078C34.6612 4.84199 34.4195 8.1064 32.6659 10.6526C32.3252 10.8798 32.1314 10.8876 31.7269 10.927C29.5019 11.1914 27.6182 12.1758 25.8549 13.5168C25.5131 13.7734 25.1627 14.0176 24.8123 14.2623C24.24 14.6644 23.6714 15.0715 23.1051 15.4819C22.5386 15.8922 21.9698 16.299 21.3977 16.7014C20.605 17.259 19.8191 17.8258 19.0342 18.3945C18.8119 18.5554 18.589 18.7157 18.3661 18.8759C14.7942 21.4066 14.7942 21.4066 12.4302 25.0324C12.2759 25.2866 12.2759 25.2866 12.0144 25.4044C11.6792 25.468 11.3451 25.5291 11.0075 25.5793C10.9118 25.5944 10.8162 25.6095 10.7175 25.6251C7.90664 25.951 4.8489 24.9879 2.51982 23.433C2.19969 23.1502 2.05068 22.9618 2.0122 22.5253C2.01069 22.4425 2.00918 22.3597 2.00762 22.2745C2.00511 22.1923 2.00259 22.11 2 22.0253C2.12072 21.0796 3.35014 20.1856 4.05105 19.6239C5.43154 18.5639 7.00852 17.5968 8.76361 17.3842C8.76361 17.3199 8.76361 17.2555 8.76361 17.1891C8.67694 17.1515 8.67694 17.1515 8.58836 17.1129C8.20573 16.9012 7.96549 16.5472 7.6905 16.2136C7.62661 16.1375 7.56273 16.0613 7.49691 15.983C6.10943 14.297 6.10943 14.297 6.1787 13.4064C6.29122 12.9014 6.58557 12.5837 7.00759 12.3112C7.26754 12.2061 7.52226 12.1118 7.78806 12.0245C7.86454 11.9993 7.941 11.9741 8.01979 11.9481C9.23039 11.5631 10.5162 11.2878 11.7881 11.238C11.9022 11.2304 11.9022 11.2304 12.0186 11.2228C13.8969 11.1526 15.6933 11.6555 17.349 12.5063C16.7021 11.5451 16.0472 10.5941 15.346 9.67152C14.9795 9.18818 14.6251 8.69729 14.2758 8.20139C14.2278 8.13328 14.1798 8.06506 14.1302 7.99484C13.9992 7.80806 13.8691 7.62069 13.7392 7.43314C13.7002 7.37791 13.6611 7.32268 13.6209 7.26576C13.373 6.90842 13.2742 6.70175 13.349 6.26242C13.5415 5.92912 13.6598 5.80168 14.0258 5.67706C14.4012 5.67706 14.5113 5.74478 14.8124 5.96974C15.0282 6.22111 15.2153 6.49025 15.4039 6.76242C15.4591 6.84057 15.5144 6.91874 15.5713 6.99926C15.742 7.24086 15.9113 7.4833 16.0807 7.72582C16.228 7.93506 16.3757 8.14395 16.5233 8.35295C16.6186 8.48784 16.7137 8.62273 16.8086 8.75784C17.2316 9.35885 17.6617 9.95463 18.094 10.549C18.3748 10.936 18.6479 11.3259 18.9099 11.7258C18.8947 11.6042 18.8795 11.4825 18.8638 11.3573C18.4396 7.75119 19.5278 4.74768 21.7407 1.91299C22.1599 1.40722 22.4261 1.21723 23.0928 1.1527C23.5137 1.13333 23.8513 1.33192 24.1782 1.57953C24.3803 1.7988 24.5411 2.03669 24.7025 2.28685C24.7476 2.35438 24.7926 2.42192 24.8391 2.49149C25.3083 3.20559 25.7244 3.94954 26.1294 4.70146C26.1829 4.63304 26.2363 4.56463 26.2913 4.49414C26.5342 4.19572 26.7893 3.91095 27.0501 3.62829C27.0954 3.57875 27.1408 3.52919 27.1875 3.47815C28.5262 2.02182 30.8947 -0.227206 33.0561 0.0185734Z" fill="#4CB967"/>
<path d="M16.0807 20.4081C16.129 20.5047 16.129 20.5047 16.1783 20.6033C16.077 20.8194 16.077 20.8194 15.9222 21.0849C15.3707 22.0678 15.0008 23.0245 14.7148 24.1154C14.6937 24.1888 14.6726 24.2623 14.6508 24.3379C13.8211 27.3156 14.5925 30.6694 15.8856 33.3836C15.9141 33.4444 15.9426 33.505 15.972 33.5676C16.9046 35.5257 18.3543 37.1588 20.0502 38.4873C20.1036 38.5295 20.1569 38.5717 20.2119 38.6153C20.5121 38.847 20.7883 39.0322 21.1539 39.1397C21.2464 39.1216 21.339 39.1035 21.4343 39.0848C21.8331 39.029 22.0951 39.1154 22.4221 39.3349C22.8766 39.7525 23.1058 40.1174 23.3001 40.7006C23.5249 40.8046 23.5249 40.8046 23.788 40.8958C23.9514 40.9762 24.1137 41.0589 24.275 41.1435C24.368 41.1922 24.4611 41.2409 24.557 41.291C24.6534 41.3416 24.7497 41.3923 24.8489 41.4445C24.9415 41.493 25.034 41.5414 25.1295 41.5913C25.5476 41.8104 25.9655 42.0299 26.38 42.2559C27.2294 42.7175 28.0902 43.133 28.977 43.5177C29.0435 43.5468 29.1102 43.5758 29.1788 43.6057C31.9365 44.8046 34.793 45.7516 37.7391 46.3591C37.8269 46.3774 37.9147 46.3956 38.0052 46.4143C40.456 46.9175 42.7408 47.2744 45.1395 46.3367C45.3488 46.2616 45.3488 46.2616 45.5439 46.2616C45.3884 46.759 45.0821 47.1274 44.7634 47.5298C44.7022 47.6104 44.641 47.6908 44.5779 47.7738C43.5652 48.9807 41.9106 49.7474 40.3732 49.9688C40.023 49.9964 39.6756 50.0015 39.3245 49.9994C39.2269 49.9988 39.1294 49.9983 39.0289 49.9977C36.1418 49.9518 33.2513 49.1918 30.5196 48.3104C30.415 48.2768 30.3102 48.2433 30.2024 48.2086C28.5083 47.6597 26.8757 46.9898 25.2514 46.2616C25.1685 46.2245 25.0856 46.1874 25.0003 46.1491C19.596 43.7096 14.3707 40.6224 12.1273 34.8638C11.6368 33.4906 11.3441 32.0119 11.3003 30.5543C11.2964 30.4551 11.2925 30.3559 11.2885 30.2537C11.218 26.8933 12.464 24.0204 14.7087 21.5674C15.127 21.1318 15.5975 20.7686 16.0807 20.4081Z" fill="#C70024"/>
<path d="M20.7633 3.23785C22.091 4.48082 22.9436 6.66433 23.2998 8.4085C23.3166 8.48116 23.3335 8.55383 23.3507 8.62861C23.6867 10.1448 23.5952 11.721 23.1047 13.189C23.0694 13.2988 23.0341 13.4085 22.9976 13.5216C22.7154 14.3243 22.3088 15.0223 21.8365 15.7256C21.7867 15.8133 21.7867 15.8133 21.736 15.9029C21.4046 16.447 21.0259 16.5908 20.4218 16.7439C20.3294 16.768 20.2369 16.7921 20.1417 16.817C17.6608 17.3939 15.1288 17.0378 12.9635 15.7062C12.186 15.1994 11.4808 14.6124 10.8122 13.9694C10.6781 13.8429 10.6781 13.8429 10.5412 13.7138C9.93306 13.1258 9.43128 12.5234 8.9585 11.8232C9.22716 11.5544 9.51806 11.5383 9.87917 11.4756C9.94962 11.463 10.0201 11.4504 10.0927 11.4374C10.6562 11.3394 11.2162 11.2669 11.7877 11.2377C11.8643 11.2326 11.941 11.2275 12.0199 11.2222C13.8984 11.1545 15.6927 11.6551 17.3487 12.5061C16.7018 11.5449 16.0469 10.5938 15.3458 9.67139C14.9793 9.18795 14.6249 8.69705 14.2755 8.20127C14.2274 8.13305 14.1794 8.06483 14.1299 7.9946C13.9989 7.80782 13.8689 7.62049 13.739 7.43294C13.6803 7.3501 13.6803 7.3501 13.6206 7.26557C13.3728 6.90822 13.2739 6.70156 13.3488 6.26222C13.5413 5.92892 13.6594 5.80147 14.0255 5.67686C14.4009 5.67686 14.511 5.74457 14.8121 5.96954C15.0279 6.22091 15.215 6.49006 15.4035 6.76222C15.4589 6.84038 15.5141 6.91854 15.5711 6.99907C15.7417 7.24068 15.9111 7.48311 16.0803 7.72562C16.2277 7.93483 16.3753 8.14383 16.523 8.35272C16.6182 8.48761 16.7133 8.62261 16.8083 8.75761C17.2312 9.35861 17.6613 9.9544 18.0937 10.5487C18.3746 10.9357 18.6476 11.3256 18.9096 11.7256C18.8945 11.604 18.8792 11.4824 18.8635 11.3571C18.517 8.41194 19.1038 5.72705 20.7633 3.23785Z" fill="#63C27C"/>
<path d="M8.98239 17.3548C9.15528 17.4835 9.3055 17.6176 9.45873 17.769C11.4251 19.516 13.8118 20.1154 16.3733 20.2142C16.0676 20.5286 15.7573 20.8125 15.41 21.0799C14.3053 21.9601 13.4218 23.0202 12.8304 24.3089C12.4115 25.21 12.4115 25.21 11.9839 25.4534C11.6529 25.5344 11.3477 25.5653 11.0075 25.58C10.9126 25.5937 10.8176 25.6073 10.7198 25.6214C7.92688 25.9829 4.83049 24.9762 2.51982 23.4336C2.19969 23.1507 2.05068 22.9624 2.0122 22.5258C2.01069 22.4431 2.00918 22.3603 2.00762 22.2751C2.00511 22.1928 2.00259 22.1106 2 22.0258C2.12072 21.0802 3.35014 20.1863 4.05105 19.6246C5.28144 18.6798 6.59435 17.9366 8.08075 17.4825C8.19833 17.442 8.31592 17.4017 8.43706 17.3601C8.76361 17.2874 8.76361 17.2874 8.98239 17.3548Z" fill="#368A4B"/>
<path d="M33.0564 0.0208796C33.4493 0.220926 33.702 0.42975 33.9344 0.801353C34.0235 1.12529 34.0235 1.12529 34.093 1.49647C34.1163 1.61746 34.1397 1.73844 34.1638 1.86308C34.6614 4.8443 34.4196 8.10872 32.6661 10.655C32.3254 10.8821 32.1316 10.89 31.727 10.9293C29.8867 11.1481 27.9968 11.8654 26.5198 12.9964C26.5607 12.6128 26.6235 12.2791 26.7576 11.9171C27.475 9.84574 27.0696 7.65142 26.3544 5.64964C26.1071 4.94913 26.1071 4.94913 26.2172 4.70301C26.7615 3.92269 27.391 3.21273 28.0808 2.55744C28.139 2.50084 28.1972 2.44425 28.2572 2.38594C29.4194 1.2984 31.3963 -0.167889 33.0564 0.0208796Z" fill="#368A4C"/>
<path d="M8.9821 17.3548C9.15499 17.4835 9.30521 17.6176 9.45843 17.769C11.4248 19.516 13.8115 20.1154 16.373 20.2142C16.0577 20.5385 15.7354 20.8318 15.3791 21.1105C15.146 21.2932 14.9239 21.4681 14.7145 21.6775C14.467 21.7684 14.2224 21.8505 13.9706 21.9275C13.9036 21.9491 13.8366 21.9706 13.7675 21.9928C11.1011 22.8209 8.00417 22.1402 5.58646 20.8874C5.40932 20.7936 5.23268 20.6991 5.05607 20.6044C4.96187 20.5567 4.86768 20.5091 4.77063 20.4599C4.69178 20.4191 4.61293 20.3782 4.53168 20.3361C4.46654 20.3024 4.40139 20.2687 4.33428 20.2339C4.14221 20.0896 4.07419 19.9457 3.98291 19.7263C5.23432 18.7238 6.5408 17.9528 8.08043 17.4825C8.19802 17.442 8.31561 17.4017 8.43676 17.3601C8.76332 17.2874 8.76332 17.2874 8.9821 17.3548Z" fill="#3FA359"/>
<path d="M30.8125 0.703125C30.8917 1.19457 30.9292 1.67574 30.9367 2.17377C30.9379 2.24768 30.9392 2.32159 30.9404 2.39775C30.9816 5.46962 30.9816 5.46962 30.4223 6.94698C30.3972 7.01605 30.372 7.08513 30.3463 7.1563C29.7478 8.76896 28.6689 10.3817 27.2027 11.3372C27.1383 11.3372 27.0739 11.3372 27.0076 11.3372C27.0147 11.2603 27.0217 11.1835 27.0289 11.1043C27.1947 9.15907 27.0102 7.48475 26.3544 5.64898C26.1071 4.94846 26.1071 4.94846 26.2172 4.70233C26.7615 3.92203 27.391 3.21206 28.0808 2.55677C28.139 2.50018 28.1972 2.44358 28.2572 2.38528C28.8891 1.79391 29.5924 1.35195 30.3247 0.898249C30.6174 0.703125 30.6174 0.703125 30.8125 0.703125Z" fill="#3EA359"/>
<path d="M14.6171 5.77473C14.8004 5.93251 14.8004 5.93251 14.9647 6.15278C15.0307 6.24081 15.0968 6.32885 15.1648 6.41955C15.5083 6.90243 15.8403 7.39349 16.1722 7.88441C16.5187 8.39531 16.877 8.89353 17.2512 9.38443C17.4471 9.6441 17.642 9.90432 17.8366 10.165C17.8905 10.2369 17.9445 10.3088 17.9999 10.3828C18.7298 11.3662 19.2578 12.2901 19.641 13.4541C19.797 13.9224 20.0215 14.3362 20.2787 14.7568C20.3098 14.819 20.341 14.8813 20.3732 14.9454C20.3409 15.0098 20.3088 15.0741 20.2756 15.1405C20.2199 15.0744 20.1642 15.0083 20.1068 14.94C19.5654 14.3186 19.006 13.812 18.3416 13.3246C17.6727 12.8219 17.2022 12.3452 16.7451 11.6406C16.6345 11.4742 16.5233 11.308 16.4121 11.1421C16.3567 11.0596 16.3013 10.977 16.2443 10.8919C16.0031 10.5398 15.7478 10.1994 15.4891 9.8601C15.0741 9.31432 14.6706 8.76209 14.2757 8.20153C14.2277 8.13342 14.1796 8.06519 14.1301 7.99497C13.999 7.80819 13.869 7.6208 13.7391 7.43326C13.6805 7.35041 13.6805 7.35041 13.6208 7.26589C13.3729 6.90853 13.2741 6.70187 13.3489 6.26253C13.7009 5.71622 13.9904 5.6086 14.6171 5.77473Z" fill="#368B4C"/>
<path d="M38.1049 25.8638C38.7994 26.0909 39.2392 26.5322 39.6014 27.1546C39.8035 27.5615 39.8505 27.9594 39.7878 28.4065C39.6353 28.6565 39.6353 28.6565 39.3975 28.7967C38.9332 28.8235 38.6631 28.6906 38.3121 28.4065C37.775 27.8934 37.4255 27.37 37.3914 26.6138C37.3911 26.3738 37.3911 26.3738 37.4463 26.1626C37.6805 25.9383 37.7767 25.8714 38.1049 25.8638Z" fill="#060001"/>
<path d="M31.2023 17.1895C31.7997 17.4817 32.1628 17.978 32.4707 18.5554C32.5847 18.9169 32.5957 19.25 32.5682 19.6285C32.4179 19.8331 32.335 19.9116 32.0823 19.9525C31.4233 19.8942 31.0441 19.6404 30.617 19.1407C30.2733 18.6511 30.0819 18.085 30.1292 17.4822C30.4038 17.0016 30.7048 17.0462 31.2023 17.1895Z" fill="#070001"/>
<path d="M21.7086 39.0324C22.2368 39.1246 22.5699 39.425 22.9099 39.8251C23.2921 40.3953 23.494 40.8944 23.3976 41.5812C23.294 41.7763 23.294 41.7763 23.105 41.8739C22.654 41.9534 22.387 41.8848 22.0196 41.63C21.5514 41.2472 21.2467 40.7871 21.0562 40.2153C21.0364 40.005 21.0364 40.005 21.0317 39.7763C21.0293 39.7009 21.0267 39.6254 21.0242 39.5476C21.0562 39.3373 21.0562 39.3373 21.1815 39.1643C21.3488 39.0446 21.3488 39.0446 21.7086 39.0324Z" fill="#050001"/>
<path d="M40.0805 43.1551C40.7016 43.4232 41.2203 43.9802 41.4872 44.5968C41.5871 44.9548 41.6062 45.3118 41.544 45.6784C41.4795 45.7749 41.4152 45.8715 41.3489 45.971C40.9011 46.0317 40.599 46.0293 40.2147 45.782C39.7459 45.4067 39.3917 44.88 39.2025 44.3125C39.1477 43.6219 39.1477 43.6219 39.355 43.282C39.6159 43.1282 39.7821 43.0915 40.0805 43.1551Z" fill="#060001"/>
<path d="M32.0077 38.9456C32.7513 39.1438 33.1173 39.5621 33.5282 40.196C33.7528 40.6172 33.7739 41.0073 33.7393 41.4822C33.5891 41.6867 33.5062 41.7652 33.2534 41.8061C32.5105 41.7403 32.1234 41.3892 31.6529 40.8351C31.3265 40.361 31.2994 39.7957 31.398 39.2383C31.6009 38.9581 31.6488 38.9456 32.0077 38.9456Z" fill="#050001"/>
<path d="M43.454 34.4797C43.9829 34.6488 44.3424 35.0606 44.6594 35.5003C44.8214 35.8529 44.8771 36.1739 44.885 36.5611C44.8875 36.6358 44.89 36.7104 44.8927 36.7872C44.8607 36.9942 44.8607 36.9942 44.7322 37.1672C44.5679 37.2868 44.5679 37.2868 44.257 37.2929C43.5862 37.1059 43.1604 36.7516 42.818 36.1466C42.5743 35.6684 42.4804 35.2929 42.5192 34.7502C42.7892 34.3818 43.0316 34.4177 43.454 34.4797Z" fill="#050001"/>
<path d="M29.3486 28.3112C29.9317 28.6962 30.3943 29.2048 30.6168 29.8723C30.6367 30.0826 30.6367 30.0826 30.6412 30.3113C30.6438 30.3867 30.6462 30.4621 30.6489 30.5399C30.6089 30.8028 30.5346 30.885 30.3241 31.0429C29.9581 31.0999 29.7758 31.0622 29.4461 30.8905C28.8587 30.4133 28.352 29.8625 28.248 29.0807C28.2354 28.7965 28.2479 28.5632 28.373 28.3052C28.7103 28.147 29.0092 28.1921 29.3486 28.3112Z" fill="#040000"/>
<path d="M20.373 22.8474C20.99 22.8799 21.3919 22.9904 21.8364 23.4328C22.2118 23.9304 22.4349 24.3684 22.4462 24.9999C22.4487 25.0854 22.4512 25.1711 22.4537 25.2593C22.4432 25.3327 22.4326 25.406 22.4217 25.4815C22.0706 25.7157 21.9583 25.7392 21.5437 25.6767C20.8855 25.314 20.4408 24.7941 20.1474 24.1096C20.0749 23.8001 20.0459 23.5541 20.0804 23.2376C20.2267 23.006 20.2267 23.006 20.373 22.8474Z" fill="#050001"/>
<path d="M40.7634 15.8219C41.376 16.1347 41.8754 16.6662 42.172 17.2853C42.3367 18.1634 42.3367 18.1634 42.1171 18.5536C41.8392 18.7018 41.6601 18.6939 41.3489 18.6511C40.663 18.2939 40.1707 17.7256 39.9312 16.9915C39.8419 16.6126 39.7949 16.2706 39.9952 15.9256C40.2721 15.7687 40.4494 15.7788 40.7634 15.8219Z" fill="#040000"/>
<path d="M17.8368 31.236C18.3999 31.6016 18.861 32.0734 19.1051 32.6994C19.1438 33.0611 19.1565 33.4118 19.1051 33.7726C18.9099 33.9677 18.9099 33.9677 18.5441 34.0043C18.1075 33.9893 17.8756 33.8729 17.5441 33.5775C17.0293 32.9063 16.6957 32.3839 16.7636 31.5287C16.9691 31.1176 17.4346 31.1275 17.8368 31.236Z" fill="#040001"/>
</svg>
