<svg width="50" height="50" viewBox="0 0 50 50" fill="none" xmlns="http://www.w3.org/2000/svg">
<g clip-path="url(#clip0_1_2926)">
<g filter="url(#filter0_d_1_2926)">
<path d="M5.9971 0.837712C6.45866 1.31325 6.76023 1.74745 6.78959 2.42268C6.67825 2.66726 6.67825 2.66726 6.56517 2.87153C6.51209 2.81742 6.459 2.76332 6.40431 2.7076C5.86993 2.19717 5.41546 1.86806 4.65759 1.86163C3.98829 1.96972 3.50568 2.21328 3.08664 2.75931C2.78016 3.38687 2.732 4.1436 2.94331 4.81066C3.29788 5.58009 3.84322 5.93025 4.60718 6.25099C6.15547 6.80907 7.72762 6.65638 9.20908 5.97134C10.4171 5.33359 11.5166 4.49396 12.6285 3.70521C18.2515 -0.277094 18.2515 -0.277094 21.6329 0.234135C23.0116 0.519234 23.8483 1.12088 24.8555 2.08605C24.9642 1.98885 25.073 1.89164 25.185 1.79149C26.6645 0.534389 28.1864 0.0444061 30.1294 0.178476C32.3584 0.528414 34.1071 1.74981 35.9521 2.97732C36.9943 3.66691 38.0491 4.33714 39.1062 5.00352C39.2003 5.0631 39.2945 5.12267 39.3915 5.18406C41.1149 6.26722 42.6857 6.89497 44.7589 6.44123C45.5725 6.21014 46.2801 5.85306 46.7366 5.11573C47.0776 4.19488 46.9916 3.52248 46.6243 2.6471C46.5873 2.53601 46.5502 2.42492 46.5121 2.31047C45.9152 1.99334 45.2101 1.82859 44.5415 1.91072C44.0276 2.14425 43.6602 2.48091 43.258 2.87153C43.0336 2.5349 43.0336 2.5349 43.045 2.30083C43.2194 1.53828 43.4706 1.1069 44.1276 0.662381C44.8826 0.216945 45.6857 0.0608372 46.5546 0.23063C47.7193 0.531115 48.5577 1.25829 49.1639 2.28373C50.0573 3.96892 50.0552 5.65095 49.5419 7.47215C48.9459 9.2353 47.6198 10.7896 45.9511 11.6239C46.0242 12.1123 46.2018 12.531 46.4069 12.9758C46.4782 13.1334 46.5494 13.2911 46.6205 13.4488C46.6579 13.531 46.6951 13.6132 46.7336 13.6979C47.3154 14.9832 47.8741 16.2702 48.3496 17.5991C48.3902 17.7124 48.4309 17.8256 48.4728 17.9422C48.9804 19.3977 49.0061 20.6741 48.3623 22.0981C47.9673 22.8578 47.5154 23.5394 46.961 24.1915C46.7342 23.7946 46.6447 23.3933 46.5402 22.9502C46.2889 21.9517 45.9103 21.1038 45.1656 20.3764C45.1854 20.4963 45.2052 20.6162 45.2256 20.7397C45.2998 21.1893 45.3735 21.6389 45.447 22.0885C45.4789 22.2823 45.5107 22.476 45.5428 22.6697C45.8079 24.275 45.9742 25.8175 45.978 27.4457C45.9792 27.7225 45.9826 27.9991 45.9862 28.2759C46.0056 31.1897 45.3711 34.2041 43.3703 36.4225C43.3039 36.4993 43.2374 36.576 43.1691 36.6552C42.7155 37.1473 42.2101 37.5181 41.652 37.8812C41.5834 37.9259 41.5148 37.9706 41.4441 38.0167C40.9448 38.33 40.9448 38.33 40.565 38.33C40.6014 38.1532 40.6014 38.1532 40.6385 37.9728C40.9108 36.6182 40.9365 35.5464 40.6772 34.1782C40.6665 34.243 40.6559 34.3078 40.6449 34.3746C39.9828 38.342 38.6549 42.1384 35.263 44.5857C32.1926 46.612 32.1926 46.612 30.8027 46.4093C30.0784 45.7929 29.668 44.8771 29.2707 44.0313C29.1492 43.7335 29.1492 43.7335 29.0073 43.604C29.1846 44.6826 29.5473 45.5378 30.0571 46.4946C30.2416 46.8581 30.2416 46.8581 30.2416 47.0825C29.3747 47.038 28.7096 46.4905 28.1376 45.8762C27.3264 44.8817 27.0037 43.6921 26.6509 42.4819C26.7148 45.0656 27.4022 47.0639 28.9192 49.161C29.1195 49.4389 29.1195 49.4389 29.2317 49.6633C28.0634 49.4973 26.9613 48.501 26.2209 47.6247C24.955 45.9189 24.2598 43.8962 23.9578 41.8086C23.8633 44.4795 24.3594 47 25.4012 49.4564C25.5287 49.7755 25.5287 49.7755 25.5287 50C24.7395 49.7892 24.0253 49.5089 23.2986 49.1373C23.2009 49.0878 23.1032 49.0383 23.0026 48.9872C21.346 48.1336 19.9323 47.0024 18.5717 45.7359C18.49 45.6616 18.4083 45.5872 18.324 45.5106C16.6271 43.9024 15.5106 41.8273 14.42 39.7887C14.4437 39.8878 14.4675 39.9868 14.492 40.0889C14.5804 40.4579 14.6682 40.827 14.7555 41.1962C14.7934 41.3557 14.8314 41.5152 14.8698 41.6745C14.925 41.9042 14.9793 42.134 15.0335 42.364C15.0664 42.5021 15.0994 42.6401 15.1333 42.7824C15.196 43.1068 15.2206 43.3875 15.2053 43.7162C13.7593 43.1685 12.6069 42.4427 11.5024 41.3597C11.4157 41.277 11.3288 41.1943 11.2394 41.109C9.37971 39.2111 8.88367 36.4494 8.88689 33.8855C8.90746 32.6993 9.07844 31.5338 9.25826 30.3631C9.28239 30.2008 9.30652 30.0385 9.33053 29.8761C9.37948 29.5519 9.42981 29.228 9.48267 28.9044C8.56114 30.2774 8.0466 31.5684 7.68728 33.1683C5.08539 30.8109 3.45678 26.1799 3.21287 22.7297C3.05946 19.0815 3.91884 15.6744 4.88201 12.185C4.79966 12.1334 4.71732 12.0818 4.63247 12.0287C4.52316 11.9598 4.41386 11.8908 4.30123 11.8198C4.13952 11.7183 4.13952 11.7183 3.97454 11.6145C2.25799 10.4856 0.862323 9.03215 0.28137 7.02332C0.256207 6.94332 0.231043 6.86334 0.205109 6.78092C-0.219805 5.22388 0.0342933 3.52895 0.793335 2.12155C1.38779 1.16364 2.09949 0.64256 3.14976 0.25561C4.20591 0.0443829 5.08801 0.257437 5.9971 0.837712ZM24.8555 8.81866C24.7927 8.87991 24.7299 8.94104 24.6652 9.00412C21.3798 12.0941 16.8437 12.8837 12.5123 13.3071C14.9081 15.8582 20.1905 16.7748 23.5103 16.9118C28.0352 17.026 33.3525 16.2102 37.0864 13.4193C37.0864 13.3823 37.0864 13.3453 37.0864 13.3071C36.9952 13.297 36.9038 13.2869 36.8098 13.2766C32.8784 12.8327 28.5918 12.0946 25.5287 9.37974C25.3935 9.26713 25.2579 9.15487 25.122 9.04307C24.9901 8.93207 24.9901 8.93207 24.8555 8.81866ZM14.1954 39.1155C14.3077 39.3399 14.3077 39.3399 14.3077 39.3399L14.1954 39.1155Z" fill="#707070"/>
<path d="M5.99718 0.837712C6.45874 1.31325 6.76031 1.74745 6.78967 2.42268C6.67834 2.66726 6.67834 2.66726 6.56525 2.87153C6.51216 2.81743 6.45908 2.76332 6.40438 2.7076C5.87 2.19717 5.41553 1.86806 4.65766 1.86163C3.98837 1.96972 3.50577 2.21328 3.08671 2.75931C2.78024 3.38687 2.73207 4.1436 2.94338 4.81066C3.29795 5.58009 3.8433 5.93025 4.60726 6.25099C6.15556 6.80907 7.72769 6.65638 9.20921 5.97134C10.4172 5.33359 11.5167 4.49396 12.6285 3.70521C18.2517 -0.277094 18.2517 -0.277094 21.6331 0.234135C23.0118 0.519234 23.8484 1.12088 24.8555 2.08605C24.9643 1.98885 25.0732 1.89164 25.1852 1.79149C26.6647 0.534389 28.1865 0.0444061 30.1295 0.178476C32.3584 0.528414 34.1072 1.74981 35.9522 2.97732C36.9944 3.66691 38.0492 4.33714 39.1063 5.00352C39.2004 5.0631 39.2945 5.12267 39.3915 5.18406C41.1151 6.26722 42.6858 6.89497 44.7589 6.44123C45.5725 6.21014 46.2802 5.85306 46.7366 5.11573C47.0777 4.19488 46.9917 3.52248 46.6244 2.6471C46.5874 2.53601 46.5504 2.42492 46.5122 2.31047C45.9153 1.99334 45.2102 1.82859 44.5415 1.91072C44.0278 2.14425 43.6602 2.48091 43.2581 2.87153C43.0336 2.5349 43.0336 2.5349 43.0451 2.30083C43.2194 1.53828 43.4706 1.1069 44.1277 0.662381C44.8828 0.216945 45.6858 0.0608372 46.5547 0.23063C47.7193 0.531115 48.5578 1.25829 49.1641 2.28374C50.0573 3.96892 50.0553 5.65095 49.5419 7.47215C48.8684 9.46442 47.3761 10.8932 45.5514 11.8553C41.9469 13.5837 37.4947 13.7805 33.608 12.9705C33.5008 12.9482 33.3934 12.9259 33.283 12.9029C30.5328 12.3104 27.6687 11.3885 25.5289 9.492C25.3935 9.37939 25.258 9.26713 25.1221 9.15533C25.0341 9.08122 24.9462 9.00722 24.8555 8.93092C24.7614 9.02262 24.7614 9.02262 24.6654 9.11626C21.3904 12.1965 16.419 13.3675 12.0355 13.3352C11.9601 13.3347 11.8846 13.3344 11.807 13.334C8.11476 13.312 4.65398 12.6564 1.96461 9.94081C0.590478 8.4581 -0.0226583 6.75442 0.0250382 4.73878C0.136713 3.31297 0.65926 1.93462 1.74019 0.963945C3.12764 -0.00284211 4.56601 -0.0758061 5.99718 0.837712Z" fill="#878787"/>
<path d="M28.3331 5.3408C28.7192 5.6647 29.0863 6.00747 29.4552 6.35069C32.1387 8.83063 35.2163 10.2123 38.7687 10.9513C38.7687 10.9884 38.7687 11.0254 38.7687 11.0636C34.9401 10.9521 31.7733 9.25738 29.0502 6.63428C27.7156 5.35561 26.6291 4.5055 24.7231 4.51453C22.6441 4.56206 21.2714 6.26404 19.8722 7.62227C17.6565 9.71033 14.2148 11.1397 11.1649 11.0636C11.5136 10.8547 11.8608 10.781 12.2573 10.7055C15.402 10.1022 18.2592 8.45018 20.5456 6.24136C22.8049 4.0787 25.6985 3.39052 28.3331 5.3408Z" fill="#8F8F8F"/>
<path d="M15.542 19.5919C15.7244 19.9203 15.8089 20.2 15.8609 20.5711C15.8763 20.6778 15.8917 20.7843 15.9075 20.8941C15.9235 21.0106 15.9394 21.1271 15.9559 21.2472C15.9736 21.3709 15.9911 21.4946 16.0092 21.622C16.0678 22.0352 16.1253 22.4485 16.1828 22.8618C16.224 23.154 16.2654 23.4462 16.3068 23.7383C16.3949 24.3609 16.4826 24.9835 16.5699 25.6062C16.7851 27.1414 17.0029 28.6764 17.2206 30.2113C17.255 30.4541 17.2894 30.6969 17.3238 30.9396C17.6145 32.9914 17.9105 35.0423 18.2192 37.0915C18.2354 37.1987 18.2515 37.3059 18.2682 37.4163C18.4158 38.395 18.5647 39.3735 18.7149 40.3518C18.7678 40.6964 18.8203 41.041 18.8727 41.3856C18.9077 41.6146 18.9434 41.8435 18.979 42.0723C18.9995 42.2069 19.02 42.3415 19.0411 42.48C19.0589 42.5954 19.0768 42.7108 19.0951 42.8296C19.1339 43.1658 19.1393 43.4913 19.1327 43.8295C18.9706 43.5276 18.8651 43.2537 18.7941 42.919C18.7744 42.828 18.7549 42.737 18.7347 42.6432C18.7141 42.5445 18.6937 42.4457 18.6724 42.344C18.6503 42.2395 18.6282 42.135 18.6053 42.0274C18.5325 41.6814 18.4608 41.3354 18.3893 40.9892C18.3645 40.8693 18.3396 40.7495 18.3141 40.6259C15.4627 26.8092 15.4627 26.8092 15.535 20.2302C15.536 20.108 15.537 19.9857 15.5381 19.8598C15.5393 19.7714 15.5406 19.683 15.542 19.5919Z" fill="#888888"/>
<path d="M19.9174 21.6118C20.798 22.6285 21.0909 24.2756 21.355 25.5531C21.3769 25.655 21.3987 25.7568 21.4211 25.8619C21.9776 28.7507 21.8564 31.7364 21.8468 34.6629C21.8457 35.1278 21.8457 35.5927 21.8458 36.0576C21.8457 38.2011 21.8376 40.3441 21.7745 42.4869C21.7702 42.6342 21.7658 42.7815 21.7614 42.9333C21.7292 43.9071 21.6708 44.8775 21.6005 45.8492C21.5635 45.8492 21.5265 45.8492 21.4883 45.8492C21.4046 44.7042 21.3464 43.561 21.3156 42.4133C21.3132 42.3295 21.3109 42.2456 21.3085 42.1593C21.264 40.5268 21.2501 38.8942 21.2401 37.2612C21.2385 37.0078 21.2369 36.7544 21.2353 36.5009C21.2288 35.4623 21.2225 34.4236 21.2188 33.385C21.3147 27.7422 21.3147 27.7422 19.9997 22.3034C19.9174 22.0606 19.9174 22.0606 19.9174 21.6118Z" fill="#A9A9A9"/>
<path d="M33.1574 21.6118C35.1819 23.5335 36.0505 26.4909 36.1276 29.2083C36.1557 32.2952 35.0478 34.8138 33.773 37.58C33.0589 39.1358 32.4734 40.6781 32.3087 42.3988C32.2597 42.8196 32.2597 42.8196 32.0353 43.044C31.9145 40.431 32.8682 38.1637 33.8722 35.8087C34.2539 34.9117 34.6253 34.0163 34.9177 33.0853C34.9423 33.0074 34.9669 32.9295 34.9922 32.8493C35.34 31.6819 35.4422 30.549 35.4366 29.3332C35.4361 29.1894 35.4356 29.0455 35.435 28.8973C35.4221 27.848 35.3462 26.8882 35.0649 25.8758C35.0281 25.739 34.9912 25.6024 34.9533 25.4615C34.5918 24.2621 34.051 23.0273 33.2951 22.0198C33.1574 21.8362 33.1574 21.8362 33.1574 21.6118Z" fill="#A9A9A9"/>
<path d="M13.6341 18.2454C13.6711 18.2454 13.7081 18.2454 13.7463 18.2454C13.7761 19.9793 13.6842 21.6923 13.5569 23.4211C13.5371 23.7021 13.5171 23.983 13.4972 24.264C13.395 25.6861 13.2808 27.1063 13.1467 28.5258C12.7932 32.2908 12.6334 36.0086 12.6243 39.7898C12.5871 39.7898 12.5501 39.7898 12.512 39.7898C12.2404 38.1147 12.1194 36.4855 12.1333 34.7895C12.1337 34.6756 12.1343 34.5618 12.1348 34.4445C12.1451 32.3451 12.2674 30.2713 12.4825 28.1838C12.5143 27.8735 12.5451 27.5633 12.5758 27.2531C12.8039 24.9518 13.0478 22.6522 13.3255 20.3563C13.3348 20.2793 13.3441 20.2023 13.3537 20.1231C13.5112 18.825 13.5112 18.825 13.6341 18.2454Z" fill="#A9A9A9"/>
<path d="M25.6401 21.8362C27.8411 23.8521 28.5007 27.6855 28.8943 30.4764C28.9062 30.5593 28.9181 30.6423 28.9303 30.7277C29.3283 33.8351 28.8986 37.096 28.3823 40.1616C28.3588 40.3014 28.3353 40.4413 28.3111 40.5855C28.2881 40.7136 28.2652 40.8417 28.2417 40.9737C28.2214 41.0868 28.2012 41.1997 28.1804 41.3162C28.1088 41.5852 28.1088 41.5852 27.8844 41.8096C27.8638 41.1578 27.8968 40.5416 27.9826 39.895C28.7171 34.1632 28.8643 27.4169 25.7818 22.2978C25.6401 22.0606 25.6401 22.0606 25.6401 21.8362Z" fill="#A9A9A9"/>
<path d="M22.386 21.7239C22.7588 22.0334 22.9417 22.4476 23.1504 22.8741C23.1897 22.9541 23.229 23.034 23.2696 23.1163C24.8573 26.3904 25.4392 29.9224 25.4437 33.5481C25.4439 33.6293 25.4441 33.7106 25.4443 33.7942C25.4445 35.1459 25.3745 36.4864 25.2613 37.8332C25.2543 37.9176 25.2472 38.0022 25.24 38.0893C25.1369 39.295 25.0018 40.4963 24.8546 41.6974C24.8176 41.6974 24.7806 41.6974 24.7424 41.6974C24.7431 41.5857 24.7439 41.4739 24.7447 41.3588C24.7516 40.2881 24.7566 39.2176 24.7599 38.1469C24.7616 37.597 24.7639 37.0469 24.7678 36.497C24.8003 31.7565 24.8049 26.5819 22.493 22.2952C22.386 22.0606 22.386 22.0606 22.386 21.7239Z" fill="#A9A9A9"/>
<path d="M37.7588 24.0804C38.952 25.2735 38.9113 28.4996 38.923 30.0766C38.8839 34.824 37.1934 39.2693 34.0559 42.8196C34.0559 42.3607 34.2911 42.1139 34.5468 41.7536C36.2005 39.3326 37.2896 36.6006 37.8711 33.7304C37.8892 33.6451 37.9075 33.5597 37.9262 33.4717C38.5114 30.6237 38.3963 27.4795 37.8 24.6469C37.7588 24.4171 37.7588 24.4171 37.7588 24.0804Z" fill="#A9A9A9"/>
<path d="M29.5675 23.0705C31.1438 24.3935 31.4712 27.6733 31.6645 29.5716C31.6785 29.7983 31.69 30.0252 31.6995 30.252C31.7068 30.3925 31.714 30.5331 31.7214 30.678C31.8554 34.5625 30.7997 38.4345 29.7919 42.1463C29.7549 42.1463 29.7179 42.1463 29.6798 42.1463C29.7376 41.1562 29.8859 40.1924 30.0625 39.2182C30.317 37.8093 30.5434 36.3991 30.7247 34.9789C30.7425 34.8405 30.7603 34.7022 30.7787 34.5597C31.2211 31.0048 31.2215 27.2876 29.7841 23.9435C29.6497 23.63 29.5675 23.4162 29.5675 23.0705Z" fill="#A9A9A9"/>
<path d="M37.3101 17.9088C39.9619 20.0892 41.7132 22.8798 42.1351 26.3246C42.184 26.9587 42.175 27.5936 42.168 28.2291C42.1674 28.4025 42.1669 28.5759 42.1666 28.7493C42.1653 29.1984 42.162 29.6476 42.1582 30.0968C42.1547 30.558 42.1532 31.0192 42.1515 31.4804C42.148 32.38 42.1422 33.2797 42.1351 34.1794C42.0981 34.1794 42.0611 34.1794 42.0228 34.1794C41.9871 33.9667 41.9522 33.754 41.9177 33.5411C41.8884 33.3635 41.8884 33.3635 41.8585 33.1821C41.6968 32.0469 41.6692 30.8987 41.6372 29.754C41.4865 25.2116 40.5844 21.7259 37.4504 18.3121C37.3101 18.1332 37.3101 18.1332 37.3101 17.9088Z" fill="#828282"/>
<path d="M27.3232 0.629085C30.8962 0.51479 33.3506 2.30402 35.8784 4.66165C36.4205 5.17071 36.9611 5.6814 37.4984 6.19557C39.4196 8.03136 41.5035 9.47214 44.1548 9.94255C44.1548 9.97955 44.1548 10.0167 44.1548 10.0548C42.0267 10.1775 40.0426 8.97816 38.4321 7.69836C38.3726 7.65108 38.3131 7.60383 38.2518 7.55513C37.1097 6.63629 36.0532 5.61744 34.9943 4.60534C34.1019 3.75307 33.1631 3.01219 32.1483 2.31225C32.0515 2.24514 31.9548 2.17802 31.855 2.10886C30.7296 1.38253 29.3581 0.883734 28.0245 0.790387C27.8932 0.780988 27.7618 0.771589 27.6266 0.761902C27.5264 0.7551 27.4263 0.748309 27.3232 0.7413C27.3232 0.704267 27.3232 0.667245 27.3232 0.629085Z" fill="#A2A2A2"/>
<path d="M21.7548 0.619757C21.8481 0.620262 21.9414 0.620768 22.0375 0.621285C22.2659 0.622607 22.4942 0.624617 22.7226 0.626766C22.7226 0.663799 22.7226 0.700833 22.7226 0.738981C22.6288 0.740567 22.5349 0.742164 22.4381 0.743795C19.0052 0.88446 16.2892 3.19483 13.99 5.543C13.7064 5.828 13.412 6.0932 13.1058 6.35345C12.903 6.52697 12.7042 6.70314 12.5062 6.88207C10.7741 8.43062 8.49676 10.0589 6.08037 10.0735C5.98085 10.0665 5.88134 10.0596 5.77881 10.0525C5.77881 10.0155 5.77881 9.97837 5.77881 9.94022C5.88759 9.91827 5.99636 9.89633 6.10843 9.87358C8.94695 9.25758 11.2226 7.4745 13.2141 5.42334C13.4819 5.1543 13.7674 4.90921 14.0557 4.6624C14.2972 4.45031 14.5307 4.23092 14.7639 4.00979C16.6993 2.19068 19.017 0.591376 21.7548 0.619757Z" fill="#A2A2A2"/>
<path d="M42.5839 17.9088C42.9507 18.3202 43.084 18.7739 43.2432 19.2904C43.2719 19.3834 43.3007 19.4764 43.3305 19.5723C44.6325 23.9007 44.9324 28.8027 43.5937 33.1694C43.5198 33.2805 43.4456 33.3916 43.3693 33.5061C43.3831 33.3004 43.3973 33.0946 43.4114 32.8889C43.4264 32.6713 43.4265 32.6713 43.4417 32.4493C43.4684 32.086 43.5021 31.7238 43.5391 31.3614C43.9519 27.1934 43.6325 23.1407 42.7653 19.0493C42.6915 18.6705 42.6356 18.2912 42.5839 17.9088Z" fill="#888888"/>
<path d="M28.7438 2.45132C30.4742 3.13274 31.7738 4.39722 33.112 5.64417C33.4566 5.96436 33.8082 6.27395 34.1681 6.57681C34.2226 6.62359 34.2771 6.67036 34.3332 6.71855C36.3411 8.43268 38.7099 9.8275 41.2374 10.6164C40.7368 10.7736 40.3644 10.6285 39.8839 10.4621C39.7953 10.4318 39.7067 10.4014 39.6154 10.3702C36.5758 9.29446 34.2666 7.47011 31.9529 5.275C30.3267 3.75503 28.5238 2.38199 26.2292 2.24969C26.1509 2.24485 26.0727 2.24 25.9921 2.235C25.8 2.22317 25.6078 2.21183 25.4156 2.2006C26.4592 1.59872 27.7005 2.06554 28.7438 2.45132Z" fill="#8F8F8F"/>
<path d="M24.5181 2.08673C24.5181 2.12376 24.5181 2.16079 24.5181 2.19894C24.3632 2.20133 24.3632 2.20133 24.2051 2.20377C21.0807 2.32149 18.9568 4.37622 16.8045 6.41824C14.8118 8.28079 11.9167 10.3246 9.14522 10.727C8.89232 10.6774 8.89231 10.6774 8.69629 10.6147C8.79603 10.5817 8.89565 10.5488 8.99837 10.5147C11.0285 9.81337 12.9553 8.80257 14.6435 7.47283C14.7457 7.39401 14.848 7.31517 14.9534 7.23395C15.5707 6.74461 16.1465 6.2172 16.7194 5.67746C18.7985 3.71873 21.4369 1.3928 24.5181 2.08673Z" fill="#A2A2A2"/>
<path d="M10.2672 16.5623C10.3794 16.8989 10.3794 16.8989 10.258 17.1816C10.1939 17.3036 10.1298 17.4255 10.0638 17.5511C9.62525 18.4325 9.31363 19.3538 9.00477 20.2863C8.98075 20.3581 8.95685 20.4299 8.93203 20.5039C8.45381 21.9391 8.09726 23.3448 7.89675 24.8449C7.87745 24.9879 7.85814 25.131 7.83827 25.2784C7.6311 26.8932 7.59357 28.5133 7.57413 30.1397C7.33276 29.6957 7.27468 29.2693 7.22346 28.7721C7.21418 28.6825 7.2049 28.5928 7.19534 28.5003C6.79408 24.312 7.88963 20.0391 10.2672 16.5623Z" fill="#A9A9A9"/>
<path d="M43.7783 13.89C44.8296 14.1471 45.768 14.8589 46.378 15.7494C46.9104 16.6868 47.0014 17.6822 47.0487 18.7423C47.0723 19.1431 47.1226 19.5328 47.1845 19.9292C46.7805 19.6274 46.7264 19.2103 46.6236 18.744C46.5846 18.581 46.5457 18.4179 46.5065 18.2549C46.4451 17.9943 46.3842 17.7336 46.3232 17.473C45.9716 16.1355 45.2029 15.2266 44.0387 14.516C43.503 14.2242 42.9579 14.0874 42.3595 13.9821C42.8532 13.653 43.2117 13.7908 43.7783 13.89Z" fill="#A9A9A9"/>
</g>
</g>
<defs>
<filter id="filter0_d_1_2926" x="-3" y="-3" width="55.89" height="56" filterUnits="userSpaceOnUse" color-interpolation-filters="sRGB">
<feFlood flood-opacity="0" result="BackgroundImageFix"/>
<feColorMatrix in="SourceAlpha" type="matrix" values="0 0 0 0 0 0 0 0 0 0 0 0 0 0 0 0 0 0 127 0" result="hardAlpha"/>
<feOffset/>
<feGaussianBlur stdDeviation="1.5"/>
<feComposite in2="hardAlpha" operator="out"/>
<feColorMatrix type="matrix" values="0 0 0 0 0 0 0 0 0 0 0 0 0 0 0 0 0 0 1 0"/>
<feBlend mode="normal" in2="BackgroundImageFix" result="effect1_dropShadow_1_2926"/>
<feBlend mode="normal" in="SourceGraphic" in2="effect1_dropShadow_1_2926" result="shape"/>
</filter>
<clipPath id="clip0_1_2926">
<rect width="50" height="50" fill="white"/>
</clipPath>
</defs>
</svg>
