<svg width="50" height="50" viewBox="0 0 50 50" fill="none" xmlns="http://www.w3.org/2000/svg">
<g clip-path="url(#clip0_1_2960)">
<path d="M14.3407 1.93788C15.7061 3.04963 16.7208 4.45282 17.3446 6.10456C17.3985 6.08898 17.4524 6.0734 17.508 6.05734C22.4923 4.62845 27.4799 4.55936 32.4609 6.10456C32.5313 5.94474 32.5313 5.94474 32.6032 5.78169C32.9935 4.91352 33.3996 4.12874 34.0113 3.39137C34.0827 3.30306 34.1542 3.21475 34.2278 3.12376C35.591 1.52665 37.5562 0.494839 39.6315 0.193679C42.3522 0.0215761 44.7535 0.544851 46.8384 2.37393C48.5293 3.9765 49.6342 6.00759 49.7465 8.3598C49.8159 10.9797 49.1317 13.2176 47.3269 15.1784C46.9167 15.6055 46.4643 15.9534 45.9814 16.2945C45.7809 16.4403 45.6129 16.582 45.4455 16.7635C45.4924 16.8529 45.5393 16.9423 45.5877 17.0345C48.2864 22.2524 48.9941 28.3093 47.2088 33.9524C46.8497 35.0363 46.431 36.0865 45.9299 37.1124C45.9 37.1741 45.8701 37.2358 45.8393 37.2994C44.7633 39.4885 43.2525 41.3726 41.5694 43.1202C41.46 43.2356 41.46 43.2356 41.3484 43.3534C39.9612 44.7861 38.2451 45.9013 36.5307 46.8993C36.4713 46.9344 36.412 46.9694 36.3509 47.0055C34.2876 48.2145 31.9588 48.9616 29.6265 49.4429C29.5204 49.4649 29.5204 49.4649 29.412 49.4874C27.9239 49.7745 26.4511 49.8426 24.939 49.8366C24.845 49.8363 24.7509 49.8361 24.6541 49.836C23.2661 49.831 21.9059 49.7986 20.5423 49.5155C20.3979 49.486 20.3979 49.486 20.2505 49.4557C14.8534 48.3143 9.80747 45.4909 6.3949 41.0853C6.35433 41.0333 6.31377 40.9813 6.27198 40.9277C2.64005 36.2376 1.0725 30.3613 1.79406 24.4762C2.17165 21.732 3.08173 19.1171 4.36001 16.6667C4.29543 16.6219 4.23085 16.5772 4.16431 16.5311C2.06617 15.0463 0.627673 13.1376 0.140376 10.5741C-0.227217 8.04105 0.329888 5.64166 1.84062 3.58517C4.90679 -0.242266 10.3962 -0.996087 14.3407 1.93788Z" fill="#E4E4E4"/>
<path d="M14.3407 1.93788C15.7061 3.04963 16.7208 4.45282 17.3446 6.10456C17.4556 6.06959 17.5666 6.03461 17.681 5.99858C17.8293 5.9531 17.9775 5.90769 18.1258 5.86232C18.1986 5.8392 18.2716 5.8161 18.3467 5.79228C18.8057 5.6532 19.1907 5.5946 19.6701 5.62007C19.4044 5.89923 19.1331 6.12218 18.8163 6.34075C16.1206 8.28105 13.9201 10.8665 12.3058 13.7596C12.2646 13.8323 12.2234 13.9051 12.181 13.9799C10.803 16.4314 9.3019 19.7033 9.3019 22.5775C9.37009 22.5166 9.43827 22.4555 9.50861 22.3928C11.4123 20.7426 13.3739 20.0931 15.891 20.2519C16.3386 20.3126 16.7403 20.4519 17.1508 20.6395C17.2424 20.6807 17.3341 20.7217 17.4286 20.7641C18.9864 21.5386 20.0482 22.9379 20.6254 24.5545C20.8522 25.2874 20.8735 25.9814 20.8632 26.7442C20.8635 26.8599 20.8639 26.9756 20.8642 27.0947C20.8509 29.3046 19.9873 31.3071 18.5074 32.9457C18.4336 33.0285 18.36 33.1114 18.284 33.1967C16.8686 34.7026 14.8599 35.6132 12.7963 35.6892C12.0059 35.6856 11.0824 35.5317 10.3678 35.1745C11.4104 37.902 12.6642 40.4694 14.5344 42.7327C14.5776 42.7854 14.6207 42.8382 14.6651 42.8927C15.7269 44.1887 16.8892 45.3892 18.2166 46.4148C18.3105 46.4909 18.4042 46.5669 18.5009 46.6453C20.0742 47.9101 21.8907 48.9097 23.7399 49.7094C23.7399 49.7413 23.7399 49.7734 23.7399 49.8063C17.7869 49.9359 12.1737 46.8674 7.97781 42.8746C7.4029 42.313 6.88692 41.7205 6.3949 41.0853C6.35433 41.0333 6.31377 40.9813 6.27198 40.9277C2.64005 36.2376 1.0725 30.3613 1.79406 24.4762C2.17165 21.732 3.08173 19.1171 4.36001 16.6667C4.29543 16.6219 4.23085 16.5772 4.16431 16.5311C2.06617 15.0463 0.627673 13.1376 0.140376 10.5741C-0.227217 8.04105 0.329888 5.64166 1.84062 3.58517C4.90679 -0.242266 10.3962 -0.996087 14.3407 1.93788Z" fill="#C5C5C5"/>
<path d="M34.9022 20.2198C35.0514 20.2205 35.0514 20.2205 35.2036 20.2213C35.9087 20.2322 36.5443 20.2935 37.2096 20.5408C37.3053 20.575 37.401 20.6091 37.4996 20.6442C39.7908 21.5274 41.4265 23.2761 42.4482 25.4662C43.2017 27.2085 43.5044 29.4816 42.8299 31.2967C42.7958 31.3924 42.7616 31.4881 42.7265 31.5866C42.1031 33.204 41.1023 34.4039 39.5084 35.122C37.7618 35.8189 36.0731 35.841 34.3152 35.1155C31.8797 34.0179 30.2716 32.075 29.3331 29.6134C28.657 27.6723 28.7203 25.3688 29.6103 23.5182C30.4739 21.9196 31.7607 20.9389 33.4498 20.3326C33.9379 20.2233 34.4036 20.217 34.9022 20.2198Z" fill="#4B3F4E"/>
<path d="M17.1501 20.6376C17.2418 20.6786 17.3334 20.7197 17.428 20.762C18.9857 21.5367 20.0475 22.936 20.6247 24.5526C20.8515 25.2854 20.8729 25.9793 20.8625 26.7422C20.8629 26.8578 20.8632 26.9735 20.8635 27.0927C20.8502 29.3026 19.9866 31.3051 18.5067 32.9438C18.433 33.0266 18.3593 33.1094 18.2833 33.1948C16.868 34.7007 14.8592 35.6111 12.7957 35.6873C11.1 35.6677 9.59485 34.9946 8.39621 33.8049C7.72195 33.0732 7.30754 32.2278 6.97562 31.2965C6.94451 31.2128 6.91341 31.1291 6.88137 31.0428C6.21718 28.9112 6.79386 26.5611 7.7811 24.6406C8.10223 24.0613 8.48269 23.561 8.9136 23.06C8.9886 22.9658 9.06349 22.8714 9.14076 22.7743C10.971 20.5814 14.4833 19.4181 17.1501 20.6376Z" fill="#4B3F4E"/>
<path d="M46.7618 2.06004C48.5409 3.6018 49.7998 5.66137 49.9831 8.02696C50.113 10.7145 49.5076 13.0612 47.6549 15.1065C47.0211 15.7836 46.2777 16.4534 45.3872 16.7636C45.3567 16.7143 45.3262 16.665 45.295 16.6142C44.416 15.1957 43.4784 13.9019 42.3318 12.6838C42.1345 12.4728 41.9459 12.2574 41.7586 12.0379C39.3403 9.30629 35.7763 7.45404 32.3643 6.25647C32.4141 5.69226 32.5723 5.27442 32.8427 4.77736C32.882 4.70488 32.9214 4.63241 32.9619 4.55773C33.8445 2.99726 35.2003 1.71786 36.8377 0.953785C37.0005 0.876512 37.0005 0.876512 37.1667 0.797671C40.3554 -0.638562 44.0494 -0.0863214 46.7618 2.06004Z" fill="#4B3F4E"/>
<path d="M14.491 1.81839C15.5442 2.67548 16.3444 3.65519 16.9993 4.84799C17.0326 4.90798 17.0659 4.96796 17.1003 5.02976C17.3169 5.44236 17.3998 5.78629 17.4419 6.24297C17.3511 6.27528 17.2604 6.3076 17.1668 6.34091C14.8819 7.16778 12.7941 8.22128 10.8515 9.68436C10.7685 9.74595 10.7685 9.74595 10.6838 9.8089C8.12583 11.7181 6.21209 14.0563 4.55613 16.7636C4.00877 16.566 3.62339 16.2465 3.17902 15.8787C3.09939 15.8148 3.01976 15.751 2.93772 15.6852C1.3409 14.3399 0.329729 12.3295 0.0313414 10.2742C-0.143364 7.51353 0.38782 5.07694 2.24456 2.96141C5.48869 -0.460301 10.6763 -1.01787 14.491 1.81839Z" fill="#4B3F4E"/>
<path d="M44.484 4.60914C45.7819 5.69893 46.3883 7.1416 46.5375 8.80117C46.5978 10.2612 46.0723 11.6222 45.126 12.7185C44.0731 13.8336 44.0731 13.8336 43.412 13.9539C43.3475 13.8764 43.2829 13.799 43.2163 13.7193C41.9474 12.2016 41.9474 12.2016 40.5051 10.8531C40.422 10.781 40.339 10.7087 40.2534 10.6344C38.7757 9.36549 37.1171 8.31788 35.3694 7.46163C35.4653 7.41367 35.4653 7.41367 35.5631 7.36474C35.6269 7.19534 35.6269 7.19534 35.6783 6.98925C36.1127 5.62772 37.1279 4.61967 38.3733 3.97324C38.4439 3.9354 38.5146 3.89755 38.5875 3.85855C40.5034 2.91442 42.82 3.37647 44.484 4.60914Z" fill="#6F6571"/>
<path d="M12.3699 4.56173C13.198 5.27656 13.9221 6.1045 14.2447 7.17121C14.2165 7.41212 14.194 7.52216 14.0013 7.67485C13.9386 7.70663 13.8759 7.73842 13.8113 7.77116C13.7409 7.80811 13.6705 7.84505 13.5979 7.88313C13.5215 7.922 13.4452 7.96092 13.3665 8.00092C10.7644 9.38877 8.04583 11.4792 6.3958 13.9542C5.90054 13.7995 5.53145 13.5039 5.1361 13.179C5.0789 13.1324 5.02168 13.0858 4.96275 13.0378C3.94111 12.1165 3.4097 10.732 3.26208 9.39161C3.20951 7.82252 3.70537 6.3684 4.71785 5.17342C6.74687 3.08623 10.0441 2.74634 12.3699 4.56173Z" fill="#6E6470"/>
<path d="M24.783 33.7894C24.8683 33.7899 24.9538 33.7904 25.0417 33.791C26.1864 33.8122 27.424 34.073 28.2971 34.87C28.7394 35.3777 28.9333 35.7502 28.9198 36.4313C28.8008 37.2521 28.2565 37.9658 27.6173 38.4708C27.0033 38.9089 26.4078 39.1556 25.6794 39.3429C25.6794 39.9504 25.6794 40.5581 25.6794 41.184C28.2412 41.4594 28.2412 41.4594 30.6757 40.8145C31.0801 40.4517 31.2045 40.1087 31.2449 39.5791C31.2726 39.2765 31.3085 39.1316 31.451 38.8524C31.7418 38.6211 31.914 38.6002 32.278 38.6226C32.5573 38.6862 32.6836 38.826 32.85 39.0523C33.0964 39.5452 32.944 40.1007 32.7954 40.6026C32.4519 41.5618 31.7674 42.1665 30.8695 42.6073C30.0544 42.9075 29.3285 42.956 28.4657 42.9482C28.2668 42.9464 28.0679 42.9461 27.8688 42.9461C27.2105 42.9443 26.5606 42.9209 25.9056 42.8531C25.6036 42.824 25.3044 42.8184 25.0011 42.8192C24.8971 42.819 24.7932 42.8186 24.6861 42.8184C24.4024 42.8285 24.1284 42.8497 23.8466 42.8786C23.1913 42.9408 22.5371 42.9532 21.8795 42.9568C21.7402 42.958 21.601 42.9599 21.4618 42.9627C20.0416 42.9918 18.8251 42.7552 17.7369 41.7903C17.1559 41.1983 16.8567 40.4195 16.8191 39.5912C16.863 39.2335 16.9305 39.0429 17.1522 38.7615C17.4563 38.6094 17.6889 38.6306 18.0242 38.6646C18.2968 38.8342 18.2968 38.8342 18.5088 39.1491C18.5725 39.4448 18.613 39.7399 18.6544 40.0394C18.7188 40.404 18.7994 40.5639 19.0901 40.7964C19.6941 41.0903 20.2718 41.293 20.9456 41.2938C21.0425 41.294 21.1393 41.2942 21.2392 41.2943C21.3925 41.2938 21.3925 41.2937 21.549 41.2931C21.705 41.2927 21.705 41.2927 21.8641 41.2925C22.624 41.2883 23.3718 41.2528 24.1289 41.184C24.1289 40.5765 24.1289 39.9689 24.1289 39.3429C23.989 39.3069 23.8491 39.271 23.705 39.2339C22.6104 38.9015 21.6925 38.2323 21.125 37.2293C20.8884 36.7086 20.8368 36.2243 20.9313 35.6608C21.3435 34.7868 22.189 34.3338 23.0631 34.0135C23.647 33.8384 24.1748 33.7853 24.783 33.7894Z" fill="#5D5460"/>
<path d="M18.0242 38.6632C18.2968 38.8328 18.2968 38.8328 18.5088 39.1478C18.5725 39.4434 18.613 39.7386 18.6544 40.038C18.7188 40.4026 18.7994 40.5626 19.0901 40.7951C19.6941 41.0889 20.2718 41.2915 20.9456 41.2925C21.0425 41.2926 21.1393 41.2928 21.2392 41.293C21.3925 41.2923 21.3925 41.2923 21.549 41.2917C21.705 41.2914 21.705 41.2914 21.8641 41.2911C22.624 41.287 23.3718 41.2514 24.1289 41.1827C24.1289 40.5751 24.1289 39.9676 24.1289 39.3415C24.6406 39.3415 25.1522 39.3415 25.6794 39.3415C25.6794 39.9492 25.6794 40.5567 25.6794 41.1827C28.2412 41.4581 28.2412 41.4581 30.6757 40.8132C31.0801 40.4504 31.2045 40.1073 31.2449 39.5778C31.2726 39.2751 31.3085 39.1303 31.451 38.851C31.7418 38.6198 31.914 38.5989 32.278 38.6213C32.5573 38.6849 32.6836 38.8246 32.85 39.0509C33.0964 39.5439 32.944 40.0993 32.7954 40.6013C32.4519 41.5604 31.7674 42.1651 30.8695 42.6059C30.0544 42.9062 29.3285 42.9546 28.4657 42.9468C28.2668 42.9451 28.0679 42.9448 27.8688 42.9448C27.2105 42.943 26.5606 42.9195 25.9056 42.8518C25.6036 42.8227 25.3044 42.8171 25.0011 42.8178C24.8971 42.8176 24.7932 42.8173 24.6861 42.8171C24.4024 42.8271 24.1284 42.8483 23.8466 42.8772C23.1913 42.9395 22.5371 42.9518 21.8795 42.9554C21.7402 42.9566 21.601 42.9586 21.4618 42.9614C20.0416 42.9904 18.8251 42.7539 17.7369 41.789C17.1559 41.1969 16.8567 40.4182 16.8191 39.5898C16.863 39.2322 16.9305 39.0415 17.1522 38.7602C17.4563 38.6081 17.6889 38.6291 18.0242 38.6632Z" fill="#706672"/>
<path d="M18.9919 42.636C19.0504 42.6499 19.1088 42.6636 19.1689 42.6778C19.9298 42.8383 20.6724 42.8564 21.4459 42.8497C21.6564 42.848 21.8667 42.8478 22.0772 42.8478C22.7543 42.8461 23.4238 42.8251 24.0979 42.7547C24.399 42.7253 24.6973 42.7201 24.9997 42.7208C25.1556 42.7204 25.1556 42.7204 25.3146 42.7201C25.6 42.7302 25.8758 42.7517 26.1595 42.781C26.7892 42.841 27.4169 42.8478 28.0491 42.8478C28.2456 42.848 28.442 42.8497 28.6383 42.8516C29.3856 42.8527 30.0848 42.8047 30.8137 42.636C30.4995 43.9571 29.6836 44.9689 28.5453 45.6967C26.8032 46.6478 24.7506 46.8494 22.8437 46.3292C21.4409 45.8855 20.1968 45.1276 19.4208 43.8355C19.2127 43.4343 19.0757 43.0804 18.9919 42.636Z" fill="#FDFDFD"/>
<path d="M35.4408 24.3263C36.046 24.6871 36.5979 25.0992 36.8575 25.7756C37.0542 26.7077 37.1049 27.8466 36.591 28.6793C36.1606 29.2144 35.7489 29.5681 35.0773 29.7467C34.3379 29.8255 33.6468 29.8305 33.0424 29.359C32.3355 28.7264 32.0802 28.0944 32.0248 27.1564C32.001 26.3319 32.1535 25.677 32.6548 24.9986C33.4351 24.2199 34.3838 24.0269 35.4408 24.3263Z" fill="#5C525F"/>
<path d="M16.8618 24.7074C17.3895 25.1762 17.6993 25.7321 17.7725 26.4354C17.7662 27.5022 17.7321 28.3946 16.9519 29.1944C16.334 29.7372 15.7752 29.8105 14.9567 29.7826C14.2169 29.6995 13.7826 29.362 13.3227 28.7886C12.7726 27.9998 12.8099 27.1228 12.9195 26.1908C13.0624 25.4298 13.4504 24.9741 14.0517 24.5137C14.9149 23.9381 16.0504 24.1423 16.8618 24.7074Z" fill="#5D5360"/>
<path d="M28.9738 36.2395C30.4252 36.5398 31.657 36.9305 32.559 38.1776C32.7407 38.4925 32.7407 38.4925 32.8497 38.7589C32.8178 38.8229 32.7858 38.8868 32.7529 38.9527C32.6568 38.8887 32.5609 38.8249 32.4621 38.7589C32.2733 38.7213 32.2733 38.7213 32.0746 38.7226C31.9756 38.7185 31.9756 38.7185 31.8747 38.7143C31.6727 38.7453 31.6727 38.7453 31.5226 38.9194C31.3712 39.1917 31.3437 39.4067 31.3115 39.7158C31.2262 40.2719 31.1532 40.528 30.718 40.8907C29.8613 41.3326 29.0436 41.394 28.0956 41.3934C27.9474 41.3935 27.9474 41.3935 27.7961 41.3936C27.0682 41.3885 26.3947 41.3227 25.6792 41.1815C25.6792 40.5738 25.6792 39.9663 25.6792 39.3403C26.0328 39.1994 26.0328 39.1994 26.3937 39.0557C27.6635 38.5149 28.3709 37.7245 28.8919 36.45C28.919 36.3805 28.9459 36.3111 28.9738 36.2395Z" fill="#FDFDFD"/>
<path d="M20.9296 36.3371C20.985 36.495 21.0344 36.655 21.081 36.8157C21.4398 37.8349 22.2049 38.4904 23.1583 38.9534C23.4786 39.0937 23.7993 39.2192 24.1274 39.341C24.1274 39.9486 24.1274 40.5561 24.1274 41.1822C23.2725 41.3376 22.4512 41.3993 21.5837 41.4063C21.4377 41.4088 21.4377 41.4087 21.2886 41.4114C20.4043 41.4108 19.5991 41.2645 18.8948 40.6976C18.5417 40.311 18.5351 39.9301 18.4803 39.4258C18.3968 39.0935 18.2927 38.9665 18.0227 38.7596C17.6097 38.7154 17.3104 38.7271 16.9568 38.9534C17.2129 38.057 17.7569 37.4496 18.545 36.9719C20.33 36.0374 20.33 36.0374 20.9296 36.3371Z" fill="#FDFDFD"/>
<path d="M22.5786 34.3041C22.579 34.4308 22.579 34.4308 22.5794 34.56C22.6143 35.6347 22.8749 36.4464 23.6445 37.211C23.6445 37.275 23.6445 37.339 23.6445 37.4049C23.7002 37.431 23.7559 37.457 23.8134 37.484C24.0362 37.6008 24.2283 37.7357 24.4318 37.8833C25.3041 38.4648 26.2008 38.5247 27.2298 38.5676C27.2298 38.6316 27.2298 38.6956 27.2298 38.7615C27.0583 38.8403 26.8867 38.9191 26.715 38.9976C26.6194 39.0415 26.524 39.0853 26.4255 39.1305C25.5809 39.5033 24.469 39.4694 23.5794 39.2584C22.5133 38.8373 21.6131 38.0733 21.0343 37.0839C20.861 36.4825 20.8116 35.9145 21.0827 35.3397C22.022 34.3041 22.022 34.3041 22.5786 34.3041Z" fill="#4C404F"/>
<path d="M34.4958 24.2233C35.2464 24.2263 35.6953 24.3821 36.2401 24.9016C36.7627 25.4525 36.9361 25.9546 36.9607 26.7003C36.9472 27.2107 36.9051 27.5311 36.5307 27.9054C36.1994 28.139 35.954 28.2201 35.5557 28.1901C35.1816 28.1243 34.9573 27.9871 34.6896 27.7117C34.5116 27.4535 34.4936 27.2984 34.4655 26.9788C34.4347 26.6315 34.4347 26.6315 34.1628 26.4701C34.0808 26.4321 33.9989 26.3942 33.9145 26.3551C33.7206 26.1612 33.7206 26.1612 33.6782 25.8403C33.7206 25.4829 33.7206 25.4829 33.9447 25.1983C34.2052 24.9985 34.2052 24.9985 34.4958 24.9985C34.4958 24.7427 34.4958 24.4868 34.4958 24.2233Z" fill="#6F6571"/>
<path d="M15.3091 24.2233C15.9681 24.2401 16.4505 24.3701 16.9564 24.8046C17.4981 25.4088 17.6559 25.8705 17.6709 26.6821C17.6764 26.7919 17.6764 26.7919 17.6819 26.904C17.6885 27.32 17.6741 27.4693 17.4015 27.8044C17.056 28.0766 16.8755 28.1816 16.4355 28.2385C15.9642 28.1817 15.8322 28.0486 15.5028 27.7117C15.2567 27.376 15.2934 27.0518 15.3091 26.6458C15.2351 26.6198 15.1611 26.5938 15.085 26.567C14.6834 26.3896 14.6834 26.3896 14.5339 26.1612C14.4855 25.8342 14.4855 25.8342 14.5339 25.4829C14.758 25.1983 14.758 25.1983 15.0183 24.9985C15.1143 24.9985 15.2102 24.9985 15.3091 24.9985C15.3091 24.7427 15.3091 24.4868 15.3091 24.2233Z" fill="#6F6571"/>
<path d="M34.5514 24.938C34.8846 24.9986 34.8846 24.9986 35.1207 25.1984C35.3098 25.554 35.33 25.7638 35.2722 26.1614C35.1268 26.3975 35.1268 26.3975 34.8846 26.5489C34.4926 26.6269 34.2084 26.6108 33.8671 26.3975C33.6627 26.0653 33.6612 25.8666 33.7218 25.4831C33.9753 25.1221 34.1152 25.0146 34.5514 24.938Z" fill="#F9F8F9"/>
<path d="M15.3093 24.938C15.7073 25.0209 15.8474 25.1554 16.0844 25.4831C16.145 25.8666 16.1435 26.0653 15.9391 26.3975C15.5979 26.6108 15.3136 26.6269 14.9217 26.5489C14.6794 26.3975 14.6794 26.3975 14.5341 26.1614C14.4795 25.8282 14.4795 25.8282 14.5341 25.4831C14.7711 25.1554 14.9112 25.0209 15.3093 24.938Z" fill="#FAF9FA"/>
</g>
<defs>
<clipPath id="clip0_1_2960">
<rect width="50" height="50" fill="white"/>
</clipPath>
</defs>
</svg>
