<svg width="50" height="50" viewBox="0 0 50 50" fill="none" xmlns="http://www.w3.org/2000/svg">
<path d="M15.6198 4.70533C16.8214 5.68367 17.7143 6.91847 18.2632 8.37199C18.3107 8.35828 18.3581 8.34457 18.407 8.33044C22.7932 7.07302 27.1823 7.01222 31.5655 8.37199C31.6275 8.23135 31.6275 8.23135 31.6908 8.08787C32.0342 7.32388 32.3916 6.63328 32.9299 5.9844C32.9927 5.90668 33.0556 5.82897 33.1204 5.7489C34.32 4.34345 36.0494 3.43546 37.8756 3.17044C40.2698 3.01899 42.383 3.47947 44.2177 5.08905C45.7057 6.49931 46.678 8.28666 46.7768 10.3566C46.8379 12.6621 46.2358 14.6314 44.6476 16.3569C44.2866 16.7328 43.8885 17.0389 43.4635 17.3391C43.2871 17.4674 43.1392 17.5921 42.9919 17.7518C43.0332 17.8305 43.0745 17.9092 43.1171 17.9903C45.4919 22.582 46.1147 27.9121 44.5436 32.878C44.2276 33.8318 43.8592 34.756 43.4182 35.6588C43.3919 35.7131 43.3656 35.7674 43.3385 35.8233C42.3916 37.7497 41.0621 39.4077 39.581 40.9456C39.4847 41.0472 39.4847 41.0472 39.3865 41.1508C38.1658 42.4116 36.6556 43.393 35.1469 44.2712C35.0947 44.3021 35.0425 44.3329 34.9887 44.3647C33.173 45.4286 31.1237 46.086 29.0713 46.5096C28.9779 46.5289 28.9779 46.5289 28.8825 46.5487C27.573 46.8014 26.2769 46.8613 24.9463 46.856C24.8636 46.8558 24.7808 46.8556 24.6956 46.8555C23.4741 46.8511 22.2772 46.8226 21.0772 46.5735C20.9501 46.5475 20.9501 46.5475 20.8204 46.5208C16.071 45.5164 11.6306 43.0318 8.62755 39.1549C8.59185 39.1092 8.55615 39.0634 8.51938 39.0162C5.32329 34.889 3.94386 29.7178 4.57883 24.539C4.9111 22.1241 5.71197 19.823 6.83685 17.6666C6.78002 17.6272 6.72319 17.5879 6.66464 17.5473C4.81828 16.2407 3.55241 14.561 3.12359 12.3052C2.80011 10.0761 3.29036 7.96464 4.6198 6.15494C7.31802 2.78681 12.1487 2.12345 15.6198 4.70533Z" fill="#ECEAEC"/>
<path d="M15.6198 4.70533C16.8214 5.68367 17.7143 6.91847 18.2632 8.37199C18.3609 8.34122 18.4586 8.31044 18.5593 8.27873C18.6898 8.23871 18.8202 8.19875 18.9507 8.15882C19.0148 8.13848 19.079 8.11815 19.1451 8.09719C19.549 7.9748 19.8878 7.92323 20.3097 7.94564C20.0759 8.1913 19.8371 8.3875 19.5583 8.57984C17.1861 10.2873 15.2497 12.5625 13.8291 15.1084C13.7929 15.1724 13.7566 15.2364 13.7193 15.3023C12.5067 17.4596 11.1857 20.3388 11.1857 22.8681C11.2457 22.8145 11.3057 22.7608 11.3676 22.7056C13.0428 21.2534 14.769 20.6819 16.9841 20.8216C17.378 20.875 17.7315 20.9976 18.0927 21.1627C18.1733 21.1989 18.254 21.235 18.3372 21.2723C19.708 21.9539 20.6424 23.1853 21.1503 24.6079C21.3499 25.2528 21.3687 25.8635 21.3596 26.5348C21.3599 26.6366 21.3602 26.7384 21.3605 26.8432C21.3488 28.7879 20.5888 30.5501 19.2865 31.9921C19.2216 32.065 19.1568 32.1379 19.0899 32.213C17.8444 33.5382 16.0767 34.3395 14.2608 34.4064C13.5652 34.4032 12.7525 34.2678 12.1237 33.9534C13.0412 36.3536 14.1445 38.6129 15.7903 40.6046C15.8283 40.651 15.8662 40.6975 15.9053 40.7454C16.8397 41.8859 17.8625 42.9423 19.0306 43.8449C19.1132 43.9118 19.1957 43.9787 19.2808 44.0477C20.6653 45.1607 22.2638 46.0404 23.8911 46.7441C23.8911 46.7722 23.8911 46.8004 23.8911 46.8294C18.6525 46.9434 13.7129 44.2431 10.0205 40.7295C9.51458 40.2353 9.06052 39.7139 8.62755 39.1549C8.59185 39.1092 8.55615 39.0634 8.51938 39.0162C5.32329 34.889 3.94386 29.7178 4.57883 24.539C4.9111 22.1241 5.71197 19.823 6.83685 17.6666C6.78002 17.6272 6.72319 17.5879 6.66464 17.5473C4.81828 16.2407 3.55241 14.561 3.12359 12.3052C2.80011 10.0761 3.29036 7.96464 4.6198 6.15494C7.31802 2.78681 12.1487 2.12345 15.6198 4.70533Z" fill="#DBD8DB"/>
<path d="M33.7139 20.7934C33.8452 20.794 33.8452 20.794 33.9791 20.7947C34.5996 20.8043 35.1589 20.8582 35.7444 21.0758C35.8286 21.1059 35.9128 21.1359 35.9996 21.1668C38.0158 21.944 39.4552 23.4829 40.3543 25.4102C41.0174 26.9434 41.2838 28.9437 40.6902 30.541C40.6602 30.6252 40.6301 30.7094 40.5992 30.7961C40.0506 32.2194 39.1699 33.2753 37.7673 33.9072C36.2303 34.5205 34.7443 34.54 33.1973 33.9015C31.0541 32.9356 29.639 31.2259 28.8131 29.0597C28.2181 27.3515 28.2738 25.3245 29.057 23.6959C29.817 22.2892 30.9494 21.4262 32.4358 20.8926C32.8653 20.7964 33.2751 20.7909 33.7139 20.7934Z" fill="#4B3F4E"/>
<path d="M18.0921 21.161C18.1728 21.1971 18.2534 21.2333 18.3366 21.2705C19.7074 21.9522 20.6418 23.1836 21.1497 24.6062C21.3493 25.2511 21.3681 25.8617 21.359 26.5331C21.3593 26.6348 21.3596 26.7366 21.3599 26.8415C21.3482 28.7862 20.5882 30.5484 19.2859 31.9904C19.221 32.0633 19.1562 32.1362 19.0893 32.2113C17.8438 33.5365 16.0761 34.3377 14.2602 34.4047C12.768 34.3875 11.4435 33.7951 10.3887 32.7482C9.79535 32.1043 9.43067 31.3604 9.13858 30.5408C9.11121 30.4672 9.08384 30.3935 9.05564 30.3176C8.47116 28.4418 8.97864 26.3737 9.8474 24.6837C10.13 24.1739 10.4648 23.7336 10.844 23.2927C10.91 23.2098 10.9759 23.1268 11.0439 23.0413C12.6545 21.1116 15.7453 20.0879 18.0921 21.161Z" fill="#4B3F4E"/>
<path d="M44.1503 4.81283C45.7159 6.16957 46.8237 7.98199 46.985 10.0637C47.0993 12.4287 46.5666 14.4938 44.9362 16.2937C44.3785 16.8895 43.7243 17.4789 42.9406 17.7519C42.9138 17.7085 42.887 17.6651 42.8595 17.6204C42.086 16.3722 41.2609 15.2336 40.2519 14.1617C40.0783 13.976 39.9123 13.7865 39.7475 13.5933C37.6194 11.1895 34.4831 9.55953 31.4805 8.50567C31.5244 8.00917 31.6636 7.64147 31.9015 7.20406C31.9361 7.14028 31.9708 7.07651 32.0064 7.01079C32.7831 5.63758 33.9762 4.51171 35.4171 3.83933C35.5604 3.77133 35.5604 3.77133 35.7066 3.70195C38.5127 2.43807 41.7634 2.92404 44.1503 4.81283Z" fill="#4B3F4E"/>
<path d="M15.752 4.60018C16.6788 5.35442 17.383 6.21656 17.9593 7.26622C17.9886 7.31901 18.0179 7.37179 18.0482 7.42617C18.2388 7.78926 18.3118 8.09192 18.3488 8.49379C18.2689 8.52223 18.1891 8.55067 18.1067 8.57998C16.096 9.30762 14.2588 10.2347 12.5493 11.5222C12.4762 11.5764 12.4762 11.5764 12.4017 11.6318C10.1507 13.3119 8.46662 15.3695 7.00938 17.7519C6.5277 17.578 6.18857 17.2969 5.79753 16.9732C5.72745 16.917 5.65738 16.8608 5.58518 16.8029C4.17999 15.6191 3.29016 13.8499 3.02758 12.0413C2.87384 9.61188 3.34128 7.46769 4.9752 5.60603C7.83003 2.59494 12.3951 2.10428 15.752 4.60018Z" fill="#4B3F4E"/>
<path d="M42.1458 7.05603C43.288 8.01504 43.8216 9.28458 43.9529 10.745C44.006 12.0298 43.5435 13.2275 42.7108 14.1922C41.7842 15.1735 41.7842 15.1735 41.2025 15.2794C41.1457 15.2112 41.0889 15.1431 41.0303 15.0729C39.9136 13.7374 39.9136 13.7374 38.6444 12.5507C38.5713 12.4872 38.4982 12.4236 38.4229 12.3582C37.1225 11.2416 35.663 10.3197 34.125 9.56621C34.2094 9.524 34.2094 9.524 34.2955 9.48094C34.3516 9.33187 34.3516 9.33187 34.3968 9.15051C34.7791 7.95237 35.6725 7.06529 36.7684 6.49644C36.8306 6.46314 36.8928 6.42983 36.9569 6.39551C38.6429 5.56468 40.6815 5.97128 42.1458 7.05603Z" fill="#6F6571"/>
<path d="M13.8854 7.01433C14.6141 7.64337 15.2513 8.37196 15.5352 9.31066C15.5104 9.52266 15.4906 9.61949 15.321 9.75386C15.2658 9.78183 15.2106 9.8098 15.1538 9.83861C15.0918 9.87113 15.0299 9.90364 14.966 9.93715C14.8988 9.97135 14.8316 10.0056 14.7624 10.0408C12.4725 11.2621 10.0802 13.1017 8.62818 15.2797C8.19235 15.1435 7.86755 14.8834 7.51965 14.5975C7.46931 14.5565 7.41896 14.5155 7.3671 14.4732C6.46806 13.6625 6.00042 12.4441 5.87052 11.2646C5.82425 9.88381 6.26061 8.60419 7.15159 7.55261C8.93712 5.71589 11.8387 5.41679 13.8854 7.01433Z" fill="#6E6470"/>
<path d="M24.809 32.7346C24.8841 32.735 24.9593 32.7355 25.0367 32.736C26.044 32.7547 27.1331 32.9842 27.9014 33.6855C28.2906 34.1323 28.4613 34.4601 28.4494 35.0595C28.3447 35.7818 27.8657 36.4098 27.3032 36.8542C26.7629 37.2397 26.2388 37.4568 25.5978 37.6217C25.5978 38.1563 25.5978 38.691 25.5978 39.2418C27.8522 39.4842 27.8522 39.4842 29.9946 38.9167C30.3504 38.5974 30.4599 38.2956 30.4955 37.8295C30.5198 37.5632 30.5514 37.4357 30.6768 37.19C30.9327 36.9865 31.0843 36.9681 31.4046 36.9878C31.6504 37.0438 31.7615 37.1668 31.9079 37.3659C32.1248 37.7997 31.9907 38.2885 31.8599 38.7302C31.5576 39.5743 30.9553 40.1064 30.1651 40.4943C29.4478 40.7585 28.809 40.8012 28.0498 40.7943C27.8747 40.7927 27.6997 40.7925 27.5245 40.7925C26.9452 40.7909 26.3733 40.7703 25.7969 40.7106C25.5311 40.685 25.2678 40.6801 25.0009 40.6808C24.9094 40.6806 24.818 40.6803 24.7237 40.6801C24.4741 40.689 24.233 40.7076 23.985 40.7331C23.4083 40.7878 22.8326 40.7987 22.2539 40.8019C22.1314 40.8029 22.0089 40.8046 21.8864 40.8071C20.6366 40.8327 19.5661 40.6245 18.6085 39.7754C18.0972 39.2544 17.8339 38.5691 17.8008 37.8402C17.8394 37.5254 17.8988 37.3577 18.0939 37.11C18.3615 36.9762 18.5662 36.9948 18.8613 37.0248C19.1012 37.174 19.1012 37.174 19.2877 37.4511C19.3438 37.7113 19.3794 37.971 19.4159 38.2346C19.4725 38.5554 19.5435 38.6961 19.7993 38.9007C20.3308 39.1594 20.8392 39.3377 21.4321 39.3384C21.5174 39.3386 21.6026 39.3388 21.6905 39.3389C21.8254 39.3384 21.8254 39.3384 21.9631 39.3378C22.1004 39.3375 22.1004 39.3375 22.2404 39.3373C22.9091 39.3336 23.5672 39.3024 24.2334 39.2418C24.2334 38.7072 24.2334 38.1725 24.2334 37.6217C24.1103 37.59 23.9872 37.5584 23.8604 37.5257C22.8971 37.2332 22.0894 36.6443 21.59 35.7617C21.3818 35.3035 21.3364 34.8773 21.4195 34.3814C21.7823 33.6123 22.5263 33.2137 23.2955 32.9318C23.8093 32.7777 24.2738 32.731 24.809 32.7346Z" fill="#5D5460"/>
<path d="M18.8613 37.0235C19.1012 37.1727 19.1012 37.1727 19.2877 37.4499C19.3438 37.71 19.3794 37.9698 19.4159 38.2333C19.4725 38.5541 19.5435 38.6949 19.7993 38.8995C20.3308 39.1581 20.8392 39.3364 21.4321 39.3372C21.5174 39.3373 21.6026 39.3375 21.6905 39.3377C21.8254 39.3371 21.8254 39.3371 21.9631 39.3365C22.1004 39.3363 22.1004 39.3363 22.2404 39.336C22.9091 39.3324 23.5672 39.3011 24.2334 39.2406C24.2334 38.7059 24.2334 38.1713 24.2334 37.6204C24.6837 37.6204 25.1339 37.6204 25.5978 37.6204C25.5978 38.1551 25.5978 38.6897 25.5978 39.2406C27.8522 39.483 27.8522 39.483 29.9946 38.9155C30.3504 38.5962 30.4599 38.2943 30.4955 37.8283C30.5198 37.5619 30.5514 37.4345 30.6768 37.1887C30.9327 36.9853 31.0843 36.9669 31.4046 36.9866C31.6504 37.0426 31.7615 37.1655 31.9079 37.3646C32.1248 37.7985 31.9907 38.2872 31.8599 38.729C31.5576 39.573 30.9553 40.1051 30.1651 40.493C29.4478 40.7573 28.809 40.7999 28.0498 40.793C27.8747 40.7915 27.6997 40.7913 27.5245 40.7913C26.9452 40.7897 26.3733 40.769 25.7969 40.7094C25.5311 40.6838 25.2678 40.6789 25.0009 40.6795C24.9094 40.6793 24.818 40.6791 24.7237 40.6789C24.4741 40.6877 24.233 40.7063 23.985 40.7318C23.4083 40.7866 22.8326 40.7974 22.2539 40.8006C22.1314 40.8016 22.0089 40.8034 21.8864 40.8059C20.6366 40.8314 19.5661 40.6233 18.6085 39.7742C18.0972 39.2531 17.8339 38.5679 17.8008 37.8389C17.8394 37.5242 17.8988 37.3564 18.0939 37.1088C18.3615 36.975 18.5662 36.9935 18.8613 37.0235Z" fill="#706672"/>
<path d="M19.7129 40.5195C19.7643 40.5317 19.8157 40.5438 19.8686 40.5563C20.5382 40.6975 21.1917 40.7135 21.8724 40.7076C22.0576 40.7061 22.2427 40.7059 22.4279 40.7059C23.0238 40.7044 23.6129 40.6859 24.2061 40.624C24.4711 40.5981 24.7336 40.5935 24.9997 40.5941C25.1369 40.5938 25.1369 40.5938 25.2768 40.5935C25.528 40.6024 25.7707 40.6213 26.0203 40.6471C26.5745 40.6999 27.1268 40.7059 27.6832 40.7059C27.8561 40.7061 28.0289 40.7076 28.2017 40.7092C28.8593 40.7102 29.4746 40.668 30.116 40.5195C29.8395 41.6821 29.1215 42.5725 28.1198 43.2129C26.5868 44.0499 24.7805 44.2273 23.1024 43.7695C21.868 43.3791 20.7732 42.7121 20.0903 41.5751C19.9072 41.222 19.7866 40.9106 19.7129 40.5195Z" fill="#FDFDFD"/>
<path d="M34.1878 24.407C34.7204 24.7245 35.2061 25.0872 35.4345 25.6824C35.6076 26.5026 35.6522 27.5049 35.2 28.2376C34.8213 28.7085 34.459 29.0198 33.868 29.1769C33.2173 29.2463 32.6091 29.2507 32.0773 28.8358C31.4552 28.2791 31.2305 27.7229 31.1818 26.8975C31.1608 26.1719 31.295 25.5956 31.7362 24.9986C32.4228 24.3134 33.2577 24.1435 34.1878 24.407Z" fill="#5C525F"/>
<path d="M17.8382 24.7424C18.3026 25.1549 18.5752 25.6441 18.6396 26.263C18.6341 27.2018 18.6041 27.9871 17.9175 28.6909C17.3738 29.1686 16.882 29.2331 16.1617 29.2085C15.5107 29.1354 15.1285 28.8384 14.7238 28.3338C14.2397 27.6397 14.2726 26.8679 14.369 26.0478C14.4948 25.3781 14.8362 24.9771 15.3653 24.5719C16.125 24.0654 17.1242 24.2451 17.8382 24.7424Z" fill="#5D5360"/>
<path d="M28.4969 34.8906C29.7742 35.1549 30.8581 35.4987 31.6519 36.5961C31.8118 36.8732 31.8118 36.8732 31.9077 37.1077C31.8796 37.164 31.8515 37.2202 31.8225 37.2782C31.738 37.2219 31.6536 37.1657 31.5666 37.1077C31.4005 37.0746 31.4005 37.0746 31.2256 37.0757C31.1385 37.0721 31.1385 37.0721 31.0497 37.0684C30.872 37.0957 30.872 37.0957 30.7399 37.2489C30.6066 37.4885 30.5824 37.6777 30.5541 37.9497C30.479 38.4391 30.4148 38.6645 30.0318 38.9836C29.2779 39.3725 28.5584 39.4265 27.7241 39.426C27.5937 39.4261 27.5937 39.4261 27.4606 39.4262C26.82 39.4217 26.2273 39.3638 25.5977 39.2395C25.5977 38.7048 25.5977 38.1702 25.5977 37.6193C25.9089 37.4953 25.9089 37.4953 26.2265 37.3688C27.3439 36.8929 27.9664 36.1974 28.4249 35.0758C28.4487 35.0147 28.4724 34.9536 28.4969 34.8906Z" fill="#FDFDFD"/>
<path d="M21.418 34.9766C21.4667 35.1155 21.5102 35.2563 21.5512 35.3977C21.8669 36.2946 22.5402 36.8715 23.3792 37.2789C23.6611 37.4024 23.9433 37.5128 24.232 37.62C24.232 38.1547 24.232 38.6893 24.232 39.2402C23.4797 39.377 22.757 39.4313 21.9936 39.4374C21.8651 39.4396 21.8651 39.4396 21.7339 39.4419C20.9557 39.4414 20.2471 39.3127 19.6273 38.8138C19.3166 38.4736 19.3108 38.1384 19.2626 37.6946C19.1891 37.4022 19.0975 37.2904 18.8599 37.1084C18.4965 37.0695 18.2331 37.0798 17.9219 37.2789C18.1473 36.4901 18.626 35.9556 19.3195 35.5352C20.8903 34.7128 20.8903 34.7128 21.418 34.9766Z" fill="#FDFDFD"/>
<path d="M22.8691 33.1875C22.8694 33.299 22.8694 33.299 22.8698 33.4127C22.9005 34.3584 23.1298 35.0727 23.8071 35.7456C23.8071 35.8019 23.8071 35.8582 23.8071 35.9162C23.8561 35.9392 23.9051 35.9621 23.9557 35.9858C24.1518 36.0886 24.3208 36.2073 24.4999 36.3372C25.2675 36.8489 26.0566 36.9016 26.9621 36.9394C26.9621 36.9957 26.9621 37.052 26.9621 37.11C26.8112 37.1794 26.6602 37.2487 26.5091 37.3178C26.425 37.3564 26.341 37.395 26.2543 37.4347C25.5111 37.7628 24.5326 37.733 23.7498 37.5473C22.8116 37.1767 22.0194 36.5044 21.5101 35.6337C21.3576 35.1045 21.3141 34.6047 21.5527 34.0988C22.3793 33.1875 22.3793 33.1875 22.8691 33.1875Z" fill="#4C404F"/>
<path d="M33.3562 24.3164C34.0167 24.3191 34.4117 24.4562 34.8911 24.9133C35.351 25.3981 35.5036 25.84 35.5253 26.4962C35.5134 26.9453 35.4763 27.2273 35.1469 27.5567C34.8553 27.7622 34.6394 27.8336 34.2889 27.8072C33.9597 27.7493 33.7623 27.6286 33.5267 27.3862C33.3701 27.159 33.3542 27.0225 33.3295 26.7413C33.3024 26.4356 33.3024 26.4356 33.0631 26.2936C32.991 26.2602 32.9189 26.2268 32.8446 26.1924C32.674 26.0218 32.674 26.0218 32.6367 25.7394C32.674 25.4249 32.674 25.4249 32.8712 25.1744C33.1004 24.9986 33.1004 24.9986 33.3562 24.9986C33.3562 24.7735 33.3562 24.5483 33.3562 24.3164Z" fill="#6F6571"/>
<path d="M16.472 24.3164C17.0519 24.3312 17.4764 24.4456 17.9216 24.828C18.3983 25.3597 18.5372 25.766 18.5504 26.4802C18.5552 26.5768 18.5552 26.5768 18.5601 26.6754C18.5659 27.0415 18.5532 27.1729 18.3133 27.4678C18.0093 27.7073 17.8504 27.7997 17.4632 27.8498C17.0485 27.7998 16.9323 27.6827 16.6425 27.3862C16.4259 27.0908 16.4582 26.8055 16.472 26.4482C16.4069 26.4253 16.3418 26.4025 16.2748 26.3789C15.9214 26.2228 15.9214 26.2228 15.7898 26.0218C15.7472 25.734 15.7472 25.734 15.7898 25.4249C15.987 25.1744 15.987 25.1744 16.2161 24.9986C16.3006 24.9986 16.385 24.9986 16.472 24.9986C16.472 24.7735 16.472 24.5483 16.472 24.3164Z" fill="#6F6571"/>
<path d="M33.4052 24.9453C33.6984 24.9986 33.6984 24.9986 33.9062 25.1745C34.0726 25.4874 34.0903 25.672 34.0395 26.0219C33.9115 26.2297 33.9115 26.2297 33.6984 26.3629C33.3534 26.4315 33.1033 26.4174 32.803 26.2297C32.6231 25.9373 32.6218 25.7625 32.6751 25.425C32.8982 25.1073 33.0213 25.0127 33.4052 24.9453Z" fill="#F9F8F9"/>
<path d="M16.4721 24.9453C16.8223 25.0183 16.9456 25.1366 17.1542 25.425C17.2075 25.7625 17.2062 25.9373 17.0263 26.2297C16.7261 26.4174 16.4759 26.4315 16.131 26.3629C15.9178 26.2297 15.9178 26.2297 15.7899 26.0219C15.7419 25.7287 15.7419 25.7287 15.7899 25.425C15.9985 25.1366 16.1218 25.0183 16.4721 24.9453Z" fill="#FAF9FA"/>
</svg>
