<svg width="1920" height="60" viewBox="0 0 1920 60" fill="none" xmlns="http://www.w3.org/2000/svg">
<rect width="943" height="60" fill="#FD6C67"/>
<path d="M1054.64 51.8897V43.6641H996.699L999.485 47.9095L996.699 51.8897H1054.64Z" fill="#FD6C67"/>
<path opacity="0.3" d="M1052.12 43.6641V49.5015H998.371L996.699 51.8897H1054.64V43.6641H1052.12Z" fill="#FD6C67"/>
<mask id="mask0_3103_42661" style="mask-type:luminance" maskUnits="userSpaceOnUse" x="930" y="0" width="125" height="60">
<path d="M1054.64 0H930V60H1054.64V0Z" fill="white"/>
</mask>
<g mask="url(#mask0_3103_42661)">
<path d="M956.235 0H930V60H956.235V0Z" fill="#FD6C67"/>
</g>
<mask id="mask1_3103_42661" style="mask-type:luminance" maskUnits="userSpaceOnUse" x="930" y="0" width="125" height="60">
<path d="M1054.64 0H930V60H1054.64V0Z" fill="white"/>
</mask>
<g mask="url(#mask1_3103_42661)">
<path d="M969.285 42.2534C971.227 41.6268 978.745 44.1953 980.75 42.5666C982.755 40.9372 981.627 39.1205 981.439 38.4939C981.251 37.8679 981.627 37.1154 983.256 36.865C984.258 36.1132 983.005 34.6725 983.005 34.6725C983.005 34.6725 984.885 33.6073 983.757 32.2288C983.507 31.7903 983.26 31.0692 984.195 30.4118C985.333 29.6114 986.413 29.0854 986.35 27.832C986.288 26.5789 982.692 22.8919 982.692 20.7619C982.692 18.6318 986.075 9.73506 979.246 4.78532C979.246 4.78532 971.227 -5.86407 957.068 -2.48061C942.909 0.902681 942.032 13.0575 943.911 20.4503C945.791 27.8434 947.796 35.4871 947.796 35.4871C947.796 35.4871 947.294 45.6365 943.911 50.8998C939.901 57.5411 935.015 79.0936 935.015 79.0936H977.868C977.868 79.0936 969.987 64.8878 967.217 61.4252C962.139 55.076 967.343 42.8798 969.285 42.2534Z" fill="#912E29"/>
</g>
<mask id="mask2_3103_42661" style="mask-type:luminance" maskUnits="userSpaceOnUse" x="930" y="0" width="125" height="60">
<path d="M1054.64 0H930V60H1054.64V0Z" fill="white"/>
</mask>
<g mask="url(#mask2_3103_42661)">
<path d="M979.247 4.78697C979.247 4.78697 985.157 4.06438 986.882 10.9635C988.607 17.8624 984.892 21.8425 990.199 26.619C985.423 20.516 991.658 14.8111 988.076 7.24867C984.494 -0.313905 978.922 -3.09988 969.502 -0.579075C961.144 5.12586 979.247 4.78697 979.247 4.78697Z" fill="#FD6C67"/>
</g>
<mask id="mask3_3103_42661" style="mask-type:luminance" maskUnits="userSpaceOnUse" x="930" y="0" width="125" height="60">
<path d="M1054.64 0H930V60H1054.64V0Z" fill="white"/>
</mask>
<g mask="url(#mask3_3103_42661)">
<path opacity="0.4" d="M975 4.83984C970.559 6.2256 968.131 11.808 968.441 16.6662C968.839 22.902 973.482 31.7909 960.746 37.894C948.01 43.9972 951.459 60.0001 940.182 60.0001C928.905 60.0001 962.736 60.0001 962.736 60.0001C958.358 48.8066 963.333 43.3337 967.014 39.7516C975.347 31.6436 973.176 24.131 971.094 19.6516C967.811 12.5865 970.709 7.56543 975 4.83984Z" fill="#912E29"/>
<path d="M979.247 4.7846C972.156 3.00069 968.043 10.4303 968.441 16.666C968.839 22.9018 973.483 31.7907 960.746 37.8938C948.01 43.9971 955.705 52.0901 940.183 59.9179C940.183 40.9454 934.08 -0.0507812 934.08 -0.0507812C934.08 -0.0507812 962.206 -0.0507812 968.176 -0.0507812C974.146 -0.0507812 979.247 4.7846 979.247 4.7846Z" fill="#FD6C67"/>
<path opacity="0.3" d="M930 0V43.7448C937.438 39.0572 936.907 32.252 948.588 30.2916C963.893 27.7231 961.695 16.9242 963.172 10.2191C963.94 6.73446 966.549 2.60047 969.852 0H930Z" fill="#FD6C67"/>
<path opacity="0.3" d="M962.236 5.47093C963.305 3.54535 965.118 1.5838 967.267 0H930V23.1802C933.002 21.2541 936.33 19.7662 942.522 20.5359C957.923 22.4505 958.903 11.474 962.236 5.47093Z" fill="#FD6C67"/>
<path d="M968.972 15.5767C968.819 14.5382 968.777 13.4604 968.843 12.3828C968.492 13.7914 968.351 15.2584 968.441 16.6649C968.839 22.9007 973.482 31.7896 960.746 37.8927C948.047 43.9783 953.582 53.9465 938.856 59.9988C933.085 59.9988 949.135 59.9988 949.135 59.9988C955.049 52.6376 951.697 46.2014 962.349 39.9671C975.992 31.9826 969.992 22.4956 968.972 15.5767Z" fill="#FCC0AD"/>
</g>
<path d="M1025.14 24.6348C1025.94 24.6348 1026.76 24.7096 1027.59 24.8594C1028.43 25.0026 1029.24 25.224 1030.02 25.5234C1030.81 25.8229 1031.55 26.2005 1032.25 26.6562C1032.95 27.1055 1033.56 27.6328 1034.08 28.2383C1034.6 28.8438 1035.01 29.5273 1035.31 30.2891C1035.61 31.0508 1035.77 31.8939 1035.77 32.8184C1035.77 33.7428 1035.6 34.599 1035.28 35.3867C1034.95 36.1745 1034.5 36.8548 1033.91 37.4277C1033.32 38.0007 1032.62 38.4499 1031.81 38.7754C1031 39.1009 1030.1 39.2637 1029.12 39.2637C1028.66 39.2637 1028.18 39.2279 1027.69 39.1562C1027.19 39.0911 1026.7 38.987 1026.21 38.8438C1025.71 38.7005 1025.22 38.5247 1024.74 38.3164C1024.26 38.1016 1023.81 37.8477 1023.37 37.5547C1022.86 38.0625 1022.26 38.4596 1021.59 38.7461C1020.92 39.026 1020.21 39.166 1019.46 39.166C1019.05 39.166 1018.68 39.1204 1018.32 39.0293C1017.97 38.9382 1017.67 38.8079 1017.41 38.6387C1017.15 38.4694 1016.95 38.2643 1016.8 38.0234C1016.66 37.7826 1016.59 37.5156 1016.59 37.2227C1016.59 36.9688 1016.65 36.7311 1016.77 36.5098C1016.9 36.2884 1017.08 36.0931 1017.31 35.9238C1017.54 35.7546 1017.82 35.6211 1018.14 35.5234C1018.46 35.4258 1018.82 35.377 1019.2 35.377C1020.34 35.377 1021.68 35.7936 1023.23 36.627C1023.51 36.2689 1023.75 35.8652 1023.93 35.416C1024.13 34.9147 1024.29 34.4004 1024.4 33.873C1024.52 33.3392 1024.62 32.8086 1024.7 32.2812C1024.79 31.7539 1024.88 31.2396 1024.97 30.7383C1025.07 30.237 1025.2 29.765 1025.37 29.3223C1025.53 28.8796 1025.75 28.4759 1026.02 28.1113C1026.29 27.7402 1026.65 27.4245 1027.08 27.1641C1027.15 27.1315 1027.21 27.1152 1027.26 27.1152C1027.35 27.1152 1027.44 27.1478 1027.51 27.2129C1027.6 27.278 1027.64 27.3691 1027.64 27.4863C1027.64 27.623 1027.58 27.7272 1027.46 27.7988C1027.11 28.0007 1026.83 28.2546 1026.61 28.5605C1026.39 28.86 1026.21 29.1986 1026.07 29.5762C1025.93 29.9538 1025.81 30.3607 1025.73 30.7969C1025.64 31.2331 1025.56 31.6888 1025.48 32.1641C1025.42 32.5547 1025.35 32.9648 1025.27 33.3945C1025.19 33.8177 1025.09 34.2409 1024.97 34.6641C1024.86 35.0807 1024.71 35.4909 1024.53 35.8945C1024.35 36.2917 1024.13 36.6595 1023.87 36.998C1023.88 37.0046 1023.89 37.0111 1023.89 37.0176C1023.9 37.0176 1023.91 37.0208 1023.92 37.0273C1024.75 37.5221 1025.61 37.8965 1026.5 38.1504C1027.39 38.4043 1028.26 38.5312 1029.12 38.5312C1030.04 38.5312 1030.87 38.3783 1031.6 38.0723C1032.33 37.7663 1032.95 37.3561 1033.46 36.8418C1033.97 36.321 1034.36 35.7155 1034.62 35.0254C1034.89 34.3353 1035.02 33.6061 1035.02 32.8379C1035.02 32.0566 1034.89 31.3307 1034.63 30.6602C1034.37 29.9831 1034.01 29.3678 1033.56 28.8145C1033.11 28.2611 1032.57 27.7695 1031.95 27.3398C1031.33 26.9102 1030.66 26.5521 1029.94 26.2656C1029.22 25.9727 1028.46 25.7513 1027.67 25.6016C1026.88 25.4453 1026.09 25.3672 1025.3 25.3672C1024.23 25.3672 1023.25 25.4583 1022.37 25.6406C1021.49 25.8164 1020.73 26.0768 1020.09 26.4219C1019.46 26.7669 1018.97 27.1901 1018.62 27.6914C1018.27 28.1927 1018.09 28.7624 1018.09 29.4004C1018.09 29.765 1018.14 30.0872 1018.25 30.3672C1018.36 30.6471 1018.49 30.8913 1018.66 31.0996C1018.83 31.3014 1019.01 31.474 1019.2 31.6172C1019.4 31.7604 1019.58 31.8776 1019.75 31.9688C1019.92 32.0534 1020.06 32.1152 1020.18 32.1543C1020.3 32.1934 1020.38 32.2161 1020.39 32.2227C1020.48 32.2422 1020.54 32.2878 1020.59 32.3594C1020.64 32.4245 1020.67 32.4993 1020.67 32.584C1020.67 32.6947 1020.63 32.7793 1020.55 32.8379C1020.47 32.8965 1020.39 32.9258 1020.3 32.9258C1020.17 32.9258 1020 32.8965 1019.81 32.8379C1019.61 32.7728 1019.4 32.6784 1019.18 32.5547C1018.97 32.4245 1018.75 32.265 1018.53 32.0762C1018.31 31.8809 1018.12 31.653 1017.94 31.3926C1017.77 31.1322 1017.62 30.8359 1017.51 30.5039C1017.41 30.1719 1017.36 29.804 1017.36 29.4004C1017.36 28.6647 1017.54 28.0039 1017.91 27.418C1018.29 26.8255 1018.82 26.3242 1019.51 25.9141C1020.19 25.5039 1021.01 25.1882 1021.96 24.9668C1022.91 24.7454 1023.98 24.6348 1025.14 24.6348ZM1022.7 37.1836C1022.02 36.8255 1021.39 36.5553 1020.81 36.373C1020.24 36.1908 1019.7 36.0996 1019.22 36.0996C1018.95 36.0996 1018.7 36.1322 1018.46 36.1973C1018.23 36.2559 1018.03 36.3372 1017.87 36.4414C1017.7 36.5456 1017.56 36.666 1017.46 36.8027C1017.37 36.9395 1017.32 37.0827 1017.32 37.2324C1017.32 37.3757 1017.36 37.5189 1017.45 37.6621C1017.54 37.8053 1017.67 37.9323 1017.85 38.043C1018.03 38.1536 1018.25 38.2448 1018.52 38.3164C1018.79 38.388 1019.1 38.4238 1019.46 38.4238C1020.07 38.4238 1020.65 38.3164 1021.21 38.1016C1021.76 37.8802 1022.26 37.5742 1022.7 37.1836ZM1044.37 36.2754C1044.34 36.3275 1044.29 36.4382 1044.2 36.6074C1044.12 36.7702 1044.02 36.959 1043.89 37.1738C1043.77 37.3887 1043.62 37.6133 1043.45 37.8477C1043.28 38.082 1043.09 38.2969 1042.88 38.4922C1042.68 38.6875 1042.45 38.8503 1042.21 38.9805C1041.97 39.1042 1041.72 39.166 1041.45 39.166C1041.07 39.166 1040.75 39.0456 1040.49 38.8047C1040.24 38.5638 1040.05 38.2611 1039.94 37.8965C1039.71 38.2676 1039.45 38.5638 1039.14 38.7852C1038.84 39 1038.53 39.1074 1038.23 39.1074C1037.99 39.1074 1037.77 39.0651 1037.57 38.9805C1037.38 38.8893 1037.21 38.7656 1037.07 38.6094C1036.94 38.4466 1036.83 38.2578 1036.75 38.043C1036.68 37.8281 1036.64 37.5938 1036.64 37.3398C1036.64 36.832 1036.73 36.3861 1036.9 36.002C1037.07 35.6113 1037.3 35.2858 1037.56 35.0254C1037.83 34.765 1038.12 34.5697 1038.44 34.4395C1038.77 34.3092 1039.08 34.2441 1039.38 34.2441C1039.58 34.2441 1039.77 34.2734 1039.94 34.332C1040.1 34.3841 1040.25 34.4427 1040.37 34.5078C1040.49 34.5729 1040.58 34.6348 1040.65 34.6934C1040.71 34.7454 1040.75 34.7747 1040.76 34.7812C1040.83 34.8659 1040.86 34.9538 1040.86 35.0449C1040.86 35.1426 1040.83 35.2305 1040.76 35.3086C1040.68 35.3802 1040.6 35.416 1040.5 35.416C1040.4 35.416 1040.31 35.3802 1040.24 35.3086C1040.23 35.2956 1040.2 35.2728 1040.15 35.2402C1040.1 35.2012 1040.04 35.1621 1039.96 35.123C1039.89 35.084 1039.79 35.0514 1039.68 35.0254C1039.58 34.9928 1039.46 34.9766 1039.32 34.9766C1039.12 34.9766 1038.9 35.0221 1038.68 35.1133C1038.45 35.2044 1038.24 35.3477 1038.05 35.543C1037.86 35.7318 1037.7 35.9727 1037.57 36.2656C1037.45 36.5521 1037.39 36.8939 1037.39 37.291C1037.39 37.4147 1037.4 37.5417 1037.43 37.6719C1037.45 37.7956 1037.5 37.9095 1037.56 38.0137C1037.63 38.1178 1037.72 38.2025 1037.83 38.2676C1037.94 38.3327 1038.07 38.3652 1038.24 38.3652C1038.35 38.3652 1038.49 38.3262 1038.64 38.248C1038.79 38.1699 1038.94 38.0495 1039.08 37.8867C1039.22 37.724 1039.35 37.5189 1039.46 37.2715C1039.57 37.0241 1039.66 36.7311 1039.7 36.3926C1039.71 36.3014 1039.76 36.2266 1039.83 36.168C1039.9 36.1029 1039.98 36.0703 1040.08 36.0703C1040.17 36.0703 1040.25 36.1061 1040.32 36.1777C1040.39 36.2493 1040.43 36.3307 1040.43 36.4219C1040.44 36.5456 1040.45 36.7214 1040.47 36.9492C1040.49 37.1706 1040.53 37.3919 1040.6 37.6133C1040.67 37.8346 1040.78 38.0267 1040.91 38.1895C1041.05 38.3522 1041.24 38.4336 1041.48 38.4336C1041.63 38.4336 1041.79 38.3913 1041.94 38.3066C1042.09 38.222 1042.24 38.1113 1042.39 37.9746C1042.54 37.8314 1042.68 37.6719 1042.81 37.4961C1042.94 37.3138 1043.07 37.1315 1043.18 36.9492C1043.29 36.7669 1043.39 36.5911 1043.47 36.4219C1043.56 36.2526 1043.63 36.1061 1043.69 35.9824C1043.72 35.9108 1043.76 35.8555 1043.82 35.8164C1043.89 35.7773 1043.96 35.7578 1044.03 35.7578C1044.14 35.7578 1044.23 35.8001 1044.29 35.8848C1044.36 35.9629 1044.4 36.0475 1044.4 36.1387C1044.4 36.1842 1044.39 36.2298 1044.37 36.2754ZM1047.33 39.1367C1047.56 38.9089 1047.79 38.6777 1048.02 38.4434C1048.26 38.2025 1048.48 37.9518 1048.71 37.6914C1048.93 37.431 1049.13 37.1608 1049.32 36.8809C1049.52 36.5944 1049.69 36.2917 1049.84 35.9727C1049.87 35.901 1049.92 35.849 1049.97 35.8164C1050.03 35.7773 1050.1 35.7578 1050.17 35.7578C1050.28 35.7578 1050.37 35.7969 1050.43 35.875C1050.51 35.9531 1050.54 36.041 1050.54 36.1387C1050.54 36.1908 1050.53 36.2396 1050.51 36.2852C1050.31 36.7083 1050.08 37.0957 1049.82 37.4473C1049.56 37.7988 1049.28 38.1341 1049 38.4531C1048.71 38.7656 1048.42 39.0684 1048.13 39.3613C1047.84 39.6608 1047.56 39.9603 1047.29 40.2598C1047.26 40.709 1047.26 41.1582 1047.29 41.6074C1047.32 42.0632 1047.33 42.5449 1047.33 43.0527C1047.33 43.4694 1047.32 43.8861 1047.29 44.3027C1047.26 44.7194 1047.22 45.1165 1047.16 45.4941C1047.1 45.8783 1047.02 46.2363 1046.92 46.5684C1046.82 46.9004 1046.69 47.1868 1046.54 47.4277C1046.38 47.6751 1046.2 47.8672 1045.99 48.0039C1045.78 48.1471 1045.54 48.2188 1045.26 48.2188C1044.8 48.2188 1044.44 48.0592 1044.19 47.7402C1043.95 47.4212 1043.82 46.9753 1043.82 46.4023C1043.82 46.0898 1043.85 45.7546 1043.92 45.3965C1043.99 45.0384 1044.09 44.6673 1044.21 44.2832C1044.34 43.9056 1044.48 43.5215 1044.65 43.1309C1044.83 42.7402 1045.02 42.3594 1045.22 41.9883C1045.42 41.6172 1045.64 41.2624 1045.86 40.9238C1046.09 40.5918 1046.32 40.2891 1046.56 40.0156C1046.57 39.7031 1046.58 39.3776 1046.6 39.0391C1046.62 38.707 1046.63 38.3978 1046.65 38.1113C1046.49 38.4108 1046.27 38.6517 1046.02 38.834C1045.77 39.0163 1045.5 39.1074 1045.2 39.1074C1044.7 39.1074 1044.32 38.9414 1044.04 38.6094C1043.76 38.2773 1043.62 37.8216 1043.62 37.2422C1043.62 36.819 1043.66 36.4349 1043.73 36.0898C1043.82 35.7383 1043.91 35.4388 1044 35.1914C1044.1 34.9375 1044.18 34.7454 1044.26 34.6152C1044.34 34.4785 1044.38 34.4134 1044.38 34.4199C1044.45 34.3092 1044.55 34.2539 1044.68 34.2539C1044.79 34.2539 1044.88 34.293 1044.95 34.3711C1045.02 34.4427 1045.05 34.5273 1045.05 34.625C1045.05 34.6966 1045.03 34.7617 1044.99 34.8203C1045 34.8138 1044.97 34.8691 1044.9 34.9863C1044.83 35.097 1044.76 35.2598 1044.67 35.4746C1044.59 35.6895 1044.52 35.9466 1044.45 36.2461C1044.38 36.5456 1044.35 36.8743 1044.35 37.2324C1044.35 37.5905 1044.41 37.8704 1044.54 38.0723C1044.68 38.2741 1044.89 38.375 1045.18 38.375C1045.55 38.375 1045.89 38.1016 1046.19 37.5547C1046.49 37.0013 1046.74 36.2005 1046.95 35.1523C1046.96 35.0677 1047 34.9993 1047.06 34.9473C1047.13 34.8887 1047.21 34.8594 1047.3 34.8594C1047.4 34.8594 1047.49 34.8952 1047.56 34.9668C1047.63 35.0384 1047.67 35.1263 1047.67 35.2305C1047.67 35.25 1047.66 35.3672 1047.63 35.582C1047.6 35.7904 1047.57 36.0703 1047.53 36.4219C1047.5 36.7734 1047.46 37.1836 1047.43 37.6523C1047.39 38.1146 1047.35 38.6094 1047.33 39.1367ZM1046.55 41.207C1046.25 41.6302 1045.98 42.0762 1045.74 42.5449C1045.5 43.0137 1045.29 43.4792 1045.11 43.9414C1044.94 44.4036 1044.8 44.8464 1044.7 45.2695C1044.6 45.6927 1044.55 46.0703 1044.55 46.4023C1044.55 46.7409 1044.61 47.0046 1044.72 47.1934C1044.83 47.3887 1045.01 47.4863 1045.25 47.4863C1045.46 47.4863 1045.65 47.3789 1045.81 47.1641C1045.98 46.9557 1046.12 46.6562 1046.23 46.2656C1046.35 45.875 1046.44 45.3997 1046.5 44.8398C1046.56 44.2865 1046.59 43.6647 1046.59 42.9746C1046.59 42.6947 1046.58 42.4115 1046.57 42.125C1046.56 41.8385 1046.55 41.5326 1046.55 41.207Z" fill="#F2F2F2"/>
<path d="M1000.17 6.49V10H999.31V6.49H1000.17ZM1003.92 10H1003.07L1001.64 7.835V10H1000.78V6.49H1001.64L1003.07 8.665V6.49H1003.92V10ZM1007.07 6.49V7.175H1006.14V10H1005.28V7.175H1004.35V6.49H1007.07ZM1008.35 7.175V7.885H1009.5V8.545H1008.35V9.315H1009.65V10H1007.5V6.49H1009.65V7.175H1008.35ZM1011.99 10L1011.26 8.675H1011.06V10H1010.2V6.49H1011.64C1011.92 6.49 1012.15 6.53833 1012.34 6.635C1012.54 6.73167 1012.69 6.865 1012.78 7.035C1012.88 7.20167 1012.93 7.38833 1012.93 7.595C1012.93 7.82833 1012.86 8.03667 1012.73 8.22C1012.6 8.40333 1012.41 8.53333 1012.15 8.61L1012.96 10H1011.99ZM1011.06 8.07H1011.59C1011.75 8.07 1011.86 8.03167 1011.94 7.955C1012.02 7.87833 1012.06 7.77 1012.06 7.63C1012.06 7.49667 1012.02 7.39167 1011.94 7.315C1011.86 7.23833 1011.75 7.2 1011.59 7.2H1011.06V8.07ZM1016.61 10H1015.75L1014.32 7.835V10H1013.47V6.49H1014.32L1015.75 8.665V6.49H1016.61V10ZM1019.41 9.38H1018.1L1017.89 10H1017L1018.27 6.49H1019.26L1020.53 10H1019.62L1019.41 9.38ZM1019.19 8.72L1018.76 7.435L1018.33 8.72H1019.19ZM1023.44 6.49V7.175H1022.51V10H1021.65V7.175H1020.72V6.49H1023.44ZM1024.72 6.49V10H1023.87V6.49H1024.72ZM1027 10.035C1026.67 10.035 1026.37 9.95833 1026.09 9.805C1025.82 9.65167 1025.6 9.43833 1025.44 9.165C1025.28 8.88833 1025.2 8.57833 1025.2 8.235C1025.2 7.89167 1025.28 7.58333 1025.44 7.31C1025.6 7.03667 1025.82 6.82333 1026.09 6.67C1026.37 6.51667 1026.67 6.44 1027 6.44C1027.33 6.44 1027.63 6.51667 1027.91 6.67C1028.18 6.82333 1028.4 7.03667 1028.56 7.31C1028.72 7.58333 1028.8 7.89167 1028.8 8.235C1028.8 8.57833 1028.72 8.88833 1028.56 9.165C1028.4 9.43833 1028.18 9.65167 1027.91 9.805C1027.63 9.95833 1027.33 10.035 1027 10.035ZM1027 9.255C1027.28 9.255 1027.5 9.16167 1027.67 8.975C1027.84 8.78833 1027.93 8.54167 1027.93 8.235C1027.93 7.925 1027.84 7.67833 1027.67 7.495C1027.5 7.30833 1027.28 7.215 1027 7.215C1026.72 7.215 1026.49 7.30667 1026.32 7.49C1026.15 7.67333 1026.07 7.92167 1026.07 8.235C1026.07 8.545 1026.15 8.79333 1026.32 8.98C1026.49 9.16333 1026.72 9.255 1027 9.255ZM1032.41 10H1031.56L1030.13 7.835V10H1029.27V6.49H1030.13L1031.56 8.665V6.49H1032.41V10ZM1035.22 9.38H1033.91L1033.7 10H1032.8L1034.07 6.49H1035.06L1036.33 10H1035.43L1035.22 9.38ZM1035 8.72L1034.56 7.435L1034.13 8.72H1035ZM1037.57 9.34H1038.69V10H1036.72V6.49H1037.57V9.34Z" fill="#FE8D6B"/>
<path d="M993.056 21C993.035 21 993.021 20.9867 993.016 20.96L992.072 15.464C992.067 15.4427 992.075 15.432 992.096 15.432H992.992C993.013 15.432 993.027 15.4427 993.032 15.464L993.544 19.08L994.072 15.464C994.077 15.4427 994.093 15.432 994.12 15.432H994.84C994.861 15.432 994.875 15.4427 994.88 15.464L995.4 19.08L995.92 15.464C995.925 15.4427 995.939 15.432 995.96 15.432H996.848C996.875 15.432 996.885 15.4427 996.88 15.464L995.928 20.96C995.923 20.9707 995.915 20.9813 995.904 20.992C995.893 20.9973 995.888 21 995.888 21H994.92C994.904 21 994.891 20.9867 994.88 20.96L994.472 18.088L994.064 20.96C994.059 20.9867 994.045 21 994.024 21H993.056ZM998.675 21.08C998.387 21.08 998.123 21.008 997.883 20.864C997.648 20.7147 997.459 20.52 997.315 20.28C997.171 20.0347 997.099 19.7653 997.099 19.472L997.107 16.936C997.107 16.6427 997.176 16.376 997.315 16.136C997.459 15.896 997.651 15.704 997.891 15.56C998.131 15.416 998.392 15.344 998.675 15.344C998.963 15.344 999.224 15.416 999.459 15.56C999.694 15.704 999.88 15.896 1000.02 16.136C1000.16 16.376 1000.24 16.6427 1000.24 16.936L1000.24 19.472C1000.24 19.7653 1000.17 20.0347 1000.03 20.28C999.888 20.52 999.699 20.7147 999.459 20.864C999.224 21.008 998.963 21.08 998.675 21.08ZM998.675 20.112C998.835 20.112 998.974 20.048 999.091 19.92C999.214 19.7867 999.275 19.6373 999.275 19.472L999.267 16.936C999.267 16.76 999.211 16.6107 999.099 16.488C998.987 16.3653 998.846 16.304 998.675 16.304C998.51 16.304 998.368 16.3653 998.251 16.488C998.134 16.6053 998.075 16.7547 998.075 16.936V19.472C998.075 19.648 998.134 19.8 998.251 19.928C998.368 20.0507 998.51 20.112 998.675 20.112ZM1000.88 21C1000.86 21 1000.85 20.9867 1000.85 20.96L1000.87 15.464C1000.87 15.4427 1000.88 15.432 1000.9 15.432H1001.88C1001.9 15.432 1001.92 15.4427 1001.93 15.464L1002.66 16.52L1003.39 15.464C1003.4 15.4427 1003.42 15.432 1003.44 15.432H1004.43C1004.45 15.432 1004.46 15.4427 1004.46 15.464L1004.48 20.96C1004.48 20.9867 1004.46 21 1004.44 21H1003.54C1003.52 21 1003.51 20.9867 1003.51 20.96L1003.5 16.88L1002.66 18.096L1001.83 16.88L1001.82 20.96C1001.82 20.9867 1001.81 21 1001.79 21H1000.88ZM1005.18 21C1005.16 21 1005.15 20.9867 1005.15 20.96L1005.16 15.464C1005.16 15.4427 1005.17 15.432 1005.19 15.432H1007.76C1007.78 15.432 1007.79 15.4453 1007.79 15.472V16.368C1007.79 16.3893 1007.78 16.4 1007.76 16.4H1006.12V17.648H1007.76C1007.78 17.648 1007.79 17.6587 1007.79 17.68L1007.8 18.584C1007.8 18.6053 1007.79 18.616 1007.76 18.616H1006.12V20.016H1007.76C1007.79 20.016 1007.8 20.0293 1007.8 20.056V20.968C1007.8 20.9893 1007.79 21 1007.76 21H1005.18ZM1008.58 21C1008.54 21 1008.52 20.9813 1008.52 20.944L1008.51 15.496C1008.51 15.4533 1008.53 15.432 1008.57 15.432H1009.29L1010.64 18.584L1010.6 15.496C1010.6 15.4533 1010.63 15.432 1010.68 15.432H1011.47C1011.5 15.432 1011.52 15.4533 1011.52 15.496L1011.52 20.952C1011.52 20.984 1011.51 21 1011.48 21H1010.78L1009.4 18.056L1009.45 20.936C1009.45 20.9787 1009.43 21 1009.38 21H1008.58ZM1012.22 17.312V16.816C1012.35 16.816 1012.46 16.7653 1012.55 16.664C1012.65 16.5627 1012.7 16.4427 1012.7 16.304H1012.25C1012.23 16.304 1012.22 16.2933 1012.22 16.272V15.376C1012.22 15.3547 1012.23 15.344 1012.25 15.344H1013.15C1013.18 15.344 1013.19 15.3547 1013.19 15.376V16.304C1013.19 16.4907 1013.14 16.6613 1013.05 16.816C1012.96 16.9707 1012.84 17.0933 1012.69 17.184C1012.55 17.2693 1012.39 17.312 1012.22 17.312ZM1015.2 21.08C1014.92 21.08 1014.65 21.008 1014.41 20.864C1014.18 20.7147 1013.99 20.52 1013.84 20.28C1013.7 20.0347 1013.64 19.7653 1013.64 19.472V19.104C1013.64 19.0773 1013.65 19.064 1013.68 19.064H1014.57C1014.59 19.064 1014.6 19.0773 1014.6 19.104V19.472C1014.6 19.648 1014.66 19.8 1014.78 19.928C1014.9 20.0507 1015.04 20.112 1015.2 20.112C1015.37 20.112 1015.51 20.048 1015.63 19.92C1015.74 19.792 1015.8 19.6427 1015.8 19.472C1015.8 19.2747 1015.68 19.104 1015.42 18.96C1015.33 18.912 1015.2 18.8373 1015.02 18.736C1014.84 18.6347 1014.67 18.5387 1014.51 18.448C1014.21 18.2773 1014 18.064 1013.85 17.808C1013.71 17.5467 1013.64 17.2533 1013.64 16.928C1013.64 16.6293 1013.72 16.3627 1013.86 16.128C1014 15.888 1014.19 15.6987 1014.43 15.56C1014.67 15.4213 1014.93 15.352 1015.2 15.352C1015.49 15.352 1015.74 15.424 1015.98 15.568C1016.22 15.7067 1016.41 15.896 1016.55 16.136C1016.69 16.3707 1016.76 16.6347 1016.76 16.928V17.584C1016.76 17.6053 1016.75 17.616 1016.73 17.616H1015.84C1015.81 17.616 1015.8 17.6053 1015.8 17.584L1015.8 16.928C1015.8 16.7413 1015.74 16.5893 1015.62 16.472C1015.5 16.3547 1015.36 16.296 1015.2 16.296C1015.04 16.296 1014.9 16.36 1014.78 16.488C1014.66 16.6107 1014.6 16.7573 1014.6 16.928C1014.6 17.104 1014.64 17.2507 1014.72 17.368C1014.79 17.4853 1014.93 17.5973 1015.12 17.704C1015.15 17.72 1015.2 17.7493 1015.28 17.792C1015.36 17.8293 1015.44 17.8747 1015.53 17.928C1015.62 17.976 1015.7 18.0187 1015.77 18.056C1015.85 18.0933 1015.89 18.1173 1015.91 18.128C1016.17 18.2773 1016.38 18.4613 1016.54 18.68C1016.69 18.8933 1016.77 19.1573 1016.77 19.472C1016.77 19.776 1016.7 20.0507 1016.56 20.296C1016.42 20.536 1016.23 20.728 1015.99 20.872C1015.75 21.0107 1015.49 21.08 1015.2 21.08Z" fill="#FD6C67"/>
<path d="M1002.85 51.085C1002.55 51.085 1002.28 51.0085 1002.02 50.8555C1001.77 50.6968 1001.57 50.49 1001.42 50.235C1001.26 49.98 1001.19 49.6995 1001.19 49.3935V48.8665C1001.19 48.6285 1001.23 48.4075 1001.32 48.2035C1001.41 47.9938 1001.54 47.8097 1001.69 47.651C1001.56 47.515 1001.46 47.3563 1001.39 47.175C1001.32 46.988 1001.29 46.7897 1001.29 46.58C1001.29 46.2853 1001.36 46.019 1001.49 45.781C1001.63 45.5373 1001.82 45.3447 1002.06 45.203C1002.3 45.0613 1002.56 44.9905 1002.85 44.9905C1003.14 44.9905 1003.4 45.0642 1003.64 45.2115C1003.87 45.3532 1004.06 45.543 1004.2 45.781C1004.35 46.019 1004.42 46.2853 1004.42 46.58C1004.42 46.7897 1004.38 46.9852 1004.31 47.1665C1004.24 47.3478 1004.14 47.5093 1004.02 47.651C1004.17 47.804 1004.29 47.9853 1004.37 48.195C1004.47 48.4047 1004.51 48.6285 1004.51 48.8665V49.3935C1004.51 49.6995 1004.43 49.9828 1004.28 50.2435C1004.13 50.4985 1003.94 50.7025 1003.69 50.8555C1003.44 51.0085 1003.16 51.085 1002.85 51.085ZM1002.85 47.1495C1003 47.1495 1003.13 47.0957 1003.23 46.988C1003.33 46.8747 1003.39 46.7387 1003.39 46.58C1003.39 46.4213 1003.33 46.2853 1003.23 46.172C1003.13 46.0587 1003 46.002 1002.85 46.002C1002.71 46.002 1002.58 46.0587 1002.47 46.172C1002.36 46.2853 1002.31 46.4213 1002.31 46.58C1002.31 46.733 1002.36 46.8662 1002.47 46.9795C1002.58 47.0928 1002.71 47.1495 1002.85 47.1495ZM1002.85 50.065C1003.03 50.065 1003.18 49.9998 1003.3 49.8695C1003.42 49.7392 1003.48 49.5805 1003.48 49.3935V48.8665C1003.48 48.6852 1003.42 48.5293 1003.3 48.399C1003.18 48.263 1003.03 48.195 1002.85 48.195C1002.68 48.195 1002.53 48.2602 1002.4 48.3905C1002.28 48.5208 1002.22 48.6795 1002.22 48.8665V49.3935C1002.22 49.5748 1002.28 49.7335 1002.4 49.8695C1002.53 49.9998 1002.68 50.065 1002.85 50.065ZM1005.93 51C1005.9 51 1005.89 50.9858 1005.89 50.9575V46.1125H1004.79C1004.76 46.1125 1004.74 46.0983 1004.74 46.07L1004.75 45.118C1004.75 45.0953 1004.76 45.084 1004.79 45.084H1008.02C1008.04 45.084 1008.06 45.0953 1008.06 45.118V46.07C1008.06 46.0983 1008.05 46.1125 1008.02 46.1125H1006.91L1006.92 50.9575C1006.92 50.9858 1006.91 51 1006.89 51H1005.93ZM1008.51 51C1008.49 51 1008.48 50.9858 1008.48 50.9575L1008.49 45.118C1008.49 45.0953 1008.5 45.084 1008.53 45.084H1009.47C1009.5 45.084 1009.52 45.0953 1009.52 45.118L1009.51 47.43H1010.78V45.118C1010.78 45.0953 1010.79 45.084 1010.82 45.084H1011.76C1011.79 45.084 1011.8 45.0953 1011.8 45.118L1011.82 50.9575C1011.82 50.9858 1011.81 51 1011.78 51H1010.82C1010.8 51 1010.78 50.9858 1010.78 50.9575V48.4585H1009.51V50.9575C1009.51 50.9858 1009.5 51 1009.47 51H1008.51ZM1013.81 51C1013.79 51 1013.77 50.9858 1013.77 50.9575L1013.79 45.118C1013.79 45.0953 1013.8 45.084 1013.83 45.084H1014.86C1014.89 45.084 1014.91 45.0953 1014.92 45.118L1015.7 46.24L1016.47 45.118C1016.49 45.0953 1016.51 45.084 1016.53 45.084H1017.57C1017.6 45.084 1017.61 45.0953 1017.61 45.118L1017.63 50.9575C1017.63 50.9858 1017.61 51 1017.59 51H1016.63C1016.61 51 1016.6 50.9858 1016.6 50.9575L1016.59 46.6225L1015.7 47.9145L1014.81 46.6225L1014.8 50.9575C1014.8 50.9858 1014.79 51 1014.77 51H1013.81ZM1018.05 50.9575L1019.11 45.118C1019.11 45.0953 1019.12 45.084 1019.15 45.084H1020.38C1020.4 45.084 1020.42 45.0953 1020.42 45.118L1021.43 50.9575C1021.44 50.9858 1021.43 51 1021.4 51H1020.46C1020.43 51 1020.42 50.9858 1020.41 50.9575L1020.32 50.337H1019.16L1019.07 50.9575C1019.07 50.9858 1019.05 51 1019.03 51H1018.09C1018.06 51 1018.05 50.9858 1018.05 50.9575ZM1019.33 49.4275H1020.15L1019.8 47.039L1019.75 46.7245L1019.72 47.039L1019.33 49.4275ZM1022 51C1021.98 51 1021.97 50.9858 1021.97 50.9575L1021.98 45.118C1021.98 45.0953 1022 45.084 1022.02 45.084H1023.74C1024.04 45.084 1024.32 45.1605 1024.58 45.3135C1024.84 45.4608 1025.04 45.662 1025.2 45.917C1025.35 46.1663 1025.43 46.4497 1025.43 46.767C1025.43 46.9767 1025.4 47.1665 1025.33 47.3365C1025.27 47.5008 1025.2 47.6425 1025.11 47.7615C1025.03 47.8748 1024.95 47.9598 1024.88 48.0165C1025.19 48.3565 1025.34 48.756 1025.34 49.215L1025.35 50.9575C1025.35 50.9858 1025.34 51 1025.31 51H1024.35C1024.32 51 1024.31 50.9915 1024.31 50.9745V49.215C1024.31 49.011 1024.24 48.8353 1024.09 48.688C1023.95 48.535 1023.78 48.4585 1023.57 48.4585H1023L1023 50.9575C1023 50.9858 1022.98 51 1022.96 51H1022ZM1023 47.4385H1023.74C1023.91 47.4385 1024.07 47.3733 1024.2 47.243C1024.34 47.1127 1024.41 46.954 1024.41 46.767C1024.41 46.5857 1024.34 46.4298 1024.2 46.2995C1024.07 46.1692 1023.92 46.104 1023.74 46.104H1023V47.4385ZM1027.59 51.085C1027.28 51.085 1027 51.0085 1026.74 50.8555C1026.49 50.6968 1026.29 50.4872 1026.15 50.2265C1026 49.9658 1025.92 49.674 1025.92 49.351L1025.93 46.699C1025.93 46.3873 1026 46.104 1026.15 45.849C1026.29 45.5883 1026.49 45.3815 1026.74 45.2285C1027 45.0698 1027.28 44.9905 1027.59 44.9905C1027.9 44.9905 1028.18 45.067 1028.43 45.22C1028.68 45.373 1028.88 45.5798 1029.03 45.8405C1029.17 46.0955 1029.25 46.3817 1029.25 46.699V47.09C1029.25 47.1127 1029.24 47.124 1029.21 47.124H1028.26C1028.24 47.124 1028.23 47.1127 1028.23 47.09V46.699C1028.23 46.512 1028.17 46.3505 1028.04 46.2145C1027.92 46.0785 1027.77 46.0105 1027.59 46.0105C1027.39 46.0105 1027.23 46.0813 1027.12 46.223C1027.02 46.359 1026.96 46.5177 1026.96 46.699V49.351C1026.96 49.5607 1027.02 49.7307 1027.14 49.861C1027.26 49.9913 1027.41 50.0565 1027.59 50.0565C1027.77 50.0565 1027.92 49.9857 1028.04 49.844C1028.17 49.6967 1028.23 49.5323 1028.23 49.351V48.96C1028.23 48.9373 1028.24 48.926 1028.26 48.926H1029.22C1029.25 48.926 1029.26 48.9373 1029.26 48.96V49.351C1029.26 49.674 1029.18 49.9658 1029.03 50.2265C1028.88 50.4872 1028.68 50.6968 1028.43 50.8555C1028.18 51.0085 1027.9 51.085 1027.59 51.085ZM1029.91 51C1029.89 51 1029.88 50.9858 1029.88 50.9575L1029.89 45.118C1029.89 45.0953 1029.9 45.084 1029.93 45.084H1030.87C1030.9 45.084 1030.92 45.0953 1030.92 45.118L1030.91 47.43H1032.18V45.118C1032.18 45.0953 1032.19 45.084 1032.22 45.084H1033.16C1033.19 45.084 1033.2 45.0953 1033.2 45.118L1033.22 50.9575C1033.22 50.9858 1033.2 51 1033.18 51H1032.22C1032.2 51 1032.18 50.9858 1032.18 50.9575V48.4585H1030.91V50.9575C1030.91 50.9858 1030.9 51 1030.87 51H1029.91Z" fill="#FEFEF1"/>
<mask id="mask4_3103_42661" style="mask-type:luminance" maskUnits="userSpaceOnUse" x="932" y="0" width="125" height="60">
<path d="M1056.64 0H932V60H1056.64V0Z" fill="white"/>
</mask>
<g mask="url(#mask4_3103_42661)">
<path d="M957.2 29.3354C958.376 30.5293 958.139 31.4838 957.402 32.2102C956.664 32.937 955.707 33.1599 954.53 31.9664C953.354 30.7718 953.142 27.8867 953.142 27.8867C953.142 27.8867 956.024 28.1416 957.2 29.3354Z" fill="#B94788"/>
<g opacity="0.3">
<path d="M957.817 30.1602C957.715 30.4491 957.528 30.7132 957.286 30.9523C956.549 31.6788 955.591 31.9023 954.415 30.7085C953.751 30.0346 953.394 28.8218 953.209 27.8933C953.166 27.8886 953.142 27.8867 953.142 27.8867C953.142 27.8867 953.354 30.7718 954.53 31.9664C955.707 33.1601 956.664 32.937 957.402 32.2102C957.96 31.6597 958.23 30.9777 957.817 30.1602Z" fill="#B94788"/>
</g>
<path d="M956.37 34.6036C958.394 34.9383 958.846 36.0541 958.64 37.3041C958.433 38.5538 957.646 39.4645 955.622 39.1298C953.597 38.7951 951.31 36.0916 951.31 36.0916C951.31 36.0916 954.346 34.2687 956.37 34.6036Z" fill="#B94788"/>
<g opacity="0.3">
<path d="M957.864 35.1484C957.891 35.4032 957.88 35.6703 957.835 35.9451C957.628 37.1946 956.841 38.1055 954.817 37.7704C953.698 37.5859 952.499 36.6765 951.65 35.9006C951.435 36.0167 951.31 36.0917 951.31 36.0917C951.31 36.0917 953.597 38.7951 955.622 39.1298C957.645 39.4646 958.433 38.5539 958.64 37.3042C958.779 36.4561 958.615 35.6706 957.864 35.1484Z" fill="#B94788"/>
</g>
<path d="M960.436 31.2892C959.918 32.1965 959.306 32.2151 958.745 31.8952C958.185 31.5756 957.889 31.0383 958.407 30.1312C958.925 29.2236 960.621 28.6094 960.621 28.6094C960.621 28.6094 960.954 30.3817 960.436 31.2892Z" fill="#B94788"/>
<g opacity="0.3">
<path d="M960.725 29.8906C960.681 30.0757 960.62 30.2509 960.535 30.4006C960.017 31.3077 959.404 31.3268 958.844 31.0067C958.576 30.854 958.37 30.6505 958.283 30.3816C957.951 31.14 958.239 31.6084 958.745 31.8975C959.306 32.2173 959.919 32.1988 960.437 31.2915C960.654 30.9115 960.72 30.3805 960.725 29.8906Z" fill="#B94788"/>
</g>
<path d="M958.096 47.7474C958.064 47.7474 958.032 47.7398 958.002 47.7236C957.905 47.6714 957.869 47.5508 957.921 47.4541C961.237 41.2958 960.236 34.4527 955.429 30.426C955.344 30.3554 955.333 30.2298 955.404 30.1456C955.474 30.0611 955.6 30.05 955.684 30.1209C958.222 32.2466 959.773 35.091 960.172 38.3466C960.542 41.3774 959.867 44.6789 958.271 47.6428C958.235 47.7095 958.167 47.7474 958.096 47.7474Z" fill="#912E29"/>
<path d="M959.875 38.2209C959.822 38.2209 959.77 38.2 959.73 38.1589C958.201 36.5471 955.123 36.5887 955.091 36.5902C954.981 36.5959 954.89 36.505 954.888 36.3952C954.885 36.2852 954.973 36.1942 955.083 36.192C955.217 36.1891 958.368 36.1445 960.019 37.8845C960.095 37.9644 960.092 38.0904 960.012 38.1661C959.973 38.2027 959.924 38.2209 959.875 38.2209Z" fill="#912E29"/>
<path d="M958.791 34.4381C958.69 34.4381 958.604 34.3611 958.594 34.2584C958.409 32.3843 959.223 30.7736 959.258 30.7058C959.308 30.6081 959.428 30.5694 959.526 30.6197C959.623 30.67 959.662 30.7899 959.612 30.8876C959.604 30.9033 958.817 32.4654 958.989 34.2196C959 34.329 958.92 34.4264 958.811 34.4371C958.804 34.4378 958.798 34.4381 958.791 34.4381Z" fill="#912E29"/>
<path d="M1045.12 9.04092C1045.57 7.42677 1046.52 7.15743 1047.51 7.43529C1048.51 7.71314 1049.18 8.43237 1048.73 10.047C1048.28 11.6618 1045.88 13.2825 1045.88 13.2825C1045.88 13.2825 1044.67 10.6556 1045.12 9.04092Z" fill="#B94788"/>
<g opacity="0.3">
<path d="M1045.53 8.09513C1045.83 8.0394 1046.15 8.06991 1046.48 8.1613C1047.48 8.43916 1048.15 9.1587 1047.7 10.7729C1047.44 11.6845 1046.57 12.5974 1045.86 13.2199C1045.87 13.2599 1045.89 13.2819 1045.89 13.2819C1045.89 13.2819 1048.28 11.6614 1048.73 10.0464C1049.18 8.43193 1048.51 7.71255 1047.51 7.43469C1046.76 7.22461 1046.03 7.32965 1045.53 8.09513Z" fill="#B94788"/>
</g>
<path d="M1050.1 7.14083C1049.39 5.21895 1050.13 4.27149 1051.32 3.82821C1052.5 3.38556 1053.68 3.61507 1054.4 5.5368C1055.12 7.45916 1053.91 10.789 1053.91 10.789C1053.91 10.789 1050.82 9.06271 1050.1 7.14083Z" fill="#B94788"/>
<g opacity="0.3">
<path d="M1049.83 5.57461C1050.04 5.42363 1050.28 5.30061 1050.54 5.20295C1051.72 4.75999 1052.91 4.9895 1053.62 6.91171C1054.02 7.97415 1053.83 9.46656 1053.58 10.5894C1053.79 10.7176 1053.91 10.789 1053.91 10.789C1053.91 10.789 1055.12 7.45923 1054.4 5.53687C1053.68 3.61514 1052.5 3.38547 1051.32 3.82828C1050.51 4.1291 1049.91 4.66314 1049.83 5.57461Z" fill="#B94788"/>
</g>
<path d="M1045.21 5.26173C1046.25 5.25916 1046.57 5.78115 1046.57 6.42681C1046.57 7.07167 1046.26 7.59574 1045.21 7.59815C1044.17 7.60088 1042.79 6.43564 1042.79 6.43564C1042.79 6.43564 1044.16 5.2643 1045.21 5.26173Z" fill="#B94788"/>
<g opacity="0.3">
<path d="M1043.85 5.70855C1044.03 5.65491 1044.21 5.62037 1044.38 5.62005C1045.43 5.61748 1045.75 6.13963 1045.75 6.78497C1045.75 7.09335 1045.68 7.3733 1045.49 7.58225C1046.31 7.49327 1046.57 7.01031 1046.57 6.42681C1046.57 5.78115 1046.25 5.25916 1045.21 5.26173C1044.77 5.26285 1044.27 5.4694 1043.85 5.70855Z" fill="#B94788"/>
</g>
<path d="M1046.75 10.2001C1046.74 10.2001 1046.73 10.1992 1046.72 10.1971C1046.61 10.1778 1046.54 10.0744 1046.56 9.96628C1047.14 6.70714 1048.83 3.94542 1051.46 1.97969C1053.9 0.149516 1057.1 -0.908596 1060.47 -0.999824C1060.58 -1.00448 1060.67 -0.916145 1060.67 -0.806286C1060.67 -0.696428 1060.59 -0.60504 1060.48 -0.602148C1053.49 -0.412626 1048.05 3.86238 1046.95 10.0358C1046.93 10.1324 1046.85 10.2001 1046.75 10.2001Z" fill="#912E29"/>
<path d="M1052.29 7.56222C1052.23 7.56222 1052.16 7.52785 1052.12 7.46569C1052.05 7.35149 1050.45 4.6402 1051.13 2.34136C1051.16 2.236 1051.28 2.17593 1051.38 2.20773C1051.49 2.23921 1051.55 2.35004 1051.51 2.4554C1050.88 4.58752 1052.45 7.23393 1052.46 7.26043C1052.52 7.35455 1052.49 7.47677 1052.39 7.53363C1052.36 7.5529 1052.33 7.56222 1052.29 7.56222Z" fill="#912E29"/>
<path d="M1047.04 2.95062C1049.11 3.47919 1050.01 2.60611 1050.33 1.32988C1050.66 0.0538217 1050.29 -1.14258 1048.23 -1.67115C1046.16 -2.19956 1042.85 -0.584129 1042.85 -0.584129C1042.85 -0.584129 1044.98 2.42221 1047.04 2.95062Z" fill="#B94788"/>
<g opacity="0.3">
<path d="M1048.69 3.05743C1048.83 2.82631 1048.93 2.56756 1049 2.28697C1049.33 1.01107 1048.96 -0.185169 1046.89 -0.713582C1045.75 -1.00638 1044.23 -0.642592 1043.09 -0.259854C1042.94 -0.459816 1042.85 -0.584129 1042.85 -0.584129C1042.85 -0.584129 1046.16 -2.19956 1048.23 -1.67115C1050.29 -1.14258 1050.66 0.0538217 1050.33 1.32988C1050.11 2.19574 1049.63 2.87449 1048.69 3.05743Z" fill="#B94788"/>
</g>
<path d="M1050.77 1.92541C1048.8 1.92541 1046.98 1.09135 1046.87 1.04365C1046.77 0.997395 1046.73 0.879024 1046.78 0.779284C1046.82 0.679705 1046.94 0.636179 1047.04 0.682756C1047.07 0.697533 1050.3 2.17211 1052.67 1.17937C1052.77 1.13697 1052.89 1.18435 1052.93 1.28585C1052.97 1.38704 1052.93 1.50381 1052.82 1.54637C1052.17 1.8223 1051.46 1.92541 1050.77 1.92541Z" fill="#912E29"/>
<path d="M1045.28 6.57672C1045.17 6.57672 1045.08 6.49385 1045.08 6.3872C1045.07 6.2775 1045.16 6.18435 1045.27 6.17905C1045.29 6.17825 1047.03 6.08316 1048.47 5.06039C1048.56 4.99646 1048.68 5.01766 1048.74 5.10712C1048.81 5.19659 1048.79 5.3209 1048.7 5.38466C1047.16 6.47747 1045.36 6.57319 1045.29 6.57689C1045.28 6.57656 1045.28 6.57672 1045.28 6.57672Z" fill="#912E29"/>
<path d="M1046.53 49.9244C1048.09 50.5203 1048.27 51.4871 1047.91 52.4548C1047.54 53.422 1046.76 54.0237 1045.19 53.428C1043.63 52.831 1042.23 50.2965 1042.23 50.2965C1042.23 50.2965 1044.96 49.3284 1046.53 49.9244Z" fill="#B94788"/>
<g opacity="0.3">
<path d="M1047.43 50.4169C1047.46 50.7219 1047.4 51.0394 1047.28 51.358C1046.91 52.3256 1046.13 52.9269 1044.56 52.3315C1043.68 51.9949 1042.85 51.0407 1042.3 50.2734C1042.26 50.2868 1042.23 50.2958 1042.23 50.2958C1042.23 50.2958 1043.63 52.8302 1045.19 53.4272C1046.76 54.0229 1047.54 53.4214 1047.91 52.4541C1048.18 51.7204 1048.15 50.9878 1047.43 50.4169Z" fill="#B94788"/>
</g>
<path d="M1047.96 55.062C1049.94 54.5239 1050.82 55.3504 1051.15 56.5732C1051.48 57.7956 1051.15 58.9514 1049.17 59.4892C1047.19 60.0271 1043.98 58.5214 1043.98 58.5214C1043.98 58.5214 1045.98 55.5999 1047.96 55.062Z" fill="#B94788"/>
<g opacity="0.3">
<path d="M1049.55 54.9336C1049.68 55.1535 1049.78 55.4011 1049.85 55.6702C1050.19 56.8921 1049.85 58.0482 1047.87 58.5858C1046.78 58.8834 1045.31 58.5556 1044.21 58.2035C1044.07 58.3983 1043.98 58.5193 1043.98 58.5193C1043.98 58.5193 1047.19 60.025 1049.17 59.4871C1051.15 58.9491 1051.48 57.7935 1051.15 56.571C1050.93 55.7418 1050.45 55.0961 1049.55 54.9336Z" fill="#B94788"/>
</g>
<path d="M1050.28 50.3534C1050.19 51.394 1049.64 51.6658 1049 51.6083C1048.35 51.5511 1047.86 51.1854 1047.96 50.1449C1048.05 49.1043 1049.34 47.8398 1049.34 47.8398C1049.34 47.8398 1050.38 49.3125 1050.28 50.3534Z" fill="#B94788"/>
<g opacity="0.3">
<path d="M1049.96 48.9609C1050 49.1476 1050.02 49.332 1050 49.504C1049.91 50.5441 1049.36 50.8165 1048.72 50.759C1048.41 50.7314 1048.14 50.6323 1047.95 50.4235C1047.96 51.2517 1048.42 51.5579 1049 51.6094C1049.64 51.6669 1050.19 51.3953 1050.28 50.3546C1050.32 49.9191 1050.16 49.4087 1049.96 48.9609Z" fill="#B94788"/>
</g>
<path d="M1054.92 66.3142C1054.92 66.3142 1054.91 66.3139 1054.91 66.3138C1054.8 66.3065 1054.72 66.2119 1054.72 66.1024C1055.17 59.1232 1051.42 53.3177 1045.37 51.6566C1045.26 51.6277 1045.2 51.5182 1045.23 51.4122C1045.26 51.3062 1045.37 51.2434 1045.48 51.2729C1048.67 52.1499 1051.26 54.0906 1052.98 56.885C1054.58 59.4863 1055.34 62.7692 1055.12 66.1283C1055.11 66.2335 1055.02 66.3142 1054.92 66.3142Z" fill="#912E29"/>
<path d="M1047.54 57.4176C1047.47 57.4176 1047.4 57.3763 1047.36 57.3051C1047.31 57.2062 1047.36 57.0874 1047.46 57.0395C1047.58 56.9815 1050.42 55.6287 1052.65 56.5242C1052.75 56.5652 1052.8 56.6813 1052.76 56.783C1052.72 56.8855 1052.6 56.9338 1052.5 56.8935C1050.44 56.0641 1047.66 57.3848 1047.63 57.398C1047.6 57.4111 1047.57 57.4176 1047.54 57.4176Z" fill="#912E29"/>
<path d="M1052.41 52.399C1051.7 54.4086 1052.49 55.3814 1053.73 55.824C1054.97 56.266 1056.19 56.0091 1056.91 53.9997C1057.62 51.9902 1056.32 48.5469 1056.32 48.5469C1056.32 48.5469 1053.13 50.3896 1052.41 52.399Z" fill="#B94788"/>
<g opacity="0.3">
<path d="M1052.16 54.0319C1052.37 54.1855 1052.62 54.3093 1052.9 54.407C1054.14 54.8495 1055.36 54.592 1056.08 52.5831C1056.47 51.4721 1056.25 49.9232 1055.97 48.7597C1056.19 48.6228 1056.32 48.5469 1056.32 48.5469C1056.32 48.5469 1057.62 51.9902 1056.91 53.9997C1056.19 56.0092 1054.97 56.266 1053.73 55.824C1052.88 55.5237 1052.25 54.9781 1052.16 54.0319Z" fill="#B94788"/>
</g>
<path d="M1053.47 58.4228C1053.39 58.4228 1053.31 58.3687 1053.28 58.2837C1052.46 55.6669 1054.25 52.5356 1054.33 52.4034C1054.38 52.3085 1054.51 52.2765 1054.6 52.3318C1054.7 52.3869 1054.73 52.5088 1054.67 52.6037C1054.65 52.6342 1052.89 55.7163 1053.66 58.1641C1053.69 58.2688 1053.64 58.3807 1053.53 58.4138C1053.51 58.4199 1053.49 58.4228 1053.47 58.4228Z" fill="#912E29"/>
<path d="M1050.01 53.9209C1049.95 53.9209 1049.88 53.8854 1049.84 53.8221C1048.9 52.1946 1048.96 50.3911 1048.97 50.315C1048.97 50.2051 1049.07 50.1264 1049.18 50.125C1049.29 50.1298 1049.37 50.223 1049.37 50.3327C1049.37 50.35 1049.3 52.0983 1050.19 53.6218C1050.24 53.7169 1050.21 53.8387 1050.11 53.8938C1050.08 53.9124 1050.05 53.9209 1050.01 53.9209Z" fill="#912E29"/>
<path d="M941.801 49.5276C941.602 48.4266 941.044 47.6055 940.555 47.694C940.065 47.7827 939.83 48.7472 940.029 49.8482C940.228 50.9498 940.786 51.7707 941.276 51.6815C941.765 51.5935 942 50.6291 941.801 49.5276Z" fill="#912E29"/>
<g opacity="0.4">
<path d="M940.776 50.8905C941.265 50.802 941.5 49.8376 941.301 48.7366C941.245 48.4276 941.16 48.1413 941.057 47.8906C941.38 48.1916 941.669 48.7955 941.801 49.5244C942 50.6258 941.765 51.5903 941.275 51.6783C940.923 51.7426 940.536 51.3343 940.272 50.6912C940.437 50.8444 940.61 50.9206 940.776 50.8905Z" fill="#912E29"/>
</g>
<path d="M942.845 50.0317C943.815 49.4734 944.803 49.3705 945.051 49.8016C945.299 50.2326 944.714 51.0346 943.744 51.5925C942.774 52.1507 941.786 52.2531 941.538 51.8227C941.29 51.3911 941.876 50.5894 942.845 50.0317Z" fill="#912E29"/>
<g opacity="0.4">
<path d="M942.463 51.6947C942.215 51.2636 942.8 50.4618 943.77 49.904C944.043 49.7469 944.316 49.6276 944.574 49.5445C944.136 49.492 943.487 49.6608 942.845 50.0304C941.876 50.5882 941.29 51.39 941.538 51.8214C941.717 52.1312 942.278 52.164 942.94 51.9505C942.717 51.9238 942.547 51.8405 942.463 51.6947Z" fill="#912E29"/>
</g>
<path d="M940.276 52.7427C940.073 51.4533 939.444 50.4821 938.871 50.5722C938.299 50.6623 937.998 51.7802 938.201 53.0691C938.404 54.358 939.033 55.3297 939.606 55.2397C940.179 55.1495 940.479 54.0311 940.276 52.7427Z" fill="#912E29"/>
<g opacity="0.4">
<path d="M939.044 54.306C939.617 54.2154 939.917 53.0977 939.714 51.8087C939.657 51.4468 939.565 51.1116 939.452 50.8164C939.82 51.1754 940.141 51.8872 940.276 52.7409C940.479 54.0293 940.179 55.1476 939.606 55.2379C939.194 55.3026 938.754 54.8169 938.463 54.06C938.651 54.2434 938.85 54.3364 939.044 54.306Z" fill="#912E29"/>
</g>
<path d="M941.48 53.3583C942.625 52.7332 943.779 52.6391 944.057 53.1482C944.334 53.6572 943.631 54.5764 942.486 55.2013C941.34 55.8264 940.187 55.9206 939.909 55.4113C939.631 54.9021 940.335 53.9831 941.48 53.3583Z" fill="#912E29"/>
<g opacity="0.4">
<path d="M940.99 55.2868C940.712 54.778 941.415 53.8585 942.561 53.2337C942.883 53.0583 943.204 52.9263 943.508 52.8359C942.999 52.7638 942.238 52.9429 941.48 53.3569C940.335 53.9819 939.631 54.9007 939.909 55.4099C940.109 55.7759 940.762 55.8284 941.54 55.5976C941.28 55.5607 941.084 55.4588 940.99 55.2868Z" fill="#912E29"/>
</g>
<path d="M938.114 56.189C938.098 54.6637 937.535 53.4336 936.857 53.4414C936.18 53.4484 935.643 54.6905 935.66 56.2154C935.676 57.7409 936.239 58.9707 936.917 58.9633C937.595 58.9565 938.131 57.7137 938.114 56.189Z" fill="#912E29"/>
<g opacity="0.4">
<path d="M936.425 57.7912C937.102 57.7838 937.639 56.5416 937.622 55.0164C937.617 54.5884 937.569 54.1848 937.487 53.8242C937.852 54.3019 938.103 55.1795 938.114 56.1896C938.131 57.7142 937.594 58.9569 936.917 58.9638C936.429 58.9693 936.002 58.3331 935.794 57.4083C935.98 57.6521 936.195 57.7936 936.425 57.7912Z" fill="#912E29"/>
</g>
<path d="M939.403 57.1042C940.833 56.5751 942.183 56.6619 942.418 57.2977C942.653 57.9333 941.685 58.8774 940.254 59.4064C938.823 59.9355 937.473 59.8487 937.238 59.2127C937.003 58.577 937.972 57.6329 939.403 57.1042Z" fill="#912E29"/>
<g opacity="0.4">
<path d="M938.509 59.2559C938.274 58.6207 939.243 57.6766 940.674 57.1476C941.076 56.999 941.47 56.9007 941.836 56.848C941.259 56.678 940.35 56.7567 939.403 57.1068C937.972 57.6355 937.003 58.5796 937.238 59.2153C937.407 59.6726 938.154 59.8444 939.092 59.7087C938.798 59.6221 938.589 59.4713 938.509 59.2559Z" fill="#912E29"/>
</g>
<path d="M935.402 59.615C935.622 57.965 935.205 56.5481 934.472 56.4506C933.739 56.3531 932.966 57.6114 932.746 59.2608C932.526 60.9111 932.943 62.3277 933.676 62.4257C934.409 62.5235 935.182 61.2646 935.402 59.615Z" fill="#912E29"/>
<g opacity="0.4">
<path d="M933.328 61.0802C934.061 61.1781 934.834 59.9196 935.053 58.2699C935.115 57.8066 935.125 57.3629 935.093 56.9609C935.413 57.5338 935.548 58.521 935.402 59.6138C935.182 61.2634 934.41 62.5221 933.676 62.4245C933.149 62.3541 932.787 61.5999 932.706 60.5691C932.869 60.8609 933.08 61.0471 933.328 61.0802Z" fill="#912E29"/>
</g>
<path d="M931.967 62.7165C932.459 60.93 932.213 59.305 931.419 59.0869C930.625 58.8687 929.583 60.1395 929.092 61.9258C928.601 63.7128 928.846 65.3371 929.64 65.5555C930.434 65.7744 931.476 64.503 931.967 62.7165Z" fill="#912E29"/>
<g opacity="0.4">
<path d="M929.458 64.0222C930.252 64.2408 931.294 62.9694 931.785 61.1836C931.923 60.6817 932.001 60.1944 932.027 59.7461C932.292 60.4263 932.292 61.535 931.967 62.7177C931.476 64.5042 930.434 65.7756 929.639 65.5567C929.069 65.4001 928.783 64.514 928.849 63.365C928.986 63.7116 929.19 63.9487 929.458 64.0222Z" fill="#912E29"/>
</g>
<path d="M924.24 68.7132C924.209 68.7071 924.179 68.6965 924.151 68.6801C924.008 68.599 923.958 68.4165 924.039 68.2732C924.097 68.1706 924.132 68.1547 924.564 67.9607C930.238 65.4126 940.125 59.2859 942.597 46.8886C942.629 46.727 942.786 46.6221 942.948 46.6542L942.949 46.6545C943.11 46.687 943.215 46.8441 943.182 47.0056C940.658 59.6651 930.587 65.9098 924.809 68.5055C924.666 68.5693 924.531 68.6298 924.483 68.6552C924.415 68.7088 924.325 68.7307 924.24 68.7132Z" fill="#912E29"/>
<path d="M943.709 47.1849C943.956 46.0933 943.763 45.1199 943.278 45.0102C942.793 44.9001 942.199 45.6957 941.952 46.7872C941.705 47.8787 941.898 48.8523 942.383 48.962C942.868 49.0724 943.462 48.2764 943.709 47.1849Z" fill="#912E29"/>
<g opacity="0.4">
<path d="M942.232 48.0422C942.717 48.1522 943.311 47.356 943.557 46.2647C943.627 45.9584 943.661 45.6624 943.664 45.3906C943.843 45.7938 943.873 46.4632 943.71 47.1856C943.463 48.2771 942.869 49.0731 942.384 48.963C942.035 48.8844 941.839 48.3571 941.847 47.6618C941.938 47.8673 942.068 48.0047 942.232 48.0422Z" fill="#912E29"/>
</g>
<path d="M971.515 46.0945C971.515 48.114 970.178 49.7513 968.53 49.7513C966.881 49.7513 965.545 48.1142 965.545 46.0945C965.545 44.0748 966.881 42.4375 968.53 42.4375C970.178 42.4377 971.515 44.0748 971.515 46.0945Z" fill="#FEFEF1"/>
<g opacity="0.3">
<path d="M970.336 43.1875C970.24 45.1001 968.947 46.6162 967.361 46.6162C966.681 46.6162 966.056 46.3342 965.554 45.8655C965.551 45.9414 965.545 46.0167 965.545 46.0938C965.545 48.1133 966.881 49.7506 968.53 49.7506C970.178 49.7506 971.515 48.1135 971.515 46.0938C971.515 44.907 971.052 43.8553 970.336 43.1875Z" fill="#FCC0AD"/>
</g>
<path d="M967.363 45.2438C968.954 46.4872 969.422 48.548 968.407 49.8474C967.392 51.1463 965.279 51.1919 963.688 49.9484C962.096 48.705 961.629 46.6438 962.644 45.3445C963.659 44.0453 965.772 44.0003 967.363 45.2438Z" fill="#FEFEF1"/>
<g opacity="0.3">
<path d="M964.348 44.3837C965.795 45.6373 966.194 47.59 965.217 48.8393C964.799 49.3752 964.192 49.694 963.514 49.8008C963.571 49.8506 963.627 49.9014 963.688 49.9489C965.279 51.1924 967.392 51.1468 968.407 49.8479C969.422 48.5486 968.955 46.4877 967.363 45.2443C966.428 44.5133 965.314 44.2315 964.348 44.3837Z" fill="#FCC0AD"/>
</g>
<path d="M964.137 47.9922C966.096 47.5038 968.008 48.4043 968.407 50.0039C968.806 51.6034 967.541 53.2966 965.581 53.7852C963.622 54.2737 961.71 53.373 961.311 51.7733C960.912 50.174 962.177 48.4811 964.137 47.9922Z" fill="#FEFEF1"/>
<g opacity="0.3">
<path d="M961.603 49.8388C963.482 49.47 965.266 50.358 965.649 51.8968C965.814 52.5565 965.691 53.2309 965.358 53.8314C965.432 53.8166 965.507 53.8038 965.582 53.7852C967.541 53.2966 968.806 51.6034 968.408 50.0039C968.009 48.4043 966.097 47.5038 964.137 47.9922C962.986 48.2794 962.077 48.983 961.603 49.8388Z" fill="#FCC0AD"/>
</g>
<path d="M964.316 52.2277C965.138 50.383 967.024 49.4309 968.531 50.1015C970.036 50.772 970.592 52.8115 969.77 54.6561C968.949 56.5012 967.062 57.4533 965.556 56.7828C964.05 56.1122 963.495 54.0731 964.316 52.2277Z" fill="#FEFEF1"/>
<g opacity="0.3">
<path d="M964.21 55.3623C965.077 53.6539 966.875 52.7951 968.323 53.4401C968.944 53.7167 969.4 54.2284 969.668 54.8609C969.702 54.7933 969.738 54.7269 969.77 54.6561C970.591 52.8115 970.036 50.7719 968.53 50.1015C967.024 49.4309 965.137 50.383 964.316 52.2277C963.833 53.312 963.829 54.4611 964.21 55.3623Z" fill="#FCC0AD"/>
</g>
<path d="M967.763 54.6914C966.815 52.9081 967.227 50.8353 968.682 50.0615C970.137 49.2876 972.086 50.1051 973.034 51.8887C973.982 53.6722 973.571 55.7449 972.115 56.519C970.66 57.2927 968.711 56.4748 967.763 54.6914Z" fill="#FEFEF1"/>
<g opacity="0.3">
<path d="M970.168 56.7045C969.355 54.9701 969.786 53.0244 971.186 52.28C971.786 51.9605 972.47 51.916 973.133 52.0946C973.101 52.0262 973.071 51.9568 973.034 51.8887C972.086 50.1053 970.137 49.2876 968.682 50.0614C967.226 50.8353 966.815 52.9083 967.763 54.6914C968.32 55.7394 969.223 56.4503 970.168 56.7045Z" fill="#FCC0AD"/>
</g>
<path d="M971.827 53.4952C969.838 53.1441 968.458 51.5439 968.745 49.9205C969.031 48.2968 970.875 47.2644 972.864 47.6154C974.853 47.9663 976.233 49.5668 975.947 51.1907C975.66 52.8137 973.816 53.8452 971.827 53.4952Z" fill="#FEFEF1"/>
<g opacity="0.3">
<path d="M974.894 52.8391C973.027 52.412 971.759 50.8748 972.034 49.3133C972.152 48.6436 972.538 48.0773 973.087 47.6645C973.013 47.6478 972.94 47.6287 972.864 47.6154C970.875 47.2644 969.031 48.2968 968.745 49.9205C968.458 51.5439 969.838 53.1441 971.827 53.4952C972.996 53.7014 974.112 53.4277 974.894 52.8391Z" fill="#FCC0AD"/>
</g>
<path d="M973.386 49.5523C971.885 50.9035 969.774 51.0056 968.671 49.7808C967.568 48.5558 967.89 46.4669 969.391 45.1155C970.892 43.7645 973.003 43.6618 974.106 44.8875C975.209 46.1124 974.887 48.2006 973.386 49.5523Z" fill="#FEFEF1"/>
<g opacity="0.3">
<path d="M974.757 46.7346C973.271 47.9429 971.279 47.996 970.218 46.8173C969.763 46.3125 969.554 45.6594 969.567 44.9727C969.508 45.021 969.448 45.0668 969.391 45.1185C967.89 46.4699 967.568 48.5588 968.671 49.7838C969.774 51.0086 971.885 50.9065 973.386 49.5552C974.268 48.761 974.739 47.7133 974.757 46.7346Z" fill="#FCC0AD"/>
</g>
<path d="M971.415 49.7021C971.415 51.2959 970.123 52.5878 968.529 52.5878C966.936 52.5878 965.644 51.2959 965.644 49.7021C965.644 48.1085 966.936 46.8164 968.529 46.8164C970.123 46.8164 971.415 48.1085 971.415 49.7021Z" fill="#FD9B00"/>
<g opacity="0.5">
<path d="M970.541 47.6328C970.575 47.8111 970.595 47.9947 970.595 48.1827C970.595 49.7763 969.303 51.0685 967.709 51.0685C966.927 51.0685 966.218 50.7556 965.698 50.2498C965.955 51.5803 967.124 52.5859 968.53 52.5859C970.124 52.5859 971.416 51.294 971.416 49.7002C971.416 48.889 971.08 48.1571 970.541 47.6328Z" fill="#FD9B00"/>
</g>
<path d="M966.486 5.0136C966.486 6.48818 965.51 7.68362 964.306 7.68362C963.103 7.68362 962.127 6.48834 962.127 5.0136C962.127 3.53902 963.103 2.34375 964.306 2.34375C965.51 2.34375 966.486 3.53886 966.486 5.0136Z" fill="#FEFEF1"/>
<g opacity="0.3">
<path d="M965.625 2.89453C965.555 4.29089 964.61 5.39783 963.453 5.39783C962.956 5.39783 962.5 5.19225 962.134 4.84982C962.131 4.90507 962.127 4.96032 962.127 5.01638C962.127 6.49096 963.103 7.68639 964.306 7.68639C965.51 7.68639 966.486 6.49112 966.486 5.01638C966.486 4.15004 966.147 3.38215 965.625 2.89453Z" fill="#FCC0AD"/>
</g>
<path d="M963.455 4.39416C964.617 5.3021 964.958 6.80671 964.217 7.75545C963.476 8.70386 961.933 8.73711 960.771 7.82917C959.609 6.92139 959.268 5.41662 960.009 4.46788C960.75 3.51931 962.293 3.48654 963.455 4.39416Z" fill="#FEFEF1"/>
<g opacity="0.3">
<path d="M961.252 3.7675C962.309 4.68267 962.6 6.10842 961.887 7.0207C961.582 7.41195 961.139 7.64468 960.644 7.72258C960.685 7.75903 960.726 7.79614 960.77 7.83067C961.932 8.73861 963.475 8.70536 964.216 7.75695C964.957 6.80837 964.616 5.3036 963.454 4.39566C962.772 3.86227 961.958 3.6562 961.252 3.7675Z" fill="#FCC0AD"/>
</g>
<path d="M961.099 6.40157C962.53 6.04517 963.926 6.70272 964.217 7.87069C964.508 9.03834 963.585 10.2746 962.154 10.6313C960.723 10.9882 959.327 10.3305 959.036 9.16233C958.745 7.99452 959.669 6.75861 961.099 6.40157Z" fill="#FEFEF1"/>
<g opacity="0.3">
<path d="M959.248 7.75007C960.62 7.48056 961.923 8.12928 962.203 9.2526C962.323 9.73427 962.233 10.2265 961.99 10.665C962.044 10.6543 962.099 10.6449 962.153 10.6313C963.584 10.2746 964.508 9.03834 964.217 7.87069C963.925 6.70272 962.529 6.04517 961.099 6.40157C960.258 6.61133 959.595 7.12529 959.248 7.75007Z" fill="#FCC0AD"/>
</g>
<path d="M961.229 9.49045C961.829 8.14355 963.207 7.44859 964.306 7.93797C965.406 8.42752 965.811 9.91655 965.211 11.2634C964.612 12.6107 963.234 13.3056 962.134 12.8161C961.035 12.3264 960.63 10.8378 961.229 9.49045Z" fill="#FEFEF1"/>
<g opacity="0.3">
<path d="M961.152 11.779C961.785 10.5317 963.098 9.90483 964.155 10.3759C964.609 10.5775 964.941 10.9512 965.137 11.413C965.162 11.3635 965.188 11.3152 965.211 11.2634C965.811 9.91671 965.406 8.42752 964.306 7.93797C963.207 7.44859 961.829 8.14355 961.229 9.49045C960.877 10.2818 960.874 11.121 961.152 11.779Z" fill="#FCC0AD"/>
</g>
<path d="M963.746 11.2929C963.054 9.99098 963.355 8.47754 964.417 7.91234C965.48 7.34731 966.903 7.94447 967.595 9.24639C968.287 10.5485 967.987 12.0621 966.924 12.6273C965.862 13.1921 964.439 12.595 963.746 11.2929Z" fill="#FEFEF1"/>
<g opacity="0.3">
<path d="M965.503 12.7625C964.909 11.4962 965.223 10.0756 966.246 9.53212C966.684 9.29907 967.183 9.26662 967.667 9.39688C967.644 9.34693 967.622 9.29602 967.595 9.24639C966.903 7.94447 965.48 7.34731 964.417 7.91234C963.355 8.47754 963.054 9.99098 963.746 11.2929C964.153 12.0577 964.812 12.5768 965.503 12.7625Z" fill="#FCC0AD"/>
</g>
<path d="M966.714 10.417C965.262 10.1607 964.254 8.99237 964.463 7.80706C964.672 6.62158 966.018 5.86815 967.47 6.12416C968.922 6.3805 969.93 7.54879 969.721 8.73459C969.512 9.91943 968.166 10.6729 966.714 10.417Z" fill="#FEFEF1"/>
<g opacity="0.3">
<path d="M968.953 9.93805C967.59 9.6263 966.664 8.50394 966.865 7.36392C966.951 6.87502 967.233 6.46144 967.633 6.15997C967.579 6.14793 967.526 6.13395 967.47 6.12416C966.018 5.86814 964.672 6.62173 964.463 7.80705C964.254 8.99237 965.262 10.1608 966.714 10.417C967.567 10.5675 968.382 10.3678 968.953 9.93805Z" fill="#FCC0AD"/>
</g>
<path d="M967.852 7.53884C966.756 8.52548 965.215 8.60017 964.409 7.70588C963.604 6.81127 963.839 5.28626 964.935 4.29946C966.031 3.31298 967.572 3.23814 968.377 4.13291C969.183 5.02735 968.947 6.55188 967.852 7.53884Z" fill="#FEFEF1"/>
<g opacity="0.3">
<path d="M968.853 5.48165C967.768 6.3639 966.313 6.4026 965.539 5.54204C965.207 5.17344 965.054 4.69658 965.063 4.19531C965.02 4.23033 964.977 4.26373 964.935 4.30148C963.839 5.28828 963.604 6.81329 964.409 7.7079C965.215 8.60219 966.756 8.52766 967.852 7.54086C968.495 6.96121 968.84 6.19622 968.853 5.48165Z" fill="#FCC0AD"/>
</g>
<path d="M966.413 7.64972C966.413 8.81335 965.469 9.75662 964.306 9.75662C963.143 9.75662 962.199 8.81335 962.199 7.64972C962.199 6.48624 963.143 5.54297 964.306 5.54297C965.47 5.54281 966.413 6.48608 966.413 7.64972Z" fill="#FD9B00"/>
<g opacity="0.5">
<path d="M965.775 6.14062C965.8 6.27072 965.814 6.40467 965.814 6.54199C965.814 7.70547 964.871 8.6489 963.707 8.6489C963.136 8.6489 962.619 8.42051 962.239 8.05127C962.427 9.02265 963.281 9.75664 964.307 9.75664C965.47 9.75664 966.413 8.81337 966.413 7.64974C966.413 7.05772 966.168 6.52336 965.775 6.14062Z" fill="#FD9B00"/>
</g>
<path d="M945.509 30.6741C945.509 31.6762 944.845 32.4886 944.027 32.4886C943.209 32.4886 942.546 31.6762 942.546 30.6741C942.546 29.6719 943.209 28.8594 944.027 28.8594C944.845 28.8592 945.509 29.6717 945.509 30.6741Z" fill="#FEFEF1"/>
<g opacity="0.3">
<path d="M944.924 29.2305C944.876 30.1795 944.234 30.9317 943.447 30.9317C943.11 30.9317 942.8 30.7923 942.551 30.5595C942.549 30.5968 942.546 30.6345 942.546 30.6728C942.546 31.6748 943.209 32.4872 944.027 32.4872C944.845 32.4872 945.509 31.6748 945.509 30.6728C945.509 30.0836 945.278 29.5618 944.924 29.2305Z" fill="#FCC0AD"/>
</g>
<path d="M943.448 30.2492C944.238 30.8664 944.469 31.8892 943.966 32.5336C943.462 33.1784 942.414 33.2008 941.624 32.5839C940.834 31.9666 940.602 30.944 941.106 30.2995C941.61 29.6546 942.658 29.6323 943.448 30.2492Z" fill="#FEFEF1"/>
<g opacity="0.3">
<path d="M941.952 29.8246C942.67 30.4465 942.868 31.4155 942.384 32.0354C942.176 32.3012 941.875 32.4598 941.538 32.5126C941.567 32.5372 941.594 32.5626 941.624 32.5862C942.414 33.2031 943.463 33.1806 943.966 32.5359C944.47 31.8915 944.238 30.8687 943.449 30.2515C942.984 29.889 942.432 29.7488 941.952 29.8246Z" fill="#FCC0AD"/>
</g>
<path d="M941.847 31.6127C942.819 31.3705 943.768 31.8172 943.966 32.6113C944.164 33.4047 943.536 34.2452 942.564 34.4877C941.591 34.7296 940.643 34.2832 940.445 33.489C940.247 32.6954 940.875 31.8556 941.847 31.6127Z" fill="#FEFEF1"/>
<g opacity="0.3">
<path d="M940.589 32.5293C941.521 32.3461 942.406 32.7871 942.597 33.5503C942.679 33.8775 942.618 34.2125 942.452 34.5106C942.489 34.5031 942.526 34.4968 942.563 34.4877C943.536 34.2451 944.164 33.4048 943.966 32.6112C943.768 31.8173 942.819 31.3705 941.847 31.6127C941.275 31.7555 940.824 32.1047 940.589 32.5293Z" fill="#FCC0AD"/>
</g>
<path d="M941.935 33.7166C942.343 32.8012 943.279 32.3285 944.027 32.6612C944.774 32.9936 945.05 34.0061 944.642 34.921C944.234 35.837 943.298 36.3091 942.551 35.9764C941.803 35.6437 941.528 34.6319 941.935 33.7166Z" fill="#FEFEF1"/>
<g opacity="0.3">
<path d="M941.883 35.2715C942.313 34.4243 943.206 33.9982 943.924 34.3183C944.233 34.4551 944.459 34.7091 944.592 35.0231C944.609 34.9897 944.627 34.9563 944.642 34.9209C945.05 34.0061 944.774 32.9936 944.027 32.6611C943.28 32.3286 942.343 32.8012 941.936 33.7165C941.696 34.2542 941.694 34.8245 941.883 35.2715Z" fill="#FCC0AD"/>
</g>
<path d="M943.646 34.9384C943.175 34.0535 943.38 33.0252 944.102 32.6409C944.824 32.257 945.791 32.6627 946.262 33.5475C946.732 34.4325 946.528 35.4614 945.805 35.8456C945.083 36.2294 944.116 35.8234 943.646 34.9384Z" fill="#FEFEF1"/>
<g opacity="0.3">
<path d="M944.839 35.9377C944.436 35.0766 944.649 34.1112 945.344 33.7421C945.642 33.5833 945.981 33.5614 946.311 33.6503C946.294 33.6162 946.28 33.581 946.262 33.5475C945.791 32.6626 944.824 32.2571 944.102 32.6408C943.38 33.0252 943.175 34.0534 943.646 34.9384C943.922 35.4587 944.37 35.8111 944.839 35.9377Z" fill="#FCC0AD"/>
</g>
<path d="M945.664 34.3421C944.677 34.1683 943.992 33.3741 944.134 32.5684C944.276 31.7626 945.191 31.2506 946.178 31.4246C947.165 31.599 947.85 32.3927 947.708 33.1985C947.566 34.0041 946.651 34.5162 945.664 34.3421Z" fill="#FEFEF1"/>
<g opacity="0.3">
<path d="M947.186 34.0167C946.259 33.8047 945.63 33.0419 945.766 32.2668C945.825 31.9347 946.017 31.6539 946.289 31.4488C946.252 31.4405 946.216 31.4313 946.178 31.4246C945.191 31.2506 944.276 31.7626 944.134 32.5684C943.992 33.3741 944.677 34.1683 945.664 34.3421C946.244 34.4441 946.797 34.3083 947.186 34.0167Z" fill="#FCC0AD"/>
</g>
<path d="M946.436 32.3879C945.691 33.0589 944.644 33.1094 944.097 32.5016C943.549 31.8937 943.709 30.8574 944.454 30.1864C945.199 29.5161 946.247 29.4651 946.794 30.0733C947.341 30.6812 947.181 31.7173 946.436 32.3879Z" fill="#FEFEF1"/>
<g opacity="0.3">
<path d="M947.117 30.9875C946.379 31.5872 945.391 31.6132 944.865 31.0284C944.639 30.7781 944.535 30.4541 944.541 30.1133C944.512 30.1369 944.482 30.1597 944.454 30.1854C943.709 30.8564 943.549 31.8927 944.097 32.5006C944.644 33.1084 945.692 33.0579 946.436 32.3869C946.874 31.9932 947.108 31.4732 947.117 30.9875Z" fill="#FCC0AD"/>
</g>
<path d="M945.459 32.4634C945.459 33.254 944.817 33.8951 944.027 33.8951C943.236 33.8951 942.595 33.254 942.595 32.4634C942.595 31.6724 943.236 31.0312 944.027 31.0312C944.817 31.0312 945.459 31.6724 945.459 32.4634Z" fill="#FD9B00"/>
<g opacity="0.5">
<path d="M945.025 31.4375C945.042 31.5257 945.052 31.6166 945.052 31.7099C945.052 32.5008 944.41 33.1419 943.62 33.1419C943.231 33.1419 942.88 32.9868 942.622 32.7357C942.749 33.396 943.33 33.895 944.027 33.895C944.818 33.895 945.459 33.2539 945.459 32.4633C945.459 32.0605 945.292 31.6974 945.025 31.4375Z" fill="#FD9B00"/>
</g>
<path d="M973.84 19.936C973.84 22.168 973.081 23.9775 972.145 23.9775C971.209 23.9775 970.449 22.168 970.449 19.936C970.449 17.704 971.208 15.8945 972.145 15.8945C973.081 15.8945 973.84 17.7038 973.84 19.936Z" fill="#B94788"/>
<g opacity="0.4">
<path d="M973.357 17.1133C973.368 17.2996 973.376 17.4886 973.376 17.682C973.376 19.914 972.617 21.7237 971.68 21.7237C971.205 21.7237 970.776 21.2558 970.468 20.5046C970.584 22.4662 971.29 23.9769 972.144 23.9769C973.081 23.9769 973.84 22.1674 973.84 19.9354C973.84 18.8363 973.656 17.8415 973.357 17.1133Z" fill="#B94788"/>
</g>
<path d="M970.42 19.9479C971.998 21.5262 972.741 23.3426 972.079 24.0048C971.417 24.6671 969.601 23.9241 968.022 22.3456C966.444 20.7675 965.701 18.9513 966.363 18.2891C967.026 17.6267 968.842 18.3697 970.42 19.9479Z" fill="#B94788"/>
<g opacity="0.4">
<path d="M968.083 18.293C968.222 18.4168 968.362 18.5451 968.499 18.682C970.077 20.2601 970.82 22.0765 970.157 22.739C969.821 23.0752 969.187 23.0476 968.438 22.7341C969.907 24.0389 971.474 24.6082 972.079 24.0039C972.741 23.3415 971.998 21.5251 970.42 19.947C969.643 19.1699 968.809 18.5968 968.083 18.293Z" fill="#B94788"/>
</g>
<path d="M968.01 22.375C970.242 22.375 972.052 23.1342 972.051 24.0707C972.052 25.0068 970.243 25.766 968.01 25.766C965.778 25.766 963.969 25.0073 963.969 24.0703C963.969 23.1336 965.778 22.375 968.01 22.375Z" fill="#B94788"/>
<g opacity="0.4">
<path d="M965.188 22.8581C965.375 22.8472 965.564 22.8392 965.758 22.839C967.989 22.8392 969.799 23.5984 969.799 24.5352C969.799 25.0106 969.331 25.4395 968.58 25.7472C970.542 25.6309 972.052 24.9252 972.052 24.0707C972.052 23.1342 970.242 22.375 968.01 22.375C966.912 22.3748 965.917 22.5592 965.188 22.8581Z" fill="#B94788"/>
</g>
<path d="M968.023 25.7955C969.601 24.2173 971.418 23.4744 972.08 24.1367C972.743 24.7984 972 26.6142 970.421 28.1931C968.843 29.7716 967.027 30.5148 966.364 29.8523C965.702 29.1893 966.445 27.374 968.023 25.7955Z" fill="#B94788"/>
<g opacity="0.4">
<path d="M966.368 28.1328C966.492 27.9934 966.621 27.8537 966.758 27.7165C968.336 26.1388 970.153 25.3958 970.815 26.058C971.15 26.395 971.123 27.0286 970.809 27.7774C972.115 26.3078 972.684 24.7409 972.079 24.1368C971.417 23.4743 969.6 24.2174 968.022 25.7956C967.246 26.5723 966.672 27.4067 966.368 28.1328Z" fill="#B94788"/>
</g>
<path d="M970.45 28.2059C970.45 25.9738 971.209 24.1637 972.145 24.1641C973.082 24.1636 973.841 25.9727 973.841 28.2052C973.841 30.4382 973.082 32.2473 972.145 32.2473C971.208 32.247 970.45 30.4379 970.45 28.2059Z" fill="#B94788"/>
<g opacity="0.4">
<path d="M970.933 31.0281C970.922 30.8417 970.914 30.6525 970.914 30.4583C970.914 28.2271 971.674 26.4168 972.61 26.4168C973.086 26.4179 973.514 26.8855 973.821 27.6368C973.706 25.6743 973 24.1637 972.145 24.1641C971.209 24.1637 970.45 25.9738 970.45 28.2059C970.45 29.3041 970.634 30.2999 970.933 31.0281Z" fill="#B94788"/>
</g>
<path d="M973.87 28.1935C972.292 26.615 971.549 24.7987 972.211 24.1368C972.873 23.4744 974.689 24.2169 976.267 25.7956C977.846 27.3747 978.589 29.1906 977.927 29.8525C977.263 30.5147 975.448 29.7717 973.87 28.1935Z" fill="#B94788"/>
<g opacity="0.4">
<path d="M976.207 29.8476C976.067 29.7233 975.928 29.5948 975.79 29.4575C974.213 27.8798 973.47 26.0628 974.132 25.4008C974.469 25.0651 975.102 25.0926 975.851 25.4064C974.381 24.1008 972.815 23.5316 972.211 24.1361C971.549 24.7982 972.292 26.6145 973.87 28.1929C974.646 28.9699 975.48 29.5436 976.207 29.8476Z" fill="#B94788"/>
</g>
<path d="M976.28 25.766C974.048 25.766 972.238 25.0066 972.238 24.0704C972.237 23.1342 974.047 22.375 976.279 22.375C978.512 22.375 980.321 23.1342 980.321 24.0704C980.321 25.0076 978.512 25.7657 976.28 25.766Z" fill="#B94788"/>
<g opacity="0.4">
<path d="M979.101 25.2836C978.914 25.2942 978.725 25.3023 978.531 25.3023C976.3 25.3023 974.49 24.5422 974.49 23.6062C974.491 23.1308 974.958 22.7023 975.709 22.3945C973.747 22.5108 972.237 23.2162 972.237 24.0705C972.237 25.0069 974.047 25.7661 976.279 25.7661C977.377 25.7664 978.372 25.5827 979.101 25.2836Z" fill="#B94788"/>
</g>
<path d="M976.267 22.3457C974.689 23.9238 972.873 24.6668 972.21 24.0045C971.548 23.3433 972.29 21.5269 973.869 19.9485C975.448 18.3695 977.263 17.6268 977.926 18.289C978.588 18.9522 977.845 20.7671 976.267 22.3457Z" fill="#B94788"/>
<g opacity="0.4">
<path d="M977.922 20.0078C977.797 20.1472 977.669 20.2866 977.531 20.4243C975.954 22.0016 974.137 22.7443 973.475 22.0824C973.139 21.7455 973.166 21.112 973.48 20.3631C972.175 21.833 971.606 23.3996 972.21 24.0035C972.873 24.6657 974.689 23.9229 976.267 22.3447C977.044 21.568 977.617 20.7343 977.922 20.0078Z" fill="#B94788"/>
</g>
<path d="M973.306 24.0715C973.306 24.713 972.786 25.2329 972.145 25.2329C971.503 25.2329 970.983 24.713 970.983 24.0715C970.983 23.4301 971.503 22.9102 972.145 22.9102C972.786 22.9102 973.306 23.4301 973.306 24.0715Z" fill="#FEFEF1"/>
<g opacity="0.4">
<path d="M972.824 23.1328C972.848 23.2253 972.865 23.321 972.865 23.4209C972.865 24.0624 972.345 24.5823 971.703 24.5823C971.448 24.5823 971.215 24.498 971.023 24.3589C971.152 24.8604 971.603 25.2325 972.145 25.2325C972.786 25.2325 973.306 24.7126 973.306 24.0711C973.306 23.6842 973.115 23.3442 972.824 23.1328Z" fill="#FCC0AD"/>
</g>
<path d="M947.59 53.5163C947.59 55.3958 946.951 56.9194 946.162 56.9194C945.374 56.9194 944.734 55.3958 944.734 53.5163C944.734 51.6372 945.373 50.1133 946.162 50.1133C946.951 50.1134 947.59 51.6372 947.59 53.5163Z" fill="#B94788"/>
<g opacity="0.4">
<path d="M947.183 51.1406C947.192 51.2974 947.199 51.4564 947.199 51.6196C947.199 53.4987 946.559 55.0225 945.771 55.0225C945.37 55.0225 945.009 54.6285 944.75 53.996C944.848 55.6476 945.442 56.9198 946.162 56.9198C946.95 56.9198 947.59 55.3962 947.59 53.5167C947.59 52.5916 947.434 51.7537 947.183 51.1406Z" fill="#B94788"/>
</g>
<path d="M944.711 53.5265C946.039 54.8554 946.665 56.3849 946.107 56.9424C945.55 57.5002 944.021 56.8748 942.691 55.5459C941.363 54.217 940.737 52.6875 941.295 52.1295C941.853 51.5722 943.382 52.1976 944.711 53.5265Z" fill="#B94788"/>
<g opacity="0.4">
<path d="M942.742 52.1367C942.859 52.2408 942.977 52.3489 943.092 52.4644C944.421 53.7933 945.046 55.3228 944.489 55.8803C944.205 56.1636 943.672 56.1401 943.041 55.8764C944.278 56.9752 945.598 57.4546 946.107 56.9453C946.664 56.3878 946.039 54.8585 944.71 53.5294C944.056 52.8752 943.353 52.3923 942.742 52.1367Z" fill="#B94788"/>
</g>
<path d="M942.681 55.5703C944.561 55.5703 946.085 56.2092 946.084 56.9985C946.085 57.7863 944.562 58.4257 942.681 58.4257C940.802 58.4257 939.278 57.7868 939.278 56.9977C939.279 56.2091 940.802 55.5703 942.681 55.5703Z" fill="#B94788"/>
<g opacity="0.4">
<path d="M940.305 55.977C940.461 55.9677 940.621 55.9611 940.784 55.9611C942.663 55.9611 944.187 56.6003 944.187 57.3891C944.187 57.79 943.793 58.1505 943.16 58.4098C944.812 58.3118 946.084 57.7174 946.084 56.9985C946.084 56.2094 944.56 55.5703 942.681 55.5703C941.756 55.57 940.918 55.7253 940.305 55.977Z" fill="#B94788"/>
</g>
<path d="M942.692 58.4523C944.02 57.1236 945.55 56.4977 946.107 57.0555C946.665 57.613 946.04 59.1415 944.711 60.4714C943.382 61.8003 941.853 62.426 941.295 61.8682C940.737 61.3099 941.363 59.7812 942.692 58.4523Z" fill="#B94788"/>
<g opacity="0.4">
<path d="M941.299 60.4205C941.403 60.3029 941.512 60.1853 941.627 60.0697C942.955 58.7411 944.486 58.1154 945.043 58.6732C945.326 58.957 945.302 59.4905 945.038 60.1211C946.138 58.8839 946.617 57.5643 946.108 57.0555C945.55 56.4977 944.021 57.1236 942.692 58.4523C942.038 59.1062 941.555 59.8085 941.299 60.4205Z" fill="#B94788"/>
</g>
<path d="M944.735 60.4815C944.735 58.6023 945.374 57.0778 946.163 57.0781C946.951 57.0778 947.59 58.6011 947.59 60.4812C947.59 62.3613 946.951 63.8845 946.163 63.8845C945.373 63.8841 944.735 62.361 944.735 60.4815Z" fill="#B94788"/>
<g opacity="0.4">
<path d="M945.142 62.8581C945.132 62.701 945.126 62.5415 945.126 62.3782C945.126 60.4995 945.765 58.975 946.554 58.975C946.955 58.9762 947.315 59.3699 947.574 60.0024C947.477 58.3495 946.882 57.0778 946.163 57.0781C945.374 57.0778 944.735 58.6023 944.735 60.4815C944.735 61.4063 944.89 62.2449 945.142 62.8581Z" fill="#B94788"/>
</g>
<path d="M947.615 60.4677C946.287 59.1385 945.661 57.609 946.218 57.0515C946.776 56.494 948.305 57.1193 949.634 58.4483C950.963 59.7777 951.589 61.3068 951.031 61.8642C950.473 62.422 948.945 61.7969 947.615 60.4677Z" fill="#B94788"/>
<g opacity="0.4">
<path d="M949.582 61.8642C949.465 61.7597 949.347 61.6516 949.232 61.5361C947.903 60.2077 947.278 58.6774 947.836 58.1199C948.119 57.8374 948.652 57.8606 949.283 58.125C948.045 57.0253 946.726 56.546 946.217 57.0549C945.66 57.6123 946.286 59.1417 947.615 60.4711C948.268 61.1252 948.97 61.6085 949.582 61.8642Z" fill="#B94788"/>
</g>
<path d="M949.643 58.4257C947.764 58.4257 946.24 57.7868 946.24 56.9982C946.239 56.2099 947.763 55.5703 949.643 55.5703C951.523 55.5703 953.046 56.2097 953.046 56.9982C953.046 57.7871 951.523 58.4257 949.643 58.4257Z" fill="#B94788"/>
<g opacity="0.4">
<path d="M952.021 58.0187C951.864 58.0277 951.704 58.0343 951.54 58.0343C949.662 58.0343 948.138 57.3946 948.138 56.6061C948.139 56.2059 948.532 55.8452 949.165 55.5859C947.512 55.6838 946.241 56.2779 946.241 56.9974C946.241 57.786 947.765 58.4249 949.644 58.4249C950.569 58.4252 951.407 58.2707 952.021 58.0187Z" fill="#B94788"/>
</g>
<path d="M949.633 55.5459C948.305 56.8744 946.776 57.5002 946.218 56.9424C945.66 56.3854 946.285 54.8564 947.614 53.527C948.944 52.1973 950.473 51.5722 951.03 52.1296C951.588 52.6882 950.962 54.2162 949.633 55.5459Z" fill="#B94788"/>
<g opacity="0.4">
<path d="M951.026 53.5781C950.921 53.6954 950.813 53.8128 950.698 53.9287C949.369 55.2567 947.839 55.8823 947.282 55.3248C947 55.0411 947.022 54.5077 947.286 53.8772C946.187 55.1149 945.708 56.4341 946.217 56.9425C946.775 57.5003 948.304 56.8745 949.633 55.5459C950.287 54.8918 950.77 54.1896 951.026 53.5781Z" fill="#B94788"/>
</g>
<path d="M947.14 56.9975C947.14 57.5376 946.703 57.9755 946.162 57.9755C945.622 57.9755 945.185 57.5376 945.185 56.9975C945.185 56.4574 945.622 56.0195 946.162 56.0195C946.703 56.0195 947.14 56.4572 947.14 56.9975Z" fill="#FEFEF1"/>
<g opacity="0.4">
<path d="M946.735 56.207C946.755 56.2846 946.769 56.3656 946.769 56.4497C946.769 56.9899 946.331 57.4275 945.791 57.4275C945.576 57.4275 945.38 57.3565 945.219 57.2399C945.327 57.6619 945.707 57.9752 946.163 57.9752C946.703 57.9752 947.141 57.5374 947.141 56.9972C947.141 56.6715 946.98 56.385 946.735 56.207Z" fill="#FCC0AD"/>
</g>
<path d="M962.31 56.0424L960.279 57.5622L961.941 55.6622C961.29 55.0649 960.449 54.6743 959.517 54.5949L959.155 57.1047L958.987 54.5859C958.048 54.6263 957.19 54.9774 956.517 55.5443L958.037 57.5756L956.137 55.9131C955.54 56.5639 955.149 57.4053 955.069 58.3377L957.579 58.6994L955.061 58.8672C955.101 59.8063 955.452 60.6641 956.019 61.3371L958.05 59.8176L956.388 61.7174C957.039 62.3149 957.88 62.7055 958.812 62.7847L959.174 60.275L959.342 62.7937C960.281 62.7532 961.139 62.4018 961.812 61.8348L960.292 59.8037L962.192 61.4659C962.789 60.8151 963.18 59.9738 963.259 59.0413L960.75 58.6801L963.268 58.5118C963.228 57.573 962.877 56.7155 962.31 56.0424Z" fill="#FD9B00"/>
<g opacity="0.5">
<path d="M960.59 58.6919C960.59 59.4795 959.952 60.1183 959.164 60.1183C958.377 60.1183 957.738 59.4795 957.738 58.6919C957.738 57.9044 958.377 57.2656 959.164 57.2656C959.952 57.2656 960.59 57.9044 960.59 58.6919Z" fill="#FD9B00"/>
</g>
<path d="M960.126 58.6881C960.126 59.2195 959.695 59.6501 959.164 59.6501C958.633 59.6501 958.202 59.2193 958.202 58.6881C958.202 58.1572 958.633 57.7266 959.164 57.7266C959.695 57.7266 960.126 58.1572 960.126 58.6881Z" fill="#FEFEF1"/>
<path d="M938.297 40.265L936.533 41.5854L937.977 39.9351C937.411 39.4163 936.681 39.0768 935.871 39.0082L935.557 41.1879L935.41 39C934.595 39.0353 933.85 39.3405 933.265 39.8329L934.585 41.5973L932.935 40.1534C932.416 40.7185 932.077 41.4495 932.008 42.2591L934.188 42.5731L932 42.7193C932.035 43.5347 932.34 44.28 932.833 44.8644L934.597 43.5445L933.153 45.1948C933.719 45.7136 934.449 46.0531 935.259 46.122L935.573 43.9419L935.719 46.1294C936.535 46.0946 937.28 45.7894 937.864 45.2968L936.544 43.5326L938.195 44.9765C938.713 44.4109 939.053 43.6804 939.122 42.8704L936.942 42.5566L939.129 42.4106C939.094 41.5947 938.789 40.8499 938.297 40.265Z" fill="#FD9B00"/>
<g opacity="0.5">
<path d="M936.804 42.563C936.804 43.2472 936.249 43.8018 935.565 43.8018C934.881 43.8018 934.326 43.2472 934.326 42.563C934.326 41.879 934.881 41.3242 935.565 41.3242C936.249 41.3242 936.804 41.879 936.804 42.563Z" fill="#FD9B00"/>
</g>
<path d="M936.4 42.5621C936.4 43.0235 936.026 43.3974 935.565 43.3974C935.104 43.3974 934.729 43.0235 934.729 42.5621C934.729 42.1008 935.104 41.7266 935.565 41.7266C936.026 41.7266 936.4 42.1008 936.4 42.5621Z" fill="#FEFEF1"/>
<path d="M952.993 -1.44449L950.296 0.573916L952.504 -1.94946C951.639 -2.74288 950.522 -3.26166 949.283 -3.36702L948.803 -0.033679L948.58 -3.37891C947.333 -3.32526 946.194 -2.85868 945.3 -2.1059L947.318 0.592065L944.794 -1.61587C944.001 -0.751454 943.482 0.365924 943.377 1.60456L946.71 2.08463L943.365 2.30788C943.418 3.5552 943.885 4.69426 944.638 5.58822L947.336 3.56997L945.128 6.09351C945.993 6.88677 947.11 7.40571 948.348 7.51091L948.828 4.17741L949.052 7.5228C950.299 7.46915 951.438 7.00241 952.332 6.2493L950.314 3.55182L952.837 5.75976C953.63 4.89518 954.149 3.77781 954.255 2.53933L950.921 2.05958L954.266 1.83601C954.213 0.588372 953.746 -0.550368 952.993 -1.44449Z" fill="#FD9B00"/>
<g opacity="0.5">
<path d="M950.71 2.0702C950.71 3.11643 949.861 3.96462 948.815 3.96462C947.769 3.96462 946.921 3.11643 946.921 2.0702C946.921 1.02397 947.769 0.175781 948.815 0.175781C949.861 0.175781 950.71 1.02397 950.71 2.0702Z" fill="#FD9B00"/>
</g>
<path d="M950.093 2.07048C950.093 2.77588 949.521 3.34799 948.815 3.34799C948.11 3.34799 947.538 2.77588 947.538 2.07048C947.538 1.36507 948.11 0.792969 948.815 0.792969C949.521 0.792969 950.093 1.36507 950.093 2.07048Z" fill="#FEFEF1"/>
<path d="M949.97 15.2159C951.089 15.2403 952.004 14.8565 952.015 14.3596C952.026 13.8625 951.128 13.4392 950.009 13.4152C948.89 13.3909 947.974 13.7743 947.964 14.2717C947.953 14.769 948.851 15.1917 949.97 15.2159Z" fill="#912E29"/>
<g opacity="0.4">
<path d="M948.836 13.9378C948.825 14.4347 949.723 14.8576 950.842 14.8817C951.156 14.8884 951.453 14.8621 951.719 14.8114C951.36 15.0675 950.711 15.2307 949.97 15.2146C948.851 15.1904 947.953 14.7677 947.964 14.2706C947.972 13.9127 948.448 13.6148 949.131 13.4844C948.948 13.615 948.839 13.7695 948.836 13.9378Z" fill="#912E29"/>
</g>
<path d="M949.269 16.1392C949.622 17.2008 949.527 18.1889 949.055 18.3461C948.583 18.5034 947.914 17.7704 947.56 16.7087C947.206 15.6467 947.302 14.6587 947.774 14.5017C948.246 14.3443 948.915 15.0775 949.269 16.1392Z" fill="#912E29"/>
<g opacity="0.4">
<path d="M947.714 15.4331C948.186 15.2758 948.855 16.009 949.208 17.0707C949.308 17.3689 949.37 17.6604 949.4 17.93C949.539 17.5114 949.503 16.8423 949.269 16.1393C948.915 15.0778 948.246 14.3445 947.774 14.5017C947.435 14.6148 947.291 15.1581 947.368 15.8495C947.439 15.6359 947.554 15.4861 947.714 15.4331Z" fill="#912E29"/>
</g>
<path d="M947.124 13.0799C948.428 13.1377 949.505 12.715 949.531 12.1357C949.556 11.5568 948.521 11.04 947.217 10.9818C945.914 10.9242 944.837 11.3471 944.811 11.9264C944.785 12.5056 945.821 13.0222 947.124 13.0799Z" fill="#912E29"/>
<g opacity="0.4">
<path d="M945.836 11.5598C945.81 12.1391 946.846 12.6555 948.15 12.7134C948.515 12.7298 948.862 12.707 949.174 12.6547C948.749 12.9436 947.987 13.1169 947.124 13.0785C945.821 13.0209 944.785 12.504 944.811 11.9248C944.829 11.5082 945.393 11.1735 946.192 11.0391C945.975 11.1868 945.845 11.364 945.836 11.5598Z" fill="#912E29"/>
</g>
<path d="M946.281 14.1376C946.666 15.3847 946.528 16.5339 945.973 16.7046C945.419 16.8754 944.659 16.0029 944.274 14.7561C943.89 13.5089 944.028 12.3598 944.582 12.1893C945.136 12.0185 945.897 12.8909 946.281 14.1376Z" fill="#912E29"/>
<g opacity="0.4">
<path d="M944.487 13.2735C945.041 13.1027 945.802 13.9749 946.186 15.2217C946.294 15.572 946.359 15.9135 946.387 16.2286C946.559 15.744 946.535 14.9633 946.281 14.1376C945.897 12.8907 945.136 12.0185 944.582 12.1893C944.183 12.3119 944.001 12.942 944.073 13.7495C944.161 13.5025 944.3 13.3311 944.487 13.2735Z" fill="#912E29"/>
</g>
<path d="M944.176 10.2768C945.674 10.5644 946.991 10.258 947.119 9.59226C947.247 8.92668 946.137 8.15366 944.639 7.86584C943.141 7.57819 941.823 7.88479 941.696 8.55053C941.567 9.21627 942.678 9.98913 944.176 10.2768Z" fill="#912E29"/>
<g opacity="0.4">
<path d="M942.943 8.29956C942.815 8.96529 943.926 9.73816 945.423 10.0257C945.844 10.1064 946.249 10.1392 946.619 10.1313C946.078 10.3933 945.167 10.4649 944.176 10.2743C942.678 9.98663 941.567 9.2136 941.696 8.54802C941.787 8.0694 942.496 7.77741 943.443 7.75781C943.168 7.89192 942.986 8.07454 942.943 8.29956Z" fill="#912E29"/>
</g>
<path d="M943.022 11.3565C943.255 12.8639 942.901 14.1696 942.231 14.2732C941.562 14.3767 940.83 13.2392 940.596 11.7322C940.363 10.2245 940.717 8.91874 941.387 8.81514C942.057 8.71155 942.789 9.84916 943.022 11.3565Z" fill="#912E29"/>
<g opacity="0.4">
<path d="M941.094 10.0531C941.763 9.94921 942.495 11.0871 942.729 12.5942C942.794 13.0177 942.812 13.4234 942.791 13.7927C943.072 13.2612 943.176 12.3544 943.022 11.3565C942.789 9.84931 942.057 8.71169 941.387 8.81512C940.905 8.88965 940.588 9.58751 940.534 10.5335C940.677 10.2629 940.867 10.0881 941.094 10.0531Z" fill="#912E29"/>
</g>
<path d="M941.36 6.93305C942.933 7.47721 944.405 7.35129 944.646 6.65198C944.888 5.953 943.809 4.94516 942.236 4.40085C940.663 3.85637 939.192 3.98261 938.95 4.68176C938.708 5.3809 939.787 6.38906 941.36 6.93305Z" fill="#912E29"/>
<g opacity="0.4">
<path d="M940.336 4.61037C940.094 5.30903 941.173 6.31704 942.747 6.86103C943.188 7.01393 943.62 7.11239 944.021 7.16121C943.396 7.36021 942.402 7.29548 941.36 6.93523C939.787 6.39124 938.708 5.38292 938.95 4.68393C939.124 4.18106 939.935 3.97644 940.961 4.10284C940.642 4.20451 940.418 4.37379 940.336 4.61037Z" fill="#912E29"/>
</g>
<path d="M939.945 7.9215C939.962 9.58673 939.376 10.9417 938.637 10.9492C937.897 10.9567 937.284 9.61371 937.266 7.94929C937.249 6.28454 937.835 4.92914 938.574 4.92191C939.314 4.91388 939.928 6.2574 939.945 7.9215Z" fill="#912E29"/>
<g opacity="0.4">
<path d="M938.065 6.21323C938.805 6.20536 939.418 7.5484 939.435 9.21266C939.44 9.6802 939.396 10.1212 939.316 10.517C939.703 9.98746 939.956 9.02378 939.945 7.9215C939.928 6.2574 939.314 4.91372 938.574 4.92191C938.043 4.92689 937.591 5.6315 937.386 6.64496C937.583 6.37497 937.815 6.21564 938.065 6.21323Z" fill="#912E29"/>
</g>
<path d="M939.005 2.94855C940.657 3.78598 942.298 3.86918 942.67 3.13454C943.042 2.40006 942.005 1.12577 940.352 0.288495C938.699 -0.549257 937.058 -0.631972 936.686 0.102185C936.313 0.836664 937.352 2.11144 939.005 2.94855Z" fill="#912E29"/>
<g opacity="0.4">
<path d="M938.226 0.232434C937.854 0.966752 938.892 2.24121 940.544 3.07832C941.008 3.31362 941.47 3.48692 941.905 3.60159C941.185 3.72655 940.099 3.50539 939.005 2.95095C937.352 2.114 936.313 0.839226 936.686 0.104747C936.953 -0.423506 937.878 -0.526619 938.991 -0.232859C938.625 -0.168614 938.351 -0.0158722 938.226 0.232434Z" fill="#912E29"/>
</g>
<path d="M937.295 3.82459C937.063 5.66328 936.213 7.06912 935.396 6.966C934.579 6.86273 934.105 5.28937 934.337 3.45101C934.569 1.61248 935.42 0.206324 936.237 0.310079C937.054 0.413032 937.528 1.98671 937.295 3.82459Z" fill="#912E29"/>
<g opacity="0.4">
<path d="M935.48 1.65708C936.296 1.7602 936.77 3.33371 936.538 5.1716C936.473 5.68796 936.358 6.16755 936.209 6.59189C936.716 6.06604 937.141 5.04166 937.295 3.8247C937.527 1.98666 937.053 0.412982 936.236 0.31003C935.649 0.235666 935.045 0.944126 934.665 2.03067C934.924 1.76261 935.203 1.62191 935.48 1.65708Z" fill="#912E29"/>
</g>
<path d="M936.017 -0.913529C935.785 0.924836 934.934 2.33083 934.117 2.22772C933.301 2.12461 932.827 0.551252 933.059 -1.28711C933.291 -3.12564 934.142 -4.53196 934.958 -4.4282C935.775 -4.32541 936.249 -2.75141 936.017 -0.913529Z" fill="#912E29"/>
<g opacity="0.4">
<path d="M934.201 -3.0812C935.018 -2.97841 935.492 -1.40489 935.26 0.433314C935.195 0.94936 935.079 1.42927 934.931 1.85328C935.438 1.32744 935.863 0.303058 936.016 -0.913739C936.249 -2.75162 935.775 -4.32546 934.958 -4.42825C934.37 -4.50261 933.767 -3.79416 933.387 -2.70761C933.645 -2.97584 933.925 -3.11653 934.201 -3.0812Z" fill="#912E29"/>
</g>
<path d="M934.665 -5.81748C934.677 -5.84607 934.694 -5.87306 934.715 -5.89763C934.823 -6.02194 935.012 -6.03479 935.136 -5.92654C935.225 -5.84913 935.234 -5.81138 935.338 -5.34978C936.705 0.717979 940.738 11.6277 952.394 16.5203C952.546 16.584 952.618 16.7589 952.554 16.9109C952.554 16.9109 952.554 16.9112 952.554 16.9115C952.49 17.0633 952.315 17.1345 952.163 17.0707C940.261 12.0749 936.148 0.961307 934.755 -5.21856C934.721 -5.37066 934.688 -5.51505 934.673 -5.56741C934.634 -5.64515 934.631 -5.73686 934.665 -5.81748Z" fill="#912E29"/>
<path d="M951.886 17.5525C952.906 18.0124 953.899 18.017 954.103 17.5635C954.307 17.1101 953.646 16.37 952.625 15.9105C951.605 15.4508 950.612 15.446 950.408 15.8995C950.204 16.3525 950.865 17.0927 951.886 17.5525Z" fill="#912E29"/>
<g opacity="0.4">
<path d="M951.341 15.9329C951.136 16.3863 951.798 17.1266 952.818 17.5859C953.105 17.7149 953.388 17.8069 953.654 17.8641C953.223 17.9597 952.561 17.8559 951.886 17.5516C950.865 17.0919 950.204 16.3516 950.408 15.8986C950.555 15.5722 951.11 15.4845 951.79 15.6313C951.57 15.68 951.41 15.7797 951.341 15.9329Z" fill="#912E29"/>
</g>
<path d="M982.266 58.9746C978.521 59.5673 974.994 56.9525 974.994 56.9525C974.994 56.9525 977.54 53.376 981.285 52.7829C985.03 52.1897 988.557 54.8043 988.557 54.8043C988.557 54.8043 986.011 58.381 982.266 58.9746Z" fill="#FE8D6B"/>
<g opacity="0.4">
<path d="M982.266 58.9723C982.913 58.8692 983.524 58.676 984.092 58.4293C984.056 58.4354 984.019 58.4436 983.982 58.4495C981.502 58.8425 979.118 57.8279 977.79 57.0981C979.528 56.6821 983.497 55.7528 986.441 55.2283C984.878 55.2369 983.089 55.4302 981.452 55.6703L982.818 54.0386L980.65 55.7931C978.985 56.0598 977.562 56.3537 976.831 56.5122C976.754 56.4595 976.711 56.428 976.711 56.428C976.711 56.428 978.454 53.9827 981.175 52.8008C977.491 53.4466 974.994 56.9504 974.994 56.9504C974.994 56.9504 978.521 59.565 982.266 58.9723Z" fill="#FE8D6B"/>
</g>
<path d="M992.061 5.06578C988.67 3.36988 987.322 -0.808122 987.322 -0.808122C987.322 -0.808122 991.473 -2.23725 994.865 -0.541506C998.256 1.1544 999.604 5.3324 999.604 5.3324C999.604 5.3324 995.453 6.76152 992.061 5.06578Z" fill="#FE8D6B"/>
<g opacity="0.4">
<path d="M992.061 5.06812C992.648 5.36108 993.257 5.55927 993.863 5.68921C993.83 5.67282 993.795 5.65821 993.762 5.6415C991.516 4.51802 990.167 2.30656 989.511 0.940712C991.166 1.61287 994.936 3.16583 997.635 4.45137C996.359 3.54873 994.791 2.66536 993.32 1.90904L995.38 1.37597L992.596 1.54269C991.087 0.791182 989.758 0.202539 989.071 -0.093951C989.04 -0.181806 989.023 -0.232238 989.023 -0.232238C989.023 -0.232238 991.862 -1.20796 994.764 -0.586548C991.391 -2.20439 987.322 -0.805784 987.322 -0.805784C987.322 -0.805784 988.67 3.37222 992.061 5.06812Z" fill="#FE8D6B"/>
</g>
<path d="M1038.95 0.868265C1041.91 1.10067 1044.12 3.73664 1044.12 3.73664C1044.12 3.73664 1041.53 5.99661 1038.56 5.76452C1035.6 5.53212 1033.39 2.89631 1033.39 2.89631C1033.39 2.89631 1035.99 0.636342 1038.95 0.868265Z" fill="#FE8D6B"/>
<g opacity="0.4">
<path d="M1038.95 0.867917C1038.44 0.828085 1037.94 0.86342 1037.46 0.947741C1037.49 0.949669 1037.52 0.950151 1037.54 0.952399C1039.51 1.1061 1041.14 2.31439 1042.01 3.11295C1040.62 3.11263 1037.42 3.09561 1035.08 2.95716C1036.28 3.23646 1037.67 3.41603 1038.96 3.53183L1037.63 4.52554L1039.6 3.58467C1040.91 3.68586 1042.05 3.72183 1042.64 3.73468C1042.69 3.78897 1042.71 3.82077 1042.71 3.82077C1042.71 3.82077 1040.94 5.36554 1038.65 5.76867C1041.58 5.95 1044.12 3.73629 1044.12 3.73629C1044.12 3.73629 1041.91 1.10032 1038.95 0.867917Z" fill="#FE8D6B"/>
</g>
<path d="M1037.75 53.6066C1040.71 53.839 1042.92 56.4751 1042.92 56.4751C1042.92 56.4751 1040.33 58.7349 1037.37 58.503C1034.41 58.2706 1032.2 55.6349 1032.2 55.6349C1032.2 55.6349 1034.79 53.3745 1037.75 53.6066Z" fill="#FE8D6B"/>
<g opacity="0.4">
<path d="M1037.75 53.6061C1037.24 53.5663 1036.74 53.602 1036.26 53.6863C1036.29 53.6879 1036.32 53.6887 1036.35 53.6909C1038.31 53.8445 1039.94 55.0529 1040.82 55.8513C1039.42 55.8508 1036.23 55.8337 1033.89 55.6952C1035.08 55.9748 1036.48 56.1542 1037.77 56.27L1036.43 57.2636L1038.4 56.323C1039.72 56.4241 1040.86 56.4602 1041.44 56.4731C1041.49 56.5272 1041.52 56.559 1041.52 56.559C1041.52 56.559 1039.75 58.1036 1037.46 58.5067C1040.38 58.6882 1042.92 56.4747 1042.92 56.4747C1042.92 56.4747 1040.72 53.8385 1037.75 53.6061Z" fill="#FE8D6B"/>
</g>
<path d="M981.584 49.7483C980.142 51.839 977.245 52.3429 977.245 52.3429C977.245 52.3429 976.685 49.4555 978.126 47.3644C979.568 45.2735 982.465 44.7695 982.465 44.7695C982.465 44.7695 983.025 47.6573 981.584 49.7483Z" fill="#FE8D6B"/>
<g opacity="0.4">
<path d="M981.584 49.7475C981.833 49.3856 982.021 49.0001 982.164 48.6102C982.15 48.6307 982.137 48.6522 982.123 48.6728C981.168 50.0581 979.575 50.7465 978.608 51.0531C979.208 50.0179 980.591 47.6626 981.696 45.9922C980.978 46.7549 980.245 47.7122 979.606 48.6171L979.445 47.2008L979.296 49.0631C978.656 49.9943 978.141 50.8203 977.88 51.2485C977.819 51.2614 977.784 51.2675 977.784 51.2675C977.784 51.2675 977.403 49.2926 978.086 47.4266C976.698 49.5122 977.245 52.3421 977.245 52.3421C977.245 52.3421 980.142 51.8381 981.584 49.7475Z" fill="#FE8D6B"/>
</g>
<path d="M1054.88 39.156C1053.81 41.2894 1051.18 42.1325 1051.18 42.1325C1051.18 42.1325 1050.28 39.5163 1051.35 37.3827C1052.43 35.2491 1055.06 34.4062 1055.06 34.4062C1055.06 34.4062 1055.95 37.0225 1054.88 39.156Z" fill="#FE8D6B"/>
<g opacity="0.4">
<path d="M1054.88 39.1557C1055.07 38.7867 1055.19 38.4035 1055.28 38.0217C1055.27 38.0428 1055.26 38.0646 1055.25 38.0857C1054.54 39.4989 1053.14 40.3455 1052.28 40.7563C1052.7 39.7151 1053.69 37.3427 1054.5 35.6445C1053.93 36.4474 1053.37 37.4334 1052.89 38.3587L1052.56 37.0605L1052.66 38.8139C1052.19 39.7636 1051.81 40.5996 1051.63 41.0324C1051.57 41.0517 1051.54 41.0623 1051.54 41.0623C1051.54 41.0623 1050.93 39.2726 1051.32 37.4463C1050.3 39.5681 1051.18 42.1323 1051.18 42.1323C1051.18 42.1323 1053.81 41.2891 1054.88 39.1557Z" fill="#FE8D6B"/>
</g>
<path d="M986.877 49.4076C985.484 50.5864 983.381 50.3905 983.381 50.3905C983.381 50.3905 983.536 48.2838 984.928 47.1049C986.321 45.9264 988.424 46.1214 988.424 46.1214C988.424 46.1214 988.27 48.2282 986.877 49.4076Z" fill="#FE8D6B"/>
<g opacity="0.4">
<path d="M986.877 49.4065C987.117 49.2024 987.321 48.9703 987.493 48.7271C987.479 48.7387 987.466 48.7511 987.453 48.7626C986.53 49.5437 985.296 49.7215 984.568 49.7525C985.179 49.1478 986.58 47.7746 987.66 46.8242C987.019 47.2177 986.331 47.7439 985.718 48.2514L985.872 47.2388L985.419 48.502C984.8 49.0268 984.288 49.5032 984.027 49.7507C983.982 49.7483 983.957 49.7462 983.957 49.7462C983.957 49.7462 984.063 48.3054 984.888 47.1397C983.533 48.3253 983.381 50.3895 983.381 50.3895C983.381 50.3895 985.484 50.5854 986.877 49.4065Z" fill="#FE8D6B"/>
</g>
<path d="M991.671 10.5718C990.684 8.55149 991.555 6.09766 991.555 6.09766C991.555 6.09766 994.025 6.92031 995.011 8.94097C995.998 10.9613 995.128 13.415 995.128 13.415C995.128 13.415 992.658 12.593 991.671 10.5718Z" fill="#FE8D6B"/>
<g opacity="0.4">
<path d="M991.671 10.572C991.842 10.9212 992.058 11.2343 992.296 11.5137C992.286 11.4942 992.276 11.4746 992.266 11.4549C991.612 10.1165 991.773 8.58859 991.957 7.70892C992.495 8.62184 993.711 10.7117 994.519 12.2896C994.243 11.4041 993.823 10.4236 993.402 9.537L994.565 10.0283L993.193 9.10367C992.753 8.20601 992.339 7.45033 992.122 7.06277C992.139 7.01025 992.149 6.98054 992.149 6.98054C992.149 6.98054 993.838 7.54381 994.981 8.88171C993.975 6.90457 991.555 6.09766 991.555 6.09766C991.555 6.09766 990.684 8.55181 991.671 10.572Z" fill="#FE8D6B"/>
</g>
</g>
<path d="M930.311 13.403C930.311 15.2824 929.672 16.8063 928.884 16.8063C928.095 16.8063 927.456 15.2824 927.456 13.403C927.456 11.5237 928.095 10 928.884 10C929.672 10.0002 930.311 11.5237 930.311 13.403Z" fill="#B94788"/>
<g opacity="0.4">
<path d="M929.905 11.0273C929.915 11.1841 929.921 11.3433 929.921 11.5063C929.921 13.3858 929.282 14.9093 928.493 14.9093C928.093 14.9093 927.732 14.5152 927.473 13.8825C927.57 15.5343 928.165 16.8065 928.884 16.8065C929.673 16.8065 930.312 15.2826 930.312 13.4033C930.312 12.4783 930.157 11.6406 929.905 11.0273Z" fill="#B94788"/>
</g>
<path d="M927.432 13.4132C928.761 14.7423 929.387 16.2715 928.829 16.8291C928.272 17.3869 926.743 16.7615 925.413 15.4324C924.085 14.1035 923.459 12.5742 924.016 12.0164C924.574 11.4587 926.103 12.0843 927.432 13.4132Z" fill="#B94788"/>
<g opacity="0.4">
<path d="M925.465 12.0195C925.582 12.1238 925.699 12.2319 925.815 12.3469C927.143 13.6759 927.769 15.2054 927.211 15.7629C926.928 16.0461 926.394 16.0228 925.764 15.7589C927.001 16.8578 928.32 17.3372 928.829 16.8279C929.387 16.2703 928.761 14.7411 927.433 13.412C926.779 12.7579 926.076 12.2754 925.465 12.0195Z" fill="#B94788"/>
</g>
<path d="M925.403 15.457C927.282 15.457 928.806 16.0963 928.806 16.8852C928.806 17.6733 927.283 18.3124 925.403 18.3124C923.524 18.3124 922 17.6736 922 16.8846C922 16.0956 923.524 15.457 925.403 15.457Z" fill="#B94788"/>
<g opacity="0.4">
<path d="M923.026 15.8639C923.183 15.8545 923.343 15.8481 923.506 15.848C925.385 15.8481 926.909 16.4872 926.909 17.2761C926.908 17.6767 926.514 18.0376 925.882 18.2968C927.534 18.1988 928.806 17.6046 928.806 16.8852C928.806 16.0963 927.282 15.457 925.402 15.457C924.477 15.4569 923.64 15.6123 923.026 15.8639Z" fill="#B94788"/>
</g>
<path d="M925.414 18.3389C926.742 17.0102 928.272 16.3844 928.829 16.9422C929.387 17.4994 928.762 19.0284 927.433 20.358C926.103 21.687 924.574 22.3126 924.016 21.7551C923.459 21.1967 924.085 19.6681 925.414 18.3389Z" fill="#B94788"/>
<g opacity="0.4">
<path d="M924.021 20.3069C924.125 20.1895 924.233 20.0719 924.349 19.9564C925.677 18.6279 927.207 18.0021 927.765 18.5599C928.048 18.8437 928.024 19.3771 927.76 20.0077C928.859 18.7705 929.339 17.4509 928.83 16.9422C928.272 16.3844 926.743 17.0102 925.414 18.3389C924.759 18.9929 924.276 19.6953 924.021 20.3069Z" fill="#B94788"/>
</g>
<path d="M927.457 20.3643C927.457 18.4848 928.096 16.9605 928.884 16.9609C929.673 16.9606 930.312 18.4839 930.312 20.3637C930.312 22.2439 929.673 23.7674 928.884 23.7674C928.095 23.767 927.457 22.2436 927.457 20.3643Z" fill="#B94788"/>
<g opacity="0.4">
<path d="M927.863 22.7407C927.854 22.5838 927.848 22.4245 927.848 22.2608C927.848 20.3821 928.487 18.8579 929.275 18.8579C929.676 18.8589 930.037 19.2526 930.296 19.885C930.198 18.2325 929.604 16.9606 928.884 16.9609C928.096 16.9606 927.457 18.4848 927.457 20.3643C927.457 21.2893 927.612 22.1277 927.863 22.7407Z" fill="#B94788"/>
</g>
<path d="M930.337 20.3544C929.008 19.0253 928.383 17.4958 928.94 16.9383C929.497 16.3807 931.027 17.0058 932.356 18.3353C933.685 19.6646 934.31 21.1937 933.753 21.7511C933.195 22.3089 931.666 21.6833 930.337 20.3544Z" fill="#B94788"/>
<g opacity="0.4">
<path d="M932.305 21.7472C932.187 21.6425 932.07 21.5344 931.954 21.4189C930.626 20.0904 930.001 18.5602 930.558 18.0029C930.842 17.7202 931.375 17.7433 932.006 18.0077C930.768 16.9083 929.449 16.4287 928.94 16.9377C928.383 17.4952 929.008 19.0247 930.337 20.3538C930.991 21.0083 931.693 21.4914 932.305 21.7472Z" fill="#B94788"/>
</g>
<path d="M932.366 18.3122C930.486 18.3122 928.963 17.6733 928.963 16.8847C928.962 16.0963 930.485 15.457 932.365 15.457C934.246 15.457 935.769 16.0961 935.769 16.8847C935.769 17.6738 934.245 18.3122 932.366 18.3122Z" fill="#B94788"/>
<g opacity="0.4">
<path d="M934.743 17.9056C934.585 17.9143 934.426 17.9212 934.262 17.9212C932.384 17.9212 930.86 17.2815 930.86 16.4929C930.861 16.0925 931.254 15.732 931.886 15.4727C930.234 15.5705 928.962 16.1646 928.963 16.884C928.963 17.6724 930.486 18.3115 932.366 18.3115C933.291 18.312 934.129 18.1573 934.743 17.9056Z" fill="#B94788"/>
</g>
<path d="M932.355 15.4325C931.027 16.7611 929.497 17.3868 928.939 16.829C928.382 16.2722 929.007 14.743 930.336 13.4138C931.665 12.084 933.194 11.4589 933.752 12.0163C934.31 12.5746 933.684 14.1028 932.355 15.4325Z" fill="#B94788"/>
<g opacity="0.4">
<path d="M933.748 13.4648C933.643 13.5823 933.535 13.6998 933.419 13.8156C932.091 15.1439 930.561 15.7691 930.004 15.2118C929.721 14.928 929.744 14.3945 930.008 13.7641C928.909 15.0017 928.43 16.3212 928.939 16.8293C929.497 17.3871 931.026 16.7616 932.354 15.4328C933.009 14.7786 933.492 14.0765 933.748 13.4648Z" fill="#B94788"/>
</g>
<path d="M929.862 16.8842C929.862 17.4245 929.424 17.8622 928.884 17.8622C928.344 17.8622 927.906 17.4245 927.906 16.8842C927.906 16.3441 928.344 15.9062 928.884 15.9062C929.425 15.9062 929.862 16.3441 929.862 16.8842Z" fill="#FEFEF1"/>
<g opacity="0.4">
<path d="M929.457 16.0977C929.477 16.1754 929.491 16.256 929.491 16.34C929.491 16.8803 929.053 17.318 928.513 17.318C928.298 17.318 928.102 17.247 927.94 17.1302C928.049 17.5523 928.428 17.8657 928.884 17.8657C929.424 17.8657 929.862 17.428 929.862 16.8877C929.862 16.562 929.701 16.2756 929.457 16.0977Z" fill="#FCC0AD"/>
</g>
</svg>
