<svg width="1920" height="60" viewBox="0 0 1920 60" fill="none" xmlns="http://www.w3.org/2000/svg">
<rect width="1920" height="60" fill="#353535"/>
<path d="M849.641 51.8897V43.6641H791.699L794.485 47.9095L791.699 51.8897H849.641Z" fill="#FD6C67"/>
<path opacity="0.3" d="M847.121 43.6641V49.5015H793.371L791.699 51.8897H849.641V43.6641H847.121Z" fill="#FD6C67"/>
<mask id="mask0_3103_42661" style="mask-type:luminance" maskUnits="userSpaceOnUse" x="725" y="0" width="125" height="60">
<path d="M849.642 0H725V60H849.642V0Z" fill="white"/>
</mask>
<g mask="url(#mask0_3103_42661)">
<path d="M751.235 0H725V60H751.235V0Z" fill="#FD6C67"/>
</g>
<mask id="mask1_3103_42661" style="mask-type:luminance" maskUnits="userSpaceOnUse" x="725" y="0" width="125" height="60">
<path d="M849.642 0H725V60H849.642V0Z" fill="white"/>
</mask>
<g mask="url(#mask1_3103_42661)">
<path d="M764.285 42.2534C766.227 41.6268 773.745 44.1953 775.75 42.5666C777.755 40.9372 776.627 39.1205 776.439 38.4939C776.251 37.8679 776.627 37.1154 778.256 36.865C779.258 36.1132 778.005 34.6725 778.005 34.6725C778.005 34.6725 779.885 33.6073 778.757 32.2288C778.507 31.7903 778.26 31.0692 779.195 30.4118C780.333 29.6114 781.413 29.0854 781.35 27.832C781.288 26.5789 777.692 22.8919 777.692 20.7619C777.692 18.6318 781.075 9.73506 774.246 4.78532C774.246 4.78532 766.227 -5.86407 752.068 -2.48061C737.909 0.902681 737.032 13.0575 738.911 20.4503C740.791 27.8434 742.796 35.4871 742.796 35.4871C742.796 35.4871 742.294 45.6365 738.911 50.8998C734.901 57.5411 730.015 79.0936 730.015 79.0936H772.868C772.868 79.0936 764.987 64.8878 762.217 61.4252C757.139 55.076 762.343 42.8798 764.285 42.2534Z" fill="#912E29"/>
</g>
<mask id="mask2_3103_42661" style="mask-type:luminance" maskUnits="userSpaceOnUse" x="725" y="0" width="125" height="60">
<path d="M849.642 0H725V60H849.642V0Z" fill="white"/>
</mask>
<g mask="url(#mask2_3103_42661)">
<path d="M774.247 4.78697C774.247 4.78697 780.157 4.06438 781.882 10.9635C783.607 17.8624 779.892 21.8425 785.199 26.619C780.423 20.516 786.658 14.8111 783.076 7.24867C779.494 -0.313905 773.922 -3.09988 764.502 -0.579075C756.144 5.12586 774.247 4.78697 774.247 4.78697Z" fill="#FD6C67"/>
</g>
<mask id="mask3_3103_42661" style="mask-type:luminance" maskUnits="userSpaceOnUse" x="725" y="0" width="125" height="60">
<path d="M849.642 0H725V60H849.642V0Z" fill="white"/>
</mask>
<g mask="url(#mask3_3103_42661)">
<path opacity="0.4" d="M770 4.83984C765.559 6.2256 763.131 11.808 763.441 16.6662C763.839 22.902 768.482 31.7909 755.746 37.894C743.01 43.9972 746.459 60.0001 735.182 60.0001C723.905 60.0001 757.736 60.0001 757.736 60.0001C753.358 48.8066 758.333 43.3337 762.014 39.7516C770.347 31.6436 768.176 24.131 766.094 19.6516C762.811 12.5865 765.709 7.56543 770 4.83984Z" fill="#912E29"/>
<path d="M774.247 4.7846C767.156 3.00069 763.043 10.4303 763.441 16.666C763.839 22.9018 768.483 31.7907 755.746 37.8938C743.01 43.9971 750.705 52.0901 735.183 59.9179C735.183 40.9454 729.08 -0.0507812 729.08 -0.0507812C729.08 -0.0507812 757.206 -0.0507812 763.176 -0.0507812C769.146 -0.0507812 774.247 4.7846 774.247 4.7846Z" fill="#FD6C67"/>
<path opacity="0.3" d="M725 0V43.7448C732.438 39.0572 731.907 32.252 743.588 30.2916C758.893 27.7231 756.695 16.9242 758.172 10.2191C758.94 6.73446 761.549 2.60047 764.852 0H725Z" fill="#FD6C67"/>
<path opacity="0.3" d="M757.236 5.47093C758.305 3.54535 760.118 1.5838 762.267 0H725V23.1802C728.002 21.2541 731.33 19.7662 737.522 20.5359C752.923 22.4505 753.903 11.474 757.236 5.47093Z" fill="#FD6C67"/>
<path d="M763.972 15.5767C763.819 14.5382 763.777 13.4604 763.843 12.3828C763.492 13.7914 763.351 15.2584 763.441 16.6649C763.839 22.9007 768.482 31.7896 755.746 37.8927C743.047 43.9783 748.582 53.9465 733.856 59.9988C728.085 59.9988 744.135 59.9988 744.135 59.9988C750.049 52.6376 746.697 46.2014 757.349 39.9671C770.992 31.9826 764.992 22.4956 763.972 15.5767Z" fill="#FCC0AD"/>
</g>
<path d="M820.141 24.6348C820.941 24.6348 821.758 24.7096 822.592 24.8594C823.425 25.0026 824.236 25.224 825.023 25.5234C825.811 25.8229 826.553 26.2005 827.25 26.6562C827.947 27.1055 828.555 27.6328 829.076 28.2383C829.597 28.8438 830.007 29.5273 830.307 30.2891C830.613 31.0508 830.766 31.8939 830.766 32.8184C830.766 33.7428 830.603 34.599 830.277 35.3867C829.952 36.1745 829.496 36.8548 828.91 37.4277C828.324 38.0007 827.624 38.4499 826.811 38.7754C825.997 39.1009 825.102 39.2637 824.125 39.2637C823.663 39.2637 823.184 39.2279 822.689 39.1562C822.195 39.0911 821.7 38.987 821.205 38.8438C820.71 38.7005 820.222 38.5247 819.74 38.3164C819.265 38.1016 818.809 37.8477 818.373 37.5547C817.859 38.0625 817.263 38.4596 816.586 38.7461C815.915 39.026 815.206 39.166 814.457 39.166C814.053 39.166 813.676 39.1204 813.324 39.0293C812.973 38.9382 812.667 38.8079 812.406 38.6387C812.152 38.4694 811.951 38.2643 811.801 38.0234C811.658 37.7826 811.586 37.5156 811.586 37.2227C811.586 36.9688 811.648 36.7311 811.771 36.5098C811.902 36.2884 812.081 36.0931 812.309 35.9238C812.543 35.7546 812.82 35.6211 813.139 35.5234C813.464 35.4258 813.819 35.377 814.203 35.377C815.336 35.377 816.677 35.7936 818.227 36.627C818.513 36.2689 818.747 35.8652 818.93 35.416C819.132 34.9147 819.288 34.4004 819.398 33.873C819.516 33.3392 819.617 32.8086 819.701 32.2812C819.792 31.7539 819.883 31.2396 819.975 30.7383C820.072 30.237 820.202 29.765 820.365 29.3223C820.535 28.8796 820.753 28.4759 821.02 28.1113C821.293 27.7402 821.648 27.4245 822.084 27.1641C822.149 27.1315 822.208 27.1152 822.26 27.1152C822.351 27.1152 822.436 27.1478 822.514 27.2129C822.598 27.278 822.641 27.3691 822.641 27.4863C822.641 27.623 822.579 27.7272 822.455 27.7988C822.11 28.0007 821.827 28.2546 821.605 28.5605C821.391 28.86 821.212 29.1986 821.068 29.5762C820.925 29.9538 820.811 30.3607 820.727 30.7969C820.642 31.2331 820.561 31.6888 820.482 32.1641C820.417 32.5547 820.346 32.9648 820.268 33.3945C820.189 33.8177 820.092 34.2409 819.975 34.6641C819.857 35.0807 819.708 35.4909 819.525 35.8945C819.35 36.2917 819.132 36.6595 818.871 36.998C818.884 37.0046 818.891 37.0111 818.891 37.0176C818.897 37.0176 818.907 37.0208 818.92 37.0273C819.747 37.5221 820.606 37.8965 821.498 38.1504C822.39 38.4043 823.262 38.5312 824.115 38.5312C825.04 38.5312 825.867 38.3783 826.596 38.0723C827.331 37.7663 827.953 37.3561 828.461 36.8418C828.969 36.321 829.356 35.7155 829.623 35.0254C829.89 34.3353 830.023 33.6061 830.023 32.8379C830.023 32.0566 829.893 31.3307 829.633 30.6602C829.372 29.9831 829.014 29.3678 828.559 28.8145C828.109 28.2611 827.572 27.7695 826.947 27.3398C826.329 26.9102 825.658 26.5521 824.936 26.2656C824.219 25.9727 823.464 25.7513 822.67 25.6016C821.882 25.4453 821.091 25.3672 820.297 25.3672C819.229 25.3672 818.253 25.4583 817.367 25.6406C816.488 25.8164 815.73 26.0768 815.092 26.4219C814.46 26.7669 813.969 27.1901 813.617 27.6914C813.266 28.1927 813.09 28.7624 813.09 29.4004C813.09 29.765 813.142 30.0872 813.246 30.3672C813.357 30.6471 813.493 30.8913 813.656 31.0996C813.826 31.3014 814.008 31.474 814.203 31.6172C814.398 31.7604 814.581 31.8776 814.75 31.9688C814.919 32.0534 815.062 32.1152 815.18 32.1543C815.303 32.1934 815.375 32.2161 815.395 32.2227C815.479 32.2422 815.544 32.2878 815.59 32.3594C815.642 32.4245 815.668 32.4993 815.668 32.584C815.668 32.6947 815.629 32.7793 815.551 32.8379C815.473 32.8965 815.388 32.9258 815.297 32.9258C815.167 32.9258 815.004 32.8965 814.809 32.8379C814.613 32.7728 814.405 32.6784 814.184 32.5547C813.969 32.4245 813.751 32.265 813.529 32.0762C813.314 31.8809 813.119 31.653 812.943 31.3926C812.768 31.1322 812.624 30.8359 812.514 30.5039C812.41 30.1719 812.357 29.804 812.357 29.4004C812.357 28.6647 812.543 28.0039 812.914 27.418C813.292 26.8255 813.822 26.3242 814.506 25.9141C815.189 25.5039 816.007 25.1882 816.957 24.9668C817.914 24.7454 818.975 24.6348 820.141 24.6348ZM817.699 37.1836C817.022 36.8255 816.394 36.5553 815.814 36.373C815.235 36.1908 814.704 36.0996 814.223 36.0996C813.949 36.0996 813.695 36.1322 813.461 36.1973C813.233 36.2559 813.035 36.3372 812.865 36.4414C812.696 36.5456 812.562 36.666 812.465 36.8027C812.367 36.9395 812.318 37.0827 812.318 37.2324C812.318 37.3757 812.361 37.5189 812.445 37.6621C812.536 37.8053 812.67 37.9323 812.846 38.043C813.028 38.1536 813.253 38.2448 813.52 38.3164C813.786 38.388 814.099 38.4238 814.457 38.4238C815.069 38.4238 815.652 38.3164 816.205 38.1016C816.765 37.8802 817.263 37.5742 817.699 37.1836ZM839.369 36.2754C839.343 36.3275 839.288 36.4382 839.203 36.6074C839.125 36.7702 839.021 36.959 838.891 37.1738C838.767 37.3887 838.62 37.6133 838.451 37.8477C838.282 38.082 838.093 38.2969 837.885 38.4922C837.676 38.6875 837.452 38.8503 837.211 38.9805C836.97 39.1042 836.716 39.166 836.449 39.166C836.072 39.166 835.753 39.0456 835.492 38.8047C835.238 38.5638 835.053 38.2611 834.936 37.8965C834.714 38.2676 834.451 38.5638 834.145 38.7852C833.839 39 833.533 39.1074 833.227 39.1074C832.986 39.1074 832.768 39.0651 832.572 38.9805C832.377 38.8893 832.211 38.7656 832.074 38.6094C831.938 38.4466 831.83 38.2578 831.752 38.043C831.68 37.8281 831.645 37.5938 831.645 37.3398C831.645 36.832 831.729 36.3861 831.898 36.002C832.074 35.6113 832.296 35.2858 832.562 35.0254C832.829 34.765 833.122 34.5697 833.441 34.4395C833.767 34.3092 834.079 34.2441 834.379 34.2441C834.581 34.2441 834.766 34.2734 834.936 34.332C835.105 34.3841 835.248 34.4427 835.365 34.5078C835.489 34.5729 835.583 34.6348 835.648 34.6934C835.714 34.7454 835.749 34.7747 835.756 34.7812C835.827 34.8659 835.863 34.9538 835.863 35.0449C835.863 35.1426 835.827 35.2305 835.756 35.3086C835.684 35.3802 835.6 35.416 835.502 35.416C835.398 35.416 835.31 35.3802 835.238 35.3086C835.225 35.2956 835.196 35.2728 835.15 35.2402C835.105 35.2012 835.043 35.1621 834.965 35.123C834.887 35.084 834.792 35.0514 834.682 35.0254C834.577 34.9928 834.457 34.9766 834.32 34.9766C834.118 34.9766 833.904 35.0221 833.676 35.1133C833.448 35.2044 833.24 35.3477 833.051 35.543C832.862 35.7318 832.702 35.9727 832.572 36.2656C832.449 36.5521 832.387 36.8939 832.387 37.291C832.387 37.4147 832.4 37.5417 832.426 37.6719C832.452 37.7956 832.497 37.9095 832.562 38.0137C832.628 38.1178 832.715 38.2025 832.826 38.2676C832.937 38.3327 833.074 38.3652 833.236 38.3652C833.354 38.3652 833.487 38.3262 833.637 38.248C833.793 38.1699 833.939 38.0495 834.076 37.8867C834.219 37.724 834.346 37.5189 834.457 37.2715C834.574 37.0241 834.656 36.7311 834.701 36.3926C834.714 36.3014 834.757 36.2266 834.828 36.168C834.9 36.1029 834.984 36.0703 835.082 36.0703C835.173 36.0703 835.251 36.1061 835.316 36.1777C835.388 36.2493 835.427 36.3307 835.434 36.4219C835.44 36.5456 835.453 36.7214 835.473 36.9492C835.492 37.1706 835.535 37.3919 835.6 37.6133C835.671 37.8346 835.775 38.0267 835.912 38.1895C836.049 38.3522 836.238 38.4336 836.479 38.4336C836.635 38.4336 836.788 38.3913 836.938 38.3066C837.094 38.222 837.243 38.1113 837.387 37.9746C837.536 37.8314 837.676 37.6719 837.807 37.4961C837.943 37.3138 838.067 37.1315 838.178 36.9492C838.288 36.7669 838.386 36.5911 838.471 36.4219C838.555 36.2526 838.627 36.1061 838.686 35.9824C838.718 35.9108 838.764 35.8555 838.822 35.8164C838.887 35.7773 838.956 35.7578 839.027 35.7578C839.138 35.7578 839.226 35.8001 839.291 35.8848C839.363 35.9629 839.398 36.0475 839.398 36.1387C839.398 36.1842 839.389 36.2298 839.369 36.2754ZM842.328 39.1367C842.556 38.9089 842.787 38.6777 843.021 38.4434C843.256 38.2025 843.484 37.9518 843.705 37.6914C843.926 37.431 844.132 37.1608 844.32 36.8809C844.516 36.5944 844.688 36.2917 844.838 35.9727C844.87 35.901 844.916 35.849 844.975 35.8164C845.033 35.7773 845.098 35.7578 845.17 35.7578C845.281 35.7578 845.368 35.7969 845.434 35.875C845.505 35.9531 845.541 36.041 845.541 36.1387C845.541 36.1908 845.531 36.2396 845.512 36.2852C845.31 36.7083 845.079 37.0957 844.818 37.4473C844.558 37.7988 844.285 38.1341 843.998 38.4531C843.712 38.7656 843.422 39.0684 843.129 39.3613C842.836 39.6608 842.556 39.9603 842.289 40.2598C842.263 40.709 842.263 41.1582 842.289 41.6074C842.315 42.0632 842.328 42.5449 842.328 43.0527C842.328 43.4694 842.315 43.8861 842.289 44.3027C842.263 44.7194 842.221 45.1165 842.162 45.4941C842.104 45.8783 842.022 46.2363 841.918 46.5684C841.82 46.9004 841.693 47.1868 841.537 47.4277C841.381 47.6751 841.199 47.8672 840.99 48.0039C840.782 48.1471 840.538 48.2188 840.258 48.2188C839.796 48.2188 839.441 48.0592 839.193 47.7402C838.946 47.4212 838.822 46.9753 838.822 46.4023C838.822 46.0898 838.855 45.7546 838.92 45.3965C838.992 45.0384 839.089 44.6673 839.213 44.2832C839.337 43.9056 839.483 43.5215 839.652 43.1309C839.828 42.7402 840.017 42.3594 840.219 41.9883C840.421 41.6172 840.635 41.2624 840.863 40.9238C841.091 40.5918 841.322 40.2891 841.557 40.0156C841.57 39.7031 841.583 39.3776 841.596 39.0391C841.615 38.707 841.635 38.3978 841.654 38.1113C841.485 38.4108 841.273 38.6517 841.02 38.834C840.772 39.0163 840.499 39.1074 840.199 39.1074C839.704 39.1074 839.317 38.9414 839.037 38.6094C838.757 38.2773 838.617 37.8216 838.617 37.2422C838.617 36.819 838.656 36.4349 838.734 36.0898C838.819 35.7383 838.907 35.4388 838.998 35.1914C839.096 34.9375 839.184 34.7454 839.262 34.6152C839.34 34.4785 839.379 34.4134 839.379 34.4199C839.451 34.3092 839.551 34.2539 839.682 34.2539C839.792 34.2539 839.88 34.293 839.945 34.3711C840.017 34.4427 840.053 34.5273 840.053 34.625C840.053 34.6966 840.033 34.7617 839.994 34.8203C840.001 34.8138 839.968 34.8691 839.896 34.9863C839.831 35.097 839.757 35.2598 839.672 35.4746C839.594 35.6895 839.519 35.9466 839.447 36.2461C839.382 36.5456 839.35 36.8743 839.35 37.2324C839.35 37.5905 839.415 37.8704 839.545 38.0723C839.675 38.2741 839.887 38.375 840.18 38.375C840.551 38.375 840.886 38.1016 841.186 37.5547C841.485 37.0013 841.739 36.2005 841.947 35.1523C841.96 35.0677 841.999 34.9993 842.064 34.9473C842.13 34.8887 842.208 34.8594 842.299 34.8594C842.403 34.8594 842.491 34.8952 842.562 34.9668C842.634 35.0384 842.67 35.1263 842.67 35.2305C842.67 35.25 842.657 35.3672 842.631 35.582C842.605 35.7904 842.572 36.0703 842.533 36.4219C842.501 36.7734 842.465 37.1836 842.426 37.6523C842.387 38.1146 842.354 38.6094 842.328 39.1367ZM841.547 41.207C841.254 41.6302 840.984 42.0762 840.736 42.5449C840.495 43.0137 840.287 43.4792 840.111 43.9414C839.936 44.4036 839.799 44.8464 839.701 45.2695C839.604 45.6927 839.555 46.0703 839.555 46.4023C839.555 46.7409 839.61 47.0046 839.721 47.1934C839.831 47.3887 840.007 47.4863 840.248 47.4863C840.463 47.4863 840.652 47.3789 840.814 47.1641C840.984 46.9557 841.124 46.6562 841.234 46.2656C841.352 45.875 841.439 45.3997 841.498 44.8398C841.557 44.2865 841.586 43.6647 841.586 42.9746C841.586 42.6947 841.579 42.4115 841.566 42.125C841.56 41.8385 841.553 41.5326 841.547 41.207Z" fill="#F2F2F2"/>
<path d="M795.165 6.49V10H794.31V6.49H795.165ZM798.925 10H798.07L796.64 7.835V10H795.785V6.49H796.64L798.07 8.665V6.49H798.925V10ZM802.069 6.49V7.175H801.139V10H800.284V7.175H799.354V6.49H802.069ZM803.353 7.175V7.885H804.498V8.545H803.353V9.315H804.648V10H802.498V6.49H804.648V7.175H803.353ZM806.994 10L806.264 8.675H806.059V10H805.204V6.49H806.639C806.915 6.49 807.15 6.53833 807.344 6.635C807.54 6.73167 807.687 6.865 807.784 7.035C807.88 7.20167 807.929 7.38833 807.929 7.595C807.929 7.82833 807.862 8.03667 807.729 8.22C807.599 8.40333 807.405 8.53333 807.149 8.61L807.959 10H806.994ZM806.059 8.07H806.589C806.745 8.07 806.862 8.03167 806.939 7.955C807.019 7.87833 807.059 7.77 807.059 7.63C807.059 7.49667 807.019 7.39167 806.939 7.315C806.862 7.23833 806.745 7.2 806.589 7.2H806.059V8.07ZM811.605 10H810.75L809.32 7.835V10H808.465V6.49H809.32L810.75 8.665V6.49H811.605V10ZM814.41 9.38H813.1L812.89 10H811.995L813.265 6.49H814.255L815.525 10H814.62L814.41 9.38ZM814.19 8.72L813.755 7.435L813.325 8.72H814.19ZM818.437 6.49V7.175H817.507V10H816.652V7.175H815.722V6.49H818.437ZM819.721 6.49V10H818.866V6.49H819.721ZM822 10.035C821.67 10.035 821.367 9.95833 821.09 9.805C820.817 9.65167 820.599 9.43833 820.435 9.165C820.275 8.88833 820.195 8.57833 820.195 8.235C820.195 7.89167 820.275 7.58333 820.435 7.31C820.599 7.03667 820.817 6.82333 821.09 6.67C821.367 6.51667 821.67 6.44 822 6.44C822.33 6.44 822.632 6.51667 822.905 6.67C823.182 6.82333 823.399 7.03667 823.555 7.31C823.715 7.58333 823.795 7.89167 823.795 8.235C823.795 8.57833 823.715 8.88833 823.555 9.165C823.395 9.43833 823.179 9.65167 822.905 9.805C822.632 9.95833 822.33 10.035 822 10.035ZM822 9.255C822.28 9.255 822.504 9.16167 822.67 8.975C822.84 8.78833 822.925 8.54167 822.925 8.235C822.925 7.925 822.84 7.67833 822.67 7.495C822.504 7.30833 822.28 7.215 822 7.215C821.717 7.215 821.49 7.30667 821.32 7.49C821.154 7.67333 821.07 7.92167 821.07 8.235C821.07 8.545 821.154 8.79333 821.32 8.98C821.49 9.16333 821.717 9.255 822 9.255ZM827.411 10H826.556L825.126 7.835V10H824.271V6.49H825.126L826.556 8.665V6.49H827.411V10ZM830.216 9.38H828.906L828.696 10H827.801L829.071 6.49H830.061L831.331 10H830.426L830.216 9.38ZM829.996 8.72L829.561 7.435L829.131 8.72H829.996ZM832.572 9.34H833.692V10H831.717V6.49H832.572V9.34Z" fill="#FE8D6B"/>
<path d="M788.056 21C788.035 21 788.021 20.9867 788.016 20.96L787.072 15.464C787.067 15.4427 787.075 15.432 787.096 15.432H787.992C788.013 15.432 788.027 15.4427 788.032 15.464L788.544 19.08L789.072 15.464C789.077 15.4427 789.093 15.432 789.12 15.432H789.84C789.861 15.432 789.875 15.4427 789.88 15.464L790.4 19.08L790.92 15.464C790.925 15.4427 790.939 15.432 790.96 15.432H791.848C791.875 15.432 791.885 15.4427 791.88 15.464L790.928 20.96C790.923 20.9707 790.915 20.9813 790.904 20.992C790.893 20.9973 790.888 21 790.888 21H789.92C789.904 21 789.891 20.9867 789.88 20.96L789.472 18.088L789.064 20.96C789.059 20.9867 789.045 21 789.024 21H788.056ZM793.675 21.08C793.387 21.08 793.123 21.008 792.883 20.864C792.648 20.7147 792.459 20.52 792.315 20.28C792.171 20.0347 792.099 19.7653 792.099 19.472L792.107 16.936C792.107 16.6427 792.176 16.376 792.315 16.136C792.459 15.896 792.651 15.704 792.891 15.56C793.131 15.416 793.392 15.344 793.675 15.344C793.963 15.344 794.224 15.416 794.459 15.56C794.694 15.704 794.88 15.896 795.019 16.136C795.163 16.376 795.235 16.6427 795.235 16.936L795.243 19.472C795.243 19.7653 795.171 20.0347 795.027 20.28C794.888 20.52 794.699 20.7147 794.459 20.864C794.224 21.008 793.963 21.08 793.675 21.08ZM793.675 20.112C793.835 20.112 793.974 20.048 794.091 19.92C794.214 19.7867 794.275 19.6373 794.275 19.472L794.267 16.936C794.267 16.76 794.211 16.6107 794.099 16.488C793.987 16.3653 793.846 16.304 793.675 16.304C793.51 16.304 793.368 16.3653 793.251 16.488C793.134 16.6053 793.075 16.7547 793.075 16.936V19.472C793.075 19.648 793.134 19.8 793.251 19.928C793.368 20.0507 793.51 20.112 793.675 20.112ZM795.883 21C795.862 21 795.851 20.9867 795.851 20.96L795.867 15.464C795.867 15.4427 795.878 15.432 795.899 15.432H796.875C796.897 15.432 796.915 15.4427 796.931 15.464L797.659 16.52L798.387 15.464C798.403 15.4427 798.422 15.432 798.443 15.432H799.427C799.449 15.432 799.459 15.4427 799.459 15.464L799.475 20.96C799.475 20.9867 799.465 21 799.443 21H798.539C798.518 21 798.507 20.9867 798.507 20.96L798.499 16.88L797.659 18.096L796.827 16.88L796.819 20.96C796.819 20.9867 796.809 21 796.787 21H795.883ZM800.18 21C800.159 21 800.148 20.9867 800.148 20.96L800.156 15.464C800.156 15.4427 800.167 15.432 800.188 15.432H802.756C802.777 15.432 802.788 15.4453 802.788 15.472V16.368C802.788 16.3893 802.777 16.4 802.756 16.4H801.116V17.648H802.756C802.777 17.648 802.788 17.6587 802.788 17.68L802.796 18.584C802.796 18.6053 802.785 18.616 802.764 18.616H801.116V20.016H802.764C802.785 20.016 802.796 20.0293 802.796 20.056V20.968C802.796 20.9893 802.785 21 802.764 21H800.18ZM803.58 21C803.537 21 803.516 20.9813 803.516 20.944L803.508 15.496C803.508 15.4533 803.529 15.432 803.572 15.432H804.292L805.644 18.584L805.604 15.496C805.604 15.4533 805.628 15.432 805.676 15.432H806.468C806.5 15.432 806.516 15.4533 806.516 15.496L806.524 20.952C806.524 20.984 806.51 21 806.484 21H805.78L804.396 18.056L804.452 20.936C804.452 20.9787 804.428 21 804.38 21H803.58ZM807.218 17.312V16.816C807.352 16.816 807.464 16.7653 807.554 16.664C807.65 16.5627 807.698 16.4427 807.698 16.304H807.25C807.229 16.304 807.218 16.2933 807.218 16.272V15.376C807.218 15.3547 807.229 15.344 807.25 15.344H808.154C808.176 15.344 808.186 15.3547 808.186 15.376V16.304C808.186 16.4907 808.141 16.6613 808.05 16.816C807.96 16.9707 807.84 17.0933 807.69 17.184C807.546 17.2693 807.389 17.312 807.218 17.312ZM810.203 21.08C809.915 21.08 809.651 21.008 809.411 20.864C809.177 20.7147 808.987 20.52 808.843 20.28C808.705 20.0347 808.635 19.7653 808.635 19.472V19.104C808.635 19.0773 808.649 19.064 808.675 19.064H809.571C809.593 19.064 809.603 19.0773 809.603 19.104V19.472C809.603 19.648 809.662 19.8 809.779 19.928C809.897 20.0507 810.038 20.112 810.203 20.112C810.369 20.112 810.51 20.048 810.627 19.92C810.745 19.792 810.803 19.6427 810.803 19.472C810.803 19.2747 810.675 19.104 810.419 18.96C810.334 18.912 810.201 18.8373 810.019 18.736C809.838 18.6347 809.667 18.5387 809.507 18.448C809.214 18.2773 808.995 18.064 808.851 17.808C808.713 17.5467 808.643 17.2533 808.643 16.928C808.643 16.6293 808.715 16.3627 808.859 16.128C809.003 15.888 809.193 15.6987 809.427 15.56C809.667 15.4213 809.926 15.352 810.203 15.352C810.486 15.352 810.745 15.424 810.979 15.568C811.219 15.7067 811.409 15.896 811.547 16.136C811.691 16.3707 811.763 16.6347 811.763 16.928V17.584C811.763 17.6053 811.753 17.616 811.731 17.616H810.835C810.814 17.616 810.803 17.6053 810.803 17.584L810.795 16.928C810.795 16.7413 810.737 16.5893 810.619 16.472C810.502 16.3547 810.363 16.296 810.203 16.296C810.038 16.296 809.897 16.36 809.779 16.488C809.662 16.6107 809.603 16.7573 809.603 16.928C809.603 17.104 809.641 17.2507 809.715 17.368C809.79 17.4853 809.926 17.5973 810.123 17.704C810.15 17.72 810.201 17.7493 810.275 17.792C810.355 17.8293 810.441 17.8747 810.531 17.928C810.622 17.976 810.702 18.0187 810.771 18.056C810.846 18.0933 810.891 18.1173 810.907 18.128C811.174 18.2773 811.385 18.4613 811.539 18.68C811.694 18.8933 811.771 19.1573 811.771 19.472C811.771 19.776 811.699 20.0507 811.555 20.296C811.417 20.536 811.227 20.728 810.987 20.872C810.753 21.0107 810.491 21.08 810.203 21.08Z" fill="#FD6C67"/>
<path d="M797.853 51.085C797.553 51.085 797.275 51.0085 797.02 50.8555C796.771 50.6968 796.57 50.49 796.417 50.235C796.264 49.98 796.187 49.6995 796.187 49.3935V48.8665C796.187 48.6285 796.232 48.4075 796.323 48.2035C796.414 47.9938 796.536 47.8097 796.689 47.651C796.564 47.515 796.465 47.3563 796.391 47.175C796.323 46.988 796.289 46.7897 796.289 46.58C796.289 46.2853 796.357 46.019 796.493 45.781C796.635 45.5373 796.825 45.3447 797.062 45.203C797.301 45.0613 797.564 44.9905 797.853 44.9905C798.142 44.9905 798.403 45.0642 798.635 45.2115C798.873 45.3532 799.063 45.543 799.205 45.781C799.346 46.019 799.417 46.2853 799.417 46.58C799.417 46.7897 799.38 46.9852 799.307 47.1665C799.239 47.3478 799.142 47.5093 799.018 47.651C799.171 47.804 799.29 47.9853 799.375 48.195C799.465 48.4047 799.511 48.6285 799.511 48.8665V49.3935C799.511 49.6995 799.434 49.9828 799.281 50.2435C799.134 50.4985 798.935 50.7025 798.686 50.8555C798.437 51.0085 798.159 51.085 797.853 51.085ZM797.853 47.1495C798 47.1495 798.125 47.0957 798.227 46.988C798.335 46.8747 798.389 46.7387 798.389 46.58C798.389 46.4213 798.335 46.2853 798.227 46.172C798.125 46.0587 798 46.002 797.853 46.002C797.706 46.002 797.578 46.0587 797.471 46.172C797.363 46.2853 797.309 46.4213 797.309 46.58C797.309 46.733 797.363 46.8662 797.471 46.9795C797.578 47.0928 797.706 47.1495 797.853 47.1495ZM797.853 50.065C798.029 50.065 798.176 49.9998 798.295 49.8695C798.42 49.7392 798.482 49.5805 798.482 49.3935V48.8665C798.482 48.6852 798.42 48.5293 798.295 48.399C798.176 48.263 798.029 48.195 797.853 48.195C797.677 48.195 797.527 48.2602 797.403 48.3905C797.278 48.5208 797.216 48.6795 797.216 48.8665V49.3935C797.216 49.5748 797.278 49.7335 797.403 49.8695C797.527 49.9998 797.677 50.065 797.853 50.065ZM800.925 51C800.903 51 800.891 50.9858 800.891 50.9575V46.1125H799.786C799.758 46.1125 799.744 46.0983 799.744 46.07L799.752 45.118C799.752 45.0953 799.764 45.084 799.786 45.084H803.016C803.045 45.084 803.059 45.0953 803.059 45.118V46.07C803.059 46.0983 803.048 46.1125 803.025 46.1125H801.911L801.92 50.9575C801.92 50.9858 801.909 51 801.886 51H800.925ZM803.513 51C803.49 51 803.479 50.9858 803.479 50.9575L803.487 45.118C803.487 45.0953 803.501 45.084 803.53 45.084H804.473C804.502 45.084 804.516 45.0953 804.516 45.118L804.507 47.43H805.782V45.118C805.782 45.0953 805.794 45.084 805.816 45.084H806.76C806.788 45.084 806.802 45.0953 806.802 45.118L806.819 50.9575C806.819 50.9858 806.805 51 806.777 51H805.825C805.796 51 805.782 50.9858 805.782 50.9575V48.4585H804.507V50.9575C804.507 50.9858 804.496 51 804.473 51H803.513ZM808.809 51C808.786 51 808.775 50.9858 808.775 50.9575L808.792 45.118C808.792 45.0953 808.803 45.084 808.826 45.084H809.863C809.885 45.084 809.905 45.0953 809.922 45.118L810.696 46.24L811.469 45.118C811.486 45.0953 811.506 45.084 811.529 45.084H812.574C812.597 45.084 812.608 45.0953 812.608 45.118L812.625 50.9575C812.625 50.9858 812.614 51 812.591 51H811.631C811.608 51 811.597 50.9858 811.597 50.9575L811.588 46.6225L810.696 47.9145L809.812 46.6225L809.803 50.9575C809.803 50.9858 809.792 51 809.769 51H808.809ZM813.051 50.9575L814.105 45.118C814.111 45.0953 814.125 45.084 814.148 45.084H815.38C815.403 45.084 815.417 45.0953 815.423 45.118L816.434 50.9575C816.44 50.9858 816.428 51 816.4 51H815.457C815.434 51 815.42 50.9858 815.414 50.9575L815.321 50.337H814.165L814.071 50.9575C814.065 50.9858 814.051 51 814.029 51H813.085C813.062 51 813.051 50.9858 813.051 50.9575ZM814.335 49.4275H815.151L814.802 47.039L814.751 46.7245L814.717 47.039L814.335 49.4275ZM817.001 51C816.979 51 816.967 50.9858 816.967 50.9575L816.984 45.118C816.984 45.0953 816.996 45.084 817.018 45.084H818.735C819.041 45.084 819.322 45.1605 819.577 45.3135C819.838 45.4608 820.044 45.662 820.197 45.917C820.35 46.1663 820.427 46.4497 820.427 46.767C820.427 46.9767 820.396 47.1665 820.333 47.3365C820.271 47.5008 820.197 47.6425 820.112 47.7615C820.027 47.8748 819.951 47.9598 819.883 48.0165C820.189 48.3565 820.342 48.756 820.342 49.215L820.35 50.9575C820.35 50.9858 820.336 51 820.308 51H819.347C819.325 51 819.313 50.9915 819.313 50.9745V49.215C819.313 49.011 819.24 48.8353 819.092 48.688C818.951 48.535 818.775 48.4585 818.565 48.4585H818.004L817.996 50.9575C817.996 50.9858 817.985 51 817.962 51H817.001ZM818.004 47.4385H818.735C818.911 47.4385 819.067 47.3733 819.203 47.243C819.339 47.1127 819.407 46.954 819.407 46.767C819.407 46.5857 819.339 46.4298 819.203 46.2995C819.073 46.1692 818.917 46.104 818.735 46.104H818.004V47.4385ZM822.591 51.085C822.279 51.085 821.996 51.0085 821.741 50.8555C821.491 50.6968 821.293 50.4872 821.146 50.2265C820.998 49.9658 820.925 49.674 820.925 49.351L820.933 46.699C820.933 46.3873 821.004 46.104 821.146 45.849C821.293 45.5883 821.491 45.3815 821.741 45.2285C821.996 45.0698 822.279 44.9905 822.591 44.9905C822.902 44.9905 823.183 45.067 823.432 45.22C823.681 45.373 823.88 45.5798 824.027 45.8405C824.174 46.0955 824.248 46.3817 824.248 46.699V47.09C824.248 47.1127 824.237 47.124 824.214 47.124H823.262C823.239 47.124 823.228 47.1127 823.228 47.09V46.699C823.228 46.512 823.166 46.3505 823.041 46.2145C822.922 46.0785 822.772 46.0105 822.591 46.0105C822.387 46.0105 822.231 46.0813 822.123 46.223C822.015 46.359 821.962 46.5177 821.962 46.699V49.351C821.962 49.5607 822.021 49.7307 822.14 49.861C822.265 49.9913 822.415 50.0565 822.591 50.0565C822.772 50.0565 822.922 49.9857 823.041 49.844C823.166 49.6967 823.228 49.5323 823.228 49.351V48.96C823.228 48.9373 823.239 48.926 823.262 48.926H824.223C824.245 48.926 824.257 48.9373 824.257 48.96V49.351C824.257 49.674 824.18 49.9658 824.027 50.2265C823.88 50.4872 823.681 50.6968 823.432 50.8555C823.183 51.0085 822.902 51.085 822.591 51.085ZM824.912 51C824.889 51 824.878 50.9858 824.878 50.9575L824.887 45.118C824.887 45.0953 824.901 45.084 824.929 45.084H825.873C825.901 45.084 825.915 45.0953 825.915 45.118L825.907 47.43H827.182V45.118C827.182 45.0953 827.193 45.084 827.216 45.084H828.159C828.187 45.084 828.202 45.0953 828.202 45.118L828.219 50.9575C828.219 50.9858 828.204 51 828.176 51H827.224C827.196 51 827.182 50.9858 827.182 50.9575V48.4585H825.907V50.9575C825.907 50.9858 825.895 51 825.873 51H824.912Z" fill="#FEFEF1"/>
<rect width="725" height="60" fill="#FD6C67"/>
<mask id="mask4_3103_42661" style="mask-type:luminance" maskUnits="userSpaceOnUse" x="727" y="0" width="125" height="60">
<path d="M851.642 0H727V60H851.642V0Z" fill="white"/>
</mask>
<g mask="url(#mask4_3103_42661)">
<path d="M752.2 29.3354C753.376 30.5293 753.139 31.4838 752.402 32.2102C751.664 32.937 750.707 33.1599 749.53 31.9664C748.354 30.7718 748.142 27.8867 748.142 27.8867C748.142 27.8867 751.024 28.1416 752.2 29.3354Z" fill="#B94788"/>
<g opacity="0.3">
<path d="M752.817 30.1602C752.715 30.4491 752.528 30.7132 752.286 30.9523C751.549 31.6788 750.591 31.9023 749.415 30.7085C748.751 30.0346 748.394 28.8218 748.209 27.8933C748.166 27.8886 748.142 27.8867 748.142 27.8867C748.142 27.8867 748.354 30.7718 749.53 31.9664C750.707 33.1601 751.664 32.937 752.402 32.2102C752.96 31.6597 753.23 30.9777 752.817 30.1602Z" fill="#B94788"/>
</g>
<path d="M751.37 34.6036C753.394 34.9383 753.846 36.0541 753.64 37.3041C753.433 38.5538 752.646 39.4645 750.622 39.1298C748.597 38.7951 746.31 36.0916 746.31 36.0916C746.31 36.0916 749.346 34.2687 751.37 34.6036Z" fill="#B94788"/>
<g opacity="0.3">
<path d="M752.864 35.1484C752.891 35.4032 752.88 35.6703 752.835 35.9451C752.628 37.1946 751.841 38.1055 749.817 37.7704C748.698 37.5859 747.499 36.6765 746.65 35.9006C746.435 36.0167 746.31 36.0917 746.31 36.0917C746.31 36.0917 748.597 38.7951 750.622 39.1298C752.645 39.4646 753.433 38.5539 753.64 37.3042C753.779 36.4561 753.615 35.6706 752.864 35.1484Z" fill="#B94788"/>
</g>
<path d="M755.436 31.2892C754.918 32.1965 754.306 32.2151 753.745 31.8952C753.185 31.5756 752.889 31.0383 753.407 30.1312C753.925 29.2236 755.621 28.6094 755.621 28.6094C755.621 28.6094 755.954 30.3817 755.436 31.2892Z" fill="#B94788"/>
<g opacity="0.3">
<path d="M755.725 29.8906C755.681 30.0757 755.62 30.2509 755.535 30.4006C755.017 31.3077 754.404 31.3268 753.844 31.0067C753.576 30.854 753.37 30.6505 753.283 30.3816C752.951 31.14 753.239 31.6084 753.745 31.8975C754.306 32.2173 754.919 32.1988 755.437 31.2915C755.654 30.9115 755.72 30.3805 755.725 29.8906Z" fill="#B94788"/>
</g>
<path d="M753.096 47.7474C753.064 47.7474 753.032 47.7398 753.002 47.7236C752.905 47.6714 752.869 47.5508 752.921 47.4541C756.237 41.2958 755.236 34.4527 750.429 30.426C750.344 30.3554 750.333 30.2298 750.404 30.1456C750.474 30.0611 750.6 30.05 750.684 30.1209C753.222 32.2466 754.773 35.091 755.172 38.3466C755.542 41.3774 754.867 44.6789 753.271 47.6428C753.235 47.7095 753.167 47.7474 753.096 47.7474Z" fill="#912E29"/>
<path d="M754.875 38.2209C754.822 38.2209 754.77 38.2 754.73 38.1589C753.201 36.5471 750.123 36.5887 750.091 36.5902C749.981 36.5959 749.89 36.505 749.888 36.3952C749.885 36.2852 749.973 36.1942 750.083 36.192C750.217 36.1891 753.368 36.1445 755.019 37.8845C755.095 37.9644 755.092 38.0904 755.012 38.1661C754.973 38.2027 754.924 38.2209 754.875 38.2209Z" fill="#912E29"/>
<path d="M753.791 34.4381C753.69 34.4381 753.604 34.3611 753.594 34.2584C753.409 32.3843 754.223 30.7736 754.258 30.7058C754.308 30.6081 754.428 30.5694 754.526 30.6197C754.623 30.67 754.662 30.7899 754.612 30.8876C754.604 30.9033 753.817 32.4654 753.989 34.2196C754 34.329 753.92 34.4264 753.811 34.4371C753.804 34.4378 753.798 34.4381 753.791 34.4381Z" fill="#912E29"/>
<path d="M840.121 9.04092C840.57 7.42677 841.516 7.15743 842.513 7.43529C843.51 7.71314 844.181 8.43237 843.731 10.047C843.281 11.6618 840.884 13.2825 840.884 13.2825C840.884 13.2825 839.671 10.6556 840.121 9.04092Z" fill="#B94788"/>
<g opacity="0.3">
<path d="M840.529 8.09513C840.831 8.0394 841.152 8.06991 841.481 8.1613C842.478 8.43916 843.148 9.1587 842.699 10.7729C842.444 11.6845 841.571 12.5974 840.857 13.2199C840.874 13.2599 840.885 13.2819 840.885 13.2819C840.885 13.2819 843.281 11.6614 843.732 10.0464C844.181 8.43193 843.511 7.71255 842.514 7.43469C841.758 7.22461 841.032 7.32965 840.529 8.09513Z" fill="#B94788"/>
</g>
<path d="M845.104 7.14083C844.387 5.21895 845.13 4.27149 846.316 3.82821C847.503 3.38556 848.685 3.61507 849.402 5.5368C850.119 7.45916 848.914 10.789 848.914 10.789C848.914 10.789 845.821 9.06271 845.104 7.14083Z" fill="#B94788"/>
<g opacity="0.3">
<path d="M844.832 5.57461C845.04 5.42363 845.277 5.30061 845.537 5.20295C846.724 4.75999 847.906 4.9895 848.623 6.91171C849.02 7.97415 848.828 9.46656 848.578 10.5894C848.785 10.7176 848.913 10.789 848.913 10.789C848.913 10.789 850.119 7.45923 849.401 5.53687C848.684 3.61514 847.503 3.38547 846.316 3.82828C845.511 4.1291 844.911 4.66314 844.832 5.57461Z" fill="#B94788"/>
</g>
<path d="M840.205 5.26173C841.25 5.25916 841.571 5.78115 841.573 6.42681C841.574 7.07167 841.255 7.59574 840.211 7.59815C839.166 7.60088 837.789 6.43564 837.789 6.43564C837.789 6.43564 839.16 5.2643 840.205 5.26173Z" fill="#B94788"/>
<g opacity="0.3">
<path d="M838.847 5.70855C839.029 5.65491 839.211 5.62037 839.384 5.62005C840.428 5.61748 840.75 6.13963 840.751 6.78497C840.752 7.09335 840.678 7.3733 840.488 7.58225C841.312 7.49327 841.574 7.01031 841.573 6.42681C841.571 5.78115 841.25 5.25916 840.205 5.26173C839.768 5.26285 839.274 5.4694 838.847 5.70855Z" fill="#B94788"/>
</g>
<path d="M841.755 10.2001C841.743 10.2001 841.731 10.1992 841.72 10.1971C841.611 10.1778 841.54 10.0744 841.559 9.96628C842.139 6.70714 843.834 3.94542 846.459 1.97969C848.903 0.149516 852.102 -0.908596 855.467 -0.999824C855.576 -1.00448 855.668 -0.916145 855.671 -0.806286C855.674 -0.696428 855.587 -0.60504 855.478 -0.602148C848.486 -0.412626 843.05 3.86238 841.951 10.0358C841.933 10.1324 841.849 10.2001 841.755 10.2001Z" fill="#912E29"/>
<path d="M847.293 7.56222C847.225 7.56222 847.16 7.52785 847.122 7.46569C847.053 7.35149 845.445 4.6402 846.132 2.34136C846.164 2.236 846.276 2.17593 846.38 2.20773C846.485 2.23921 846.545 2.35004 846.514 2.4554C845.876 4.58752 847.447 7.23393 847.463 7.26043C847.52 7.35455 847.489 7.47677 847.395 7.53363C847.363 7.5529 847.328 7.56222 847.293 7.56222Z" fill="#912E29"/>
<path d="M842.044 2.95062C844.11 3.47919 845.007 2.60611 845.334 1.32988C845.66 0.0538217 845.292 -1.14258 843.225 -1.67115C841.159 -2.19956 837.85 -0.584129 837.85 -0.584129C837.85 -0.584129 839.977 2.42221 842.044 2.95062Z" fill="#B94788"/>
<g opacity="0.3">
<path d="M843.693 3.05743C843.826 2.82631 843.927 2.56756 843.999 2.28697C844.325 1.01107 843.957 -0.185169 841.891 -0.713582C840.748 -1.00638 839.226 -0.642592 838.093 -0.259854C837.938 -0.459816 837.85 -0.584129 837.85 -0.584129C837.85 -0.584129 841.159 -2.19956 843.225 -1.67115C845.292 -1.14258 845.66 0.0538217 845.334 1.32988C845.112 2.19574 844.626 2.87449 843.693 3.05743Z" fill="#B94788"/>
</g>
<path d="M845.767 1.92541C843.8 1.92541 841.976 1.09135 841.873 1.04365C841.774 0.997395 841.73 0.879024 841.776 0.779284C841.823 0.679705 841.941 0.636179 842.041 0.682756C842.073 0.697533 845.304 2.17211 847.671 1.17937C847.771 1.13697 847.889 1.18435 847.931 1.28585C847.974 1.38704 847.926 1.50381 847.825 1.54637C847.167 1.8223 846.458 1.92541 845.767 1.92541Z" fill="#912E29"/>
<path d="M840.277 6.57672C840.171 6.57672 840.083 6.49385 840.078 6.3872C840.073 6.2775 840.158 6.18435 840.268 6.17905C840.285 6.17825 842.032 6.08316 843.467 5.06039C843.557 4.99646 843.681 5.01766 843.745 5.10712C843.809 5.19659 843.788 5.3209 843.698 5.38466C842.165 6.47747 840.363 6.57319 840.286 6.57689C840.283 6.57656 840.28 6.57672 840.277 6.57672Z" fill="#912E29"/>
<path d="M841.526 49.9244C843.092 50.5203 843.273 51.4871 842.905 52.4548C842.537 53.422 841.76 54.0237 840.193 53.428C838.627 52.831 837.232 50.2965 837.232 50.2965C837.232 50.2965 839.96 49.3284 841.526 49.9244Z" fill="#B94788"/>
<g opacity="0.3">
<path d="M842.43 50.4169C842.458 50.7219 842.398 51.0394 842.277 51.358C841.909 52.3256 841.131 52.9269 839.565 52.3315C838.68 51.9949 837.851 51.0407 837.297 50.2734C837.255 50.2868 837.232 50.2958 837.232 50.2958C837.232 50.2958 838.627 52.8302 840.193 53.4272C841.76 54.0229 842.537 53.4214 842.905 52.4541C843.184 51.7204 843.146 50.9878 842.43 50.4169Z" fill="#B94788"/>
</g>
<path d="M842.965 55.062C844.944 54.5239 845.819 55.3504 846.152 56.5732C846.484 57.7956 846.147 58.9514 844.168 59.4892C842.188 60.0271 838.982 58.5214 838.982 58.5214C838.982 58.5214 840.985 55.5999 842.965 55.062Z" fill="#B94788"/>
<g opacity="0.3">
<path d="M844.549 54.9336C844.68 55.1535 844.781 55.4011 844.854 55.6702C845.187 56.8921 844.85 58.0482 842.87 58.5858C841.776 58.8834 840.307 58.5556 839.212 58.2035C839.065 58.3983 838.982 58.5193 838.982 58.5193C838.982 58.5193 842.188 60.025 844.168 59.4871C846.147 58.9491 846.484 57.7935 846.152 56.571C845.926 55.7418 845.449 55.0961 844.549 54.9336Z" fill="#B94788"/>
</g>
<path d="M845.283 50.3534C845.19 51.394 844.64 51.6658 843.997 51.6083C843.355 51.5511 842.862 51.1854 842.956 50.1449C843.049 49.1043 844.336 47.8398 844.336 47.8398C844.336 47.8398 845.376 49.3125 845.283 50.3534Z" fill="#B94788"/>
<g opacity="0.3">
<path d="M844.963 48.9609C844.999 49.1476 845.017 49.332 845.002 49.504C844.908 50.5441 844.359 50.8165 843.716 50.759C843.409 50.7314 843.137 50.6323 842.946 50.4235C842.959 51.2517 843.416 51.5579 843.998 51.6094C844.64 51.6669 845.19 51.3953 845.283 50.3546C845.322 49.9191 845.162 49.4087 844.963 48.9609Z" fill="#B94788"/>
</g>
<path d="M849.921 66.3142C849.917 66.3142 849.912 66.3139 849.908 66.3138C849.798 66.3065 849.715 66.2119 849.722 66.1024C850.175 59.1232 846.416 53.3177 840.37 51.6566C840.264 51.6277 840.202 51.5182 840.231 51.4122C840.26 51.3062 840.369 51.2434 840.475 51.2729C843.667 52.1499 846.262 54.0906 847.979 56.885C849.577 59.4863 850.337 62.7692 850.12 66.1283C850.113 66.2335 850.025 66.3142 849.921 66.3142Z" fill="#912E29"/>
<path d="M842.542 57.4176C842.468 57.4176 842.397 57.3763 842.363 57.3051C842.315 57.2062 842.356 57.0874 842.455 57.0395C842.575 56.9815 845.423 55.6287 847.648 56.5242C847.751 56.5652 847.8 56.6813 847.759 56.783C847.718 56.8855 847.601 56.9338 847.5 56.8935C845.438 56.0641 842.656 57.3848 842.628 57.398C842.6 57.4111 842.571 57.4176 842.542 57.4176Z" fill="#912E29"/>
<path d="M847.415 52.399C846.699 54.4086 847.486 55.3814 848.727 55.824C849.968 56.266 851.193 56.0091 851.908 53.9997C852.624 51.9902 851.319 48.5469 851.319 48.5469C851.319 48.5469 848.13 50.3896 847.415 52.399Z" fill="#B94788"/>
<g opacity="0.3">
<path d="M847.156 54.0319C847.374 54.1855 847.622 54.3093 847.895 54.407C849.136 54.8495 850.361 54.592 851.076 52.5831C851.473 51.4721 851.25 49.9232 850.973 48.7597C851.186 48.6228 851.318 48.5469 851.318 48.5469C851.318 48.5469 852.623 51.9902 851.907 53.9997C851.192 56.0092 849.967 56.266 848.726 55.824C847.884 55.5237 847.252 54.9781 847.156 54.0319Z" fill="#B94788"/>
</g>
<path d="M848.472 58.4228C848.387 58.4228 848.309 58.3687 848.282 58.2837C847.457 55.6669 849.252 52.5356 849.328 52.4034C849.384 52.3085 849.506 52.2765 849.601 52.3318C849.695 52.3869 849.728 52.5088 849.672 52.6037C849.655 52.6342 847.89 55.7163 848.662 58.1641C848.695 58.2688 848.636 58.3807 848.532 58.4138C848.512 58.4199 848.492 58.4228 848.472 58.4228Z" fill="#912E29"/>
<path d="M845.015 53.9209C844.946 53.9209 844.879 53.8854 844.843 53.8221C843.895 52.1946 843.965 50.3911 843.968 50.315C843.973 50.2051 844.075 50.1264 844.176 50.125C844.286 50.1298 844.371 50.223 844.366 50.3327C844.365 50.35 844.3 52.0983 845.187 53.6218C845.242 53.7169 845.21 53.8387 845.115 53.8938C845.083 53.9124 845.049 53.9209 845.015 53.9209Z" fill="#912E29"/>
<path d="M736.801 49.5276C736.602 48.4266 736.044 47.6055 735.555 47.694C735.065 47.7827 734.83 48.7472 735.029 49.8482C735.228 50.9498 735.786 51.7707 736.276 51.6815C736.765 51.5935 737 50.6291 736.801 49.5276Z" fill="#912E29"/>
<g opacity="0.4">
<path d="M735.776 50.8905C736.265 50.802 736.5 49.8376 736.301 48.7366C736.245 48.4276 736.16 48.1413 736.057 47.8906C736.38 48.1916 736.669 48.7955 736.801 49.5244C737 50.6258 736.765 51.5903 736.275 51.6783C735.923 51.7426 735.536 51.3343 735.272 50.6912C735.437 50.8444 735.61 50.9206 735.776 50.8905Z" fill="#912E29"/>
</g>
<path d="M737.845 50.0317C738.815 49.4734 739.803 49.3705 740.051 49.8016C740.299 50.2326 739.714 51.0346 738.744 51.5925C737.774 52.1507 736.786 52.2531 736.538 51.8227C736.29 51.3911 736.876 50.5894 737.845 50.0317Z" fill="#912E29"/>
<g opacity="0.4">
<path d="M737.463 51.6947C737.215 51.2636 737.8 50.4618 738.77 49.904C739.043 49.7469 739.316 49.6276 739.574 49.5445C739.136 49.492 738.487 49.6608 737.845 50.0304C736.876 50.5882 736.29 51.39 736.538 51.8214C736.717 52.1312 737.278 52.164 737.94 51.9505C737.717 51.9238 737.547 51.8405 737.463 51.6947Z" fill="#912E29"/>
</g>
<path d="M735.276 52.7427C735.073 51.4533 734.444 50.4821 733.871 50.5722C733.299 50.6623 732.998 51.7802 733.201 53.0691C733.404 54.358 734.033 55.3297 734.606 55.2397C735.179 55.1495 735.479 54.0311 735.276 52.7427Z" fill="#912E29"/>
<g opacity="0.4">
<path d="M734.044 54.306C734.617 54.2154 734.917 53.0977 734.714 51.8087C734.657 51.4468 734.565 51.1116 734.452 50.8164C734.82 51.1754 735.141 51.8872 735.276 52.7409C735.479 54.0293 735.179 55.1476 734.606 55.2379C734.194 55.3026 733.754 54.8169 733.463 54.06C733.651 54.2434 733.85 54.3364 734.044 54.306Z" fill="#912E29"/>
</g>
<path d="M736.48 53.3583C737.625 52.7332 738.779 52.6391 739.057 53.1482C739.334 53.6572 738.631 54.5764 737.486 55.2013C736.34 55.8264 735.187 55.9206 734.909 55.4113C734.631 54.9021 735.335 53.9831 736.48 53.3583Z" fill="#912E29"/>
<g opacity="0.4">
<path d="M735.99 55.2868C735.712 54.778 736.415 53.8585 737.561 53.2337C737.883 53.0583 738.204 52.9263 738.508 52.8359C737.999 52.7638 737.238 52.9429 736.48 53.3569C735.335 53.9819 734.631 54.9007 734.909 55.4099C735.109 55.7759 735.762 55.8284 736.54 55.5976C736.28 55.5607 736.084 55.4588 735.99 55.2868Z" fill="#912E29"/>
</g>
<path d="M733.114 56.189C733.098 54.6637 732.535 53.4336 731.857 53.4414C731.18 53.4484 730.643 54.6905 730.66 56.2154C730.676 57.7409 731.239 58.9707 731.917 58.9633C732.595 58.9565 733.131 57.7137 733.114 56.189Z" fill="#912E29"/>
<g opacity="0.4">
<path d="M731.425 57.7912C732.102 57.7838 732.639 56.5416 732.622 55.0164C732.617 54.5884 732.569 54.1848 732.487 53.8242C732.852 54.3019 733.103 55.1795 733.114 56.1896C733.131 57.7142 732.594 58.9569 731.917 58.9638C731.429 58.9693 731.002 58.3331 730.794 57.4083C730.98 57.6521 731.195 57.7936 731.425 57.7912Z" fill="#912E29"/>
</g>
<path d="M734.403 57.1042C735.833 56.5751 737.183 56.6619 737.418 57.2977C737.653 57.9333 736.685 58.8774 735.254 59.4064C733.823 59.9355 732.473 59.8487 732.238 59.2127C732.003 58.577 732.972 57.6329 734.403 57.1042Z" fill="#912E29"/>
<g opacity="0.4">
<path d="M733.509 59.2559C733.274 58.6207 734.243 57.6766 735.674 57.1476C736.076 56.999 736.47 56.9007 736.836 56.848C736.259 56.678 735.35 56.7567 734.403 57.1068C732.972 57.6355 732.003 58.5796 732.238 59.2153C732.407 59.6726 733.154 59.8444 734.092 59.7087C733.798 59.6221 733.589 59.4713 733.509 59.2559Z" fill="#912E29"/>
</g>
<path d="M730.402 59.615C730.622 57.965 730.205 56.5481 729.472 56.4506C728.739 56.3531 727.966 57.6114 727.746 59.2608C727.526 60.9111 727.943 62.3277 728.676 62.4257C729.409 62.5235 730.182 61.2646 730.402 59.615Z" fill="#912E29"/>
<g opacity="0.4">
<path d="M728.328 61.0802C729.061 61.1781 729.834 59.9196 730.053 58.2699C730.115 57.8066 730.125 57.3629 730.093 56.9609C730.413 57.5338 730.548 58.521 730.402 59.6138C730.182 61.2634 729.41 62.5221 728.676 62.4245C728.149 62.3541 727.787 61.5999 727.706 60.5691C727.869 60.8609 728.08 61.0471 728.328 61.0802Z" fill="#912E29"/>
</g>
<path d="M726.967 62.7165C727.459 60.93 727.213 59.305 726.419 59.0869C725.625 58.8687 724.583 60.1395 724.092 61.9258C723.601 63.7128 723.846 65.3371 724.64 65.5555C725.434 65.7744 726.476 64.503 726.967 62.7165Z" fill="#912E29"/>
<g opacity="0.4">
<path d="M724.458 64.0222C725.252 64.2408 726.294 62.9694 726.785 61.1836C726.923 60.6817 727.001 60.1944 727.027 59.7461C727.292 60.4263 727.292 61.535 726.967 62.7177C726.476 64.5042 725.434 65.7756 724.639 65.5567C724.069 65.4001 723.783 64.514 723.849 63.365C723.986 63.7116 724.19 63.9487 724.458 64.0222Z" fill="#912E29"/>
</g>
<path d="M719.24 68.7132C719.209 68.7071 719.179 68.6965 719.151 68.6801C719.008 68.599 718.958 68.4165 719.039 68.2732C719.097 68.1706 719.132 68.1547 719.564 67.9607C725.238 65.4126 735.125 59.2859 737.597 46.8886C737.629 46.727 737.786 46.6221 737.948 46.6542L737.949 46.6545C738.11 46.687 738.215 46.8441 738.182 47.0056C735.658 59.6651 725.587 65.9098 719.809 68.5055C719.666 68.5693 719.531 68.6298 719.483 68.6552C719.415 68.7088 719.325 68.7307 719.24 68.7132Z" fill="#912E29"/>
<path d="M738.709 47.1849C738.956 46.0933 738.763 45.1199 738.278 45.0102C737.793 44.9001 737.199 45.6957 736.952 46.7872C736.705 47.8787 736.898 48.8523 737.383 48.962C737.868 49.0724 738.462 48.2764 738.709 47.1849Z" fill="#912E29"/>
<g opacity="0.4">
<path d="M737.232 48.0422C737.717 48.1522 738.311 47.356 738.557 46.2647C738.627 45.9584 738.661 45.6624 738.664 45.3906C738.843 45.7938 738.873 46.4632 738.71 47.1856C738.463 48.2771 737.869 49.0731 737.384 48.963C737.035 48.8844 736.839 48.3571 736.847 47.6618C736.938 47.8673 737.068 48.0047 737.232 48.0422Z" fill="#912E29"/>
</g>
<path d="M766.515 46.0945C766.515 48.114 765.178 49.7513 763.53 49.7513C761.881 49.7513 760.545 48.1142 760.545 46.0945C760.545 44.0748 761.881 42.4375 763.53 42.4375C765.178 42.4377 766.515 44.0748 766.515 46.0945Z" fill="#FEFEF1"/>
<g opacity="0.3">
<path d="M765.336 43.1875C765.24 45.1001 763.947 46.6162 762.361 46.6162C761.681 46.6162 761.056 46.3342 760.554 45.8655C760.551 45.9414 760.545 46.0167 760.545 46.0938C760.545 48.1133 761.881 49.7506 763.53 49.7506C765.178 49.7506 766.515 48.1135 766.515 46.0938C766.515 44.907 766.052 43.8553 765.336 43.1875Z" fill="#FCC0AD"/>
</g>
<path d="M762.363 45.2438C763.954 46.4872 764.422 48.548 763.407 49.8474C762.392 51.1463 760.279 51.1919 758.688 49.9484C757.096 48.705 756.629 46.6438 757.644 45.3445C758.659 44.0453 760.772 44.0003 762.363 45.2438Z" fill="#FEFEF1"/>
<g opacity="0.3">
<path d="M759.348 44.3837C760.795 45.6373 761.194 47.59 760.217 48.8393C759.799 49.3752 759.192 49.694 758.514 49.8008C758.571 49.8506 758.627 49.9014 758.688 49.9489C760.279 51.1924 762.392 51.1468 763.407 49.8479C764.422 48.5486 763.955 46.4877 762.363 45.2443C761.428 44.5133 760.314 44.2315 759.348 44.3837Z" fill="#FCC0AD"/>
</g>
<path d="M759.137 47.9922C761.096 47.5038 763.008 48.4043 763.407 50.0039C763.806 51.6034 762.541 53.2966 760.581 53.7852C758.622 54.2737 756.71 53.373 756.311 51.7733C755.912 50.174 757.177 48.4811 759.137 47.9922Z" fill="#FEFEF1"/>
<g opacity="0.3">
<path d="M756.603 49.8388C758.482 49.47 760.266 50.358 760.649 51.8968C760.814 52.5565 760.691 53.2309 760.358 53.8314C760.432 53.8166 760.507 53.8038 760.582 53.7852C762.541 53.2966 763.806 51.6034 763.408 50.0039C763.009 48.4043 761.097 47.5038 759.137 47.9922C757.986 48.2794 757.077 48.983 756.603 49.8388Z" fill="#FCC0AD"/>
</g>
<path d="M759.316 52.2277C760.138 50.383 762.024 49.4309 763.531 50.1015C765.036 50.772 765.592 52.8115 764.77 54.6561C763.949 56.5012 762.062 57.4533 760.556 56.7828C759.05 56.1122 758.495 54.0731 759.316 52.2277Z" fill="#FEFEF1"/>
<g opacity="0.3">
<path d="M759.21 55.3623C760.077 53.6539 761.875 52.7951 763.323 53.4401C763.944 53.7167 764.4 54.2284 764.668 54.8609C764.702 54.7933 764.738 54.7269 764.77 54.6561C765.591 52.8115 765.036 50.7719 763.53 50.1015C762.024 49.4309 760.137 50.383 759.316 52.2277C758.833 53.312 758.829 54.4611 759.21 55.3623Z" fill="#FCC0AD"/>
</g>
<path d="M762.763 54.6914C761.815 52.9081 762.227 50.8353 763.682 50.0615C765.137 49.2876 767.086 50.1051 768.034 51.8887C768.982 53.6722 768.571 55.7449 767.115 56.519C765.66 57.2927 763.711 56.4748 762.763 54.6914Z" fill="#FEFEF1"/>
<g opacity="0.3">
<path d="M765.168 56.7045C764.355 54.9701 764.786 53.0244 766.186 52.28C766.786 51.9605 767.47 51.916 768.133 52.0946C768.101 52.0262 768.071 51.9568 768.034 51.8887C767.086 50.1053 765.137 49.2876 763.682 50.0614C762.226 50.8353 761.815 52.9083 762.763 54.6914C763.32 55.7394 764.223 56.4503 765.168 56.7045Z" fill="#FCC0AD"/>
</g>
<path d="M766.827 53.4952C764.838 53.1441 763.458 51.5439 763.745 49.9205C764.031 48.2968 765.875 47.2644 767.864 47.6154C769.853 47.9663 771.233 49.5668 770.947 51.1907C770.66 52.8137 768.816 53.8452 766.827 53.4952Z" fill="#FEFEF1"/>
<g opacity="0.3">
<path d="M769.894 52.8391C768.027 52.412 766.759 50.8748 767.034 49.3133C767.152 48.6436 767.538 48.0773 768.087 47.6645C768.013 47.6478 767.94 47.6287 767.864 47.6154C765.875 47.2644 764.031 48.2968 763.745 49.9205C763.458 51.5439 764.838 53.1441 766.827 53.4952C767.996 53.7014 769.112 53.4277 769.894 52.8391Z" fill="#FCC0AD"/>
</g>
<path d="M768.386 49.5523C766.885 50.9035 764.774 51.0056 763.671 49.7808C762.568 48.5558 762.89 46.4669 764.391 45.1155C765.892 43.7645 768.003 43.6618 769.106 44.8875C770.209 46.1124 769.887 48.2006 768.386 49.5523Z" fill="#FEFEF1"/>
<g opacity="0.3">
<path d="M769.757 46.7346C768.271 47.9429 766.279 47.996 765.218 46.8173C764.763 46.3125 764.554 45.6594 764.567 44.9727C764.508 45.021 764.448 45.0668 764.391 45.1185C762.89 46.4699 762.568 48.5588 763.671 49.7838C764.774 51.0086 766.885 50.9065 768.386 49.5552C769.268 48.761 769.739 47.7133 769.757 46.7346Z" fill="#FCC0AD"/>
</g>
<path d="M766.415 49.7021C766.415 51.2959 765.123 52.5878 763.529 52.5878C761.936 52.5878 760.644 51.2959 760.644 49.7021C760.644 48.1085 761.936 46.8164 763.529 46.8164C765.123 46.8164 766.415 48.1085 766.415 49.7021Z" fill="#FD9B00"/>
<g opacity="0.5">
<path d="M765.541 47.6328C765.575 47.8111 765.595 47.9947 765.595 48.1827C765.595 49.7763 764.303 51.0685 762.709 51.0685C761.927 51.0685 761.218 50.7556 760.698 50.2498C760.955 51.5803 762.124 52.5859 763.53 52.5859C765.124 52.5859 766.416 51.294 766.416 49.7002C766.416 48.889 766.08 48.1571 765.541 47.6328Z" fill="#FD9B00"/>
</g>
<path d="M761.486 5.0136C761.486 6.48818 760.51 7.68362 759.306 7.68362C758.103 7.68362 757.127 6.48834 757.127 5.0136C757.127 3.53902 758.103 2.34375 759.306 2.34375C760.51 2.34375 761.486 3.53886 761.486 5.0136Z" fill="#FEFEF1"/>
<g opacity="0.3">
<path d="M760.625 2.89453C760.555 4.29089 759.61 5.39783 758.453 5.39783C757.956 5.39783 757.5 5.19225 757.134 4.84982C757.131 4.90507 757.127 4.96032 757.127 5.01638C757.127 6.49096 758.103 7.68639 759.306 7.68639C760.51 7.68639 761.486 6.49112 761.486 5.01638C761.486 4.15004 761.147 3.38215 760.625 2.89453Z" fill="#FCC0AD"/>
</g>
<path d="M758.455 4.39416C759.617 5.3021 759.958 6.80671 759.217 7.75545C758.476 8.70386 756.933 8.73711 755.771 7.82917C754.609 6.92139 754.268 5.41662 755.009 4.46788C755.75 3.51931 757.293 3.48654 758.455 4.39416Z" fill="#FEFEF1"/>
<g opacity="0.3">
<path d="M756.252 3.7675C757.309 4.68267 757.6 6.10842 756.887 7.0207C756.582 7.41195 756.139 7.64468 755.644 7.72258C755.685 7.75903 755.726 7.79614 755.77 7.83067C756.932 8.73861 758.475 8.70536 759.216 7.75695C759.957 6.80837 759.616 5.3036 758.454 4.39566C757.772 3.86227 756.958 3.6562 756.252 3.7675Z" fill="#FCC0AD"/>
</g>
<path d="M756.099 6.40157C757.53 6.04517 758.926 6.70272 759.217 7.87069C759.508 9.03834 758.585 10.2746 757.154 10.6313C755.723 10.9882 754.327 10.3305 754.036 9.16233C753.745 7.99452 754.669 6.75861 756.099 6.40157Z" fill="#FEFEF1"/>
<g opacity="0.3">
<path d="M754.248 7.75007C755.62 7.48056 756.923 8.12928 757.203 9.2526C757.323 9.73427 757.233 10.2265 756.99 10.665C757.044 10.6543 757.099 10.6449 757.153 10.6313C758.584 10.2746 759.508 9.03834 759.217 7.87069C758.925 6.70272 757.529 6.04517 756.099 6.40157C755.258 6.61133 754.595 7.12529 754.248 7.75007Z" fill="#FCC0AD"/>
</g>
<path d="M756.229 9.49045C756.829 8.14355 758.207 7.44859 759.306 7.93797C760.406 8.42752 760.811 9.91655 760.211 11.2634C759.612 12.6107 758.234 13.3056 757.134 12.8161C756.035 12.3264 755.63 10.8378 756.229 9.49045Z" fill="#FEFEF1"/>
<g opacity="0.3">
<path d="M756.152 11.779C756.785 10.5317 758.098 9.90483 759.155 10.3759C759.609 10.5775 759.941 10.9512 760.137 11.413C760.162 11.3635 760.188 11.3152 760.211 11.2634C760.811 9.91671 760.406 8.42752 759.306 7.93797C758.207 7.44859 756.829 8.14355 756.229 9.49045C755.877 10.2818 755.874 11.121 756.152 11.779Z" fill="#FCC0AD"/>
</g>
<path d="M758.746 11.2929C758.054 9.99098 758.355 8.47754 759.417 7.91234C760.48 7.34731 761.903 7.94447 762.595 9.24639C763.287 10.5485 762.987 12.0621 761.924 12.6273C760.862 13.1921 759.439 12.595 758.746 11.2929Z" fill="#FEFEF1"/>
<g opacity="0.3">
<path d="M760.503 12.7625C759.909 11.4962 760.223 10.0756 761.246 9.53212C761.684 9.29907 762.183 9.26662 762.667 9.39688C762.644 9.34693 762.622 9.29602 762.595 9.24639C761.903 7.94447 760.48 7.34731 759.417 7.91234C758.355 8.47754 758.054 9.99098 758.746 11.2929C759.153 12.0577 759.812 12.5768 760.503 12.7625Z" fill="#FCC0AD"/>
</g>
<path d="M761.714 10.417C760.262 10.1607 759.254 8.99237 759.463 7.80706C759.672 6.62158 761.018 5.86815 762.47 6.12416C763.922 6.3805 764.93 7.54879 764.721 8.73459C764.512 9.91943 763.166 10.6729 761.714 10.417Z" fill="#FEFEF1"/>
<g opacity="0.3">
<path d="M763.953 9.93805C762.59 9.6263 761.664 8.50394 761.865 7.36392C761.951 6.87502 762.233 6.46144 762.633 6.15997C762.579 6.14793 762.526 6.13395 762.47 6.12416C761.018 5.86814 759.672 6.62173 759.463 7.80705C759.254 8.99237 760.262 10.1608 761.714 10.417C762.567 10.5675 763.382 10.3678 763.953 9.93805Z" fill="#FCC0AD"/>
</g>
<path d="M762.852 7.53884C761.756 8.52548 760.215 8.60017 759.409 7.70588C758.604 6.81127 758.839 5.28626 759.935 4.29946C761.031 3.31298 762.572 3.23814 763.377 4.13291C764.183 5.02735 763.947 6.55188 762.852 7.53884Z" fill="#FEFEF1"/>
<g opacity="0.3">
<path d="M763.853 5.48165C762.768 6.3639 761.313 6.4026 760.539 5.54204C760.207 5.17344 760.054 4.69658 760.063 4.19531C760.02 4.23033 759.977 4.26373 759.935 4.30148C758.839 5.28828 758.604 6.81329 759.409 7.7079C760.215 8.60219 761.756 8.52766 762.852 7.54086C763.495 6.96121 763.84 6.19622 763.853 5.48165Z" fill="#FCC0AD"/>
</g>
<path d="M761.413 7.64972C761.413 8.81335 760.469 9.75662 759.306 9.75662C758.143 9.75662 757.199 8.81335 757.199 7.64972C757.199 6.48624 758.143 5.54297 759.306 5.54297C760.47 5.54281 761.413 6.48608 761.413 7.64972Z" fill="#FD9B00"/>
<g opacity="0.5">
<path d="M760.775 6.14062C760.8 6.27072 760.814 6.40467 760.814 6.54199C760.814 7.70547 759.871 8.6489 758.707 8.6489C758.136 8.6489 757.619 8.42051 757.239 8.05127C757.427 9.02265 758.281 9.75664 759.307 9.75664C760.47 9.75664 761.413 8.81337 761.413 7.64974C761.413 7.05772 761.168 6.52336 760.775 6.14062Z" fill="#FD9B00"/>
</g>
<path d="M740.509 30.6741C740.509 31.6762 739.845 32.4886 739.027 32.4886C738.209 32.4886 737.546 31.6762 737.546 30.6741C737.546 29.6719 738.209 28.8594 739.027 28.8594C739.845 28.8592 740.509 29.6717 740.509 30.6741Z" fill="#FEFEF1"/>
<g opacity="0.3">
<path d="M739.924 29.2305C739.876 30.1795 739.234 30.9317 738.447 30.9317C738.11 30.9317 737.8 30.7923 737.551 30.5595C737.549 30.5968 737.546 30.6345 737.546 30.6728C737.546 31.6748 738.209 32.4872 739.027 32.4872C739.845 32.4872 740.509 31.6748 740.509 30.6728C740.509 30.0836 740.278 29.5618 739.924 29.2305Z" fill="#FCC0AD"/>
</g>
<path d="M738.448 30.2492C739.238 30.8664 739.469 31.8892 738.966 32.5336C738.462 33.1784 737.414 33.2008 736.624 32.5839C735.834 31.9666 735.602 30.944 736.106 30.2995C736.61 29.6546 737.658 29.6323 738.448 30.2492Z" fill="#FEFEF1"/>
<g opacity="0.3">
<path d="M736.952 29.8246C737.67 30.4465 737.868 31.4155 737.384 32.0354C737.176 32.3012 736.875 32.4598 736.538 32.5126C736.567 32.5372 736.594 32.5626 736.624 32.5862C737.414 33.2031 738.463 33.1806 738.966 32.5359C739.47 31.8915 739.238 30.8687 738.449 30.2515C737.984 29.889 737.432 29.7488 736.952 29.8246Z" fill="#FCC0AD"/>
</g>
<path d="M736.847 31.6127C737.819 31.3705 738.768 31.8172 738.966 32.6113C739.164 33.4047 738.536 34.2452 737.564 34.4877C736.591 34.7296 735.643 34.2832 735.445 33.489C735.247 32.6954 735.875 31.8556 736.847 31.6127Z" fill="#FEFEF1"/>
<g opacity="0.3">
<path d="M735.589 32.5293C736.521 32.3461 737.406 32.7871 737.597 33.5503C737.679 33.8775 737.618 34.2125 737.452 34.5106C737.489 34.5031 737.526 34.4968 737.563 34.4877C738.536 34.2451 739.164 33.4048 738.966 32.6112C738.768 31.8173 737.819 31.3705 736.847 31.6127C736.275 31.7555 735.824 32.1047 735.589 32.5293Z" fill="#FCC0AD"/>
</g>
<path d="M736.935 33.7166C737.343 32.8012 738.279 32.3285 739.027 32.6612C739.774 32.9936 740.05 34.0061 739.642 34.921C739.234 35.837 738.298 36.3091 737.551 35.9764C736.803 35.6437 736.528 34.6319 736.935 33.7166Z" fill="#FEFEF1"/>
<g opacity="0.3">
<path d="M736.883 35.2715C737.313 34.4243 738.206 33.9982 738.924 34.3183C739.233 34.4551 739.459 34.7091 739.592 35.0231C739.609 34.9897 739.627 34.9563 739.642 34.9209C740.05 34.0061 739.774 32.9936 739.027 32.6611C738.28 32.3286 737.343 32.8012 736.936 33.7165C736.696 34.2542 736.694 34.8245 736.883 35.2715Z" fill="#FCC0AD"/>
</g>
<path d="M738.646 34.9384C738.175 34.0535 738.38 33.0252 739.102 32.6409C739.824 32.257 740.791 32.6627 741.262 33.5475C741.732 34.4325 741.528 35.4614 740.805 35.8456C740.083 36.2294 739.116 35.8234 738.646 34.9384Z" fill="#FEFEF1"/>
<g opacity="0.3">
<path d="M739.839 35.9377C739.436 35.0766 739.649 34.1112 740.344 33.7421C740.642 33.5833 740.981 33.5614 741.311 33.6503C741.294 33.6162 741.28 33.581 741.262 33.5475C740.791 32.6626 739.824 32.2571 739.102 32.6408C738.38 33.0252 738.175 34.0534 738.646 34.9384C738.922 35.4587 739.37 35.8111 739.839 35.9377Z" fill="#FCC0AD"/>
</g>
<path d="M740.664 34.3421C739.677 34.1683 738.992 33.3741 739.134 32.5684C739.276 31.7626 740.191 31.2506 741.178 31.4246C742.165 31.599 742.85 32.3927 742.708 33.1985C742.566 34.0041 741.651 34.5162 740.664 34.3421Z" fill="#FEFEF1"/>
<g opacity="0.3">
<path d="M742.186 34.0167C741.259 33.8047 740.63 33.0419 740.766 32.2668C740.825 31.9347 741.017 31.6539 741.289 31.4488C741.252 31.4405 741.216 31.4313 741.178 31.4246C740.191 31.2506 739.276 31.7626 739.134 32.5684C738.992 33.3741 739.677 34.1683 740.664 34.3421C741.244 34.4441 741.797 34.3083 742.186 34.0167Z" fill="#FCC0AD"/>
</g>
<path d="M741.436 32.3879C740.691 33.0589 739.644 33.1094 739.097 32.5016C738.549 31.8937 738.709 30.8574 739.454 30.1864C740.199 29.5161 741.247 29.4651 741.794 30.0733C742.341 30.6812 742.181 31.7173 741.436 32.3879Z" fill="#FEFEF1"/>
<g opacity="0.3">
<path d="M742.117 30.9875C741.379 31.5872 740.391 31.6132 739.865 31.0284C739.639 30.7781 739.535 30.4541 739.541 30.1133C739.512 30.1369 739.482 30.1597 739.454 30.1854C738.709 30.8564 738.549 31.8927 739.097 32.5006C739.644 33.1084 740.692 33.0579 741.436 32.3869C741.874 31.9932 742.108 31.4732 742.117 30.9875Z" fill="#FCC0AD"/>
</g>
<path d="M740.459 32.4634C740.459 33.254 739.817 33.8951 739.027 33.8951C738.236 33.8951 737.595 33.254 737.595 32.4634C737.595 31.6724 738.236 31.0312 739.027 31.0312C739.817 31.0312 740.459 31.6724 740.459 32.4634Z" fill="#FD9B00"/>
<g opacity="0.5">
<path d="M740.025 31.4375C740.042 31.5257 740.052 31.6166 740.052 31.7099C740.052 32.5008 739.41 33.1419 738.62 33.1419C738.231 33.1419 737.88 32.9868 737.622 32.7357C737.749 33.396 738.33 33.895 739.027 33.895C739.818 33.895 740.459 33.2539 740.459 32.4633C740.459 32.0605 740.292 31.6974 740.025 31.4375Z" fill="#FD9B00"/>
</g>
<path d="M768.84 19.936C768.84 22.168 768.081 23.9775 767.145 23.9775C766.209 23.9775 765.449 22.168 765.449 19.936C765.449 17.704 766.208 15.8945 767.145 15.8945C768.081 15.8945 768.84 17.7038 768.84 19.936Z" fill="#B94788"/>
<g opacity="0.4">
<path d="M768.357 17.1133C768.368 17.2996 768.376 17.4886 768.376 17.682C768.376 19.914 767.617 21.7237 766.68 21.7237C766.205 21.7237 765.776 21.2558 765.468 20.5046C765.584 22.4662 766.29 23.9769 767.144 23.9769C768.081 23.9769 768.84 22.1674 768.84 19.9354C768.84 18.8363 768.656 17.8415 768.357 17.1133Z" fill="#B94788"/>
</g>
<path d="M765.42 19.9479C766.998 21.5262 767.741 23.3426 767.079 24.0048C766.417 24.6671 764.601 23.9241 763.022 22.3456C761.444 20.7675 760.701 18.9513 761.363 18.2891C762.026 17.6267 763.842 18.3697 765.42 19.9479Z" fill="#B94788"/>
<g opacity="0.4">
<path d="M763.083 18.293C763.222 18.4168 763.362 18.5451 763.499 18.682C765.077 20.2601 765.82 22.0765 765.157 22.739C764.821 23.0752 764.187 23.0476 763.438 22.7341C764.907 24.0389 766.474 24.6082 767.079 24.0039C767.741 23.3415 766.998 21.5251 765.42 19.947C764.643 19.1699 763.809 18.5968 763.083 18.293Z" fill="#B94788"/>
</g>
<path d="M763.01 22.375C765.242 22.375 767.052 23.1342 767.051 24.0707C767.052 25.0068 765.243 25.766 763.01 25.766C760.778 25.766 758.969 25.0073 758.969 24.0703C758.969 23.1336 760.778 22.375 763.01 22.375Z" fill="#B94788"/>
<g opacity="0.4">
<path d="M760.188 22.8581C760.375 22.8472 760.564 22.8392 760.758 22.839C762.989 22.8392 764.799 23.5984 764.799 24.5352C764.799 25.0106 764.331 25.4395 763.58 25.7472C765.542 25.6309 767.052 24.9252 767.052 24.0707C767.052 23.1342 765.242 22.375 763.01 22.375C761.912 22.3748 760.917 22.5592 760.188 22.8581Z" fill="#B94788"/>
</g>
<path d="M763.023 25.7955C764.601 24.2173 766.418 23.4744 767.08 24.1367C767.743 24.7984 767 26.6142 765.421 28.1931C763.843 29.7716 762.027 30.5148 761.364 29.8523C760.702 29.1893 761.445 27.374 763.023 25.7955Z" fill="#B94788"/>
<g opacity="0.4">
<path d="M761.368 28.1328C761.492 27.9934 761.621 27.8537 761.758 27.7165C763.336 26.1388 765.153 25.3958 765.815 26.058C766.15 26.395 766.123 27.0286 765.809 27.7774C767.115 26.3078 767.684 24.7409 767.079 24.1368C766.417 23.4743 764.6 24.2174 763.022 25.7956C762.246 26.5723 761.672 27.4067 761.368 28.1328Z" fill="#B94788"/>
</g>
<path d="M765.45 28.2059C765.45 25.9738 766.209 24.1637 767.145 24.1641C768.082 24.1636 768.841 25.9727 768.841 28.2052C768.841 30.4382 768.082 32.2473 767.145 32.2473C766.208 32.247 765.45 30.4379 765.45 28.2059Z" fill="#B94788"/>
<g opacity="0.4">
<path d="M765.933 31.0281C765.922 30.8417 765.914 30.6525 765.914 30.4583C765.914 28.2271 766.674 26.4168 767.61 26.4168C768.086 26.4179 768.514 26.8855 768.821 27.6368C768.706 25.6743 768 24.1637 767.145 24.1641C766.209 24.1637 765.45 25.9738 765.45 28.2059C765.45 29.3041 765.634 30.2999 765.933 31.0281Z" fill="#B94788"/>
</g>
<path d="M768.87 28.1935C767.292 26.615 766.549 24.7987 767.211 24.1368C767.873 23.4744 769.689 24.2169 771.267 25.7956C772.846 27.3747 773.589 29.1906 772.927 29.8525C772.263 30.5147 770.448 29.7717 768.87 28.1935Z" fill="#B94788"/>
<g opacity="0.4">
<path d="M771.207 29.8476C771.067 29.7233 770.928 29.5948 770.79 29.4575C769.213 27.8798 768.47 26.0628 769.132 25.4008C769.469 25.0651 770.102 25.0926 770.851 25.4064C769.381 24.1008 767.815 23.5316 767.211 24.1361C766.549 24.7982 767.292 26.6145 768.87 28.1929C769.646 28.9699 770.48 29.5436 771.207 29.8476Z" fill="#B94788"/>
</g>
<path d="M771.28 25.766C769.048 25.766 767.238 25.0066 767.238 24.0704C767.237 23.1342 769.047 22.375 771.279 22.375C773.512 22.375 775.321 23.1342 775.321 24.0704C775.321 25.0076 773.512 25.7657 771.28 25.766Z" fill="#B94788"/>
<g opacity="0.4">
<path d="M774.101 25.2836C773.914 25.2942 773.725 25.3023 773.531 25.3023C771.3 25.3023 769.49 24.5422 769.49 23.6062C769.491 23.1308 769.958 22.7023 770.709 22.3945C768.747 22.5108 767.237 23.2162 767.237 24.0705C767.237 25.0069 769.047 25.7661 771.279 25.7661C772.377 25.7664 773.372 25.5827 774.101 25.2836Z" fill="#B94788"/>
</g>
<path d="M771.267 22.3457C769.689 23.9238 767.873 24.6668 767.21 24.0045C766.548 23.3433 767.29 21.5269 768.869 19.9485C770.448 18.3695 772.263 17.6268 772.926 18.289C773.588 18.9522 772.845 20.7671 771.267 22.3457Z" fill="#B94788"/>
<g opacity="0.4">
<path d="M772.922 20.0078C772.797 20.1472 772.669 20.2866 772.531 20.4243C770.954 22.0016 769.137 22.7443 768.475 22.0824C768.139 21.7455 768.166 21.112 768.48 20.3631C767.175 21.833 766.606 23.3996 767.21 24.0035C767.873 24.6657 769.689 23.9229 771.267 22.3447C772.044 21.568 772.617 20.7343 772.922 20.0078Z" fill="#B94788"/>
</g>
<path d="M768.306 24.0715C768.306 24.713 767.786 25.2329 767.145 25.2329C766.503 25.2329 765.983 24.713 765.983 24.0715C765.983 23.4301 766.503 22.9102 767.145 22.9102C767.786 22.9102 768.306 23.4301 768.306 24.0715Z" fill="#FEFEF1"/>
<g opacity="0.4">
<path d="M767.824 23.1328C767.848 23.2253 767.865 23.321 767.865 23.4209C767.865 24.0624 767.345 24.5823 766.703 24.5823C766.448 24.5823 766.215 24.498 766.023 24.3589C766.152 24.8604 766.603 25.2325 767.145 25.2325C767.786 25.2325 768.306 24.7126 768.306 24.0711C768.306 23.6842 768.115 23.3442 767.824 23.1328Z" fill="#FCC0AD"/>
</g>
<path d="M742.59 53.5163C742.59 55.3958 741.951 56.9194 741.162 56.9194C740.374 56.9194 739.734 55.3958 739.734 53.5163C739.734 51.6372 740.373 50.1133 741.162 50.1133C741.951 50.1134 742.59 51.6372 742.59 53.5163Z" fill="#B94788"/>
<g opacity="0.4">
<path d="M742.183 51.1406C742.192 51.2974 742.199 51.4564 742.199 51.6196C742.199 53.4987 741.559 55.0225 740.771 55.0225C740.37 55.0225 740.009 54.6285 739.75 53.996C739.848 55.6476 740.442 56.9198 741.162 56.9198C741.95 56.9198 742.59 55.3962 742.59 53.5167C742.59 52.5916 742.434 51.7537 742.183 51.1406Z" fill="#B94788"/>
</g>
<path d="M739.711 53.5265C741.039 54.8554 741.665 56.3849 741.107 56.9424C740.55 57.5002 739.021 56.8748 737.691 55.5459C736.363 54.217 735.737 52.6875 736.295 52.1295C736.853 51.5722 738.382 52.1976 739.711 53.5265Z" fill="#B94788"/>
<g opacity="0.4">
<path d="M737.742 52.1367C737.859 52.2408 737.977 52.3489 738.092 52.4644C739.421 53.7933 740.046 55.3228 739.489 55.8803C739.205 56.1636 738.672 56.1401 738.041 55.8764C739.278 56.9752 740.598 57.4546 741.107 56.9453C741.664 56.3878 741.039 54.8585 739.71 53.5294C739.056 52.8752 738.353 52.3923 737.742 52.1367Z" fill="#B94788"/>
</g>
<path d="M737.681 55.5703C739.561 55.5703 741.085 56.2092 741.084 56.9985C741.085 57.7863 739.562 58.4257 737.681 58.4257C735.802 58.4257 734.278 57.7868 734.278 56.9977C734.279 56.2091 735.802 55.5703 737.681 55.5703Z" fill="#B94788"/>
<g opacity="0.4">
<path d="M735.305 55.977C735.461 55.9677 735.621 55.9611 735.784 55.9611C737.663 55.9611 739.187 56.6003 739.187 57.3891C739.187 57.79 738.793 58.1505 738.16 58.4098C739.812 58.3118 741.084 57.7174 741.084 56.9985C741.084 56.2094 739.56 55.5703 737.681 55.5703C736.756 55.57 735.918 55.7253 735.305 55.977Z" fill="#B94788"/>
</g>
<path d="M737.692 58.4523C739.02 57.1236 740.55 56.4977 741.107 57.0555C741.665 57.613 741.04 59.1415 739.711 60.4714C738.382 61.8003 736.853 62.426 736.295 61.8682C735.737 61.3099 736.363 59.7812 737.692 58.4523Z" fill="#B94788"/>
<g opacity="0.4">
<path d="M736.299 60.4205C736.403 60.3029 736.512 60.1853 736.627 60.0697C737.955 58.7411 739.486 58.1154 740.043 58.6732C740.326 58.957 740.302 59.4905 740.038 60.1211C741.138 58.8839 741.617 57.5643 741.108 57.0555C740.55 56.4977 739.021 57.1236 737.692 58.4523C737.038 59.1062 736.555 59.8085 736.299 60.4205Z" fill="#B94788"/>
</g>
<path d="M739.735 60.4815C739.735 58.6023 740.374 57.0778 741.163 57.0781C741.951 57.0778 742.59 58.6011 742.59 60.4812C742.59 62.3613 741.951 63.8845 741.163 63.8845C740.373 63.8841 739.735 62.361 739.735 60.4815Z" fill="#B94788"/>
<g opacity="0.4">
<path d="M740.142 62.8581C740.132 62.701 740.126 62.5415 740.126 62.3782C740.126 60.4995 740.765 58.975 741.554 58.975C741.955 58.9762 742.315 59.3699 742.574 60.0024C742.477 58.3495 741.882 57.0778 741.163 57.0781C740.374 57.0778 739.735 58.6023 739.735 60.4815C739.735 61.4063 739.89 62.2449 740.142 62.8581Z" fill="#B94788"/>
</g>
<path d="M742.615 60.4677C741.287 59.1385 740.661 57.609 741.218 57.0515C741.776 56.494 743.305 57.1193 744.634 58.4483C745.963 59.7777 746.589 61.3068 746.031 61.8642C745.473 62.422 743.945 61.7969 742.615 60.4677Z" fill="#B94788"/>
<g opacity="0.4">
<path d="M744.582 61.8642C744.465 61.7597 744.347 61.6516 744.232 61.5361C742.903 60.2077 742.278 58.6774 742.836 58.1199C743.119 57.8374 743.652 57.8606 744.283 58.125C743.045 57.0253 741.726 56.546 741.217 57.0549C740.66 57.6123 741.286 59.1417 742.615 60.4711C743.268 61.1252 743.97 61.6085 744.582 61.8642Z" fill="#B94788"/>
</g>
<path d="M744.643 58.4257C742.764 58.4257 741.24 57.7868 741.24 56.9982C741.239 56.2099 742.763 55.5703 744.643 55.5703C746.523 55.5703 748.046 56.2097 748.046 56.9982C748.046 57.7871 746.523 58.4257 744.643 58.4257Z" fill="#B94788"/>
<g opacity="0.4">
<path d="M747.021 58.0187C746.864 58.0277 746.704 58.0343 746.54 58.0343C744.662 58.0343 743.138 57.3946 743.138 56.6061C743.139 56.2059 743.532 55.8452 744.165 55.5859C742.512 55.6838 741.241 56.2779 741.241 56.9974C741.241 57.786 742.765 58.4249 744.644 58.4249C745.569 58.4252 746.407 58.2707 747.021 58.0187Z" fill="#B94788"/>
</g>
<path d="M744.633 55.5459C743.305 56.8744 741.776 57.5002 741.218 56.9424C740.66 56.3854 741.285 54.8564 742.614 53.527C743.944 52.1973 745.473 51.5722 746.03 52.1296C746.588 52.6882 745.962 54.2162 744.633 55.5459Z" fill="#B94788"/>
<g opacity="0.4">
<path d="M746.026 53.5781C745.921 53.6954 745.813 53.8128 745.698 53.9287C744.369 55.2567 742.839 55.8823 742.282 55.3248C742 55.0411 742.022 54.5077 742.286 53.8772C741.187 55.1149 740.708 56.4341 741.217 56.9425C741.775 57.5003 743.304 56.8745 744.633 55.5459C745.287 54.8918 745.77 54.1896 746.026 53.5781Z" fill="#B94788"/>
</g>
<path d="M742.14 56.9975C742.14 57.5376 741.703 57.9755 741.162 57.9755C740.622 57.9755 740.185 57.5376 740.185 56.9975C740.185 56.4574 740.622 56.0195 741.162 56.0195C741.703 56.0195 742.14 56.4572 742.14 56.9975Z" fill="#FEFEF1"/>
<g opacity="0.4">
<path d="M741.735 56.207C741.755 56.2846 741.769 56.3656 741.769 56.4497C741.769 56.9899 741.331 57.4275 740.791 57.4275C740.576 57.4275 740.38 57.3565 740.219 57.2399C740.327 57.6619 740.707 57.9752 741.163 57.9752C741.703 57.9752 742.141 57.5374 742.141 56.9972C742.141 56.6715 741.98 56.385 741.735 56.207Z" fill="#FCC0AD"/>
</g>
<path d="M757.31 56.0424L755.279 57.5622L756.941 55.6622C756.29 55.0649 755.449 54.6743 754.517 54.5949L754.155 57.1047L753.987 54.5859C753.048 54.6263 752.19 54.9774 751.517 55.5443L753.037 57.5756L751.137 55.9131C750.54 56.5639 750.149 57.4053 750.069 58.3377L752.579 58.6994L750.061 58.8672C750.101 59.8063 750.452 60.6641 751.019 61.3371L753.05 59.8176L751.388 61.7174C752.039 62.3149 752.88 62.7055 753.812 62.7847L754.174 60.275L754.342 62.7937C755.281 62.7532 756.139 62.4018 756.812 61.8348L755.292 59.8037L757.192 61.4659C757.789 60.8151 758.18 59.9738 758.259 59.0413L755.75 58.6801L758.268 58.5118C758.228 57.573 757.877 56.7155 757.31 56.0424Z" fill="#FD9B00"/>
<g opacity="0.5">
<path d="M755.59 58.6919C755.59 59.4795 754.952 60.1183 754.164 60.1183C753.377 60.1183 752.738 59.4795 752.738 58.6919C752.738 57.9044 753.377 57.2656 754.164 57.2656C754.952 57.2656 755.59 57.9044 755.59 58.6919Z" fill="#FD9B00"/>
</g>
<path d="M755.126 58.6881C755.126 59.2195 754.695 59.6501 754.164 59.6501C753.633 59.6501 753.202 59.2193 753.202 58.6881C753.202 58.1572 753.633 57.7266 754.164 57.7266C754.695 57.7266 755.126 58.1572 755.126 58.6881Z" fill="#FEFEF1"/>
<path d="M733.297 40.265L731.533 41.5854L732.977 39.9351C732.411 39.4163 731.681 39.0768 730.871 39.0082L730.557 41.1879L730.41 39C729.595 39.0353 728.85 39.3405 728.265 39.8329L729.585 41.5973L727.935 40.1534C727.416 40.7185 727.077 41.4495 727.008 42.2591L729.188 42.5731L727 42.7193C727.035 43.5347 727.34 44.28 727.833 44.8644L729.597 43.5445L728.153 45.1948C728.719 45.7136 729.449 46.0531 730.259 46.122L730.573 43.9419L730.719 46.1294C731.535 46.0946 732.28 45.7894 732.864 45.2968L731.544 43.5326L733.195 44.9765C733.713 44.4109 734.053 43.6804 734.122 42.8704L731.942 42.5566L734.129 42.4106C734.094 41.5947 733.789 40.8499 733.297 40.265Z" fill="#FD9B00"/>
<g opacity="0.5">
<path d="M731.804 42.563C731.804 43.2472 731.249 43.8018 730.565 43.8018C729.881 43.8018 729.326 43.2472 729.326 42.563C729.326 41.879 729.881 41.3242 730.565 41.3242C731.249 41.3242 731.804 41.879 731.804 42.563Z" fill="#FD9B00"/>
</g>
<path d="M731.4 42.5621C731.4 43.0235 731.026 43.3974 730.565 43.3974C730.104 43.3974 729.729 43.0235 729.729 42.5621C729.729 42.1008 730.104 41.7266 730.565 41.7266C731.026 41.7266 731.4 42.1008 731.4 42.5621Z" fill="#FEFEF1"/>
<path d="M747.993 -1.44449L745.296 0.573916L747.504 -1.94946C746.639 -2.74288 745.522 -3.26166 744.283 -3.36702L743.803 -0.033679L743.58 -3.37891C742.333 -3.32526 741.194 -2.85868 740.3 -2.1059L742.318 0.592065L739.794 -1.61587C739.001 -0.751454 738.482 0.365924 738.377 1.60456L741.71 2.08463L738.365 2.30788C738.418 3.5552 738.885 4.69426 739.638 5.58822L742.336 3.56997L740.128 6.09351C740.993 6.88677 742.11 7.40571 743.348 7.51091L743.828 4.17741L744.052 7.5228C745.299 7.46915 746.438 7.00241 747.332 6.2493L745.314 3.55182L747.837 5.75976C748.63 4.89518 749.149 3.77781 749.255 2.53933L745.921 2.05958L749.266 1.83601C749.213 0.588372 748.746 -0.550368 747.993 -1.44449Z" fill="#FD9B00"/>
<g opacity="0.5">
<path d="M745.71 2.0702C745.71 3.11643 744.861 3.96462 743.815 3.96462C742.769 3.96462 741.921 3.11643 741.921 2.0702C741.921 1.02397 742.769 0.175781 743.815 0.175781C744.861 0.175781 745.71 1.02397 745.71 2.0702Z" fill="#FD9B00"/>
</g>
<path d="M745.093 2.07048C745.093 2.77588 744.521 3.34799 743.815 3.34799C743.11 3.34799 742.538 2.77588 742.538 2.07048C742.538 1.36507 743.11 0.792969 743.815 0.792969C744.521 0.792969 745.093 1.36507 745.093 2.07048Z" fill="#FEFEF1"/>
<path d="M744.97 15.2159C746.089 15.2403 747.004 14.8565 747.015 14.3596C747.026 13.8625 746.128 13.4392 745.009 13.4152C743.89 13.3909 742.974 13.7743 742.964 14.2717C742.953 14.769 743.851 15.1917 744.97 15.2159Z" fill="#912E29"/>
<g opacity="0.4">
<path d="M743.836 13.9378C743.825 14.4347 744.723 14.8576 745.842 14.8817C746.156 14.8884 746.453 14.8621 746.719 14.8114C746.36 15.0675 745.711 15.2307 744.97 15.2146C743.851 15.1904 742.953 14.7677 742.964 14.2706C742.972 13.9127 743.448 13.6148 744.131 13.4844C743.948 13.615 743.839 13.7695 743.836 13.9378Z" fill="#912E29"/>
</g>
<path d="M744.269 16.1392C744.622 17.2008 744.527 18.1889 744.055 18.3461C743.583 18.5034 742.914 17.7704 742.56 16.7087C742.206 15.6467 742.302 14.6587 742.774 14.5017C743.246 14.3443 743.915 15.0775 744.269 16.1392Z" fill="#912E29"/>
<g opacity="0.4">
<path d="M742.714 15.4331C743.186 15.2758 743.855 16.009 744.208 17.0707C744.308 17.3689 744.37 17.6604 744.4 17.93C744.539 17.5114 744.503 16.8423 744.269 16.1393C743.915 15.0778 743.246 14.3445 742.774 14.5017C742.435 14.6148 742.291 15.1581 742.368 15.8495C742.439 15.6359 742.554 15.4861 742.714 15.4331Z" fill="#912E29"/>
</g>
<path d="M742.124 13.0799C743.428 13.1377 744.505 12.715 744.531 12.1357C744.556 11.5568 743.521 11.04 742.217 10.9818C740.914 10.9242 739.837 11.3471 739.811 11.9264C739.785 12.5056 740.821 13.0222 742.124 13.0799Z" fill="#912E29"/>
<g opacity="0.4">
<path d="M740.836 11.5598C740.81 12.1391 741.846 12.6555 743.15 12.7134C743.515 12.7298 743.862 12.707 744.174 12.6547C743.749 12.9436 742.987 13.1169 742.124 13.0785C740.821 13.0209 739.785 12.504 739.811 11.9248C739.829 11.5082 740.393 11.1735 741.192 11.0391C740.975 11.1868 740.845 11.364 740.836 11.5598Z" fill="#912E29"/>
</g>
<path d="M741.281 14.1376C741.666 15.3847 741.528 16.5339 740.973 16.7046C740.419 16.8754 739.659 16.0029 739.274 14.7561C738.89 13.5089 739.028 12.3598 739.582 12.1893C740.136 12.0185 740.897 12.8909 741.281 14.1376Z" fill="#912E29"/>
<g opacity="0.4">
<path d="M739.487 13.2735C740.041 13.1027 740.802 13.9749 741.186 15.2217C741.294 15.572 741.359 15.9135 741.387 16.2286C741.559 15.744 741.535 14.9633 741.281 14.1376C740.897 12.8907 740.136 12.0185 739.582 12.1893C739.183 12.3119 739.001 12.942 739.073 13.7495C739.161 13.5025 739.3 13.3311 739.487 13.2735Z" fill="#912E29"/>
</g>
<path d="M739.176 10.2768C740.674 10.5644 741.991 10.258 742.119 9.59226C742.247 8.92668 741.137 8.15366 739.639 7.86584C738.141 7.57819 736.823 7.88479 736.696 8.55053C736.567 9.21627 737.678 9.98913 739.176 10.2768Z" fill="#912E29"/>
<g opacity="0.4">
<path d="M737.943 8.29956C737.815 8.96529 738.926 9.73816 740.423 10.0257C740.844 10.1064 741.249 10.1392 741.619 10.1313C741.078 10.3933 740.167 10.4649 739.176 10.2743C737.678 9.98663 736.567 9.2136 736.696 8.54802C736.787 8.0694 737.496 7.77741 738.443 7.75781C738.168 7.89192 737.986 8.07454 737.943 8.29956Z" fill="#912E29"/>
</g>
<path d="M738.022 11.3565C738.255 12.8639 737.901 14.1696 737.231 14.2732C736.562 14.3767 735.83 13.2392 735.596 11.7322C735.363 10.2245 735.717 8.91874 736.387 8.81514C737.057 8.71155 737.789 9.84916 738.022 11.3565Z" fill="#912E29"/>
<g opacity="0.4">
<path d="M736.094 10.0531C736.763 9.94921 737.495 11.0871 737.729 12.5942C737.794 13.0177 737.812 13.4234 737.791 13.7927C738.072 13.2612 738.176 12.3544 738.022 11.3565C737.789 9.84931 737.057 8.71169 736.387 8.81512C735.905 8.88965 735.588 9.58751 735.534 10.5335C735.677 10.2629 735.867 10.0881 736.094 10.0531Z" fill="#912E29"/>
</g>
<path d="M736.36 6.93305C737.933 7.47721 739.405 7.35129 739.646 6.65198C739.888 5.953 738.809 4.94516 737.236 4.40085C735.663 3.85637 734.192 3.98261 733.95 4.68176C733.708 5.3809 734.787 6.38906 736.36 6.93305Z" fill="#912E29"/>
<g opacity="0.4">
<path d="M735.336 4.61037C735.094 5.30903 736.173 6.31704 737.747 6.86103C738.188 7.01393 738.62 7.11239 739.021 7.16121C738.396 7.36021 737.402 7.29548 736.36 6.93523C734.787 6.39124 733.708 5.38292 733.95 4.68393C734.124 4.18106 734.935 3.97644 735.961 4.10284C735.642 4.20451 735.418 4.37379 735.336 4.61037Z" fill="#912E29"/>
</g>
<path d="M734.945 7.9215C734.962 9.58673 734.376 10.9417 733.637 10.9492C732.897 10.9567 732.284 9.61371 732.266 7.94929C732.249 6.28454 732.835 4.92914 733.574 4.92191C734.314 4.91388 734.928 6.2574 734.945 7.9215Z" fill="#912E29"/>
<g opacity="0.4">
<path d="M733.065 6.21323C733.805 6.20536 734.418 7.5484 734.435 9.21266C734.44 9.6802 734.396 10.1212 734.316 10.517C734.703 9.98746 734.956 9.02378 734.945 7.9215C734.928 6.2574 734.314 4.91372 733.574 4.92191C733.043 4.92689 732.591 5.6315 732.386 6.64496C732.583 6.37497 732.815 6.21564 733.065 6.21323Z" fill="#912E29"/>
</g>
<path d="M734.005 2.94855C735.657 3.78598 737.298 3.86918 737.67 3.13454C738.042 2.40006 737.005 1.12577 735.352 0.288495C733.699 -0.549257 732.058 -0.631972 731.686 0.102185C731.313 0.836664 732.352 2.11144 734.005 2.94855Z" fill="#912E29"/>
<g opacity="0.4">
<path d="M733.226 0.232434C732.854 0.966752 733.892 2.24121 735.544 3.07832C736.008 3.31362 736.47 3.48692 736.905 3.60159C736.185 3.72655 735.099 3.50539 734.005 2.95095C732.352 2.114 731.313 0.839226 731.686 0.104747C731.953 -0.423506 732.878 -0.526619 733.991 -0.232859C733.625 -0.168614 733.351 -0.0158722 733.226 0.232434Z" fill="#912E29"/>
</g>
<path d="M732.295 3.82459C732.063 5.66328 731.213 7.06912 730.396 6.966C729.579 6.86273 729.105 5.28937 729.337 3.45101C729.569 1.61248 730.42 0.206324 731.237 0.310079C732.054 0.413032 732.528 1.98671 732.295 3.82459Z" fill="#912E29"/>
<g opacity="0.4">
<path d="M730.48 1.65708C731.296 1.7602 731.77 3.33371 731.538 5.1716C731.473 5.68796 731.358 6.16755 731.209 6.59189C731.716 6.06604 732.141 5.04166 732.295 3.8247C732.527 1.98666 732.053 0.412982 731.236 0.31003C730.649 0.235666 730.045 0.944126 729.665 2.03067C729.924 1.76261 730.203 1.62191 730.48 1.65708Z" fill="#912E29"/>
</g>
<path d="M731.017 -0.913529C730.785 0.924836 729.934 2.33083 729.117 2.22772C728.301 2.12461 727.827 0.551252 728.059 -1.28711C728.291 -3.12564 729.142 -4.53196 729.958 -4.4282C730.775 -4.32541 731.249 -2.75141 731.017 -0.913529Z" fill="#912E29"/>
<g opacity="0.4">
<path d="M729.201 -3.0812C730.018 -2.97841 730.492 -1.40489 730.26 0.433314C730.195 0.94936 730.079 1.42927 729.931 1.85328C730.438 1.32744 730.863 0.303058 731.016 -0.913739C731.249 -2.75162 730.775 -4.32546 729.958 -4.42825C729.37 -4.50261 728.767 -3.79416 728.387 -2.70761C728.645 -2.97584 728.925 -3.11653 729.201 -3.0812Z" fill="#912E29"/>
</g>
<path d="M729.665 -5.81748C729.677 -5.84607 729.694 -5.87306 729.715 -5.89763C729.823 -6.02194 730.012 -6.03479 730.136 -5.92654C730.225 -5.84913 730.234 -5.81138 730.338 -5.34978C731.705 0.717979 735.738 11.6277 747.394 16.5203C747.546 16.584 747.618 16.7589 747.554 16.9109C747.554 16.9109 747.554 16.9112 747.554 16.9115C747.49 17.0633 747.315 17.1345 747.163 17.0707C735.261 12.0749 731.148 0.961307 729.755 -5.21856C729.721 -5.37066 729.688 -5.51505 729.673 -5.56741C729.634 -5.64515 729.631 -5.73686 729.665 -5.81748Z" fill="#912E29"/>
<path d="M746.886 17.5525C747.906 18.0124 748.899 18.017 749.103 17.5635C749.307 17.1101 748.646 16.37 747.625 15.9105C746.605 15.4508 745.612 15.446 745.408 15.8995C745.204 16.3525 745.865 17.0927 746.886 17.5525Z" fill="#912E29"/>
<g opacity="0.4">
<path d="M746.341 15.9329C746.136 16.3863 746.798 17.1266 747.818 17.5859C748.105 17.7149 748.388 17.8069 748.654 17.8641C748.223 17.9597 747.561 17.8559 746.886 17.5516C745.865 17.0919 745.204 16.3516 745.408 15.8986C745.555 15.5722 746.11 15.4845 746.79 15.6313C746.57 15.68 746.41 15.7797 746.341 15.9329Z" fill="#912E29"/>
</g>
<path d="M777.266 58.9746C773.521 59.5673 769.994 56.9525 769.994 56.9525C769.994 56.9525 772.54 53.376 776.285 52.7829C780.03 52.1897 783.557 54.8043 783.557 54.8043C783.557 54.8043 781.011 58.381 777.266 58.9746Z" fill="#FE8D6B"/>
<g opacity="0.4">
<path d="M777.266 58.9723C777.913 58.8692 778.524 58.676 779.092 58.4293C779.056 58.4354 779.019 58.4436 778.982 58.4495C776.502 58.8425 774.118 57.8279 772.79 57.0981C774.528 56.6821 778.497 55.7528 781.441 55.2283C779.878 55.2369 778.089 55.4302 776.452 55.6703L777.818 54.0386L775.65 55.7931C773.985 56.0598 772.562 56.3537 771.831 56.5122C771.754 56.4595 771.711 56.428 771.711 56.428C771.711 56.428 773.454 53.9827 776.175 52.8008C772.491 53.4466 769.994 56.9504 769.994 56.9504C769.994 56.9504 773.521 59.565 777.266 58.9723Z" fill="#FE8D6B"/>
</g>
<path d="M787.061 5.06578C783.67 3.36988 782.322 -0.808122 782.322 -0.808122C782.322 -0.808122 786.473 -2.23725 789.865 -0.541506C793.256 1.1544 794.604 5.3324 794.604 5.3324C794.604 5.3324 790.453 6.76152 787.061 5.06578Z" fill="#FE8D6B"/>
<g opacity="0.4">
<path d="M787.061 5.06812C787.648 5.36108 788.257 5.55927 788.863 5.68921C788.83 5.67282 788.795 5.65821 788.762 5.6415C786.516 4.51802 785.167 2.30656 784.511 0.940712C786.166 1.61287 789.936 3.16583 792.635 4.45137C791.359 3.54873 789.791 2.66536 788.32 1.90904L790.38 1.37597L787.596 1.54269C786.087 0.791182 784.758 0.202539 784.071 -0.093951C784.04 -0.181806 784.023 -0.232238 784.023 -0.232238C784.023 -0.232238 786.862 -1.20796 789.764 -0.586548C786.391 -2.20439 782.322 -0.805784 782.322 -0.805784C782.322 -0.805784 783.67 3.37222 787.061 5.06812Z" fill="#FE8D6B"/>
</g>
<path d="M833.948 0.868265C836.909 1.10067 839.118 3.73664 839.118 3.73664C839.118 3.73664 836.525 5.99661 833.564 5.76452C830.602 5.53212 828.394 2.89631 828.394 2.89631C828.394 2.89631 830.986 0.636342 833.948 0.868265Z" fill="#FE8D6B"/>
<g opacity="0.4">
<path d="M833.948 0.867917C833.436 0.828085 832.935 0.86342 832.457 0.947741C832.486 0.949669 832.515 0.950151 832.544 0.952399C834.506 1.1061 836.137 2.31439 837.015 3.11295C835.615 3.11263 832.421 3.09561 830.083 2.95716C831.276 3.23646 832.674 3.41603 833.965 3.53183L832.626 4.52554L834.598 3.58467C835.915 3.68586 837.053 3.72183 837.639 3.73468C837.688 3.78897 837.715 3.82077 837.715 3.82077C837.715 3.82077 835.94 5.36554 833.651 5.76867C836.576 5.95 839.118 3.73629 839.118 3.73629C839.118 3.73629 836.909 1.10032 833.948 0.867917Z" fill="#FE8D6B"/>
</g>
<path d="M832.753 53.6066C835.715 53.839 837.924 56.4751 837.924 56.4751C837.924 56.4751 835.331 58.7349 832.369 58.503C829.408 58.2706 827.199 55.6349 827.199 55.6349C827.199 55.6349 829.792 53.3745 832.753 53.6066Z" fill="#FE8D6B"/>
<g opacity="0.4">
<path d="M832.753 53.6061C832.241 53.5663 831.741 53.602 831.263 53.6863C831.292 53.6879 831.321 53.6887 831.35 53.6909C833.312 53.8445 834.943 55.0529 835.821 55.8513C834.421 55.8508 831.227 55.8337 828.889 55.6952C830.082 55.9748 831.48 56.1542 832.77 56.27L831.432 57.2636L833.404 56.323C834.721 56.4241 835.859 56.4602 836.445 56.4731C836.494 56.5272 836.521 56.559 836.521 56.559C836.521 56.559 834.747 58.1036 832.457 58.5067C835.382 58.6882 837.924 56.4747 837.924 56.4747C837.924 56.4747 835.715 53.8385 832.753 53.6061Z" fill="#FE8D6B"/>
</g>
<path d="M776.584 49.7483C775.142 51.839 772.245 52.3429 772.245 52.3429C772.245 52.3429 771.685 49.4555 773.126 47.3644C774.568 45.2735 777.465 44.7695 777.465 44.7695C777.465 44.7695 778.025 47.6573 776.584 49.7483Z" fill="#FE8D6B"/>
<g opacity="0.4">
<path d="M776.584 49.7475C776.833 49.3856 777.021 49.0001 777.164 48.6102C777.15 48.6307 777.137 48.6522 777.123 48.6728C776.168 50.0581 774.575 50.7465 773.608 51.0531C774.208 50.0179 775.591 47.6626 776.696 45.9922C775.978 46.7549 775.245 47.7122 774.606 48.6171L774.445 47.2008L774.296 49.0631C773.656 49.9943 773.141 50.8203 772.88 51.2485C772.819 51.2614 772.784 51.2675 772.784 51.2675C772.784 51.2675 772.403 49.2926 773.086 47.4266C771.698 49.5122 772.245 52.3421 772.245 52.3421C772.245 52.3421 775.142 51.8381 776.584 49.7475Z" fill="#FE8D6B"/>
</g>
<path d="M849.882 39.156C848.809 41.2894 846.176 42.1325 846.176 42.1325C846.176 42.1325 845.283 39.5163 846.355 37.3827C847.428 35.2491 850.06 34.4062 850.06 34.4062C850.06 34.4062 850.955 37.0225 849.882 39.156Z" fill="#FE8D6B"/>
<g opacity="0.4">
<path d="M849.882 39.1557C850.068 38.7867 850.193 38.4035 850.276 38.0217C850.265 38.0428 850.256 38.0646 850.246 38.0857C849.535 39.4989 848.14 40.3455 847.28 40.7563C847.705 39.7151 848.688 37.3427 849.501 35.6445C848.931 36.4474 848.373 37.4334 847.895 38.3587L847.562 37.0605L847.663 38.8139C847.187 39.7636 846.815 40.5996 846.627 41.0324C846.572 41.0517 846.54 41.0623 846.54 41.0623C846.54 41.0623 845.929 39.2726 846.325 37.4463C845.302 39.5681 846.177 42.1323 846.177 42.1323C846.177 42.1323 848.81 41.2891 849.882 39.1557Z" fill="#FE8D6B"/>
</g>
<path d="M781.877 49.4076C780.484 50.5864 778.381 50.3905 778.381 50.3905C778.381 50.3905 778.536 48.2838 779.928 47.1049C781.321 45.9264 783.424 46.1214 783.424 46.1214C783.424 46.1214 783.27 48.2282 781.877 49.4076Z" fill="#FE8D6B"/>
<g opacity="0.4">
<path d="M781.877 49.4065C782.117 49.2024 782.321 48.9703 782.493 48.7271C782.479 48.7387 782.466 48.7511 782.453 48.7626C781.53 49.5437 780.296 49.7215 779.568 49.7525C780.179 49.1478 781.58 47.7746 782.66 46.8242C782.019 47.2177 781.331 47.7439 780.718 48.2514L780.872 47.2388L780.419 48.502C779.8 49.0268 779.288 49.5032 779.027 49.7507C778.982 49.7483 778.957 49.7462 778.957 49.7462C778.957 49.7462 779.063 48.3054 779.888 47.1397C778.533 48.3253 778.381 50.3895 778.381 50.3895C778.381 50.3895 780.484 50.5854 781.877 49.4065Z" fill="#FE8D6B"/>
</g>
<path d="M786.671 10.5718C785.684 8.55149 786.555 6.09766 786.555 6.09766C786.555 6.09766 789.025 6.92031 790.011 8.94097C790.998 10.9613 790.128 13.415 790.128 13.415C790.128 13.415 787.658 12.593 786.671 10.5718Z" fill="#FE8D6B"/>
<g opacity="0.4">
<path d="M786.671 10.572C786.842 10.9212 787.058 11.2343 787.296 11.5137C787.286 11.4942 787.276 11.4746 787.266 11.4549C786.612 10.1165 786.773 8.58859 786.957 7.70892C787.495 8.62184 788.711 10.7117 789.519 12.2896C789.243 11.4041 788.823 10.4236 788.402 9.537L789.565 10.0283L788.193 9.10367C787.753 8.20601 787.339 7.45033 787.122 7.06277C787.139 7.01025 787.149 6.98054 787.149 6.98054C787.149 6.98054 788.838 7.54381 789.981 8.88171C788.975 6.90457 786.555 6.09766 786.555 6.09766C786.555 6.09766 785.684 8.55181 786.671 10.572Z" fill="#FE8D6B"/>
</g>
</g>
<path d="M725.311 13.403C725.311 15.2824 724.672 16.8063 723.884 16.8063C723.095 16.8063 722.456 15.2824 722.456 13.403C722.456 11.5237 723.095 10 723.884 10C724.672 10.0002 725.311 11.5237 725.311 13.403Z" fill="#B94788"/>
<g opacity="0.4">
<path d="M724.905 11.0273C724.915 11.1841 724.921 11.3433 724.921 11.5063C724.921 13.3858 724.282 14.9093 723.493 14.9093C723.093 14.9093 722.732 14.5152 722.473 13.8825C722.57 15.5343 723.165 16.8065 723.884 16.8065C724.673 16.8065 725.312 15.2826 725.312 13.4033C725.312 12.4783 725.157 11.6406 724.905 11.0273Z" fill="#B94788"/>
</g>
<path d="M722.432 13.4132C723.761 14.7423 724.387 16.2715 723.829 16.8291C723.272 17.3869 721.743 16.7615 720.413 15.4324C719.085 14.1035 718.459 12.5742 719.016 12.0164C719.574 11.4587 721.103 12.0843 722.432 13.4132Z" fill="#B94788"/>
<g opacity="0.4">
<path d="M720.465 12.0195C720.582 12.1238 720.699 12.2319 720.815 12.3469C722.143 13.6759 722.769 15.2054 722.211 15.7629C721.928 16.0461 721.394 16.0228 720.764 15.7589C722.001 16.8578 723.32 17.3372 723.829 16.8279C724.387 16.2703 723.761 14.7411 722.433 13.412C721.779 12.7579 721.076 12.2754 720.465 12.0195Z" fill="#B94788"/>
</g>
<path d="M720.403 15.457C722.282 15.457 723.806 16.0963 723.806 16.8852C723.806 17.6733 722.283 18.3124 720.403 18.3124C718.524 18.3124 717 17.6736 717 16.8846C717 16.0956 718.524 15.457 720.403 15.457Z" fill="#B94788"/>
<g opacity="0.4">
<path d="M718.026 15.8639C718.183 15.8545 718.343 15.8481 718.506 15.848C720.385 15.8481 721.909 16.4872 721.909 17.2761C721.908 17.6767 721.514 18.0376 720.882 18.2968C722.534 18.1988 723.806 17.6046 723.806 16.8852C723.806 16.0963 722.282 15.457 720.402 15.457C719.477 15.4569 718.64 15.6123 718.026 15.8639Z" fill="#B94788"/>
</g>
<path d="M720.414 18.3389C721.742 17.0102 723.272 16.3844 723.829 16.9422C724.387 17.4994 723.762 19.0284 722.433 20.358C721.103 21.687 719.574 22.3126 719.016 21.7551C718.459 21.1967 719.085 19.6681 720.414 18.3389Z" fill="#B94788"/>
<g opacity="0.4">
<path d="M719.021 20.3069C719.125 20.1895 719.233 20.0719 719.349 19.9564C720.677 18.6279 722.207 18.0021 722.765 18.5599C723.048 18.8437 723.024 19.3771 722.76 20.0077C723.859 18.7705 724.339 17.4509 723.83 16.9422C723.272 16.3844 721.743 17.0102 720.414 18.3389C719.759 18.9929 719.276 19.6953 719.021 20.3069Z" fill="#B94788"/>
</g>
<path d="M722.457 20.3643C722.457 18.4848 723.096 16.9605 723.884 16.9609C724.673 16.9606 725.312 18.4839 725.312 20.3637C725.312 22.2439 724.673 23.7674 723.884 23.7674C723.095 23.767 722.457 22.2436 722.457 20.3643Z" fill="#B94788"/>
<g opacity="0.4">
<path d="M722.863 22.7407C722.854 22.5838 722.848 22.4245 722.848 22.2608C722.848 20.3821 723.487 18.8579 724.275 18.8579C724.676 18.8589 725.037 19.2526 725.296 19.885C725.198 18.2325 724.604 16.9606 723.884 16.9609C723.096 16.9606 722.457 18.4848 722.457 20.3643C722.457 21.2893 722.612 22.1277 722.863 22.7407Z" fill="#B94788"/>
</g>
<path d="M725.337 20.3544C724.008 19.0253 723.383 17.4958 723.94 16.9383C724.497 16.3807 726.027 17.0058 727.356 18.3353C728.685 19.6646 729.31 21.1937 728.753 21.7511C728.195 22.3089 726.666 21.6833 725.337 20.3544Z" fill="#B94788"/>
<g opacity="0.4">
<path d="M727.305 21.7472C727.187 21.6425 727.07 21.5344 726.954 21.4189C725.626 20.0904 725.001 18.5602 725.558 18.0029C725.842 17.7202 726.375 17.7433 727.006 18.0077C725.768 16.9083 724.449 16.4287 723.94 16.9377C723.383 17.4952 724.008 19.0247 725.337 20.3538C725.991 21.0083 726.693 21.4914 727.305 21.7472Z" fill="#B94788"/>
</g>
<path d="M727.366 18.3122C725.486 18.3122 723.963 17.6733 723.963 16.8847C723.962 16.0963 725.485 15.457 727.365 15.457C729.246 15.457 730.769 16.0961 730.769 16.8847C730.769 17.6738 729.245 18.3122 727.366 18.3122Z" fill="#B94788"/>
<g opacity="0.4">
<path d="M729.743 17.9056C729.585 17.9143 729.426 17.9212 729.262 17.9212C727.384 17.9212 725.86 17.2815 725.86 16.4929C725.861 16.0925 726.254 15.732 726.886 15.4727C725.234 15.5705 723.962 16.1646 723.963 16.884C723.963 17.6724 725.486 18.3115 727.366 18.3115C728.291 18.312 729.129 18.1573 729.743 17.9056Z" fill="#B94788"/>
</g>
<path d="M727.355 15.4325C726.027 16.7611 724.497 17.3868 723.939 16.829C723.382 16.2722 724.007 14.743 725.336 13.4138C726.665 12.084 728.194 11.4589 728.752 12.0163C729.31 12.5746 728.684 14.1028 727.355 15.4325Z" fill="#B94788"/>
<g opacity="0.4">
<path d="M728.748 13.4648C728.643 13.5823 728.535 13.6998 728.419 13.8156C727.091 15.1439 725.561 15.7691 725.004 15.2118C724.721 14.928 724.744 14.3945 725.008 13.7641C723.909 15.0017 723.43 16.3212 723.939 16.8293C724.497 17.3871 726.026 16.7616 727.354 15.4328C728.009 14.7786 728.492 14.0765 728.748 13.4648Z" fill="#B94788"/>
</g>
<path d="M724.862 16.8842C724.862 17.4245 724.424 17.8622 723.884 17.8622C723.344 17.8622 722.906 17.4245 722.906 16.8842C722.906 16.3441 723.344 15.9062 723.884 15.9062C724.425 15.9062 724.862 16.3441 724.862 16.8842Z" fill="#FEFEF1"/>
<g opacity="0.4">
<path d="M724.457 16.0977C724.477 16.1754 724.491 16.256 724.491 16.34C724.491 16.8803 724.053 17.318 723.513 17.318C723.298 17.318 723.102 17.247 722.94 17.1302C723.049 17.5523 723.428 17.8657 723.884 17.8657C724.424 17.8657 724.862 17.428 724.862 16.8877C724.862 16.562 724.701 16.2756 724.457 16.0977Z" fill="#FCC0AD"/>
</g>
</svg>
